<?xml version="1.0" encoding="UTF-8" standalone="no"?>
<!-- Created with Inkscape (http://www.inkscape.org/) -->

<svg
   width="160.4398mm"
   height="103.2263mm"
   viewBox="0 0 160.4398 103.2263"
   version="1.1"
   id="svg5"
   inkscape:version="1.2-beta (1b65182c, 2022-04-05)"
   sodipodi:docname="KLAS.svg"
   xmlns:inkscape="http://www.inkscape.org/namespaces/inkscape"
   xmlns:sodipodi="http://sodipodi.sourceforge.net/DTD/sodipodi-0.dtd"
   xmlns="http://www.w3.org/2000/svg"
   xmlns:svg="http://www.w3.org/2000/svg">
  <sodipodi:namedview
     id="namedview7"
     pagecolor="#ffffff"
     bordercolor="#111111"
     borderopacity="1"
     inkscape:pageshadow="0"
     inkscape:pageopacity="0"
     inkscape:pagecheckerboard="1"
     inkscape:document-units="mm"
     showgrid="false"
     inkscape:zoom="1.4097007"
     inkscape:cx="185.14568"
     inkscape:cy="135.13506"
     inkscape:window-width="1680"
     inkscape:window-height="997"
     inkscape:window-x="0"
     inkscape:window-y="44"
     inkscape:window-maximized="0"
     inkscape:current-layer="g53"
     inkscape:deskcolor="#d1d1d1"
     inkscape:lockguides="true" />
  <defs
     id="defs2">
    <clipPath
       clipPathUnits="userSpaceOnUse"
       id="clipPath57">
      <path
         d="M 9.15,1.77 H 378.21 V 592.23 H 9.15 V 1.77"
         clip-rule="evenodd"
         id="path55" />
    </clipPath>
    <clipPath
       clipPathUnits="userSpaceOnUse"
       id="clipPath8581">
      <path
         d="M 0,0 H 387.36 V 594 H 0 Z"
         id="path8579" />
    </clipPath>
    <clipPath
       clipPathUnits="userSpaceOnUse"
       id="clipPath8611">
      <path
         d="M 0,0 H 387.36 V 594 H 0 Z"
         id="path8609" />
    </clipPath>
  </defs>
  <g
     inkscape:label="Layer 1"
     inkscape:groupmode="layer"
     id="layer1"
     transform="translate(-26.132918,-72.855011)">
    <g
       id="g47"
       inkscape:label="KLAS"
       transform="matrix(0,0.35277777,0.35277777,0,-2.3327202,61.432067)">
      <g
         id="g49">
        <g
           id="g51">
          <g
             id="g53"
             clip-path="url(#clipPath57)">
            <g
               id="g59"
               transform="translate(41.02,215.41)">
              <path
                 d="m 0,0 -7.75,3.66 0.51,7.68 10.08,-4.6 0.54,1.18 0.19,0.86 -0.19,0.93 -0.67,1.31 -1.18,2.34 -0.19,1.08 0.09,0.92 2.3,5.06 1,0.8 1.98,0.7 2.48,0.45 1,0.57 0.78,0.87 0.67,1.31 -10.43,4.54 2.87,6.53 10.74,-4.71 -2.28,-5.22 7.37,-3.44 -2.13,0.14 -1.28,-0.12 -1.31,-0.42 -1.12,-0.73 -0.9,-0.8 -0.73,-1.28 -0.42,-1.09 -0.32,-1.31 0.16,-1.25 0.39,-1.34 0.54,-1.15 0.77,-0.89 1.08,-0.9 2.95,-1.47 8.91,-4.51 6.75,-2.94 5.37,-1.86 0.96,-0.25 0.73,-0.03 1.14,0.5 0.57,0.63 2.43,5.13 0.14,0.22 0.23,1.63 -0.42,1.44 -0.73,1.06 -1.35,1.12 L 52.85,7.61 50.97,7.73 49.5,7.32 48.57,6.68 47.8,5.69 47.19,4.12 l -0.6,-2.23 -0.29,-2 -0.03,-1.43 0.48,-0.99 1.72,-1.28 4.09,-2.62 7.76,-3.31 5.41,-1.84 h 0.84 l 1.15,0.51 0.7,0.74 2.3,5.3 0.28,1.07 v 0.64 l -0.5,1.65 -0.93,0.96 -1.73,1.18 10.95,-5.11 -1.38,0.09 -1.15,-0.26 -1.09,-0.57 -0.83,-0.68 -2.75,-5.94 -0.16,-0.77 0.28,-1.04 0.43,-0.79 0.86,-0.64 3.38,-1.94 2.37,-1.31 2.24,-1.16 28.01,-12.22 5.8,-2.7 1.38,-0.38 1.64,0.01 0.93,0.71 2.56,5.81 0.2,1.19 -0.16,1.02 -0.39,1.21 -0.57,0.69 -0.71,1 10.49,-5.06 -1.44,0.34 -0.89,0.03 -1.28,-0.26 -1.15,-0.76 -0.71,-0.87 -2.23,-4.98 -0.32,-1.19 0.16,-1.18 0.6,-0.93 1.03,-0.86 2.3,-1.33 3.14,-2.01 44.91,-20.55 6.48,-2.64 0.93,-0.19 0.67,0.19 0.8,0.48 0.7,0.51 3.2,3.17 1.12,2.04 0.29,1.15 -0.13,1.38 -0.73,1.19 -1.03,0.92 11.03,-4.84 h -1.43 l -1,-0.29 -0.64,-0.48 -0.29,-0.54 -0.21,-0.98 0.18,-9.28 0.48,-0.99 0.67,-0.48 1.15,-0.67 4.8,-2.57 7.56,-3.71 9,-3.71 2.09,-0.52 1.47,-0.26 h 1.15 l 1.08,0.67 0.79,0.74 0.98,1.08 1.71,2.43 0.58,1.5 0.14,0.57 v 1 l -0.29,0.78 -0.14,0.5 -1,1.65 7.85,-3.79 -1.34,-0.42 -0.48,-0.61 -0.09,-0.79 -0.07,-7.69 0.23,-1.31 0.25,-0.7 0.64,-0.93 1.08,-0.75 6.63,-3.07 1.36,-0.29 1.36,0.36 0.92,0.57 0.79,0.79 0.63,1.53 v -4.53 l 0.01,-5.22 -1.07,1.08 -1,0.71 -8.1,3.21 -1.24,0.16 -0.99,-0.26 -0.7,-0.8 -0.54,-1.14 -0.07,-4.41 2.08,-6.04 -0.86,-0.14 -0.3,-0.06 -0.36,-0.28 -0.34,-0.39 -0.09,-0.64 -0.02,-4.54 0.04,-0.45 0.09,-0.51 0.33,-0.61 0.65,-0.44 0.29,-0.21 5.39,-2.68 1.77,-0.8 1.1,-0.14 0.87,0.12 0.45,0.12 0.69,0.31 0.72,0.57 1,1.21 0.14,1.14 -0.07,0.72 -0.07,1 -0.43,0.92 -0.72,0.93 13.39,-6.27 2.39,5.3 11.19,-5.04 -3.06,-6.79 -11.1,5 -0.1,-0.19 -0.86,-1 -0.71,-0.64 -1.57,-1.22 -1.57,-1 -0.87,-0.37 0.21,-8.77 -7.44,-0.09 -0.11,7.86 -8.06,0.02 -0.58,-0.22 -0.57,-0.64 -0.14,-0.64 -0.43,-3 v -0.71 l -0.28,-0.65 -0.43,-0.57 -1,-0.5 -1.43,-0.35 -1.28,-0.29 -1,-0.14 -3.14,-0.07 -1.57,0.07 v 0.93 l -0.43,0.21 v 3.36 0.5 l 2,-0.22 1.85,-0.07 0.43,0.86 0.14,2.85 -7.7,3.71 -5.42,2.52 -0.14,0.07 -1.3,0.27 -1.42,0.07 -2,-0.07 -1,-0.07 -1,-0.36 -1,-0.5 -1.14,-1.14 -0.57,-0.79 -0.57,-0.71 -0.86,-1.71 -0.43,-1.29 -0.04,-1.49 V -128 l -0.06,-6.33 -4.32,-0.25 -9,-0.14 -3.71,5.5 -0.28,7.63 v 7.21 0.5 l -1.35,-0.04 -0.03,-3.1 -16.47,0.07 -3.28,-0.07 -0.01,2.87 h -15.8 l -0.09,4.85 h -4.63 l -0.02,6.84 -0.75,0.78 -3.14,2.21 0.74,1.36 -4.01,2.46 1.76,3.77 -10.88,5.27 -5.66,2.83 -1.03,-2.41 -1.78,0.64 0.48,8.17 -3.83,1.47 0.03,-7 0.03,-5.83 -2.33,-0.06 h -6.76 -4.55 -4.97 l -0.03,6.47 -14.85,-0.14 -0.14,1.21 -3.79,6.69 0.25,0.1 -0.86,1.5 -1,-0.64 -3.07,5.35 -0.01,5.57 4.78,-0.02 4.13,2.5 0.71,0.5 0.29,1.07 -0.34,0.97 -58.62,27.23 -0.57,0.07 -0.43,-0.15 -0.14,-0.07 -0.43,-0.28 -0.14,-0.29 -0.14,-0.35 -0.29,-0.79 21.84,-10.13 6.42,-2.93 3.43,-1.57 3.57,-1.71 6.71,-3.07 -0.14,-5.07 -3.95,0.17 0.6,-25.49 -2.57,-0.12 -5.4,6.22 -3.24,-3.91 -1.43,-1.64 -2,-0.14 -0.29,-0.43 v -7.92 h -2.28 v 0.64 h -0.71 v 3.71 l -3.43,0.07 -6.18,-0.05 v -1.53 -0.85 l -2.38,0.01 0.14,7.49 2.14,-0.07 -0.01,-0.62 0.02,-1.64 9.51,-0.04 0.04,6.23 h -9.09 l 0.01,-2.41 -2.34,0.05 -0.11,8.41 9.73,-0.02 0.05,12.36 3.62,-0.09 -0.13,5.27 -4.27,0.03 -0.01,-5.72 H 31.08 l -0.03,8.27 -6.84,-0.06 0.01,-1.11 -17.44,-0.03 -0.04,-4.35 -8.04,-0.06 -1.5,0.87 -0.71,0.5 -1.77,1.7 5.56,5.79 1.92,2.07 1.77,-1.64 2.29,2.29 -1.07,0.99 2.55,2.7 -13.83,13.26 -0.78,-1.12 -1.56,2 -0.21,9.59 3.98,-1.95 1.86,3.5 2.22,4.45 -1.12,3.32 -0.41,1.47 -0.1,1.03 0.26,1.69 L 0,0 m 4.24,-8.73 0.91,0.03 0.97,0.44 0.36,0.44 0.71,1.71 0.43,0.8 0.09,1.5 -0.34,1.07 -0.66,0.88 -0.75,0.4 L 5.05,-1.32 3.84,-1.61 2.77,-2.32 2.2,-2.97 1.2,-5.25 1.24,-6.78 1.92,-7.69 3.2,-8.39 4.24,-8.73 m 55.64,-13.34 -15.89,7.59 1.92,-0.25 0.57,0.22 v 0.83 l -1.18,1.89 -1.95,4.31 -0.83,1.44 -1.02,1.03 -1.82,1.4 -4.67,2.89 L 33.18,0.3 19.4,6.58 15.9,8.07 11.9,9.45 10.47,9.93 9.67,9.9 8.87,9.74 8.16,9.26 7.65,8.65 7.37,8.07 V 7.12 L 7.46,5.26 7.78,4.3 8.55,3.06 9.47,2.16 11.14,1.11 22.38,-3.95 21,-8.12 l -5.65,2.59 -1.38,0.16 -1.04,-0.1 -0.78,-0.19 -0.57,-0.53 -0.82,-1.34 -0.86,-1.93 -0.11,-0.93 0.32,-0.78 0.53,-0.69 1.69,-1.03 36.54,-17.27 5.66,-2.2 1.45,-0.53 0.84,0.16 0.88,0.4 0.76,0.73 0.84,1.88 0.26,1.57 -0.34,1.27 -0.67,1.02 -1.54,1.05 10.85,-4.78 -1.74,0.22 -1.98,-0.32 -0.94,-0.75 -0.79,-1.23 -0.81,-1.91 0.06,-1.04 0.41,-0.91 0.9,-0.76 5.75,-3.08 32.93,-15.29 4.47,-1.62 1.13,-0.01 0.98,0.47 0.75,0.72 1.04,2.73 -0.07,1.04 -0.31,1.23 -0.88,1.13 1.05,4 2.02,-0.16 1.24,0.41 0.9,0.93 1.21,2.08 0.1,0.86 -0.61,1.69 -1.66,1.51 -2.18,1.35 -1.01,0.58 -31.07,14.86 -4.48,1.54 -2.84,0.99 -1.37,0.22 -0.96,-0.32 -0.8,-0.73 -0.71,-1.22 -0.54,-1.31 -0.03,-1.21 0.45,-1.25 1.39,-2.01 -2.86,1.14 -3.42,1.64 -2.7,1.31 m -13.03,-14.91 5.48,-2 0.84,-0.15 0.7,0.28 0.78,0.91 0.06,0.44 0.03,0.25 -0.16,0.53 -0.57,0.42 -1.67,1.16 -1.04,0.49 -3.85,2.06 -28.55,13.14 -6.85,3 -1.72,0.64 -1.57,0.57 -0.43,0.07 -0.57,-0.07 -0.85,-0.64 -0.15,-0.36 v -0.21 -0.65 l 0.58,-1 3.85,-2.14 6.71,-3.21 9.69,-4.66 1.44,-0.69 0.02,0.04 11.4,-5.25 6.4,-2.97 m 1.74,30.29 -0.75,-0.2 -0.32,-0.54 0.16,-0.74 0.55,-1.25 1.42,-2.4 1.44,-1.88 2.32,-2.56 2.15,-1.76 2.81,-2.17 1.31,-0.84 1.12,-0.09 1.28,0.16 0.8,0.45 0.9,0.76 0.89,1.35 0.26,0.73 v 1.25 l -0.19,0.61 -0.42,0.54 -6.04,3.77 -9.69,4.81 m 47.67,-53.24 7,-2.77 1.06,0.15 0.38,0.31 0.25,0.85 v 0.75 l -0.41,0.79 -0.97,0.63 -5.19,2.87 -0.26,0.13 -30.4,14.14 -3.29,1.29 -2.55,1.12 -1.13,0.38 -0.81,-0.13 -0.48,-0.41 -0.37,-0.53 -0.13,-0.69 0.19,-0.81 0.72,-0.72 4.42,-2.5 31.97,-14.85 m 74.95,-34.8 2,-0.73 2.81,-1.19 1.51,-0.44 0.72,0.16 0.66,0.78 0.06,0.95 -0.38,0.97 -7.17,3.89 -52.58,24.47 -0.02,-0.05 -6.99,2.86 -0.97,0.14 -0.82,-0.25 -0.56,-0.56 -0.04,-0.82 0.22,-0.78 0.57,-0.73 4.52,-2.35 56.46,-26.32 m -35.26,13.16 -15.72,7.31 -0.55,-0.08 -0.43,-0.36 -0.24,-0.56 0.1,-0.51 16.55,-7.7 0.43,0.85 v 0.22 l -0.14,0.83 m 10.85,-5.04 -7.99,3.71 -0.58,-0.29 -0.14,-0.28 -0.36,-0.92 10.55,-5.11 0.23,0.46 -0.43,1.21 -1.28,1.22 m 43.66,-22.45 0.11,0.36 0.05,0.53 -0.14,0.86 -1.15,0.91 -0.16,0.11 -34.52,16.04 h -1.57 l -0.79,-0.36 -0.57,-0.45 38.07,-17.63 0.67,-0.37 m 1.57,9.14 -2.69,1.03 -3.71,1.57 -0.85,0.04 -0.56,-0.06 -0.64,-0.58 -0.43,-0.77 0.12,-0.71 0.62,-0.7 2.31,-1.29 1.57,-0.83 0.66,-0.34 28.03,-13.17 6.14,-2.71 1.11,-0.24 0.81,0.23 0.65,0.72 0.2,1.11 -0.2,0.74 -0.69,0.54 -0.53,0.32 -2.5,1.21 -5.42,2.71 -24,11.18 m -49,34.88 23.75,-10.51 -0.82,-0.89 v -0.5 l 0.3,-0.53 5.42,-7.44 1.11,-1.17 2.85,-2.44 2.91,-1.64 1.72,-0.59 1.42,0.34 0.88,0.57 0.89,1.77 0.25,0.82 0.16,1.2 -0.31,1.36 -0.76,0.99 -1.1,1.08 10.16,-4.83 -1.93,0.22 -1.01,-0.19 -0.7,-0.35 -0.7,-0.5 -1.04,-1.84 -0.51,-1.11 -0.06,-0.88 0.25,-0.83 0.41,-0.63 0.95,-0.66 1.37,-0.73 2.76,-1.51 27.02,-12.8 5.04,-1.98 2.17,-0.64 0.71,-0.07 0.72,0.07 0.57,0.21 0.43,0.36 0.28,0.36 0.29,0.71 0.15,0.8 -0.01,1.13 -0.14,1.71 -0.15,0.79 -0.42,0.78 -0.86,0.79 -2.86,6.13 h 1.15 l 1.14,0.36 1.14,0.72 0.71,1.14 0.17,1.23 v 1.76 l -0.19,0.79 -0.69,0.78 -4.71,2.79 -0.29,0.21 -0.43,0.12 -0.51,-0.13 -1.33,-0.74 -1.89,-0.73 -1.91,-0.7 -3.06,-0.46 -1.05,-0.12 -0.67,-0.31 -0.06,-0.45 0.21,-0.62 -13.71,6.36 6.71,-1.22 2.43,-0.21 2.28,-0.15 2.15,0.08 1.14,0.07 4.02,0.6 0.41,0.22 0.25,0.32 -0.06,0.51 -0.19,0.32 -3.86,1.53 -5.85,2.42 -6.71,3.14 -5.17,2 -1.15,0.35 -1.15,-0.1 -0.8,-0.44 -0.7,-0.8 -0.74,-1.47 -0.22,-0.95 v -0.87 l 0.29,-1.02 0.57,-0.79 1.5,-1.39 -9.92,4.59 1.63,-0.06 1.12,0.38 1.05,0.96 0.64,0.74 0.48,1.43 0.03,1.15 -0.31,1.47 -1.03,0.77 -2.01,0.83 -2.74,0.82 -2.01,0.35 -2.69,0.2 h -2.14 l -6.3,-0.45 -0.96,-0.32 -0.09,-0.51 0.7,-1.44 -25.7,12.27 11.55,-3.96 4.22,-1.15 4.64,-0.99 7.27,-0.74 3.39,0.23 0.71,0.19 0.22,0.38 -0.13,0.64 -47.88,22.26 -0.47,0.22 -5.36,1.77 -1.03,0.15 -0.82,-0.23 -0.71,-0.5 -0.92,-1.31 -0.58,-1.28 -0.12,-1.38 0.35,-1.15 0.51,-0.83 0.97,-1.02 -2.17,-3.46 -1.13,-0.06 -1.04,-0.25 -0.98,-0.53 -0.69,-0.76 -0.75,-1.42 -0.51,-1.29 0.1,-0.81 0.31,-0.7 0.69,-0.81 4.56,-2.55 48.13,-22.54 0.94,-0.03 0.4,0.3 v 0.65 l -2.11,2.69 -2.95,2.96 -5.04,4.32 -6,4.14 -8.05,4.59 -1.09,0.48 -3.14,1.93 4.23,-2.41"
                 style="fill:#cfcfcf;fill-opacity:1;fill-rule:evenodd;stroke:none"
                 id="path61" />
            </g>
            <g
               id="g63"
               transform="translate(311.67,121.75)">
              <path
                 d="m 0,0 -10.09,-21.21 -2.83,1.27 -3.92,1.73 2.59,-0.36 1.15,0.29 1.23,0.86 1.36,2.74 0.08,1.08 -0.29,0.86 -0.87,1.01 -3.38,1.44 -0.86,0.14 -1.16,-0.14 -0.93,-0.36 -0.65,-0.58 -0.43,-0.43 -0.94,-1.15 0.08,11.59 0.72,-1.87 0.93,-1.23 1.08,-0.79 4.46,-2.09 1.59,-0.21 1.37,0.14 1.44,0.51 1.08,0.72 1.15,1.29 0.79,1.44 0.36,1.66 -0.07,1.44 -0.44,1.15 -0.5,0.93 -1.44,1.66 4.25,-2.23"
                 style="fill:#cfcfcf;fill-opacity:1;fill-rule:evenodd;stroke:none"
                 id="path65" />
            </g>
            <g
               id="g67"
               transform="translate(311.67,121.75)">
              <path
                 d="m 0,0 -0.55,-1.16 10.81,-4.87 3.06,6.8 -10.77,4.85 3.32,7.22 0.57,1.64 0.25,1.31 -0.14,1.75 -0.6,1.64 -0.79,1.41 -0.99,1.02 -1.27,0.9 -3.53,1.95 -2.29,1.22 -1.23,0.61 -0.65,0.39 -0.19,0.48 -0.2,0.63 -0.17,1.72 -0.23,4.23 -0.11,10.38 v 0.71 l 0.51,7.5 0.37,0.96 0.62,0.62 0.56,0.23 0.57,0.23 0.76,0.08 6.24,0.37 -0.1,-11.68 7.43,-0.04 0.06,11.53 -6.01,0.03 0.14,7.09 -0.87,-2.14 -0.85,-0.77 -0.93,-0.39 -5.12,-0.12 -1.1,0.12 -0.7,0.31 -0.85,0.87 -0.23,1.47 -0.5,5.73 -0.07,21.6 0.42,9.54 0.21,3.1 0.62,2.68 0.91,2.6 6.72,13.08 0.73,0.99 0.45,0.22 0.65,-0.22 0.51,-1.3 -0.19,22.26 -0.74,-6.61 -0.79,-4.41 -1.58,-5.68 -1.78,-4.15 -4.3,-8.12 -0.66,-0.9 -0.45,-0.1 -0.43,0.11 -0.32,0.31 -0.03,16.63 v 0.39 l 0.39,9.25 0.3,3.19 0.51,2.26 0.61,1.87 0.66,1.44 2.43,4.83 4.26,7.93 0.43,0.68 0.45,0.25 0.4,-0.11 0.73,-0.65 -0.11,20.31 -0.65,-4.83 -0.6,-3.11 -1.1,-4.46 -1.64,-4.97 -1.76,-3.78 -3.38,-6.53 -0.73,-0.99 -0.44,-0.14 -0.36,0.07 -0.31,0.44 -0.15,0.59 v 18.25 l 0.46,7.95 0.22,2.87 0.67,2.54 0.8,2.12 1.66,3.44 3.42,6.47 2.23,3.93 0.39,0.28 0.65,0.13 0.74,-0.85 0.81,19.16 0.07,1.06 -0.03,0.84 -0.75,22.43 -0.7,-1.15 -0.49,-0.3 -0.7,0.15 -6.4,11.88 -1.82,4.08 -0.77,3.05 -0.27,2.28 -0.3,7.5 -0.15,12.75 -0.01,0.72 0.01,0.46 0.1,0.6 0.17,0.26 0.41,0.11 0.41,-0.06 0.55,-0.52 3.92,-7.11 1.64,-3.57 1.74,-5.01 1.07,-3.86 0.42,-2.91 0.98,-5.04 -0.13,20.08 -0.44,-0.99 -0.35,-0.09 -0.65,0.07 -2.12,3.33 -5.64,11.14 -0.57,1.71 -0.41,1.32 -0.42,1.97 -0.32,3.86 -0.28,7.19 0.23,39.75 0.13,8.83 0.09,0.86 -0.01,0.75 0.54,1.08 0.74,0.69 1.05,0.36 5.54,0.15 0.88,-0.27 0.94,-0.79 0.58,-0.61 0.36,-0.69 0.74,-1.84 -0.16,5.99 h 4.92 v 13.16 l -6.87,0.04 0.41,-11.65 -0.93,0.19 -0.67,0.45 -0.47,0.69 -0.75,1.02 -0.33,0.8 -0.22,1.05 -0.36,0.99 -0.74,0.83 -1.05,0.96 -1.13,0.28 -4.28,-0.06 -1.18,-0.16 -0.86,-0.33 -0.63,-0.53 -0.42,-0.55 -0.27,-0.67 -0.61,-0.91 -0.44,-0.93 -0.65,-1.4 -0.33,-0.81 -0.32,-0.61 -0.42,-0.53 -0.7,-0.53 -0.7,-0.31 -0.82,-0.11 -1.09,0.05 -0.75,0.33 -0.56,0.26 -0.63,0.34 -1.09,1.06 -0.76,1.46 -4.1,-0.25 -0.51,-1.08 -0.57,-0.72 -0.73,-0.55 -0.7,-0.32 -1.03,-0.16 h -1.23 l -0.77,0.02 -0.95,0.07 -0.42,0.26 -0.31,0.29 -0.39,0.39 -0.2,0.34 -0.12,0.25 -0.13,0.5 -0.11,1.29 -0.35,5.54 -0.03,7.43 0.15,3.66 0.27,5.02 0.11,1.08 0.68,1.11 0.72,0.58 0.82,0.53 2.17,0.19 1.06,-0.14 0.87,-0.24 0.92,-0.58 0.48,-0.92 0.58,-1.01 -0.14,8.87 -0.78,-1.06 -0.86,-0.91 -1.26,-0.39 -1.69,-0.1 -1.59,0.05 -0.77,0.53 -0.73,0.97 -0.5,1.19 0.26,1.65 0.58,0.87 0.92,0.68 1.49,0.14 1.74,-0.09 1.26,-0.34 0.91,-0.44 1.02,-1.15 -0.03,3.71 5.7,0.11 -0.16,11.82 -7.33,-0.1 0.13,-10.24 -3.24,0.1 -2.07,-0.19 -1.69,-1.02 -1.98,-2.12 -5.16,-6.56 -2.46,-3.13 -0.76,-2.26 -0.2,-1.67 v -8.91 l -0.04,-10.98 -0.22,-4.73 -0.29,-1.73 -0.54,-0.75 -0.83,-0.69 -1.11,-0.18 -6.65,-0.03 0.08,5.19 -0.04,4.69 -43.85,-0.02 -0.09,-22.83 43.43,2.92 0.96,0.27 0.19,6.98 1.17,-1.63 0.36,-23.48 -2.19,-2.79 -0.16,7.11 -19.21,-0.15 -12.67,-0.59 -6.14,-0.02 -10.43,-0.05 0.03,-16.88 24.07,0.08 23.39,0.25 2.27,-0.58 0.3,-0.93 -1.17,-1.34 -1.51,-0.21 -7.07,-0.14 H -95.4 l -0.1,-8.42 -28.08,0.35 -0.19,-5.84 3.47,0.05 -0.14,-21.96 v -7.02 l 0.02,-9.41 0.02,-8.51 0.05,-20.04 -3.01,-0.01 0.01,-5.09 h 3 l 17.13,0.01 2.17,-2.37 -8.97,-0.05 v -21.22 h 6.96 l 2.08,2.01 8.96,4.27 2.11,1.95 1.6,0.71 0.03,3.79 23.53,0.05 14.9,-0.57 1.66,-0.1 2.56,-0.19 1.12,-0.38 0.67,-0.74 0.36,-1.07 -0.59,-9.16 -0.72,-1.18 -0.39,-0.36 -0.92,-0.39 -0.72,-0.07 0.08,2.3 -6.67,0.15 -5.09,0.69 -1.07,-0.32 -1.33,-0.55 -1.1,0.04 -1.87,0.1 -3.3,-0.59 -9.73,-2.4 -1.59,-0.59 -0.52,-0.54 -0.43,-0.58 -0.66,-1.08 -2.97,-5.34 -3.21,-5.6 -0.05,-1.6 v -4.29 l -0.04,-2.44 1.41,-2.76 2,0.82 1.35,-2.72 2.03,1.26 -0.81,1.56 17.8,8.13 2.12,-4.41 -25.73,-12.1 0.39,-0.78 -4.48,-2.21 -2.81,-1.4 -2.77,-2.15 0.05,-4.89 0.79,-1.03 -1.54,-1.17 -2.3,-4.95 4.73,-13.86 -15.19,1.11 -4.46,-1.91 -1.58,-2.22 -6.23,-8.76 -4.93,0.33 -1.36,1.21 0.55,6.67 1.44,-0.44 3.45,5.26 -0.93,0.66 -1.79,0.03 -3.94,-0.21 -3.54,-0.57 -5.09,-1.04 -1.81,3.9 -0.56,1.43 -1.77,-0.45 -1.52,-0.86 -0.74,-1.5 -0.57,-2 -1.19,-4.95 -0.44,-6.12 -5.45,0.09 -4.65,-4.61 -2.53,0.01 v -1.07 h -1.62 v 1.08 l -5.86,0.02 -0.55,0.54 -2.29,0.03 -0.65,-0.63 -1.2,-0.03 -0.46,0.71 -1.14,-0.01 -1.08,-0.86 -2.82,-0.03 -0.56,0.64 -10.41,-0.19 -1.7,-0.57 h -5.71 v -4.64 l -0.29,-0.86 -0.71,-0.93 -0.86,-0.5 -0.71,-0.14 h -0.43 l -0.72,0.07 -1.28,0.5 -40.65,19.25 -1.6,0.83 -1.54,0.55 -1.83,0.16 -1.09,0.03 -2.64,-0.9 -1.44,-1.12 -0.66,-0.74 -0.78,-1.42 -0.42,-0.89 -3.26,-6.88 0.1,-0.05 -0.64,-1.38 11.07,-5.13 -2.01,2 -1.54,2.09 -0.89,2.05 -0.29,2.24 0.09,1.19 0.29,1.44 0.42,1.25 0.53,1.28 0.5,0.5 1.07,0.72 0.85,0.38 1.19,-0.03 1.54,-0.45 1.47,-0.67 1.83,-1.03 0.23,-0.44 0.09,-0.52 -0.26,-0.71 -0.44,-0.46 -0.81,-1.23 -0.67,-1.51 -0.35,-1.21 -0.23,-1.64 -0.09,-1.6 0.09,-1.41 0.04,-0.74 -0.11,-0.61 -0.44,-0.45 -0.57,-0.31 -1.18,-0.28 10.56,-4.89 -1.89,1.96 -1.35,1.38 -0.74,1.06 -0.67,1.7 -0.32,1.05 -0.13,1.51 0.1,1.47 0.29,1.48 0.4,1.27 0.59,0.72 0.87,0.92 1.15,0.58 1.19,0.16 1.34,-0.14 10.16,-4.23 5.43,-2.69 0.7,-1.14 0.03,-0.88 -0.18,-0.73 -0.28,-0.71 -3.29,-7.07 -0.96,-0.78 -0.8,-0.51 -0.58,-0.16 -0.93,-0.07 -2.31,0.22 11.09,-5.13 -1.72,1.64 -0.29,0.72 -0.21,1.14 v 0.86 l 0.36,1.21 2.79,5.77 0.9,0.93 0.77,0.48 1.22,0.32 1.22,-0.1 3.53,-1.22 8.19,-3.57 6.42,-3.4 1.35,-0.9 0.7,-0.61 0.23,-0.77 -0.32,-0.83 -0.74,-0.74 -0.77,-1.63 -2.98,-6.15 -0.77,-0.77 -1.03,-0.23 -2.02,0.05 13.04,-6.04 -1.46,1.63 -1.14,1.57 -1,2.43 -0.29,2.71 0.15,1.64 0.5,1.9 0.67,1.19 0.96,0.86 0.9,0.39 1.25,-0.04 1.38,-0.41 1.61,-1.51 2.24,-2.58 2.66,-3.91 3.15,-4.58 4.78,-6.93 0.04,-0.94 -0.8,-0.63 17.95,-8.31 -3.88,2.7 -4.7,3.38 -2.72,2.43 -4.85,5.64 -2.58,3.71 -0.44,0.86 -0.03,1.12 0.07,0.8 0.48,0.84 0.67,0.61 0.83,0.45 0.97,0.1 1.09,-0.23 7.05,-2.88 10.24,-4.76 5.24,-2.68 1.25,-1.35 0.44,-1.09 0.14,-1.5 -0.14,-4.43 -0.28,-1.2 -0.99,-1.74 -1.16,-0.86 -1.54,-0.71 -1.06,-0.13 -2.73,0.29 16.22,-7.58 -1.04,1.29 -1,1.07 -0.85,1.36 -0.88,1.44 -0.64,2.09 -0.16,1.86 0.12,1.74 0.55,1.22 0.99,1.12 1.8,0.97 1.51,0.44 h 1.22 l 5.36,-2.13 6.67,-2.97 9.15,-4.21 12.62,-5.9 3.59,-2.01 2.11,-1.09 0.81,-0.84 0.44,-0.93 0.04,-1.25 -0.42,-1.09 -0.67,-0.74 -1.38,-0.58 -3.66,-0.32 -3.75,-0.07 -5.17,0.07 -2.76,0.36 -4.49,0.93 -5.86,1.6 17.37,-8.1 2.9,-1.29 -0.58,1.22 0.03,1.07 0.61,0.54 0.9,0.29 13.06,1.18 2.48,0.13 h 1.58 l 1.12,-0.29 0.9,-0.7 0.42,-0.74 0.16,-0.97 0.13,-2.67 -0.19,-2.28 -0.61,-1.42 -0.84,-1 -1.87,-0.93 -1.25,-0.13 -2.36,0.37 11.68,-5.44 -1.1,1.29 -0.35,0.71 0.47,4.89 0.26,4.58 0.28,1.24 0.38,0.49 0.99,0.52 1.38,-0.04 2.5,-0.97 7.01,-3.24 8.16,-3.58 7.96,-3.31 3.09,-1.76 0.91,-0.69 0.91,-1.07 0.78,-1.67 0.14,-2.15 -0.03,-3.61 -0.55,-1.39 -1.03,-1.29 -1.1,-0.77 -1.48,-0.52 -1.65,-0.03 -2.13,0.45 12.11,-5.83 -0.84,1.12 -0.03,0.58 0.19,10.15 0.16,0.91 0.42,0.64 0.55,0.52 0.74,0.35 0.87,0.07 1.75,-0.65 2.26,-0.87 4.19,-1.8 1.17,-0.59 0.74,-0.55 0.47,-0.61 0.36,-0.99 v 10.28 l -0.72,-1.42 -0.85,-1 -1.43,-0.72 -1.29,-0.14 -1.14,0.21 -1.14,0.5 -3.71,1.72 -1.43,0.93 -0.57,0.64 -0.58,0.64 -0.14,0.29 -0.43,1.21 -0.28,0.79 v 0.42 l -0.01,3.5 -0.03,2.99 0.06,1.55 0.26,0.71 0.58,0.65 0.77,0.45 1.26,0.16 h 4.33 l 3.79,-0.05 1.17,-0.54 0.84,-1.07 0.69,-1.49 v 10.1 l -0.68,-1.58 -0.71,-0.77 -1.26,-0.78 -1,-0.16 h -3.16 l -4.2,0.03 -1.06,0.1 -0.58,0.32 -0.74,0.78 -0.55,1.29 -0.2,9.72 0.26,7.95 0.17,1.02 0.39,0.55 0.77,0.65 1.13,0.25 1.88,-0.03 1.32,0.07 2.03,0.71 2.39,1 1.37,1.01 0.87,0.19 0.65,-0.29 0.77,-0.71 0.57,-1.71 -0.34,11.82 -0.49,-1.39 -0.48,-1.23 -1.16,-2.06 -1.32,-1.39 -1.52,-1.13 -1.32,-0.62 -1.46,-0.48 -1.48,-0.23 -1.36,0.16 -1.06,0.36 -1.13,0.87 -0.97,1.33 -0.29,3.71 -0.29,6.65 v 15.65 l 0.04,6.5 -0.02,1.34 0.03,0.66 0.25,1.29 0.32,0.94 0.59,1.27 0.41,0.71 0.58,1.2 0.68,0.72 0.68,0.71 2.72,1.14 5.43,2.59 1.14,0.31 1.18,-0.04 0.14,-1.16 4.23,3.61 0.65,1.1 0.59,0.76 6.08,2.63 0.82,0.06 0.79,-0.17 0.48,-0.28 0.54,-0.65 0.42,-1.39 0.42,-4.38 0.02,-22.55 -0.26,-3.09 -0.53,-2.02 -0.45,-1.59 -1.34,-1.56 -1.46,-1.59 -0.61,-1.14 -0.62,-0.28 -0.92,-0.65 -0.96,-1.26 -1.32,-0.52 -1.38,0.18 -1.35,0.74 -0.01,-8.96 0.71,1.52 3.31,2.73 2.19,1.66 1.2,0.12 0.81,0.12 0.89,-0.14 0.6,-0.25 0.8,-0.2 0.31,-0.87 0.17,-1.16 0.11,-1.19 0.2,-3.33 0.07,-14.77 -0.1,-5 -0.39,-7.44 -0.62,-1.1 -0.52,-0.48 -1,-0.56 -5.31,0.01 -1.18,0.51 -0.23,0.19 -1.14,0.86 -0.86,1.86 v -3.5 -3.64 -3.29 l 0.9,1.77 0.85,0.99 0.9,0.53 1.13,0.17 4.15,-0.08 1.08,-0.09 1.01,-0.36 0.43,-0.46 0.45,-0.93 0.45,-7.28 0.03,-3.55 -0.09,-3.42 -0.28,-5.73 -0.22,-1.01 -0.32,-0.6 -0.67,-0.62 -0.91,-0.2 h -0.76 l -5.9,2.63 -0.68,0.48 -1.47,1.9 -0.01,-6.12 0.02,-2.95 0.72,1.21 0.77,0.68 1.04,0.23 1.02,-0.32 6.16,-2.85 0.76,-0.53 0.44,-1.18 v -8.59 l -0.21,-1 -0.36,-0.64 -0.5,-0.57 -0.64,-0.5 -1.1,-0.37 -1.11,-0.03 -2.72,0.61 L 1.42,4.26 -0.42,0.18 0,0 m -39.92,366.55 -0.2,1.91 -0.29,5.03 -0.05,4.58 0.17,4.54 0.25,4.3 0.17,1.3 0.5,0.91 0.74,0.6 0.83,0.14 0.94,-0.17 0.71,-0.93 0.36,-0.97 v -0.99 l 0.05,-4.35 v -3.38 l 0.06,-6.01 -0.36,-6.04 -0.25,-0.9 -0.45,-0.46 -0.52,-0.24 -0.66,-0.06 -0.97,0.19 -0.48,0.27 -0.27,0.33 -0.28,0.4 m -3.49,-13.34 0.21,-9.86 -0.13,-7.75 -0.4,-7.43 -0.31,-0.93 -0.8,-0.63 -0.58,-0.28 h -0.55 l -0.67,0.36 -0.63,0.55 -0.49,0.75 -0.12,1.65 -0.38,10.6 0.5,12.71 0.08,1.25 0.55,1.02 0.58,0.55 0.8,0.11 0.93,-0.22 0.78,-0.63 0.58,-0.86 0.05,-0.96 m 8.06,-20.17 -0.5,-3.33 -0.16,-0.82 -0.25,-0.88 -0.13,-0.78 -0.26,-0.53 -0.48,-0.04 -0.52,0.05 -0.51,0.03 -0.63,0.68 -0.25,0.94 -0.2,1.16 -0.18,1.22 -0.02,0.73 -0.29,2.25 -0.26,0.88 -0.16,0.67 -0.13,1.75 -0.05,2.16 0.16,3.05 -0.05,1.98 0.12,2.52 0.4,6.39 v 0.74 l 0.14,0.66 0.3,0.55 0.6,0.33 1.03,0.1 0.91,-0.3 0.48,-0.9 0.27,-1.22 0.87,-6.01 -0.12,-8.42 0.01,-4.49 -0.14,-1.12 m 24.06,24.81 0.2,-0.07 0.47,-0.27 0.49,-0.38 0.28,-0.36 0.43,-0.93 0.29,-8.28 0.03,-47.18 -0.28,-2.95 -0.31,-1.13 -0.49,-0.77 -0.57,-0.43 -0.4,-0.14 -0.92,-0.2 -5.03,0.08 -1.04,0.45 -0.56,0.34 -0.73,0.67 -0.59,1.24 -3.96,-0.35 -0.45,-1.16 -0.95,-0.83 -1.43,-0.58 -0.95,-0.21 -0.89,0.23 -0.94,0.35 -1.01,0.4 -0.59,0.54 -0.43,0.41 -0.1,0.62 -0.1,0.49 -0.04,0.81 0.13,5.89 v 12.2 l 0.05,15.39 0.33,17.28 v 4.31 l -0.09,2.88 -0.09,0.54 0.01,0.39 0.06,0.37 -0.07,0.3 0.3,0.59 0.74,0.67 h 1.39 l 1.17,-0.06 0.89,0.06 0.68,-0.03 0.83,-0.34 0.7,-0.58 0.62,-0.62 0.4,-0.73 -0.32,-2.07 4.14,0.29 0.45,1.36 0.48,0.61 0.7,0.56 0.44,0.34 0.87,0.33 h 4.11 l 0.9,-0.05 0.44,-0.12 0.31,-0.17 m -25.09,-53.66 -0.59,-0.79 -0.32,-0.22 -0.44,-0.16 -0.9,0.11 -0.51,0.48 -0.41,0.99 -0.2,4.92 -0.27,3.1 0.04,1.76 -0.06,1.44 0.02,0.15 0.04,0.15 0.04,0.25 0.02,0.37 0.04,0.49 0.14,0.76 0.21,0.14 0.31,1.85 0.8,1.17 1.38,0.68 0.93,-0.99 0.58,-2.46 0.06,-1.6 0.04,-2.03 -0.07,-2.91 -0.47,-4.13 -0.41,-3.52 m -0.52,-5.93 0.42,-0.69 -0.02,-0.98 -0.61,-0.45 -0.75,-0.15 -0.74,0.06 -0.5,0.32 -0.23,0.41 v 0.85 l 0.16,0.32 0.25,0.29 0.38,0.19 h 1.11 l 0.53,-0.17 m -7.02,-15 -0.48,-0.17 -0.39,0.09 -0.85,0.76 -1.27,1.3 -1.55,1.63 -0.9,1.24 -0.06,0.77 0.17,1.1 0.42,0.62 0.76,0.59 0.88,0.34 1.58,-0.06 0.96,-0.45 0.62,-0.62 0.42,-0.79 0.03,-0.96 0.14,-1.98 -0.2,-3.04 -0.28,-0.37 m 7.57,-22.17 -0.49,-0.57 -0.39,-0.34 -0.54,-0.15 -0.48,0.09 -0.7,0.49 -0.29,0.36 -0.3,0.73 -0.66,6.66 v 13.93 l 0.57,5.98 0.29,1.8 0.08,0.37 0.2,0.48 0.21,0.28 0.4,0.25 0.54,-0.01 0.48,-0.06 0.43,-0.23 0.36,-0.36 0.16,-0.43 0.25,-0.89 0.32,-2.61 0.4,-4.89 0.17,-3.75 v -5.86 l -0.53,-7.42 -0.48,-3.85 m 3.69,9.23 v 10.76 l 0.38,7.31 0.3,1.15 0.78,0.91 0.57,0.35 0.51,0.31 0.95,0.09 1.09,0.19 1.04,-0.12 2.05,-0.28 1.22,-1.39 0.19,-4.75 -0.25,-20.58 -0.09,-2.17 -0.55,-1.41 -1.42,-0.72 -1.87,-0.45 -2.15,0.24 -1.01,0.16 -0.55,0.5 -0.51,0.69 -0.25,0.78 -0.2,3.01 -0.23,5.42 m 23.55,14.07 0.11,-3.08 0.27,-9.33 -0.28,-5.92 -0.35,-4.19 -0.31,-0.96 -0.41,-0.52 -0.62,-0.47 -0.57,-0.07 -0.67,-0.09 -5,0.06 -1.55,0.62 -0.71,0.67 -0.87,1.79 0.01,24.55 0.61,1.89 0.87,0.98 1.15,0.57 h 5.44 l 1.07,-0.09 0.93,-0.7 0.58,-1.38 0.3,-4.33 m -22.98,-30.25 0.27,0.61 0.48,0.53 0.67,0.72 1.13,0.61 2.38,-0.02 2,-0.65 0.91,-0.91 0.46,-0.95 0.02,-5 2.36,2.21 1.69,2.67 0.82,0.99 0.79,0.59 1.01,0.53 6.17,-0.14 0.48,-0.27 0.45,-0.52 0.31,-0.56 0.19,-0.62 0.23,-1.52 0.27,-2.47 0.08,-56.69 -0.47,-5.54 -0.31,-0.93 -0.51,-0.57 -0.82,-0.37 -1.22,-0.28 -4.91,0.06 -0.9,0.34 -0.71,0.62 -1.31,1.71 v -10.64 l 0.94,1.67 0.82,0.73 0.74,0.63 0.98,0.19 6.36,0.17 0.51,-0.53 0.37,-0.96 0.09,-0.99 0.38,-5.51 v -0.63 l 0.03,-20.08 -0.34,-4.49 -0.86,-2.42 -1.14,-1.57 -1.14,-1.15 -2.58,-1.35 -1.42,-0.08 -0.72,0.15 -1,0.43 -0.71,0.71 -0.72,1.29 -0.58,1.14 -2.09,1.27 -1.63,1.01 -1.17,-0.62 -2.11,-0.77 -2.27,-0.18 -1.66,-0.07 -1.35,0.09 -1.34,0.51 -0.89,0.48 -0.57,0.45 -0.75,0.96 -0.79,1.33 -0.22,1.02 -0.1,1.89 0.17,4.8 0.32,5.39 0.57,6.73 0.49,4.27 0.44,3.24 0.24,1.4 0.29,0.81 0.41,0.67 0.54,0.64 0.76,0.58 1.06,0.33 1.97,0.08 0.98,0.23 0.91,0.13 0.76,-0.15 0.83,-0.21 0.95,-0.37 0.79,-0.61 0.49,-0.72 0.01,6.73 -1.05,-0.99 -1.69,-0.37 -1.3,-0.18 -1.13,0.03 -0.7,0.27 -0.66,0.22 -0.43,0.22 -0.46,0.2 -0.65,0.3 -0.64,0.19 -0.48,0.44 -0.53,0.66 -0.19,1.02 0.02,3.26 0.51,7.23 0.38,5.29 0.28,4.35 0.27,4.86 -0.12,7.68 0.04,5.03 -0.07,8.14 -0.01,12.07 0.26,4.53 0.13,2.26 0.16,1.06 m 25.97,-4.99 0.07,0.64 0.19,0.41 0.29,0.27 0.34,0.09 0.45,-0.17 0.85,-1.22 3.47,-6.25 1.65,-3.56 1.35,-3.42 1.15,-4.08 0.83,-4.43 0.94,-7.73 -2,-10.4 -1.02,-3.59 -1.13,-3.17 -1.55,-3.33 -2.35,-4.22 -1.98,-3.53 -0.36,-0.29 -0.32,-0.03 -0.38,0.11 -0.33,0.26 -0.16,57.64 m -32.54,-20.44 -0.54,0.66 -0.36,1.08 -0.43,3.26 -0.48,3.29 0.03,9.97 0.81,6.23 0.11,0.99 0.32,0.73 0.45,0.43 0.57,0.19 0.61,-0.03 0.56,-0.25 0.5,-0.54 0.23,-0.89 0.38,-3.04 0.34,-4.21 0.08,-7.57 -0.15,-4.36 -0.77,-5.1 -0.43,-0.6 -0.49,-0.38 -0.46,-0.09 -0.5,0.02 -0.38,0.21 m -5.98,7.56 0.38,0.05 0.34,-0.21 0.1,-0.18 0.29,-2.93 -0.29,-2.64 -0.85,-1.71 -0.57,-0.43 -0.49,-0.22 -0.64,-0.03 -1.11,0.12 -0.7,0.2 -0.76,0.44 -0.45,0.54 -0.14,1.09 0.14,0.93 0.15,0.43 0.43,0.5 1.85,2.28 2.32,1.77 m 5.19,-32.98 -0.31,0.31 -0.51,0.88 -0.06,1.41 -0.09,3.67 0.26,3.96 0.79,2.67 0.62,0.62 0.82,0.12 0.75,-0.17 0.56,-0.42 0.36,-0.72 0.28,-2.61 0.13,-1.77 -0.02,-1.78 -0.78,-4.42 -0.53,-1.24 -0.8,-0.59 -0.85,-0.12 -0.62,0.2 m 1.98,-5.75 0.28,-3.28 v -3.57 l -0.71,-5.07 -1,-3.57 -0.59,-0.53 -0.55,-0.12 -0.7,0.18 -0.59,0.32 -0.28,1 -0.43,6.22 0.28,2.21 0.43,2.86 0.28,2.92 0.32,0.98 0.69,0.56 1.28,0.18 1,-0.57 0.29,-0.72 m -1.71,-32.61 -0.23,-4.2 -0.42,-2.93 -0.15,-1.5 -0.85,-4.29 -0.72,-1.5 -0.64,-1.52 -1.06,-1.31 -0.8,-0.49 -0.65,0.24 -0.32,1.25 0.33,7.12 0.14,2.93 0.86,5.57 0.43,2.28 1.85,0.87 1.15,-0.39 0.69,-1.01 0.39,-1.12 m -3.77,-24.73 0.46,-0.43 -0.28,-1.09 -0.5,-0.35 -0.64,-0.26 -0.82,0.16 -0.48,0.51 0.05,0.95 0.05,0.78 0.28,0.42 0.42,-0.05 0.73,-0.33 0.73,-0.31 m 1.5,-9.71 -0.84,-0.82 -0.65,-0.69 -0.79,0.12 -0.83,0.71 -0.49,0.73 -0.06,3.16 0.33,0.31 0.61,0.01 0.68,-0.38 1.13,-0.83 0.95,-1.05 -0.04,-1.27 M -5.18,8.76 l -0.05,9.55 0.22,1.21 0.4,0.71 0.56,0.51 0.82,0.33 0.82,0.03 0.77,-0.14 3.75,-1.92 0.51,-0.73 0.42,-0.94 0.26,-1.04 V 15.57 L 3.02,14.58 0.64,9.33 0.05,8.7 -0.63,8.42 -2.13,7.57 -3.17,7.32 -3.99,7.29 -4.53,7.52 -5.01,8 -5.18,8.76 m -69.49,70.28 1.37,0.73 2.05,0.3 2.95,0.06 2.56,-0.09 3.01,-0.03 11.71,0.45 1.84,-2.02 4.11,-1.89 0.64,2.68 1.12,0.76 1.97,-1.46 0.14,-4.57 -0.17,-12.93 -0.42,-2.57 -1.17,-0.83 -0.71,-4.01 1.06,0.19 1.33,-1.57 -0.29,-6.29 -1,-0.84 -0.72,-0.32 -1.14,0.04 -9.93,3.81 -6.54,3.02 -8.63,4.18 -3.61,2.42 -1.5,1.33 -0.69,1.24 -0.29,0.93 -0.4,5.29 -0.03,5.14 0.29,5.86 1.09,0.99 m -12.36,-14.59 -2.67,1.03 -12.68,5.81 -5.89,3.05 -2.16,1.13 -0.75,0.57 -0.47,0.65 -0.29,0.87 0.07,0.97 0.38,0.87 0.74,0.57 0.78,0.33 3.18,0.22 5.28,0.29 8.49,0.03 5.78,0.04 6.52,-0.63 0.77,-0.64 0.52,-1.13 0.32,-4.44 -0.03,-4.47 -0.23,-4.86 -0.42,-1.06 -0.83,-0.74 -1.23,-0.32 -1.03,0.13 -2.05,0.81 -2.1,0.92 m -12.57,24.74 0.04,4.07 -3.89,-0.09 -0.1,0.9 -0.03,0.96 0.32,0.9 1.06,0.94 5.83,3.28 4.57,2.25 7.29,2.89 1.28,0.1 1.19,-0.13 0.61,-0.29 1.1,-0.84 0.9,-1.22 0.32,-1.29 0.16,-4.6 0.19,-4.21 -0.41,-6.78 -0.4,-1.43 -0.7,-0.61 -0.68,-0.31 -2.98,-0.29 -4.08,-0.11 -4.82,0.28 -1.03,0.18 -1.04,0.97 -4.7,4.48 m 42.61,12.93 8.31,4.18 3.04,-2.22 0.07,19.33 4.51,-0.07 -0.02,-2.64 0.33,-16.19 -0.09,-12.19 -0.29,-5.85 -0.52,-1.57 -0.73,-0.7 -1.92,0.05 -1.14,1.08 0.15,6.49 -5.48,-8.57 -10.85,0.56 -6.23,0.17 -5.08,0.22 -0.78,0.09 -0.67,0.24 -0.63,0.41 -0.63,1 -0.21,2.83 -0.34,13.06 0.03,2.18 0.43,1.62 0.39,0.91 0.25,0.39 0.85,0.32 0.85,-0.11 3.8,-1.29 10.97,-4.09 1.63,0.36 m -36.72,7.44 0.14,0.07 3.43,1.72 4.28,1.92 2.52,1.29 0.77,0.07 0.86,-0.14 0.57,-0.36 0.43,-0.5 0.28,-0.64 v -0.64 l -0.14,-0.36 -0.29,-0.5 -0.28,-0.36 -1.08,-0.62 -2.35,-1.29 -3.54,-1.71 -3.05,-1.15 -1.19,-0.39 -0.74,0.16 -0.74,0.48 -0.55,0.9 -0.06,0.74 0.16,0.58 0.57,0.73 m -6.25,-3.05 0.77,-0.07 0.58,-0.48 0.44,-0.47 0.28,-1 -0.14,-0.79 -0.57,-0.93 -2.68,-1.41 -2.55,-1.42 -2.44,-1.02 -1.8,-0.68 -0.96,-0.47 -0.85,-0.14 h -0.51 l -0.67,0.16 -0.58,0.55 -0.29,0.48 -0.1,0.67 v 0.65 l 0.23,0.67 0.9,0.81 3.25,1.45 6.43,3.05 1.26,0.39 m -2.8,-20.65 -0.75,-1.09 -0.92,-0.63 -5.05,-0.29 -2.81,-0.06 -5.57,0.29 -1.13,0.08 -1.03,0.48 -0.55,0.58 -0.32,1.15 0.13,1.16 0.87,0.93 1.74,1.07 6.66,3.23 1.78,0.56 1.44,-0.23 2.06,-1.78 0.52,-0.91 0.23,-3.45 2.7,0.06 v -1.15 m 67.93,56.17 0.63,0.22 4.62,0.34 2.15,-0.07 3.24,-1.8 0.08,-3.6 -1.37,-1.05 -2.83,-1.32 -1.51,-0.83 -1.65,-0.58 -2.28,0.15 -2.24,0.43 -0.49,0.63 -0.37,0.65 -0.18,1.27 -0.24,2.16 0.4,1.3 0.16,1.05 0.45,0.36 0.33,0.3 0.53,0.27 0.57,0.12 m -2.81,79.38 c -0.18,0 -0.4,0.03 -0.61,0.13 -0.21,0.1 -0.4,0.26 -0.54,0.47 -0.14,0.22 -0.21,0.46 -0.21,0.7 0,0.23 0.06,0.44 0.15,0.6 0.09,0.17 0.22,0.34 0.41,0.47 0.2,0.14 0.43,0.22 0.69,0.24 0.25,0.01 0.49,-0.06 0.7,-0.17 0.2,-0.12 0.35,-0.27 0.45,-0.43 0.1,-0.16 0.18,-0.36 0.2,-0.59 0.02,-0.24 -0.02,-0.49 -0.14,-0.71 -0.12,-0.23 -0.29,-0.41 -0.49,-0.53 -0.21,-0.12 -0.42,-0.17 -0.61,-0.18"
                 style="fill:#cfcfcf;fill-opacity:1;fill-rule:evenodd;stroke:none"
                 id="path69" />
            </g>
            <g
               id="g71"
               transform="translate(260.11,169.26)">
              <path
                 d="m 0,0 1.09,0.49 0.85,0.6 0.35,0.33 0.36,0.95 0.43,4.95 V 19.01 L 2.87,26.11 2.38,30.93 6.49,29.04 6.22,24.73 6.54,11.71 7.64,10.51 8.15,10.11 8.6,10.12 7.89,6.11 6.41,4.75 6.36,-1.52 7.13,-2.68 2.17,-0.87"
                 style="fill:#cfcfcf;fill-opacity:1;fill-rule:evenodd;stroke:none"
                 id="path73" />
            </g>
            <g
               id="g75"
               transform="translate(262.99,228.05)">
              <path
                 d="m 0,0 -0.51,-20.84 3.87,6.16 0.03,0.2 -0.35,15.8"
                 style="fill:#cfcfcf;fill-opacity:1;fill-rule:evenodd;stroke:none"
                 id="path77" />
            </g>
            <g
               id="g103"
               transform="translate(224.7,213.5)">
              <path
                 d="M 0,0 1.47,4.05 H 1.84 L 2.94,6.63 0.37,7.37 V 7 L -0.37,7.37 -1.11,5.16 -0.74,4.79 -2.21,0.74"
                 style="fill:#000000;fill-opacity:1;fill-rule:evenodd;stroke:none"
                 id="path105" />
            </g>
            <g
               id="g107"
               transform="translate(226.54,94.52)">
              <path
                 d="M 0,0 V 4.42 H -0.37 -3.32 V 0 H 0"
                 style="fill:#000000;fill-opacity:1;fill-rule:evenodd;stroke:none"
                 id="path109" />
            </g>
            <g
               id="g111"
               transform="translate(223.22,93.05)">
              <path
                 d="m 0,0 h -1.1 v -1.84 -1.48 h 0.37 V -5.53 H -1.1 V -7 h 0.37 V -8.84 H 0 v -0.37 h -2.57 v -1.11 H 0 l 0.37,-0.36 h 1.48 v 1.84 h 0.73 v 1.47 H 1.85 v 1.84 L 0,-5.53 V 0"
                 style="fill:#000000;fill-opacity:1;fill-rule:evenodd;stroke:none"
                 id="path113" />
            </g>
            <g
               id="g115"
               transform="translate(221.01,300.07)">
              <path
                 d="M 0,0 V -0.74 L 0.37,-1.48 H 1.11 V -0.74 0 H 2.58 V 2.58 H 2.21 V 4.42 H 2.58 V 5.89 H 2.21 V 6.26 H 0 L -0.36,5.52 V 3.68 H -1.1 V 2.58 0.37 L 0,0"
                 style="fill:#000000;fill-opacity:1;fill-rule:evenodd;stroke:none"
                 id="path117" />
            </g>
            <g
               id="g119"
               transform="translate(222.86,94.15)">
              <path
                 d="M 0,0 V 3.69 L -5.9,3.32 V 0"
                 style="fill:#000000;fill-opacity:1;fill-rule:evenodd;stroke:none"
                 id="path121" />
            </g>
            <g
               id="g123"
               transform="translate(220.44,307.96)">
              <path
                 d="m 0,0 0.37,0.74 v 0 L 0.74,1.48 V 14.74 H -2.57 V 0"
                 style="fill:#000000;fill-opacity:1;fill-rule:evenodd;stroke:none"
                 id="path125" />
            </g>
            <g
               id="g127"
               transform="translate(212.54,92.31)">
              <path
                 d="M 0,0 V 0 L -0.73,-0.37 0.74,-4.05 1.48,-3.68 0,0"
                 style="fill:#000000;fill-opacity:1;fill-rule:evenodd;stroke:none"
                 id="path129" />
            </g>
            <g
               id="g131"
               transform="translate(212.54,92.31)">
              <path
                 d="M 0,0 V 0 H 0.74 V -0.73 H 8.11 V 1.11 H 4.79 V 0 H 3.69 V 1.11 H 0.74 V 0.37 H 0 V 0"
                 style="fill:#000000;fill-opacity:1;fill-rule:evenodd;stroke:none"
                 id="path133" />
            </g>
            <g
               id="g135"
               transform="translate(201.12,112.57)">
              <path
                 d="M 0,0 V -10.68 H 2.58 L 2.21,0"
                 style="fill:#000000;fill-opacity:1;fill-rule:evenodd;stroke:none"
                 id="path137" />
            </g>
            <g
               id="g143"
               transform="translate(198.18,101.89)">
              <path
                 d="M 0,0 -0.37,10.68 H -2.95 V 0"
                 style="fill:#000000;fill-opacity:1;fill-rule:evenodd;stroke:none"
                 id="path145" />
            </g>
            <g
               id="g147"
               transform="translate(117.14,145.72)">
              <path
                 d="m 0,0 1.84,-3.31 1.1,0.74 0.74,-1.48 2.21,1.48 V -2.94 L 6.63,-2.57 4.42,1.11 4.05,0.74 3.31,0 2.58,1.48 0,0"
                 style="fill:#000000;fill-opacity:1;fill-rule:evenodd;stroke:none"
                 id="path149" />
            </g>
            <g
               id="g151"
               transform="translate(85.09,119.2)">
              <path
                 d="M 0,0 V 5.9 H -3.68 V 0.37 0 H 0"
                 style="fill:#000000;fill-opacity:1;fill-rule:evenodd;stroke:none"
                 id="path153" />
            </g>
            <g
               id="g155"
               transform="translate(85.09,126.57)">
              <path
                 d="M 0,0 V 4.05 H -1.47 V 1.47 H -2.21 V 0"
                 style="fill:#000000;fill-opacity:1;fill-rule:evenodd;stroke:none"
                 id="path157" />
            </g>
            <g
               id="g159"
               transform="translate(85.09,139.46)">
              <path
                 d="m 0,0 h -9.21 v -2.21 h 1.47 v -0.37 h 1.48 v 0.37 h 5.15 v 0.74 H 0"
                 style="fill:#000000;fill-opacity:1;fill-rule:evenodd;stroke:none"
                 id="path161" />
            </g>
            <g
               id="g163"
               transform="translate(76.62,128.78)">
              <path
                 d="M 0,0 V 0 H 0.73 V 0 H 2.58 V -0.74 H 4.05 V 0 h 1.1 V 1.84 H -1.11 V 0"
                 style="fill:#000000;fill-opacity:1;fill-rule:evenodd;stroke:none"
                 id="path165" />
            </g>
            <g
               id="g167"
               transform="translate(81.41,133.2)">
              <path
                 d="M 0,0 V 1.84 H -5.9 V 0"
                 style="fill:#000000;fill-opacity:1;fill-rule:evenodd;stroke:none"
                 id="path169" />
            </g>
            <g
               id="g171"
               transform="translate(73.3,135.41)">
              <path
                 d="m 0,0 h -2.21 v -2.95 h 0.74 v -1.47 h -1.11 v -2.21 h 1.11 V -7.37 H 0"
                 style="fill:#000000;fill-opacity:1;fill-rule:evenodd;stroke:none"
                 id="path173" />
            </g>
            <g
               id="g175"
               transform="translate(65.15,159.31)">
              <path
                 d="M 0,0 V 4.42 H -17.68 V 0.74 h 0.74 V 0 h 0.36 v 0 h 4.79 v 0.74 h 1.11 V 0 h 4.79 v 0.74 h 0.36 V 0"
                 style="fill:#000000;fill-opacity:1;fill-rule:evenodd;stroke:none"
                 id="path177" />
            </g>
            <g
               id="g179"
               transform="translate(204.9,429.95)">
              <path
                 d="M 0,0 V 10.68 H -2.57 V 9.94 H -2.94 V 9.2 h 0.37 V 7.36 H -2.94 V 6.63 h 0.37 V 5.15 h -0.37 l 0.37,-0.73 v 0 -1.48 H -2.94 V 2.21 h 0.37 V 0.36 h -0.37 l 0.37,-0.73 h 1.1 V 0"
                 style="fill:#000000;fill-opacity:1;fill-rule:evenodd;stroke:none"
                 id="path181" />
            </g>
            <g
               id="g183"
               transform="translate(215.86,490.13)">
              <path
                 d="M 0,0 0.03,3.85 16.51,3.91 16.5,-0.03"
                 style="fill:#000000;fill-opacity:1;fill-rule:evenodd;stroke:none"
                 id="path185" />
            </g>
            <g
               id="g187"
               transform="translate(234.5,490.1)">
              <path
                 d="M 0,0 0.02,3.92 25.79,4.25 V 0.09"
                 style="fill:#000000;fill-opacity:1;fill-rule:evenodd;stroke:none"
                 id="path189" />
            </g>
            <g
               id="g191"
               transform="translate(210.36,260.38)">
              <path
                 d="m 0,0 -0.09,-1.31 -1.6,0.11 0.04,0.62 -1.43,0.1 -0.03,-0.46 -3.66,0.25 0.08,1.22 -1.31,0.1 -1.35,-2.59 h -0.04 l -3.09,0.66 -1.58,-2.22 0.78,-0.63 -2.15,-2.67 -0.62,0.49 -0.86,-1.21 0.83,-0.67 -1.56,-1.95 -0.72,0.58 -2.33,-3.29 1.57,-2.53 0.98,0.46 2.38,-5.1 c 0.28,-0.04 0.58,-0.14 0.85,-0.31 0.28,-0.17 0.53,-0.4 0.72,-0.69 0.18,-0.29 0.3,-0.61 0.34,-0.94 0.04,-0.32 0,-0.63 -0.08,-0.9 -0.08,-0.27 -0.22,-0.55 -0.43,-0.8 -0.21,-0.25 -0.48,-0.46 -0.79,-0.6 -0.32,-0.14 -0.65,-0.2 -0.98,-0.19 -0.33,0.01 -0.62,0.09 -0.88,0.21 -0.26,0.12 -0.51,0.3 -0.72,0.55 -0.22,0.24 -0.38,0.54 -0.48,0.87 -0.09,0.33 -0.1,0.68 -0.04,1 0.06,0.32 0.19,0.6 0.34,0.83 l -1.75,3.76 -0.49,-0.25 -0.88,1.73 0.81,0.42 -1.78,2.85 -1.65,0.13 -0.09,-0.86 -4.18,0.44 c -0.18,-0.21 -0.42,-0.4 -0.7,-0.54 -0.29,-0.14 -0.61,-0.22 -0.95,-0.23 -0.33,-0.01 -0.66,0.06 -0.95,0.2 -0.29,0.13 -0.53,0.31 -0.72,0.51 -0.19,0.21 -0.35,0.46 -0.46,0.76 -0.11,0.3 -0.15,0.63 -0.12,0.97 0.03,0.33 0.14,0.65 0.3,0.92 0.16,0.27 0.37,0.49 0.6,0.66 0.22,0.16 0.49,0.29 0.8,0.37 0.32,0.07 0.65,0.08 0.98,0.01 0.32,-0.07 0.62,-0.21 0.88,-0.41 0.25,-0.19 0.45,-0.42 0.58,-0.66 l 4.21,-0.45 -0.09,-0.86 2.48,-0.18 2.28,3.2 -0.63,0.45 1.58,2.21 0.62,-0.45 0.43,0.6 -0.84,0.57 1.59,2.34 0.88,-0.6 0.26,0.37 -0.67,0.45 1.42,2.15 0.61,-0.4 -1.52,3.51 -0.45,-0.23 -0.53,1.01 0.53,0.27 -1.15,2.66 -0.98,-0.23 -3.54,-0.73 0.95,-4.83 0.64,0.92 2.48,-1.72 -6.3,-9.09 -2.48,1.72 5.06,7.3 -1.09,5.55 -1.44,-0.3 0.07,-0.38 -4.04,-0.77 -0.04,0.21 -4.61,-0.89 -0.05,0.22 -2.64,0.07 -0.37,1.94 -0.41,0.01 0.01,0.79 h 0.25 l -0.03,0.13 2.53,0.49 -0.21,1.11 4.62,0.89 3.09,0.59 0.03,0.02 4.47,2.12 -1.77,3.77 -4.74,-2.21 -0.43,0.93 -0.4,-0.18 -0.42,0.88 -0.46,-0.19 -1.99,4.77 0.27,0.11 -0.53,1.12 0.4,0.19 -0.35,0.76 4.73,2.21 -0.7,1.48 -1.02,-0.56 -0.31,-0.17 -0.07,-0.03 c -0.54,-0.17 -1.12,0.07 -1.38,0.58 -0.25,0.51 -0.1,1.13 0.37,1.45 l 0.24,0.14 1.21,0.65 -0.17,0.36 8.8,4.1 0.16,-0.35 1.27,0.61 0.13,0.06 c 0.28,0.12 0.61,0.13 0.9,0.01 0.29,-0.11 0.53,-0.33 0.66,-0.61 0.14,-0.28 0.16,-0.6 0.07,-0.9 -0.1,-0.29 -0.3,-0.54 -0.58,-0.7 v 0.01 l -0.21,-0.1 -1.21,-0.58 0.63,-1.34 4.59,2.17 0.59,-1.27 6.15,2.9 2.04,-4.32 -0.7,-0.34 0.89,-1.89 v 0 l 10.36,4.77 0.23,-0.5 4.6,2.11 -0.29,0.58 3.39,1.68 1.01,0.47 -0.19,0.42 4.1,1.88 0.18,-0.37 6.78,3.18 -0.98,2.04 -4.4,-2.12 -0.88,1.82 3.08,1.49 0.24,-0.5 15.13,7.3 1.69,-3.5 0.83,-1.76 L 15.11,31.94 15.5,31.16 12.32,29.58 12.37,29.46 8.21,27.55 5.44,25.4 5.49,20.51 6.28,19.48 4.74,18.31 4.66,18.14 4.64,18.09 2.44,13.36 6.16,2.55 8.84,6.41 c -0.1,0.27 -0.16,0.57 -0.14,0.9 0.01,0.33 0.1,0.66 0.27,0.97 0.16,0.3 0.4,0.55 0.66,0.74 0.27,0.19 0.56,0.31 0.84,0.36 0.28,0.06 0.59,0.07 0.91,0 C 11.7,9.31 12.01,9.17 12.29,8.96 12.56,8.74 12.77,8.48 12.92,8.18 13.06,7.89 13.13,7.58 13.14,7.3 13.15,7.02 13.11,6.71 12.99,6.4 12.87,6.1 12.68,5.81 12.43,5.57 12.17,5.34 11.87,5.17 11.56,5.08 11.24,4.98 10.94,4.96 10.65,5 L 7.98,1.14 6.9,-1.21 l -0.12,0.06 1.45,-3.57 0.71,0.34 1.67,-3.49 c 0.28,-0.03 0.57,-0.11 0.86,-0.27 0.28,-0.16 0.54,-0.38 0.73,-0.66 0.2,-0.28 0.33,-0.59 0.38,-0.91 0.06,-0.32 0.04,-0.63 -0.03,-0.9 -0.07,-0.28 -0.19,-0.56 -0.39,-0.81 -0.19,-0.26 -0.45,-0.49 -0.75,-0.64 -0.31,-0.16 -0.64,-0.24 -0.96,-0.25 -0.33,-0.01 -0.63,0.06 -0.89,0.16 -0.26,0.11 -0.52,0.27 -0.75,0.5 -0.23,0.23 -0.41,0.52 -0.52,0.84 -0.11,0.32 -0.15,0.66 -0.11,0.98 0.04,0.33 0.14,0.62 0.28,0.86 L 6.88,-5.65 6.62,-5.75 5.91,-4 5.58,-4.18 3.54,-0.42 2.27,-0.35 2.28,-0.18 0,0 m -3.62,1.32 0.08,1.1 2.07,-0.15 -0.08,-1.11 h 0.01 L 2.34,0.85 2.41,2.12 2.9,2.09 2.93,2.61 4.97,2.49 3.21,7.59 -5.54,3.51 l -1.38,2.95 1.25,0.58 -1.75,2.18 -0.82,0.99 -2.61,-1.9 1.15,-2.67 0.93,0.23 0.78,-3.22 -0.38,-0.1 0.27,-0.61 0.59,-0.31 h 0.03 L -3.62,1.32 M 2.2,15.31 3.34,17.88 2.76,18.83 1.99,18.26 2.76,17.06 0.89,15.34 1.32,13.83 -1.94,11.2 -2.32,11.6 -3.35,10.75 -4.23,11.82 -6.34,10.09 -6.73,9.78 h 0.01 l 1.89,-2.35 6.97,3.25 -0.88,2.56 0.39,0.84 0.55,1.23 m -15.83,3.89 1.74,-3.62 3.94,1.84 5.02,4 0.26,-0.41 1.28,0.97 1.08,1.8 1.74,1.38 -0.41,0.62 -8.65,-4.33 -0.56,1.13 -1.29,-0.51 0.47,-0.77 -4.62,-2.1"
                 style="fill:#000000;fill-opacity:1;fill-rule:evenodd;stroke:none"
                 id="path193" />
            </g>
            <g
               id="g195"
               transform="translate(83.62,146.83)">
              <path
                 d="M 0,0 H -0.37 V 1.84 L 0,8.84 H -3.69 V 6.26 h 0.74 V 5.16 H -3.69 V 2.58 h 0.37 V 1.84 h -0.37 v -1.1 h 0.37 V 0 h 0.74 v -0.74 h -0.74 v -0.37 h -4.42 v -1.47 -0.74 h 4.42 V -3.68 H 0 V -3.32 0"
                 style="fill:#000000;fill-opacity:1;fill-rule:evenodd;stroke:none"
                 id="path197" />
            </g>
            <g
               id="g199"
               transform="translate(83.21,133.38)">
              <path
                 d="M 0,0 V 1.86 H -0.83 V 3.44 H 1.84 V 3.08 H 2 V 0.44 H 1.78 V 0"
                 style="fill:#000000;fill-opacity:1;fill-rule:evenodd;stroke:none"
                 id="path201" />
            </g>
            <g
               id="g203"
               transform="translate(190.81,101.52)">
              <path
                 d="M 0,0 V 5.53 H -4.79 V 0"
                 style="fill:#000000;fill-opacity:1;fill-rule:evenodd;stroke:none"
                 id="path205" />
            </g>
            <g
               id="g207"
               transform="translate(178.9,118.54)">
              <path
                 d="M 0,0 2.21,4.79 2.58,5.15 -8.84,10.68 -11.05,5.52"
                 style="fill:#000000;fill-opacity:1;fill-rule:evenodd;stroke:none"
                 id="path209" />
            </g>
            <g
               id="g211"
               transform="translate(99.67,159.08)">
              <path
                 d="M 0,0 V -6.63 H 5.52 V 0"
                 style="fill:#000000;fill-opacity:1;fill-rule:evenodd;stroke:none"
                 id="path213" />
            </g>
            <g
               id="g215"
               transform="translate(91.72,139.83)">
              <path
                 d="M 0,0 -1.47,-1.84 0,-3.68 2.95,-0.37 3.31,15.84 h -1.1 v 0.74 H 0"
                 style="fill:#000000;fill-opacity:1;fill-rule:evenodd;stroke:none"
                 id="path217" />
            </g>
            <g
               id="g219"
               transform="translate(75.36,149.46)">
              <path
                 d="M 0,0 V 3.03 H -4.3 V 0"
                 style="fill:#000000;fill-opacity:1;fill-rule:evenodd;stroke:none"
                 id="path221" />
            </g>
            <g
               id="g223"
               transform="translate(73.77,137.02)">
              <path
                 d="M 0,0 -0.13,8.55 -2.85,8.61 -2.87,0"
                 style="fill:#000000;fill-opacity:1;fill-rule:evenodd;stroke:none"
                 id="path225" />
            </g>
            <g
               id="g227"
               transform="translate(34.37,189.31)">
              <path
                 d="m 0,0 -0.29,-0.34 -0.58,-0.81 -0.04,-0.8 0.06,-1.04 -0.82,-0.91 0.74,-0.66 0.83,0.94 4.08,-3.78 -0.67,-0.72 3.07,-2.85 0.23,0.25 -0.27,0.25 0.33,0.35 1.65,-1.53 -0.86,-0.93 0.79,-0.73 -0.12,-0.13 0.49,-0.45 -0.32,-0.35 2.33,-2.16 0.64,0.69 0.25,-0.23 2.47,2.66 -2.25,2.08 0.35,0.38 -4.27,3.95 0.44,0.48 L 7.84,-6 7.54,-6.32 4.86,-3.84 4.56,-4.16 2.23,-2 2.32,-1.9 2.48,-2.06 3.07,0.28 0.57,-0.2 0.39,-0.43 0,0"
                 style="fill:#000000;fill-opacity:1;fill-rule:evenodd;stroke:none"
                 id="path229" />
            </g>
            <g
               id="g231"
               transform="translate(227.13,383.26)">
              <path
                 d="m 0,0 -0.75,0.01 -0.03,-1.85 0.71,-0.01 c 0.14,-0.42 0.4,-0.8 0.74,-1.09 v -4.2 h 0.44 l -6.06,-5.96 0.2,-0.21 -3.76,-0.03 0.08,-2.93 0.96,-1.64 0.91,-0.88 1.12,-0.7 1.25,-0.24 1.24,0.11 0.78,0.11 -0.23,3.81 0.31,-0.31 5.23,5.14 c 0.19,-0.23 0.44,-0.44 0.77,-0.58 0.32,-0.15 0.69,-0.21 1.07,-0.17 0.38,0.03 0.73,0.17 1.02,0.38 0.29,0.21 0.5,0.47 0.64,0.73 l 3.03,-3.01 -0.37,-0.37 4.14,-4.17 0.4,0.4 5.3,-5.26 2.54,2.55 L 7.84,-6.63 V -6.25 -6 l 1.6,3.89 1.11,-0.01 0.06,2.97 -1.03,0.02 -1.62,3.34 4.27,4.34 0.39,-0.38 4.05,4.12 -0.38,0.38 5.28,5.31 -2.67,2.63 -5.09,-5.12 -0.24,0.25 L 9.29,11.54 9.6,11.22 6.9,8.48 C 6.72,8.8 6.44,9.08 6.08,9.27 5.73,9.47 5.34,9.54 4.97,9.53 4.18,9.49 3.48,9.01 3.16,8.29 l -6.61,6.81 -0.1,-0.09 -0.02,3.56 -2.81,0.01 -1.35,-0.91 -1.05,-0.84 -0.87,-1.71 -0.13,-1.29 0.05,-1.41 0.4,-0.22 3.23,-0.01 7.13,-7.34 H 0.67 V 0.92 C 0.38,0.67 0.15,0.35 0,0"
                 style="fill:#000000;fill-opacity:1;fill-rule:evenodd;stroke:none"
                 id="path233" />
            </g>
            <g
               id="g235"
               transform="translate(206,459.57)">
              <path
                 d="M 0,0 H 6.11 V 0.42 H 7.83 V 0 h 6.68 V -2.65 H 8.39 V -4.06 H 4.85 v 1.34 H 0"
                 style="fill:#000000;fill-opacity:1;fill-rule:evenodd;stroke:none"
                 id="path237" />
            </g>
            <g
               id="g239"
               transform="translate(176.06,410.81)">
              <path
                 d="m 0,0 v -44.85 h 7.4 v -8.11 h 3.8 v -2.29 h 4.31 V 11.77 H 10.98 V 10.05 H 7.11 V 1.94 H 1.15 V 0"
                 style="fill:#000000;fill-opacity:1;fill-rule:evenodd;stroke:none"
                 id="path241" />
            </g>
            <g
               id="g243"
               transform="translate(162.94,129.28)">
              <path
                 d="m 0,0 3.5,-2 1.41,2.47 -3.51,2"
                 style="fill:#000000;fill-opacity:1;fill-rule:evenodd;stroke:none"
                 id="path245" />
            </g>
            <g
               id="g247"
               transform="translate(143.46,120.72)">
              <path
                 d="M 0,0 H 11.9 V 6.15 H -0.28 V 5.6 H 0.65 V 1.4 H 0"
                 style="fill:#000000;fill-opacity:1;fill-rule:evenodd;stroke:none"
                 id="path249" />
            </g>
            <g
               id="g251"
               transform="translate(102.42,151.86)">
              <path
                 d="m 0,0 v -6.4 h -1.02 v -5.03 h 0.78 v -3.17 h 1.37 v -3.47 h 1.26 v -0.84 h 2.03 v 3.95 H 3.59 v 0.78 h 1.07 v 0.9 H 3.89 v 0.77 h 0.89 v 0.72 H 3.53 v 0.96 h 0.36 v 1.14 H 4.6 v 2.15 H 3.83 v 0.9 h 0.59 v 3.47 H 3.23 v 0.89 h 0.96 v 1.26 H 3.23 V 0"
                 style="fill:#000000;fill-opacity:1;fill-rule:evenodd;stroke:none"
                 id="path253" />
            </g>
            <g
               id="g255"
               transform="translate(73.25,156.87)">
              <path
                 d="M 0,0 V 1.43 H 1.98 V 0"
                 style="fill:#000000;fill-opacity:1;fill-rule:evenodd;stroke:none"
                 id="path257" />
            </g>
            <g
               id="g259"
               transform="translate(130.02,245.46)">
              <path
                 d="m 0,0 v 0.72 h -1.15 l 0.04,2.22 -5.46,-0.03 0.03,-3.03"
                 style="fill:#000000;fill-opacity:1;fill-rule:evenodd;stroke:none"
                 id="path261" />
            </g>
            <g
               id="g635"
               transform="translate(301.58,100.54)">
              <path
                 d="m 0,0 -238.38,111.02 -1.84,-3.95 L -1.84,-3.96"
                 style="fill:#000000;fill-opacity:1;fill-rule:evenodd;stroke:none"
                 id="path637" />
            </g>
            <g
               id="g639"
               transform="translate(316.97,176.02)">
              <path
                 d="M 0,0 0.02,308.17 H 4.23 L 4.21,0"
                 style="fill:#000000;fill-opacity:1;fill-rule:evenodd;stroke:none"
                 id="path641" />
            </g>
            <g
               id="g643"
               transform="translate(286.78,525.21)">
              <path
                 d="M 0,0 0.47,-424.98 H 5.05 L 4.59,0.01"
                 style="fill:#000000;fill-opacity:1;fill-rule:evenodd;stroke:none"
                 id="path645" />
            </g>
            <g
               id="g647"
               transform="translate(313.3,125.2)">
              <path
                 d="m 0,0 0.06,0.7 -259.44,120.2 -1.79,-3.83 L -1.79,-3.84"
                 style="fill:#000000;fill-opacity:1;fill-rule:evenodd;stroke:none"
                 id="path649" />
            </g>
            <g
               id="g767"
               transform="translate(174.03,81.66)" />
            <g
               id="g879"
               transform="translate(302.25,95.62)">
              <path
                 d="m 0,0 3.69,-1.75 0.22,0.46 -4.15,1.97 -0.43,-0.9 0.33,-0.51 L 0,0"
                 style="fill:#000000;fill-opacity:1;fill-rule:evenodd;stroke:none"
                 id="path881" />
            </g>
            <g
               id="g883"
               transform="translate(303.09,98.57)">
              <path
                 d="M 0,0 -0.26,-0.54 3.89,-2.5 4.75,-0.7 4.29,-0.48 3.69,-1.75 0,0"
                 style="fill:#000000;fill-opacity:1;fill-rule:evenodd;stroke:none"
                 id="path885" />
            </g>
            <g
               id="g887"
               transform="translate(314.07,119.89)">
              <path
                 d="M 0,0 3.69,-1.74 3.9,-1.28 -0.24,0.68 -0.67,-0.21 -0.35,-0.72 0,0"
                 style="fill:#000000;fill-opacity:1;fill-rule:evenodd;stroke:none"
                 id="path889" />
            </g>
            <g
               id="g891"
               transform="translate(317.6,122.52)">
              <path
                 d="M 0,0 0.06,0.24 0.07,0.48 0.03,0.7 -0.05,0.92 -0.16,1.11 -0.31,1.28 -0.49,1.43 -0.7,1.55 -1,1.65 -1.31,1.67 -1.62,1.62 -1.91,1.48 -2.15,1.27 -2.34,1.01 -2.5,0.73 -2.64,0.44 -2.95,-0.21 1.2,-2.18 l 0.25,0.54 -1.76,0.84 0.1,0.22 2.36,0.41 L 2.44,0.44 0,0 m -2.23,0.11 0.06,0.14 0.1,0.2 0.12,0.2 0.13,0.17 0.15,0.15 0.16,0.12 0.19,0.06 h 0.2 L -0.89,1.08 -0.69,0.95 -0.55,0.79 -0.48,0.61 -0.46,0.42 -0.47,0.22 -0.53,0.01 -0.6,-0.2 -0.69,-0.41 -0.77,-0.58 -2.23,0.11"
                 style="fill:#000000;fill-opacity:1;fill-rule:evenodd;stroke:none"
                 id="path893" />
            </g>
            <g
               id="g1099"
               transform="translate(61.05,212.76)">
              <path
                 d="M 0,0 -3.65,1.83 -3.88,1.38 0.22,-0.68 0.67,0.2 0.36,0.72 0,0"
                 style="fill:#000000;fill-opacity:1;fill-rule:evenodd;stroke:none"
                 id="path1101" />
            </g>
            <g
               id="g1103"
               transform="translate(55.84,211.69)">
              <path
                 d="m 0,0 1.2,-2.35 0.17,-0.29 0.21,-0.27 0.11,-0.12 0.12,-0.11 0.14,-0.1 0.15,-0.09 0.28,-0.1 0.29,-0.05 0.29,0.02 0.28,0.06 0.26,0.12 0.23,0.17 0.2,0.21 0.16,0.24 0.11,0.29 0.05,0.29 L 4.24,-1.79 4.17,-1.52 4.05,-1.25 3.88,-1.02 3.66,-0.81 3.4,-0.65 3.14,-0.55 2.87,-0.49 2.6,-0.48 2.34,-0.52 2.09,-0.61 1.86,-0.74 1.67,-0.92 1.52,-1.16 1.43,-1.37 1.39,-1.59 1.38,-1.6 0.48,0.23 0,0 m 1.89,-1.55 0.09,0.15 0.13,0.13 0.15,0.11 0.18,0.08 0.18,0.04 0.19,0.02 0.2,-0.03 L 3.2,-1.12 3.36,-1.23 3.5,-1.36 3.61,-1.52 3.68,-1.7 3.72,-1.89 V -2.08 L 3.69,-2.28 3.62,-2.47 3.51,-2.62 3.38,-2.75 3.22,-2.85 3.05,-2.92 2.87,-2.96 H 2.68 l -0.19,0.03 -0.17,0.06 -0.16,0.1 -0.14,0.13 -0.11,0.15 -0.08,0.17 -0.04,0.18 -0.01,0.19 0.03,0.2 0.08,0.2"
                 style="fill:#000000;fill-opacity:1;fill-rule:evenodd;stroke:none"
                 id="path1105" />
            </g>
            <g
               id="g1107"
               transform="translate(55.86,207.05)">
              <path
                 d="m 0,0 -0.06,-0.24 -0.01,-0.23 0.03,-0.23 0.07,-0.21 0.11,-0.2 0.15,-0.17 0.17,-0.15 0.2,-0.13 0.3,-0.1 0.32,-0.04 0.31,0.05 0.29,0.13 0.24,0.21 0.2,0.25 0.17,0.28 0.14,0.28 0.33,0.65 -4.1,2.06 L -1.41,1.68 0.33,0.8 0.22,0.58 -2.14,0.22 -2.45,-0.38 0,0 M 2.23,-0.16 2.16,-0.3 2.06,-0.49 1.94,-0.69 1.8,-0.86 1.65,-1.01 1.49,-1.11 1.3,-1.17 H 1.1 l -0.23,0.08 -0.2,0.13 -0.13,0.16 -0.07,0.18 -0.02,0.19 0.02,0.21 0.06,0.2 0.08,0.21 0.1,0.21 0.08,0.17 1.44,-0.73"
                 style="fill:#000000;fill-opacity:1;fill-rule:evenodd;stroke:none"
                 id="path1109" />
            </g>
            <g
               id="g1111"
               transform="translate(48.66,248.93)">
              <path
                 d="M 0,0 -3.72,1.66 -3.93,1.19 0.26,-0.68 0.67,0.23 0.33,0.73 0,0"
                 style="fill:#000000;fill-opacity:1;fill-rule:evenodd;stroke:none"
                 id="path1113" />
            </g>
            <g
               id="g1115"
               transform="translate(43.52,247.62)">
              <path
                 d="m 0,0 1.3,-2.3 0.19,-0.28 0.21,-0.26 0.12,-0.11 0.13,-0.11 0.14,-0.09 0.15,-0.08 0.29,-0.09 0.29,-0.03 0.29,0.02 0.27,0.08 0.26,0.13 0.23,0.18 0.19,0.22 0.14,0.25 0.1,0.29 0.03,0.29 L 4.31,-1.6 4.23,-1.33 4.1,-1.07 3.92,-0.84 3.69,-0.65 3.42,-0.49 3.15,-0.4 2.88,-0.36 2.61,-0.37 2.35,-0.42 2.11,-0.51 1.89,-0.66 1.7,-0.85 1.56,-1.09 1.48,-1.31 1.46,-1.53 1.44,-1.54 0.46,0.24 0,0 m 1.95,-1.47 0.09,0.16 0.12,0.13 0.15,0.12 0.17,0.09 0.18,0.05 0.19,0.02 0.2,-0.01 0.19,-0.06 0.17,-0.1 L 3.55,-1.2 3.67,-1.36 3.75,-1.53 3.8,-1.72 3.81,-1.91 3.78,-2.11 3.72,-2.3 3.63,-2.46 3.5,-2.59 3.35,-2.7 3.18,-2.78 2.99,-2.82 2.81,-2.84 2.62,-2.82 2.44,-2.76 2.28,-2.67 2.14,-2.55 2.02,-2.4 l -0.09,0.16 -0.05,0.18 -0.02,0.19 0.02,0.2 0.07,0.2"
                 style="fill:#000000;fill-opacity:1;fill-rule:evenodd;stroke:none"
                 id="path1117" />
            </g>
            <g
               id="g1119"
               transform="translate(46.45,242.72)">
              <path
                 d="M 0,0 0.25,0.54 -3.95,2.42 -4.76,0.59 -4.3,0.38 -3.72,1.66 0,0"
                 style="fill:#000000;fill-opacity:1;fill-rule:evenodd;stroke:none"
                 id="path1121" />
            </g>
            <g
               id="g1543"
               transform="translate(259.18,199.55)" />
            <g
               id="g3719"
               transform="translate(25.08,34.86)" />
            <g
               id="g4503"
               transform="translate(316.56,169.59)">
              <path
                 d="M 0,0 0.03,-0.3 0.12,-0.57 0.25,-0.8 0.42,-1 l 0.21,-0.15 0.24,-0.11 0.27,-0.07 0.28,-0.02 0.29,0.03 0.26,0.07 0.24,0.12 0.2,0.16 0.17,0.19 0.13,0.24 0.07,0.26 0.03,0.3 L 2.8,0.2 2.76,0.38 2.71,0.54 2.63,0.69 2.53,0.82 2.41,0.94 2.27,1.04 2.11,1.12 2.37,1.31 2.55,1.56 2.62,1.7 2.67,1.85 2.69,2.02 2.7,2.19 2.67,2.46 2.6,2.72 2.48,2.94 2.32,3.13 2.12,3.29 1.9,3.4 1.64,3.47 1.37,3.5 1.1,3.47 0.85,3.39 0.62,3.27 0.43,3.11 0.28,2.92 0.16,2.69 0.09,2.44 0.07,2.16 0.08,1.99 0.11,1.83 0.16,1.68 0.23,1.54 0.41,1.29 0.66,1.1 0.5,1.02 0.37,0.92 0.26,0.8 0.17,0.66 0.09,0.51 0.04,0.35 0.01,0.17 0,0 M 1.38,2.99 1.53,2.97 1.68,2.93 1.82,2.85 1.94,2.75 2.04,2.63 2.12,2.5 2.17,2.34 2.19,2.18 2.17,2.04 2.12,1.9 2.05,1.76 1.94,1.64 1.82,1.53 1.69,1.45 1.54,1.39 1.39,1.37 1.24,1.39 1.1,1.44 0.96,1.52 0.84,1.62 0.73,1.75 0.65,1.88 0.6,2.02 0.58,2.16 0.59,2.33 0.64,2.48 0.71,2.62 0.81,2.74 0.93,2.84 1.07,2.92 1.22,2.97 1.38,2.99 M 1.4,0.86 1.57,0.84 1.73,0.8 1.89,0.72 2.02,0.62 2.13,0.5 2.22,0.35 2.28,0.19 2.3,0.02 2.28,-0.15 2.23,-0.31 2.14,-0.45 2.03,-0.58 1.9,-0.69 1.75,-0.77 1.58,-0.82 1.42,-0.84 1.25,-0.83 1.08,-0.78 0.93,-0.7 0.8,-0.59 0.68,-0.47 0.59,-0.32 0.53,-0.17 0.51,0 0.53,0.17 0.58,0.34 0.67,0.48 0.78,0.61 0.91,0.71 1.06,0.79 1.23,0.84 1.4,0.86"
                 style="fill:#000000;fill-opacity:1;fill-rule:evenodd;stroke:none"
                 id="path4505" />
            </g>
            <g
               id="g4507"
               transform="translate(321.64,170.38)">
              <path
                 d="M 0,0 0.24,0.05 0.45,0.15 0.64,0.28 0.79,0.44 0.92,0.63 1.01,0.84 1.06,1.06 1.08,1.3 1.04,1.62 0.92,1.91 0.74,2.17 0.49,2.37 0.19,2.48 -0.12,2.54 -0.45,2.57 h -0.32 l -0.72,-0.01 0.05,-4.59 h 0.6 l -0.02,1.96 h 0.24 L 0.78,-2.01 1.46,-2 0,0 m -0.89,2.06 h 0.16 L -0.51,2.05 -0.28,2.03 -0.06,1.99 0.14,1.93 0.31,1.83 0.44,1.69 0.53,1.51 0.57,1.27 0.54,1.03 0.46,0.84 0.33,0.7 0.17,0.59 -0.02,0.52 -0.23,0.47 -0.45,0.45 -0.68,0.44 h -0.19 l -0.02,1.62"
                 style="fill:#000000;fill-opacity:1;fill-rule:evenodd;stroke:none"
                 id="path4509" />
            </g>
            <g
               id="g4511"
               transform="translate(288.5,93.71)">
              <path
                 d="M 0,0 0.03,-0.3 0.11,-0.57 0.24,-0.8 0.41,-1 0.62,-1.16 0.85,-1.27 1.12,-1.34 1.4,-1.36 1.69,-1.34 1.95,-1.27 2.19,-1.16 2.4,-1 2.57,-0.8 2.7,-0.57 2.78,-0.3 2.81,0 2.8,0.18 2.76,0.35 2.71,0.51 2.63,0.66 2.54,0.8 2.42,0.92 2.28,1.02 2.12,1.1 2.38,1.29 2.57,1.54 2.63,1.68 2.68,1.83 2.71,1.99 2.72,2.16 2.7,2.44 2.62,2.69 2.5,2.92 2.35,3.11 2.15,3.27 1.93,3.38 1.68,3.46 1.4,3.48 1.13,3.46 0.88,3.38 0.65,3.27 0.46,3.11 0.3,2.92 0.19,2.69 0.11,2.44 0.09,2.16 0.1,1.99 0.13,1.83 0.17,1.68 0.24,1.54 0.42,1.29 0.67,1.1 0.51,1.02 0.38,0.92 0.27,0.8 0.17,0.66 0.1,0.51 0.04,0.35 0.01,0.18 0,0 M 1.4,2.97 1.56,2.96 1.71,2.91 1.85,2.83 1.97,2.73 2.07,2.61 2.15,2.48 2.19,2.32 2.21,2.16 2.19,2.02 2.14,1.87 2.06,1.74 1.96,1.62 1.83,1.51 1.7,1.43 1.55,1.38 1.4,1.36 1.26,1.38 1.11,1.43 0.97,1.51 0.85,1.62 0.75,1.74 0.67,1.87 0.61,2.02 0.6,2.16 0.61,2.32 0.66,2.48 0.74,2.61 0.84,2.73 0.96,2.83 1.1,2.91 1.25,2.96 1.4,2.97 M 1.4,0.85 1.58,0.83 1.74,0.78 1.89,0.7 2.03,0.6 2.14,0.48 2.22,0.33 2.28,0.17 2.3,0 2.28,-0.17 2.22,-0.33 2.13,-0.47 2.02,-0.6 1.89,-0.71 1.74,-0.79 1.57,-0.84 1.4,-0.85 1.24,-0.84 1.07,-0.79 0.92,-0.71 0.79,-0.6 0.67,-0.47 0.59,-0.33 0.53,-0.17 0.51,0 0.53,0.17 0.59,0.33 0.67,0.48 0.78,0.6 0.92,0.7 1.07,0.78 1.23,0.83 1.4,0.85"
                 style="fill:#000000;fill-opacity:1;fill-rule:evenodd;stroke:none"
                 id="path4513" />
            </g>
            <g
               id="g4515"
               transform="translate(292.72,97.02)">
              <path
                 d="M 0,0 H -0.59 V -4.59 H 1.4 v 0.51 H 0 V 0"
                 style="fill:#000000;fill-opacity:1;fill-rule:evenodd;stroke:none"
                 id="path4517" />
            </g>
            <g
               id="g4519"
               transform="translate(322.24,489.87)">
              <path
                 d="m 0,0 -1.5,-1.89 -0.14,-0.22 -0.1,-0.24 -0.06,-0.25 -0.02,-0.26 0.03,-0.3 0.08,-0.27 0.13,-0.23 0.17,-0.21 0.21,-0.16 0.24,-0.12 0.27,-0.07 0.29,-0.03 0.3,0.02 0.27,0.08 0.23,0.11 0.21,0.16 0.17,0.2 0.13,0.24 0.1,0.26 0.05,0.3 H 0.48 L 0.46,-3.05 0.4,-3.21 0.31,-3.36 0.21,-3.49 0.08,-3.59 -0.07,-3.67 -0.23,-3.72 -0.4,-3.74 l -0.18,0.02 -0.17,0.05 -0.15,0.08 -0.14,0.12 -0.11,0.13 -0.09,0.15 -0.05,0.17 -0.02,0.18 0.04,0.23 0.09,0.22 0.14,0.21 0.14,0.19 2.02,2.5 H -1.82 V 0 H 0"
                 style="fill:#000000;fill-opacity:1;fill-rule:evenodd;stroke:none"
                 id="path4521" />
            </g>
            <g
               id="g4523"
               transform="translate(317.82,485.62)">
              <path
                 d="M 0,0 1.57,2.14 1.75,2.42 1.9,2.71 1.96,2.86 2,3.03 2.03,3.19 2.04,3.36 2,3.67 1.92,3.94 1.77,4.2 1.59,4.42 1.36,4.6 1.11,4.73 0.84,4.82 0.54,4.85 0.24,4.82 -0.04,4.73 -0.29,4.59 -0.51,4.4 -0.69,4.18 -0.83,3.92 -0.91,3.63 -0.94,3.32 -0.92,3.04 -0.84,2.78 -0.73,2.53 -0.58,2.32 -0.39,2.13 -0.17,1.99 0.08,1.9 0.35,1.87 0.59,1.9 0.8,1.98 0.82,1.97 -0.41,0.25 0,0 M 0.55,4.34 0.74,4.32 0.92,4.26 1.09,4.17 1.23,4.05 1.36,3.9 1.45,3.73 1.51,3.55 1.53,3.35 1.51,3.17 1.44,2.99 1.35,2.82 1.23,2.68 1.08,2.55 0.91,2.46 0.73,2.4 0.55,2.38 0.37,2.4 0.19,2.46 0.02,2.55 l -0.14,0.11 -0.13,0.15 -0.1,0.17 -0.06,0.19 -0.02,0.21 0.02,0.19 0.06,0.18 0.09,0.16 0.13,0.15 0.14,0.11 0.17,0.09 0.18,0.06 0.19,0.02"
                 style="fill:#000000;fill-opacity:1;fill-rule:evenodd;stroke:none"
                 id="path4525" />
            </g>
            <g
               id="g4527"
               transform="translate(315.55,485.79)">
              <path
                 d="m 0,0 h 0.6 v 4.59 h -2 V 4.08 H 0 V 0"
                 style="fill:#000000;fill-opacity:1;fill-rule:evenodd;stroke:none"
                 id="path4529" />
            </g>
            <g
               id="g4531"
               transform="translate(293.95,530.91)">
              <path
                 d="m 0,0 -1.5,-1.9 -0.14,-0.22 -0.1,-0.24 -0.06,-0.25 -0.02,-0.26 0.03,-0.3 0.08,-0.26 0.13,-0.24 0.17,-0.2 0.21,-0.16 0.24,-0.13 0.27,-0.07 0.28,-0.03 0.31,0.03 0.26,0.07 0.24,0.12 0.21,0.16 0.17,0.19 0.13,0.24 0.09,0.27 0.06,0.3 H 0.48 L 0.46,-3.06 0.4,-3.22 0.31,-3.37 0.2,-3.49 0.08,-3.6 l -0.15,-0.08 -0.16,-0.05 -0.18,-0.02 -0.17,0.02 -0.17,0.05 -0.15,0.09 -0.14,0.11 -0.11,0.13 -0.09,0.16 -0.05,0.16 -0.02,0.18 0.04,0.23 0.09,0.23 0.13,0.2 L -0.9,-2 1.12,0.51 H -1.82 V 0 H 0"
                 style="fill:#000000;fill-opacity:1;fill-rule:evenodd;stroke:none"
                 id="path4533" />
            </g>
            <g
               id="g4535"
               transform="translate(289.53,526.65)">
              <path
                 d="M 0,0 1.57,2.14 1.75,2.42 1.9,2.71 1.95,2.87 2,3.03 2.03,3.2 2.04,3.37 2,3.67 1.91,3.95 1.77,4.2 1.59,4.42 1.36,4.6 1.11,4.73 0.83,4.82 0.54,4.85 0.24,4.82 -0.04,4.73 -0.3,4.59 -0.51,4.41 -0.69,4.18 -0.83,3.92 -0.91,3.64 -0.94,3.33 -0.92,3.05 -0.85,2.78 -0.73,2.54 -0.58,2.32 -0.39,2.14 -0.17,2 0.08,1.91 0.35,1.87 0.59,1.9 0.8,1.98 0.82,1.97 -0.41,0.25 0,0 M 0.55,4.34 0.74,4.32 0.92,4.26 1.09,4.17 1.23,4.05 1.35,3.9 1.45,3.74 1.5,3.55 1.52,3.36 1.5,3.17 1.44,2.99 1.35,2.83 1.22,2.68 1.08,2.56 0.91,2.47 0.73,2.41 0.55,2.38 0.36,2.4 0.19,2.46 0.02,2.55 l -0.15,0.12 -0.12,0.14 -0.1,0.17 -0.06,0.2 -0.02,0.21 0.02,0.19 0.06,0.18 0.09,0.16 0.13,0.14 0.14,0.12 0.17,0.08 0.18,0.06 0.19,0.02"
                 style="fill:#000000;fill-opacity:1;fill-rule:evenodd;stroke:none"
                 id="path4537" />
            </g>
            <g
               id="g4539"
               transform="translate(286.4,529.4)">
              <path
                 d="m 0,0 -0.24,-0.05 -0.22,-0.1 -0.19,-0.13 -0.15,-0.16 -0.13,-0.18 -0.09,-0.21 -0.06,-0.23 -0.02,-0.23 0.04,-0.32 0.12,-0.29 0.18,-0.26 0.24,-0.2 0.3,-0.12 0.31,-0.07 0.32,-0.02 0.32,-0.01 h 0.73 v 4.6 H 0.86 V 0.06 H 0.61 L -0.77,2.02 H -1.44 L 0,0 M 0.86,-2.07 H 0.7 L 0.48,-2.06 0.26,-2.04 0.04,-2 l -0.2,0.07 -0.17,0.1 -0.14,0.14 -0.08,0.19 -0.04,0.23 0.03,0.24 0.09,0.19 0.12,0.14 0.17,0.11 0.19,0.07 0.21,0.04 0.22,0.02 0.23,0.01 h 0.19 v -1.62"
                 style="fill:#000000;fill-opacity:1;fill-rule:evenodd;stroke:none"
                 id="path4541" />
            </g>
            <g
               id="g7363"
               transform="translate(318.33,130.73)" />
            <g
               id="g7367"
               transform="translate(37.84,45.04)" />
            <g
               id="g7435"
               transform="translate(201.65,347.83)">
              <path
                 d="M 0,0 V 0 0 0"
                 style="fill:#000000;fill-opacity:1;fill-rule:evenodd;stroke:none"
                 id="path7437" />
            </g>
            <g
               id="g7439"
               transform="translate(201.65,347.83)">
              <path
                 d="M 0,0 V 0 0 0"
                 style="fill:#000000;fill-opacity:1;fill-rule:evenodd;stroke:none"
                 id="path7441" />
            </g>
            <g
               id="g7927"
               transform="translate(215.54,260.54)">
              <path
                 d="M 0,0 H -2.88"
                 style="fill:none;stroke:#000000;stroke-width:0.39;stroke-linecap:square;stroke-linejoin:miter;stroke-miterlimit:1.414;stroke-dasharray:none;stroke-opacity:1"
                 id="path7929" />
            </g>
            <g
               id="g8099"
               transform="translate(219.1,491.3)">
              <path
                 d="M 0,0 H -3.6"
                 style="fill:none;stroke:#000000;stroke-width:0.39;stroke-linecap:square;stroke-linejoin:miter;stroke-miterlimit:1.414;stroke-dasharray:none;stroke-opacity:1"
                 id="path8101" />
            </g>
            <g
               id="g8175"
               transform="translate(73.39,127.89)">
              <path
                 d="M 0,0 V 2.88"
                 style="fill:none;stroke:#000000;stroke-width:0.39;stroke-linecap:square;stroke-linejoin:miter;stroke-miterlimit:1.414;stroke-dasharray:none;stroke-opacity:1"
                 id="path8177" />
            </g>
            <g
               id="g8179"
               transform="translate(55.63,127.89)" />
            <g
               id="g8195"
               transform="translate(55.63,127.89)" />
            <g
               id="g8199"
               transform="translate(73.39,127.89)">
              <path
                 d="M 0,0 V 2.88"
                 style="fill:none;stroke:#000000;stroke-width:0.39;stroke-linecap:square;stroke-linejoin:miter;stroke-miterlimit:1.414;stroke-dasharray:none;stroke-opacity:1"
                 id="path8201" />
            </g>
            <g
               id="g8275"
               transform="translate(197.77,272.09)">
              <path
                 d="M 0,0 V 2.87"
                 style="fill:none;stroke:#000000;stroke-width:0.39;stroke-linecap:square;stroke-linejoin:miter;stroke-miterlimit:1.414;stroke-dasharray:none;stroke-opacity:1"
                 id="path8277" />
            </g>
            <g
               id="g8395"
               transform="translate(200.91,344.9)">
              <path
                 d="M 0,0 -0.71,1.63 0.03,3.22 -1.73,2.94 -3.14,4.08 -3.44,2.37 -4.87,1.43 -3.36,0.57 -2.95,-1.11 -1.73,0.15"
                 style="fill:#000000;fill-opacity:1;fill-rule:evenodd;stroke:none"
                 id="path8397" />
            </g>
            <g
               id="g8399"
               transform="translate(198.17,345.61)">
              <path
                 d="M 0,0 C 0.21,-0.14 0.47,-0.2 0.73,-0.15 0.98,-0.1 1.2,0.04 1.35,0.25 1.49,0.47 1.55,0.73 1.5,0.98 1.45,1.23 1.31,1.45 1.1,1.6 0.88,1.75 0.62,1.8 0.37,1.75 0.12,1.71 -0.11,1.56 -0.25,1.35 -0.4,1.14 -0.45,0.88 -0.4,0.62 -0.36,0.37 -0.21,0.15 0,0"
                 style="fill:#ffffff;fill-opacity:1;fill-rule:evenodd;stroke:none"
                 id="path8401" />
            </g>
            <g
               id="g8423"
               transform="translate(287.11,109.85)">
              <path
                 d="M 0,0 C 0.85,0.11 1.66,0.43 2.35,0.93 3.05,1.44 3.6,2.11 3.96,2.89 4.32,3.66 4.48,4.52 4.42,5.37 4.36,6.23 4.08,7.05 3.61,7.77"
                 style="fill:none;stroke:#000000;stroke-width:0.42;stroke-linecap:square;stroke-linejoin:miter;stroke-miterlimit:1.414;stroke-dasharray:none;stroke-opacity:1"
                 id="path8425" />
            </g>
            <g
               id="g8515"
               transform="translate(126.04,87.26)" />
            <g
               id="g8519"
               transform="translate(126.04,87.26)" />
            <g
               id="g8523"
               transform="translate(60.61,107.35)" />
            <g
               id="g8527"
               transform="translate(65.21,87.26)" />
            <g
               id="g8567"
               transform="translate(18.21,548.96)" />
          </g>
        </g>
      </g>
    </g>
  </g>
</svg>
