%TF.GenerationSoftware,KiCad,Pcbnew,(5.1.12-1-10_14)*%
%TF.CreationDate,2022-04-05T15:16:14-04:00*%
%TF.ProjectId,sr-71,73722d37-312e-46b6-9963-61645f706362,rev?*%
%TF.SameCoordinates,Original*%
%TF.FileFunction,Copper,L2,Bot*%
%TF.FilePolarity,Positive*%
%FSLAX46Y46*%
G04 Gerber Fmt 4.6, Leading zero omitted, Abs format (unit mm)*
G04 Created by KiCad (PCBNEW (5.1.12-1-10_14)) date 2022-04-05 15:16:14*
%MOMM*%
%LPD*%
G01*
G04 APERTURE LIST*
%TA.AperFunction,NonConductor*%
%ADD10C,0.300000*%
%TD*%
%TA.AperFunction,ComponentPad*%
%ADD11R,1.700000X1.700000*%
%TD*%
%TA.AperFunction,ComponentPad*%
%ADD12O,1.700000X1.700000*%
%TD*%
%TA.AperFunction,SMDPad,CuDef*%
%ADD13R,1.400000X2.600000*%
%TD*%
%TA.AperFunction,SMDPad,CuDef*%
%ADD14R,1.500000X1.800000*%
%TD*%
%TA.AperFunction,SMDPad,CuDef*%
%ADD15C,17.800000*%
%TD*%
%TA.AperFunction,SMDPad,CuDef*%
%ADD16C,0.150000*%
%TD*%
%TA.AperFunction,Conductor*%
%ADD17C,0.254000*%
%TD*%
%TA.AperFunction,Conductor*%
%ADD18C,0.250000*%
%TD*%
%TA.AperFunction,Conductor*%
%ADD19C,0.150000*%
%TD*%
G04 APERTURE END LIST*
D10*
X191641171Y-116678971D02*
X191141171Y-118178971D01*
X190641171Y-116678971D01*
X189855457Y-116678971D02*
X189712600Y-116678971D01*
X189569742Y-116750400D01*
X189498314Y-116821828D01*
X189426885Y-116964685D01*
X189355457Y-117250400D01*
X189355457Y-117607542D01*
X189426885Y-117893257D01*
X189498314Y-118036114D01*
X189569742Y-118107542D01*
X189712600Y-118178971D01*
X189855457Y-118178971D01*
X189998314Y-118107542D01*
X190069742Y-118036114D01*
X190141171Y-117893257D01*
X190212600Y-117607542D01*
X190212600Y-117250400D01*
X190141171Y-116964685D01*
X190069742Y-116821828D01*
X189998314Y-116750400D01*
X189855457Y-116678971D01*
X188855457Y-116678971D02*
X187926885Y-116678971D01*
X188426885Y-117250400D01*
X188212600Y-117250400D01*
X188069742Y-117321828D01*
X187998314Y-117393257D01*
X187926885Y-117536114D01*
X187926885Y-117893257D01*
X187998314Y-118036114D01*
X188069742Y-118107542D01*
X188212600Y-118178971D01*
X188641171Y-118178971D01*
X188784028Y-118107542D01*
X188855457Y-118036114D01*
D11*
X175094900Y-112585500D03*
D12*
X175094900Y-115125500D03*
X177634900Y-112585500D03*
X177634900Y-115125500D03*
X180174900Y-112585500D03*
X180174900Y-115125500D03*
D13*
X134248200Y-103733600D03*
X129048200Y-103733600D03*
X152167900Y-104648000D03*
X146967900Y-104648000D03*
X164760600Y-104101900D03*
X169960600Y-104101900D03*
D14*
X134410900Y-109220000D03*
X138010900Y-109220000D03*
X159778700Y-107264200D03*
X156178700Y-107264200D03*
X170357800Y-108635800D03*
X166757800Y-108635800D03*
D15*
X149542500Y-92532200D03*
%TA.AperFunction,SMDPad,CuDef*%
D16*
G36*
X160176326Y-93236353D02*
G01*
X159294194Y-88233530D01*
X160544900Y-88012997D01*
X161427032Y-93015820D01*
X160176326Y-93236353D01*
G37*
%TD.AperFunction*%
%TA.AperFunction,SMDPad,CuDef*%
G36*
X138540100Y-97051403D02*
G01*
X137657968Y-92048580D01*
X138908674Y-91828047D01*
X139790806Y-96830870D01*
X138540100Y-97051403D01*
G37*
%TD.AperFunction*%
D17*
X134410900Y-109220000D02*
X129921000Y-109220000D01*
X129921000Y-109220000D02*
X127317500Y-106616500D01*
X128094200Y-103733600D02*
X129048200Y-103733600D01*
X127317500Y-104510300D02*
X128094200Y-103733600D01*
X127317500Y-106616500D02*
X127317500Y-104510300D01*
X154716500Y-104648000D02*
X153121900Y-104648000D01*
X153121900Y-104648000D02*
X152167900Y-104648000D01*
X156178700Y-106110200D02*
X154716500Y-104648000D01*
X156178700Y-107264200D02*
X156178700Y-106110200D01*
X138724387Y-108506513D02*
X138010900Y-109220000D01*
X138724387Y-94439725D02*
X138724387Y-108506513D01*
X159778700Y-108418200D02*
X159778700Y-107264200D01*
X158976900Y-109220000D02*
X159778700Y-108418200D01*
X138010900Y-109220000D02*
X158976900Y-109220000D01*
X166757800Y-107481800D02*
X166757800Y-108635800D01*
X166540200Y-107264200D02*
X166757800Y-107481800D01*
X159778700Y-107264200D02*
X166540200Y-107264200D01*
D18*
X173994900Y-112585500D02*
X175094900Y-112585500D01*
X171707500Y-112585500D02*
X173994900Y-112585500D01*
X167757800Y-108635800D02*
X171707500Y-112585500D01*
X166757800Y-108635800D02*
X167757800Y-108635800D01*
X160360613Y-88045492D02*
X160360613Y-90624675D01*
X155622320Y-83307199D02*
X160360613Y-88045492D01*
X145114499Y-83307199D02*
X155622320Y-83307199D01*
X138724387Y-89697311D02*
X145114499Y-83307199D01*
X138724387Y-94439725D02*
X138724387Y-89697311D01*
D17*
X170367000Y-104508300D02*
X169960600Y-104101900D01*
X171361800Y-108635800D02*
X172097700Y-107899900D01*
X170357800Y-108635800D02*
X171361800Y-108635800D01*
X172097700Y-107899900D02*
X172097700Y-104724200D01*
X171475400Y-104101900D02*
X169960600Y-104101900D01*
X172097700Y-104724200D02*
X171475400Y-104101900D01*
X154649686Y-81419570D02*
X156785828Y-81819566D01*
X158850238Y-82385972D01*
X160817623Y-83108417D01*
X162673956Y-83979655D01*
X164406173Y-84992452D01*
X166001342Y-86138995D01*
X167446201Y-87410912D01*
X168727088Y-88799036D01*
X169868430Y-90368571D01*
X170769679Y-91910966D01*
X171009285Y-92329122D01*
X171042968Y-92388177D01*
X171066086Y-92414817D01*
X171086537Y-92443555D01*
X171111199Y-92466805D01*
X171133405Y-92492395D01*
X171161271Y-92514010D01*
X171186940Y-92538210D01*
X171215658Y-92556198D01*
X171242435Y-92576969D01*
X171273990Y-92592736D01*
X171303880Y-92611458D01*
X171335560Y-92623500D01*
X171365871Y-92638645D01*
X171399884Y-92647950D01*
X171432862Y-92660485D01*
X171500239Y-92671835D01*
X171684287Y-92703212D01*
X171688282Y-92704685D01*
X171752220Y-92714794D01*
X171782017Y-92719874D01*
X171786242Y-92720173D01*
X171824576Y-92726234D01*
X171854897Y-92725034D01*
X171885170Y-92727178D01*
X171923680Y-92722313D01*
X171927905Y-92722146D01*
X171957792Y-92718004D01*
X172022069Y-92709884D01*
X172026111Y-92708535D01*
X174865334Y-92315042D01*
X175925548Y-92286848D01*
X177061749Y-92347163D01*
X179435489Y-92701401D01*
X181611166Y-93345294D01*
X183571669Y-94252871D01*
X185286205Y-95396549D01*
X186724501Y-96747692D01*
X187870238Y-98293729D01*
X188308953Y-99105378D01*
X188669478Y-99967753D01*
X188942185Y-100863657D01*
X189119700Y-101776247D01*
X189179315Y-103106980D01*
X189054556Y-104455456D01*
X189003642Y-104722533D01*
X188993277Y-104758972D01*
X188987973Y-104824479D01*
X188982058Y-104889882D01*
X188982411Y-104893191D01*
X188982142Y-104896507D01*
X188989716Y-104961755D01*
X188996677Y-105027092D01*
X188997668Y-105030269D01*
X188998052Y-105033573D01*
X189018212Y-105096095D01*
X189037785Y-105158813D01*
X189039377Y-105161735D01*
X189040398Y-105164902D01*
X189072375Y-105222302D01*
X189103800Y-105279984D01*
X189105931Y-105282539D01*
X189107550Y-105285445D01*
X189150100Y-105335492D01*
X189192186Y-105385946D01*
X189194775Y-105388037D01*
X189196930Y-105390571D01*
X189248431Y-105431360D01*
X189299545Y-105472631D01*
X189302491Y-105474175D01*
X189305100Y-105476242D01*
X189363619Y-105506224D01*
X189421754Y-105536704D01*
X189424942Y-105537643D01*
X189427906Y-105539162D01*
X189491125Y-105557145D01*
X189554114Y-105575705D01*
X189591839Y-105579117D01*
X190257300Y-105699496D01*
X191234871Y-105929917D01*
X192159618Y-106250689D01*
X193035559Y-106657857D01*
X193848234Y-107141719D01*
X194584131Y-107691494D01*
X195229260Y-108297370D01*
X195771112Y-108946656D01*
X196201086Y-109631754D01*
X196539361Y-110392297D01*
X196755245Y-111153619D01*
X196855104Y-111910994D01*
X196844635Y-112660177D01*
X196728182Y-113398158D01*
X196509691Y-114119264D01*
X196191776Y-114818403D01*
X195777353Y-115489395D01*
X195270984Y-116123763D01*
X194675336Y-116714220D01*
X193995281Y-117253233D01*
X193234886Y-117732955D01*
X192569029Y-118061489D01*
X192569029Y-115710400D01*
X186856172Y-115710400D01*
X186856172Y-118915673D01*
X179383214Y-118964256D01*
X149046691Y-118902319D01*
X149046647Y-118902315D01*
X149011315Y-118902247D01*
X148977916Y-118902179D01*
X148977874Y-118902183D01*
X128074431Y-118862064D01*
X127169104Y-118696157D01*
X125622415Y-118346922D01*
X124199237Y-117891525D01*
X122888779Y-117330182D01*
X121693190Y-116665965D01*
X120615049Y-115902487D01*
X120146060Y-115482391D01*
X173653419Y-115482391D01*
X173750743Y-115756752D01*
X173899722Y-116006855D01*
X174094631Y-116223088D01*
X174327980Y-116397141D01*
X174590801Y-116522325D01*
X174738010Y-116566976D01*
X174967900Y-116445655D01*
X174967900Y-115252500D01*
X173774086Y-115252500D01*
X173653419Y-115482391D01*
X120146060Y-115482391D01*
X119654946Y-115042478D01*
X118815091Y-114086797D01*
X118094158Y-113032379D01*
X117562916Y-112039861D01*
X117196947Y-111101236D01*
X116970042Y-110143606D01*
X116860121Y-109090277D01*
X116873492Y-108048036D01*
X117017482Y-107032494D01*
X117289577Y-106043533D01*
X117687959Y-105083597D01*
X118012294Y-104510300D01*
X126551814Y-104510300D01*
X126555501Y-104547733D01*
X126555500Y-106579076D01*
X126551814Y-106616500D01*
X126555500Y-106653923D01*
X126555500Y-106653925D01*
X126566526Y-106765877D01*
X126610098Y-106909514D01*
X126615211Y-106919079D01*
X126680855Y-107041892D01*
X126692769Y-107056409D01*
X126776078Y-107157922D01*
X126805154Y-107181784D01*
X129355721Y-109732352D01*
X129379578Y-109761422D01*
X129495608Y-109856645D01*
X129627985Y-109927402D01*
X129771622Y-109970974D01*
X129883574Y-109982000D01*
X129883576Y-109982000D01*
X129920999Y-109985686D01*
X129958422Y-109982000D01*
X133022828Y-109982000D01*
X133022828Y-110120000D01*
X133035088Y-110244482D01*
X133071398Y-110364180D01*
X133130363Y-110474494D01*
X133209715Y-110571185D01*
X133306406Y-110650537D01*
X133416720Y-110709502D01*
X133536418Y-110745812D01*
X133660900Y-110758072D01*
X135160900Y-110758072D01*
X135285382Y-110745812D01*
X135405080Y-110709502D01*
X135515394Y-110650537D01*
X135612085Y-110571185D01*
X135691437Y-110474494D01*
X135750402Y-110364180D01*
X135786712Y-110244482D01*
X135798972Y-110120000D01*
X135798972Y-108320000D01*
X136622828Y-108320000D01*
X136622828Y-110120000D01*
X136635088Y-110244482D01*
X136671398Y-110364180D01*
X136730363Y-110474494D01*
X136809715Y-110571185D01*
X136906406Y-110650537D01*
X137016720Y-110709502D01*
X137136418Y-110745812D01*
X137260900Y-110758072D01*
X138760900Y-110758072D01*
X138885382Y-110745812D01*
X139005080Y-110709502D01*
X139115394Y-110650537D01*
X139212085Y-110571185D01*
X139291437Y-110474494D01*
X139350402Y-110364180D01*
X139386712Y-110244482D01*
X139398972Y-110120000D01*
X139398972Y-109982000D01*
X158939477Y-109982000D01*
X158976900Y-109985686D01*
X159014323Y-109982000D01*
X159014326Y-109982000D01*
X159126278Y-109970974D01*
X159269915Y-109927402D01*
X159402292Y-109856645D01*
X159518322Y-109761422D01*
X159542184Y-109732347D01*
X160291053Y-108983478D01*
X160320122Y-108959622D01*
X160415345Y-108843592D01*
X160437431Y-108802272D01*
X160528700Y-108802272D01*
X160653182Y-108790012D01*
X160772880Y-108753702D01*
X160883194Y-108694737D01*
X160979885Y-108615385D01*
X161059237Y-108518694D01*
X161118202Y-108408380D01*
X161154512Y-108288682D01*
X161166772Y-108164200D01*
X161166772Y-108026200D01*
X165369728Y-108026200D01*
X165369728Y-109535800D01*
X165381988Y-109660282D01*
X165418298Y-109779980D01*
X165477263Y-109890294D01*
X165556615Y-109986985D01*
X165653306Y-110066337D01*
X165763620Y-110125302D01*
X165883318Y-110161612D01*
X166007800Y-110173872D01*
X167507800Y-110173872D01*
X167632282Y-110161612D01*
X167751980Y-110125302D01*
X167862294Y-110066337D01*
X167958985Y-109986985D01*
X167992881Y-109945682D01*
X171143701Y-113096503D01*
X171167499Y-113125501D01*
X171283224Y-113220474D01*
X171415253Y-113291046D01*
X171558514Y-113334503D01*
X171670167Y-113345500D01*
X171670176Y-113345500D01*
X171707499Y-113349176D01*
X171744822Y-113345500D01*
X173606828Y-113345500D01*
X173606828Y-113435500D01*
X173619088Y-113559982D01*
X173655398Y-113679680D01*
X173714363Y-113789994D01*
X173793715Y-113886685D01*
X173890406Y-113966037D01*
X174000720Y-114025002D01*
X174076526Y-114047998D01*
X173899722Y-114244145D01*
X173750743Y-114494248D01*
X173653419Y-114768609D01*
X173774086Y-114998500D01*
X174967900Y-114998500D01*
X174967900Y-114978500D01*
X175221900Y-114978500D01*
X175221900Y-114998500D01*
X175241900Y-114998500D01*
X175241900Y-115252500D01*
X175221900Y-115252500D01*
X175221900Y-116445655D01*
X175451790Y-116566976D01*
X175598999Y-116522325D01*
X175861820Y-116397141D01*
X176095169Y-116223088D01*
X176290078Y-116006855D01*
X176359705Y-115889966D01*
X176481425Y-116072132D01*
X176688268Y-116278975D01*
X176931489Y-116441490D01*
X177201742Y-116553432D01*
X177488640Y-116610500D01*
X177781160Y-116610500D01*
X178068058Y-116553432D01*
X178338311Y-116441490D01*
X178581532Y-116278975D01*
X178788375Y-116072132D01*
X178904900Y-115897740D01*
X179021425Y-116072132D01*
X179228268Y-116278975D01*
X179471489Y-116441490D01*
X179741742Y-116553432D01*
X180028640Y-116610500D01*
X180321160Y-116610500D01*
X180608058Y-116553432D01*
X180878311Y-116441490D01*
X181121532Y-116278975D01*
X181328375Y-116072132D01*
X181490890Y-115828911D01*
X181602832Y-115558658D01*
X181659900Y-115271760D01*
X181659900Y-114979240D01*
X181602832Y-114692342D01*
X181490890Y-114422089D01*
X181328375Y-114178868D01*
X181121532Y-113972025D01*
X180947140Y-113855500D01*
X181121532Y-113738975D01*
X181328375Y-113532132D01*
X181490890Y-113288911D01*
X181602832Y-113018658D01*
X181659900Y-112731760D01*
X181659900Y-112439240D01*
X181602832Y-112152342D01*
X181490890Y-111882089D01*
X181328375Y-111638868D01*
X181121532Y-111432025D01*
X180878311Y-111269510D01*
X180608058Y-111157568D01*
X180321160Y-111100500D01*
X180028640Y-111100500D01*
X179741742Y-111157568D01*
X179471489Y-111269510D01*
X179228268Y-111432025D01*
X179021425Y-111638868D01*
X178904900Y-111813260D01*
X178788375Y-111638868D01*
X178581532Y-111432025D01*
X178338311Y-111269510D01*
X178068058Y-111157568D01*
X177781160Y-111100500D01*
X177488640Y-111100500D01*
X177201742Y-111157568D01*
X176931489Y-111269510D01*
X176688268Y-111432025D01*
X176556413Y-111563880D01*
X176534402Y-111491320D01*
X176475437Y-111381006D01*
X176396085Y-111284315D01*
X176299394Y-111204963D01*
X176189080Y-111145998D01*
X176069382Y-111109688D01*
X175944900Y-111097428D01*
X174244900Y-111097428D01*
X174120418Y-111109688D01*
X174000720Y-111145998D01*
X173890406Y-111204963D01*
X173793715Y-111284315D01*
X173714363Y-111381006D01*
X173655398Y-111491320D01*
X173619088Y-111611018D01*
X173606828Y-111735500D01*
X173606828Y-111825500D01*
X172022302Y-111825500D01*
X170370674Y-110173872D01*
X171107800Y-110173872D01*
X171232282Y-110161612D01*
X171351980Y-110125302D01*
X171462294Y-110066337D01*
X171558985Y-109986985D01*
X171638337Y-109890294D01*
X171697302Y-109779980D01*
X171733612Y-109660282D01*
X171745872Y-109535800D01*
X171745872Y-109294531D01*
X171787192Y-109272445D01*
X171903222Y-109177222D01*
X171927084Y-109148147D01*
X172610053Y-108465178D01*
X172639122Y-108441322D01*
X172666472Y-108407996D01*
X172734345Y-108325293D01*
X172795155Y-108211524D01*
X172805102Y-108192915D01*
X172848674Y-108049278D01*
X172859700Y-107937326D01*
X172859700Y-107937323D01*
X172863386Y-107899900D01*
X172859700Y-107862477D01*
X172859700Y-104761622D01*
X172863386Y-104724199D01*
X172854984Y-104638893D01*
X172848674Y-104574822D01*
X172805102Y-104431185D01*
X172734345Y-104298808D01*
X172639122Y-104182778D01*
X172610051Y-104158920D01*
X172040683Y-103589553D01*
X172016822Y-103560478D01*
X171900792Y-103465255D01*
X171768415Y-103394498D01*
X171624778Y-103350926D01*
X171512826Y-103339900D01*
X171512823Y-103339900D01*
X171475400Y-103336214D01*
X171437977Y-103339900D01*
X171298672Y-103339900D01*
X171298672Y-102801900D01*
X171286412Y-102677418D01*
X171250102Y-102557720D01*
X171191137Y-102447406D01*
X171111785Y-102350715D01*
X171015094Y-102271363D01*
X170904780Y-102212398D01*
X170785082Y-102176088D01*
X170660600Y-102163828D01*
X169260600Y-102163828D01*
X169136118Y-102176088D01*
X169016420Y-102212398D01*
X168977164Y-102233381D01*
X165673878Y-102171522D01*
X165644387Y-102174428D01*
X165620703Y-102182101D01*
X165615145Y-102185208D01*
X165585082Y-102176088D01*
X165460600Y-102163828D01*
X165046350Y-102166900D01*
X164887600Y-102325650D01*
X164887600Y-103974900D01*
X164907600Y-103974900D01*
X164907600Y-104228900D01*
X164887600Y-104228900D01*
X164887600Y-105878150D01*
X165046350Y-106036900D01*
X165460600Y-106039972D01*
X165585082Y-106027712D01*
X165704780Y-105991402D01*
X165815094Y-105932437D01*
X165911785Y-105853085D01*
X165948201Y-105808712D01*
X168837541Y-105876167D01*
X168906106Y-105932437D01*
X169016420Y-105991402D01*
X169136118Y-106027712D01*
X169260600Y-106039972D01*
X170660600Y-106039972D01*
X170785082Y-106027712D01*
X170904780Y-105991402D01*
X171015094Y-105932437D01*
X171111785Y-105853085D01*
X171191137Y-105756394D01*
X171250102Y-105646080D01*
X171286412Y-105526382D01*
X171298672Y-105401900D01*
X171298672Y-105002803D01*
X171335701Y-105039832D01*
X171335700Y-107141360D01*
X171232282Y-107109988D01*
X171107800Y-107097728D01*
X169607800Y-107097728D01*
X169483318Y-107109988D01*
X169363620Y-107146298D01*
X169253306Y-107205263D01*
X169156615Y-107284615D01*
X169077263Y-107381306D01*
X169018298Y-107491620D01*
X168981988Y-107611318D01*
X168969728Y-107735800D01*
X168969728Y-108772927D01*
X168321604Y-108124803D01*
X168297801Y-108095799D01*
X168182076Y-108000826D01*
X168145872Y-107981474D01*
X168145872Y-107735800D01*
X168133612Y-107611318D01*
X168097302Y-107491620D01*
X168038337Y-107381306D01*
X167958985Y-107284615D01*
X167862294Y-107205263D01*
X167751980Y-107146298D01*
X167632282Y-107109988D01*
X167507800Y-107097728D01*
X167416531Y-107097728D01*
X167394445Y-107056408D01*
X167299222Y-106940378D01*
X167270147Y-106916517D01*
X167105484Y-106751854D01*
X167081622Y-106722778D01*
X166965592Y-106627555D01*
X166833215Y-106556798D01*
X166689578Y-106513226D01*
X166577626Y-106502200D01*
X166577623Y-106502200D01*
X166540200Y-106498514D01*
X166502777Y-106502200D01*
X161166772Y-106502200D01*
X161166772Y-106364200D01*
X161154512Y-106239718D01*
X161118202Y-106120020D01*
X161059237Y-106009706D01*
X160979885Y-105913015D01*
X160883194Y-105833663D01*
X160772880Y-105774698D01*
X160653182Y-105738388D01*
X160528700Y-105726128D01*
X159028700Y-105726128D01*
X158904218Y-105738388D01*
X158784520Y-105774698D01*
X158674206Y-105833663D01*
X158577515Y-105913015D01*
X158498163Y-106009706D01*
X158439198Y-106120020D01*
X158402888Y-106239718D01*
X158390628Y-106364200D01*
X158390628Y-108164200D01*
X158402888Y-108288682D01*
X158439198Y-108408380D01*
X158465721Y-108458000D01*
X157491679Y-108458000D01*
X157518202Y-108408380D01*
X157554512Y-108288682D01*
X157566772Y-108164200D01*
X157566772Y-106364200D01*
X157554512Y-106239718D01*
X157518202Y-106120020D01*
X157459237Y-106009706D01*
X157379885Y-105913015D01*
X157283194Y-105833663D01*
X157172880Y-105774698D01*
X157053182Y-105738388D01*
X156928700Y-105726128D01*
X156837431Y-105726128D01*
X156815345Y-105684808D01*
X156720122Y-105568778D01*
X156691052Y-105544921D01*
X156548031Y-105401900D01*
X163422528Y-105401900D01*
X163434788Y-105526382D01*
X163471098Y-105646080D01*
X163530063Y-105756394D01*
X163609415Y-105853085D01*
X163706106Y-105932437D01*
X163816420Y-105991402D01*
X163936118Y-106027712D01*
X164060600Y-106039972D01*
X164474850Y-106036900D01*
X164633600Y-105878150D01*
X164633600Y-104228900D01*
X163584350Y-104228900D01*
X163425600Y-104387650D01*
X163422528Y-105401900D01*
X156548031Y-105401900D01*
X155281784Y-104135654D01*
X155257922Y-104106578D01*
X155141892Y-104011355D01*
X155009515Y-103940598D01*
X154865878Y-103897026D01*
X154753926Y-103886000D01*
X154753923Y-103886000D01*
X154716500Y-103882314D01*
X154679077Y-103886000D01*
X153505972Y-103886000D01*
X153505972Y-103348000D01*
X153493712Y-103223518D01*
X153457402Y-103103820D01*
X153398437Y-102993506D01*
X153319085Y-102896815D01*
X153222394Y-102817463D01*
X153193279Y-102801900D01*
X163422528Y-102801900D01*
X163425600Y-103816150D01*
X163584350Y-103974900D01*
X164633600Y-103974900D01*
X164633600Y-102325650D01*
X164474850Y-102166900D01*
X164060600Y-102163828D01*
X163936118Y-102176088D01*
X163816420Y-102212398D01*
X163706106Y-102271363D01*
X163609415Y-102350715D01*
X163530063Y-102447406D01*
X163471098Y-102557720D01*
X163434788Y-102677418D01*
X163422528Y-102801900D01*
X153193279Y-102801900D01*
X153112080Y-102758498D01*
X152992382Y-102722188D01*
X152867900Y-102709928D01*
X151467900Y-102709928D01*
X151343418Y-102722188D01*
X151261672Y-102746985D01*
X151257353Y-102745638D01*
X151232596Y-102743004D01*
X147994096Y-102717604D01*
X147970732Y-102719585D01*
X147946773Y-102726351D01*
X147924594Y-102737661D01*
X147905047Y-102753081D01*
X147902821Y-102755689D01*
X147792382Y-102722188D01*
X147667900Y-102709928D01*
X147253650Y-102713000D01*
X147094900Y-102871750D01*
X147094900Y-104521000D01*
X147114900Y-104521000D01*
X147114900Y-104775000D01*
X147094900Y-104775000D01*
X147094900Y-106424250D01*
X147253650Y-106583000D01*
X147667900Y-106586072D01*
X147792382Y-106573812D01*
X147912080Y-106537502D01*
X148022394Y-106478537D01*
X148119085Y-106399185D01*
X148198437Y-106302494D01*
X148215760Y-106270086D01*
X150983153Y-106358289D01*
X151016715Y-106399185D01*
X151113406Y-106478537D01*
X151223720Y-106537502D01*
X151343418Y-106573812D01*
X151467900Y-106586072D01*
X152867900Y-106586072D01*
X152992382Y-106573812D01*
X153112080Y-106537502D01*
X153222394Y-106478537D01*
X153319085Y-106399185D01*
X153398437Y-106302494D01*
X153457402Y-106192180D01*
X153493712Y-106072482D01*
X153505972Y-105948000D01*
X153505972Y-105410000D01*
X154400870Y-105410000D01*
X154944326Y-105953456D01*
X154898163Y-106009706D01*
X154839198Y-106120020D01*
X154802888Y-106239718D01*
X154790628Y-106364200D01*
X154790628Y-108164200D01*
X154802888Y-108288682D01*
X154839198Y-108408380D01*
X154865721Y-108458000D01*
X139486387Y-108458000D01*
X139486387Y-105948000D01*
X145629828Y-105948000D01*
X145642088Y-106072482D01*
X145678398Y-106192180D01*
X145737363Y-106302494D01*
X145816715Y-106399185D01*
X145913406Y-106478537D01*
X146023720Y-106537502D01*
X146143418Y-106573812D01*
X146267900Y-106586072D01*
X146682150Y-106583000D01*
X146840900Y-106424250D01*
X146840900Y-104775000D01*
X145791650Y-104775000D01*
X145632900Y-104933750D01*
X145629828Y-105948000D01*
X139486387Y-105948000D01*
X139486387Y-103348000D01*
X145629828Y-103348000D01*
X145632900Y-104362250D01*
X145791650Y-104521000D01*
X146840900Y-104521000D01*
X146840900Y-102871750D01*
X146682150Y-102713000D01*
X146267900Y-102709928D01*
X146143418Y-102722188D01*
X146023720Y-102758498D01*
X145913406Y-102817463D01*
X145816715Y-102896815D01*
X145737363Y-102993506D01*
X145678398Y-103103820D01*
X145642088Y-103223518D01*
X145629828Y-103348000D01*
X139486387Y-103348000D01*
X139486387Y-100322710D01*
X144242565Y-100322710D01*
X145456922Y-101198585D01*
X147226154Y-101829119D01*
X149084401Y-102102378D01*
X150960252Y-102007861D01*
X152781620Y-101549199D01*
X154478511Y-100744019D01*
X155985713Y-99623263D01*
X156345765Y-99278588D01*
X157187321Y-98040200D01*
X149573688Y-92709077D01*
X144242565Y-100322710D01*
X139486387Y-100322710D01*
X139486387Y-97532462D01*
X139901606Y-97459248D01*
X140022067Y-97425558D01*
X140133642Y-97369015D01*
X140232041Y-97291790D01*
X140313484Y-97196853D01*
X140374841Y-97087851D01*
X140413753Y-96968974D01*
X140428726Y-96844790D01*
X140419184Y-96720070D01*
X139537052Y-91717247D01*
X139503362Y-91596786D01*
X139484387Y-91559343D01*
X139484387Y-90012112D01*
X140779897Y-88716602D01*
X140245581Y-90215854D01*
X139972322Y-92074101D01*
X140066839Y-93949952D01*
X140525501Y-95771320D01*
X141330681Y-97468211D01*
X142451437Y-98975413D01*
X142796112Y-99335465D01*
X144034500Y-100177021D01*
X149365623Y-92563388D01*
X142053273Y-87443226D01*
X142235650Y-87260850D01*
X148426238Y-91595546D01*
X149348751Y-92518059D01*
X149365798Y-92501012D01*
X149719377Y-92501012D01*
X157333010Y-97832135D01*
X158208885Y-96617778D01*
X158839419Y-94848546D01*
X159112678Y-92990299D01*
X159018161Y-91114448D01*
X158559499Y-89293080D01*
X157754319Y-87596189D01*
X156633563Y-86088987D01*
X156288888Y-85728935D01*
X155050500Y-84887379D01*
X149719377Y-92501012D01*
X149365798Y-92501012D01*
X149528359Y-92338451D01*
X149525281Y-92335373D01*
X154842435Y-84741690D01*
X153907287Y-84067199D01*
X155307519Y-84067199D01*
X158942587Y-87702268D01*
X158852959Y-87772610D01*
X158771516Y-87867547D01*
X158710159Y-87976549D01*
X158671247Y-88095426D01*
X158656274Y-88219610D01*
X158665816Y-88344330D01*
X159547948Y-93347153D01*
X159581638Y-93467614D01*
X159638181Y-93579189D01*
X159715406Y-93677588D01*
X159810343Y-93759031D01*
X159919345Y-93820388D01*
X160038222Y-93859300D01*
X160162406Y-93874273D01*
X160287126Y-93864731D01*
X161537832Y-93644198D01*
X161658293Y-93610508D01*
X161769868Y-93553965D01*
X161868267Y-93476740D01*
X161949710Y-93381803D01*
X162011067Y-93272801D01*
X162049979Y-93153924D01*
X162064952Y-93029740D01*
X162055410Y-92905020D01*
X161173278Y-87902197D01*
X161139588Y-87781736D01*
X161083045Y-87670161D01*
X161005820Y-87571762D01*
X160910883Y-87490319D01*
X160840783Y-87450860D01*
X156186124Y-82796202D01*
X156162321Y-82767198D01*
X156046596Y-82672225D01*
X155914567Y-82601653D01*
X155771306Y-82558196D01*
X155659653Y-82547199D01*
X155659642Y-82547199D01*
X155622320Y-82543523D01*
X155584998Y-82547199D01*
X145151821Y-82547199D01*
X145114498Y-82543523D01*
X145077175Y-82547199D01*
X145077166Y-82547199D01*
X144965513Y-82558196D01*
X144822252Y-82601653D01*
X144690222Y-82672225D01*
X144664076Y-82693683D01*
X144574498Y-82767198D01*
X144550700Y-82796196D01*
X138213385Y-89133512D01*
X138184387Y-89157310D01*
X138160589Y-89186308D01*
X138160588Y-89186309D01*
X138089413Y-89273035D01*
X138018841Y-89405065D01*
X137975385Y-89548326D01*
X137960711Y-89697311D01*
X137964388Y-89734643D01*
X137964388Y-91346635D01*
X137547168Y-91420202D01*
X137426707Y-91453892D01*
X137315132Y-91510435D01*
X137216733Y-91587660D01*
X137135290Y-91682597D01*
X137073933Y-91791599D01*
X137035021Y-91910476D01*
X137020048Y-92034660D01*
X137029590Y-92159380D01*
X137911722Y-97162203D01*
X137945412Y-97282664D01*
X137962387Y-97316161D01*
X137962388Y-107681928D01*
X137260900Y-107681928D01*
X137136418Y-107694188D01*
X137016720Y-107730498D01*
X136906406Y-107789463D01*
X136809715Y-107868815D01*
X136730363Y-107965506D01*
X136671398Y-108075820D01*
X136635088Y-108195518D01*
X136622828Y-108320000D01*
X135798972Y-108320000D01*
X135786712Y-108195518D01*
X135750402Y-108075820D01*
X135691437Y-107965506D01*
X135612085Y-107868815D01*
X135515394Y-107789463D01*
X135405080Y-107730498D01*
X135285382Y-107694188D01*
X135160900Y-107681928D01*
X133660900Y-107681928D01*
X133536418Y-107694188D01*
X133416720Y-107730498D01*
X133306406Y-107789463D01*
X133209715Y-107868815D01*
X133130363Y-107965506D01*
X133071398Y-108075820D01*
X133035088Y-108195518D01*
X133022828Y-108320000D01*
X133022828Y-108458000D01*
X130236631Y-108458000D01*
X128079500Y-106300870D01*
X128079500Y-105609996D01*
X128104020Y-105623102D01*
X128223718Y-105659412D01*
X128348200Y-105671672D01*
X129748200Y-105671672D01*
X129872682Y-105659412D01*
X129992380Y-105623102D01*
X130027200Y-105604490D01*
X133370734Y-105727414D01*
X133401038Y-105724885D01*
X133424812Y-105717494D01*
X133446686Y-105705606D01*
X133465822Y-105689679D01*
X133481482Y-105670325D01*
X133484093Y-105665358D01*
X133548200Y-105671672D01*
X133962450Y-105668600D01*
X134121200Y-105509850D01*
X134121200Y-103860600D01*
X134375200Y-103860600D01*
X134375200Y-105509850D01*
X134533950Y-105668600D01*
X134948200Y-105671672D01*
X135072682Y-105659412D01*
X135192380Y-105623102D01*
X135302694Y-105564137D01*
X135399385Y-105484785D01*
X135478737Y-105388094D01*
X135537702Y-105277780D01*
X135574012Y-105158082D01*
X135586272Y-105033600D01*
X135583200Y-104019350D01*
X135424450Y-103860600D01*
X134375200Y-103860600D01*
X134121200Y-103860600D01*
X134101200Y-103860600D01*
X134101200Y-103606600D01*
X134121200Y-103606600D01*
X134121200Y-101957350D01*
X134375200Y-101957350D01*
X134375200Y-103606600D01*
X135424450Y-103606600D01*
X135583200Y-103447850D01*
X135586272Y-102433600D01*
X135574012Y-102309118D01*
X135537702Y-102189420D01*
X135478737Y-102079106D01*
X135399385Y-101982415D01*
X135302694Y-101903063D01*
X135192380Y-101844098D01*
X135072682Y-101807788D01*
X134948200Y-101795528D01*
X134533950Y-101798600D01*
X134375200Y-101957350D01*
X134121200Y-101957350D01*
X133962450Y-101798600D01*
X133548200Y-101795528D01*
X133423718Y-101807788D01*
X133401888Y-101814410D01*
X133400806Y-101813805D01*
X133377122Y-101806130D01*
X133352396Y-101803223D01*
X129986896Y-101739723D01*
X129961920Y-101741723D01*
X129937972Y-101748530D01*
X129915812Y-101759878D01*
X129896292Y-101775331D01*
X129880162Y-101794295D01*
X129872643Y-101807784D01*
X129748200Y-101795528D01*
X128348200Y-101795528D01*
X128223718Y-101807788D01*
X128104020Y-101844098D01*
X127993706Y-101903063D01*
X127897015Y-101982415D01*
X127817663Y-102079106D01*
X127758698Y-102189420D01*
X127722388Y-102309118D01*
X127710128Y-102433600D01*
X127710128Y-103074869D01*
X127668807Y-103096955D01*
X127635507Y-103124284D01*
X127552778Y-103192178D01*
X127528916Y-103221254D01*
X126805149Y-103945021D01*
X126776079Y-103968878D01*
X126752222Y-103997948D01*
X126752221Y-103997949D01*
X126680855Y-104084908D01*
X126610099Y-104217285D01*
X126566527Y-104360922D01*
X126551814Y-104510300D01*
X118012294Y-104510300D01*
X118211660Y-104157900D01*
X118860342Y-103271142D01*
X119632322Y-102427883D01*
X120521357Y-101640216D01*
X122148570Y-100508415D01*
X123893623Y-99661098D01*
X126211828Y-98944471D01*
X127377970Y-98718484D01*
X128468926Y-98599578D01*
X128817814Y-98579805D01*
X128852768Y-98581218D01*
X128920975Y-98570495D01*
X128988299Y-98559990D01*
X128988678Y-98559851D01*
X128989080Y-98559788D01*
X129053092Y-98536255D01*
X129117866Y-98512527D01*
X129118218Y-98512313D01*
X129118592Y-98512175D01*
X129176894Y-98476540D01*
X129235683Y-98440698D01*
X129235979Y-98440426D01*
X129236327Y-98440213D01*
X129286522Y-98393919D01*
X129337224Y-98347266D01*
X129337467Y-98346933D01*
X129337760Y-98346663D01*
X129377686Y-98291841D01*
X129418585Y-98235818D01*
X129418757Y-98235448D01*
X129418994Y-98235122D01*
X129447509Y-98173453D01*
X129476641Y-98110640D01*
X129476738Y-98110241D01*
X129476906Y-98109877D01*
X129492889Y-98043636D01*
X129509160Y-97976540D01*
X129510613Y-97941590D01*
X129568615Y-97525750D01*
X129569070Y-97523817D01*
X129573357Y-97491753D01*
X129577846Y-97459570D01*
X129577927Y-97457577D01*
X129745712Y-96202674D01*
X130012838Y-94803493D01*
X130441975Y-93409415D01*
X131028557Y-92029540D01*
X131757352Y-90700793D01*
X133100203Y-88826575D01*
X134702642Y-87126161D01*
X136546205Y-85607817D01*
X138608839Y-84286410D01*
X140866316Y-83176473D01*
X143294253Y-82293497D01*
X145868241Y-81652137D01*
X148555317Y-81267552D01*
X151617428Y-81213559D01*
X154649686Y-81419570D01*
%TA.AperFunction,Conductor*%
D19*
G36*
X154649686Y-81419570D02*
G01*
X156785828Y-81819566D01*
X158850238Y-82385972D01*
X160817623Y-83108417D01*
X162673956Y-83979655D01*
X164406173Y-84992452D01*
X166001342Y-86138995D01*
X167446201Y-87410912D01*
X168727088Y-88799036D01*
X169868430Y-90368571D01*
X170769679Y-91910966D01*
X171009285Y-92329122D01*
X171042968Y-92388177D01*
X171066086Y-92414817D01*
X171086537Y-92443555D01*
X171111199Y-92466805D01*
X171133405Y-92492395D01*
X171161271Y-92514010D01*
X171186940Y-92538210D01*
X171215658Y-92556198D01*
X171242435Y-92576969D01*
X171273990Y-92592736D01*
X171303880Y-92611458D01*
X171335560Y-92623500D01*
X171365871Y-92638645D01*
X171399884Y-92647950D01*
X171432862Y-92660485D01*
X171500239Y-92671835D01*
X171684287Y-92703212D01*
X171688282Y-92704685D01*
X171752220Y-92714794D01*
X171782017Y-92719874D01*
X171786242Y-92720173D01*
X171824576Y-92726234D01*
X171854897Y-92725034D01*
X171885170Y-92727178D01*
X171923680Y-92722313D01*
X171927905Y-92722146D01*
X171957792Y-92718004D01*
X172022069Y-92709884D01*
X172026111Y-92708535D01*
X174865334Y-92315042D01*
X175925548Y-92286848D01*
X177061749Y-92347163D01*
X179435489Y-92701401D01*
X181611166Y-93345294D01*
X183571669Y-94252871D01*
X185286205Y-95396549D01*
X186724501Y-96747692D01*
X187870238Y-98293729D01*
X188308953Y-99105378D01*
X188669478Y-99967753D01*
X188942185Y-100863657D01*
X189119700Y-101776247D01*
X189179315Y-103106980D01*
X189054556Y-104455456D01*
X189003642Y-104722533D01*
X188993277Y-104758972D01*
X188987973Y-104824479D01*
X188982058Y-104889882D01*
X188982411Y-104893191D01*
X188982142Y-104896507D01*
X188989716Y-104961755D01*
X188996677Y-105027092D01*
X188997668Y-105030269D01*
X188998052Y-105033573D01*
X189018212Y-105096095D01*
X189037785Y-105158813D01*
X189039377Y-105161735D01*
X189040398Y-105164902D01*
X189072375Y-105222302D01*
X189103800Y-105279984D01*
X189105931Y-105282539D01*
X189107550Y-105285445D01*
X189150100Y-105335492D01*
X189192186Y-105385946D01*
X189194775Y-105388037D01*
X189196930Y-105390571D01*
X189248431Y-105431360D01*
X189299545Y-105472631D01*
X189302491Y-105474175D01*
X189305100Y-105476242D01*
X189363619Y-105506224D01*
X189421754Y-105536704D01*
X189424942Y-105537643D01*
X189427906Y-105539162D01*
X189491125Y-105557145D01*
X189554114Y-105575705D01*
X189591839Y-105579117D01*
X190257300Y-105699496D01*
X191234871Y-105929917D01*
X192159618Y-106250689D01*
X193035559Y-106657857D01*
X193848234Y-107141719D01*
X194584131Y-107691494D01*
X195229260Y-108297370D01*
X195771112Y-108946656D01*
X196201086Y-109631754D01*
X196539361Y-110392297D01*
X196755245Y-111153619D01*
X196855104Y-111910994D01*
X196844635Y-112660177D01*
X196728182Y-113398158D01*
X196509691Y-114119264D01*
X196191776Y-114818403D01*
X195777353Y-115489395D01*
X195270984Y-116123763D01*
X194675336Y-116714220D01*
X193995281Y-117253233D01*
X193234886Y-117732955D01*
X192569029Y-118061489D01*
X192569029Y-115710400D01*
X186856172Y-115710400D01*
X186856172Y-118915673D01*
X179383214Y-118964256D01*
X149046691Y-118902319D01*
X149046647Y-118902315D01*
X149011315Y-118902247D01*
X148977916Y-118902179D01*
X148977874Y-118902183D01*
X128074431Y-118862064D01*
X127169104Y-118696157D01*
X125622415Y-118346922D01*
X124199237Y-117891525D01*
X122888779Y-117330182D01*
X121693190Y-116665965D01*
X120615049Y-115902487D01*
X120146060Y-115482391D01*
X173653419Y-115482391D01*
X173750743Y-115756752D01*
X173899722Y-116006855D01*
X174094631Y-116223088D01*
X174327980Y-116397141D01*
X174590801Y-116522325D01*
X174738010Y-116566976D01*
X174967900Y-116445655D01*
X174967900Y-115252500D01*
X173774086Y-115252500D01*
X173653419Y-115482391D01*
X120146060Y-115482391D01*
X119654946Y-115042478D01*
X118815091Y-114086797D01*
X118094158Y-113032379D01*
X117562916Y-112039861D01*
X117196947Y-111101236D01*
X116970042Y-110143606D01*
X116860121Y-109090277D01*
X116873492Y-108048036D01*
X117017482Y-107032494D01*
X117289577Y-106043533D01*
X117687959Y-105083597D01*
X118012294Y-104510300D01*
X126551814Y-104510300D01*
X126555501Y-104547733D01*
X126555500Y-106579076D01*
X126551814Y-106616500D01*
X126555500Y-106653923D01*
X126555500Y-106653925D01*
X126566526Y-106765877D01*
X126610098Y-106909514D01*
X126615211Y-106919079D01*
X126680855Y-107041892D01*
X126692769Y-107056409D01*
X126776078Y-107157922D01*
X126805154Y-107181784D01*
X129355721Y-109732352D01*
X129379578Y-109761422D01*
X129495608Y-109856645D01*
X129627985Y-109927402D01*
X129771622Y-109970974D01*
X129883574Y-109982000D01*
X129883576Y-109982000D01*
X129920999Y-109985686D01*
X129958422Y-109982000D01*
X133022828Y-109982000D01*
X133022828Y-110120000D01*
X133035088Y-110244482D01*
X133071398Y-110364180D01*
X133130363Y-110474494D01*
X133209715Y-110571185D01*
X133306406Y-110650537D01*
X133416720Y-110709502D01*
X133536418Y-110745812D01*
X133660900Y-110758072D01*
X135160900Y-110758072D01*
X135285382Y-110745812D01*
X135405080Y-110709502D01*
X135515394Y-110650537D01*
X135612085Y-110571185D01*
X135691437Y-110474494D01*
X135750402Y-110364180D01*
X135786712Y-110244482D01*
X135798972Y-110120000D01*
X135798972Y-108320000D01*
X136622828Y-108320000D01*
X136622828Y-110120000D01*
X136635088Y-110244482D01*
X136671398Y-110364180D01*
X136730363Y-110474494D01*
X136809715Y-110571185D01*
X136906406Y-110650537D01*
X137016720Y-110709502D01*
X137136418Y-110745812D01*
X137260900Y-110758072D01*
X138760900Y-110758072D01*
X138885382Y-110745812D01*
X139005080Y-110709502D01*
X139115394Y-110650537D01*
X139212085Y-110571185D01*
X139291437Y-110474494D01*
X139350402Y-110364180D01*
X139386712Y-110244482D01*
X139398972Y-110120000D01*
X139398972Y-109982000D01*
X158939477Y-109982000D01*
X158976900Y-109985686D01*
X159014323Y-109982000D01*
X159014326Y-109982000D01*
X159126278Y-109970974D01*
X159269915Y-109927402D01*
X159402292Y-109856645D01*
X159518322Y-109761422D01*
X159542184Y-109732347D01*
X160291053Y-108983478D01*
X160320122Y-108959622D01*
X160415345Y-108843592D01*
X160437431Y-108802272D01*
X160528700Y-108802272D01*
X160653182Y-108790012D01*
X160772880Y-108753702D01*
X160883194Y-108694737D01*
X160979885Y-108615385D01*
X161059237Y-108518694D01*
X161118202Y-108408380D01*
X161154512Y-108288682D01*
X161166772Y-108164200D01*
X161166772Y-108026200D01*
X165369728Y-108026200D01*
X165369728Y-109535800D01*
X165381988Y-109660282D01*
X165418298Y-109779980D01*
X165477263Y-109890294D01*
X165556615Y-109986985D01*
X165653306Y-110066337D01*
X165763620Y-110125302D01*
X165883318Y-110161612D01*
X166007800Y-110173872D01*
X167507800Y-110173872D01*
X167632282Y-110161612D01*
X167751980Y-110125302D01*
X167862294Y-110066337D01*
X167958985Y-109986985D01*
X167992881Y-109945682D01*
X171143701Y-113096503D01*
X171167499Y-113125501D01*
X171283224Y-113220474D01*
X171415253Y-113291046D01*
X171558514Y-113334503D01*
X171670167Y-113345500D01*
X171670176Y-113345500D01*
X171707499Y-113349176D01*
X171744822Y-113345500D01*
X173606828Y-113345500D01*
X173606828Y-113435500D01*
X173619088Y-113559982D01*
X173655398Y-113679680D01*
X173714363Y-113789994D01*
X173793715Y-113886685D01*
X173890406Y-113966037D01*
X174000720Y-114025002D01*
X174076526Y-114047998D01*
X173899722Y-114244145D01*
X173750743Y-114494248D01*
X173653419Y-114768609D01*
X173774086Y-114998500D01*
X174967900Y-114998500D01*
X174967900Y-114978500D01*
X175221900Y-114978500D01*
X175221900Y-114998500D01*
X175241900Y-114998500D01*
X175241900Y-115252500D01*
X175221900Y-115252500D01*
X175221900Y-116445655D01*
X175451790Y-116566976D01*
X175598999Y-116522325D01*
X175861820Y-116397141D01*
X176095169Y-116223088D01*
X176290078Y-116006855D01*
X176359705Y-115889966D01*
X176481425Y-116072132D01*
X176688268Y-116278975D01*
X176931489Y-116441490D01*
X177201742Y-116553432D01*
X177488640Y-116610500D01*
X177781160Y-116610500D01*
X178068058Y-116553432D01*
X178338311Y-116441490D01*
X178581532Y-116278975D01*
X178788375Y-116072132D01*
X178904900Y-115897740D01*
X179021425Y-116072132D01*
X179228268Y-116278975D01*
X179471489Y-116441490D01*
X179741742Y-116553432D01*
X180028640Y-116610500D01*
X180321160Y-116610500D01*
X180608058Y-116553432D01*
X180878311Y-116441490D01*
X181121532Y-116278975D01*
X181328375Y-116072132D01*
X181490890Y-115828911D01*
X181602832Y-115558658D01*
X181659900Y-115271760D01*
X181659900Y-114979240D01*
X181602832Y-114692342D01*
X181490890Y-114422089D01*
X181328375Y-114178868D01*
X181121532Y-113972025D01*
X180947140Y-113855500D01*
X181121532Y-113738975D01*
X181328375Y-113532132D01*
X181490890Y-113288911D01*
X181602832Y-113018658D01*
X181659900Y-112731760D01*
X181659900Y-112439240D01*
X181602832Y-112152342D01*
X181490890Y-111882089D01*
X181328375Y-111638868D01*
X181121532Y-111432025D01*
X180878311Y-111269510D01*
X180608058Y-111157568D01*
X180321160Y-111100500D01*
X180028640Y-111100500D01*
X179741742Y-111157568D01*
X179471489Y-111269510D01*
X179228268Y-111432025D01*
X179021425Y-111638868D01*
X178904900Y-111813260D01*
X178788375Y-111638868D01*
X178581532Y-111432025D01*
X178338311Y-111269510D01*
X178068058Y-111157568D01*
X177781160Y-111100500D01*
X177488640Y-111100500D01*
X177201742Y-111157568D01*
X176931489Y-111269510D01*
X176688268Y-111432025D01*
X176556413Y-111563880D01*
X176534402Y-111491320D01*
X176475437Y-111381006D01*
X176396085Y-111284315D01*
X176299394Y-111204963D01*
X176189080Y-111145998D01*
X176069382Y-111109688D01*
X175944900Y-111097428D01*
X174244900Y-111097428D01*
X174120418Y-111109688D01*
X174000720Y-111145998D01*
X173890406Y-111204963D01*
X173793715Y-111284315D01*
X173714363Y-111381006D01*
X173655398Y-111491320D01*
X173619088Y-111611018D01*
X173606828Y-111735500D01*
X173606828Y-111825500D01*
X172022302Y-111825500D01*
X170370674Y-110173872D01*
X171107800Y-110173872D01*
X171232282Y-110161612D01*
X171351980Y-110125302D01*
X171462294Y-110066337D01*
X171558985Y-109986985D01*
X171638337Y-109890294D01*
X171697302Y-109779980D01*
X171733612Y-109660282D01*
X171745872Y-109535800D01*
X171745872Y-109294531D01*
X171787192Y-109272445D01*
X171903222Y-109177222D01*
X171927084Y-109148147D01*
X172610053Y-108465178D01*
X172639122Y-108441322D01*
X172666472Y-108407996D01*
X172734345Y-108325293D01*
X172795155Y-108211524D01*
X172805102Y-108192915D01*
X172848674Y-108049278D01*
X172859700Y-107937326D01*
X172859700Y-107937323D01*
X172863386Y-107899900D01*
X172859700Y-107862477D01*
X172859700Y-104761622D01*
X172863386Y-104724199D01*
X172854984Y-104638893D01*
X172848674Y-104574822D01*
X172805102Y-104431185D01*
X172734345Y-104298808D01*
X172639122Y-104182778D01*
X172610051Y-104158920D01*
X172040683Y-103589553D01*
X172016822Y-103560478D01*
X171900792Y-103465255D01*
X171768415Y-103394498D01*
X171624778Y-103350926D01*
X171512826Y-103339900D01*
X171512823Y-103339900D01*
X171475400Y-103336214D01*
X171437977Y-103339900D01*
X171298672Y-103339900D01*
X171298672Y-102801900D01*
X171286412Y-102677418D01*
X171250102Y-102557720D01*
X171191137Y-102447406D01*
X171111785Y-102350715D01*
X171015094Y-102271363D01*
X170904780Y-102212398D01*
X170785082Y-102176088D01*
X170660600Y-102163828D01*
X169260600Y-102163828D01*
X169136118Y-102176088D01*
X169016420Y-102212398D01*
X168977164Y-102233381D01*
X165673878Y-102171522D01*
X165644387Y-102174428D01*
X165620703Y-102182101D01*
X165615145Y-102185208D01*
X165585082Y-102176088D01*
X165460600Y-102163828D01*
X165046350Y-102166900D01*
X164887600Y-102325650D01*
X164887600Y-103974900D01*
X164907600Y-103974900D01*
X164907600Y-104228900D01*
X164887600Y-104228900D01*
X164887600Y-105878150D01*
X165046350Y-106036900D01*
X165460600Y-106039972D01*
X165585082Y-106027712D01*
X165704780Y-105991402D01*
X165815094Y-105932437D01*
X165911785Y-105853085D01*
X165948201Y-105808712D01*
X168837541Y-105876167D01*
X168906106Y-105932437D01*
X169016420Y-105991402D01*
X169136118Y-106027712D01*
X169260600Y-106039972D01*
X170660600Y-106039972D01*
X170785082Y-106027712D01*
X170904780Y-105991402D01*
X171015094Y-105932437D01*
X171111785Y-105853085D01*
X171191137Y-105756394D01*
X171250102Y-105646080D01*
X171286412Y-105526382D01*
X171298672Y-105401900D01*
X171298672Y-105002803D01*
X171335701Y-105039832D01*
X171335700Y-107141360D01*
X171232282Y-107109988D01*
X171107800Y-107097728D01*
X169607800Y-107097728D01*
X169483318Y-107109988D01*
X169363620Y-107146298D01*
X169253306Y-107205263D01*
X169156615Y-107284615D01*
X169077263Y-107381306D01*
X169018298Y-107491620D01*
X168981988Y-107611318D01*
X168969728Y-107735800D01*
X168969728Y-108772927D01*
X168321604Y-108124803D01*
X168297801Y-108095799D01*
X168182076Y-108000826D01*
X168145872Y-107981474D01*
X168145872Y-107735800D01*
X168133612Y-107611318D01*
X168097302Y-107491620D01*
X168038337Y-107381306D01*
X167958985Y-107284615D01*
X167862294Y-107205263D01*
X167751980Y-107146298D01*
X167632282Y-107109988D01*
X167507800Y-107097728D01*
X167416531Y-107097728D01*
X167394445Y-107056408D01*
X167299222Y-106940378D01*
X167270147Y-106916517D01*
X167105484Y-106751854D01*
X167081622Y-106722778D01*
X166965592Y-106627555D01*
X166833215Y-106556798D01*
X166689578Y-106513226D01*
X166577626Y-106502200D01*
X166577623Y-106502200D01*
X166540200Y-106498514D01*
X166502777Y-106502200D01*
X161166772Y-106502200D01*
X161166772Y-106364200D01*
X161154512Y-106239718D01*
X161118202Y-106120020D01*
X161059237Y-106009706D01*
X160979885Y-105913015D01*
X160883194Y-105833663D01*
X160772880Y-105774698D01*
X160653182Y-105738388D01*
X160528700Y-105726128D01*
X159028700Y-105726128D01*
X158904218Y-105738388D01*
X158784520Y-105774698D01*
X158674206Y-105833663D01*
X158577515Y-105913015D01*
X158498163Y-106009706D01*
X158439198Y-106120020D01*
X158402888Y-106239718D01*
X158390628Y-106364200D01*
X158390628Y-108164200D01*
X158402888Y-108288682D01*
X158439198Y-108408380D01*
X158465721Y-108458000D01*
X157491679Y-108458000D01*
X157518202Y-108408380D01*
X157554512Y-108288682D01*
X157566772Y-108164200D01*
X157566772Y-106364200D01*
X157554512Y-106239718D01*
X157518202Y-106120020D01*
X157459237Y-106009706D01*
X157379885Y-105913015D01*
X157283194Y-105833663D01*
X157172880Y-105774698D01*
X157053182Y-105738388D01*
X156928700Y-105726128D01*
X156837431Y-105726128D01*
X156815345Y-105684808D01*
X156720122Y-105568778D01*
X156691052Y-105544921D01*
X156548031Y-105401900D01*
X163422528Y-105401900D01*
X163434788Y-105526382D01*
X163471098Y-105646080D01*
X163530063Y-105756394D01*
X163609415Y-105853085D01*
X163706106Y-105932437D01*
X163816420Y-105991402D01*
X163936118Y-106027712D01*
X164060600Y-106039972D01*
X164474850Y-106036900D01*
X164633600Y-105878150D01*
X164633600Y-104228900D01*
X163584350Y-104228900D01*
X163425600Y-104387650D01*
X163422528Y-105401900D01*
X156548031Y-105401900D01*
X155281784Y-104135654D01*
X155257922Y-104106578D01*
X155141892Y-104011355D01*
X155009515Y-103940598D01*
X154865878Y-103897026D01*
X154753926Y-103886000D01*
X154753923Y-103886000D01*
X154716500Y-103882314D01*
X154679077Y-103886000D01*
X153505972Y-103886000D01*
X153505972Y-103348000D01*
X153493712Y-103223518D01*
X153457402Y-103103820D01*
X153398437Y-102993506D01*
X153319085Y-102896815D01*
X153222394Y-102817463D01*
X153193279Y-102801900D01*
X163422528Y-102801900D01*
X163425600Y-103816150D01*
X163584350Y-103974900D01*
X164633600Y-103974900D01*
X164633600Y-102325650D01*
X164474850Y-102166900D01*
X164060600Y-102163828D01*
X163936118Y-102176088D01*
X163816420Y-102212398D01*
X163706106Y-102271363D01*
X163609415Y-102350715D01*
X163530063Y-102447406D01*
X163471098Y-102557720D01*
X163434788Y-102677418D01*
X163422528Y-102801900D01*
X153193279Y-102801900D01*
X153112080Y-102758498D01*
X152992382Y-102722188D01*
X152867900Y-102709928D01*
X151467900Y-102709928D01*
X151343418Y-102722188D01*
X151261672Y-102746985D01*
X151257353Y-102745638D01*
X151232596Y-102743004D01*
X147994096Y-102717604D01*
X147970732Y-102719585D01*
X147946773Y-102726351D01*
X147924594Y-102737661D01*
X147905047Y-102753081D01*
X147902821Y-102755689D01*
X147792382Y-102722188D01*
X147667900Y-102709928D01*
X147253650Y-102713000D01*
X147094900Y-102871750D01*
X147094900Y-104521000D01*
X147114900Y-104521000D01*
X147114900Y-104775000D01*
X147094900Y-104775000D01*
X147094900Y-106424250D01*
X147253650Y-106583000D01*
X147667900Y-106586072D01*
X147792382Y-106573812D01*
X147912080Y-106537502D01*
X148022394Y-106478537D01*
X148119085Y-106399185D01*
X148198437Y-106302494D01*
X148215760Y-106270086D01*
X150983153Y-106358289D01*
X151016715Y-106399185D01*
X151113406Y-106478537D01*
X151223720Y-106537502D01*
X151343418Y-106573812D01*
X151467900Y-106586072D01*
X152867900Y-106586072D01*
X152992382Y-106573812D01*
X153112080Y-106537502D01*
X153222394Y-106478537D01*
X153319085Y-106399185D01*
X153398437Y-106302494D01*
X153457402Y-106192180D01*
X153493712Y-106072482D01*
X153505972Y-105948000D01*
X153505972Y-105410000D01*
X154400870Y-105410000D01*
X154944326Y-105953456D01*
X154898163Y-106009706D01*
X154839198Y-106120020D01*
X154802888Y-106239718D01*
X154790628Y-106364200D01*
X154790628Y-108164200D01*
X154802888Y-108288682D01*
X154839198Y-108408380D01*
X154865721Y-108458000D01*
X139486387Y-108458000D01*
X139486387Y-105948000D01*
X145629828Y-105948000D01*
X145642088Y-106072482D01*
X145678398Y-106192180D01*
X145737363Y-106302494D01*
X145816715Y-106399185D01*
X145913406Y-106478537D01*
X146023720Y-106537502D01*
X146143418Y-106573812D01*
X146267900Y-106586072D01*
X146682150Y-106583000D01*
X146840900Y-106424250D01*
X146840900Y-104775000D01*
X145791650Y-104775000D01*
X145632900Y-104933750D01*
X145629828Y-105948000D01*
X139486387Y-105948000D01*
X139486387Y-103348000D01*
X145629828Y-103348000D01*
X145632900Y-104362250D01*
X145791650Y-104521000D01*
X146840900Y-104521000D01*
X146840900Y-102871750D01*
X146682150Y-102713000D01*
X146267900Y-102709928D01*
X146143418Y-102722188D01*
X146023720Y-102758498D01*
X145913406Y-102817463D01*
X145816715Y-102896815D01*
X145737363Y-102993506D01*
X145678398Y-103103820D01*
X145642088Y-103223518D01*
X145629828Y-103348000D01*
X139486387Y-103348000D01*
X139486387Y-100322710D01*
X144242565Y-100322710D01*
X145456922Y-101198585D01*
X147226154Y-101829119D01*
X149084401Y-102102378D01*
X150960252Y-102007861D01*
X152781620Y-101549199D01*
X154478511Y-100744019D01*
X155985713Y-99623263D01*
X156345765Y-99278588D01*
X157187321Y-98040200D01*
X149573688Y-92709077D01*
X144242565Y-100322710D01*
X139486387Y-100322710D01*
X139486387Y-97532462D01*
X139901606Y-97459248D01*
X140022067Y-97425558D01*
X140133642Y-97369015D01*
X140232041Y-97291790D01*
X140313484Y-97196853D01*
X140374841Y-97087851D01*
X140413753Y-96968974D01*
X140428726Y-96844790D01*
X140419184Y-96720070D01*
X139537052Y-91717247D01*
X139503362Y-91596786D01*
X139484387Y-91559343D01*
X139484387Y-90012112D01*
X140779897Y-88716602D01*
X140245581Y-90215854D01*
X139972322Y-92074101D01*
X140066839Y-93949952D01*
X140525501Y-95771320D01*
X141330681Y-97468211D01*
X142451437Y-98975413D01*
X142796112Y-99335465D01*
X144034500Y-100177021D01*
X149365623Y-92563388D01*
X142053273Y-87443226D01*
X142235650Y-87260850D01*
X148426238Y-91595546D01*
X149348751Y-92518059D01*
X149365798Y-92501012D01*
X149719377Y-92501012D01*
X157333010Y-97832135D01*
X158208885Y-96617778D01*
X158839419Y-94848546D01*
X159112678Y-92990299D01*
X159018161Y-91114448D01*
X158559499Y-89293080D01*
X157754319Y-87596189D01*
X156633563Y-86088987D01*
X156288888Y-85728935D01*
X155050500Y-84887379D01*
X149719377Y-92501012D01*
X149365798Y-92501012D01*
X149528359Y-92338451D01*
X149525281Y-92335373D01*
X154842435Y-84741690D01*
X153907287Y-84067199D01*
X155307519Y-84067199D01*
X158942587Y-87702268D01*
X158852959Y-87772610D01*
X158771516Y-87867547D01*
X158710159Y-87976549D01*
X158671247Y-88095426D01*
X158656274Y-88219610D01*
X158665816Y-88344330D01*
X159547948Y-93347153D01*
X159581638Y-93467614D01*
X159638181Y-93579189D01*
X159715406Y-93677588D01*
X159810343Y-93759031D01*
X159919345Y-93820388D01*
X160038222Y-93859300D01*
X160162406Y-93874273D01*
X160287126Y-93864731D01*
X161537832Y-93644198D01*
X161658293Y-93610508D01*
X161769868Y-93553965D01*
X161868267Y-93476740D01*
X161949710Y-93381803D01*
X162011067Y-93272801D01*
X162049979Y-93153924D01*
X162064952Y-93029740D01*
X162055410Y-92905020D01*
X161173278Y-87902197D01*
X161139588Y-87781736D01*
X161083045Y-87670161D01*
X161005820Y-87571762D01*
X160910883Y-87490319D01*
X160840783Y-87450860D01*
X156186124Y-82796202D01*
X156162321Y-82767198D01*
X156046596Y-82672225D01*
X155914567Y-82601653D01*
X155771306Y-82558196D01*
X155659653Y-82547199D01*
X155659642Y-82547199D01*
X155622320Y-82543523D01*
X155584998Y-82547199D01*
X145151821Y-82547199D01*
X145114498Y-82543523D01*
X145077175Y-82547199D01*
X145077166Y-82547199D01*
X144965513Y-82558196D01*
X144822252Y-82601653D01*
X144690222Y-82672225D01*
X144664076Y-82693683D01*
X144574498Y-82767198D01*
X144550700Y-82796196D01*
X138213385Y-89133512D01*
X138184387Y-89157310D01*
X138160589Y-89186308D01*
X138160588Y-89186309D01*
X138089413Y-89273035D01*
X138018841Y-89405065D01*
X137975385Y-89548326D01*
X137960711Y-89697311D01*
X137964388Y-89734643D01*
X137964388Y-91346635D01*
X137547168Y-91420202D01*
X137426707Y-91453892D01*
X137315132Y-91510435D01*
X137216733Y-91587660D01*
X137135290Y-91682597D01*
X137073933Y-91791599D01*
X137035021Y-91910476D01*
X137020048Y-92034660D01*
X137029590Y-92159380D01*
X137911722Y-97162203D01*
X137945412Y-97282664D01*
X137962387Y-97316161D01*
X137962388Y-107681928D01*
X137260900Y-107681928D01*
X137136418Y-107694188D01*
X137016720Y-107730498D01*
X136906406Y-107789463D01*
X136809715Y-107868815D01*
X136730363Y-107965506D01*
X136671398Y-108075820D01*
X136635088Y-108195518D01*
X136622828Y-108320000D01*
X135798972Y-108320000D01*
X135786712Y-108195518D01*
X135750402Y-108075820D01*
X135691437Y-107965506D01*
X135612085Y-107868815D01*
X135515394Y-107789463D01*
X135405080Y-107730498D01*
X135285382Y-107694188D01*
X135160900Y-107681928D01*
X133660900Y-107681928D01*
X133536418Y-107694188D01*
X133416720Y-107730498D01*
X133306406Y-107789463D01*
X133209715Y-107868815D01*
X133130363Y-107965506D01*
X133071398Y-108075820D01*
X133035088Y-108195518D01*
X133022828Y-108320000D01*
X133022828Y-108458000D01*
X130236631Y-108458000D01*
X128079500Y-106300870D01*
X128079500Y-105609996D01*
X128104020Y-105623102D01*
X128223718Y-105659412D01*
X128348200Y-105671672D01*
X129748200Y-105671672D01*
X129872682Y-105659412D01*
X129992380Y-105623102D01*
X130027200Y-105604490D01*
X133370734Y-105727414D01*
X133401038Y-105724885D01*
X133424812Y-105717494D01*
X133446686Y-105705606D01*
X133465822Y-105689679D01*
X133481482Y-105670325D01*
X133484093Y-105665358D01*
X133548200Y-105671672D01*
X133962450Y-105668600D01*
X134121200Y-105509850D01*
X134121200Y-103860600D01*
X134375200Y-103860600D01*
X134375200Y-105509850D01*
X134533950Y-105668600D01*
X134948200Y-105671672D01*
X135072682Y-105659412D01*
X135192380Y-105623102D01*
X135302694Y-105564137D01*
X135399385Y-105484785D01*
X135478737Y-105388094D01*
X135537702Y-105277780D01*
X135574012Y-105158082D01*
X135586272Y-105033600D01*
X135583200Y-104019350D01*
X135424450Y-103860600D01*
X134375200Y-103860600D01*
X134121200Y-103860600D01*
X134101200Y-103860600D01*
X134101200Y-103606600D01*
X134121200Y-103606600D01*
X134121200Y-101957350D01*
X134375200Y-101957350D01*
X134375200Y-103606600D01*
X135424450Y-103606600D01*
X135583200Y-103447850D01*
X135586272Y-102433600D01*
X135574012Y-102309118D01*
X135537702Y-102189420D01*
X135478737Y-102079106D01*
X135399385Y-101982415D01*
X135302694Y-101903063D01*
X135192380Y-101844098D01*
X135072682Y-101807788D01*
X134948200Y-101795528D01*
X134533950Y-101798600D01*
X134375200Y-101957350D01*
X134121200Y-101957350D01*
X133962450Y-101798600D01*
X133548200Y-101795528D01*
X133423718Y-101807788D01*
X133401888Y-101814410D01*
X133400806Y-101813805D01*
X133377122Y-101806130D01*
X133352396Y-101803223D01*
X129986896Y-101739723D01*
X129961920Y-101741723D01*
X129937972Y-101748530D01*
X129915812Y-101759878D01*
X129896292Y-101775331D01*
X129880162Y-101794295D01*
X129872643Y-101807784D01*
X129748200Y-101795528D01*
X128348200Y-101795528D01*
X128223718Y-101807788D01*
X128104020Y-101844098D01*
X127993706Y-101903063D01*
X127897015Y-101982415D01*
X127817663Y-102079106D01*
X127758698Y-102189420D01*
X127722388Y-102309118D01*
X127710128Y-102433600D01*
X127710128Y-103074869D01*
X127668807Y-103096955D01*
X127635507Y-103124284D01*
X127552778Y-103192178D01*
X127528916Y-103221254D01*
X126805149Y-103945021D01*
X126776079Y-103968878D01*
X126752222Y-103997948D01*
X126752221Y-103997949D01*
X126680855Y-104084908D01*
X126610099Y-104217285D01*
X126566527Y-104360922D01*
X126551814Y-104510300D01*
X118012294Y-104510300D01*
X118211660Y-104157900D01*
X118860342Y-103271142D01*
X119632322Y-102427883D01*
X120521357Y-101640216D01*
X122148570Y-100508415D01*
X123893623Y-99661098D01*
X126211828Y-98944471D01*
X127377970Y-98718484D01*
X128468926Y-98599578D01*
X128817814Y-98579805D01*
X128852768Y-98581218D01*
X128920975Y-98570495D01*
X128988299Y-98559990D01*
X128988678Y-98559851D01*
X128989080Y-98559788D01*
X129053092Y-98536255D01*
X129117866Y-98512527D01*
X129118218Y-98512313D01*
X129118592Y-98512175D01*
X129176894Y-98476540D01*
X129235683Y-98440698D01*
X129235979Y-98440426D01*
X129236327Y-98440213D01*
X129286522Y-98393919D01*
X129337224Y-98347266D01*
X129337467Y-98346933D01*
X129337760Y-98346663D01*
X129377686Y-98291841D01*
X129418585Y-98235818D01*
X129418757Y-98235448D01*
X129418994Y-98235122D01*
X129447509Y-98173453D01*
X129476641Y-98110640D01*
X129476738Y-98110241D01*
X129476906Y-98109877D01*
X129492889Y-98043636D01*
X129509160Y-97976540D01*
X129510613Y-97941590D01*
X129568615Y-97525750D01*
X129569070Y-97523817D01*
X129573357Y-97491753D01*
X129577846Y-97459570D01*
X129577927Y-97457577D01*
X129745712Y-96202674D01*
X130012838Y-94803493D01*
X130441975Y-93409415D01*
X131028557Y-92029540D01*
X131757352Y-90700793D01*
X133100203Y-88826575D01*
X134702642Y-87126161D01*
X136546205Y-85607817D01*
X138608839Y-84286410D01*
X140866316Y-83176473D01*
X143294253Y-82293497D01*
X145868241Y-81652137D01*
X148555317Y-81267552D01*
X151617428Y-81213559D01*
X154649686Y-81419570D01*
G37*
%TD.AperFunction*%
M02*
