%TF.GenerationSoftware,KiCad,Pcbnew,(5.1.12-1-10_14)*%
%TF.CreationDate,2022-04-05T15:16:14-04:00*%
%TF.ProjectId,sr-71,73722d37-312e-46b6-9963-61645f706362,rev?*%
%TF.SameCoordinates,Original*%
%TF.FileFunction,Legend,Top*%
%TF.FilePolarity,Positive*%
%FSLAX46Y46*%
G04 Gerber Fmt 4.6, Leading zero omitted, Abs format (unit mm)*
G04 Created by KiCad (PCBNEW (5.1.12-1-10_14)) date 2022-04-05 15:16:14*
%MOMM*%
%LPD*%
G01*
G04 APERTURE LIST*
%ADD10C,0.120000*%
%ADD11C,0.200000*%
%ADD12C,0.250000*%
%ADD13C,0.150000*%
%ADD14C,0.300000*%
G04 APERTURE END LIST*
D10*
X171408983Y-112268000D02*
G75*
G03*
X171408983Y-112268000I-136783J0D01*
G01*
D11*
X172148500Y-112242600D02*
X171475400Y-112242600D01*
D10*
X168070200Y-109575600D02*
G75*
G03*
X168070200Y-109575600I-100000J0D01*
G01*
X168986200Y-110299500D02*
X168109900Y-109677200D01*
X168986200Y-110959900D02*
X168986200Y-110312200D01*
D11*
X168465500Y-110655100D02*
X169354500Y-111340900D01*
D10*
X168449883Y-110515400D02*
G75*
G03*
X168449883Y-110515400I-136783J0D01*
G01*
X166797800Y-109181900D02*
G75*
G03*
X166797800Y-109181900I-250000J0D01*
G01*
X168411783Y-111785400D02*
G75*
G03*
X168411783Y-111785400I-136783J0D01*
G01*
X169808500Y-112420400D02*
G75*
G03*
X169808500Y-112420400I-200000J0D01*
G01*
X169580183Y-113639600D02*
G75*
G03*
X169580183Y-113639600I-136783J0D01*
G01*
X171091483Y-114477800D02*
G75*
G03*
X171091483Y-114477800I-136783J0D01*
G01*
D11*
X170180000Y-111810800D02*
X168465500Y-111810800D01*
X170599100Y-111366300D02*
X170180000Y-111810800D01*
X172516800Y-114427000D02*
X171170600Y-114427000D01*
X171056300Y-113563400D02*
X169799000Y-112610900D01*
X171500800Y-113601500D02*
X169608500Y-113601500D01*
X173418500Y-115125500D02*
X171500800Y-113601500D01*
X175044100Y-115125500D02*
X173418500Y-115125500D01*
X168135300Y-110401100D02*
X166712900Y-109410500D01*
X171234100Y-111353600D02*
X169392600Y-111353600D01*
X172847000Y-112725200D02*
X171234100Y-111353600D01*
X175069500Y-112725200D02*
X172847000Y-112725200D01*
X175107600Y-115074700D02*
X176796700Y-113919000D01*
X179108100Y-113880900D02*
X177571400Y-112636300D01*
D12*
X173350200Y-113944400D02*
G75*
G03*
X173350200Y-113944400I-300000J0D01*
G01*
D11*
X187944100Y-110883700D02*
G75*
G03*
X187944100Y-110883700I-200000J0D01*
G01*
X186944000Y-111480600D02*
X187566300Y-110947200D01*
X185635900Y-111480600D02*
X186944000Y-111480600D01*
D10*
X184711000Y-112814100D02*
G75*
G03*
X184711000Y-112814100I-180000J0D01*
G01*
X186026683Y-112102900D02*
G75*
G03*
X186026683Y-112102900I-136783J0D01*
G01*
X185823483Y-113525300D02*
G75*
G03*
X185823483Y-113525300I-136783J0D01*
G01*
X184401083Y-114757200D02*
G75*
G03*
X184401083Y-114757200I-136783J0D01*
G01*
D11*
X182918100Y-112801400D02*
X184277000Y-112801400D01*
X181952900Y-111836200D02*
X182918100Y-112801400D01*
D13*
X184175400Y-112102900D02*
X185712100Y-112102900D01*
X183565800Y-111493300D02*
X184175400Y-112102900D01*
D11*
X184404000Y-113525300D02*
X185496200Y-113525300D01*
X182803800Y-114744500D02*
X184404000Y-113525300D01*
X182778400Y-114769900D02*
X184061100Y-114769900D01*
X182194200Y-115176300D02*
X182778400Y-114769900D01*
X180174900Y-115176300D02*
X182194200Y-115176300D01*
X173456600Y-113919000D02*
X182118000Y-113919000D01*
D10*
X188642883Y-109905800D02*
G75*
G03*
X188642883Y-109905800I-136783J0D01*
G01*
X187223400Y-109893100D02*
X188315600Y-109893100D01*
X186690000Y-110464600D02*
X187223400Y-109893100D01*
D11*
X185547000Y-111480600D02*
X186093100Y-111023400D01*
D10*
X182471200Y-113919000D02*
G75*
G03*
X182471200Y-113919000I-150000J0D01*
G01*
D14*
X186684928Y-110667800D02*
G75*
G03*
X186684928Y-110667800I-426728J0D01*
G01*
D11*
X183286400Y-111480600D02*
X185585100Y-111480600D01*
X182702200Y-111810800D02*
X183286400Y-111480600D01*
X181610000Y-111810800D02*
X182702200Y-111810800D01*
X180187600Y-112649000D02*
X181610000Y-111810800D01*
D13*
G36*
X151635026Y-80512640D02*
G01*
X137262778Y-90453633D01*
X137262778Y-90454163D01*
X137306701Y-90489305D01*
X137318078Y-90585422D01*
X137256584Y-90981781D01*
X136532081Y-94189854D01*
X136435447Y-94600165D01*
X135712491Y-97700751D01*
X135644795Y-97979802D01*
X135941935Y-98128630D01*
X136326409Y-98357042D01*
X136666957Y-98632992D01*
X136960994Y-98952870D01*
X137206974Y-99312537D01*
X137402311Y-99708896D01*
X137544937Y-100137293D01*
X137632271Y-100594631D01*
X137662243Y-101076255D01*
X137662772Y-101401816D01*
X138036909Y-101401816D01*
X138579511Y-101352723D01*
X139505553Y-101197693D01*
X140822786Y-101061785D01*
X144078918Y-100981687D01*
X146563519Y-100957399D01*
X147118009Y-100410145D01*
X147641490Y-99915602D01*
X148069372Y-99573503D01*
X148477097Y-99331142D01*
X148938567Y-99136838D01*
X149269815Y-99050539D01*
X149710614Y-99047893D01*
X150172084Y-99096986D01*
X150591697Y-99268034D01*
X150962217Y-99465956D01*
X151296047Y-99692299D01*
X152091864Y-100413701D01*
X152651002Y-100967672D01*
X154552179Y-100968201D01*
X156572212Y-100997139D01*
X158352982Y-101076204D01*
X159763230Y-101198161D01*
X160674285Y-101354739D01*
X161193117Y-101401766D01*
X161542968Y-101402295D01*
X161542968Y-101044695D01*
X161571906Y-100589427D01*
X161657173Y-100150176D01*
X161794632Y-99733148D01*
X161981700Y-99344022D01*
X162214245Y-98989523D01*
X162489163Y-98674814D01*
X162802837Y-98406614D01*
X163152688Y-98190090D01*
X163420888Y-98031959D01*
X163520625Y-97924472D01*
X163226067Y-96597938D01*
X162860717Y-95034209D01*
X162725325Y-94455433D01*
X162585797Y-93852368D01*
X162337750Y-92766647D01*
X161945010Y-90942986D01*
X161898502Y-90641713D01*
X161915541Y-90491334D01*
X162006492Y-90475327D01*
X162181675Y-90576612D01*
X162386830Y-90720273D01*
X162851401Y-92117603D01*
X164014637Y-95637287D01*
X164713819Y-97760155D01*
X165166506Y-97817514D01*
X165882741Y-97962209D01*
X166626881Y-98213357D01*
X167375157Y-98561139D01*
X168103277Y-98996770D01*
X168741997Y-99498034D01*
X169345062Y-100109364D01*
X169876295Y-100790460D01*
X170300041Y-101501011D01*
X170461789Y-101822438D01*
X172961379Y-101855511D01*
X177278427Y-101955245D01*
X178453550Y-102020359D01*
X178849390Y-102091157D01*
X178774976Y-102154202D01*
X178598242Y-102217762D01*
X177963658Y-102338169D01*
X177615358Y-102401730D01*
X177325454Y-102495265D01*
X177045366Y-102638926D01*
X176727556Y-102852350D01*
X176531704Y-102994460D01*
X174509088Y-102994460D01*
X172486471Y-102994460D01*
X172586724Y-103121584D01*
X172686459Y-103382551D01*
X172654420Y-103497271D01*
X172562954Y-103617678D01*
X172230156Y-103860039D01*
X171742849Y-104077598D01*
X171157355Y-104239862D01*
X170740842Y-104323578D01*
X170633355Y-104751976D01*
X170501064Y-105185025D01*
X170331564Y-105550377D01*
X170102638Y-105885755D01*
X169792062Y-106229920D01*
X169382268Y-106601990D01*
X168971957Y-106840221D01*
X168604022Y-106992666D01*
X168229883Y-107102219D01*
X167852130Y-107167849D01*
X167473857Y-107190074D01*
X167097654Y-107169410D01*
X166726616Y-107105331D01*
X166362814Y-106997844D01*
X166008830Y-106846949D01*
X165618673Y-106615955D01*
X165255906Y-106330700D01*
X164946880Y-106014956D01*
X164718987Y-105692496D01*
X164499361Y-105466671D01*
X163937122Y-105103903D01*
X162856053Y-104493602D01*
X162457109Y-104294133D01*
X161867482Y-104366997D01*
X159677433Y-104676022D01*
X158144713Y-104976261D01*
X157971080Y-105038274D01*
X157938007Y-105111137D01*
X158329196Y-105718335D01*
X158931226Y-106485730D01*
X159206663Y-106822145D01*
X159378745Y-107120833D01*
X159467111Y-107429342D01*
X159492431Y-107794176D01*
X159467111Y-108211723D01*
X159335854Y-108559505D01*
X159030445Y-109022010D01*
X158559156Y-109487097D01*
X157945757Y-109935648D01*
X157214536Y-110346993D01*
X155355735Y-111154697D01*
X152714553Y-112209411D01*
X149940044Y-113332339D01*
X149747809Y-113441377D01*
X149723520Y-114211356D01*
X149689413Y-114855762D01*
X149660475Y-114964800D01*
X149614483Y-114997354D01*
X149547821Y-114990131D01*
X149506480Y-114949306D01*
X149470822Y-114163308D01*
X149457910Y-113441387D01*
X149265159Y-113332868D01*
X146683921Y-112279702D01*
X144295953Y-111340225D01*
X143307382Y-110929396D01*
X142252150Y-110466375D01*
X141424811Y-110034877D01*
X140790740Y-109613197D01*
X140314283Y-109181699D01*
X140045049Y-108852004D01*
X139857464Y-108529543D01*
X139743776Y-108197780D01*
X139696751Y-107839147D01*
X139706038Y-107462942D01*
X139821277Y-107137380D01*
X140011447Y-106814403D01*
X140279131Y-106474371D01*
X140897698Y-105679071D01*
X141280621Y-105078591D01*
X140930254Y-104953535D01*
X140018164Y-104768015D01*
X137338742Y-104366491D01*
X136749113Y-104294659D01*
X136352757Y-104490515D01*
X135185902Y-105153005D01*
X134727532Y-105463065D01*
X134502740Y-105664085D01*
X134263477Y-106001016D01*
X133949284Y-106326062D01*
X133585998Y-106615450D01*
X133200492Y-106843859D01*
X132844442Y-107001471D01*
X132517846Y-107099656D01*
X132164381Y-107150299D01*
X131728747Y-107165275D01*
X131155139Y-107143579D01*
X130700905Y-107027824D01*
X130292142Y-106863494D01*
X129915423Y-106650586D01*
X129574356Y-106393755D01*
X129273083Y-106096615D01*
X129014702Y-105763819D01*
X128802829Y-105398467D01*
X128641081Y-105005209D01*
X128533594Y-104587662D01*
X128482434Y-104312744D01*
X128123284Y-104252281D01*
X127685583Y-104150480D01*
X127263388Y-104000102D01*
X126897519Y-103818716D01*
X126627250Y-103623380D01*
X126549735Y-103514342D01*
X126522348Y-103386702D01*
X126545076Y-103252344D01*
X126618455Y-103121084D01*
X126718709Y-102993963D01*
X124696609Y-102993963D01*
X122675026Y-102993963D01*
X122414060Y-102807410D01*
X122120023Y-102613105D01*
X121858538Y-102483399D01*
X121578968Y-102397616D01*
X121232221Y-102336637D01*
X120724243Y-102247753D01*
X120444155Y-102158871D01*
X120396096Y-102118046D01*
X120411600Y-102080322D01*
X120643627Y-102021928D01*
X122721534Y-101929943D01*
X126337851Y-101853463D01*
X128737704Y-101821940D01*
X128971284Y-101379073D01*
X129244651Y-100908818D01*
X129556778Y-100464400D01*
X129905594Y-100046338D01*
X130290584Y-99655664D01*
X130710194Y-99293929D01*
X131163915Y-98961649D01*
X131650706Y-98660376D01*
X132169022Y-98390109D01*
X133122451Y-98013904D01*
X133578238Y-97894532D01*
X134030405Y-97818051D01*
X134474307Y-97763272D01*
X134571457Y-97496106D01*
X136665388Y-91179695D01*
X136821966Y-90780238D01*
X137004902Y-90588518D01*
X137162514Y-90485164D01*
X137262778Y-90453633D01*
X151635026Y-80512640D01*
X187645230Y-108639099D01*
X189242033Y-107961623D01*
X190838836Y-107283628D01*
X190892062Y-107283099D01*
X190945288Y-107282570D01*
X190945288Y-107785897D01*
X190945288Y-108289227D01*
X190341707Y-108935700D01*
X189738643Y-109582172D01*
X189738643Y-109748569D01*
X189738643Y-109914968D01*
X190318969Y-109473661D01*
X190899296Y-109031828D01*
X190852271Y-109154301D01*
X190805244Y-109276258D01*
X189295775Y-110938688D01*
X187786825Y-112600602D01*
X187628178Y-112577875D01*
X187470047Y-112555147D01*
X186971887Y-113156145D01*
X186473727Y-113757141D01*
X186473727Y-113948861D01*
X186473727Y-114140580D01*
X185693928Y-114650628D01*
X184913614Y-115161189D01*
X184315203Y-115408720D01*
X183716271Y-115656767D01*
X182564921Y-116047440D01*
X181414605Y-116438632D01*
X180469958Y-116438632D01*
X179526348Y-116438632D01*
X179481906Y-116510461D01*
X179436948Y-116582809D01*
X179069526Y-116769877D01*
X178702107Y-116956946D01*
X178347089Y-117051513D01*
X177992590Y-117146083D01*
X177459806Y-117141956D01*
X177460336Y-117142485D01*
X176927552Y-117137828D01*
X176856755Y-117111476D01*
X176785958Y-117085626D01*
X176500189Y-117012246D01*
X176214934Y-116939383D01*
X175799972Y-116689267D01*
X175384494Y-116439153D01*
X174480156Y-116439153D01*
X173576337Y-116439153D01*
X172448238Y-116056233D01*
X171320658Y-115673309D01*
X170668503Y-115391673D01*
X170016863Y-115110553D01*
X169426202Y-114738483D01*
X168836057Y-114365894D01*
X168676894Y-114219135D01*
X168516697Y-114072373D01*
X168516697Y-113915277D01*
X168516697Y-113757665D01*
X168018537Y-113156666D01*
X167520374Y-112555671D01*
X167362246Y-112579430D01*
X167203599Y-112603190D01*
X165683795Y-110919056D01*
X164163473Y-109234922D01*
X164130918Y-109136220D01*
X164097327Y-109037001D01*
X164675071Y-109476251D01*
X165251778Y-109915500D01*
X165251778Y-109719128D01*
X165251778Y-109521725D01*
X164667835Y-108934681D01*
X164083891Y-108347121D01*
X164056504Y-107815369D01*
X164030152Y-107283102D01*
X164029623Y-107280985D01*
X164029617Y-107281030D01*
X164101449Y-107281030D01*
X164173278Y-107281030D01*
X166362809Y-108211723D01*
X168552339Y-109141898D01*
X169473213Y-109527922D01*
X170395122Y-109913428D01*
X170710347Y-109993009D01*
X171026608Y-110073106D01*
X171279304Y-110298418D01*
X171533037Y-110524761D01*
X172100959Y-110617262D01*
X172668885Y-110709763D01*
X173147924Y-110695819D01*
X173626965Y-110682378D01*
X173971648Y-111004839D01*
X174316329Y-111326784D01*
X174530787Y-111326784D01*
X174745242Y-111326784D01*
X174834126Y-111433753D01*
X174921460Y-111539689D01*
X175214981Y-111251852D01*
X175507470Y-110964533D01*
X176004598Y-110723204D01*
X176501726Y-110482906D01*
X177004019Y-110399192D01*
X177506831Y-110317026D01*
X178009126Y-110401259D01*
X178510387Y-110486007D01*
X178925349Y-110683413D01*
X179340311Y-110880816D01*
X179720134Y-111181573D01*
X180099954Y-111483362D01*
X180177987Y-111405331D01*
X180256018Y-111327300D01*
X180484944Y-111327300D01*
X180713872Y-111327300D01*
X181000675Y-111025509D01*
X181288512Y-110723720D01*
X181804759Y-110716999D01*
X182322041Y-110709776D01*
X182889448Y-110617275D01*
X183457373Y-110525806D01*
X183711104Y-110299463D01*
X183964318Y-110073638D01*
X184299698Y-109989406D01*
X184635079Y-109904657D01*
X186140412Y-109272136D01*
X187645230Y-108639099D01*
X151635026Y-80512640D01*
X148499301Y-80567932D01*
X145733577Y-80963773D01*
X143089294Y-81622649D01*
X140591257Y-82531120D01*
X138264265Y-83675236D01*
X136133131Y-85040528D01*
X134223170Y-86613558D01*
X132558155Y-88380374D01*
X131163407Y-90327028D01*
X130397563Y-91723324D01*
X129783131Y-93168714D01*
X129331996Y-94634256D01*
X129053977Y-96090499D01*
X128879309Y-97396879D01*
X128812132Y-97878503D01*
X128411121Y-97901231D01*
X127273206Y-98025254D01*
X126041240Y-98263998D01*
X123635702Y-99007623D01*
X121793437Y-99902142D01*
X120087599Y-101088632D01*
X119140370Y-101927858D01*
X118317680Y-102826510D01*
X117622117Y-103777357D01*
X117057292Y-104775746D01*
X116625794Y-105815477D01*
X116330204Y-106889830D01*
X116173626Y-107994154D01*
X116159154Y-109122252D01*
X116278010Y-110261199D01*
X116526572Y-111310232D01*
X116925514Y-112333423D01*
X117494471Y-113396408D01*
X118260834Y-114517270D01*
X119156385Y-115536329D01*
X120177513Y-116451001D01*
X121319563Y-117259737D01*
X122579951Y-117959955D01*
X123954027Y-118548549D01*
X125438173Y-119023455D01*
X127028774Y-119382606D01*
X128010108Y-119562441D01*
X149010894Y-119602747D01*
X179384751Y-119664760D01*
X189559324Y-119598614D01*
X190662099Y-119423947D01*
X191703377Y-119151611D01*
X192676962Y-118789360D01*
X193577683Y-118344944D01*
X194400889Y-117825597D01*
X195140894Y-117239068D01*
X195793050Y-116592596D01*
X196351157Y-115893413D01*
X196811077Y-115148757D01*
X197166610Y-114366892D01*
X197412591Y-113555055D01*
X197544367Y-112719964D01*
X197556246Y-111869887D01*
X197443074Y-111011541D01*
X197199678Y-110153196D01*
X196820890Y-109301568D01*
X196339266Y-108534173D01*
X195739818Y-107815872D01*
X195034953Y-107153895D01*
X194238102Y-106558583D01*
X193363220Y-106037684D01*
X192422708Y-105600503D01*
X191430521Y-105256338D01*
X190400093Y-105013458D01*
X189685924Y-104884268D01*
X189748972Y-104553538D01*
X189881264Y-103123651D01*
X189817184Y-101693247D01*
X189622879Y-100694342D01*
X189329359Y-99730060D01*
X188941784Y-98802984D01*
X188462745Y-97916733D01*
X187249898Y-96280142D01*
X185723376Y-94846119D01*
X183915219Y-93639992D01*
X181859012Y-92688111D01*
X179587316Y-92015802D01*
X177132170Y-91649415D01*
X175934827Y-91585854D01*
X174807763Y-91615826D01*
X171865824Y-92023555D01*
X171617261Y-91981179D01*
X171375932Y-91560015D01*
X170455574Y-89984919D01*
X169269600Y-88354009D01*
X167936349Y-86909138D01*
X166438249Y-85590354D01*
X164788220Y-84404380D01*
X163000216Y-83358966D01*
X161087670Y-82461346D01*
X159064023Y-81718240D01*
X156943221Y-81136363D01*
X154738189Y-80723468D01*
X151635026Y-80512640D01*
G37*
M02*
