%TF.GenerationSoftware,KiCad,Pcbnew,(6.0.4-0)*%
%TF.CreationDate,2022-07-01T13:06:00-04:00*%
%TF.ProjectId,sr-71,73722d37-312e-46b6-9963-61645f706362,rev?*%
%TF.SameCoordinates,Original*%
%TF.FileFunction,Legend,Bot*%
%TF.FilePolarity,Positive*%
%FSLAX46Y46*%
G04 Gerber Fmt 4.6, Leading zero omitted, Abs format (unit mm)*
G04 Created by KiCad (PCBNEW (6.0.4-0)) date 2022-07-01 13:06:00*
%MOMM*%
%LPD*%
G01*
G04 APERTURE LIST*
%ADD10C,0.300000*%
%ADD11C,0.150000*%
%ADD12C,0.008405*%
%ADD13C,0.400000*%
%ADD14C,0.120000*%
%ADD15C,0.100000*%
G04 APERTURE END LIST*
D10*
X166670000Y-116995533D02*
X165717619Y-116995533D01*
X166860476Y-117566961D02*
X166193809Y-115566961D01*
X165527142Y-117566961D01*
X164098571Y-117471723D02*
X164289047Y-117566961D01*
X164670000Y-117566961D01*
X164860476Y-117471723D01*
X164955714Y-117281247D01*
X164955714Y-116519342D01*
X164860476Y-116328866D01*
X164670000Y-116233628D01*
X164289047Y-116233628D01*
X164098571Y-116328866D01*
X164003333Y-116519342D01*
X164003333Y-116709819D01*
X164955714Y-116900295D01*
X163146190Y-117566961D02*
X163146190Y-116233628D01*
X163146190Y-116614580D02*
X163050952Y-116424104D01*
X162955714Y-116328866D01*
X162765238Y-116233628D01*
X162574761Y-116233628D01*
X161622380Y-117566961D02*
X161812857Y-117471723D01*
X161908095Y-117376485D01*
X162003333Y-117186009D01*
X162003333Y-116614580D01*
X161908095Y-116424104D01*
X161812857Y-116328866D01*
X161622380Y-116233628D01*
X161336666Y-116233628D01*
X161146190Y-116328866D01*
X161050952Y-116424104D01*
X160955714Y-116614580D01*
X160955714Y-117186009D01*
X161050952Y-117376485D01*
X161146190Y-117471723D01*
X161336666Y-117566961D01*
X161622380Y-117566961D01*
X160193809Y-117471723D02*
X160003333Y-117566961D01*
X159622380Y-117566961D01*
X159431904Y-117471723D01*
X159336666Y-117281247D01*
X159336666Y-117186009D01*
X159431904Y-116995533D01*
X159622380Y-116900295D01*
X159908095Y-116900295D01*
X160098571Y-116805057D01*
X160193809Y-116614580D01*
X160193809Y-116519342D01*
X160098571Y-116328866D01*
X159908095Y-116233628D01*
X159622380Y-116233628D01*
X159431904Y-116328866D01*
X158479523Y-116233628D02*
X158479523Y-118233628D01*
X158479523Y-116328866D02*
X158289047Y-116233628D01*
X157908095Y-116233628D01*
X157717619Y-116328866D01*
X157622380Y-116424104D01*
X157527142Y-116614580D01*
X157527142Y-117186009D01*
X157622380Y-117376485D01*
X157717619Y-117471723D01*
X157908095Y-117566961D01*
X158289047Y-117566961D01*
X158479523Y-117471723D01*
X155812857Y-117566961D02*
X155812857Y-116519342D01*
X155908095Y-116328866D01*
X156098571Y-116233628D01*
X156479523Y-116233628D01*
X156670000Y-116328866D01*
X155812857Y-117471723D02*
X156003333Y-117566961D01*
X156479523Y-117566961D01*
X156670000Y-117471723D01*
X156765238Y-117281247D01*
X156765238Y-117090771D01*
X156670000Y-116900295D01*
X156479523Y-116805057D01*
X156003333Y-116805057D01*
X155812857Y-116709819D01*
X154003333Y-117471723D02*
X154193809Y-117566961D01*
X154574761Y-117566961D01*
X154765238Y-117471723D01*
X154860476Y-117376485D01*
X154955714Y-117186009D01*
X154955714Y-116614580D01*
X154860476Y-116424104D01*
X154765238Y-116328866D01*
X154574761Y-116233628D01*
X154193809Y-116233628D01*
X154003333Y-116328866D01*
X152384285Y-117471723D02*
X152574761Y-117566961D01*
X152955714Y-117566961D01*
X153146190Y-117471723D01*
X153241428Y-117281247D01*
X153241428Y-116519342D01*
X153146190Y-116328866D01*
X152955714Y-116233628D01*
X152574761Y-116233628D01*
X152384285Y-116328866D01*
X152289047Y-116519342D01*
X152289047Y-116709819D01*
X153241428Y-116900295D01*
X150193809Y-115566961D02*
X149527142Y-117566961D01*
X148860476Y-115566961D01*
X148193809Y-117566961D02*
X148193809Y-116233628D01*
X148193809Y-115566961D02*
X148289047Y-115662200D01*
X148193809Y-115757438D01*
X148098571Y-115662200D01*
X148193809Y-115566961D01*
X148193809Y-115757438D01*
X146955714Y-117566961D02*
X147146190Y-117471723D01*
X147241428Y-117281247D01*
X147241428Y-115566961D01*
X145908095Y-117566961D02*
X146098571Y-117471723D01*
X146193809Y-117281247D01*
X146193809Y-115566961D01*
X144289047Y-117566961D02*
X144289047Y-116519342D01*
X144384285Y-116328866D01*
X144574761Y-116233628D01*
X144955714Y-116233628D01*
X145146190Y-116328866D01*
X144289047Y-117471723D02*
X144479523Y-117566961D01*
X144955714Y-117566961D01*
X145146190Y-117471723D01*
X145241428Y-117281247D01*
X145241428Y-117090771D01*
X145146190Y-116900295D01*
X144955714Y-116805057D01*
X144479523Y-116805057D01*
X144289047Y-116709819D01*
X142479523Y-116233628D02*
X142479523Y-117852676D01*
X142574761Y-118043152D01*
X142670000Y-118138390D01*
X142860476Y-118233628D01*
X143146190Y-118233628D01*
X143336666Y-118138390D01*
X142479523Y-117471723D02*
X142670000Y-117566961D01*
X143050952Y-117566961D01*
X143241428Y-117471723D01*
X143336666Y-117376485D01*
X143431904Y-117186009D01*
X143431904Y-116614580D01*
X143336666Y-116424104D01*
X143241428Y-116328866D01*
X143050952Y-116233628D01*
X142670000Y-116233628D01*
X142479523Y-116328866D01*
X140765238Y-117471723D02*
X140955714Y-117566961D01*
X141336666Y-117566961D01*
X141527142Y-117471723D01*
X141622380Y-117281247D01*
X141622380Y-116519342D01*
X141527142Y-116328866D01*
X141336666Y-116233628D01*
X140955714Y-116233628D01*
X140765238Y-116328866D01*
X140670000Y-116519342D01*
X140670000Y-116709819D01*
X141622380Y-116900295D01*
D11*
X190137660Y-110045556D02*
X189994802Y-110093175D01*
X189756707Y-110093175D01*
X189661469Y-110045556D01*
X189613850Y-109997937D01*
X189566231Y-109902699D01*
X189566231Y-109807461D01*
X189613850Y-109712223D01*
X189661469Y-109664604D01*
X189756707Y-109616985D01*
X189947183Y-109569366D01*
X190042422Y-109521747D01*
X190090041Y-109474128D01*
X190137660Y-109378890D01*
X190137660Y-109283652D01*
X190090041Y-109188414D01*
X190042422Y-109140795D01*
X189947183Y-109093175D01*
X189709088Y-109093175D01*
X189566231Y-109140795D01*
X189185279Y-109807461D02*
X188709088Y-109807461D01*
X189280517Y-110093175D02*
X188947183Y-109093175D01*
X188613850Y-110093175D01*
X188090041Y-109093175D02*
X187899564Y-109093175D01*
X187804326Y-109140795D01*
X187709088Y-109236033D01*
X187661469Y-109426509D01*
X187661469Y-109759842D01*
X187709088Y-109950318D01*
X187804326Y-110045556D01*
X187899564Y-110093175D01*
X188090041Y-110093175D01*
X188185279Y-110045556D01*
X188280517Y-109950318D01*
X188328136Y-109759842D01*
X188328136Y-109426509D01*
X188280517Y-109236033D01*
X188185279Y-109140795D01*
X188090041Y-109093175D01*
X186613850Y-109093175D02*
X186280517Y-110093175D01*
X185947183Y-109093175D01*
X184328136Y-110093175D02*
X184899564Y-110093175D01*
X184613850Y-110093175D02*
X184613850Y-109093175D01*
X184709088Y-109236033D01*
X184804326Y-109331271D01*
X184899564Y-109378890D01*
X183899564Y-109997937D02*
X183851945Y-110045556D01*
X183899564Y-110093175D01*
X183947183Y-110045556D01*
X183899564Y-109997937D01*
X183899564Y-110093175D01*
X182994802Y-109093175D02*
X183185279Y-109093175D01*
X183280517Y-109140795D01*
X183328136Y-109188414D01*
X183423374Y-109331271D01*
X183470993Y-109521747D01*
X183470993Y-109902699D01*
X183423374Y-109997937D01*
X183375755Y-110045556D01*
X183280517Y-110093175D01*
X183090041Y-110093175D01*
X182994802Y-110045556D01*
X182947183Y-109997937D01*
X182899564Y-109902699D01*
X182899564Y-109664604D01*
X182947183Y-109569366D01*
X182994802Y-109521747D01*
X183090041Y-109474128D01*
X183280517Y-109474128D01*
X183375755Y-109521747D01*
X183423374Y-109569366D01*
X183470993Y-109664604D01*
X182423374Y-110093175D02*
X182232898Y-110093175D01*
X182137660Y-110045556D01*
X182090041Y-109997937D01*
X181994802Y-109855080D01*
X181947183Y-109664604D01*
X181947183Y-109283652D01*
X181994802Y-109188414D01*
X182042422Y-109140795D01*
X182137660Y-109093175D01*
X182328136Y-109093175D01*
X182423374Y-109140795D01*
X182470993Y-109188414D01*
X182518612Y-109283652D01*
X182518612Y-109521747D01*
X182470993Y-109616985D01*
X182423374Y-109664604D01*
X182328136Y-109712223D01*
X182137660Y-109712223D01*
X182042422Y-109664604D01*
X181994802Y-109616985D01*
X181947183Y-109521747D01*
X137322961Y-118155980D02*
X137322961Y-117155980D01*
X137084866Y-117155980D01*
X136942009Y-117203600D01*
X136846771Y-117298838D01*
X136799152Y-117394076D01*
X136751533Y-117584552D01*
X136751533Y-117727409D01*
X136799152Y-117917885D01*
X136846771Y-118013123D01*
X136942009Y-118108361D01*
X137084866Y-118155980D01*
X137322961Y-118155980D01*
X136322961Y-117632171D02*
X135989628Y-117632171D01*
X135846771Y-118155980D02*
X136322961Y-118155980D01*
X136322961Y-117155980D01*
X135846771Y-117155980D01*
X135084866Y-117632171D02*
X135418200Y-117632171D01*
X135418200Y-118155980D02*
X135418200Y-117155980D01*
X134942009Y-117155980D01*
X133227723Y-118060742D02*
X133275342Y-118108361D01*
X133418200Y-118155980D01*
X133513438Y-118155980D01*
X133656295Y-118108361D01*
X133751533Y-118013123D01*
X133799152Y-117917885D01*
X133846771Y-117727409D01*
X133846771Y-117584552D01*
X133799152Y-117394076D01*
X133751533Y-117298838D01*
X133656295Y-117203600D01*
X133513438Y-117155980D01*
X133418200Y-117155980D01*
X133275342Y-117203600D01*
X133227723Y-117251219D01*
X132608676Y-117155980D02*
X132418200Y-117155980D01*
X132322961Y-117203600D01*
X132227723Y-117298838D01*
X132180104Y-117489314D01*
X132180104Y-117822647D01*
X132227723Y-118013123D01*
X132322961Y-118108361D01*
X132418200Y-118155980D01*
X132608676Y-118155980D01*
X132703914Y-118108361D01*
X132799152Y-118013123D01*
X132846771Y-117822647D01*
X132846771Y-117489314D01*
X132799152Y-117298838D01*
X132703914Y-117203600D01*
X132608676Y-117155980D01*
X131751533Y-118155980D02*
X131751533Y-117155980D01*
X131180104Y-118155980D01*
X131180104Y-117155980D01*
X130037247Y-117155980D02*
X129418200Y-117155980D01*
X129751533Y-117536933D01*
X129608676Y-117536933D01*
X129513438Y-117584552D01*
X129465819Y-117632171D01*
X129418200Y-117727409D01*
X129418200Y-117965504D01*
X129465819Y-118060742D01*
X129513438Y-118108361D01*
X129608676Y-118155980D01*
X129894390Y-118155980D01*
X129989628Y-118108361D01*
X130037247Y-118060742D01*
X128799152Y-117155980D02*
X128703914Y-117155980D01*
X128608676Y-117203600D01*
X128561057Y-117251219D01*
X128513438Y-117346457D01*
X128465819Y-117536933D01*
X128465819Y-117775028D01*
X128513438Y-117965504D01*
X128561057Y-118060742D01*
X128608676Y-118108361D01*
X128703914Y-118155980D01*
X128799152Y-118155980D01*
X128894390Y-118108361D01*
X128942009Y-118060742D01*
X128989628Y-117965504D01*
X129037247Y-117775028D01*
X129037247Y-117536933D01*
X128989628Y-117346457D01*
X128942009Y-117251219D01*
X128894390Y-117203600D01*
X128799152Y-117155980D01*
X149182303Y-111009855D02*
X149182303Y-111724141D01*
X149229922Y-111866998D01*
X149325160Y-111962236D01*
X149468017Y-112009855D01*
X149563256Y-112009855D01*
X148229922Y-112009855D02*
X148706113Y-112009855D01*
X148706113Y-111009855D01*
X147325160Y-111914617D02*
X147372779Y-111962236D01*
X147515636Y-112009855D01*
X147610875Y-112009855D01*
X147753732Y-111962236D01*
X147848970Y-111866998D01*
X147896589Y-111771760D01*
X147944208Y-111581284D01*
X147944208Y-111438427D01*
X147896589Y-111247951D01*
X147848970Y-111152713D01*
X147753732Y-111057475D01*
X147610875Y-111009855D01*
X147515636Y-111009855D01*
X147372779Y-111057475D01*
X147325160Y-111105094D01*
X146610875Y-111009855D02*
X146610875Y-111724141D01*
X146658494Y-111866998D01*
X146753732Y-111962236D01*
X146896589Y-112009855D01*
X146991827Y-112009855D01*
X145658494Y-112009855D02*
X146134684Y-112009855D01*
X146134684Y-111009855D01*
X144753732Y-111914617D02*
X144801351Y-111962236D01*
X144944208Y-112009855D01*
X145039446Y-112009855D01*
X145182303Y-111962236D01*
X145277541Y-111866998D01*
X145325160Y-111771760D01*
X145372779Y-111581284D01*
X145372779Y-111438427D01*
X145325160Y-111247951D01*
X145277541Y-111152713D01*
X145182303Y-111057475D01*
X145039446Y-111009855D01*
X144944208Y-111009855D01*
X144801351Y-111057475D01*
X144753732Y-111105094D01*
X144039446Y-111009855D02*
X144039446Y-111724141D01*
X144087065Y-111866998D01*
X144182303Y-111962236D01*
X144325160Y-112009855D01*
X144420398Y-112009855D01*
X143087065Y-112009855D02*
X143563256Y-112009855D01*
X143563256Y-111009855D01*
X142182303Y-111914617D02*
X142229922Y-111962236D01*
X142372779Y-112009855D01*
X142468017Y-112009855D01*
X142610875Y-111962236D01*
X142706113Y-111866998D01*
X142753732Y-111771760D01*
X142801351Y-111581284D01*
X142801351Y-111438427D01*
X142753732Y-111247951D01*
X142706113Y-111152713D01*
X142610875Y-111057475D01*
X142468017Y-111009855D01*
X142372779Y-111009855D01*
X142229922Y-111057475D01*
X142182303Y-111105094D01*
X141468017Y-111009855D02*
X141468017Y-111724141D01*
X141515636Y-111866998D01*
X141610875Y-111962236D01*
X141753732Y-112009855D01*
X141848970Y-112009855D01*
X140515636Y-112009855D02*
X140991827Y-112009855D01*
X140991827Y-111009855D01*
X139610875Y-111914617D02*
X139658494Y-111962236D01*
X139801351Y-112009855D01*
X139896589Y-112009855D01*
X140039446Y-111962236D01*
X140134684Y-111866998D01*
X140182303Y-111771760D01*
X140229922Y-111581284D01*
X140229922Y-111438427D01*
X140182303Y-111247951D01*
X140134684Y-111152713D01*
X140039446Y-111057475D01*
X139896589Y-111009855D01*
X139801351Y-111009855D01*
X139658494Y-111057475D01*
X139610875Y-111105094D01*
X180068532Y-113210951D02*
X180782818Y-113210951D01*
X180925675Y-113163332D01*
X181020913Y-113068094D01*
X181068532Y-112925237D01*
X181068532Y-112829999D01*
X181068532Y-114210951D02*
X181068532Y-113639523D01*
X181068532Y-113925237D02*
X180068532Y-113925237D01*
X180211390Y-113829999D01*
X180306628Y-113734761D01*
X180354247Y-113639523D01*
X135346743Y-114527820D02*
X135680077Y-114051630D01*
X135918172Y-114527820D02*
X135918172Y-113527820D01*
X135537219Y-113527820D01*
X135441981Y-113575440D01*
X135394362Y-113623059D01*
X135346743Y-113718297D01*
X135346743Y-113861154D01*
X135394362Y-113956392D01*
X135441981Y-114004011D01*
X135537219Y-114051630D01*
X135918172Y-114051630D01*
X134394362Y-114527820D02*
X134965791Y-114527820D01*
X134680077Y-114527820D02*
X134680077Y-113527820D01*
X134775315Y-113670678D01*
X134870553Y-113765916D01*
X134965791Y-113813535D01*
X154475410Y-115029799D02*
X154808744Y-114553609D01*
X155046839Y-115029799D02*
X155046839Y-114029799D01*
X154665886Y-114029799D01*
X154570648Y-114077419D01*
X154523029Y-114125038D01*
X154475410Y-114220276D01*
X154475410Y-114363133D01*
X154523029Y-114458371D01*
X154570648Y-114505990D01*
X154665886Y-114553609D01*
X155046839Y-114553609D01*
X154094458Y-114125038D02*
X154046839Y-114077419D01*
X153951601Y-114029799D01*
X153713505Y-114029799D01*
X153618267Y-114077419D01*
X153570648Y-114125038D01*
X153523029Y-114220276D01*
X153523029Y-114315514D01*
X153570648Y-114458371D01*
X154142077Y-115029799D01*
X153523029Y-115029799D01*
X174113780Y-114288934D02*
X174447114Y-113812744D01*
X174685209Y-114288934D02*
X174685209Y-113288934D01*
X174304256Y-113288934D01*
X174209018Y-113336554D01*
X174161399Y-113384173D01*
X174113780Y-113479411D01*
X174113780Y-113622268D01*
X174161399Y-113717506D01*
X174209018Y-113765125D01*
X174304256Y-113812744D01*
X174685209Y-113812744D01*
X173780447Y-113288934D02*
X173161399Y-113288934D01*
X173494733Y-113669887D01*
X173351875Y-113669887D01*
X173256637Y-113717506D01*
X173209018Y-113765125D01*
X173161399Y-113860363D01*
X173161399Y-114098458D01*
X173209018Y-114193696D01*
X173256637Y-114241315D01*
X173351875Y-114288934D01*
X173637590Y-114288934D01*
X173732828Y-114241315D01*
X173780447Y-114193696D01*
X160400374Y-99793018D02*
X160267956Y-99864721D01*
X160229329Y-99919885D01*
X160198971Y-100021945D01*
X160223778Y-100162632D01*
X160287212Y-100248155D01*
X160342376Y-100286781D01*
X160444437Y-100317139D01*
X160819601Y-100250987D01*
X160645953Y-99266179D01*
X160317684Y-99324062D01*
X160232162Y-99387496D01*
X160193535Y-99442660D01*
X160163177Y-99544720D01*
X160179715Y-99638512D01*
X160243149Y-99724034D01*
X160298313Y-99762661D01*
X160400374Y-99793018D01*
X160728643Y-99735136D01*
X159801832Y-99415021D02*
X159239085Y-99514248D01*
X159694107Y-100449442D02*
X159520459Y-99464634D01*
X158568612Y-100647897D02*
X159131360Y-100548670D01*
X158849986Y-100598284D02*
X158676338Y-99613476D01*
X158794936Y-99737625D01*
X158905265Y-99814878D01*
X159007325Y-99845236D01*
G36*
X176561138Y-94388930D02*
G01*
X176848797Y-94513690D01*
X177165396Y-94685960D01*
X177508542Y-94904540D01*
X177875850Y-95168250D01*
X178264931Y-95475860D01*
X178673397Y-95826200D01*
X178931052Y-96055250D01*
X179202167Y-95964150D01*
X179531396Y-95865750D01*
X179841727Y-95803350D01*
X180175738Y-95770750D01*
X180576008Y-95761750D01*
X181075454Y-95776150D01*
X181447998Y-95833950D01*
X181763164Y-95913350D01*
X182067622Y-96012850D01*
X182360773Y-96131900D01*
X182642017Y-96269900D01*
X182910756Y-96426260D01*
X183166392Y-96600400D01*
X183408327Y-96791730D01*
X183635960Y-96999670D01*
X183848694Y-97223630D01*
X184045929Y-97463010D01*
X184227067Y-97717240D01*
X184391508Y-97985720D01*
X184538657Y-98267870D01*
X184667911Y-98563100D01*
X184778673Y-98870820D01*
X184870343Y-99190450D01*
X184918713Y-99399290D01*
X184945113Y-99588710D01*
X184958793Y-100221800D01*
X182766906Y-100292576D01*
X182974445Y-100484620D01*
X182893035Y-100503420D01*
X182878845Y-100538820D01*
X182984325Y-100739680D01*
X183237928Y-101134410D01*
X183709015Y-101852330D01*
X183821017Y-102037170D01*
X183907307Y-101844880D01*
X184026703Y-101552130D01*
X184122353Y-101259180D01*
X184193883Y-100967300D01*
X184240923Y-100677740D01*
X184265193Y-100476090D01*
X184265189Y-100475620D01*
X183572020Y-100475620D01*
X182974445Y-100484620D01*
X182766906Y-100292576D01*
X184958793Y-100221800D01*
X184946403Y-100855690D01*
X184920003Y-101043970D01*
X184871053Y-101253140D01*
X184775943Y-101579860D01*
X184658042Y-101906850D01*
X184524432Y-102216190D01*
X184382184Y-102489980D01*
X184237494Y-102741140D01*
X184370407Y-102982450D01*
X184731464Y-103697700D01*
X185049155Y-104418310D01*
X185189363Y-104796390D01*
X185278613Y-105103050D01*
X185325843Y-105376180D01*
X185339973Y-105653710D01*
X185328393Y-105907610D01*
X185287193Y-106088580D01*
X185208333Y-106217290D01*
X185083757Y-106314390D01*
X184942623Y-106371690D01*
X184742220Y-106373690D01*
X184559573Y-106342990D01*
X184356007Y-106272690D01*
X184132534Y-106163410D01*
X183890162Y-106015830D01*
X183629899Y-105830610D01*
X183352759Y-105608420D01*
X182751881Y-105055810D01*
X182259404Y-104568380D01*
X182561283Y-104803200D01*
X183249390Y-105312140D01*
X183839695Y-105692970D01*
X184325454Y-105941740D01*
X184527019Y-106015340D01*
X184699918Y-106054440D01*
X184827904Y-106057440D01*
X184912144Y-106002640D01*
X184950474Y-105957140D01*
X184969824Y-105904240D01*
X184966524Y-105689020D01*
X184900274Y-105327630D01*
X184746994Y-104881780D01*
X184505612Y-104348700D01*
X184175056Y-103725600D01*
X183886395Y-103211010D01*
X183597014Y-103482130D01*
X183374159Y-103678140D01*
X183142037Y-103857530D01*
X182901382Y-104020100D01*
X182652922Y-104165700D01*
X182135513Y-104405220D01*
X181595656Y-104574670D01*
X181039195Y-104672670D01*
X180756565Y-104694370D01*
X180471974Y-104697370D01*
X180186157Y-104682070D01*
X179899841Y-104647970D01*
X179613756Y-104594970D01*
X179328637Y-104522870D01*
X179013107Y-104410570D01*
X178657313Y-104249770D01*
X178307723Y-104063330D01*
X178010798Y-103874170D01*
X177725829Y-103641430D01*
X177417270Y-103344450D01*
X177130995Y-103030330D01*
X176912879Y-102746200D01*
X176683553Y-102358780D01*
X176487801Y-101939170D01*
X176330995Y-101500470D01*
X176218508Y-101055820D01*
X176175018Y-100686180D01*
X176170844Y-100552370D01*
X176882897Y-100552370D01*
X176886497Y-100672720D01*
X176924577Y-100876310D01*
X176982217Y-101148820D01*
X177058657Y-101413450D01*
X177153727Y-101669890D01*
X177267273Y-101917850D01*
X177399139Y-102157000D01*
X177549161Y-102387050D01*
X177717184Y-102607680D01*
X177903046Y-102818580D01*
X178240459Y-103131370D01*
X178619084Y-103404360D01*
X179022087Y-103626860D01*
X179432633Y-103788160D01*
X179793398Y-103889820D01*
X179900114Y-103912620D01*
X179887400Y-103896150D01*
X181272421Y-103896150D01*
X181310441Y-103901150D01*
X181576657Y-103830250D01*
X182078759Y-103639850D01*
X182546659Y-103388080D01*
X182962309Y-103086280D01*
X183144899Y-102920160D01*
X183307659Y-102745790D01*
X183462925Y-102564090D01*
X183390575Y-102438380D01*
X183013225Y-101868030D01*
X182708221Y-101423380D01*
X182708201Y-101423070D01*
X182619031Y-101656210D01*
X182422857Y-102099820D01*
X182162737Y-102581260D01*
X181853340Y-103075410D01*
X181509336Y-103557140D01*
X181279321Y-103866950D01*
X181272421Y-103896150D01*
X179887400Y-103896150D01*
X179646305Y-103583820D01*
X179355659Y-103189520D01*
X179099444Y-102804440D01*
X178877150Y-102427470D01*
X178688266Y-102057530D01*
X178532281Y-101693540D01*
X178408682Y-101334390D01*
X178316962Y-100979020D01*
X178256602Y-100626310D01*
X178237433Y-100476090D01*
X178726567Y-100476090D01*
X178765987Y-100722210D01*
X178826877Y-101021200D01*
X178914757Y-101323570D01*
X179030827Y-101631700D01*
X179176280Y-101948010D01*
X179352314Y-102274880D01*
X179560129Y-102614690D01*
X180075887Y-103342750D01*
X180325129Y-103652560D01*
X180337629Y-102064320D01*
X180337629Y-100476090D01*
X178726567Y-100476090D01*
X178237433Y-100476090D01*
X178237372Y-100475610D01*
X177556298Y-100475610D01*
X177115030Y-100475150D01*
X177115154Y-100475070D01*
X176947797Y-100493670D01*
X176904667Y-100516670D01*
X176882897Y-100552370D01*
X176170844Y-100552370D01*
X176168404Y-100474140D01*
X180814382Y-100474140D01*
X180814407Y-100474840D01*
X180814407Y-102063790D01*
X180822307Y-103651780D01*
X181156442Y-103212560D01*
X181594311Y-102588470D01*
X181789451Y-102264080D01*
X181964481Y-101929800D01*
X182113418Y-101597910D01*
X182230278Y-101280730D01*
X182346607Y-100920690D01*
X182190380Y-100706290D01*
X182034152Y-100492140D01*
X181424144Y-100483140D01*
X180814382Y-100474140D01*
X176168404Y-100474140D01*
X176160518Y-100221320D01*
X176170284Y-99908220D01*
X176875551Y-99908220D01*
X176891391Y-99941220D01*
X176974541Y-99959020D01*
X177556466Y-99968020D01*
X178237377Y-99968020D01*
X178237383Y-99967980D01*
X178726729Y-99967980D01*
X180337795Y-99967980D01*
X180337795Y-98944530D01*
X180814407Y-98944530D01*
X180814407Y-99967910D01*
X181211465Y-99967910D01*
X181608523Y-99951110D01*
X181211465Y-99439410D01*
X180814407Y-98944530D01*
X180337795Y-98944530D01*
X180337795Y-98380710D01*
X180054902Y-98053110D01*
X180008195Y-97999610D01*
X180814311Y-97999610D01*
X180935928Y-98133970D01*
X181426504Y-98715090D01*
X182019426Y-99459260D01*
X182370244Y-99901390D01*
X182392834Y-99915990D01*
X182399834Y-99902090D01*
X182387674Y-99808690D01*
X182304014Y-99414140D01*
X182170302Y-98998390D01*
X181991210Y-98573960D01*
X181771418Y-98153400D01*
X181349235Y-97500800D01*
X180927068Y-96934100D01*
X180816806Y-96806960D01*
X180816711Y-96806990D01*
X180814311Y-97999610D01*
X180008195Y-97999610D01*
X179807470Y-97769690D01*
X179735500Y-97704190D01*
X179683080Y-97684590D01*
X179683079Y-97684650D01*
X179648669Y-97698750D01*
X179614059Y-97736650D01*
X179523009Y-97876700D01*
X179259680Y-98330390D01*
X179037908Y-98806800D01*
X178869951Y-99276200D01*
X178768069Y-99708880D01*
X178726729Y-99967980D01*
X178237383Y-99967980D01*
X178258287Y-99817080D01*
X178339747Y-99372230D01*
X178451046Y-98959030D01*
X178568492Y-98658970D01*
X178741049Y-98290100D01*
X178938231Y-97913860D01*
X179129554Y-97591680D01*
X179321353Y-97257350D01*
X179266123Y-97175150D01*
X179234208Y-97140810D01*
X180043970Y-97140810D01*
X180167029Y-97280450D01*
X180313883Y-97423460D01*
X180330693Y-97332160D01*
X180337693Y-97108590D01*
X180325683Y-96791090D01*
X180325676Y-96791090D01*
X180325661Y-96791100D01*
X180178807Y-96965830D01*
X180043970Y-97140810D01*
X179234208Y-97140810D01*
X179133398Y-97032340D01*
X178945685Y-96846550D01*
X178945680Y-96846160D01*
X178736817Y-96962730D01*
X178460790Y-97136560D01*
X178198541Y-97340410D01*
X177952789Y-97570960D01*
X177726252Y-97824880D01*
X177521649Y-98098830D01*
X177341698Y-98389490D01*
X177189117Y-98693540D01*
X177066624Y-99007630D01*
X176939331Y-99497940D01*
X176875551Y-99908220D01*
X176170284Y-99908220D01*
X176175018Y-99756470D01*
X176218508Y-99386830D01*
X176329643Y-98942560D01*
X176482339Y-98514220D01*
X176676472Y-98102110D01*
X176911917Y-97706540D01*
X177155448Y-97389540D01*
X177471852Y-97048170D01*
X177812091Y-96731580D01*
X177943935Y-96630030D01*
X179543524Y-96630030D01*
X179618994Y-96723330D01*
X179694224Y-96794030D01*
X179800459Y-96660160D01*
X179878585Y-96561480D01*
X181276460Y-96561480D01*
X181306330Y-96614580D01*
X181509147Y-96885900D01*
X181865146Y-97384600D01*
X182180818Y-97889860D01*
X182442344Y-98377930D01*
X182635908Y-98825050D01*
X182799945Y-99394200D01*
X182856885Y-99672720D01*
X182878895Y-99868890D01*
X182878895Y-99967190D01*
X184265235Y-99967190D01*
X184239275Y-99750390D01*
X184153225Y-99290410D01*
X184009169Y-98846050D01*
X183811352Y-98423260D01*
X183564015Y-98028000D01*
X183271401Y-97666220D01*
X182937754Y-97343850D01*
X182567318Y-97066860D01*
X182164333Y-96841200D01*
X181751174Y-96677210D01*
X181343538Y-96553980D01*
X181284898Y-96544980D01*
X181284860Y-96544580D01*
X181276460Y-96561480D01*
X179878585Y-96561480D01*
X179906453Y-96526280D01*
X179906448Y-96526130D01*
X179816558Y-96548730D01*
X179635094Y-96589630D01*
X179543524Y-96630030D01*
X177943935Y-96630030D01*
X178127127Y-96488930D01*
X178410020Y-96301690D01*
X178125445Y-96028900D01*
X177753967Y-95688310D01*
X177392704Y-95386190D01*
X177050290Y-95127810D01*
X176735358Y-94918500D01*
X176456541Y-94763520D01*
X176222473Y-94668220D01*
X176041788Y-94637820D01*
X175974158Y-94648620D01*
X175923118Y-94677620D01*
X175878218Y-94739220D01*
X175849278Y-94827420D01*
X175838918Y-95078270D01*
X175891328Y-95419880D01*
X176005811Y-95841920D01*
X176090171Y-96085820D01*
X176139441Y-96187300D01*
X176352871Y-95959930D01*
X176502551Y-95795140D01*
X176536591Y-95775840D01*
X176549951Y-95793140D01*
X176673490Y-97478950D01*
X176004355Y-96923020D01*
X175340027Y-96361800D01*
X175496256Y-96340900D01*
X175803183Y-96317100D01*
X175909773Y-96308100D01*
X175954123Y-96291100D01*
X175810394Y-95927450D01*
X175696887Y-95635970D01*
X175614297Y-95372490D01*
X175562617Y-95136920D01*
X175541847Y-94929120D01*
X175551987Y-94748980D01*
X175593037Y-94596380D01*
X175664997Y-94471210D01*
X175767860Y-94373310D01*
X175908725Y-94307610D01*
X176082237Y-94286310D01*
X176082183Y-94286830D01*
X176304803Y-94312930D01*
X176561138Y-94388930D01*
G37*
D12*
X176561138Y-94388930D02*
X176848797Y-94513690D01*
X177165396Y-94685960D01*
X177508542Y-94904540D01*
X177875850Y-95168250D01*
X178264931Y-95475860D01*
X178673397Y-95826200D01*
X178931052Y-96055250D01*
X179202167Y-95964150D01*
X179531396Y-95865750D01*
X179841727Y-95803350D01*
X180175738Y-95770750D01*
X180576008Y-95761750D01*
X181075454Y-95776150D01*
X181447998Y-95833950D01*
X181763164Y-95913350D01*
X182067622Y-96012850D01*
X182360773Y-96131900D01*
X182642017Y-96269900D01*
X182910756Y-96426260D01*
X183166392Y-96600400D01*
X183408327Y-96791730D01*
X183635960Y-96999670D01*
X183848694Y-97223630D01*
X184045929Y-97463010D01*
X184227067Y-97717240D01*
X184391508Y-97985720D01*
X184538657Y-98267870D01*
X184667911Y-98563100D01*
X184778673Y-98870820D01*
X184870343Y-99190450D01*
X184918713Y-99399290D01*
X184945113Y-99588710D01*
X184958793Y-100221800D01*
X182766906Y-100292576D01*
X182974445Y-100484620D01*
X182893035Y-100503420D01*
X182878845Y-100538820D01*
X182984325Y-100739680D01*
X183237928Y-101134410D01*
X183709015Y-101852330D01*
X183821017Y-102037170D01*
X183907307Y-101844880D01*
X184026703Y-101552130D01*
X184122353Y-101259180D01*
X184193883Y-100967300D01*
X184240923Y-100677740D01*
X184265193Y-100476090D01*
X184265189Y-100475620D01*
X183572020Y-100475620D01*
X182974445Y-100484620D01*
X182766906Y-100292576D01*
X184958793Y-100221800D01*
X184946403Y-100855690D01*
X184920003Y-101043970D01*
X184871053Y-101253140D01*
X184775943Y-101579860D01*
X184658042Y-101906850D01*
X184524432Y-102216190D01*
X184382184Y-102489980D01*
X184237494Y-102741140D01*
X184370407Y-102982450D01*
X184731464Y-103697700D01*
X185049155Y-104418310D01*
X185189363Y-104796390D01*
X185278613Y-105103050D01*
X185325843Y-105376180D01*
X185339973Y-105653710D01*
X185328393Y-105907610D01*
X185287193Y-106088580D01*
X185208333Y-106217290D01*
X185083757Y-106314390D01*
X184942623Y-106371690D01*
X184742220Y-106373690D01*
X184559573Y-106342990D01*
X184356007Y-106272690D01*
X184132534Y-106163410D01*
X183890162Y-106015830D01*
X183629899Y-105830610D01*
X183352759Y-105608420D01*
X182751881Y-105055810D01*
X182259404Y-104568380D01*
X182561283Y-104803200D01*
X183249390Y-105312140D01*
X183839695Y-105692970D01*
X184325454Y-105941740D01*
X184527019Y-106015340D01*
X184699918Y-106054440D01*
X184827904Y-106057440D01*
X184912144Y-106002640D01*
X184950474Y-105957140D01*
X184969824Y-105904240D01*
X184966524Y-105689020D01*
X184900274Y-105327630D01*
X184746994Y-104881780D01*
X184505612Y-104348700D01*
X184175056Y-103725600D01*
X183886395Y-103211010D01*
X183597014Y-103482130D01*
X183374159Y-103678140D01*
X183142037Y-103857530D01*
X182901382Y-104020100D01*
X182652922Y-104165700D01*
X182135513Y-104405220D01*
X181595656Y-104574670D01*
X181039195Y-104672670D01*
X180756565Y-104694370D01*
X180471974Y-104697370D01*
X180186157Y-104682070D01*
X179899841Y-104647970D01*
X179613756Y-104594970D01*
X179328637Y-104522870D01*
X179013107Y-104410570D01*
X178657313Y-104249770D01*
X178307723Y-104063330D01*
X178010798Y-103874170D01*
X177725829Y-103641430D01*
X177417270Y-103344450D01*
X177130995Y-103030330D01*
X176912879Y-102746200D01*
X176683553Y-102358780D01*
X176487801Y-101939170D01*
X176330995Y-101500470D01*
X176218508Y-101055820D01*
X176175018Y-100686180D01*
X176170844Y-100552370D01*
X176882897Y-100552370D01*
X176886497Y-100672720D01*
X176924577Y-100876310D01*
X176982217Y-101148820D01*
X177058657Y-101413450D01*
X177153727Y-101669890D01*
X177267273Y-101917850D01*
X177399139Y-102157000D01*
X177549161Y-102387050D01*
X177717184Y-102607680D01*
X177903046Y-102818580D01*
X178240459Y-103131370D01*
X178619084Y-103404360D01*
X179022087Y-103626860D01*
X179432633Y-103788160D01*
X179793398Y-103889820D01*
X179900114Y-103912620D01*
X179887400Y-103896150D01*
X181272421Y-103896150D01*
X181310441Y-103901150D01*
X181576657Y-103830250D01*
X182078759Y-103639850D01*
X182546659Y-103388080D01*
X182962309Y-103086280D01*
X183144899Y-102920160D01*
X183307659Y-102745790D01*
X183462925Y-102564090D01*
X183390575Y-102438380D01*
X183013225Y-101868030D01*
X182708221Y-101423380D01*
X182708201Y-101423070D01*
X182619031Y-101656210D01*
X182422857Y-102099820D01*
X182162737Y-102581260D01*
X181853340Y-103075410D01*
X181509336Y-103557140D01*
X181279321Y-103866950D01*
X181272421Y-103896150D01*
X179887400Y-103896150D01*
X179646305Y-103583820D01*
X179355659Y-103189520D01*
X179099444Y-102804440D01*
X178877150Y-102427470D01*
X178688266Y-102057530D01*
X178532281Y-101693540D01*
X178408682Y-101334390D01*
X178316962Y-100979020D01*
X178256602Y-100626310D01*
X178237433Y-100476090D01*
X178726567Y-100476090D01*
X178765987Y-100722210D01*
X178826877Y-101021200D01*
X178914757Y-101323570D01*
X179030827Y-101631700D01*
X179176280Y-101948010D01*
X179352314Y-102274880D01*
X179560129Y-102614690D01*
X180075887Y-103342750D01*
X180325129Y-103652560D01*
X180337629Y-102064320D01*
X180337629Y-100476090D01*
X178726567Y-100476090D01*
X178237433Y-100476090D01*
X178237372Y-100475610D01*
X177556298Y-100475610D01*
X177115030Y-100475150D01*
X177115154Y-100475070D01*
X176947797Y-100493670D01*
X176904667Y-100516670D01*
X176882897Y-100552370D01*
X176170844Y-100552370D01*
X176168404Y-100474140D01*
X180814382Y-100474140D01*
X180814407Y-100474840D01*
X180814407Y-102063790D01*
X180822307Y-103651780D01*
X181156442Y-103212560D01*
X181594311Y-102588470D01*
X181789451Y-102264080D01*
X181964481Y-101929800D01*
X182113418Y-101597910D01*
X182230278Y-101280730D01*
X182346607Y-100920690D01*
X182190380Y-100706290D01*
X182034152Y-100492140D01*
X181424144Y-100483140D01*
X180814382Y-100474140D01*
X176168404Y-100474140D01*
X176160518Y-100221320D01*
X176170284Y-99908220D01*
X176875551Y-99908220D01*
X176891391Y-99941220D01*
X176974541Y-99959020D01*
X177556466Y-99968020D01*
X178237377Y-99968020D01*
X178237383Y-99967980D01*
X178726729Y-99967980D01*
X180337795Y-99967980D01*
X180337795Y-98944530D01*
X180814407Y-98944530D01*
X180814407Y-99967910D01*
X181211465Y-99967910D01*
X181608523Y-99951110D01*
X181211465Y-99439410D01*
X180814407Y-98944530D01*
X180337795Y-98944530D01*
X180337795Y-98380710D01*
X180054902Y-98053110D01*
X180008195Y-97999610D01*
X180814311Y-97999610D01*
X180935928Y-98133970D01*
X181426504Y-98715090D01*
X182019426Y-99459260D01*
X182370244Y-99901390D01*
X182392834Y-99915990D01*
X182399834Y-99902090D01*
X182387674Y-99808690D01*
X182304014Y-99414140D01*
X182170302Y-98998390D01*
X181991210Y-98573960D01*
X181771418Y-98153400D01*
X181349235Y-97500800D01*
X180927068Y-96934100D01*
X180816806Y-96806960D01*
X180816711Y-96806990D01*
X180814311Y-97999610D01*
X180008195Y-97999610D01*
X179807470Y-97769690D01*
X179735500Y-97704190D01*
X179683080Y-97684590D01*
X179683079Y-97684650D01*
X179648669Y-97698750D01*
X179614059Y-97736650D01*
X179523009Y-97876700D01*
X179259680Y-98330390D01*
X179037908Y-98806800D01*
X178869951Y-99276200D01*
X178768069Y-99708880D01*
X178726729Y-99967980D01*
X178237383Y-99967980D01*
X178258287Y-99817080D01*
X178339747Y-99372230D01*
X178451046Y-98959030D01*
X178568492Y-98658970D01*
X178741049Y-98290100D01*
X178938231Y-97913860D01*
X179129554Y-97591680D01*
X179321353Y-97257350D01*
X179266123Y-97175150D01*
X179234208Y-97140810D01*
X180043970Y-97140810D01*
X180167029Y-97280450D01*
X180313883Y-97423460D01*
X180330693Y-97332160D01*
X180337693Y-97108590D01*
X180325683Y-96791090D01*
X180325676Y-96791090D01*
X180325661Y-96791100D01*
X180178807Y-96965830D01*
X180043970Y-97140810D01*
X179234208Y-97140810D01*
X179133398Y-97032340D01*
X178945685Y-96846550D01*
X178945680Y-96846160D01*
X178736817Y-96962730D01*
X178460790Y-97136560D01*
X178198541Y-97340410D01*
X177952789Y-97570960D01*
X177726252Y-97824880D01*
X177521649Y-98098830D01*
X177341698Y-98389490D01*
X177189117Y-98693540D01*
X177066624Y-99007630D01*
X176939331Y-99497940D01*
X176875551Y-99908220D01*
X176170284Y-99908220D01*
X176175018Y-99756470D01*
X176218508Y-99386830D01*
X176329643Y-98942560D01*
X176482339Y-98514220D01*
X176676472Y-98102110D01*
X176911917Y-97706540D01*
X177155448Y-97389540D01*
X177471852Y-97048170D01*
X177812091Y-96731580D01*
X177943935Y-96630030D01*
X179543524Y-96630030D01*
X179618994Y-96723330D01*
X179694224Y-96794030D01*
X179800459Y-96660160D01*
X179878585Y-96561480D01*
X181276460Y-96561480D01*
X181306330Y-96614580D01*
X181509147Y-96885900D01*
X181865146Y-97384600D01*
X182180818Y-97889860D01*
X182442344Y-98377930D01*
X182635908Y-98825050D01*
X182799945Y-99394200D01*
X182856885Y-99672720D01*
X182878895Y-99868890D01*
X182878895Y-99967190D01*
X184265235Y-99967190D01*
X184239275Y-99750390D01*
X184153225Y-99290410D01*
X184009169Y-98846050D01*
X183811352Y-98423260D01*
X183564015Y-98028000D01*
X183271401Y-97666220D01*
X182937754Y-97343850D01*
X182567318Y-97066860D01*
X182164333Y-96841200D01*
X181751174Y-96677210D01*
X181343538Y-96553980D01*
X181284898Y-96544980D01*
X181284860Y-96544580D01*
X181276460Y-96561480D01*
X179878585Y-96561480D01*
X179906453Y-96526280D01*
X179906448Y-96526130D01*
X179816558Y-96548730D01*
X179635094Y-96589630D01*
X179543524Y-96630030D01*
X177943935Y-96630030D01*
X178127127Y-96488930D01*
X178410020Y-96301690D01*
X178125445Y-96028900D01*
X177753967Y-95688310D01*
X177392704Y-95386190D01*
X177050290Y-95127810D01*
X176735358Y-94918500D01*
X176456541Y-94763520D01*
X176222473Y-94668220D01*
X176041788Y-94637820D01*
X175974158Y-94648620D01*
X175923118Y-94677620D01*
X175878218Y-94739220D01*
X175849278Y-94827420D01*
X175838918Y-95078270D01*
X175891328Y-95419880D01*
X176005811Y-95841920D01*
X176090171Y-96085820D01*
X176139441Y-96187300D01*
X176352871Y-95959930D01*
X176502551Y-95795140D01*
X176536591Y-95775840D01*
X176549951Y-95793140D01*
X176673490Y-97478950D01*
X176004355Y-96923020D01*
X175340027Y-96361800D01*
X175496256Y-96340900D01*
X175803183Y-96317100D01*
X175909773Y-96308100D01*
X175954123Y-96291100D01*
X175810394Y-95927450D01*
X175696887Y-95635970D01*
X175614297Y-95372490D01*
X175562617Y-95136920D01*
X175541847Y-94929120D01*
X175551987Y-94748980D01*
X175593037Y-94596380D01*
X175664997Y-94471210D01*
X175767860Y-94373310D01*
X175908725Y-94307610D01*
X176082237Y-94286310D01*
X176082183Y-94286830D01*
X176304803Y-94312930D01*
X176561138Y-94388930D01*
G36*
X177115030Y-100475150D02*
G01*
X177115015Y-100475160D01*
X177115015Y-100475150D01*
X177115030Y-100475150D01*
G37*
X177115030Y-100475150D02*
X177115015Y-100475160D01*
X177115015Y-100475150D01*
X177115030Y-100475150D01*
D13*
X138543742Y-104075466D02*
G75*
G03*
X138543742Y-104075466I-200000J0D01*
G01*
X158005085Y-105079424D02*
G75*
G03*
X158005085Y-105079424I-200000J0D01*
G01*
X177698111Y-104384376D02*
G75*
G03*
X177698111Y-104384376I-200000J0D01*
G01*
D14*
X184216152Y-110944285D02*
X184216152Y-113544285D01*
X181616152Y-116144285D02*
X189356152Y-116144285D01*
X181616152Y-113544285D02*
X181616152Y-116144285D01*
X182946152Y-110944285D02*
X181616152Y-110944285D01*
X184216152Y-113544285D02*
X181616152Y-113544285D01*
X181616152Y-110944285D02*
X181616152Y-112274285D01*
X189356152Y-110944285D02*
X189356152Y-116144285D01*
X184216152Y-110944285D02*
X189356152Y-110944285D01*
D15*
X137680077Y-111875440D02*
X137680077Y-111275440D01*
X135080077Y-110675440D02*
X135580077Y-110675440D01*
X135080077Y-112475440D02*
X135580077Y-112475440D01*
X132480077Y-111875440D02*
X132480077Y-111275440D01*
X135080077Y-110675440D02*
X134580077Y-110675440D01*
X135080077Y-112475440D02*
X134580077Y-112475440D01*
X154208744Y-112977419D02*
X154708744Y-112977419D01*
X154208744Y-111177419D02*
X153708744Y-111177419D01*
X154208744Y-111177419D02*
X154708744Y-111177419D01*
X156808744Y-112377419D02*
X156808744Y-111777419D01*
X151608744Y-112377419D02*
X151608744Y-111777419D01*
X154208744Y-112977419D02*
X153708744Y-112977419D01*
X173747314Y-110714054D02*
X174247314Y-110714054D01*
X173747314Y-112514054D02*
X173247314Y-112514054D01*
X176347314Y-111314054D02*
X176347314Y-111914054D01*
X171147314Y-111314054D02*
X171147314Y-111914054D01*
X173747314Y-110714054D02*
X173247314Y-110714054D01*
X173747314Y-112514054D02*
X174247314Y-112514054D01*
D14*
X145730807Y-100860621D02*
X142283980Y-101468390D01*
X138295930Y-90829275D02*
X139028142Y-86689231D01*
X142283980Y-101468390D02*
X139874391Y-99781178D01*
X159528385Y-87085421D02*
X157424351Y-83445483D01*
X159419635Y-98446911D02*
X155972808Y-99054680D01*
X139874391Y-99781178D02*
X139447217Y-97358551D01*
X159419635Y-98446911D02*
X161106847Y-96037323D01*
X159637783Y-87705849D02*
X159528385Y-87085421D01*
X138405328Y-91449704D02*
X138295930Y-90829275D01*
X161106847Y-96037323D02*
X160679672Y-93614696D01*
X157408401Y-83440001D02*
G75*
G03*
X153966655Y-83070205I-1856446J-1076898D01*
G01*
X142142788Y-85138285D02*
G75*
G03*
X139028142Y-86689231I-988723J-1917349D01*
G01*
M02*
