%TF.GenerationSoftware,KiCad,Pcbnew,(6.0.4-0)*%
%TF.CreationDate,2022-07-01T13:06:00-04:00*%
%TF.ProjectId,sr-71,73722d37-312e-46b6-9963-61645f706362,rev?*%
%TF.SameCoordinates,Original*%
%TF.FileFunction,Profile,NP*%
%FSLAX46Y46*%
G04 Gerber Fmt 4.6, Leading zero omitted, Abs format (unit mm)*
G04 Created by KiCad (PCBNEW (6.0.4-0)) date 2022-07-01 13:06:00*
%MOMM*%
%LPD*%
G01*
G04 APERTURE LIST*
%TA.AperFunction,Profile*%
%ADD10C,0.128481*%
%TD*%
G04 APERTURE END LIST*
D10*
X154710793Y-81655700D02*
X156874103Y-82060690D01*
X158955263Y-82631380D01*
X160940873Y-83360760D01*
X162817663Y-84241830D01*
X164572253Y-85267590D01*
X166191343Y-86431040D01*
X167661553Y-87725170D01*
X168969583Y-89142980D01*
X170133553Y-90743150D01*
X171036693Y-92288740D01*
X171273123Y-92702280D01*
X171517283Y-92743780D01*
X174403993Y-92343910D01*
X175509763Y-92314210D01*
X176684773Y-92376910D01*
X179093913Y-92736440D01*
X181323333Y-93395980D01*
X183341003Y-94330120D01*
X185114913Y-95513540D01*
X186613023Y-96920860D01*
X187803303Y-98526720D01*
X188272983Y-99396180D01*
X188653703Y-100305760D01*
X188941463Y-101252300D01*
X189132233Y-102232620D01*
X189194933Y-103636080D01*
X189064933Y-105039310D01*
X189003433Y-105363650D01*
X189703783Y-105490320D01*
X190715243Y-105728660D01*
X191688793Y-106066580D01*
X192611433Y-106495360D01*
X193470103Y-107006340D01*
X194251793Y-107590780D01*
X194943453Y-108240010D01*
X195532063Y-108945280D01*
X196004573Y-109697920D01*
X196376343Y-110533530D01*
X196615143Y-111376000D01*
X196726083Y-112218040D01*
X196714083Y-113052340D01*
X196584883Y-113871610D01*
X196343243Y-114668530D01*
X195994383Y-115435800D01*
X195543423Y-116166130D01*
X194995543Y-116852210D01*
X194355893Y-117486730D01*
X193629583Y-118062400D01*
X192821793Y-118571920D01*
X191937673Y-119007980D01*
X190982363Y-119363270D01*
X189961023Y-119630500D01*
X186286333Y-119802350D01*
X178894953Y-119648800D01*
X149090123Y-119805950D01*
X149090083Y-119806030D01*
X140566333Y-119805840D01*
X132946333Y-119766340D01*
X127520381Y-119648800D01*
X125959785Y-119237810D01*
X124503433Y-118771580D01*
X123155081Y-118193900D01*
X121918492Y-117507120D01*
X120797420Y-116713600D01*
X119795626Y-115815710D01*
X118916869Y-114815800D01*
X118164908Y-113716240D01*
X117606364Y-112672860D01*
X117215156Y-111668740D01*
X116971259Y-110639790D01*
X116854645Y-109521880D01*
X116868955Y-108415210D01*
X117022495Y-107331660D01*
X117312445Y-106276990D01*
X117735979Y-105256990D01*
X118290276Y-104277420D01*
X118972511Y-103344050D01*
X119779862Y-102462680D01*
X120709505Y-101639050D01*
X122383398Y-100474890D01*
X124190929Y-99597020D01*
X126551383Y-98867470D01*
X127760344Y-98633070D01*
X128876868Y-98511470D01*
X129270323Y-98489170D01*
X129336273Y-98016360D01*
X129507559Y-96734530D01*
X129780427Y-95305310D01*
X130223419Y-93867190D01*
X130826014Y-92448890D01*
X131577695Y-91079160D01*
X132946222Y-89169060D01*
X134579879Y-87435320D01*
X136454365Y-85891640D01*
X138545382Y-84551690D01*
X140828624Y-83429160D01*
X143279790Y-82537690D01*
X145874587Y-81891010D01*
X148588703Y-81502760D01*
X151665683Y-81448660D01*
X154710793Y-81655700D01*
M02*
