%TF.GenerationSoftware,KiCad,Pcbnew,(5.1.12-1-10_14)*%
%TF.CreationDate,2022-04-05T15:16:15-04:00*%
%TF.ProjectId,sr-71,73722d37-312e-46b6-9963-61645f706362,rev?*%
%TF.SameCoordinates,Original*%
%TF.FileFunction,Profile,NP*%
%FSLAX46Y46*%
G04 Gerber Fmt 4.6, Leading zero omitted, Abs format (unit mm)*
G04 Created by KiCad (PCBNEW (5.1.12-1-10_14)) date 2022-04-05 15:16:15*
%MOMM*%
%LPD*%
G01*
G04 APERTURE LIST*
%TA.AperFunction,Profile*%
%ADD10C,0.131000*%
%TD*%
G04 APERTURE END LIST*
D10*
X151635026Y-80512640D02*
X148499301Y-80567932D01*
X148499301Y-80567932D02*
X145733577Y-80963773D01*
X145733577Y-80963773D02*
X143089294Y-81622649D01*
X143089294Y-81622649D02*
X140591257Y-82531120D01*
X140591257Y-82531120D02*
X138264265Y-83675236D01*
X138264265Y-83675236D02*
X136133131Y-85040528D01*
X136133131Y-85040528D02*
X134223170Y-86613558D01*
X134223170Y-86613558D02*
X132558155Y-88380374D01*
X132558155Y-88380374D02*
X131163407Y-90327028D01*
X131163407Y-90327028D02*
X130397563Y-91723324D01*
X130397563Y-91723324D02*
X129783131Y-93168714D01*
X129783131Y-93168714D02*
X129331996Y-94634256D01*
X129331996Y-94634256D02*
X129053977Y-96090499D01*
X129053977Y-96090499D02*
X128879309Y-97396879D01*
X128879309Y-97396879D02*
X128812132Y-97878503D01*
X128812132Y-97878503D02*
X128411121Y-97901231D01*
X128411121Y-97901231D02*
X127273206Y-98025254D01*
X127273206Y-98025254D02*
X126041240Y-98263998D01*
X126041240Y-98263998D02*
X123635702Y-99007623D01*
X123635702Y-99007623D02*
X121793437Y-99902142D01*
X121793437Y-99902142D02*
X120087599Y-101088632D01*
X120087599Y-101088632D02*
X119140370Y-101927858D01*
X119140370Y-101927858D02*
X118317680Y-102826510D01*
X118317680Y-102826510D02*
X117622117Y-103777357D01*
X117622117Y-103777357D02*
X117057292Y-104775746D01*
X117057292Y-104775746D02*
X116625794Y-105815477D01*
X116625794Y-105815477D02*
X116330204Y-106889830D01*
X116330204Y-106889830D02*
X116173626Y-107994154D01*
X116173626Y-107994154D02*
X116159154Y-109122252D01*
X116159154Y-109122252D02*
X116278010Y-110261199D01*
X116278010Y-110261199D02*
X116526572Y-111310232D01*
X116526572Y-111310232D02*
X116925514Y-112333423D01*
X116925514Y-112333423D02*
X117494471Y-113396408D01*
X117494471Y-113396408D02*
X118260834Y-114517270D01*
X118260834Y-114517270D02*
X119156385Y-115536329D01*
X119156385Y-115536329D02*
X120177513Y-116451001D01*
X120177513Y-116451001D02*
X121319563Y-117259737D01*
X121319563Y-117259737D02*
X122579951Y-117959955D01*
X122579951Y-117959955D02*
X123954027Y-118548549D01*
X123954027Y-118548549D02*
X125438173Y-119023455D01*
X125438173Y-119023455D02*
X127028774Y-119382606D01*
X127028774Y-119382606D02*
X128010108Y-119562441D01*
X128010108Y-119562441D02*
X149010894Y-119602747D01*
X149010894Y-119602747D02*
X179384751Y-119664760D01*
X179384751Y-119664760D02*
X189559324Y-119598614D01*
X189559324Y-119598614D02*
X190662099Y-119423947D01*
X190662099Y-119423947D02*
X191703377Y-119151611D01*
X191703377Y-119151611D02*
X192676962Y-118789360D01*
X192676962Y-118789360D02*
X193577683Y-118344944D01*
X193577683Y-118344944D02*
X194400889Y-117825597D01*
X194400889Y-117825597D02*
X195140894Y-117239068D01*
X195140894Y-117239068D02*
X195793050Y-116592596D01*
X195793050Y-116592596D02*
X196351157Y-115893413D01*
X196351157Y-115893413D02*
X196811077Y-115148757D01*
X196811077Y-115148757D02*
X197166610Y-114366892D01*
X197166610Y-114366892D02*
X197412591Y-113555055D01*
X197412591Y-113555055D02*
X197544367Y-112719964D01*
X197544367Y-112719964D02*
X197556246Y-111869887D01*
X197556246Y-111869887D02*
X197443074Y-111011541D01*
X197443074Y-111011541D02*
X197199678Y-110153196D01*
X197199678Y-110153196D02*
X196820890Y-109301568D01*
X196820890Y-109301568D02*
X196339266Y-108534173D01*
X196339266Y-108534173D02*
X195739818Y-107815872D01*
X195739818Y-107815872D02*
X195034953Y-107153895D01*
X195034953Y-107153895D02*
X194238102Y-106558583D01*
X194238102Y-106558583D02*
X193363220Y-106037684D01*
X193363220Y-106037684D02*
X192422708Y-105600503D01*
X192422708Y-105600503D02*
X191430521Y-105256338D01*
X191430521Y-105256338D02*
X190400093Y-105013458D01*
X190400093Y-105013458D02*
X189685924Y-104884268D01*
X189685924Y-104884268D02*
X189748972Y-104553538D01*
X189748972Y-104553538D02*
X189881264Y-103123651D01*
X189881264Y-103123651D02*
X189817184Y-101693247D01*
X189817184Y-101693247D02*
X189622879Y-100694342D01*
X189622879Y-100694342D02*
X189329359Y-99730060D01*
X189329359Y-99730060D02*
X188941784Y-98802984D01*
X188941784Y-98802984D02*
X188462745Y-97916733D01*
X188462745Y-97916733D02*
X187249898Y-96280142D01*
X187249898Y-96280142D02*
X185723376Y-94846119D01*
X185723376Y-94846119D02*
X183915219Y-93639992D01*
X183915219Y-93639992D02*
X181859012Y-92688111D01*
X181859012Y-92688111D02*
X179587316Y-92015802D01*
X179587316Y-92015802D02*
X177132170Y-91649415D01*
X177132170Y-91649415D02*
X175934827Y-91585854D01*
X175934827Y-91585854D02*
X174807763Y-91615826D01*
X174807763Y-91615826D02*
X171865824Y-92023555D01*
X171865824Y-92023555D02*
X171617261Y-91981179D01*
X171617261Y-91981179D02*
X171375932Y-91560015D01*
X171375932Y-91560015D02*
X170455574Y-89984919D01*
X170455574Y-89984919D02*
X169269600Y-88354009D01*
X169269600Y-88354009D02*
X167936349Y-86909138D01*
X167936349Y-86909138D02*
X166438249Y-85590354D01*
X166438249Y-85590354D02*
X164788220Y-84404380D01*
X164788220Y-84404380D02*
X163000216Y-83358966D01*
X163000216Y-83358966D02*
X161087670Y-82461346D01*
X161087670Y-82461346D02*
X159064023Y-81718240D01*
X159064023Y-81718240D02*
X156943221Y-81136363D01*
X156943221Y-81136363D02*
X154738189Y-80723468D01*
X154738189Y-80723468D02*
X151635026Y-80512640D01*
M02*
