%TF.GenerationSoftware,KiCad,Pcbnew,(5.1.12-1-10_14)*%
%TF.CreationDate,2022-04-05T15:16:15-04:00*%
%TF.ProjectId,sr-71,73722d37-312e-46b6-9963-61645f706362,rev?*%
%TF.SameCoordinates,Original*%
%TF.FileFunction,Soldermask,Bot*%
%TF.FilePolarity,Negative*%
%FSLAX46Y46*%
G04 Gerber Fmt 4.6, Leading zero omitted, Abs format (unit mm)*
G04 Created by KiCad (PCBNEW (5.1.12-1-10_14)) date 2022-04-05 15:16:15*
%MOMM*%
%LPD*%
G01*
G04 APERTURE LIST*
%ADD10C,1.600000*%
%ADD11O,1.802000X1.802000*%
%ADD12C,17.902000*%
G04 APERTURE END LIST*
D10*
X132463440Y-103875740D02*
G75*
G03*
X132463440Y-103875740I-800000J0D01*
G01*
X150352660Y-104505860D02*
G75*
G03*
X150352660Y-104505860I-800000J0D01*
G01*
X168145360Y-103959760D02*
G75*
G03*
X168145360Y-103959760I-800000J0D01*
G01*
X132463440Y-103875740D02*
G75*
G03*
X132463440Y-103875740I-800000J0D01*
G01*
X150352660Y-104505860D02*
G75*
G03*
X150352660Y-104505860I-800000J0D01*
G01*
X168145360Y-103959760D02*
G75*
G03*
X168145360Y-103959760I-800000J0D01*
G01*
G36*
G01*
X174244900Y-111684500D02*
X175944900Y-111684500D01*
G75*
G02*
X175995900Y-111735500I0J-51000D01*
G01*
X175995900Y-113435500D01*
G75*
G02*
X175944900Y-113486500I-51000J0D01*
G01*
X174244900Y-113486500D01*
G75*
G02*
X174193900Y-113435500I0J51000D01*
G01*
X174193900Y-111735500D01*
G75*
G02*
X174244900Y-111684500I51000J0D01*
G01*
G37*
D11*
X175094900Y-115125500D03*
X177634900Y-112585500D03*
X177634900Y-115125500D03*
X180174900Y-112585500D03*
X180174900Y-115125500D03*
G36*
G01*
X134999200Y-102433600D02*
X134999200Y-105033600D01*
G75*
G02*
X134948200Y-105084600I-51000J0D01*
G01*
X133548200Y-105084600D01*
G75*
G02*
X133497200Y-105033600I0J51000D01*
G01*
X133497200Y-102433600D01*
G75*
G02*
X133548200Y-102382600I51000J0D01*
G01*
X134948200Y-102382600D01*
G75*
G02*
X134999200Y-102433600I0J-51000D01*
G01*
G37*
G36*
G01*
X129799200Y-102433600D02*
X129799200Y-105033600D01*
G75*
G02*
X129748200Y-105084600I-51000J0D01*
G01*
X128348200Y-105084600D01*
G75*
G02*
X128297200Y-105033600I0J51000D01*
G01*
X128297200Y-102433600D01*
G75*
G02*
X128348200Y-102382600I51000J0D01*
G01*
X129748200Y-102382600D01*
G75*
G02*
X129799200Y-102433600I0J-51000D01*
G01*
G37*
G36*
G01*
X151416900Y-105948000D02*
X151416900Y-103348000D01*
G75*
G02*
X151467900Y-103297000I51000J0D01*
G01*
X152867900Y-103297000D01*
G75*
G02*
X152918900Y-103348000I0J-51000D01*
G01*
X152918900Y-105948000D01*
G75*
G02*
X152867900Y-105999000I-51000J0D01*
G01*
X151467900Y-105999000D01*
G75*
G02*
X151416900Y-105948000I0J51000D01*
G01*
G37*
G36*
G01*
X146216900Y-105948000D02*
X146216900Y-103348000D01*
G75*
G02*
X146267900Y-103297000I51000J0D01*
G01*
X147667900Y-103297000D01*
G75*
G02*
X147718900Y-103348000I0J-51000D01*
G01*
X147718900Y-105948000D01*
G75*
G02*
X147667900Y-105999000I-51000J0D01*
G01*
X146267900Y-105999000D01*
G75*
G02*
X146216900Y-105948000I0J51000D01*
G01*
G37*
G36*
G01*
X164009600Y-105401900D02*
X164009600Y-102801900D01*
G75*
G02*
X164060600Y-102750900I51000J0D01*
G01*
X165460600Y-102750900D01*
G75*
G02*
X165511600Y-102801900I0J-51000D01*
G01*
X165511600Y-105401900D01*
G75*
G02*
X165460600Y-105452900I-51000J0D01*
G01*
X164060600Y-105452900D01*
G75*
G02*
X164009600Y-105401900I0J51000D01*
G01*
G37*
G36*
G01*
X169209600Y-105401900D02*
X169209600Y-102801900D01*
G75*
G02*
X169260600Y-102750900I51000J0D01*
G01*
X170660600Y-102750900D01*
G75*
G02*
X170711600Y-102801900I0J-51000D01*
G01*
X170711600Y-105401900D01*
G75*
G02*
X170660600Y-105452900I-51000J0D01*
G01*
X169260600Y-105452900D01*
G75*
G02*
X169209600Y-105401900I0J51000D01*
G01*
G37*
G36*
G01*
X133609900Y-110120000D02*
X133609900Y-108320000D01*
G75*
G02*
X133660900Y-108269000I51000J0D01*
G01*
X135160900Y-108269000D01*
G75*
G02*
X135211900Y-108320000I0J-51000D01*
G01*
X135211900Y-110120000D01*
G75*
G02*
X135160900Y-110171000I-51000J0D01*
G01*
X133660900Y-110171000D01*
G75*
G02*
X133609900Y-110120000I0J51000D01*
G01*
G37*
G36*
G01*
X137209900Y-110120000D02*
X137209900Y-108320000D01*
G75*
G02*
X137260900Y-108269000I51000J0D01*
G01*
X138760900Y-108269000D01*
G75*
G02*
X138811900Y-108320000I0J-51000D01*
G01*
X138811900Y-110120000D01*
G75*
G02*
X138760900Y-110171000I-51000J0D01*
G01*
X137260900Y-110171000D01*
G75*
G02*
X137209900Y-110120000I0J51000D01*
G01*
G37*
G36*
G01*
X158977700Y-108164200D02*
X158977700Y-106364200D01*
G75*
G02*
X159028700Y-106313200I51000J0D01*
G01*
X160528700Y-106313200D01*
G75*
G02*
X160579700Y-106364200I0J-51000D01*
G01*
X160579700Y-108164200D01*
G75*
G02*
X160528700Y-108215200I-51000J0D01*
G01*
X159028700Y-108215200D01*
G75*
G02*
X158977700Y-108164200I0J51000D01*
G01*
G37*
G36*
G01*
X155377700Y-108164200D02*
X155377700Y-106364200D01*
G75*
G02*
X155428700Y-106313200I51000J0D01*
G01*
X156928700Y-106313200D01*
G75*
G02*
X156979700Y-106364200I0J-51000D01*
G01*
X156979700Y-108164200D01*
G75*
G02*
X156928700Y-108215200I-51000J0D01*
G01*
X155428700Y-108215200D01*
G75*
G02*
X155377700Y-108164200I0J51000D01*
G01*
G37*
G36*
G01*
X171158800Y-107735800D02*
X171158800Y-109535800D01*
G75*
G02*
X171107800Y-109586800I-51000J0D01*
G01*
X169607800Y-109586800D01*
G75*
G02*
X169556800Y-109535800I0J51000D01*
G01*
X169556800Y-107735800D01*
G75*
G02*
X169607800Y-107684800I51000J0D01*
G01*
X171107800Y-107684800D01*
G75*
G02*
X171158800Y-107735800I0J-51000D01*
G01*
G37*
G36*
G01*
X167558800Y-107735800D02*
X167558800Y-109535800D01*
G75*
G02*
X167507800Y-109586800I-51000J0D01*
G01*
X166007800Y-109586800D01*
G75*
G02*
X165956800Y-109535800I0J51000D01*
G01*
X165956800Y-107735800D01*
G75*
G02*
X166007800Y-107684800I51000J0D01*
G01*
X167507800Y-107684800D01*
G75*
G02*
X167558800Y-107735800I0J-51000D01*
G01*
G37*
D12*
X149542500Y-92532200D03*
G36*
G01*
X160126101Y-93245209D02*
X159243969Y-88242386D01*
G75*
G02*
X159285338Y-88183305I50225J8856D01*
G01*
X160536044Y-87962772D01*
G75*
G02*
X160595125Y-88004141I8856J-50225D01*
G01*
X161477257Y-93006964D01*
G75*
G02*
X161435888Y-93066045I-50225J-8856D01*
G01*
X160185182Y-93286578D01*
G75*
G02*
X160126101Y-93245209I-8856J50225D01*
G01*
G37*
G36*
G01*
X138489875Y-97060259D02*
X137607743Y-92057436D01*
G75*
G02*
X137649112Y-91998355I50225J8856D01*
G01*
X138899818Y-91777822D01*
G75*
G02*
X138958899Y-91819191I8856J-50225D01*
G01*
X139841031Y-96822014D01*
G75*
G02*
X139799662Y-96881095I-50225J-8856D01*
G01*
X138548956Y-97101628D01*
G75*
G02*
X138489875Y-97060259I-8856J50225D01*
G01*
G37*
M02*
