%TF.GenerationSoftware,KiCad,Pcbnew,(5.1.12-1-10_14)*%
%TF.CreationDate,2022-04-05T15:16:15-04:00*%
%TF.ProjectId,sr-71,73722d37-312e-46b6-9963-61645f706362,rev?*%
%TF.SameCoordinates,Original*%
%TF.FileFunction,Legend,Bot*%
%TF.FilePolarity,Positive*%
%FSLAX46Y46*%
G04 Gerber Fmt 4.6, Leading zero omitted, Abs format (unit mm)*
G04 Created by KiCad (PCBNEW (5.1.12-1-10_14)) date 2022-04-05 15:16:15*
%MOMM*%
%LPD*%
G01*
G04 APERTURE LIST*
%ADD10C,0.150000*%
%ADD11C,0.300000*%
%ADD12C,0.120000*%
%ADD13C,0.008405*%
%ADD14C,0.400000*%
%ADD15C,0.100000*%
G04 APERTURE END LIST*
D10*
X152548647Y-107656380D02*
X152548647Y-108370666D01*
X152596266Y-108513523D01*
X152691504Y-108608761D01*
X152834361Y-108656380D01*
X152929600Y-108656380D01*
X151596266Y-108656380D02*
X152072457Y-108656380D01*
X152072457Y-107656380D01*
X150691504Y-108561142D02*
X150739123Y-108608761D01*
X150881980Y-108656380D01*
X150977219Y-108656380D01*
X151120076Y-108608761D01*
X151215314Y-108513523D01*
X151262933Y-108418285D01*
X151310552Y-108227809D01*
X151310552Y-108084952D01*
X151262933Y-107894476D01*
X151215314Y-107799238D01*
X151120076Y-107704000D01*
X150977219Y-107656380D01*
X150881980Y-107656380D01*
X150739123Y-107704000D01*
X150691504Y-107751619D01*
X149977219Y-107656380D02*
X149977219Y-108370666D01*
X150024838Y-108513523D01*
X150120076Y-108608761D01*
X150262933Y-108656380D01*
X150358171Y-108656380D01*
X149024838Y-108656380D02*
X149501028Y-108656380D01*
X149501028Y-107656380D01*
X148120076Y-108561142D02*
X148167695Y-108608761D01*
X148310552Y-108656380D01*
X148405790Y-108656380D01*
X148548647Y-108608761D01*
X148643885Y-108513523D01*
X148691504Y-108418285D01*
X148739123Y-108227809D01*
X148739123Y-108084952D01*
X148691504Y-107894476D01*
X148643885Y-107799238D01*
X148548647Y-107704000D01*
X148405790Y-107656380D01*
X148310552Y-107656380D01*
X148167695Y-107704000D01*
X148120076Y-107751619D01*
X147405790Y-107656380D02*
X147405790Y-108370666D01*
X147453409Y-108513523D01*
X147548647Y-108608761D01*
X147691504Y-108656380D01*
X147786742Y-108656380D01*
X146453409Y-108656380D02*
X146929600Y-108656380D01*
X146929600Y-107656380D01*
X145548647Y-108561142D02*
X145596266Y-108608761D01*
X145739123Y-108656380D01*
X145834361Y-108656380D01*
X145977219Y-108608761D01*
X146072457Y-108513523D01*
X146120076Y-108418285D01*
X146167695Y-108227809D01*
X146167695Y-108084952D01*
X146120076Y-107894476D01*
X146072457Y-107799238D01*
X145977219Y-107704000D01*
X145834361Y-107656380D01*
X145739123Y-107656380D01*
X145596266Y-107704000D01*
X145548647Y-107751619D01*
X144834361Y-107656380D02*
X144834361Y-108370666D01*
X144881980Y-108513523D01*
X144977219Y-108608761D01*
X145120076Y-108656380D01*
X145215314Y-108656380D01*
X143881980Y-108656380D02*
X144358171Y-108656380D01*
X144358171Y-107656380D01*
X142977219Y-108561142D02*
X143024838Y-108608761D01*
X143167695Y-108656380D01*
X143262933Y-108656380D01*
X143405790Y-108608761D01*
X143501028Y-108513523D01*
X143548647Y-108418285D01*
X143596266Y-108227809D01*
X143596266Y-108084952D01*
X143548647Y-107894476D01*
X143501028Y-107799238D01*
X143405790Y-107704000D01*
X143262933Y-107656380D01*
X143167695Y-107656380D01*
X143024838Y-107704000D01*
X142977219Y-107751619D01*
X137322961Y-118155980D02*
X137322961Y-117155980D01*
X137084866Y-117155980D01*
X136942009Y-117203600D01*
X136846771Y-117298838D01*
X136799152Y-117394076D01*
X136751533Y-117584552D01*
X136751533Y-117727409D01*
X136799152Y-117917885D01*
X136846771Y-118013123D01*
X136942009Y-118108361D01*
X137084866Y-118155980D01*
X137322961Y-118155980D01*
X136322961Y-117632171D02*
X135989628Y-117632171D01*
X135846771Y-118155980D02*
X136322961Y-118155980D01*
X136322961Y-117155980D01*
X135846771Y-117155980D01*
X135084866Y-117632171D02*
X135418200Y-117632171D01*
X135418200Y-118155980D02*
X135418200Y-117155980D01*
X134942009Y-117155980D01*
X133227723Y-118060742D02*
X133275342Y-118108361D01*
X133418200Y-118155980D01*
X133513438Y-118155980D01*
X133656295Y-118108361D01*
X133751533Y-118013123D01*
X133799152Y-117917885D01*
X133846771Y-117727409D01*
X133846771Y-117584552D01*
X133799152Y-117394076D01*
X133751533Y-117298838D01*
X133656295Y-117203600D01*
X133513438Y-117155980D01*
X133418200Y-117155980D01*
X133275342Y-117203600D01*
X133227723Y-117251219D01*
X132608676Y-117155980D02*
X132418200Y-117155980D01*
X132322961Y-117203600D01*
X132227723Y-117298838D01*
X132180104Y-117489314D01*
X132180104Y-117822647D01*
X132227723Y-118013123D01*
X132322961Y-118108361D01*
X132418200Y-118155980D01*
X132608676Y-118155980D01*
X132703914Y-118108361D01*
X132799152Y-118013123D01*
X132846771Y-117822647D01*
X132846771Y-117489314D01*
X132799152Y-117298838D01*
X132703914Y-117203600D01*
X132608676Y-117155980D01*
X131751533Y-118155980D02*
X131751533Y-117155980D01*
X131180104Y-118155980D01*
X131180104Y-117155980D01*
X130037247Y-117155980D02*
X129418200Y-117155980D01*
X129751533Y-117536933D01*
X129608676Y-117536933D01*
X129513438Y-117584552D01*
X129465819Y-117632171D01*
X129418200Y-117727409D01*
X129418200Y-117965504D01*
X129465819Y-118060742D01*
X129513438Y-118108361D01*
X129608676Y-118155980D01*
X129894390Y-118155980D01*
X129989628Y-118108361D01*
X130037247Y-118060742D01*
X128799152Y-117155980D02*
X128703914Y-117155980D01*
X128608676Y-117203600D01*
X128561057Y-117251219D01*
X128513438Y-117346457D01*
X128465819Y-117536933D01*
X128465819Y-117775028D01*
X128513438Y-117965504D01*
X128561057Y-118060742D01*
X128608676Y-118108361D01*
X128703914Y-118155980D01*
X128799152Y-118155980D01*
X128894390Y-118108361D01*
X128942009Y-118060742D01*
X128989628Y-117965504D01*
X129037247Y-117775028D01*
X129037247Y-117536933D01*
X128989628Y-117346457D01*
X128942009Y-117251219D01*
X128894390Y-117203600D01*
X128799152Y-117155980D01*
D11*
X169870400Y-116995533D02*
X168918019Y-116995533D01*
X170060876Y-117566961D02*
X169394209Y-115566961D01*
X168727542Y-117566961D01*
X167298971Y-117471723D02*
X167489447Y-117566961D01*
X167870400Y-117566961D01*
X168060876Y-117471723D01*
X168156114Y-117281247D01*
X168156114Y-116519342D01*
X168060876Y-116328866D01*
X167870400Y-116233628D01*
X167489447Y-116233628D01*
X167298971Y-116328866D01*
X167203733Y-116519342D01*
X167203733Y-116709819D01*
X168156114Y-116900295D01*
X166346590Y-117566961D02*
X166346590Y-116233628D01*
X166346590Y-116614580D02*
X166251352Y-116424104D01*
X166156114Y-116328866D01*
X165965638Y-116233628D01*
X165775161Y-116233628D01*
X164822780Y-117566961D02*
X165013257Y-117471723D01*
X165108495Y-117376485D01*
X165203733Y-117186009D01*
X165203733Y-116614580D01*
X165108495Y-116424104D01*
X165013257Y-116328866D01*
X164822780Y-116233628D01*
X164537066Y-116233628D01*
X164346590Y-116328866D01*
X164251352Y-116424104D01*
X164156114Y-116614580D01*
X164156114Y-117186009D01*
X164251352Y-117376485D01*
X164346590Y-117471723D01*
X164537066Y-117566961D01*
X164822780Y-117566961D01*
X163394209Y-117471723D02*
X163203733Y-117566961D01*
X162822780Y-117566961D01*
X162632304Y-117471723D01*
X162537066Y-117281247D01*
X162537066Y-117186009D01*
X162632304Y-116995533D01*
X162822780Y-116900295D01*
X163108495Y-116900295D01*
X163298971Y-116805057D01*
X163394209Y-116614580D01*
X163394209Y-116519342D01*
X163298971Y-116328866D01*
X163108495Y-116233628D01*
X162822780Y-116233628D01*
X162632304Y-116328866D01*
X161679923Y-116233628D02*
X161679923Y-118233628D01*
X161679923Y-116328866D02*
X161489447Y-116233628D01*
X161108495Y-116233628D01*
X160918019Y-116328866D01*
X160822780Y-116424104D01*
X160727542Y-116614580D01*
X160727542Y-117186009D01*
X160822780Y-117376485D01*
X160918019Y-117471723D01*
X161108495Y-117566961D01*
X161489447Y-117566961D01*
X161679923Y-117471723D01*
X159013257Y-117566961D02*
X159013257Y-116519342D01*
X159108495Y-116328866D01*
X159298971Y-116233628D01*
X159679923Y-116233628D01*
X159870400Y-116328866D01*
X159013257Y-117471723D02*
X159203733Y-117566961D01*
X159679923Y-117566961D01*
X159870400Y-117471723D01*
X159965638Y-117281247D01*
X159965638Y-117090771D01*
X159870400Y-116900295D01*
X159679923Y-116805057D01*
X159203733Y-116805057D01*
X159013257Y-116709819D01*
X157203733Y-117471723D02*
X157394209Y-117566961D01*
X157775161Y-117566961D01*
X157965638Y-117471723D01*
X158060876Y-117376485D01*
X158156114Y-117186009D01*
X158156114Y-116614580D01*
X158060876Y-116424104D01*
X157965638Y-116328866D01*
X157775161Y-116233628D01*
X157394209Y-116233628D01*
X157203733Y-116328866D01*
X155584685Y-117471723D02*
X155775161Y-117566961D01*
X156156114Y-117566961D01*
X156346590Y-117471723D01*
X156441828Y-117281247D01*
X156441828Y-116519342D01*
X156346590Y-116328866D01*
X156156114Y-116233628D01*
X155775161Y-116233628D01*
X155584685Y-116328866D01*
X155489447Y-116519342D01*
X155489447Y-116709819D01*
X156441828Y-116900295D01*
X153394209Y-115566961D02*
X152727542Y-117566961D01*
X152060876Y-115566961D01*
X151394209Y-117566961D02*
X151394209Y-116233628D01*
X151394209Y-115566961D02*
X151489447Y-115662200D01*
X151394209Y-115757438D01*
X151298971Y-115662200D01*
X151394209Y-115566961D01*
X151394209Y-115757438D01*
X150156114Y-117566961D02*
X150346590Y-117471723D01*
X150441828Y-117281247D01*
X150441828Y-115566961D01*
X149108495Y-117566961D02*
X149298971Y-117471723D01*
X149394209Y-117281247D01*
X149394209Y-115566961D01*
X147489447Y-117566961D02*
X147489447Y-116519342D01*
X147584685Y-116328866D01*
X147775161Y-116233628D01*
X148156114Y-116233628D01*
X148346590Y-116328866D01*
X147489447Y-117471723D02*
X147679923Y-117566961D01*
X148156114Y-117566961D01*
X148346590Y-117471723D01*
X148441828Y-117281247D01*
X148441828Y-117090771D01*
X148346590Y-116900295D01*
X148156114Y-116805057D01*
X147679923Y-116805057D01*
X147489447Y-116709819D01*
X145679923Y-116233628D02*
X145679923Y-117852676D01*
X145775161Y-118043152D01*
X145870400Y-118138390D01*
X146060876Y-118233628D01*
X146346590Y-118233628D01*
X146537066Y-118138390D01*
X145679923Y-117471723D02*
X145870400Y-117566961D01*
X146251352Y-117566961D01*
X146441828Y-117471723D01*
X146537066Y-117376485D01*
X146632304Y-117186009D01*
X146632304Y-116614580D01*
X146537066Y-116424104D01*
X146441828Y-116328866D01*
X146251352Y-116233628D01*
X145870400Y-116233628D01*
X145679923Y-116328866D01*
X143965638Y-117471723D02*
X144156114Y-117566961D01*
X144537066Y-117566961D01*
X144727542Y-117471723D01*
X144822780Y-117281247D01*
X144822780Y-116519342D01*
X144727542Y-116328866D01*
X144537066Y-116233628D01*
X144156114Y-116233628D01*
X143965638Y-116328866D01*
X143870400Y-116519342D01*
X143870400Y-116709819D01*
X144822780Y-116900295D01*
D10*
X181577738Y-108875461D02*
X181434880Y-108923080D01*
X181196785Y-108923080D01*
X181101547Y-108875461D01*
X181053928Y-108827842D01*
X181006309Y-108732604D01*
X181006309Y-108637366D01*
X181053928Y-108542128D01*
X181101547Y-108494509D01*
X181196785Y-108446890D01*
X181387261Y-108399271D01*
X181482500Y-108351652D01*
X181530119Y-108304033D01*
X181577738Y-108208795D01*
X181577738Y-108113557D01*
X181530119Y-108018319D01*
X181482500Y-107970700D01*
X181387261Y-107923080D01*
X181149166Y-107923080D01*
X181006309Y-107970700D01*
X180625357Y-108637366D02*
X180149166Y-108637366D01*
X180720595Y-108923080D02*
X180387261Y-107923080D01*
X180053928Y-108923080D01*
X179530119Y-107923080D02*
X179339642Y-107923080D01*
X179244404Y-107970700D01*
X179149166Y-108065938D01*
X179101547Y-108256414D01*
X179101547Y-108589747D01*
X179149166Y-108780223D01*
X179244404Y-108875461D01*
X179339642Y-108923080D01*
X179530119Y-108923080D01*
X179625357Y-108875461D01*
X179720595Y-108780223D01*
X179768214Y-108589747D01*
X179768214Y-108256414D01*
X179720595Y-108065938D01*
X179625357Y-107970700D01*
X179530119Y-107923080D01*
X178053928Y-107923080D02*
X177720595Y-108923080D01*
X177387261Y-107923080D01*
X175768214Y-108923080D02*
X176339642Y-108923080D01*
X176053928Y-108923080D02*
X176053928Y-107923080D01*
X176149166Y-108065938D01*
X176244404Y-108161176D01*
X176339642Y-108208795D01*
X175339642Y-108827842D02*
X175292023Y-108875461D01*
X175339642Y-108923080D01*
X175387261Y-108875461D01*
X175339642Y-108827842D01*
X175339642Y-108923080D01*
X174434880Y-107923080D02*
X174625357Y-107923080D01*
X174720595Y-107970700D01*
X174768214Y-108018319D01*
X174863452Y-108161176D01*
X174911071Y-108351652D01*
X174911071Y-108732604D01*
X174863452Y-108827842D01*
X174815833Y-108875461D01*
X174720595Y-108923080D01*
X174530119Y-108923080D01*
X174434880Y-108875461D01*
X174387261Y-108827842D01*
X174339642Y-108732604D01*
X174339642Y-108494509D01*
X174387261Y-108399271D01*
X174434880Y-108351652D01*
X174530119Y-108304033D01*
X174720595Y-108304033D01*
X174815833Y-108351652D01*
X174863452Y-108399271D01*
X174911071Y-108494509D01*
X173863452Y-108923080D02*
X173672976Y-108923080D01*
X173577738Y-108875461D01*
X173530119Y-108827842D01*
X173434880Y-108684985D01*
X173387261Y-108494509D01*
X173387261Y-108113557D01*
X173434880Y-108018319D01*
X173482500Y-107970700D01*
X173577738Y-107923080D01*
X173768214Y-107923080D01*
X173863452Y-107970700D01*
X173911071Y-108018319D01*
X173958690Y-108113557D01*
X173958690Y-108351652D01*
X173911071Y-108446890D01*
X173863452Y-108494509D01*
X173768214Y-108542128D01*
X173577738Y-108542128D01*
X173482500Y-108494509D01*
X173434880Y-108446890D01*
X173387261Y-108351652D01*
D12*
X181504900Y-111255500D02*
X181504900Y-116455500D01*
X176364900Y-111255500D02*
X181504900Y-111255500D01*
X173764900Y-116455500D02*
X181504900Y-116455500D01*
X176364900Y-111255500D02*
X176364900Y-113855500D01*
X176364900Y-113855500D02*
X173764900Y-113855500D01*
X173764900Y-113855500D02*
X173764900Y-116455500D01*
X175094900Y-111255500D02*
X173764900Y-111255500D01*
X173764900Y-111255500D02*
X173764900Y-112585500D01*
D13*
G36*
X173758083Y-94032830D02*
G01*
X177310994Y-96335630D01*
X177219424Y-96376030D01*
X177294894Y-96469330D01*
X177370124Y-96540030D01*
X177476359Y-96406160D01*
X177582353Y-96272280D01*
X177582348Y-96272130D01*
X177492458Y-96294730D01*
X177310994Y-96335630D01*
X173758083Y-94032830D01*
X177719870Y-96886810D01*
X177842929Y-97026450D01*
X177989783Y-97169460D01*
X178006593Y-97078160D01*
X178013593Y-96854590D01*
X178001583Y-96537090D01*
X178001576Y-96537090D01*
X178001561Y-96537100D01*
X177854707Y-96711830D01*
X177719870Y-96886810D01*
X173758083Y-94032830D01*
X178490211Y-97745610D01*
X178611828Y-97879970D01*
X179102404Y-98461090D01*
X179695326Y-99205260D01*
X180046144Y-99647390D01*
X180068734Y-99661990D01*
X180075734Y-99648090D01*
X180063574Y-99554690D01*
X179979914Y-99160140D01*
X179846202Y-98744390D01*
X179667110Y-98319960D01*
X179447318Y-97899400D01*
X179025135Y-97246800D01*
X178602968Y-96680100D01*
X178492706Y-96552960D01*
X178492611Y-96552990D01*
X178491411Y-97149300D01*
X178490211Y-97745610D01*
X173758083Y-94032830D01*
X173980703Y-94058930D01*
X180650345Y-100230620D01*
X180568935Y-100249420D01*
X180554745Y-100284820D01*
X180660225Y-100485680D01*
X180913828Y-100880410D01*
X181384915Y-101598330D01*
X181496917Y-101783170D01*
X181583207Y-101590880D01*
X181702603Y-101298130D01*
X181798253Y-101005180D01*
X181869783Y-100713300D01*
X181916823Y-100423740D01*
X181941093Y-100222090D01*
X181941089Y-100221620D01*
X181247920Y-100221620D01*
X180650345Y-100230620D01*
X173980703Y-94058930D01*
X174237038Y-94134930D01*
X176621580Y-96592160D01*
X176412717Y-96708730D01*
X176136690Y-96882560D01*
X175874441Y-97086410D01*
X175628689Y-97316960D01*
X175402152Y-97570880D01*
X175197549Y-97844830D01*
X175017598Y-98135490D01*
X174865017Y-98439540D01*
X174742524Y-98753630D01*
X174615231Y-99243940D01*
X174551451Y-99654220D01*
X174567291Y-99687220D01*
X174650441Y-99705020D01*
X175232366Y-99714020D01*
X175913277Y-99714020D01*
X175934187Y-99563080D01*
X176015647Y-99118230D01*
X176126946Y-98705030D01*
X176244392Y-98404970D01*
X176416949Y-98036100D01*
X176614131Y-97659860D01*
X176805454Y-97337680D01*
X176997253Y-97003350D01*
X176942023Y-96921150D01*
X176809298Y-96778340D01*
X176621585Y-96592550D01*
X176621580Y-96592160D01*
X174237038Y-94134930D01*
X174524697Y-94259690D01*
X177483370Y-97515690D01*
X177411400Y-97450190D01*
X177358980Y-97430590D01*
X177358979Y-97430650D01*
X177324569Y-97444750D01*
X177289959Y-97482650D01*
X177198909Y-97622700D01*
X176935580Y-98076390D01*
X176713808Y-98552800D01*
X176545851Y-99022200D01*
X176443969Y-99454880D01*
X176402629Y-99713980D01*
X177208042Y-99713980D01*
X178013695Y-99713980D01*
X178013695Y-98920350D01*
X178013695Y-98126710D01*
X177730802Y-97799110D01*
X177483370Y-97515690D01*
X174524697Y-94259690D01*
X174841296Y-94431960D01*
X175184442Y-94650540D01*
X178490307Y-98690500D01*
X178490307Y-99202210D01*
X178490307Y-99713910D01*
X178887365Y-99713910D01*
X179284423Y-99697110D01*
X178887365Y-99185410D01*
X178490307Y-98690530D01*
X178490307Y-98690500D01*
X175184442Y-94650540D01*
X175551750Y-94914250D01*
X179710052Y-100238140D01*
X179100044Y-100229140D01*
X178490282Y-100220140D01*
X178490307Y-100220840D01*
X178490307Y-101809790D01*
X178498207Y-103397780D01*
X178832342Y-102958560D01*
X179270211Y-102334470D01*
X179465351Y-102010080D01*
X179640381Y-101675800D01*
X179789318Y-101343910D01*
X179906178Y-101026730D01*
X180022507Y-100666690D01*
X179866280Y-100452290D01*
X179710052Y-100238140D01*
X175551750Y-94914250D01*
X175940831Y-95221860D01*
X176349297Y-95572200D01*
X176606952Y-95801250D01*
X178960760Y-96290580D01*
X178952360Y-96307480D01*
X178982230Y-96360580D01*
X179185047Y-96631900D01*
X179541046Y-97130600D01*
X179856718Y-97635860D01*
X180118244Y-98123930D01*
X180311808Y-98571050D01*
X180475845Y-99140200D01*
X180532785Y-99418720D01*
X180554795Y-99614890D01*
X180554795Y-99713190D01*
X181247965Y-99713190D01*
X181941135Y-99713190D01*
X181915175Y-99496390D01*
X181829125Y-99036410D01*
X181685069Y-98592050D01*
X181487252Y-98169260D01*
X181239915Y-97774000D01*
X180947301Y-97412220D01*
X180613654Y-97089850D01*
X180243218Y-96812860D01*
X179840233Y-96587200D01*
X179427074Y-96423210D01*
X179019438Y-96299980D01*
X178960798Y-96290980D01*
X178960760Y-96290580D01*
X176606952Y-95801250D01*
X180384101Y-101169070D01*
X180294931Y-101402210D01*
X180098757Y-101845820D01*
X179838637Y-102327260D01*
X179529240Y-102821410D01*
X179185236Y-103303140D01*
X178955221Y-103612950D01*
X178948321Y-103642150D01*
X178986341Y-103647150D01*
X179252557Y-103576250D01*
X179754659Y-103385850D01*
X180222559Y-103134080D01*
X180638209Y-102832280D01*
X180820799Y-102666160D01*
X180983559Y-102491790D01*
X181138825Y-102310090D01*
X181066475Y-102184380D01*
X180689125Y-101614030D01*
X180384121Y-101169380D01*
X180384101Y-101169070D01*
X176606952Y-95801250D01*
X176878067Y-95710150D01*
X177207296Y-95611750D01*
X177517627Y-95549350D01*
X177851638Y-95516750D01*
X178251908Y-95507750D01*
X178013532Y-100222090D01*
X177207879Y-100222090D01*
X176402467Y-100222090D01*
X176441887Y-100468210D01*
X176502777Y-100767200D01*
X176590657Y-101069570D01*
X176706727Y-101377700D01*
X176852180Y-101694010D01*
X177028214Y-102020880D01*
X177236029Y-102360690D01*
X177751787Y-103088750D01*
X178001029Y-103398560D01*
X178013529Y-101810320D01*
X178013529Y-100222090D01*
X178013532Y-100222090D01*
X178251908Y-95507750D01*
X178751354Y-95522150D01*
X179123898Y-95579950D01*
X179439064Y-95659350D01*
X179743522Y-95758850D01*
X180036673Y-95877900D01*
X180317917Y-96015900D01*
X180586656Y-96172260D01*
X180842292Y-96346400D01*
X181084227Y-96537730D01*
X181311860Y-96745670D01*
X181524594Y-96969630D01*
X181721829Y-97209010D01*
X181902967Y-97463240D01*
X182067408Y-97731720D01*
X182214557Y-98013870D01*
X182343811Y-98309100D01*
X182454573Y-98616820D01*
X182546243Y-98936450D01*
X182594613Y-99145290D01*
X182621013Y-99334710D01*
X182634693Y-99967800D01*
X174791054Y-100221070D01*
X174623697Y-100239670D01*
X174580567Y-100262670D01*
X174558797Y-100298370D01*
X174562397Y-100418720D01*
X174600477Y-100622310D01*
X174658117Y-100894820D01*
X174734557Y-101159450D01*
X174829627Y-101415890D01*
X174943173Y-101663850D01*
X175075039Y-101903000D01*
X175225061Y-102133050D01*
X175393084Y-102353680D01*
X175578946Y-102564580D01*
X175916359Y-102877370D01*
X176294984Y-103150360D01*
X176697987Y-103372860D01*
X177108533Y-103534160D01*
X177469298Y-103635820D01*
X177576014Y-103658620D01*
X177322205Y-103329820D01*
X177031559Y-102935520D01*
X176775344Y-102550440D01*
X176553050Y-102173470D01*
X176364166Y-101803530D01*
X176208181Y-101439540D01*
X176084582Y-101080390D01*
X175992862Y-100725020D01*
X175932502Y-100372310D01*
X175913272Y-100221610D01*
X175232198Y-100221610D01*
X174790915Y-100221150D01*
X174790915Y-100221160D01*
X174791054Y-100221070D01*
X182634693Y-99967800D01*
X182622303Y-100601690D01*
X182595903Y-100789970D01*
X182546953Y-100999140D01*
X182451843Y-101325860D01*
X182333942Y-101652850D01*
X182200332Y-101962190D01*
X182058084Y-102235980D01*
X181913394Y-102487140D01*
X182046307Y-102728450D01*
X182407364Y-103443700D01*
X182725055Y-104164310D01*
X182865263Y-104542390D01*
X182954513Y-104849050D01*
X183001743Y-105122180D01*
X183015873Y-105399710D01*
X183004293Y-105653610D01*
X182963093Y-105834580D01*
X182884233Y-105963290D01*
X182759657Y-106060390D01*
X182618523Y-106117690D01*
X182418120Y-106119690D01*
X182235473Y-106088990D01*
X182031907Y-106018690D01*
X181808434Y-105909410D01*
X181566062Y-105761830D01*
X181305799Y-105576610D01*
X181028659Y-105354420D01*
X180427781Y-104801810D01*
X179935304Y-104314380D01*
X180237183Y-104549200D01*
X180925290Y-105058140D01*
X181515595Y-105438970D01*
X182001354Y-105687740D01*
X182202919Y-105761340D01*
X182375818Y-105800440D01*
X182503804Y-105803440D01*
X182588044Y-105748640D01*
X182626374Y-105703140D01*
X182645724Y-105650240D01*
X182642424Y-105435020D01*
X182576174Y-105073630D01*
X182422894Y-104627780D01*
X182181512Y-104094700D01*
X181850956Y-103471600D01*
X181562295Y-102957010D01*
X181272914Y-103228130D01*
X181050059Y-103424140D01*
X180817937Y-103603530D01*
X180577282Y-103766100D01*
X180328822Y-103911700D01*
X179811413Y-104151220D01*
X179271556Y-104320670D01*
X178715095Y-104418670D01*
X178432465Y-104440370D01*
X178147874Y-104443370D01*
X177862057Y-104428070D01*
X177575741Y-104393970D01*
X177289656Y-104340970D01*
X177004537Y-104268870D01*
X176689007Y-104156570D01*
X176333213Y-103995770D01*
X175983623Y-103809330D01*
X175686698Y-103620170D01*
X175401729Y-103387430D01*
X175093170Y-103090450D01*
X174806895Y-102776330D01*
X174588779Y-102492200D01*
X174359453Y-102104780D01*
X174163701Y-101685170D01*
X174006895Y-101246470D01*
X173894408Y-100801820D01*
X173850918Y-100432180D01*
X173836418Y-99967320D01*
X173850918Y-99502470D01*
X173894408Y-99132830D01*
X174005543Y-98688560D01*
X174158239Y-98260220D01*
X174352372Y-97848110D01*
X174587817Y-97452540D01*
X174831348Y-97135540D01*
X175147752Y-96794170D01*
X175487991Y-96477580D01*
X175803027Y-96234930D01*
X176085920Y-96047690D01*
X175801345Y-95774900D01*
X175429867Y-95434310D01*
X175068604Y-95132190D01*
X174726190Y-94873810D01*
X174411258Y-94664500D01*
X174132441Y-94509520D01*
X173898373Y-94414220D01*
X173717688Y-94383820D01*
X173650058Y-94394620D01*
X173599018Y-94423620D01*
X173554118Y-94485220D01*
X173525178Y-94573420D01*
X173514818Y-94824270D01*
X173567228Y-95165880D01*
X173681711Y-95587920D01*
X173766071Y-95831820D01*
X173815341Y-95933300D01*
X174028771Y-95705930D01*
X174178451Y-95541140D01*
X174212491Y-95521840D01*
X174225851Y-95539140D01*
X174349390Y-97224950D01*
X173680255Y-96669020D01*
X173015927Y-96107800D01*
X173172156Y-96086900D01*
X173479083Y-96063100D01*
X173585673Y-96054100D01*
X173630023Y-96037100D01*
X173486294Y-95673450D01*
X173372787Y-95381970D01*
X173290197Y-95118490D01*
X173238517Y-94882920D01*
X173217747Y-94675120D01*
X173227887Y-94494980D01*
X173268937Y-94342380D01*
X173340897Y-94217210D01*
X173443760Y-94119310D01*
X173584625Y-94053610D01*
X173758137Y-94032310D01*
X173758083Y-94032830D01*
G37*
X173758083Y-94032830D02*
X177310994Y-96335630D01*
X177219424Y-96376030D01*
X177294894Y-96469330D01*
X177370124Y-96540030D01*
X177476359Y-96406160D01*
X177582353Y-96272280D01*
X177582348Y-96272130D01*
X177492458Y-96294730D01*
X177310994Y-96335630D01*
X173758083Y-94032830D01*
X177719870Y-96886810D01*
X177842929Y-97026450D01*
X177989783Y-97169460D01*
X178006593Y-97078160D01*
X178013593Y-96854590D01*
X178001583Y-96537090D01*
X178001576Y-96537090D01*
X178001561Y-96537100D01*
X177854707Y-96711830D01*
X177719870Y-96886810D01*
X173758083Y-94032830D01*
X178490211Y-97745610D01*
X178611828Y-97879970D01*
X179102404Y-98461090D01*
X179695326Y-99205260D01*
X180046144Y-99647390D01*
X180068734Y-99661990D01*
X180075734Y-99648090D01*
X180063574Y-99554690D01*
X179979914Y-99160140D01*
X179846202Y-98744390D01*
X179667110Y-98319960D01*
X179447318Y-97899400D01*
X179025135Y-97246800D01*
X178602968Y-96680100D01*
X178492706Y-96552960D01*
X178492611Y-96552990D01*
X178491411Y-97149300D01*
X178490211Y-97745610D01*
X173758083Y-94032830D01*
X173980703Y-94058930D01*
X180650345Y-100230620D01*
X180568935Y-100249420D01*
X180554745Y-100284820D01*
X180660225Y-100485680D01*
X180913828Y-100880410D01*
X181384915Y-101598330D01*
X181496917Y-101783170D01*
X181583207Y-101590880D01*
X181702603Y-101298130D01*
X181798253Y-101005180D01*
X181869783Y-100713300D01*
X181916823Y-100423740D01*
X181941093Y-100222090D01*
X181941089Y-100221620D01*
X181247920Y-100221620D01*
X180650345Y-100230620D01*
X173980703Y-94058930D01*
X174237038Y-94134930D01*
X176621580Y-96592160D01*
X176412717Y-96708730D01*
X176136690Y-96882560D01*
X175874441Y-97086410D01*
X175628689Y-97316960D01*
X175402152Y-97570880D01*
X175197549Y-97844830D01*
X175017598Y-98135490D01*
X174865017Y-98439540D01*
X174742524Y-98753630D01*
X174615231Y-99243940D01*
X174551451Y-99654220D01*
X174567291Y-99687220D01*
X174650441Y-99705020D01*
X175232366Y-99714020D01*
X175913277Y-99714020D01*
X175934187Y-99563080D01*
X176015647Y-99118230D01*
X176126946Y-98705030D01*
X176244392Y-98404970D01*
X176416949Y-98036100D01*
X176614131Y-97659860D01*
X176805454Y-97337680D01*
X176997253Y-97003350D01*
X176942023Y-96921150D01*
X176809298Y-96778340D01*
X176621585Y-96592550D01*
X176621580Y-96592160D01*
X174237038Y-94134930D01*
X174524697Y-94259690D01*
X177483370Y-97515690D01*
X177411400Y-97450190D01*
X177358980Y-97430590D01*
X177358979Y-97430650D01*
X177324569Y-97444750D01*
X177289959Y-97482650D01*
X177198909Y-97622700D01*
X176935580Y-98076390D01*
X176713808Y-98552800D01*
X176545851Y-99022200D01*
X176443969Y-99454880D01*
X176402629Y-99713980D01*
X177208042Y-99713980D01*
X178013695Y-99713980D01*
X178013695Y-98920350D01*
X178013695Y-98126710D01*
X177730802Y-97799110D01*
X177483370Y-97515690D01*
X174524697Y-94259690D01*
X174841296Y-94431960D01*
X175184442Y-94650540D01*
X178490307Y-98690500D01*
X178490307Y-99202210D01*
X178490307Y-99713910D01*
X178887365Y-99713910D01*
X179284423Y-99697110D01*
X178887365Y-99185410D01*
X178490307Y-98690530D01*
X178490307Y-98690500D01*
X175184442Y-94650540D01*
X175551750Y-94914250D01*
X179710052Y-100238140D01*
X179100044Y-100229140D01*
X178490282Y-100220140D01*
X178490307Y-100220840D01*
X178490307Y-101809790D01*
X178498207Y-103397780D01*
X178832342Y-102958560D01*
X179270211Y-102334470D01*
X179465351Y-102010080D01*
X179640381Y-101675800D01*
X179789318Y-101343910D01*
X179906178Y-101026730D01*
X180022507Y-100666690D01*
X179866280Y-100452290D01*
X179710052Y-100238140D01*
X175551750Y-94914250D01*
X175940831Y-95221860D01*
X176349297Y-95572200D01*
X176606952Y-95801250D01*
X178960760Y-96290580D01*
X178952360Y-96307480D01*
X178982230Y-96360580D01*
X179185047Y-96631900D01*
X179541046Y-97130600D01*
X179856718Y-97635860D01*
X180118244Y-98123930D01*
X180311808Y-98571050D01*
X180475845Y-99140200D01*
X180532785Y-99418720D01*
X180554795Y-99614890D01*
X180554795Y-99713190D01*
X181247965Y-99713190D01*
X181941135Y-99713190D01*
X181915175Y-99496390D01*
X181829125Y-99036410D01*
X181685069Y-98592050D01*
X181487252Y-98169260D01*
X181239915Y-97774000D01*
X180947301Y-97412220D01*
X180613654Y-97089850D01*
X180243218Y-96812860D01*
X179840233Y-96587200D01*
X179427074Y-96423210D01*
X179019438Y-96299980D01*
X178960798Y-96290980D01*
X178960760Y-96290580D01*
X176606952Y-95801250D01*
X180384101Y-101169070D01*
X180294931Y-101402210D01*
X180098757Y-101845820D01*
X179838637Y-102327260D01*
X179529240Y-102821410D01*
X179185236Y-103303140D01*
X178955221Y-103612950D01*
X178948321Y-103642150D01*
X178986341Y-103647150D01*
X179252557Y-103576250D01*
X179754659Y-103385850D01*
X180222559Y-103134080D01*
X180638209Y-102832280D01*
X180820799Y-102666160D01*
X180983559Y-102491790D01*
X181138825Y-102310090D01*
X181066475Y-102184380D01*
X180689125Y-101614030D01*
X180384121Y-101169380D01*
X180384101Y-101169070D01*
X176606952Y-95801250D01*
X176878067Y-95710150D01*
X177207296Y-95611750D01*
X177517627Y-95549350D01*
X177851638Y-95516750D01*
X178251908Y-95507750D01*
X178013532Y-100222090D01*
X177207879Y-100222090D01*
X176402467Y-100222090D01*
X176441887Y-100468210D01*
X176502777Y-100767200D01*
X176590657Y-101069570D01*
X176706727Y-101377700D01*
X176852180Y-101694010D01*
X177028214Y-102020880D01*
X177236029Y-102360690D01*
X177751787Y-103088750D01*
X178001029Y-103398560D01*
X178013529Y-101810320D01*
X178013529Y-100222090D01*
X178013532Y-100222090D01*
X178251908Y-95507750D01*
X178751354Y-95522150D01*
X179123898Y-95579950D01*
X179439064Y-95659350D01*
X179743522Y-95758850D01*
X180036673Y-95877900D01*
X180317917Y-96015900D01*
X180586656Y-96172260D01*
X180842292Y-96346400D01*
X181084227Y-96537730D01*
X181311860Y-96745670D01*
X181524594Y-96969630D01*
X181721829Y-97209010D01*
X181902967Y-97463240D01*
X182067408Y-97731720D01*
X182214557Y-98013870D01*
X182343811Y-98309100D01*
X182454573Y-98616820D01*
X182546243Y-98936450D01*
X182594613Y-99145290D01*
X182621013Y-99334710D01*
X182634693Y-99967800D01*
X174791054Y-100221070D01*
X174623697Y-100239670D01*
X174580567Y-100262670D01*
X174558797Y-100298370D01*
X174562397Y-100418720D01*
X174600477Y-100622310D01*
X174658117Y-100894820D01*
X174734557Y-101159450D01*
X174829627Y-101415890D01*
X174943173Y-101663850D01*
X175075039Y-101903000D01*
X175225061Y-102133050D01*
X175393084Y-102353680D01*
X175578946Y-102564580D01*
X175916359Y-102877370D01*
X176294984Y-103150360D01*
X176697987Y-103372860D01*
X177108533Y-103534160D01*
X177469298Y-103635820D01*
X177576014Y-103658620D01*
X177322205Y-103329820D01*
X177031559Y-102935520D01*
X176775344Y-102550440D01*
X176553050Y-102173470D01*
X176364166Y-101803530D01*
X176208181Y-101439540D01*
X176084582Y-101080390D01*
X175992862Y-100725020D01*
X175932502Y-100372310D01*
X175913272Y-100221610D01*
X175232198Y-100221610D01*
X174790915Y-100221150D01*
X174790915Y-100221160D01*
X174791054Y-100221070D01*
X182634693Y-99967800D01*
X182622303Y-100601690D01*
X182595903Y-100789970D01*
X182546953Y-100999140D01*
X182451843Y-101325860D01*
X182333942Y-101652850D01*
X182200332Y-101962190D01*
X182058084Y-102235980D01*
X181913394Y-102487140D01*
X182046307Y-102728450D01*
X182407364Y-103443700D01*
X182725055Y-104164310D01*
X182865263Y-104542390D01*
X182954513Y-104849050D01*
X183001743Y-105122180D01*
X183015873Y-105399710D01*
X183004293Y-105653610D01*
X182963093Y-105834580D01*
X182884233Y-105963290D01*
X182759657Y-106060390D01*
X182618523Y-106117690D01*
X182418120Y-106119690D01*
X182235473Y-106088990D01*
X182031907Y-106018690D01*
X181808434Y-105909410D01*
X181566062Y-105761830D01*
X181305799Y-105576610D01*
X181028659Y-105354420D01*
X180427781Y-104801810D01*
X179935304Y-104314380D01*
X180237183Y-104549200D01*
X180925290Y-105058140D01*
X181515595Y-105438970D01*
X182001354Y-105687740D01*
X182202919Y-105761340D01*
X182375818Y-105800440D01*
X182503804Y-105803440D01*
X182588044Y-105748640D01*
X182626374Y-105703140D01*
X182645724Y-105650240D01*
X182642424Y-105435020D01*
X182576174Y-105073630D01*
X182422894Y-104627780D01*
X182181512Y-104094700D01*
X181850956Y-103471600D01*
X181562295Y-102957010D01*
X181272914Y-103228130D01*
X181050059Y-103424140D01*
X180817937Y-103603530D01*
X180577282Y-103766100D01*
X180328822Y-103911700D01*
X179811413Y-104151220D01*
X179271556Y-104320670D01*
X178715095Y-104418670D01*
X178432465Y-104440370D01*
X178147874Y-104443370D01*
X177862057Y-104428070D01*
X177575741Y-104393970D01*
X177289656Y-104340970D01*
X177004537Y-104268870D01*
X176689007Y-104156570D01*
X176333213Y-103995770D01*
X175983623Y-103809330D01*
X175686698Y-103620170D01*
X175401729Y-103387430D01*
X175093170Y-103090450D01*
X174806895Y-102776330D01*
X174588779Y-102492200D01*
X174359453Y-102104780D01*
X174163701Y-101685170D01*
X174006895Y-101246470D01*
X173894408Y-100801820D01*
X173850918Y-100432180D01*
X173836418Y-99967320D01*
X173850918Y-99502470D01*
X173894408Y-99132830D01*
X174005543Y-98688560D01*
X174158239Y-98260220D01*
X174352372Y-97848110D01*
X174587817Y-97452540D01*
X174831348Y-97135540D01*
X175147752Y-96794170D01*
X175487991Y-96477580D01*
X175803027Y-96234930D01*
X176085920Y-96047690D01*
X175801345Y-95774900D01*
X175429867Y-95434310D01*
X175068604Y-95132190D01*
X174726190Y-94873810D01*
X174411258Y-94664500D01*
X174132441Y-94509520D01*
X173898373Y-94414220D01*
X173717688Y-94383820D01*
X173650058Y-94394620D01*
X173599018Y-94423620D01*
X173554118Y-94485220D01*
X173525178Y-94573420D01*
X173514818Y-94824270D01*
X173567228Y-95165880D01*
X173681711Y-95587920D01*
X173766071Y-95831820D01*
X173815341Y-95933300D01*
X174028771Y-95705930D01*
X174178451Y-95541140D01*
X174212491Y-95521840D01*
X174225851Y-95539140D01*
X174349390Y-97224950D01*
X173680255Y-96669020D01*
X173015927Y-96107800D01*
X173172156Y-96086900D01*
X173479083Y-96063100D01*
X173585673Y-96054100D01*
X173630023Y-96037100D01*
X173486294Y-95673450D01*
X173372787Y-95381970D01*
X173290197Y-95118490D01*
X173238517Y-94882920D01*
X173217747Y-94675120D01*
X173227887Y-94494980D01*
X173268937Y-94342380D01*
X173340897Y-94217210D01*
X173443760Y-94119310D01*
X173584625Y-94053610D01*
X173758137Y-94032310D01*
X173758083Y-94032830D01*
D14*
X128185520Y-105364280D02*
G75*
G03*
X128185520Y-105364280I-200000J0D01*
G01*
X153430580Y-103017320D02*
G75*
G03*
X153430580Y-103017320I-200000J0D01*
G01*
X171223280Y-102471220D02*
G75*
G03*
X171223280Y-102471220I-200000J0D01*
G01*
D15*
X138810900Y-109520000D02*
X138810900Y-108920000D01*
X133610900Y-109520000D02*
X133610900Y-108920000D01*
X136210900Y-108320000D02*
X135710900Y-108320000D01*
X136210900Y-108320000D02*
X136710900Y-108320000D01*
X136210900Y-110120000D02*
X135710900Y-110120000D01*
X136210900Y-110120000D02*
X136710900Y-110120000D01*
X157978700Y-108164200D02*
X158478700Y-108164200D01*
X157978700Y-108164200D02*
X157478700Y-108164200D01*
X157978700Y-106364200D02*
X158478700Y-106364200D01*
X157978700Y-106364200D02*
X157478700Y-106364200D01*
X155378700Y-107564200D02*
X155378700Y-106964200D01*
X160578700Y-107564200D02*
X160578700Y-106964200D01*
X165957800Y-108335800D02*
X165957800Y-108935800D01*
X171157800Y-108335800D02*
X171157800Y-108935800D01*
X168557800Y-109535800D02*
X169057800Y-109535800D01*
X168557800Y-109535800D02*
X168057800Y-109535800D01*
X168557800Y-107735800D02*
X169057800Y-107735800D01*
X168557800Y-107735800D02*
X168057800Y-107735800D01*
D12*
X138295930Y-90829275D02*
X139028142Y-86689231D01*
X142283980Y-101468390D02*
X139874391Y-99781178D01*
X145730807Y-100860621D02*
X142283980Y-101468390D01*
X159419635Y-98446911D02*
X161106847Y-96037323D01*
X159528385Y-87085421D02*
X157424351Y-83445483D01*
X139874391Y-99781178D02*
X139447217Y-97358551D01*
X138405328Y-91449704D02*
X138295930Y-90829275D01*
X161106847Y-96037323D02*
X160679672Y-93614696D01*
X159637783Y-87705849D02*
X159528385Y-87085421D01*
X159419635Y-98446911D02*
X155972808Y-99054680D01*
X142142788Y-85138286D02*
G75*
G03*
X139028142Y-86689231I-988723J-1917349D01*
G01*
X157408401Y-83440001D02*
G75*
G03*
X153966655Y-83070205I-1856446J-1076898D01*
G01*
M02*
