%TF.GenerationSoftware,KiCad,Pcbnew,(6.0.4-0)*%
%TF.CreationDate,2022-07-01T13:05:59-04:00*%
%TF.ProjectId,sr-71,73722d37-312e-46b6-9963-61645f706362,rev?*%
%TF.SameCoordinates,Original*%
%TF.FileFunction,Copper,L1,Top*%
%TF.FilePolarity,Positive*%
%FSLAX46Y46*%
G04 Gerber Fmt 4.6, Leading zero omitted, Abs format (unit mm)*
G04 Created by KiCad (PCBNEW (6.0.4-0)) date 2022-07-01 13:05:59*
%MOMM*%
%LPD*%
G01*
G04 APERTURE LIST*
%TA.AperFunction,ComponentPad*%
%ADD10R,1.700000X1.700000*%
%TD*%
%TA.AperFunction,ComponentPad*%
%ADD11O,1.700000X1.700000*%
%TD*%
G04 APERTURE END LIST*
G36*
X154984780Y-119818226D02*
G01*
X153244838Y-119814696D01*
X151925020Y-119812019D01*
X149090578Y-119806269D01*
X149090578Y-119805740D01*
X134481646Y-119777532D01*
X128483050Y-119765949D01*
X127520319Y-119590247D01*
X125959690Y-119237814D01*
X124503447Y-118771693D01*
X123155210Y-118193951D01*
X121918592Y-117507172D01*
X120797214Y-116713938D01*
X120537895Y-116481380D01*
X181314438Y-116481380D01*
X189814178Y-116481380D01*
X189814178Y-110481231D01*
X181314438Y-110481231D01*
X181314438Y-116481380D01*
X120537895Y-116481380D01*
X119795726Y-115815802D01*
X118916709Y-114815862D01*
X118164816Y-113716188D01*
X117606194Y-112672840D01*
X117215005Y-111668768D01*
X116971090Y-110639891D01*
X116854819Y-109522129D01*
X116868763Y-108415221D01*
X117022758Y-107331564D01*
X117312662Y-106276848D01*
X117416921Y-106025684D01*
X131287525Y-106025684D01*
X131332483Y-106485604D01*
X131449273Y-106952242D01*
X131638408Y-107426632D01*
X131829611Y-107767180D01*
X132069390Y-108085505D01*
X132350510Y-108376960D01*
X132665734Y-108636376D01*
X133008867Y-108858067D01*
X133372153Y-109038418D01*
X133749391Y-109171228D01*
X134132830Y-109250810D01*
X134481646Y-109281298D01*
X134823742Y-109277170D01*
X135157056Y-109240480D01*
X135479517Y-109172265D01*
X135790609Y-109074081D01*
X136087749Y-108946957D01*
X136369385Y-108791927D01*
X136633968Y-108610544D01*
X136879949Y-108403839D01*
X137105773Y-108173879D01*
X137149512Y-108119594D01*
X152649525Y-108119594D01*
X153244838Y-108128907D01*
X153840150Y-108113932D01*
X153848935Y-107544975D01*
X153848476Y-107517574D01*
X154343999Y-107517574D01*
X154348127Y-107903080D01*
X154378617Y-108104619D01*
X154580672Y-108127876D01*
X154984780Y-108139253D01*
X155381655Y-108135125D01*
X155560974Y-108113932D01*
X155386307Y-107913944D01*
X154999250Y-107525340D01*
X154601859Y-107146549D01*
X154397736Y-106976017D01*
X154361567Y-107143438D01*
X154343999Y-107517574D01*
X153848476Y-107517574D01*
X153842214Y-107143451D01*
X153812761Y-106976017D01*
X153213315Y-107530483D01*
X152649525Y-108119594D01*
X137149512Y-108119594D01*
X137309381Y-107921180D01*
X137488697Y-107646778D01*
X137643208Y-107352739D01*
X137770333Y-107039581D01*
X137809005Y-106908832D01*
X151433582Y-106908832D01*
X151453215Y-107143959D01*
X151511608Y-107378570D01*
X151606691Y-107603363D01*
X151734334Y-107809550D01*
X151842853Y-107930991D01*
X151925020Y-107982151D01*
X152222160Y-107729453D01*
X152846410Y-107121737D01*
X153703197Y-106261849D01*
X154503151Y-106261849D01*
X155362013Y-107121745D01*
X155987297Y-107729461D01*
X156284437Y-107982159D01*
X156358851Y-107952703D01*
X156439983Y-107870537D01*
X156600696Y-107595619D01*
X156726789Y-107244220D01*
X156777949Y-106905220D01*
X156767101Y-106753294D01*
X156716976Y-106608082D01*
X156394515Y-106121807D01*
X156288021Y-105971424D01*
X170381778Y-105971424D01*
X170424670Y-106499040D01*
X170550760Y-107004952D01*
X170755399Y-107481409D01*
X171032386Y-107919625D01*
X171375516Y-108312883D01*
X171779625Y-108653431D01*
X172238513Y-108933000D01*
X172746492Y-109144357D01*
X172746492Y-109144886D01*
X173164555Y-109227569D01*
X173682868Y-109254956D01*
X174207902Y-109226018D01*
X174649219Y-109141269D01*
X175197505Y-108921644D01*
X175693598Y-108616236D01*
X176125615Y-108232280D01*
X176314750Y-108013689D01*
X176483732Y-107779078D01*
X176685270Y-107425611D01*
X176842366Y-107054575D01*
X176952954Y-106671135D01*
X177018066Y-106279428D01*
X177036666Y-105885138D01*
X177007726Y-105492911D01*
X176931245Y-105106890D01*
X176806703Y-104732234D01*
X176649091Y-104401505D01*
X176453238Y-104087831D01*
X176222244Y-103794826D01*
X175961277Y-103527142D01*
X175673958Y-103288395D01*
X175364414Y-103081689D01*
X175037302Y-102911157D01*
X174695722Y-102781451D01*
X174244587Y-102691532D01*
X173706120Y-102658459D01*
X173179025Y-102682219D01*
X172762513Y-102763867D01*
X172236447Y-102983492D01*
X171768259Y-103265646D01*
X171361046Y-103604125D01*
X171019467Y-103994282D01*
X170747131Y-104431467D01*
X170547143Y-104909989D01*
X170424670Y-105425204D01*
X170381778Y-105971424D01*
X156288021Y-105971424D01*
X155891703Y-105411772D01*
X155772847Y-105232456D01*
X155582672Y-105361130D01*
X155292250Y-105521844D01*
X155119652Y-105648449D01*
X154846800Y-105907865D01*
X154503151Y-106261849D01*
X153703197Y-106261849D01*
X153703205Y-106261841D01*
X153381262Y-105922843D01*
X153061384Y-105633455D01*
X152744609Y-105427268D01*
X152534802Y-105327531D01*
X152431448Y-105305835D01*
X152360151Y-105368872D01*
X151862506Y-106049968D01*
X151496122Y-106587921D01*
X151443928Y-106741917D01*
X151433582Y-106908832D01*
X137809005Y-106908832D01*
X137868001Y-106709368D01*
X137935697Y-106362618D01*
X137963087Y-106026206D01*
X137949646Y-105681006D01*
X137896417Y-105333741D01*
X137806501Y-104989060D01*
X137681443Y-104653164D01*
X137523315Y-104332253D01*
X137333146Y-104032012D01*
X137113004Y-103758644D01*
X136853588Y-103499228D01*
X136576085Y-103273920D01*
X136282046Y-103081681D01*
X135973021Y-102923553D01*
X135650044Y-102801080D01*
X135313631Y-102713747D01*
X134966882Y-102662587D01*
X134609797Y-102647611D01*
X134416017Y-102655345D01*
X133815537Y-102741647D01*
X133538550Y-102819678D01*
X133275001Y-102922513D01*
X133023853Y-103049638D01*
X132783040Y-103202599D01*
X132551014Y-103382949D01*
X132326737Y-103589658D01*
X131928312Y-104040275D01*
X131636857Y-104502261D01*
X131437388Y-105004041D01*
X131315431Y-105574549D01*
X131287525Y-106025684D01*
X117416921Y-106025684D01*
X117735892Y-105257273D01*
X118290380Y-104277487D01*
X118972510Y-103343696D01*
X119780211Y-102462612D01*
X120709354Y-101638890D01*
X122383153Y-100475136D01*
X124190794Y-99597153D01*
X126551375Y-98867483D01*
X127760087Y-98632872D01*
X128876814Y-98511433D01*
X129270588Y-98489208D01*
X129336218Y-98016369D01*
X129507784Y-96734793D01*
X129780117Y-95305424D01*
X130223501Y-93867268D01*
X130826049Y-92448749D01*
X131577424Y-91079324D01*
X132946333Y-89168848D01*
X134579825Y-87435102D01*
X136454128Y-85891528D01*
X138545474Y-84551559D01*
X140828540Y-83429146D01*
X143280069Y-82537728D01*
X145874742Y-81890740D01*
X148588788Y-81502649D01*
X151665604Y-81448904D01*
X154711418Y-81655625D01*
X156874593Y-82060769D01*
X158955605Y-82631277D01*
X160941527Y-83360431D01*
X162817899Y-84241515D01*
X164572314Y-85267294D01*
X166191853Y-86431045D01*
X167662047Y-87725024D01*
X168969978Y-89143024D01*
X170134250Y-90742928D01*
X171037035Y-92288568D01*
X171273197Y-92702498D01*
X171517627Y-92743839D01*
X174404273Y-92343863D01*
X175510147Y-92313891D01*
X176685270Y-92376936D01*
X179094426Y-92736603D01*
X181323746Y-93395995D01*
X183341710Y-94329789D01*
X185115247Y-95513177D01*
X186613347Y-96920845D01*
X187803972Y-98526948D01*
X188273194Y-99396147D01*
X188654049Y-100305652D01*
X188941886Y-101252363D01*
X189132572Y-102232665D01*
X189195616Y-103636198D01*
X189065394Y-105039212D01*
X189003897Y-105363739D01*
X189704114Y-105490348D01*
X190715939Y-105728576D01*
X191689005Y-106066539D01*
X192611946Y-106495455D01*
X193470291Y-107006534D01*
X194252156Y-107590994D01*
X194943586Y-108240051D01*
X195532181Y-108945433D01*
X196005020Y-109697842D01*
X196376575Y-110533451D01*
X196615319Y-111375776D01*
X196726423Y-112218101D01*
X196714543Y-113052676D01*
X196585352Y-113871231D01*
X196343507Y-114668598D01*
X195994691Y-115435477D01*
X195544071Y-116166182D01*
X194995786Y-116852445D01*
X194356031Y-117486513D01*
X193629978Y-118062189D01*
X192822276Y-118571720D01*
X191938091Y-119007868D01*
X190982594Y-119363401D01*
X189961469Y-119630570D01*
X189814178Y-119653993D01*
X188879363Y-119802652D01*
X178895477Y-119866731D01*
X173682868Y-119856157D01*
X156284437Y-119820862D01*
X154984780Y-119818226D01*
G37*
G36*
X174037860Y-103392257D02*
G01*
X174310195Y-103426881D01*
X174572712Y-103498710D01*
X174837296Y-103604649D01*
X175098259Y-103740039D01*
X175348891Y-103900236D01*
X175584019Y-104082137D01*
X175797958Y-104280575D01*
X175983994Y-104492448D01*
X176136958Y-104713108D01*
X176321957Y-105054171D01*
X176445465Y-105374050D01*
X176520395Y-105713563D01*
X176557603Y-106113539D01*
X176558662Y-106637539D01*
X176520940Y-106843210D01*
X176449108Y-107093842D01*
X176316301Y-107452992D01*
X176151452Y-107767701D01*
X175942164Y-108057089D01*
X175676030Y-108342344D01*
X175364420Y-108591423D01*
X174985116Y-108812083D01*
X174578422Y-108984681D01*
X174186198Y-109087517D01*
X173893709Y-109123691D01*
X173609489Y-109133004D01*
X173332504Y-109114906D01*
X173062751Y-109069430D01*
X172798686Y-108996050D01*
X172540302Y-108895281D01*
X172286572Y-108766606D01*
X172036975Y-108609510D01*
X171795646Y-108435877D01*
X171621497Y-108284983D01*
X171472669Y-108112900D01*
X171306270Y-107877773D01*
X171108351Y-107534640D01*
X170959523Y-107169803D01*
X170861336Y-106789984D01*
X170813277Y-106401893D01*
X170816372Y-106012251D01*
X170870633Y-105626746D01*
X170976054Y-105253643D01*
X171133150Y-104898110D01*
X171264923Y-104679000D01*
X171421504Y-104469193D01*
X171796675Y-104085238D01*
X172236441Y-103764844D01*
X172720650Y-103527134D01*
X173162999Y-103426365D01*
X173717486Y-103385024D01*
X174037860Y-103392257D01*
G37*
G36*
X135091921Y-103404648D02*
G01*
X135366321Y-103458390D01*
X135725990Y-103582413D01*
X136072221Y-103760182D01*
X136397267Y-103983940D01*
X136693889Y-104246973D01*
X136955890Y-104542044D01*
X137173964Y-104861922D01*
X137342946Y-105199369D01*
X137454566Y-105547151D01*
X137499524Y-105886667D01*
X137508837Y-106303177D01*
X137484046Y-106713490D01*
X137427718Y-107032850D01*
X137279406Y-107427140D01*
X137078386Y-107791976D01*
X136829824Y-108122187D01*
X136538366Y-108413126D01*
X136210738Y-108659622D01*
X135851588Y-108857543D01*
X135466082Y-109002755D01*
X135060423Y-109089570D01*
X135060423Y-109090099D01*
X134583963Y-109139708D01*
X133940076Y-109031703D01*
X133658440Y-108949539D01*
X133399540Y-108846704D01*
X133159246Y-108720611D01*
X132933937Y-108570232D01*
X132721030Y-108394017D01*
X132516390Y-108190928D01*
X132305552Y-107935129D01*
X132129334Y-107663828D01*
X131988258Y-107379607D01*
X131881287Y-107085052D01*
X131807389Y-106783263D01*
X131767598Y-106477339D01*
X131760878Y-106168829D01*
X131786199Y-105862389D01*
X131844073Y-105559565D01*
X131933992Y-105263975D01*
X132054915Y-104977688D01*
X132207360Y-104703802D01*
X132389777Y-104444905D01*
X132603203Y-104204608D01*
X132846598Y-103984985D01*
X133118931Y-103789646D01*
X133484284Y-103604128D01*
X133902347Y-103471836D01*
X134349865Y-103395872D01*
X134801001Y-103379864D01*
X135091921Y-103404648D01*
G37*
D10*
X182946152Y-112274285D03*
D11*
X182946152Y-114814285D03*
X185486152Y-112274285D03*
X185486152Y-114814285D03*
X188026152Y-112274285D03*
X188026152Y-114814285D03*
M02*
