%TF.GenerationSoftware,KiCad,Pcbnew,(5.1.12-1-10_14)*%
%TF.CreationDate,2022-04-05T15:16:14-04:00*%
%TF.ProjectId,sr-71,73722d37-312e-46b6-9963-61645f706362,rev?*%
%TF.SameCoordinates,Original*%
%TF.FileFunction,Copper,L1,Top*%
%TF.FilePolarity,Positive*%
%FSLAX46Y46*%
G04 Gerber Fmt 4.6, Leading zero omitted, Abs format (unit mm)*
G04 Created by KiCad (PCBNEW (5.1.12-1-10_14)) date 2022-04-05 15:16:14*
%MOMM*%
%LPD*%
G01*
G04 APERTURE LIST*
%TA.AperFunction,EtchedComponent*%
%ADD10C,0.150000*%
%TD*%
%TA.AperFunction,ComponentPad*%
%ADD11R,1.700000X1.700000*%
%TD*%
%TA.AperFunction,ComponentPad*%
%ADD12O,1.700000X1.700000*%
%TD*%
G04 APERTURE END LIST*
D10*
G36*
X151635026Y-80512640D02*
G01*
X131833652Y-100736728D01*
X132159214Y-100750169D01*
X132474954Y-100796677D01*
X132781397Y-100876259D01*
X133075953Y-100987879D01*
X133357589Y-101131539D01*
X133625789Y-101306723D01*
X133878487Y-101512396D01*
X134114649Y-101749074D01*
X134315671Y-101998153D01*
X134488785Y-102271523D01*
X134632965Y-102564528D01*
X134747170Y-102869936D01*
X134829333Y-103184129D01*
X134877392Y-103501420D01*
X134889801Y-103815613D01*
X134865010Y-104122056D01*
X134802997Y-104438315D01*
X134714115Y-104739072D01*
X134598360Y-105024325D01*
X134457800Y-105292528D01*
X134293983Y-105542641D01*
X134108465Y-105773117D01*
X133902794Y-105982923D01*
X133678518Y-106171026D01*
X133437188Y-106336391D01*
X133180357Y-106477983D01*
X132909572Y-106593738D01*
X132626386Y-106683138D01*
X132331831Y-106745151D01*
X132028489Y-106778740D01*
X131716881Y-106782867D01*
X131398555Y-106754962D01*
X131049221Y-106682098D01*
X130705572Y-106561176D01*
X130374327Y-106397361D01*
X130061685Y-106194788D01*
X129773847Y-105958627D01*
X129518048Y-105693011D01*
X129299457Y-105402589D01*
X129124792Y-105092532D01*
X128952707Y-104659999D01*
X128846255Y-104234186D01*
X128805430Y-103815605D01*
X128830750Y-103404262D01*
X128941854Y-102884396D01*
X129123755Y-102427061D01*
X129389373Y-102005897D01*
X129752141Y-101595071D01*
X129957296Y-101406452D01*
X130168653Y-101242635D01*
X130387760Y-101103110D01*
X130617204Y-100986839D01*
X130856982Y-100893303D01*
X131109165Y-100821990D01*
X131656934Y-100743443D01*
X131833652Y-100736723D01*
X131833652Y-100736728D01*
X151635026Y-80512640D01*
X167468685Y-100747068D01*
X168303260Y-100845768D01*
X168975053Y-101133090D01*
X169558480Y-101574923D01*
X170096431Y-102248269D01*
X170421477Y-103045117D01*
X170497442Y-103863156D01*
X170350164Y-104671892D01*
X170014265Y-105388127D01*
X169496986Y-105983958D01*
X168900123Y-106410805D01*
X168294473Y-106662469D01*
X167515193Y-106755486D01*
X166626876Y-106666085D01*
X165989188Y-106380314D01*
X165383541Y-105934349D01*
X164952042Y-105417067D01*
X164612529Y-104755609D01*
X164463185Y-104073478D01*
X164473001Y-103320038D01*
X164646118Y-102662712D01*
X164992352Y-102008490D01*
X165452271Y-101508261D01*
X166099260Y-101061261D01*
X166669252Y-100830782D01*
X167468685Y-100747068D01*
X151635026Y-80512640D01*
X151122912Y-103093179D01*
X151230917Y-103256474D01*
X151689287Y-103903465D01*
X151983326Y-104346849D01*
X152029319Y-104479140D01*
X152039135Y-104617631D01*
X151992626Y-104926656D01*
X151877906Y-105247051D01*
X151731144Y-105497683D01*
X151589552Y-105598968D01*
X150748259Y-104815037D01*
X149965878Y-104031105D01*
X150279037Y-103708644D01*
X150684696Y-103356727D01*
X150949798Y-103210482D01*
X151122912Y-103093179D01*
X151635026Y-80512640D01*
X148077105Y-103160356D01*
X148362358Y-103270944D01*
X148651230Y-103458529D01*
X148943200Y-103722596D01*
X149236205Y-104031105D01*
X148455375Y-104815037D01*
X147615632Y-105598968D01*
X147441484Y-105442388D01*
X147238913Y-105049129D01*
X147167600Y-104621251D01*
X147177416Y-104468803D01*
X147224959Y-104328762D01*
X147558273Y-103838351D01*
X148011991Y-103217718D01*
X148077105Y-103160356D01*
X151635026Y-80512640D01*
X149335943Y-104682226D01*
X149369531Y-105201058D01*
X149361276Y-105719375D01*
X148818674Y-105733318D01*
X148276072Y-105724005D01*
X148790253Y-105187604D01*
X149335943Y-104682226D01*
X151635026Y-80512640D01*
X149869242Y-104682226D01*
X150417530Y-105182972D01*
X150929642Y-105719375D01*
X150404610Y-105743134D01*
X149851674Y-105711612D01*
X149819633Y-105176762D01*
X149835640Y-104835695D01*
X149869242Y-104682226D01*
X151635026Y-80512640D01*
X164029617Y-107281035D01*
X164101449Y-107281035D01*
X164173278Y-107281035D01*
X166362809Y-108211728D01*
X168552339Y-109141903D01*
X169473213Y-109527927D01*
X170395122Y-109913433D01*
X170710347Y-109993014D01*
X171026608Y-110073112D01*
X171279304Y-110298423D01*
X171533037Y-110524766D01*
X172100959Y-110617267D01*
X172668885Y-110709768D01*
X173147924Y-110695825D01*
X173626965Y-110682384D01*
X174594864Y-110575413D01*
X175295597Y-110529939D01*
X176501726Y-110482912D01*
X177004019Y-110399198D01*
X177506831Y-110317031D01*
X178009126Y-110401264D01*
X181288512Y-110723725D01*
X181804759Y-110717004D01*
X182322041Y-110709781D01*
X182889448Y-110617280D01*
X183457373Y-110525811D01*
X183711104Y-110299468D01*
X183964318Y-110073644D01*
X184299698Y-109989411D01*
X184635079Y-109904662D01*
X186140412Y-109272141D01*
X187645230Y-108639105D01*
X189242033Y-107961628D01*
X190838836Y-107283634D01*
X190892062Y-107283104D01*
X190945288Y-107282575D01*
X190945288Y-107785903D01*
X190945288Y-108289233D01*
X190341707Y-108935705D01*
X189738643Y-109582177D01*
X189738643Y-109748574D01*
X189738643Y-109914973D01*
X190318969Y-109473661D01*
X190899296Y-109031828D01*
X190852271Y-109154301D01*
X190805244Y-109276258D01*
X189295775Y-110938688D01*
X187786825Y-112600602D01*
X187628178Y-112577875D01*
X187470047Y-112555147D01*
X186971887Y-113156145D01*
X186473727Y-113757141D01*
X186473727Y-113948861D01*
X186473727Y-114140580D01*
X185693928Y-114650628D01*
X184913614Y-115161189D01*
X184315203Y-115408720D01*
X183716271Y-115656767D01*
X182564921Y-116047440D01*
X181414605Y-116438632D01*
X180343352Y-116486175D01*
X179810568Y-116566788D01*
X179069526Y-116769877D01*
X178702107Y-116956946D01*
X178347089Y-117051513D01*
X177992590Y-117146083D01*
X177459806Y-117141956D01*
X177460336Y-117142485D01*
X176927552Y-117137828D01*
X176856755Y-117111476D01*
X176785958Y-117085626D01*
X176500189Y-117012246D01*
X176214934Y-116939383D01*
X175210861Y-116647926D01*
X174480156Y-116439153D01*
X173576337Y-116439153D01*
X172448238Y-116056233D01*
X171320658Y-115673309D01*
X170668503Y-115391673D01*
X170016863Y-115110553D01*
X169426202Y-114738483D01*
X168836057Y-114365894D01*
X168676894Y-114219135D01*
X168516697Y-114072373D01*
X168516697Y-113915277D01*
X168516697Y-113757665D01*
X168018537Y-113156666D01*
X167520374Y-112555671D01*
X167362246Y-112579430D01*
X167203599Y-112603190D01*
X165683795Y-110919056D01*
X164163473Y-109234922D01*
X164130918Y-109136220D01*
X164097327Y-109037001D01*
X164675071Y-109476251D01*
X165251778Y-109915500D01*
X165251778Y-109719128D01*
X165251778Y-109521725D01*
X164667835Y-108934681D01*
X164083891Y-108347121D01*
X164056504Y-107815369D01*
X164030152Y-107283102D01*
X164029623Y-107280985D01*
X164029617Y-107281035D01*
X151635026Y-80512640D01*
X148499301Y-80567932D01*
X145733577Y-80963773D01*
X143089294Y-81622649D01*
X140591257Y-82531120D01*
X138264265Y-83675236D01*
X136133131Y-85040528D01*
X134223170Y-86613558D01*
X132558155Y-88380374D01*
X131163407Y-90327028D01*
X130397563Y-91723324D01*
X129783131Y-93168714D01*
X129331996Y-94634256D01*
X129053977Y-96090499D01*
X128879309Y-97396879D01*
X128812132Y-97878503D01*
X128411121Y-97901231D01*
X127273206Y-98025254D01*
X126041240Y-98263998D01*
X123635702Y-99007623D01*
X121793437Y-99902142D01*
X120087599Y-101088632D01*
X119140370Y-101927858D01*
X118317680Y-102826510D01*
X117622117Y-103777357D01*
X117057292Y-104775746D01*
X116625794Y-105815477D01*
X116330204Y-106889830D01*
X116173626Y-107994154D01*
X116159154Y-109122252D01*
X116278010Y-110261199D01*
X116526572Y-111310232D01*
X116925514Y-112333423D01*
X117494471Y-113396408D01*
X118260834Y-114517270D01*
X119156385Y-115536329D01*
X120177513Y-116451001D01*
X121319563Y-117259737D01*
X122579951Y-117959955D01*
X123954027Y-118548549D01*
X125438173Y-119023455D01*
X127028774Y-119382606D01*
X128010108Y-119562441D01*
X149010894Y-119602747D01*
X179384751Y-119664760D01*
X189559324Y-119598614D01*
X190662099Y-119423947D01*
X191703377Y-119151611D01*
X192676962Y-118789360D01*
X193577683Y-118344944D01*
X194400889Y-117825597D01*
X195140894Y-117239068D01*
X195793050Y-116592596D01*
X196351157Y-115893413D01*
X196811077Y-115148757D01*
X197166610Y-114366892D01*
X197412591Y-113555055D01*
X197544367Y-112719964D01*
X197556246Y-111869887D01*
X197443074Y-111011541D01*
X197199678Y-110153196D01*
X196820890Y-109301568D01*
X196339266Y-108534173D01*
X195739818Y-107815872D01*
X195034953Y-107153895D01*
X194238102Y-106558583D01*
X193363220Y-106037684D01*
X192422708Y-105600503D01*
X191430521Y-105256338D01*
X190400093Y-105013458D01*
X189685924Y-104884268D01*
X189748972Y-104553538D01*
X189881264Y-103123651D01*
X189817184Y-101693247D01*
X189622879Y-100694342D01*
X189329359Y-99730060D01*
X188941784Y-98802984D01*
X188462745Y-97916733D01*
X187249898Y-96280142D01*
X185723376Y-94846119D01*
X183915219Y-93639992D01*
X181859012Y-92688111D01*
X179587316Y-92015802D01*
X177132170Y-91649415D01*
X175934827Y-91585854D01*
X174807763Y-91615826D01*
X171865824Y-92023555D01*
X171617261Y-91981179D01*
X171375932Y-91560015D01*
X170455574Y-89984919D01*
X169269600Y-88354009D01*
X167936349Y-86909138D01*
X166438249Y-85590354D01*
X164788220Y-84404380D01*
X163000216Y-83358966D01*
X161087670Y-82461346D01*
X159064023Y-81718240D01*
X156943221Y-81136363D01*
X154738189Y-80723468D01*
X151635026Y-80512640D01*
G37*
G36*
X132007801Y-101404909D02*
G01*
X131596456Y-101419382D01*
X131188730Y-101488629D01*
X130807357Y-101609551D01*
X130474562Y-101778017D01*
X130225996Y-101956817D01*
X130004823Y-102156805D01*
X129810002Y-102375914D01*
X129643603Y-102611558D01*
X129504594Y-102861155D01*
X129394524Y-103121605D01*
X129312874Y-103391872D01*
X129260164Y-103667825D01*
X129236907Y-103947394D01*
X129243098Y-104227998D01*
X129279272Y-104507051D01*
X129346452Y-104781969D01*
X129444121Y-105050685D01*
X129572795Y-105309585D01*
X129732990Y-105556598D01*
X129925228Y-105789658D01*
X130111778Y-105975176D01*
X130306083Y-106135374D01*
X130511238Y-106272833D01*
X130730348Y-106387037D01*
X130966507Y-106481607D01*
X131223340Y-106556537D01*
X131809866Y-106654722D01*
X132243949Y-106609248D01*
X132613953Y-106529666D01*
X132965352Y-106397891D01*
X133292980Y-106217024D01*
X133591155Y-105992231D01*
X133856770Y-105727130D01*
X134083629Y-105426372D01*
X134266565Y-105094095D01*
X134401957Y-104734426D01*
X134453633Y-104442972D01*
X134475858Y-104069351D01*
X134467603Y-103689528D01*
X134426778Y-103379987D01*
X134324974Y-103063209D01*
X134170979Y-102755737D01*
X133971509Y-102463764D01*
X133733278Y-102195045D01*
X133463012Y-101955267D01*
X133166390Y-101751146D01*
X132851163Y-101589398D01*
X132523019Y-101476228D01*
X132272903Y-101427134D01*
X132007801Y-101404909D01*
G37*
G36*
X167479019Y-101408534D02*
G01*
X166803094Y-101485015D01*
X166159720Y-101739779D01*
X165588180Y-102188849D01*
X165217142Y-102633264D01*
X164967028Y-103156232D01*
X164835771Y-103853345D01*
X164888481Y-104560280D01*
X165295175Y-105522495D01*
X166016577Y-106213407D01*
X166945204Y-106598916D01*
X167950308Y-106595820D01*
X168936297Y-106180340D01*
X169449443Y-105731789D01*
X169824614Y-105162831D01*
X170069044Y-104271929D01*
X170033902Y-103556213D01*
X169823580Y-102875117D01*
X169303716Y-102157332D01*
X168576112Y-101648834D01*
X168043328Y-101457630D01*
X167479019Y-101409055D01*
X167479019Y-101408526D01*
X167479019Y-101408534D01*
G37*
D11*
X175094900Y-112585500D03*
D12*
X175094900Y-115125500D03*
X177634900Y-112585500D03*
X177634900Y-115125500D03*
X180174900Y-112585500D03*
X180174900Y-115125500D03*
M02*
