%TF.GenerationSoftware,KiCad,Pcbnew,(6.0.4-0)*%
%TF.CreationDate,2022-07-01T13:05:59-04:00*%
%TF.ProjectId,sr-71,73722d37-312e-46b6-9963-61645f706362,rev?*%
%TF.SameCoordinates,Original*%
%TF.FileFunction,Copper,L2,Bot*%
%TF.FilePolarity,Positive*%
%FSLAX46Y46*%
G04 Gerber Fmt 4.6, Leading zero omitted, Abs format (unit mm)*
G04 Created by KiCad (PCBNEW (6.0.4-0)) date 2022-07-01 13:05:59*
%MOMM*%
%LPD*%
G01*
G04 APERTURE LIST*
G04 Aperture macros list*
%AMRotRect*
0 Rectangle, with rotation*
0 The origin of the aperture is its center*
0 $1 length*
0 $2 width*
0 $3 Rotation angle, in degrees counterclockwise*
0 Add horizontal line*
21,1,$1,$2,0,0,$3*%
G04 Aperture macros list end*
%ADD10C,0.100000*%
%TA.AperFunction,NonConductor*%
%ADD11C,0.100000*%
%TD*%
%TA.AperFunction,SMDPad,CuDef*%
%ADD12R,1.400000X2.600000*%
%TD*%
%TA.AperFunction,ComponentPad*%
%ADD13R,1.700000X1.700000*%
%TD*%
%TA.AperFunction,ComponentPad*%
%ADD14O,1.700000X1.700000*%
%TD*%
%TA.AperFunction,SMDPad,CuDef*%
%ADD15R,1.500000X1.800000*%
%TD*%
%TA.AperFunction,SMDPad,CuDef*%
%ADD16RotRect,1.270000X5.080000X10.000000*%
%TD*%
%TA.AperFunction,SMDPad,CuDef*%
%ADD17C,17.800000*%
%TD*%
%TA.AperFunction,Conductor*%
%ADD18C,0.250000*%
%TD*%
G04 APERTURE END LIST*
D10*
D11*
X191447142Y-116678971D02*
X190947142Y-118178971D01*
X190447142Y-116678971D01*
X189661428Y-116678971D02*
X189518571Y-116678971D01*
X189375714Y-116750400D01*
X189304285Y-116821828D01*
X189232857Y-116964685D01*
X189161428Y-117250400D01*
X189161428Y-117607542D01*
X189232857Y-117893257D01*
X189304285Y-118036114D01*
X189375714Y-118107542D01*
X189518571Y-118178971D01*
X189661428Y-118178971D01*
X189804285Y-118107542D01*
X189875714Y-118036114D01*
X189947142Y-117893257D01*
X190018571Y-117607542D01*
X190018571Y-117250400D01*
X189947142Y-116964685D01*
X189875714Y-116821828D01*
X189804285Y-116750400D01*
X189661428Y-116678971D01*
X187875714Y-117178971D02*
X187875714Y-118178971D01*
X188232857Y-116607542D02*
X188590000Y-117678971D01*
X187661428Y-117678971D01*
X185018571Y-117464685D02*
X185090000Y-117393257D01*
X185232857Y-117321828D01*
X185375714Y-117321828D01*
X185518571Y-117393257D01*
X185590000Y-117464685D01*
X185661428Y-117607542D01*
X185661428Y-117750400D01*
X185590000Y-117893257D01*
X185518571Y-117964685D01*
X185375714Y-118036114D01*
X185232857Y-118036114D01*
X185090000Y-117964685D01*
X185018571Y-117893257D01*
X185018571Y-117321828D02*
X185018571Y-117893257D01*
X184947142Y-117964685D01*
X184875714Y-117964685D01*
X184732857Y-117893257D01*
X184661428Y-117750400D01*
X184661428Y-117393257D01*
X184804285Y-117178971D01*
X185018571Y-117036114D01*
X185304285Y-116964685D01*
X185590000Y-117036114D01*
X185804285Y-117178971D01*
X185947142Y-117393257D01*
X186018571Y-117678971D01*
X185947142Y-117964685D01*
X185804285Y-118178971D01*
X185590000Y-118321828D01*
X185304285Y-118393257D01*
X185018571Y-118321828D01*
X184804285Y-118178971D01*
X183375714Y-118107542D02*
X183518571Y-118178971D01*
X183804285Y-118178971D01*
X183947142Y-118107542D01*
X184018571Y-118036114D01*
X184090000Y-117893257D01*
X184090000Y-117464685D01*
X184018571Y-117321828D01*
X183947142Y-117250400D01*
X183804285Y-117178971D01*
X183518571Y-117178971D01*
X183375714Y-117250400D01*
X182875714Y-117178971D02*
X182518571Y-118178971D01*
X182161428Y-117178971D02*
X182518571Y-118178971D01*
X182661428Y-118536114D01*
X182732857Y-118607542D01*
X182875714Y-118678971D01*
X181590000Y-118178971D02*
X181590000Y-116678971D01*
X181590000Y-117250400D02*
X181447142Y-117178971D01*
X181161428Y-117178971D01*
X181018571Y-117250400D01*
X180947142Y-117321828D01*
X180875714Y-117464685D01*
X180875714Y-117893257D01*
X180947142Y-118036114D01*
X181018571Y-118107542D01*
X181161428Y-118178971D01*
X181447142Y-118178971D01*
X181590000Y-118107542D01*
X179661428Y-118107542D02*
X179804285Y-118178971D01*
X180090000Y-118178971D01*
X180232857Y-118107542D01*
X180304285Y-117964685D01*
X180304285Y-117393257D01*
X180232857Y-117250400D01*
X180090000Y-117178971D01*
X179804285Y-117178971D01*
X179661428Y-117250400D01*
X179590000Y-117393257D01*
X179590000Y-117536114D01*
X180304285Y-117678971D01*
X178947142Y-118178971D02*
X178947142Y-117178971D01*
X178947142Y-117464685D02*
X178875714Y-117321828D01*
X178804285Y-117250400D01*
X178661428Y-117178971D01*
X178518571Y-117178971D01*
X178232857Y-117178971D02*
X177661428Y-117178971D01*
X178018571Y-116678971D02*
X178018571Y-117964685D01*
X177947142Y-118107542D01*
X177804285Y-118178971D01*
X177661428Y-118178971D01*
X176590000Y-118107542D02*
X176732857Y-118178971D01*
X177018571Y-118178971D01*
X177161428Y-118107542D01*
X177232857Y-117964685D01*
X177232857Y-117393257D01*
X177161428Y-117250400D01*
X177018571Y-117178971D01*
X176732857Y-117178971D01*
X176590000Y-117250400D01*
X176518571Y-117393257D01*
X176518571Y-117536114D01*
X177232857Y-117678971D01*
X175947142Y-118107542D02*
X175804285Y-118178971D01*
X175518571Y-118178971D01*
X175375714Y-118107542D01*
X175304285Y-117964685D01*
X175304285Y-117893257D01*
X175375714Y-117750400D01*
X175518571Y-117678971D01*
X175732857Y-117678971D01*
X175875714Y-117607542D01*
X175947142Y-117464685D01*
X175947142Y-117393257D01*
X175875714Y-117250400D01*
X175732857Y-117178971D01*
X175518571Y-117178971D01*
X175375714Y-117250400D01*
X174875714Y-117178971D02*
X174304285Y-117178971D01*
X174661428Y-116678971D02*
X174661428Y-117964685D01*
X174590000Y-118107542D01*
X174447142Y-118178971D01*
X174304285Y-118178971D01*
X173804285Y-117178971D02*
X173804285Y-118678971D01*
X173804285Y-117250400D02*
X173661428Y-117178971D01*
X173375714Y-117178971D01*
X173232857Y-117250400D01*
X173161428Y-117321828D01*
X173090000Y-117464685D01*
X173090000Y-117893257D01*
X173161428Y-118036114D01*
X173232857Y-118107542D01*
X173375714Y-118178971D01*
X173661428Y-118178971D01*
X173804285Y-118107542D01*
X172447142Y-118178971D02*
X172447142Y-117178971D01*
X172447142Y-116678971D02*
X172518571Y-116750400D01*
X172447142Y-116821828D01*
X172375714Y-116750400D01*
X172447142Y-116678971D01*
X172447142Y-116821828D01*
X171518571Y-118178971D02*
X171661428Y-118107542D01*
X171732857Y-117964685D01*
X171732857Y-116678971D01*
X170732857Y-118178971D02*
X170875714Y-118107542D01*
X170947142Y-118036114D01*
X171018571Y-117893257D01*
X171018571Y-117464685D01*
X170947142Y-117321828D01*
X170875714Y-117250400D01*
X170732857Y-117178971D01*
X170518571Y-117178971D01*
X170375714Y-117250400D01*
X170304285Y-117321828D01*
X170232857Y-117464685D01*
X170232857Y-117893257D01*
X170304285Y-118036114D01*
X170375714Y-118107542D01*
X170518571Y-118178971D01*
X170732857Y-118178971D01*
X169804285Y-117178971D02*
X169232857Y-117178971D01*
X169590000Y-116678971D02*
X169590000Y-117964685D01*
X169518571Y-118107542D01*
X169375714Y-118178971D01*
X169232857Y-118178971D01*
D12*
X132081062Y-105706146D03*
X137281062Y-105706146D03*
X151542405Y-106710104D03*
X156742405Y-106710104D03*
X171235431Y-106015056D03*
X176435431Y-106015056D03*
D13*
X182946152Y-112274285D03*
D14*
X182946152Y-114814285D03*
X185486152Y-112274285D03*
X185486152Y-114814285D03*
X188026152Y-112274285D03*
X188026152Y-114814285D03*
D15*
X133280077Y-111575440D03*
X136880077Y-111575440D03*
X152408744Y-112077419D03*
X156008744Y-112077419D03*
X175547314Y-111614054D03*
X171947314Y-111614054D03*
D16*
X138724387Y-94439725D03*
X160360613Y-90624675D03*
D17*
X149542500Y-92532200D03*
D18*
X133280077Y-111575440D02*
X137281062Y-107574455D01*
X137281062Y-107574455D02*
X137281062Y-105706146D01*
X156742405Y-107743758D02*
X156742405Y-106710104D01*
X152408744Y-112077419D02*
X156742405Y-107743758D01*
X173171825Y-112838565D02*
X182381872Y-112838565D01*
X182381872Y-112838565D02*
X182946152Y-112274285D01*
X154784233Y-113301930D02*
X138606567Y-113301930D01*
X156008744Y-112077419D02*
X154784233Y-113301930D01*
X156472109Y-111614054D02*
X156008744Y-112077419D01*
X171947314Y-111614054D02*
X156472109Y-111614054D01*
X160360613Y-90624675D02*
X160360613Y-107725550D01*
X171947314Y-111614054D02*
X173171825Y-112838565D01*
X183317950Y-112489130D02*
X182828540Y-112978540D01*
X160360613Y-107725550D02*
X156008744Y-112077419D01*
X138724387Y-109731130D02*
X136880077Y-111575440D01*
X138606567Y-113301930D02*
X136880077Y-111575440D01*
X183621905Y-112185176D02*
X182828540Y-112978540D01*
X183545728Y-112489130D02*
X183317950Y-112489130D01*
X138724387Y-94439725D02*
X138724387Y-109731130D01*
X175547314Y-111614054D02*
X176435431Y-110725937D01*
X176435431Y-110725937D02*
X176435431Y-106015056D01*
%TA.AperFunction,Conductor*%
G36*
X151658260Y-81957830D02*
G01*
X154639178Y-82160505D01*
X154653817Y-82162367D01*
X156754777Y-82555685D01*
X156764912Y-82558019D01*
X158794941Y-83114689D01*
X158805066Y-83117930D01*
X159395629Y-83334863D01*
X160739661Y-83828570D01*
X160749738Y-83832777D01*
X162575696Y-84689984D01*
X162585728Y-84695258D01*
X163339968Y-85136198D01*
X164289831Y-85691503D01*
X164299766Y-85697956D01*
X165869158Y-86825693D01*
X165878883Y-86833436D01*
X167300822Y-88085077D01*
X167310179Y-88094218D01*
X168570809Y-89460650D01*
X168580093Y-89471969D01*
X168595353Y-89492948D01*
X169703643Y-91016572D01*
X169710538Y-91027121D01*
X170596177Y-92542761D01*
X170596773Y-92543792D01*
X170666442Y-92665651D01*
X170800991Y-92900990D01*
X170811831Y-92919951D01*
X170818767Y-92934060D01*
X170831638Y-92964974D01*
X170874000Y-93017467D01*
X170875218Y-93019004D01*
X170916628Y-93072184D01*
X170920283Y-93074819D01*
X170923112Y-93078325D01*
X170930487Y-93083450D01*
X170978409Y-93116752D01*
X170980197Y-93118018D01*
X171034777Y-93157371D01*
X171039023Y-93158874D01*
X171042724Y-93161446D01*
X171106613Y-93182819D01*
X171108601Y-93183503D01*
X171172086Y-93205975D01*
X171209459Y-93208060D01*
X171223530Y-93209643D01*
X171390145Y-93237963D01*
X171406412Y-93241855D01*
X171435913Y-93251023D01*
X171444888Y-93251174D01*
X171505695Y-93252197D01*
X171506865Y-93252222D01*
X171567837Y-93253815D01*
X171567839Y-93253815D01*
X171576807Y-93254049D01*
X171610470Y-93245153D01*
X171625373Y-93242163D01*
X174438914Y-92852429D01*
X174452820Y-92851282D01*
X175497978Y-92823210D01*
X175508075Y-92823344D01*
X176169762Y-92858652D01*
X176627619Y-92883084D01*
X176639490Y-92884283D01*
X177531189Y-93017357D01*
X178975020Y-93232829D01*
X178992166Y-93236625D01*
X181134598Y-93870431D01*
X181151791Y-93876915D01*
X183082726Y-94770897D01*
X183099715Y-94780421D01*
X183714955Y-95190863D01*
X184788850Y-95907286D01*
X184805190Y-95920265D01*
X186223417Y-97252543D01*
X186238373Y-97269349D01*
X187367805Y-98793117D01*
X187377439Y-98808260D01*
X187810668Y-99610241D01*
X187816038Y-99621477D01*
X188172219Y-100472433D01*
X188176542Y-100484434D01*
X188445441Y-101368935D01*
X188448569Y-101381516D01*
X188464485Y-101463303D01*
X188597004Y-102144281D01*
X188624139Y-102283722D01*
X188626333Y-102302164D01*
X188658460Y-103021300D01*
X188684996Y-103615279D01*
X188684585Y-103632523D01*
X188654911Y-103952822D01*
X188561383Y-104962371D01*
X188559714Y-104974221D01*
X188517403Y-105197365D01*
X188517244Y-105197967D01*
X188516974Y-105198500D01*
X188516655Y-105200205D01*
X188516653Y-105200212D01*
X188510858Y-105231173D01*
X188500497Y-105286523D01*
X188497033Y-105304792D01*
X188497019Y-105305104D01*
X188490174Y-105341671D01*
X188491066Y-105350608D01*
X188492842Y-105368409D01*
X188493337Y-105386607D01*
X188492124Y-105413454D01*
X188494251Y-105422171D01*
X188494252Y-105422181D01*
X188498850Y-105441022D01*
X188501819Y-105458380D01*
X188503744Y-105477676D01*
X188503745Y-105477680D01*
X188504636Y-105486609D01*
X188507997Y-105494928D01*
X188507999Y-105494937D01*
X188514703Y-105511531D01*
X188520284Y-105528853D01*
X188526654Y-105554959D01*
X188531144Y-105562731D01*
X188531144Y-105562732D01*
X188540846Y-105579527D01*
X188548568Y-105595354D01*
X188559196Y-105621662D01*
X188564756Y-105628703D01*
X188564758Y-105628706D01*
X188575846Y-105642746D01*
X188586068Y-105657812D01*
X188599512Y-105681085D01*
X188606002Y-105687284D01*
X188620028Y-105700681D01*
X188631884Y-105713708D01*
X188649467Y-105735974D01*
X188671372Y-105751542D01*
X188685398Y-105763121D01*
X188704841Y-105781694D01*
X188730040Y-105794749D01*
X188745066Y-105803918D01*
X188768193Y-105820355D01*
X188776676Y-105823293D01*
X188776678Y-105823294D01*
X188793588Y-105829150D01*
X188810306Y-105836330D01*
X188834174Y-105848695D01*
X188868529Y-105855427D01*
X188871277Y-105856056D01*
X188873949Y-105856981D01*
X188878741Y-105857848D01*
X188878742Y-105857848D01*
X188891527Y-105860160D01*
X188905692Y-105862722D01*
X188907463Y-105863056D01*
X188977113Y-105876704D01*
X188980268Y-105876416D01*
X188983417Y-105876780D01*
X189137086Y-105904573D01*
X189596903Y-105987739D01*
X189603336Y-105989078D01*
X190566884Y-106216127D01*
X190579294Y-106219733D01*
X191491775Y-106536456D01*
X191503558Y-106541224D01*
X191593565Y-106583053D01*
X192367832Y-106942880D01*
X192379164Y-106948865D01*
X193094301Y-107374431D01*
X193181351Y-107426233D01*
X193192364Y-107433597D01*
X193509596Y-107670780D01*
X193918874Y-107976782D01*
X193929658Y-107985826D01*
X194567294Y-108584346D01*
X194577797Y-108595480D01*
X195114203Y-109238200D01*
X195124180Y-109251940D01*
X195283448Y-109505630D01*
X195548526Y-109927860D01*
X195549918Y-109930078D01*
X195558324Y-109945853D01*
X195610193Y-110062436D01*
X195893354Y-110698883D01*
X195899458Y-110715740D01*
X196113331Y-111470272D01*
X196117027Y-111488174D01*
X196215904Y-112238650D01*
X196216971Y-112256921D01*
X196213087Y-112526971D01*
X196206474Y-112986723D01*
X196206284Y-112999902D01*
X196204759Y-113017716D01*
X196203996Y-113022554D01*
X196089421Y-113749082D01*
X196085538Y-113766015D01*
X195868819Y-114480749D01*
X195862940Y-114496340D01*
X195548109Y-115188767D01*
X195540618Y-115202814D01*
X195130897Y-115866356D01*
X195122146Y-115878782D01*
X194621097Y-116506219D01*
X194611375Y-116517047D01*
X194022843Y-117100859D01*
X194012373Y-117110150D01*
X193914778Y-117187504D01*
X193340480Y-117642690D01*
X193329438Y-117650515D01*
X192844544Y-117956365D01*
X192578580Y-118124124D01*
X192567094Y-118130556D01*
X192330235Y-118247378D01*
X192260293Y-118259571D01*
X192194862Y-118232016D01*
X192154715Y-118173460D01*
X192148500Y-118134375D01*
X192148500Y-115709400D01*
X189300826Y-115709400D01*
X189232705Y-115689398D01*
X189186212Y-115635742D01*
X189176108Y-115565468D01*
X189192585Y-115519173D01*
X189194605Y-115516362D01*
X189293582Y-115316096D01*
X189358522Y-115102354D01*
X189387681Y-114880875D01*
X189388338Y-114853992D01*
X189389226Y-114817650D01*
X189389226Y-114817646D01*
X189389308Y-114814285D01*
X189371004Y-114591646D01*
X189316583Y-114374987D01*
X189227506Y-114170125D01*
X189124822Y-114011400D01*
X189108974Y-113986902D01*
X189108972Y-113986899D01*
X189106166Y-113982562D01*
X188955822Y-113817336D01*
X188951771Y-113814137D01*
X188951767Y-113814133D01*
X188784566Y-113682085D01*
X188784562Y-113682083D01*
X188780511Y-113678883D01*
X188739205Y-113656081D01*
X188689236Y-113605649D01*
X188674464Y-113536206D01*
X188699580Y-113469801D01*
X188726932Y-113443194D01*
X188779442Y-113405739D01*
X188906012Y-113315458D01*
X188929344Y-113292208D01*
X189060587Y-113161422D01*
X189064248Y-113157774D01*
X189194605Y-112976362D01*
X189215472Y-112934142D01*
X189291288Y-112780738D01*
X189291289Y-112780736D01*
X189293582Y-112776096D01*
X189358522Y-112562354D01*
X189387681Y-112340875D01*
X189387763Y-112337525D01*
X189389226Y-112277650D01*
X189389226Y-112277646D01*
X189389308Y-112274285D01*
X189371004Y-112051646D01*
X189316583Y-111834987D01*
X189227506Y-111630125D01*
X189129796Y-111479088D01*
X189108974Y-111446902D01*
X189108972Y-111446899D01*
X189106166Y-111442562D01*
X188955822Y-111277336D01*
X188951771Y-111274137D01*
X188951767Y-111274133D01*
X188784566Y-111142085D01*
X188784562Y-111142083D01*
X188780511Y-111138883D01*
X188584941Y-111030923D01*
X188580072Y-111029199D01*
X188580068Y-111029197D01*
X188379239Y-110958080D01*
X188379235Y-110958079D01*
X188374364Y-110956354D01*
X188369271Y-110955447D01*
X188369268Y-110955446D01*
X188159525Y-110918085D01*
X188159519Y-110918084D01*
X188154436Y-110917179D01*
X188080604Y-110916277D01*
X187936233Y-110914513D01*
X187936231Y-110914513D01*
X187931063Y-110914450D01*
X187710243Y-110948240D01*
X187497908Y-111017642D01*
X187299759Y-111120792D01*
X187295626Y-111123895D01*
X187295623Y-111123897D01*
X187125252Y-111251815D01*
X187121117Y-111254920D01*
X187117545Y-111258658D01*
X187009881Y-111371322D01*
X186966781Y-111416423D01*
X186859353Y-111573906D01*
X186804445Y-111618906D01*
X186733920Y-111627077D01*
X186670173Y-111595823D01*
X186649476Y-111571339D01*
X186568974Y-111446902D01*
X186568972Y-111446899D01*
X186566166Y-111442562D01*
X186415822Y-111277336D01*
X186411771Y-111274137D01*
X186411767Y-111274133D01*
X186244566Y-111142085D01*
X186244562Y-111142083D01*
X186240511Y-111138883D01*
X186044941Y-111030923D01*
X186040072Y-111029199D01*
X186040068Y-111029197D01*
X185839239Y-110958080D01*
X185839235Y-110958079D01*
X185834364Y-110956354D01*
X185829271Y-110955447D01*
X185829268Y-110955446D01*
X185619525Y-110918085D01*
X185619519Y-110918084D01*
X185614436Y-110917179D01*
X185540604Y-110916277D01*
X185396233Y-110914513D01*
X185396231Y-110914513D01*
X185391063Y-110914450D01*
X185170243Y-110948240D01*
X184957908Y-111017642D01*
X184759759Y-111120792D01*
X184755626Y-111123895D01*
X184755623Y-111123897D01*
X184585252Y-111251815D01*
X184581117Y-111254920D01*
X184524689Y-111313969D01*
X184500435Y-111339349D01*
X184438911Y-111374779D01*
X184367998Y-111371322D01*
X184310212Y-111330076D01*
X184291359Y-111296528D01*
X184249919Y-111185988D01*
X184246767Y-111177580D01*
X184159413Y-111061024D01*
X184042857Y-110973670D01*
X183906468Y-110922540D01*
X183844286Y-110915785D01*
X182048018Y-110915785D01*
X181985836Y-110922540D01*
X181849447Y-110973670D01*
X181732891Y-111061024D01*
X181645537Y-111177580D01*
X181594407Y-111313969D01*
X181587652Y-111376151D01*
X181587652Y-112079065D01*
X181567650Y-112147186D01*
X181513994Y-112193679D01*
X181461652Y-112205065D01*
X176931814Y-112205065D01*
X176863693Y-112185063D01*
X176817200Y-112131407D01*
X176805814Y-112079065D01*
X176805814Y-111306246D01*
X176825816Y-111238125D01*
X176843140Y-111218586D01*
X176842449Y-111217937D01*
X176881887Y-111175939D01*
X176889075Y-111168285D01*
X176891829Y-111165444D01*
X176911566Y-111145707D01*
X176914046Y-111142510D01*
X176921751Y-111133488D01*
X176928888Y-111125888D01*
X176952017Y-111101258D01*
X176955836Y-111094312D01*
X176955838Y-111094309D01*
X176961779Y-111083503D01*
X176972630Y-111066984D01*
X176977253Y-111061024D01*
X176985045Y-111050978D01*
X176988190Y-111043709D01*
X176988193Y-111043705D01*
X177002605Y-111010400D01*
X177007822Y-110999750D01*
X177029126Y-110960997D01*
X177034164Y-110941374D01*
X177040568Y-110922671D01*
X177045464Y-110911357D01*
X177045464Y-110911356D01*
X177048612Y-110904082D01*
X177049851Y-110896259D01*
X177049854Y-110896249D01*
X177055530Y-110860413D01*
X177057936Y-110848793D01*
X177066959Y-110813648D01*
X177066959Y-110813647D01*
X177068931Y-110805967D01*
X177068931Y-110785713D01*
X177070482Y-110766002D01*
X177072411Y-110753823D01*
X177073651Y-110745994D01*
X177069490Y-110701975D01*
X177068931Y-110690118D01*
X177068931Y-107948940D01*
X177088933Y-107880819D01*
X177142589Y-107834326D01*
X177183638Y-107824230D01*
X177183565Y-107823556D01*
X177245747Y-107816801D01*
X177382136Y-107765671D01*
X177498692Y-107678317D01*
X177586046Y-107561761D01*
X177637176Y-107425372D01*
X177643931Y-107363190D01*
X177643931Y-104666922D01*
X177637176Y-104604740D01*
X177586046Y-104468351D01*
X177498692Y-104351795D01*
X177382136Y-104264441D01*
X177245747Y-104213311D01*
X177183565Y-104206556D01*
X175687297Y-104206556D01*
X175683900Y-104206925D01*
X175632965Y-104212458D01*
X175632963Y-104212458D01*
X175625115Y-104213311D01*
X175616403Y-104216577D01*
X175607549Y-104219896D01*
X175536742Y-104225077D01*
X175524820Y-104218981D01*
X175503815Y-104213998D01*
X175503870Y-104211052D01*
X175490329Y-104210798D01*
X175490327Y-104210798D01*
X172131083Y-104147891D01*
X172131082Y-104147891D01*
X172112970Y-104147552D01*
X172113110Y-104155026D01*
X172102067Y-104167299D01*
X172041632Y-104204558D01*
X171994796Y-104208281D01*
X171986917Y-104207425D01*
X171980103Y-104207056D01*
X171507546Y-104207056D01*
X171492307Y-104211531D01*
X171491102Y-104212921D01*
X171489431Y-104220604D01*
X171489431Y-107804940D01*
X171493906Y-107820179D01*
X171495296Y-107821384D01*
X171502979Y-107823055D01*
X171980100Y-107823055D01*
X171986921Y-107822685D01*
X172037783Y-107817161D01*
X172053035Y-107813535D01*
X172173485Y-107768380D01*
X172189080Y-107759842D01*
X172291155Y-107683341D01*
X172303712Y-107670784D01*
X172369442Y-107583080D01*
X172426302Y-107540565D01*
X172473206Y-107532680D01*
X174294266Y-107575194D01*
X175251521Y-107597543D01*
X175319156Y-107619130D01*
X175349407Y-107647945D01*
X175366785Y-107671133D01*
X175366789Y-107671137D01*
X175372170Y-107678317D01*
X175379350Y-107683698D01*
X175379353Y-107683701D01*
X175405192Y-107703066D01*
X175488726Y-107765671D01*
X175625115Y-107816801D01*
X175687297Y-107823556D01*
X175687173Y-107824695D01*
X175749665Y-107846767D01*
X175793199Y-107902850D01*
X175801931Y-107948940D01*
X175801931Y-110079554D01*
X175781929Y-110147675D01*
X175728273Y-110194168D01*
X175675931Y-110205554D01*
X174749180Y-110205554D01*
X174686998Y-110212309D01*
X174550609Y-110263439D01*
X174434053Y-110350793D01*
X174346699Y-110467349D01*
X174295569Y-110603738D01*
X174288814Y-110665920D01*
X174288814Y-112079065D01*
X174268812Y-112147186D01*
X174215156Y-112193679D01*
X174162814Y-112205065D01*
X173486419Y-112205065D01*
X173418298Y-112185063D01*
X173397324Y-112168160D01*
X173242719Y-112013555D01*
X173208693Y-111951243D01*
X173205814Y-111924460D01*
X173205814Y-110665920D01*
X173199059Y-110603738D01*
X173147929Y-110467349D01*
X173060575Y-110350793D01*
X172944019Y-110263439D01*
X172807630Y-110212309D01*
X172745448Y-110205554D01*
X171149180Y-110205554D01*
X171086998Y-110212309D01*
X170950609Y-110263439D01*
X170834053Y-110350793D01*
X170746699Y-110467349D01*
X170695569Y-110603738D01*
X170688814Y-110665920D01*
X170688814Y-110854554D01*
X170668812Y-110922675D01*
X170615156Y-110969168D01*
X170562814Y-110980554D01*
X158305703Y-110980554D01*
X158237582Y-110960552D01*
X158191089Y-110906896D01*
X158180985Y-110836622D01*
X158210479Y-110772042D01*
X158216608Y-110765459D01*
X160752860Y-108229207D01*
X160761150Y-108221663D01*
X160767631Y-108217550D01*
X160814272Y-108167882D01*
X160817026Y-108165041D01*
X160836747Y-108145320D01*
X160839225Y-108142125D01*
X160846931Y-108133103D01*
X160871771Y-108106651D01*
X160877199Y-108100871D01*
X160886959Y-108083118D01*
X160897812Y-108066595D01*
X160901691Y-108061594D01*
X160910226Y-108050591D01*
X160927789Y-108010007D01*
X160932996Y-107999377D01*
X160954308Y-107960610D01*
X160956279Y-107952933D01*
X160956281Y-107952928D01*
X160959345Y-107940992D01*
X160965751Y-107922280D01*
X160966069Y-107921547D01*
X160973794Y-107903695D01*
X160975034Y-107895867D01*
X160975036Y-107895860D01*
X160980712Y-107860026D01*
X160983118Y-107848406D01*
X160992141Y-107813261D01*
X160992141Y-107813260D01*
X160994113Y-107805580D01*
X160994113Y-107785326D01*
X160995664Y-107765615D01*
X160996201Y-107762228D01*
X160998833Y-107745607D01*
X160994672Y-107701588D01*
X160994113Y-107689731D01*
X160994113Y-107359725D01*
X170027432Y-107359725D01*
X170027802Y-107366546D01*
X170033326Y-107417408D01*
X170036952Y-107432660D01*
X170082107Y-107553110D01*
X170090645Y-107568705D01*
X170167146Y-107670780D01*
X170179707Y-107683341D01*
X170281782Y-107759842D01*
X170297377Y-107768380D01*
X170417825Y-107813534D01*
X170433080Y-107817161D01*
X170483945Y-107822687D01*
X170490759Y-107823056D01*
X170963316Y-107823056D01*
X170978555Y-107818581D01*
X170979760Y-107817191D01*
X170981431Y-107809508D01*
X170981431Y-106287171D01*
X170976956Y-106271932D01*
X170975566Y-106270727D01*
X170967883Y-106269056D01*
X170045547Y-106269056D01*
X170030308Y-106273531D01*
X170029103Y-106274921D01*
X170027432Y-106282604D01*
X170027432Y-107359725D01*
X160994113Y-107359725D01*
X160994113Y-105742941D01*
X170027431Y-105742941D01*
X170031906Y-105758180D01*
X170033296Y-105759385D01*
X170040979Y-105761056D01*
X170963316Y-105761056D01*
X170978555Y-105756581D01*
X170979760Y-105755191D01*
X170981431Y-105747508D01*
X170981431Y-104225172D01*
X170976956Y-104209933D01*
X170975566Y-104208728D01*
X170967883Y-104207057D01*
X170490762Y-104207057D01*
X170483941Y-104207427D01*
X170433079Y-104212951D01*
X170417827Y-104216577D01*
X170297377Y-104261732D01*
X170281782Y-104270270D01*
X170179707Y-104346771D01*
X170167146Y-104359332D01*
X170090645Y-104461407D01*
X170082107Y-104477002D01*
X170036953Y-104597450D01*
X170033326Y-104612705D01*
X170027800Y-104663570D01*
X170027431Y-104670384D01*
X170027431Y-105742941D01*
X160994113Y-105742941D01*
X160994113Y-93714226D01*
X161014115Y-93646105D01*
X161067771Y-93599612D01*
X161098233Y-93590140D01*
X161314978Y-93551922D01*
X161562735Y-93508236D01*
X161586861Y-93501227D01*
X161615211Y-93492991D01*
X161615215Y-93492989D01*
X161622799Y-93490786D01*
X161629601Y-93486771D01*
X161629604Y-93486770D01*
X161740511Y-93421310D01*
X161740513Y-93421309D01*
X161748238Y-93416749D01*
X161754372Y-93410205D01*
X161754375Y-93410203D01*
X161841714Y-93317033D01*
X161847854Y-93310483D01*
X161851907Y-93302477D01*
X161851909Y-93302474D01*
X161883855Y-93239368D01*
X161913641Y-93180529D01*
X161940311Y-93037333D01*
X161936165Y-92974923D01*
X161037316Y-87877294D01*
X161030307Y-87853168D01*
X161022071Y-87824818D01*
X161022069Y-87824814D01*
X161019866Y-87817230D01*
X161011096Y-87802370D01*
X160950392Y-87699522D01*
X160945829Y-87691791D01*
X160839562Y-87592175D01*
X160831560Y-87588124D01*
X160831557Y-87588122D01*
X160773389Y-87558676D01*
X160709608Y-87526388D01*
X160566412Y-87499718D01*
X160558537Y-87500241D01*
X160558534Y-87500241D01*
X160526232Y-87502387D01*
X160504002Y-87503864D01*
X159158491Y-87741114D01*
X159134365Y-87748123D01*
X159106015Y-87756359D01*
X159106011Y-87756361D01*
X159098427Y-87758564D01*
X159091625Y-87762579D01*
X159091622Y-87762580D01*
X158980715Y-87828040D01*
X158980713Y-87828041D01*
X158972988Y-87832601D01*
X158966854Y-87839145D01*
X158966851Y-87839147D01*
X158924334Y-87884503D01*
X158873372Y-87938867D01*
X158869319Y-87946873D01*
X158869317Y-87946876D01*
X158840478Y-88003844D01*
X158807585Y-88068821D01*
X158780915Y-88212017D01*
X158785061Y-88274427D01*
X159683910Y-93372056D01*
X159684863Y-93375335D01*
X159699155Y-93424532D01*
X159699157Y-93424536D01*
X159701360Y-93432120D01*
X159705374Y-93438921D01*
X159705375Y-93438923D01*
X159709623Y-93446120D01*
X159727113Y-93510164D01*
X159727113Y-107410955D01*
X159707111Y-107479076D01*
X159690208Y-107500050D01*
X156558244Y-110632014D01*
X156495932Y-110666040D01*
X156469149Y-110668919D01*
X155210610Y-110668919D01*
X155148428Y-110675674D01*
X155012039Y-110726804D01*
X155003336Y-110733327D01*
X155003278Y-110733370D01*
X155001449Y-110734053D01*
X154996984Y-110736498D01*
X154996631Y-110735853D01*
X154936772Y-110758218D01*
X154867389Y-110743165D01*
X154817159Y-110692991D01*
X154802029Y-110623625D01*
X154826803Y-110557091D01*
X154838618Y-110543449D01*
X156826558Y-108555509D01*
X156888870Y-108521483D01*
X156915653Y-108518604D01*
X157490539Y-108518604D01*
X157552721Y-108511849D01*
X157689110Y-108460719D01*
X157805666Y-108373365D01*
X157893020Y-108256809D01*
X157905710Y-108222959D01*
X157941377Y-108127818D01*
X157941378Y-108127815D01*
X157944150Y-108120420D01*
X157950905Y-108058238D01*
X157950905Y-105361970D01*
X157944150Y-105299788D01*
X157893020Y-105163399D01*
X157805666Y-105046843D01*
X157689110Y-104959489D01*
X157552721Y-104908359D01*
X157490539Y-104901604D01*
X155994271Y-104901604D01*
X155932089Y-104908359D01*
X155795700Y-104959489D01*
X155739753Y-105001419D01*
X155711198Y-105022820D01*
X155644692Y-105047668D01*
X155634652Y-105047990D01*
X152615788Y-105024312D01*
X152615828Y-105019239D01*
X152577855Y-105018165D01*
X152541192Y-104999148D01*
X152496049Y-104965315D01*
X152480459Y-104956780D01*
X152360011Y-104911626D01*
X152344756Y-104907999D01*
X152293891Y-104902473D01*
X152287077Y-104902104D01*
X151814520Y-104902104D01*
X151799281Y-104906579D01*
X151798076Y-104907969D01*
X151796405Y-104915652D01*
X151796405Y-108499988D01*
X151800880Y-108515227D01*
X151802270Y-108516432D01*
X151809953Y-108518103D01*
X152287074Y-108518103D01*
X152293895Y-108517733D01*
X152344757Y-108512209D01*
X152360009Y-108508583D01*
X152480459Y-108463428D01*
X152496054Y-108454890D01*
X152598126Y-108378392D01*
X152617042Y-108359476D01*
X152618786Y-108361220D01*
X152665080Y-108326596D01*
X152713070Y-108318737D01*
X154901654Y-108388492D01*
X154969103Y-108410654D01*
X155013863Y-108465763D01*
X155021723Y-108536324D01*
X154986735Y-108603523D01*
X152958244Y-110632014D01*
X152895932Y-110666040D01*
X152869149Y-110668919D01*
X151610610Y-110668919D01*
X151548428Y-110675674D01*
X151412039Y-110726804D01*
X151295483Y-110814158D01*
X151208129Y-110930714D01*
X151156999Y-111067103D01*
X151150244Y-111129285D01*
X151150244Y-112542430D01*
X151130242Y-112610551D01*
X151076586Y-112657044D01*
X151024244Y-112668430D01*
X138921162Y-112668430D01*
X138853041Y-112648428D01*
X138832066Y-112631525D01*
X138175481Y-111974939D01*
X138141456Y-111912627D01*
X138138577Y-111885844D01*
X138138577Y-111265034D01*
X138158579Y-111196913D01*
X138175482Y-111175939D01*
X139116634Y-110234787D01*
X139124924Y-110227243D01*
X139131405Y-110223130D01*
X139178046Y-110173462D01*
X139180800Y-110170621D01*
X139200521Y-110150900D01*
X139202999Y-110147705D01*
X139210705Y-110138683D01*
X139235545Y-110112231D01*
X139240973Y-110106451D01*
X139250733Y-110088698D01*
X139261586Y-110072175D01*
X139269140Y-110062436D01*
X139274000Y-110056171D01*
X139291563Y-110015587D01*
X139296770Y-110004957D01*
X139318082Y-109966190D01*
X139320053Y-109958513D01*
X139320055Y-109958508D01*
X139323119Y-109946572D01*
X139329525Y-109927860D01*
X139334420Y-109916549D01*
X139337568Y-109909275D01*
X139338808Y-109901447D01*
X139338810Y-109901440D01*
X139344486Y-109865606D01*
X139346892Y-109853986D01*
X139355915Y-109818841D01*
X139355915Y-109818840D01*
X139357887Y-109811160D01*
X139357887Y-109790906D01*
X139359438Y-109771195D01*
X139361367Y-109759016D01*
X139362607Y-109751187D01*
X139358446Y-109707168D01*
X139357887Y-109695311D01*
X139357887Y-108054773D01*
X150334406Y-108054773D01*
X150334776Y-108061594D01*
X150340300Y-108112456D01*
X150343926Y-108127708D01*
X150389081Y-108248158D01*
X150397619Y-108263753D01*
X150474120Y-108365828D01*
X150486681Y-108378389D01*
X150588756Y-108454890D01*
X150604351Y-108463428D01*
X150724799Y-108508582D01*
X150740054Y-108512209D01*
X150790919Y-108517735D01*
X150797733Y-108518104D01*
X151270290Y-108518104D01*
X151285529Y-108513629D01*
X151286734Y-108512239D01*
X151288405Y-108504556D01*
X151288405Y-106982219D01*
X151283930Y-106966980D01*
X151282540Y-106965775D01*
X151274857Y-106964104D01*
X150352521Y-106964104D01*
X150337282Y-106968579D01*
X150336077Y-106969969D01*
X150334406Y-106977652D01*
X150334406Y-108054773D01*
X139357887Y-108054773D01*
X139357887Y-106437989D01*
X150334405Y-106437989D01*
X150338880Y-106453228D01*
X150340270Y-106454433D01*
X150347953Y-106456104D01*
X151270290Y-106456104D01*
X151285529Y-106451629D01*
X151286734Y-106450239D01*
X151288405Y-106442556D01*
X151288405Y-104920220D01*
X151283930Y-104904981D01*
X151282540Y-104903776D01*
X151274857Y-104902105D01*
X150797736Y-104902105D01*
X150790915Y-104902475D01*
X150740053Y-104907999D01*
X150724801Y-104911625D01*
X150604351Y-104956780D01*
X150588756Y-104965318D01*
X150486681Y-105041819D01*
X150474120Y-105054380D01*
X150397619Y-105156455D01*
X150389081Y-105172050D01*
X150343927Y-105292498D01*
X150340300Y-105307753D01*
X150334774Y-105358618D01*
X150334405Y-105365432D01*
X150334405Y-106437989D01*
X139357887Y-106437989D01*
X139357887Y-99364087D01*
X143076153Y-99364087D01*
X143076177Y-99364426D01*
X143082000Y-99373058D01*
X143415215Y-99677860D01*
X143418346Y-99680544D01*
X143889114Y-100058375D01*
X143892397Y-100060840D01*
X144386588Y-100407519D01*
X144390015Y-100409762D01*
X144905560Y-100723835D01*
X144909095Y-100725835D01*
X145443868Y-101006002D01*
X145447506Y-101007761D01*
X145999212Y-101252819D01*
X146003002Y-101254358D01*
X146569372Y-101463303D01*
X146573237Y-101464589D01*
X147151915Y-101636550D01*
X147155856Y-101637584D01*
X147744417Y-101771842D01*
X147748412Y-101772619D01*
X148344430Y-101868619D01*
X148348469Y-101869136D01*
X148949418Y-101926472D01*
X148953487Y-101926728D01*
X149556884Y-101945164D01*
X149560970Y-101945156D01*
X150164312Y-101924614D01*
X150168356Y-101924345D01*
X150769122Y-101864910D01*
X150773158Y-101864379D01*
X151368821Y-101766302D01*
X151372824Y-101765509D01*
X151960925Y-101629195D01*
X151964845Y-101628152D01*
X152542942Y-101454164D01*
X152546775Y-101452874D01*
X153112414Y-101241953D01*
X153116207Y-101240397D01*
X153667044Y-100993419D01*
X153670705Y-100991633D01*
X154204487Y-100709606D01*
X154207993Y-100707606D01*
X154722463Y-100391721D01*
X154725860Y-100389480D01*
X155218867Y-100041058D01*
X155222091Y-100038620D01*
X155691600Y-99659097D01*
X155694667Y-99656450D01*
X156000354Y-99374863D01*
X156008532Y-99361246D01*
X156008518Y-99360787D01*
X156003173Y-99352083D01*
X149555312Y-92904222D01*
X149541368Y-92896608D01*
X149539535Y-92896739D01*
X149532920Y-92900990D01*
X143083767Y-99350143D01*
X143076153Y-99364087D01*
X139357887Y-99364087D01*
X139357887Y-97529276D01*
X139377889Y-97461155D01*
X139431545Y-97414662D01*
X139462007Y-97405190D01*
X139833579Y-97339672D01*
X139926509Y-97323286D01*
X139950635Y-97316277D01*
X139978985Y-97308041D01*
X139978989Y-97308039D01*
X139986573Y-97305836D01*
X139993375Y-97301821D01*
X139993378Y-97301820D01*
X140104285Y-97236360D01*
X140104287Y-97236359D01*
X140112012Y-97231799D01*
X140118146Y-97225255D01*
X140118149Y-97225253D01*
X140205488Y-97132083D01*
X140211628Y-97125533D01*
X140215681Y-97117527D01*
X140215683Y-97117524D01*
X140244522Y-97060556D01*
X140277415Y-96995579D01*
X140304085Y-96852383D01*
X140301897Y-96819439D01*
X140301097Y-96807402D01*
X140299939Y-96789973D01*
X139586475Y-92743714D01*
X140131903Y-92743714D01*
X140131995Y-92747788D01*
X140165167Y-93350568D01*
X140165522Y-93354620D01*
X140237528Y-93954022D01*
X140238138Y-93958012D01*
X140348673Y-94551517D01*
X140349545Y-94555482D01*
X140498147Y-95140605D01*
X140499272Y-95144503D01*
X140685327Y-95718824D01*
X140686703Y-95722645D01*
X140909423Y-96283741D01*
X140911054Y-96287492D01*
X141169515Y-96833039D01*
X141171373Y-96836653D01*
X141464519Y-97364417D01*
X141466594Y-97367884D01*
X141793183Y-97875624D01*
X141795499Y-97878981D01*
X142154153Y-98364559D01*
X142156684Y-98367764D01*
X142545934Y-98829195D01*
X142548661Y-98832224D01*
X142700055Y-98989821D01*
X142713840Y-98997711D01*
X142715004Y-98997651D01*
X142722637Y-98992853D01*
X149170478Y-92545012D01*
X149176856Y-92533332D01*
X149906908Y-92533332D01*
X149907039Y-92535165D01*
X149911290Y-92541780D01*
X156359462Y-98989952D01*
X156373406Y-98997566D01*
X156374450Y-98997492D01*
X156382143Y-98992418D01*
X156558287Y-98807773D01*
X156561010Y-98804727D01*
X156948652Y-98341934D01*
X156951146Y-98338754D01*
X157308121Y-97851901D01*
X157310421Y-97848541D01*
X157635232Y-97339672D01*
X157637303Y-97336184D01*
X157928604Y-96807402D01*
X157930440Y-96803800D01*
X158187012Y-96257320D01*
X158188614Y-96253601D01*
X158409384Y-95691702D01*
X158410741Y-95687892D01*
X158594793Y-95112914D01*
X158595899Y-95109032D01*
X158742466Y-94523365D01*
X158743318Y-94519421D01*
X158851781Y-93925535D01*
X158852382Y-93921510D01*
X158922290Y-93321898D01*
X158922632Y-93317821D01*
X158953738Y-92714212D01*
X158953818Y-92711595D01*
X158955527Y-92533537D01*
X158955497Y-92530861D01*
X158935986Y-91926788D01*
X158935723Y-91922730D01*
X158877336Y-91321862D01*
X158876816Y-91317852D01*
X158779775Y-90721996D01*
X158778987Y-90717983D01*
X158643706Y-90129674D01*
X158642660Y-90125718D01*
X158469695Y-89547363D01*
X158468397Y-89543482D01*
X158258459Y-88977462D01*
X158256933Y-88973724D01*
X158010905Y-88422431D01*
X158009125Y-88418766D01*
X157728037Y-87884503D01*
X157726028Y-87880968D01*
X157411050Y-87365962D01*
X157408822Y-87362571D01*
X157061248Y-86868939D01*
X157058822Y-86865720D01*
X156680119Y-86395549D01*
X156677475Y-86392476D01*
X156385313Y-86074194D01*
X156371709Y-86065992D01*
X156371310Y-86066004D01*
X156362517Y-86071393D01*
X149914522Y-92519388D01*
X149906908Y-92533332D01*
X149176856Y-92533332D01*
X149178092Y-92531068D01*
X149177961Y-92529235D01*
X149173710Y-92522620D01*
X142723306Y-86072216D01*
X142709362Y-86064602D01*
X142707557Y-86064731D01*
X142700904Y-86069010D01*
X142670883Y-86099085D01*
X142668121Y-86102035D01*
X142270060Y-86555937D01*
X142267495Y-86559060D01*
X141899560Y-87037697D01*
X141897197Y-87040985D01*
X141560913Y-87542372D01*
X141558771Y-87545801D01*
X141255552Y-88067830D01*
X141253626Y-88071408D01*
X140984732Y-88611906D01*
X140983035Y-88615615D01*
X140749578Y-89172346D01*
X140748138Y-89176116D01*
X140551086Y-89746779D01*
X140549890Y-89750643D01*
X140390086Y-90332791D01*
X140389129Y-90336778D01*
X140267229Y-90928006D01*
X140266533Y-90932035D01*
X140183039Y-91529913D01*
X140182607Y-91533957D01*
X140137867Y-92136002D01*
X140137697Y-92140060D01*
X140131903Y-92743714D01*
X139586475Y-92743714D01*
X139401090Y-91692344D01*
X139394081Y-91668218D01*
X139385845Y-91639868D01*
X139385843Y-91639864D01*
X139383640Y-91632280D01*
X139351385Y-91577630D01*
X139314166Y-91514572D01*
X139309603Y-91506841D01*
X139203336Y-91407225D01*
X139195334Y-91403174D01*
X139195331Y-91403172D01*
X139137163Y-91373726D01*
X139073382Y-91341438D01*
X138930186Y-91314768D01*
X138922311Y-91315291D01*
X138922308Y-91315291D01*
X138890006Y-91317437D01*
X138867776Y-91318914D01*
X137522265Y-91556164D01*
X137498139Y-91563173D01*
X137469789Y-91571409D01*
X137469785Y-91571411D01*
X137462201Y-91573614D01*
X137455399Y-91577629D01*
X137455396Y-91577630D01*
X137344489Y-91643090D01*
X137344487Y-91643091D01*
X137336762Y-91647651D01*
X137330628Y-91654195D01*
X137330625Y-91654197D01*
X137291718Y-91695702D01*
X137237146Y-91753917D01*
X137233093Y-91761923D01*
X137233091Y-91761926D01*
X137211546Y-91804487D01*
X137171359Y-91883871D01*
X137144689Y-92027067D01*
X137148835Y-92089477D01*
X138047684Y-97187106D01*
X138048637Y-97190385D01*
X138062929Y-97239582D01*
X138062931Y-97239586D01*
X138065134Y-97247170D01*
X138069148Y-97253971D01*
X138069149Y-97253973D01*
X138073397Y-97261170D01*
X138090887Y-97325214D01*
X138090887Y-103771646D01*
X138070885Y-103839767D01*
X138017229Y-103886260D01*
X137964887Y-103897646D01*
X136532928Y-103897646D01*
X136470746Y-103904401D01*
X136334357Y-103955531D01*
X136327174Y-103960914D01*
X136327171Y-103960916D01*
X136271982Y-104002278D01*
X136205476Y-104027125D01*
X136194041Y-104027429D01*
X133077896Y-103968634D01*
X133027774Y-103955307D01*
X133027524Y-103955974D01*
X133020790Y-103953450D01*
X133019765Y-103953177D01*
X133019118Y-103952823D01*
X132898668Y-103907668D01*
X132883413Y-103904041D01*
X132832548Y-103898515D01*
X132825734Y-103898146D01*
X132353177Y-103898146D01*
X132337938Y-103902621D01*
X132336733Y-103904011D01*
X132335062Y-103911694D01*
X132335062Y-107496030D01*
X132339537Y-107511269D01*
X132340927Y-107512474D01*
X132348610Y-107514145D01*
X132825731Y-107514145D01*
X132832552Y-107513775D01*
X132885597Y-107508014D01*
X132955479Y-107520543D01*
X132985281Y-107548229D01*
X132985655Y-107547813D01*
X133008779Y-107568574D01*
X133008660Y-107575326D01*
X135975728Y-107684409D01*
X136043067Y-107706900D01*
X136087557Y-107762228D01*
X136095072Y-107832826D01*
X136060193Y-107899419D01*
X133829577Y-110130035D01*
X133767265Y-110164061D01*
X133740482Y-110166940D01*
X132481943Y-110166940D01*
X132419761Y-110173695D01*
X132283372Y-110224825D01*
X132166816Y-110312179D01*
X132079462Y-110428735D01*
X132028332Y-110565124D01*
X132021577Y-110627306D01*
X132021577Y-112523574D01*
X132028332Y-112585756D01*
X132079462Y-112722145D01*
X132166816Y-112838701D01*
X132283372Y-112926055D01*
X132419761Y-112977185D01*
X132481943Y-112983940D01*
X134078211Y-112983940D01*
X134140393Y-112977185D01*
X134276782Y-112926055D01*
X134393338Y-112838701D01*
X134480692Y-112722145D01*
X134531822Y-112585756D01*
X134538577Y-112523574D01*
X134538577Y-111265034D01*
X134558579Y-111196913D01*
X134575482Y-111175939D01*
X135496107Y-110255314D01*
X135558419Y-110221288D01*
X135629234Y-110226353D01*
X135686070Y-110268900D01*
X135710881Y-110335420D01*
X135695790Y-110404794D01*
X135686028Y-110419974D01*
X135679462Y-110428735D01*
X135628332Y-110565124D01*
X135621577Y-110627306D01*
X135621577Y-112523574D01*
X135628332Y-112585756D01*
X135679462Y-112722145D01*
X135766816Y-112838701D01*
X135883372Y-112926055D01*
X136019761Y-112977185D01*
X136081943Y-112983940D01*
X137340483Y-112983940D01*
X137408604Y-113003942D01*
X137429578Y-113020845D01*
X138102910Y-113694177D01*
X138110454Y-113702467D01*
X138114567Y-113708948D01*
X138120344Y-113714373D01*
X138164234Y-113755588D01*
X138167076Y-113758343D01*
X138186798Y-113778065D01*
X138189922Y-113780488D01*
X138189926Y-113780492D01*
X138189991Y-113780542D01*
X138199012Y-113788247D01*
X138231246Y-113818516D01*
X138238194Y-113822335D01*
X138238196Y-113822337D01*
X138248999Y-113828276D01*
X138265526Y-113839132D01*
X138275265Y-113846687D01*
X138275267Y-113846688D01*
X138281527Y-113851544D01*
X138322107Y-113869104D01*
X138332755Y-113874321D01*
X138357543Y-113887948D01*
X138371507Y-113895625D01*
X138379183Y-113897596D01*
X138379186Y-113897597D01*
X138391129Y-113900663D01*
X138409834Y-113907067D01*
X138428422Y-113915111D01*
X138436245Y-113916350D01*
X138436255Y-113916353D01*
X138472091Y-113922029D01*
X138483711Y-113924435D01*
X138515526Y-113932603D01*
X138526537Y-113935430D01*
X138546791Y-113935430D01*
X138566501Y-113936981D01*
X138586510Y-113940150D01*
X138594402Y-113939404D01*
X138613147Y-113937632D01*
X138630529Y-113935989D01*
X138642386Y-113935430D01*
X154705466Y-113935430D01*
X154716649Y-113935957D01*
X154724142Y-113937632D01*
X154732068Y-113937383D01*
X154732069Y-113937383D01*
X154792219Y-113935492D01*
X154796178Y-113935430D01*
X154824089Y-113935430D01*
X154828024Y-113934933D01*
X154828089Y-113934925D01*
X154839926Y-113933992D01*
X154872184Y-113932978D01*
X154876203Y-113932852D01*
X154884122Y-113932603D01*
X154903576Y-113926951D01*
X154922933Y-113922943D01*
X154935163Y-113921398D01*
X154935164Y-113921398D01*
X154943030Y-113920404D01*
X154950401Y-113917485D01*
X154950403Y-113917485D01*
X154984145Y-113904126D01*
X154995375Y-113900281D01*
X155030216Y-113890159D01*
X155030217Y-113890159D01*
X155037826Y-113887948D01*
X155044645Y-113883915D01*
X155044650Y-113883913D01*
X155055261Y-113877637D01*
X155073009Y-113868942D01*
X155091850Y-113861482D01*
X155127620Y-113835494D01*
X155137540Y-113828978D01*
X155168768Y-113810510D01*
X155168771Y-113810508D01*
X155175595Y-113806472D01*
X155189916Y-113792151D01*
X155204950Y-113779310D01*
X155206664Y-113778065D01*
X155221340Y-113767402D01*
X155249531Y-113733325D01*
X155257521Y-113724546D01*
X155459243Y-113522824D01*
X155521555Y-113488798D01*
X155548338Y-113485919D01*
X156806878Y-113485919D01*
X156869060Y-113479164D01*
X157005449Y-113428034D01*
X157122005Y-113340680D01*
X157209359Y-113224124D01*
X157260489Y-113087735D01*
X157267244Y-113025553D01*
X157267244Y-112373554D01*
X157287246Y-112305433D01*
X157340902Y-112258940D01*
X157393244Y-112247554D01*
X170562814Y-112247554D01*
X170630935Y-112267556D01*
X170677428Y-112321212D01*
X170688814Y-112373554D01*
X170688814Y-112562188D01*
X170695569Y-112624370D01*
X170746699Y-112760759D01*
X170834053Y-112877315D01*
X170950609Y-112964669D01*
X171086998Y-113015799D01*
X171149180Y-113022554D01*
X172407719Y-113022554D01*
X172475840Y-113042556D01*
X172496814Y-113059459D01*
X172668173Y-113230818D01*
X172675713Y-113239104D01*
X172679825Y-113245583D01*
X172685602Y-113251008D01*
X172729476Y-113292208D01*
X172732318Y-113294963D01*
X172752055Y-113314700D01*
X172755252Y-113317180D01*
X172764272Y-113324883D01*
X172796504Y-113355151D01*
X172803450Y-113358970D01*
X172803453Y-113358972D01*
X172814259Y-113364913D01*
X172830778Y-113375764D01*
X172846784Y-113388179D01*
X172854053Y-113391324D01*
X172854057Y-113391327D01*
X172887362Y-113405739D01*
X172898012Y-113410956D01*
X172936765Y-113432260D01*
X172944440Y-113434231D01*
X172944441Y-113434231D01*
X172956387Y-113437298D01*
X172975091Y-113443702D01*
X172980245Y-113445932D01*
X172993680Y-113451746D01*
X173001503Y-113452985D01*
X173001513Y-113452988D01*
X173037349Y-113458664D01*
X173048969Y-113461070D01*
X173082977Y-113469801D01*
X173091795Y-113472065D01*
X173112049Y-113472065D01*
X173131759Y-113473616D01*
X173151768Y-113476785D01*
X173159660Y-113476039D01*
X173195786Y-113472624D01*
X173207644Y-113472065D01*
X181670259Y-113472065D01*
X181738380Y-113492067D01*
X181745824Y-113497239D01*
X181826420Y-113557642D01*
X181849447Y-113574900D01*
X181857856Y-113578052D01*
X181857857Y-113578053D01*
X181967112Y-113619011D01*
X182023877Y-113661652D01*
X182048577Y-113728214D01*
X182033370Y-113797563D01*
X182013977Y-113824044D01*
X181890742Y-113953002D01*
X181884256Y-113961012D01*
X181764250Y-114136934D01*
X181759152Y-114145908D01*
X181669490Y-114339068D01*
X181665927Y-114348755D01*
X181610541Y-114548468D01*
X181612064Y-114556892D01*
X181624444Y-114560285D01*
X183074152Y-114560285D01*
X183142273Y-114580287D01*
X183188766Y-114633943D01*
X183200152Y-114686285D01*
X183200152Y-114942285D01*
X183180150Y-115010406D01*
X183126494Y-115056899D01*
X183074152Y-115068285D01*
X181629377Y-115068285D01*
X181615846Y-115072258D01*
X181614409Y-115082251D01*
X181644717Y-115216731D01*
X181647797Y-115226560D01*
X181727922Y-115423888D01*
X181732565Y-115433079D01*
X181784338Y-115517565D01*
X181802876Y-115586099D01*
X181781420Y-115653775D01*
X181726781Y-115699108D01*
X181676905Y-115709400D01*
X168531500Y-115709400D01*
X168531500Y-119069599D01*
X168511498Y-119137720D01*
X168457842Y-119184213D01*
X168406165Y-119195597D01*
X149148282Y-119297137D01*
X149124411Y-119294982D01*
X149112218Y-119292697D01*
X149069901Y-119296910D01*
X149057421Y-119297530D01*
X140912862Y-119297348D01*
X140567919Y-119297340D01*
X140567269Y-119297338D01*
X132954228Y-119257874D01*
X132952152Y-119257846D01*
X127606548Y-119142046D01*
X127577189Y-119137922D01*
X127039011Y-118996191D01*
X126105328Y-118750302D01*
X126099045Y-118748470D01*
X124687179Y-118296482D01*
X124675976Y-118292299D01*
X123385162Y-117739270D01*
X123373606Y-117733604D01*
X122390319Y-117187504D01*
X122195642Y-117079384D01*
X122184025Y-117072077D01*
X121120963Y-116319618D01*
X121109661Y-116310602D01*
X120627870Y-115878782D01*
X120163163Y-115462273D01*
X120152634Y-115451641D01*
X119324226Y-114509023D01*
X119314875Y-114496983D01*
X119314435Y-114496340D01*
X118604059Y-113457587D01*
X118596982Y-113445932D01*
X118595789Y-113443702D01*
X118274799Y-112844082D01*
X118072656Y-112466471D01*
X118066337Y-112452746D01*
X117704976Y-111525234D01*
X117699777Y-111508554D01*
X117475487Y-110562325D01*
X117472770Y-110546337D01*
X117431187Y-110147711D01*
X117364251Y-109506033D01*
X117363582Y-109491336D01*
X117363669Y-109484656D01*
X117374062Y-108680910D01*
X117376888Y-108462397D01*
X117378123Y-108446348D01*
X117520282Y-107443108D01*
X117523544Y-107427385D01*
X117627071Y-107050815D01*
X130873063Y-107050815D01*
X130873433Y-107057636D01*
X130878957Y-107108498D01*
X130882583Y-107123750D01*
X130927738Y-107244200D01*
X130936276Y-107259795D01*
X131012777Y-107361870D01*
X131025338Y-107374431D01*
X131127413Y-107450932D01*
X131143008Y-107459470D01*
X131263456Y-107504624D01*
X131278711Y-107508251D01*
X131329576Y-107513777D01*
X131336390Y-107514146D01*
X131808947Y-107514146D01*
X131824186Y-107509671D01*
X131825391Y-107508281D01*
X131827062Y-107500598D01*
X131827062Y-105978261D01*
X131822587Y-105963022D01*
X131821197Y-105961817D01*
X131813514Y-105960146D01*
X130891178Y-105960146D01*
X130875939Y-105964621D01*
X130874734Y-105966011D01*
X130873063Y-105973694D01*
X130873063Y-107050815D01*
X117627071Y-107050815D01*
X117792205Y-106450159D01*
X117797330Y-106435241D01*
X118079128Y-105756581D01*
X118190819Y-105487594D01*
X118197523Y-105473866D01*
X118209814Y-105452146D01*
X118220065Y-105434031D01*
X130873062Y-105434031D01*
X130877537Y-105449270D01*
X130878927Y-105450475D01*
X130886610Y-105452146D01*
X131808947Y-105452146D01*
X131824186Y-105447671D01*
X131825391Y-105446281D01*
X131827062Y-105438598D01*
X131827062Y-103916262D01*
X131822587Y-103901023D01*
X131821197Y-103899818D01*
X131813514Y-103898147D01*
X131336393Y-103898147D01*
X131329572Y-103898517D01*
X131278710Y-103904041D01*
X131263458Y-103907667D01*
X131143008Y-103952822D01*
X131127413Y-103961360D01*
X131025338Y-104037861D01*
X131012777Y-104050422D01*
X130936276Y-104152497D01*
X130927738Y-104168092D01*
X130882584Y-104288540D01*
X130878957Y-104303795D01*
X130873431Y-104354660D01*
X130873062Y-104361474D01*
X130873062Y-105434031D01*
X118220065Y-105434031D01*
X118654139Y-104666922D01*
X118714655Y-104559976D01*
X118722593Y-104547675D01*
X119362343Y-103672428D01*
X119371155Y-103661672D01*
X120132472Y-102830556D01*
X120141827Y-102821355D01*
X121018824Y-102044368D01*
X121030438Y-102035236D01*
X122633131Y-100920594D01*
X122650027Y-100910696D01*
X124369523Y-100075583D01*
X124387362Y-100068542D01*
X126014420Y-99565664D01*
X126668699Y-99363444D01*
X126681917Y-99360131D01*
X127038742Y-99290948D01*
X127831258Y-99137291D01*
X127841599Y-99135728D01*
X128494518Y-99064619D01*
X128915573Y-99018762D01*
X128922063Y-99018225D01*
X129234913Y-99000493D01*
X129260095Y-99001603D01*
X129260177Y-99001603D01*
X129269062Y-99002898D01*
X129277952Y-99001647D01*
X129277953Y-99001647D01*
X129315525Y-98996360D01*
X129325953Y-98995333D01*
X129331078Y-98995043D01*
X129331085Y-98995042D01*
X129335551Y-98994789D01*
X129352419Y-98991390D01*
X129359726Y-98990141D01*
X129382049Y-98986999D01*
X129404409Y-98983853D01*
X129404410Y-98983853D01*
X129413298Y-98982602D01*
X129421478Y-98978907D01*
X129427504Y-98977161D01*
X129433383Y-98975074D01*
X129442180Y-98973301D01*
X129450127Y-98969130D01*
X129450129Y-98969129D01*
X129490062Y-98948168D01*
X129496753Y-98944904D01*
X129537866Y-98926333D01*
X129546042Y-98922640D01*
X129552851Y-98916802D01*
X129558124Y-98913448D01*
X129563210Y-98909774D01*
X129571151Y-98905606D01*
X129610065Y-98868035D01*
X129615528Y-98863063D01*
X129656620Y-98827832D01*
X129661521Y-98820310D01*
X129665634Y-98815619D01*
X129669479Y-98810673D01*
X129675939Y-98804436D01*
X129702750Y-98757444D01*
X129706612Y-98751117D01*
X129731243Y-98713320D01*
X129731243Y-98713319D01*
X129736144Y-98705799D01*
X129738736Y-98697208D01*
X129741375Y-98691535D01*
X129743674Y-98685714D01*
X129748121Y-98677920D01*
X129760659Y-98625315D01*
X129762598Y-98618130D01*
X129767068Y-98603314D01*
X129768475Y-98598652D01*
X129769146Y-98593840D01*
X129769150Y-98593823D01*
X129769708Y-98589821D01*
X129771932Y-98578018D01*
X129772322Y-98576381D01*
X129781891Y-98536232D01*
X129781438Y-98527264D01*
X129781242Y-98523382D01*
X129782289Y-98499618D01*
X129834509Y-98125236D01*
X129834702Y-98124138D01*
X129835046Y-98122975D01*
X129840058Y-98085471D01*
X129840154Y-98084764D01*
X129844491Y-98053671D01*
X129844941Y-98050446D01*
X129844937Y-98049236D01*
X129845049Y-98048121D01*
X130009233Y-96819439D01*
X130010358Y-96812499D01*
X130273345Y-95435035D01*
X130276693Y-95421571D01*
X130699766Y-94048115D01*
X130704216Y-94035937D01*
X130869845Y-93646105D01*
X131281591Y-92676997D01*
X131287097Y-92665651D01*
X132005168Y-91357166D01*
X132013203Y-91344400D01*
X132886350Y-90125718D01*
X133334792Y-89499812D01*
X133345506Y-89486797D01*
X134546698Y-88212017D01*
X134922469Y-87813225D01*
X134934073Y-87802370D01*
X136748444Y-86308196D01*
X136760561Y-86299373D01*
X137694321Y-85701008D01*
X143074590Y-85701008D01*
X143074725Y-85702870D01*
X143078953Y-85709443D01*
X149529688Y-92160178D01*
X149543632Y-92167792D01*
X149545465Y-92167661D01*
X149552080Y-92163410D01*
X156000303Y-85715187D01*
X156007917Y-85701243D01*
X156007839Y-85700141D01*
X156002826Y-85692525D01*
X155830307Y-85527375D01*
X155827277Y-85524656D01*
X155365150Y-85136198D01*
X155361978Y-85133702D01*
X154875749Y-84775877D01*
X154872391Y-84773569D01*
X154364101Y-84447879D01*
X154360583Y-84445782D01*
X153832345Y-84153577D01*
X153828720Y-84151722D01*
X153282725Y-83894214D01*
X153278957Y-83892584D01*
X152717488Y-83670849D01*
X152713659Y-83669478D01*
X152139002Y-83484422D01*
X152135127Y-83483311D01*
X151549729Y-83335726D01*
X151545768Y-83334863D01*
X150952088Y-83225367D01*
X150948066Y-83224758D01*
X150348529Y-83153798D01*
X150344527Y-83153455D01*
X149741636Y-83121331D01*
X149737619Y-83121247D01*
X149133942Y-83128096D01*
X149129880Y-83128273D01*
X148527916Y-83174064D01*
X148523889Y-83174501D01*
X147926160Y-83259039D01*
X147922123Y-83259743D01*
X147331087Y-83382678D01*
X147327139Y-83383634D01*
X146745265Y-83544454D01*
X146741373Y-83545667D01*
X146171079Y-83743706D01*
X146167296Y-83745159D01*
X145610981Y-83979584D01*
X145607282Y-83981285D01*
X145067258Y-84251120D01*
X145063656Y-84253068D01*
X144542193Y-84557175D01*
X144538729Y-84559348D01*
X144037952Y-84896492D01*
X144034661Y-84898865D01*
X143556695Y-85267614D01*
X143553540Y-85270213D01*
X143100348Y-85669054D01*
X143097400Y-85671822D01*
X143082190Y-85687059D01*
X143074590Y-85701008D01*
X137694321Y-85701008D01*
X138789537Y-84999180D01*
X138801928Y-84992194D01*
X138886363Y-84950683D01*
X141022167Y-83900639D01*
X141034684Y-83895304D01*
X142575661Y-83334863D01*
X143422392Y-83026914D01*
X143434987Y-83023066D01*
X145966086Y-82392261D01*
X145978713Y-82389791D01*
X147581566Y-82160505D01*
X148621551Y-82011737D01*
X148637175Y-82010486D01*
X149036956Y-82003457D01*
X151647498Y-81957559D01*
X151658260Y-81957830D01*
G37*
%TD.AperFunction*%
M02*
