%TF.GenerationSoftware,KiCad,Pcbnew,(5.1.12-1-10_14)*%
%TF.CreationDate,2022-04-14T08:39:32-04:00*%
%TF.ProjectId,Caution_SAO,43617574-696f-46e5-9f53-414f2e6b6963,rev?*%
%TF.SameCoordinates,Original*%
%TF.FileFunction,Soldermask,Top*%
%TF.FilePolarity,Negative*%
%FSLAX46Y46*%
G04 Gerber Fmt 4.6, Leading zero omitted, Abs format (unit mm)*
G04 Created by KiCad (PCBNEW (5.1.12-1-10_14)) date 2022-04-14 08:39:32*
%MOMM*%
%LPD*%
G01*
G04 APERTURE LIST*
%ADD10C,0.100000*%
%ADD11R,1.700000X1.700000*%
%ADD12O,1.700000X1.700000*%
G04 APERTURE END LIST*
D10*
%TO.C,svg2mod*%
G36*
X102374085Y-102498533D02*
G01*
X102374085Y-137498537D01*
X108705406Y-137498537D01*
X108705406Y-129235179D01*
X107933999Y-128976087D01*
X107328541Y-128203334D01*
X107103129Y-127626356D01*
X106934245Y-126922345D01*
X106830517Y-126095191D01*
X106795879Y-125148945D01*
X106829286Y-124255881D01*
X106929272Y-123450153D01*
X107092428Y-122742065D01*
X107315879Y-122142485D01*
X107919078Y-121332653D01*
X108707668Y-121046884D01*
X108707674Y-121046881D01*
X109132264Y-121105211D01*
X109484054Y-121248096D01*
X109788368Y-121475536D01*
X110029375Y-121703429D01*
X110029375Y-123614286D01*
X109918594Y-123614286D01*
X109740436Y-123312240D01*
X109499429Y-122968140D01*
X109200090Y-122682370D01*
X108855986Y-122566163D01*
X108469378Y-122703623D01*
X108130249Y-123148102D01*
X107888789Y-123947535D01*
X107798349Y-125154369D01*
X107896469Y-126392854D01*
X108147424Y-127176459D01*
X108489268Y-127594262D01*
X108860955Y-127716346D01*
X109207770Y-127605115D01*
X109527005Y-127303519D01*
X109755353Y-126975245D01*
X109928987Y-126673650D01*
X110029369Y-126673650D01*
X110029369Y-128557830D01*
X109760326Y-128806523D01*
X109491736Y-129007737D01*
X109147632Y-129177299D01*
X108705406Y-129235179D01*
X108705406Y-137498537D01*
X114199766Y-137498537D01*
X114199766Y-129081892D01*
X113202273Y-129081892D01*
X112943630Y-127488450D01*
X111556816Y-127488450D01*
X111298173Y-129081887D01*
X110326000Y-129081887D01*
X111707390Y-121200617D01*
X112624397Y-121200617D01*
X112624397Y-118241636D01*
X111664884Y-118241636D01*
X111664884Y-112964393D01*
X110971703Y-116389107D01*
X110305653Y-116389107D01*
X109612472Y-112964393D01*
X109612472Y-118241636D01*
X108702699Y-118241636D01*
X108702699Y-110360362D01*
X109823185Y-110360362D01*
X110665129Y-114314112D01*
X111503911Y-110360362D01*
X112624397Y-110360362D01*
X112624397Y-118241636D01*
X112624397Y-121200617D01*
X112817925Y-121200617D01*
X114199766Y-129081892D01*
X114199766Y-137498537D01*
X116353014Y-137498537D01*
X116353014Y-129246030D01*
X115631411Y-129051458D01*
X115109539Y-128467850D01*
X114794840Y-127520373D01*
X114689922Y-126234143D01*
X114689922Y-121200617D01*
X115659381Y-121200617D01*
X115659381Y-126117483D01*
X115822616Y-127340596D01*
X116353014Y-127742572D01*
X116880700Y-127356422D01*
X117033987Y-126227384D01*
X117033987Y-118241636D01*
X116036494Y-118241636D01*
X115777399Y-116648650D01*
X114390583Y-116648650D01*
X114131940Y-118241636D01*
X113159770Y-118241636D01*
X114541611Y-110360362D01*
X115652146Y-110360362D01*
X117033987Y-118241636D01*
X117033987Y-126227384D01*
X117048908Y-126117483D01*
X117048908Y-121200617D01*
X118018821Y-121200617D01*
X118018821Y-126228716D01*
X117913175Y-127518982D01*
X117596491Y-128467850D01*
X117074618Y-129051458D01*
X116353014Y-129246030D01*
X116353014Y-137498537D01*
X120681667Y-137498537D01*
X120681667Y-129081892D01*
X119716729Y-129081892D01*
X119716729Y-122724879D01*
X118548767Y-122724879D01*
X118548767Y-121200617D01*
X118830015Y-121200617D01*
X118830015Y-118384515D01*
X118018818Y-118215405D01*
X117373113Y-117775897D01*
X117373113Y-115886291D01*
X117478470Y-115886291D01*
X118146782Y-116659044D01*
X118860310Y-116928989D01*
X119091371Y-116897339D01*
X119325146Y-116791532D01*
X119506013Y-116553239D01*
X119578813Y-116129561D01*
X119473457Y-115685078D01*
X119169145Y-115393883D01*
X118721946Y-115198095D01*
X118282433Y-114959803D01*
X117601460Y-114086669D01*
X117447088Y-113464633D01*
X117395721Y-112710271D01*
X117512445Y-111711281D01*
X117862817Y-110916071D01*
X118399212Y-110392103D01*
X119068761Y-110217475D01*
X119068765Y-110217479D01*
X119797217Y-110370763D01*
X120423023Y-110746966D01*
X120423023Y-112562416D01*
X120319928Y-112562416D01*
X119764659Y-111927121D01*
X119096347Y-111667579D01*
X118855340Y-111704649D01*
X118626541Y-111831708D01*
X118458331Y-112075427D01*
X118387791Y-112440326D01*
X118500834Y-112922336D01*
X118928137Y-113223931D01*
X119322433Y-113398468D01*
X119732101Y-113631335D01*
X120365142Y-114441166D01*
X120519742Y-115026164D01*
X120571334Y-115764658D01*
X120453882Y-116820456D01*
X120101526Y-117659240D01*
X119549934Y-118203163D01*
X118830015Y-118384515D01*
X118830015Y-121200617D01*
X121850081Y-121200617D01*
X121850081Y-122724874D01*
X120681667Y-122724874D01*
X120681667Y-129081892D01*
X120681667Y-137498537D01*
X124452789Y-137498537D01*
X124452789Y-129081892D01*
X122262011Y-129081892D01*
X122262011Y-127684243D01*
X122875158Y-127684243D01*
X122875158Y-122597815D01*
X122262011Y-122597815D01*
X122262011Y-121200617D01*
X122993174Y-121200617D01*
X122993174Y-118241636D01*
X122028239Y-118241636D01*
X122028239Y-111884619D01*
X120860274Y-111884619D01*
X120860274Y-110360362D01*
X124161139Y-110360362D01*
X124161139Y-111884619D01*
X122993174Y-111884619D01*
X122993174Y-118241636D01*
X122993174Y-121200617D01*
X124452789Y-121200617D01*
X124452789Y-122597815D01*
X123839644Y-122597815D01*
X123839644Y-127684243D01*
X124452789Y-127684243D01*
X124452789Y-129081892D01*
X124452789Y-137498537D01*
X126952403Y-137498537D01*
X126952403Y-129246029D01*
X126147851Y-128969363D01*
X125538004Y-128139575D01*
X125253325Y-127312750D01*
X125082585Y-126314251D01*
X125025692Y-125143969D01*
X125082585Y-123965887D01*
X125253325Y-122965341D01*
X125538004Y-122142482D01*
X126147851Y-121312921D01*
X126952403Y-121036481D01*
X127447532Y-121206871D01*
X127447532Y-118241636D01*
X124741728Y-118241636D01*
X124741728Y-110360362D01*
X127447532Y-110360362D01*
X127447532Y-111884619D01*
X125701239Y-111884619D01*
X125701239Y-113245189D01*
X127321827Y-113245189D01*
X127321827Y-114769446D01*
X125701239Y-114769446D01*
X125701239Y-116717381D01*
X127447532Y-116717381D01*
X127447532Y-118241636D01*
X127447532Y-121206871D01*
X127755698Y-121312921D01*
X128366799Y-122142482D01*
X128652926Y-122965341D01*
X128824600Y-123965887D01*
X128881824Y-125143969D01*
X128824931Y-126314251D01*
X128654191Y-127312750D01*
X128369512Y-128139575D01*
X127758938Y-128969363D01*
X126952403Y-129246029D01*
X126952403Y-137498537D01*
X133017398Y-137498537D01*
X133017398Y-129081892D01*
X132087731Y-129081892D01*
X130499699Y-123672163D01*
X130499699Y-129081892D01*
X129615700Y-129081892D01*
X129615700Y-121200617D01*
X130768742Y-121200617D01*
X131861645Y-124817621D01*
X131861645Y-118241635D01*
X130683281Y-118241635D01*
X129663179Y-115351835D01*
X129218693Y-115351835D01*
X129218693Y-118241635D01*
X128258731Y-118241635D01*
X128258731Y-110360362D01*
X129877057Y-110360362D01*
X130447247Y-110439942D01*
X130894446Y-110783590D01*
X131228602Y-111471790D01*
X131354306Y-112525339D01*
X131305905Y-113317994D01*
X131160776Y-113949213D01*
X130613195Y-114864849D01*
X131861645Y-118241635D01*
X131861645Y-124817621D01*
X132132948Y-125715508D01*
X132132948Y-121200617D01*
X133017398Y-121200617D01*
X133017398Y-129081892D01*
X133017398Y-137498537D01*
X137374083Y-137498537D01*
X137374083Y-102498533D01*
X102374085Y-102498533D01*
G37*
G36*
X126955116Y-122523660D02*
G01*
X126608299Y-122661571D01*
X126311673Y-123116450D01*
X126105935Y-123937132D01*
X126028155Y-125143969D01*
X126103215Y-126345377D01*
X126306692Y-127149782D01*
X126600606Y-127610539D01*
X126955110Y-127758398D01*
X127309160Y-127610539D01*
X127603072Y-127139382D01*
X127811524Y-126292472D01*
X127879354Y-125138542D01*
X127801584Y-123931708D01*
X127598105Y-123127303D01*
X127301931Y-122666543D01*
X126955116Y-122523660D01*
G37*
G36*
X115084218Y-112377028D02*
G01*
X114624358Y-115203526D01*
X115544076Y-115203526D01*
X115084218Y-112377028D01*
G37*
G36*
X112250449Y-123217284D02*
G01*
X111790588Y-126043779D01*
X112709858Y-126043779D01*
X112250449Y-123217284D01*
G37*
G36*
X129218693Y-111810464D02*
G01*
X129218693Y-113932934D01*
X129514867Y-113932934D01*
X129901926Y-113885454D01*
X130163283Y-113668413D01*
X130308881Y-113308488D01*
X130356811Y-112774028D01*
X130298931Y-112265790D01*
X130100425Y-111932543D01*
X129871625Y-111831709D01*
X129567765Y-111810459D01*
X129218693Y-111810464D01*
G37*
%TD*%
D11*
%TO.C,J1*%
X116840000Y-133350000D03*
D12*
X116840000Y-135890000D03*
X119380000Y-133350000D03*
X119380000Y-135890000D03*
X121920000Y-133350000D03*
X121920000Y-135890000D03*
%TD*%
M02*
