%TF.GenerationSoftware,KiCad,Pcbnew,(5.1.12-1-10_14)*%
%TF.CreationDate,2022-04-05T15:59:24-04:00*%
%TF.ProjectId,Caution_SAO,43617574-696f-46e5-9f53-414f2e6b6963,rev?*%
%TF.SameCoordinates,Original*%
%TF.FileFunction,Legend,Bot*%
%TF.FilePolarity,Positive*%
%FSLAX46Y46*%
G04 Gerber Fmt 4.6, Leading zero omitted, Abs format (unit mm)*
G04 Created by KiCad (PCBNEW (5.1.12-1-10_14)) date 2022-04-05 15:59:24*
%MOMM*%
%LPD*%
G01*
G04 APERTURE LIST*
%ADD10C,0.150000*%
%ADD11C,0.400000*%
%ADD12C,0.120000*%
G04 APERTURE END LIST*
D10*
X139239047Y-137882380D02*
X139239047Y-138596666D01*
X139286666Y-138739523D01*
X139381904Y-138834761D01*
X139524761Y-138882380D01*
X139620000Y-138882380D01*
X138286666Y-138882380D02*
X138762857Y-138882380D01*
X138762857Y-137882380D01*
X137381904Y-138787142D02*
X137429523Y-138834761D01*
X137572380Y-138882380D01*
X137667619Y-138882380D01*
X137810476Y-138834761D01*
X137905714Y-138739523D01*
X137953333Y-138644285D01*
X138000952Y-138453809D01*
X138000952Y-138310952D01*
X137953333Y-138120476D01*
X137905714Y-138025238D01*
X137810476Y-137930000D01*
X137667619Y-137882380D01*
X137572380Y-137882380D01*
X137429523Y-137930000D01*
X137381904Y-137977619D01*
X136667619Y-137882380D02*
X136667619Y-138596666D01*
X136715238Y-138739523D01*
X136810476Y-138834761D01*
X136953333Y-138882380D01*
X137048571Y-138882380D01*
X135715238Y-138882380D02*
X136191428Y-138882380D01*
X136191428Y-137882380D01*
X134810476Y-138787142D02*
X134858095Y-138834761D01*
X135000952Y-138882380D01*
X135096190Y-138882380D01*
X135239047Y-138834761D01*
X135334285Y-138739523D01*
X135381904Y-138644285D01*
X135429523Y-138453809D01*
X135429523Y-138310952D01*
X135381904Y-138120476D01*
X135334285Y-138025238D01*
X135239047Y-137930000D01*
X135096190Y-137882380D01*
X135000952Y-137882380D01*
X134858095Y-137930000D01*
X134810476Y-137977619D01*
X134096190Y-137882380D02*
X134096190Y-138596666D01*
X134143809Y-138739523D01*
X134239047Y-138834761D01*
X134381904Y-138882380D01*
X134477142Y-138882380D01*
X133143809Y-138882380D02*
X133620000Y-138882380D01*
X133620000Y-137882380D01*
X132239047Y-138787142D02*
X132286666Y-138834761D01*
X132429523Y-138882380D01*
X132524761Y-138882380D01*
X132667619Y-138834761D01*
X132762857Y-138739523D01*
X132810476Y-138644285D01*
X132858095Y-138453809D01*
X132858095Y-138310952D01*
X132810476Y-138120476D01*
X132762857Y-138025238D01*
X132667619Y-137930000D01*
X132524761Y-137882380D01*
X132429523Y-137882380D01*
X132286666Y-137930000D01*
X132239047Y-137977619D01*
X131524761Y-137882380D02*
X131524761Y-138596666D01*
X131572380Y-138739523D01*
X131667619Y-138834761D01*
X131810476Y-138882380D01*
X131905714Y-138882380D01*
X130572380Y-138882380D02*
X131048571Y-138882380D01*
X131048571Y-137882380D01*
X129667619Y-138787142D02*
X129715238Y-138834761D01*
X129858095Y-138882380D01*
X129953333Y-138882380D01*
X130096190Y-138834761D01*
X130191428Y-138739523D01*
X130239047Y-138644285D01*
X130286666Y-138453809D01*
X130286666Y-138310952D01*
X130239047Y-138120476D01*
X130191428Y-138025238D01*
X130096190Y-137930000D01*
X129953333Y-137882380D01*
X129858095Y-137882380D01*
X129715238Y-137930000D01*
X129667619Y-137977619D01*
D11*
%TO.C,D1*%
X124488240Y-127292100D02*
G75*
G03*
X124488240Y-127292100I-200000J0D01*
G01*
%TO.C,D2*%
X123338240Y-112052100D02*
G75*
G03*
X123338240Y-112052100I-200000J0D01*
G01*
D12*
%TO.C,J1*%
X137220000Y-132020000D02*
X137220000Y-137220000D01*
X132080000Y-132020000D02*
X137220000Y-132020000D01*
X129480000Y-137220000D02*
X137220000Y-137220000D01*
X132080000Y-132020000D02*
X132080000Y-134620000D01*
X132080000Y-134620000D02*
X129480000Y-134620000D01*
X129480000Y-134620000D02*
X129480000Y-137220000D01*
X130810000Y-132020000D02*
X129480000Y-132020000D01*
X129480000Y-132020000D02*
X129480000Y-133350000D01*
%TO.C,R1*%
X115930000Y-134172936D02*
X115930000Y-135627064D01*
X117750000Y-134172936D02*
X117750000Y-135627064D01*
%TO.C,R2*%
X124100000Y-134172936D02*
X124100000Y-135627064D01*
X122280000Y-134172936D02*
X122280000Y-135627064D01*
%TO.C,D1*%
D10*
X115939520Y-124666784D02*
X114939520Y-124666784D01*
X114939520Y-124904880D01*
X114987140Y-125047737D01*
X115082378Y-125142975D01*
X115177616Y-125190594D01*
X115368092Y-125238213D01*
X115510949Y-125238213D01*
X115701425Y-125190594D01*
X115796663Y-125142975D01*
X115891901Y-125047737D01*
X115939520Y-124904880D01*
X115939520Y-124666784D01*
X115939520Y-126190594D02*
X115939520Y-125619165D01*
X115939520Y-125904880D02*
X114939520Y-125904880D01*
X115082378Y-125809641D01*
X115177616Y-125714403D01*
X115225235Y-125619165D01*
%TO.C,D2*%
X114789520Y-109426784D02*
X113789520Y-109426784D01*
X113789520Y-109664880D01*
X113837140Y-109807737D01*
X113932378Y-109902975D01*
X114027616Y-109950594D01*
X114218092Y-109998213D01*
X114360949Y-109998213D01*
X114551425Y-109950594D01*
X114646663Y-109902975D01*
X114741901Y-109807737D01*
X114789520Y-109664880D01*
X114789520Y-109426784D01*
X113884759Y-110379165D02*
X113837140Y-110426784D01*
X113789520Y-110522022D01*
X113789520Y-110760118D01*
X113837140Y-110855356D01*
X113884759Y-110902975D01*
X113979997Y-110950594D01*
X114075235Y-110950594D01*
X114218092Y-110902975D01*
X114789520Y-110331546D01*
X114789520Y-110950594D01*
%TO.C,J1*%
X127932380Y-134286666D02*
X128646666Y-134286666D01*
X128789523Y-134239047D01*
X128884761Y-134143809D01*
X128932380Y-134000952D01*
X128932380Y-133905714D01*
X128932380Y-135286666D02*
X128932380Y-134715238D01*
X128932380Y-135000952D02*
X127932380Y-135000952D01*
X128075238Y-134905714D01*
X128170476Y-134810476D01*
X128218095Y-134715238D01*
%TO.C,R1*%
X115472380Y-134733333D02*
X114996190Y-134400000D01*
X115472380Y-134161904D02*
X114472380Y-134161904D01*
X114472380Y-134542857D01*
X114520000Y-134638095D01*
X114567619Y-134685714D01*
X114662857Y-134733333D01*
X114805714Y-134733333D01*
X114900952Y-134685714D01*
X114948571Y-134638095D01*
X114996190Y-134542857D01*
X114996190Y-134161904D01*
X115472380Y-135685714D02*
X115472380Y-135114285D01*
X115472380Y-135400000D02*
X114472380Y-135400000D01*
X114615238Y-135304761D01*
X114710476Y-135209523D01*
X114758095Y-135114285D01*
%TO.C,R2*%
X121822380Y-134733333D02*
X121346190Y-134400000D01*
X121822380Y-134161904D02*
X120822380Y-134161904D01*
X120822380Y-134542857D01*
X120870000Y-134638095D01*
X120917619Y-134685714D01*
X121012857Y-134733333D01*
X121155714Y-134733333D01*
X121250952Y-134685714D01*
X121298571Y-134638095D01*
X121346190Y-134542857D01*
X121346190Y-134161904D01*
X120917619Y-135114285D02*
X120870000Y-135161904D01*
X120822380Y-135257142D01*
X120822380Y-135495238D01*
X120870000Y-135590476D01*
X120917619Y-135638095D01*
X121012857Y-135685714D01*
X121108095Y-135685714D01*
X121250952Y-135638095D01*
X121822380Y-135066666D01*
X121822380Y-135685714D01*
%TD*%
M02*
