%TF.GenerationSoftware,KiCad,Pcbnew,(5.1.12-1-10_14)*%
%TF.CreationDate,2022-04-14T08:39:32-04:00*%
%TF.ProjectId,Caution_SAO,43617574-696f-46e5-9f53-414f2e6b6963,rev?*%
%TF.SameCoordinates,Original*%
%TF.FileFunction,Legend,Bot*%
%TF.FilePolarity,Positive*%
%FSLAX46Y46*%
G04 Gerber Fmt 4.6, Leading zero omitted, Abs format (unit mm)*
G04 Created by KiCad (PCBNEW (5.1.12-1-10_14)) date 2022-04-14 08:39:32*
%MOMM*%
%LPD*%
G01*
G04 APERTURE LIST*
%ADD10C,0.150000*%
%ADD11C,0.400000*%
%ADD12C,0.120000*%
G04 APERTURE END LIST*
D10*
X111560952Y-101576190D02*
X111608571Y-101528571D01*
X111703809Y-101480952D01*
X111799047Y-101480952D01*
X111894285Y-101528571D01*
X111941904Y-101576190D01*
X111989523Y-101671428D01*
X111989523Y-101766666D01*
X111941904Y-101861904D01*
X111894285Y-101909523D01*
X111799047Y-101957142D01*
X111703809Y-101957142D01*
X111608571Y-101909523D01*
X111560952Y-101861904D01*
X111560952Y-101480952D02*
X111560952Y-101861904D01*
X111513333Y-101909523D01*
X111465714Y-101909523D01*
X111370476Y-101861904D01*
X111322857Y-101766666D01*
X111322857Y-101528571D01*
X111418095Y-101385714D01*
X111560952Y-101290476D01*
X111751428Y-101242857D01*
X111941904Y-101290476D01*
X112084761Y-101385714D01*
X112180000Y-101528571D01*
X112227619Y-101719047D01*
X112180000Y-101909523D01*
X112084761Y-102052380D01*
X111941904Y-102147619D01*
X111751428Y-102195238D01*
X111560952Y-102147619D01*
X111418095Y-102052380D01*
X110465714Y-102004761D02*
X110560952Y-102052380D01*
X110751428Y-102052380D01*
X110846666Y-102004761D01*
X110894285Y-101957142D01*
X110941904Y-101861904D01*
X110941904Y-101576190D01*
X110894285Y-101480952D01*
X110846666Y-101433333D01*
X110751428Y-101385714D01*
X110560952Y-101385714D01*
X110465714Y-101433333D01*
X110132380Y-101385714D02*
X109894285Y-102052380D01*
X109656190Y-101385714D02*
X109894285Y-102052380D01*
X109989523Y-102290476D01*
X110037142Y-102338095D01*
X110132380Y-102385714D01*
X109275238Y-102052380D02*
X109275238Y-101052380D01*
X109275238Y-101433333D02*
X109180000Y-101385714D01*
X108989523Y-101385714D01*
X108894285Y-101433333D01*
X108846666Y-101480952D01*
X108799047Y-101576190D01*
X108799047Y-101861904D01*
X108846666Y-101957142D01*
X108894285Y-102004761D01*
X108989523Y-102052380D01*
X109180000Y-102052380D01*
X109275238Y-102004761D01*
X107989523Y-102004761D02*
X108084761Y-102052380D01*
X108275238Y-102052380D01*
X108370476Y-102004761D01*
X108418095Y-101909523D01*
X108418095Y-101528571D01*
X108370476Y-101433333D01*
X108275238Y-101385714D01*
X108084761Y-101385714D01*
X107989523Y-101433333D01*
X107941904Y-101528571D01*
X107941904Y-101623809D01*
X108418095Y-101719047D01*
X107513333Y-102052380D02*
X107513333Y-101385714D01*
X107513333Y-101576190D02*
X107465714Y-101480952D01*
X107418095Y-101433333D01*
X107322857Y-101385714D01*
X107227619Y-101385714D01*
X107037142Y-101385714D02*
X106656190Y-101385714D01*
X106894285Y-101052380D02*
X106894285Y-101909523D01*
X106846666Y-102004761D01*
X106751428Y-102052380D01*
X106656190Y-102052380D01*
X105941904Y-102004761D02*
X106037142Y-102052380D01*
X106227619Y-102052380D01*
X106322857Y-102004761D01*
X106370476Y-101909523D01*
X106370476Y-101528571D01*
X106322857Y-101433333D01*
X106227619Y-101385714D01*
X106037142Y-101385714D01*
X105941904Y-101433333D01*
X105894285Y-101528571D01*
X105894285Y-101623809D01*
X106370476Y-101719047D01*
X105513333Y-102004761D02*
X105418095Y-102052380D01*
X105227619Y-102052380D01*
X105132380Y-102004761D01*
X105084761Y-101909523D01*
X105084761Y-101861904D01*
X105132380Y-101766666D01*
X105227619Y-101719047D01*
X105370476Y-101719047D01*
X105465714Y-101671428D01*
X105513333Y-101576190D01*
X105513333Y-101528571D01*
X105465714Y-101433333D01*
X105370476Y-101385714D01*
X105227619Y-101385714D01*
X105132380Y-101433333D01*
X104799047Y-101385714D02*
X104418095Y-101385714D01*
X104656190Y-101052380D02*
X104656190Y-101909523D01*
X104608571Y-102004761D01*
X104513333Y-102052380D01*
X104418095Y-102052380D01*
X104084761Y-101385714D02*
X104084761Y-102385714D01*
X104084761Y-101433333D02*
X103989523Y-101385714D01*
X103799047Y-101385714D01*
X103703809Y-101433333D01*
X103656190Y-101480952D01*
X103608571Y-101576190D01*
X103608571Y-101861904D01*
X103656190Y-101957142D01*
X103703809Y-102004761D01*
X103799047Y-102052380D01*
X103989523Y-102052380D01*
X104084761Y-102004761D01*
X103180000Y-102052380D02*
X103180000Y-101385714D01*
X103180000Y-101052380D02*
X103227619Y-101100000D01*
X103180000Y-101147619D01*
X103132380Y-101100000D01*
X103180000Y-101052380D01*
X103180000Y-101147619D01*
X102560952Y-102052380D02*
X102656190Y-102004761D01*
X102703809Y-101909523D01*
X102703809Y-101052380D01*
X102037142Y-102052380D02*
X102132380Y-102004761D01*
X102180000Y-101957142D01*
X102227619Y-101861904D01*
X102227619Y-101576190D01*
X102180000Y-101480952D01*
X102132380Y-101433333D01*
X102037142Y-101385714D01*
X101894285Y-101385714D01*
X101799047Y-101433333D01*
X101751428Y-101480952D01*
X101703809Y-101576190D01*
X101703809Y-101861904D01*
X101751428Y-101957142D01*
X101799047Y-102004761D01*
X101894285Y-102052380D01*
X102037142Y-102052380D01*
X101418095Y-101385714D02*
X101037142Y-101385714D01*
X101275238Y-101052380D02*
X101275238Y-101909523D01*
X101227619Y-102004761D01*
X101132380Y-102052380D01*
X101037142Y-102052380D01*
X139239047Y-137882380D02*
X139239047Y-138596666D01*
X139286666Y-138739523D01*
X139381904Y-138834761D01*
X139524761Y-138882380D01*
X139620000Y-138882380D01*
X138286666Y-138882380D02*
X138762857Y-138882380D01*
X138762857Y-137882380D01*
X137381904Y-138787142D02*
X137429523Y-138834761D01*
X137572380Y-138882380D01*
X137667619Y-138882380D01*
X137810476Y-138834761D01*
X137905714Y-138739523D01*
X137953333Y-138644285D01*
X138000952Y-138453809D01*
X138000952Y-138310952D01*
X137953333Y-138120476D01*
X137905714Y-138025238D01*
X137810476Y-137930000D01*
X137667619Y-137882380D01*
X137572380Y-137882380D01*
X137429523Y-137930000D01*
X137381904Y-137977619D01*
X136667619Y-137882380D02*
X136667619Y-138596666D01*
X136715238Y-138739523D01*
X136810476Y-138834761D01*
X136953333Y-138882380D01*
X137048571Y-138882380D01*
X135715238Y-138882380D02*
X136191428Y-138882380D01*
X136191428Y-137882380D01*
X134810476Y-138787142D02*
X134858095Y-138834761D01*
X135000952Y-138882380D01*
X135096190Y-138882380D01*
X135239047Y-138834761D01*
X135334285Y-138739523D01*
X135381904Y-138644285D01*
X135429523Y-138453809D01*
X135429523Y-138310952D01*
X135381904Y-138120476D01*
X135334285Y-138025238D01*
X135239047Y-137930000D01*
X135096190Y-137882380D01*
X135000952Y-137882380D01*
X134858095Y-137930000D01*
X134810476Y-137977619D01*
X134096190Y-137882380D02*
X134096190Y-138596666D01*
X134143809Y-138739523D01*
X134239047Y-138834761D01*
X134381904Y-138882380D01*
X134477142Y-138882380D01*
X133143809Y-138882380D02*
X133620000Y-138882380D01*
X133620000Y-137882380D01*
X132239047Y-138787142D02*
X132286666Y-138834761D01*
X132429523Y-138882380D01*
X132524761Y-138882380D01*
X132667619Y-138834761D01*
X132762857Y-138739523D01*
X132810476Y-138644285D01*
X132858095Y-138453809D01*
X132858095Y-138310952D01*
X132810476Y-138120476D01*
X132762857Y-138025238D01*
X132667619Y-137930000D01*
X132524761Y-137882380D01*
X132429523Y-137882380D01*
X132286666Y-137930000D01*
X132239047Y-137977619D01*
X131524761Y-137882380D02*
X131524761Y-138596666D01*
X131572380Y-138739523D01*
X131667619Y-138834761D01*
X131810476Y-138882380D01*
X131905714Y-138882380D01*
X130572380Y-138882380D02*
X131048571Y-138882380D01*
X131048571Y-137882380D01*
X129667619Y-138787142D02*
X129715238Y-138834761D01*
X129858095Y-138882380D01*
X129953333Y-138882380D01*
X130096190Y-138834761D01*
X130191428Y-138739523D01*
X130239047Y-138644285D01*
X130286666Y-138453809D01*
X130286666Y-138310952D01*
X130239047Y-138120476D01*
X130191428Y-138025238D01*
X130096190Y-137930000D01*
X129953333Y-137882380D01*
X129858095Y-137882380D01*
X129715238Y-137930000D01*
X129667619Y-137977619D01*
D11*
%TO.C,D1*%
X124488240Y-127292100D02*
G75*
G03*
X124488240Y-127292100I-200000J0D01*
G01*
%TO.C,D2*%
X123338240Y-112052100D02*
G75*
G03*
X123338240Y-112052100I-200000J0D01*
G01*
D12*
%TO.C,J1*%
X115510000Y-132020000D02*
X115510000Y-133350000D01*
X116840000Y-132020000D02*
X115510000Y-132020000D01*
X115510000Y-134620000D02*
X115510000Y-137220000D01*
X118110000Y-134620000D02*
X115510000Y-134620000D01*
X118110000Y-132020000D02*
X118110000Y-134620000D01*
X115510000Y-137220000D02*
X123250000Y-137220000D01*
X118110000Y-132020000D02*
X123250000Y-132020000D01*
X123250000Y-132020000D02*
X123250000Y-137220000D01*
%TO.C,R1*%
X107222936Y-128630000D02*
X108677064Y-128630000D01*
X107222936Y-130450000D02*
X108677064Y-130450000D01*
%TO.C,R2*%
X106942936Y-136800000D02*
X108397064Y-136800000D01*
X106942936Y-134980000D02*
X108397064Y-134980000D01*
%TO.C,D1*%
D10*
X115939520Y-124666784D02*
X114939520Y-124666784D01*
X114939520Y-124904880D01*
X114987140Y-125047737D01*
X115082378Y-125142975D01*
X115177616Y-125190594D01*
X115368092Y-125238213D01*
X115510949Y-125238213D01*
X115701425Y-125190594D01*
X115796663Y-125142975D01*
X115891901Y-125047737D01*
X115939520Y-124904880D01*
X115939520Y-124666784D01*
X115939520Y-126190594D02*
X115939520Y-125619165D01*
X115939520Y-125904880D02*
X114939520Y-125904880D01*
X115082378Y-125809641D01*
X115177616Y-125714403D01*
X115225235Y-125619165D01*
%TO.C,D2*%
X114789520Y-109426784D02*
X113789520Y-109426784D01*
X113789520Y-109664880D01*
X113837140Y-109807737D01*
X113932378Y-109902975D01*
X114027616Y-109950594D01*
X114218092Y-109998213D01*
X114360949Y-109998213D01*
X114551425Y-109950594D01*
X114646663Y-109902975D01*
X114741901Y-109807737D01*
X114789520Y-109664880D01*
X114789520Y-109426784D01*
X113884759Y-110379165D02*
X113837140Y-110426784D01*
X113789520Y-110522022D01*
X113789520Y-110760118D01*
X113837140Y-110855356D01*
X113884759Y-110902975D01*
X113979997Y-110950594D01*
X114075235Y-110950594D01*
X114218092Y-110902975D01*
X114789520Y-110331546D01*
X114789520Y-110950594D01*
%TO.C,J1*%
X113962380Y-134286666D02*
X114676666Y-134286666D01*
X114819523Y-134239047D01*
X114914761Y-134143809D01*
X114962380Y-134000952D01*
X114962380Y-133905714D01*
X114962380Y-135286666D02*
X114962380Y-134715238D01*
X114962380Y-135000952D02*
X113962380Y-135000952D01*
X114105238Y-134905714D01*
X114200476Y-134810476D01*
X114248095Y-134715238D01*
%TO.C,R1*%
X108116666Y-131812380D02*
X108450000Y-131336190D01*
X108688095Y-131812380D02*
X108688095Y-130812380D01*
X108307142Y-130812380D01*
X108211904Y-130860000D01*
X108164285Y-130907619D01*
X108116666Y-131002857D01*
X108116666Y-131145714D01*
X108164285Y-131240952D01*
X108211904Y-131288571D01*
X108307142Y-131336190D01*
X108688095Y-131336190D01*
X107164285Y-131812380D02*
X107735714Y-131812380D01*
X107450000Y-131812380D02*
X107450000Y-130812380D01*
X107545238Y-130955238D01*
X107640476Y-131050476D01*
X107735714Y-131098095D01*
%TO.C,R2*%
X107836666Y-138162380D02*
X108170000Y-137686190D01*
X108408095Y-138162380D02*
X108408095Y-137162380D01*
X108027142Y-137162380D01*
X107931904Y-137210000D01*
X107884285Y-137257619D01*
X107836666Y-137352857D01*
X107836666Y-137495714D01*
X107884285Y-137590952D01*
X107931904Y-137638571D01*
X108027142Y-137686190D01*
X108408095Y-137686190D01*
X107455714Y-137257619D02*
X107408095Y-137210000D01*
X107312857Y-137162380D01*
X107074761Y-137162380D01*
X106979523Y-137210000D01*
X106931904Y-137257619D01*
X106884285Y-137352857D01*
X106884285Y-137448095D01*
X106931904Y-137590952D01*
X107503333Y-138162380D01*
X106884285Y-138162380D01*
%TD*%
M02*
