%TF.GenerationSoftware,KiCad,Pcbnew,(5.1.12-1-10_14)*%
%TF.CreationDate,2022-04-05T15:59:24-04:00*%
%TF.ProjectId,Caution_SAO,43617574-696f-46e5-9f53-414f2e6b6963,rev?*%
%TF.SameCoordinates,Original*%
%TF.FileFunction,Soldermask,Bot*%
%TF.FilePolarity,Negative*%
%FSLAX46Y46*%
G04 Gerber Fmt 4.6, Leading zero omitted, Abs format (unit mm)*
G04 Created by KiCad (PCBNEW (5.1.12-1-10_14)) date 2022-04-05 15:59:24*
%MOMM*%
%LPD*%
G01*
G04 APERTURE LIST*
%ADD10C,1.600000*%
%ADD11R,1.400000X2.600000*%
%ADD12R,1.700000X1.700000*%
%ADD13O,1.700000X1.700000*%
G04 APERTURE END LIST*
D10*
%TO.C,D1*%
X121405240Y-125872140D02*
G75*
G03*
X121405240Y-125872140I-800000J0D01*
G01*
%TO.C,D2*%
X120255240Y-110632140D02*
G75*
G03*
X120255240Y-110632140I-800000J0D01*
G01*
%TD*%
D11*
%TO.C,D1*%
X117990000Y-125730000D03*
X123190000Y-125730000D03*
%TD*%
%TO.C,D2*%
X122040000Y-110490000D03*
X116840000Y-110490000D03*
%TD*%
D12*
%TO.C,J1*%
X130810000Y-133350000D03*
D13*
X130810000Y-135890000D03*
X133350000Y-133350000D03*
X133350000Y-135890000D03*
X135890000Y-133350000D03*
X135890000Y-135890000D03*
%TD*%
%TO.C,R1*%
G36*
G01*
X116215000Y-132700000D02*
X117465000Y-132700000D01*
G75*
G02*
X117715000Y-132950000I0J-250000D01*
G01*
X117715000Y-133750000D01*
G75*
G02*
X117465000Y-134000000I-250000J0D01*
G01*
X116215000Y-134000000D01*
G75*
G02*
X115965000Y-133750000I0J250000D01*
G01*
X115965000Y-132950000D01*
G75*
G02*
X116215000Y-132700000I250000J0D01*
G01*
G37*
G36*
G01*
X116215000Y-135800000D02*
X117465000Y-135800000D01*
G75*
G02*
X117715000Y-136050000I0J-250000D01*
G01*
X117715000Y-136850000D01*
G75*
G02*
X117465000Y-137100000I-250000J0D01*
G01*
X116215000Y-137100000D01*
G75*
G02*
X115965000Y-136850000I0J250000D01*
G01*
X115965000Y-136050000D01*
G75*
G02*
X116215000Y-135800000I250000J0D01*
G01*
G37*
%TD*%
%TO.C,R2*%
G36*
G01*
X122565000Y-135800000D02*
X123815000Y-135800000D01*
G75*
G02*
X124065000Y-136050000I0J-250000D01*
G01*
X124065000Y-136850000D01*
G75*
G02*
X123815000Y-137100000I-250000J0D01*
G01*
X122565000Y-137100000D01*
G75*
G02*
X122315000Y-136850000I0J250000D01*
G01*
X122315000Y-136050000D01*
G75*
G02*
X122565000Y-135800000I250000J0D01*
G01*
G37*
G36*
G01*
X122565000Y-132700000D02*
X123815000Y-132700000D01*
G75*
G02*
X124065000Y-132950000I0J-250000D01*
G01*
X124065000Y-133750000D01*
G75*
G02*
X123815000Y-134000000I-250000J0D01*
G01*
X122565000Y-134000000D01*
G75*
G02*
X122315000Y-133750000I0J250000D01*
G01*
X122315000Y-132950000D01*
G75*
G02*
X122565000Y-132700000I250000J0D01*
G01*
G37*
%TD*%
M02*
