%FSLAX45Y45*%
G04 Gerber Fmt 4.5, Leading zero omitted, Abs format (unit mm)*
G04 Created by KiCad (PCBNEW (6.99.0-2103-gdc6c27b686)) date 2022-06-20 02:17:37*
%MOMM*%
%LPD*%
G01*
G04 APERTURE LIST*
%TA.AperFunction,Profile*%
%ADD10C,0.100000*%
%TD*%
%ADD11C,0.200000*%
%ADD12C,0.100000*%
G04 APERTURE END LIST*
D10*
X7920000Y-7420000D02*
X22660000Y-7420000D01*
X22660000Y-7420000D02*
X22660000Y-10630000D01*
X22660000Y-10630000D02*
X7920000Y-10630000D01*
X7920000Y-10630000D02*
X7920000Y-7420000D01*
D11*
D12*
X21727500Y-8822500D02*
X21827500Y-8922500D01*
X21827500Y-8822500D02*
X21727500Y-8922500D01*
X21727500Y-9076500D02*
X21827500Y-9176500D01*
X21827500Y-9076500D02*
X21727500Y-9176500D01*
X21981500Y-8822500D02*
X22081500Y-8922500D01*
X22081500Y-8822500D02*
X21981500Y-8922500D01*
X21981500Y-9076500D02*
X22081500Y-9176500D01*
X22081500Y-9076500D02*
X21981500Y-9176500D01*
X22235500Y-8822500D02*
X22335500Y-8922500D01*
X22335500Y-8822500D02*
X22235500Y-8922500D01*
X22235500Y-9076500D02*
X22335500Y-9176500D01*
X22335500Y-9076500D02*
X22235500Y-9176500D01*
D11*
X8162619Y-10928476D02*
X8162619Y-10728476D01*
X8162619Y-10728476D02*
X8210238Y-10728476D01*
X8210238Y-10728476D02*
X8238809Y-10738000D01*
X8238809Y-10738000D02*
X8257857Y-10757048D01*
X8257857Y-10757048D02*
X8267381Y-10776095D01*
X8267381Y-10776095D02*
X8276905Y-10814190D01*
X8276905Y-10814190D02*
X8276905Y-10842762D01*
X8276905Y-10842762D02*
X8267381Y-10880857D01*
X8267381Y-10880857D02*
X8257857Y-10899905D01*
X8257857Y-10899905D02*
X8238809Y-10918952D01*
X8238809Y-10918952D02*
X8210238Y-10928476D01*
X8210238Y-10928476D02*
X8162619Y-10928476D01*
X8362619Y-10928476D02*
X8362619Y-10795143D01*
X8362619Y-10833238D02*
X8372143Y-10814190D01*
X8372143Y-10814190D02*
X8381667Y-10804667D01*
X8381667Y-10804667D02*
X8400714Y-10795143D01*
X8400714Y-10795143D02*
X8419762Y-10795143D01*
X8486429Y-10928476D02*
X8486429Y-10795143D01*
X8486429Y-10728476D02*
X8476905Y-10738000D01*
X8476905Y-10738000D02*
X8486429Y-10747524D01*
X8486429Y-10747524D02*
X8495952Y-10738000D01*
X8495952Y-10738000D02*
X8486429Y-10728476D01*
X8486429Y-10728476D02*
X8486429Y-10747524D01*
X8610238Y-10928476D02*
X8591190Y-10918952D01*
X8591190Y-10918952D02*
X8581667Y-10899905D01*
X8581667Y-10899905D02*
X8581667Y-10728476D01*
X8715000Y-10928476D02*
X8695952Y-10918952D01*
X8695952Y-10918952D02*
X8686429Y-10899905D01*
X8686429Y-10899905D02*
X8686429Y-10728476D01*
X8911190Y-10928476D02*
X8911190Y-10728476D01*
X8911190Y-10728476D02*
X8977857Y-10871333D01*
X8977857Y-10871333D02*
X9044524Y-10728476D01*
X9044524Y-10728476D02*
X9044524Y-10928476D01*
X9225476Y-10928476D02*
X9225476Y-10823714D01*
X9225476Y-10823714D02*
X9215952Y-10804667D01*
X9215952Y-10804667D02*
X9196905Y-10795143D01*
X9196905Y-10795143D02*
X9158809Y-10795143D01*
X9158809Y-10795143D02*
X9139762Y-10804667D01*
X9225476Y-10918952D02*
X9206429Y-10928476D01*
X9206429Y-10928476D02*
X9158809Y-10928476D01*
X9158809Y-10928476D02*
X9139762Y-10918952D01*
X9139762Y-10918952D02*
X9130238Y-10899905D01*
X9130238Y-10899905D02*
X9130238Y-10880857D01*
X9130238Y-10880857D02*
X9139762Y-10861810D01*
X9139762Y-10861810D02*
X9158809Y-10852286D01*
X9158809Y-10852286D02*
X9206429Y-10852286D01*
X9206429Y-10852286D02*
X9225476Y-10842762D01*
X9320714Y-10795143D02*
X9320714Y-10995143D01*
X9320714Y-10804667D02*
X9339762Y-10795143D01*
X9339762Y-10795143D02*
X9377857Y-10795143D01*
X9377857Y-10795143D02*
X9396905Y-10804667D01*
X9396905Y-10804667D02*
X9406429Y-10814190D01*
X9406429Y-10814190D02*
X9415952Y-10833238D01*
X9415952Y-10833238D02*
X9415952Y-10890381D01*
X9415952Y-10890381D02*
X9406429Y-10909429D01*
X9406429Y-10909429D02*
X9396905Y-10918952D01*
X9396905Y-10918952D02*
X9377857Y-10928476D01*
X9377857Y-10928476D02*
X9339762Y-10928476D01*
X9339762Y-10928476D02*
X9320714Y-10918952D01*
X9501667Y-10909429D02*
X9511190Y-10918952D01*
X9511190Y-10918952D02*
X9501667Y-10928476D01*
X9501667Y-10928476D02*
X9492143Y-10918952D01*
X9492143Y-10918952D02*
X9501667Y-10909429D01*
X9501667Y-10909429D02*
X9501667Y-10928476D01*
X9501667Y-10804667D02*
X9511190Y-10814190D01*
X9511190Y-10814190D02*
X9501667Y-10823714D01*
X9501667Y-10823714D02*
X9492143Y-10814190D01*
X9492143Y-10814190D02*
X9501667Y-10804667D01*
X9501667Y-10804667D02*
X9501667Y-10823714D01*
D12*
X7815000Y-11225000D02*
X7915000Y-11325000D01*
X7915000Y-11225000D02*
X7815000Y-11325000D01*
D11*
X8267381Y-11348476D02*
X8153095Y-11348476D01*
X8210238Y-11348476D02*
X8210238Y-11148476D01*
X8210238Y-11148476D02*
X8191190Y-11177048D01*
X8191190Y-11177048D02*
X8172143Y-11196095D01*
X8172143Y-11196095D02*
X8153095Y-11205619D01*
X8353095Y-11329428D02*
X8362619Y-11338952D01*
X8362619Y-11338952D02*
X8353095Y-11348476D01*
X8353095Y-11348476D02*
X8343571Y-11338952D01*
X8343571Y-11338952D02*
X8353095Y-11329428D01*
X8353095Y-11329428D02*
X8353095Y-11348476D01*
X8486429Y-11148476D02*
X8505476Y-11148476D01*
X8505476Y-11148476D02*
X8524524Y-11158000D01*
X8524524Y-11158000D02*
X8534048Y-11167524D01*
X8534048Y-11167524D02*
X8543571Y-11186571D01*
X8543571Y-11186571D02*
X8553095Y-11224667D01*
X8553095Y-11224667D02*
X8553095Y-11272286D01*
X8553095Y-11272286D02*
X8543571Y-11310381D01*
X8543571Y-11310381D02*
X8534048Y-11329428D01*
X8534048Y-11329428D02*
X8524524Y-11338952D01*
X8524524Y-11338952D02*
X8505476Y-11348476D01*
X8505476Y-11348476D02*
X8486429Y-11348476D01*
X8486429Y-11348476D02*
X8467381Y-11338952D01*
X8467381Y-11338952D02*
X8457857Y-11329428D01*
X8457857Y-11329428D02*
X8448333Y-11310381D01*
X8448333Y-11310381D02*
X8438810Y-11272286D01*
X8438810Y-11272286D02*
X8438810Y-11224667D01*
X8438810Y-11224667D02*
X8448333Y-11186571D01*
X8448333Y-11186571D02*
X8457857Y-11167524D01*
X8457857Y-11167524D02*
X8467381Y-11158000D01*
X8467381Y-11158000D02*
X8486429Y-11148476D01*
X8676905Y-11148476D02*
X8695952Y-11148476D01*
X8695952Y-11148476D02*
X8715000Y-11158000D01*
X8715000Y-11158000D02*
X8724524Y-11167524D01*
X8724524Y-11167524D02*
X8734048Y-11186571D01*
X8734048Y-11186571D02*
X8743571Y-11224667D01*
X8743571Y-11224667D02*
X8743571Y-11272286D01*
X8743571Y-11272286D02*
X8734048Y-11310381D01*
X8734048Y-11310381D02*
X8724524Y-11329428D01*
X8724524Y-11329428D02*
X8715000Y-11338952D01*
X8715000Y-11338952D02*
X8695952Y-11348476D01*
X8695952Y-11348476D02*
X8676905Y-11348476D01*
X8676905Y-11348476D02*
X8657857Y-11338952D01*
X8657857Y-11338952D02*
X8648333Y-11329428D01*
X8648333Y-11329428D02*
X8638810Y-11310381D01*
X8638810Y-11310381D02*
X8629286Y-11272286D01*
X8629286Y-11272286D02*
X8629286Y-11224667D01*
X8629286Y-11224667D02*
X8638810Y-11186571D01*
X8638810Y-11186571D02*
X8648333Y-11167524D01*
X8648333Y-11167524D02*
X8657857Y-11158000D01*
X8657857Y-11158000D02*
X8676905Y-11148476D01*
X8867381Y-11148476D02*
X8886429Y-11148476D01*
X8886429Y-11148476D02*
X8905476Y-11158000D01*
X8905476Y-11158000D02*
X8915000Y-11167524D01*
X8915000Y-11167524D02*
X8924524Y-11186571D01*
X8924524Y-11186571D02*
X8934048Y-11224667D01*
X8934048Y-11224667D02*
X8934048Y-11272286D01*
X8934048Y-11272286D02*
X8924524Y-11310381D01*
X8924524Y-11310381D02*
X8915000Y-11329428D01*
X8915000Y-11329428D02*
X8905476Y-11338952D01*
X8905476Y-11338952D02*
X8886429Y-11348476D01*
X8886429Y-11348476D02*
X8867381Y-11348476D01*
X8867381Y-11348476D02*
X8848333Y-11338952D01*
X8848333Y-11338952D02*
X8838810Y-11329428D01*
X8838810Y-11329428D02*
X8829286Y-11310381D01*
X8829286Y-11310381D02*
X8819762Y-11272286D01*
X8819762Y-11272286D02*
X8819762Y-11224667D01*
X8819762Y-11224667D02*
X8829286Y-11186571D01*
X8829286Y-11186571D02*
X8838810Y-11167524D01*
X8838810Y-11167524D02*
X8848333Y-11158000D01*
X8848333Y-11158000D02*
X8867381Y-11148476D01*
X9019762Y-11348476D02*
X9019762Y-11215143D01*
X9019762Y-11234190D02*
X9029286Y-11224667D01*
X9029286Y-11224667D02*
X9048333Y-11215143D01*
X9048333Y-11215143D02*
X9076905Y-11215143D01*
X9076905Y-11215143D02*
X9095952Y-11224667D01*
X9095952Y-11224667D02*
X9105476Y-11243714D01*
X9105476Y-11243714D02*
X9105476Y-11348476D01*
X9105476Y-11243714D02*
X9115000Y-11224667D01*
X9115000Y-11224667D02*
X9134048Y-11215143D01*
X9134048Y-11215143D02*
X9162619Y-11215143D01*
X9162619Y-11215143D02*
X9181667Y-11224667D01*
X9181667Y-11224667D02*
X9191191Y-11243714D01*
X9191191Y-11243714D02*
X9191191Y-11348476D01*
X9286429Y-11348476D02*
X9286429Y-11215143D01*
X9286429Y-11234190D02*
X9295952Y-11224667D01*
X9295952Y-11224667D02*
X9315000Y-11215143D01*
X9315000Y-11215143D02*
X9343572Y-11215143D01*
X9343572Y-11215143D02*
X9362619Y-11224667D01*
X9362619Y-11224667D02*
X9372143Y-11243714D01*
X9372143Y-11243714D02*
X9372143Y-11348476D01*
X9372143Y-11243714D02*
X9381667Y-11224667D01*
X9381667Y-11224667D02*
X9400714Y-11215143D01*
X9400714Y-11215143D02*
X9429286Y-11215143D01*
X9429286Y-11215143D02*
X9448333Y-11224667D01*
X9448333Y-11224667D02*
X9457857Y-11243714D01*
X9457857Y-11243714D02*
X9457857Y-11348476D01*
X9815952Y-11138952D02*
X9644524Y-11396095D01*
X10040714Y-11148476D02*
X10059762Y-11148476D01*
X10059762Y-11148476D02*
X10078810Y-11158000D01*
X10078810Y-11158000D02*
X10088333Y-11167524D01*
X10088333Y-11167524D02*
X10097857Y-11186571D01*
X10097857Y-11186571D02*
X10107381Y-11224667D01*
X10107381Y-11224667D02*
X10107381Y-11272286D01*
X10107381Y-11272286D02*
X10097857Y-11310381D01*
X10097857Y-11310381D02*
X10088333Y-11329428D01*
X10088333Y-11329428D02*
X10078810Y-11338952D01*
X10078810Y-11338952D02*
X10059762Y-11348476D01*
X10059762Y-11348476D02*
X10040714Y-11348476D01*
X10040714Y-11348476D02*
X10021667Y-11338952D01*
X10021667Y-11338952D02*
X10012143Y-11329428D01*
X10012143Y-11329428D02*
X10002619Y-11310381D01*
X10002619Y-11310381D02*
X9993095Y-11272286D01*
X9993095Y-11272286D02*
X9993095Y-11224667D01*
X9993095Y-11224667D02*
X10002619Y-11186571D01*
X10002619Y-11186571D02*
X10012143Y-11167524D01*
X10012143Y-11167524D02*
X10021667Y-11158000D01*
X10021667Y-11158000D02*
X10040714Y-11148476D01*
X10193095Y-11329428D02*
X10202619Y-11338952D01*
X10202619Y-11338952D02*
X10193095Y-11348476D01*
X10193095Y-11348476D02*
X10183572Y-11338952D01*
X10183572Y-11338952D02*
X10193095Y-11329428D01*
X10193095Y-11329428D02*
X10193095Y-11348476D01*
X10326429Y-11148476D02*
X10345476Y-11148476D01*
X10345476Y-11148476D02*
X10364524Y-11158000D01*
X10364524Y-11158000D02*
X10374048Y-11167524D01*
X10374048Y-11167524D02*
X10383572Y-11186571D01*
X10383572Y-11186571D02*
X10393095Y-11224667D01*
X10393095Y-11224667D02*
X10393095Y-11272286D01*
X10393095Y-11272286D02*
X10383572Y-11310381D01*
X10383572Y-11310381D02*
X10374048Y-11329428D01*
X10374048Y-11329428D02*
X10364524Y-11338952D01*
X10364524Y-11338952D02*
X10345476Y-11348476D01*
X10345476Y-11348476D02*
X10326429Y-11348476D01*
X10326429Y-11348476D02*
X10307381Y-11338952D01*
X10307381Y-11338952D02*
X10297857Y-11329428D01*
X10297857Y-11329428D02*
X10288333Y-11310381D01*
X10288333Y-11310381D02*
X10278810Y-11272286D01*
X10278810Y-11272286D02*
X10278810Y-11224667D01*
X10278810Y-11224667D02*
X10288333Y-11186571D01*
X10288333Y-11186571D02*
X10297857Y-11167524D01*
X10297857Y-11167524D02*
X10307381Y-11158000D01*
X10307381Y-11158000D02*
X10326429Y-11148476D01*
X10459762Y-11148476D02*
X10583572Y-11148476D01*
X10583572Y-11148476D02*
X10516905Y-11224667D01*
X10516905Y-11224667D02*
X10545476Y-11224667D01*
X10545476Y-11224667D02*
X10564524Y-11234190D01*
X10564524Y-11234190D02*
X10574048Y-11243714D01*
X10574048Y-11243714D02*
X10583572Y-11262762D01*
X10583572Y-11262762D02*
X10583572Y-11310381D01*
X10583572Y-11310381D02*
X10574048Y-11329428D01*
X10574048Y-11329428D02*
X10564524Y-11338952D01*
X10564524Y-11338952D02*
X10545476Y-11348476D01*
X10545476Y-11348476D02*
X10488333Y-11348476D01*
X10488333Y-11348476D02*
X10469286Y-11338952D01*
X10469286Y-11338952D02*
X10459762Y-11329428D01*
X10678810Y-11348476D02*
X10716905Y-11348476D01*
X10716905Y-11348476D02*
X10735953Y-11338952D01*
X10735953Y-11338952D02*
X10745476Y-11329428D01*
X10745476Y-11329428D02*
X10764524Y-11300857D01*
X10764524Y-11300857D02*
X10774048Y-11262762D01*
X10774048Y-11262762D02*
X10774048Y-11186571D01*
X10774048Y-11186571D02*
X10764524Y-11167524D01*
X10764524Y-11167524D02*
X10755000Y-11158000D01*
X10755000Y-11158000D02*
X10735953Y-11148476D01*
X10735953Y-11148476D02*
X10697857Y-11148476D01*
X10697857Y-11148476D02*
X10678810Y-11158000D01*
X10678810Y-11158000D02*
X10669286Y-11167524D01*
X10669286Y-11167524D02*
X10659762Y-11186571D01*
X10659762Y-11186571D02*
X10659762Y-11234190D01*
X10659762Y-11234190D02*
X10669286Y-11253238D01*
X10669286Y-11253238D02*
X10678810Y-11262762D01*
X10678810Y-11262762D02*
X10697857Y-11272286D01*
X10697857Y-11272286D02*
X10735953Y-11272286D01*
X10735953Y-11272286D02*
X10755000Y-11262762D01*
X10755000Y-11262762D02*
X10764524Y-11253238D01*
X10764524Y-11253238D02*
X10774048Y-11234190D01*
X10945476Y-11215143D02*
X10945476Y-11348476D01*
X10897857Y-11138952D02*
X10850238Y-11281809D01*
X10850238Y-11281809D02*
X10974048Y-11281809D01*
X11040714Y-11148476D02*
X11040714Y-11186571D01*
X11116905Y-11148476D02*
X11116905Y-11186571D01*
X11379762Y-11424667D02*
X11370238Y-11415143D01*
X11370238Y-11415143D02*
X11351191Y-11386571D01*
X11351191Y-11386571D02*
X11341667Y-11367524D01*
X11341667Y-11367524D02*
X11332143Y-11338952D01*
X11332143Y-11338952D02*
X11322619Y-11291333D01*
X11322619Y-11291333D02*
X11322619Y-11253238D01*
X11322619Y-11253238D02*
X11332143Y-11205619D01*
X11332143Y-11205619D02*
X11341667Y-11177048D01*
X11341667Y-11177048D02*
X11351191Y-11158000D01*
X11351191Y-11158000D02*
X11370238Y-11129429D01*
X11370238Y-11129429D02*
X11379762Y-11119905D01*
X11541667Y-11148476D02*
X11503571Y-11148476D01*
X11503571Y-11148476D02*
X11484524Y-11158000D01*
X11484524Y-11158000D02*
X11475000Y-11167524D01*
X11475000Y-11167524D02*
X11455952Y-11196095D01*
X11455952Y-11196095D02*
X11446429Y-11234190D01*
X11446429Y-11234190D02*
X11446429Y-11310381D01*
X11446429Y-11310381D02*
X11455952Y-11329428D01*
X11455952Y-11329428D02*
X11465476Y-11338952D01*
X11465476Y-11338952D02*
X11484524Y-11348476D01*
X11484524Y-11348476D02*
X11522619Y-11348476D01*
X11522619Y-11348476D02*
X11541667Y-11338952D01*
X11541667Y-11338952D02*
X11551191Y-11329428D01*
X11551191Y-11329428D02*
X11560714Y-11310381D01*
X11560714Y-11310381D02*
X11560714Y-11262762D01*
X11560714Y-11262762D02*
X11551191Y-11243714D01*
X11551191Y-11243714D02*
X11541667Y-11234190D01*
X11541667Y-11234190D02*
X11522619Y-11224667D01*
X11522619Y-11224667D02*
X11484524Y-11224667D01*
X11484524Y-11224667D02*
X11465476Y-11234190D01*
X11465476Y-11234190D02*
X11455952Y-11243714D01*
X11455952Y-11243714D02*
X11446429Y-11262762D01*
X11766429Y-11348476D02*
X11766429Y-11148476D01*
X11852143Y-11348476D02*
X11852143Y-11243714D01*
X11852143Y-11243714D02*
X11842619Y-11224667D01*
X11842619Y-11224667D02*
X11823572Y-11215143D01*
X11823572Y-11215143D02*
X11795000Y-11215143D01*
X11795000Y-11215143D02*
X11775952Y-11224667D01*
X11775952Y-11224667D02*
X11766429Y-11234190D01*
X11975952Y-11348476D02*
X11956905Y-11338952D01*
X11956905Y-11338952D02*
X11947381Y-11329428D01*
X11947381Y-11329428D02*
X11937857Y-11310381D01*
X11937857Y-11310381D02*
X11937857Y-11253238D01*
X11937857Y-11253238D02*
X11947381Y-11234190D01*
X11947381Y-11234190D02*
X11956905Y-11224667D01*
X11956905Y-11224667D02*
X11975952Y-11215143D01*
X11975952Y-11215143D02*
X12004524Y-11215143D01*
X12004524Y-11215143D02*
X12023572Y-11224667D01*
X12023572Y-11224667D02*
X12033095Y-11234190D01*
X12033095Y-11234190D02*
X12042619Y-11253238D01*
X12042619Y-11253238D02*
X12042619Y-11310381D01*
X12042619Y-11310381D02*
X12033095Y-11329428D01*
X12033095Y-11329428D02*
X12023572Y-11338952D01*
X12023572Y-11338952D02*
X12004524Y-11348476D01*
X12004524Y-11348476D02*
X11975952Y-11348476D01*
X12156905Y-11348476D02*
X12137857Y-11338952D01*
X12137857Y-11338952D02*
X12128333Y-11319905D01*
X12128333Y-11319905D02*
X12128333Y-11148476D01*
X12309286Y-11338952D02*
X12290238Y-11348476D01*
X12290238Y-11348476D02*
X12252143Y-11348476D01*
X12252143Y-11348476D02*
X12233095Y-11338952D01*
X12233095Y-11338952D02*
X12223572Y-11319905D01*
X12223572Y-11319905D02*
X12223572Y-11243714D01*
X12223572Y-11243714D02*
X12233095Y-11224667D01*
X12233095Y-11224667D02*
X12252143Y-11215143D01*
X12252143Y-11215143D02*
X12290238Y-11215143D01*
X12290238Y-11215143D02*
X12309286Y-11224667D01*
X12309286Y-11224667D02*
X12318810Y-11243714D01*
X12318810Y-11243714D02*
X12318810Y-11262762D01*
X12318810Y-11262762D02*
X12223572Y-11281809D01*
X12395000Y-11338952D02*
X12414048Y-11348476D01*
X12414048Y-11348476D02*
X12452143Y-11348476D01*
X12452143Y-11348476D02*
X12471191Y-11338952D01*
X12471191Y-11338952D02*
X12480714Y-11319905D01*
X12480714Y-11319905D02*
X12480714Y-11310381D01*
X12480714Y-11310381D02*
X12471191Y-11291333D01*
X12471191Y-11291333D02*
X12452143Y-11281809D01*
X12452143Y-11281809D02*
X12423572Y-11281809D01*
X12423572Y-11281809D02*
X12404524Y-11272286D01*
X12404524Y-11272286D02*
X12395000Y-11253238D01*
X12395000Y-11253238D02*
X12395000Y-11243714D01*
X12395000Y-11243714D02*
X12404524Y-11224667D01*
X12404524Y-11224667D02*
X12423572Y-11215143D01*
X12423572Y-11215143D02*
X12452143Y-11215143D01*
X12452143Y-11215143D02*
X12471191Y-11224667D01*
X12547381Y-11424667D02*
X12556905Y-11415143D01*
X12556905Y-11415143D02*
X12575953Y-11386571D01*
X12575953Y-11386571D02*
X12585476Y-11367524D01*
X12585476Y-11367524D02*
X12595000Y-11338952D01*
X12595000Y-11338952D02*
X12604524Y-11291333D01*
X12604524Y-11291333D02*
X12604524Y-11253238D01*
X12604524Y-11253238D02*
X12595000Y-11205619D01*
X12595000Y-11205619D02*
X12585476Y-11177048D01*
X12585476Y-11177048D02*
X12575953Y-11158000D01*
X12575953Y-11158000D02*
X12556905Y-11129429D01*
X12556905Y-11129429D02*
X12547381Y-11119905D01*
M02*
