G04 #@! TF.GenerationSoftware,KiCad,Pcbnew,(6.99.0-2103-gdc6c27b686)*
G04 #@! TF.CreationDate,2022-06-20T02:17:25-05:00*
G04 #@! TF.ProjectId,speaker-SAO,73706561-6b65-4722-9d53-414f2e6b6963,rev?*
G04 #@! TF.SameCoordinates,Original*
G04 #@! TF.FileFunction,Legend,Bot*
G04 #@! TF.FilePolarity,Positive*
%FSLAX46Y46*%
G04 Gerber Fmt 4.6, Leading zero omitted, Abs format (unit mm)*
G04 Created by KiCad (PCBNEW (6.99.0-2103-gdc6c27b686)) date 2022-06-20 02:17:25*
%MOMM*%
%LPD*%
G01*
G04 APERTURE LIST*
%ADD10C,0.300000*%
%ADD11C,0.120000*%
%ADD12R,1.700000X1.700000*%
%ADD13O,1.700000X1.700000*%
G04 APERTURE END LIST*
D10*
X226114285Y-75851071D02*
X226114285Y-77136785D01*
X226114285Y-77136785D02*
X226185713Y-77279642D01*
X226185713Y-77279642D02*
X226328570Y-77351071D01*
X226328570Y-77351071D02*
X226399999Y-77351071D01*
X226114285Y-75351071D02*
X226185713Y-75422500D01*
X226185713Y-75422500D02*
X226114285Y-75493928D01*
X226114285Y-75493928D02*
X226042856Y-75422500D01*
X226042856Y-75422500D02*
X226114285Y-75351071D01*
X226114285Y-75351071D02*
X226114285Y-75493928D01*
X225185713Y-76851071D02*
X225328570Y-76779642D01*
X225328570Y-76779642D02*
X225399999Y-76636785D01*
X225399999Y-76636785D02*
X225399999Y-75351071D01*
X223971428Y-76779642D02*
X224114285Y-76851071D01*
X224114285Y-76851071D02*
X224399999Y-76851071D01*
X224399999Y-76851071D02*
X224542856Y-76779642D01*
X224542856Y-76779642D02*
X224614285Y-76708214D01*
X224614285Y-76708214D02*
X224685713Y-76565357D01*
X224685713Y-76565357D02*
X224685713Y-76136785D01*
X224685713Y-76136785D02*
X224614285Y-75993928D01*
X224614285Y-75993928D02*
X224542856Y-75922500D01*
X224542856Y-75922500D02*
X224399999Y-75851071D01*
X224399999Y-75851071D02*
X224114285Y-75851071D01*
X224114285Y-75851071D02*
X223971428Y-75922500D01*
X223328571Y-75851071D02*
X223328571Y-77136785D01*
X223328571Y-77136785D02*
X223399999Y-77279642D01*
X223399999Y-77279642D02*
X223542856Y-77351071D01*
X223542856Y-77351071D02*
X223614285Y-77351071D01*
X223328571Y-75351071D02*
X223399999Y-75422500D01*
X223399999Y-75422500D02*
X223328571Y-75493928D01*
X223328571Y-75493928D02*
X223257142Y-75422500D01*
X223257142Y-75422500D02*
X223328571Y-75351071D01*
X223328571Y-75351071D02*
X223328571Y-75493928D01*
X222399999Y-76851071D02*
X222542856Y-76779642D01*
X222542856Y-76779642D02*
X222614285Y-76636785D01*
X222614285Y-76636785D02*
X222614285Y-75351071D01*
X221185714Y-76779642D02*
X221328571Y-76851071D01*
X221328571Y-76851071D02*
X221614285Y-76851071D01*
X221614285Y-76851071D02*
X221757142Y-76779642D01*
X221757142Y-76779642D02*
X221828571Y-76708214D01*
X221828571Y-76708214D02*
X221899999Y-76565357D01*
X221899999Y-76565357D02*
X221899999Y-76136785D01*
X221899999Y-76136785D02*
X221828571Y-75993928D01*
X221828571Y-75993928D02*
X221757142Y-75922500D01*
X221757142Y-75922500D02*
X221614285Y-75851071D01*
X221614285Y-75851071D02*
X221328571Y-75851071D01*
X221328571Y-75851071D02*
X221185714Y-75922500D01*
X220542857Y-75851071D02*
X220542857Y-77136785D01*
X220542857Y-77136785D02*
X220614285Y-77279642D01*
X220614285Y-77279642D02*
X220757142Y-77351071D01*
X220757142Y-77351071D02*
X220828571Y-77351071D01*
X220542857Y-75351071D02*
X220614285Y-75422500D01*
X220614285Y-75422500D02*
X220542857Y-75493928D01*
X220542857Y-75493928D02*
X220471428Y-75422500D01*
X220471428Y-75422500D02*
X220542857Y-75351071D01*
X220542857Y-75351071D02*
X220542857Y-75493928D01*
X219614285Y-76851071D02*
X219757142Y-76779642D01*
X219757142Y-76779642D02*
X219828571Y-76636785D01*
X219828571Y-76636785D02*
X219828571Y-75351071D01*
X218400000Y-76779642D02*
X218542857Y-76851071D01*
X218542857Y-76851071D02*
X218828571Y-76851071D01*
X218828571Y-76851071D02*
X218971428Y-76779642D01*
X218971428Y-76779642D02*
X219042857Y-76708214D01*
X219042857Y-76708214D02*
X219114285Y-76565357D01*
X219114285Y-76565357D02*
X219114285Y-76136785D01*
X219114285Y-76136785D02*
X219042857Y-75993928D01*
X219042857Y-75993928D02*
X218971428Y-75922500D01*
X218971428Y-75922500D02*
X218828571Y-75851071D01*
X218828571Y-75851071D02*
X218542857Y-75851071D01*
X218542857Y-75851071D02*
X218400000Y-75922500D01*
X217757143Y-75851071D02*
X217757143Y-77136785D01*
X217757143Y-77136785D02*
X217828571Y-77279642D01*
X217828571Y-77279642D02*
X217971428Y-77351071D01*
X217971428Y-77351071D02*
X218042857Y-77351071D01*
X217757143Y-75351071D02*
X217828571Y-75422500D01*
X217828571Y-75422500D02*
X217757143Y-75493928D01*
X217757143Y-75493928D02*
X217685714Y-75422500D01*
X217685714Y-75422500D02*
X217757143Y-75351071D01*
X217757143Y-75351071D02*
X217757143Y-75493928D01*
X216828571Y-76851071D02*
X216971428Y-76779642D01*
X216971428Y-76779642D02*
X217042857Y-76636785D01*
X217042857Y-76636785D02*
X217042857Y-75351071D01*
X215614286Y-76779642D02*
X215757143Y-76851071D01*
X215757143Y-76851071D02*
X216042857Y-76851071D01*
X216042857Y-76851071D02*
X216185714Y-76779642D01*
X216185714Y-76779642D02*
X216257143Y-76708214D01*
X216257143Y-76708214D02*
X216328571Y-76565357D01*
X216328571Y-76565357D02*
X216328571Y-76136785D01*
X216328571Y-76136785D02*
X216257143Y-75993928D01*
X216257143Y-75993928D02*
X216185714Y-75922500D01*
X216185714Y-75922500D02*
X216042857Y-75851071D01*
X216042857Y-75851071D02*
X215757143Y-75851071D01*
X215757143Y-75851071D02*
X215614286Y-75922500D01*
D11*
X219045000Y-89995000D02*
X216445000Y-89995000D01*
X224185000Y-87395000D02*
X224185000Y-92595000D01*
X216445000Y-92595000D02*
X224185000Y-92595000D01*
X216445000Y-87395000D02*
X216445000Y-88725000D01*
X219045000Y-87395000D02*
X224185000Y-87395000D01*
X219045000Y-87395000D02*
X219045000Y-89995000D01*
X217775000Y-87395000D02*
X216445000Y-87395000D01*
X216445000Y-89995000D02*
X216445000Y-92595000D01*
%LPC*%
D12*
X217774999Y-88724999D03*
D13*
X217774999Y-91264999D03*
X220314999Y-88724999D03*
X220314999Y-91264999D03*
X222854999Y-88724999D03*
X222854999Y-91264999D03*
M02*
