<?xml version="1.0" encoding="UTF-8" standalone="no"?>
<!-- Created with Inkscape (http://www.inkscape.org/) -->

<svg
   width="49.204147mm"
   height="16.710217mm"
   viewBox="0 0 49.204148 16.710217"
   version="1.1"
   id="svg5"
   xml:space="preserve"
   inkscape:version="1.2 (dc2aeda, 2022-05-15)"
   sodipodi:docname="B2 engine exhaust.svg"
   xmlns:inkscape="http://www.inkscape.org/namespaces/inkscape"
   xmlns:sodipodi="http://sodipodi.sourceforge.net/DTD/sodipodi-0.dtd"
   xmlns="http://www.w3.org/2000/svg"
   xmlns:svg="http://www.w3.org/2000/svg"><sodipodi:namedview
     id="namedview7"
     pagecolor="#ffffff"
     bordercolor="#000000"
     borderopacity="0.25"
     inkscape:showpageshadow="2"
     inkscape:pageopacity="0.0"
     inkscape:pagecheckerboard="0"
     inkscape:deskcolor="#d1d1d1"
     inkscape:document-units="mm"
     showgrid="false"
     inkscape:zoom="0.67360465"
     inkscape:cx="-372.62213"
     inkscape:cy="-39.340584"
     inkscape:window-width="1800"
     inkscape:window-height="1097"
     inkscape:window-x="0"
     inkscape:window-y="44"
     inkscape:window-maximized="0"
     inkscape:current-layer="layer1" /><defs
     id="defs2" /><g
     inkscape:label="Layer 1"
     inkscape:groupmode="layer"
     id="layer1"
     transform="translate(-38.322435,-120.94175)"><path
       style="fill:#000000;stroke-width:0.264583"
       d="m 39.444437,136.75522 -1.122002,-0.88296 1.717315,-1.11888 1.717312,-1.11887 0.01363,-4.53299 0.01363,-4.53298 2.674062,-1.92271 c 2.309342,-1.66048 2.736112,-1.877 3.129016,-1.5875 0.250224,0.18436 1.476779,1.04958 2.725676,1.92271 l 2.270721,1.5875 0.01534,4.63021 0.01535,4.6302 1.369219,0.89572 1.369216,0.89571 -1.421847,0.72051 -1.421847,0.7205 -2.002644,-1.44142 c -3.496308,-2.5165 -3.124989,-2.47644 -5.929554,-0.63974 -1.332701,0.87277 -2.739578,1.83399 -3.126396,2.13602 -0.386818,0.30204 -0.744005,0.54304 -0.79375,0.53555 -0.04974,-0.007 -0.595347,-0.41095 -1.212445,-0.89658 z m 42.529292,-1.24445 c -1.67349,-1.12602 -3.119736,-2.05438 -3.213881,-2.063 -0.09414,-0.009 -1.304573,0.75822 -2.689844,1.7041 -1.385271,0.94589 -2.677464,1.71441 -2.871538,1.70784 -0.194075,-0.007 -0.881431,-0.28839 -1.527461,-0.62626 l -1.174599,-0.61431 1.368282,-0.89509 1.368285,-0.8951 0.01744,-4.6302 0.01744,-4.63021 2.638377,-1.85209 c 1.451107,-1.01864 2.77255,-1.81649 2.936544,-1.773 0.163992,0.0435 1.407785,0.87693 2.763981,1.85208 l 2.465816,1.77301 0.0089,4.53298 0.0089,4.53299 1.718106,1.11939 1.718104,1.11939 -0.9905,0.71214 c -0.544777,0.39168 -1.109565,0.77076 -1.255085,0.8424 -0.145521,0.0716 -1.633802,-0.79104 -3.307292,-1.91706 z"
       id="path248"
       sodipodi:nodetypes="ccccccssscccccccssscscccscscccccssscccccsccc" /></g></svg>
