<?xml version="1.0" encoding="UTF-8" standalone="no"?>
<!-- Created with Inkscape (http://www.inkscape.org/) -->

<svg
   width="203.30664mm"
   height="81.188858mm"
   viewBox="0 0 203.30664 81.188858"
   version="1.1"
   id="svg2644"
   xml:space="preserve"
   inkscape:version="1.2 (dc2aeda, 2022-05-15)"
   sodipodi:docname="B2 source image.svg"
   xmlns:inkscape="http://www.inkscape.org/namespaces/inkscape"
   xmlns:sodipodi="http://sodipodi.sourceforge.net/DTD/sodipodi-0.dtd"
   xmlns="http://www.w3.org/2000/svg"
   xmlns:svg="http://www.w3.org/2000/svg"><sodipodi:namedview
     id="namedview2646"
     pagecolor="#ffffff"
     bordercolor="#000000"
     borderopacity="0.25"
     inkscape:showpageshadow="2"
     inkscape:pageopacity="0.0"
     inkscape:pagecheckerboard="0"
     inkscape:deskcolor="#d1d1d1"
     inkscape:document-units="mm"
     showgrid="false"
     inkscape:zoom="1.1893044"
     inkscape:cx="380.89492"
     inkscape:cy="159.33684"
     inkscape:window-width="1883"
     inkscape:window-height="1523"
     inkscape:window-x="1559"
     inkscape:window-y="241"
     inkscape:window-maximized="0"
     inkscape:current-layer="layer1" /><defs
     id="defs2641" /><g
     inkscape:label="Layer 1"
     inkscape:groupmode="layer"
     id="layer1"
     transform="translate(146.39947,-104.28858)"><path
       style="display:inline;fill:none;fill-opacity:1;stroke:#000000;stroke-width:0.4;stroke-dasharray:none;stroke-opacity:1;paint-order:stroke markers fill"
       d="M -146.05206,174.10835 -44.661821,104.53118 56.561562,174.05273 41.378056,185.17618 7.729623,161.7057 l -24.80529,18.3537 -11.735239,-7.78642 -15.850915,11.01222 -15.850915,-10.9566 -11.568388,7.84203 -25.083375,-18.52054 -33.481581,23.58171 z"
       id="path3066"
       inkscape:label="fuselage" /></g><g
     inkscape:groupmode="layer"
     id="layer3"
     inkscape:label="Engines"
     style="display:inline"
     transform="translate(-17.338867,-45.08546)"><path
       style="fill:#000000;stroke-width:0;paint-order:stroke markers fill"
       d="m 96.882877,117.37242 -2.261322,-1.61242 3.303498,-2.14334 0.07865,-9.24193 5.230527,-3.81475 5.42718,3.79509 v 9.32058 l 2.55628,1.76973 -2.57594,1.37645 -5.40752,-3.95239 z"
       id="path3247" /><path
       style="fill:#000000;stroke-width:0;paint-order:stroke markers fill"
       d="m 141.26994,117.3168 2.26132,-1.61242 -3.3035,-2.14334 -0.0786,-9.24193 -5.23052,-3.81475 -5.42718,3.79509 v 9.32058 l -2.55628,1.76973 2.57594,1.37645 5.40752,-3.95239 z"
       id="path3252" /></g><g
     inkscape:groupmode="layer"
     id="layer2"
     inkscape:label="Window layer"
     style="display:inline"
     transform="translate(-17.338867,-45.08546)"><path
       style="fill:#000000;stroke-width:0;paint-order:stroke markers fill"
       d="m -51.262175,120.51443 1.710738,-0.0196 c 0,0 0.30151,-1.8746 0.481761,-2.60544 0.18025,-0.73083 0.737388,-1.72057 0.737388,-1.72057 l -1.651748,-1.14049 c 0,0 -0.761964,1.60061 -0.973351,2.50709 -0.215159,0.92264 -0.304788,2.97901 -0.304788,2.97901 z"
       id="path3101"
       sodipodi:nodetypes="ccsccsc"
       transform="translate(163.73834,-59.203124)" /><path
       style="fill:#000000;stroke-width:0;paint-order:stroke markers fill"
       d="m -49.787401,114.43836 1.769729,1.19948 c 0,0 0.696209,-0.76818 1.464945,-1.24864 0.927264,-0.57954 1.543598,-0.50142 1.543598,-0.50142 l 0.03932,-3.89341 c 0,0 -1.386112,0.0372 -2.959379,1.55343 -1.154835,1.11298 -1.858213,2.89056 -1.858213,2.89056 z"
       id="path3103"
       sodipodi:nodetypes="ccsccsc"
       transform="translate(163.73834,-59.203124)" /><path
       style="fill:#000000;stroke-width:0;paint-order:stroke markers fill"
       d="m -38.087518,120.51443 -1.710738,-0.0196 c 0,0 -0.30151,-1.8746 -0.481761,-2.60544 -0.18025,-0.73083 -0.737388,-1.72057 -0.737388,-1.72057 l 1.651748,-1.14049 c 0,0 0.761964,1.60061 0.973351,2.50709 0.215159,0.92264 0.304788,2.97901 0.304788,2.97901 z"
       id="path3109"
       sodipodi:nodetypes="ccsccsc"
       transform="translate(163.73834,-59.203124)" /><path
       style="fill:#000000;stroke-width:0;paint-order:stroke markers fill"
       d="m -39.601628,114.47769 -1.769729,1.19948 c 0,0 -0.696209,-0.76818 -1.464945,-1.24864 -0.927264,-0.57954 -1.543598,-0.50142 -1.543598,-0.50142 l -0.03932,-3.89341 c 0,0 1.386112,0.0372 2.959379,1.55343 1.154835,1.11298 1.858213,2.89056 1.858213,2.89056 z"
       id="path3111"
       sodipodi:nodetypes="ccsccsc"
       transform="translate(163.73834,-59.203124)" /></g></svg>
