<?xml version="1.0" encoding="UTF-8" standalone="no"?>
<!-- Created with Inkscape (http://www.inkscape.org/) -->

<svg
   width="202.00095mm"
   height="80.234047mm"
   viewBox="0 0 202.00095 80.234047"
   version="1.1"
   id="svg5"
   xml:space="preserve"
   inkscape:version="1.2 (dc2aeda, 2022-05-15)"
   sodipodi:docname="b2 temp 5.svg"
   xmlns:inkscape="http://www.inkscape.org/namespaces/inkscape"
   xmlns:sodipodi="http://sodipodi.sourceforge.net/DTD/sodipodi-0.dtd"
   xmlns="http://www.w3.org/2000/svg"
   xmlns:svg="http://www.w3.org/2000/svg"><sodipodi:namedview
     id="namedview7"
     pagecolor="#ffffff"
     bordercolor="#000000"
     borderopacity="0.25"
     inkscape:showpageshadow="2"
     inkscape:pageopacity="0.0"
     inkscape:pagecheckerboard="0"
     inkscape:deskcolor="#d1d1d1"
     inkscape:document-units="mm"
     showgrid="false"
     inkscape:zoom="1.7184738"
     inkscape:cx="390.7537"
     inkscape:cy="37.242348"
     inkscape:window-width="2333"
     inkscape:window-height="1620"
     inkscape:window-x="1134"
     inkscape:window-y="159"
     inkscape:window-maximized="0"
     inkscape:current-layer="layer1" /><defs
     id="defs2" /><g
     inkscape:label="Layer 1"
     inkscape:groupmode="layer"
     id="layer1"
     transform="translate(-4.6759235,-27.942332)"><path
       style="fill:#000000;stroke-width:0.264583"
       d="m 4.8158349,97.103532 c 0,0 69.8009771,-47.740793 100.8967551,-69.1612 0,0 70.33991,47.972899 100.95696,69.354 0,0 -10.41966,7.638868 -14.99263,10.880048 0,0 -23.20803,-16.114958 -33.57486,-23.357418 l -24.8802,18.267218 c 0,0 -7.83974,-4.994878 -11.67196,-7.623868 L 106.04958,106.07787 89.660576,95.790452 78.019285,102.9738 53.295258,84.822542 c 0,0 -24.035107,17.048758 -33.429019,23.233738 z M 101.22539,42.298162 c 0.17244,-0.83675 0.47705,-1.83998 0.67691,-2.22942 0.34661,-0.67542 0.32243,-0.73337 -0.52445,-1.25678 -0.4883,-0.30178 -0.95024,-0.5487 -1.02653,-0.5487 -0.14477,0 -0.84327,2.84989 -1.118633,4.56407 -0.158506,0.98672 -0.154328,0.99218 0.759889,0.99218 0.906374,0 0.923674,-0.0213 1.232814,-1.52135 z m 10.96565,0.52917 c -0.27536,-1.71418 -0.97386,-4.56407 -1.11864,-4.56407 -0.0763,0 -0.53165,0.24286 -1.01193,0.53969 -0.86546,0.53488 -0.86984,0.5478 -0.49226,1.45148 0.20954,0.50149 0.50901,1.50879 0.66549,2.23844 0.27499,1.28225 0.31517,1.32664 1.20062,1.32664 0.91056,0 0.91514,-0.006 0.75672,-0.99218 z m -7.7154,-5.34277 0.97164,-0.32067 v -1.96385 c 0,-1.08013 -0.11131,-1.96386 -0.24736,-1.96386 -1.13744,0 -3.23305,1.69915 -4.03547,3.27201 l -0.54748,1.07316 0.87234,0.72826 0.87233,0.72825 0.57118,-0.61631 c 0.31415,-0.33898 1.00842,-0.76062 1.54282,-0.93699 z m 6.26003,0.17285 c 0.002,-0.11494 -0.22783,-0.66199 -0.5103,-1.21568 -0.77147,-1.5122 -2.88531,-3.20555 -4.00156,-3.20555 -0.13605,0 -0.24736,0.9525 -0.24736,2.11667 0,1.16416 -0.0343,1.792508 0.076,1.799548 0.70733,0.04517 1.52532,0.419092 2.18364,1.077412 l 0.7603,0.7603 0.86802,-0.56186 c 0.47742,-0.30902 0.8695,-0.6559 0.8713,-0.77084 z"
       id="path194"
       sodipodi:nodetypes="cccccccccccccssssssssssssssscssscccsscssssscsc" /></g></svg>
