<?xml version="1.0" encoding="UTF-8" standalone="no"?>
<!-- Created with Inkscape (http://www.inkscape.org/) -->

<svg
   width="202.00095mm"
   height="80.234047mm"
   viewBox="0 0 202.00095 80.234047"
   version="1.1"
   id="svg5"
   xml:space="preserve"
   inkscape:version="1.2 (dc2aeda, 2022-05-15)"
   sodipodi:docname="b2 temp 4.svg"
   xmlns:inkscape="http://www.inkscape.org/namespaces/inkscape"
   xmlns:sodipodi="http://sodipodi.sourceforge.net/DTD/sodipodi-0.dtd"
   xmlns="http://www.w3.org/2000/svg"
   xmlns:svg="http://www.w3.org/2000/svg"><sodipodi:namedview
     id="namedview7"
     pagecolor="#ffffff"
     bordercolor="#000000"
     borderopacity="0.25"
     inkscape:showpageshadow="2"
     inkscape:pageopacity="0.0"
     inkscape:pagecheckerboard="0"
     inkscape:deskcolor="#d1d1d1"
     inkscape:document-units="mm"
     showgrid="false"
     inkscape:zoom="2.430289"
     inkscape:cx="388.63691"
     inkscape:cy="183.92875"
     inkscape:window-width="2333"
     inkscape:window-height="1620"
     inkscape:window-x="1134"
     inkscape:window-y="159"
     inkscape:window-maximized="0"
     inkscape:current-layer="layer1" /><defs
     id="defs2" /><g
     inkscape:label="Layer 1"
     inkscape:groupmode="layer"
     id="layer1"
     transform="translate(-4.6759235,-27.942332)"><path
       style="fill:#000000;stroke-width:0.264583"
       d="m 4.8158349,97.103532 c 0,0 69.8009771,-47.740793 100.8967551,-69.1612 0,0 70.33991,47.972899 100.95696,69.354 0,0 -10.41966,7.638868 -14.99263,10.880048 0,0 -23.20803,-16.114958 -33.57486,-23.357418 l -24.8802,18.267218 c 0,0 -7.83974,-4.994878 -11.67196,-7.623868 L 106.04958,106.07787 89.660576,95.790452 78.019285,102.9738 53.295258,84.822542 c 0,0 -24.035107,17.048758 -33.429019,23.233738 z m 18.2595831,0.07969 c 0.742828,-0.60714 3.861525,-2.78839 7.900508,-5.52569 1.159299,-0.78568 4.905783,-3.37879 8.325522,-5.76248 3.41974,-2.38369 7.467865,-5.18503 8.995834,-6.22519 1.527968,-1.04017 3.901384,-2.68589 5.274259,-3.65715 2.143448,-1.51642 2.560559,-1.71922 2.952097,-1.43529 0.250777,0.18185 2.42883,1.79672 4.840118,3.58861 l 4.384159,3.25797 0.659077,-0.47985 c 0.81896,-0.59625 0.831305,-0.77616 0.08039,-1.1716 -0.327422,-0.17243 -0.654844,-0.39111 -0.727604,-0.48596 -0.07276,-0.0948 -0.721823,-0.58304 -1.44236,-1.08487 -1.133782,-0.78964 -6.15504,-4.50197 -7.673433,-5.67314 -0.284261,-0.21926 -0.581917,-0.39801 -0.661458,-0.39723 -0.07955,8e-4 -1.751968,1.12535 -3.716499,2.49904 -1.964532,1.37368 -4.136769,2.89109 -4.827196,3.37201 -0.690425,0.48092 -1.761988,1.24252 -2.38125,1.69244 -2.293768,1.66651 -17.315905,12.22798 -18.720721,13.1618 -0.800365,0.53202 -1.574377,1.05702 -1.72003,1.16666 -1.879875,1.41506 -2.236647,1.62355 -2.380358,1.39102 -0.0903,-0.1461 -0.07922,-0.4031 0.02461,-0.5711 0.108659,-0.17581 0.07337,-0.23414 -0.08314,-0.13741 -0.149561,0.0924 -0.793036,-0.62668 -1.429943,-1.59804 -0.636908,-0.97135 -1.241042,-1.88867 -1.342517,-2.03847 -0.11448,-0.16901 -0.425855,-0.0456 -0.820439,0.32505 l -0.635939,0.59744 1.878774,2.88617 c 1.033325,1.5874 2.018464,2.89301 2.1892,2.90137 0.170738,0.008 0.646988,-0.2599 1.058333,-0.59611 z m -2.972531,-2.46665 c -1.414356,-2.21863 -1.705713,-2.84375 -1.41206,-3.02969 0.551977,-0.34949 0.576665,-0.33309 1.355712,0.9001 0.396624,0.62784 1.085054,1.6439 1.529845,2.25792 l 0.808712,1.11639 2.968072,-2.04227 c 1.632439,-1.12326 3.777252,-2.6194 4.766249,-3.32478 0.988997,-0.70537 1.930128,-1.20094 2.091402,-1.10127 0.164031,0.10138 0.219408,0.0618 0.125687,-0.0899 -0.09215,-0.1491 0.514536,-0.74829 1.348182,-1.33155 0.833644,-0.58325 2.430725,-1.70005 3.549068,-2.48178 1.807782,-1.26364 7.129955,-4.99951 13.144214,-9.22652 1.138775,-0.80036 2.868772,-2.02088 3.844436,-2.71225 l 1.773938,-1.25705 2.037448,1.55068 c 1.120598,0.85288 3.434234,2.58722 5.141418,3.8541 1.707184,1.26688 3.16743,2.4061 3.244988,2.53159 0.07756,0.12549 -0.09205,0.30214 -0.376913,0.39255 -0.520824,0.16531 -1.673206,-0.59149 -6.633503,-4.35639 -1.091407,-0.82838 -2.306162,-1.71377 -2.699454,-1.96754 l -0.715082,-0.46138 -2.195335,1.52595 c -1.207436,0.83928 -3.445494,2.39493 -4.973463,3.457 -1.527968,1.06208 -3.611562,2.50412 -4.630208,3.20453 -1.018646,0.70042 -2.804583,1.93365 -3.96875,2.74051 -1.164167,0.80687 -5.450501,3.77807 -9.52519,6.60268 -4.07469,2.82461 -7.725514,5.33997 -8.112943,5.5897 l -0.704416,0.45405 z m 171.500803,0.14733 1.88663,-2.75793 -0.54369,-0.59531 c -0.29902,-0.32742 -0.62515,-0.59531 -0.72473,-0.59531 -0.0996,0 -0.82296,1.0092 -1.60752,2.24268 -0.78456,1.23348 -1.53279,2.24551 -1.66274,2.24896 -0.12993,0.003 -2.21353,-1.38778 -4.6302,-3.09163 -2.41668,-1.70384 -5.10833,-3.59407 -5.98145,-4.20049 -0.87313,-0.60643 -1.55917,-1.23215 -1.52453,-1.3905 0.0346,-0.15834 -0.0844,-0.23401 -0.26459,-0.16815 -0.18015,0.0659 -1.45865,-0.68899 -2.84109,-1.67746 -1.38245,-0.98846 -5.22881,-3.69577 -8.54746,-6.01624 -3.31866,-2.32048 -6.85149,-4.79363 -7.85074,-5.49589 l -1.81682,-1.27685 -2.86489,2.05838 c -1.57568,1.13211 -3.83999,2.79999 -5.03178,3.70641 -1.19179,0.90642 -2.41218,1.77931 -2.71198,1.93976 -0.72657,0.38884 -0.68796,0.60377 0.20298,1.13006 0.72666,0.42925 0.77397,0.42101 1.65364,-0.28824 2.20198,-1.77537 5.08614,-3.72581 5.30731,-3.58912 0.13288,0.0821 0.20888,0.0381 0.1689,-0.0979 -0.04,-0.13598 0.63623,-0.78527 1.50271,-1.44286 l 1.5754,-1.19562 1.06734,0.69559 c 0.58704,0.38257 2.67607,1.8186 4.6423,3.19117 1.96623,1.37258 4.4084,3.0601 5.42705,3.75005 1.01864,0.68995 2.68552,1.86014 3.70416,2.60041 1.01865,0.74028 2.03068,1.42532 2.24896,1.52232 0.21828,0.097 0.45641,0.25075 0.52917,0.34166 0.0728,0.0909 0.66807,0.525 1.32291,0.96465 0.65485,0.43966 2.38125,1.63436 3.83646,2.65489 1.45521,1.02054 3.62048,2.52525 4.81171,3.3438 1.19123,0.81855 3.09623,2.14194 4.23333,2.94086 1.1371,0.79892 2.18652,1.41955 2.33205,1.37919 0.14552,-0.0404 1.11356,-1.31446 2.1512,-2.83132 z m -4.67474,0.92183 c -4.97286,-3.45171 -8.02254,-5.554 -9.75194,-6.72247 -0.96921,-0.65484 -3.12809,-2.15167 -4.79753,-3.32628 -3.85499,-2.71237 -10.425,-7.26403 -15.4324,-10.69147 -0.85204,-0.5832 -1.68547,-0.98146 -1.85208,-0.88502 -0.40154,0.23241 -3.3561,2.38716 -6.69104,4.87974 -2.40805,1.79981 -2.73951,1.97264 -3.09721,1.61495 -0.43969,-0.43969 -0.0841,-0.76145 4.49903,-4.07126 1.14173,-0.82452 2.88761,-2.09838 3.87973,-2.8308 l 1.80385,-1.33167 1.76802,1.24827 c 0.97241,0.68655 2.06568,1.45295 2.42948,1.70311 0.3638,0.25016 1.91161,1.34766 3.43958,2.43887 1.52797,1.09122 4.00875,2.82394 5.51285,3.85049 1.5041,1.02655 2.87332,1.98776 3.04271,2.13602 0.16939,0.14826 1.32002,0.96965 2.55694,1.82531 2.90739,2.01122 5.00621,3.4849 10.14296,7.12183 2.30441,1.63156 4.32847,3.01952 4.49792,3.08434 0.16945,0.0648 0.95767,-0.89866 1.7516,-2.14107 0.94832,-1.48401 1.56841,-2.211 1.80758,-2.11923 0.20023,0.0768 0.41385,0.13971 0.47471,0.13971 0.31293,0 -0.0345,0.67622 -1.50974,2.93881 -0.89121,1.36683 -1.69938,2.57299 -1.79593,2.68035 -0.0966,0.10736 -1.30214,-0.58678 -2.67909,-1.54253 z M 84.016032,91.992882 c 0,-2.52691 -0.02665,-2.64758 -0.70185,-3.1787 -0.386019,-0.30364 -0.747234,-0.50669 -0.802701,-0.45123 -0.05547,0.0555 -0.110704,0.68222 -0.122745,1.39277 -0.0232,1.36981 -0.184349,1.90089 -0.456298,1.50388 -0.09095,-0.13278 -1.707047,-1.3551 -3.591322,-2.71627 -3.580148,-2.58625 -6.534904,-4.78294 -6.760501,-5.02605 -0.07276,-0.0784 -0.54901,-0.43161 -1.058333,-0.78489 -0.509323,-0.35328 -1.295723,-0.91978 -1.747555,-1.2589 l -0.82151,-0.61656 -0.705718,0.55512 -0.705717,0.55511 4.305355,3.18593 c 2.367944,1.75226 5.317384,3.9362 6.554311,4.8532 5.199153,3.85442 6.22776,4.59227 6.416146,4.60247 0.109141,0.006 0.198438,-1.17123 0.198438,-2.61588 z m -1.984375,1.07163 c -0.727605,-0.55924 -4.359011,-3.25021 -8.069792,-5.97994 -3.710781,-2.72972 -6.726304,-5.03833 -6.70116,-5.13024 0.02513,-0.0919 0.214823,-0.27378 0.421513,-0.40416 0.448601,-0.28297 2.117698,0.83354 1.862751,1.24605 -0.08953,0.14486 -0.03345,0.18346 0.124619,0.0858 0.15807,-0.0977 1.361712,0.62805 2.67476,1.61277 1.313048,0.98471 3.607086,2.68336 5.097859,3.77476 1.490777,1.09141 3.211754,2.3623 3.824396,2.82419 0.612643,0.4619 1.184233,0.76948 1.270204,0.68351 0.08597,-0.086 0.156308,-0.7955 0.156308,-1.57673 0,-1.34749 0.0277,-1.40559 0.539488,-1.13169 0.486683,0.26046 0.535268,0.52036 0.496361,2.65514 -0.02373,1.30153 -0.117663,2.36438 -0.208759,2.3619 -0.0911,-0.002 -0.760944,-0.46207 -1.488548,-1.02132 z m 46.621173,1.21481 c 0.1755,-0.007 0.26884,-0.0939 0.20742,-0.19327 -0.0614,-0.0994 1.32206,-1.24039 3.0744,-2.53559 1.75235,-1.2952 4.99276,-3.68665 7.20092,-5.31433 2.20816,-1.62769 4.40581,-3.25299 4.88367,-3.61179 l 0.86884,-0.65235 -0.70781,-0.55676 c -0.43151,-0.33943 -0.8223,-0.46798 -1.00113,-0.32933 -0.16133,0.12509 -1.72207,1.2744 -3.46832,2.55403 -4.6751,3.42586 -5.00222,3.66722 -5.29167,3.90429 -0.14552,0.11919 -1.39568,1.05675 -2.77812,2.08346 l -2.51354,1.86674 -0.0788,-1.61245 c -0.0433,-0.88685 -0.1368,-1.61246 -0.20774,-1.61246 -0.0709,0 -0.42244,0.19229 -0.78113,0.42731 -0.62455,0.40922 -0.65215,0.54477 -0.65215,3.20331 0,2.5406 0.0393,2.75971 0.46302,2.58388 0.25467,-0.10566 0.60662,-0.19777 0.78212,-0.20469 z m -0.98055,-2.43793 c 0,-1.89618 0.083,-2.33197 0.52916,-2.77813 l 0.52917,-0.52916 v 1.72589 1.72589 l 0.7276,-0.46121 c 0.40019,-0.25366 2.57308,-1.82602 4.82865,-3.49412 9.79522,-7.24404 9.13615,-6.80813 9.64945,-6.38213 0.39829,0.33055 0.0646,0.71682 -1.61418,1.86871 -0.31002,0.21272 -1.32206,0.95385 -2.24895,1.64696 -6.73906,5.0393 -12.08172,8.92626 -12.26922,8.92626 -0.0724,0 -0.13168,-1.01203 -0.13168,-2.24896 z m -43.656248,-8.05936 v -4.48748 l -2.844271,-2.11785 c -1.564349,-1.16482 -2.988075,-2.24108 -3.163832,-2.39168 -0.436499,-0.37404 -0.636294,-0.34085 -1.377278,0.22878 l -0.638508,0.49086 0.578112,0.3094 c 0.31796,0.17016 1.616508,1.09257 2.885664,2.04979 1.269156,0.95723 2.462631,1.79991 2.652168,1.87264 0.263043,0.10095 0.335272,1.00818 0.305162,3.83314 l -0.03944,3.70091 0.754968,0.49774 c 0.415231,0.27376 0.784733,0.49853 0.821113,0.49949 0.03638,0.001 0.06615,-2.01762 0.06615,-4.48574 z m -1.005417,3.64082 c -0.216135,-0.21614 -0.3175,-1.4782 -0.3175,-3.95314 0,-2.17725 -0.107865,-3.7023 -0.268899,-3.80182 -0.147894,-0.0914 -0.208708,-0.26359 -0.135138,-0.38262 0.07357,-0.11903 -0.03942,-0.20011 -0.251085,-0.18016 -0.211664,0.0199 -1.515162,-0.79716 -2.896661,-1.81581 -2.13221,-1.57218 -2.456902,-1.90721 -2.148443,-2.21691 0.308706,-0.30995 0.486659,-0.27705 1.182828,0.21867 0.450699,0.32092 0.740127,0.71185 0.64317,0.86873 -0.10197,0.16499 -0.05298,0.20903 0.116224,0.10446 0.160877,-0.0994 0.982946,0.34004 1.826818,0.97659 0.84387,0.63656 1.865355,1.37042 2.269964,1.63081 l 0.735653,0.47344 -0.03012,4.19763 c -0.01656,2.30869 -0.115435,4.19763 -0.219715,4.19763 -0.104278,0 -0.332473,-0.14288 -0.507098,-0.3175 z m 45.996835,-3.77445 0.0122,-3.71326 2.7818,-1.98438 c 3.40458,-2.42862 3.51334,-2.54451 2.85535,-3.04256 -0.27626,-0.2091 -0.57312,-0.38398 -0.65969,-0.38861 -0.0866,-0.005 -1.35621,0.87487 -2.82143,1.95443 -1.46521,1.07957 -2.91243,2.09579 -3.21603,2.25827 -0.52738,0.28224 -0.55201,0.50228 -0.55201,4.93128 v 4.63586 l 0.79375,-0.46888 0.79375,-0.46888 0.0122,-3.71327 z m -1.33517,-0.0372 c 0,-4.75488 -0.51572,-3.81567 3.87067,-7.04917 2.17631,-1.6043 2.57207,-1.80695 2.89609,-1.48294 0.32402,0.32402 0.17357,0.51876 -1.10088,1.42503 -0.8119,0.57735 -2.18074,1.5805 -3.04187,2.22922 l -1.56568,1.17949 v 3.59624 c 0,3.43475 -0.15938,4.23124 -0.84667,4.23124 -0.11641,0 -0.21166,-1.8581 -0.21166,-4.12911 z m -94.391047,2.04268 c -0.04909,-0.21986 0.06574,-0.21753 0.427974,0.009 0.598316,0.37366 1.31023,0.144 1.537417,-0.49595 0.09158,-0.25796 0.338667,-0.66987 0.549085,-0.91537 0.445113,-0.5193 0.183806,-1.23234 -0.281208,-0.76733 -0.158199,0.15821 -0.551743,0.28765 -0.874537,0.28765 -0.928646,0 -1.423932,0.28136 -1.423932,0.80891 0,0.26824 -0.19531,0.59701 -0.434023,0.7306 -0.245549,0.13742 -0.349914,0.37898 -0.240337,0.55628 0.23503,0.38028 0.833557,0.20752 0.739561,-0.21347 z m 0.463965,-0.55941 c -0.288388,-0.18637 -0.302199,-0.25758 -0.05053,-0.26053 0.19049,-0.002 0.272759,-0.12311 0.182822,-0.26863 -0.08994,-0.14552 0.0094,-0.26459 0.22066,-0.26459 0.411234,0 0.773128,0.63781 0.510762,0.90018 -0.216373,0.21637 -0.399047,0.19386 -0.863714,-0.10643 z M 136.62276,72.874932 c -0.12058,-0.2451 -0.21923,-3.22979 -0.21923,-6.63265 v -6.18702 l 1.5875,-2.43417 c 0.87312,-1.33879 1.5875,-2.50817 1.5875,-2.5986 0,-0.28373 -0.90626,-0.86702 -1.36076,-0.87581 -0.23909,-0.005 -0.50842,0.18366 -0.5985,0.41842 -0.0901,0.23476 -0.84697,1.44285 -1.68196,2.68466 l -1.51816,2.25781 -0.0655,6.7742 c -0.036,3.72581 -0.005,7.03908 0.0695,7.36283 0.0742,0.32374 0.4609,0.76023 0.85923,0.96997 0.6991,0.36811 0.73874,0.35227 1.14191,-0.45633 0.26168,-0.52482 0.33579,-1.00412 0.19844,-1.28331 z m -1.34371,1.34204 c -0.42327,-0.23882 -0.46302,-0.88076 -0.46302,-7.47686 v -7.21561 l 1.5981,-2.49468 c 0.87895,-1.37208 1.68262,-2.52251 1.78593,-2.55653 0.10332,-0.034 0.36644,0.0532 0.58472,0.19388 0.43789,0.28214 0.0767,1.074 -1.77219,3.88551 l -0.90206,1.37171 0.0459,7.05007 c 0.0252,3.87754 -0.0577,7.15215 -0.18423,7.27692 -0.128,0.12619 -0.43554,0.11092 -0.69311,-0.0344 z m -58.735841,0.15085 c 0.575397,-0.40302 0.582274,-0.49111 0.570386,-7.30525 -0.0066,-3.79352 -0.112004,-7.16023 -0.234183,-7.48159 -0.122182,-0.32136 -0.964149,-1.72892 -1.871041,-3.12791 l -1.648891,-2.54361 -0.690996,0.4312 c -0.380045,0.23716 -0.729539,0.45617 -0.77665,0.48669 -0.103624,0.0671 0.753448,1.76998 0.984869,1.95675 0.09016,0.0728 0.609325,0.86461 1.153708,1.75967 l 0.989787,1.62738 -0.004,6.17783 c -0.0021,3.3978 -0.112599,6.34938 -0.245263,6.55906 -0.289124,0.45695 0.359486,1.86772 0.858694,1.86772 0.182166,0 0.593299,-0.18357 0.91363,-0.40794 z m -1.141421,-0.14595 c -0.09834,-0.15913 -0.166071,-3.46311 -0.150503,-7.34219 l 0.0283,-7.05288 -1.579187,-2.38125 c -1.424408,-2.14786 -1.53589,-2.41366 -1.137457,-2.71197 0.242951,-0.18191 0.519652,-0.33073 0.614897,-0.33073 0.09524,0 0.905923,1.17063 1.801514,2.6014 l 1.628343,2.60141 v 7.13526 c 0,5.19687 -0.08625,7.22151 -0.3175,7.45276 -0.394242,0.39424 -0.657021,0.40258 -0.88841,0.0282 z m 8.413671,-7.51199 0.127193,-0.66537 h -2.873727 -2.873727 v 0.65188 c 0,0.64303 0.03501,0.65291 2.579688,0.72761 1.418828,0.0416 2.654768,0.0477 2.746534,0.0135 0.09176,-0.0342 0.22408,-0.36165 0.294039,-0.72761 z m -5.355677,-0.004 c 0,-0.32493 0.45567,-0.39687 2.513541,-0.39687 2.057871,0 2.513542,0.0719 2.513542,0.39687 0,0.32493 -0.455671,0.39688 -2.513542,0.39688 -2.057871,0 -2.513541,-0.072 -2.513541,-0.39688 z m 15.08125,0.0661 v -0.72761 l -3.373438,0.0572 -3.373437,0.0572 3.241145,0.0832 c 2.636687,0.0677 3.241146,0.15572 3.241146,0.47196 0,0.32128 -0.57654,0.38873 -3.322907,0.38873 -1.827599,0 -3.267718,0.0893 -3.200265,0.19843 0.06745,0.10914 1.622293,0.19844 3.455199,0.19844 h 3.332557 z m 9.194268,0.57412 c -0.41128,-0.23955 -0.46302,-0.75607 -0.46302,-4.62217 0,-4.17608 0.0214,-4.35247 0.52917,-4.35247 0.5092,0 0.52916,0.17639 0.52916,4.6743 0,2.57087 0.0803,4.59403 0.17839,4.49592 0.0981,-0.0981 0.18877,-2.26108 0.20145,-4.8066 l 0.0231,-4.62821 h -0.86291 -0.8629 v 4.7625 4.7625 l 0.59531,-0.008 c 0.53165,-0.007 0.5458,-0.0369 0.13229,-0.27773 z m 6.68073,-4.47673 v -4.7625 h -0.90055 -0.90056 l -0.0365,3.8415 c -0.0201,2.11283 0.0412,4.25595 0.13625,4.7625 0.14993,0.79919 0.27388,0.921 0.93709,0.921 h 0.7643 z m -1.32292,0.0194 c 0,-4.35891 0.0188,-4.51731 0.53557,-4.51731 0.51925,0 0.53335,0.13486 0.46302,4.42839 -0.0651,3.97354 -0.1201,4.43753 -0.53556,4.51732 -0.42637,0.0819 -0.46303,-0.2687 -0.46303,-4.4284 z m 13.4276,4.27301 c -2.72435,-0.0605 -3.37343,-0.14816 -3.37343,-0.45571 0,-0.30613 0.63577,-0.39715 3.24114,-0.46405 l 3.24115,-0.0832 -3.37344,-0.0572 -3.37344,-0.0572 -5.3e-4,0.72761 -5.3e-4,0.7276 3.5062,-0.13146 3.50619,-0.13145 -3.37344,-0.0749 z m 11.70782,-0.47297 c 0,-0.64194 -0.0108,-0.64444 -2.77813,-0.64444 h -2.77812 l -5.3e-4,0.72761 -5.3e-4,0.7276 2.77868,-0.0832 c 2.74515,-0.0822 2.77863,-0.0909 2.77863,-0.7276 z m -5.29167,0.017 c 0,-0.32493 0.45567,-0.39687 2.51354,-0.39687 2.05787,0 2.51354,0.0719 2.51354,0.39687 0,0.32493 -0.45567,0.39688 -2.51354,0.39688 -2.05787,0 -2.51354,-0.072 -2.51354,-0.39688 z m -20.71031,-4.25474 c 0.0314,-1.09287 -0.0127,-1.17113 -0.67442,-1.1985 -1.25052,-0.0517 -2.02642,0.0763 -2.20529,0.36382 -0.13311,0.21399 -0.12011,2.179 0.0144,2.179 0.0148,0 0.65804,-0.0394 1.42935,-0.0876 l 1.40239,-0.0875 0.0336,-1.16923 z m -2.57302,0.0214 c 0,-0.904 0.0252,-0.92604 1.05833,-0.92604 1.03314,0 1.05834,0.022 1.05834,0.92604 0,0.90399 -0.0252,0.92604 -1.05834,0.92604 -1.03313,0 -1.05833,-0.022 -1.05833,-0.92604 z M 80.70874,50.781322 c 2.328333,-1.5908 4.378799,-2.9795 4.556588,-3.086 0.177792,-0.1065 0.601422,-0.0114 0.941401,0.21139 0.725757,0.47553 6.041212,0.83172 8.265221,0.55385 1.198755,-0.14977 1.408826,-0.25753 1.375095,-0.70535 -0.03554,-0.47176 -2.05604,-2.12713 -5.436735,-4.45424 l -0.881767,-0.60697 -0.705733,0.51979 c -0.388155,0.28588 -2.194018,1.5288 -4.013028,2.76203 -1.819011,1.23324 -4.842635,3.29725 -6.719163,4.58671 l -3.411871,2.34445 0.611206,0.49492 c 0.336164,0.27221 0.74041,0.44472 0.898329,0.38336 0.157917,-0.0614 2.192124,-1.41314 4.520457,-3.00394 z m -5.132028,2.46385 c -0.244247,-0.2943 0.61409,-0.99028 4.486696,-3.63802 2.6338,-1.80075 5.852803,-4.0256 7.153344,-4.9441 l 2.364618,-1.67001 0.723061,0.56422 c 0.397682,0.31032 1.705325,1.28261 2.905872,2.16065 1.200546,0.87805 2.182812,1.7626 2.182812,1.96569 0,0.58348 -8.242858,0.53137 -9.24129,-0.0584 -0.722098,-0.42655 -0.734915,-0.42028 -4.935614,2.41722 -2.316401,1.56468 -4.399606,3.00729 -4.629346,3.20579 -0.521271,0.45039 -0.63414,0.45005 -1.010153,-0.003 z m 60.469588,0.11542 0.65228,-0.51308 -0.74284,-0.47702 c -0.40856,-0.26237 -0.8619,-0.57006 -1.00742,-0.68377 -0.26964,-0.21068 -7.712,-5.30647 -11.165,-7.64468 l -1.90457,-1.28969 -0.75137,0.46744 c -0.41325,0.25709 -1.77594,1.21626 -3.02822,2.13149 -2.1499,1.57126 -2.74969,2.30634 -2.36685,2.90074 0.0945,0.1467 1.92726,0.27101 4.25424,0.28853 3.67597,0.0277 4.18074,-0.0238 5.00556,-0.51044 l 0.91733,-0.54124 2.27048,1.536 c 1.24876,0.8448 3.32769,2.28138 4.61983,3.1924 1.29214,0.91103 2.40446,1.65641 2.47181,1.65641 0.0673,0 0.41599,-0.23089 0.77474,-0.51309 z m -5.43935,-2.99972 -4.60596,-3.19565 -0.7733,0.44381 c -0.63491,0.36439 -1.52703,0.44382 -4.98519,0.44382 -3.84356,0 -4.21189,-0.0407 -4.21189,-0.46552 0,-0.55264 0.95424,-1.21755 1.37456,-0.95777 0.17259,0.10666 0.2208,0.0626 0.11635,-0.10644 -0.10478,-0.16954 0.7586,-0.94229 2.09324,-1.8735 l 2.27157,-1.58493 1.98657,1.3696 c 1.09261,0.75328 2.74236,1.90538 3.66612,2.56022 0.92375,0.65485 3.24379,2.24137 5.15564,3.52561 2.86984,1.92775 3.42152,2.40073 3.1632,2.71198 -0.17208,0.20735 -0.3876,0.36517 -0.47892,0.35071 -0.0913,-0.0145 -2.23872,-1.46433 -4.77199,-3.22194 z m -29.38156,-8.06271 c 0.17244,-0.83675 0.47705,-1.83998 0.67691,-2.22942 0.34661,-0.67542 0.32243,-0.73337 -0.52445,-1.25678 -0.4883,-0.30178 -0.95024,-0.5487 -1.02653,-0.5487 -0.14477,0 -0.84327,2.84989 -1.118633,4.56407 -0.158506,0.98672 -0.154328,0.99218 0.759889,0.99218 0.906374,0 0.923674,-0.0213 1.232814,-1.52135 z m 10.96565,0.52917 c -0.27536,-1.71418 -0.97386,-4.56407 -1.11864,-4.56407 -0.0763,0 -0.53165,0.24286 -1.01193,0.53969 -0.86546,0.53488 -0.86984,0.5478 -0.49226,1.45148 0.20954,0.50149 0.50901,1.50879 0.66549,2.23844 0.27499,1.28225 0.31517,1.32664 1.20062,1.32664 0.91056,0 0.91514,-0.006 0.75672,-0.99218 z m -7.7154,-5.34277 0.97164,-0.32067 v -1.96385 c 0,-1.08013 -0.11131,-1.96386 -0.24736,-1.96386 -1.13744,0 -3.23305,1.69915 -4.03547,3.27201 l -0.54748,1.07316 0.87234,0.72826 0.87233,0.72825 0.57118,-0.61631 c 0.31415,-0.33898 1.00842,-0.76062 1.54282,-0.93699 z m 6.26003,0.17285 c 0.002,-0.11494 -0.22783,-0.66199 -0.5103,-1.21568 -0.77147,-1.5122 -2.88531,-3.20555 -4.00156,-3.20555 -0.13605,0 -0.24736,0.9525 -0.24736,2.11667 0,1.16416 0.0893,2.10256 0.19844,2.08533 0.74816,-0.11813 1.40284,0.13331 2.06116,0.79163 l 0.7603,0.7603 0.86802,-0.56186 c 0.47742,-0.30902 0.8695,-0.6559 0.8713,-0.77084 z"
       id="path194"
       sodipodi:nodetypes="cccccccccccccssssssscsscsscssssssscssccscssccssccsscsssscsssssccssssssccccssscssccssscsssssssscssssscsssscscssssssssscsssssssssssssssscsssssscccsscscsssscssscssscccscssscsssssccsssssssscccsssssssccssscsssscscscsssscsssscsscssssccsscssscccccssssscsssccscsssssccscsssscscsscsscccssccsscsscsccsssccsscsccsccssccsscsssscssssccccscsscssssscccccssssccssssscccccccssccccccsccssssscscccccccccccscccsccsssssccssccccssssssscssscssccscscsscssssssccscssscssssscssssscsssssscsssscsssssssssssssssscssscccsscssssscsc" /></g></svg>
