<?xml version="1.0" encoding="UTF-8" standalone="no"?>
<!-- Created with Inkscape (http://www.inkscape.org/) -->

<svg
   width="15.582073mm"
   height="13.205516mm"
   viewBox="0 0 15.582073 13.205516"
   version="1.1"
   id="svg5"
   xml:space="preserve"
   inkscape:version="1.2 (dc2aeda, 2022-05-15)"
   sodipodi:docname="B2 window.svg"
   xmlns:inkscape="http://www.inkscape.org/namespaces/inkscape"
   xmlns:sodipodi="http://sodipodi.sourceforge.net/DTD/sodipodi-0.dtd"
   xmlns="http://www.w3.org/2000/svg"
   xmlns:svg="http://www.w3.org/2000/svg"><sodipodi:namedview
     id="namedview7"
     pagecolor="#ffffff"
     bordercolor="#000000"
     borderopacity="0.25"
     inkscape:showpageshadow="2"
     inkscape:pageopacity="0.0"
     inkscape:pagecheckerboard="0"
     inkscape:deskcolor="#d1d1d1"
     inkscape:document-units="mm"
     showgrid="false"
     inkscape:zoom="4.4716471"
     inkscape:cx="35.110105"
     inkscape:cy="19.120471"
     inkscape:window-width="1800"
     inkscape:window-height="1097"
     inkscape:window-x="0"
     inkscape:window-y="44"
     inkscape:window-maximized="0"
     inkscape:current-layer="layer1" /><defs
     id="defs2" /><g
     inkscape:label="Layer 1"
     inkscape:groupmode="layer"
     id="layer1"
     transform="translate(-104.82439,-46.495498)"><path
       style="fill:#000000;stroke-width:0.264583"
       d="m 105.33575,59.074428 c -0.53815,-0.57283 -0.58999,-0.81691 -0.43554,-2.05052 0.202,-1.61338 0.942,-4.17841 1.20547,-4.17841 0.0984,0 0.50093,0.33616 0.89456,0.74703 0.6993,0.72991 0.70682,0.77224 0.32789,1.84624 -0.2133,0.60456 -0.46894,1.8162 -0.56809,2.69255 -0.19946,1.76298 -0.47972,1.94855 -1.42429,0.94311 z m 13.37358,0.3195 c -0.0512,-0.1819 -0.21059,-1.0451 -0.35428,-1.91823 -0.14369,-0.87312 -0.42077,-1.97158 -0.61573,-2.44102 -0.33508,-0.80681 -0.31234,-0.89752 0.4156,-1.65732 0.60976,-0.63645 0.83376,-0.73418 1.07592,-0.46939 0.46297,0.50621 1.17562,3.38751 1.17562,4.7531 0,0.99302 -0.1165,1.28532 -0.65215,1.63629 -0.7846,0.51408 -0.92393,0.52696 -1.04498,0.0966 z m -11.54338,-7.09191 -0.86676,-1.09438 0.47546,-0.83472 c 0.78836,-1.38404 2.31849,-2.84637 3.53343,-3.37686 1.82611,-0.79734 1.89629,-0.74798 1.89629,1.33369 0,1.66176 -0.0552,1.85176 -0.58661,2.02044 -0.32264,0.1024 -1.26127,0.82969 -2.08583,1.61619 l -1.49922,1.43001 z m 8.15895,-0.46008 c -0.94064,-0.90325 -1.90851,-1.64228 -2.15081,-1.64228 -0.36905,0 -0.44055,-0.30057 -0.44055,-1.85208 0,-1.68579 0.0483,-1.85208 0.53796,-1.85208 0.76958,0 2.93518,1.15585 3.59183,1.91707 0.30685,0.35572 0.86647,1.10084 1.24359,1.65582 0.73825,1.08644 0.71407,1.23405 -0.43136,2.63345 l -0.6404,0.78238 z"
       id="path224"
       sodipodi:nodetypes="ssssssssssssssssccsssssccssssssscs" /></g></svg>
