%TF.GenerationSoftware,KiCad,Pcbnew,(6.0.4-0)*%
%TF.CreationDate,2022-04-25T17:07:07-04:00*%
%TF.ProjectId,earth_base,65617274-685f-4626-9173-652e6b696361,rev?*%
%TF.SameCoordinates,Original*%
%TF.FileFunction,Copper,L2,Bot*%
%TF.FilePolarity,Positive*%
%FSLAX46Y46*%
G04 Gerber Fmt 4.6, Leading zero omitted, Abs format (unit mm)*
G04 Created by KiCad (PCBNEW (6.0.4-0)) date 2022-04-25 17:07:07*
%MOMM*%
%LPD*%
G01*
G04 APERTURE LIST*
G04 Aperture macros list*
%AMRoundRect*
0 Rectangle with rounded corners*
0 $1 Rounding radius*
0 $2 $3 $4 $5 $6 $7 $8 $9 X,Y pos of 4 corners*
0 Add a 4 corners polygon primitive as box body*
4,1,4,$2,$3,$4,$5,$6,$7,$8,$9,$2,$3,0*
0 Add four circle primitives for the rounded corners*
1,1,$1+$1,$2,$3*
1,1,$1+$1,$4,$5*
1,1,$1+$1,$6,$7*
1,1,$1+$1,$8,$9*
0 Add four rect primitives between the rounded corners*
20,1,$1+$1,$2,$3,$4,$5,0*
20,1,$1+$1,$4,$5,$6,$7,0*
20,1,$1+$1,$6,$7,$8,$9,0*
20,1,$1+$1,$8,$9,$2,$3,0*%
G04 Aperture macros list end*
%ADD10C,0.300000*%
%TA.AperFunction,NonConductor*%
%ADD11C,0.300000*%
%TD*%
%TA.AperFunction,SMDPad,CuDef*%
%ADD12RoundRect,0.250001X0.462499X0.624999X-0.462499X0.624999X-0.462499X-0.624999X0.462499X-0.624999X0*%
%TD*%
%TA.AperFunction,ComponentPad*%
%ADD13R,1.700000X1.700000*%
%TD*%
%TA.AperFunction,ComponentPad*%
%ADD14O,1.700000X1.700000*%
%TD*%
%TA.AperFunction,ComponentPad*%
%ADD15C,1.700000*%
%TD*%
%TA.AperFunction,SMDPad,CuDef*%
%ADD16RoundRect,0.250000X0.312500X0.625000X-0.312500X0.625000X-0.312500X-0.625000X0.312500X-0.625000X0*%
%TD*%
%TA.AperFunction,SMDPad,CuDef*%
%ADD17RoundRect,0.250000X-0.312500X-0.625000X0.312500X-0.625000X0.312500X0.625000X-0.312500X0.625000X0*%
%TD*%
%TA.AperFunction,ViaPad*%
%ADD18C,0.800000*%
%TD*%
%TA.AperFunction,Conductor*%
%ADD19C,0.250000*%
%TD*%
G04 APERTURE END LIST*
D10*
D11*
X177125531Y-109873388D02*
X176768388Y-110873388D01*
X176411245Y-109873388D01*
X175554102Y-109373388D02*
X175411245Y-109373388D01*
X175268388Y-109444817D01*
X175196959Y-109516245D01*
X175125531Y-109659102D01*
X175054102Y-109944817D01*
X175054102Y-110301959D01*
X175125531Y-110587674D01*
X175196959Y-110730531D01*
X175268388Y-110801959D01*
X175411245Y-110873388D01*
X175554102Y-110873388D01*
X175696959Y-110801959D01*
X175768388Y-110730531D01*
X175839817Y-110587674D01*
X175911245Y-110301959D01*
X175911245Y-109944817D01*
X175839817Y-109659102D01*
X175768388Y-109516245D01*
X175696959Y-109444817D01*
X175554102Y-109373388D01*
X173625531Y-110873388D02*
X174482674Y-110873388D01*
X174054102Y-110873388D02*
X174054102Y-109373388D01*
X174196959Y-109587674D01*
X174339817Y-109730531D01*
X174482674Y-109801959D01*
D12*
%TO.P,D3,1,K*%
%TO.N,GND*%
X144784790Y-96587717D03*
%TO.P,D3,2,A*%
%TO.N,Net-(D3-Pad2)*%
X141809790Y-96587717D03*
%TD*%
%TO.P,D2,1,K*%
%TO.N,GND*%
X131657910Y-102253249D03*
%TO.P,D2,2,A*%
%TO.N,Net-(D2-Pad2)*%
X128682910Y-102253249D03*
%TD*%
%TO.P,D1,1,K*%
%TO.N,GND*%
X166682955Y-99562746D03*
%TO.P,D1,2,A*%
%TO.N,Net-(D1-Pad2)*%
X163707955Y-99562746D03*
%TD*%
D13*
%TO.P,J1,1,Pin_1*%
%TO.N,VCC*%
X124133751Y-107218580D03*
D14*
%TO.P,J1,2,Pin_2*%
%TO.N,GND*%
X126673751Y-107218580D03*
%TO.P,J1,3,Pin_3*%
%TO.N,Net-(J1-Pad3)*%
X147863751Y-95218580D03*
D15*
%TO.P,J1,4,Pin_4*%
%TO.N,Net-(J1-Pad4)*%
X150403751Y-95218580D03*
D14*
%TO.P,J1,5,Pin_5*%
%TO.N,Net-(J1-Pad5)*%
X171593751Y-107218580D03*
%TO.P,J1,6,Pin_6*%
%TO.N,Net-(J1-Pad6)*%
X174133751Y-107218580D03*
%TD*%
D13*
%TO.P,J2,1,Pin_1*%
%TO.N,VCC*%
X146090605Y-105357258D03*
D14*
%TO.P,J2,2,Pin_2*%
%TO.N,GND*%
X146090605Y-107897258D03*
%TO.P,J2,3,Pin_3*%
%TO.N,Net-(J1-Pad3)*%
X148630605Y-105357258D03*
%TO.P,J2,4,Pin_4*%
%TO.N,Net-(J1-Pad4)*%
X148630605Y-107897258D03*
%TO.P,J2,5,Pin_5*%
%TO.N,Net-(J1-Pad5)*%
X151170605Y-105357258D03*
%TO.P,J2,6,Pin_6*%
%TO.N,Net-(J1-Pad6)*%
X151170605Y-107897258D03*
%TD*%
D16*
%TO.P,R3,1*%
%TO.N,Net-(D3-Pad2)*%
X141162500Y-101600000D03*
%TO.P,R3,2*%
%TO.N,VCC*%
X138237500Y-101600000D03*
%TD*%
D17*
%TO.P,R2,1*%
%TO.N,Net-(D2-Pad2)*%
X129155000Y-106680000D03*
%TO.P,R2,2*%
%TO.N,VCC*%
X132080000Y-106680000D03*
%TD*%
D16*
%TO.P,R1,1*%
%TO.N,Net-(D1-Pad2)*%
X141219802Y-108076026D03*
%TO.P,R1,2*%
%TO.N,VCC*%
X138294802Y-108076026D03*
%TD*%
D18*
%TO.N,GND*%
X165100000Y-101600000D03*
%TO.N,Net-(D1-Pad2)*%
X139700000Y-109220000D03*
X160020000Y-101600000D03*
%TD*%
D19*
%TO.N,GND*%
X165100000Y-101145701D02*
X165100000Y-101600000D01*
X166682955Y-99562746D02*
X165100000Y-101145701D01*
%TO.N,Net-(D1-Pad2)*%
X139700000Y-109220000D02*
X140075828Y-109220000D01*
X140075828Y-109220000D02*
X141219802Y-108076026D01*
X161670701Y-101600000D02*
X160020000Y-101600000D01*
X163707955Y-99562746D02*
X161670701Y-101600000D01*
%TO.N,VCC*%
X133402742Y-105357258D02*
X138377258Y-105357258D01*
X138237500Y-101600000D02*
X138237500Y-105217500D01*
X138237500Y-105217500D02*
X138377258Y-105357258D01*
X138377258Y-105357258D02*
X140917258Y-105357258D01*
X138294802Y-108076026D02*
X140917258Y-105453570D01*
X140917258Y-105357258D02*
X146090605Y-105357258D01*
X140917258Y-105453570D02*
X140917258Y-105357258D01*
%TO.N,Net-(D3-Pad2)*%
X141809790Y-96587717D02*
X141809790Y-100952710D01*
X141809790Y-100952710D02*
X141162500Y-101600000D01*
%TO.N,VCC*%
X124133751Y-107218580D02*
X125308262Y-108393091D01*
X125308262Y-108393091D02*
X130366909Y-108393091D01*
X130366909Y-108393091D02*
X132080000Y-106680000D01*
%TO.N,Net-(D2-Pad2)*%
X129155000Y-106680000D02*
X129155000Y-102725339D01*
X129155000Y-102725339D02*
X128682910Y-102253249D01*
%TO.N,VCC*%
X132080000Y-106680000D02*
X133402742Y-105357258D01*
%TO.N,Net-(J1-Pad4)*%
X148630605Y-107897258D02*
X149996094Y-106531769D01*
X149996094Y-95626237D02*
X150403751Y-95218580D01*
X149996094Y-106531769D02*
X149996094Y-95626237D01*
%TO.N,VCC*%
X141994758Y-105357258D02*
X146090605Y-105357258D01*
%TO.N,Net-(J1-Pad3)*%
X148630605Y-105357258D02*
X148630605Y-95985434D01*
X148630605Y-95985434D02*
X147863751Y-95218580D01*
%TO.N,Net-(J1-Pad6)*%
X151170605Y-107897258D02*
X152020605Y-108747258D01*
X152020605Y-108747258D02*
X172605073Y-108747258D01*
X172605073Y-108747258D02*
X174133751Y-107218580D01*
%TO.N,Net-(J1-Pad5)*%
X151170605Y-105357258D02*
X153031927Y-107218580D01*
X153031927Y-107218580D02*
X171593751Y-107218580D01*
%TD*%
%TA.AperFunction,Conductor*%
%TO.N,GND*%
G36*
X138434895Y-93758198D02*
G01*
X138481388Y-93811854D01*
X138492774Y-93864196D01*
X138492774Y-94436788D01*
X138492436Y-94446017D01*
X138490722Y-94469358D01*
X138488765Y-94496000D01*
X138490647Y-94504779D01*
X138490647Y-94504780D01*
X138499443Y-94545814D01*
X138500969Y-94554362D01*
X138506920Y-94595917D01*
X138506922Y-94595924D01*
X138508194Y-94604806D01*
X138511908Y-94612975D01*
X138514374Y-94621408D01*
X138517414Y-94629649D01*
X138519295Y-94638422D01*
X138523562Y-94646314D01*
X138543534Y-94683253D01*
X138547396Y-94691026D01*
X138568482Y-94737401D01*
X138574342Y-94744201D01*
X138579067Y-94751590D01*
X138584299Y-94758648D01*
X138588572Y-94766551D01*
X138624418Y-94802776D01*
X138630299Y-94809144D01*
X138657702Y-94840947D01*
X138657704Y-94840949D01*
X138663561Y-94847746D01*
X138671092Y-94852628D01*
X138677706Y-94858397D01*
X138684708Y-94863703D01*
X138691025Y-94870086D01*
X138735611Y-94894801D01*
X138743015Y-94899246D01*
X138785789Y-94926971D01*
X138794384Y-94929542D01*
X138802351Y-94933223D01*
X138810570Y-94936354D01*
X138818419Y-94940704D01*
X138868122Y-94951906D01*
X138876512Y-94954103D01*
X138925340Y-94968705D01*
X138934316Y-94968760D01*
X138942982Y-94970055D01*
X138951751Y-94970753D01*
X138960513Y-94972728D01*
X138969469Y-94972165D01*
X138969473Y-94972165D01*
X139011367Y-94969530D01*
X139020044Y-94969284D01*
X139051737Y-94969477D01*
X139070995Y-94969595D01*
X139123040Y-94954720D01*
X139130465Y-94952842D01*
X139974312Y-94766551D01*
X140324678Y-94689203D01*
X140328344Y-94688450D01*
X141557945Y-94455067D01*
X141561590Y-94454431D01*
X142814815Y-94254492D01*
X142818443Y-94253967D01*
X144093911Y-94088369D01*
X144097527Y-94087952D01*
X145393821Y-93957596D01*
X145397428Y-93957286D01*
X146005080Y-93913771D01*
X146713107Y-93863069D01*
X146716647Y-93862867D01*
X147042380Y-93848900D01*
X147111295Y-93865965D01*
X147160043Y-93917580D01*
X147173148Y-93987357D01*
X147146449Y-94053142D01*
X147123430Y-94075544D01*
X146986632Y-94178255D01*
X146958716Y-94199215D01*
X146804380Y-94360718D01*
X146678494Y-94545260D01*
X146642331Y-94623166D01*
X146608679Y-94695665D01*
X146584439Y-94747885D01*
X146524740Y-94963150D01*
X146501002Y-95185275D01*
X146501299Y-95190428D01*
X146501299Y-95190431D01*
X146506762Y-95285170D01*
X146513861Y-95408295D01*
X146514998Y-95413341D01*
X146514999Y-95413347D01*
X146530741Y-95483196D01*
X146562973Y-95626219D01*
X146601212Y-95720391D01*
X146639505Y-95814695D01*
X146647017Y-95833196D01*
X146684270Y-95893987D01*
X146749878Y-96001050D01*
X146763738Y-96023668D01*
X146910001Y-96192518D01*
X147081877Y-96335212D01*
X147274751Y-96447918D01*
X147483443Y-96527610D01*
X147488511Y-96528641D01*
X147488514Y-96528642D01*
X147566538Y-96544516D01*
X147702348Y-96572147D01*
X147707522Y-96572337D01*
X147707524Y-96572337D01*
X147758598Y-96574210D01*
X147875724Y-96578505D01*
X147943064Y-96600988D01*
X147987560Y-96656312D01*
X147997105Y-96704419D01*
X147997105Y-104078950D01*
X147977103Y-104147071D01*
X147929288Y-104190711D01*
X147904212Y-104203765D01*
X147900079Y-104206868D01*
X147900076Y-104206870D01*
X147802351Y-104280244D01*
X147725570Y-104337893D01*
X147669142Y-104396942D01*
X147644888Y-104422322D01*
X147583364Y-104457752D01*
X147512451Y-104454295D01*
X147454665Y-104413049D01*
X147435812Y-104379501D01*
X147394372Y-104268961D01*
X147391220Y-104260553D01*
X147303866Y-104143997D01*
X147187310Y-104056643D01*
X147050921Y-104005513D01*
X146988739Y-103998758D01*
X145192471Y-103998758D01*
X145130289Y-104005513D01*
X144993900Y-104056643D01*
X144877344Y-104143997D01*
X144789990Y-104260553D01*
X144738860Y-104396942D01*
X144732105Y-104459124D01*
X144732105Y-104597758D01*
X144712103Y-104665879D01*
X144658447Y-104712372D01*
X144606105Y-104723758D01*
X140989051Y-104723758D01*
X140965442Y-104721526D01*
X140965139Y-104721468D01*
X140965135Y-104721468D01*
X140957352Y-104719983D01*
X140901307Y-104723509D01*
X140893396Y-104723758D01*
X138997000Y-104723758D01*
X138928879Y-104703756D01*
X138882386Y-104650100D01*
X138871000Y-104597758D01*
X138871000Y-102988575D01*
X138891002Y-102920454D01*
X138930697Y-102881431D01*
X138930953Y-102881273D01*
X139024348Y-102823478D01*
X139149305Y-102698303D01*
X139242115Y-102547738D01*
X139297797Y-102379861D01*
X139308500Y-102275400D01*
X140091500Y-102275400D01*
X140091837Y-102278646D01*
X140091837Y-102278650D01*
X140092263Y-102282749D01*
X140102474Y-102381166D01*
X140158450Y-102548946D01*
X140251522Y-102699348D01*
X140376697Y-102824305D01*
X140382927Y-102828145D01*
X140382928Y-102828146D01*
X140520090Y-102912694D01*
X140527262Y-102917115D01*
X140571678Y-102931847D01*
X140688611Y-102970632D01*
X140688613Y-102970632D01*
X140695139Y-102972797D01*
X140701975Y-102973497D01*
X140701978Y-102973498D01*
X140745031Y-102977909D01*
X140799600Y-102983500D01*
X141525400Y-102983500D01*
X141528646Y-102983163D01*
X141528650Y-102983163D01*
X141624308Y-102973238D01*
X141624312Y-102973237D01*
X141631166Y-102972526D01*
X141637702Y-102970345D01*
X141637704Y-102970345D01*
X141787244Y-102920454D01*
X141798946Y-102916550D01*
X141949348Y-102823478D01*
X142074305Y-102698303D01*
X142167115Y-102547738D01*
X142222797Y-102379861D01*
X142233500Y-102275400D01*
X142233500Y-101477094D01*
X142253502Y-101408973D01*
X142270405Y-101387999D01*
X142285924Y-101372480D01*
X142288402Y-101369285D01*
X142296108Y-101360263D01*
X142320948Y-101333811D01*
X142326376Y-101328031D01*
X142332522Y-101316852D01*
X142336136Y-101310278D01*
X142346989Y-101293755D01*
X142354543Y-101284016D01*
X142359403Y-101277751D01*
X142376966Y-101237167D01*
X142382173Y-101226537D01*
X142403485Y-101187770D01*
X142405456Y-101180093D01*
X142405458Y-101180088D01*
X142408522Y-101168152D01*
X142414928Y-101149440D01*
X142419823Y-101138129D01*
X142422971Y-101130855D01*
X142424211Y-101123027D01*
X142424213Y-101123020D01*
X142429889Y-101087186D01*
X142432295Y-101075566D01*
X142441318Y-101040421D01*
X142441318Y-101040420D01*
X142443290Y-101032740D01*
X142443290Y-101012486D01*
X142444841Y-100992775D01*
X142446770Y-100980596D01*
X142448010Y-100972767D01*
X142443849Y-100928748D01*
X142443290Y-100916891D01*
X142443290Y-98046084D01*
X142463292Y-97977963D01*
X142516948Y-97931470D01*
X142529413Y-97926561D01*
X142589291Y-97906584D01*
X142589293Y-97906583D01*
X142596235Y-97904267D01*
X142746638Y-97811195D01*
X142871595Y-97686020D01*
X142950910Y-97557348D01*
X142960565Y-97541685D01*
X142960566Y-97541683D01*
X142964405Y-97535455D01*
X143017486Y-97375420D01*
X143017922Y-97374106D01*
X143017922Y-97374104D01*
X143020087Y-97367578D01*
X143020799Y-97360636D01*
X143030462Y-97266315D01*
X143030790Y-97263117D01*
X143030790Y-97259813D01*
X143564290Y-97259813D01*
X143564627Y-97266328D01*
X143574546Y-97361920D01*
X143577440Y-97375319D01*
X143628878Y-97529500D01*
X143635052Y-97542679D01*
X143720353Y-97680524D01*
X143729389Y-97691925D01*
X143844120Y-97806456D01*
X143855531Y-97815468D01*
X143993535Y-97900535D01*
X144006713Y-97906679D01*
X144161006Y-97957856D01*
X144174371Y-97960722D01*
X144268729Y-97970389D01*
X144275145Y-97970717D01*
X144512675Y-97970717D01*
X144527914Y-97966242D01*
X144529119Y-97964852D01*
X144530790Y-97957169D01*
X144530790Y-97952602D01*
X145038790Y-97952602D01*
X145043265Y-97967841D01*
X145044655Y-97969046D01*
X145052338Y-97970717D01*
X145294386Y-97970717D01*
X145300901Y-97970380D01*
X145396493Y-97960461D01*
X145409892Y-97957567D01*
X145564073Y-97906129D01*
X145577252Y-97899955D01*
X145715097Y-97814654D01*
X145726498Y-97805618D01*
X145841029Y-97690887D01*
X145850041Y-97679476D01*
X145935108Y-97541472D01*
X145941252Y-97528294D01*
X145992429Y-97374001D01*
X145995295Y-97360636D01*
X146004962Y-97266278D01*
X146005290Y-97259862D01*
X146005290Y-96859832D01*
X146000815Y-96844593D01*
X145999425Y-96843388D01*
X145991742Y-96841717D01*
X145056905Y-96841717D01*
X145041666Y-96846192D01*
X145040461Y-96847582D01*
X145038790Y-96855265D01*
X145038790Y-97952602D01*
X144530790Y-97952602D01*
X144530790Y-96859832D01*
X144526315Y-96844593D01*
X144524925Y-96843388D01*
X144517242Y-96841717D01*
X143582405Y-96841717D01*
X143567166Y-96846192D01*
X143565961Y-96847582D01*
X143564290Y-96855265D01*
X143564290Y-97259813D01*
X143030790Y-97259813D01*
X143030790Y-96315602D01*
X143564290Y-96315602D01*
X143568765Y-96330841D01*
X143570155Y-96332046D01*
X143577838Y-96333717D01*
X144512675Y-96333717D01*
X144527914Y-96329242D01*
X144529119Y-96327852D01*
X144530790Y-96320169D01*
X144530790Y-96315602D01*
X145038790Y-96315602D01*
X145043265Y-96330841D01*
X145044655Y-96332046D01*
X145052338Y-96333717D01*
X145987175Y-96333717D01*
X146002414Y-96329242D01*
X146003619Y-96327852D01*
X146005290Y-96320169D01*
X146005290Y-95915621D01*
X146004953Y-95909106D01*
X145995034Y-95813514D01*
X145992140Y-95800115D01*
X145940702Y-95645934D01*
X145934528Y-95632755D01*
X145849227Y-95494910D01*
X145840191Y-95483509D01*
X145725460Y-95368978D01*
X145714049Y-95359966D01*
X145576045Y-95274899D01*
X145562867Y-95268755D01*
X145408574Y-95217578D01*
X145395209Y-95214712D01*
X145300851Y-95205045D01*
X145294434Y-95204717D01*
X145056905Y-95204717D01*
X145041666Y-95209192D01*
X145040461Y-95210582D01*
X145038790Y-95218265D01*
X145038790Y-96315602D01*
X144530790Y-96315602D01*
X144530790Y-95222832D01*
X144526315Y-95207593D01*
X144524925Y-95206388D01*
X144517242Y-95204717D01*
X144275194Y-95204717D01*
X144268679Y-95205054D01*
X144173087Y-95214973D01*
X144159688Y-95217867D01*
X144005507Y-95269305D01*
X143992328Y-95275479D01*
X143854483Y-95360780D01*
X143843082Y-95369816D01*
X143728551Y-95484547D01*
X143719539Y-95495958D01*
X143634472Y-95633962D01*
X143628328Y-95647140D01*
X143577151Y-95801433D01*
X143574285Y-95814798D01*
X143564618Y-95909156D01*
X143564290Y-95915573D01*
X143564290Y-96315602D01*
X143030790Y-96315602D01*
X143030790Y-95912317D01*
X143025611Y-95862402D01*
X143020528Y-95813410D01*
X143020527Y-95813406D01*
X143019816Y-95806552D01*
X142963840Y-95638772D01*
X142870768Y-95488369D01*
X142745593Y-95363412D01*
X142630149Y-95292251D01*
X142601258Y-95274442D01*
X142601256Y-95274441D01*
X142595028Y-95270602D01*
X142515285Y-95244153D01*
X142433679Y-95217085D01*
X142433677Y-95217085D01*
X142427151Y-95214920D01*
X142420315Y-95214220D01*
X142420312Y-95214219D01*
X142377259Y-95209808D01*
X142322690Y-95204217D01*
X141296890Y-95204217D01*
X141293644Y-95204554D01*
X141293640Y-95204554D01*
X141197983Y-95214479D01*
X141197979Y-95214480D01*
X141191125Y-95215191D01*
X141184589Y-95217372D01*
X141184587Y-95217372D01*
X141052485Y-95261445D01*
X141023345Y-95271167D01*
X140872942Y-95364239D01*
X140747985Y-95489414D01*
X140744145Y-95495644D01*
X140744144Y-95495645D01*
X140660707Y-95631005D01*
X140655175Y-95639979D01*
X140630147Y-95715437D01*
X140602061Y-95800115D01*
X140599493Y-95807856D01*
X140598793Y-95814692D01*
X140598792Y-95814695D01*
X140597387Y-95828409D01*
X140588790Y-95912317D01*
X140588790Y-97263117D01*
X140589127Y-97266363D01*
X140589127Y-97266367D01*
X140599042Y-97361920D01*
X140599764Y-97368882D01*
X140655740Y-97536662D01*
X140748812Y-97687065D01*
X140873987Y-97812022D01*
X140880217Y-97815862D01*
X140880218Y-97815863D01*
X141016655Y-97899964D01*
X141024552Y-97904832D01*
X141072078Y-97920596D01*
X141089957Y-97926526D01*
X141148317Y-97966957D01*
X141175554Y-98032521D01*
X141176290Y-98046119D01*
X141176290Y-100090500D01*
X141156288Y-100158621D01*
X141102632Y-100205114D01*
X141050290Y-100216500D01*
X140799600Y-100216500D01*
X140796354Y-100216837D01*
X140796350Y-100216837D01*
X140700692Y-100226762D01*
X140700688Y-100226763D01*
X140693834Y-100227474D01*
X140687298Y-100229655D01*
X140687296Y-100229655D01*
X140555194Y-100273728D01*
X140526054Y-100283450D01*
X140375652Y-100376522D01*
X140250695Y-100501697D01*
X140246855Y-100507927D01*
X140246854Y-100507928D01*
X140178444Y-100618910D01*
X140157885Y-100652262D01*
X140102203Y-100820139D01*
X140091500Y-100924600D01*
X140091500Y-102275400D01*
X139308500Y-102275400D01*
X139308500Y-100924600D01*
X139308163Y-100921350D01*
X139298238Y-100825692D01*
X139298237Y-100825688D01*
X139297526Y-100818834D01*
X139287801Y-100789683D01*
X139243868Y-100658002D01*
X139241550Y-100651054D01*
X139148478Y-100500652D01*
X139023303Y-100375695D01*
X138958363Y-100335665D01*
X138878968Y-100286725D01*
X138878966Y-100286724D01*
X138872738Y-100282885D01*
X138792995Y-100256436D01*
X138711389Y-100229368D01*
X138711387Y-100229368D01*
X138704861Y-100227203D01*
X138698025Y-100226503D01*
X138698022Y-100226502D01*
X138654969Y-100222091D01*
X138600400Y-100216500D01*
X137874600Y-100216500D01*
X137871354Y-100216837D01*
X137871350Y-100216837D01*
X137775692Y-100226762D01*
X137775688Y-100226763D01*
X137768834Y-100227474D01*
X137762298Y-100229655D01*
X137762296Y-100229655D01*
X137630194Y-100273728D01*
X137601054Y-100283450D01*
X137450652Y-100376522D01*
X137325695Y-100501697D01*
X137321855Y-100507927D01*
X137321854Y-100507928D01*
X137253444Y-100618910D01*
X137232885Y-100652262D01*
X137177203Y-100820139D01*
X137166500Y-100924600D01*
X137166500Y-102275400D01*
X137166837Y-102278646D01*
X137166837Y-102278650D01*
X137167263Y-102282749D01*
X137177474Y-102381166D01*
X137233450Y-102548946D01*
X137326522Y-102699348D01*
X137451697Y-102824305D01*
X137457927Y-102828145D01*
X137457928Y-102828146D01*
X137544116Y-102881273D01*
X137591609Y-102934045D01*
X137604000Y-102988533D01*
X137604000Y-104597758D01*
X137583998Y-104665879D01*
X137530342Y-104712372D01*
X137478000Y-104723758D01*
X133481510Y-104723758D01*
X133470327Y-104723231D01*
X133462834Y-104721556D01*
X133454908Y-104721805D01*
X133454907Y-104721805D01*
X133394744Y-104723696D01*
X133390786Y-104723758D01*
X133362886Y-104723758D01*
X133358896Y-104724262D01*
X133347062Y-104725194D01*
X133302853Y-104726584D01*
X133295237Y-104728797D01*
X133295235Y-104728797D01*
X133283394Y-104732237D01*
X133264035Y-104736246D01*
X133262725Y-104736412D01*
X133243945Y-104738784D01*
X133236579Y-104741700D01*
X133236573Y-104741702D01*
X133202840Y-104755058D01*
X133191610Y-104758903D01*
X133156759Y-104769028D01*
X133149149Y-104771239D01*
X133142326Y-104775274D01*
X133131708Y-104781553D01*
X133113955Y-104790250D01*
X133106310Y-104793277D01*
X133095125Y-104797706D01*
X133088710Y-104802367D01*
X133059354Y-104823695D01*
X133049437Y-104830209D01*
X133011380Y-104852716D01*
X132997059Y-104867037D01*
X132982026Y-104879877D01*
X132965635Y-104891786D01*
X132960584Y-104897892D01*
X132937444Y-104925863D01*
X132929454Y-104934642D01*
X132598361Y-105265735D01*
X132536049Y-105299761D01*
X132496423Y-105301984D01*
X132442900Y-105296500D01*
X131717100Y-105296500D01*
X131713854Y-105296837D01*
X131713850Y-105296837D01*
X131618192Y-105306762D01*
X131618188Y-105306763D01*
X131611334Y-105307474D01*
X131604798Y-105309655D01*
X131604796Y-105309655D01*
X131519600Y-105338079D01*
X131443554Y-105363450D01*
X131293152Y-105456522D01*
X131168195Y-105581697D01*
X131164355Y-105587927D01*
X131164354Y-105587928D01*
X131103381Y-105686845D01*
X131075385Y-105732262D01*
X131073081Y-105739209D01*
X131023394Y-105889012D01*
X131019703Y-105900139D01*
X131019003Y-105906975D01*
X131019002Y-105906978D01*
X131017325Y-105923351D01*
X131009000Y-106004600D01*
X131009000Y-106802905D01*
X130988998Y-106871026D01*
X130972095Y-106892001D01*
X130441095Y-107423000D01*
X130378783Y-107457025D01*
X130307967Y-107451960D01*
X130251132Y-107409413D01*
X130226321Y-107342893D01*
X130226000Y-107333904D01*
X130226000Y-106004600D01*
X130223211Y-105977717D01*
X130215738Y-105905692D01*
X130215737Y-105905688D01*
X130215026Y-105898834D01*
X130210862Y-105886351D01*
X130161368Y-105738002D01*
X130159050Y-105731054D01*
X130065978Y-105580652D01*
X129940803Y-105455695D01*
X129848384Y-105398727D01*
X129800891Y-105345955D01*
X129788500Y-105291467D01*
X129788500Y-103316234D01*
X129807240Y-103250118D01*
X129833685Y-103207217D01*
X129833686Y-103207215D01*
X129837525Y-103200987D01*
X129890606Y-103040952D01*
X129891042Y-103039638D01*
X129891042Y-103039636D01*
X129893207Y-103033110D01*
X129893919Y-103026168D01*
X129903582Y-102931847D01*
X129903910Y-102928649D01*
X129903910Y-102925345D01*
X130437410Y-102925345D01*
X130437747Y-102931860D01*
X130447666Y-103027452D01*
X130450560Y-103040851D01*
X130501998Y-103195032D01*
X130508172Y-103208211D01*
X130593473Y-103346056D01*
X130602509Y-103357457D01*
X130717240Y-103471988D01*
X130728651Y-103481000D01*
X130866655Y-103566067D01*
X130879833Y-103572211D01*
X131034126Y-103623388D01*
X131047491Y-103626254D01*
X131141849Y-103635921D01*
X131148265Y-103636249D01*
X131385795Y-103636249D01*
X131401034Y-103631774D01*
X131402239Y-103630384D01*
X131403910Y-103622701D01*
X131403910Y-103618134D01*
X131911910Y-103618134D01*
X131916385Y-103633373D01*
X131917775Y-103634578D01*
X131925458Y-103636249D01*
X132167506Y-103636249D01*
X132174021Y-103635912D01*
X132269613Y-103625993D01*
X132283012Y-103623099D01*
X132437193Y-103571661D01*
X132450372Y-103565487D01*
X132588217Y-103480186D01*
X132599618Y-103471150D01*
X132714149Y-103356419D01*
X132723161Y-103345008D01*
X132808228Y-103207004D01*
X132814372Y-103193826D01*
X132865549Y-103039533D01*
X132868415Y-103026168D01*
X132878082Y-102931810D01*
X132878410Y-102925394D01*
X132878410Y-102525364D01*
X132873935Y-102510125D01*
X132872545Y-102508920D01*
X132864862Y-102507249D01*
X131930025Y-102507249D01*
X131914786Y-102511724D01*
X131913581Y-102513114D01*
X131911910Y-102520797D01*
X131911910Y-103618134D01*
X131403910Y-103618134D01*
X131403910Y-102525364D01*
X131399435Y-102510125D01*
X131398045Y-102508920D01*
X131390362Y-102507249D01*
X130455525Y-102507249D01*
X130440286Y-102511724D01*
X130439081Y-102513114D01*
X130437410Y-102520797D01*
X130437410Y-102925345D01*
X129903910Y-102925345D01*
X129903910Y-101981134D01*
X130437410Y-101981134D01*
X130441885Y-101996373D01*
X130443275Y-101997578D01*
X130450958Y-101999249D01*
X131385795Y-101999249D01*
X131401034Y-101994774D01*
X131402239Y-101993384D01*
X131403910Y-101985701D01*
X131403910Y-101981134D01*
X131911910Y-101981134D01*
X131916385Y-101996373D01*
X131917775Y-101997578D01*
X131925458Y-101999249D01*
X132860295Y-101999249D01*
X132875534Y-101994774D01*
X132876739Y-101993384D01*
X132878410Y-101985701D01*
X132878410Y-101581153D01*
X132878073Y-101574638D01*
X132868154Y-101479046D01*
X132865260Y-101465647D01*
X132813822Y-101311466D01*
X132807648Y-101298287D01*
X132722347Y-101160442D01*
X132713311Y-101149041D01*
X132598580Y-101034510D01*
X132587169Y-101025498D01*
X132449165Y-100940431D01*
X132435987Y-100934287D01*
X132281694Y-100883110D01*
X132268329Y-100880244D01*
X132173971Y-100870577D01*
X132167554Y-100870249D01*
X131930025Y-100870249D01*
X131914786Y-100874724D01*
X131913581Y-100876114D01*
X131911910Y-100883797D01*
X131911910Y-101981134D01*
X131403910Y-101981134D01*
X131403910Y-100888364D01*
X131399435Y-100873125D01*
X131398045Y-100871920D01*
X131390362Y-100870249D01*
X131148314Y-100870249D01*
X131141799Y-100870586D01*
X131046207Y-100880505D01*
X131032808Y-100883399D01*
X130878627Y-100934837D01*
X130865448Y-100941011D01*
X130727603Y-101026312D01*
X130716202Y-101035348D01*
X130601671Y-101150079D01*
X130592659Y-101161490D01*
X130507592Y-101299494D01*
X130501448Y-101312672D01*
X130450271Y-101466965D01*
X130447405Y-101480330D01*
X130437738Y-101574688D01*
X130437410Y-101581105D01*
X130437410Y-101981134D01*
X129903910Y-101981134D01*
X129903910Y-101577849D01*
X129893781Y-101480227D01*
X129893648Y-101478942D01*
X129893647Y-101478938D01*
X129892936Y-101472084D01*
X129871881Y-101408973D01*
X129839278Y-101311252D01*
X129836960Y-101304304D01*
X129743888Y-101153901D01*
X129728089Y-101138129D01*
X129623893Y-101034115D01*
X129618713Y-101028944D01*
X129612008Y-101024811D01*
X129474378Y-100939974D01*
X129474376Y-100939973D01*
X129468148Y-100936134D01*
X129388405Y-100909685D01*
X129306799Y-100882617D01*
X129306797Y-100882617D01*
X129300271Y-100880452D01*
X129293435Y-100879752D01*
X129293432Y-100879751D01*
X129246903Y-100874984D01*
X129195810Y-100869749D01*
X128170010Y-100869749D01*
X128166764Y-100870086D01*
X128166760Y-100870086D01*
X128071103Y-100880011D01*
X128071099Y-100880012D01*
X128064245Y-100880723D01*
X128057709Y-100882904D01*
X128057707Y-100882904D01*
X127939384Y-100922380D01*
X127896465Y-100936699D01*
X127746062Y-101029771D01*
X127621105Y-101154946D01*
X127617265Y-101161176D01*
X127617264Y-101161177D01*
X127535542Y-101293755D01*
X127528295Y-101305511D01*
X127507140Y-101369291D01*
X127475181Y-101465647D01*
X127472613Y-101473388D01*
X127471913Y-101480224D01*
X127471912Y-101480227D01*
X127467501Y-101523280D01*
X127461910Y-101577849D01*
X127461910Y-102928649D01*
X127462247Y-102931895D01*
X127462247Y-102931899D01*
X127472162Y-103027452D01*
X127472884Y-103034414D01*
X127528860Y-103202194D01*
X127621932Y-103352597D01*
X127747107Y-103477554D01*
X127753337Y-103481394D01*
X127753338Y-103481395D01*
X127790322Y-103504192D01*
X127897672Y-103570364D01*
X127977415Y-103596813D01*
X128059021Y-103623881D01*
X128059023Y-103623881D01*
X128065549Y-103626046D01*
X128072385Y-103626746D01*
X128072388Y-103626747D01*
X128115441Y-103631158D01*
X128170010Y-103636749D01*
X128395500Y-103636749D01*
X128463621Y-103656751D01*
X128510114Y-103710407D01*
X128521500Y-103762749D01*
X128521500Y-105291425D01*
X128501498Y-105359546D01*
X128461804Y-105398568D01*
X128368152Y-105456522D01*
X128243195Y-105581697D01*
X128239355Y-105587927D01*
X128239354Y-105587928D01*
X128178381Y-105686845D01*
X128150385Y-105732262D01*
X128148081Y-105739209D01*
X128098394Y-105889012D01*
X128094703Y-105900139D01*
X128094003Y-105906975D01*
X128094002Y-105906978D01*
X128092325Y-105923351D01*
X128084000Y-106004600D01*
X128084000Y-106471507D01*
X128063998Y-106539628D01*
X128010342Y-106586121D01*
X127940068Y-106596225D01*
X127875488Y-106566731D01*
X127852208Y-106539947D01*
X127756177Y-106391506D01*
X127749887Y-106383337D01*
X127606557Y-106225820D01*
X127599024Y-106218795D01*
X127431890Y-106086802D01*
X127423303Y-106081097D01*
X127236868Y-105978179D01*
X127227456Y-105973949D01*
X127026710Y-105902860D01*
X127016739Y-105900226D01*
X126945588Y-105887552D01*
X126932291Y-105889012D01*
X126927751Y-105903569D01*
X126927751Y-107346580D01*
X126907749Y-107414701D01*
X126854093Y-107461194D01*
X126801751Y-107472580D01*
X126545751Y-107472580D01*
X126477630Y-107452578D01*
X126431137Y-107398922D01*
X126419751Y-107346580D01*
X126419751Y-105901682D01*
X126415833Y-105888338D01*
X126401557Y-105886351D01*
X126363075Y-105892240D01*
X126353039Y-105894631D01*
X126150619Y-105960792D01*
X126141110Y-105964789D01*
X125952214Y-106063122D01*
X125943489Y-106068616D01*
X125773184Y-106196485D01*
X125765477Y-106203328D01*
X125688229Y-106284164D01*
X125626705Y-106319594D01*
X125555793Y-106316137D01*
X125498006Y-106274891D01*
X125479153Y-106241343D01*
X125437518Y-106130283D01*
X125434366Y-106121875D01*
X125347012Y-106005319D01*
X125230456Y-105917965D01*
X125094067Y-105866835D01*
X125031885Y-105860080D01*
X123235617Y-105860080D01*
X123173435Y-105866835D01*
X123037046Y-105917965D01*
X122920490Y-106005319D01*
X122833136Y-106121875D01*
X122782006Y-106258264D01*
X122775251Y-106320446D01*
X122775251Y-108116714D01*
X122782006Y-108178896D01*
X122833136Y-108315285D01*
X122920490Y-108431841D01*
X123037046Y-108519195D01*
X123173435Y-108570325D01*
X123235617Y-108577080D01*
X124544157Y-108577080D01*
X124612278Y-108597082D01*
X124633252Y-108613985D01*
X124804605Y-108785338D01*
X124812149Y-108793628D01*
X124816262Y-108800109D01*
X124822039Y-108805534D01*
X124865929Y-108846749D01*
X124868771Y-108849504D01*
X124888492Y-108869225D01*
X124891687Y-108871703D01*
X124900709Y-108879409D01*
X124932941Y-108909677D01*
X124939890Y-108913497D01*
X124950694Y-108919437D01*
X124967218Y-108930290D01*
X124983221Y-108942704D01*
X125023805Y-108960267D01*
X125034435Y-108965474D01*
X125073202Y-108986786D01*
X125080879Y-108988757D01*
X125080884Y-108988759D01*
X125092820Y-108991823D01*
X125111528Y-108998228D01*
X125130117Y-109006272D01*
X125137942Y-109007511D01*
X125137944Y-109007512D01*
X125173781Y-109013188D01*
X125185402Y-109015595D01*
X125217221Y-109023764D01*
X125228232Y-109026591D01*
X125248493Y-109026591D01*
X125268202Y-109028142D01*
X125288205Y-109031310D01*
X125296097Y-109030564D01*
X125301324Y-109030070D01*
X125332216Y-109027150D01*
X125344073Y-109026591D01*
X130288142Y-109026591D01*
X130299325Y-109027118D01*
X130306818Y-109028793D01*
X130314744Y-109028544D01*
X130314745Y-109028544D01*
X130374895Y-109026653D01*
X130378854Y-109026591D01*
X130406765Y-109026591D01*
X130410700Y-109026094D01*
X130410765Y-109026086D01*
X130422602Y-109025153D01*
X130454860Y-109024139D01*
X130458879Y-109024013D01*
X130466798Y-109023764D01*
X130486252Y-109018112D01*
X130505609Y-109014104D01*
X130517839Y-109012559D01*
X130517840Y-109012559D01*
X130525706Y-109011565D01*
X130533077Y-109008646D01*
X130533079Y-109008646D01*
X130566821Y-108995287D01*
X130578051Y-108991442D01*
X130612892Y-108981320D01*
X130612893Y-108981320D01*
X130620502Y-108979109D01*
X130627321Y-108975076D01*
X130627326Y-108975074D01*
X130637937Y-108968798D01*
X130655685Y-108960103D01*
X130674526Y-108952643D01*
X130694088Y-108938431D01*
X130710296Y-108926655D01*
X130720216Y-108920139D01*
X130751444Y-108901671D01*
X130751447Y-108901669D01*
X130758271Y-108897633D01*
X130772592Y-108883312D01*
X130787626Y-108870471D01*
X130789341Y-108869225D01*
X130804016Y-108858563D01*
X130832207Y-108824486D01*
X130840197Y-108815707D01*
X131561639Y-108094265D01*
X131623951Y-108060239D01*
X131663577Y-108058016D01*
X131717100Y-108063500D01*
X132442900Y-108063500D01*
X132446146Y-108063163D01*
X132446150Y-108063163D01*
X132541808Y-108053238D01*
X132541812Y-108053237D01*
X132548666Y-108052526D01*
X132555202Y-108050345D01*
X132555204Y-108050345D01*
X132709498Y-107998868D01*
X132716446Y-107996550D01*
X132866848Y-107903478D01*
X132991805Y-107778303D01*
X132995646Y-107772072D01*
X133080775Y-107633968D01*
X133080776Y-107633966D01*
X133084615Y-107627738D01*
X133124778Y-107506649D01*
X133138132Y-107466389D01*
X133138132Y-107466387D01*
X133140297Y-107459861D01*
X133143180Y-107431728D01*
X133150672Y-107358598D01*
X133151000Y-107355400D01*
X133151000Y-106557094D01*
X133171002Y-106488973D01*
X133187905Y-106467999D01*
X133628241Y-106027663D01*
X133690553Y-105993637D01*
X133717336Y-105990758D01*
X138317482Y-105990758D01*
X138337192Y-105992309D01*
X138357201Y-105995478D01*
X138365093Y-105994732D01*
X138401219Y-105991317D01*
X138413077Y-105990758D01*
X139179975Y-105990758D01*
X139248096Y-106010760D01*
X139294589Y-106064416D01*
X139304693Y-106134690D01*
X139275199Y-106199270D01*
X139269074Y-106205850D01*
X139029368Y-106445555D01*
X138813161Y-106661762D01*
X138750849Y-106695787D01*
X138711225Y-106698010D01*
X138657702Y-106692526D01*
X137931902Y-106692526D01*
X137928656Y-106692863D01*
X137928652Y-106692863D01*
X137832994Y-106702788D01*
X137832990Y-106702789D01*
X137826136Y-106703500D01*
X137819600Y-106705681D01*
X137819598Y-106705681D01*
X137789394Y-106715758D01*
X137658356Y-106759476D01*
X137507954Y-106852548D01*
X137382997Y-106977723D01*
X137379157Y-106983953D01*
X137379156Y-106983954D01*
X137296542Y-107117979D01*
X137290187Y-107128288D01*
X137287883Y-107135235D01*
X137259123Y-107221945D01*
X137234505Y-107296165D01*
X137233805Y-107303001D01*
X137233804Y-107303004D01*
X137230728Y-107333025D01*
X137223802Y-107400626D01*
X137223802Y-108751426D01*
X137224139Y-108754672D01*
X137224139Y-108754676D01*
X137233832Y-108848090D01*
X137234776Y-108857192D01*
X137236957Y-108863728D01*
X137236957Y-108863730D01*
X137262325Y-108939765D01*
X137290752Y-109024972D01*
X137383824Y-109175374D01*
X137508999Y-109300331D01*
X137515229Y-109304171D01*
X137515230Y-109304172D01*
X137652392Y-109388720D01*
X137659564Y-109393141D01*
X137682101Y-109400616D01*
X137820913Y-109446658D01*
X137820915Y-109446658D01*
X137827441Y-109448823D01*
X137834277Y-109449523D01*
X137834280Y-109449524D01*
X137866139Y-109452788D01*
X137931902Y-109459526D01*
X138657702Y-109459526D01*
X138660948Y-109459189D01*
X138660952Y-109459189D01*
X138715847Y-109453493D01*
X138785669Y-109466358D01*
X138837451Y-109514929D01*
X138848683Y-109539881D01*
X138865473Y-109591556D01*
X138960960Y-109756944D01*
X138965378Y-109761851D01*
X138965379Y-109761852D01*
X139078928Y-109887961D01*
X139088747Y-109898866D01*
X139243248Y-110011118D01*
X139249276Y-110013802D01*
X139249278Y-110013803D01*
X139411681Y-110086109D01*
X139417712Y-110088794D01*
X139511113Y-110108647D01*
X139598056Y-110127128D01*
X139598061Y-110127128D01*
X139604513Y-110128500D01*
X139795487Y-110128500D01*
X139801939Y-110127128D01*
X139801944Y-110127128D01*
X139888887Y-110108647D01*
X139982288Y-110088794D01*
X139988319Y-110086109D01*
X140150722Y-110013803D01*
X140150724Y-110013802D01*
X140156752Y-110011118D01*
X140311253Y-109898866D01*
X140338172Y-109868970D01*
X140434619Y-109761854D01*
X140439040Y-109756944D01*
X140442343Y-109751224D01*
X140446224Y-109745882D01*
X140447230Y-109746613D01*
X140467153Y-109724564D01*
X140467190Y-109724542D01*
X140481511Y-109710221D01*
X140496545Y-109697380D01*
X140506522Y-109690131D01*
X140512935Y-109685472D01*
X140541126Y-109651395D01*
X140549116Y-109642616D01*
X140701441Y-109490291D01*
X140763753Y-109456265D01*
X140803379Y-109454042D01*
X140856902Y-109459526D01*
X141582702Y-109459526D01*
X141585948Y-109459189D01*
X141585952Y-109459189D01*
X141681610Y-109449264D01*
X141681614Y-109449263D01*
X141688468Y-109448552D01*
X141695004Y-109446371D01*
X141695006Y-109446371D01*
X141832149Y-109400616D01*
X141856248Y-109392576D01*
X142006650Y-109299504D01*
X142131607Y-109174329D01*
X142137880Y-109164153D01*
X142220577Y-109029994D01*
X142220578Y-109029992D01*
X142224417Y-109023764D01*
X142273926Y-108874498D01*
X142277934Y-108862415D01*
X142277934Y-108862413D01*
X142280099Y-108855887D01*
X142281036Y-108846749D01*
X142290474Y-108754624D01*
X142290802Y-108751426D01*
X142290802Y-108165224D01*
X144758862Y-108165224D01*
X144789170Y-108299704D01*
X144792250Y-108309533D01*
X144872375Y-108506861D01*
X144877018Y-108516052D01*
X144988299Y-108697646D01*
X144994382Y-108705957D01*
X145133818Y-108866925D01*
X145141185Y-108874141D01*
X145305039Y-109010174D01*
X145313486Y-109016089D01*
X145497361Y-109123537D01*
X145506647Y-109127987D01*
X145705606Y-109203961D01*
X145715504Y-109206837D01*
X145818855Y-109227864D01*
X145832904Y-109226668D01*
X145836605Y-109216323D01*
X145836605Y-108169373D01*
X145832130Y-108154134D01*
X145830740Y-108152929D01*
X145823057Y-108151258D01*
X144773830Y-108151258D01*
X144760299Y-108155231D01*
X144758862Y-108165224D01*
X142290802Y-108165224D01*
X142290802Y-107400626D01*
X142290465Y-107397376D01*
X142280540Y-107301718D01*
X142280539Y-107301714D01*
X142279828Y-107294860D01*
X142275478Y-107281820D01*
X142226170Y-107134028D01*
X142223852Y-107127080D01*
X142130780Y-106976678D01*
X142005605Y-106851721D01*
X141999374Y-106847880D01*
X141861270Y-106762751D01*
X141861268Y-106762750D01*
X141855040Y-106758911D01*
X141722115Y-106714822D01*
X141693691Y-106705394D01*
X141693689Y-106705394D01*
X141687163Y-106703229D01*
X141680327Y-106702529D01*
X141680324Y-106702528D01*
X141636226Y-106698010D01*
X141582702Y-106692526D01*
X140878397Y-106692526D01*
X140810276Y-106672524D01*
X140763783Y-106618868D01*
X140753679Y-106548594D01*
X140783173Y-106484014D01*
X140789302Y-106477431D01*
X141239070Y-106027663D01*
X141301382Y-105993637D01*
X141328165Y-105990758D01*
X144606105Y-105990758D01*
X144674226Y-106010760D01*
X144720719Y-106064416D01*
X144732105Y-106116758D01*
X144732105Y-106255392D01*
X144738860Y-106317574D01*
X144789990Y-106453963D01*
X144877344Y-106570519D01*
X144993900Y-106657873D01*
X145002309Y-106661025D01*
X145002310Y-106661026D01*
X145111565Y-106701984D01*
X145168330Y-106744625D01*
X145193030Y-106811187D01*
X145177823Y-106880536D01*
X145158430Y-106907017D01*
X145035195Y-107035975D01*
X145028709Y-107043985D01*
X144908703Y-107219907D01*
X144903605Y-107228881D01*
X144813943Y-107422041D01*
X144810380Y-107431728D01*
X144754994Y-107631441D01*
X144756517Y-107639865D01*
X144768897Y-107643258D01*
X146218605Y-107643258D01*
X146286726Y-107663260D01*
X146333219Y-107716916D01*
X146344605Y-107769258D01*
X146344605Y-109215775D01*
X146348669Y-109229617D01*
X146362083Y-109231651D01*
X146368789Y-109230792D01*
X146378867Y-109228650D01*
X146582860Y-109167449D01*
X146592447Y-109163691D01*
X146783700Y-109069997D01*
X146792550Y-109064722D01*
X146965933Y-108941050D01*
X146973805Y-108934397D01*
X147124657Y-108784070D01*
X147131335Y-108776223D01*
X147258627Y-108599077D01*
X147259884Y-108599980D01*
X147306978Y-108556620D01*
X147376916Y-108544403D01*
X147442356Y-108571936D01*
X147470184Y-108603769D01*
X147476444Y-108613985D01*
X147530592Y-108702346D01*
X147676855Y-108871196D01*
X147783937Y-108960097D01*
X147842415Y-109008646D01*
X147848731Y-109013890D01*
X148041605Y-109126596D01*
X148250297Y-109206288D01*
X148255365Y-109207319D01*
X148255368Y-109207320D01*
X148334370Y-109223393D01*
X148469202Y-109250825D01*
X148474377Y-109251015D01*
X148474379Y-109251015D01*
X148687278Y-109258822D01*
X148687282Y-109258822D01*
X148692442Y-109259011D01*
X148697562Y-109258355D01*
X148697564Y-109258355D01*
X148908893Y-109231283D01*
X148908894Y-109231283D01*
X148914021Y-109230626D01*
X148918971Y-109229141D01*
X149123034Y-109167919D01*
X149123039Y-109167917D01*
X149127989Y-109166432D01*
X149328599Y-109068154D01*
X149510465Y-108938431D01*
X149518635Y-108930290D01*
X149629393Y-108819918D01*
X149668701Y-108780747D01*
X149799058Y-108599335D01*
X149800381Y-108600286D01*
X149847250Y-108557115D01*
X149917185Y-108544883D01*
X149982631Y-108572402D01*
X150010480Y-108604252D01*
X150016444Y-108613985D01*
X150070592Y-108702346D01*
X150216855Y-108871196D01*
X150323937Y-108960097D01*
X150382415Y-109008646D01*
X150388731Y-109013890D01*
X150581605Y-109126596D01*
X150790297Y-109206288D01*
X150795365Y-109207319D01*
X150795368Y-109207320D01*
X150874370Y-109223393D01*
X151009202Y-109250825D01*
X151014377Y-109251015D01*
X151014379Y-109251015D01*
X151227278Y-109258822D01*
X151227282Y-109258822D01*
X151232442Y-109259011D01*
X151237562Y-109258355D01*
X151237564Y-109258355D01*
X151448893Y-109231283D01*
X151448894Y-109231283D01*
X151454021Y-109230626D01*
X151458974Y-109229140D01*
X151458979Y-109229139D01*
X151502626Y-109216044D01*
X151573622Y-109215626D01*
X151625086Y-109244878D01*
X151645284Y-109263844D01*
X151652232Y-109267663D01*
X151652234Y-109267665D01*
X151663037Y-109273604D01*
X151679564Y-109284460D01*
X151689303Y-109292015D01*
X151689305Y-109292016D01*
X151695565Y-109296872D01*
X151736145Y-109314432D01*
X151746793Y-109319649D01*
X151785545Y-109340953D01*
X151793221Y-109342924D01*
X151793224Y-109342925D01*
X151805167Y-109345991D01*
X151823872Y-109352395D01*
X151842460Y-109360439D01*
X151850283Y-109361678D01*
X151850293Y-109361681D01*
X151886129Y-109367357D01*
X151897749Y-109369763D01*
X151932458Y-109378674D01*
X151940575Y-109380758D01*
X151960829Y-109380758D01*
X151980539Y-109382309D01*
X152000548Y-109385478D01*
X152008440Y-109384732D01*
X152044566Y-109381317D01*
X152056424Y-109380758D01*
X172526306Y-109380758D01*
X172537489Y-109381285D01*
X172544982Y-109382960D01*
X172552909Y-109382711D01*
X172560801Y-109383457D01*
X172560639Y-109385169D01*
X172620081Y-109400616D01*
X172668233Y-109452788D01*
X172681317Y-109508698D01*
X172681317Y-111119551D01*
X172661315Y-111187672D01*
X172607659Y-111234165D01*
X172555303Y-111245551D01*
X123008809Y-111240212D01*
X121291927Y-111240027D01*
X121223809Y-111220018D01*
X121177322Y-111166357D01*
X121166066Y-111119636D01*
X121166063Y-111119551D01*
X121152521Y-110815634D01*
X121152540Y-110804007D01*
X121153105Y-110792200D01*
X121199447Y-109823623D01*
X121200589Y-109811693D01*
X121210065Y-109745882D01*
X121313618Y-109026653D01*
X121339467Y-108847116D01*
X121341683Y-108835573D01*
X121372826Y-108706248D01*
X121570313Y-107886173D01*
X121573476Y-107875238D01*
X121577301Y-107863953D01*
X121858006Y-107035659D01*
X121889807Y-106941823D01*
X121893760Y-106931636D01*
X122295873Y-106015253D01*
X122300441Y-106005910D01*
X122786431Y-105107935D01*
X122791447Y-105099473D01*
X123359348Y-104221514D01*
X123364663Y-104213925D01*
X123854826Y-103566067D01*
X124012373Y-103357834D01*
X124017857Y-103351083D01*
X124048227Y-103316234D01*
X124481424Y-102819134D01*
X124743174Y-102518773D01*
X124748742Y-102512787D01*
X125549319Y-101706277D01*
X125554893Y-101700995D01*
X125675535Y-101593435D01*
X126428214Y-100922372D01*
X126433724Y-100917736D01*
X127377324Y-100168959D01*
X127382767Y-100164875D01*
X127396594Y-100155073D01*
X128393883Y-99448062D01*
X128399218Y-99444481D01*
X129475234Y-98761561D01*
X129480474Y-98758411D01*
X129586832Y-98697946D01*
X130618588Y-98111384D01*
X130623719Y-98108622D01*
X130719070Y-98060111D01*
X131442139Y-97692238D01*
X131821143Y-97499414D01*
X131826175Y-97496993D01*
X133080127Y-96927486D01*
X133085059Y-96925371D01*
X134263093Y-96449761D01*
X134338984Y-96419121D01*
X134347756Y-96416112D01*
X134355114Y-96415112D01*
X134412289Y-96389612D01*
X134416386Y-96387872D01*
X134438711Y-96378858D01*
X134442587Y-96376608D01*
X134446619Y-96374636D01*
X134446638Y-96374675D01*
X134452505Y-96371675D01*
X134479939Y-96359439D01*
X134479941Y-96359438D01*
X134488140Y-96355781D01*
X134500481Y-96345302D01*
X134518771Y-96332383D01*
X134524181Y-96329242D01*
X134532782Y-96324249D01*
X134559682Y-96295966D01*
X134569424Y-96286758D01*
X134592324Y-96267312D01*
X134592325Y-96267311D01*
X134599168Y-96261500D01*
X134608074Y-96247976D01*
X134622005Y-96230438D01*
X134626979Y-96225208D01*
X134633164Y-96218705D01*
X134651045Y-96184010D01*
X134657810Y-96172441D01*
X134674331Y-96147350D01*
X134674333Y-96147345D01*
X134679271Y-96139846D01*
X134684021Y-96124371D01*
X134692471Y-96103627D01*
X134695779Y-96097208D01*
X134695779Y-96097207D01*
X134699890Y-96089231D01*
X134701596Y-96080425D01*
X134701599Y-96080417D01*
X134707318Y-96050899D01*
X134710563Y-96037898D01*
X134719377Y-96009181D01*
X134719378Y-96009176D01*
X134722010Y-96000600D01*
X134722225Y-95984416D01*
X134724514Y-95962134D01*
X134727595Y-95946232D01*
X134725599Y-95924857D01*
X134723966Y-95907372D01*
X134723431Y-95893987D01*
X134723437Y-95893569D01*
X134723436Y-95893555D01*
X134723501Y-95888691D01*
X134720191Y-95865393D01*
X134719486Y-95859400D01*
X134716591Y-95828409D01*
X134714050Y-95801205D01*
X134710742Y-95792866D01*
X134710025Y-95789874D01*
X134707804Y-95778217D01*
X134687105Y-95632541D01*
X134639865Y-95300079D01*
X134650085Y-95229823D01*
X134696667Y-95176245D01*
X134757930Y-95156532D01*
X135059695Y-95140507D01*
X135082387Y-95139302D01*
X135092595Y-95139174D01*
X135097164Y-95139302D01*
X135131210Y-95140256D01*
X135131212Y-95140256D01*
X135140178Y-95140507D01*
X135191834Y-95126960D01*
X135199334Y-95125236D01*
X135212496Y-95122632D01*
X135251749Y-95114867D01*
X135259712Y-95110723D01*
X135266101Y-95108481D01*
X135272385Y-95105834D01*
X135281070Y-95103556D01*
X135288765Y-95098933D01*
X135288768Y-95098932D01*
X135326849Y-95076055D01*
X135333564Y-95072296D01*
X135380960Y-95047633D01*
X135387435Y-95041426D01*
X135392960Y-95037465D01*
X135398239Y-95033168D01*
X135405930Y-95028547D01*
X135412018Y-95021950D01*
X135412021Y-95021948D01*
X135442152Y-94989300D01*
X135447552Y-94983796D01*
X135461887Y-94970055D01*
X135474287Y-94958168D01*
X135479628Y-94953048D01*
X135479629Y-94953047D01*
X135486108Y-94946836D01*
X135490584Y-94939056D01*
X135494768Y-94933712D01*
X135498628Y-94928106D01*
X135504717Y-94921509D01*
X135528464Y-94873682D01*
X135532101Y-94866888D01*
X135554262Y-94828364D01*
X135554263Y-94828361D01*
X135558740Y-94820579D01*
X135560852Y-94811856D01*
X135563363Y-94805566D01*
X135565499Y-94799089D01*
X135569492Y-94791047D01*
X135576786Y-94750120D01*
X135578863Y-94738468D01*
X135580446Y-94730930D01*
X135590903Y-94687736D01*
X135590903Y-94687734D01*
X135593015Y-94679011D01*
X135591713Y-94651292D01*
X135590596Y-94627505D01*
X135590487Y-94618835D01*
X135599102Y-94225450D01*
X135606195Y-93901542D01*
X135606197Y-93901508D01*
X135606207Y-93901453D01*
X135607027Y-93863541D01*
X135607073Y-93861443D01*
X135628559Y-93793776D01*
X135683217Y-93748466D01*
X135733043Y-93738196D01*
X138366774Y-93738196D01*
X138434895Y-93758198D01*
G37*
%TD.AperFunction*%
%TA.AperFunction,Conductor*%
G36*
X152116233Y-93876129D02*
G01*
X152309276Y-93886121D01*
X152313599Y-93886420D01*
X153285638Y-93970324D01*
X153645171Y-94001358D01*
X153730970Y-94008764D01*
X153735276Y-94009210D01*
X155129632Y-94177997D01*
X155133923Y-94178592D01*
X155863659Y-94292504D01*
X156503362Y-94392362D01*
X156507607Y-94393100D01*
X157850317Y-94650397D01*
X157854583Y-94651291D01*
X158291811Y-94750889D01*
X159168823Y-94950668D01*
X159173092Y-94951719D01*
X160456919Y-95291681D01*
X160461188Y-95292892D01*
X160681348Y-95359571D01*
X161712895Y-95671992D01*
X161717132Y-95673359D01*
X162381381Y-95900686D01*
X162934812Y-96090088D01*
X162939099Y-96091642D01*
X164120965Y-96544516D01*
X164125268Y-96546257D01*
X165269445Y-97033749D01*
X165273771Y-97035689D01*
X166378497Y-97556309D01*
X166382849Y-97558463D01*
X167121317Y-97941923D01*
X167172555Y-97991067D01*
X167189090Y-98060111D01*
X167165672Y-98127135D01*
X167109736Y-98170858D01*
X167063251Y-98179746D01*
X166955070Y-98179746D01*
X166939831Y-98184221D01*
X166938626Y-98185611D01*
X166936955Y-98193294D01*
X166936955Y-99290631D01*
X166941430Y-99305870D01*
X166942820Y-99307075D01*
X166950503Y-99308746D01*
X167885340Y-99308746D01*
X167900579Y-99304271D01*
X167901784Y-99302881D01*
X167903455Y-99295198D01*
X167903455Y-98890650D01*
X167903118Y-98884135D01*
X167893199Y-98788543D01*
X167890305Y-98775144D01*
X167838867Y-98620963D01*
X167832694Y-98607786D01*
X167828662Y-98601270D01*
X167809825Y-98532817D01*
X167830987Y-98465048D01*
X167885429Y-98419478D01*
X167955865Y-98410575D01*
X167998254Y-98425531D01*
X168471005Y-98695304D01*
X168475415Y-98697942D01*
X168777920Y-98887346D01*
X169450838Y-99308673D01*
X169455289Y-99311593D01*
X170383965Y-99949199D01*
X170388451Y-99952426D01*
X171137684Y-100516714D01*
X171268642Y-100615346D01*
X171273151Y-100618905D01*
X171667808Y-100945409D01*
X172103110Y-101305539D01*
X172107645Y-101309477D01*
X172885570Y-102018144D01*
X172890110Y-102022492D01*
X173064796Y-102198351D01*
X173604821Y-102742002D01*
X173614305Y-102751550D01*
X173618823Y-102756343D01*
X173866354Y-103033110D01*
X174287672Y-103504192D01*
X174292150Y-103509486D01*
X174903982Y-104274415D01*
X174908374Y-104280244D01*
X175461645Y-105060625D01*
X175465895Y-105067026D01*
X175890190Y-105750258D01*
X175959090Y-105861207D01*
X175963133Y-105868209D01*
X176387556Y-106661025D01*
X176394857Y-106674664D01*
X176398613Y-106682287D01*
X176721392Y-107397376D01*
X176767487Y-107499495D01*
X176770866Y-107507749D01*
X176801377Y-107590510D01*
X176975631Y-108063172D01*
X176983395Y-108084233D01*
X176988191Y-108155067D01*
X176953930Y-108217250D01*
X176891489Y-108251038D01*
X176865173Y-108253817D01*
X175308502Y-108253817D01*
X175240381Y-108233815D01*
X175193888Y-108180159D01*
X175183784Y-108109885D01*
X175206179Y-108054291D01*
X175299186Y-107924857D01*
X175302204Y-107920657D01*
X175306363Y-107912243D01*
X175398887Y-107725033D01*
X175398888Y-107725031D01*
X175401181Y-107720391D01*
X175466121Y-107506649D01*
X175495280Y-107285170D01*
X175496327Y-107242327D01*
X175496825Y-107221945D01*
X175496825Y-107221941D01*
X175496907Y-107218580D01*
X175478603Y-106995941D01*
X175424182Y-106779282D01*
X175335105Y-106574420D01*
X175257178Y-106453963D01*
X175216573Y-106391197D01*
X175216571Y-106391194D01*
X175213765Y-106386857D01*
X175063421Y-106221631D01*
X175059370Y-106218432D01*
X175059366Y-106218428D01*
X174892165Y-106086380D01*
X174892161Y-106086378D01*
X174888110Y-106083178D01*
X174851779Y-106063122D01*
X174787544Y-106027663D01*
X174692540Y-105975218D01*
X174687671Y-105973494D01*
X174687667Y-105973492D01*
X174486838Y-105902375D01*
X174486834Y-105902374D01*
X174481963Y-105900649D01*
X174476870Y-105899742D01*
X174476867Y-105899741D01*
X174267124Y-105862380D01*
X174267118Y-105862379D01*
X174262035Y-105861474D01*
X174188203Y-105860572D01*
X174043832Y-105858808D01*
X174043830Y-105858808D01*
X174038662Y-105858745D01*
X173817842Y-105892535D01*
X173605507Y-105961937D01*
X173407358Y-106065087D01*
X173403225Y-106068190D01*
X173403222Y-106068192D01*
X173232851Y-106196110D01*
X173228716Y-106199215D01*
X173225144Y-106202953D01*
X173106325Y-106327290D01*
X173074380Y-106360718D01*
X172966952Y-106518201D01*
X172912044Y-106563201D01*
X172841519Y-106571372D01*
X172777772Y-106540118D01*
X172757075Y-106515634D01*
X172676573Y-106391197D01*
X172676571Y-106391194D01*
X172673765Y-106386857D01*
X172523421Y-106221631D01*
X172519370Y-106218432D01*
X172519366Y-106218428D01*
X172352165Y-106086380D01*
X172352161Y-106086378D01*
X172348110Y-106083178D01*
X172311779Y-106063122D01*
X172247544Y-106027663D01*
X172152540Y-105975218D01*
X172147671Y-105973494D01*
X172147667Y-105973492D01*
X171946838Y-105902375D01*
X171946834Y-105902374D01*
X171941963Y-105900649D01*
X171936870Y-105899742D01*
X171936867Y-105899741D01*
X171727124Y-105862380D01*
X171727118Y-105862379D01*
X171722035Y-105861474D01*
X171648203Y-105860572D01*
X171503832Y-105858808D01*
X171503830Y-105858808D01*
X171498662Y-105858745D01*
X171277842Y-105892535D01*
X171065507Y-105961937D01*
X170867358Y-106065087D01*
X170863225Y-106068190D01*
X170863222Y-106068192D01*
X170692851Y-106196110D01*
X170688716Y-106199215D01*
X170685144Y-106202953D01*
X170566325Y-106327290D01*
X170534380Y-106360718D01*
X170531471Y-106364983D01*
X170531465Y-106364991D01*
X170418846Y-106530084D01*
X170363935Y-106575087D01*
X170314758Y-106585080D01*
X153346522Y-106585080D01*
X153278401Y-106565078D01*
X153257426Y-106548175D01*
X152521822Y-105812570D01*
X152487797Y-105750258D01*
X152490360Y-105686848D01*
X152502975Y-105645327D01*
X152532134Y-105423848D01*
X152533312Y-105375650D01*
X152533679Y-105360623D01*
X152533679Y-105360619D01*
X152533761Y-105357258D01*
X152515457Y-105134619D01*
X152461036Y-104917960D01*
X152371959Y-104713098D01*
X152297342Y-104597758D01*
X152253427Y-104529875D01*
X152253425Y-104529872D01*
X152250619Y-104525535D01*
X152100275Y-104360309D01*
X152096224Y-104357110D01*
X152096220Y-104357106D01*
X151929019Y-104225058D01*
X151929015Y-104225056D01*
X151924964Y-104221856D01*
X151729394Y-104113896D01*
X151724525Y-104112172D01*
X151724521Y-104112170D01*
X151523692Y-104041053D01*
X151523688Y-104041052D01*
X151518817Y-104039327D01*
X151513724Y-104038420D01*
X151513721Y-104038419D01*
X151303978Y-104001058D01*
X151303972Y-104001057D01*
X151298889Y-104000152D01*
X151225057Y-103999250D01*
X151080686Y-103997486D01*
X151080684Y-103997486D01*
X151075516Y-103997423D01*
X150854696Y-104031213D01*
X150824591Y-104041053D01*
X150794739Y-104050810D01*
X150723775Y-104052961D01*
X150662913Y-104016405D01*
X150631477Y-103952748D01*
X150629594Y-103931045D01*
X150629594Y-101600000D01*
X159106496Y-101600000D01*
X159126458Y-101789928D01*
X159185473Y-101971556D01*
X159188776Y-101977278D01*
X159188777Y-101977279D01*
X159212371Y-102018144D01*
X159280960Y-102136944D01*
X159285378Y-102141851D01*
X159285379Y-102141852D01*
X159404325Y-102273955D01*
X159408747Y-102278866D01*
X159563248Y-102391118D01*
X159569276Y-102393802D01*
X159569278Y-102393803D01*
X159731681Y-102466109D01*
X159737712Y-102468794D01*
X159831113Y-102488647D01*
X159918056Y-102507128D01*
X159918061Y-102507128D01*
X159924513Y-102508500D01*
X160115487Y-102508500D01*
X160121939Y-102507128D01*
X160121944Y-102507128D01*
X160208888Y-102488647D01*
X160302288Y-102468794D01*
X160308319Y-102466109D01*
X160470722Y-102393803D01*
X160470724Y-102393802D01*
X160476752Y-102391118D01*
X160631253Y-102278866D01*
X160635668Y-102273963D01*
X160640580Y-102269540D01*
X160641705Y-102270789D01*
X160695014Y-102237949D01*
X160728200Y-102233500D01*
X161591934Y-102233500D01*
X161603117Y-102234027D01*
X161610610Y-102235702D01*
X161618536Y-102235453D01*
X161618537Y-102235453D01*
X161678687Y-102233562D01*
X161682646Y-102233500D01*
X161710557Y-102233500D01*
X161714492Y-102233003D01*
X161714557Y-102232995D01*
X161726394Y-102232062D01*
X161758652Y-102231048D01*
X161762671Y-102230922D01*
X161770590Y-102230673D01*
X161790044Y-102225021D01*
X161809401Y-102221013D01*
X161821631Y-102219468D01*
X161821632Y-102219468D01*
X161829498Y-102218474D01*
X161836869Y-102215555D01*
X161836871Y-102215555D01*
X161870613Y-102202196D01*
X161881843Y-102198351D01*
X161916684Y-102188229D01*
X161916685Y-102188229D01*
X161924294Y-102186018D01*
X161931113Y-102181985D01*
X161931118Y-102181983D01*
X161941729Y-102175707D01*
X161959477Y-102167012D01*
X161978318Y-102159552D01*
X162014088Y-102133564D01*
X162024008Y-102127048D01*
X162055236Y-102108580D01*
X162055239Y-102108578D01*
X162062063Y-102104542D01*
X162076384Y-102090221D01*
X162091418Y-102077380D01*
X162101395Y-102070131D01*
X162107808Y-102065472D01*
X162135999Y-102031395D01*
X162143989Y-102022616D01*
X163183454Y-100983151D01*
X163245766Y-100949125D01*
X163272549Y-100946246D01*
X164220855Y-100946246D01*
X164224101Y-100945909D01*
X164224105Y-100945909D01*
X164319762Y-100935984D01*
X164319766Y-100935983D01*
X164326620Y-100935272D01*
X164333156Y-100933091D01*
X164333158Y-100933091D01*
X164482968Y-100883110D01*
X164494400Y-100879296D01*
X164644803Y-100786224D01*
X164769760Y-100661049D01*
X164773794Y-100654505D01*
X164858730Y-100516714D01*
X164858731Y-100516712D01*
X164862570Y-100510484D01*
X164908551Y-100371854D01*
X164916087Y-100349135D01*
X164916087Y-100349133D01*
X164918252Y-100342607D01*
X164918964Y-100335665D01*
X164928627Y-100241344D01*
X164928955Y-100238146D01*
X164928955Y-100234842D01*
X165462455Y-100234842D01*
X165462792Y-100241357D01*
X165472711Y-100336949D01*
X165475605Y-100350348D01*
X165527043Y-100504529D01*
X165533217Y-100517708D01*
X165618518Y-100655553D01*
X165627554Y-100666954D01*
X165742285Y-100781485D01*
X165753696Y-100790497D01*
X165891700Y-100875564D01*
X165904878Y-100881708D01*
X166059171Y-100932885D01*
X166072536Y-100935751D01*
X166166894Y-100945418D01*
X166173310Y-100945746D01*
X166410840Y-100945746D01*
X166426079Y-100941271D01*
X166427284Y-100939881D01*
X166428955Y-100932198D01*
X166428955Y-100927631D01*
X166936955Y-100927631D01*
X166941430Y-100942870D01*
X166942820Y-100944075D01*
X166950503Y-100945746D01*
X167192551Y-100945746D01*
X167199066Y-100945409D01*
X167294658Y-100935490D01*
X167308057Y-100932596D01*
X167462238Y-100881158D01*
X167475417Y-100874984D01*
X167613262Y-100789683D01*
X167624663Y-100780647D01*
X167739194Y-100665916D01*
X167748206Y-100654505D01*
X167833273Y-100516501D01*
X167839417Y-100503323D01*
X167890594Y-100349030D01*
X167893460Y-100335665D01*
X167903127Y-100241307D01*
X167903455Y-100234891D01*
X167903455Y-99834861D01*
X167898980Y-99819622D01*
X167897590Y-99818417D01*
X167889907Y-99816746D01*
X166955070Y-99816746D01*
X166939831Y-99821221D01*
X166938626Y-99822611D01*
X166936955Y-99830294D01*
X166936955Y-100927631D01*
X166428955Y-100927631D01*
X166428955Y-99834861D01*
X166424480Y-99819622D01*
X166423090Y-99818417D01*
X166415407Y-99816746D01*
X165480570Y-99816746D01*
X165465331Y-99821221D01*
X165464126Y-99822611D01*
X165462455Y-99830294D01*
X165462455Y-100234842D01*
X164928955Y-100234842D01*
X164928955Y-99290631D01*
X165462455Y-99290631D01*
X165466930Y-99305870D01*
X165468320Y-99307075D01*
X165476003Y-99308746D01*
X166410840Y-99308746D01*
X166426079Y-99304271D01*
X166427284Y-99302881D01*
X166428955Y-99295198D01*
X166428955Y-98197861D01*
X166424480Y-98182622D01*
X166423090Y-98181417D01*
X166415407Y-98179746D01*
X166173359Y-98179746D01*
X166166844Y-98180083D01*
X166071252Y-98190002D01*
X166057853Y-98192896D01*
X165903672Y-98244334D01*
X165890493Y-98250508D01*
X165752648Y-98335809D01*
X165741247Y-98344845D01*
X165626716Y-98459576D01*
X165617704Y-98470987D01*
X165532637Y-98608991D01*
X165526493Y-98622169D01*
X165475316Y-98776462D01*
X165472450Y-98789827D01*
X165462783Y-98884185D01*
X165462455Y-98890602D01*
X165462455Y-99290631D01*
X164928955Y-99290631D01*
X164928955Y-98887346D01*
X164918826Y-98789724D01*
X164918693Y-98788439D01*
X164918692Y-98788435D01*
X164917981Y-98781581D01*
X164862005Y-98613801D01*
X164768933Y-98463398D01*
X164643758Y-98338441D01*
X164501105Y-98250508D01*
X164499423Y-98249471D01*
X164499421Y-98249470D01*
X164493193Y-98245631D01*
X164413450Y-98219182D01*
X164331844Y-98192114D01*
X164331842Y-98192114D01*
X164325316Y-98189949D01*
X164318480Y-98189249D01*
X164318477Y-98189248D01*
X164275424Y-98184837D01*
X164220855Y-98179246D01*
X163195055Y-98179246D01*
X163191809Y-98179583D01*
X163191805Y-98179583D01*
X163096148Y-98189508D01*
X163096144Y-98189509D01*
X163089290Y-98190220D01*
X163082754Y-98192401D01*
X163082752Y-98192401D01*
X163066387Y-98197861D01*
X162921510Y-98246196D01*
X162771107Y-98339268D01*
X162646150Y-98464443D01*
X162642310Y-98470673D01*
X162642309Y-98470674D01*
X162557792Y-98607786D01*
X162553340Y-98615008D01*
X162526891Y-98694751D01*
X162500226Y-98775144D01*
X162497658Y-98782885D01*
X162496958Y-98789721D01*
X162496957Y-98789724D01*
X162492546Y-98832777D01*
X162486955Y-98887346D01*
X162486955Y-99835651D01*
X162466953Y-99903772D01*
X162450050Y-99924746D01*
X161445201Y-100929595D01*
X161382889Y-100963621D01*
X161356106Y-100966500D01*
X160728200Y-100966500D01*
X160660079Y-100946498D01*
X160640853Y-100930157D01*
X160640580Y-100930460D01*
X160635668Y-100926037D01*
X160631253Y-100921134D01*
X160579863Y-100883797D01*
X160482094Y-100812763D01*
X160482093Y-100812762D01*
X160476752Y-100808882D01*
X160470724Y-100806198D01*
X160470722Y-100806197D01*
X160308319Y-100733891D01*
X160308318Y-100733891D01*
X160302288Y-100731206D01*
X160208888Y-100711353D01*
X160121944Y-100692872D01*
X160121939Y-100692872D01*
X160115487Y-100691500D01*
X159924513Y-100691500D01*
X159918061Y-100692872D01*
X159918056Y-100692872D01*
X159831112Y-100711353D01*
X159737712Y-100731206D01*
X159731682Y-100733891D01*
X159731681Y-100733891D01*
X159569278Y-100806197D01*
X159569276Y-100806198D01*
X159563248Y-100808882D01*
X159408747Y-100921134D01*
X159404326Y-100926044D01*
X159404325Y-100926045D01*
X159301341Y-101040421D01*
X159280960Y-101063056D01*
X159185473Y-101228444D01*
X159126458Y-101410072D01*
X159125768Y-101416633D01*
X159125768Y-101416635D01*
X159119084Y-101480227D01*
X159106496Y-101600000D01*
X150629594Y-101600000D01*
X150629594Y-96662968D01*
X150649596Y-96594847D01*
X150703252Y-96548354D01*
X150719386Y-96542282D01*
X150896180Y-96489241D01*
X150896185Y-96489239D01*
X150901135Y-96487754D01*
X151101745Y-96389476D01*
X151283611Y-96259753D01*
X151441847Y-96102069D01*
X151449361Y-96091613D01*
X151569186Y-95924857D01*
X151572204Y-95920657D01*
X151577907Y-95909119D01*
X151668887Y-95725033D01*
X151668888Y-95725031D01*
X151671181Y-95720391D01*
X151736121Y-95506649D01*
X151765280Y-95285170D01*
X151765692Y-95268298D01*
X151766825Y-95221945D01*
X151766825Y-95221941D01*
X151766907Y-95218580D01*
X151748603Y-94995941D01*
X151694182Y-94779282D01*
X151605105Y-94574420D01*
X151554373Y-94496000D01*
X151486573Y-94391197D01*
X151486571Y-94391194D01*
X151483765Y-94386857D01*
X151333421Y-94221631D01*
X151329370Y-94218432D01*
X151329366Y-94218428D01*
X151162165Y-94086380D01*
X151162161Y-94086378D01*
X151158110Y-94083178D01*
X151153586Y-94080680D01*
X151153582Y-94080678D01*
X151124106Y-94064406D01*
X151074135Y-94013973D01*
X151059364Y-93944530D01*
X151084481Y-93878125D01*
X151141512Y-93835841D01*
X151191511Y-93828266D01*
X152116233Y-93876129D01*
G37*
%TD.AperFunction*%
%TD*%
M02*
