%TF.GenerationSoftware,KiCad,Pcbnew,(6.0.4-0)*%
%TF.CreationDate,2022-04-25T17:07:08-04:00*%
%TF.ProjectId,earth_base,65617274-685f-4626-9173-652e6b696361,rev?*%
%TF.SameCoordinates,Original*%
%TF.FileFunction,Legend,Bot*%
%TF.FilePolarity,Positive*%
%FSLAX46Y46*%
G04 Gerber Fmt 4.6, Leading zero omitted, Abs format (unit mm)*
G04 Created by KiCad (PCBNEW (6.0.4-0)) date 2022-04-25 17:07:08*
%MOMM*%
%LPD*%
G01*
G04 APERTURE LIST*
%ADD10C,0.150000*%
%ADD11C,0.120000*%
G04 APERTURE END LIST*
D10*
X153336190Y-101385714D02*
X153336190Y-102242857D01*
X153383809Y-102338095D01*
X153479047Y-102385714D01*
X153526666Y-102385714D01*
X153336190Y-101052380D02*
X153383809Y-101100000D01*
X153336190Y-101147619D01*
X153288571Y-101100000D01*
X153336190Y-101052380D01*
X153336190Y-101147619D01*
X152717142Y-102052380D02*
X152812380Y-102004761D01*
X152860000Y-101909523D01*
X152860000Y-101052380D01*
X151907619Y-102004761D02*
X152002857Y-102052380D01*
X152193333Y-102052380D01*
X152288571Y-102004761D01*
X152336190Y-101957142D01*
X152383809Y-101861904D01*
X152383809Y-101576190D01*
X152336190Y-101480952D01*
X152288571Y-101433333D01*
X152193333Y-101385714D01*
X152002857Y-101385714D01*
X151907619Y-101433333D01*
X151479047Y-101385714D02*
X151479047Y-102242857D01*
X151526666Y-102338095D01*
X151621904Y-102385714D01*
X151669523Y-102385714D01*
X151479047Y-101052380D02*
X151526666Y-101100000D01*
X151479047Y-101147619D01*
X151431428Y-101100000D01*
X151479047Y-101052380D01*
X151479047Y-101147619D01*
X150860000Y-102052380D02*
X150955238Y-102004761D01*
X151002857Y-101909523D01*
X151002857Y-101052380D01*
X150050476Y-102004761D02*
X150145714Y-102052380D01*
X150336190Y-102052380D01*
X150431428Y-102004761D01*
X150479047Y-101957142D01*
X150526666Y-101861904D01*
X150526666Y-101576190D01*
X150479047Y-101480952D01*
X150431428Y-101433333D01*
X150336190Y-101385714D01*
X150145714Y-101385714D01*
X150050476Y-101433333D01*
X149621904Y-101385714D02*
X149621904Y-102242857D01*
X149669523Y-102338095D01*
X149764761Y-102385714D01*
X149812380Y-102385714D01*
X149621904Y-101052380D02*
X149669523Y-101100000D01*
X149621904Y-101147619D01*
X149574285Y-101100000D01*
X149621904Y-101052380D01*
X149621904Y-101147619D01*
X149002857Y-102052380D02*
X149098095Y-102004761D01*
X149145714Y-101909523D01*
X149145714Y-101052380D01*
X148193333Y-102004761D02*
X148288571Y-102052380D01*
X148479047Y-102052380D01*
X148574285Y-102004761D01*
X148621904Y-101957142D01*
X148669523Y-101861904D01*
X148669523Y-101576190D01*
X148621904Y-101480952D01*
X148574285Y-101433333D01*
X148479047Y-101385714D01*
X148288571Y-101385714D01*
X148193333Y-101433333D01*
X147764761Y-101385714D02*
X147764761Y-102242857D01*
X147812380Y-102338095D01*
X147907619Y-102385714D01*
X147955238Y-102385714D01*
X147764761Y-101052380D02*
X147812380Y-101100000D01*
X147764761Y-101147619D01*
X147717142Y-101100000D01*
X147764761Y-101052380D01*
X147764761Y-101147619D01*
X147145714Y-102052380D02*
X147240952Y-102004761D01*
X147288571Y-101909523D01*
X147288571Y-101052380D01*
X146336190Y-102004761D02*
X146431428Y-102052380D01*
X146621904Y-102052380D01*
X146717142Y-102004761D01*
X146764761Y-101957142D01*
X146812380Y-101861904D01*
X146812380Y-101576190D01*
X146764761Y-101480952D01*
X146717142Y-101433333D01*
X146621904Y-101385714D01*
X146431428Y-101385714D01*
X146336190Y-101433333D01*
%TO.C,D3*%
X144035385Y-95220097D02*
X144035385Y-94220097D01*
X143797290Y-94220097D01*
X143654432Y-94267717D01*
X143559194Y-94362955D01*
X143511575Y-94458193D01*
X143463956Y-94648669D01*
X143463956Y-94791526D01*
X143511575Y-94982002D01*
X143559194Y-95077240D01*
X143654432Y-95172478D01*
X143797290Y-95220097D01*
X144035385Y-95220097D01*
X143130623Y-94220097D02*
X142511575Y-94220097D01*
X142844909Y-94601050D01*
X142702051Y-94601050D01*
X142606813Y-94648669D01*
X142559194Y-94696288D01*
X142511575Y-94791526D01*
X142511575Y-95029621D01*
X142559194Y-95124859D01*
X142606813Y-95172478D01*
X142702051Y-95220097D01*
X142987766Y-95220097D01*
X143083004Y-95172478D01*
X143130623Y-95124859D01*
%TO.C,D2*%
X130908505Y-100885629D02*
X130908505Y-99885629D01*
X130670410Y-99885629D01*
X130527552Y-99933249D01*
X130432314Y-100028487D01*
X130384695Y-100123725D01*
X130337076Y-100314201D01*
X130337076Y-100457058D01*
X130384695Y-100647534D01*
X130432314Y-100742772D01*
X130527552Y-100838010D01*
X130670410Y-100885629D01*
X130908505Y-100885629D01*
X129956124Y-99980868D02*
X129908505Y-99933249D01*
X129813267Y-99885629D01*
X129575171Y-99885629D01*
X129479933Y-99933249D01*
X129432314Y-99980868D01*
X129384695Y-100076106D01*
X129384695Y-100171344D01*
X129432314Y-100314201D01*
X130003743Y-100885629D01*
X129384695Y-100885629D01*
%TO.C,D1*%
X165933550Y-98195126D02*
X165933550Y-97195126D01*
X165695455Y-97195126D01*
X165552597Y-97242746D01*
X165457359Y-97337984D01*
X165409740Y-97433222D01*
X165362121Y-97623698D01*
X165362121Y-97766555D01*
X165409740Y-97957031D01*
X165457359Y-98052269D01*
X165552597Y-98147507D01*
X165695455Y-98195126D01*
X165933550Y-98195126D01*
X164409740Y-98195126D02*
X164981169Y-98195126D01*
X164695455Y-98195126D02*
X164695455Y-97195126D01*
X164790693Y-97337984D01*
X164885931Y-97433222D01*
X164981169Y-97480841D01*
%TO.C,R3*%
X139866666Y-100232380D02*
X140200000Y-99756190D01*
X140438095Y-100232380D02*
X140438095Y-99232380D01*
X140057142Y-99232380D01*
X139961904Y-99280000D01*
X139914285Y-99327619D01*
X139866666Y-99422857D01*
X139866666Y-99565714D01*
X139914285Y-99660952D01*
X139961904Y-99708571D01*
X140057142Y-99756190D01*
X140438095Y-99756190D01*
X139533333Y-99232380D02*
X138914285Y-99232380D01*
X139247619Y-99613333D01*
X139104761Y-99613333D01*
X139009523Y-99660952D01*
X138961904Y-99708571D01*
X138914285Y-99803809D01*
X138914285Y-100041904D01*
X138961904Y-100137142D01*
X139009523Y-100184761D01*
X139104761Y-100232380D01*
X139390476Y-100232380D01*
X139485714Y-100184761D01*
X139533333Y-100137142D01*
%TO.C,R2*%
X130784166Y-108952380D02*
X131117500Y-108476190D01*
X131355595Y-108952380D02*
X131355595Y-107952380D01*
X130974642Y-107952380D01*
X130879404Y-108000000D01*
X130831785Y-108047619D01*
X130784166Y-108142857D01*
X130784166Y-108285714D01*
X130831785Y-108380952D01*
X130879404Y-108428571D01*
X130974642Y-108476190D01*
X131355595Y-108476190D01*
X130403214Y-108047619D02*
X130355595Y-108000000D01*
X130260357Y-107952380D01*
X130022261Y-107952380D01*
X129927023Y-108000000D01*
X129879404Y-108047619D01*
X129831785Y-108142857D01*
X129831785Y-108238095D01*
X129879404Y-108380952D01*
X130450833Y-108952380D01*
X129831785Y-108952380D01*
%TO.C,R1*%
X139923968Y-106708406D02*
X140257302Y-106232216D01*
X140495397Y-106708406D02*
X140495397Y-105708406D01*
X140114444Y-105708406D01*
X140019206Y-105756026D01*
X139971587Y-105803645D01*
X139923968Y-105898883D01*
X139923968Y-106041740D01*
X139971587Y-106136978D01*
X140019206Y-106184597D01*
X140114444Y-106232216D01*
X140495397Y-106232216D01*
X138971587Y-106708406D02*
X139543016Y-106708406D01*
X139257302Y-106708406D02*
X139257302Y-105708406D01*
X139352540Y-105851264D01*
X139447778Y-105946502D01*
X139543016Y-105994121D01*
D11*
%TO.C,D3*%
X145757290Y-97722717D02*
X141697290Y-97722717D01*
X145757290Y-95452717D02*
X145757290Y-97722717D01*
X141697290Y-95452717D02*
X145757290Y-95452717D01*
%TO.C,D2*%
X132630410Y-103388249D02*
X128570410Y-103388249D01*
X132630410Y-101118249D02*
X132630410Y-103388249D01*
X128570410Y-101118249D02*
X132630410Y-101118249D01*
%TO.C,D1*%
X167655455Y-100697746D02*
X163595455Y-100697746D01*
X167655455Y-98427746D02*
X167655455Y-100697746D01*
X163595455Y-98427746D02*
X167655455Y-98427746D01*
%TO.C,R3*%
X140427064Y-102510000D02*
X138972936Y-102510000D01*
X140427064Y-100690000D02*
X138972936Y-100690000D01*
%TO.C,R2*%
X129890436Y-105770000D02*
X131344564Y-105770000D01*
X129890436Y-107590000D02*
X131344564Y-107590000D01*
%TO.C,R1*%
X140484366Y-108986026D02*
X139030238Y-108986026D01*
X140484366Y-107166026D02*
X139030238Y-107166026D01*
%TD*%
M02*
