%TF.GenerationSoftware,KiCad,Pcbnew,(6.0.4-0)*%
%TF.CreationDate,2022-05-11T22:13:47-04:00*%
%TF.ProjectId,earth_base,65617274-685f-4626-9173-652e6b696361,rev?*%
%TF.SameCoordinates,Original*%
%TF.FileFunction,Profile,NP*%
%FSLAX46Y46*%
G04 Gerber Fmt 4.6, Leading zero omitted, Abs format (unit mm)*
G04 Created by KiCad (PCBNEW (6.0.4-0)) date 2022-05-11 22:13:47*
%MOMM*%
%LPD*%
G01*
G04 APERTURE LIST*
%TA.AperFunction,Profile*%
%ADD10C,0.000010*%
%TD*%
G04 APERTURE END LIST*
%TO.C,svg2mod*%
D10*
X137494278Y-93623145D02*
X138710439Y-93352535D01*
X139948844Y-93111149D01*
X141208382Y-92899686D01*
X142487947Y-92718843D01*
X143786429Y-92569317D01*
X145102720Y-92451805D01*
X146435711Y-92367005D01*
X147784293Y-92315613D01*
X149147358Y-92298328D01*
X150663798Y-92322240D01*
X152162061Y-92393150D01*
X153640608Y-92509820D01*
X155097901Y-92671010D01*
X156532400Y-92875483D01*
X157942566Y-93122000D01*
X159326860Y-93409321D01*
X160683743Y-93736210D01*
X162011675Y-94101426D01*
X163309118Y-94503731D01*
X164574533Y-94941887D01*
X165806380Y-95414655D01*
X167003120Y-95920797D01*
X168163215Y-96459073D01*
X169285124Y-97028246D01*
X170367309Y-97627077D01*
X171408232Y-98254326D01*
X172406351Y-98908756D01*
X173360130Y-99589128D01*
X174268028Y-100294203D01*
X175128506Y-101022743D01*
X175940026Y-101773508D01*
X176701047Y-102545261D01*
X177410032Y-103336763D01*
X178065441Y-104146775D01*
X178665734Y-104974059D01*
X179209373Y-105817376D01*
X179694819Y-106675487D01*
X180120532Y-107547153D01*
X180484974Y-108431138D01*
X180786605Y-109326200D01*
X181023886Y-110231103D01*
X181195278Y-111144607D01*
X181299241Y-112065473D01*
X181334238Y-112992464D01*
X116980144Y-112985564D01*
X116933264Y-111933350D01*
X116978442Y-110884406D01*
X117112463Y-109849852D01*
X117333061Y-108831066D01*
X117637970Y-107829425D01*
X118024923Y-106846306D01*
X118491652Y-105883087D01*
X119035892Y-104941145D01*
X119655376Y-104021857D01*
X120347836Y-103126601D01*
X121111006Y-102256754D01*
X121942619Y-101413694D01*
X122840409Y-100598797D01*
X123802109Y-99813442D01*
X124825452Y-99059006D01*
X125908172Y-98336866D01*
X127048001Y-97648399D01*
X128242674Y-96994983D01*
X129489922Y-96377995D01*
X130787480Y-95798812D01*
X132133081Y-95258813D01*
X131949031Y-93963510D01*
X132526650Y-93843703D01*
X133104269Y-93813033D01*
X133123379Y-92940240D01*
X133138429Y-92244550D01*
X137494278Y-92244511D01*
X137494278Y-93623145D01*
%TD*%
M02*
