%TF.GenerationSoftware,KiCad,Pcbnew,(6.0.4-0)*%
%TF.CreationDate,2022-05-11T22:13:46-04:00*%
%TF.ProjectId,earth_base,65617274-685f-4626-9173-652e6b696361,rev?*%
%TF.SameCoordinates,Original*%
%TF.FileFunction,Legend,Bot*%
%TF.FilePolarity,Positive*%
%FSLAX46Y46*%
G04 Gerber Fmt 4.6, Leading zero omitted, Abs format (unit mm)*
G04 Created by KiCad (PCBNEW (6.0.4-0)) date 2022-05-11 22:13:46*
%MOMM*%
%LPD*%
G01*
G04 APERTURE LIST*
%ADD10C,0.150000*%
%ADD11C,0.125000*%
%ADD12C,0.120000*%
G04 APERTURE END LIST*
D10*
X153336190Y-101385714D02*
X153336190Y-102242857D01*
X153383809Y-102338095D01*
X153479047Y-102385714D01*
X153526666Y-102385714D01*
X153336190Y-101052380D02*
X153383809Y-101100000D01*
X153336190Y-101147619D01*
X153288571Y-101100000D01*
X153336190Y-101052380D01*
X153336190Y-101147619D01*
X152717142Y-102052380D02*
X152812380Y-102004761D01*
X152860000Y-101909523D01*
X152860000Y-101052380D01*
X151907619Y-102004761D02*
X152002857Y-102052380D01*
X152193333Y-102052380D01*
X152288571Y-102004761D01*
X152336190Y-101957142D01*
X152383809Y-101861904D01*
X152383809Y-101576190D01*
X152336190Y-101480952D01*
X152288571Y-101433333D01*
X152193333Y-101385714D01*
X152002857Y-101385714D01*
X151907619Y-101433333D01*
X151479047Y-101385714D02*
X151479047Y-102242857D01*
X151526666Y-102338095D01*
X151621904Y-102385714D01*
X151669523Y-102385714D01*
X151479047Y-101052380D02*
X151526666Y-101100000D01*
X151479047Y-101147619D01*
X151431428Y-101100000D01*
X151479047Y-101052380D01*
X151479047Y-101147619D01*
X150860000Y-102052380D02*
X150955238Y-102004761D01*
X151002857Y-101909523D01*
X151002857Y-101052380D01*
X150050476Y-102004761D02*
X150145714Y-102052380D01*
X150336190Y-102052380D01*
X150431428Y-102004761D01*
X150479047Y-101957142D01*
X150526666Y-101861904D01*
X150526666Y-101576190D01*
X150479047Y-101480952D01*
X150431428Y-101433333D01*
X150336190Y-101385714D01*
X150145714Y-101385714D01*
X150050476Y-101433333D01*
X149621904Y-101385714D02*
X149621904Y-102242857D01*
X149669523Y-102338095D01*
X149764761Y-102385714D01*
X149812380Y-102385714D01*
X149621904Y-101052380D02*
X149669523Y-101100000D01*
X149621904Y-101147619D01*
X149574285Y-101100000D01*
X149621904Y-101052380D01*
X149621904Y-101147619D01*
X149002857Y-102052380D02*
X149098095Y-102004761D01*
X149145714Y-101909523D01*
X149145714Y-101052380D01*
X148193333Y-102004761D02*
X148288571Y-102052380D01*
X148479047Y-102052380D01*
X148574285Y-102004761D01*
X148621904Y-101957142D01*
X148669523Y-101861904D01*
X148669523Y-101576190D01*
X148621904Y-101480952D01*
X148574285Y-101433333D01*
X148479047Y-101385714D01*
X148288571Y-101385714D01*
X148193333Y-101433333D01*
X147764761Y-101385714D02*
X147764761Y-102242857D01*
X147812380Y-102338095D01*
X147907619Y-102385714D01*
X147955238Y-102385714D01*
X147764761Y-101052380D02*
X147812380Y-101100000D01*
X147764761Y-101147619D01*
X147717142Y-101100000D01*
X147764761Y-101052380D01*
X147764761Y-101147619D01*
X147145714Y-102052380D02*
X147240952Y-102004761D01*
X147288571Y-101909523D01*
X147288571Y-101052380D01*
X146336190Y-102004761D02*
X146431428Y-102052380D01*
X146621904Y-102052380D01*
X146717142Y-102004761D01*
X146764761Y-101957142D01*
X146812380Y-101861904D01*
X146812380Y-101576190D01*
X146764761Y-101480952D01*
X146717142Y-101433333D01*
X146621904Y-101385714D01*
X146431428Y-101385714D01*
X146336190Y-101433333D01*
%TO.C,D3*%
X140903424Y-95112864D02*
X140903424Y-94112864D01*
X140665329Y-94112864D01*
X140522471Y-94160484D01*
X140427233Y-94255722D01*
X140379614Y-94350960D01*
X140331995Y-94541436D01*
X140331995Y-94684293D01*
X140379614Y-94874769D01*
X140427233Y-94970007D01*
X140522471Y-95065245D01*
X140665329Y-95112864D01*
X140903424Y-95112864D01*
X139998662Y-94112864D02*
X139379614Y-94112864D01*
X139712948Y-94493817D01*
X139570090Y-94493817D01*
X139474852Y-94541436D01*
X139427233Y-94589055D01*
X139379614Y-94684293D01*
X139379614Y-94922388D01*
X139427233Y-95017626D01*
X139474852Y-95065245D01*
X139570090Y-95112864D01*
X139855805Y-95112864D01*
X139951043Y-95065245D01*
X139998662Y-95017626D01*
D11*
X144360112Y-94005138D02*
X143979159Y-94005138D01*
D10*
%TO.C,D4*%
X122662048Y-104666028D02*
X122662048Y-103666028D01*
X122423953Y-103666028D01*
X122281095Y-103713648D01*
X122185857Y-103808886D01*
X122138238Y-103904124D01*
X122090619Y-104094600D01*
X122090619Y-104237457D01*
X122138238Y-104427933D01*
X122185857Y-104523171D01*
X122281095Y-104618409D01*
X122423953Y-104666028D01*
X122662048Y-104666028D01*
X121233476Y-103999362D02*
X121233476Y-104666028D01*
X121471572Y-103618409D02*
X121709667Y-104332695D01*
X121090619Y-104332695D01*
D11*
X126215831Y-102321317D02*
X125834878Y-102321317D01*
D10*
%TO.C,R3*%
X140169290Y-97494262D02*
X140502624Y-97018072D01*
X140740719Y-97494262D02*
X140740719Y-96494262D01*
X140359766Y-96494262D01*
X140264528Y-96541882D01*
X140216909Y-96589501D01*
X140169290Y-96684739D01*
X140169290Y-96827596D01*
X140216909Y-96922834D01*
X140264528Y-96970453D01*
X140359766Y-97018072D01*
X140740719Y-97018072D01*
X139835957Y-96494262D02*
X139216909Y-96494262D01*
X139550243Y-96875215D01*
X139407385Y-96875215D01*
X139312147Y-96922834D01*
X139264528Y-96970453D01*
X139216909Y-97065691D01*
X139216909Y-97303786D01*
X139264528Y-97399024D01*
X139312147Y-97446643D01*
X139407385Y-97494262D01*
X139693100Y-97494262D01*
X139788338Y-97446643D01*
X139835957Y-97399024D01*
%TO.C,R4*%
X128553130Y-101148458D02*
X128886464Y-100672268D01*
X129124559Y-101148458D02*
X129124559Y-100148458D01*
X128743606Y-100148458D01*
X128648368Y-100196078D01*
X128600749Y-100243697D01*
X128553130Y-100338935D01*
X128553130Y-100481792D01*
X128600749Y-100577030D01*
X128648368Y-100624649D01*
X128743606Y-100672268D01*
X129124559Y-100672268D01*
X127695987Y-100481792D02*
X127695987Y-101148458D01*
X127934083Y-100100839D02*
X128172178Y-100815125D01*
X127553130Y-100815125D01*
%TO.C,D1*%
X171785316Y-101107556D02*
X171785316Y-100107556D01*
X171547221Y-100107556D01*
X171404363Y-100155176D01*
X171309125Y-100250414D01*
X171261506Y-100345652D01*
X171213887Y-100536128D01*
X171213887Y-100678985D01*
X171261506Y-100869461D01*
X171309125Y-100964699D01*
X171404363Y-101059937D01*
X171547221Y-101107556D01*
X171785316Y-101107556D01*
X170261506Y-101107556D02*
X170832935Y-101107556D01*
X170547221Y-101107556D02*
X170547221Y-100107556D01*
X170642459Y-100250414D01*
X170737697Y-100345652D01*
X170832935Y-100393271D01*
D11*
X174672962Y-102865190D02*
X174292009Y-102865190D01*
D10*
%TO.C,R2*%
X162197105Y-103279439D02*
X162530439Y-102803249D01*
X162768534Y-103279439D02*
X162768534Y-102279439D01*
X162387581Y-102279439D01*
X162292343Y-102327059D01*
X162244724Y-102374678D01*
X162197105Y-102469916D01*
X162197105Y-102612773D01*
X162244724Y-102708011D01*
X162292343Y-102755630D01*
X162387581Y-102803249D01*
X162768534Y-102803249D01*
X161816153Y-102374678D02*
X161768534Y-102327059D01*
X161673296Y-102279439D01*
X161435200Y-102279439D01*
X161339962Y-102327059D01*
X161292343Y-102374678D01*
X161244724Y-102469916D01*
X161244724Y-102565154D01*
X161292343Y-102708011D01*
X161863772Y-103279439D01*
X161244724Y-103279439D01*
%TO.C,D2*%
X155076540Y-95410063D02*
X155076540Y-94410063D01*
X154838445Y-94410063D01*
X154695587Y-94457683D01*
X154600349Y-94552921D01*
X154552730Y-94648159D01*
X154505111Y-94838635D01*
X154505111Y-94981492D01*
X154552730Y-95171968D01*
X154600349Y-95267206D01*
X154695587Y-95362444D01*
X154838445Y-95410063D01*
X155076540Y-95410063D01*
X154124159Y-94505302D02*
X154076540Y-94457683D01*
X153981302Y-94410063D01*
X153743206Y-94410063D01*
X153647968Y-94457683D01*
X153600349Y-94505302D01*
X153552730Y-94600540D01*
X153552730Y-94695778D01*
X153600349Y-94838635D01*
X154171778Y-95410063D01*
X153552730Y-95410063D01*
D11*
X158793931Y-94496921D02*
X158412978Y-94496921D01*
D10*
%TO.C,R1*%
X168882475Y-102443400D02*
X169215809Y-101967210D01*
X169453904Y-102443400D02*
X169453904Y-101443400D01*
X169072951Y-101443400D01*
X168977713Y-101491020D01*
X168930094Y-101538639D01*
X168882475Y-101633877D01*
X168882475Y-101776734D01*
X168930094Y-101871972D01*
X168977713Y-101919591D01*
X169072951Y-101967210D01*
X169453904Y-101967210D01*
X167930094Y-102443400D02*
X168501523Y-102443400D01*
X168215809Y-102443400D02*
X168215809Y-101443400D01*
X168311047Y-101586258D01*
X168406285Y-101681496D01*
X168501523Y-101729115D01*
D12*
%TO.C,R3*%
X140229688Y-97956882D02*
X139775560Y-97956882D01*
X140229688Y-99426882D02*
X139775560Y-99426882D01*
%TO.C,R4*%
X128613528Y-102087981D02*
X128159400Y-102087981D01*
X128613528Y-103557981D02*
X128159400Y-103557981D01*
%TO.C,R2*%
X161576311Y-101022059D02*
X162030439Y-101022059D01*
X161576311Y-99552059D02*
X162030439Y-99552059D01*
%TO.C,R1*%
X168942873Y-102906020D02*
X168488745Y-102906020D01*
X168942873Y-104376020D02*
X168488745Y-104376020D01*
%TD*%
M02*
