%TF.GenerationSoftware,KiCad,Pcbnew,(6.0.4-0)*%
%TF.CreationDate,2022-04-25T17:07:07-04:00*%
%TF.ProjectId,earth_base,65617274-685f-4626-9173-652e6b696361,rev?*%
%TF.SameCoordinates,Original*%
%TF.FileFunction,Copper,L1,Top*%
%TF.FilePolarity,Positive*%
%FSLAX46Y46*%
G04 Gerber Fmt 4.6, Leading zero omitted, Abs format (unit mm)*
G04 Created by KiCad (PCBNEW (6.0.4-0)) date 2022-04-25 17:07:07*
%MOMM*%
%LPD*%
G01*
G04 APERTURE LIST*
%TA.AperFunction,ComponentPad*%
%ADD10R,1.700000X1.700000*%
%TD*%
%TA.AperFunction,ComponentPad*%
%ADD11O,1.700000X1.700000*%
%TD*%
%TA.AperFunction,ComponentPad*%
%ADD12C,1.700000*%
%TD*%
%TA.AperFunction,ViaPad*%
%ADD13C,0.800000*%
%TD*%
%TA.AperFunction,Conductor*%
%ADD14C,0.250000*%
%TD*%
G04 APERTURE END LIST*
D10*
%TO.P,J1,1,Pin_1*%
%TO.N,VCC*%
X124133751Y-107218580D03*
D11*
%TO.P,J1,2,Pin_2*%
%TO.N,GND*%
X126673751Y-107218580D03*
%TO.P,J1,3,Pin_3*%
%TO.N,Net-(J1-Pad3)*%
X147863751Y-95218580D03*
D12*
%TO.P,J1,4,Pin_4*%
%TO.N,Net-(J1-Pad4)*%
X150403751Y-95218580D03*
D11*
%TO.P,J1,5,Pin_5*%
%TO.N,Net-(J1-Pad5)*%
X171593751Y-107218580D03*
%TO.P,J1,6,Pin_6*%
%TO.N,Net-(J1-Pad6)*%
X174133751Y-107218580D03*
%TD*%
D10*
%TO.P,J2,1,Pin_1*%
%TO.N,VCC*%
X146090605Y-105357258D03*
D11*
%TO.P,J2,2,Pin_2*%
%TO.N,GND*%
X146090605Y-107897258D03*
%TO.P,J2,3,Pin_3*%
%TO.N,Net-(J1-Pad3)*%
X148630605Y-105357258D03*
%TO.P,J2,4,Pin_4*%
%TO.N,Net-(J1-Pad4)*%
X148630605Y-107897258D03*
%TO.P,J2,5,Pin_5*%
%TO.N,Net-(J1-Pad5)*%
X151170605Y-105357258D03*
%TO.P,J2,6,Pin_6*%
%TO.N,Net-(J1-Pad6)*%
X151170605Y-107897258D03*
%TD*%
D13*
%TO.N,GND*%
X165100000Y-101600000D03*
%TO.N,Net-(D1-Pad2)*%
X139700000Y-109220000D03*
X160020000Y-101600000D03*
%TD*%
D14*
%TO.N,GND*%
X165100000Y-101600000D02*
X159977253Y-106722747D01*
X147265116Y-106722747D02*
X146090605Y-107897258D01*
X159977253Y-106722747D02*
X147265116Y-106722747D01*
%TO.N,Net-(D1-Pad2)*%
X147320000Y-101600000D02*
X139700000Y-109220000D01*
X160020000Y-101600000D02*
X147320000Y-101600000D01*
%TD*%
%TA.AperFunction,Conductor*%
%TO.N,GND*%
G36*
X138434895Y-93758198D02*
G01*
X138481388Y-93811854D01*
X138492774Y-93864196D01*
X138492774Y-94436788D01*
X138492436Y-94446017D01*
X138490722Y-94469358D01*
X138488765Y-94496000D01*
X138490647Y-94504779D01*
X138490647Y-94504780D01*
X138499443Y-94545814D01*
X138500969Y-94554362D01*
X138506920Y-94595917D01*
X138506922Y-94595924D01*
X138508194Y-94604806D01*
X138511908Y-94612975D01*
X138514374Y-94621408D01*
X138517414Y-94629649D01*
X138519295Y-94638422D01*
X138523562Y-94646314D01*
X138543534Y-94683253D01*
X138547396Y-94691026D01*
X138568482Y-94737401D01*
X138574342Y-94744201D01*
X138579067Y-94751590D01*
X138584299Y-94758648D01*
X138588572Y-94766551D01*
X138624418Y-94802776D01*
X138630299Y-94809144D01*
X138657702Y-94840947D01*
X138657704Y-94840949D01*
X138663561Y-94847746D01*
X138671092Y-94852628D01*
X138677706Y-94858397D01*
X138684708Y-94863703D01*
X138691025Y-94870086D01*
X138735611Y-94894801D01*
X138743015Y-94899246D01*
X138785789Y-94926971D01*
X138794384Y-94929542D01*
X138802351Y-94933223D01*
X138810570Y-94936354D01*
X138818419Y-94940704D01*
X138868122Y-94951906D01*
X138876512Y-94954103D01*
X138925340Y-94968705D01*
X138934316Y-94968760D01*
X138942982Y-94970055D01*
X138951751Y-94970753D01*
X138960513Y-94972728D01*
X138969469Y-94972165D01*
X138969473Y-94972165D01*
X139011367Y-94969530D01*
X139020044Y-94969284D01*
X139051737Y-94969477D01*
X139070995Y-94969595D01*
X139123040Y-94954720D01*
X139130465Y-94952842D01*
X139974312Y-94766551D01*
X140324678Y-94689203D01*
X140328344Y-94688450D01*
X141557945Y-94455067D01*
X141561590Y-94454431D01*
X142814815Y-94254492D01*
X142818443Y-94253967D01*
X144093911Y-94088369D01*
X144097527Y-94087952D01*
X145393821Y-93957596D01*
X145397428Y-93957286D01*
X146005080Y-93913771D01*
X146713107Y-93863069D01*
X146716647Y-93862867D01*
X147042380Y-93848900D01*
X147111295Y-93865965D01*
X147160043Y-93917580D01*
X147173148Y-93987357D01*
X147146449Y-94053142D01*
X147123430Y-94075544D01*
X146986632Y-94178255D01*
X146958716Y-94199215D01*
X146804380Y-94360718D01*
X146678494Y-94545260D01*
X146642331Y-94623166D01*
X146608679Y-94695665D01*
X146584439Y-94747885D01*
X146524740Y-94963150D01*
X146501002Y-95185275D01*
X146501299Y-95190428D01*
X146501299Y-95190431D01*
X146506762Y-95285170D01*
X146513861Y-95408295D01*
X146514998Y-95413341D01*
X146514999Y-95413347D01*
X146534870Y-95501519D01*
X146562973Y-95626219D01*
X146647017Y-95833196D01*
X146684270Y-95893987D01*
X146761042Y-96019268D01*
X146763738Y-96023668D01*
X146910001Y-96192518D01*
X147081877Y-96335212D01*
X147274751Y-96447918D01*
X147483443Y-96527610D01*
X147488511Y-96528641D01*
X147488514Y-96528642D01*
X147566538Y-96544516D01*
X147702348Y-96572147D01*
X147707523Y-96572337D01*
X147707525Y-96572337D01*
X147920424Y-96580144D01*
X147920428Y-96580144D01*
X147925588Y-96580333D01*
X147930708Y-96579677D01*
X147930710Y-96579677D01*
X148142039Y-96552605D01*
X148142040Y-96552605D01*
X148147167Y-96551948D01*
X148171939Y-96544516D01*
X148356180Y-96489241D01*
X148356185Y-96489239D01*
X148361135Y-96487754D01*
X148561745Y-96389476D01*
X148743611Y-96259753D01*
X148901847Y-96102069D01*
X148917406Y-96080417D01*
X149032204Y-95920657D01*
X149033527Y-95921608D01*
X149080396Y-95878437D01*
X149150331Y-95866205D01*
X149215777Y-95893724D01*
X149243626Y-95925574D01*
X149303738Y-96023668D01*
X149450001Y-96192518D01*
X149621877Y-96335212D01*
X149814751Y-96447918D01*
X150023443Y-96527610D01*
X150028511Y-96528641D01*
X150028514Y-96528642D01*
X150106538Y-96544516D01*
X150242348Y-96572147D01*
X150247523Y-96572337D01*
X150247525Y-96572337D01*
X150460424Y-96580144D01*
X150460428Y-96580144D01*
X150465588Y-96580333D01*
X150470708Y-96579677D01*
X150470710Y-96579677D01*
X150682039Y-96552605D01*
X150682040Y-96552605D01*
X150687167Y-96551948D01*
X150711939Y-96544516D01*
X150896180Y-96489241D01*
X150896185Y-96489239D01*
X150901135Y-96487754D01*
X151101745Y-96389476D01*
X151283611Y-96259753D01*
X151441847Y-96102069D01*
X151457406Y-96080417D01*
X151569186Y-95924857D01*
X151572204Y-95920657D01*
X151588003Y-95888691D01*
X151668887Y-95725033D01*
X151668888Y-95725031D01*
X151671181Y-95720391D01*
X151736121Y-95506649D01*
X151765280Y-95285170D01*
X151765362Y-95281820D01*
X151766825Y-95221945D01*
X151766825Y-95221941D01*
X151766907Y-95218580D01*
X151748603Y-94995941D01*
X151694182Y-94779282D01*
X151605105Y-94574420D01*
X151554373Y-94496000D01*
X151486573Y-94391197D01*
X151486571Y-94391194D01*
X151483765Y-94386857D01*
X151333421Y-94221631D01*
X151329370Y-94218432D01*
X151329366Y-94218428D01*
X151162165Y-94086380D01*
X151162161Y-94086378D01*
X151158110Y-94083178D01*
X151153586Y-94080680D01*
X151153582Y-94080678D01*
X151124106Y-94064406D01*
X151074135Y-94013973D01*
X151059364Y-93944530D01*
X151084481Y-93878125D01*
X151141512Y-93835841D01*
X151191511Y-93828266D01*
X152116233Y-93876129D01*
X152309276Y-93886121D01*
X152313599Y-93886420D01*
X153285638Y-93970324D01*
X153645171Y-94001358D01*
X153730970Y-94008764D01*
X153735276Y-94009210D01*
X155129632Y-94177997D01*
X155133923Y-94178592D01*
X155863659Y-94292504D01*
X156503362Y-94392362D01*
X156507607Y-94393100D01*
X157850317Y-94650397D01*
X157854583Y-94651291D01*
X158291811Y-94750889D01*
X159168823Y-94950668D01*
X159173092Y-94951719D01*
X160456919Y-95291681D01*
X160461188Y-95292892D01*
X160788069Y-95391893D01*
X161712895Y-95671992D01*
X161717132Y-95673359D01*
X162381381Y-95900686D01*
X162934812Y-96090088D01*
X162939099Y-96091642D01*
X164120965Y-96544516D01*
X164125268Y-96546257D01*
X165269445Y-97033749D01*
X165273771Y-97035689D01*
X166378497Y-97556309D01*
X166382849Y-97558463D01*
X167446286Y-98110668D01*
X167450669Y-98113055D01*
X168471005Y-98695304D01*
X168475422Y-98697946D01*
X169450838Y-99308673D01*
X169455289Y-99311593D01*
X170383965Y-99949199D01*
X170388451Y-99952426D01*
X171136692Y-100515967D01*
X171268642Y-100615346D01*
X171273151Y-100618905D01*
X171782685Y-101040448D01*
X172103110Y-101305539D01*
X172107645Y-101309477D01*
X172885570Y-102018144D01*
X172890110Y-102022492D01*
X173604821Y-102742002D01*
X173614305Y-102751550D01*
X173618823Y-102756343D01*
X173702288Y-102849666D01*
X174287672Y-103504192D01*
X174292150Y-103509486D01*
X174903982Y-104274415D01*
X174908374Y-104280244D01*
X175461645Y-105060625D01*
X175465895Y-105067026D01*
X175821841Y-105640197D01*
X175959090Y-105861207D01*
X175963133Y-105868209D01*
X176387556Y-106661025D01*
X176394857Y-106674664D01*
X176398613Y-106682287D01*
X176651406Y-107242327D01*
X176767487Y-107499495D01*
X176770866Y-107507749D01*
X177075581Y-108334290D01*
X177078479Y-108343148D01*
X177153134Y-108603535D01*
X177303499Y-109127987D01*
X177317768Y-109177757D01*
X177320079Y-109187167D01*
X177492688Y-110028790D01*
X177494304Y-110038645D01*
X177590875Y-110821154D01*
X177598908Y-110886242D01*
X177599750Y-110896479D01*
X177608765Y-111114887D01*
X177591589Y-111183774D01*
X177539897Y-111232440D01*
X177482859Y-111246083D01*
X121291927Y-111240027D01*
X121223809Y-111220018D01*
X121177322Y-111166357D01*
X121166066Y-111119636D01*
X121165855Y-111114887D01*
X121152521Y-110815634D01*
X121152540Y-110804007D01*
X121153105Y-110792200D01*
X121199447Y-109823623D01*
X121200589Y-109811693D01*
X121257531Y-109416206D01*
X121285780Y-109220000D01*
X138786496Y-109220000D01*
X138806458Y-109409928D01*
X138865473Y-109591556D01*
X138960960Y-109756944D01*
X138965378Y-109761851D01*
X138965379Y-109761852D01*
X139078928Y-109887961D01*
X139088747Y-109898866D01*
X139243248Y-110011118D01*
X139249276Y-110013802D01*
X139249278Y-110013803D01*
X139293921Y-110033679D01*
X139417712Y-110088794D01*
X139511113Y-110108647D01*
X139598056Y-110127128D01*
X139598061Y-110127128D01*
X139604513Y-110128500D01*
X139795487Y-110128500D01*
X139801939Y-110127128D01*
X139801944Y-110127128D01*
X139888887Y-110108647D01*
X139982288Y-110088794D01*
X140106079Y-110033679D01*
X140150722Y-110013803D01*
X140150724Y-110013802D01*
X140156752Y-110011118D01*
X140311253Y-109898866D01*
X140321072Y-109887961D01*
X140434621Y-109761852D01*
X140434622Y-109761851D01*
X140439040Y-109756944D01*
X140534527Y-109591556D01*
X140593542Y-109409928D01*
X140610907Y-109244706D01*
X140637920Y-109179050D01*
X140647122Y-109168782D01*
X141650680Y-108165224D01*
X144758862Y-108165224D01*
X144789170Y-108299704D01*
X144792250Y-108309533D01*
X144872375Y-108506861D01*
X144877018Y-108516052D01*
X144988299Y-108697646D01*
X144994382Y-108705957D01*
X145133818Y-108866925D01*
X145141185Y-108874141D01*
X145305039Y-109010174D01*
X145313486Y-109016089D01*
X145497361Y-109123537D01*
X145506647Y-109127987D01*
X145705606Y-109203961D01*
X145715504Y-109206837D01*
X145818855Y-109227864D01*
X145832904Y-109226668D01*
X145836605Y-109216323D01*
X145836605Y-108169373D01*
X145832130Y-108154134D01*
X145830740Y-108152929D01*
X145823057Y-108151258D01*
X144773830Y-108151258D01*
X144760299Y-108155231D01*
X144758862Y-108165224D01*
X141650680Y-108165224D01*
X144517010Y-105298894D01*
X144579322Y-105264868D01*
X144650137Y-105269933D01*
X144706973Y-105312480D01*
X144731784Y-105379000D01*
X144732105Y-105387989D01*
X144732105Y-106255392D01*
X144738860Y-106317574D01*
X144789990Y-106453963D01*
X144877344Y-106570519D01*
X144993900Y-106657873D01*
X145002309Y-106661025D01*
X145002310Y-106661026D01*
X145111565Y-106701984D01*
X145168330Y-106744625D01*
X145193030Y-106811187D01*
X145177823Y-106880536D01*
X145158430Y-106907017D01*
X145035195Y-107035975D01*
X145028709Y-107043985D01*
X144908703Y-107219907D01*
X144903605Y-107228881D01*
X144813943Y-107422041D01*
X144810380Y-107431728D01*
X144754994Y-107631441D01*
X144756517Y-107639865D01*
X144768897Y-107643258D01*
X146218605Y-107643258D01*
X146286726Y-107663260D01*
X146333219Y-107716916D01*
X146344605Y-107769258D01*
X146344605Y-109215775D01*
X146348669Y-109229617D01*
X146362083Y-109231651D01*
X146368789Y-109230792D01*
X146378867Y-109228650D01*
X146582860Y-109167449D01*
X146592447Y-109163691D01*
X146783700Y-109069997D01*
X146792550Y-109064722D01*
X146965933Y-108941050D01*
X146973805Y-108934397D01*
X147124657Y-108784070D01*
X147131335Y-108776223D01*
X147258627Y-108599077D01*
X147259884Y-108599980D01*
X147306978Y-108556620D01*
X147376916Y-108544403D01*
X147442356Y-108571936D01*
X147470184Y-108603769D01*
X147487915Y-108632703D01*
X147530592Y-108702346D01*
X147676855Y-108871196D01*
X147848731Y-109013890D01*
X148041605Y-109126596D01*
X148250297Y-109206288D01*
X148255365Y-109207319D01*
X148255368Y-109207320D01*
X148317693Y-109220000D01*
X148469202Y-109250825D01*
X148474377Y-109251015D01*
X148474379Y-109251015D01*
X148687278Y-109258822D01*
X148687282Y-109258822D01*
X148692442Y-109259011D01*
X148697562Y-109258355D01*
X148697564Y-109258355D01*
X148908893Y-109231283D01*
X148908894Y-109231283D01*
X148914021Y-109230626D01*
X148918971Y-109229141D01*
X149123034Y-109167919D01*
X149123039Y-109167917D01*
X149127989Y-109166432D01*
X149328599Y-109068154D01*
X149510465Y-108938431D01*
X149525788Y-108923162D01*
X149665040Y-108784395D01*
X149668701Y-108780747D01*
X149742426Y-108678148D01*
X149799058Y-108599335D01*
X149800381Y-108600286D01*
X149847250Y-108557115D01*
X149917185Y-108544883D01*
X149982631Y-108572402D01*
X150010480Y-108604252D01*
X150026457Y-108630324D01*
X150070592Y-108702346D01*
X150216855Y-108871196D01*
X150388731Y-109013890D01*
X150581605Y-109126596D01*
X150790297Y-109206288D01*
X150795365Y-109207319D01*
X150795368Y-109207320D01*
X150857693Y-109220000D01*
X151009202Y-109250825D01*
X151014377Y-109251015D01*
X151014379Y-109251015D01*
X151227278Y-109258822D01*
X151227282Y-109258822D01*
X151232442Y-109259011D01*
X151237562Y-109258355D01*
X151237564Y-109258355D01*
X151448893Y-109231283D01*
X151448894Y-109231283D01*
X151454021Y-109230626D01*
X151458971Y-109229141D01*
X151663034Y-109167919D01*
X151663039Y-109167917D01*
X151667989Y-109166432D01*
X151868599Y-109068154D01*
X152050465Y-108938431D01*
X152065788Y-108923162D01*
X152205040Y-108784395D01*
X152208701Y-108780747D01*
X152282426Y-108678148D01*
X152336040Y-108603535D01*
X152339058Y-108599335D01*
X152348450Y-108580333D01*
X152435741Y-108403711D01*
X152435742Y-108403709D01*
X152438035Y-108399069D01*
X152481588Y-108255719D01*
X152501470Y-108190281D01*
X152501470Y-108190279D01*
X152502975Y-108185327D01*
X152532134Y-107963848D01*
X152533761Y-107897258D01*
X152515457Y-107674619D01*
X152461036Y-107457960D01*
X152371959Y-107253098D01*
X152328083Y-107185275D01*
X170231002Y-107185275D01*
X170231299Y-107190428D01*
X170231299Y-107190431D01*
X170236762Y-107285170D01*
X170243861Y-107408295D01*
X170244998Y-107413341D01*
X170244999Y-107413347D01*
X170258348Y-107472580D01*
X170292973Y-107626219D01*
X170377017Y-107833196D01*
X170414219Y-107893904D01*
X170491042Y-108019268D01*
X170493738Y-108023668D01*
X170640001Y-108192518D01*
X170811877Y-108335212D01*
X171004751Y-108447918D01*
X171213443Y-108527610D01*
X171218511Y-108528641D01*
X171218514Y-108528642D01*
X171298342Y-108544883D01*
X171432348Y-108572147D01*
X171437523Y-108572337D01*
X171437525Y-108572337D01*
X171650424Y-108580144D01*
X171650428Y-108580144D01*
X171655588Y-108580333D01*
X171660708Y-108579677D01*
X171660710Y-108579677D01*
X171872039Y-108552605D01*
X171872040Y-108552605D01*
X171877167Y-108551948D01*
X171882117Y-108550463D01*
X172086180Y-108489241D01*
X172086185Y-108489239D01*
X172091135Y-108487754D01*
X172291745Y-108389476D01*
X172473611Y-108259753D01*
X172553446Y-108180197D01*
X172617903Y-108115964D01*
X172631847Y-108102069D01*
X172691345Y-108019269D01*
X172762204Y-107920657D01*
X172763527Y-107921608D01*
X172810396Y-107878437D01*
X172880331Y-107866205D01*
X172945777Y-107893724D01*
X172973626Y-107925574D01*
X173033738Y-108023668D01*
X173180001Y-108192518D01*
X173351877Y-108335212D01*
X173544751Y-108447918D01*
X173753443Y-108527610D01*
X173758511Y-108528641D01*
X173758514Y-108528642D01*
X173838342Y-108544883D01*
X173972348Y-108572147D01*
X173977523Y-108572337D01*
X173977525Y-108572337D01*
X174190424Y-108580144D01*
X174190428Y-108580144D01*
X174195588Y-108580333D01*
X174200708Y-108579677D01*
X174200710Y-108579677D01*
X174412039Y-108552605D01*
X174412040Y-108552605D01*
X174417167Y-108551948D01*
X174422117Y-108550463D01*
X174626180Y-108489241D01*
X174626185Y-108489239D01*
X174631135Y-108487754D01*
X174831745Y-108389476D01*
X175013611Y-108259753D01*
X175093446Y-108180197D01*
X175157903Y-108115964D01*
X175171847Y-108102069D01*
X175231345Y-108019269D01*
X175299186Y-107924857D01*
X175302204Y-107920657D01*
X175312106Y-107900623D01*
X175398887Y-107725033D01*
X175398888Y-107725031D01*
X175401181Y-107720391D01*
X175466121Y-107506649D01*
X175495280Y-107285170D01*
X175496338Y-107241879D01*
X175496825Y-107221945D01*
X175496825Y-107221941D01*
X175496907Y-107218580D01*
X175478603Y-106995941D01*
X175424182Y-106779282D01*
X175335105Y-106574420D01*
X175257178Y-106453963D01*
X175216573Y-106391197D01*
X175216571Y-106391194D01*
X175213765Y-106386857D01*
X175063421Y-106221631D01*
X175059370Y-106218432D01*
X175059366Y-106218428D01*
X174892165Y-106086380D01*
X174892161Y-106086378D01*
X174888110Y-106083178D01*
X174853826Y-106064252D01*
X174790638Y-106029371D01*
X174692540Y-105975218D01*
X174687671Y-105973494D01*
X174687667Y-105973492D01*
X174486838Y-105902375D01*
X174486834Y-105902374D01*
X174481963Y-105900649D01*
X174476870Y-105899742D01*
X174476867Y-105899741D01*
X174267124Y-105862380D01*
X174267118Y-105862379D01*
X174262035Y-105861474D01*
X174188203Y-105860572D01*
X174043832Y-105858808D01*
X174043830Y-105858808D01*
X174038662Y-105858745D01*
X173817842Y-105892535D01*
X173605507Y-105961937D01*
X173532508Y-105999938D01*
X173416581Y-106060286D01*
X173407358Y-106065087D01*
X173403225Y-106068190D01*
X173403222Y-106068192D01*
X173272624Y-106166248D01*
X173228716Y-106199215D01*
X173225144Y-106202953D01*
X173106325Y-106327290D01*
X173074380Y-106360718D01*
X172966952Y-106518201D01*
X172912044Y-106563201D01*
X172841519Y-106571372D01*
X172777772Y-106540118D01*
X172757075Y-106515634D01*
X172676573Y-106391197D01*
X172676571Y-106391194D01*
X172673765Y-106386857D01*
X172523421Y-106221631D01*
X172519370Y-106218432D01*
X172519366Y-106218428D01*
X172352165Y-106086380D01*
X172352161Y-106086378D01*
X172348110Y-106083178D01*
X172313826Y-106064252D01*
X172250638Y-106029371D01*
X172152540Y-105975218D01*
X172147671Y-105973494D01*
X172147667Y-105973492D01*
X171946838Y-105902375D01*
X171946834Y-105902374D01*
X171941963Y-105900649D01*
X171936870Y-105899742D01*
X171936867Y-105899741D01*
X171727124Y-105862380D01*
X171727118Y-105862379D01*
X171722035Y-105861474D01*
X171648203Y-105860572D01*
X171503832Y-105858808D01*
X171503830Y-105858808D01*
X171498662Y-105858745D01*
X171277842Y-105892535D01*
X171065507Y-105961937D01*
X170992508Y-105999938D01*
X170876581Y-106060286D01*
X170867358Y-106065087D01*
X170863225Y-106068190D01*
X170863222Y-106068192D01*
X170732624Y-106166248D01*
X170688716Y-106199215D01*
X170685144Y-106202953D01*
X170566325Y-106327290D01*
X170534380Y-106360718D01*
X170408494Y-106545260D01*
X170392754Y-106579170D01*
X170318538Y-106739055D01*
X170314439Y-106747885D01*
X170254740Y-106963150D01*
X170231002Y-107185275D01*
X152328083Y-107185275D01*
X152324762Y-107180142D01*
X152253427Y-107069875D01*
X152253425Y-107069872D01*
X152250619Y-107065535D01*
X152100275Y-106900309D01*
X152096224Y-106897110D01*
X152096220Y-106897106D01*
X151929019Y-106765058D01*
X151929015Y-106765056D01*
X151924964Y-106761856D01*
X151883658Y-106739054D01*
X151833689Y-106688622D01*
X151818917Y-106619179D01*
X151844033Y-106552774D01*
X151871385Y-106526167D01*
X151915208Y-106494908D01*
X152050465Y-106398431D01*
X152057725Y-106391197D01*
X152190596Y-106258789D01*
X152208701Y-106240747D01*
X152339058Y-106059335D01*
X152359925Y-106017115D01*
X152435741Y-105863711D01*
X152435742Y-105863709D01*
X152438035Y-105859069D01*
X152502975Y-105645327D01*
X152532134Y-105423848D01*
X152533761Y-105357258D01*
X152515457Y-105134619D01*
X152461036Y-104917960D01*
X152371959Y-104713098D01*
X152297873Y-104598578D01*
X152253427Y-104529875D01*
X152253425Y-104529872D01*
X152250619Y-104525535D01*
X152100275Y-104360309D01*
X152096224Y-104357110D01*
X152096220Y-104357106D01*
X151929019Y-104225058D01*
X151929015Y-104225056D01*
X151924964Y-104221856D01*
X151729394Y-104113896D01*
X151724525Y-104112172D01*
X151724521Y-104112170D01*
X151523692Y-104041053D01*
X151523688Y-104041052D01*
X151518817Y-104039327D01*
X151513724Y-104038420D01*
X151513721Y-104038419D01*
X151303978Y-104001058D01*
X151303972Y-104001057D01*
X151298889Y-104000152D01*
X151225057Y-103999250D01*
X151080686Y-103997486D01*
X151080684Y-103997486D01*
X151075516Y-103997423D01*
X150854696Y-104031213D01*
X150642361Y-104100615D01*
X150444212Y-104203765D01*
X150440079Y-104206868D01*
X150440076Y-104206870D01*
X150342351Y-104280244D01*
X150265570Y-104337893D01*
X150261998Y-104341631D01*
X150154334Y-104454295D01*
X150111234Y-104499396D01*
X150003806Y-104656879D01*
X149948898Y-104701879D01*
X149878373Y-104710050D01*
X149814626Y-104678796D01*
X149793929Y-104654312D01*
X149713427Y-104529875D01*
X149713425Y-104529872D01*
X149710619Y-104525535D01*
X149560275Y-104360309D01*
X149556224Y-104357110D01*
X149556220Y-104357106D01*
X149389019Y-104225058D01*
X149389015Y-104225056D01*
X149384964Y-104221856D01*
X149189394Y-104113896D01*
X149184525Y-104112172D01*
X149184521Y-104112170D01*
X148983692Y-104041053D01*
X148983688Y-104041052D01*
X148978817Y-104039327D01*
X148973724Y-104038420D01*
X148973721Y-104038419D01*
X148763978Y-104001058D01*
X148763972Y-104001057D01*
X148758889Y-104000152D01*
X148685057Y-103999250D01*
X148540686Y-103997486D01*
X148540684Y-103997486D01*
X148535516Y-103997423D01*
X148314696Y-104031213D01*
X148102361Y-104100615D01*
X147904212Y-104203765D01*
X147900079Y-104206868D01*
X147900076Y-104206870D01*
X147802351Y-104280244D01*
X147725570Y-104337893D01*
X147669142Y-104396942D01*
X147644888Y-104422322D01*
X147583364Y-104457752D01*
X147512451Y-104454295D01*
X147454665Y-104413049D01*
X147435812Y-104379501D01*
X147394372Y-104268961D01*
X147391220Y-104260553D01*
X147303866Y-104143997D01*
X147187310Y-104056643D01*
X147050921Y-104005513D01*
X146988739Y-103998758D01*
X146121336Y-103998758D01*
X146053215Y-103978756D01*
X146006722Y-103925100D01*
X145996618Y-103854826D01*
X146026112Y-103790246D01*
X146032241Y-103783663D01*
X147545499Y-102270405D01*
X147607811Y-102236379D01*
X147634594Y-102233500D01*
X159311800Y-102233500D01*
X159379921Y-102253502D01*
X159399147Y-102269843D01*
X159399420Y-102269540D01*
X159404332Y-102273963D01*
X159408747Y-102278866D01*
X159563248Y-102391118D01*
X159569276Y-102393802D01*
X159569278Y-102393803D01*
X159731681Y-102466109D01*
X159737712Y-102468794D01*
X159831113Y-102488647D01*
X159918056Y-102507128D01*
X159918061Y-102507128D01*
X159924513Y-102508500D01*
X160115487Y-102508500D01*
X160121939Y-102507128D01*
X160121944Y-102507128D01*
X160208888Y-102488647D01*
X160302288Y-102468794D01*
X160308319Y-102466109D01*
X160470722Y-102393803D01*
X160470724Y-102393802D01*
X160476752Y-102391118D01*
X160631253Y-102278866D01*
X160654091Y-102253502D01*
X160754621Y-102141852D01*
X160754622Y-102141851D01*
X160759040Y-102136944D01*
X160854527Y-101971556D01*
X160913542Y-101789928D01*
X160933504Y-101600000D01*
X160913542Y-101410072D01*
X160854527Y-101228444D01*
X160759040Y-101063056D01*
X160742881Y-101045109D01*
X160635675Y-100926045D01*
X160635674Y-100926044D01*
X160631253Y-100921134D01*
X160476752Y-100808882D01*
X160470724Y-100806198D01*
X160470722Y-100806197D01*
X160308319Y-100733891D01*
X160308318Y-100733891D01*
X160302288Y-100731206D01*
X160208888Y-100711353D01*
X160121944Y-100692872D01*
X160121939Y-100692872D01*
X160115487Y-100691500D01*
X159924513Y-100691500D01*
X159918061Y-100692872D01*
X159918056Y-100692872D01*
X159831112Y-100711353D01*
X159737712Y-100731206D01*
X159731682Y-100733891D01*
X159731681Y-100733891D01*
X159569278Y-100806197D01*
X159569276Y-100806198D01*
X159563248Y-100808882D01*
X159408747Y-100921134D01*
X159404332Y-100926037D01*
X159399420Y-100930460D01*
X159398295Y-100929211D01*
X159344986Y-100962051D01*
X159311800Y-100966500D01*
X147398763Y-100966500D01*
X147387579Y-100965973D01*
X147380091Y-100964299D01*
X147372168Y-100964548D01*
X147312033Y-100966438D01*
X147308075Y-100966500D01*
X147280144Y-100966500D01*
X147276229Y-100966995D01*
X147276225Y-100966995D01*
X147276167Y-100967003D01*
X147276138Y-100967006D01*
X147264296Y-100967939D01*
X147220110Y-100969327D01*
X147202744Y-100974372D01*
X147200658Y-100974978D01*
X147181306Y-100978986D01*
X147180610Y-100979074D01*
X147161203Y-100981526D01*
X147153834Y-100984443D01*
X147153832Y-100984444D01*
X147120097Y-100997800D01*
X147108869Y-101001645D01*
X147066407Y-101013982D01*
X147059585Y-101018016D01*
X147059579Y-101018019D01*
X147048968Y-101024294D01*
X147031218Y-101032990D01*
X147019756Y-101037528D01*
X147019751Y-101037531D01*
X147012383Y-101040448D01*
X147005968Y-101045109D01*
X146976625Y-101066427D01*
X146966707Y-101072943D01*
X146948019Y-101083995D01*
X146928637Y-101095458D01*
X146914313Y-101109782D01*
X146899281Y-101122621D01*
X146882893Y-101134528D01*
X146854712Y-101168593D01*
X146846722Y-101177373D01*
X139749500Y-108274595D01*
X139687188Y-108308621D01*
X139660405Y-108311500D01*
X139604513Y-108311500D01*
X139598061Y-108312872D01*
X139598056Y-108312872D01*
X139511112Y-108331353D01*
X139417712Y-108351206D01*
X139411682Y-108353891D01*
X139411681Y-108353891D01*
X139249278Y-108426197D01*
X139249276Y-108426198D01*
X139243248Y-108428882D01*
X139237907Y-108432762D01*
X139237906Y-108432763D01*
X139187843Y-108469136D01*
X139088747Y-108541134D01*
X139084326Y-108546044D01*
X139084325Y-108546045D01*
X138980130Y-108661766D01*
X138960960Y-108683056D01*
X138865473Y-108848444D01*
X138806458Y-109030072D01*
X138805768Y-109036633D01*
X138805768Y-109036635D01*
X138796587Y-109123989D01*
X138786496Y-109220000D01*
X121285780Y-109220000D01*
X121325888Y-108941429D01*
X121339467Y-108847116D01*
X121341683Y-108835573D01*
X121372826Y-108706248D01*
X121514795Y-108116714D01*
X122775251Y-108116714D01*
X122782006Y-108178896D01*
X122833136Y-108315285D01*
X122920490Y-108431841D01*
X123037046Y-108519195D01*
X123173435Y-108570325D01*
X123235617Y-108577080D01*
X125031885Y-108577080D01*
X125094067Y-108570325D01*
X125230456Y-108519195D01*
X125347012Y-108431841D01*
X125434366Y-108315285D01*
X125478549Y-108197428D01*
X125521191Y-108140664D01*
X125587752Y-108115964D01*
X125657101Y-108131172D01*
X125691768Y-108159160D01*
X125716969Y-108188253D01*
X125724331Y-108195463D01*
X125888185Y-108331496D01*
X125896632Y-108337411D01*
X126080507Y-108444859D01*
X126089793Y-108449309D01*
X126288752Y-108525283D01*
X126298650Y-108528159D01*
X126402001Y-108549186D01*
X126416050Y-108547990D01*
X126419751Y-108537645D01*
X126419751Y-108537097D01*
X126927751Y-108537097D01*
X126931815Y-108550939D01*
X126945229Y-108552973D01*
X126951935Y-108552114D01*
X126962013Y-108549972D01*
X127166006Y-108488771D01*
X127175593Y-108485013D01*
X127366846Y-108391319D01*
X127375696Y-108386044D01*
X127549079Y-108262372D01*
X127556951Y-108255719D01*
X127707803Y-108105392D01*
X127714481Y-108097545D01*
X127838754Y-107924600D01*
X127844064Y-107915763D01*
X127938421Y-107724847D01*
X127942220Y-107715252D01*
X128004128Y-107511490D01*
X128006306Y-107501417D01*
X128007737Y-107490542D01*
X128005526Y-107476358D01*
X127992368Y-107472580D01*
X126945866Y-107472580D01*
X126930627Y-107477055D01*
X126929422Y-107478445D01*
X126927751Y-107486128D01*
X126927751Y-108537097D01*
X126419751Y-108537097D01*
X126419751Y-106946465D01*
X126927751Y-106946465D01*
X126932226Y-106961704D01*
X126933616Y-106962909D01*
X126941299Y-106964580D01*
X127992095Y-106964580D01*
X128005626Y-106960607D01*
X128006931Y-106951527D01*
X127964965Y-106784455D01*
X127961645Y-106774704D01*
X127876723Y-106579394D01*
X127871856Y-106570319D01*
X127756177Y-106391506D01*
X127749887Y-106383337D01*
X127606557Y-106225820D01*
X127599024Y-106218795D01*
X127431890Y-106086802D01*
X127423303Y-106081097D01*
X127236868Y-105978179D01*
X127227456Y-105973949D01*
X127026710Y-105902860D01*
X127016739Y-105900226D01*
X126945588Y-105887552D01*
X126932291Y-105889012D01*
X126927751Y-105903569D01*
X126927751Y-106946465D01*
X126419751Y-106946465D01*
X126419751Y-105901682D01*
X126415833Y-105888338D01*
X126401557Y-105886351D01*
X126363075Y-105892240D01*
X126353039Y-105894631D01*
X126150619Y-105960792D01*
X126141110Y-105964789D01*
X125952214Y-106063122D01*
X125943489Y-106068616D01*
X125773184Y-106196485D01*
X125765477Y-106203328D01*
X125688229Y-106284164D01*
X125626705Y-106319594D01*
X125555793Y-106316137D01*
X125498006Y-106274891D01*
X125479153Y-106241343D01*
X125437518Y-106130283D01*
X125434366Y-106121875D01*
X125347012Y-106005319D01*
X125230456Y-105917965D01*
X125094067Y-105866835D01*
X125031885Y-105860080D01*
X123235617Y-105860080D01*
X123173435Y-105866835D01*
X123037046Y-105917965D01*
X122920490Y-106005319D01*
X122833136Y-106121875D01*
X122782006Y-106258264D01*
X122775251Y-106320446D01*
X122775251Y-108116714D01*
X121514795Y-108116714D01*
X121570313Y-107886173D01*
X121573476Y-107875238D01*
X121576538Y-107866205D01*
X121858006Y-107035659D01*
X121889807Y-106941823D01*
X121893760Y-106931636D01*
X122295873Y-106015253D01*
X122300441Y-106005910D01*
X122786431Y-105107935D01*
X122791447Y-105099473D01*
X123359348Y-104221514D01*
X123364663Y-104213925D01*
X124012368Y-103357840D01*
X124017857Y-103351083D01*
X124743174Y-102518773D01*
X124748742Y-102512787D01*
X125549319Y-101706277D01*
X125554893Y-101700995D01*
X125989304Y-101313689D01*
X126428214Y-100922372D01*
X126433724Y-100917736D01*
X127377324Y-100168959D01*
X127382767Y-100164875D01*
X127396594Y-100155073D01*
X128393883Y-99448062D01*
X128399218Y-99444481D01*
X129475234Y-98761561D01*
X129480474Y-98758411D01*
X129586832Y-98697946D01*
X130618588Y-98111384D01*
X130623719Y-98108622D01*
X131821143Y-97499414D01*
X131826175Y-97496993D01*
X133080127Y-96927486D01*
X133085059Y-96925371D01*
X134263093Y-96449761D01*
X134338984Y-96419121D01*
X134347756Y-96416112D01*
X134355114Y-96415112D01*
X134412289Y-96389612D01*
X134416386Y-96387872D01*
X134438711Y-96378858D01*
X134442587Y-96376608D01*
X134446619Y-96374636D01*
X134446638Y-96374675D01*
X134452505Y-96371675D01*
X134479939Y-96359439D01*
X134479941Y-96359438D01*
X134488140Y-96355781D01*
X134500481Y-96345302D01*
X134518771Y-96332383D01*
X134521795Y-96330627D01*
X134532782Y-96324249D01*
X134559682Y-96295966D01*
X134569424Y-96286758D01*
X134592324Y-96267312D01*
X134592325Y-96267311D01*
X134599168Y-96261500D01*
X134608074Y-96247976D01*
X134622005Y-96230438D01*
X134626979Y-96225208D01*
X134633164Y-96218705D01*
X134651045Y-96184010D01*
X134657810Y-96172441D01*
X134674331Y-96147350D01*
X134674333Y-96147345D01*
X134679271Y-96139846D01*
X134684021Y-96124371D01*
X134692471Y-96103627D01*
X134695779Y-96097208D01*
X134695779Y-96097207D01*
X134699890Y-96089231D01*
X134701596Y-96080425D01*
X134701599Y-96080417D01*
X134707318Y-96050899D01*
X134710563Y-96037898D01*
X134719377Y-96009181D01*
X134719378Y-96009176D01*
X134722010Y-96000600D01*
X134722225Y-95984416D01*
X134724514Y-95962134D01*
X134727595Y-95946232D01*
X134725295Y-95921608D01*
X134723966Y-95907372D01*
X134723431Y-95893987D01*
X134723437Y-95893569D01*
X134723436Y-95893555D01*
X134723501Y-95888691D01*
X134720191Y-95865393D01*
X134719486Y-95859400D01*
X134714884Y-95810138D01*
X134714050Y-95801205D01*
X134710742Y-95792866D01*
X134710025Y-95789874D01*
X134707804Y-95778217D01*
X134692361Y-95669531D01*
X134639865Y-95300079D01*
X134650085Y-95229823D01*
X134696667Y-95176245D01*
X134757930Y-95156532D01*
X135059695Y-95140507D01*
X135082387Y-95139302D01*
X135092595Y-95139174D01*
X135097164Y-95139302D01*
X135131210Y-95140256D01*
X135131212Y-95140256D01*
X135140178Y-95140507D01*
X135191834Y-95126960D01*
X135199334Y-95125236D01*
X135212496Y-95122632D01*
X135251749Y-95114867D01*
X135259712Y-95110723D01*
X135266101Y-95108481D01*
X135272385Y-95105834D01*
X135281070Y-95103556D01*
X135288765Y-95098933D01*
X135288768Y-95098932D01*
X135326849Y-95076055D01*
X135333564Y-95072296D01*
X135380960Y-95047633D01*
X135387435Y-95041426D01*
X135392960Y-95037465D01*
X135398239Y-95033168D01*
X135405930Y-95028547D01*
X135412018Y-95021950D01*
X135412021Y-95021948D01*
X135442152Y-94989300D01*
X135447552Y-94983796D01*
X135461887Y-94970055D01*
X135474287Y-94958168D01*
X135479628Y-94953048D01*
X135479629Y-94953047D01*
X135486108Y-94946836D01*
X135490584Y-94939056D01*
X135494768Y-94933712D01*
X135498628Y-94928106D01*
X135504717Y-94921509D01*
X135528464Y-94873682D01*
X135532101Y-94866888D01*
X135554262Y-94828364D01*
X135554263Y-94828361D01*
X135558740Y-94820579D01*
X135560852Y-94811856D01*
X135563363Y-94805566D01*
X135565499Y-94799089D01*
X135569492Y-94791047D01*
X135576786Y-94750120D01*
X135578863Y-94738468D01*
X135580446Y-94730930D01*
X135590903Y-94687736D01*
X135590903Y-94687734D01*
X135593015Y-94679011D01*
X135591713Y-94651292D01*
X135590596Y-94627505D01*
X135590487Y-94618835D01*
X135599102Y-94225450D01*
X135606195Y-93901542D01*
X135606197Y-93901508D01*
X135606207Y-93901453D01*
X135607027Y-93863541D01*
X135607073Y-93861443D01*
X135628559Y-93793776D01*
X135683217Y-93748466D01*
X135733043Y-93738196D01*
X138366774Y-93738196D01*
X138434895Y-93758198D01*
G37*
%TD.AperFunction*%
%TA.AperFunction,Conductor*%
G36*
X147613755Y-106270384D02*
G01*
X147648422Y-106298372D01*
X147676855Y-106331196D01*
X147848731Y-106473890D01*
X147919200Y-106515069D01*
X147922050Y-106516734D01*
X147970774Y-106568372D01*
X147983845Y-106638155D01*
X147957114Y-106703927D01*
X147916660Y-106737285D01*
X147904212Y-106743765D01*
X147900079Y-106746868D01*
X147900076Y-106746870D01*
X147814414Y-106811187D01*
X147725570Y-106877893D01*
X147571234Y-107039396D01*
X147568325Y-107043661D01*
X147568319Y-107043669D01*
X147517628Y-107117979D01*
X147463809Y-107196876D01*
X147463503Y-107197324D01*
X147408592Y-107242327D01*
X147338067Y-107250498D01*
X147274320Y-107219244D01*
X147253623Y-107194760D01*
X147173031Y-107070184D01*
X147166741Y-107062015D01*
X147022898Y-106903935D01*
X146991846Y-106840089D01*
X147000240Y-106769591D01*
X147045417Y-106714822D01*
X147071861Y-106701153D01*
X147178902Y-106661025D01*
X147187310Y-106657873D01*
X147303866Y-106570519D01*
X147391220Y-106453963D01*
X147417809Y-106383037D01*
X147435203Y-106336640D01*
X147477845Y-106279876D01*
X147544407Y-106255176D01*
X147613755Y-106270384D01*
G37*
%TD.AperFunction*%
%TD*%
M02*
