%TF.GenerationSoftware,KiCad,Pcbnew,(6.0.4-0)*%
%TF.CreationDate,2022-05-11T22:13:46-04:00*%
%TF.ProjectId,earth_base,65617274-685f-4626-9173-652e6b696361,rev?*%
%TF.SameCoordinates,Original*%
%TF.FileFunction,Copper,L2,Bot*%
%TF.FilePolarity,Positive*%
%FSLAX46Y46*%
G04 Gerber Fmt 4.6, Leading zero omitted, Abs format (unit mm)*
G04 Created by KiCad (PCBNEW (6.0.4-0)) date 2022-05-11 22:13:46*
%MOMM*%
%LPD*%
G01*
G04 APERTURE LIST*
G04 Aperture macros list*
%AMRoundRect*
0 Rectangle with rounded corners*
0 $1 Rounding radius*
0 $2 $3 $4 $5 $6 $7 $8 $9 X,Y pos of 4 corners*
0 Add a 4 corners polygon primitive as box body*
4,1,4,$2,$3,$4,$5,$6,$7,$8,$9,$2,$3,0*
0 Add four circle primitives for the rounded corners*
1,1,$1+$1,$2,$3*
1,1,$1+$1,$4,$5*
1,1,$1+$1,$6,$7*
1,1,$1+$1,$8,$9*
0 Add four rect primitives between the rounded corners*
20,1,$1+$1,$2,$3,$4,$5,0*
20,1,$1+$1,$4,$5,$6,$7,0*
20,1,$1+$1,$6,$7,$8,$9,0*
20,1,$1+$1,$8,$9,$2,$3,0*%
G04 Aperture macros list end*
%ADD10C,0.300000*%
%TA.AperFunction,NonConductor*%
%ADD11C,0.300000*%
%TD*%
%TA.AperFunction,SMDPad,CuDef*%
%ADD12R,0.800000X0.800000*%
%TD*%
%TA.AperFunction,ComponentPad*%
%ADD13R,1.700000X1.700000*%
%TD*%
%TA.AperFunction,ComponentPad*%
%ADD14O,1.700000X1.700000*%
%TD*%
%TA.AperFunction,ComponentPad*%
%ADD15C,1.700000*%
%TD*%
%TA.AperFunction,SMDPad,CuDef*%
%ADD16RoundRect,0.250000X0.262500X0.450000X-0.262500X0.450000X-0.262500X-0.450000X0.262500X-0.450000X0*%
%TD*%
%TA.AperFunction,SMDPad,CuDef*%
%ADD17RoundRect,0.250000X-0.262500X-0.450000X0.262500X-0.450000X0.262500X0.450000X-0.262500X0.450000X0*%
%TD*%
%TA.AperFunction,Conductor*%
%ADD18C,0.254000*%
%TD*%
%TA.AperFunction,Conductor*%
%ADD19C,0.250000*%
%TD*%
G04 APERTURE END LIST*
D10*
D11*
X134326158Y-110965695D02*
X133969015Y-111965695D01*
X133611872Y-110965695D01*
X132754729Y-110465695D02*
X132611872Y-110465695D01*
X132469015Y-110537124D01*
X132397586Y-110608552D01*
X132326158Y-110751409D01*
X132254729Y-111037124D01*
X132254729Y-111394266D01*
X132326158Y-111679981D01*
X132397586Y-111822838D01*
X132469015Y-111894266D01*
X132611872Y-111965695D01*
X132754729Y-111965695D01*
X132897586Y-111894266D01*
X132969015Y-111822838D01*
X133040444Y-111679981D01*
X133111872Y-111394266D01*
X133111872Y-111037124D01*
X133040444Y-110751409D01*
X132969015Y-110608552D01*
X132897586Y-110537124D01*
X132754729Y-110465695D01*
X131683301Y-110608552D02*
X131611872Y-110537124D01*
X131469015Y-110465695D01*
X131111872Y-110465695D01*
X130969015Y-110537124D01*
X130897586Y-110608552D01*
X130826158Y-110751409D01*
X130826158Y-110894266D01*
X130897586Y-111108552D01*
X131754729Y-111965695D01*
X130826158Y-111965695D01*
D12*
%TO.P,D3,1,K*%
%TO.N,GND*%
X143558666Y-94506802D03*
%TO.P,D3,2,A*%
%TO.N,Net-(D3-Pad2)*%
X142058666Y-94506802D03*
%TD*%
D13*
%TO.P,J1,1,Pin_1*%
%TO.N,VCC*%
X124133751Y-107218580D03*
D14*
%TO.P,J1,2,Pin_2*%
%TO.N,GND*%
X126673751Y-107218580D03*
%TO.P,J1,3,Pin_3*%
%TO.N,Net-(J1-Pad3)*%
X147863751Y-95218580D03*
D15*
%TO.P,J1,4,Pin_4*%
%TO.N,Net-(J1-Pad4)*%
X150403751Y-95218580D03*
D14*
%TO.P,J1,5,Pin_5*%
%TO.N,Net-(J1-Pad5)*%
X171593751Y-107218580D03*
%TO.P,J1,6,Pin_6*%
%TO.N,Net-(J1-Pad6)*%
X174133751Y-107218580D03*
%TD*%
D13*
%TO.P,J2,1,Pin_1*%
%TO.N,VCC*%
X146090605Y-105357258D03*
D14*
%TO.P,J2,2,Pin_2*%
%TO.N,GND*%
X146090605Y-107897258D03*
%TO.P,J2,3,Pin_3*%
%TO.N,Net-(J1-Pad3)*%
X148630605Y-105357258D03*
%TO.P,J2,4,Pin_4*%
%TO.N,Net-(J1-Pad4)*%
X148630605Y-107897258D03*
%TO.P,J2,5,Pin_5*%
%TO.N,Net-(J1-Pad5)*%
X151170605Y-105357258D03*
%TO.P,J2,6,Pin_6*%
%TO.N,Net-(J1-Pad6)*%
X151170605Y-107897258D03*
%TD*%
D12*
%TO.P,D4,1,K*%
%TO.N,GND*%
X125414385Y-102822981D03*
%TO.P,D4,2,A*%
%TO.N,Net-(D4-Pad2)*%
X123914385Y-102822981D03*
%TD*%
D16*
%TO.P,R3,1*%
%TO.N,Net-(D3-Pad2)*%
X140915124Y-98691882D03*
%TO.P,R3,2*%
%TO.N,VCC*%
X139090124Y-98691882D03*
%TD*%
%TO.P,R4,1*%
%TO.N,Net-(D4-Pad2)*%
X129298964Y-102822981D03*
%TO.P,R4,2*%
%TO.N,VCC*%
X127473964Y-102822981D03*
%TD*%
D12*
%TO.P,D1,1,K*%
%TO.N,GND*%
X173842320Y-102045843D03*
%TO.P,D1,2,A*%
%TO.N,Net-(D1-Pad2)*%
X172342320Y-102045843D03*
%TD*%
D17*
%TO.P,R2,1*%
%TO.N,Net-(D2-Pad2)*%
X160890875Y-100287059D03*
%TO.P,R2,2*%
%TO.N,VCC*%
X162715875Y-100287059D03*
%TD*%
D12*
%TO.P,D2,1,K*%
%TO.N,GND*%
X157992485Y-94998585D03*
%TO.P,D2,2,A*%
%TO.N,Net-(D2-Pad2)*%
X156492485Y-94998585D03*
%TD*%
D16*
%TO.P,R1,1*%
%TO.N,Net-(D1-Pad2)*%
X169628309Y-103641020D03*
%TO.P,R1,2*%
%TO.N,VCC*%
X167803309Y-103641020D03*
%TD*%
D18*
%TO.N,Net-(D1-Pad2)*%
X169628309Y-103641020D02*
X171223486Y-102045843D01*
X171223486Y-102045843D02*
X172342320Y-102045843D01*
%TO.N,Net-(D2-Pad2)*%
X156492485Y-94998585D02*
X156492485Y-95888669D01*
X156492485Y-95888669D02*
X160890875Y-100287059D01*
D19*
%TO.N,Net-(D4-Pad2)*%
X129298964Y-102822981D02*
X128274444Y-101798461D01*
X128274444Y-101798461D02*
X124938905Y-101798461D01*
X124938905Y-101798461D02*
X123914385Y-102822981D01*
%TO.N,Net-(D3-Pad2)*%
X140915124Y-98691882D02*
X142058666Y-97548340D01*
X142058666Y-97548340D02*
X142058666Y-94506802D01*
D18*
%TO.N,VCC*%
X167803309Y-103641020D02*
X170204358Y-106042069D01*
X125995073Y-105357258D02*
X146090605Y-105357258D01*
X172821514Y-109220000D02*
X148289508Y-109220000D01*
X124133751Y-107218580D02*
X125995073Y-105357258D01*
X175310262Y-106731252D02*
X175310262Y-107705908D01*
X147320000Y-106586653D02*
X146090605Y-105357258D01*
X175310262Y-107705908D02*
X174621079Y-108395091D01*
X127161079Y-104191252D02*
X124133751Y-107218580D01*
X148289508Y-109220000D02*
X147320000Y-108250492D01*
X174621079Y-106042069D02*
X175310262Y-106731252D01*
X170204358Y-106042069D02*
X174621079Y-106042069D01*
X145755500Y-105357258D02*
X146090605Y-105357258D01*
X147320000Y-108250492D02*
X147320000Y-106586653D01*
X162715875Y-100287059D02*
X166069836Y-103641020D01*
X166069836Y-103641020D02*
X167803309Y-103641020D01*
X174621079Y-108395091D02*
X173646423Y-108395091D01*
X173646423Y-108395091D02*
X172821514Y-109220000D01*
X127161079Y-103135866D02*
X127161079Y-104191252D01*
X127473964Y-102822981D02*
X127161079Y-103135866D01*
X139090124Y-98691882D02*
X145755500Y-105357258D01*
%TO.N,Net-(J1-Pad3)*%
X147863751Y-104590404D02*
X148630605Y-105357258D01*
X147863751Y-95218580D02*
X147863751Y-104590404D01*
%TO.N,Net-(J1-Pad4)*%
X149994094Y-106533769D02*
X148630605Y-107897258D01*
X150403751Y-95218580D02*
X149994094Y-95628237D01*
X149994094Y-95628237D02*
X149994094Y-106533769D01*
%TO.N,Net-(J1-Pad5)*%
X171593751Y-107218580D02*
X153031927Y-107218580D01*
X153031927Y-107218580D02*
X151170605Y-105357258D01*
%TO.N,Net-(J1-Pad6)*%
X172605073Y-108747258D02*
X152020605Y-108747258D01*
X174133751Y-107218580D02*
X172605073Y-108747258D01*
X152020605Y-108747258D02*
X151170605Y-107897258D01*
%TD*%
%TA.AperFunction,Conductor*%
%TO.N,GND*%
G36*
X136927898Y-92773018D02*
G01*
X136974391Y-92826674D01*
X136985778Y-92879017D01*
X136985778Y-93599837D01*
X136985455Y-93608857D01*
X136981829Y-93659380D01*
X136992479Y-93708661D01*
X136994049Y-93717414D01*
X136999924Y-93758440D01*
X136999925Y-93758444D01*
X137001198Y-93767332D01*
X137004915Y-93775506D01*
X137007434Y-93784121D01*
X137007300Y-93784160D01*
X137007449Y-93784610D01*
X137007580Y-93784561D01*
X137010699Y-93792974D01*
X137012596Y-93801751D01*
X137016879Y-93809641D01*
X137036655Y-93846073D01*
X137040616Y-93854027D01*
X137061486Y-93899927D01*
X137067346Y-93906729D01*
X137072182Y-93914290D01*
X137072065Y-93914365D01*
X137072336Y-93914757D01*
X137072447Y-93914674D01*
X137077803Y-93921874D01*
X137082086Y-93929764D01*
X137088410Y-93936133D01*
X137117614Y-93965548D01*
X137123652Y-93972075D01*
X137150706Y-94003473D01*
X137150709Y-94003475D01*
X137156565Y-94010272D01*
X137164096Y-94015154D01*
X137170860Y-94021054D01*
X137170769Y-94021158D01*
X137171141Y-94021460D01*
X137171224Y-94021350D01*
X137178391Y-94026762D01*
X137184712Y-94033128D01*
X137192564Y-94037463D01*
X137192566Y-94037465D01*
X137228845Y-94057496D01*
X137236474Y-94062067D01*
X137271260Y-94084615D01*
X137271264Y-94084617D01*
X137278793Y-94089497D01*
X137287393Y-94092069D01*
X137295539Y-94095833D01*
X137295481Y-94095959D01*
X137295925Y-94096146D01*
X137295974Y-94096015D01*
X137304367Y-94099196D01*
X137312223Y-94103533D01*
X137335332Y-94108701D01*
X137361419Y-94114535D01*
X137370022Y-94116780D01*
X137418344Y-94131231D01*
X137427317Y-94131286D01*
X137436199Y-94132613D01*
X137436179Y-94132749D01*
X137436648Y-94132803D01*
X137436659Y-94132664D01*
X137445610Y-94133362D01*
X137454370Y-94135321D01*
X137463326Y-94134743D01*
X137463329Y-94134743D01*
X137496536Y-94132599D01*
X137504682Y-94132073D01*
X137513563Y-94131813D01*
X137563999Y-94132121D01*
X137572630Y-94129654D01*
X137572632Y-94129654D01*
X137616537Y-94117106D01*
X137623794Y-94115263D01*
X138812674Y-93850723D01*
X138815935Y-93850042D01*
X140038025Y-93611836D01*
X140041269Y-93611248D01*
X141284464Y-93402530D01*
X141287693Y-93402031D01*
X141380500Y-93388914D01*
X141436736Y-93380966D01*
X141506984Y-93391238D01*
X141560529Y-93437859D01*
X141566937Y-93459877D01*
X141566145Y-93454370D01*
X141595639Y-93389790D01*
X141655365Y-93351406D01*
X141673230Y-93347542D01*
X141795495Y-93330262D01*
X142551073Y-93223475D01*
X142554211Y-93223072D01*
X143836580Y-93075402D01*
X143839734Y-93075080D01*
X145139886Y-92959010D01*
X145143082Y-92958766D01*
X146459945Y-92874992D01*
X146463096Y-92874831D01*
X147020515Y-92853589D01*
X147795638Y-92824050D01*
X147798838Y-92823969D01*
X149144800Y-92806902D01*
X149148385Y-92806908D01*
X150645748Y-92830519D01*
X150649718Y-92830644D01*
X151383699Y-92865381D01*
X152128076Y-92900611D01*
X152131976Y-92900856D01*
X153590702Y-93015963D01*
X153594627Y-93016335D01*
X155032086Y-93175332D01*
X155036002Y-93175827D01*
X155317539Y-93215957D01*
X156450744Y-93377484D01*
X156454661Y-93378105D01*
X157316317Y-93528734D01*
X157845128Y-93621178D01*
X157848989Y-93621915D01*
X158506757Y-93758440D01*
X159213701Y-93905172D01*
X159217605Y-93906048D01*
X160554774Y-94228188D01*
X160558676Y-94229194D01*
X160750098Y-94281840D01*
X161866987Y-94589014D01*
X161870854Y-94590145D01*
X163148607Y-94986345D01*
X163152495Y-94987620D01*
X164398251Y-95418968D01*
X164402131Y-95420385D01*
X165465281Y-95828409D01*
X165614217Y-95885569D01*
X165618149Y-95887154D01*
X166795055Y-96384908D01*
X166798972Y-96386644D01*
X167137758Y-96543839D01*
X167939100Y-96915657D01*
X167943073Y-96917586D01*
X168413491Y-97156240D01*
X169044932Y-97476586D01*
X169048844Y-97478659D01*
X170110871Y-98066337D01*
X170114877Y-98068651D01*
X171135474Y-98683651D01*
X171139478Y-98686170D01*
X172117102Y-99327161D01*
X172121186Y-99329955D01*
X173054302Y-99995586D01*
X173058414Y-99998647D01*
X173856237Y-100618237D01*
X173945545Y-100687594D01*
X173949679Y-100690947D01*
X174215112Y-100915681D01*
X174254176Y-100974964D01*
X174254988Y-101045956D01*
X174217290Y-101106117D01*
X174153051Y-101136347D01*
X174133694Y-101137843D01*
X174114435Y-101137843D01*
X174099196Y-101142318D01*
X174097991Y-101143708D01*
X174096320Y-101151391D01*
X174096320Y-101773728D01*
X174100795Y-101788967D01*
X174102185Y-101790172D01*
X174109868Y-101791843D01*
X174732204Y-101791843D01*
X174747443Y-101787368D01*
X174748648Y-101785978D01*
X174750319Y-101778295D01*
X174750319Y-101653819D01*
X174770321Y-101585698D01*
X174823977Y-101539205D01*
X174894251Y-101529101D01*
X174961885Y-101561329D01*
X175131588Y-101718327D01*
X175584038Y-102136903D01*
X175588160Y-102140896D01*
X176312280Y-102875228D01*
X176328299Y-102891473D01*
X176332434Y-102895872D01*
X176430651Y-103005520D01*
X177020645Y-103664183D01*
X177024743Y-103668996D01*
X177659635Y-104453650D01*
X177663665Y-104458907D01*
X177932630Y-104829576D01*
X178211942Y-105214505D01*
X178243900Y-105258548D01*
X178247820Y-105264276D01*
X178739755Y-106027387D01*
X178772037Y-106077465D01*
X178775798Y-106083685D01*
X179187358Y-106811187D01*
X179242775Y-106909147D01*
X179246321Y-106915884D01*
X179654368Y-107751377D01*
X179654803Y-107752268D01*
X179658069Y-107759528D01*
X179834820Y-108188253D01*
X180006881Y-108605603D01*
X180009794Y-108613390D01*
X180151049Y-109032550D01*
X180261288Y-109359672D01*
X180297775Y-109467945D01*
X180300253Y-109476224D01*
X180526301Y-110338293D01*
X180528260Y-110347017D01*
X180584904Y-110648922D01*
X180674673Y-111127377D01*
X180691223Y-111215589D01*
X180692588Y-111224681D01*
X180772728Y-111934537D01*
X180791293Y-112098979D01*
X180791998Y-112108361D01*
X180801239Y-112353140D01*
X180783821Y-112421966D01*
X180731958Y-112470450D01*
X180675315Y-112483893D01*
X135324928Y-112479031D01*
X135256812Y-112459022D01*
X135210325Y-112405361D01*
X135198944Y-112353031D01*
X135198944Y-110536544D01*
X177571385Y-110536544D01*
X177580953Y-110743265D01*
X177582357Y-110749090D01*
X177582357Y-110749091D01*
X177626800Y-110933500D01*
X177629438Y-110944448D01*
X177715091Y-111132832D01*
X177834822Y-111301621D01*
X177839145Y-111305759D01*
X177839149Y-111305764D01*
X177945767Y-111407828D01*
X177984309Y-111444724D01*
X177989344Y-111447975D01*
X178153123Y-111553726D01*
X178153126Y-111553727D01*
X178158160Y-111556978D01*
X178350101Y-111634333D01*
X178355982Y-111635481D01*
X178355987Y-111635483D01*
X178548761Y-111673129D01*
X178548764Y-111673129D01*
X178553207Y-111673997D01*
X178558646Y-111674263D01*
X178711221Y-111674263D01*
X178865524Y-111659541D01*
X178900893Y-111649165D01*
X179058344Y-111602974D01*
X179058346Y-111602973D01*
X179064097Y-111601286D01*
X179103951Y-111580760D01*
X179242742Y-111509279D01*
X179242745Y-111509277D01*
X179248073Y-111506533D01*
X179410811Y-111378700D01*
X179546441Y-111222400D01*
X179650069Y-111043273D01*
X179717955Y-110847782D01*
X179718980Y-110840717D01*
X179746788Y-110648922D01*
X179746788Y-110648919D01*
X179747649Y-110642982D01*
X179738081Y-110436261D01*
X179689596Y-110235078D01*
X179654861Y-110158681D01*
X179606423Y-110052149D01*
X179603943Y-110046694D01*
X179484212Y-109877905D01*
X179479889Y-109873767D01*
X179479885Y-109873762D01*
X179339055Y-109738947D01*
X179334725Y-109734802D01*
X179280935Y-109700070D01*
X179165911Y-109625800D01*
X179165908Y-109625799D01*
X179160874Y-109622548D01*
X178968933Y-109545193D01*
X178963052Y-109544045D01*
X178963047Y-109544043D01*
X178770273Y-109506397D01*
X178770270Y-109506397D01*
X178765827Y-109505529D01*
X178760388Y-109505263D01*
X178607813Y-109505263D01*
X178453510Y-109519985D01*
X178447756Y-109521673D01*
X178260690Y-109576552D01*
X178260688Y-109576553D01*
X178254937Y-109578240D01*
X178249604Y-109580986D01*
X178249603Y-109580987D01*
X178076292Y-109670247D01*
X178076289Y-109670249D01*
X178070961Y-109672993D01*
X177908223Y-109800826D01*
X177904292Y-109805356D01*
X177904291Y-109805357D01*
X177859079Y-109857459D01*
X177772593Y-109957126D01*
X177668965Y-110136253D01*
X177601079Y-110331744D01*
X177600219Y-110337677D01*
X177600218Y-110337680D01*
X177576015Y-110504612D01*
X177571385Y-110536544D01*
X135198944Y-110536544D01*
X135198944Y-109346124D01*
X129881944Y-109346124D01*
X129881944Y-112352433D01*
X129861942Y-112420554D01*
X129808286Y-112467047D01*
X129755930Y-112478433D01*
X119329408Y-112477316D01*
X117586993Y-112477129D01*
X117518875Y-112457120D01*
X117472388Y-112403459D01*
X117461132Y-112356737D01*
X117442497Y-111938480D01*
X117442489Y-111927450D01*
X117484592Y-110949910D01*
X117485299Y-110933497D01*
X117486226Y-110922735D01*
X117500631Y-110811540D01*
X117897235Y-110811540D01*
X117906803Y-111018261D01*
X117908207Y-111024086D01*
X117908207Y-111024087D01*
X117934415Y-111132832D01*
X117955288Y-111219444D01*
X117957770Y-111224902D01*
X117957771Y-111224906D01*
X117994535Y-111305764D01*
X118040941Y-111407828D01*
X118160672Y-111576617D01*
X118164995Y-111580755D01*
X118164999Y-111580760D01*
X118262376Y-111673978D01*
X118310159Y-111719720D01*
X118315194Y-111722971D01*
X118478973Y-111828722D01*
X118478976Y-111828723D01*
X118484010Y-111831974D01*
X118675951Y-111909329D01*
X118681832Y-111910477D01*
X118681837Y-111910479D01*
X118874611Y-111948125D01*
X118874614Y-111948125D01*
X118879057Y-111948993D01*
X118884496Y-111949259D01*
X119037071Y-111949259D01*
X119191374Y-111934537D01*
X119197128Y-111932849D01*
X119384194Y-111877970D01*
X119384196Y-111877969D01*
X119389947Y-111876282D01*
X119471624Y-111834216D01*
X119568592Y-111784275D01*
X119568595Y-111784273D01*
X119573923Y-111781529D01*
X119736661Y-111653696D01*
X119752466Y-111635483D01*
X119868359Y-111501927D01*
X119872291Y-111497396D01*
X119975919Y-111318269D01*
X120043805Y-111122778D01*
X120045857Y-111108630D01*
X120072638Y-110923918D01*
X120072638Y-110923915D01*
X120073499Y-110917978D01*
X120063931Y-110711257D01*
X120015446Y-110510074D01*
X119979236Y-110430433D01*
X119941308Y-110347017D01*
X119929793Y-110321690D01*
X119810062Y-110152901D01*
X119805739Y-110148763D01*
X119805735Y-110148758D01*
X119664905Y-110013943D01*
X119660575Y-110009798D01*
X119587046Y-109962321D01*
X119491761Y-109900796D01*
X119491758Y-109900795D01*
X119486724Y-109897544D01*
X119294783Y-109820189D01*
X119288902Y-109819041D01*
X119288897Y-109819039D01*
X119096123Y-109781393D01*
X119096120Y-109781393D01*
X119091677Y-109780525D01*
X119086238Y-109780259D01*
X118933663Y-109780259D01*
X118795581Y-109793433D01*
X118787630Y-109794192D01*
X118779360Y-109794981D01*
X118773606Y-109796669D01*
X118586540Y-109851548D01*
X118586538Y-109851549D01*
X118580787Y-109853236D01*
X118575454Y-109855982D01*
X118575453Y-109855983D01*
X118402142Y-109945243D01*
X118402139Y-109945245D01*
X118396811Y-109947989D01*
X118234073Y-110075822D01*
X118230142Y-110080352D01*
X118230141Y-110080353D01*
X118186143Y-110131057D01*
X118098443Y-110232122D01*
X117994815Y-110411249D01*
X117926929Y-110606740D01*
X117926069Y-110612673D01*
X117926068Y-110612676D01*
X117907134Y-110743265D01*
X117897235Y-110811540D01*
X117500631Y-110811540D01*
X117613308Y-109941746D01*
X117615118Y-109931268D01*
X117824517Y-108964201D01*
X117827124Y-108954173D01*
X117949515Y-108552114D01*
X118082055Y-108116714D01*
X122775251Y-108116714D01*
X122782006Y-108178896D01*
X122833136Y-108315285D01*
X122920490Y-108431841D01*
X123037046Y-108519195D01*
X123173435Y-108570325D01*
X123235617Y-108577080D01*
X125031885Y-108577080D01*
X125094067Y-108570325D01*
X125230456Y-108519195D01*
X125347012Y-108431841D01*
X125434366Y-108315285D01*
X125464783Y-108234148D01*
X125478549Y-108197428D01*
X125521191Y-108140664D01*
X125587752Y-108115964D01*
X125657101Y-108131172D01*
X125691768Y-108159160D01*
X125716969Y-108188253D01*
X125724331Y-108195463D01*
X125888185Y-108331496D01*
X125896632Y-108337411D01*
X126080507Y-108444859D01*
X126089793Y-108449309D01*
X126288752Y-108525283D01*
X126298650Y-108528159D01*
X126402001Y-108549186D01*
X126416050Y-108547990D01*
X126419751Y-108537645D01*
X126419751Y-108537097D01*
X126927751Y-108537097D01*
X126931815Y-108550939D01*
X126945229Y-108552973D01*
X126951935Y-108552114D01*
X126962013Y-108549972D01*
X127166006Y-108488771D01*
X127175593Y-108485013D01*
X127366846Y-108391319D01*
X127375696Y-108386044D01*
X127549079Y-108262372D01*
X127556951Y-108255719D01*
X127647762Y-108165224D01*
X144758862Y-108165224D01*
X144789170Y-108299704D01*
X144792250Y-108309533D01*
X144872375Y-108506861D01*
X144877018Y-108516052D01*
X144988299Y-108697646D01*
X144994382Y-108705957D01*
X145133818Y-108866925D01*
X145141185Y-108874141D01*
X145305039Y-109010174D01*
X145313486Y-109016089D01*
X145497361Y-109123537D01*
X145506647Y-109127987D01*
X145705606Y-109203961D01*
X145715504Y-109206837D01*
X145818855Y-109227864D01*
X145832904Y-109226668D01*
X145836605Y-109216323D01*
X145836605Y-108169373D01*
X145832130Y-108154134D01*
X145830740Y-108152929D01*
X145823057Y-108151258D01*
X144773830Y-108151258D01*
X144760299Y-108155231D01*
X144758862Y-108165224D01*
X127647762Y-108165224D01*
X127707803Y-108105392D01*
X127714481Y-108097545D01*
X127838754Y-107924600D01*
X127844064Y-107915763D01*
X127938421Y-107724847D01*
X127942220Y-107715252D01*
X128004128Y-107511490D01*
X128006306Y-107501417D01*
X128007737Y-107490542D01*
X128005526Y-107476358D01*
X127992368Y-107472580D01*
X126945866Y-107472580D01*
X126930627Y-107477055D01*
X126929422Y-107478445D01*
X126927751Y-107486128D01*
X126927751Y-108537097D01*
X126419751Y-108537097D01*
X126419751Y-107090580D01*
X126439753Y-107022459D01*
X126493409Y-106975966D01*
X126545751Y-106964580D01*
X127992095Y-106964580D01*
X128005626Y-106960607D01*
X128006931Y-106951527D01*
X127964965Y-106784455D01*
X127961645Y-106774704D01*
X127876723Y-106579394D01*
X127871856Y-106570319D01*
X127756177Y-106391506D01*
X127749887Y-106383337D01*
X127606557Y-106225820D01*
X127599027Y-106218798D01*
X127597559Y-106217639D01*
X127597121Y-106217021D01*
X127595239Y-106215266D01*
X127595601Y-106214878D01*
X127556497Y-106159721D01*
X127553267Y-106088798D01*
X127588893Y-106027387D01*
X127652065Y-105994986D01*
X127675653Y-105992758D01*
X144606105Y-105992758D01*
X144674226Y-106012760D01*
X144720719Y-106066416D01*
X144732105Y-106118758D01*
X144732105Y-106255392D01*
X144738860Y-106317574D01*
X144789990Y-106453963D01*
X144877344Y-106570519D01*
X144993900Y-106657873D01*
X145002309Y-106661025D01*
X145002310Y-106661026D01*
X145111565Y-106701984D01*
X145168330Y-106744625D01*
X145193030Y-106811187D01*
X145177823Y-106880536D01*
X145158430Y-106907017D01*
X145035195Y-107035975D01*
X145028709Y-107043985D01*
X144908703Y-107219907D01*
X144903605Y-107228881D01*
X144813943Y-107422041D01*
X144810380Y-107431728D01*
X144754994Y-107631441D01*
X144756517Y-107639865D01*
X144768897Y-107643258D01*
X146218605Y-107643258D01*
X146286726Y-107663260D01*
X146333219Y-107716916D01*
X146344605Y-107769258D01*
X146344605Y-109215775D01*
X146348669Y-109229617D01*
X146362083Y-109231651D01*
X146368789Y-109230792D01*
X146378867Y-109228650D01*
X146582860Y-109167449D01*
X146592447Y-109163691D01*
X146783700Y-109069997D01*
X146792550Y-109064722D01*
X146964248Y-108942251D01*
X147031321Y-108918977D01*
X147100330Y-108935661D01*
X147126511Y-108955735D01*
X147784253Y-109613477D01*
X147791830Y-109621803D01*
X147795955Y-109628303D01*
X147801733Y-109633729D01*
X147801734Y-109633730D01*
X147845789Y-109675100D01*
X147848631Y-109677855D01*
X147868414Y-109697638D01*
X147871622Y-109700126D01*
X147880651Y-109707837D01*
X147913002Y-109738217D01*
X147919951Y-109742037D01*
X147930837Y-109748022D01*
X147947361Y-109758876D01*
X147963441Y-109771349D01*
X147984031Y-109780259D01*
X148004158Y-109788969D01*
X148014819Y-109794192D01*
X148046755Y-109811749D01*
X148046760Y-109811751D01*
X148053705Y-109815569D01*
X148061379Y-109817539D01*
X148061386Y-109817542D01*
X148073421Y-109820632D01*
X148092126Y-109827036D01*
X148103521Y-109831967D01*
X148110800Y-109835117D01*
X148125909Y-109837510D01*
X148154635Y-109842060D01*
X148166248Y-109844465D01*
X148209226Y-109855500D01*
X148229573Y-109855500D01*
X148249285Y-109857051D01*
X148269387Y-109860235D01*
X148277279Y-109859489D01*
X148313564Y-109856059D01*
X148325422Y-109855500D01*
X172742494Y-109855500D01*
X172753728Y-109856030D01*
X172761233Y-109857708D01*
X172829526Y-109855562D01*
X172833483Y-109855500D01*
X172861497Y-109855500D01*
X172865422Y-109855004D01*
X172865423Y-109855004D01*
X172865518Y-109854992D01*
X172877363Y-109854059D01*
X172907184Y-109853122D01*
X172913796Y-109852914D01*
X172913797Y-109852914D01*
X172921719Y-109852665D01*
X172941263Y-109846987D01*
X172960626Y-109842977D01*
X172972954Y-109841420D01*
X172972956Y-109841420D01*
X172980813Y-109840427D01*
X172988177Y-109837511D01*
X172988182Y-109837510D01*
X173022070Y-109824093D01*
X173033299Y-109820248D01*
X173049979Y-109815402D01*
X173075907Y-109807869D01*
X173082734Y-109803831D01*
X173082737Y-109803830D01*
X173093420Y-109797512D01*
X173111178Y-109788812D01*
X173122729Y-109784239D01*
X173122735Y-109784235D01*
X173130102Y-109781319D01*
X173139491Y-109774498D01*
X173166002Y-109755236D01*
X173175924Y-109748719D01*
X173207282Y-109730174D01*
X173207286Y-109730171D01*
X173214112Y-109726134D01*
X173228496Y-109711750D01*
X173243530Y-109698909D01*
X173253587Y-109691602D01*
X173260001Y-109686942D01*
X173288292Y-109652744D01*
X173296281Y-109643965D01*
X173872750Y-109067496D01*
X173935062Y-109033470D01*
X173961845Y-109030591D01*
X174542059Y-109030591D01*
X174553293Y-109031121D01*
X174560798Y-109032799D01*
X174629091Y-109030653D01*
X174633048Y-109030591D01*
X174661062Y-109030591D01*
X174664987Y-109030095D01*
X174664988Y-109030095D01*
X174665083Y-109030083D01*
X174676928Y-109029150D01*
X174706749Y-109028213D01*
X174713361Y-109028005D01*
X174713362Y-109028005D01*
X174721284Y-109027756D01*
X174740828Y-109022078D01*
X174760191Y-109018068D01*
X174772519Y-109016511D01*
X174772521Y-109016511D01*
X174780378Y-109015518D01*
X174787742Y-109012602D01*
X174787747Y-109012601D01*
X174821635Y-108999184D01*
X174832864Y-108995339D01*
X174849544Y-108990493D01*
X174875472Y-108982960D01*
X174882299Y-108978922D01*
X174882302Y-108978921D01*
X174892985Y-108972603D01*
X174910743Y-108963903D01*
X174922294Y-108959330D01*
X174922300Y-108959326D01*
X174929667Y-108956410D01*
X174965570Y-108930325D01*
X174975489Y-108923810D01*
X175006847Y-108905265D01*
X175006851Y-108905262D01*
X175013677Y-108901225D01*
X175028061Y-108886841D01*
X175043095Y-108874000D01*
X175053152Y-108866693D01*
X175059566Y-108862033D01*
X175087852Y-108827841D01*
X175095842Y-108819060D01*
X175703750Y-108211153D01*
X175712069Y-108203583D01*
X175718565Y-108199461D01*
X175765348Y-108149642D01*
X175768102Y-108146801D01*
X175787901Y-108127002D01*
X175790325Y-108123877D01*
X175790333Y-108123868D01*
X175790399Y-108123782D01*
X175798107Y-108114757D01*
X175823052Y-108088193D01*
X175828479Y-108082414D01*
X175838285Y-108064577D01*
X175849135Y-108048061D01*
X175861612Y-108031975D01*
X175879238Y-107991242D01*
X175884455Y-107980594D01*
X175890847Y-107968966D01*
X175905831Y-107941711D01*
X175907802Y-107934036D01*
X175907804Y-107934030D01*
X175910893Y-107921997D01*
X175917296Y-107903295D01*
X175925379Y-107884616D01*
X175932322Y-107840781D01*
X175934729Y-107829159D01*
X175945762Y-107786190D01*
X175945762Y-107765843D01*
X175947313Y-107746132D01*
X175949257Y-107733858D01*
X175950497Y-107726029D01*
X175946321Y-107681852D01*
X175945762Y-107669994D01*
X175945762Y-106810284D01*
X175946292Y-106799045D01*
X175947971Y-106791533D01*
X175945824Y-106723221D01*
X175945762Y-106719264D01*
X175945762Y-106691269D01*
X175945254Y-106687246D01*
X175944321Y-106675404D01*
X175943176Y-106638972D01*
X175942927Y-106631047D01*
X175937249Y-106611503D01*
X175933239Y-106592140D01*
X175931682Y-106579812D01*
X175931682Y-106579810D01*
X175930689Y-106571953D01*
X175927773Y-106564589D01*
X175927772Y-106564584D01*
X175914355Y-106530696D01*
X175910510Y-106519467D01*
X175900343Y-106484474D01*
X175898131Y-106476859D01*
X175888840Y-106461149D01*
X175887774Y-106459346D01*
X175879074Y-106441588D01*
X175874501Y-106430037D01*
X175874497Y-106430031D01*
X175871581Y-106422664D01*
X175845496Y-106386761D01*
X175838981Y-106376842D01*
X175820436Y-106345484D01*
X175820433Y-106345480D01*
X175816396Y-106338654D01*
X175802012Y-106324270D01*
X175789171Y-106309236D01*
X175781864Y-106299179D01*
X175777204Y-106292765D01*
X175743012Y-106264479D01*
X175734231Y-106256489D01*
X175126324Y-105648581D01*
X175118754Y-105640262D01*
X175114632Y-105633766D01*
X175064813Y-105586983D01*
X175061972Y-105584229D01*
X175042173Y-105564430D01*
X175039048Y-105562006D01*
X175039039Y-105561998D01*
X175038953Y-105561932D01*
X175029928Y-105554224D01*
X175029910Y-105554207D01*
X174997585Y-105523852D01*
X174979748Y-105514046D01*
X174963232Y-105503196D01*
X174947146Y-105490719D01*
X174906413Y-105473093D01*
X174895765Y-105467876D01*
X174884137Y-105461484D01*
X174856882Y-105446500D01*
X174849207Y-105444529D01*
X174849201Y-105444527D01*
X174837168Y-105441438D01*
X174818466Y-105435035D01*
X174799787Y-105426952D01*
X174765951Y-105421593D01*
X174755952Y-105420009D01*
X174744339Y-105417604D01*
X174701361Y-105406569D01*
X174681014Y-105406569D01*
X174661303Y-105405018D01*
X174649029Y-105403074D01*
X174641200Y-105401834D01*
X174633308Y-105402580D01*
X174597023Y-105406010D01*
X174585165Y-105406569D01*
X170519780Y-105406569D01*
X170451659Y-105386567D01*
X170430685Y-105369664D01*
X170080560Y-105019539D01*
X170046534Y-104957227D01*
X170051599Y-104886412D01*
X170094146Y-104829576D01*
X170129777Y-104810921D01*
X170214755Y-104782570D01*
X170365157Y-104689498D01*
X170490114Y-104564323D01*
X170504347Y-104541233D01*
X170579084Y-104419988D01*
X170579085Y-104419986D01*
X170582924Y-104413758D01*
X170626873Y-104281255D01*
X170636441Y-104252409D01*
X170636441Y-104252407D01*
X170638606Y-104245881D01*
X170639950Y-104232769D01*
X170644586Y-104187512D01*
X170649309Y-104141420D01*
X170649309Y-103570943D01*
X170669311Y-103502822D01*
X170686214Y-103481847D01*
X171382006Y-102786056D01*
X171444318Y-102752031D01*
X171515134Y-102757096D01*
X171567000Y-102795902D01*
X171567328Y-102795574D01*
X171569607Y-102797853D01*
X171571929Y-102799590D01*
X171579059Y-102809104D01*
X171695615Y-102896458D01*
X171832004Y-102947588D01*
X171894186Y-102954343D01*
X172790454Y-102954343D01*
X172852636Y-102947588D01*
X172989025Y-102896458D01*
X173017172Y-102875363D01*
X173083678Y-102850515D01*
X173153061Y-102865568D01*
X173168302Y-102875363D01*
X173188671Y-102890629D01*
X173204266Y-102899167D01*
X173324714Y-102944321D01*
X173339969Y-102947948D01*
X173390834Y-102953474D01*
X173397648Y-102953843D01*
X173570205Y-102953843D01*
X173585444Y-102949368D01*
X173586649Y-102947978D01*
X173588320Y-102940295D01*
X173588320Y-102935727D01*
X174096320Y-102935727D01*
X174100795Y-102950966D01*
X174102185Y-102952171D01*
X174109868Y-102953842D01*
X174286989Y-102953842D01*
X174293810Y-102953472D01*
X174344672Y-102947948D01*
X174359924Y-102944322D01*
X174480374Y-102899167D01*
X174495969Y-102890629D01*
X174598044Y-102814128D01*
X174610605Y-102801567D01*
X174687106Y-102699492D01*
X174695644Y-102683897D01*
X174740798Y-102563449D01*
X174744425Y-102548194D01*
X174749951Y-102497329D01*
X174750320Y-102490515D01*
X174750320Y-102317958D01*
X174745845Y-102302719D01*
X174744455Y-102301514D01*
X174736772Y-102299843D01*
X174114435Y-102299843D01*
X174099196Y-102304318D01*
X174097991Y-102305708D01*
X174096320Y-102313391D01*
X174096320Y-102935727D01*
X173588320Y-102935727D01*
X173588320Y-101155959D01*
X173583845Y-101140720D01*
X173582455Y-101139515D01*
X173574772Y-101137844D01*
X173397651Y-101137844D01*
X173390830Y-101138214D01*
X173339968Y-101143738D01*
X173324716Y-101147364D01*
X173204266Y-101192519D01*
X173188671Y-101201057D01*
X173168302Y-101216323D01*
X173101795Y-101241171D01*
X173032413Y-101226118D01*
X173017172Y-101216323D01*
X173011995Y-101212443D01*
X172989025Y-101195228D01*
X172852636Y-101144098D01*
X172790454Y-101137343D01*
X171894186Y-101137343D01*
X171832004Y-101144098D01*
X171695615Y-101195228D01*
X171579059Y-101282582D01*
X171573678Y-101289762D01*
X171573677Y-101289763D01*
X171521106Y-101359908D01*
X171464246Y-101402423D01*
X171420280Y-101410343D01*
X171302518Y-101410343D01*
X171291279Y-101409813D01*
X171283767Y-101408134D01*
X171275842Y-101408383D01*
X171275841Y-101408383D01*
X171215456Y-101410281D01*
X171211498Y-101410343D01*
X171183503Y-101410343D01*
X171179569Y-101410840D01*
X171179567Y-101410840D01*
X171179480Y-101410851D01*
X171167646Y-101411783D01*
X171123281Y-101413178D01*
X171115668Y-101415390D01*
X171115667Y-101415390D01*
X171103738Y-101418856D01*
X171084374Y-101422866D01*
X171072046Y-101424423D01*
X171072044Y-101424423D01*
X171064187Y-101425416D01*
X171056823Y-101428332D01*
X171056818Y-101428333D01*
X171022930Y-101441750D01*
X171011701Y-101445595D01*
X170995021Y-101450441D01*
X170969093Y-101457974D01*
X170962266Y-101462012D01*
X170962263Y-101462013D01*
X170951580Y-101468331D01*
X170933822Y-101477031D01*
X170922271Y-101481604D01*
X170922265Y-101481608D01*
X170914898Y-101484524D01*
X170908487Y-101489182D01*
X170908485Y-101489183D01*
X170878998Y-101510607D01*
X170869076Y-101517124D01*
X170837718Y-101535669D01*
X170837714Y-101535672D01*
X170830888Y-101539709D01*
X170816504Y-101554093D01*
X170801470Y-101566934D01*
X170784999Y-101578901D01*
X170772112Y-101594479D01*
X170756713Y-101613093D01*
X170748723Y-101621874D01*
X169974980Y-102395616D01*
X169912668Y-102429641D01*
X169885885Y-102432520D01*
X169315409Y-102432520D01*
X169312163Y-102432857D01*
X169312159Y-102432857D01*
X169216501Y-102442782D01*
X169216497Y-102442783D01*
X169209643Y-102443494D01*
X169203107Y-102445675D01*
X169203105Y-102445675D01*
X169071003Y-102489748D01*
X169041863Y-102499470D01*
X168891461Y-102592542D01*
X168886288Y-102597724D01*
X168805025Y-102679129D01*
X168742743Y-102713208D01*
X168671923Y-102708205D01*
X168626834Y-102679284D01*
X168544292Y-102596886D01*
X168539112Y-102591715D01*
X168502231Y-102568981D01*
X168394777Y-102502745D01*
X168394775Y-102502744D01*
X168388547Y-102498905D01*
X168228063Y-102445675D01*
X168227198Y-102445388D01*
X168227196Y-102445388D01*
X168220670Y-102443223D01*
X168213834Y-102442523D01*
X168213831Y-102442522D01*
X168170778Y-102438111D01*
X168116209Y-102432520D01*
X167490409Y-102432520D01*
X167487163Y-102432857D01*
X167487159Y-102432857D01*
X167391501Y-102442782D01*
X167391497Y-102442783D01*
X167384643Y-102443494D01*
X167378107Y-102445675D01*
X167378105Y-102445675D01*
X167246003Y-102489748D01*
X167216863Y-102499470D01*
X167066461Y-102592542D01*
X167061288Y-102597724D01*
X167032203Y-102626860D01*
X166941504Y-102717717D01*
X166937664Y-102723947D01*
X166937663Y-102723948D01*
X166907312Y-102773187D01*
X166848694Y-102868282D01*
X166846390Y-102875227D01*
X166846390Y-102875228D01*
X166831809Y-102919188D01*
X166791377Y-102977548D01*
X166725813Y-103004784D01*
X166712216Y-103005520D01*
X166385259Y-103005520D01*
X166317138Y-102985518D01*
X166296164Y-102968615D01*
X163773780Y-100446231D01*
X163739754Y-100383919D01*
X163736875Y-100357136D01*
X163736875Y-99786659D01*
X163736538Y-99783409D01*
X163726613Y-99687751D01*
X163726612Y-99687747D01*
X163725901Y-99680893D01*
X163669925Y-99513113D01*
X163576853Y-99362711D01*
X163451678Y-99237754D01*
X163325412Y-99159922D01*
X163307343Y-99148784D01*
X163307341Y-99148783D01*
X163301113Y-99144944D01*
X163140629Y-99091714D01*
X163139764Y-99091427D01*
X163139762Y-99091427D01*
X163133236Y-99089262D01*
X163126400Y-99088562D01*
X163126397Y-99088561D01*
X163083344Y-99084150D01*
X163028775Y-99078559D01*
X162402975Y-99078559D01*
X162399729Y-99078896D01*
X162399725Y-99078896D01*
X162304067Y-99088821D01*
X162304063Y-99088822D01*
X162297209Y-99089533D01*
X162290673Y-99091714D01*
X162290671Y-99091714D01*
X162158569Y-99135787D01*
X162129429Y-99145509D01*
X161979027Y-99238581D01*
X161973854Y-99243763D01*
X161892591Y-99325168D01*
X161830309Y-99359247D01*
X161759489Y-99354244D01*
X161714400Y-99325323D01*
X161631858Y-99242925D01*
X161626678Y-99237754D01*
X161500412Y-99159922D01*
X161482343Y-99148784D01*
X161482341Y-99148783D01*
X161476113Y-99144944D01*
X161315629Y-99091714D01*
X161314764Y-99091427D01*
X161314762Y-99091427D01*
X161308236Y-99089262D01*
X161301400Y-99088562D01*
X161301397Y-99088561D01*
X161258344Y-99084150D01*
X161203775Y-99078559D01*
X160633297Y-99078559D01*
X160565176Y-99058557D01*
X160544202Y-99041654D01*
X157624229Y-96121680D01*
X157590203Y-96059368D01*
X157595268Y-95988552D01*
X157637815Y-95931717D01*
X157704335Y-95906906D01*
X157713324Y-95906585D01*
X157720370Y-95906585D01*
X157735609Y-95902110D01*
X157736814Y-95900720D01*
X157738485Y-95893037D01*
X157738485Y-95888469D01*
X158246485Y-95888469D01*
X158250960Y-95903708D01*
X158252350Y-95904913D01*
X158260033Y-95906584D01*
X158437154Y-95906584D01*
X158443975Y-95906214D01*
X158494837Y-95900690D01*
X158510089Y-95897064D01*
X158630539Y-95851909D01*
X158646134Y-95843371D01*
X158748209Y-95766870D01*
X158760770Y-95754309D01*
X158837271Y-95652234D01*
X158845809Y-95636639D01*
X158890963Y-95516191D01*
X158894590Y-95500936D01*
X158900116Y-95450071D01*
X158900485Y-95443257D01*
X158900485Y-95270700D01*
X158896010Y-95255461D01*
X158894620Y-95254256D01*
X158886937Y-95252585D01*
X158264600Y-95252585D01*
X158249361Y-95257060D01*
X158248156Y-95258450D01*
X158246485Y-95266133D01*
X158246485Y-95888469D01*
X157738485Y-95888469D01*
X157738485Y-94726470D01*
X158246485Y-94726470D01*
X158250960Y-94741709D01*
X158252350Y-94742914D01*
X158260033Y-94744585D01*
X158882369Y-94744585D01*
X158897608Y-94740110D01*
X158898813Y-94738720D01*
X158900484Y-94731037D01*
X158900484Y-94553916D01*
X158900114Y-94547095D01*
X158894590Y-94496233D01*
X158890964Y-94480981D01*
X158845809Y-94360531D01*
X158837271Y-94344936D01*
X158760770Y-94242861D01*
X158748209Y-94230300D01*
X158646134Y-94153799D01*
X158630539Y-94145261D01*
X158510091Y-94100107D01*
X158494836Y-94096480D01*
X158443971Y-94090954D01*
X158437157Y-94090585D01*
X158264600Y-94090585D01*
X158249361Y-94095060D01*
X158248156Y-94096450D01*
X158246485Y-94104133D01*
X158246485Y-94726470D01*
X157738485Y-94726470D01*
X157738485Y-94108701D01*
X157734010Y-94093462D01*
X157732620Y-94092257D01*
X157724937Y-94090586D01*
X157547816Y-94090586D01*
X157540995Y-94090956D01*
X157490133Y-94096480D01*
X157474881Y-94100106D01*
X157354431Y-94145261D01*
X157338836Y-94153799D01*
X157318467Y-94169065D01*
X157251960Y-94193913D01*
X157182578Y-94178860D01*
X157167337Y-94169065D01*
X157164184Y-94166702D01*
X157139190Y-94147970D01*
X157002801Y-94096840D01*
X156940619Y-94090085D01*
X156044351Y-94090085D01*
X155982169Y-94096840D01*
X155845780Y-94147970D01*
X155729224Y-94235324D01*
X155641870Y-94351880D01*
X155590740Y-94488269D01*
X155583985Y-94550451D01*
X155583985Y-95446719D01*
X155590740Y-95508901D01*
X155641870Y-95645290D01*
X155729224Y-95761846D01*
X155736404Y-95767227D01*
X155736405Y-95767228D01*
X155806550Y-95819799D01*
X155849065Y-95876659D01*
X155856985Y-95920625D01*
X155856985Y-95928652D01*
X155857481Y-95932577D01*
X155857481Y-95932578D01*
X155857493Y-95932673D01*
X155858426Y-95944518D01*
X155859820Y-95988874D01*
X155865498Y-96008417D01*
X155869508Y-96027781D01*
X155872058Y-96047968D01*
X155874974Y-96055332D01*
X155874975Y-96055337D01*
X155888392Y-96089225D01*
X155892237Y-96100454D01*
X155893766Y-96105717D01*
X155904616Y-96143062D01*
X155908654Y-96149889D01*
X155908655Y-96149892D01*
X155914973Y-96160575D01*
X155923673Y-96178333D01*
X155928246Y-96189884D01*
X155928250Y-96189890D01*
X155931166Y-96197257D01*
X155935824Y-96203668D01*
X155935825Y-96203670D01*
X155957249Y-96233157D01*
X155963766Y-96243079D01*
X155982311Y-96274437D01*
X155982314Y-96274441D01*
X155986351Y-96281267D01*
X156000735Y-96295651D01*
X156013576Y-96310685D01*
X156025543Y-96327156D01*
X156031651Y-96332209D01*
X156059740Y-96355446D01*
X156068520Y-96363436D01*
X159832970Y-100127887D01*
X159866996Y-100190199D01*
X159869875Y-100216982D01*
X159869875Y-100787459D01*
X159880849Y-100893225D01*
X159936825Y-101061005D01*
X160029897Y-101211407D01*
X160155072Y-101336364D01*
X160161302Y-101340204D01*
X160161303Y-101340205D01*
X160298465Y-101424753D01*
X160305637Y-101429174D01*
X160355145Y-101445595D01*
X160466986Y-101482691D01*
X160466988Y-101482691D01*
X160473514Y-101484856D01*
X160480350Y-101485556D01*
X160480353Y-101485557D01*
X160515745Y-101489183D01*
X160577975Y-101495559D01*
X161203775Y-101495559D01*
X161207021Y-101495222D01*
X161207025Y-101495222D01*
X161302683Y-101485297D01*
X161302687Y-101485296D01*
X161309541Y-101484585D01*
X161316077Y-101482404D01*
X161316079Y-101482404D01*
X161453921Y-101436416D01*
X161477321Y-101428609D01*
X161627723Y-101335537D01*
X161714159Y-101248950D01*
X161776441Y-101214871D01*
X161847261Y-101219874D01*
X161892350Y-101248795D01*
X161911977Y-101268388D01*
X161980072Y-101336364D01*
X161986302Y-101340204D01*
X161986303Y-101340205D01*
X162123465Y-101424753D01*
X162130637Y-101429174D01*
X162180145Y-101445595D01*
X162291986Y-101482691D01*
X162291988Y-101482691D01*
X162298514Y-101484856D01*
X162305350Y-101485556D01*
X162305353Y-101485557D01*
X162340745Y-101489183D01*
X162402975Y-101495559D01*
X162973453Y-101495559D01*
X163041574Y-101515561D01*
X163062548Y-101532464D01*
X164314239Y-102784156D01*
X165564586Y-104034503D01*
X165572162Y-104042829D01*
X165576283Y-104049323D01*
X165582058Y-104054746D01*
X165626101Y-104096105D01*
X165628943Y-104098860D01*
X165648742Y-104118659D01*
X165651873Y-104121088D01*
X165651878Y-104121092D01*
X165651964Y-104121159D01*
X165660989Y-104128867D01*
X165687551Y-104153811D01*
X165687555Y-104153814D01*
X165693330Y-104159237D01*
X165700276Y-104163056D01*
X165700281Y-104163059D01*
X165711164Y-104169042D01*
X165727692Y-104179898D01*
X165737507Y-104187512D01*
X165737510Y-104187514D01*
X165743769Y-104192369D01*
X165751039Y-104195515D01*
X165751044Y-104195518D01*
X165784486Y-104209989D01*
X165795147Y-104215212D01*
X165827083Y-104232769D01*
X165827088Y-104232771D01*
X165834033Y-104236589D01*
X165841707Y-104238559D01*
X165841714Y-104238562D01*
X165853749Y-104241652D01*
X165872454Y-104248056D01*
X165882513Y-104252409D01*
X165891128Y-104256137D01*
X165918178Y-104260421D01*
X165934963Y-104263080D01*
X165946576Y-104265485D01*
X165989554Y-104276520D01*
X166009901Y-104276520D01*
X166029613Y-104278071D01*
X166049715Y-104281255D01*
X166057607Y-104280509D01*
X166093892Y-104277079D01*
X166105750Y-104276520D01*
X166712279Y-104276520D01*
X166780400Y-104296522D01*
X166826893Y-104350178D01*
X166831803Y-104362644D01*
X166849259Y-104414966D01*
X166942331Y-104565368D01*
X167067506Y-104690325D01*
X167073736Y-104694165D01*
X167073737Y-104694166D01*
X167210899Y-104778714D01*
X167218071Y-104783135D01*
X167297814Y-104809584D01*
X167379420Y-104836652D01*
X167379422Y-104836652D01*
X167385948Y-104838817D01*
X167392784Y-104839517D01*
X167392787Y-104839518D01*
X167435840Y-104843929D01*
X167490409Y-104849520D01*
X168060887Y-104849520D01*
X168129008Y-104869522D01*
X168149982Y-104886425D01*
X169631541Y-106367985D01*
X169665567Y-106430297D01*
X169660502Y-106501113D01*
X169617955Y-106557948D01*
X169551435Y-106582759D01*
X169542446Y-106583080D01*
X153347350Y-106583080D01*
X153279229Y-106563078D01*
X153258254Y-106546175D01*
X152522481Y-105810401D01*
X152488456Y-105748089D01*
X152491019Y-105684679D01*
X152502975Y-105645327D01*
X152532134Y-105423848D01*
X152532228Y-105420009D01*
X152533679Y-105360623D01*
X152533679Y-105360619D01*
X152533761Y-105357258D01*
X152515457Y-105134619D01*
X152461036Y-104917960D01*
X152371959Y-104713098D01*
X152324534Y-104639790D01*
X152253427Y-104529875D01*
X152253425Y-104529872D01*
X152250619Y-104525535D01*
X152100275Y-104360309D01*
X152096224Y-104357110D01*
X152096220Y-104357106D01*
X151929019Y-104225058D01*
X151929015Y-104225056D01*
X151924964Y-104221856D01*
X151920157Y-104219202D01*
X151818453Y-104163059D01*
X151729394Y-104113896D01*
X151724525Y-104112172D01*
X151724521Y-104112170D01*
X151523692Y-104041053D01*
X151523688Y-104041052D01*
X151518817Y-104039327D01*
X151513724Y-104038420D01*
X151513721Y-104038419D01*
X151303978Y-104001058D01*
X151303972Y-104001057D01*
X151298889Y-104000152D01*
X151225057Y-103999250D01*
X151080686Y-103997486D01*
X151080684Y-103997486D01*
X151075516Y-103997423D01*
X150854696Y-104031213D01*
X150824591Y-104041053D01*
X150794739Y-104050810D01*
X150723775Y-104052961D01*
X150662913Y-104016405D01*
X150631477Y-103952748D01*
X150629594Y-103931045D01*
X150629594Y-96662968D01*
X150649596Y-96594847D01*
X150703252Y-96548354D01*
X150719386Y-96542282D01*
X150896180Y-96489241D01*
X150896185Y-96489239D01*
X150901135Y-96487754D01*
X151101745Y-96389476D01*
X151283611Y-96259753D01*
X151300344Y-96243079D01*
X151383136Y-96160575D01*
X151441847Y-96102069D01*
X151501345Y-96019269D01*
X151569186Y-95924857D01*
X151572204Y-95920657D01*
X151579160Y-95906584D01*
X151668887Y-95725033D01*
X151668888Y-95725031D01*
X151671181Y-95720391D01*
X151731413Y-95522146D01*
X151734616Y-95511603D01*
X151734616Y-95511601D01*
X151736121Y-95506649D01*
X151765280Y-95285170D01*
X151765518Y-95275445D01*
X151766825Y-95221945D01*
X151766825Y-95221941D01*
X151766907Y-95218580D01*
X151748603Y-94995941D01*
X151694182Y-94779282D01*
X151605105Y-94574420D01*
X151544585Y-94480870D01*
X151486573Y-94391197D01*
X151486571Y-94391194D01*
X151483765Y-94386857D01*
X151333421Y-94221631D01*
X151329370Y-94218432D01*
X151329366Y-94218428D01*
X151162165Y-94086380D01*
X151162161Y-94086378D01*
X151158110Y-94083178D01*
X150962540Y-93975218D01*
X150957671Y-93973494D01*
X150957667Y-93973492D01*
X150756838Y-93902375D01*
X150756834Y-93902374D01*
X150751963Y-93900649D01*
X150746870Y-93899742D01*
X150746867Y-93899741D01*
X150537124Y-93862380D01*
X150537118Y-93862379D01*
X150532035Y-93861474D01*
X150458203Y-93860572D01*
X150313832Y-93858808D01*
X150313830Y-93858808D01*
X150308662Y-93858745D01*
X150087842Y-93892535D01*
X149875507Y-93961937D01*
X149845194Y-93977717D01*
X149683033Y-94062133D01*
X149677358Y-94065087D01*
X149673225Y-94068190D01*
X149673222Y-94068192D01*
X149502851Y-94196110D01*
X149498716Y-94199215D01*
X149468781Y-94230540D01*
X149355156Y-94349442D01*
X149344380Y-94360718D01*
X149236952Y-94518201D01*
X149182044Y-94563201D01*
X149111519Y-94571372D01*
X149047772Y-94540118D01*
X149027075Y-94515634D01*
X148946573Y-94391197D01*
X148946571Y-94391194D01*
X148943765Y-94386857D01*
X148793421Y-94221631D01*
X148789370Y-94218432D01*
X148789366Y-94218428D01*
X148622165Y-94086380D01*
X148622161Y-94086378D01*
X148618110Y-94083178D01*
X148422540Y-93975218D01*
X148417671Y-93973494D01*
X148417667Y-93973492D01*
X148216838Y-93902375D01*
X148216834Y-93902374D01*
X148211963Y-93900649D01*
X148206870Y-93899742D01*
X148206867Y-93899741D01*
X147997124Y-93862380D01*
X147997118Y-93862379D01*
X147992035Y-93861474D01*
X147918203Y-93860572D01*
X147773832Y-93858808D01*
X147773830Y-93858808D01*
X147768662Y-93858745D01*
X147547842Y-93892535D01*
X147335507Y-93961937D01*
X147305194Y-93977717D01*
X147143033Y-94062133D01*
X147137358Y-94065087D01*
X147133225Y-94068190D01*
X147133222Y-94068192D01*
X146962851Y-94196110D01*
X146958716Y-94199215D01*
X146928781Y-94230540D01*
X146815156Y-94349442D01*
X146804380Y-94360718D01*
X146678494Y-94545260D01*
X146631467Y-94646572D01*
X146587306Y-94741709D01*
X146584439Y-94747885D01*
X146524740Y-94963150D01*
X146501002Y-95185275D01*
X146501299Y-95190428D01*
X146501299Y-95190431D01*
X146510591Y-95351588D01*
X146513861Y-95408295D01*
X146514998Y-95413341D01*
X146514999Y-95413347D01*
X146525786Y-95461210D01*
X146562973Y-95626219D01*
X146647017Y-95833196D01*
X146686155Y-95897064D01*
X146761042Y-96019268D01*
X146763738Y-96023668D01*
X146910001Y-96192518D01*
X147081877Y-96335212D01*
X147165823Y-96384266D01*
X147214545Y-96435904D01*
X147228251Y-96493053D01*
X147228251Y-103890193D01*
X147208249Y-103958314D01*
X147154593Y-104004807D01*
X147084319Y-104014911D01*
X147060282Y-104008753D01*
X147058319Y-104008286D01*
X147050921Y-104005513D01*
X146988739Y-103998758D01*
X145347923Y-103998758D01*
X145279802Y-103978756D01*
X145258828Y-103961853D01*
X141367376Y-100070401D01*
X141333350Y-100008089D01*
X141338415Y-99937274D01*
X141380962Y-99880438D01*
X141416595Y-99861782D01*
X141436086Y-99855279D01*
X141501570Y-99833432D01*
X141651972Y-99740360D01*
X141776929Y-99615185D01*
X141835565Y-99520061D01*
X141865899Y-99470850D01*
X141865900Y-99470848D01*
X141869739Y-99464620D01*
X141903541Y-99362711D01*
X141923256Y-99303271D01*
X141923256Y-99303269D01*
X141925421Y-99296743D01*
X141936124Y-99192282D01*
X141936124Y-98618976D01*
X141956126Y-98550855D01*
X141973029Y-98529881D01*
X142450913Y-98051997D01*
X142459203Y-98044453D01*
X142465684Y-98040340D01*
X142512325Y-97990672D01*
X142515079Y-97987831D01*
X142534801Y-97968109D01*
X142537278Y-97964916D01*
X142544983Y-97955895D01*
X142565334Y-97934223D01*
X142575252Y-97923661D01*
X142584136Y-97907501D01*
X142585012Y-97905908D01*
X142595868Y-97889381D01*
X142603423Y-97879642D01*
X142603424Y-97879640D01*
X142608280Y-97873380D01*
X142625840Y-97832800D01*
X142631057Y-97822152D01*
X142648541Y-97790349D01*
X142648542Y-97790347D01*
X142652361Y-97783400D01*
X142657399Y-97763777D01*
X142663803Y-97745074D01*
X142668699Y-97733760D01*
X142668699Y-97733759D01*
X142671847Y-97726485D01*
X142673086Y-97718662D01*
X142673089Y-97718652D01*
X142678765Y-97682816D01*
X142681171Y-97671196D01*
X142690194Y-97636051D01*
X142690194Y-97636050D01*
X142692166Y-97628370D01*
X142692166Y-97608116D01*
X142693717Y-97588405D01*
X142695646Y-97576226D01*
X142696886Y-97568397D01*
X142692725Y-97524378D01*
X142692166Y-97512521D01*
X142692166Y-95443955D01*
X142712168Y-95375834D01*
X142765824Y-95329341D01*
X142836098Y-95319237D01*
X142893732Y-95343129D01*
X142905022Y-95351590D01*
X142920612Y-95360126D01*
X143041060Y-95405280D01*
X143056315Y-95408907D01*
X143107180Y-95414433D01*
X143113994Y-95414802D01*
X143286551Y-95414802D01*
X143301790Y-95410327D01*
X143302995Y-95408937D01*
X143304666Y-95401254D01*
X143304666Y-95396686D01*
X143812666Y-95396686D01*
X143817141Y-95411925D01*
X143818531Y-95413130D01*
X143826214Y-95414801D01*
X144003335Y-95414801D01*
X144010156Y-95414431D01*
X144061018Y-95408907D01*
X144076270Y-95405281D01*
X144196720Y-95360126D01*
X144212315Y-95351588D01*
X144314390Y-95275087D01*
X144326951Y-95262526D01*
X144403452Y-95160451D01*
X144411990Y-95144856D01*
X144457144Y-95024408D01*
X144460771Y-95009153D01*
X144466297Y-94958288D01*
X144466666Y-94951474D01*
X144466666Y-94778917D01*
X144462191Y-94763678D01*
X144460801Y-94762473D01*
X144453118Y-94760802D01*
X143830781Y-94760802D01*
X143815542Y-94765277D01*
X143814337Y-94766667D01*
X143812666Y-94774350D01*
X143812666Y-95396686D01*
X143304666Y-95396686D01*
X143304666Y-94234687D01*
X143812666Y-94234687D01*
X143817141Y-94249926D01*
X143818531Y-94251131D01*
X143826214Y-94252802D01*
X144448550Y-94252802D01*
X144463789Y-94248327D01*
X144464994Y-94246937D01*
X144466665Y-94239254D01*
X144466665Y-94062133D01*
X144466295Y-94055312D01*
X144460771Y-94004450D01*
X144457145Y-93989198D01*
X144411990Y-93868748D01*
X144403452Y-93853153D01*
X144326951Y-93751078D01*
X144314390Y-93738517D01*
X144212315Y-93662016D01*
X144196720Y-93653478D01*
X144076272Y-93608324D01*
X144061017Y-93604697D01*
X144010152Y-93599171D01*
X144003338Y-93598802D01*
X143830781Y-93598802D01*
X143815542Y-93603277D01*
X143814337Y-93604667D01*
X143812666Y-93612350D01*
X143812666Y-94234687D01*
X143304666Y-94234687D01*
X143304666Y-93616918D01*
X143300191Y-93601679D01*
X143298801Y-93600474D01*
X143291118Y-93598803D01*
X143113997Y-93598803D01*
X143107176Y-93599173D01*
X143056314Y-93604697D01*
X143041062Y-93608323D01*
X142920612Y-93653478D01*
X142905017Y-93662016D01*
X142884648Y-93677282D01*
X142818141Y-93702130D01*
X142748759Y-93687077D01*
X142733518Y-93677282D01*
X142721641Y-93668381D01*
X142705371Y-93656187D01*
X142568982Y-93605057D01*
X142506800Y-93598302D01*
X141690863Y-93598302D01*
X141622742Y-93578300D01*
X141576249Y-93524644D01*
X141575793Y-93521472D01*
X141560203Y-93574100D01*
X141506436Y-93620465D01*
X141498598Y-93623708D01*
X141495024Y-93625048D01*
X141411961Y-93656187D01*
X141295405Y-93743541D01*
X141208051Y-93860097D01*
X141156921Y-93996486D01*
X141150166Y-94058668D01*
X141150166Y-94954936D01*
X141156921Y-95017118D01*
X141208051Y-95153507D01*
X141295405Y-95270063D01*
X141302585Y-95275444D01*
X141302586Y-95275445D01*
X141374731Y-95329515D01*
X141417246Y-95386375D01*
X141425166Y-95430341D01*
X141425166Y-97233746D01*
X141405164Y-97301867D01*
X141388261Y-97322841D01*
X141264625Y-97446477D01*
X141202313Y-97480503D01*
X141175530Y-97483382D01*
X140602224Y-97483382D01*
X140598978Y-97483719D01*
X140598974Y-97483719D01*
X140503316Y-97493644D01*
X140503312Y-97493645D01*
X140496458Y-97494356D01*
X140489922Y-97496537D01*
X140489920Y-97496537D01*
X140406468Y-97524379D01*
X140328678Y-97550332D01*
X140178276Y-97643404D01*
X140173103Y-97648586D01*
X140091840Y-97729991D01*
X140029558Y-97764070D01*
X139958738Y-97759067D01*
X139913649Y-97730146D01*
X139831107Y-97647748D01*
X139825927Y-97642577D01*
X139770021Y-97608116D01*
X139681592Y-97553607D01*
X139681590Y-97553606D01*
X139675362Y-97549767D01*
X139514878Y-97496537D01*
X139514013Y-97496250D01*
X139514011Y-97496250D01*
X139507485Y-97494085D01*
X139500649Y-97493385D01*
X139500646Y-97493384D01*
X139457593Y-97488973D01*
X139403024Y-97483382D01*
X138777224Y-97483382D01*
X138773978Y-97483719D01*
X138773974Y-97483719D01*
X138678316Y-97493644D01*
X138678312Y-97493645D01*
X138671458Y-97494356D01*
X138664922Y-97496537D01*
X138664920Y-97496537D01*
X138581468Y-97524379D01*
X138503678Y-97550332D01*
X138353276Y-97643404D01*
X138228319Y-97768579D01*
X138224479Y-97774809D01*
X138224478Y-97774810D01*
X138223917Y-97775721D01*
X138135509Y-97919144D01*
X138130601Y-97933942D01*
X138086692Y-98066325D01*
X138079827Y-98087021D01*
X138069124Y-98191482D01*
X138069124Y-99192282D01*
X138069461Y-99195528D01*
X138069461Y-99195532D01*
X138074466Y-99243763D01*
X138080098Y-99298048D01*
X138082279Y-99304584D01*
X138082279Y-99304586D01*
X138099945Y-99357538D01*
X138136074Y-99465828D01*
X138229146Y-99616230D01*
X138354321Y-99741187D01*
X138360551Y-99745027D01*
X138360552Y-99745028D01*
X138497714Y-99829576D01*
X138504886Y-99833997D01*
X138584629Y-99860446D01*
X138666235Y-99887514D01*
X138666237Y-99887514D01*
X138672763Y-99889679D01*
X138679599Y-99890379D01*
X138679602Y-99890380D01*
X138722655Y-99894791D01*
X138777224Y-99900382D01*
X139347702Y-99900382D01*
X139415823Y-99920384D01*
X139436797Y-99937287D01*
X144006172Y-104506663D01*
X144040198Y-104568975D01*
X144035133Y-104639790D01*
X143992586Y-104696626D01*
X143926066Y-104721437D01*
X143917077Y-104721758D01*
X127811047Y-104721758D01*
X127742926Y-104701756D01*
X127696433Y-104648100D01*
X127686329Y-104577826D01*
X127705863Y-104531784D01*
X127703534Y-104530406D01*
X127707569Y-104523583D01*
X127712428Y-104517319D01*
X127730048Y-104476602D01*
X127735271Y-104465941D01*
X127752828Y-104434005D01*
X127752830Y-104434000D01*
X127756648Y-104427055D01*
X127758618Y-104419381D01*
X127758621Y-104419374D01*
X127761711Y-104407339D01*
X127768115Y-104388634D01*
X127773046Y-104377239D01*
X127776196Y-104369960D01*
X127783139Y-104326125D01*
X127785546Y-104314503D01*
X127790163Y-104296522D01*
X127796579Y-104271534D01*
X127796579Y-104251187D01*
X127798130Y-104231476D01*
X127800074Y-104219202D01*
X127801314Y-104211373D01*
X127797764Y-104173818D01*
X127797138Y-104167196D01*
X127796579Y-104155338D01*
X127796579Y-104142175D01*
X127816581Y-104074054D01*
X127870237Y-104027561D01*
X127890964Y-104020680D01*
X127892630Y-104020507D01*
X128060410Y-103964531D01*
X128210812Y-103871459D01*
X128297248Y-103784872D01*
X128359530Y-103750793D01*
X128430350Y-103755796D01*
X128475440Y-103784717D01*
X128563161Y-103872286D01*
X128569391Y-103876126D01*
X128569392Y-103876127D01*
X128706554Y-103960675D01*
X128713726Y-103965096D01*
X128751630Y-103977668D01*
X128875075Y-104018613D01*
X128875077Y-104018613D01*
X128881603Y-104020778D01*
X128888439Y-104021478D01*
X128888442Y-104021479D01*
X128931495Y-104025890D01*
X128986064Y-104031481D01*
X129611864Y-104031481D01*
X129615110Y-104031144D01*
X129615114Y-104031144D01*
X129710772Y-104021219D01*
X129710776Y-104021218D01*
X129717630Y-104020507D01*
X129724166Y-104018326D01*
X129724168Y-104018326D01*
X129856270Y-103974253D01*
X129885410Y-103964531D01*
X130035812Y-103871459D01*
X130160769Y-103746284D01*
X130170203Y-103730980D01*
X130249739Y-103601949D01*
X130249740Y-103601947D01*
X130253579Y-103595719D01*
X130285275Y-103500159D01*
X130307096Y-103434370D01*
X130307096Y-103434368D01*
X130309261Y-103427842D01*
X130319964Y-103323381D01*
X130319964Y-102322581D01*
X130319627Y-102319331D01*
X130309702Y-102223673D01*
X130309701Y-102223669D01*
X130308990Y-102216815D01*
X130296303Y-102178786D01*
X130255332Y-102055983D01*
X130253014Y-102049035D01*
X130159942Y-101898633D01*
X130034767Y-101773676D01*
X129884202Y-101680866D01*
X129802657Y-101653819D01*
X129722853Y-101627349D01*
X129722851Y-101627349D01*
X129716325Y-101625184D01*
X129709489Y-101624484D01*
X129709486Y-101624483D01*
X129666433Y-101620072D01*
X129611864Y-101614481D01*
X129038559Y-101614481D01*
X128970438Y-101594479D01*
X128949464Y-101577576D01*
X128778096Y-101406208D01*
X128770556Y-101397922D01*
X128766444Y-101391443D01*
X128740478Y-101367059D01*
X128716793Y-101344818D01*
X128713951Y-101342063D01*
X128694214Y-101322326D01*
X128691017Y-101319846D01*
X128681995Y-101312141D01*
X128668566Y-101299530D01*
X128649765Y-101281875D01*
X128642819Y-101278056D01*
X128642816Y-101278054D01*
X128632010Y-101272113D01*
X128615491Y-101261262D01*
X128615027Y-101260902D01*
X128599485Y-101248847D01*
X128592216Y-101245702D01*
X128592212Y-101245699D01*
X128558907Y-101231287D01*
X128548257Y-101226070D01*
X128509504Y-101204766D01*
X128489881Y-101199728D01*
X128471178Y-101193324D01*
X128459864Y-101188428D01*
X128459863Y-101188428D01*
X128452589Y-101185280D01*
X128444766Y-101184041D01*
X128444756Y-101184038D01*
X128408920Y-101178362D01*
X128397300Y-101175956D01*
X128362155Y-101166933D01*
X128362154Y-101166933D01*
X128354474Y-101164961D01*
X128334220Y-101164961D01*
X128314509Y-101163410D01*
X128302330Y-101161481D01*
X128294501Y-101160241D01*
X128265230Y-101163008D01*
X128250483Y-101164402D01*
X128238625Y-101164961D01*
X125017672Y-101164961D01*
X125006489Y-101164434D01*
X124998996Y-101162759D01*
X124991070Y-101163008D01*
X124991069Y-101163008D01*
X124930919Y-101164899D01*
X124926960Y-101164961D01*
X124899049Y-101164961D01*
X124895115Y-101165458D01*
X124895114Y-101165458D01*
X124895049Y-101165466D01*
X124883212Y-101166399D01*
X124850954Y-101167413D01*
X124846935Y-101167539D01*
X124839016Y-101167788D01*
X124819562Y-101173440D01*
X124800205Y-101177448D01*
X124787975Y-101178993D01*
X124787974Y-101178993D01*
X124780108Y-101179987D01*
X124772737Y-101182906D01*
X124772735Y-101182906D01*
X124738993Y-101196265D01*
X124727763Y-101200110D01*
X124692922Y-101210232D01*
X124692921Y-101210232D01*
X124685312Y-101212443D01*
X124678493Y-101216476D01*
X124678488Y-101216478D01*
X124667877Y-101222754D01*
X124650129Y-101231449D01*
X124631288Y-101238909D01*
X124624872Y-101243571D01*
X124624871Y-101243571D01*
X124595518Y-101264897D01*
X124585598Y-101271413D01*
X124554370Y-101289881D01*
X124554367Y-101289883D01*
X124547543Y-101293919D01*
X124533222Y-101308240D01*
X124518189Y-101321080D01*
X124501798Y-101332989D01*
X124496748Y-101339093D01*
X124496743Y-101339098D01*
X124473612Y-101367059D01*
X124465622Y-101375840D01*
X123963884Y-101877577D01*
X123901572Y-101911602D01*
X123874789Y-101914481D01*
X123466251Y-101914481D01*
X123404069Y-101921236D01*
X123267680Y-101972366D01*
X123151124Y-102059720D01*
X123063770Y-102176276D01*
X123012640Y-102312665D01*
X123005885Y-102374847D01*
X123005885Y-103271115D01*
X123012640Y-103333297D01*
X123063770Y-103469686D01*
X123151124Y-103586242D01*
X123267680Y-103673596D01*
X123404069Y-103724726D01*
X123466251Y-103731481D01*
X124362519Y-103731481D01*
X124424701Y-103724726D01*
X124561090Y-103673596D01*
X124589237Y-103652501D01*
X124655743Y-103627653D01*
X124725126Y-103642706D01*
X124740367Y-103652501D01*
X124760736Y-103667767D01*
X124776331Y-103676305D01*
X124896779Y-103721459D01*
X124912034Y-103725086D01*
X124962899Y-103730612D01*
X124969713Y-103730981D01*
X125142270Y-103730981D01*
X125157509Y-103726506D01*
X125158714Y-103725116D01*
X125160385Y-103717433D01*
X125160385Y-102694981D01*
X125180387Y-102626860D01*
X125234043Y-102580367D01*
X125286385Y-102568981D01*
X125542385Y-102568981D01*
X125610506Y-102588983D01*
X125656999Y-102642639D01*
X125668385Y-102694981D01*
X125668385Y-103712865D01*
X125672860Y-103728104D01*
X125674250Y-103729309D01*
X125681933Y-103730980D01*
X125859054Y-103730980D01*
X125865875Y-103730610D01*
X125916737Y-103725086D01*
X125931989Y-103721460D01*
X126052439Y-103676305D01*
X126068034Y-103667767D01*
X126170109Y-103591266D01*
X126182670Y-103578705D01*
X126264557Y-103469443D01*
X126266346Y-103470784D01*
X126307850Y-103429377D01*
X126377241Y-103414367D01*
X126443733Y-103439255D01*
X126487629Y-103500158D01*
X126519103Y-103594496D01*
X126525579Y-103634372D01*
X126525579Y-103875829D01*
X126505577Y-103943950D01*
X126488674Y-103964924D01*
X125588087Y-104865511D01*
X125573053Y-104878352D01*
X125556586Y-104890316D01*
X125551533Y-104896424D01*
X125528301Y-104924507D01*
X125520311Y-104933287D01*
X124630423Y-105823175D01*
X124568111Y-105857201D01*
X124541328Y-105860080D01*
X123235617Y-105860080D01*
X123173435Y-105866835D01*
X123037046Y-105917965D01*
X122920490Y-106005319D01*
X122833136Y-106121875D01*
X122782006Y-106258264D01*
X122775251Y-106320446D01*
X122775251Y-108116714D01*
X118082055Y-108116714D01*
X118117088Y-108001628D01*
X118120381Y-107992178D01*
X118122893Y-107985796D01*
X118489231Y-107055054D01*
X118493084Y-107046264D01*
X118494189Y-107043985D01*
X118838676Y-106333043D01*
X118939195Y-106125596D01*
X118943486Y-106117503D01*
X119342352Y-105427166D01*
X119465225Y-105214503D01*
X119469834Y-105207128D01*
X120065467Y-104323235D01*
X120070290Y-104316559D01*
X120738058Y-103453226D01*
X120743010Y-103447217D01*
X121481027Y-102606039D01*
X121486039Y-102600653D01*
X122292327Y-101783266D01*
X122297345Y-101778452D01*
X122811090Y-101312141D01*
X123169893Y-100986466D01*
X123174873Y-100982177D01*
X123256300Y-100915681D01*
X124111592Y-100217222D01*
X124116498Y-100213415D01*
X125115186Y-99477155D01*
X125120006Y-99473773D01*
X126178478Y-98767806D01*
X126183248Y-98764777D01*
X126673053Y-98468930D01*
X127299275Y-98090686D01*
X127303923Y-98088013D01*
X127905351Y-97759067D01*
X128475244Y-97447370D01*
X128479838Y-97444979D01*
X129704129Y-96839347D01*
X129708639Y-96837226D01*
X130983686Y-96268091D01*
X130988117Y-96266214D01*
X132256455Y-95757221D01*
X132265951Y-95753974D01*
X132273710Y-95752920D01*
X132330251Y-95727702D01*
X132334595Y-95725863D01*
X132356351Y-95717132D01*
X132360229Y-95714891D01*
X132364269Y-95712926D01*
X132364270Y-95712928D01*
X132370490Y-95709755D01*
X132406736Y-95693589D01*
X132418568Y-95683542D01*
X132437089Y-95670488D01*
X132442761Y-95667211D01*
X132450536Y-95662719D01*
X132456738Y-95656225D01*
X132456742Y-95656222D01*
X132477952Y-95634014D01*
X132487514Y-95624994D01*
X132510921Y-95605118D01*
X132510922Y-95605117D01*
X132517764Y-95599307D01*
X132526303Y-95586339D01*
X132540418Y-95568609D01*
X132551138Y-95557385D01*
X132569402Y-95522128D01*
X132576029Y-95510820D01*
X132597867Y-95477654D01*
X132602422Y-95462812D01*
X132610995Y-95441832D01*
X132614006Y-95436019D01*
X132614006Y-95436018D01*
X132616016Y-95432139D01*
X132616018Y-95432136D01*
X132618135Y-95428049D01*
X132618725Y-95428355D01*
X132656065Y-95376197D01*
X132722043Y-95349978D01*
X132791722Y-95363590D01*
X132842981Y-95412714D01*
X132858896Y-95461209D01*
X133132445Y-97868445D01*
X133141898Y-97868592D01*
X133141901Y-97868592D01*
X136215926Y-97916251D01*
X137375116Y-97934223D01*
X137835560Y-94908442D01*
X137819692Y-94907221D01*
X137819691Y-94907221D01*
X135974409Y-94765277D01*
X135697781Y-94743998D01*
X135693281Y-94744298D01*
X135693280Y-94744298D01*
X135242502Y-94774350D01*
X134713120Y-94809642D01*
X134709089Y-94809846D01*
X132803556Y-94875554D01*
X132803556Y-94881888D01*
X132748466Y-94920037D01*
X132677511Y-94922483D01*
X132616498Y-94886180D01*
X132584076Y-94818161D01*
X132537395Y-94489628D01*
X132547615Y-94419371D01*
X132594197Y-94365792D01*
X132655461Y-94346080D01*
X133105044Y-94322208D01*
X133115253Y-94322080D01*
X133121745Y-94322262D01*
X133153864Y-94323162D01*
X133153866Y-94323162D01*
X133162832Y-94323413D01*
X133214488Y-94309866D01*
X133221988Y-94308142D01*
X133231900Y-94306181D01*
X133274398Y-94297774D01*
X133282361Y-94293631D01*
X133288769Y-94291382D01*
X133295042Y-94288739D01*
X133303724Y-94286462D01*
X133349506Y-94258958D01*
X133356233Y-94255192D01*
X133369426Y-94248327D01*
X133403610Y-94230540D01*
X133410091Y-94224327D01*
X133415620Y-94220363D01*
X133420889Y-94216074D01*
X133428583Y-94211452D01*
X133434672Y-94204854D01*
X133434676Y-94204851D01*
X133464804Y-94172206D01*
X133470204Y-94166702D01*
X133484127Y-94153356D01*
X133508758Y-94129744D01*
X133513233Y-94121966D01*
X133517425Y-94116612D01*
X133521285Y-94111006D01*
X133527370Y-94104413D01*
X133545354Y-94068192D01*
X133551111Y-94056597D01*
X133554749Y-94049800D01*
X133576913Y-94011272D01*
X133581391Y-94003488D01*
X133583503Y-93994764D01*
X133586017Y-93988466D01*
X133588154Y-93981986D01*
X133592144Y-93973951D01*
X133601511Y-93921389D01*
X133603095Y-93913844D01*
X133613556Y-93870640D01*
X133613556Y-93870638D01*
X133615667Y-93861920D01*
X133613247Y-93810402D01*
X133613138Y-93801732D01*
X133630890Y-92990950D01*
X133630893Y-92990897D01*
X133630903Y-92990843D01*
X133631772Y-92950689D01*
X133632556Y-92914867D01*
X133632549Y-92914813D01*
X133632549Y-92914774D01*
X133633380Y-92876322D01*
X133654850Y-92808649D01*
X133709497Y-92763326D01*
X133759350Y-92753044D01*
X135080864Y-92753032D01*
X136859777Y-92753017D01*
X136927898Y-92773018D01*
G37*
%TD.AperFunction*%
%TD*%
M02*
