%TF.GenerationSoftware,KiCad,Pcbnew,(6.0.4-0)*%
%TF.CreationDate,2022-05-21T09:58:13-04:00*%
%TF.ProjectId,earth_base,65617274-685f-4626-9173-652e6b696361,v03*%
%TF.SameCoordinates,Original*%
%TF.FileFunction,Legend,Bot*%
%TF.FilePolarity,Positive*%
%FSLAX46Y46*%
G04 Gerber Fmt 4.6, Leading zero omitted, Abs format (unit mm)*
G04 Created by KiCad (PCBNEW (6.0.4-0)) date 2022-05-21 09:58:13*
%MOMM*%
%LPD*%
G01*
G04 APERTURE LIST*
%ADD10C,0.150000*%
%ADD11C,0.120000*%
G04 APERTURE END LIST*
D10*
X153336190Y-101385714D02*
X153336190Y-102242857D01*
X153383809Y-102338095D01*
X153479047Y-102385714D01*
X153526666Y-102385714D01*
X153336190Y-101052380D02*
X153383809Y-101100000D01*
X153336190Y-101147619D01*
X153288571Y-101100000D01*
X153336190Y-101052380D01*
X153336190Y-101147619D01*
X152717142Y-102052380D02*
X152812380Y-102004761D01*
X152860000Y-101909523D01*
X152860000Y-101052380D01*
X151907619Y-102004761D02*
X152002857Y-102052380D01*
X152193333Y-102052380D01*
X152288571Y-102004761D01*
X152336190Y-101957142D01*
X152383809Y-101861904D01*
X152383809Y-101576190D01*
X152336190Y-101480952D01*
X152288571Y-101433333D01*
X152193333Y-101385714D01*
X152002857Y-101385714D01*
X151907619Y-101433333D01*
X151479047Y-101385714D02*
X151479047Y-102242857D01*
X151526666Y-102338095D01*
X151621904Y-102385714D01*
X151669523Y-102385714D01*
X151479047Y-101052380D02*
X151526666Y-101100000D01*
X151479047Y-101147619D01*
X151431428Y-101100000D01*
X151479047Y-101052380D01*
X151479047Y-101147619D01*
X150860000Y-102052380D02*
X150955238Y-102004761D01*
X151002857Y-101909523D01*
X151002857Y-101052380D01*
X150050476Y-102004761D02*
X150145714Y-102052380D01*
X150336190Y-102052380D01*
X150431428Y-102004761D01*
X150479047Y-101957142D01*
X150526666Y-101861904D01*
X150526666Y-101576190D01*
X150479047Y-101480952D01*
X150431428Y-101433333D01*
X150336190Y-101385714D01*
X150145714Y-101385714D01*
X150050476Y-101433333D01*
X149621904Y-101385714D02*
X149621904Y-102242857D01*
X149669523Y-102338095D01*
X149764761Y-102385714D01*
X149812380Y-102385714D01*
X149621904Y-101052380D02*
X149669523Y-101100000D01*
X149621904Y-101147619D01*
X149574285Y-101100000D01*
X149621904Y-101052380D01*
X149621904Y-101147619D01*
X149002857Y-102052380D02*
X149098095Y-102004761D01*
X149145714Y-101909523D01*
X149145714Y-101052380D01*
X148193333Y-102004761D02*
X148288571Y-102052380D01*
X148479047Y-102052380D01*
X148574285Y-102004761D01*
X148621904Y-101957142D01*
X148669523Y-101861904D01*
X148669523Y-101576190D01*
X148621904Y-101480952D01*
X148574285Y-101433333D01*
X148479047Y-101385714D01*
X148288571Y-101385714D01*
X148193333Y-101433333D01*
X147764761Y-101385714D02*
X147764761Y-102242857D01*
X147812380Y-102338095D01*
X147907619Y-102385714D01*
X147955238Y-102385714D01*
X147764761Y-101052380D02*
X147812380Y-101100000D01*
X147764761Y-101147619D01*
X147717142Y-101100000D01*
X147764761Y-101052380D01*
X147764761Y-101147619D01*
X147145714Y-102052380D02*
X147240952Y-102004761D01*
X147288571Y-101909523D01*
X147288571Y-101052380D01*
X146336190Y-102004761D02*
X146431428Y-102052380D01*
X146621904Y-102052380D01*
X146717142Y-102004761D01*
X146764761Y-101957142D01*
X146812380Y-101861904D01*
X146812380Y-101576190D01*
X146764761Y-101480952D01*
X146717142Y-101433333D01*
X146621904Y-101385714D01*
X146431428Y-101385714D01*
X146336190Y-101433333D01*
%TO.C,D4*%
X128252816Y-99380632D02*
X128252816Y-98380632D01*
X128014721Y-98380632D01*
X127871863Y-98428252D01*
X127776625Y-98523490D01*
X127729006Y-98618728D01*
X127681387Y-98809204D01*
X127681387Y-98952061D01*
X127729006Y-99142537D01*
X127776625Y-99237775D01*
X127871863Y-99333013D01*
X128014721Y-99380632D01*
X128252816Y-99380632D01*
X126824244Y-98713966D02*
X126824244Y-99380632D01*
X127062340Y-98333013D02*
X127300435Y-99047299D01*
X126681387Y-99047299D01*
%TO.C,D3*%
X143819203Y-95785704D02*
X143819203Y-94785704D01*
X143581108Y-94785704D01*
X143438250Y-94833324D01*
X143343012Y-94928562D01*
X143295393Y-95023800D01*
X143247774Y-95214276D01*
X143247774Y-95357133D01*
X143295393Y-95547609D01*
X143343012Y-95642847D01*
X143438250Y-95738085D01*
X143581108Y-95785704D01*
X143819203Y-95785704D01*
X142914441Y-94785704D02*
X142295393Y-94785704D01*
X142628727Y-95166657D01*
X142485869Y-95166657D01*
X142390631Y-95214276D01*
X142343012Y-95261895D01*
X142295393Y-95357133D01*
X142295393Y-95595228D01*
X142343012Y-95690466D01*
X142390631Y-95738085D01*
X142485869Y-95785704D01*
X142771584Y-95785704D01*
X142866822Y-95738085D01*
X142914441Y-95690466D01*
%TO.C,D2*%
X155162423Y-95436682D02*
X155162423Y-94436682D01*
X154924328Y-94436682D01*
X154781470Y-94484302D01*
X154686232Y-94579540D01*
X154638613Y-94674778D01*
X154590994Y-94865254D01*
X154590994Y-95008111D01*
X154638613Y-95198587D01*
X154686232Y-95293825D01*
X154781470Y-95389063D01*
X154924328Y-95436682D01*
X155162423Y-95436682D01*
X154210042Y-94531921D02*
X154162423Y-94484302D01*
X154067185Y-94436682D01*
X153829089Y-94436682D01*
X153733851Y-94484302D01*
X153686232Y-94531921D01*
X153638613Y-94627159D01*
X153638613Y-94722397D01*
X153686232Y-94865254D01*
X154257661Y-95436682D01*
X153638613Y-95436682D01*
%TO.C,D1*%
X172607832Y-100731428D02*
X172607832Y-99731428D01*
X172369737Y-99731428D01*
X172226879Y-99779048D01*
X172131641Y-99874286D01*
X172084022Y-99969524D01*
X172036403Y-100160000D01*
X172036403Y-100302857D01*
X172084022Y-100493333D01*
X172131641Y-100588571D01*
X172226879Y-100683809D01*
X172369737Y-100731428D01*
X172607832Y-100731428D01*
X171084022Y-100731428D02*
X171655451Y-100731428D01*
X171369737Y-100731428D02*
X171369737Y-99731428D01*
X171464975Y-99874286D01*
X171560213Y-99969524D01*
X171655451Y-100017143D01*
%TO.C,R3*%
X137350260Y-99705636D02*
X137683594Y-99229446D01*
X137921689Y-99705636D02*
X137921689Y-98705636D01*
X137540736Y-98705636D01*
X137445498Y-98753256D01*
X137397879Y-98800875D01*
X137350260Y-98896113D01*
X137350260Y-99038970D01*
X137397879Y-99134208D01*
X137445498Y-99181827D01*
X137540736Y-99229446D01*
X137921689Y-99229446D01*
X137016927Y-98705636D02*
X136397879Y-98705636D01*
X136731213Y-99086589D01*
X136588355Y-99086589D01*
X136493117Y-99134208D01*
X136445498Y-99181827D01*
X136397879Y-99277065D01*
X136397879Y-99515160D01*
X136445498Y-99610398D01*
X136493117Y-99658017D01*
X136588355Y-99705636D01*
X136874070Y-99705636D01*
X136969308Y-99658017D01*
X137016927Y-99610398D01*
%TO.C,R4*%
X131391969Y-103378137D02*
X131725303Y-102901947D01*
X131963398Y-103378137D02*
X131963398Y-102378137D01*
X131582445Y-102378137D01*
X131487207Y-102425757D01*
X131439588Y-102473376D01*
X131391969Y-102568614D01*
X131391969Y-102711471D01*
X131439588Y-102806709D01*
X131487207Y-102854328D01*
X131582445Y-102901947D01*
X131963398Y-102901947D01*
X130534826Y-102711471D02*
X130534826Y-103378137D01*
X130772922Y-102330518D02*
X131011017Y-103044804D01*
X130391969Y-103044804D01*
%TO.C,R2*%
X162197105Y-103279439D02*
X162530439Y-102803249D01*
X162768534Y-103279439D02*
X162768534Y-102279439D01*
X162387581Y-102279439D01*
X162292343Y-102327059D01*
X162244724Y-102374678D01*
X162197105Y-102469916D01*
X162197105Y-102612773D01*
X162244724Y-102708011D01*
X162292343Y-102755630D01*
X162387581Y-102803249D01*
X162768534Y-102803249D01*
X161816153Y-102374678D02*
X161768534Y-102327059D01*
X161673296Y-102279439D01*
X161435200Y-102279439D01*
X161339962Y-102327059D01*
X161292343Y-102374678D01*
X161244724Y-102469916D01*
X161244724Y-102565154D01*
X161292343Y-102708011D01*
X161863772Y-103279439D01*
X161244724Y-103279439D01*
%TO.C,R1*%
X168882475Y-102443400D02*
X169215809Y-101967210D01*
X169453904Y-102443400D02*
X169453904Y-101443400D01*
X169072951Y-101443400D01*
X168977713Y-101491020D01*
X168930094Y-101538639D01*
X168882475Y-101633877D01*
X168882475Y-101776734D01*
X168930094Y-101871972D01*
X168977713Y-101919591D01*
X169072951Y-101967210D01*
X169453904Y-101967210D01*
X167930094Y-102443400D02*
X168501523Y-102443400D01*
X168215809Y-102443400D02*
X168215809Y-101443400D01*
X168311047Y-101586258D01*
X168406285Y-101681496D01*
X168501523Y-101729115D01*
D11*
%TO.C,D4*%
X131795749Y-98057052D02*
X130295749Y-98057052D01*
X131795749Y-99657052D02*
X131795749Y-98057052D01*
X131795749Y-99657052D02*
X130295749Y-99657052D01*
%TO.C,D3*%
X141343056Y-94582652D02*
X139843056Y-94582652D01*
X141343056Y-96182652D02*
X141343056Y-94582652D01*
X141343056Y-96182652D02*
X139843056Y-96182652D01*
%TO.C,D2*%
X158742485Y-94198585D02*
X157242485Y-94198585D01*
X158742485Y-95798585D02*
X158742485Y-94198585D01*
X158742485Y-95798585D02*
X157242485Y-95798585D01*
%TO.C,D1*%
X173747603Y-101226680D02*
X172247603Y-101226680D01*
X173747603Y-102826680D02*
X173747603Y-101226680D01*
X173747603Y-102826680D02*
X172247603Y-102826680D01*
%TO.C,R3*%
X140229688Y-97956882D02*
X139775560Y-97956882D01*
X140229688Y-99426882D02*
X139775560Y-99426882D01*
%TO.C,R4*%
X128613528Y-103557981D02*
X128159400Y-103557981D01*
X128613528Y-102087981D02*
X128159400Y-102087981D01*
%TO.C,R2*%
X161576311Y-101022059D02*
X162030439Y-101022059D01*
X161576311Y-99552059D02*
X162030439Y-99552059D01*
%TO.C,R1*%
X168942873Y-104376020D02*
X168488745Y-104376020D01*
X168942873Y-102906020D02*
X168488745Y-102906020D01*
%TD*%
M02*
