G04 #@! TF.GenerationSoftware,KiCad,Pcbnew,(6.99.0-2452-gdb4f2d9dd8)*
G04 #@! TF.CreationDate,2022-07-29T13:50:10-05:00*
G04 #@! TF.ProjectId,an225,616e3232-352e-46b6-9963-61645f706362,rev?*
G04 #@! TF.SameCoordinates,Original*
G04 #@! TF.FileFunction,Legend,Bot*
G04 #@! TF.FilePolarity,Positive*
%FSLAX46Y46*%
G04 Gerber Fmt 4.6, Leading zero omitted, Abs format (unit mm)*
G04 Created by KiCad (PCBNEW (6.99.0-2452-gdb4f2d9dd8)) date 2022-07-29 13:50:10*
%MOMM*%
%LPD*%
G01*
G04 APERTURE LIST*
%ADD10C,0.150000*%
%ADD11C,0.120000*%
%ADD12R,1.700000X1.700000*%
%ADD13O,1.700000X1.700000*%
G04 APERTURE END LIST*
D10*
G36*
X119964600Y-116488121D02*
G01*
X119933849Y-116481606D01*
X119851254Y-116459116D01*
X119795043Y-116440500D01*
X119731303Y-116416233D01*
X119661845Y-116385764D01*
X119588481Y-116348540D01*
X119513021Y-116304008D01*
X119437277Y-116251617D01*
X119399864Y-116222302D01*
X119363058Y-116190814D01*
X119327087Y-116157086D01*
X119292177Y-116121048D01*
X119258553Y-116082631D01*
X119226443Y-116041765D01*
X119196072Y-115998383D01*
X119167668Y-115952414D01*
X119141455Y-115903790D01*
X119117662Y-115852442D01*
X119096513Y-115798301D01*
X119078237Y-115741298D01*
X119055598Y-115665219D01*
X119031984Y-115591274D01*
X119007587Y-115519845D01*
X118982596Y-115451316D01*
X118957203Y-115386068D01*
X118931599Y-115324485D01*
X118905974Y-115266950D01*
X118880520Y-115213846D01*
X118855427Y-115165556D01*
X118830887Y-115122462D01*
X118807090Y-115084947D01*
X118795529Y-115068402D01*
X118784226Y-115053395D01*
X118773205Y-115039974D01*
X118762488Y-115028188D01*
X118752101Y-115018083D01*
X118742066Y-115009708D01*
X118732408Y-115003111D01*
X118723151Y-114998340D01*
X118714318Y-114995442D01*
X118705933Y-114994465D01*
X118061823Y-115245360D01*
X116588012Y-115909220D01*
X112266026Y-117942898D01*
X107969452Y-120029620D01*
X106527406Y-120759784D01*
X105927767Y-121103505D01*
X105911818Y-121122795D01*
X105895967Y-121140981D01*
X105880209Y-121158064D01*
X105864540Y-121174043D01*
X105848955Y-121188920D01*
X105833449Y-121202695D01*
X105818018Y-121215369D01*
X105802655Y-121226943D01*
X105787357Y-121237417D01*
X105772120Y-121246792D01*
X105756937Y-121255070D01*
X105741804Y-121262250D01*
X105726717Y-121268333D01*
X105711671Y-121273320D01*
X105696660Y-121277213D01*
X105681681Y-121280010D01*
X105666728Y-121281714D01*
X105651796Y-121282325D01*
X105636881Y-121281844D01*
X105621979Y-121280271D01*
X105607083Y-121277607D01*
X105592189Y-121273852D01*
X105577294Y-121269009D01*
X105562390Y-121263076D01*
X105547475Y-121256056D01*
X105532544Y-121247948D01*
X105517590Y-121238754D01*
X105502610Y-121228474D01*
X105487599Y-121217109D01*
X105472552Y-121204659D01*
X105457464Y-121191125D01*
X105442331Y-121176509D01*
X105412453Y-121150035D01*
X105397836Y-121139688D01*
X105383428Y-121131273D01*
X105369226Y-121124797D01*
X105355226Y-121120265D01*
X105341424Y-121117680D01*
X105327815Y-121117050D01*
X105314397Y-121118379D01*
X105301165Y-121121671D01*
X105288116Y-121126934D01*
X105275244Y-121134170D01*
X105262548Y-121143386D01*
X105250022Y-121154588D01*
X105237663Y-121167779D01*
X105225467Y-121182966D01*
X105201549Y-121219345D01*
X105178236Y-121263768D01*
X105155497Y-121316276D01*
X105133301Y-121376910D01*
X105111618Y-121445711D01*
X105090416Y-121522722D01*
X105069664Y-121607983D01*
X105049332Y-121701536D01*
X104972624Y-121980642D01*
X104931247Y-122068985D01*
X104888200Y-122125065D01*
X104843743Y-122150290D01*
X104798134Y-122146068D01*
X104751632Y-122113805D01*
X104704497Y-122054911D01*
X104609365Y-121862857D01*
X104514810Y-121581167D01*
X104422905Y-121221104D01*
X104335723Y-120793928D01*
X104255339Y-120310903D01*
X104183825Y-119783290D01*
X104123254Y-119222350D01*
X104075700Y-118639345D01*
X104043235Y-118045538D01*
X104027934Y-117452190D01*
X104031870Y-116870563D01*
X104057115Y-116311918D01*
X104110098Y-115612383D01*
X104170353Y-114972092D01*
X104237000Y-114393142D01*
X104309154Y-113877626D01*
X104385932Y-113427641D01*
X104466453Y-113045281D01*
X104507841Y-112880115D01*
X104549834Y-112732642D01*
X104592320Y-112603122D01*
X104635190Y-112491818D01*
X104678334Y-112398991D01*
X104721641Y-112324904D01*
X104765000Y-112269819D01*
X104808302Y-112233997D01*
X104851435Y-112217700D01*
X104872905Y-112216955D01*
X104894291Y-112221190D01*
X104936758Y-112244729D01*
X104978725Y-112288579D01*
X105020083Y-112353002D01*
X105060722Y-112438259D01*
X105100530Y-112544613D01*
X105139398Y-112672326D01*
X105177215Y-112821658D01*
X105213871Y-112992873D01*
X105249256Y-113186232D01*
X105283258Y-113401997D01*
X105361652Y-113854206D01*
X105414893Y-114021021D01*
X105448738Y-114087812D01*
X105488817Y-114142841D01*
X105536189Y-114185597D01*
X105591917Y-114215566D01*
X105657062Y-114232236D01*
X105732685Y-114235095D01*
X105819848Y-114223629D01*
X105919612Y-114197326D01*
X106161190Y-114098158D01*
X106465911Y-113933490D01*
X106842266Y-113699222D01*
X107298747Y-113391252D01*
X107843846Y-113005479D01*
X109233864Y-111984121D01*
X111080254Y-110602337D01*
X112925953Y-109216005D01*
X113672122Y-108651518D01*
X114311137Y-108162800D01*
X114592953Y-107944507D01*
X114850971Y-107742338D01*
X115086187Y-107555355D01*
X115299598Y-107382619D01*
X115492200Y-107223190D01*
X115664991Y-107076129D01*
X115818967Y-106940497D01*
X115955125Y-106815355D01*
X116074461Y-106699764D01*
X116177973Y-106592785D01*
X116266657Y-106493478D01*
X116341509Y-106400905D01*
X116403527Y-106314126D01*
X116453707Y-106232202D01*
X116474670Y-106192767D01*
X116493046Y-106154194D01*
X116508962Y-106116365D01*
X116522541Y-106079163D01*
X116533908Y-106042470D01*
X116543188Y-106006170D01*
X116555984Y-105934275D01*
X116561926Y-105862539D01*
X116562011Y-105790024D01*
X116557235Y-105715790D01*
X116548595Y-105638898D01*
X116523709Y-105473384D01*
X116456358Y-104326334D01*
X116383213Y-101893970D01*
X116313097Y-98533063D01*
X116254833Y-94600384D01*
X116214219Y-91319893D01*
X116195649Y-89992653D01*
X116176919Y-88854672D01*
X116167185Y-88352104D01*
X116157039Y-87891391D01*
X116146359Y-87470714D01*
X116135020Y-87088253D01*
X116122899Y-86742188D01*
X116109873Y-86430699D01*
X116095817Y-86151967D01*
X116080608Y-85904171D01*
X116064123Y-85685491D01*
X116046237Y-85494109D01*
X116026828Y-85328204D01*
X116016513Y-85254237D01*
X116005771Y-85185957D01*
X115994586Y-85123136D01*
X115982943Y-85065546D01*
X115970826Y-85012962D01*
X115958220Y-84965154D01*
X115945109Y-84921896D01*
X115931478Y-84882960D01*
X115917312Y-84848118D01*
X115902594Y-84817144D01*
X115887311Y-84789809D01*
X115871445Y-84765886D01*
X115854982Y-84745148D01*
X115837906Y-84727367D01*
X115820202Y-84712316D01*
X115801854Y-84699767D01*
X115782847Y-84689493D01*
X115763166Y-84681266D01*
X115742794Y-84674858D01*
X115721717Y-84670043D01*
X115699919Y-84666593D01*
X115677384Y-84664281D01*
X115630043Y-84662158D01*
X115579572Y-84661854D01*
X115270940Y-84635437D01*
X114913257Y-84617474D01*
X114080250Y-84606213D01*
X113139579Y-84626673D01*
X112150272Y-84677453D01*
X111171357Y-84757153D01*
X110261862Y-84864374D01*
X109851592Y-84927868D01*
X109480814Y-84997717D01*
X109156904Y-85073747D01*
X108887241Y-85155781D01*
X108739084Y-85192021D01*
X108597398Y-85229484D01*
X108338125Y-85302267D01*
X108222885Y-85334683D01*
X108118806Y-85362512D01*
X108027062Y-85384301D01*
X107986182Y-85392477D01*
X107948825Y-85398598D01*
X100153920Y-87648208D01*
X98889389Y-88018931D01*
X97788671Y-88337649D01*
X96969971Y-88570404D01*
X96551494Y-88683235D01*
X96281284Y-88753110D01*
X95866273Y-88868918D01*
X95363014Y-89014556D01*
X94828055Y-89173926D01*
X94306869Y-89329469D01*
X93841116Y-89464696D01*
X93481617Y-89565097D01*
X93357594Y-89597701D01*
X93279193Y-89616157D01*
X93072061Y-89668589D01*
X92699739Y-89772718D01*
X92215008Y-89913462D01*
X91670648Y-90075743D01*
X91127127Y-90237903D01*
X90644678Y-90378313D01*
X90275733Y-90481945D01*
X90150209Y-90515273D01*
X90072724Y-90533772D01*
X88213681Y-91049721D01*
X84093222Y-92219011D01*
X81912520Y-92842771D01*
X81050094Y-93088705D01*
X80324128Y-93293068D01*
X79723004Y-93457659D01*
X79465627Y-93525600D01*
X79235103Y-93584272D01*
X79029982Y-93633898D01*
X78848809Y-93674703D01*
X78690133Y-93706913D01*
X78552502Y-93730750D01*
X78434464Y-93746440D01*
X78334566Y-93754208D01*
X78251355Y-93754277D01*
X78215554Y-93751495D01*
X78183381Y-93746873D01*
X78154653Y-93740439D01*
X78129190Y-93732220D01*
X78106809Y-93722245D01*
X78087330Y-93710542D01*
X78070571Y-93697139D01*
X78056350Y-93682064D01*
X78044485Y-93665345D01*
X78034796Y-93647010D01*
X78027100Y-93627088D01*
X78021216Y-93605606D01*
X78014159Y-93558074D01*
X78012172Y-93504641D01*
X78013803Y-93445531D01*
X78022109Y-93311175D01*
X78025880Y-93236379D01*
X78027460Y-93156804D01*
X78042168Y-92716065D01*
X78092301Y-92301944D01*
X78186874Y-91906690D01*
X78334900Y-91522552D01*
X78545395Y-91141778D01*
X78827372Y-90756617D01*
X79189846Y-90359319D01*
X79641830Y-89942131D01*
X80192341Y-89497304D01*
X80850390Y-89017086D01*
X81624994Y-88493725D01*
X82525166Y-87919471D01*
X84738271Y-86587278D01*
X87561821Y-84958499D01*
X89922075Y-83607505D01*
X90876619Y-83050943D01*
X91694548Y-82560647D01*
X92386191Y-82126849D01*
X92687883Y-81928085D01*
X92961878Y-81739782D01*
X93209467Y-81560720D01*
X93431941Y-81389679D01*
X93630591Y-81225435D01*
X93806709Y-81066770D01*
X93961585Y-80912462D01*
X94096512Y-80761289D01*
X94212779Y-80612032D01*
X94311680Y-80463469D01*
X94394504Y-80314378D01*
X94462543Y-80163540D01*
X94517089Y-80009733D01*
X94559432Y-79851736D01*
X94590864Y-79688328D01*
X94612676Y-79518289D01*
X94626160Y-79340397D01*
X94632607Y-79153431D01*
X94629553Y-78747394D01*
X94613844Y-78290411D01*
X94584089Y-77435356D01*
X94577910Y-77089412D01*
X94580310Y-76792799D01*
X94585379Y-76661806D01*
X94593374Y-76541722D01*
X94604557Y-76432073D01*
X94619188Y-76332385D01*
X94637527Y-76242183D01*
X94659836Y-76160994D01*
X94686375Y-76088343D01*
X94717404Y-76023755D01*
X94753184Y-75966757D01*
X94793976Y-75916873D01*
X94840040Y-75873630D01*
X94891638Y-75836554D01*
X94949029Y-75805169D01*
X95012474Y-75779002D01*
X95082235Y-75757578D01*
X95158571Y-75740423D01*
X95241743Y-75727063D01*
X95332012Y-75717023D01*
X95534883Y-75705007D01*
X95769270Y-75700580D01*
X96037256Y-75699947D01*
X96539822Y-75703313D01*
X96743154Y-75711308D01*
X96917491Y-75726876D01*
X96994483Y-75738289D01*
X97065064Y-75752542D01*
X97129511Y-75769952D01*
X97188103Y-75790832D01*
X97241120Y-75815499D01*
X97288839Y-75844269D01*
X97331541Y-75877456D01*
X97369503Y-75915378D01*
X97403004Y-75958348D01*
X97432324Y-76006683D01*
X97457740Y-76060699D01*
X97479532Y-76120710D01*
X97497979Y-76187032D01*
X97513359Y-76259982D01*
X97525951Y-76339874D01*
X97536034Y-76427025D01*
X97549787Y-76624363D01*
X97556850Y-76854520D01*
X97559824Y-77423391D01*
X97561406Y-78062704D01*
X97566591Y-78317264D01*
X97577557Y-78530550D01*
X97585877Y-78622214D01*
X97596444Y-78704156D01*
X97609525Y-78776578D01*
X97625389Y-78839676D01*
X97644301Y-78893652D01*
X97666531Y-78938704D01*
X97692345Y-78975031D01*
X97722009Y-79002832D01*
X97755793Y-79022307D01*
X97793963Y-79033655D01*
X97836786Y-79037075D01*
X97884529Y-79032766D01*
X97937461Y-79020928D01*
X97995848Y-79001759D01*
X98059958Y-78975459D01*
X98130058Y-78942228D01*
X98289297Y-78855765D01*
X98475705Y-78743965D01*
X98938580Y-78450727D01*
X99421897Y-78146085D01*
X99973444Y-77804495D01*
X100525272Y-77467733D01*
X101009430Y-77177574D01*
X101351480Y-76970296D01*
X101489539Y-76876811D01*
X101607479Y-76784016D01*
X101706692Y-76687348D01*
X101788573Y-76582247D01*
X101823450Y-76525109D01*
X101854515Y-76464152D01*
X101905911Y-76328503D01*
X101944154Y-76170738D01*
X101970638Y-75986297D01*
X101986756Y-75770619D01*
X101993902Y-75519142D01*
X101993469Y-75227307D01*
X101986849Y-74890552D01*
X101960626Y-74064039D01*
X101935344Y-73238725D01*
X101930961Y-72904815D01*
X101934884Y-72618519D01*
X101940616Y-72492081D01*
X101949212Y-72376174D01*
X101960934Y-72270339D01*
X101976045Y-72174119D01*
X101994807Y-72087055D01*
X102017483Y-72008690D01*
X102044335Y-71938565D01*
X102075625Y-71876224D01*
X102111617Y-71821208D01*
X102152572Y-71773060D01*
X102198754Y-71731321D01*
X102250424Y-71695534D01*
X102307845Y-71665241D01*
X102371280Y-71639984D01*
X102440991Y-71619306D01*
X102517240Y-71602747D01*
X102600290Y-71589852D01*
X102690404Y-71580161D01*
X102892872Y-71568563D01*
X103126743Y-71564290D01*
X103394118Y-71563679D01*
X103895530Y-71566634D01*
X104098394Y-71573651D01*
X104272331Y-71587317D01*
X104349146Y-71597335D01*
X104419565Y-71609846D01*
X104483864Y-71625128D01*
X104542322Y-71643456D01*
X104595216Y-71665108D01*
X104642826Y-71690362D01*
X104685430Y-71719493D01*
X104723305Y-71752779D01*
X104756729Y-71790498D01*
X104785981Y-71832925D01*
X104811339Y-71880339D01*
X104833081Y-71933016D01*
X104851485Y-71991232D01*
X104866830Y-72055266D01*
X104879393Y-72125394D01*
X104889453Y-72201892D01*
X104903175Y-72375111D01*
X104910221Y-72577138D01*
X104913188Y-73076481D01*
X104914179Y-73230189D01*
X104917088Y-73378808D01*
X104921815Y-73521600D01*
X104928264Y-73657830D01*
X104936335Y-73786761D01*
X104945932Y-73907657D01*
X104956957Y-74019781D01*
X104969310Y-74122397D01*
X104982895Y-74214770D01*
X104997614Y-74296161D01*
X105013368Y-74365836D01*
X105030060Y-74423057D01*
X105038727Y-74446768D01*
X105047592Y-74467089D01*
X105056642Y-74483929D01*
X105065865Y-74497195D01*
X105075249Y-74506796D01*
X105084782Y-74512639D01*
X105094452Y-74514633D01*
X105104245Y-74512684D01*
X105184453Y-74471838D01*
X105340140Y-74384514D01*
X105841195Y-74092159D01*
X106533895Y-73679063D01*
X107344724Y-73188669D01*
X108021038Y-72772292D01*
X108294364Y-72594704D01*
X108528319Y-72430448D01*
X108725789Y-72274221D01*
X108811745Y-72197462D01*
X108889663Y-72120723D01*
X108959903Y-72043340D01*
X109022827Y-71964651D01*
X109078795Y-71883993D01*
X109128169Y-71800704D01*
X109171309Y-71714121D01*
X109208576Y-71623580D01*
X109240331Y-71528421D01*
X109266935Y-71427979D01*
X109288749Y-71321592D01*
X109306134Y-71208597D01*
X109329061Y-70960134D01*
X109338601Y-70677289D01*
X109337643Y-70354758D01*
X109315781Y-69569436D01*
X109292871Y-68786552D01*
X109289431Y-68469808D01*
X109294139Y-68198231D01*
X109300206Y-68078294D01*
X109309099Y-67968345D01*
X109321081Y-67867951D01*
X109336415Y-67776677D01*
X109355364Y-67694089D01*
X109378190Y-67619753D01*
X109405158Y-67553234D01*
X109436529Y-67494098D01*
X109472567Y-67441910D01*
X109513535Y-67396237D01*
X109559696Y-67356644D01*
X109611313Y-67322697D01*
X109668648Y-67293961D01*
X109731965Y-67270003D01*
X109801526Y-67250387D01*
X109877596Y-67234681D01*
X109960436Y-67222448D01*
X110050309Y-67213255D01*
X110252209Y-67202253D01*
X110485399Y-67198200D01*
X110751982Y-67197621D01*
X111251907Y-67200314D01*
X111454170Y-67206709D01*
X111627591Y-67219164D01*
X111704179Y-67228295D01*
X111774388Y-67239697D01*
X111838497Y-67253625D01*
X111896781Y-67270329D01*
X111949519Y-67290063D01*
X111996988Y-67313078D01*
X112039465Y-67339629D01*
X112077228Y-67369966D01*
X112110553Y-67404342D01*
X112139718Y-67443010D01*
X112165001Y-67486222D01*
X112186679Y-67534232D01*
X112205028Y-67587290D01*
X112220327Y-67645650D01*
X112232853Y-67709564D01*
X112242883Y-67779284D01*
X112256565Y-67937154D01*
X112263590Y-68121280D01*
X112266548Y-68576378D01*
X112266792Y-69114741D01*
X112272250Y-69326889D01*
X112285849Y-69501569D01*
X112296774Y-69574988D01*
X112311023Y-69639195D01*
X112329024Y-69694244D01*
X112351208Y-69740185D01*
X112378005Y-69777070D01*
X112409842Y-69804952D01*
X112447151Y-69823883D01*
X112490360Y-69833913D01*
X112539900Y-69835096D01*
X112596199Y-69827483D01*
X112659687Y-69811126D01*
X112730794Y-69786077D01*
X112897583Y-69710111D01*
X113100000Y-69600000D01*
X113341482Y-69456160D01*
X113625466Y-69279007D01*
X114334683Y-68826420D01*
X114903816Y-68448928D01*
X115134593Y-68267990D01*
X115333139Y-68075790D01*
X115502174Y-67859980D01*
X115644419Y-67608209D01*
X115762593Y-67308128D01*
X115859418Y-66947388D01*
X115937613Y-66513638D01*
X115999900Y-65994529D01*
X116049000Y-65377712D01*
X116087631Y-64650837D01*
X116144375Y-62817515D01*
X116191895Y-60395765D01*
X116250013Y-57711357D01*
X116284471Y-56573874D01*
X116324861Y-55556223D01*
X116372936Y-54645916D01*
X116430447Y-53830468D01*
X116499145Y-53097391D01*
X116580780Y-52434199D01*
X116677105Y-51828406D01*
X116789870Y-51267524D01*
X116920826Y-50739067D01*
X117071724Y-50230548D01*
X117244316Y-49729481D01*
X117440352Y-49223379D01*
X117661584Y-48699755D01*
X117909763Y-48146122D01*
X117977843Y-48003647D01*
X118049317Y-47865696D01*
X118123819Y-47732268D01*
X118200986Y-47603362D01*
X118280453Y-47478980D01*
X118361856Y-47359121D01*
X118444830Y-47243784D01*
X118529013Y-47132971D01*
X118614038Y-47026680D01*
X118699543Y-46924913D01*
X118785162Y-46827669D01*
X118870532Y-46734947D01*
X119039066Y-46563073D01*
X119202232Y-46409291D01*
X119357114Y-46273602D01*
X119500800Y-46156004D01*
X119630375Y-46056498D01*
X119742925Y-45975084D01*
X119905296Y-45866532D01*
X119964600Y-45830348D01*
X119964600Y-116488121D01*
G37*
X119964600Y-116488121D02*
X119933849Y-116481606D01*
X119851254Y-116459116D01*
X119795043Y-116440500D01*
X119731303Y-116416233D01*
X119661845Y-116385764D01*
X119588481Y-116348540D01*
X119513021Y-116304008D01*
X119437277Y-116251617D01*
X119399864Y-116222302D01*
X119363058Y-116190814D01*
X119327087Y-116157086D01*
X119292177Y-116121048D01*
X119258553Y-116082631D01*
X119226443Y-116041765D01*
X119196072Y-115998383D01*
X119167668Y-115952414D01*
X119141455Y-115903790D01*
X119117662Y-115852442D01*
X119096513Y-115798301D01*
X119078237Y-115741298D01*
X119055598Y-115665219D01*
X119031984Y-115591274D01*
X119007587Y-115519845D01*
X118982596Y-115451316D01*
X118957203Y-115386068D01*
X118931599Y-115324485D01*
X118905974Y-115266950D01*
X118880520Y-115213846D01*
X118855427Y-115165556D01*
X118830887Y-115122462D01*
X118807090Y-115084947D01*
X118795529Y-115068402D01*
X118784226Y-115053395D01*
X118773205Y-115039974D01*
X118762488Y-115028188D01*
X118752101Y-115018083D01*
X118742066Y-115009708D01*
X118732408Y-115003111D01*
X118723151Y-114998340D01*
X118714318Y-114995442D01*
X118705933Y-114994465D01*
X118061823Y-115245360D01*
X116588012Y-115909220D01*
X112266026Y-117942898D01*
X107969452Y-120029620D01*
X106527406Y-120759784D01*
X105927767Y-121103505D01*
X105911818Y-121122795D01*
X105895967Y-121140981D01*
X105880209Y-121158064D01*
X105864540Y-121174043D01*
X105848955Y-121188920D01*
X105833449Y-121202695D01*
X105818018Y-121215369D01*
X105802655Y-121226943D01*
X105787357Y-121237417D01*
X105772120Y-121246792D01*
X105756937Y-121255070D01*
X105741804Y-121262250D01*
X105726717Y-121268333D01*
X105711671Y-121273320D01*
X105696660Y-121277213D01*
X105681681Y-121280010D01*
X105666728Y-121281714D01*
X105651796Y-121282325D01*
X105636881Y-121281844D01*
X105621979Y-121280271D01*
X105607083Y-121277607D01*
X105592189Y-121273852D01*
X105577294Y-121269009D01*
X105562390Y-121263076D01*
X105547475Y-121256056D01*
X105532544Y-121247948D01*
X105517590Y-121238754D01*
X105502610Y-121228474D01*
X105487599Y-121217109D01*
X105472552Y-121204659D01*
X105457464Y-121191125D01*
X105442331Y-121176509D01*
X105412453Y-121150035D01*
X105397836Y-121139688D01*
X105383428Y-121131273D01*
X105369226Y-121124797D01*
X105355226Y-121120265D01*
X105341424Y-121117680D01*
X105327815Y-121117050D01*
X105314397Y-121118379D01*
X105301165Y-121121671D01*
X105288116Y-121126934D01*
X105275244Y-121134170D01*
X105262548Y-121143386D01*
X105250022Y-121154588D01*
X105237663Y-121167779D01*
X105225467Y-121182966D01*
X105201549Y-121219345D01*
X105178236Y-121263768D01*
X105155497Y-121316276D01*
X105133301Y-121376910D01*
X105111618Y-121445711D01*
X105090416Y-121522722D01*
X105069664Y-121607983D01*
X105049332Y-121701536D01*
X104972624Y-121980642D01*
X104931247Y-122068985D01*
X104888200Y-122125065D01*
X104843743Y-122150290D01*
X104798134Y-122146068D01*
X104751632Y-122113805D01*
X104704497Y-122054911D01*
X104609365Y-121862857D01*
X104514810Y-121581167D01*
X104422905Y-121221104D01*
X104335723Y-120793928D01*
X104255339Y-120310903D01*
X104183825Y-119783290D01*
X104123254Y-119222350D01*
X104075700Y-118639345D01*
X104043235Y-118045538D01*
X104027934Y-117452190D01*
X104031870Y-116870563D01*
X104057115Y-116311918D01*
X104110098Y-115612383D01*
X104170353Y-114972092D01*
X104237000Y-114393142D01*
X104309154Y-113877626D01*
X104385932Y-113427641D01*
X104466453Y-113045281D01*
X104507841Y-112880115D01*
X104549834Y-112732642D01*
X104592320Y-112603122D01*
X104635190Y-112491818D01*
X104678334Y-112398991D01*
X104721641Y-112324904D01*
X104765000Y-112269819D01*
X104808302Y-112233997D01*
X104851435Y-112217700D01*
X104872905Y-112216955D01*
X104894291Y-112221190D01*
X104936758Y-112244729D01*
X104978725Y-112288579D01*
X105020083Y-112353002D01*
X105060722Y-112438259D01*
X105100530Y-112544613D01*
X105139398Y-112672326D01*
X105177215Y-112821658D01*
X105213871Y-112992873D01*
X105249256Y-113186232D01*
X105283258Y-113401997D01*
X105361652Y-113854206D01*
X105414893Y-114021021D01*
X105448738Y-114087812D01*
X105488817Y-114142841D01*
X105536189Y-114185597D01*
X105591917Y-114215566D01*
X105657062Y-114232236D01*
X105732685Y-114235095D01*
X105819848Y-114223629D01*
X105919612Y-114197326D01*
X106161190Y-114098158D01*
X106465911Y-113933490D01*
X106842266Y-113699222D01*
X107298747Y-113391252D01*
X107843846Y-113005479D01*
X109233864Y-111984121D01*
X111080254Y-110602337D01*
X112925953Y-109216005D01*
X113672122Y-108651518D01*
X114311137Y-108162800D01*
X114592953Y-107944507D01*
X114850971Y-107742338D01*
X115086187Y-107555355D01*
X115299598Y-107382619D01*
X115492200Y-107223190D01*
X115664991Y-107076129D01*
X115818967Y-106940497D01*
X115955125Y-106815355D01*
X116074461Y-106699764D01*
X116177973Y-106592785D01*
X116266657Y-106493478D01*
X116341509Y-106400905D01*
X116403527Y-106314126D01*
X116453707Y-106232202D01*
X116474670Y-106192767D01*
X116493046Y-106154194D01*
X116508962Y-106116365D01*
X116522541Y-106079163D01*
X116533908Y-106042470D01*
X116543188Y-106006170D01*
X116555984Y-105934275D01*
X116561926Y-105862539D01*
X116562011Y-105790024D01*
X116557235Y-105715790D01*
X116548595Y-105638898D01*
X116523709Y-105473384D01*
X116456358Y-104326334D01*
X116383213Y-101893970D01*
X116313097Y-98533063D01*
X116254833Y-94600384D01*
X116214219Y-91319893D01*
X116195649Y-89992653D01*
X116176919Y-88854672D01*
X116167185Y-88352104D01*
X116157039Y-87891391D01*
X116146359Y-87470714D01*
X116135020Y-87088253D01*
X116122899Y-86742188D01*
X116109873Y-86430699D01*
X116095817Y-86151967D01*
X116080608Y-85904171D01*
X116064123Y-85685491D01*
X116046237Y-85494109D01*
X116026828Y-85328204D01*
X116016513Y-85254237D01*
X116005771Y-85185957D01*
X115994586Y-85123136D01*
X115982943Y-85065546D01*
X115970826Y-85012962D01*
X115958220Y-84965154D01*
X115945109Y-84921896D01*
X115931478Y-84882960D01*
X115917312Y-84848118D01*
X115902594Y-84817144D01*
X115887311Y-84789809D01*
X115871445Y-84765886D01*
X115854982Y-84745148D01*
X115837906Y-84727367D01*
X115820202Y-84712316D01*
X115801854Y-84699767D01*
X115782847Y-84689493D01*
X115763166Y-84681266D01*
X115742794Y-84674858D01*
X115721717Y-84670043D01*
X115699919Y-84666593D01*
X115677384Y-84664281D01*
X115630043Y-84662158D01*
X115579572Y-84661854D01*
X115270940Y-84635437D01*
X114913257Y-84617474D01*
X114080250Y-84606213D01*
X113139579Y-84626673D01*
X112150272Y-84677453D01*
X111171357Y-84757153D01*
X110261862Y-84864374D01*
X109851592Y-84927868D01*
X109480814Y-84997717D01*
X109156904Y-85073747D01*
X108887241Y-85155781D01*
X108739084Y-85192021D01*
X108597398Y-85229484D01*
X108338125Y-85302267D01*
X108222885Y-85334683D01*
X108118806Y-85362512D01*
X108027062Y-85384301D01*
X107986182Y-85392477D01*
X107948825Y-85398598D01*
X100153920Y-87648208D01*
X98889389Y-88018931D01*
X97788671Y-88337649D01*
X96969971Y-88570404D01*
X96551494Y-88683235D01*
X96281284Y-88753110D01*
X95866273Y-88868918D01*
X95363014Y-89014556D01*
X94828055Y-89173926D01*
X94306869Y-89329469D01*
X93841116Y-89464696D01*
X93481617Y-89565097D01*
X93357594Y-89597701D01*
X93279193Y-89616157D01*
X93072061Y-89668589D01*
X92699739Y-89772718D01*
X92215008Y-89913462D01*
X91670648Y-90075743D01*
X91127127Y-90237903D01*
X90644678Y-90378313D01*
X90275733Y-90481945D01*
X90150209Y-90515273D01*
X90072724Y-90533772D01*
X88213681Y-91049721D01*
X84093222Y-92219011D01*
X81912520Y-92842771D01*
X81050094Y-93088705D01*
X80324128Y-93293068D01*
X79723004Y-93457659D01*
X79465627Y-93525600D01*
X79235103Y-93584272D01*
X79029982Y-93633898D01*
X78848809Y-93674703D01*
X78690133Y-93706913D01*
X78552502Y-93730750D01*
X78434464Y-93746440D01*
X78334566Y-93754208D01*
X78251355Y-93754277D01*
X78215554Y-93751495D01*
X78183381Y-93746873D01*
X78154653Y-93740439D01*
X78129190Y-93732220D01*
X78106809Y-93722245D01*
X78087330Y-93710542D01*
X78070571Y-93697139D01*
X78056350Y-93682064D01*
X78044485Y-93665345D01*
X78034796Y-93647010D01*
X78027100Y-93627088D01*
X78021216Y-93605606D01*
X78014159Y-93558074D01*
X78012172Y-93504641D01*
X78013803Y-93445531D01*
X78022109Y-93311175D01*
X78025880Y-93236379D01*
X78027460Y-93156804D01*
X78042168Y-92716065D01*
X78092301Y-92301944D01*
X78186874Y-91906690D01*
X78334900Y-91522552D01*
X78545395Y-91141778D01*
X78827372Y-90756617D01*
X79189846Y-90359319D01*
X79641830Y-89942131D01*
X80192341Y-89497304D01*
X80850390Y-89017086D01*
X81624994Y-88493725D01*
X82525166Y-87919471D01*
X84738271Y-86587278D01*
X87561821Y-84958499D01*
X89922075Y-83607505D01*
X90876619Y-83050943D01*
X91694548Y-82560647D01*
X92386191Y-82126849D01*
X92687883Y-81928085D01*
X92961878Y-81739782D01*
X93209467Y-81560720D01*
X93431941Y-81389679D01*
X93630591Y-81225435D01*
X93806709Y-81066770D01*
X93961585Y-80912462D01*
X94096512Y-80761289D01*
X94212779Y-80612032D01*
X94311680Y-80463469D01*
X94394504Y-80314378D01*
X94462543Y-80163540D01*
X94517089Y-80009733D01*
X94559432Y-79851736D01*
X94590864Y-79688328D01*
X94612676Y-79518289D01*
X94626160Y-79340397D01*
X94632607Y-79153431D01*
X94629553Y-78747394D01*
X94613844Y-78290411D01*
X94584089Y-77435356D01*
X94577910Y-77089412D01*
X94580310Y-76792799D01*
X94585379Y-76661806D01*
X94593374Y-76541722D01*
X94604557Y-76432073D01*
X94619188Y-76332385D01*
X94637527Y-76242183D01*
X94659836Y-76160994D01*
X94686375Y-76088343D01*
X94717404Y-76023755D01*
X94753184Y-75966757D01*
X94793976Y-75916873D01*
X94840040Y-75873630D01*
X94891638Y-75836554D01*
X94949029Y-75805169D01*
X95012474Y-75779002D01*
X95082235Y-75757578D01*
X95158571Y-75740423D01*
X95241743Y-75727063D01*
X95332012Y-75717023D01*
X95534883Y-75705007D01*
X95769270Y-75700580D01*
X96037256Y-75699947D01*
X96539822Y-75703313D01*
X96743154Y-75711308D01*
X96917491Y-75726876D01*
X96994483Y-75738289D01*
X97065064Y-75752542D01*
X97129511Y-75769952D01*
X97188103Y-75790832D01*
X97241120Y-75815499D01*
X97288839Y-75844269D01*
X97331541Y-75877456D01*
X97369503Y-75915378D01*
X97403004Y-75958348D01*
X97432324Y-76006683D01*
X97457740Y-76060699D01*
X97479532Y-76120710D01*
X97497979Y-76187032D01*
X97513359Y-76259982D01*
X97525951Y-76339874D01*
X97536034Y-76427025D01*
X97549787Y-76624363D01*
X97556850Y-76854520D01*
X97559824Y-77423391D01*
X97561406Y-78062704D01*
X97566591Y-78317264D01*
X97577557Y-78530550D01*
X97585877Y-78622214D01*
X97596444Y-78704156D01*
X97609525Y-78776578D01*
X97625389Y-78839676D01*
X97644301Y-78893652D01*
X97666531Y-78938704D01*
X97692345Y-78975031D01*
X97722009Y-79002832D01*
X97755793Y-79022307D01*
X97793963Y-79033655D01*
X97836786Y-79037075D01*
X97884529Y-79032766D01*
X97937461Y-79020928D01*
X97995848Y-79001759D01*
X98059958Y-78975459D01*
X98130058Y-78942228D01*
X98289297Y-78855765D01*
X98475705Y-78743965D01*
X98938580Y-78450727D01*
X99421897Y-78146085D01*
X99973444Y-77804495D01*
X100525272Y-77467733D01*
X101009430Y-77177574D01*
X101351480Y-76970296D01*
X101489539Y-76876811D01*
X101607479Y-76784016D01*
X101706692Y-76687348D01*
X101788573Y-76582247D01*
X101823450Y-76525109D01*
X101854515Y-76464152D01*
X101905911Y-76328503D01*
X101944154Y-76170738D01*
X101970638Y-75986297D01*
X101986756Y-75770619D01*
X101993902Y-75519142D01*
X101993469Y-75227307D01*
X101986849Y-74890552D01*
X101960626Y-74064039D01*
X101935344Y-73238725D01*
X101930961Y-72904815D01*
X101934884Y-72618519D01*
X101940616Y-72492081D01*
X101949212Y-72376174D01*
X101960934Y-72270339D01*
X101976045Y-72174119D01*
X101994807Y-72087055D01*
X102017483Y-72008690D01*
X102044335Y-71938565D01*
X102075625Y-71876224D01*
X102111617Y-71821208D01*
X102152572Y-71773060D01*
X102198754Y-71731321D01*
X102250424Y-71695534D01*
X102307845Y-71665241D01*
X102371280Y-71639984D01*
X102440991Y-71619306D01*
X102517240Y-71602747D01*
X102600290Y-71589852D01*
X102690404Y-71580161D01*
X102892872Y-71568563D01*
X103126743Y-71564290D01*
X103394118Y-71563679D01*
X103895530Y-71566634D01*
X104098394Y-71573651D01*
X104272331Y-71587317D01*
X104349146Y-71597335D01*
X104419565Y-71609846D01*
X104483864Y-71625128D01*
X104542322Y-71643456D01*
X104595216Y-71665108D01*
X104642826Y-71690362D01*
X104685430Y-71719493D01*
X104723305Y-71752779D01*
X104756729Y-71790498D01*
X104785981Y-71832925D01*
X104811339Y-71880339D01*
X104833081Y-71933016D01*
X104851485Y-71991232D01*
X104866830Y-72055266D01*
X104879393Y-72125394D01*
X104889453Y-72201892D01*
X104903175Y-72375111D01*
X104910221Y-72577138D01*
X104913188Y-73076481D01*
X104914179Y-73230189D01*
X104917088Y-73378808D01*
X104921815Y-73521600D01*
X104928264Y-73657830D01*
X104936335Y-73786761D01*
X104945932Y-73907657D01*
X104956957Y-74019781D01*
X104969310Y-74122397D01*
X104982895Y-74214770D01*
X104997614Y-74296161D01*
X105013368Y-74365836D01*
X105030060Y-74423057D01*
X105038727Y-74446768D01*
X105047592Y-74467089D01*
X105056642Y-74483929D01*
X105065865Y-74497195D01*
X105075249Y-74506796D01*
X105084782Y-74512639D01*
X105094452Y-74514633D01*
X105104245Y-74512684D01*
X105184453Y-74471838D01*
X105340140Y-74384514D01*
X105841195Y-74092159D01*
X106533895Y-73679063D01*
X107344724Y-73188669D01*
X108021038Y-72772292D01*
X108294364Y-72594704D01*
X108528319Y-72430448D01*
X108725789Y-72274221D01*
X108811745Y-72197462D01*
X108889663Y-72120723D01*
X108959903Y-72043340D01*
X109022827Y-71964651D01*
X109078795Y-71883993D01*
X109128169Y-71800704D01*
X109171309Y-71714121D01*
X109208576Y-71623580D01*
X109240331Y-71528421D01*
X109266935Y-71427979D01*
X109288749Y-71321592D01*
X109306134Y-71208597D01*
X109329061Y-70960134D01*
X109338601Y-70677289D01*
X109337643Y-70354758D01*
X109315781Y-69569436D01*
X109292871Y-68786552D01*
X109289431Y-68469808D01*
X109294139Y-68198231D01*
X109300206Y-68078294D01*
X109309099Y-67968345D01*
X109321081Y-67867951D01*
X109336415Y-67776677D01*
X109355364Y-67694089D01*
X109378190Y-67619753D01*
X109405158Y-67553234D01*
X109436529Y-67494098D01*
X109472567Y-67441910D01*
X109513535Y-67396237D01*
X109559696Y-67356644D01*
X109611313Y-67322697D01*
X109668648Y-67293961D01*
X109731965Y-67270003D01*
X109801526Y-67250387D01*
X109877596Y-67234681D01*
X109960436Y-67222448D01*
X110050309Y-67213255D01*
X110252209Y-67202253D01*
X110485399Y-67198200D01*
X110751982Y-67197621D01*
X111251907Y-67200314D01*
X111454170Y-67206709D01*
X111627591Y-67219164D01*
X111704179Y-67228295D01*
X111774388Y-67239697D01*
X111838497Y-67253625D01*
X111896781Y-67270329D01*
X111949519Y-67290063D01*
X111996988Y-67313078D01*
X112039465Y-67339629D01*
X112077228Y-67369966D01*
X112110553Y-67404342D01*
X112139718Y-67443010D01*
X112165001Y-67486222D01*
X112186679Y-67534232D01*
X112205028Y-67587290D01*
X112220327Y-67645650D01*
X112232853Y-67709564D01*
X112242883Y-67779284D01*
X112256565Y-67937154D01*
X112263590Y-68121280D01*
X112266548Y-68576378D01*
X112266792Y-69114741D01*
X112272250Y-69326889D01*
X112285849Y-69501569D01*
X112296774Y-69574988D01*
X112311023Y-69639195D01*
X112329024Y-69694244D01*
X112351208Y-69740185D01*
X112378005Y-69777070D01*
X112409842Y-69804952D01*
X112447151Y-69823883D01*
X112490360Y-69833913D01*
X112539900Y-69835096D01*
X112596199Y-69827483D01*
X112659687Y-69811126D01*
X112730794Y-69786077D01*
X112897583Y-69710111D01*
X113100000Y-69600000D01*
X113341482Y-69456160D01*
X113625466Y-69279007D01*
X114334683Y-68826420D01*
X114903816Y-68448928D01*
X115134593Y-68267990D01*
X115333139Y-68075790D01*
X115502174Y-67859980D01*
X115644419Y-67608209D01*
X115762593Y-67308128D01*
X115859418Y-66947388D01*
X115937613Y-66513638D01*
X115999900Y-65994529D01*
X116049000Y-65377712D01*
X116087631Y-64650837D01*
X116144375Y-62817515D01*
X116191895Y-60395765D01*
X116250013Y-57711357D01*
X116284471Y-56573874D01*
X116324861Y-55556223D01*
X116372936Y-54645916D01*
X116430447Y-53830468D01*
X116499145Y-53097391D01*
X116580780Y-52434199D01*
X116677105Y-51828406D01*
X116789870Y-51267524D01*
X116920826Y-50739067D01*
X117071724Y-50230548D01*
X117244316Y-49729481D01*
X117440352Y-49223379D01*
X117661584Y-48699755D01*
X117909763Y-48146122D01*
X117977843Y-48003647D01*
X118049317Y-47865696D01*
X118123819Y-47732268D01*
X118200986Y-47603362D01*
X118280453Y-47478980D01*
X118361856Y-47359121D01*
X118444830Y-47243784D01*
X118529013Y-47132971D01*
X118614038Y-47026680D01*
X118699543Y-46924913D01*
X118785162Y-46827669D01*
X118870532Y-46734947D01*
X119039066Y-46563073D01*
X119202232Y-46409291D01*
X119357114Y-46273602D01*
X119500800Y-46156004D01*
X119630375Y-46056498D01*
X119742925Y-45975084D01*
X119905296Y-45866532D01*
X119964600Y-45830348D01*
X119964600Y-116488121D01*
X160814285Y-92000714D02*
X160576190Y-92667380D01*
X160576190Y-92667380D02*
X160338095Y-92000714D01*
X160052380Y-91667380D02*
X159433333Y-91667380D01*
X159433333Y-91667380D02*
X159766666Y-92048333D01*
X159766666Y-92048333D02*
X159623809Y-92048333D01*
X159623809Y-92048333D02*
X159528571Y-92095952D01*
X159528571Y-92095952D02*
X159480952Y-92143571D01*
X159480952Y-92143571D02*
X159433333Y-92238809D01*
X159433333Y-92238809D02*
X159433333Y-92476904D01*
X159433333Y-92476904D02*
X159480952Y-92572142D01*
X159480952Y-92572142D02*
X159528571Y-92619761D01*
X159528571Y-92619761D02*
X159623809Y-92667380D01*
X159623809Y-92667380D02*
X159909523Y-92667380D01*
X159909523Y-92667380D02*
X160004761Y-92619761D01*
X160004761Y-92619761D02*
X160052380Y-92572142D01*
D11*
X123785000Y-69895000D02*
X123785000Y-75095000D01*
X118645000Y-69895000D02*
X123785000Y-69895000D01*
X118645000Y-69895000D02*
X118645000Y-72495000D01*
X117375000Y-69895000D02*
X116045000Y-69895000D01*
X116045000Y-69895000D02*
X116045000Y-71225000D01*
X118645000Y-72495000D02*
X116045000Y-72495000D01*
X116045000Y-72495000D02*
X116045000Y-75095000D01*
X116045000Y-75095000D02*
X123785000Y-75095000D01*
%LPC*%
D10*
G36*
X120000000Y-116531908D02*
G01*
X119969249Y-116525393D01*
X119886654Y-116502903D01*
X119830443Y-116484287D01*
X119766703Y-116460020D01*
X119697245Y-116429551D01*
X119623881Y-116392327D01*
X119548421Y-116347795D01*
X119472677Y-116295404D01*
X119435264Y-116266089D01*
X119398458Y-116234601D01*
X119362487Y-116200873D01*
X119327577Y-116164835D01*
X119293953Y-116126418D01*
X119261843Y-116085552D01*
X119231472Y-116042170D01*
X119203068Y-115996201D01*
X119176855Y-115947577D01*
X119153062Y-115896229D01*
X119131913Y-115842088D01*
X119113637Y-115785085D01*
X119090998Y-115709006D01*
X119067384Y-115635061D01*
X119042987Y-115563632D01*
X119017996Y-115495103D01*
X118992603Y-115429855D01*
X118966999Y-115368272D01*
X118941374Y-115310737D01*
X118915920Y-115257633D01*
X118890827Y-115209343D01*
X118866287Y-115166249D01*
X118842490Y-115128734D01*
X118830929Y-115112189D01*
X118819626Y-115097182D01*
X118808605Y-115083761D01*
X118797888Y-115071975D01*
X118787501Y-115061870D01*
X118777466Y-115053495D01*
X118767808Y-115046898D01*
X118758551Y-115042127D01*
X118749718Y-115039229D01*
X118741333Y-115038252D01*
X118097223Y-115289147D01*
X116623412Y-115953007D01*
X112301426Y-117986685D01*
X108004852Y-120073407D01*
X106562806Y-120803571D01*
X105963167Y-121147292D01*
X105947218Y-121166582D01*
X105931367Y-121184768D01*
X105915609Y-121201851D01*
X105899940Y-121217830D01*
X105884355Y-121232707D01*
X105868849Y-121246482D01*
X105853418Y-121259156D01*
X105838055Y-121270730D01*
X105822757Y-121281204D01*
X105807520Y-121290579D01*
X105792337Y-121298857D01*
X105777204Y-121306037D01*
X105762117Y-121312120D01*
X105747071Y-121317107D01*
X105732060Y-121321000D01*
X105717081Y-121323797D01*
X105702128Y-121325501D01*
X105687196Y-121326112D01*
X105672281Y-121325631D01*
X105657379Y-121324058D01*
X105642483Y-121321394D01*
X105627589Y-121317639D01*
X105612694Y-121312796D01*
X105597790Y-121306863D01*
X105582875Y-121299843D01*
X105567944Y-121291735D01*
X105552990Y-121282541D01*
X105538010Y-121272261D01*
X105522999Y-121260896D01*
X105507952Y-121248446D01*
X105492864Y-121234912D01*
X105477731Y-121220296D01*
X105447853Y-121193822D01*
X105433236Y-121183475D01*
X105418828Y-121175060D01*
X105404626Y-121168584D01*
X105390626Y-121164052D01*
X105376824Y-121161467D01*
X105363215Y-121160837D01*
X105349797Y-121162166D01*
X105336565Y-121165458D01*
X105323516Y-121170721D01*
X105310644Y-121177957D01*
X105297948Y-121187173D01*
X105285422Y-121198375D01*
X105273063Y-121211566D01*
X105260867Y-121226753D01*
X105236949Y-121263132D01*
X105213636Y-121307555D01*
X105190897Y-121360063D01*
X105168701Y-121420697D01*
X105147018Y-121489498D01*
X105125816Y-121566509D01*
X105105064Y-121651770D01*
X105084732Y-121745323D01*
X105008024Y-122024429D01*
X104966647Y-122112772D01*
X104923600Y-122168852D01*
X104879143Y-122194077D01*
X104833534Y-122189855D01*
X104787032Y-122157592D01*
X104739897Y-122098698D01*
X104644765Y-121906644D01*
X104550210Y-121624954D01*
X104458305Y-121264891D01*
X104371123Y-120837715D01*
X104290739Y-120354690D01*
X104219225Y-119827077D01*
X104158654Y-119266137D01*
X104111100Y-118683132D01*
X104078635Y-118089325D01*
X104063334Y-117495977D01*
X104067270Y-116914350D01*
X104092515Y-116355705D01*
X104145498Y-115656170D01*
X104205753Y-115015879D01*
X104272400Y-114436929D01*
X104344554Y-113921413D01*
X104421332Y-113471428D01*
X104501853Y-113089068D01*
X104543241Y-112923902D01*
X104585234Y-112776429D01*
X104627720Y-112646909D01*
X104670590Y-112535605D01*
X104713734Y-112442778D01*
X104757041Y-112368691D01*
X104800400Y-112313606D01*
X104843702Y-112277784D01*
X104886835Y-112261487D01*
X104908305Y-112260742D01*
X104929691Y-112264977D01*
X104972158Y-112288516D01*
X105014125Y-112332366D01*
X105055483Y-112396789D01*
X105096122Y-112482046D01*
X105135930Y-112588400D01*
X105174798Y-112716113D01*
X105212615Y-112865445D01*
X105249271Y-113036660D01*
X105284656Y-113230019D01*
X105318658Y-113445784D01*
X105397052Y-113897993D01*
X105450293Y-114064808D01*
X105484138Y-114131599D01*
X105524217Y-114186628D01*
X105571589Y-114229384D01*
X105627317Y-114259353D01*
X105692462Y-114276023D01*
X105768085Y-114278882D01*
X105855248Y-114267416D01*
X105955012Y-114241113D01*
X106196590Y-114141945D01*
X106501311Y-113977277D01*
X106877666Y-113743009D01*
X107334147Y-113435039D01*
X107879246Y-113049266D01*
X109269264Y-112027908D01*
X111115654Y-110646124D01*
X112961353Y-109259792D01*
X113707522Y-108695305D01*
X114346537Y-108206587D01*
X114628353Y-107988294D01*
X114886371Y-107786125D01*
X115121587Y-107599142D01*
X115334998Y-107426406D01*
X115527600Y-107266977D01*
X115700391Y-107119916D01*
X115854367Y-106984284D01*
X115990525Y-106859142D01*
X116109861Y-106743551D01*
X116213373Y-106636572D01*
X116302057Y-106537265D01*
X116376909Y-106444692D01*
X116438927Y-106357913D01*
X116489107Y-106275989D01*
X116510070Y-106236554D01*
X116528446Y-106197981D01*
X116544362Y-106160152D01*
X116557941Y-106122950D01*
X116569308Y-106086257D01*
X116578588Y-106049957D01*
X116591384Y-105978062D01*
X116597326Y-105906326D01*
X116597411Y-105833811D01*
X116592635Y-105759577D01*
X116583995Y-105682685D01*
X116559109Y-105517171D01*
X116491758Y-104370121D01*
X116418613Y-101937757D01*
X116348497Y-98576850D01*
X116290233Y-94644171D01*
X116249619Y-91363680D01*
X116231049Y-90036440D01*
X116212319Y-88898459D01*
X116202585Y-88395891D01*
X116192439Y-87935178D01*
X116181759Y-87514501D01*
X116170420Y-87132040D01*
X116158299Y-86785975D01*
X116145273Y-86474486D01*
X116131217Y-86195754D01*
X116116008Y-85947958D01*
X116099523Y-85729278D01*
X116081637Y-85537896D01*
X116062228Y-85371991D01*
X116051913Y-85298024D01*
X116041171Y-85229744D01*
X116029986Y-85166923D01*
X116018343Y-85109333D01*
X116006226Y-85056749D01*
X115993620Y-85008941D01*
X115980509Y-84965683D01*
X115966878Y-84926747D01*
X115952712Y-84891905D01*
X115937994Y-84860931D01*
X115922711Y-84833596D01*
X115906845Y-84809673D01*
X115890382Y-84788935D01*
X115873306Y-84771154D01*
X115855602Y-84756103D01*
X115837254Y-84743554D01*
X115818247Y-84733280D01*
X115798566Y-84725053D01*
X115778194Y-84718645D01*
X115757117Y-84713830D01*
X115735319Y-84710380D01*
X115712784Y-84708068D01*
X115665443Y-84705945D01*
X115614972Y-84705641D01*
X115306340Y-84679224D01*
X114948657Y-84661261D01*
X114115650Y-84650000D01*
X113174979Y-84670460D01*
X112185672Y-84721240D01*
X111206757Y-84800940D01*
X110297262Y-84908161D01*
X109886992Y-84971655D01*
X109516214Y-85041504D01*
X109192304Y-85117534D01*
X108922641Y-85199568D01*
X108774484Y-85235808D01*
X108632798Y-85273271D01*
X108373525Y-85346054D01*
X108258285Y-85378470D01*
X108154206Y-85406299D01*
X108062462Y-85428088D01*
X108021582Y-85436264D01*
X107984225Y-85442385D01*
X100189320Y-87691995D01*
X98924789Y-88062718D01*
X97824071Y-88381436D01*
X97005371Y-88614191D01*
X96586894Y-88727022D01*
X96316684Y-88796897D01*
X95901673Y-88912705D01*
X95398414Y-89058343D01*
X94863455Y-89217713D01*
X94342269Y-89373256D01*
X93876516Y-89508483D01*
X93517017Y-89608884D01*
X93392994Y-89641488D01*
X93314593Y-89659944D01*
X93107461Y-89712376D01*
X92735139Y-89816505D01*
X92250408Y-89957249D01*
X91706048Y-90119530D01*
X91162527Y-90281690D01*
X90680078Y-90422100D01*
X90311133Y-90525732D01*
X90185609Y-90559060D01*
X90108124Y-90577559D01*
X88249081Y-91093508D01*
X84128622Y-92262798D01*
X81947920Y-92886558D01*
X81085494Y-93132492D01*
X80359528Y-93336855D01*
X79758404Y-93501446D01*
X79501027Y-93569387D01*
X79270503Y-93628059D01*
X79065382Y-93677685D01*
X78884209Y-93718490D01*
X78725533Y-93750700D01*
X78587902Y-93774537D01*
X78469864Y-93790227D01*
X78369966Y-93797995D01*
X78286755Y-93798064D01*
X78250954Y-93795282D01*
X78218781Y-93790660D01*
X78190053Y-93784226D01*
X78164590Y-93776007D01*
X78142209Y-93766032D01*
X78122730Y-93754329D01*
X78105971Y-93740926D01*
X78091750Y-93725851D01*
X78079885Y-93709132D01*
X78070196Y-93690797D01*
X78062500Y-93670875D01*
X78056616Y-93649393D01*
X78049559Y-93601861D01*
X78047572Y-93548428D01*
X78049203Y-93489318D01*
X78057509Y-93354962D01*
X78061280Y-93280166D01*
X78062860Y-93200591D01*
X78077568Y-92759852D01*
X78127701Y-92345731D01*
X78222274Y-91950477D01*
X78370300Y-91566339D01*
X78580795Y-91185565D01*
X78862772Y-90800404D01*
X79225246Y-90403106D01*
X79677230Y-89985918D01*
X80227741Y-89541091D01*
X80885790Y-89060873D01*
X81660394Y-88537512D01*
X82560566Y-87963258D01*
X84773671Y-86631065D01*
X87597221Y-85002286D01*
X89957475Y-83651292D01*
X90912019Y-83094730D01*
X91729948Y-82604434D01*
X92421591Y-82170636D01*
X92723283Y-81971872D01*
X92997278Y-81783569D01*
X93244867Y-81604507D01*
X93467341Y-81433466D01*
X93665991Y-81269222D01*
X93842109Y-81110557D01*
X93996985Y-80956249D01*
X94131912Y-80805076D01*
X94248179Y-80655819D01*
X94347080Y-80507256D01*
X94429904Y-80358165D01*
X94497943Y-80207327D01*
X94552489Y-80053520D01*
X94594832Y-79895523D01*
X94626264Y-79732115D01*
X94648076Y-79562076D01*
X94661560Y-79384184D01*
X94668007Y-79197218D01*
X94664953Y-78791181D01*
X94649244Y-78334198D01*
X94619489Y-77479143D01*
X94613310Y-77133199D01*
X94615710Y-76836586D01*
X94620779Y-76705593D01*
X94628774Y-76585509D01*
X94639957Y-76475860D01*
X94654588Y-76376172D01*
X94672927Y-76285970D01*
X94695236Y-76204781D01*
X94721775Y-76132130D01*
X94752804Y-76067542D01*
X94788584Y-76010544D01*
X94829376Y-75960660D01*
X94875440Y-75917417D01*
X94927038Y-75880341D01*
X94984429Y-75848956D01*
X95047874Y-75822789D01*
X95117635Y-75801365D01*
X95193971Y-75784210D01*
X95277143Y-75770850D01*
X95367412Y-75760810D01*
X95570283Y-75748794D01*
X95804670Y-75744367D01*
X96072656Y-75743734D01*
X96575222Y-75747100D01*
X96778554Y-75755095D01*
X96952891Y-75770663D01*
X97029883Y-75782076D01*
X97100464Y-75796329D01*
X97164911Y-75813739D01*
X97223503Y-75834619D01*
X97276520Y-75859286D01*
X97324239Y-75888056D01*
X97366941Y-75921243D01*
X97404903Y-75959165D01*
X97438404Y-76002135D01*
X97467724Y-76050470D01*
X97493140Y-76104486D01*
X97514932Y-76164497D01*
X97533379Y-76230819D01*
X97548759Y-76303769D01*
X97561351Y-76383661D01*
X97571434Y-76470812D01*
X97585187Y-76668150D01*
X97592250Y-76898307D01*
X97595224Y-77467178D01*
X97596806Y-78106491D01*
X97601991Y-78361051D01*
X97612957Y-78574337D01*
X97621277Y-78666001D01*
X97631844Y-78747943D01*
X97644925Y-78820365D01*
X97660789Y-78883463D01*
X97679701Y-78937439D01*
X97701931Y-78982491D01*
X97727745Y-79018818D01*
X97757409Y-79046619D01*
X97791193Y-79066094D01*
X97829363Y-79077442D01*
X97872186Y-79080862D01*
X97919929Y-79076553D01*
X97972861Y-79064715D01*
X98031248Y-79045546D01*
X98095358Y-79019246D01*
X98165458Y-78986015D01*
X98324697Y-78899552D01*
X98511105Y-78787752D01*
X98973980Y-78494514D01*
X99457297Y-78189872D01*
X100008844Y-77848282D01*
X100560672Y-77511520D01*
X101044830Y-77221361D01*
X101386880Y-77014083D01*
X101524939Y-76920598D01*
X101642879Y-76827803D01*
X101742092Y-76731135D01*
X101823973Y-76626034D01*
X101858850Y-76568896D01*
X101889915Y-76507939D01*
X101941311Y-76372290D01*
X101979554Y-76214525D01*
X102006038Y-76030084D01*
X102022156Y-75814406D01*
X102029302Y-75562929D01*
X102028869Y-75271094D01*
X102022249Y-74934339D01*
X101996026Y-74107826D01*
X101970744Y-73282512D01*
X101966361Y-72948602D01*
X101970284Y-72662306D01*
X101976016Y-72535868D01*
X101984612Y-72419961D01*
X101996334Y-72314126D01*
X102011445Y-72217906D01*
X102030207Y-72130842D01*
X102052883Y-72052477D01*
X102079735Y-71982352D01*
X102111025Y-71920011D01*
X102147017Y-71864995D01*
X102187972Y-71816847D01*
X102234154Y-71775108D01*
X102285824Y-71739321D01*
X102343245Y-71709028D01*
X102406680Y-71683771D01*
X102476391Y-71663093D01*
X102552640Y-71646534D01*
X102635690Y-71633639D01*
X102725804Y-71623948D01*
X102928272Y-71612350D01*
X103162143Y-71608077D01*
X103429518Y-71607466D01*
X103930930Y-71610421D01*
X104133794Y-71617438D01*
X104307731Y-71631104D01*
X104384546Y-71641122D01*
X104454965Y-71653633D01*
X104519264Y-71668915D01*
X104577722Y-71687243D01*
X104630616Y-71708895D01*
X104678226Y-71734149D01*
X104720830Y-71763280D01*
X104758705Y-71796566D01*
X104792129Y-71834285D01*
X104821381Y-71876712D01*
X104846739Y-71924126D01*
X104868481Y-71976803D01*
X104886885Y-72035019D01*
X104902230Y-72099053D01*
X104914793Y-72169181D01*
X104924853Y-72245679D01*
X104938575Y-72418898D01*
X104945621Y-72620925D01*
X104948588Y-73120268D01*
X104949579Y-73273976D01*
X104952488Y-73422595D01*
X104957215Y-73565387D01*
X104963664Y-73701617D01*
X104971735Y-73830548D01*
X104981332Y-73951444D01*
X104992357Y-74063568D01*
X105004710Y-74166184D01*
X105018295Y-74258557D01*
X105033014Y-74339948D01*
X105048768Y-74409623D01*
X105065460Y-74466844D01*
X105074127Y-74490555D01*
X105082992Y-74510876D01*
X105092042Y-74527716D01*
X105101265Y-74540982D01*
X105110649Y-74550583D01*
X105120182Y-74556426D01*
X105129852Y-74558420D01*
X105139645Y-74556471D01*
X105219853Y-74515625D01*
X105375540Y-74428301D01*
X105876595Y-74135946D01*
X106569295Y-73722850D01*
X107380124Y-73232456D01*
X108056438Y-72816079D01*
X108329764Y-72638491D01*
X108563719Y-72474235D01*
X108761189Y-72318008D01*
X108847145Y-72241249D01*
X108925063Y-72164510D01*
X108995303Y-72087127D01*
X109058227Y-72008438D01*
X109114195Y-71927780D01*
X109163569Y-71844491D01*
X109206709Y-71757908D01*
X109243976Y-71667367D01*
X109275731Y-71572208D01*
X109302335Y-71471766D01*
X109324149Y-71365379D01*
X109341534Y-71252384D01*
X109364461Y-71003921D01*
X109374001Y-70721076D01*
X109373043Y-70398545D01*
X109351181Y-69613223D01*
X109328271Y-68830339D01*
X109324831Y-68513595D01*
X109329539Y-68242018D01*
X109335606Y-68122081D01*
X109344499Y-68012132D01*
X109356481Y-67911738D01*
X109371815Y-67820464D01*
X109390764Y-67737876D01*
X109413590Y-67663540D01*
X109440558Y-67597021D01*
X109471929Y-67537885D01*
X109507967Y-67485697D01*
X109548935Y-67440024D01*
X109595096Y-67400431D01*
X109646713Y-67366484D01*
X109704048Y-67337748D01*
X109767365Y-67313790D01*
X109836926Y-67294174D01*
X109912996Y-67278468D01*
X109995836Y-67266235D01*
X110085709Y-67257042D01*
X110287609Y-67246040D01*
X110520799Y-67241987D01*
X110787382Y-67241408D01*
X111287307Y-67244101D01*
X111489570Y-67250496D01*
X111662991Y-67262951D01*
X111739579Y-67272082D01*
X111809788Y-67283484D01*
X111873897Y-67297412D01*
X111932181Y-67314116D01*
X111984919Y-67333850D01*
X112032388Y-67356865D01*
X112074865Y-67383416D01*
X112112628Y-67413753D01*
X112145953Y-67448129D01*
X112175118Y-67486797D01*
X112200401Y-67530009D01*
X112222079Y-67578019D01*
X112240428Y-67631077D01*
X112255727Y-67689437D01*
X112268253Y-67753351D01*
X112278283Y-67823071D01*
X112291965Y-67980941D01*
X112298990Y-68165067D01*
X112301948Y-68620165D01*
X112302192Y-69158528D01*
X112307650Y-69370676D01*
X112321249Y-69545356D01*
X112332174Y-69618775D01*
X112346423Y-69682982D01*
X112364424Y-69738031D01*
X112386608Y-69783972D01*
X112413405Y-69820857D01*
X112445242Y-69848739D01*
X112482551Y-69867670D01*
X112525760Y-69877700D01*
X112575300Y-69878883D01*
X112631599Y-69871270D01*
X112695087Y-69854913D01*
X112766194Y-69829864D01*
X112932983Y-69753898D01*
X113135400Y-69643787D01*
X113376882Y-69499947D01*
X113660866Y-69322794D01*
X114370083Y-68870207D01*
X114939216Y-68492715D01*
X115169993Y-68311777D01*
X115368539Y-68119577D01*
X115537574Y-67903767D01*
X115679819Y-67651996D01*
X115797993Y-67351915D01*
X115894818Y-66991175D01*
X115973013Y-66557425D01*
X116035300Y-66038316D01*
X116084400Y-65421499D01*
X116123031Y-64694624D01*
X116179775Y-62861302D01*
X116227295Y-60439552D01*
X116285413Y-57755144D01*
X116319871Y-56617661D01*
X116360261Y-55600010D01*
X116408336Y-54689703D01*
X116465847Y-53874255D01*
X116534545Y-53141178D01*
X116616180Y-52477986D01*
X116712505Y-51872193D01*
X116825270Y-51311311D01*
X116956226Y-50782854D01*
X117107124Y-50274335D01*
X117279716Y-49773268D01*
X117475752Y-49267166D01*
X117696984Y-48743542D01*
X117945163Y-48189909D01*
X118013243Y-48047434D01*
X118084717Y-47909483D01*
X118159219Y-47776055D01*
X118236386Y-47647149D01*
X118315853Y-47522767D01*
X118397256Y-47402908D01*
X118480230Y-47287571D01*
X118564413Y-47176758D01*
X118649438Y-47070467D01*
X118734943Y-46968700D01*
X118820562Y-46871456D01*
X118905932Y-46778734D01*
X119074466Y-46606860D01*
X119237632Y-46453078D01*
X119392514Y-46317389D01*
X119536200Y-46199791D01*
X119665775Y-46100285D01*
X119778325Y-46018871D01*
X119940696Y-45910319D01*
X120000000Y-45874135D01*
X120000000Y-116531908D01*
G37*
X120000000Y-116531908D02*
X119969249Y-116525393D01*
X119886654Y-116502903D01*
X119830443Y-116484287D01*
X119766703Y-116460020D01*
X119697245Y-116429551D01*
X119623881Y-116392327D01*
X119548421Y-116347795D01*
X119472677Y-116295404D01*
X119435264Y-116266089D01*
X119398458Y-116234601D01*
X119362487Y-116200873D01*
X119327577Y-116164835D01*
X119293953Y-116126418D01*
X119261843Y-116085552D01*
X119231472Y-116042170D01*
X119203068Y-115996201D01*
X119176855Y-115947577D01*
X119153062Y-115896229D01*
X119131913Y-115842088D01*
X119113637Y-115785085D01*
X119090998Y-115709006D01*
X119067384Y-115635061D01*
X119042987Y-115563632D01*
X119017996Y-115495103D01*
X118992603Y-115429855D01*
X118966999Y-115368272D01*
X118941374Y-115310737D01*
X118915920Y-115257633D01*
X118890827Y-115209343D01*
X118866287Y-115166249D01*
X118842490Y-115128734D01*
X118830929Y-115112189D01*
X118819626Y-115097182D01*
X118808605Y-115083761D01*
X118797888Y-115071975D01*
X118787501Y-115061870D01*
X118777466Y-115053495D01*
X118767808Y-115046898D01*
X118758551Y-115042127D01*
X118749718Y-115039229D01*
X118741333Y-115038252D01*
X118097223Y-115289147D01*
X116623412Y-115953007D01*
X112301426Y-117986685D01*
X108004852Y-120073407D01*
X106562806Y-120803571D01*
X105963167Y-121147292D01*
X105947218Y-121166582D01*
X105931367Y-121184768D01*
X105915609Y-121201851D01*
X105899940Y-121217830D01*
X105884355Y-121232707D01*
X105868849Y-121246482D01*
X105853418Y-121259156D01*
X105838055Y-121270730D01*
X105822757Y-121281204D01*
X105807520Y-121290579D01*
X105792337Y-121298857D01*
X105777204Y-121306037D01*
X105762117Y-121312120D01*
X105747071Y-121317107D01*
X105732060Y-121321000D01*
X105717081Y-121323797D01*
X105702128Y-121325501D01*
X105687196Y-121326112D01*
X105672281Y-121325631D01*
X105657379Y-121324058D01*
X105642483Y-121321394D01*
X105627589Y-121317639D01*
X105612694Y-121312796D01*
X105597790Y-121306863D01*
X105582875Y-121299843D01*
X105567944Y-121291735D01*
X105552990Y-121282541D01*
X105538010Y-121272261D01*
X105522999Y-121260896D01*
X105507952Y-121248446D01*
X105492864Y-121234912D01*
X105477731Y-121220296D01*
X105447853Y-121193822D01*
X105433236Y-121183475D01*
X105418828Y-121175060D01*
X105404626Y-121168584D01*
X105390626Y-121164052D01*
X105376824Y-121161467D01*
X105363215Y-121160837D01*
X105349797Y-121162166D01*
X105336565Y-121165458D01*
X105323516Y-121170721D01*
X105310644Y-121177957D01*
X105297948Y-121187173D01*
X105285422Y-121198375D01*
X105273063Y-121211566D01*
X105260867Y-121226753D01*
X105236949Y-121263132D01*
X105213636Y-121307555D01*
X105190897Y-121360063D01*
X105168701Y-121420697D01*
X105147018Y-121489498D01*
X105125816Y-121566509D01*
X105105064Y-121651770D01*
X105084732Y-121745323D01*
X105008024Y-122024429D01*
X104966647Y-122112772D01*
X104923600Y-122168852D01*
X104879143Y-122194077D01*
X104833534Y-122189855D01*
X104787032Y-122157592D01*
X104739897Y-122098698D01*
X104644765Y-121906644D01*
X104550210Y-121624954D01*
X104458305Y-121264891D01*
X104371123Y-120837715D01*
X104290739Y-120354690D01*
X104219225Y-119827077D01*
X104158654Y-119266137D01*
X104111100Y-118683132D01*
X104078635Y-118089325D01*
X104063334Y-117495977D01*
X104067270Y-116914350D01*
X104092515Y-116355705D01*
X104145498Y-115656170D01*
X104205753Y-115015879D01*
X104272400Y-114436929D01*
X104344554Y-113921413D01*
X104421332Y-113471428D01*
X104501853Y-113089068D01*
X104543241Y-112923902D01*
X104585234Y-112776429D01*
X104627720Y-112646909D01*
X104670590Y-112535605D01*
X104713734Y-112442778D01*
X104757041Y-112368691D01*
X104800400Y-112313606D01*
X104843702Y-112277784D01*
X104886835Y-112261487D01*
X104908305Y-112260742D01*
X104929691Y-112264977D01*
X104972158Y-112288516D01*
X105014125Y-112332366D01*
X105055483Y-112396789D01*
X105096122Y-112482046D01*
X105135930Y-112588400D01*
X105174798Y-112716113D01*
X105212615Y-112865445D01*
X105249271Y-113036660D01*
X105284656Y-113230019D01*
X105318658Y-113445784D01*
X105397052Y-113897993D01*
X105450293Y-114064808D01*
X105484138Y-114131599D01*
X105524217Y-114186628D01*
X105571589Y-114229384D01*
X105627317Y-114259353D01*
X105692462Y-114276023D01*
X105768085Y-114278882D01*
X105855248Y-114267416D01*
X105955012Y-114241113D01*
X106196590Y-114141945D01*
X106501311Y-113977277D01*
X106877666Y-113743009D01*
X107334147Y-113435039D01*
X107879246Y-113049266D01*
X109269264Y-112027908D01*
X111115654Y-110646124D01*
X112961353Y-109259792D01*
X113707522Y-108695305D01*
X114346537Y-108206587D01*
X114628353Y-107988294D01*
X114886371Y-107786125D01*
X115121587Y-107599142D01*
X115334998Y-107426406D01*
X115527600Y-107266977D01*
X115700391Y-107119916D01*
X115854367Y-106984284D01*
X115990525Y-106859142D01*
X116109861Y-106743551D01*
X116213373Y-106636572D01*
X116302057Y-106537265D01*
X116376909Y-106444692D01*
X116438927Y-106357913D01*
X116489107Y-106275989D01*
X116510070Y-106236554D01*
X116528446Y-106197981D01*
X116544362Y-106160152D01*
X116557941Y-106122950D01*
X116569308Y-106086257D01*
X116578588Y-106049957D01*
X116591384Y-105978062D01*
X116597326Y-105906326D01*
X116597411Y-105833811D01*
X116592635Y-105759577D01*
X116583995Y-105682685D01*
X116559109Y-105517171D01*
X116491758Y-104370121D01*
X116418613Y-101937757D01*
X116348497Y-98576850D01*
X116290233Y-94644171D01*
X116249619Y-91363680D01*
X116231049Y-90036440D01*
X116212319Y-88898459D01*
X116202585Y-88395891D01*
X116192439Y-87935178D01*
X116181759Y-87514501D01*
X116170420Y-87132040D01*
X116158299Y-86785975D01*
X116145273Y-86474486D01*
X116131217Y-86195754D01*
X116116008Y-85947958D01*
X116099523Y-85729278D01*
X116081637Y-85537896D01*
X116062228Y-85371991D01*
X116051913Y-85298024D01*
X116041171Y-85229744D01*
X116029986Y-85166923D01*
X116018343Y-85109333D01*
X116006226Y-85056749D01*
X115993620Y-85008941D01*
X115980509Y-84965683D01*
X115966878Y-84926747D01*
X115952712Y-84891905D01*
X115937994Y-84860931D01*
X115922711Y-84833596D01*
X115906845Y-84809673D01*
X115890382Y-84788935D01*
X115873306Y-84771154D01*
X115855602Y-84756103D01*
X115837254Y-84743554D01*
X115818247Y-84733280D01*
X115798566Y-84725053D01*
X115778194Y-84718645D01*
X115757117Y-84713830D01*
X115735319Y-84710380D01*
X115712784Y-84708068D01*
X115665443Y-84705945D01*
X115614972Y-84705641D01*
X115306340Y-84679224D01*
X114948657Y-84661261D01*
X114115650Y-84650000D01*
X113174979Y-84670460D01*
X112185672Y-84721240D01*
X111206757Y-84800940D01*
X110297262Y-84908161D01*
X109886992Y-84971655D01*
X109516214Y-85041504D01*
X109192304Y-85117534D01*
X108922641Y-85199568D01*
X108774484Y-85235808D01*
X108632798Y-85273271D01*
X108373525Y-85346054D01*
X108258285Y-85378470D01*
X108154206Y-85406299D01*
X108062462Y-85428088D01*
X108021582Y-85436264D01*
X107984225Y-85442385D01*
X100189320Y-87691995D01*
X98924789Y-88062718D01*
X97824071Y-88381436D01*
X97005371Y-88614191D01*
X96586894Y-88727022D01*
X96316684Y-88796897D01*
X95901673Y-88912705D01*
X95398414Y-89058343D01*
X94863455Y-89217713D01*
X94342269Y-89373256D01*
X93876516Y-89508483D01*
X93517017Y-89608884D01*
X93392994Y-89641488D01*
X93314593Y-89659944D01*
X93107461Y-89712376D01*
X92735139Y-89816505D01*
X92250408Y-89957249D01*
X91706048Y-90119530D01*
X91162527Y-90281690D01*
X90680078Y-90422100D01*
X90311133Y-90525732D01*
X90185609Y-90559060D01*
X90108124Y-90577559D01*
X88249081Y-91093508D01*
X84128622Y-92262798D01*
X81947920Y-92886558D01*
X81085494Y-93132492D01*
X80359528Y-93336855D01*
X79758404Y-93501446D01*
X79501027Y-93569387D01*
X79270503Y-93628059D01*
X79065382Y-93677685D01*
X78884209Y-93718490D01*
X78725533Y-93750700D01*
X78587902Y-93774537D01*
X78469864Y-93790227D01*
X78369966Y-93797995D01*
X78286755Y-93798064D01*
X78250954Y-93795282D01*
X78218781Y-93790660D01*
X78190053Y-93784226D01*
X78164590Y-93776007D01*
X78142209Y-93766032D01*
X78122730Y-93754329D01*
X78105971Y-93740926D01*
X78091750Y-93725851D01*
X78079885Y-93709132D01*
X78070196Y-93690797D01*
X78062500Y-93670875D01*
X78056616Y-93649393D01*
X78049559Y-93601861D01*
X78047572Y-93548428D01*
X78049203Y-93489318D01*
X78057509Y-93354962D01*
X78061280Y-93280166D01*
X78062860Y-93200591D01*
X78077568Y-92759852D01*
X78127701Y-92345731D01*
X78222274Y-91950477D01*
X78370300Y-91566339D01*
X78580795Y-91185565D01*
X78862772Y-90800404D01*
X79225246Y-90403106D01*
X79677230Y-89985918D01*
X80227741Y-89541091D01*
X80885790Y-89060873D01*
X81660394Y-88537512D01*
X82560566Y-87963258D01*
X84773671Y-86631065D01*
X87597221Y-85002286D01*
X89957475Y-83651292D01*
X90912019Y-83094730D01*
X91729948Y-82604434D01*
X92421591Y-82170636D01*
X92723283Y-81971872D01*
X92997278Y-81783569D01*
X93244867Y-81604507D01*
X93467341Y-81433466D01*
X93665991Y-81269222D01*
X93842109Y-81110557D01*
X93996985Y-80956249D01*
X94131912Y-80805076D01*
X94248179Y-80655819D01*
X94347080Y-80507256D01*
X94429904Y-80358165D01*
X94497943Y-80207327D01*
X94552489Y-80053520D01*
X94594832Y-79895523D01*
X94626264Y-79732115D01*
X94648076Y-79562076D01*
X94661560Y-79384184D01*
X94668007Y-79197218D01*
X94664953Y-78791181D01*
X94649244Y-78334198D01*
X94619489Y-77479143D01*
X94613310Y-77133199D01*
X94615710Y-76836586D01*
X94620779Y-76705593D01*
X94628774Y-76585509D01*
X94639957Y-76475860D01*
X94654588Y-76376172D01*
X94672927Y-76285970D01*
X94695236Y-76204781D01*
X94721775Y-76132130D01*
X94752804Y-76067542D01*
X94788584Y-76010544D01*
X94829376Y-75960660D01*
X94875440Y-75917417D01*
X94927038Y-75880341D01*
X94984429Y-75848956D01*
X95047874Y-75822789D01*
X95117635Y-75801365D01*
X95193971Y-75784210D01*
X95277143Y-75770850D01*
X95367412Y-75760810D01*
X95570283Y-75748794D01*
X95804670Y-75744367D01*
X96072656Y-75743734D01*
X96575222Y-75747100D01*
X96778554Y-75755095D01*
X96952891Y-75770663D01*
X97029883Y-75782076D01*
X97100464Y-75796329D01*
X97164911Y-75813739D01*
X97223503Y-75834619D01*
X97276520Y-75859286D01*
X97324239Y-75888056D01*
X97366941Y-75921243D01*
X97404903Y-75959165D01*
X97438404Y-76002135D01*
X97467724Y-76050470D01*
X97493140Y-76104486D01*
X97514932Y-76164497D01*
X97533379Y-76230819D01*
X97548759Y-76303769D01*
X97561351Y-76383661D01*
X97571434Y-76470812D01*
X97585187Y-76668150D01*
X97592250Y-76898307D01*
X97595224Y-77467178D01*
X97596806Y-78106491D01*
X97601991Y-78361051D01*
X97612957Y-78574337D01*
X97621277Y-78666001D01*
X97631844Y-78747943D01*
X97644925Y-78820365D01*
X97660789Y-78883463D01*
X97679701Y-78937439D01*
X97701931Y-78982491D01*
X97727745Y-79018818D01*
X97757409Y-79046619D01*
X97791193Y-79066094D01*
X97829363Y-79077442D01*
X97872186Y-79080862D01*
X97919929Y-79076553D01*
X97972861Y-79064715D01*
X98031248Y-79045546D01*
X98095358Y-79019246D01*
X98165458Y-78986015D01*
X98324697Y-78899552D01*
X98511105Y-78787752D01*
X98973980Y-78494514D01*
X99457297Y-78189872D01*
X100008844Y-77848282D01*
X100560672Y-77511520D01*
X101044830Y-77221361D01*
X101386880Y-77014083D01*
X101524939Y-76920598D01*
X101642879Y-76827803D01*
X101742092Y-76731135D01*
X101823973Y-76626034D01*
X101858850Y-76568896D01*
X101889915Y-76507939D01*
X101941311Y-76372290D01*
X101979554Y-76214525D01*
X102006038Y-76030084D01*
X102022156Y-75814406D01*
X102029302Y-75562929D01*
X102028869Y-75271094D01*
X102022249Y-74934339D01*
X101996026Y-74107826D01*
X101970744Y-73282512D01*
X101966361Y-72948602D01*
X101970284Y-72662306D01*
X101976016Y-72535868D01*
X101984612Y-72419961D01*
X101996334Y-72314126D01*
X102011445Y-72217906D01*
X102030207Y-72130842D01*
X102052883Y-72052477D01*
X102079735Y-71982352D01*
X102111025Y-71920011D01*
X102147017Y-71864995D01*
X102187972Y-71816847D01*
X102234154Y-71775108D01*
X102285824Y-71739321D01*
X102343245Y-71709028D01*
X102406680Y-71683771D01*
X102476391Y-71663093D01*
X102552640Y-71646534D01*
X102635690Y-71633639D01*
X102725804Y-71623948D01*
X102928272Y-71612350D01*
X103162143Y-71608077D01*
X103429518Y-71607466D01*
X103930930Y-71610421D01*
X104133794Y-71617438D01*
X104307731Y-71631104D01*
X104384546Y-71641122D01*
X104454965Y-71653633D01*
X104519264Y-71668915D01*
X104577722Y-71687243D01*
X104630616Y-71708895D01*
X104678226Y-71734149D01*
X104720830Y-71763280D01*
X104758705Y-71796566D01*
X104792129Y-71834285D01*
X104821381Y-71876712D01*
X104846739Y-71924126D01*
X104868481Y-71976803D01*
X104886885Y-72035019D01*
X104902230Y-72099053D01*
X104914793Y-72169181D01*
X104924853Y-72245679D01*
X104938575Y-72418898D01*
X104945621Y-72620925D01*
X104948588Y-73120268D01*
X104949579Y-73273976D01*
X104952488Y-73422595D01*
X104957215Y-73565387D01*
X104963664Y-73701617D01*
X104971735Y-73830548D01*
X104981332Y-73951444D01*
X104992357Y-74063568D01*
X105004710Y-74166184D01*
X105018295Y-74258557D01*
X105033014Y-74339948D01*
X105048768Y-74409623D01*
X105065460Y-74466844D01*
X105074127Y-74490555D01*
X105082992Y-74510876D01*
X105092042Y-74527716D01*
X105101265Y-74540982D01*
X105110649Y-74550583D01*
X105120182Y-74556426D01*
X105129852Y-74558420D01*
X105139645Y-74556471D01*
X105219853Y-74515625D01*
X105375540Y-74428301D01*
X105876595Y-74135946D01*
X106569295Y-73722850D01*
X107380124Y-73232456D01*
X108056438Y-72816079D01*
X108329764Y-72638491D01*
X108563719Y-72474235D01*
X108761189Y-72318008D01*
X108847145Y-72241249D01*
X108925063Y-72164510D01*
X108995303Y-72087127D01*
X109058227Y-72008438D01*
X109114195Y-71927780D01*
X109163569Y-71844491D01*
X109206709Y-71757908D01*
X109243976Y-71667367D01*
X109275731Y-71572208D01*
X109302335Y-71471766D01*
X109324149Y-71365379D01*
X109341534Y-71252384D01*
X109364461Y-71003921D01*
X109374001Y-70721076D01*
X109373043Y-70398545D01*
X109351181Y-69613223D01*
X109328271Y-68830339D01*
X109324831Y-68513595D01*
X109329539Y-68242018D01*
X109335606Y-68122081D01*
X109344499Y-68012132D01*
X109356481Y-67911738D01*
X109371815Y-67820464D01*
X109390764Y-67737876D01*
X109413590Y-67663540D01*
X109440558Y-67597021D01*
X109471929Y-67537885D01*
X109507967Y-67485697D01*
X109548935Y-67440024D01*
X109595096Y-67400431D01*
X109646713Y-67366484D01*
X109704048Y-67337748D01*
X109767365Y-67313790D01*
X109836926Y-67294174D01*
X109912996Y-67278468D01*
X109995836Y-67266235D01*
X110085709Y-67257042D01*
X110287609Y-67246040D01*
X110520799Y-67241987D01*
X110787382Y-67241408D01*
X111287307Y-67244101D01*
X111489570Y-67250496D01*
X111662991Y-67262951D01*
X111739579Y-67272082D01*
X111809788Y-67283484D01*
X111873897Y-67297412D01*
X111932181Y-67314116D01*
X111984919Y-67333850D01*
X112032388Y-67356865D01*
X112074865Y-67383416D01*
X112112628Y-67413753D01*
X112145953Y-67448129D01*
X112175118Y-67486797D01*
X112200401Y-67530009D01*
X112222079Y-67578019D01*
X112240428Y-67631077D01*
X112255727Y-67689437D01*
X112268253Y-67753351D01*
X112278283Y-67823071D01*
X112291965Y-67980941D01*
X112298990Y-68165067D01*
X112301948Y-68620165D01*
X112302192Y-69158528D01*
X112307650Y-69370676D01*
X112321249Y-69545356D01*
X112332174Y-69618775D01*
X112346423Y-69682982D01*
X112364424Y-69738031D01*
X112386608Y-69783972D01*
X112413405Y-69820857D01*
X112445242Y-69848739D01*
X112482551Y-69867670D01*
X112525760Y-69877700D01*
X112575300Y-69878883D01*
X112631599Y-69871270D01*
X112695087Y-69854913D01*
X112766194Y-69829864D01*
X112932983Y-69753898D01*
X113135400Y-69643787D01*
X113376882Y-69499947D01*
X113660866Y-69322794D01*
X114370083Y-68870207D01*
X114939216Y-68492715D01*
X115169993Y-68311777D01*
X115368539Y-68119577D01*
X115537574Y-67903767D01*
X115679819Y-67651996D01*
X115797993Y-67351915D01*
X115894818Y-66991175D01*
X115973013Y-66557425D01*
X116035300Y-66038316D01*
X116084400Y-65421499D01*
X116123031Y-64694624D01*
X116179775Y-62861302D01*
X116227295Y-60439552D01*
X116285413Y-57755144D01*
X116319871Y-56617661D01*
X116360261Y-55600010D01*
X116408336Y-54689703D01*
X116465847Y-53874255D01*
X116534545Y-53141178D01*
X116616180Y-52477986D01*
X116712505Y-51872193D01*
X116825270Y-51311311D01*
X116956226Y-50782854D01*
X117107124Y-50274335D01*
X117279716Y-49773268D01*
X117475752Y-49267166D01*
X117696984Y-48743542D01*
X117945163Y-48189909D01*
X118013243Y-48047434D01*
X118084717Y-47909483D01*
X118159219Y-47776055D01*
X118236386Y-47647149D01*
X118315853Y-47522767D01*
X118397256Y-47402908D01*
X118480230Y-47287571D01*
X118564413Y-47176758D01*
X118649438Y-47070467D01*
X118734943Y-46968700D01*
X118820562Y-46871456D01*
X118905932Y-46778734D01*
X119074466Y-46606860D01*
X119237632Y-46453078D01*
X119392514Y-46317389D01*
X119536200Y-46199791D01*
X119665775Y-46100285D01*
X119778325Y-46018871D01*
X119940696Y-45910319D01*
X120000000Y-45874135D01*
X120000000Y-116531908D01*
D12*
X117374999Y-71224999D03*
D13*
X117374999Y-73764999D03*
X119914999Y-71224999D03*
X119914999Y-73764999D03*
X122454999Y-71224999D03*
X122454999Y-73764999D03*
M02*
