G04 #@! TF.GenerationSoftware,KiCad,Pcbnew,(6.99.0-2452-gdb4f2d9dd8)*
G04 #@! TF.CreationDate,2022-07-29T13:50:10-05:00*
G04 #@! TF.ProjectId,an225,616e3232-352e-46b6-9963-61645f706362,rev?*
G04 #@! TF.SameCoordinates,Original*
G04 #@! TF.FileFunction,Profile,NP*
%FSLAX46Y46*%
G04 Gerber Fmt 4.6, Leading zero omitted, Abs format (unit mm)*
G04 Created by KiCad (PCBNEW (6.99.0-2452-gdb4f2d9dd8)) date 2022-07-29 13:50:10*
%MOMM*%
%LPD*%
G01*
G04 APERTURE LIST*
G04 #@! TA.AperFunction,Profile*
%ADD10C,0.150000*%
G04 #@! TD*
G04 APERTURE END LIST*
D10*
X120025570Y-45922147D02*
X120152004Y-45949285D01*
X120278535Y-45994515D01*
X120405210Y-46057837D01*
X120532076Y-46139251D01*
X120659183Y-46238757D01*
X120786578Y-46356355D01*
X120914309Y-46492044D01*
X121042425Y-46645826D01*
X121170972Y-46817700D01*
X121300000Y-47007666D01*
X121429556Y-47215724D01*
X121559688Y-47441874D01*
X121690444Y-47686115D01*
X121821873Y-47948449D01*
X121954022Y-48228875D01*
X122202201Y-48782508D01*
X122423433Y-49306132D01*
X122619469Y-49812235D01*
X122792061Y-50313302D01*
X122942959Y-50821821D01*
X123073915Y-51350278D01*
X123186680Y-51911160D01*
X123283004Y-52516953D01*
X123364640Y-53180145D01*
X123433338Y-53913221D01*
X123490849Y-54728670D01*
X123538924Y-55638976D01*
X123579314Y-56656627D01*
X123613772Y-57794110D01*
X123671890Y-60478518D01*
X123719410Y-62900268D01*
X123776153Y-64733590D01*
X123814785Y-65460465D01*
X123863884Y-66077282D01*
X123926172Y-66596391D01*
X124004367Y-67030141D01*
X124101192Y-67390881D01*
X124219366Y-67690962D01*
X124361611Y-67942733D01*
X124530645Y-68158543D01*
X124729191Y-68350743D01*
X124959969Y-68531681D01*
X125529101Y-68909173D01*
X126238318Y-69361760D01*
X126522302Y-69538913D01*
X126763785Y-69682753D01*
X126966202Y-69792864D01*
X127132990Y-69868830D01*
X127204097Y-69893879D01*
X127267586Y-69910236D01*
X127323885Y-69917849D01*
X127373424Y-69916666D01*
X127416634Y-69906636D01*
X127453943Y-69887705D01*
X127485780Y-69859823D01*
X127512576Y-69822938D01*
X127534761Y-69776997D01*
X127552762Y-69721948D01*
X127567011Y-69657741D01*
X127577936Y-69584322D01*
X127591534Y-69409642D01*
X127596993Y-69197494D01*
X127597237Y-68659131D01*
X127600195Y-68204033D01*
X127607220Y-68019907D01*
X127620902Y-67862037D01*
X127630932Y-67792316D01*
X127643457Y-67728403D01*
X127658757Y-67670043D01*
X127677106Y-67616984D01*
X127698784Y-67568975D01*
X127724067Y-67525763D01*
X127753232Y-67487095D01*
X127786557Y-67452719D01*
X127824320Y-67422382D01*
X127866797Y-67395831D01*
X127914266Y-67372816D01*
X127967004Y-67353082D01*
X128025288Y-67336378D01*
X128089397Y-67322450D01*
X128159606Y-67311048D01*
X128236194Y-67301917D01*
X128409615Y-67289462D01*
X128611877Y-67283067D01*
X129111803Y-67280374D01*
X129378386Y-67280953D01*
X129611576Y-67285006D01*
X129813476Y-67296008D01*
X129903349Y-67305201D01*
X129986189Y-67317434D01*
X130062258Y-67333140D01*
X130131820Y-67352756D01*
X130195137Y-67376715D01*
X130252472Y-67405450D01*
X130304089Y-67439397D01*
X130350249Y-67478990D01*
X130391217Y-67524663D01*
X130427256Y-67576851D01*
X130458627Y-67635987D01*
X130485595Y-67702506D01*
X130508421Y-67776843D01*
X130527370Y-67859430D01*
X130542704Y-67950704D01*
X130554686Y-68051098D01*
X130563579Y-68161047D01*
X130569646Y-68280984D01*
X130574354Y-68552561D01*
X130570914Y-68869305D01*
X130548004Y-69652189D01*
X130526142Y-70437511D01*
X130525184Y-70760042D01*
X130534724Y-71042887D01*
X130557650Y-71291350D01*
X130575035Y-71404345D01*
X130596850Y-71510732D01*
X130623454Y-71611174D01*
X130655209Y-71706333D01*
X130692476Y-71796874D01*
X130735616Y-71883457D01*
X130784990Y-71966746D01*
X130840958Y-72047404D01*
X130903882Y-72126093D01*
X130974122Y-72203476D01*
X131052040Y-72280215D01*
X131137996Y-72356974D01*
X131335466Y-72513201D01*
X131569421Y-72677457D01*
X131842746Y-72855045D01*
X132519061Y-73271422D01*
X133329890Y-73761816D01*
X134022589Y-74174912D01*
X134523645Y-74467267D01*
X134679332Y-74554591D01*
X134759540Y-74595437D01*
X134769333Y-74597386D01*
X134779003Y-74595392D01*
X134788536Y-74589549D01*
X134797920Y-74579948D01*
X134807143Y-74566682D01*
X134816193Y-74549842D01*
X134825058Y-74529521D01*
X134833725Y-74505810D01*
X134850417Y-74448589D01*
X134866171Y-74378914D01*
X134880889Y-74297523D01*
X134894475Y-74205150D01*
X134906828Y-74102534D01*
X134917853Y-73990410D01*
X134927450Y-73869514D01*
X134935521Y-73740583D01*
X134941970Y-73604353D01*
X134946697Y-73461561D01*
X134949605Y-73312942D01*
X134950596Y-73159234D01*
X134953563Y-72659891D01*
X134960610Y-72457864D01*
X134974332Y-72284645D01*
X134984392Y-72208147D01*
X134996955Y-72138019D01*
X135012299Y-72073985D01*
X135030704Y-72015769D01*
X135052446Y-71963092D01*
X135077804Y-71915678D01*
X135107056Y-71873251D01*
X135140480Y-71835532D01*
X135178355Y-71802246D01*
X135220958Y-71773115D01*
X135268568Y-71747861D01*
X135321463Y-71726209D01*
X135379921Y-71707881D01*
X135444220Y-71692599D01*
X135514639Y-71680088D01*
X135591454Y-71670070D01*
X135765391Y-71656404D01*
X135968255Y-71649387D01*
X136469667Y-71646432D01*
X136737042Y-71647043D01*
X136970913Y-71651316D01*
X137173381Y-71662914D01*
X137263495Y-71672605D01*
X137346545Y-71685500D01*
X137422794Y-71702059D01*
X137492505Y-71722737D01*
X137555940Y-71747994D01*
X137613361Y-71778287D01*
X137665031Y-71814074D01*
X137711212Y-71855813D01*
X137752168Y-71903961D01*
X137788160Y-71958977D01*
X137819450Y-72021318D01*
X137846302Y-72091443D01*
X137868978Y-72169808D01*
X137887740Y-72256872D01*
X137902851Y-72353092D01*
X137914573Y-72458927D01*
X137923169Y-72574834D01*
X137928901Y-72701272D01*
X137932823Y-72987568D01*
X137928441Y-73321478D01*
X137903158Y-74146792D01*
X137876936Y-74973305D01*
X137870316Y-75310060D01*
X137869883Y-75601895D01*
X137877028Y-75853372D01*
X137893146Y-76069050D01*
X137919631Y-76253491D01*
X137957874Y-76411256D01*
X138009270Y-76546905D01*
X138040335Y-76607862D01*
X138075211Y-76665000D01*
X138157092Y-76770101D01*
X138256306Y-76866769D01*
X138374246Y-76959564D01*
X138512305Y-77053049D01*
X138854355Y-77260327D01*
X139338513Y-77550486D01*
X139890341Y-77887248D01*
X140441888Y-78228838D01*
X140925204Y-78533480D01*
X141388080Y-78826718D01*
X141574487Y-78938518D01*
X141733727Y-79024981D01*
X141803827Y-79058212D01*
X141867937Y-79084512D01*
X141926324Y-79103681D01*
X141979256Y-79115519D01*
X142026999Y-79119828D01*
X142069822Y-79116408D01*
X142107992Y-79105060D01*
X142141775Y-79085585D01*
X142171440Y-79057784D01*
X142197254Y-79021457D01*
X142219483Y-78976405D01*
X142238396Y-78922429D01*
X142254260Y-78859331D01*
X142267341Y-78786909D01*
X142277908Y-78704967D01*
X142286228Y-78613303D01*
X142297194Y-78400017D01*
X142302379Y-78145457D01*
X142303961Y-77506144D01*
X142306935Y-76937273D01*
X142313998Y-76707116D01*
X142327751Y-76509778D01*
X142337834Y-76422628D01*
X142350426Y-76342735D01*
X142365806Y-76269785D01*
X142384253Y-76203463D01*
X142406045Y-76143451D01*
X142431461Y-76089436D01*
X142460781Y-76041101D01*
X142494282Y-75998131D01*
X142532244Y-75960209D01*
X142574945Y-75927022D01*
X142622665Y-75898252D01*
X142675682Y-75873585D01*
X142734274Y-75852705D01*
X142798721Y-75835295D01*
X142869302Y-75821042D01*
X142946294Y-75809629D01*
X143120631Y-75794061D01*
X143323962Y-75786066D01*
X143826529Y-75782700D01*
X144094515Y-75783333D01*
X144328901Y-75787760D01*
X144531773Y-75799776D01*
X144622042Y-75809816D01*
X144705214Y-75823176D01*
X144781550Y-75840331D01*
X144851310Y-75861755D01*
X144914756Y-75887922D01*
X144972147Y-75919307D01*
X145023744Y-75956383D01*
X145069809Y-75999626D01*
X145110601Y-76049510D01*
X145146381Y-76106508D01*
X145177410Y-76171096D01*
X145203949Y-76243747D01*
X145226257Y-76324936D01*
X145244597Y-76415138D01*
X145259228Y-76514826D01*
X145270411Y-76624475D01*
X145278406Y-76744559D01*
X145283475Y-76875552D01*
X145285875Y-77172165D01*
X145279696Y-77518109D01*
X145249940Y-78373164D01*
X145234232Y-78830147D01*
X145231178Y-79236184D01*
X145237625Y-79423150D01*
X145251108Y-79601042D01*
X145272921Y-79771081D01*
X145304353Y-79934489D01*
X145346696Y-80092486D01*
X145401242Y-80246293D01*
X145469281Y-80397131D01*
X145552105Y-80546222D01*
X145651006Y-80694785D01*
X145767273Y-80844042D01*
X145902200Y-80995215D01*
X146057076Y-81149523D01*
X146233194Y-81308188D01*
X146431844Y-81472432D01*
X146654318Y-81643473D01*
X146901907Y-81822535D01*
X147175902Y-82010838D01*
X147477594Y-82209602D01*
X148169237Y-82643400D01*
X148987166Y-83133696D01*
X149941709Y-83690258D01*
X152301964Y-85041252D01*
X155125516Y-86670031D01*
X157338623Y-88002224D01*
X158238795Y-88576478D01*
X159013399Y-89099839D01*
X159671448Y-89580057D01*
X160221958Y-90024884D01*
X160673942Y-90442072D01*
X161036415Y-90839370D01*
X161318392Y-91224531D01*
X161528886Y-91605305D01*
X161676912Y-91989443D01*
X161771484Y-92384697D01*
X161821617Y-92798818D01*
X161836325Y-93239557D01*
X161837905Y-93319132D01*
X161841675Y-93393928D01*
X161849982Y-93528284D01*
X161851612Y-93587394D01*
X161849625Y-93640827D01*
X161842568Y-93688359D01*
X161836685Y-93709841D01*
X161828989Y-93729763D01*
X161819300Y-93748098D01*
X161807435Y-93764817D01*
X161793214Y-93779892D01*
X161776455Y-93793295D01*
X161756975Y-93804998D01*
X161734595Y-93814973D01*
X161709132Y-93823192D01*
X161680404Y-93829626D01*
X161648230Y-93834248D01*
X161612430Y-93837030D01*
X161529219Y-93836961D01*
X161429321Y-93829193D01*
X161311283Y-93813503D01*
X161173652Y-93789666D01*
X161014976Y-93757456D01*
X160833803Y-93716651D01*
X160628681Y-93667025D01*
X160398158Y-93608353D01*
X160140781Y-93540412D01*
X159539657Y-93375821D01*
X158813691Y-93171458D01*
X157951265Y-92925524D01*
X155770563Y-92301764D01*
X151650104Y-91132474D01*
X149791061Y-90616525D01*
X149713576Y-90598026D01*
X149588052Y-90564698D01*
X149219107Y-90461066D01*
X148736658Y-90320656D01*
X148193136Y-90158496D01*
X147648777Y-89996215D01*
X147164046Y-89855471D01*
X146791724Y-89751342D01*
X146584592Y-89698910D01*
X146506191Y-89680454D01*
X146382168Y-89647850D01*
X146022669Y-89547450D01*
X145556916Y-89412222D01*
X145035730Y-89256679D01*
X144500776Y-89097309D01*
X143997520Y-88951671D01*
X143582510Y-88835863D01*
X143312300Y-88765988D01*
X142893823Y-88653157D01*
X142075123Y-88420402D01*
X140974405Y-88101684D01*
X139709874Y-87730961D01*
X131914969Y-85481351D01*
X131877612Y-85475230D01*
X131836732Y-85467054D01*
X131744988Y-85445265D01*
X131640909Y-85417436D01*
X131525669Y-85385020D01*
X131266396Y-85312237D01*
X131124710Y-85274774D01*
X130976553Y-85238534D01*
X130706890Y-85156499D01*
X130382980Y-85080470D01*
X130012202Y-85010621D01*
X129601932Y-84947127D01*
X128692437Y-84839906D01*
X127713522Y-84760206D01*
X126724215Y-84709426D01*
X125783544Y-84688966D01*
X124950537Y-84700227D01*
X124592854Y-84718190D01*
X124284222Y-84744607D01*
X124233750Y-84744911D01*
X124186410Y-84747034D01*
X124163875Y-84749346D01*
X124142077Y-84752796D01*
X124121000Y-84757611D01*
X124100628Y-84764019D01*
X124080947Y-84772246D01*
X124061940Y-84782520D01*
X124043592Y-84795069D01*
X124025888Y-84810120D01*
X124008812Y-84827901D01*
X123992349Y-84848639D01*
X123976483Y-84872562D01*
X123961200Y-84899897D01*
X123946482Y-84930871D01*
X123932316Y-84965713D01*
X123918685Y-85004649D01*
X123905574Y-85047907D01*
X123892968Y-85095715D01*
X123880851Y-85148299D01*
X123869208Y-85205889D01*
X123858023Y-85268710D01*
X123847281Y-85336990D01*
X123836966Y-85410957D01*
X123817557Y-85576862D01*
X123799671Y-85768244D01*
X123783186Y-85986924D01*
X123767977Y-86234720D01*
X123753921Y-86513452D01*
X123740895Y-86824941D01*
X123728774Y-87171006D01*
X123717435Y-87553467D01*
X123706755Y-87974144D01*
X123696609Y-88434857D01*
X123686875Y-88937425D01*
X123668145Y-90075406D01*
X123649575Y-91402646D01*
X123608961Y-94683137D01*
X123550697Y-98615816D01*
X123480581Y-101976723D01*
X123407436Y-104409087D01*
X123340085Y-105556137D01*
X123315199Y-105721651D01*
X123306559Y-105798543D01*
X123301783Y-105872777D01*
X123301868Y-105945292D01*
X123307810Y-106017028D01*
X123320606Y-106088923D01*
X123329886Y-106125223D01*
X123341253Y-106161916D01*
X123354832Y-106199118D01*
X123370748Y-106236947D01*
X123389124Y-106275520D01*
X123410087Y-106314955D01*
X123460267Y-106396879D01*
X123522285Y-106483658D01*
X123597137Y-106576231D01*
X123685821Y-106675538D01*
X123789333Y-106782517D01*
X123908669Y-106898108D01*
X124044827Y-107023250D01*
X124198803Y-107158882D01*
X124371594Y-107305943D01*
X124564196Y-107465372D01*
X124777607Y-107638108D01*
X125012823Y-107825091D01*
X125270840Y-108027260D01*
X125552657Y-108245553D01*
X126191672Y-108734271D01*
X126937841Y-109298758D01*
X128783540Y-110685090D01*
X130629930Y-112066874D01*
X132019948Y-113088232D01*
X132565047Y-113474005D01*
X133021528Y-113781975D01*
X133397883Y-114016243D01*
X133702604Y-114180911D01*
X133944182Y-114280079D01*
X134043946Y-114306382D01*
X134131109Y-114317848D01*
X134206732Y-114314989D01*
X134271877Y-114298319D01*
X134327605Y-114268350D01*
X134374977Y-114225594D01*
X134415056Y-114170564D01*
X134448901Y-114103774D01*
X134502142Y-113936959D01*
X134580536Y-113484750D01*
X134614538Y-113268985D01*
X134649923Y-113075626D01*
X134686579Y-112904411D01*
X134724396Y-112755079D01*
X134763264Y-112627366D01*
X134803072Y-112521012D01*
X134843711Y-112435755D01*
X134885069Y-112371332D01*
X134927037Y-112327482D01*
X134969503Y-112303943D01*
X134990889Y-112299708D01*
X135012359Y-112300453D01*
X135055492Y-112316750D01*
X135098794Y-112352572D01*
X135142153Y-112407657D01*
X135185460Y-112481744D01*
X135228604Y-112574571D01*
X135271474Y-112685875D01*
X135313961Y-112815395D01*
X135355953Y-112962868D01*
X135397341Y-113128034D01*
X135477862Y-113510394D01*
X135554640Y-113960379D01*
X135626794Y-114475895D01*
X135693441Y-115054845D01*
X135753696Y-115695136D01*
X135806679Y-116394671D01*
X135831924Y-116953316D01*
X135835860Y-117534943D01*
X135820559Y-118128291D01*
X135788094Y-118722098D01*
X135740540Y-119305103D01*
X135679969Y-119866043D01*
X135608455Y-120393656D01*
X135528070Y-120876681D01*
X135440889Y-121303856D01*
X135348984Y-121663920D01*
X135254429Y-121945610D01*
X135159297Y-122137664D01*
X135112162Y-122196558D01*
X135065660Y-122228821D01*
X135020051Y-122233043D01*
X134975594Y-122207818D01*
X134932547Y-122151738D01*
X134891170Y-122063395D01*
X134814462Y-121784289D01*
X134794130Y-121690736D01*
X134773378Y-121605475D01*
X134752176Y-121528464D01*
X134730493Y-121459663D01*
X134708297Y-121399029D01*
X134685558Y-121346521D01*
X134662245Y-121302098D01*
X134638327Y-121265719D01*
X134626131Y-121250532D01*
X134613772Y-121237341D01*
X134601246Y-121226139D01*
X134588550Y-121216923D01*
X134575678Y-121209686D01*
X134562629Y-121204424D01*
X134549397Y-121201132D01*
X134535979Y-121199803D01*
X134522370Y-121200433D01*
X134508568Y-121203017D01*
X134494568Y-121207550D01*
X134480366Y-121214027D01*
X134465958Y-121222441D01*
X134451341Y-121232788D01*
X134421463Y-121259262D01*
X134406330Y-121273878D01*
X134391242Y-121287412D01*
X134376195Y-121299862D01*
X134361184Y-121311227D01*
X134346204Y-121321507D01*
X134331250Y-121330701D01*
X134316319Y-121338809D01*
X134301403Y-121345829D01*
X134286500Y-121351762D01*
X134271605Y-121356605D01*
X134256711Y-121360360D01*
X134241815Y-121363024D01*
X134226913Y-121364597D01*
X134211998Y-121365078D01*
X134197066Y-121364467D01*
X134182113Y-121362763D01*
X134167134Y-121359966D01*
X134152123Y-121356073D01*
X134137077Y-121351086D01*
X134121990Y-121345003D01*
X134106857Y-121337823D01*
X134091674Y-121329545D01*
X134076437Y-121320170D01*
X134061139Y-121309696D01*
X134045776Y-121298122D01*
X134030345Y-121285448D01*
X134014839Y-121271673D01*
X133999254Y-121256796D01*
X133983585Y-121240817D01*
X133967827Y-121223735D01*
X133951976Y-121205548D01*
X133936027Y-121186258D01*
X133336388Y-120842537D01*
X131894342Y-120112373D01*
X127597768Y-118025651D01*
X123275782Y-115991973D01*
X121801971Y-115328113D01*
X121157861Y-115077218D01*
X121149476Y-115078195D01*
X121140643Y-115081093D01*
X121131386Y-115085864D01*
X121121728Y-115092461D01*
X121111693Y-115100836D01*
X121101306Y-115110941D01*
X121090589Y-115122727D01*
X121079568Y-115136148D01*
X121068265Y-115151155D01*
X121056704Y-115167700D01*
X121032907Y-115205215D01*
X121008367Y-115248309D01*
X120983274Y-115296599D01*
X120957820Y-115349704D01*
X120932195Y-115407238D01*
X120906591Y-115468821D01*
X120881198Y-115534069D01*
X120856207Y-115602598D01*
X120831810Y-115674027D01*
X120808196Y-115747972D01*
X120785557Y-115824051D01*
X120752298Y-115935195D01*
X120719145Y-116035167D01*
X120685444Y-116124518D01*
X120650539Y-116203801D01*
X120632431Y-116239839D01*
X120613775Y-116273567D01*
X120594491Y-116305055D01*
X120574496Y-116334370D01*
X120553708Y-116361582D01*
X120532046Y-116386761D01*
X120509428Y-116409975D01*
X120485771Y-116431293D01*
X120460994Y-116450784D01*
X120435015Y-116468517D01*
X120407752Y-116484561D01*
X120379123Y-116498986D01*
X120349045Y-116511860D01*
X120317438Y-116523253D01*
X120284219Y-116533233D01*
X120249306Y-116541869D01*
X120212617Y-116549231D01*
X120174071Y-116555387D01*
X120091077Y-116564359D01*
X119999670Y-116569337D01*
X119899194Y-116570874D01*
X119798718Y-116569337D01*
X119707311Y-116564359D01*
X119624317Y-116555387D01*
X119585771Y-116549231D01*
X119549082Y-116541869D01*
X119514169Y-116533233D01*
X119480950Y-116523253D01*
X119449342Y-116511860D01*
X119419265Y-116498986D01*
X119390635Y-116484561D01*
X119363372Y-116468517D01*
X119337392Y-116450784D01*
X119312615Y-116431293D01*
X119288958Y-116409975D01*
X119266340Y-116386761D01*
X119244678Y-116361582D01*
X119223891Y-116334370D01*
X119203896Y-116305055D01*
X119184611Y-116273567D01*
X119165956Y-116239839D01*
X119147847Y-116203801D01*
X119112942Y-116124518D01*
X119079242Y-116035167D01*
X119046090Y-115935195D01*
X119012831Y-115824051D01*
X118990192Y-115747972D01*
X118966579Y-115674027D01*
X118942181Y-115602598D01*
X118917190Y-115534069D01*
X118891797Y-115468821D01*
X118866193Y-115407238D01*
X118840568Y-115349704D01*
X118815114Y-115296599D01*
X118790021Y-115248309D01*
X118765480Y-115205215D01*
X118741682Y-115167700D01*
X118718819Y-115136148D01*
X118697080Y-115110941D01*
X118676657Y-115092461D01*
X118657741Y-115081093D01*
X118648908Y-115078195D01*
X118640523Y-115077218D01*
X117996414Y-115328113D01*
X116522605Y-115991973D01*
X112200620Y-118025651D01*
X107904046Y-120112373D01*
X106462000Y-120842537D01*
X105862361Y-121186258D01*
X105827524Y-121227743D01*
X105810621Y-121246509D01*
X105794026Y-121263961D01*
X105777712Y-121280100D01*
X105761651Y-121294930D01*
X105745819Y-121308451D01*
X105730186Y-121320667D01*
X105714727Y-121331579D01*
X105699415Y-121341189D01*
X105684222Y-121349499D01*
X105669123Y-121356513D01*
X105654090Y-121362231D01*
X105639096Y-121366657D01*
X105624115Y-121369791D01*
X105609119Y-121371637D01*
X105594082Y-121372196D01*
X105578977Y-121371471D01*
X105563777Y-121369464D01*
X105548456Y-121366177D01*
X105532985Y-121361612D01*
X105517340Y-121355771D01*
X105501492Y-121348656D01*
X105485415Y-121340270D01*
X105469082Y-121330615D01*
X105452466Y-121319692D01*
X105435540Y-121307505D01*
X105418278Y-121294054D01*
X105400653Y-121279343D01*
X105382638Y-121263374D01*
X105345328Y-121227667D01*
X105308724Y-121192357D01*
X105291609Y-121176896D01*
X105275266Y-121162909D01*
X105259681Y-121150406D01*
X105244841Y-121139397D01*
X105230731Y-121129890D01*
X105217336Y-121121895D01*
X105204644Y-121115422D01*
X105192639Y-121110480D01*
X105181308Y-121107078D01*
X105170637Y-121105225D01*
X105160611Y-121104932D01*
X105151217Y-121106207D01*
X105142441Y-121109059D01*
X105134267Y-121113499D01*
X105126683Y-121119534D01*
X105119674Y-121127176D01*
X105113226Y-121136433D01*
X105107326Y-121147314D01*
X105101958Y-121159829D01*
X105097109Y-121173987D01*
X105092764Y-121189798D01*
X105088911Y-121207271D01*
X105085534Y-121226415D01*
X105082619Y-121247240D01*
X105080153Y-121269755D01*
X105078121Y-121293969D01*
X105075304Y-121347533D01*
X105074055Y-121408008D01*
X105068835Y-121540547D01*
X105055879Y-121665656D01*
X105036037Y-121782301D01*
X105010158Y-121889450D01*
X104979094Y-121986071D01*
X104943693Y-122071132D01*
X104904805Y-122143600D01*
X104884320Y-122174789D01*
X104863282Y-122202443D01*
X104841797Y-122226432D01*
X104819972Y-122246628D01*
X104797913Y-122262902D01*
X104775726Y-122275124D01*
X104753517Y-122283166D01*
X104731393Y-122286899D01*
X104709460Y-122286192D01*
X104687824Y-122280919D01*
X104666591Y-122270948D01*
X104645869Y-122256152D01*
X104625762Y-122236401D01*
X104606377Y-122211567D01*
X104587820Y-122181519D01*
X104570198Y-122146130D01*
X104553617Y-122105270D01*
X104538183Y-122058810D01*
X104538183Y-122058819D01*
X104418959Y-121620035D01*
X104314018Y-121146865D01*
X104223435Y-120643568D01*
X104147282Y-120114400D01*
X104085635Y-119563620D01*
X104038566Y-118995485D01*
X104006151Y-118414254D01*
X103988462Y-117824183D01*
X103985574Y-117229530D01*
X103997561Y-116634554D01*
X104024497Y-116043513D01*
X104066455Y-115460662D01*
X104123511Y-114890262D01*
X104195736Y-114336569D01*
X104283207Y-113803840D01*
X104385995Y-113296335D01*
X104450705Y-113020000D01*
X104512713Y-112781852D01*
X104572234Y-112581939D01*
X104629485Y-112420311D01*
X104657326Y-112353870D01*
X104684680Y-112297017D01*
X104711574Y-112249760D01*
X104738035Y-112212105D01*
X104764091Y-112184057D01*
X104789767Y-112165624D01*
X104815091Y-112156810D01*
X104840090Y-112157622D01*
X104864791Y-112168067D01*
X104889220Y-112188150D01*
X104913406Y-112217877D01*
X104937374Y-112257255D01*
X104961151Y-112306289D01*
X104984766Y-112364986D01*
X105031612Y-112511393D01*
X105078127Y-112696524D01*
X105124529Y-112920428D01*
X105171031Y-113183154D01*
X105217850Y-113484750D01*
X105255197Y-113729252D01*
X105274728Y-113837962D01*
X105296245Y-113936962D01*
X105320811Y-114025738D01*
X105349486Y-114103778D01*
X105383332Y-114170569D01*
X105402526Y-114199586D01*
X105423410Y-114225599D01*
X105446118Y-114248544D01*
X105470783Y-114268356D01*
X105497536Y-114284971D01*
X105526511Y-114298325D01*
X105557840Y-114308355D01*
X105591655Y-114314996D01*
X105628091Y-114318184D01*
X105667279Y-114317854D01*
X105709351Y-114313944D01*
X105754442Y-114306389D01*
X105802682Y-114295124D01*
X105854206Y-114280086D01*
X105967633Y-114238433D01*
X106095784Y-114180918D01*
X106239721Y-114107028D01*
X106400505Y-114016251D01*
X106579198Y-113908073D01*
X106776860Y-113781983D01*
X106994554Y-113637467D01*
X107233342Y-113474013D01*
X107494283Y-113291108D01*
X107778441Y-113088239D01*
X108420649Y-112620562D01*
X109168459Y-112066880D01*
X111014848Y-110685095D01*
X112860547Y-109298761D01*
X114245732Y-108245555D01*
X115234192Y-107465373D01*
X115599586Y-107158883D01*
X115889719Y-106898109D01*
X116112568Y-106675538D01*
X116276104Y-106483658D01*
X116388302Y-106314955D01*
X116457135Y-106161916D01*
X116490579Y-106017028D01*
X116496605Y-105872777D01*
X116458304Y-105556137D01*
X116425904Y-105165574D01*
X116390952Y-104409087D01*
X116317806Y-101976724D01*
X116247689Y-98615818D01*
X116189425Y-94683142D01*
X116111812Y-88937429D01*
X116070624Y-87171011D01*
X116017596Y-85986928D01*
X115945039Y-85268714D01*
X115899035Y-85047912D01*
X115845266Y-84899901D01*
X115782770Y-84810125D01*
X115710586Y-84764023D01*
X115533312Y-84744612D01*
X114670522Y-84719220D01*
X113771990Y-84707566D01*
X112858995Y-84715229D01*
X111952816Y-84747786D01*
X111074731Y-84810817D01*
X110652874Y-84855504D01*
X110246020Y-84909900D01*
X109856830Y-84974704D01*
X109487962Y-85050613D01*
X109142077Y-85138324D01*
X108821835Y-85238534D01*
X108685823Y-85291851D01*
X108545336Y-85343518D01*
X108404421Y-85392264D01*
X108267126Y-85436823D01*
X108137497Y-85475925D01*
X108019582Y-85508301D01*
X107917428Y-85532684D01*
X107835082Y-85547804D01*
X106858178Y-85849596D01*
X105885640Y-86133955D01*
X103949836Y-86668727D01*
X102020013Y-87188829D01*
X100088512Y-87730966D01*
X97723262Y-88420404D01*
X96904563Y-88653159D01*
X96486088Y-88765988D01*
X96372617Y-88794179D01*
X96215877Y-88835866D01*
X95800865Y-88951674D01*
X95297604Y-89097312D01*
X94762645Y-89256679D01*
X94241462Y-89412222D01*
X93775709Y-89547450D01*
X93416209Y-89647850D01*
X93213783Y-89698910D01*
X93134164Y-89717722D01*
X93006650Y-89751342D01*
X92634326Y-89855471D01*
X92149594Y-89996215D01*
X91605234Y-90158496D01*
X91061712Y-90320656D01*
X90579263Y-90461066D01*
X90210318Y-90564698D01*
X90007309Y-90616525D01*
X89458566Y-90765185D01*
X88148265Y-91132476D01*
X84027803Y-92301764D01*
X80258710Y-93375821D01*
X79169686Y-93667025D01*
X78783391Y-93757456D01*
X78487085Y-93813503D01*
X78269149Y-93836961D01*
X78117965Y-93829626D01*
X78021914Y-93793295D01*
X77969380Y-93729763D01*
X77948744Y-93640827D01*
X77948388Y-93528284D01*
X77962045Y-93239557D01*
X77965534Y-93015376D01*
X77976753Y-92798818D01*
X77996828Y-92588915D01*
X78026886Y-92384697D01*
X78068054Y-92185196D01*
X78121458Y-91989443D01*
X78188226Y-91796469D01*
X78269485Y-91605305D01*
X78366360Y-91414982D01*
X78479979Y-91224531D01*
X78611469Y-91032983D01*
X78761956Y-90839370D01*
X78932567Y-90642723D01*
X79124429Y-90442072D01*
X79338669Y-90236449D01*
X79576414Y-90024884D01*
X79838790Y-89806410D01*
X80126924Y-89580057D01*
X80441943Y-89344856D01*
X80784974Y-89099839D01*
X81157143Y-88844036D01*
X81559577Y-88576478D01*
X82459749Y-88002224D01*
X83494504Y-87369326D01*
X84672855Y-86670031D01*
X86003818Y-85896591D01*
X87496406Y-85041252D01*
X89856661Y-83690258D01*
X91629133Y-82643400D01*
X92320776Y-82209602D01*
X92896464Y-81822535D01*
X93366526Y-81472432D01*
X93741294Y-81149523D01*
X94031097Y-80844042D01*
X94246265Y-80546222D01*
X94397128Y-80246293D01*
X94494017Y-79934489D01*
X94547262Y-79601042D01*
X94567192Y-79236184D01*
X94548430Y-78373164D01*
X94518674Y-77518109D01*
X94512495Y-77172165D01*
X94514895Y-76875552D01*
X94527960Y-76624475D01*
X94553773Y-76415138D01*
X94572113Y-76324936D01*
X94594421Y-76243747D01*
X94620960Y-76171096D01*
X94651989Y-76106508D01*
X94687769Y-76049510D01*
X94728561Y-75999626D01*
X94774626Y-75956383D01*
X94826223Y-75919307D01*
X94883614Y-75887922D01*
X94947060Y-75861755D01*
X95016820Y-75840331D01*
X95093156Y-75823176D01*
X95266597Y-75799776D01*
X95469469Y-75787760D01*
X95971841Y-75782700D01*
X96474408Y-75786066D01*
X96677739Y-75794061D01*
X96852076Y-75809629D01*
X96929068Y-75821042D01*
X96999649Y-75835295D01*
X97064096Y-75852705D01*
X97122688Y-75873585D01*
X97175705Y-75898252D01*
X97223425Y-75927022D01*
X97266126Y-75960209D01*
X97304088Y-75998131D01*
X97337589Y-76041101D01*
X97366909Y-76089436D01*
X97392325Y-76143451D01*
X97414117Y-76203463D01*
X97432564Y-76269785D01*
X97447944Y-76342735D01*
X97460536Y-76422628D01*
X97470619Y-76509778D01*
X97484373Y-76707116D01*
X97491435Y-76937273D01*
X97494409Y-77506144D01*
X97495991Y-78145457D01*
X97501176Y-78400017D01*
X97512142Y-78613303D01*
X97531028Y-78786909D01*
X97544109Y-78859331D01*
X97559973Y-78922429D01*
X97578885Y-78976405D01*
X97601115Y-79021457D01*
X97626928Y-79057784D01*
X97656593Y-79085585D01*
X97690376Y-79105060D01*
X97728546Y-79116408D01*
X97771368Y-79119828D01*
X97819112Y-79115519D01*
X97872044Y-79103681D01*
X97930431Y-79084512D01*
X97994540Y-79058212D01*
X98064640Y-79024981D01*
X98223880Y-78938518D01*
X98410288Y-78826718D01*
X98873163Y-78533480D01*
X99356480Y-78228839D01*
X99908027Y-77887249D01*
X100459853Y-77550487D01*
X100944011Y-77260327D01*
X101126489Y-77151783D01*
X101286061Y-77053049D01*
X101357693Y-77005935D01*
X101424121Y-76959564D01*
X101485518Y-76913365D01*
X101542061Y-76866769D01*
X101593921Y-76819204D01*
X101641274Y-76770101D01*
X101684295Y-76718890D01*
X101723156Y-76665000D01*
X101758032Y-76607862D01*
X101789098Y-76546905D01*
X101816527Y-76481560D01*
X101840493Y-76411256D01*
X101861172Y-76335423D01*
X101878737Y-76253491D01*
X101893361Y-76164890D01*
X101905221Y-76069050D01*
X101914488Y-75965400D01*
X101921339Y-75853372D01*
X101925946Y-75732393D01*
X101928484Y-75601895D01*
X101928050Y-75310060D01*
X101921431Y-74973305D01*
X101895207Y-74146792D01*
X101869925Y-73321479D01*
X101865542Y-72987569D01*
X101869465Y-72701273D01*
X101883793Y-72458929D01*
X101910625Y-72256874D01*
X101929387Y-72169810D01*
X101952063Y-72091445D01*
X101978915Y-72021320D01*
X102010206Y-71958979D01*
X102046198Y-71903963D01*
X102087153Y-71855815D01*
X102133335Y-71814076D01*
X102185005Y-71778289D01*
X102242426Y-71747996D01*
X102305861Y-71722739D01*
X102375571Y-71702061D01*
X102451821Y-71685503D01*
X102624985Y-71662916D01*
X102827452Y-71651318D01*
X103328699Y-71646435D01*
X103830110Y-71649389D01*
X104032975Y-71656407D01*
X104206911Y-71670072D01*
X104283727Y-71680090D01*
X104354145Y-71692602D01*
X104418444Y-71707883D01*
X104476902Y-71726211D01*
X104529797Y-71747863D01*
X104577407Y-71773117D01*
X104620010Y-71802248D01*
X104657885Y-71835534D01*
X104691310Y-71873253D01*
X104720562Y-71915680D01*
X104745920Y-71963094D01*
X104767662Y-72015770D01*
X104786066Y-72073987D01*
X104801411Y-72138020D01*
X104813974Y-72208148D01*
X104824034Y-72284647D01*
X104837756Y-72457865D01*
X104844802Y-72659892D01*
X104847769Y-73159234D01*
X104851668Y-73461561D01*
X104862844Y-73740583D01*
X104880513Y-73990410D01*
X104903892Y-74205150D01*
X104932196Y-74378914D01*
X104947950Y-74448589D01*
X104964642Y-74505810D01*
X104982173Y-74549842D01*
X105000446Y-74579948D01*
X105009830Y-74589549D01*
X105019363Y-74595392D01*
X105029032Y-74597386D01*
X105038826Y-74595437D01*
X105119034Y-74554591D01*
X105274721Y-74467268D01*
X105775776Y-74174913D01*
X106468476Y-73761817D01*
X107279304Y-73271425D01*
X107955621Y-72855048D01*
X108228947Y-72677460D01*
X108462902Y-72513203D01*
X108566017Y-72434417D01*
X108660373Y-72356976D01*
X108746329Y-72280217D01*
X108824246Y-72203478D01*
X108894487Y-72126095D01*
X108957411Y-72047406D01*
X109013379Y-71966748D01*
X109062753Y-71883459D01*
X109105893Y-71796876D01*
X109143160Y-71706335D01*
X109174915Y-71611176D01*
X109201519Y-71510733D01*
X109223333Y-71404347D01*
X109240718Y-71291352D01*
X109254035Y-71171087D01*
X109263644Y-71042889D01*
X109273184Y-70760043D01*
X109272225Y-70437512D01*
X109250361Y-69652189D01*
X109227452Y-68869305D01*
X109224013Y-68552561D01*
X109228721Y-68280984D01*
X109243681Y-68051098D01*
X109270997Y-67859430D01*
X109289946Y-67776843D01*
X109312773Y-67702506D01*
X109339740Y-67635987D01*
X109371112Y-67576851D01*
X109407150Y-67524663D01*
X109448118Y-67478990D01*
X109494279Y-67439397D01*
X109545895Y-67405450D01*
X109603231Y-67376715D01*
X109666548Y-67352756D01*
X109736109Y-67333140D01*
X109812179Y-67317434D01*
X109984892Y-67296008D01*
X110186792Y-67285006D01*
X110686565Y-67280374D01*
X111186491Y-67283067D01*
X111388754Y-67289462D01*
X111562175Y-67301917D01*
X111638763Y-67311048D01*
X111708973Y-67322450D01*
X111773081Y-67336378D01*
X111831366Y-67353082D01*
X111884104Y-67372816D01*
X111931573Y-67395831D01*
X111974050Y-67422382D01*
X112011813Y-67452719D01*
X112045138Y-67487095D01*
X112074303Y-67525763D01*
X112099586Y-67568975D01*
X112121264Y-67616984D01*
X112139613Y-67670043D01*
X112154913Y-67728403D01*
X112167439Y-67792316D01*
X112177469Y-67862037D01*
X112191150Y-68019907D01*
X112198175Y-68204033D01*
X112201134Y-68659131D01*
X112201377Y-69197494D01*
X112206835Y-69409642D01*
X112220433Y-69584322D01*
X112231358Y-69657741D01*
X112245607Y-69721949D01*
X112263608Y-69776997D01*
X112285792Y-69822939D01*
X112312588Y-69859824D01*
X112344426Y-69887706D01*
X112381734Y-69906636D01*
X112424944Y-69916667D01*
X112474483Y-69917850D01*
X112530782Y-69910237D01*
X112594270Y-69893880D01*
X112665377Y-69868831D01*
X112744532Y-69835142D01*
X112832165Y-69792865D01*
X113034582Y-69682754D01*
X113276065Y-69538914D01*
X113560049Y-69361760D01*
X114269266Y-68909173D01*
X114572669Y-68713708D01*
X114710073Y-68621787D01*
X114838399Y-68531681D01*
X114957987Y-68441848D01*
X115069176Y-68350743D01*
X115172308Y-68256823D01*
X115267722Y-68158543D01*
X115355759Y-68054361D01*
X115436757Y-67942733D01*
X115511058Y-67822114D01*
X115579002Y-67690962D01*
X115640928Y-67547732D01*
X115697176Y-67390881D01*
X115748087Y-67218865D01*
X115794001Y-67030141D01*
X115835257Y-66823164D01*
X115872197Y-66596391D01*
X115905159Y-66348278D01*
X115934484Y-66077282D01*
X115960512Y-65781859D01*
X115983583Y-65460465D01*
X116004038Y-65111557D01*
X116022215Y-64733590D01*
X116053101Y-63884308D01*
X116078959Y-62900268D01*
X116126480Y-60478518D01*
X116184598Y-57794110D01*
X116259445Y-55638976D01*
X116365031Y-53913221D01*
X116433729Y-53180145D01*
X116515365Y-52516953D01*
X116611689Y-51911160D01*
X116724454Y-51350278D01*
X116855410Y-50821821D01*
X117006309Y-50313302D01*
X117178901Y-49812235D01*
X117374937Y-49306132D01*
X117844348Y-48228875D01*
X117976497Y-47948449D01*
X118107925Y-47686115D01*
X118238681Y-47441874D01*
X118368813Y-47215724D01*
X118498368Y-47007666D01*
X118627396Y-46817700D01*
X118755943Y-46645826D01*
X118884058Y-46492044D01*
X119011789Y-46356355D01*
X119139184Y-46238757D01*
X119266291Y-46139251D01*
X119393157Y-46057837D01*
X119519832Y-45994515D01*
X119646362Y-45949285D01*
X119772797Y-45922147D01*
X119899183Y-45913101D01*
X120025570Y-45922147D01*
M02*
