%TF.GenerationSoftware,KiCad,Pcbnew,(6.99.0-2452-gdb4f2d9dd8)*%
%TF.CreationDate,2022-07-29T22:14:48-05:00*%
%TF.ProjectId,an225,616e3232-352e-46b6-9963-61645f706362,rev?*%
%TF.SameCoordinates,Original*%
%TF.FileFunction,Drillmap*%
%TF.FilePolarity,Positive*%
%FSLAX45Y45*%
G04 Gerber Fmt 4.5, Leading zero omitted, Abs format (unit mm)*
G04 Created by KiCad (PCBNEW (6.99.0-2452-gdb4f2d9dd8)) date 2022-07-29 22:14:48*
%MOMM*%
%LPD*%
G01*
G04 APERTURE LIST*
%ADD10C,0.150000*%
%ADD11C,0.200000*%
G04 APERTURE END LIST*
D10*
X12002557Y-4592215D02*
X12015200Y-4594929D01*
X12027853Y-4599452D01*
X12040521Y-4605784D01*
X12053208Y-4613925D01*
X12065918Y-4623876D01*
X12078658Y-4635636D01*
X12091431Y-4649204D01*
X12104242Y-4664583D01*
X12117097Y-4681770D01*
X12130000Y-4700767D01*
X12142956Y-4721572D01*
X12155969Y-4744187D01*
X12169044Y-4768612D01*
X12182187Y-4794845D01*
X12195402Y-4822888D01*
X12220220Y-4878251D01*
X12242343Y-4930613D01*
X12261947Y-4981224D01*
X12279206Y-5031330D01*
X12294296Y-5082182D01*
X12307391Y-5135028D01*
X12318668Y-5191116D01*
X12328300Y-5251695D01*
X12336464Y-5318015D01*
X12343334Y-5391322D01*
X12349085Y-5472867D01*
X12353892Y-5563898D01*
X12357931Y-5665663D01*
X12361377Y-5779411D01*
X12367189Y-6047852D01*
X12371941Y-6290027D01*
X12377615Y-6473359D01*
X12381478Y-6546046D01*
X12386388Y-6607728D01*
X12392617Y-6659639D01*
X12400437Y-6703014D01*
X12410119Y-6739088D01*
X12421937Y-6769096D01*
X12436161Y-6794273D01*
X12453064Y-6815854D01*
X12472919Y-6835074D01*
X12495997Y-6853168D01*
X12552910Y-6890917D01*
X12623832Y-6936176D01*
X12652230Y-6953891D01*
X12676378Y-6968275D01*
X12696620Y-6979286D01*
X12713299Y-6986883D01*
X12720410Y-6989388D01*
X12726759Y-6991024D01*
X12732388Y-6991785D01*
X12737342Y-6991667D01*
X12741663Y-6990664D01*
X12745394Y-6988770D01*
X12748578Y-6985982D01*
X12751258Y-6982294D01*
X12753476Y-6977700D01*
X12755276Y-6972195D01*
X12756701Y-6965774D01*
X12757794Y-6958432D01*
X12759153Y-6940964D01*
X12759699Y-6919749D01*
X12759724Y-6865913D01*
X12760019Y-6820403D01*
X12760722Y-6801991D01*
X12762090Y-6786204D01*
X12763093Y-6779232D01*
X12764346Y-6772840D01*
X12765876Y-6767004D01*
X12767711Y-6761698D01*
X12769878Y-6756897D01*
X12772407Y-6752576D01*
X12775323Y-6748709D01*
X12778656Y-6745272D01*
X12782432Y-6742238D01*
X12786680Y-6739583D01*
X12791427Y-6737282D01*
X12796700Y-6735308D01*
X12802529Y-6733638D01*
X12808940Y-6732245D01*
X12815961Y-6731105D01*
X12823619Y-6730192D01*
X12840961Y-6728946D01*
X12861188Y-6728307D01*
X12911180Y-6728037D01*
X12937839Y-6728095D01*
X12961158Y-6728501D01*
X12981348Y-6729601D01*
X12990335Y-6730520D01*
X12998619Y-6731743D01*
X13006226Y-6733314D01*
X13013182Y-6735276D01*
X13019514Y-6737671D01*
X13025247Y-6740545D01*
X13030409Y-6743940D01*
X13035025Y-6747899D01*
X13039122Y-6752466D01*
X13042726Y-6757685D01*
X13045863Y-6763599D01*
X13048559Y-6770251D01*
X13050842Y-6777684D01*
X13052737Y-6785943D01*
X13054270Y-6795070D01*
X13055469Y-6805110D01*
X13056358Y-6816105D01*
X13056965Y-6828098D01*
X13057435Y-6855256D01*
X13057091Y-6886930D01*
X13054800Y-6965219D01*
X13052614Y-7043751D01*
X13052518Y-7076004D01*
X13053472Y-7104289D01*
X13055765Y-7129135D01*
X13057503Y-7140434D01*
X13059685Y-7151073D01*
X13062345Y-7161117D01*
X13065521Y-7170633D01*
X13069248Y-7179687D01*
X13073562Y-7188346D01*
X13078499Y-7196675D01*
X13084096Y-7204740D01*
X13090388Y-7212609D01*
X13097412Y-7220348D01*
X13105204Y-7228021D01*
X13113800Y-7235697D01*
X13133547Y-7251320D01*
X13156942Y-7267746D01*
X13184275Y-7285504D01*
X13251906Y-7327142D01*
X13332989Y-7376182D01*
X13402259Y-7417491D01*
X13452364Y-7446727D01*
X13467933Y-7455459D01*
X13475954Y-7459544D01*
X13476933Y-7459739D01*
X13477900Y-7459539D01*
X13478854Y-7458955D01*
X13479792Y-7457995D01*
X13480714Y-7456668D01*
X13481619Y-7454984D01*
X13482506Y-7452952D01*
X13483372Y-7450581D01*
X13485042Y-7444859D01*
X13486617Y-7437891D01*
X13488089Y-7429752D01*
X13489447Y-7420515D01*
X13490683Y-7410253D01*
X13491785Y-7399041D01*
X13492745Y-7386951D01*
X13493552Y-7374058D01*
X13494197Y-7360435D01*
X13494670Y-7346156D01*
X13494960Y-7331294D01*
X13495060Y-7315923D01*
X13495356Y-7265989D01*
X13496061Y-7245786D01*
X13497433Y-7228464D01*
X13498439Y-7220815D01*
X13499695Y-7213802D01*
X13501230Y-7207398D01*
X13503070Y-7201577D01*
X13505245Y-7196309D01*
X13507780Y-7191568D01*
X13510706Y-7187325D01*
X13514048Y-7183553D01*
X13517835Y-7180225D01*
X13522096Y-7177311D01*
X13526857Y-7174786D01*
X13532146Y-7172621D01*
X13537992Y-7170788D01*
X13544422Y-7169260D01*
X13551464Y-7168009D01*
X13559145Y-7167007D01*
X13576539Y-7165640D01*
X13596825Y-7164939D01*
X13646967Y-7164643D01*
X13673704Y-7164704D01*
X13697091Y-7165132D01*
X13717338Y-7166291D01*
X13726349Y-7167260D01*
X13734654Y-7168550D01*
X13742279Y-7170206D01*
X13749250Y-7172274D01*
X13755594Y-7174799D01*
X13761336Y-7177829D01*
X13766503Y-7181407D01*
X13771121Y-7185581D01*
X13775217Y-7190396D01*
X13778816Y-7195898D01*
X13781945Y-7202132D01*
X13784630Y-7209144D01*
X13786898Y-7216981D01*
X13788774Y-7225687D01*
X13790285Y-7235309D01*
X13791457Y-7245893D01*
X13792317Y-7257483D01*
X13792890Y-7270127D01*
X13793282Y-7298757D01*
X13792844Y-7332148D01*
X13790316Y-7414679D01*
X13787694Y-7497330D01*
X13787032Y-7531006D01*
X13786988Y-7560189D01*
X13787703Y-7585337D01*
X13789315Y-7606905D01*
X13791963Y-7625349D01*
X13795787Y-7641126D01*
X13800927Y-7654690D01*
X13804033Y-7660786D01*
X13807521Y-7666500D01*
X13815709Y-7677010D01*
X13825631Y-7686677D01*
X13837425Y-7695956D01*
X13851230Y-7705305D01*
X13885435Y-7726033D01*
X13933851Y-7755049D01*
X13989034Y-7788725D01*
X14044189Y-7822884D01*
X14092520Y-7853348D01*
X14138808Y-7882672D01*
X14157449Y-7893852D01*
X14173373Y-7902498D01*
X14180383Y-7905821D01*
X14186794Y-7908451D01*
X14192632Y-7910368D01*
X14197926Y-7911552D01*
X14202700Y-7911983D01*
X14206982Y-7911641D01*
X14210799Y-7910506D01*
X14214177Y-7908558D01*
X14217144Y-7905778D01*
X14219725Y-7902146D01*
X14221948Y-7897640D01*
X14223840Y-7892243D01*
X14225426Y-7885933D01*
X14226734Y-7878691D01*
X14227791Y-7870497D01*
X14228623Y-7861330D01*
X14229719Y-7840002D01*
X14230238Y-7814546D01*
X14230396Y-7750614D01*
X14230693Y-7693727D01*
X14231400Y-7670712D01*
X14232775Y-7650978D01*
X14233783Y-7642263D01*
X14235043Y-7634273D01*
X14236581Y-7626978D01*
X14238425Y-7620346D01*
X14240604Y-7614345D01*
X14243146Y-7608944D01*
X14246078Y-7604110D01*
X14249428Y-7599813D01*
X14253224Y-7596021D01*
X14257494Y-7592702D01*
X14262266Y-7589825D01*
X14267568Y-7587358D01*
X14273427Y-7585270D01*
X14279872Y-7583529D01*
X14286930Y-7582104D01*
X14294629Y-7580963D01*
X14312063Y-7579406D01*
X14332396Y-7578607D01*
X14382653Y-7578270D01*
X14409451Y-7578333D01*
X14432890Y-7578776D01*
X14453177Y-7579978D01*
X14462204Y-7580982D01*
X14470521Y-7582318D01*
X14478155Y-7584033D01*
X14485131Y-7586175D01*
X14491476Y-7588792D01*
X14497215Y-7591931D01*
X14502374Y-7595638D01*
X14506981Y-7599963D01*
X14511060Y-7604951D01*
X14514638Y-7610651D01*
X14517741Y-7617110D01*
X14520395Y-7624375D01*
X14522626Y-7632494D01*
X14524460Y-7641514D01*
X14525923Y-7651483D01*
X14527041Y-7662447D01*
X14527841Y-7674456D01*
X14528347Y-7687555D01*
X14528587Y-7717216D01*
X14527970Y-7751811D01*
X14524994Y-7837316D01*
X14523423Y-7883015D01*
X14523118Y-7923618D01*
X14523762Y-7942315D01*
X14525111Y-7960104D01*
X14527292Y-7977108D01*
X14530435Y-7993449D01*
X14534670Y-8009249D01*
X14540124Y-8024629D01*
X14546928Y-8039713D01*
X14555210Y-8054622D01*
X14565101Y-8069478D01*
X14576727Y-8084404D01*
X14590220Y-8099521D01*
X14605708Y-8114952D01*
X14623319Y-8130819D01*
X14643184Y-8147243D01*
X14665432Y-8164347D01*
X14690191Y-8182253D01*
X14717590Y-8201084D01*
X14747759Y-8220960D01*
X14816924Y-8264340D01*
X14898717Y-8313370D01*
X14994171Y-8369026D01*
X15230196Y-8504125D01*
X15512552Y-8667003D01*
X15733862Y-8800222D01*
X15823879Y-8857648D01*
X15901340Y-8909984D01*
X15967145Y-8958006D01*
X16022196Y-9002488D01*
X16067394Y-9044207D01*
X16103641Y-9083937D01*
X16131839Y-9122453D01*
X16152889Y-9160531D01*
X16167691Y-9198944D01*
X16177148Y-9238470D01*
X16182162Y-9279882D01*
X16183632Y-9323956D01*
X16183790Y-9331913D01*
X16184167Y-9339393D01*
X16184998Y-9352828D01*
X16185161Y-9358739D01*
X16184962Y-9364083D01*
X16184257Y-9368836D01*
X16183668Y-9370984D01*
X16182899Y-9372976D01*
X16181930Y-9374810D01*
X16180743Y-9376482D01*
X16179321Y-9377989D01*
X16177645Y-9379330D01*
X16175697Y-9380500D01*
X16173459Y-9381497D01*
X16170913Y-9382319D01*
X16168040Y-9382963D01*
X16164823Y-9383425D01*
X16161243Y-9383703D01*
X16152922Y-9383696D01*
X16142932Y-9382919D01*
X16131128Y-9381350D01*
X16117365Y-9378967D01*
X16101498Y-9375746D01*
X16083380Y-9371665D01*
X16062868Y-9366703D01*
X16039816Y-9360835D01*
X16014078Y-9354041D01*
X15953966Y-9337582D01*
X15881369Y-9317146D01*
X15795126Y-9292552D01*
X15577056Y-9230176D01*
X15165010Y-9113247D01*
X14979106Y-9061653D01*
X14971358Y-9059803D01*
X14958805Y-9056470D01*
X14921911Y-9046107D01*
X14873666Y-9032066D01*
X14819314Y-9015850D01*
X14764878Y-8999622D01*
X14716405Y-8985547D01*
X14679172Y-8975134D01*
X14658459Y-8969891D01*
X14650619Y-8968045D01*
X14638217Y-8964785D01*
X14602267Y-8954745D01*
X14555692Y-8941222D01*
X14503573Y-8925668D01*
X14450078Y-8909731D01*
X14399752Y-8895167D01*
X14358251Y-8883586D01*
X14331230Y-8876599D01*
X14289382Y-8865316D01*
X14207512Y-8842040D01*
X14097440Y-8810168D01*
X13970987Y-8773096D01*
X13191497Y-8548135D01*
X13187761Y-8547523D01*
X13183673Y-8546705D01*
X13174499Y-8544527D01*
X13164091Y-8541744D01*
X13152567Y-8538502D01*
X13126640Y-8531224D01*
X13112471Y-8527477D01*
X13097655Y-8523853D01*
X13070689Y-8515650D01*
X13038298Y-8508047D01*
X13001220Y-8501062D01*
X12960193Y-8494713D01*
X12869244Y-8483991D01*
X12771352Y-8476021D01*
X12672421Y-8470943D01*
X12578354Y-8468897D01*
X12495054Y-8470023D01*
X12459285Y-8471819D01*
X12428422Y-8474461D01*
X12423375Y-8474491D01*
X12418641Y-8474703D01*
X12416387Y-8474935D01*
X12414208Y-8475280D01*
X12412100Y-8475761D01*
X12410063Y-8476402D01*
X12408095Y-8477225D01*
X12406194Y-8478252D01*
X12404359Y-8479507D01*
X12402589Y-8481012D01*
X12400881Y-8482790D01*
X12399235Y-8484864D01*
X12397648Y-8487256D01*
X12396120Y-8489990D01*
X12394648Y-8493087D01*
X12393232Y-8496571D01*
X12391868Y-8500465D01*
X12390557Y-8504791D01*
X12389297Y-8509572D01*
X12388085Y-8514830D01*
X12386921Y-8520589D01*
X12385802Y-8526871D01*
X12384728Y-8533699D01*
X12383697Y-8541096D01*
X12381756Y-8557686D01*
X12379967Y-8576824D01*
X12378319Y-8598692D01*
X12376798Y-8623472D01*
X12375392Y-8651345D01*
X12374089Y-8682494D01*
X12372877Y-8717101D01*
X12371743Y-8755347D01*
X12370675Y-8797414D01*
X12369661Y-8843486D01*
X12368687Y-8893743D01*
X12366814Y-9007541D01*
X12364957Y-9140265D01*
X12360896Y-9468314D01*
X12355070Y-9861582D01*
X12348058Y-10197672D01*
X12340744Y-10440909D01*
X12334008Y-10555614D01*
X12331520Y-10572165D01*
X12330656Y-10579854D01*
X12330178Y-10587278D01*
X12330187Y-10594529D01*
X12330781Y-10601703D01*
X12332061Y-10608892D01*
X12332989Y-10612522D01*
X12334125Y-10616192D01*
X12335483Y-10619912D01*
X12337075Y-10623695D01*
X12338912Y-10627552D01*
X12341009Y-10631496D01*
X12346027Y-10639688D01*
X12352228Y-10648366D01*
X12359714Y-10657623D01*
X12368582Y-10667554D01*
X12378933Y-10678252D01*
X12390867Y-10689811D01*
X12404483Y-10702325D01*
X12419880Y-10715888D01*
X12437159Y-10730594D01*
X12456420Y-10746537D01*
X12477761Y-10763811D01*
X12501282Y-10782509D01*
X12527084Y-10802726D01*
X12555266Y-10824555D01*
X12619167Y-10873427D01*
X12693784Y-10929876D01*
X12878354Y-11068509D01*
X13062993Y-11206687D01*
X13201995Y-11308823D01*
X13256505Y-11347400D01*
X13302153Y-11378197D01*
X13339788Y-11401624D01*
X13370260Y-11418091D01*
X13394418Y-11428008D01*
X13404395Y-11430638D01*
X13413111Y-11431785D01*
X13420673Y-11431499D01*
X13427188Y-11429832D01*
X13432760Y-11426835D01*
X13437498Y-11422559D01*
X13441506Y-11417056D01*
X13444890Y-11410377D01*
X13450214Y-11393696D01*
X13458054Y-11348475D01*
X13461454Y-11326898D01*
X13464992Y-11307563D01*
X13468658Y-11290441D01*
X13472440Y-11275508D01*
X13476326Y-11262737D01*
X13480307Y-11252101D01*
X13484371Y-11243575D01*
X13488507Y-11237133D01*
X13492704Y-11232748D01*
X13496950Y-11230394D01*
X13499089Y-11229971D01*
X13501236Y-11230045D01*
X13505549Y-11231675D01*
X13509879Y-11235257D01*
X13514215Y-11240766D01*
X13518546Y-11248174D01*
X13522860Y-11257457D01*
X13527147Y-11268587D01*
X13531396Y-11281539D01*
X13535595Y-11296287D01*
X13539734Y-11312803D01*
X13547786Y-11351039D01*
X13555464Y-11396038D01*
X13562679Y-11447589D01*
X13569344Y-11505484D01*
X13575370Y-11569514D01*
X13580668Y-11639467D01*
X13583192Y-11695332D01*
X13583586Y-11753494D01*
X13582056Y-11812829D01*
X13578809Y-11872210D01*
X13574054Y-11930510D01*
X13567997Y-11986604D01*
X13560845Y-12039366D01*
X13552807Y-12087668D01*
X13544089Y-12130386D01*
X13534898Y-12166392D01*
X13525443Y-12194561D01*
X13515930Y-12213766D01*
X13511216Y-12219656D01*
X13506566Y-12222882D01*
X13502005Y-12223304D01*
X13497559Y-12220782D01*
X13493255Y-12215174D01*
X13489117Y-12206339D01*
X13481446Y-12178429D01*
X13479413Y-12169074D01*
X13477338Y-12160547D01*
X13475218Y-12152846D01*
X13473049Y-12145966D01*
X13470830Y-12139903D01*
X13468556Y-12134652D01*
X13466224Y-12130210D01*
X13463833Y-12126572D01*
X13462613Y-12125053D01*
X13461377Y-12123734D01*
X13460125Y-12122614D01*
X13458855Y-12121692D01*
X13457568Y-12120969D01*
X13456263Y-12120442D01*
X13454940Y-12120113D01*
X13453598Y-12119980D01*
X13452237Y-12120043D01*
X13450857Y-12120302D01*
X13449457Y-12120755D01*
X13448037Y-12121403D01*
X13446596Y-12122244D01*
X13445134Y-12123279D01*
X13442146Y-12125926D01*
X13440633Y-12127388D01*
X13439124Y-12128741D01*
X13437619Y-12129986D01*
X13436118Y-12131123D01*
X13434620Y-12132151D01*
X13433125Y-12133070D01*
X13431632Y-12133881D01*
X13430140Y-12134583D01*
X13428650Y-12135176D01*
X13427160Y-12135660D01*
X13425671Y-12136036D01*
X13424181Y-12136302D01*
X13422691Y-12136460D01*
X13421200Y-12136508D01*
X13419707Y-12136447D01*
X13418211Y-12136276D01*
X13416713Y-12135997D01*
X13415212Y-12135607D01*
X13413708Y-12135109D01*
X13412199Y-12134500D01*
X13410686Y-12133782D01*
X13409167Y-12132954D01*
X13407644Y-12132017D01*
X13406114Y-12130970D01*
X13404578Y-12129812D01*
X13403034Y-12128545D01*
X13401484Y-12127167D01*
X13399925Y-12125680D01*
X13398358Y-12124082D01*
X13396783Y-12122373D01*
X13395198Y-12120555D01*
X13393603Y-12118626D01*
X13333639Y-12084254D01*
X13189434Y-12011237D01*
X12759777Y-11802565D01*
X12327578Y-11599197D01*
X12180197Y-11532811D01*
X12115786Y-11507722D01*
X12114948Y-11507819D01*
X12114064Y-11508109D01*
X12113139Y-11508586D01*
X12112173Y-11509246D01*
X12111169Y-11510084D01*
X12110131Y-11511094D01*
X12109059Y-11512273D01*
X12107957Y-11513615D01*
X12106826Y-11515115D01*
X12105670Y-11516770D01*
X12103291Y-11520521D01*
X12100837Y-11524831D01*
X12098327Y-11529660D01*
X12095782Y-11534970D01*
X12093219Y-11540724D01*
X12090659Y-11546882D01*
X12088120Y-11553407D01*
X12085621Y-11560260D01*
X12083181Y-11567403D01*
X12080820Y-11574797D01*
X12078556Y-11582405D01*
X12075230Y-11593519D01*
X12071914Y-11603517D01*
X12068544Y-11612452D01*
X12065054Y-11620380D01*
X12063243Y-11623984D01*
X12061377Y-11627357D01*
X12059449Y-11630505D01*
X12057450Y-11633437D01*
X12055371Y-11636158D01*
X12053205Y-11638676D01*
X12050943Y-11640997D01*
X12048577Y-11643129D01*
X12046099Y-11645078D01*
X12043501Y-11646852D01*
X12040775Y-11648456D01*
X12037912Y-11649899D01*
X12034904Y-11651186D01*
X12031744Y-11652325D01*
X12028422Y-11653323D01*
X12024931Y-11654187D01*
X12021262Y-11654923D01*
X12017407Y-11655539D01*
X12009108Y-11656436D01*
X11999967Y-11656934D01*
X11989919Y-11657087D01*
X11979872Y-11656934D01*
X11970731Y-11656436D01*
X11962432Y-11655539D01*
X11958577Y-11654923D01*
X11954908Y-11654187D01*
X11951417Y-11653323D01*
X11948095Y-11652325D01*
X11944934Y-11651186D01*
X11941926Y-11649899D01*
X11939063Y-11648456D01*
X11936337Y-11646852D01*
X11933739Y-11645078D01*
X11931261Y-11643129D01*
X11928896Y-11640997D01*
X11926634Y-11638676D01*
X11924468Y-11636158D01*
X11922389Y-11633437D01*
X11920390Y-11630505D01*
X11918461Y-11627357D01*
X11916596Y-11623984D01*
X11914785Y-11620380D01*
X11911294Y-11612452D01*
X11907924Y-11603517D01*
X11904609Y-11593519D01*
X11901283Y-11582405D01*
X11899019Y-11574797D01*
X11896658Y-11567403D01*
X11894218Y-11560260D01*
X11891719Y-11553407D01*
X11889180Y-11546882D01*
X11886619Y-11540724D01*
X11884057Y-11534970D01*
X11881511Y-11529660D01*
X11879002Y-11524831D01*
X11876548Y-11520521D01*
X11874168Y-11516770D01*
X11871882Y-11513615D01*
X11869708Y-11511094D01*
X11867666Y-11509246D01*
X11865774Y-11508109D01*
X11864891Y-11507819D01*
X11864052Y-11507722D01*
X11799641Y-11532811D01*
X11652260Y-11599197D01*
X11220062Y-11802565D01*
X10790405Y-12011237D01*
X10646200Y-12084254D01*
X10586236Y-12118626D01*
X10582752Y-12122774D01*
X10581062Y-12124651D01*
X10579403Y-12126396D01*
X10577771Y-12128010D01*
X10576165Y-12129493D01*
X10574582Y-12130845D01*
X10573019Y-12132067D01*
X10571473Y-12133158D01*
X10569942Y-12134119D01*
X10568422Y-12134950D01*
X10566912Y-12135651D01*
X10565409Y-12136223D01*
X10563910Y-12136666D01*
X10562412Y-12136979D01*
X10560912Y-12137164D01*
X10559408Y-12137220D01*
X10557898Y-12137147D01*
X10556378Y-12136946D01*
X10554846Y-12136618D01*
X10553299Y-12136161D01*
X10551734Y-12135577D01*
X10550149Y-12134866D01*
X10548542Y-12134027D01*
X10546908Y-12133061D01*
X10545247Y-12131969D01*
X10543554Y-12130750D01*
X10541828Y-12129405D01*
X10540065Y-12127934D01*
X10538264Y-12126337D01*
X10534533Y-12122767D01*
X10530872Y-12119236D01*
X10529161Y-12117690D01*
X10527527Y-12116291D01*
X10525968Y-12115041D01*
X10524484Y-12113940D01*
X10523073Y-12112989D01*
X10521734Y-12112189D01*
X10520464Y-12111542D01*
X10519264Y-12111048D01*
X10518131Y-12110708D01*
X10517064Y-12110522D01*
X10516061Y-12110493D01*
X10515122Y-12110621D01*
X10514244Y-12110906D01*
X10513427Y-12111350D01*
X10512668Y-12111953D01*
X10511967Y-12112718D01*
X10511323Y-12113643D01*
X10510733Y-12114731D01*
X10510196Y-12115983D01*
X10509711Y-12117399D01*
X10509276Y-12118980D01*
X10508891Y-12120727D01*
X10508553Y-12122641D01*
X10508262Y-12124724D01*
X10508015Y-12126975D01*
X10507812Y-12129397D01*
X10507530Y-12134753D01*
X10507406Y-12140801D01*
X10506884Y-12154055D01*
X10505588Y-12166566D01*
X10503604Y-12178230D01*
X10501016Y-12188945D01*
X10497909Y-12198607D01*
X10494369Y-12207113D01*
X10490481Y-12214360D01*
X10488432Y-12217479D01*
X10486328Y-12220244D01*
X10484180Y-12222643D01*
X10481997Y-12224663D01*
X10479791Y-12226290D01*
X10477573Y-12227512D01*
X10475352Y-12228317D01*
X10473139Y-12228690D01*
X10470946Y-12228619D01*
X10468782Y-12228092D01*
X10466659Y-12227095D01*
X10464587Y-12225615D01*
X10462576Y-12223640D01*
X10460638Y-12221157D01*
X10458782Y-12218152D01*
X10457020Y-12214613D01*
X10455362Y-12210527D01*
X10453818Y-12205881D01*
X10453818Y-12205882D01*
X10441896Y-12162003D01*
X10431402Y-12114686D01*
X10422344Y-12064357D01*
X10414728Y-12011440D01*
X10408564Y-11956362D01*
X10403857Y-11899548D01*
X10400615Y-11841425D01*
X10398846Y-11782418D01*
X10398557Y-11722953D01*
X10399756Y-11663455D01*
X10402450Y-11604351D01*
X10406646Y-11546066D01*
X10412351Y-11489026D01*
X10419574Y-11433657D01*
X10428321Y-11380384D01*
X10438600Y-11329633D01*
X10445071Y-11302000D01*
X10451271Y-11278185D01*
X10457223Y-11258194D01*
X10462949Y-11242031D01*
X10465733Y-11235387D01*
X10468468Y-11229702D01*
X10471157Y-11224976D01*
X10473804Y-11221210D01*
X10476409Y-11218406D01*
X10478977Y-11216562D01*
X10481509Y-11215681D01*
X10484009Y-11215762D01*
X10486479Y-11216807D01*
X10488922Y-11218815D01*
X10491341Y-11221788D01*
X10493737Y-11225725D01*
X10496115Y-11230629D01*
X10498477Y-11236499D01*
X10503161Y-11251139D01*
X10507813Y-11269652D01*
X10512453Y-11292043D01*
X10517103Y-11318315D01*
X10521785Y-11348475D01*
X10525520Y-11372925D01*
X10527473Y-11383796D01*
X10529625Y-11393696D01*
X10532081Y-11402574D01*
X10534949Y-11410378D01*
X10538333Y-11417057D01*
X10540253Y-11419959D01*
X10542341Y-11422560D01*
X10544612Y-11424854D01*
X10547078Y-11426836D01*
X10549754Y-11428497D01*
X10552651Y-11429832D01*
X10555784Y-11430835D01*
X10559166Y-11431500D01*
X10562809Y-11431818D01*
X10566728Y-11431785D01*
X10570935Y-11431394D01*
X10575444Y-11430639D01*
X10580268Y-11429512D01*
X10585421Y-11428009D01*
X10596763Y-11423843D01*
X10609578Y-11418092D01*
X10623972Y-11410703D01*
X10640051Y-11401625D01*
X10657920Y-11390807D01*
X10677686Y-11378198D01*
X10699455Y-11363747D01*
X10723334Y-11347401D01*
X10749428Y-11329111D01*
X10777844Y-11308824D01*
X10842065Y-11262056D01*
X10916846Y-11206688D01*
X11101485Y-11068510D01*
X11286055Y-10929876D01*
X11424573Y-10824556D01*
X11523419Y-10746537D01*
X11559959Y-10715888D01*
X11588972Y-10689811D01*
X11611257Y-10667554D01*
X11627610Y-10648366D01*
X11638830Y-10631496D01*
X11645713Y-10616192D01*
X11649058Y-10601703D01*
X11649660Y-10587278D01*
X11645830Y-10555614D01*
X11642590Y-10516557D01*
X11639095Y-10440909D01*
X11631781Y-10197672D01*
X11624769Y-9861582D01*
X11618942Y-9468314D01*
X11611181Y-8893743D01*
X11607062Y-8717101D01*
X11601760Y-8598693D01*
X11594504Y-8526871D01*
X11589903Y-8504791D01*
X11584527Y-8489990D01*
X11578277Y-8481013D01*
X11571059Y-8476402D01*
X11553331Y-8474461D01*
X11467052Y-8471922D01*
X11377199Y-8470757D01*
X11285899Y-8471523D01*
X11195282Y-8474779D01*
X11107473Y-8481082D01*
X11065287Y-8485550D01*
X11024602Y-8490990D01*
X10985683Y-8497470D01*
X10948796Y-8505061D01*
X10914208Y-8513832D01*
X10882184Y-8523853D01*
X10868582Y-8529185D01*
X10854534Y-8534352D01*
X10840442Y-8539226D01*
X10826713Y-8543682D01*
X10813750Y-8547593D01*
X10801958Y-8550830D01*
X10791743Y-8553268D01*
X10783508Y-8554780D01*
X10685818Y-8584960D01*
X10588564Y-8613396D01*
X10394984Y-8666873D01*
X10202001Y-8718883D01*
X10008851Y-8773097D01*
X9772326Y-8842040D01*
X9690456Y-8865316D01*
X9648609Y-8876599D01*
X9637262Y-8879418D01*
X9621588Y-8883587D01*
X9580087Y-8895167D01*
X9529760Y-8909731D01*
X9476265Y-8925668D01*
X9424146Y-8941222D01*
X9377571Y-8954745D01*
X9341621Y-8964785D01*
X9321378Y-8969891D01*
X9313416Y-8971772D01*
X9300665Y-8975134D01*
X9263433Y-8985547D01*
X9214959Y-8999622D01*
X9160523Y-9015850D01*
X9106171Y-9032066D01*
X9057926Y-9046107D01*
X9021032Y-9056470D01*
X9000731Y-9061653D01*
X8945857Y-9076519D01*
X8814827Y-9113248D01*
X8402780Y-9230176D01*
X8025871Y-9337582D01*
X7916969Y-9366703D01*
X7878339Y-9375746D01*
X7848708Y-9381350D01*
X7826915Y-9383696D01*
X7811796Y-9382963D01*
X7802191Y-9379330D01*
X7796938Y-9372976D01*
X7794874Y-9364083D01*
X7794839Y-9352828D01*
X7796204Y-9323956D01*
X7796553Y-9301538D01*
X7797675Y-9279882D01*
X7799683Y-9258892D01*
X7802689Y-9238470D01*
X7806805Y-9218520D01*
X7812146Y-9198944D01*
X7818823Y-9179647D01*
X7826948Y-9160531D01*
X7836636Y-9141498D01*
X7847998Y-9122453D01*
X7861147Y-9103298D01*
X7876196Y-9083937D01*
X7893257Y-9064272D01*
X7912443Y-9044207D01*
X7933867Y-9023645D01*
X7957641Y-9002488D01*
X7983879Y-8980641D01*
X8012692Y-8958006D01*
X8044194Y-8934486D01*
X8078497Y-8909984D01*
X8115714Y-8884404D01*
X8155958Y-8857648D01*
X8245975Y-8800222D01*
X8349450Y-8736933D01*
X8467286Y-8667003D01*
X8600382Y-8589659D01*
X8749641Y-8504125D01*
X8985666Y-8369026D01*
X9162913Y-8264340D01*
X9232078Y-8220960D01*
X9289646Y-8182253D01*
X9336653Y-8147243D01*
X9374129Y-8114952D01*
X9403110Y-8084404D01*
X9424627Y-8054622D01*
X9439713Y-8024629D01*
X9449402Y-7993449D01*
X9454726Y-7960104D01*
X9456719Y-7923618D01*
X9454843Y-7837316D01*
X9451867Y-7751811D01*
X9451250Y-7717216D01*
X9451490Y-7687555D01*
X9452796Y-7662447D01*
X9455377Y-7641514D01*
X9457211Y-7632494D01*
X9459442Y-7624375D01*
X9462096Y-7617110D01*
X9465199Y-7610651D01*
X9468777Y-7604951D01*
X9472856Y-7599963D01*
X9477463Y-7595638D01*
X9482622Y-7591931D01*
X9488361Y-7588792D01*
X9494706Y-7586175D01*
X9501682Y-7584033D01*
X9509316Y-7582318D01*
X9526660Y-7579978D01*
X9546947Y-7578776D01*
X9597184Y-7578270D01*
X9647441Y-7578607D01*
X9667774Y-7579406D01*
X9685208Y-7580963D01*
X9692907Y-7582104D01*
X9699965Y-7583529D01*
X9706410Y-7585270D01*
X9712269Y-7587358D01*
X9717571Y-7589825D01*
X9722343Y-7592702D01*
X9726613Y-7596021D01*
X9730409Y-7599813D01*
X9733759Y-7604110D01*
X9736691Y-7608944D01*
X9739233Y-7614345D01*
X9741412Y-7620346D01*
X9743256Y-7626978D01*
X9744794Y-7634273D01*
X9746054Y-7642263D01*
X9747062Y-7650978D01*
X9748437Y-7670712D01*
X9749144Y-7693727D01*
X9749441Y-7750614D01*
X9749599Y-7814546D01*
X9750118Y-7840002D01*
X9751214Y-7861330D01*
X9753103Y-7878691D01*
X9754411Y-7885933D01*
X9755997Y-7892243D01*
X9757889Y-7897640D01*
X9760112Y-7902146D01*
X9762693Y-7905778D01*
X9765659Y-7908558D01*
X9769038Y-7910506D01*
X9772855Y-7911641D01*
X9777137Y-7911983D01*
X9781911Y-7911552D01*
X9787204Y-7910368D01*
X9793043Y-7908451D01*
X9799454Y-7905821D01*
X9806464Y-7902498D01*
X9822388Y-7893852D01*
X9841029Y-7882672D01*
X9887316Y-7853348D01*
X9935648Y-7822884D01*
X9990803Y-7788725D01*
X10045985Y-7755049D01*
X10094401Y-7726033D01*
X10112649Y-7715178D01*
X10128606Y-7705305D01*
X10135769Y-7700593D01*
X10142412Y-7695956D01*
X10148552Y-7691336D01*
X10154206Y-7686677D01*
X10159392Y-7681920D01*
X10164127Y-7677010D01*
X10168430Y-7671889D01*
X10172316Y-7666500D01*
X10175803Y-7660786D01*
X10178910Y-7654690D01*
X10181653Y-7648156D01*
X10184049Y-7641126D01*
X10186117Y-7633542D01*
X10187874Y-7625349D01*
X10189336Y-7616489D01*
X10190522Y-7606905D01*
X10191449Y-7596540D01*
X10192134Y-7585337D01*
X10192595Y-7573239D01*
X10192848Y-7560189D01*
X10192805Y-7531006D01*
X10192143Y-7497330D01*
X10189521Y-7414679D01*
X10186993Y-7332148D01*
X10186554Y-7298757D01*
X10186947Y-7270127D01*
X10188379Y-7245893D01*
X10191063Y-7225687D01*
X10192939Y-7216981D01*
X10195206Y-7209144D01*
X10197892Y-7202132D01*
X10201021Y-7195898D01*
X10204620Y-7190396D01*
X10208715Y-7185581D01*
X10213334Y-7181408D01*
X10218501Y-7177829D01*
X10224243Y-7174800D01*
X10230586Y-7172274D01*
X10237557Y-7170206D01*
X10245182Y-7168550D01*
X10262499Y-7166292D01*
X10282745Y-7165132D01*
X10332870Y-7164643D01*
X10383011Y-7164939D01*
X10403298Y-7165641D01*
X10420691Y-7167007D01*
X10428373Y-7168009D01*
X10435415Y-7169260D01*
X10441844Y-7170788D01*
X10447690Y-7172621D01*
X10452980Y-7174786D01*
X10457741Y-7177312D01*
X10462001Y-7180225D01*
X10465789Y-7183553D01*
X10469131Y-7187325D01*
X10472056Y-7191568D01*
X10474592Y-7196309D01*
X10476766Y-7201577D01*
X10478607Y-7207399D01*
X10480141Y-7213802D01*
X10481397Y-7220815D01*
X10482403Y-7228465D01*
X10483776Y-7245786D01*
X10484480Y-7265989D01*
X10484777Y-7315923D01*
X10485167Y-7346156D01*
X10486284Y-7374058D01*
X10488051Y-7399041D01*
X10490389Y-7420515D01*
X10493220Y-7437891D01*
X10494795Y-7444859D01*
X10496464Y-7450581D01*
X10498217Y-7454984D01*
X10500045Y-7457995D01*
X10500983Y-7458955D01*
X10501936Y-7459539D01*
X10502903Y-7459739D01*
X10503883Y-7459544D01*
X10511903Y-7455459D01*
X10527472Y-7446727D01*
X10577578Y-7417491D01*
X10646848Y-7376182D01*
X10727930Y-7327142D01*
X10795562Y-7285505D01*
X10822895Y-7267746D01*
X10846290Y-7251320D01*
X10856602Y-7243442D01*
X10866037Y-7235698D01*
X10874633Y-7228022D01*
X10882425Y-7220348D01*
X10889449Y-7212609D01*
X10895741Y-7204741D01*
X10901338Y-7196675D01*
X10906275Y-7188346D01*
X10910589Y-7179688D01*
X10914316Y-7170633D01*
X10917492Y-7161118D01*
X10920152Y-7151073D01*
X10922333Y-7140435D01*
X10924072Y-7129135D01*
X10925404Y-7117109D01*
X10926364Y-7104289D01*
X10927318Y-7076004D01*
X10927223Y-7043751D01*
X10925036Y-6965219D01*
X10922745Y-6886930D01*
X10922401Y-6855256D01*
X10922872Y-6828098D01*
X10924368Y-6805110D01*
X10927100Y-6785943D01*
X10928995Y-6777684D01*
X10931277Y-6770251D01*
X10933974Y-6763599D01*
X10937111Y-6757685D01*
X10940715Y-6752466D01*
X10944812Y-6747899D01*
X10949428Y-6743940D01*
X10954590Y-6740545D01*
X10960323Y-6737671D01*
X10966655Y-6735276D01*
X10973611Y-6733314D01*
X10981218Y-6731743D01*
X10998489Y-6729601D01*
X11018679Y-6728501D01*
X11068657Y-6728037D01*
X11118649Y-6728307D01*
X11138875Y-6728946D01*
X11156218Y-6730192D01*
X11163876Y-6731105D01*
X11170897Y-6732245D01*
X11177308Y-6733638D01*
X11183137Y-6735308D01*
X11188410Y-6737282D01*
X11193157Y-6739583D01*
X11197405Y-6742238D01*
X11201181Y-6745272D01*
X11204514Y-6748709D01*
X11207430Y-6752576D01*
X11209959Y-6756897D01*
X11212126Y-6761698D01*
X11213961Y-6767004D01*
X11215491Y-6772840D01*
X11216744Y-6779232D01*
X11217747Y-6786204D01*
X11219115Y-6801991D01*
X11219817Y-6820403D01*
X11220113Y-6865913D01*
X11220138Y-6919749D01*
X11220683Y-6940964D01*
X11222043Y-6958432D01*
X11223136Y-6965774D01*
X11224561Y-6972195D01*
X11226361Y-6977700D01*
X11228579Y-6982294D01*
X11231259Y-6985982D01*
X11234443Y-6988771D01*
X11238173Y-6990664D01*
X11242494Y-6991667D01*
X11247448Y-6991785D01*
X11253078Y-6991024D01*
X11259427Y-6989388D01*
X11266538Y-6986883D01*
X11274453Y-6983514D01*
X11283216Y-6979286D01*
X11303458Y-6968275D01*
X11327606Y-6953891D01*
X11356005Y-6936176D01*
X11426927Y-6890917D01*
X11457267Y-6871371D01*
X11471007Y-6862179D01*
X11483840Y-6853168D01*
X11495799Y-6844185D01*
X11506918Y-6835074D01*
X11517231Y-6825682D01*
X11526772Y-6815854D01*
X11535576Y-6805436D01*
X11543676Y-6794273D01*
X11551106Y-6782211D01*
X11557900Y-6769096D01*
X11564093Y-6754773D01*
X11569718Y-6739088D01*
X11574809Y-6721886D01*
X11579400Y-6703014D01*
X11583526Y-6682316D01*
X11587220Y-6659639D01*
X11590516Y-6634828D01*
X11593448Y-6607728D01*
X11596051Y-6578186D01*
X11598358Y-6546046D01*
X11600404Y-6511156D01*
X11602221Y-6473359D01*
X11605310Y-6388431D01*
X11607896Y-6290027D01*
X11612648Y-6047852D01*
X11618460Y-5779411D01*
X11625944Y-5563898D01*
X11636503Y-5391322D01*
X11643373Y-5318015D01*
X11651536Y-5251695D01*
X11661169Y-5191116D01*
X11672445Y-5135028D01*
X11685541Y-5082182D01*
X11700631Y-5031330D01*
X11717890Y-4981224D01*
X11737494Y-4930613D01*
X11784435Y-4822888D01*
X11797650Y-4794845D01*
X11810792Y-4768612D01*
X11823868Y-4744187D01*
X11836881Y-4721572D01*
X11849837Y-4700767D01*
X11862740Y-4681770D01*
X11875594Y-4664583D01*
X11888406Y-4649204D01*
X11901179Y-4635636D01*
X11913918Y-4623876D01*
X11926629Y-4613925D01*
X11939316Y-4605784D01*
X11951983Y-4599452D01*
X11964636Y-4594929D01*
X11977280Y-4592215D01*
X11989918Y-4591310D01*
X12002557Y-4592215D01*
D11*
X8034958Y-12529666D02*
X8034958Y-12329666D01*
X8034958Y-12329666D02*
X8082577Y-12329666D01*
X8082577Y-12329666D02*
X8111148Y-12339190D01*
X8111148Y-12339190D02*
X8130196Y-12358237D01*
X8130196Y-12358237D02*
X8139720Y-12377285D01*
X8139720Y-12377285D02*
X8149243Y-12415380D01*
X8149243Y-12415380D02*
X8149243Y-12443952D01*
X8149243Y-12443952D02*
X8139720Y-12482047D01*
X8139720Y-12482047D02*
X8130196Y-12501095D01*
X8130196Y-12501095D02*
X8111148Y-12520142D01*
X8111148Y-12520142D02*
X8082577Y-12529666D01*
X8082577Y-12529666D02*
X8034958Y-12529666D01*
X8234958Y-12529666D02*
X8234958Y-12396333D01*
X8234958Y-12434428D02*
X8244482Y-12415380D01*
X8244482Y-12415380D02*
X8254005Y-12405856D01*
X8254005Y-12405856D02*
X8273053Y-12396333D01*
X8273053Y-12396333D02*
X8292101Y-12396333D01*
X8358767Y-12529666D02*
X8358767Y-12396333D01*
X8358767Y-12329666D02*
X8349243Y-12339190D01*
X8349243Y-12339190D02*
X8358767Y-12348714D01*
X8358767Y-12348714D02*
X8368291Y-12339190D01*
X8368291Y-12339190D02*
X8358767Y-12329666D01*
X8358767Y-12329666D02*
X8358767Y-12348714D01*
X8482577Y-12529666D02*
X8463529Y-12520142D01*
X8463529Y-12520142D02*
X8454005Y-12501095D01*
X8454005Y-12501095D02*
X8454005Y-12329666D01*
X8587339Y-12529666D02*
X8568291Y-12520142D01*
X8568291Y-12520142D02*
X8558767Y-12501095D01*
X8558767Y-12501095D02*
X8558767Y-12329666D01*
X8783529Y-12529666D02*
X8783529Y-12329666D01*
X8783529Y-12329666D02*
X8850196Y-12472523D01*
X8850196Y-12472523D02*
X8916863Y-12329666D01*
X8916863Y-12329666D02*
X8916863Y-12529666D01*
X9097815Y-12529666D02*
X9097815Y-12424904D01*
X9097815Y-12424904D02*
X9088291Y-12405856D01*
X9088291Y-12405856D02*
X9069244Y-12396333D01*
X9069244Y-12396333D02*
X9031148Y-12396333D01*
X9031148Y-12396333D02*
X9012101Y-12405856D01*
X9097815Y-12520142D02*
X9078767Y-12529666D01*
X9078767Y-12529666D02*
X9031148Y-12529666D01*
X9031148Y-12529666D02*
X9012101Y-12520142D01*
X9012101Y-12520142D02*
X9002577Y-12501095D01*
X9002577Y-12501095D02*
X9002577Y-12482047D01*
X9002577Y-12482047D02*
X9012101Y-12462999D01*
X9012101Y-12462999D02*
X9031148Y-12453476D01*
X9031148Y-12453476D02*
X9078767Y-12453476D01*
X9078767Y-12453476D02*
X9097815Y-12443952D01*
X9193053Y-12396333D02*
X9193053Y-12596333D01*
X9193053Y-12405856D02*
X9212101Y-12396333D01*
X9212101Y-12396333D02*
X9250196Y-12396333D01*
X9250196Y-12396333D02*
X9269244Y-12405856D01*
X9269244Y-12405856D02*
X9278767Y-12415380D01*
X9278767Y-12415380D02*
X9288291Y-12434428D01*
X9288291Y-12434428D02*
X9288291Y-12491571D01*
X9288291Y-12491571D02*
X9278767Y-12510618D01*
X9278767Y-12510618D02*
X9269244Y-12520142D01*
X9269244Y-12520142D02*
X9250196Y-12529666D01*
X9250196Y-12529666D02*
X9212101Y-12529666D01*
X9212101Y-12529666D02*
X9193053Y-12520142D01*
X9374005Y-12510618D02*
X9383529Y-12520142D01*
X9383529Y-12520142D02*
X9374005Y-12529666D01*
X9374005Y-12529666D02*
X9364482Y-12520142D01*
X9364482Y-12520142D02*
X9374005Y-12510618D01*
X9374005Y-12510618D02*
X9374005Y-12529666D01*
X9374005Y-12405856D02*
X9383529Y-12415380D01*
X9383529Y-12415380D02*
X9374005Y-12424904D01*
X9374005Y-12424904D02*
X9364482Y-12415380D01*
X9364482Y-12415380D02*
X9374005Y-12405856D01*
X9374005Y-12405856D02*
X9374005Y-12424904D01*
M02*
