%TF.GenerationSoftware,KiCad,Pcbnew,(5.1.12-1-10_14)*%
%TF.CreationDate,2022-04-14T08:34:34-04:00*%
%TF.ProjectId,Master_Warning,4d617374-6572-45f5-9761-726e696e672e,rev?*%
%TF.SameCoordinates,Original*%
%TF.FileFunction,Legend,Bot*%
%TF.FilePolarity,Positive*%
%FSLAX46Y46*%
G04 Gerber Fmt 4.6, Leading zero omitted, Abs format (unit mm)*
G04 Created by KiCad (PCBNEW (5.1.12-1-10_14)) date 2022-04-14 08:34:34*
%MOMM*%
%LPD*%
G01*
G04 APERTURE LIST*
%ADD10C,0.150000*%
%ADD11C,0.400000*%
%ADD12C,0.120000*%
G04 APERTURE END LIST*
D10*
X177585714Y-100663809D02*
X178442857Y-100663809D01*
X178538095Y-100616190D01*
X178585714Y-100520952D01*
X178585714Y-100473333D01*
X177252380Y-100663809D02*
X177300000Y-100616190D01*
X177347619Y-100663809D01*
X177300000Y-100711428D01*
X177252380Y-100663809D01*
X177347619Y-100663809D01*
X178252380Y-101282857D02*
X178204761Y-101187619D01*
X178109523Y-101140000D01*
X177252380Y-101140000D01*
X178204761Y-102092380D02*
X178252380Y-101997142D01*
X178252380Y-101806666D01*
X178204761Y-101711428D01*
X178157142Y-101663809D01*
X178061904Y-101616190D01*
X177776190Y-101616190D01*
X177680952Y-101663809D01*
X177633333Y-101711428D01*
X177585714Y-101806666D01*
X177585714Y-101997142D01*
X177633333Y-102092380D01*
X177585714Y-102520952D02*
X178442857Y-102520952D01*
X178538095Y-102473333D01*
X178585714Y-102378095D01*
X178585714Y-102330476D01*
X177252380Y-102520952D02*
X177300000Y-102473333D01*
X177347619Y-102520952D01*
X177300000Y-102568571D01*
X177252380Y-102520952D01*
X177347619Y-102520952D01*
X178252380Y-103140000D02*
X178204761Y-103044761D01*
X178109523Y-102997142D01*
X177252380Y-102997142D01*
X178204761Y-103949523D02*
X178252380Y-103854285D01*
X178252380Y-103663809D01*
X178204761Y-103568571D01*
X178157142Y-103520952D01*
X178061904Y-103473333D01*
X177776190Y-103473333D01*
X177680952Y-103520952D01*
X177633333Y-103568571D01*
X177585714Y-103663809D01*
X177585714Y-103854285D01*
X177633333Y-103949523D01*
X177585714Y-104378095D02*
X178442857Y-104378095D01*
X178538095Y-104330476D01*
X178585714Y-104235238D01*
X178585714Y-104187619D01*
X177252380Y-104378095D02*
X177300000Y-104330476D01*
X177347619Y-104378095D01*
X177300000Y-104425714D01*
X177252380Y-104378095D01*
X177347619Y-104378095D01*
X178252380Y-104997142D02*
X178204761Y-104901904D01*
X178109523Y-104854285D01*
X177252380Y-104854285D01*
X178204761Y-105806666D02*
X178252380Y-105711428D01*
X178252380Y-105520952D01*
X178204761Y-105425714D01*
X178157142Y-105378095D01*
X178061904Y-105330476D01*
X177776190Y-105330476D01*
X177680952Y-105378095D01*
X177633333Y-105425714D01*
X177585714Y-105520952D01*
X177585714Y-105711428D01*
X177633333Y-105806666D01*
X177585714Y-106235238D02*
X178442857Y-106235238D01*
X178538095Y-106187619D01*
X178585714Y-106092380D01*
X178585714Y-106044761D01*
X177252380Y-106235238D02*
X177300000Y-106187619D01*
X177347619Y-106235238D01*
X177300000Y-106282857D01*
X177252380Y-106235238D01*
X177347619Y-106235238D01*
X178252380Y-106854285D02*
X178204761Y-106759047D01*
X178109523Y-106711428D01*
X177252380Y-106711428D01*
X178204761Y-107663809D02*
X178252380Y-107568571D01*
X178252380Y-107378095D01*
X178204761Y-107282857D01*
X178157142Y-107235238D01*
X178061904Y-107187619D01*
X177776190Y-107187619D01*
X177680952Y-107235238D01*
X177633333Y-107282857D01*
X177585714Y-107378095D01*
X177585714Y-107568571D01*
X177633333Y-107663809D01*
X153470952Y-77446190D02*
X153518571Y-77398571D01*
X153613809Y-77350952D01*
X153709047Y-77350952D01*
X153804285Y-77398571D01*
X153851904Y-77446190D01*
X153899523Y-77541428D01*
X153899523Y-77636666D01*
X153851904Y-77731904D01*
X153804285Y-77779523D01*
X153709047Y-77827142D01*
X153613809Y-77827142D01*
X153518571Y-77779523D01*
X153470952Y-77731904D01*
X153470952Y-77350952D02*
X153470952Y-77731904D01*
X153423333Y-77779523D01*
X153375714Y-77779523D01*
X153280476Y-77731904D01*
X153232857Y-77636666D01*
X153232857Y-77398571D01*
X153328095Y-77255714D01*
X153470952Y-77160476D01*
X153661428Y-77112857D01*
X153851904Y-77160476D01*
X153994761Y-77255714D01*
X154090000Y-77398571D01*
X154137619Y-77589047D01*
X154090000Y-77779523D01*
X153994761Y-77922380D01*
X153851904Y-78017619D01*
X153661428Y-78065238D01*
X153470952Y-78017619D01*
X153328095Y-77922380D01*
X152375714Y-77874761D02*
X152470952Y-77922380D01*
X152661428Y-77922380D01*
X152756666Y-77874761D01*
X152804285Y-77827142D01*
X152851904Y-77731904D01*
X152851904Y-77446190D01*
X152804285Y-77350952D01*
X152756666Y-77303333D01*
X152661428Y-77255714D01*
X152470952Y-77255714D01*
X152375714Y-77303333D01*
X152042380Y-77255714D02*
X151804285Y-77922380D01*
X151566190Y-77255714D02*
X151804285Y-77922380D01*
X151899523Y-78160476D01*
X151947142Y-78208095D01*
X152042380Y-78255714D01*
X151185238Y-77922380D02*
X151185238Y-76922380D01*
X151185238Y-77303333D02*
X151090000Y-77255714D01*
X150899523Y-77255714D01*
X150804285Y-77303333D01*
X150756666Y-77350952D01*
X150709047Y-77446190D01*
X150709047Y-77731904D01*
X150756666Y-77827142D01*
X150804285Y-77874761D01*
X150899523Y-77922380D01*
X151090000Y-77922380D01*
X151185238Y-77874761D01*
X149899523Y-77874761D02*
X149994761Y-77922380D01*
X150185238Y-77922380D01*
X150280476Y-77874761D01*
X150328095Y-77779523D01*
X150328095Y-77398571D01*
X150280476Y-77303333D01*
X150185238Y-77255714D01*
X149994761Y-77255714D01*
X149899523Y-77303333D01*
X149851904Y-77398571D01*
X149851904Y-77493809D01*
X150328095Y-77589047D01*
X149423333Y-77922380D02*
X149423333Y-77255714D01*
X149423333Y-77446190D02*
X149375714Y-77350952D01*
X149328095Y-77303333D01*
X149232857Y-77255714D01*
X149137619Y-77255714D01*
X148947142Y-77255714D02*
X148566190Y-77255714D01*
X148804285Y-76922380D02*
X148804285Y-77779523D01*
X148756666Y-77874761D01*
X148661428Y-77922380D01*
X148566190Y-77922380D01*
X147851904Y-77874761D02*
X147947142Y-77922380D01*
X148137619Y-77922380D01*
X148232857Y-77874761D01*
X148280476Y-77779523D01*
X148280476Y-77398571D01*
X148232857Y-77303333D01*
X148137619Y-77255714D01*
X147947142Y-77255714D01*
X147851904Y-77303333D01*
X147804285Y-77398571D01*
X147804285Y-77493809D01*
X148280476Y-77589047D01*
X147423333Y-77874761D02*
X147328095Y-77922380D01*
X147137619Y-77922380D01*
X147042380Y-77874761D01*
X146994761Y-77779523D01*
X146994761Y-77731904D01*
X147042380Y-77636666D01*
X147137619Y-77589047D01*
X147280476Y-77589047D01*
X147375714Y-77541428D01*
X147423333Y-77446190D01*
X147423333Y-77398571D01*
X147375714Y-77303333D01*
X147280476Y-77255714D01*
X147137619Y-77255714D01*
X147042380Y-77303333D01*
X146709047Y-77255714D02*
X146328095Y-77255714D01*
X146566190Y-76922380D02*
X146566190Y-77779523D01*
X146518571Y-77874761D01*
X146423333Y-77922380D01*
X146328095Y-77922380D01*
X145994761Y-77255714D02*
X145994761Y-78255714D01*
X145994761Y-77303333D02*
X145899523Y-77255714D01*
X145709047Y-77255714D01*
X145613809Y-77303333D01*
X145566190Y-77350952D01*
X145518571Y-77446190D01*
X145518571Y-77731904D01*
X145566190Y-77827142D01*
X145613809Y-77874761D01*
X145709047Y-77922380D01*
X145899523Y-77922380D01*
X145994761Y-77874761D01*
X145090000Y-77922380D02*
X145090000Y-77255714D01*
X145090000Y-76922380D02*
X145137619Y-76970000D01*
X145090000Y-77017619D01*
X145042380Y-76970000D01*
X145090000Y-76922380D01*
X145090000Y-77017619D01*
X144470952Y-77922380D02*
X144566190Y-77874761D01*
X144613809Y-77779523D01*
X144613809Y-76922380D01*
X143947142Y-77922380D02*
X144042380Y-77874761D01*
X144090000Y-77827142D01*
X144137619Y-77731904D01*
X144137619Y-77446190D01*
X144090000Y-77350952D01*
X144042380Y-77303333D01*
X143947142Y-77255714D01*
X143804285Y-77255714D01*
X143709047Y-77303333D01*
X143661428Y-77350952D01*
X143613809Y-77446190D01*
X143613809Y-77731904D01*
X143661428Y-77827142D01*
X143709047Y-77874761D01*
X143804285Y-77922380D01*
X143947142Y-77922380D01*
X143328095Y-77255714D02*
X142947142Y-77255714D01*
X143185238Y-76922380D02*
X143185238Y-77779523D01*
X143137619Y-77874761D01*
X143042380Y-77922380D01*
X142947142Y-77922380D01*
D11*
%TO.C,D1*%
X156461760Y-96227900D02*
G75*
G03*
X156461760Y-96227900I-200000J0D01*
G01*
%TO.C,D2*%
X157731760Y-77177900D02*
G75*
G03*
X157731760Y-77177900I-200000J0D01*
G01*
D12*
%TO.C,J1*%
X163890000Y-102810000D02*
X163890000Y-108010000D01*
X158750000Y-102810000D02*
X163890000Y-102810000D01*
X156150000Y-108010000D02*
X163890000Y-108010000D01*
X158750000Y-102810000D02*
X158750000Y-105410000D01*
X158750000Y-105410000D02*
X156150000Y-105410000D01*
X156150000Y-105410000D02*
X156150000Y-108010000D01*
X157480000Y-102810000D02*
X156150000Y-102810000D01*
X156150000Y-102810000D02*
X156150000Y-104140000D01*
%TO.C,R1*%
X145130436Y-101240000D02*
X146584564Y-101240000D01*
X145130436Y-99420000D02*
X146584564Y-99420000D01*
%TO.C,R2*%
X145130436Y-105770000D02*
X146584564Y-105770000D01*
X145130436Y-107590000D02*
X146584564Y-107590000D01*
%TO.C,D1*%
D10*
X164610479Y-98853215D02*
X165610479Y-98853215D01*
X165610479Y-98615120D01*
X165562860Y-98472262D01*
X165467621Y-98377024D01*
X165372383Y-98329405D01*
X165181907Y-98281786D01*
X165039050Y-98281786D01*
X164848574Y-98329405D01*
X164753336Y-98377024D01*
X164658098Y-98472262D01*
X164610479Y-98615120D01*
X164610479Y-98853215D01*
X164610479Y-97329405D02*
X164610479Y-97900834D01*
X164610479Y-97615120D02*
X165610479Y-97615120D01*
X165467621Y-97710358D01*
X165372383Y-97805596D01*
X165324764Y-97900834D01*
%TO.C,D2*%
X165880479Y-79803215D02*
X166880479Y-79803215D01*
X166880479Y-79565120D01*
X166832860Y-79422262D01*
X166737621Y-79327024D01*
X166642383Y-79279405D01*
X166451907Y-79231786D01*
X166309050Y-79231786D01*
X166118574Y-79279405D01*
X166023336Y-79327024D01*
X165928098Y-79422262D01*
X165880479Y-79565120D01*
X165880479Y-79803215D01*
X166785240Y-78850834D02*
X166832860Y-78803215D01*
X166880479Y-78707977D01*
X166880479Y-78469881D01*
X166832860Y-78374643D01*
X166785240Y-78327024D01*
X166690002Y-78279405D01*
X166594764Y-78279405D01*
X166451907Y-78327024D01*
X165880479Y-78898453D01*
X165880479Y-78279405D01*
%TO.C,J1*%
X154602380Y-105076666D02*
X155316666Y-105076666D01*
X155459523Y-105029047D01*
X155554761Y-104933809D01*
X155602380Y-104790952D01*
X155602380Y-104695714D01*
X155602380Y-106076666D02*
X155602380Y-105505238D01*
X155602380Y-105790952D02*
X154602380Y-105790952D01*
X154745238Y-105695714D01*
X154840476Y-105600476D01*
X154888095Y-105505238D01*
%TO.C,R1*%
X146024166Y-102602380D02*
X146357500Y-102126190D01*
X146595595Y-102602380D02*
X146595595Y-101602380D01*
X146214642Y-101602380D01*
X146119404Y-101650000D01*
X146071785Y-101697619D01*
X146024166Y-101792857D01*
X146024166Y-101935714D01*
X146071785Y-102030952D01*
X146119404Y-102078571D01*
X146214642Y-102126190D01*
X146595595Y-102126190D01*
X145071785Y-102602380D02*
X145643214Y-102602380D01*
X145357500Y-102602380D02*
X145357500Y-101602380D01*
X145452738Y-101745238D01*
X145547976Y-101840476D01*
X145643214Y-101888095D01*
%TO.C,R2*%
X146024166Y-108952380D02*
X146357500Y-108476190D01*
X146595595Y-108952380D02*
X146595595Y-107952380D01*
X146214642Y-107952380D01*
X146119404Y-108000000D01*
X146071785Y-108047619D01*
X146024166Y-108142857D01*
X146024166Y-108285714D01*
X146071785Y-108380952D01*
X146119404Y-108428571D01*
X146214642Y-108476190D01*
X146595595Y-108476190D01*
X145643214Y-108047619D02*
X145595595Y-108000000D01*
X145500357Y-107952380D01*
X145262261Y-107952380D01*
X145167023Y-108000000D01*
X145119404Y-108047619D01*
X145071785Y-108142857D01*
X145071785Y-108238095D01*
X145119404Y-108380952D01*
X145690833Y-108952380D01*
X145071785Y-108952380D01*
%TD*%
M02*
