%TF.GenerationSoftware,KiCad,Pcbnew,(5.1.12-1-10_14)*%
%TF.CreationDate,2022-04-14T08:34:34-04:00*%
%TF.ProjectId,Master_Warning,4d617374-6572-45f5-9761-726e696e672e,rev?*%
%TF.SameCoordinates,Original*%
%TF.FileFunction,Soldermask,Bot*%
%TF.FilePolarity,Negative*%
%FSLAX46Y46*%
G04 Gerber Fmt 4.6, Leading zero omitted, Abs format (unit mm)*
G04 Created by KiCad (PCBNEW (5.1.12-1-10_14)) date 2022-04-14 08:34:34*
%MOMM*%
%LPD*%
G01*
G04 APERTURE LIST*
%ADD10C,1.600000*%
%ADD11R,1.400000X2.600000*%
%ADD12R,1.700000X1.700000*%
%ADD13O,1.700000X1.700000*%
G04 APERTURE END LIST*
D10*
%TO.C,D1*%
X160744760Y-97647860D02*
G75*
G03*
X160744760Y-97647860I-800000J0D01*
G01*
%TO.C,D2*%
X162014760Y-78597860D02*
G75*
G03*
X162014760Y-78597860I-800000J0D01*
G01*
%TD*%
D11*
%TO.C,D1*%
X162560000Y-97790000D03*
X157360000Y-97790000D03*
%TD*%
%TO.C,D2*%
X158630000Y-78740000D03*
X163830000Y-78740000D03*
%TD*%
D12*
%TO.C,J1*%
X157480000Y-104140000D03*
D13*
X157480000Y-106680000D03*
X160020000Y-104140000D03*
X160020000Y-106680000D03*
X162560000Y-104140000D03*
X162560000Y-106680000D03*
%TD*%
%TO.C,R1*%
G36*
G01*
X143832500Y-100955002D02*
X143832500Y-99704998D01*
G75*
G02*
X144082498Y-99455000I249998J0D01*
G01*
X144707502Y-99455000D01*
G75*
G02*
X144957500Y-99704998I0J-249998D01*
G01*
X144957500Y-100955002D01*
G75*
G02*
X144707502Y-101205000I-249998J0D01*
G01*
X144082498Y-101205000D01*
G75*
G02*
X143832500Y-100955002I0J249998D01*
G01*
G37*
G36*
G01*
X146757500Y-100955002D02*
X146757500Y-99704998D01*
G75*
G02*
X147007498Y-99455000I249998J0D01*
G01*
X147632502Y-99455000D01*
G75*
G02*
X147882500Y-99704998I0J-249998D01*
G01*
X147882500Y-100955002D01*
G75*
G02*
X147632502Y-101205000I-249998J0D01*
G01*
X147007498Y-101205000D01*
G75*
G02*
X146757500Y-100955002I0J249998D01*
G01*
G37*
%TD*%
%TO.C,R2*%
G36*
G01*
X146757500Y-107305002D02*
X146757500Y-106054998D01*
G75*
G02*
X147007498Y-105805000I249998J0D01*
G01*
X147632502Y-105805000D01*
G75*
G02*
X147882500Y-106054998I0J-249998D01*
G01*
X147882500Y-107305002D01*
G75*
G02*
X147632502Y-107555000I-249998J0D01*
G01*
X147007498Y-107555000D01*
G75*
G02*
X146757500Y-107305002I0J249998D01*
G01*
G37*
G36*
G01*
X143832500Y-107305002D02*
X143832500Y-106054998D01*
G75*
G02*
X144082498Y-105805000I249998J0D01*
G01*
X144707502Y-105805000D01*
G75*
G02*
X144957500Y-106054998I0J-249998D01*
G01*
X144957500Y-107305002D01*
G75*
G02*
X144707502Y-107555000I-249998J0D01*
G01*
X144082498Y-107555000D01*
G75*
G02*
X143832500Y-107305002I0J249998D01*
G01*
G37*
%TD*%
M02*
