<?xml version="1.0" encoding="UTF-8" standalone="no"?>
<!-- Created with Inkscape (http://www.inkscape.org/) -->

<svg
   width="207.0074mm"
   height="149.19696mm"
   viewBox="0 0 207.0074 149.19696"
   version="1.1"
   id="svg11100"
   xml:space="preserve"
   sodipodi:docname="james_webb_telescope.svg"
   inkscape:version="1.2-beta (1b65182c, 2022-04-05)"
   xmlns:inkscape="http://www.inkscape.org/namespaces/inkscape"
   xmlns:sodipodi="http://sodipodi.sourceforge.net/DTD/sodipodi-0.dtd"
   xmlns="http://www.w3.org/2000/svg"
   xmlns:svg="http://www.w3.org/2000/svg"><sodipodi:namedview
     id="namedview11102"
     pagecolor="#ffffff"
     bordercolor="#000000"
     borderopacity="0.25"
     inkscape:pageshadow="2"
     inkscape:pageopacity="0.0"
     inkscape:pagecheckerboard="0"
     inkscape:deskcolor="#d1d1d1"
     inkscape:document-units="mm"
     showgrid="false"
     inkscape:zoom="0.5442921"
     inkscape:cx="-114.82805"
     inkscape:cy="434.50934"
     inkscape:window-width="1800"
     inkscape:window-height="1011"
     inkscape:window-x="0"
     inkscape:window-y="44"
     inkscape:window-maximized="0"
     inkscape:current-layer="layer6" /><defs
     id="defs11097" /><g
     inkscape:groupmode="layer"
     id="layer6"
     inkscape:label="sail layer"
     style="display:inline"
     transform="translate(-28.810005,-57.159277)"><path
       style="display:inline;fill:#e6e6e6;fill-opacity:1;stroke:#000000;stroke-width:0.264999;stroke-dasharray:none;stroke-opacity:1"
       d="M 203.9924,172.51847 47.454381,206.21614 29.475116,196.09607 141.43173,139.92155 211.8766,128.94009 235.59187,139.6879 Z"
       id="path17191"
       sodipodi:nodetypes="ccccccc"
       inkscape:label="bottom sail" /><path
       style="display:inline;fill:#e6e6e6;fill-opacity:1;stroke:#000000;stroke-width:0.264999;stroke-dasharray:none;stroke-opacity:1"
       d="M 203.80087,168.68797 47.262856,202.38564 29.283591,192.26557 141.2402,136.09105 l 70.44487,-10.98146 23.71527,10.74781 z"
       id="path17189"
       sodipodi:nodetypes="ccccccc"
       inkscape:label="sail 4" /><path
       style="display:inline;fill:#e6e6e6;fill-opacity:1;stroke:#000000;stroke-width:0.264999;stroke-dasharray:none;stroke-opacity:1"
       d="M 203.9924,164.66594 47.454381,198.36361 29.475116,188.24354 141.43173,132.06902 l 70.44487,-10.98146 23.71527,10.74781 z"
       id="path17187"
       sodipodi:nodetypes="ccccccc"
       inkscape:label="middle sail" /><path
       style="display:inline;fill:#e6e6e6;fill-opacity:1;stroke:#000000;stroke-width:0.264999;stroke-dasharray:none;stroke-opacity:1"
       d="M 203.60935,160.45239 47.071331,194.15006 29.092066,184.02999 141.04868,127.85547 l 70.44487,-10.98146 23.71527,10.74781 z"
       id="path17185"
       sodipodi:nodetypes="ccccccc"
       inkscape:label="sail 2" /><path
       style="fill:#e6e6e6;fill-opacity:1;stroke:#000000;stroke-width:0.264999;stroke-dasharray:none;stroke-opacity:1"
       d="M 203.80088,156.43036 47.262856,190.12803 29.283591,180.00796 141.24021,123.83344 l 70.44487,-10.98146 23.71527,10.74781 z"
       id="path17181"
       sodipodi:nodetypes="ccccccc"
       inkscape:label="top sail" /></g><g
     inkscape:groupmode="layer"
     id="layer7"
     inkscape:label="mirror sides"
     transform="translate(-28.810005,-57.159277)"><path
       style="display:inline;fill:#e6e6e6;fill-opacity:1;stroke:#000000;stroke-width:0.264999;stroke-dasharray:none;stroke-opacity:1"
       d="m 137.96331,61.303698 -1.91949,7.55799 -4.67875,-0.11997 -1.91949,7.318055 -4.55879,-0.119968 -2.2794,7.917894 2.75927,7.917895 -2.27939,7.797927 2.87923,7.917889 -2.27939,7.79793 2.87923,8.03786 4.43882,0.23994 2.75927,7.67796 4.19888,0.23993 3.11917,7.9179 6.11837,0.83977 1.67956,-7.07811 4.67875,-0.23994 2.15943,-7.67796 4.91869,-0.11997 2.03946,-7.79792 -2.87924,-7.9179 2.15943,-7.55799 -2.39936,-8.157828 2.03946,-7.797924 -2.99921,-7.917897 -4.43882,-0.719807 -2.63929,-7.677959 -4.43882,-0.479872 -2.75927,-7.55799 z"
       id="path19593"
       inkscape:label="mirror sides" /></g><g
     inkscape:label="black layer"
     inkscape:groupmode="layer"
     id="layer1"
     transform="translate(-6.0056186,-74.626076)"><path
       style="fill:none;stroke:#000000;stroke-width:0.264583;stroke-opacity:1"
       d="m 34.42593,127.22076 3.137776,-0.20463 77.080164,-49.590515 0.75034,-2.660288 8.04908,0.545701 1.90995,2.660287 5.72985,0.341064 20.39555,14.051783 5.86627,50.409058 -0.68212,1.02319 -1.36425,0.5457 -0.0682,19.50878 -0.81856,0.5457 -0.95497,-0.20463 -6.34377,-17.80347 -0.61391,0.0682 1.70532,15.68888 -0.75034,0.88677 -0.75034,0.47748 -5.59343,-2.25101 -0.61391,-0.68213 -1.50068,-12.34646 -0.75034,0.68212 -1.43246,8.45835 -1.02319,0.88677 -1.56889,0.40927 -9.07226,-1.77352 0.0682,-0.95498 -86.493491,-9.68618 -1.227825,0.27285 -1.159613,-0.61391 z"
       id="path11186" /><path
       style="fill:none;stroke:#000000;stroke-width:0.264583;stroke-opacity:1"
       d="m 110.22357,152.03827 -66.485394,-7.20306 -0.171503,-1.31485 66.828397,7.8319 z"
       id="path11188" /><path
       style="display:inline;fill:none;fill-opacity:1;stroke:#000000;stroke-width:0.264583;stroke-opacity:1"
       d="m 41.451488,127.17056 75.346302,-48.763582 4.97354,0.343003 2.74403,7.8319 4.5162,0.400172 2.68686,7.77473 4.45904,0.571672 2.91552,8.174905 -2.11519,7.66039 2.62969,8.23208 -2.22951,7.48889 2.80118,7.94624 -2.11518,8.1749 -4.85921,-0.1715 -2.00085,7.60323 -4.57337,-0.1715 -1.02901,3.54436 -9.26108,-1.08618 -0.97184,-2.91552 -72.030606,-8.40357 -0.228669,-1.88652 1.372013,-1.48634 -0.628838,-5.77389 -1.715016,-0.62883 z"
       id="path11192" /><path
       style="display:inline;fill:none;stroke:#000000;stroke-width:0.265;stroke-dasharray:none;stroke-opacity:1"
       d="m 149.16453,145.79925 3.77954,10.82322 v -11.51041 z"
       id="path11194" /><path
       style="display:inline;fill:#000000;fill-opacity:1;stroke:none;stroke-width:0.672247;stroke-dasharray:none;stroke-opacity:1"
       d="m 663.19894,543.49588 c -2.08251,-5.81418 -7.49664,-20.99067 -12.03141,-33.72553 -5.28442,-14.84008 -8.59267,-23.21487 -9.21319,-23.32301 -0.53248,-0.0928 -1.40267,0.11048 -1.93375,0.45171 -0.82873,0.53247 -0.51587,4.77662 2.20749,29.94505 2.94491,27.21606 3.09625,29.4419 2.10467,30.95523 -2.22335,3.39326 -3.29526,3.32938 -13.79066,-0.82192 -5.33037,-2.10836 -10.3473,-4.47154 -11.14871,-5.25152 -1.31348,-1.27836 -1.73486,-3.734 -4.27449,-24.9098 -1.54955,-12.9204 -2.94227,-23.62717 -3.09492,-23.79282 -0.15266,-0.16564 -1.16162,0.58945 -2.24212,1.67798 -1.85585,1.86963 -2.10885,2.84341 -4.57189,17.59716 -2.92364,17.51267 -3.1941,18.12765 -8.64346,19.65337 -2.81302,0.7876 -4.32614,0.60292 -19.75253,-2.41084 l -16.70614,-3.26377 v -1.87799 c 0,-1.03533 -0.37646,-1.89447 -0.83899,-1.91473 -0.46144,-0.0202 -74.23359,-8.27501 -163.93809,-18.34402 -108.35298,-12.16223 -163.74542,-18.1282 -165.0246,-17.77377 -1.30701,0.36214 -2.54665,0.21229 -3.85934,-0.46652 -1.06362,-0.55002 -1.95934,-1.06779 -1.99049,-1.1506 -0.31614,-0.84032 -7.11261,-68.68849 -6.90275,-68.90916 0.15547,-0.16349 2.76655,-0.47372 5.8024,-0.6894 l 5.51973,-0.39214 145.71634,-93.78537 145.71635,-93.78536 1.28502,-4.73612 c 0.70676,-2.60486 1.50956,-4.7639 1.78399,-4.79786 0.27445,-0.034 6.85186,0.32804 14.6165,0.80446 l 14.11751,0.86623 3.49481,4.91445 c 2.36785,3.32968 4.03592,5.01972 5.1728,5.24092 0.92288,0.17956 5.8728,0.52773 10.99981,0.77372 l 9.32185,0.44724 38.40793,26.46078 38.40793,26.46077 1.50611,12.89788 c 21.87996,187.37402 20.70219,176.53241 19.38449,178.43761 -0.67309,0.97318 -2.43584,2.25439 -3.91721,2.84712 l -2.69342,1.07769 v 36.78663 c 0,27.71691 -0.19858,36.98521 -0.80543,37.59206 -0.44298,0.44299 -1.6155,0.80543 -2.60559,0.80543 -1.7163,0 -1.97658,-0.49253 -5.58655,-10.57124 z m 1.61448,-39.4324 c 0,-12.36667 -0.19837,-22.48485 -0.44082,-22.48485 -0.24246,0 -3.83792,0.63309 -7.98992,1.40687 l -7.54909,1.40688 1.88222,5.47282 c 2.04917,5.95822 10.82188,30.97878 12.09701,34.50177 0.43425,1.19975 1.06203,2.18137 1.39508,2.18137 0.34785,0 0.60552,-9.5678 0.60552,-22.48486 z m -101.341,5.56215 1.84815,-6.23334 h 8.74173 8.74173 l 2.85504,-11.07463 c 1.57028,-6.09104 3.28103,-12.54265 3.80168,-14.33689 l 0.94664,-3.26227 9.16059,0.24192 9.16059,0.24191 4.09951,-15.77296 4.09951,-15.77296 -3.31506,-9.39666 c -1.82328,-5.16816 -4.1966,-11.98613 -5.27405,-15.15105 l -1.959,-5.75438 4.04736,-13.53819 c 2.22605,-7.446 4.05545,-13.91758 4.06536,-14.3813 0.01,-0.46371 -2.15712,-7.71026 -4.81559,-16.10344 l -4.8336,-15.26033 3.82648,-13.93642 c 2.10457,-7.66504 3.81853,-14.42097 3.80881,-15.01318 -0.0185,-1.1305 -10.52292,-30.7947 -11.11398,-31.38577 -0.18786,-0.18786 -4.01905,-0.81356 -8.51375,-1.39045 l -8.17219,-1.0489 -4.9792,-14.43058 c -2.73855,-7.93682 -5.0833,-14.54417 -5.21054,-14.68301 -0.12725,-0.13883 -3.99859,-0.56909 -8.60297,-0.95613 l -8.3716,-0.7037 -5.23012,-14.89182 -5.23011,-14.89183 -9.74936,-0.641 -9.74936,-0.641 -142.2309,91.9978 c -78.227,50.59879 -142.49607,92.17346 -142.82015,92.38817 -0.32609,0.21603 0.0212,4.31758 0.77767,9.18404 0.7518,4.83652 1.36691,8.9256 1.36691,9.08685 0,0.16126 1.36694,0.67591 3.03765,1.14368 1.6707,0.46777 3.14859,1.03558 3.2842,1.26181 0.13561,0.22623 0.5878,3.73371 1.00487,7.79441 0.41707,4.0607 0.93277,8.64054 1.14601,10.17743 0.35561,2.56305 0.1667,3.03528 -2.2822,5.70511 l -2.66991,2.91077 0.53944,3.92179 c 0.29669,2.15698 0.63718,3.99654 0.75665,4.08791 0.11947,0.0914 9.73133,1.26522 21.35969,2.60854 68.96417,7.96681 246.37463,28.68834 248.40276,29.01342 2.33483,0.37424 2.46205,0.54705 3.99051,5.42072 0.86834,2.76879 1.89434,5.22919 2.28001,5.46755 0.75358,0.46574 35.44611,4.7442 35.87111,4.4238 0.14016,-0.10566 1.0865,-2.9971 2.10298,-6.42544 z m -59.48818,-1.97781 c 0.23329,-1.16642 0.34655,-2.19042 0.2517,-2.27553 -0.37757,-0.33883 -253.77104,-29.83364 -254.03517,-29.5695 -0.15581,0.15581 -0.0753,1.67013 0.17886,3.36516 0.32904,2.1942 0.77851,3.09208 1.56052,3.11733 1.02319,0.033 250.27989,27.22275 251.20045,27.40175 0.23072,0.0448 0.61036,-0.87279 0.84364,-2.03921 z"
       id="path17122"
       inkscape:label="main black fill"
       transform="matrix(0.26458333,0,0,0.26458333,-22.804386,17.466799)" /><path
       style="display:inline;fill:#000000;fill-opacity:1;stroke:#000000;stroke-width:0.264583;stroke-opacity:1"
       d="m 116.74062,110.64925 -0.57167,2.22952 -5.54521,1.77218 -0.68601,1.94368 -0.343,1.65785 0.343,1.60068 0.85751,2.00085 5.54521,1.31485 0.91468,2.05801 4.23037,0.1715 1.88651,-6.91722 -2.40102,-7.54606 z"
       id="path11190"
       inkscape:label="black part of mirror" /></g><g
     inkscape:groupmode="layer"
     id="layer5"
     inkscape:label="mirror layer"
     transform="translate(-28.810005,-57.159277)"><path
       style="fill:#ffcc00;fill-opacity:1;stroke:none;stroke-width:0.264999;stroke-dasharray:none;stroke-opacity:1"
       d="m 124.99048,76.696635 -1.86621,7.055181 2.45793,7.510354 4.23311,0.227584 1.95725,-6.964146 -2.3669,-7.601386 z"
       id="path15303" /><path
       style="fill:#ffcc00;fill-opacity:1;stroke:none;stroke-width:0.264999;stroke-dasharray:none;stroke-opacity:1"
       d="m 131.71405,69.480005 -1.86621,7.055181 2.45793,7.510354 4.23311,0.227584 1.95725,-6.964146 -2.3669,-7.601386 z"
       id="path15839" /><path
       style="fill:#ffcc00;fill-opacity:1;stroke:none;stroke-width:0.264999;stroke-dasharray:none;stroke-opacity:1"
       d="m 138.57209,61.904785 -1.86621,7.055181 2.45793,7.510354 4.23311,0.227584 1.95725,-6.964146 -2.3669,-7.601386 z"
       id="path15841" /><path
       style="fill:#ffcc00;fill-opacity:1;stroke:none;stroke-width:0.264999;stroke-dasharray:none;stroke-opacity:1"
       d="m 145.69907,70.286833 -1.86621,7.055181 2.45793,7.510354 4.23311,0.227584 1.95725,-6.964146 -2.3669,-7.601386 z"
       id="path15843" /><path
       style="fill:#ffcc00;fill-opacity:1;stroke:none;stroke-width:0.264999;stroke-dasharray:none;stroke-opacity:1"
       d="m 138.9755,77.637934 -1.86621,7.055181 2.45793,7.510354 4.23311,0.227584 1.95725,-6.964146 -2.3669,-7.601386 z"
       id="path15845" /><path
       style="fill:#ffcc00;fill-opacity:1;stroke:none;stroke-width:0.264999;stroke-dasharray:none;stroke-opacity:1"
       d="m 146.14731,85.840687 -1.86621,7.055181 2.45793,7.510352 4.23311,0.22759 1.95725,-6.96415 -2.3669,-7.601386 z"
       id="path15847" /><path
       style="fill:#ffcc00;fill-opacity:1;stroke:none;stroke-width:0.264999;stroke-dasharray:none;stroke-opacity:1"
       d="m 153.05017,78.220643 -1.86621,7.055181 2.45793,7.510352 4.23311,0.22759 1.95725,-6.96415 -2.3669,-7.601386 z"
       id="path15849" /><path
       style="fill:#ffcc00;fill-opacity:1;stroke:none;stroke-width:0.264999;stroke-dasharray:none;stroke-opacity:1"
       d="m 153.6777,94.133088 -1.86621,7.055182 2.45793,7.51035 4.23311,0.22759 1.95725,-6.96415 -2.3669,-7.601385 z"
       id="path15851" /><path
       style="fill:#ffcc00;fill-opacity:1;stroke:none;stroke-width:0.264999;stroke-dasharray:none;stroke-opacity:1"
       d="m 146.77483,101.52901 -1.86621,7.05518 2.45793,7.51035 4.23311,0.22759 1.95725,-6.96415 -2.3669,-7.60138 z"
       id="path15853" /><path
       style="fill:#ffcc00;fill-opacity:1;stroke:none;stroke-width:0.264999;stroke-dasharray:none;stroke-opacity:1"
       d="m 125.61801,92.116014 -1.86621,7.055181 2.45793,7.510355 4.23311,0.22759 1.95725,-6.964155 -2.3669,-7.601381 z"
       id="path15855" /><path
       style="fill:#ffcc00;fill-opacity:1;stroke:none;stroke-width:0.264999;stroke-dasharray:none;stroke-opacity:1"
       d="m 126.24554,107.84916 -1.86621,7.05518 2.45793,7.51036 4.23311,0.22759 1.95725,-6.96416 -2.3669,-7.60138 z"
       id="path17030" /><path
       style="fill:#ffcc00;fill-opacity:1;stroke:none;stroke-width:0.264999;stroke-dasharray:none;stroke-opacity:1"
       d="m 133.41735,116.36568 -1.86621,7.05518 2.45793,7.51036 4.23311,0.22759 1.95725,-6.96416 -2.3669,-7.60138 z"
       id="path17032" /><path
       style="fill:#ffcc00;fill-opacity:1;stroke:none;stroke-width:0.264999;stroke-dasharray:none;stroke-opacity:1"
       d="m 140.18574,108.88011 -1.86621,7.05518 2.45793,7.51036 4.23311,0.22759 1.95725,-6.96416 -2.3669,-7.60138 z"
       id="path17034" /><path
       style="fill:#ffcc00;fill-opacity:1;stroke:none;stroke-width:0.264999;stroke-dasharray:none;stroke-opacity:1"
       d="m 147.31272,116.94839 -1.86621,7.05518 2.45793,7.51036 4.23311,0.22759 1.95725,-6.96416 -2.3669,-7.60138 z"
       id="path17036" /><path
       style="fill:#ffcc00;fill-opacity:1;stroke:none;stroke-width:0.264999;stroke-dasharray:none;stroke-opacity:1"
       d="m 154.17076,109.41799 -1.86621,7.05518 2.45793,7.51036 4.23311,0.22759 1.95725,-6.96416 -2.3669,-7.60138 z"
       id="path17038" /><path
       style="display:inline;fill:#ffcc00;fill-opacity:1;stroke:none;stroke-width:0.264999;stroke-dasharray:none;stroke-opacity:1"
       d="m 140.61222,137.92279 0.58271,1.21025 4.12379,0.35859 0.31377,-0.98613 z"
       id="path17046"
       inkscape:label="partial 3 - bottom" /><path
       style="display:inline;fill:#ffcc00;fill-opacity:1;stroke:none;stroke-width:0.264999;stroke-dasharray:none;stroke-opacity:1"
       d="m 140.61222,124.43083 -1.92742,7.12699 1.21024,3.49625 6.49945,0.80683 1.03095,-3.5859 -2.51013,-7.70969 z"
       id="path17044"
       inkscape:label="partial 3 - top" /><path
       style="display:inline;fill:#ffcc00;fill-opacity:1;stroke:none;stroke-width:0.264999;stroke-dasharray:none;stroke-opacity:1"
       d="m 132.40947,101.92929 -1.56883,5.69262 2.59977,7.5304 4.16862,0.31377 1.8826,-7.08216 -0.89648,-2.59978 -5.19956,-1.29989 z"
       id="path17042"
       inkscape:label="partial 2" /><path
       style="display:inline;fill:#ffcc00;fill-opacity:1;stroke:none;stroke-width:0.264999;stroke-dasharray:none;stroke-opacity:1"
       d="m 132.36465,84.985901 4.21343,0.179295 2.42048,7.44075 -0.80682,2.868721 -4.88579,1.524008 -0.62754,1.792952 -2.24119,-6.633919 z"
       id="path17040"
       inkscape:label="partial 1" /></g></svg>
