%TF.GenerationSoftware,KiCad,Pcbnew,(5.1.12-1-10_14)*%
%TF.CreationDate,2022-04-14T08:48:01-04:00*%
%TF.ProjectId,Remove_Before_Flight,52656d6f-7665-45f4-9265-666f72655f46,rev?*%
%TF.SameCoordinates,Original*%
%TF.FileFunction,Copper,L2,Bot*%
%TF.FilePolarity,Positive*%
%FSLAX46Y46*%
G04 Gerber Fmt 4.6, Leading zero omitted, Abs format (unit mm)*
G04 Created by KiCad (PCBNEW (5.1.12-1-10_14)) date 2022-04-14 08:48:01*
%MOMM*%
%LPD*%
G01*
G04 APERTURE LIST*
%TA.AperFunction,NonConductor*%
%ADD10C,0.300000*%
%TD*%
%TA.AperFunction,ComponentPad*%
%ADD11R,1.700000X1.700000*%
%TD*%
%TA.AperFunction,ComponentPad*%
%ADD12O,1.700000X1.700000*%
%TD*%
%TA.AperFunction,ViaPad*%
%ADD13C,0.800000*%
%TD*%
%TA.AperFunction,Conductor*%
%ADD14C,0.254000*%
%TD*%
%TA.AperFunction,NonConductor*%
%ADD15C,0.254000*%
%TD*%
%TA.AperFunction,NonConductor*%
%ADD16C,0.100000*%
%TD*%
G04 APERTURE END LIST*
D10*
X197710000Y-106930000D02*
X196995714Y-106930000D01*
X197852857Y-107358571D02*
X197352857Y-105858571D01*
X196852857Y-107358571D01*
X195781428Y-107287142D02*
X195924285Y-107358571D01*
X196210000Y-107358571D01*
X196352857Y-107287142D01*
X196424285Y-107144285D01*
X196424285Y-106572857D01*
X196352857Y-106430000D01*
X196210000Y-106358571D01*
X195924285Y-106358571D01*
X195781428Y-106430000D01*
X195710000Y-106572857D01*
X195710000Y-106715714D01*
X196424285Y-106858571D01*
X195067142Y-107358571D02*
X195067142Y-106358571D01*
X195067142Y-106644285D02*
X194995714Y-106501428D01*
X194924285Y-106430000D01*
X194781428Y-106358571D01*
X194638571Y-106358571D01*
X193924285Y-107358571D02*
X194067142Y-107287142D01*
X194138571Y-107215714D01*
X194209999Y-107072857D01*
X194209999Y-106644285D01*
X194138571Y-106501428D01*
X194067142Y-106430000D01*
X193924285Y-106358571D01*
X193709999Y-106358571D01*
X193567142Y-106430000D01*
X193495714Y-106501428D01*
X193424285Y-106644285D01*
X193424285Y-107072857D01*
X193495714Y-107215714D01*
X193567142Y-107287142D01*
X193709999Y-107358571D01*
X193924285Y-107358571D01*
X192852857Y-107287142D02*
X192709999Y-107358571D01*
X192424285Y-107358571D01*
X192281428Y-107287142D01*
X192209999Y-107144285D01*
X192209999Y-107072857D01*
X192281428Y-106930000D01*
X192424285Y-106858571D01*
X192638571Y-106858571D01*
X192781428Y-106787142D01*
X192852857Y-106644285D01*
X192852857Y-106572857D01*
X192781428Y-106430000D01*
X192638571Y-106358571D01*
X192424285Y-106358571D01*
X192281428Y-106430000D01*
X191567142Y-106358571D02*
X191567142Y-107858571D01*
X191567142Y-106430000D02*
X191424285Y-106358571D01*
X191138571Y-106358571D01*
X190995714Y-106430000D01*
X190924285Y-106501428D01*
X190852857Y-106644285D01*
X190852857Y-107072857D01*
X190924285Y-107215714D01*
X190995714Y-107287142D01*
X191138571Y-107358571D01*
X191424285Y-107358571D01*
X191567142Y-107287142D01*
X189567142Y-107358571D02*
X189567142Y-106572857D01*
X189638571Y-106430000D01*
X189781428Y-106358571D01*
X190067142Y-106358571D01*
X190210000Y-106430000D01*
X189567142Y-107287142D02*
X189710000Y-107358571D01*
X190067142Y-107358571D01*
X190210000Y-107287142D01*
X190281428Y-107144285D01*
X190281428Y-107001428D01*
X190210000Y-106858571D01*
X190067142Y-106787142D01*
X189710000Y-106787142D01*
X189567142Y-106715714D01*
X188210000Y-107287142D02*
X188352857Y-107358571D01*
X188638571Y-107358571D01*
X188781428Y-107287142D01*
X188852857Y-107215714D01*
X188924285Y-107072857D01*
X188924285Y-106644285D01*
X188852857Y-106501428D01*
X188781428Y-106430000D01*
X188638571Y-106358571D01*
X188352857Y-106358571D01*
X188210000Y-106430000D01*
X186995714Y-107287142D02*
X187138571Y-107358571D01*
X187424285Y-107358571D01*
X187567142Y-107287142D01*
X187638571Y-107144285D01*
X187638571Y-106572857D01*
X187567142Y-106430000D01*
X187424285Y-106358571D01*
X187138571Y-106358571D01*
X186995714Y-106430000D01*
X186924285Y-106572857D01*
X186924285Y-106715714D01*
X187638571Y-106858571D01*
X185352857Y-105858571D02*
X184852857Y-107358571D01*
X184352857Y-105858571D01*
X183852857Y-107358571D02*
X183852857Y-106358571D01*
X183852857Y-105858571D02*
X183924285Y-105930000D01*
X183852857Y-106001428D01*
X183781428Y-105930000D01*
X183852857Y-105858571D01*
X183852857Y-106001428D01*
X182924285Y-107358571D02*
X183067142Y-107287142D01*
X183138571Y-107144285D01*
X183138571Y-105858571D01*
X182138571Y-107358571D02*
X182281428Y-107287142D01*
X182352857Y-107144285D01*
X182352857Y-105858571D01*
X180924285Y-107358571D02*
X180924285Y-106572857D01*
X180995714Y-106430000D01*
X181138571Y-106358571D01*
X181424285Y-106358571D01*
X181567142Y-106430000D01*
X180924285Y-107287142D02*
X181067142Y-107358571D01*
X181424285Y-107358571D01*
X181567142Y-107287142D01*
X181638571Y-107144285D01*
X181638571Y-107001428D01*
X181567142Y-106858571D01*
X181424285Y-106787142D01*
X181067142Y-106787142D01*
X180924285Y-106715714D01*
X179567142Y-106358571D02*
X179567142Y-107572857D01*
X179638571Y-107715714D01*
X179710000Y-107787142D01*
X179852857Y-107858571D01*
X180067142Y-107858571D01*
X180210000Y-107787142D01*
X179567142Y-107287142D02*
X179710000Y-107358571D01*
X179995714Y-107358571D01*
X180138571Y-107287142D01*
X180210000Y-107215714D01*
X180281428Y-107072857D01*
X180281428Y-106644285D01*
X180210000Y-106501428D01*
X180138571Y-106430000D01*
X179995714Y-106358571D01*
X179710000Y-106358571D01*
X179567142Y-106430000D01*
X178281428Y-107287142D02*
X178424285Y-107358571D01*
X178710000Y-107358571D01*
X178852857Y-107287142D01*
X178924285Y-107144285D01*
X178924285Y-106572857D01*
X178852857Y-106430000D01*
X178710000Y-106358571D01*
X178424285Y-106358571D01*
X178281428Y-106430000D01*
X178210000Y-106572857D01*
X178210000Y-106715714D01*
X178924285Y-106858571D01*
X124975714Y-107628571D02*
X124618571Y-108628571D01*
X124261428Y-107628571D01*
X123404285Y-107128571D02*
X123261428Y-107128571D01*
X123118571Y-107200000D01*
X123047142Y-107271428D01*
X122975714Y-107414285D01*
X122904285Y-107700000D01*
X122904285Y-108057142D01*
X122975714Y-108342857D01*
X123047142Y-108485714D01*
X123118571Y-108557142D01*
X123261428Y-108628571D01*
X123404285Y-108628571D01*
X123547142Y-108557142D01*
X123618571Y-108485714D01*
X123690000Y-108342857D01*
X123761428Y-108057142D01*
X123761428Y-107700000D01*
X123690000Y-107414285D01*
X123618571Y-107271428D01*
X123547142Y-107200000D01*
X123404285Y-107128571D01*
X121475714Y-108628571D02*
X122332857Y-108628571D01*
X121904285Y-108628571D02*
X121904285Y-107128571D01*
X122047142Y-107342857D01*
X122190000Y-107485714D01*
X122332857Y-107557142D01*
D11*
%TO.P,J1,1*%
%TO.N,Net-(J1-Pad1)*%
X124460000Y-99060000D03*
D12*
%TO.P,J1,2*%
%TO.N,Net-(J1-Pad2)*%
X124460000Y-101600000D03*
%TO.P,J1,3*%
%TO.N,Net-(J1-Pad3)*%
X127000000Y-99060000D03*
%TO.P,J1,4*%
%TO.N,Net-(J1-Pad4)*%
X127000000Y-101600000D03*
%TO.P,J1,5*%
%TO.N,Net-(J1-Pad5)*%
X129540000Y-99060000D03*
%TO.P,J1,6*%
%TO.N,Net-(J1-Pad6)*%
X129540000Y-101600000D03*
%TD*%
%TO.P,J2,6*%
%TO.N,Net-(J1-Pad6)*%
X195580000Y-101600000D03*
%TO.P,J2,5*%
%TO.N,Net-(J1-Pad5)*%
X195580000Y-99060000D03*
%TO.P,J2,4*%
%TO.N,Net-(J1-Pad4)*%
X193040000Y-101600000D03*
%TO.P,J2,3*%
%TO.N,Net-(J1-Pad3)*%
X193040000Y-99060000D03*
%TO.P,J2,2*%
%TO.N,Net-(J1-Pad2)*%
X190500000Y-101600000D03*
D11*
%TO.P,J2,1*%
%TO.N,Net-(J1-Pad1)*%
X190500000Y-99060000D03*
%TD*%
D13*
%TO.N,Net-(J1-Pad6)*%
X187960000Y-101600000D03*
%TD*%
D14*
%TO.N,Net-(J1-Pad3)*%
X191862999Y-97882999D02*
X193040000Y-99060000D01*
X128177001Y-97882999D02*
X191862999Y-97882999D01*
X127000000Y-99060000D02*
X128177001Y-97882999D01*
%TO.N,Net-(J1-Pad4)*%
X191862999Y-102777001D02*
X193040000Y-101600000D01*
X128177001Y-102777001D02*
X191862999Y-102777001D01*
X127000000Y-101600000D02*
X128177001Y-102777001D01*
%TO.N,Net-(J1-Pad5)*%
X194402999Y-100237001D02*
X195580000Y-99060000D01*
X130717001Y-100237001D02*
X194402999Y-100237001D01*
X129540000Y-99060000D02*
X130717001Y-100237001D01*
%TO.N,Net-(J1-Pad6)*%
X129540000Y-101600000D02*
X187960000Y-101600000D01*
%TD*%
D15*
X199340001Y-109340000D02*
X125975000Y-109340000D01*
X125975000Y-106160000D01*
X120660000Y-106160000D01*
X120660000Y-104890000D01*
X177139286Y-104890000D01*
X177139286Y-108710000D01*
X198780715Y-108710000D01*
X198780715Y-104890000D01*
X177139286Y-104890000D01*
X120660000Y-104890000D01*
X120660000Y-98210000D01*
X122971928Y-98210000D01*
X122971928Y-99910000D01*
X122984188Y-100034482D01*
X123020498Y-100154180D01*
X123079463Y-100264494D01*
X123158815Y-100361185D01*
X123255506Y-100440537D01*
X123365820Y-100499502D01*
X123438380Y-100521513D01*
X123306525Y-100653368D01*
X123144010Y-100896589D01*
X123032068Y-101166842D01*
X122975000Y-101453740D01*
X122975000Y-101746260D01*
X123032068Y-102033158D01*
X123144010Y-102303411D01*
X123306525Y-102546632D01*
X123513368Y-102753475D01*
X123756589Y-102915990D01*
X124026842Y-103027932D01*
X124313740Y-103085000D01*
X124606260Y-103085000D01*
X124893158Y-103027932D01*
X125163411Y-102915990D01*
X125406632Y-102753475D01*
X125613475Y-102546632D01*
X125730000Y-102372240D01*
X125846525Y-102546632D01*
X126053368Y-102753475D01*
X126296589Y-102915990D01*
X126566842Y-103027932D01*
X126853740Y-103085000D01*
X127146260Y-103085000D01*
X127364048Y-103041679D01*
X127611722Y-103289353D01*
X127635579Y-103318423D01*
X127664649Y-103342280D01*
X127751608Y-103413646D01*
X127822365Y-103451466D01*
X127883986Y-103484403D01*
X128027623Y-103527975D01*
X128139575Y-103539001D01*
X128139578Y-103539001D01*
X128177001Y-103542687D01*
X128214424Y-103539001D01*
X191825576Y-103539001D01*
X191862999Y-103542687D01*
X191900422Y-103539001D01*
X191900425Y-103539001D01*
X192012377Y-103527975D01*
X192156014Y-103484403D01*
X192288391Y-103413646D01*
X192404421Y-103318423D01*
X192428283Y-103289347D01*
X192675951Y-103041679D01*
X192893740Y-103085000D01*
X193186260Y-103085000D01*
X193473158Y-103027932D01*
X193743411Y-102915990D01*
X193986632Y-102753475D01*
X194193475Y-102546632D01*
X194310000Y-102372240D01*
X194426525Y-102546632D01*
X194633368Y-102753475D01*
X194876589Y-102915990D01*
X195146842Y-103027932D01*
X195433740Y-103085000D01*
X195726260Y-103085000D01*
X196013158Y-103027932D01*
X196283411Y-102915990D01*
X196526632Y-102753475D01*
X196733475Y-102546632D01*
X196895990Y-102303411D01*
X197007932Y-102033158D01*
X197065000Y-101746260D01*
X197065000Y-101453740D01*
X197007932Y-101166842D01*
X196895990Y-100896589D01*
X196733475Y-100653368D01*
X196526632Y-100446525D01*
X196352240Y-100330000D01*
X196526632Y-100213475D01*
X196733475Y-100006632D01*
X196895990Y-99763411D01*
X197007932Y-99493158D01*
X197065000Y-99206260D01*
X197065000Y-98913740D01*
X197007932Y-98626842D01*
X196895990Y-98356589D01*
X196733475Y-98113368D01*
X196526632Y-97906525D01*
X196283411Y-97744010D01*
X196013158Y-97632068D01*
X195726260Y-97575000D01*
X195433740Y-97575000D01*
X195146842Y-97632068D01*
X194876589Y-97744010D01*
X194633368Y-97906525D01*
X194426525Y-98113368D01*
X194310000Y-98287760D01*
X194193475Y-98113368D01*
X193986632Y-97906525D01*
X193743411Y-97744010D01*
X193473158Y-97632068D01*
X193186260Y-97575000D01*
X192893740Y-97575000D01*
X192675951Y-97618321D01*
X192428283Y-97370653D01*
X192404421Y-97341577D01*
X192288391Y-97246354D01*
X192156014Y-97175597D01*
X192012377Y-97132025D01*
X191900425Y-97120999D01*
X191900422Y-97120999D01*
X191862999Y-97117313D01*
X191825576Y-97120999D01*
X128214424Y-97120999D01*
X128177001Y-97117313D01*
X128139578Y-97120999D01*
X128139575Y-97120999D01*
X128027623Y-97132025D01*
X127883986Y-97175597D01*
X127822365Y-97208534D01*
X127751608Y-97246354D01*
X127668905Y-97314227D01*
X127635579Y-97341577D01*
X127611722Y-97370647D01*
X127364048Y-97618321D01*
X127146260Y-97575000D01*
X126853740Y-97575000D01*
X126566842Y-97632068D01*
X126296589Y-97744010D01*
X126053368Y-97906525D01*
X125921513Y-98038380D01*
X125899502Y-97965820D01*
X125840537Y-97855506D01*
X125761185Y-97758815D01*
X125664494Y-97679463D01*
X125554180Y-97620498D01*
X125434482Y-97584188D01*
X125310000Y-97571928D01*
X123610000Y-97571928D01*
X123485518Y-97584188D01*
X123365820Y-97620498D01*
X123255506Y-97679463D01*
X123158815Y-97758815D01*
X123079463Y-97855506D01*
X123020498Y-97965820D01*
X122984188Y-98085518D01*
X122971928Y-98210000D01*
X120660000Y-98210000D01*
X120660000Y-93968188D01*
X121527598Y-93968188D01*
X121527598Y-94591578D01*
X121649215Y-95202988D01*
X121887775Y-95778925D01*
X122234112Y-96297254D01*
X122674914Y-96738056D01*
X123193243Y-97084393D01*
X123769180Y-97322953D01*
X124380590Y-97444570D01*
X125003980Y-97444570D01*
X125615390Y-97322953D01*
X126191327Y-97084393D01*
X126709656Y-96738056D01*
X127150458Y-96297254D01*
X127496795Y-95778925D01*
X127735355Y-95202988D01*
X127856972Y-94591578D01*
X127856972Y-93968188D01*
X127735355Y-93356778D01*
X127496795Y-92780841D01*
X127150458Y-92262512D01*
X126709656Y-91821710D01*
X126191327Y-91475373D01*
X125615390Y-91236813D01*
X125003980Y-91115196D01*
X124380590Y-91115196D01*
X123769180Y-91236813D01*
X123193243Y-91475373D01*
X122674914Y-91821710D01*
X122234112Y-92262512D01*
X121887775Y-92780841D01*
X121649215Y-93356778D01*
X121527598Y-93968188D01*
X120660000Y-93968188D01*
X120660000Y-90660000D01*
X199340000Y-90660000D01*
X199340001Y-109340000D01*
%TA.AperFunction,NonConductor*%
D16*
G36*
X199340001Y-109340000D02*
G01*
X125975000Y-109340000D01*
X125975000Y-106160000D01*
X120660000Y-106160000D01*
X120660000Y-104890000D01*
X177139286Y-104890000D01*
X177139286Y-108710000D01*
X198780715Y-108710000D01*
X198780715Y-104890000D01*
X177139286Y-104890000D01*
X120660000Y-104890000D01*
X120660000Y-98210000D01*
X122971928Y-98210000D01*
X122971928Y-99910000D01*
X122984188Y-100034482D01*
X123020498Y-100154180D01*
X123079463Y-100264494D01*
X123158815Y-100361185D01*
X123255506Y-100440537D01*
X123365820Y-100499502D01*
X123438380Y-100521513D01*
X123306525Y-100653368D01*
X123144010Y-100896589D01*
X123032068Y-101166842D01*
X122975000Y-101453740D01*
X122975000Y-101746260D01*
X123032068Y-102033158D01*
X123144010Y-102303411D01*
X123306525Y-102546632D01*
X123513368Y-102753475D01*
X123756589Y-102915990D01*
X124026842Y-103027932D01*
X124313740Y-103085000D01*
X124606260Y-103085000D01*
X124893158Y-103027932D01*
X125163411Y-102915990D01*
X125406632Y-102753475D01*
X125613475Y-102546632D01*
X125730000Y-102372240D01*
X125846525Y-102546632D01*
X126053368Y-102753475D01*
X126296589Y-102915990D01*
X126566842Y-103027932D01*
X126853740Y-103085000D01*
X127146260Y-103085000D01*
X127364048Y-103041679D01*
X127611722Y-103289353D01*
X127635579Y-103318423D01*
X127664649Y-103342280D01*
X127751608Y-103413646D01*
X127822365Y-103451466D01*
X127883986Y-103484403D01*
X128027623Y-103527975D01*
X128139575Y-103539001D01*
X128139578Y-103539001D01*
X128177001Y-103542687D01*
X128214424Y-103539001D01*
X191825576Y-103539001D01*
X191862999Y-103542687D01*
X191900422Y-103539001D01*
X191900425Y-103539001D01*
X192012377Y-103527975D01*
X192156014Y-103484403D01*
X192288391Y-103413646D01*
X192404421Y-103318423D01*
X192428283Y-103289347D01*
X192675951Y-103041679D01*
X192893740Y-103085000D01*
X193186260Y-103085000D01*
X193473158Y-103027932D01*
X193743411Y-102915990D01*
X193986632Y-102753475D01*
X194193475Y-102546632D01*
X194310000Y-102372240D01*
X194426525Y-102546632D01*
X194633368Y-102753475D01*
X194876589Y-102915990D01*
X195146842Y-103027932D01*
X195433740Y-103085000D01*
X195726260Y-103085000D01*
X196013158Y-103027932D01*
X196283411Y-102915990D01*
X196526632Y-102753475D01*
X196733475Y-102546632D01*
X196895990Y-102303411D01*
X197007932Y-102033158D01*
X197065000Y-101746260D01*
X197065000Y-101453740D01*
X197007932Y-101166842D01*
X196895990Y-100896589D01*
X196733475Y-100653368D01*
X196526632Y-100446525D01*
X196352240Y-100330000D01*
X196526632Y-100213475D01*
X196733475Y-100006632D01*
X196895990Y-99763411D01*
X197007932Y-99493158D01*
X197065000Y-99206260D01*
X197065000Y-98913740D01*
X197007932Y-98626842D01*
X196895990Y-98356589D01*
X196733475Y-98113368D01*
X196526632Y-97906525D01*
X196283411Y-97744010D01*
X196013158Y-97632068D01*
X195726260Y-97575000D01*
X195433740Y-97575000D01*
X195146842Y-97632068D01*
X194876589Y-97744010D01*
X194633368Y-97906525D01*
X194426525Y-98113368D01*
X194310000Y-98287760D01*
X194193475Y-98113368D01*
X193986632Y-97906525D01*
X193743411Y-97744010D01*
X193473158Y-97632068D01*
X193186260Y-97575000D01*
X192893740Y-97575000D01*
X192675951Y-97618321D01*
X192428283Y-97370653D01*
X192404421Y-97341577D01*
X192288391Y-97246354D01*
X192156014Y-97175597D01*
X192012377Y-97132025D01*
X191900425Y-97120999D01*
X191900422Y-97120999D01*
X191862999Y-97117313D01*
X191825576Y-97120999D01*
X128214424Y-97120999D01*
X128177001Y-97117313D01*
X128139578Y-97120999D01*
X128139575Y-97120999D01*
X128027623Y-97132025D01*
X127883986Y-97175597D01*
X127822365Y-97208534D01*
X127751608Y-97246354D01*
X127668905Y-97314227D01*
X127635579Y-97341577D01*
X127611722Y-97370647D01*
X127364048Y-97618321D01*
X127146260Y-97575000D01*
X126853740Y-97575000D01*
X126566842Y-97632068D01*
X126296589Y-97744010D01*
X126053368Y-97906525D01*
X125921513Y-98038380D01*
X125899502Y-97965820D01*
X125840537Y-97855506D01*
X125761185Y-97758815D01*
X125664494Y-97679463D01*
X125554180Y-97620498D01*
X125434482Y-97584188D01*
X125310000Y-97571928D01*
X123610000Y-97571928D01*
X123485518Y-97584188D01*
X123365820Y-97620498D01*
X123255506Y-97679463D01*
X123158815Y-97758815D01*
X123079463Y-97855506D01*
X123020498Y-97965820D01*
X122984188Y-98085518D01*
X122971928Y-98210000D01*
X120660000Y-98210000D01*
X120660000Y-93968188D01*
X121527598Y-93968188D01*
X121527598Y-94591578D01*
X121649215Y-95202988D01*
X121887775Y-95778925D01*
X122234112Y-96297254D01*
X122674914Y-96738056D01*
X123193243Y-97084393D01*
X123769180Y-97322953D01*
X124380590Y-97444570D01*
X125003980Y-97444570D01*
X125615390Y-97322953D01*
X126191327Y-97084393D01*
X126709656Y-96738056D01*
X127150458Y-96297254D01*
X127496795Y-95778925D01*
X127735355Y-95202988D01*
X127856972Y-94591578D01*
X127856972Y-93968188D01*
X127735355Y-93356778D01*
X127496795Y-92780841D01*
X127150458Y-92262512D01*
X126709656Y-91821710D01*
X126191327Y-91475373D01*
X125615390Y-91236813D01*
X125003980Y-91115196D01*
X124380590Y-91115196D01*
X123769180Y-91236813D01*
X123193243Y-91475373D01*
X122674914Y-91821710D01*
X122234112Y-92262512D01*
X121887775Y-92780841D01*
X121649215Y-93356778D01*
X121527598Y-93968188D01*
X120660000Y-93968188D01*
X120660000Y-90660000D01*
X199340000Y-90660000D01*
X199340001Y-109340000D01*
G37*
%TD.AperFunction*%
D15*
X189072068Y-101166842D02*
X189015000Y-101453740D01*
X189015000Y-101746260D01*
X189068456Y-102015001D01*
X188908377Y-102015001D01*
X188955226Y-101901898D01*
X188995000Y-101701939D01*
X188995000Y-101498061D01*
X188955226Y-101298102D01*
X188877205Y-101109744D01*
X188803209Y-100999001D01*
X189141590Y-100999001D01*
X189072068Y-101166842D01*
%TA.AperFunction,NonConductor*%
D16*
G36*
X189072068Y-101166842D02*
G01*
X189015000Y-101453740D01*
X189015000Y-101746260D01*
X189068456Y-102015001D01*
X188908377Y-102015001D01*
X188955226Y-101901898D01*
X188995000Y-101701939D01*
X188995000Y-101498061D01*
X188955226Y-101298102D01*
X188877205Y-101109744D01*
X188803209Y-100999001D01*
X189141590Y-100999001D01*
X189072068Y-101166842D01*
G37*
%TD.AperFunction*%
D15*
X126053368Y-100213475D02*
X126227760Y-100330000D01*
X126053368Y-100446525D01*
X125846525Y-100653368D01*
X125730000Y-100827760D01*
X125613475Y-100653368D01*
X125481620Y-100521513D01*
X125554180Y-100499502D01*
X125664494Y-100440537D01*
X125761185Y-100361185D01*
X125840537Y-100264494D01*
X125899502Y-100154180D01*
X125921513Y-100081620D01*
X126053368Y-100213475D01*
%TA.AperFunction,NonConductor*%
D16*
G36*
X126053368Y-100213475D02*
G01*
X126227760Y-100330000D01*
X126053368Y-100446525D01*
X125846525Y-100653368D01*
X125730000Y-100827760D01*
X125613475Y-100653368D01*
X125481620Y-100521513D01*
X125554180Y-100499502D01*
X125664494Y-100440537D01*
X125761185Y-100361185D01*
X125840537Y-100264494D01*
X125899502Y-100154180D01*
X125921513Y-100081620D01*
X126053368Y-100213475D01*
G37*
%TD.AperFunction*%
D15*
X128386525Y-100006632D02*
X128593368Y-100213475D01*
X128767760Y-100330000D01*
X128593368Y-100446525D01*
X128386525Y-100653368D01*
X128270000Y-100827760D01*
X128153475Y-100653368D01*
X127946632Y-100446525D01*
X127772240Y-100330000D01*
X127946632Y-100213475D01*
X128153475Y-100006632D01*
X128270000Y-99832240D01*
X128386525Y-100006632D01*
%TA.AperFunction,NonConductor*%
D16*
G36*
X128386525Y-100006632D02*
G01*
X128593368Y-100213475D01*
X128767760Y-100330000D01*
X128593368Y-100446525D01*
X128386525Y-100653368D01*
X128270000Y-100827760D01*
X128153475Y-100653368D01*
X127946632Y-100446525D01*
X127772240Y-100330000D01*
X127946632Y-100213475D01*
X128153475Y-100006632D01*
X128270000Y-99832240D01*
X128386525Y-100006632D01*
G37*
%TD.AperFunction*%
D15*
X189011928Y-99475001D02*
X131032632Y-99475001D01*
X130981679Y-99424048D01*
X131025000Y-99206260D01*
X131025000Y-98913740D01*
X130971544Y-98644999D01*
X189011928Y-98644999D01*
X189011928Y-99475001D01*
%TA.AperFunction,NonConductor*%
D16*
G36*
X189011928Y-99475001D02*
G01*
X131032632Y-99475001D01*
X130981679Y-99424048D01*
X131025000Y-99206260D01*
X131025000Y-98913740D01*
X130971544Y-98644999D01*
X189011928Y-98644999D01*
X189011928Y-99475001D01*
G37*
%TD.AperFunction*%
M02*
