M48
; DRILL file {KiCad (6.0.4-0)} date Wednesday, May 11, 2022 at 04:28:25 PM
; FORMAT={-:-/ absolute / inch / decimal}
; #@! TF.CreationDate,2022-05-11T16:28:25-04:00
; #@! TF.GenerationSoftware,Kicad,Pcbnew,(6.0.4-0)
; #@! TF.FileFunction,Plated,1,2,PTH
FMAT,2
INCH
; #@! TA.AperFunction,Plated,PTH,ComponentDrill
T1C0.0394
%
G90
G05
T1
X4.8675Y-3.9406
X4.8675Y-4.0406
X4.8679Y-4.184
X4.8679Y-4.284
X4.8679Y-4.384
X4.9675Y-3.9406
X4.9675Y-4.0406
X4.9679Y-4.184
X4.9679Y-4.284
X4.9679Y-4.384
X5.0675Y-3.9406
X5.0675Y-4.0406
X7.9272Y-3.9414
X7.9272Y-4.0414
X8.0254Y-4.184
X8.0254Y-4.284
X8.0254Y-4.384
X8.0272Y-3.9414
X8.0272Y-4.0414
X8.1254Y-4.184
X8.1254Y-4.284
X8.1254Y-4.384
X8.1272Y-3.9414
X8.1272Y-4.0414
T0
M30
