%TF.GenerationSoftware,KiCad,Pcbnew,(6.0.4-0)*%
%TF.CreationDate,2022-05-06T19:30:14-04:00*%
%TF.ProjectId,Remove_Before_Flight,52656d6f-7665-45f4-9265-666f72655f46,v02*%
%TF.SameCoordinates,Original*%
%TF.FileFunction,Copper,L2,Bot*%
%TF.FilePolarity,Positive*%
%FSLAX46Y46*%
G04 Gerber Fmt 4.6, Leading zero omitted, Abs format (unit mm)*
G04 Created by KiCad (PCBNEW (6.0.4-0)) date 2022-05-06 19:30:14*
%MOMM*%
%LPD*%
G01*
G04 APERTURE LIST*
%ADD10C,0.200000*%
%TA.AperFunction,NonConductor*%
%ADD11C,0.200000*%
%TD*%
%ADD12C,0.300000*%
%TA.AperFunction,NonConductor*%
%ADD13C,0.300000*%
%TD*%
%TA.AperFunction,ComponentPad*%
%ADD14R,1.700000X1.700000*%
%TD*%
%TA.AperFunction,ComponentPad*%
%ADD15O,1.700000X1.700000*%
%TD*%
%TA.AperFunction,Conductor*%
%ADD16C,0.254000*%
%TD*%
%TA.AperFunction,Conductor*%
%ADD17C,0.250000*%
%TD*%
G04 APERTURE END LIST*
D10*
D11*
X150296582Y-113142704D02*
X149939439Y-114142704D01*
X149582297Y-113142704D01*
X148725154Y-112642704D02*
X148582297Y-112642704D01*
X148439439Y-112714133D01*
X148368011Y-112785561D01*
X148296582Y-112928418D01*
X148225154Y-113214133D01*
X148225154Y-113571275D01*
X148296582Y-113856990D01*
X148368011Y-113999847D01*
X148439439Y-114071275D01*
X148582297Y-114142704D01*
X148725154Y-114142704D01*
X148868011Y-114071275D01*
X148939439Y-113999847D01*
X149010868Y-113856990D01*
X149082297Y-113571275D01*
X149082297Y-113214133D01*
X149010868Y-112928418D01*
X148939439Y-112785561D01*
X148868011Y-112714133D01*
X148725154Y-112642704D01*
X147653725Y-112785561D02*
X147582297Y-112714133D01*
X147439439Y-112642704D01*
X147082297Y-112642704D01*
X146939439Y-112714133D01*
X146868011Y-112785561D01*
X146796582Y-112928418D01*
X146796582Y-113071275D01*
X146868011Y-113285561D01*
X147725154Y-114142704D01*
X146796582Y-114142704D01*
X144082297Y-113428418D02*
X144153725Y-113356990D01*
X144296582Y-113285561D01*
X144439439Y-113285561D01*
X144582297Y-113356990D01*
X144653725Y-113428418D01*
X144725154Y-113571275D01*
X144725154Y-113714133D01*
X144653725Y-113856990D01*
X144582297Y-113928418D01*
X144439439Y-113999847D01*
X144296582Y-113999847D01*
X144153725Y-113928418D01*
X144082297Y-113856990D01*
X144082297Y-113285561D02*
X144082297Y-113856990D01*
X144010868Y-113928418D01*
X143939439Y-113928418D01*
X143796582Y-113856990D01*
X143725154Y-113714133D01*
X143725154Y-113356990D01*
X143868011Y-113142704D01*
X144082297Y-112999847D01*
X144368011Y-112928418D01*
X144653725Y-112999847D01*
X144868011Y-113142704D01*
X145010868Y-113356990D01*
X145082297Y-113642704D01*
X145010868Y-113928418D01*
X144868011Y-114142704D01*
X144653725Y-114285561D01*
X144368011Y-114356990D01*
X144082297Y-114285561D01*
X143868011Y-114142704D01*
X142439439Y-114071275D02*
X142582297Y-114142704D01*
X142868011Y-114142704D01*
X143010868Y-114071275D01*
X143082297Y-113999847D01*
X143153725Y-113856990D01*
X143153725Y-113428418D01*
X143082297Y-113285561D01*
X143010868Y-113214133D01*
X142868011Y-113142704D01*
X142582297Y-113142704D01*
X142439439Y-113214133D01*
X141939439Y-113142704D02*
X141582297Y-114142704D01*
X141225154Y-113142704D02*
X141582297Y-114142704D01*
X141725154Y-114499847D01*
X141796582Y-114571275D01*
X141939439Y-114642704D01*
X140653725Y-114142704D02*
X140653725Y-112642704D01*
X140653725Y-113214133D02*
X140510868Y-113142704D01*
X140225154Y-113142704D01*
X140082297Y-113214133D01*
X140010868Y-113285561D01*
X139939439Y-113428418D01*
X139939439Y-113856990D01*
X140010868Y-113999847D01*
X140082297Y-114071275D01*
X140225154Y-114142704D01*
X140510868Y-114142704D01*
X140653725Y-114071275D01*
X138725154Y-114071275D02*
X138868011Y-114142704D01*
X139153725Y-114142704D01*
X139296582Y-114071275D01*
X139368011Y-113928418D01*
X139368011Y-113356990D01*
X139296582Y-113214133D01*
X139153725Y-113142704D01*
X138868011Y-113142704D01*
X138725154Y-113214133D01*
X138653725Y-113356990D01*
X138653725Y-113499847D01*
X139368011Y-113642704D01*
X138010868Y-114142704D02*
X138010868Y-113142704D01*
X138010868Y-113428418D02*
X137939439Y-113285561D01*
X137868011Y-113214133D01*
X137725154Y-113142704D01*
X137582297Y-113142704D01*
X137296582Y-113142704D02*
X136725154Y-113142704D01*
X137082297Y-112642704D02*
X137082297Y-113928418D01*
X137010868Y-114071275D01*
X136868011Y-114142704D01*
X136725154Y-114142704D01*
X135653725Y-114071275D02*
X135796582Y-114142704D01*
X136082297Y-114142704D01*
X136225154Y-114071275D01*
X136296582Y-113928418D01*
X136296582Y-113356990D01*
X136225154Y-113214133D01*
X136082297Y-113142704D01*
X135796582Y-113142704D01*
X135653725Y-113214133D01*
X135582297Y-113356990D01*
X135582297Y-113499847D01*
X136296582Y-113642704D01*
X135010868Y-114071275D02*
X134868011Y-114142704D01*
X134582297Y-114142704D01*
X134439439Y-114071275D01*
X134368011Y-113928418D01*
X134368011Y-113856990D01*
X134439439Y-113714133D01*
X134582297Y-113642704D01*
X134796582Y-113642704D01*
X134939439Y-113571275D01*
X135010868Y-113428418D01*
X135010868Y-113356990D01*
X134939439Y-113214133D01*
X134796582Y-113142704D01*
X134582297Y-113142704D01*
X134439439Y-113214133D01*
X133939439Y-113142704D02*
X133368011Y-113142704D01*
X133725154Y-112642704D02*
X133725154Y-113928418D01*
X133653725Y-114071275D01*
X133510868Y-114142704D01*
X133368011Y-114142704D01*
X132868011Y-113142704D02*
X132868011Y-114642704D01*
X132868011Y-113214133D02*
X132725154Y-113142704D01*
X132439439Y-113142704D01*
X132296582Y-113214133D01*
X132225154Y-113285561D01*
X132153725Y-113428418D01*
X132153725Y-113856990D01*
X132225154Y-113999847D01*
X132296582Y-114071275D01*
X132439439Y-114142704D01*
X132725154Y-114142704D01*
X132868011Y-114071275D01*
X131510868Y-114142704D02*
X131510868Y-113142704D01*
X131510868Y-112642704D02*
X131582297Y-112714133D01*
X131510868Y-112785561D01*
X131439439Y-112714133D01*
X131510868Y-112642704D01*
X131510868Y-112785561D01*
X130582297Y-114142704D02*
X130725154Y-114071275D01*
X130796582Y-113928418D01*
X130796582Y-112642704D01*
X129796582Y-114142704D02*
X129939439Y-114071275D01*
X130010868Y-113999847D01*
X130082297Y-113856990D01*
X130082297Y-113428418D01*
X130010868Y-113285561D01*
X129939439Y-113214133D01*
X129796582Y-113142704D01*
X129582297Y-113142704D01*
X129439439Y-113214133D01*
X129368011Y-113285561D01*
X129296582Y-113428418D01*
X129296582Y-113856990D01*
X129368011Y-113999847D01*
X129439439Y-114071275D01*
X129582297Y-114142704D01*
X129796582Y-114142704D01*
X128868011Y-113142704D02*
X128296582Y-113142704D01*
X128653725Y-112642704D02*
X128653725Y-113928418D01*
X128582297Y-114071275D01*
X128439439Y-114142704D01*
X128296582Y-114142704D01*
D12*
D13*
X208546978Y-92259526D02*
X207832692Y-92259526D01*
X208689835Y-92688097D02*
X208189835Y-91188097D01*
X207689835Y-92688097D01*
X206618406Y-92616668D02*
X206761263Y-92688097D01*
X207046978Y-92688097D01*
X207189835Y-92616668D01*
X207261263Y-92473811D01*
X207261263Y-91902383D01*
X207189835Y-91759526D01*
X207046978Y-91688097D01*
X206761263Y-91688097D01*
X206618406Y-91759526D01*
X206546978Y-91902383D01*
X206546978Y-92045240D01*
X207261263Y-92188097D01*
X205904120Y-92688097D02*
X205904120Y-91688097D01*
X205904120Y-91973811D02*
X205832692Y-91830954D01*
X205761263Y-91759526D01*
X205618406Y-91688097D01*
X205475549Y-91688097D01*
X204761263Y-92688097D02*
X204904120Y-92616668D01*
X204975549Y-92545240D01*
X205046977Y-92402383D01*
X205046977Y-91973811D01*
X204975549Y-91830954D01*
X204904120Y-91759526D01*
X204761263Y-91688097D01*
X204546977Y-91688097D01*
X204404120Y-91759526D01*
X204332692Y-91830954D01*
X204261263Y-91973811D01*
X204261263Y-92402383D01*
X204332692Y-92545240D01*
X204404120Y-92616668D01*
X204546977Y-92688097D01*
X204761263Y-92688097D01*
X203689835Y-92616668D02*
X203546977Y-92688097D01*
X203261263Y-92688097D01*
X203118406Y-92616668D01*
X203046977Y-92473811D01*
X203046977Y-92402383D01*
X203118406Y-92259526D01*
X203261263Y-92188097D01*
X203475549Y-92188097D01*
X203618406Y-92116668D01*
X203689835Y-91973811D01*
X203689835Y-91902383D01*
X203618406Y-91759526D01*
X203475549Y-91688097D01*
X203261263Y-91688097D01*
X203118406Y-91759526D01*
X202404120Y-91688097D02*
X202404120Y-93188097D01*
X202404120Y-91759526D02*
X202261263Y-91688097D01*
X201975549Y-91688097D01*
X201832692Y-91759526D01*
X201761263Y-91830954D01*
X201689835Y-91973811D01*
X201689835Y-92402383D01*
X201761263Y-92545240D01*
X201832692Y-92616668D01*
X201975549Y-92688097D01*
X202261263Y-92688097D01*
X202404120Y-92616668D01*
X200404120Y-92688097D02*
X200404120Y-91902383D01*
X200475549Y-91759526D01*
X200618406Y-91688097D01*
X200904120Y-91688097D01*
X201046978Y-91759526D01*
X200404120Y-92616668D02*
X200546978Y-92688097D01*
X200904120Y-92688097D01*
X201046978Y-92616668D01*
X201118406Y-92473811D01*
X201118406Y-92330954D01*
X201046978Y-92188097D01*
X200904120Y-92116668D01*
X200546978Y-92116668D01*
X200404120Y-92045240D01*
X199046978Y-92616668D02*
X199189835Y-92688097D01*
X199475549Y-92688097D01*
X199618406Y-92616668D01*
X199689835Y-92545240D01*
X199761263Y-92402383D01*
X199761263Y-91973811D01*
X199689835Y-91830954D01*
X199618406Y-91759526D01*
X199475549Y-91688097D01*
X199189835Y-91688097D01*
X199046978Y-91759526D01*
X197832692Y-92616668D02*
X197975549Y-92688097D01*
X198261263Y-92688097D01*
X198404120Y-92616668D01*
X198475549Y-92473811D01*
X198475549Y-91902383D01*
X198404120Y-91759526D01*
X198261263Y-91688097D01*
X197975549Y-91688097D01*
X197832692Y-91759526D01*
X197761263Y-91902383D01*
X197761263Y-92045240D01*
X198475549Y-92188097D01*
X196189835Y-91188097D02*
X195689835Y-92688097D01*
X195189835Y-91188097D01*
X194689835Y-92688097D02*
X194689835Y-91688097D01*
X194689835Y-91188097D02*
X194761263Y-91259526D01*
X194689835Y-91330954D01*
X194618406Y-91259526D01*
X194689835Y-91188097D01*
X194689835Y-91330954D01*
X193761263Y-92688097D02*
X193904120Y-92616668D01*
X193975549Y-92473811D01*
X193975549Y-91188097D01*
X192975549Y-92688097D02*
X193118406Y-92616668D01*
X193189835Y-92473811D01*
X193189835Y-91188097D01*
X191761263Y-92688097D02*
X191761263Y-91902383D01*
X191832692Y-91759526D01*
X191975549Y-91688097D01*
X192261263Y-91688097D01*
X192404120Y-91759526D01*
X191761263Y-92616668D02*
X191904120Y-92688097D01*
X192261263Y-92688097D01*
X192404120Y-92616668D01*
X192475549Y-92473811D01*
X192475549Y-92330954D01*
X192404120Y-92188097D01*
X192261263Y-92116668D01*
X191904120Y-92116668D01*
X191761263Y-92045240D01*
X190404120Y-91688097D02*
X190404120Y-92902383D01*
X190475549Y-93045240D01*
X190546978Y-93116668D01*
X190689835Y-93188097D01*
X190904120Y-93188097D01*
X191046978Y-93116668D01*
X190404120Y-92616668D02*
X190546978Y-92688097D01*
X190832692Y-92688097D01*
X190975549Y-92616668D01*
X191046978Y-92545240D01*
X191118406Y-92402383D01*
X191118406Y-91973811D01*
X191046978Y-91830954D01*
X190975549Y-91759526D01*
X190832692Y-91688097D01*
X190546978Y-91688097D01*
X190404120Y-91759526D01*
X189118406Y-92616668D02*
X189261263Y-92688097D01*
X189546978Y-92688097D01*
X189689835Y-92616668D01*
X189761263Y-92473811D01*
X189761263Y-91902383D01*
X189689835Y-91759526D01*
X189546978Y-91688097D01*
X189261263Y-91688097D01*
X189118406Y-91759526D01*
X189046978Y-91902383D01*
X189046978Y-92045240D01*
X189761263Y-92188097D01*
D14*
%TO.P,J1,1,Pin_1*%
%TO.N,Net-(J1-Pad1)*%
X123634464Y-100091262D03*
D15*
%TO.P,J1,2,Pin_2*%
%TO.N,Net-(J1-Pad2)*%
X123634464Y-102631262D03*
%TO.P,J1,3,Pin_3*%
%TO.N,Net-(J1-Pad3)*%
X126174464Y-100091262D03*
%TO.P,J1,4,Pin_4*%
%TO.N,Net-(J1-Pad4)*%
X126174464Y-102631262D03*
%TO.P,J1,5,Pin_5*%
%TO.N,Net-(J1-Pad5)*%
X128714464Y-100091262D03*
%TO.P,J1,6,Pin_6*%
%TO.N,Net-(J1-Pad6)*%
X128714464Y-102631262D03*
%TD*%
D14*
%TO.P,J2,1,Pin_1*%
%TO.N,Net-(J1-Pad1)*%
X201350034Y-100111761D03*
D15*
%TO.P,J2,2,Pin_2*%
%TO.N,Net-(J1-Pad2)*%
X201350034Y-102651761D03*
%TO.P,J2,3,Pin_3*%
%TO.N,Net-(J1-Pad3)*%
X203890034Y-100111761D03*
%TO.P,J2,4,Pin_4*%
%TO.N,Net-(J1-Pad4)*%
X203890034Y-102651761D03*
%TO.P,J2,5,Pin_5*%
%TO.N,Net-(J1-Pad5)*%
X206430034Y-100111761D03*
%TO.P,J2,6,Pin_6*%
%TO.N,Net-(J1-Pad6)*%
X206430034Y-102651761D03*
%TD*%
D14*
%TO.P,J3,1,Pin_1*%
%TO.N,Net-(J1-Pad1)*%
X123645626Y-111353970D03*
D15*
%TO.P,J3,2,Pin_2*%
%TO.N,Net-(J1-Pad2)*%
X126185626Y-111353970D03*
%TO.P,J3,3,Pin_3*%
%TO.N,Net-(J1-Pad3)*%
X123645626Y-108813970D03*
%TO.P,J3,4,Pin_4*%
%TO.N,Net-(J1-Pad4)*%
X126185626Y-108813970D03*
%TO.P,J3,5,Pin_5*%
%TO.N,Net-(J1-Pad5)*%
X123645626Y-106273970D03*
%TO.P,J3,6,Pin_6*%
%TO.N,Net-(J1-Pad6)*%
X126185626Y-106273970D03*
%TD*%
D14*
%TO.P,J4,1,Pin_1*%
%TO.N,Net-(J1-Pad1)*%
X203844843Y-111353879D03*
D15*
%TO.P,J4,2,Pin_2*%
%TO.N,Net-(J1-Pad2)*%
X206384843Y-111353879D03*
%TO.P,J4,3,Pin_3*%
%TO.N,Net-(J1-Pad3)*%
X203844843Y-108813879D03*
%TO.P,J4,4,Pin_4*%
%TO.N,Net-(J1-Pad4)*%
X206384843Y-108813879D03*
%TO.P,J4,5,Pin_5*%
%TO.N,Net-(J1-Pad5)*%
X203844843Y-106273879D03*
%TO.P,J4,6,Pin_6*%
%TO.N,Net-(J1-Pad6)*%
X206384843Y-106273879D03*
%TD*%
D16*
%TO.N,Net-(J1-Pad3)*%
X200829995Y-110948630D02*
X200682006Y-111096620D01*
D17*
X126672125Y-109988481D02*
X127992124Y-111308480D01*
D16*
X201789112Y-109989514D02*
X200829995Y-110948630D01*
D17*
X124820137Y-109988481D02*
X126672125Y-109988481D01*
X123645626Y-108813970D02*
X124820137Y-109988481D01*
X127992124Y-111308480D02*
X200470145Y-111308480D01*
X200470145Y-111308480D02*
X200829995Y-110948630D01*
D16*
X203844843Y-108813879D02*
X203606121Y-108813879D01*
X203606121Y-108813879D02*
X203200000Y-109220000D01*
X203200000Y-109220000D02*
X202558626Y-109220000D01*
X202558626Y-109220000D02*
X201789112Y-109989514D01*
%TO.N,Net-(J1-Pad2)*%
X205208332Y-110177368D02*
X202242632Y-110177368D01*
X126591656Y-111760000D02*
X126185626Y-111353970D01*
X202242632Y-110177368D02*
X200660000Y-111760000D01*
X200660000Y-111760000D02*
X126591656Y-111760000D01*
D17*
%TO.N,Net-(J1-Pad6)*%
X128714464Y-102631262D02*
X126185626Y-105160100D01*
X126185626Y-105160100D02*
X126185626Y-106273970D01*
%TO.N,Net-(J1-Pad3)*%
X123645626Y-108813970D02*
X122471115Y-107639459D01*
X122471115Y-107639459D02*
X122471115Y-105787471D01*
X122471115Y-105787471D02*
X124808975Y-103449611D01*
X124808975Y-103449611D02*
X124808975Y-101456751D01*
D16*
X124808975Y-101456751D02*
X126174464Y-100091262D01*
D17*
%TO.N,Net-(J1-Pad5)*%
X123645626Y-106273970D02*
X124192766Y-106273970D01*
X124192766Y-106273970D02*
X127348975Y-103117761D01*
D16*
X127348975Y-103117761D02*
X127348975Y-101456751D01*
X127348975Y-101456751D02*
X128714464Y-100091262D01*
%TO.N,Net-(J1-Pad2)*%
X204332171Y-107450390D02*
X205208332Y-108326551D01*
X201350034Y-102651761D02*
X201350034Y-105442909D01*
X201350034Y-105442909D02*
X203357515Y-107450390D01*
X205208332Y-108326551D02*
X205208332Y-110177368D01*
X203357515Y-107450390D02*
X204332171Y-107450390D01*
X205208332Y-110177368D02*
X206384843Y-111353879D01*
%TO.N,Net-(J1-Pad4)*%
X205021354Y-107450390D02*
X206384843Y-108813879D01*
X203890034Y-102651761D02*
X205021354Y-103783081D01*
X205021354Y-103783081D02*
X205021354Y-107450390D01*
%TD*%
%TA.AperFunction,NonConductor*%
G36*
X202873184Y-101024887D02*
G01*
X202907851Y-101052875D01*
X202936284Y-101085699D01*
X203108160Y-101228393D01*
X203162542Y-101260171D01*
X203181479Y-101271237D01*
X203230203Y-101322875D01*
X203243274Y-101392658D01*
X203216543Y-101458430D01*
X203176089Y-101491788D01*
X203168267Y-101495860D01*
X203163641Y-101498268D01*
X203159508Y-101501371D01*
X203159505Y-101501373D01*
X203035601Y-101594403D01*
X202984999Y-101632396D01*
X202830663Y-101793899D01*
X202723235Y-101951382D01*
X202668327Y-101996382D01*
X202597802Y-102004553D01*
X202534055Y-101973299D01*
X202513358Y-101948815D01*
X202432856Y-101824378D01*
X202432854Y-101824375D01*
X202430048Y-101820038D01*
X202426566Y-101816211D01*
X202282832Y-101658249D01*
X202251780Y-101594403D01*
X202260175Y-101523904D01*
X202305351Y-101469136D01*
X202331795Y-101455467D01*
X202438331Y-101415528D01*
X202446739Y-101412376D01*
X202563295Y-101325022D01*
X202650649Y-101208466D01*
X202680518Y-101128791D01*
X202694632Y-101091143D01*
X202737274Y-101034379D01*
X202803836Y-101009679D01*
X202873184Y-101024887D01*
G37*
%TD.AperFunction*%
%TA.AperFunction,NonConductor*%
G36*
X205242060Y-100786905D02*
G01*
X205269909Y-100818755D01*
X205330021Y-100916849D01*
X205476284Y-101085699D01*
X205648160Y-101228393D01*
X205702542Y-101260171D01*
X205721479Y-101271237D01*
X205770203Y-101322875D01*
X205783274Y-101392658D01*
X205756543Y-101458430D01*
X205716089Y-101491788D01*
X205708267Y-101495860D01*
X205703641Y-101498268D01*
X205699508Y-101501371D01*
X205699505Y-101501373D01*
X205575601Y-101594403D01*
X205524999Y-101632396D01*
X205370663Y-101793899D01*
X205263235Y-101951382D01*
X205208327Y-101996382D01*
X205137802Y-102004553D01*
X205074055Y-101973299D01*
X205053358Y-101948815D01*
X204972856Y-101824378D01*
X204972854Y-101824375D01*
X204970048Y-101820038D01*
X204819704Y-101654812D01*
X204815653Y-101651613D01*
X204815649Y-101651609D01*
X204648448Y-101519561D01*
X204648444Y-101519559D01*
X204644393Y-101516359D01*
X204603087Y-101493557D01*
X204553118Y-101443125D01*
X204538346Y-101373682D01*
X204563462Y-101307277D01*
X204590814Y-101280670D01*
X204634637Y-101249411D01*
X204769894Y-101152934D01*
X204928130Y-100995250D01*
X205058487Y-100813838D01*
X205059810Y-100814789D01*
X205106679Y-100771618D01*
X205176614Y-100759386D01*
X205242060Y-100786905D01*
G37*
%TD.AperFunction*%
%TA.AperFunction,NonConductor*%
G36*
X125482437Y-103800396D02*
G01*
X125523206Y-103824220D01*
X125571929Y-103875859D01*
X125584999Y-103945642D01*
X125558267Y-104011413D01*
X125548729Y-104022102D01*
X124487799Y-105083032D01*
X124425487Y-105117058D01*
X124354672Y-105111993D01*
X124337811Y-105104246D01*
X124299177Y-105082919D01*
X124249206Y-105032486D01*
X124234434Y-104963043D01*
X124259550Y-104896638D01*
X124270975Y-104883515D01*
X125201222Y-103953268D01*
X125209512Y-103945724D01*
X125215993Y-103941611D01*
X125262634Y-103891943D01*
X125265388Y-103889102D01*
X125285109Y-103869381D01*
X125287587Y-103866186D01*
X125295293Y-103857164D01*
X125325561Y-103824932D01*
X125327630Y-103826875D01*
X125373131Y-103791776D01*
X125443866Y-103785688D01*
X125482437Y-103800396D01*
G37*
%TD.AperFunction*%
%TA.AperFunction,NonConductor*%
G36*
X202702060Y-103326905D02*
G01*
X202729909Y-103358755D01*
X202790021Y-103456849D01*
X202936284Y-103625699D01*
X203108160Y-103768393D01*
X203301034Y-103881099D01*
X203305859Y-103882941D01*
X203305860Y-103882942D01*
X203329434Y-103891944D01*
X203509726Y-103960791D01*
X203514794Y-103961822D01*
X203514797Y-103961823D01*
X203622042Y-103983642D01*
X203728631Y-104005328D01*
X203733806Y-104005518D01*
X203733808Y-104005518D01*
X203946707Y-104013325D01*
X203946711Y-104013325D01*
X203951871Y-104013514D01*
X203956991Y-104012858D01*
X203956993Y-104012858D01*
X204030448Y-104003448D01*
X204173450Y-103985129D01*
X204178403Y-103983643D01*
X204178408Y-103983642D01*
X204208051Y-103974748D01*
X204217685Y-103971858D01*
X204288680Y-103971440D01*
X204342988Y-104003448D01*
X204348949Y-104009409D01*
X204382975Y-104071721D01*
X204385854Y-104098504D01*
X204385854Y-104845936D01*
X204365852Y-104914057D01*
X204312196Y-104960550D01*
X204241922Y-104970654D01*
X204217799Y-104964710D01*
X204193055Y-104955948D01*
X204187966Y-104955041D01*
X204187964Y-104955041D01*
X203978216Y-104917679D01*
X203978210Y-104917678D01*
X203973127Y-104916773D01*
X203899295Y-104915871D01*
X203754924Y-104914107D01*
X203754922Y-104914107D01*
X203749754Y-104914044D01*
X203528934Y-104947834D01*
X203316599Y-105017236D01*
X203290912Y-105030608D01*
X203149455Y-105104246D01*
X203118450Y-105120386D01*
X203114317Y-105123489D01*
X203114314Y-105123491D01*
X202990330Y-105216581D01*
X202939808Y-105254514D01*
X202785472Y-105416017D01*
X202782558Y-105420289D01*
X202782557Y-105420290D01*
X202739853Y-105482892D01*
X202659586Y-105600559D01*
X202657409Y-105605249D01*
X202657405Y-105605256D01*
X202655231Y-105609941D01*
X202608409Y-105663309D01*
X202540166Y-105682892D01*
X202472170Y-105662471D01*
X202451847Y-105645989D01*
X202022439Y-105216581D01*
X201988413Y-105154269D01*
X201985534Y-105127486D01*
X201985534Y-103930996D01*
X202005536Y-103862875D01*
X202046205Y-103823550D01*
X202048028Y-103822657D01*
X202229894Y-103692934D01*
X202388130Y-103535250D01*
X202447628Y-103452450D01*
X202518487Y-103353838D01*
X202519810Y-103354789D01*
X202566679Y-103311618D01*
X202636614Y-103299386D01*
X202702060Y-103326905D01*
G37*
%TD.AperFunction*%
%TA.AperFunction,NonConductor*%
G36*
X124997652Y-106949114D02*
G01*
X125025501Y-106980964D01*
X125085613Y-107079058D01*
X125231876Y-107247908D01*
X125403752Y-107390602D01*
X125474221Y-107431781D01*
X125477071Y-107433446D01*
X125525795Y-107485084D01*
X125538866Y-107554867D01*
X125512135Y-107620639D01*
X125471681Y-107653997D01*
X125459233Y-107660477D01*
X125455100Y-107663580D01*
X125455097Y-107663582D01*
X125302495Y-107778159D01*
X125280591Y-107794605D01*
X125227515Y-107850146D01*
X125133757Y-107948258D01*
X125126255Y-107956108D01*
X125018827Y-108113591D01*
X124963919Y-108158591D01*
X124893394Y-108166762D01*
X124829647Y-108135508D01*
X124808950Y-108111024D01*
X124728448Y-107986587D01*
X124728446Y-107986584D01*
X124725640Y-107982247D01*
X124575296Y-107817021D01*
X124571245Y-107813822D01*
X124571241Y-107813818D01*
X124404040Y-107681770D01*
X124404036Y-107681768D01*
X124399985Y-107678568D01*
X124358679Y-107655766D01*
X124308710Y-107605334D01*
X124293938Y-107535891D01*
X124319054Y-107469486D01*
X124346406Y-107442879D01*
X124390229Y-107411620D01*
X124525486Y-107315143D01*
X124683722Y-107157459D01*
X124814079Y-106976047D01*
X124815402Y-106976998D01*
X124862271Y-106933827D01*
X124932206Y-106921595D01*
X124997652Y-106949114D01*
G37*
%TD.AperFunction*%
%TA.AperFunction,NonConductor*%
G36*
X188044885Y-90528502D02*
G01*
X188091378Y-90582158D01*
X188102764Y-90634500D01*
X188102764Y-93950526D01*
X209365500Y-93950526D01*
X209433621Y-93970528D01*
X209480114Y-94024184D01*
X209491500Y-94076526D01*
X209491500Y-114365500D01*
X209471498Y-114433621D01*
X209417842Y-114480114D01*
X209365500Y-114491500D01*
X151245369Y-114491500D01*
X151177248Y-114471498D01*
X151130755Y-114417842D01*
X151119369Y-114365500D01*
X151119369Y-112521500D01*
X151139371Y-112453379D01*
X151193027Y-112406886D01*
X151245369Y-112395500D01*
X200580980Y-112395500D01*
X200592214Y-112396030D01*
X200599719Y-112397708D01*
X200668012Y-112395562D01*
X200671969Y-112395500D01*
X200699983Y-112395500D01*
X200703908Y-112395004D01*
X200703909Y-112395004D01*
X200704004Y-112394992D01*
X200715849Y-112394059D01*
X200745670Y-112393122D01*
X200752282Y-112392914D01*
X200752283Y-112392914D01*
X200760205Y-112392665D01*
X200779749Y-112386987D01*
X200799112Y-112382977D01*
X200811440Y-112381420D01*
X200811442Y-112381420D01*
X200819299Y-112380427D01*
X200826663Y-112377511D01*
X200826668Y-112377510D01*
X200860556Y-112364093D01*
X200871785Y-112360248D01*
X200888465Y-112355402D01*
X200914393Y-112347869D01*
X200921220Y-112343831D01*
X200921223Y-112343830D01*
X200931906Y-112337512D01*
X200949664Y-112328812D01*
X200961215Y-112324239D01*
X200961221Y-112324235D01*
X200968588Y-112321319D01*
X200978394Y-112314195D01*
X201004488Y-112295236D01*
X201014410Y-112288719D01*
X201045768Y-112270174D01*
X201045772Y-112270171D01*
X201052598Y-112266134D01*
X201066982Y-112251750D01*
X201082016Y-112238909D01*
X201092073Y-112231602D01*
X201098487Y-112226942D01*
X201126778Y-112192744D01*
X201134767Y-112183965D01*
X202271248Y-111047485D01*
X202333560Y-111013459D01*
X202404376Y-111018524D01*
X202461211Y-111061071D01*
X202486022Y-111127591D01*
X202486343Y-111136580D01*
X202486343Y-112252013D01*
X202493098Y-112314195D01*
X202544228Y-112450584D01*
X202631582Y-112567140D01*
X202748138Y-112654494D01*
X202884527Y-112705624D01*
X202946709Y-112712379D01*
X204742977Y-112712379D01*
X204805159Y-112705624D01*
X204941548Y-112654494D01*
X205058104Y-112567140D01*
X205145458Y-112450584D01*
X205165152Y-112398050D01*
X205189441Y-112333261D01*
X205232083Y-112276497D01*
X205298645Y-112251797D01*
X205367993Y-112267005D01*
X205402660Y-112294993D01*
X205431093Y-112327817D01*
X205602969Y-112470511D01*
X205795843Y-112583217D01*
X205800668Y-112585059D01*
X205800669Y-112585060D01*
X205873455Y-112612854D01*
X206004535Y-112662909D01*
X206009603Y-112663940D01*
X206009606Y-112663941D01*
X206116860Y-112685762D01*
X206223440Y-112707446D01*
X206228615Y-112707636D01*
X206228617Y-112707636D01*
X206441516Y-112715443D01*
X206441520Y-112715443D01*
X206446680Y-112715632D01*
X206451800Y-112714976D01*
X206451802Y-112714976D01*
X206663131Y-112687904D01*
X206663132Y-112687904D01*
X206668259Y-112687247D01*
X206673209Y-112685762D01*
X206877272Y-112624540D01*
X206877277Y-112624538D01*
X206882227Y-112623053D01*
X207082837Y-112524775D01*
X207264703Y-112395052D01*
X207282307Y-112377510D01*
X207399703Y-112260523D01*
X207422939Y-112237368D01*
X207458291Y-112188171D01*
X207550278Y-112060156D01*
X207553296Y-112055956D01*
X207652273Y-111855690D01*
X207717213Y-111641948D01*
X207746372Y-111420469D01*
X207747999Y-111353879D01*
X207729695Y-111131240D01*
X207675274Y-110914581D01*
X207586197Y-110709719D01*
X207464857Y-110522156D01*
X207314513Y-110356930D01*
X207310462Y-110353731D01*
X207310458Y-110353727D01*
X207143257Y-110221679D01*
X207143253Y-110221677D01*
X207139202Y-110218477D01*
X207097896Y-110195675D01*
X207047927Y-110145243D01*
X207033155Y-110075800D01*
X207058271Y-110009395D01*
X207085623Y-109982788D01*
X207166581Y-109925041D01*
X207264703Y-109855052D01*
X207328767Y-109791212D01*
X207419278Y-109701016D01*
X207422939Y-109697368D01*
X207553296Y-109515956D01*
X207652273Y-109315690D01*
X207717213Y-109101948D01*
X207746372Y-108880469D01*
X207747999Y-108813879D01*
X207729695Y-108591240D01*
X207675274Y-108374581D01*
X207586197Y-108169719D01*
X207521785Y-108070153D01*
X207467665Y-107986496D01*
X207467663Y-107986493D01*
X207464857Y-107982156D01*
X207314513Y-107816930D01*
X207310462Y-107813731D01*
X207310458Y-107813727D01*
X207143257Y-107681679D01*
X207143253Y-107681677D01*
X207139202Y-107678477D01*
X207097896Y-107655675D01*
X207047927Y-107605243D01*
X207033155Y-107535800D01*
X207058271Y-107469395D01*
X207085623Y-107442788D01*
X207158785Y-107390602D01*
X207264703Y-107315052D01*
X207328769Y-107251210D01*
X207419278Y-107161016D01*
X207422939Y-107157368D01*
X207553296Y-106975956D01*
X207574118Y-106933827D01*
X207649979Y-106780332D01*
X207649980Y-106780330D01*
X207652273Y-106775690D01*
X207717213Y-106561948D01*
X207746372Y-106340469D01*
X207747999Y-106273879D01*
X207729695Y-106051240D01*
X207675274Y-105834581D01*
X207586197Y-105629719D01*
X207493750Y-105486818D01*
X207467665Y-105446496D01*
X207467663Y-105446493D01*
X207464857Y-105442156D01*
X207314513Y-105276930D01*
X207310462Y-105273731D01*
X207310458Y-105273727D01*
X207143257Y-105141679D01*
X207143253Y-105141677D01*
X207139202Y-105138477D01*
X206943632Y-105030517D01*
X206938763Y-105028793D01*
X206938759Y-105028791D01*
X206737930Y-104957674D01*
X206737926Y-104957673D01*
X206733055Y-104955948D01*
X206727962Y-104955041D01*
X206727959Y-104955040D01*
X206518216Y-104917679D01*
X206518210Y-104917678D01*
X206513127Y-104916773D01*
X206439295Y-104915871D01*
X206294924Y-104914107D01*
X206294922Y-104914107D01*
X206289754Y-104914044D01*
X206068934Y-104947834D01*
X205856599Y-105017236D01*
X205841035Y-105025338D01*
X205771377Y-105039052D01*
X205705361Y-105012928D01*
X205663949Y-104955261D01*
X205656854Y-104913576D01*
X205656854Y-103992470D01*
X205676856Y-103924349D01*
X205730512Y-103877856D01*
X205800786Y-103867752D01*
X205837024Y-103878756D01*
X205841034Y-103881099D01*
X206049726Y-103960791D01*
X206054794Y-103961822D01*
X206054797Y-103961823D01*
X206162042Y-103983642D01*
X206268631Y-104005328D01*
X206273806Y-104005518D01*
X206273808Y-104005518D01*
X206486707Y-104013325D01*
X206486711Y-104013325D01*
X206491871Y-104013514D01*
X206496991Y-104012858D01*
X206496993Y-104012858D01*
X206708322Y-103985786D01*
X206708323Y-103985786D01*
X206713450Y-103985129D01*
X206718400Y-103983644D01*
X206922463Y-103922422D01*
X206922468Y-103922420D01*
X206927418Y-103920935D01*
X207128028Y-103822657D01*
X207309894Y-103692934D01*
X207468130Y-103535250D01*
X207527628Y-103452450D01*
X207595469Y-103358038D01*
X207598487Y-103353838D01*
X207606543Y-103337539D01*
X207695170Y-103158214D01*
X207695171Y-103158212D01*
X207697464Y-103153572D01*
X207762404Y-102939830D01*
X207791563Y-102718351D01*
X207793190Y-102651761D01*
X207774886Y-102429122D01*
X207720465Y-102212463D01*
X207631388Y-102007601D01*
X207510048Y-101820038D01*
X207359704Y-101654812D01*
X207355653Y-101651613D01*
X207355649Y-101651609D01*
X207188448Y-101519561D01*
X207188444Y-101519559D01*
X207184393Y-101516359D01*
X207143087Y-101493557D01*
X207093118Y-101443125D01*
X207078346Y-101373682D01*
X207103462Y-101307277D01*
X207130814Y-101280670D01*
X207174637Y-101249411D01*
X207309894Y-101152934D01*
X207468130Y-100995250D01*
X207598487Y-100813838D01*
X207606543Y-100797539D01*
X207695170Y-100618214D01*
X207695171Y-100618212D01*
X207697464Y-100613572D01*
X207762404Y-100399830D01*
X207791563Y-100178351D01*
X207793190Y-100111761D01*
X207774886Y-99889122D01*
X207720465Y-99672463D01*
X207631388Y-99467601D01*
X207510048Y-99280038D01*
X207359704Y-99114812D01*
X207355653Y-99111613D01*
X207355649Y-99111609D01*
X207188448Y-98979561D01*
X207188444Y-98979559D01*
X207184393Y-98976359D01*
X207153060Y-98959062D01*
X207110159Y-98935380D01*
X206988823Y-98868399D01*
X206983954Y-98866675D01*
X206983950Y-98866673D01*
X206783121Y-98795556D01*
X206783117Y-98795555D01*
X206778246Y-98793830D01*
X206773153Y-98792923D01*
X206773150Y-98792922D01*
X206563407Y-98755561D01*
X206563401Y-98755560D01*
X206558318Y-98754655D01*
X206484486Y-98753753D01*
X206340115Y-98751989D01*
X206340113Y-98751989D01*
X206334945Y-98751926D01*
X206114125Y-98785716D01*
X205901790Y-98855118D01*
X205871477Y-98870898D01*
X205708267Y-98955860D01*
X205703641Y-98958268D01*
X205699508Y-98961371D01*
X205699505Y-98961373D01*
X205529134Y-99089291D01*
X205524999Y-99092396D01*
X205521427Y-99096134D01*
X205386177Y-99237665D01*
X205370663Y-99253899D01*
X205263235Y-99411382D01*
X205208327Y-99456382D01*
X205137802Y-99464553D01*
X205074055Y-99433299D01*
X205053358Y-99408815D01*
X204972856Y-99284378D01*
X204972854Y-99284375D01*
X204970048Y-99280038D01*
X204819704Y-99114812D01*
X204815653Y-99111613D01*
X204815649Y-99111609D01*
X204648448Y-98979561D01*
X204648444Y-98979559D01*
X204644393Y-98976359D01*
X204613060Y-98959062D01*
X204570159Y-98935380D01*
X204448823Y-98868399D01*
X204443954Y-98866675D01*
X204443950Y-98866673D01*
X204243121Y-98795556D01*
X204243117Y-98795555D01*
X204238246Y-98793830D01*
X204233153Y-98792923D01*
X204233150Y-98792922D01*
X204023407Y-98755561D01*
X204023401Y-98755560D01*
X204018318Y-98754655D01*
X203944486Y-98753753D01*
X203800115Y-98751989D01*
X203800113Y-98751989D01*
X203794945Y-98751926D01*
X203574125Y-98785716D01*
X203361790Y-98855118D01*
X203331477Y-98870898D01*
X203168267Y-98955860D01*
X203163641Y-98958268D01*
X203159508Y-98961371D01*
X203159505Y-98961373D01*
X202989134Y-99089291D01*
X202984999Y-99092396D01*
X202928571Y-99151445D01*
X202904317Y-99176825D01*
X202842793Y-99212255D01*
X202771880Y-99208798D01*
X202714094Y-99167552D01*
X202695241Y-99134004D01*
X202653801Y-99023464D01*
X202650649Y-99015056D01*
X202563295Y-98898500D01*
X202446739Y-98811146D01*
X202310350Y-98760016D01*
X202248168Y-98753261D01*
X200451900Y-98753261D01*
X200389718Y-98760016D01*
X200253329Y-98811146D01*
X200136773Y-98898500D01*
X200049419Y-99015056D01*
X199998289Y-99151445D01*
X199991534Y-99213627D01*
X199991534Y-101009895D01*
X199998289Y-101072077D01*
X200049419Y-101208466D01*
X200136773Y-101325022D01*
X200253329Y-101412376D01*
X200261738Y-101415528D01*
X200261739Y-101415529D01*
X200370485Y-101456296D01*
X200427250Y-101498937D01*
X200451950Y-101565499D01*
X200436743Y-101634848D01*
X200417350Y-101661329D01*
X200290663Y-101793899D01*
X200287754Y-101798164D01*
X200287748Y-101798172D01*
X200283855Y-101803879D01*
X200164777Y-101978441D01*
X200149037Y-102012351D01*
X200082417Y-102155872D01*
X200070722Y-102181066D01*
X200011023Y-102396331D01*
X199987285Y-102618456D01*
X199987582Y-102623609D01*
X199987582Y-102623612D01*
X199993045Y-102718351D01*
X200000144Y-102841476D01*
X200001281Y-102846522D01*
X200001282Y-102846528D01*
X200018806Y-102924285D01*
X200049256Y-103059400D01*
X200087495Y-103153572D01*
X200126765Y-103250282D01*
X200133300Y-103266377D01*
X200174334Y-103333339D01*
X200247325Y-103452449D01*
X200250021Y-103456849D01*
X200396284Y-103625699D01*
X200568160Y-103768393D01*
X200652106Y-103817447D01*
X200700828Y-103869085D01*
X200714534Y-103926234D01*
X200714534Y-105363889D01*
X200714004Y-105375123D01*
X200712326Y-105382628D01*
X200713812Y-105429905D01*
X200714472Y-105450921D01*
X200714534Y-105454878D01*
X200714534Y-105482892D01*
X200715030Y-105486817D01*
X200715030Y-105486818D01*
X200715042Y-105486913D01*
X200715975Y-105498758D01*
X200717369Y-105543114D01*
X200719581Y-105550726D01*
X200723047Y-105562657D01*
X200727057Y-105582021D01*
X200729607Y-105602208D01*
X200732523Y-105609572D01*
X200732524Y-105609577D01*
X200745941Y-105643465D01*
X200749786Y-105654694D01*
X200754632Y-105671374D01*
X200762165Y-105697302D01*
X200766203Y-105704129D01*
X200766204Y-105704132D01*
X200772522Y-105714815D01*
X200781222Y-105732573D01*
X200785795Y-105744124D01*
X200785799Y-105744130D01*
X200788715Y-105751497D01*
X200793373Y-105757908D01*
X200793374Y-105757910D01*
X200814798Y-105787397D01*
X200821315Y-105797319D01*
X200839860Y-105828677D01*
X200839863Y-105828681D01*
X200843900Y-105835507D01*
X200858284Y-105849891D01*
X200871125Y-105864925D01*
X200883092Y-105881396D01*
X200889200Y-105886449D01*
X200917289Y-105909686D01*
X200926069Y-105917676D01*
X202785814Y-107777422D01*
X202819840Y-107839734D01*
X202814775Y-107910550D01*
X202791528Y-107947633D01*
X202792300Y-107948258D01*
X202789043Y-107952280D01*
X202785472Y-107956017D01*
X202782558Y-107960289D01*
X202782557Y-107960290D01*
X202697398Y-108085128D01*
X202659586Y-108140559D01*
X202565531Y-108343184D01*
X202543683Y-108421964D01*
X202520294Y-108506301D01*
X202482815Y-108566598D01*
X202414669Y-108597634D01*
X202407193Y-108598578D01*
X202407183Y-108598581D01*
X202399327Y-108599573D01*
X202391963Y-108602489D01*
X202391958Y-108602490D01*
X202358070Y-108615907D01*
X202346841Y-108619752D01*
X202332867Y-108623812D01*
X202304233Y-108632131D01*
X202297407Y-108636168D01*
X202286717Y-108642490D01*
X202268967Y-108651187D01*
X202250038Y-108658681D01*
X202243622Y-108663342D01*
X202243621Y-108663343D01*
X202214145Y-108684759D01*
X202204221Y-108691278D01*
X202172850Y-108709830D01*
X202172845Y-108709834D01*
X202166027Y-108713866D01*
X202151640Y-108728253D01*
X202136606Y-108741094D01*
X202120139Y-108753058D01*
X202115086Y-108759166D01*
X202091854Y-108787249D01*
X202083864Y-108796029D01*
X200437401Y-110442492D01*
X200437395Y-110442497D01*
X200241819Y-110638075D01*
X200179507Y-110672100D01*
X200152723Y-110674980D01*
X128306719Y-110674980D01*
X128238598Y-110654978D01*
X128217624Y-110638075D01*
X127321694Y-109742145D01*
X127287668Y-109679833D01*
X127292733Y-109609018D01*
X127308467Y-109579524D01*
X127351056Y-109520255D01*
X127351060Y-109520249D01*
X127354079Y-109516047D01*
X127453056Y-109315781D01*
X127517996Y-109102039D01*
X127547155Y-108880560D01*
X127548782Y-108813970D01*
X127530478Y-108591331D01*
X127476057Y-108374672D01*
X127386980Y-108169810D01*
X127297064Y-108030821D01*
X127268448Y-107986587D01*
X127268446Y-107986584D01*
X127265640Y-107982247D01*
X127115296Y-107817021D01*
X127111245Y-107813822D01*
X127111241Y-107813818D01*
X126944040Y-107681770D01*
X126944036Y-107681768D01*
X126939985Y-107678568D01*
X126898679Y-107655766D01*
X126848710Y-107605334D01*
X126833938Y-107535891D01*
X126859054Y-107469486D01*
X126886406Y-107442879D01*
X126930229Y-107411620D01*
X127065486Y-107315143D01*
X127223722Y-107157459D01*
X127354079Y-106976047D01*
X127374946Y-106933827D01*
X127450762Y-106780423D01*
X127450763Y-106780421D01*
X127453056Y-106775781D01*
X127517996Y-106562039D01*
X127547155Y-106340560D01*
X127548782Y-106273970D01*
X127530478Y-106051331D01*
X127476057Y-105834672D01*
X127386980Y-105629810D01*
X127294536Y-105486913D01*
X127268448Y-105446587D01*
X127268446Y-105446584D01*
X127265640Y-105442247D01*
X127262166Y-105438429D01*
X127262159Y-105438420D01*
X127124400Y-105287025D01*
X127093348Y-105223180D01*
X127101744Y-105152681D01*
X127128499Y-105113131D01*
X128259013Y-103982617D01*
X128321325Y-103948591D01*
X128373226Y-103948241D01*
X128553061Y-103984829D01*
X128558236Y-103985019D01*
X128558238Y-103985019D01*
X128771137Y-103992826D01*
X128771141Y-103992826D01*
X128776301Y-103993015D01*
X128781421Y-103992359D01*
X128781423Y-103992359D01*
X128992752Y-103965287D01*
X128992753Y-103965287D01*
X128997880Y-103964630D01*
X129016826Y-103958946D01*
X129206893Y-103901923D01*
X129206898Y-103901921D01*
X129211848Y-103900436D01*
X129412458Y-103802158D01*
X129594324Y-103672435D01*
X129752560Y-103514751D01*
X129812058Y-103431951D01*
X129879899Y-103337539D01*
X129882917Y-103333339D01*
X129916012Y-103266377D01*
X129979600Y-103137715D01*
X129979601Y-103137713D01*
X129981894Y-103133073D01*
X130046834Y-102919331D01*
X130075993Y-102697852D01*
X130077620Y-102631262D01*
X130059316Y-102408623D01*
X130004895Y-102191964D01*
X129915818Y-101987102D01*
X129810547Y-101824378D01*
X129797286Y-101803879D01*
X129797284Y-101803876D01*
X129794478Y-101799539D01*
X129644134Y-101634313D01*
X129640083Y-101631114D01*
X129640079Y-101631110D01*
X129472878Y-101499062D01*
X129472874Y-101499060D01*
X129468823Y-101495860D01*
X129427517Y-101473058D01*
X129377548Y-101422626D01*
X129362776Y-101353183D01*
X129387892Y-101286778D01*
X129415244Y-101260171D01*
X129459795Y-101228393D01*
X129594324Y-101132435D01*
X129752560Y-100974751D01*
X129882917Y-100793339D01*
X129916012Y-100726377D01*
X129979600Y-100597715D01*
X129979601Y-100597713D01*
X129981894Y-100593073D01*
X130046834Y-100379331D01*
X130075993Y-100157852D01*
X130077620Y-100091262D01*
X130059316Y-99868623D01*
X130004895Y-99651964D01*
X129915818Y-99447102D01*
X129810547Y-99284378D01*
X129797286Y-99263879D01*
X129797284Y-99263876D01*
X129794478Y-99259539D01*
X129644134Y-99094313D01*
X129640083Y-99091114D01*
X129640079Y-99091110D01*
X129472878Y-98959062D01*
X129472874Y-98959060D01*
X129468823Y-98955860D01*
X129273253Y-98847900D01*
X129268384Y-98846176D01*
X129268380Y-98846174D01*
X129067551Y-98775057D01*
X129067547Y-98775056D01*
X129062676Y-98773331D01*
X129057583Y-98772424D01*
X129057580Y-98772423D01*
X128847837Y-98735062D01*
X128847831Y-98735061D01*
X128842748Y-98734156D01*
X128768916Y-98733254D01*
X128624545Y-98731490D01*
X128624543Y-98731490D01*
X128619375Y-98731427D01*
X128398555Y-98765217D01*
X128186220Y-98834619D01*
X127988071Y-98937769D01*
X127983938Y-98940872D01*
X127983935Y-98940874D01*
X127813564Y-99068792D01*
X127809429Y-99071897D01*
X127805857Y-99075635D01*
X127673989Y-99213627D01*
X127655093Y-99233400D01*
X127547665Y-99390883D01*
X127492757Y-99435883D01*
X127422232Y-99444054D01*
X127358485Y-99412800D01*
X127337788Y-99388316D01*
X127257286Y-99263879D01*
X127257284Y-99263876D01*
X127254478Y-99259539D01*
X127104134Y-99094313D01*
X127100083Y-99091114D01*
X127100079Y-99091110D01*
X126932878Y-98959062D01*
X126932874Y-98959060D01*
X126928823Y-98955860D01*
X126733253Y-98847900D01*
X126728384Y-98846176D01*
X126728380Y-98846174D01*
X126527551Y-98775057D01*
X126527547Y-98775056D01*
X126522676Y-98773331D01*
X126517583Y-98772424D01*
X126517580Y-98772423D01*
X126307837Y-98735062D01*
X126307831Y-98735061D01*
X126302748Y-98734156D01*
X126228916Y-98733254D01*
X126084545Y-98731490D01*
X126084543Y-98731490D01*
X126079375Y-98731427D01*
X125858555Y-98765217D01*
X125646220Y-98834619D01*
X125448071Y-98937769D01*
X125443938Y-98940872D01*
X125443935Y-98940874D01*
X125273564Y-99068792D01*
X125269429Y-99071897D01*
X125213001Y-99130946D01*
X125188747Y-99156326D01*
X125127223Y-99191756D01*
X125056310Y-99188299D01*
X124998524Y-99147053D01*
X124979671Y-99113505D01*
X124938231Y-99002965D01*
X124935079Y-98994557D01*
X124847725Y-98878001D01*
X124731169Y-98790647D01*
X124594780Y-98739517D01*
X124532598Y-98732762D01*
X122736330Y-98732762D01*
X122674148Y-98739517D01*
X122537759Y-98790647D01*
X122421203Y-98878001D01*
X122333849Y-98994557D01*
X122282719Y-99130946D01*
X122275964Y-99193128D01*
X122275964Y-100989396D01*
X122282719Y-101051578D01*
X122333849Y-101187967D01*
X122421203Y-101304523D01*
X122537759Y-101391877D01*
X122546168Y-101395029D01*
X122546169Y-101395030D01*
X122654915Y-101435797D01*
X122711680Y-101478438D01*
X122736380Y-101545000D01*
X122721173Y-101614349D01*
X122701780Y-101640830D01*
X122575093Y-101773400D01*
X122572179Y-101777672D01*
X122572178Y-101777673D01*
X122543279Y-101820038D01*
X122449207Y-101957942D01*
X122355152Y-102160567D01*
X122295453Y-102375832D01*
X122271715Y-102597957D01*
X122272012Y-102603110D01*
X122272012Y-102603113D01*
X122278657Y-102718351D01*
X122284574Y-102820977D01*
X122285711Y-102826023D01*
X122285712Y-102826029D01*
X122290332Y-102846528D01*
X122333686Y-103038901D01*
X122417730Y-103245878D01*
X122420429Y-103250282D01*
X122486462Y-103358038D01*
X122534451Y-103436350D01*
X122680714Y-103605200D01*
X122852590Y-103747894D01*
X123045464Y-103860600D01*
X123050289Y-103862442D01*
X123050290Y-103862443D01*
X123194296Y-103917434D01*
X123250799Y-103960422D01*
X123275092Y-104027133D01*
X123259462Y-104096388D01*
X123238442Y-104124239D01*
X122078862Y-105283819D01*
X122070576Y-105291359D01*
X122064097Y-105295471D01*
X122058672Y-105301248D01*
X122017472Y-105345122D01*
X122014717Y-105347964D01*
X121994980Y-105367701D01*
X121992500Y-105370898D01*
X121984797Y-105379918D01*
X121954529Y-105412150D01*
X121950710Y-105419096D01*
X121950708Y-105419099D01*
X121944767Y-105429905D01*
X121933916Y-105446424D01*
X121921501Y-105462430D01*
X121918356Y-105469699D01*
X121918353Y-105469703D01*
X121903941Y-105503008D01*
X121898724Y-105513658D01*
X121877420Y-105552411D01*
X121875449Y-105560086D01*
X121875449Y-105560087D01*
X121872382Y-105572033D01*
X121865978Y-105590737D01*
X121857934Y-105609326D01*
X121856695Y-105617149D01*
X121856692Y-105617159D01*
X121851016Y-105652995D01*
X121848610Y-105664615D01*
X121837615Y-105707441D01*
X121837615Y-105727695D01*
X121836064Y-105747405D01*
X121832895Y-105767414D01*
X121833641Y-105775306D01*
X121837056Y-105811432D01*
X121837615Y-105823290D01*
X121837615Y-107560692D01*
X121837088Y-107571875D01*
X121835413Y-107579368D01*
X121835662Y-107587294D01*
X121835662Y-107587295D01*
X121837553Y-107647445D01*
X121837615Y-107651404D01*
X121837615Y-107679315D01*
X121838112Y-107683249D01*
X121838112Y-107683250D01*
X121838120Y-107683315D01*
X121839053Y-107695152D01*
X121840442Y-107739348D01*
X121846093Y-107758798D01*
X121850102Y-107778159D01*
X121852641Y-107798256D01*
X121855560Y-107805627D01*
X121855560Y-107805629D01*
X121868919Y-107839371D01*
X121872764Y-107850601D01*
X121885097Y-107893052D01*
X121889130Y-107899871D01*
X121889132Y-107899876D01*
X121895408Y-107910487D01*
X121904103Y-107928235D01*
X121911563Y-107947076D01*
X121916225Y-107953492D01*
X121916225Y-107953493D01*
X121937551Y-107982846D01*
X121944067Y-107992766D01*
X121966573Y-108030821D01*
X121980894Y-108045142D01*
X121993734Y-108060175D01*
X122005643Y-108076566D01*
X122011749Y-108081617D01*
X122039720Y-108104757D01*
X122048499Y-108112747D01*
X122295404Y-108359652D01*
X122329430Y-108421964D01*
X122327726Y-108482418D01*
X122306615Y-108558540D01*
X122306067Y-108563670D01*
X122306066Y-108563674D01*
X122300073Y-108619752D01*
X122282877Y-108780665D01*
X122283174Y-108785818D01*
X122283174Y-108785821D01*
X122288637Y-108880560D01*
X122295736Y-109003685D01*
X122296873Y-109008731D01*
X122296874Y-109008737D01*
X122316725Y-109096818D01*
X122344848Y-109221609D01*
X122428892Y-109428586D01*
X122431591Y-109432990D01*
X122539461Y-109609018D01*
X122545613Y-109619058D01*
X122691876Y-109787908D01*
X122695856Y-109791212D01*
X122700607Y-109795157D01*
X122740242Y-109854060D01*
X122741739Y-109925041D01*
X122704623Y-109985563D01*
X122664350Y-110010082D01*
X122548921Y-110053355D01*
X122432365Y-110140709D01*
X122345011Y-110257265D01*
X122293881Y-110393654D01*
X122287126Y-110455836D01*
X122287126Y-112252104D01*
X122293881Y-112314286D01*
X122345011Y-112450675D01*
X122432365Y-112567231D01*
X122548921Y-112654585D01*
X122685310Y-112705715D01*
X122741186Y-112711785D01*
X122743258Y-112712010D01*
X122747492Y-112712470D01*
X124543760Y-112712470D01*
X124547995Y-112712010D01*
X124550066Y-112711785D01*
X124605942Y-112705715D01*
X124742331Y-112654585D01*
X124858887Y-112567231D01*
X124946241Y-112450675D01*
X124965969Y-112398050D01*
X124990224Y-112333352D01*
X125032866Y-112276588D01*
X125099428Y-112251888D01*
X125168776Y-112267096D01*
X125203443Y-112295084D01*
X125231876Y-112327908D01*
X125403752Y-112470602D01*
X125596626Y-112583308D01*
X125805318Y-112663000D01*
X125810386Y-112664031D01*
X125810389Y-112664032D01*
X125917196Y-112685762D01*
X126024223Y-112707537D01*
X126029398Y-112707727D01*
X126029400Y-112707727D01*
X126242299Y-112715534D01*
X126242303Y-112715534D01*
X126247463Y-112715723D01*
X126252583Y-112715067D01*
X126252585Y-112715067D01*
X126463914Y-112687995D01*
X126463915Y-112687995D01*
X126469042Y-112687338D01*
X126474295Y-112685762D01*
X126678055Y-112624631D01*
X126678060Y-112624629D01*
X126683010Y-112623144D01*
X126883620Y-112524866D01*
X127032150Y-112418921D01*
X127105319Y-112395500D01*
X127419226Y-112395500D01*
X127487347Y-112415502D01*
X127533840Y-112469158D01*
X127545226Y-112521500D01*
X127545226Y-114365500D01*
X127525224Y-114433621D01*
X127471568Y-114480114D01*
X127419226Y-114491500D01*
X120634500Y-114491500D01*
X120566379Y-114471498D01*
X120519886Y-114417842D01*
X120508500Y-114365500D01*
X120508500Y-94185224D01*
X121680173Y-94185224D01*
X121680268Y-94188853D01*
X121680268Y-94188855D01*
X121681014Y-94217326D01*
X121681014Y-94217328D01*
X121687680Y-94471887D01*
X121689255Y-94532054D01*
X121738141Y-94875543D01*
X121826182Y-95211136D01*
X121952212Y-95534386D01*
X121953909Y-95537591D01*
X122087398Y-95789708D01*
X122114560Y-95841009D01*
X122116610Y-95843992D01*
X122116612Y-95843995D01*
X122309018Y-96123947D01*
X122309024Y-96123954D01*
X122311075Y-96126939D01*
X122539151Y-96388388D01*
X122541836Y-96390831D01*
X122751553Y-96581658D01*
X122795766Y-96621889D01*
X123077518Y-96824349D01*
X123380673Y-96993083D01*
X123701213Y-97125855D01*
X123704707Y-97126850D01*
X123704709Y-97126851D01*
X124031388Y-97219908D01*
X124031393Y-97219909D01*
X124034889Y-97220905D01*
X124231589Y-97253116D01*
X124373697Y-97276387D01*
X124373704Y-97276388D01*
X124377278Y-97276973D01*
X124550561Y-97285145D01*
X124720216Y-97293146D01*
X124720217Y-97293146D01*
X124723843Y-97293317D01*
X124732700Y-97292713D01*
X125066358Y-97269967D01*
X125066366Y-97269966D01*
X125069989Y-97269719D01*
X125073564Y-97269056D01*
X125073567Y-97269056D01*
X125407564Y-97207153D01*
X125407568Y-97207152D01*
X125411129Y-97206492D01*
X125742741Y-97104475D01*
X126060430Y-96965019D01*
X126304796Y-96822224D01*
X126356845Y-96791809D01*
X126356847Y-96791808D01*
X126359985Y-96789974D01*
X126362894Y-96787790D01*
X126634529Y-96583841D01*
X126634533Y-96583838D01*
X126637436Y-96581658D01*
X126889104Y-96342833D01*
X127111655Y-96076666D01*
X127302138Y-95786682D01*
X127433723Y-95525054D01*
X127456402Y-95479963D01*
X127456405Y-95479955D01*
X127458029Y-95476727D01*
X127459274Y-95473325D01*
X127576014Y-95154320D01*
X127576015Y-95154316D01*
X127577262Y-95150909D01*
X127578107Y-95147387D01*
X127578110Y-95147379D01*
X127657409Y-94817074D01*
X127657410Y-94817070D01*
X127658256Y-94813545D01*
X127658693Y-94809935D01*
X127699601Y-94471887D01*
X127699601Y-94471880D01*
X127699937Y-94469108D01*
X127705884Y-94279883D01*
X127702277Y-94217326D01*
X127686121Y-93937129D01*
X127686120Y-93937124D01*
X127685912Y-93933509D01*
X127626261Y-93591725D01*
X127527722Y-93259063D01*
X127526298Y-93255724D01*
X127393025Y-92943269D01*
X127393023Y-92943266D01*
X127391601Y-92939931D01*
X127341854Y-92852714D01*
X127221493Y-92641699D01*
X127219702Y-92638559D01*
X127014303Y-92358943D01*
X126778127Y-92104787D01*
X126514304Y-91879461D01*
X126226332Y-91685952D01*
X125918026Y-91526823D01*
X125593474Y-91404185D01*
X125589953Y-91403301D01*
X125589948Y-91403299D01*
X125428663Y-91362787D01*
X125256977Y-91319663D01*
X125234761Y-91316738D01*
X124916600Y-91274851D01*
X124916592Y-91274850D01*
X124912996Y-91274377D01*
X124768330Y-91272104D01*
X124569731Y-91268984D01*
X124569727Y-91268984D01*
X124566089Y-91268927D01*
X124562475Y-91269288D01*
X124562469Y-91269288D01*
X124319128Y-91293577D01*
X124220854Y-91303386D01*
X123881868Y-91377297D01*
X123878441Y-91378470D01*
X123878435Y-91378472D01*
X123799581Y-91405470D01*
X123553624Y-91489680D01*
X123240473Y-91639046D01*
X122946564Y-91823415D01*
X122943728Y-91825687D01*
X122943721Y-91825692D01*
X122699669Y-92021215D01*
X122675794Y-92040342D01*
X122431751Y-92286954D01*
X122429510Y-92289812D01*
X122373017Y-92361861D01*
X122217671Y-92559981D01*
X122215778Y-92563070D01*
X122215776Y-92563073D01*
X122169518Y-92638559D01*
X122036390Y-92855804D01*
X122034865Y-92859089D01*
X122034863Y-92859093D01*
X121995790Y-92943269D01*
X121890312Y-93170503D01*
X121781372Y-93499906D01*
X121711015Y-93839647D01*
X121680173Y-94185224D01*
X120508500Y-94185224D01*
X120508500Y-90634500D01*
X120528502Y-90566379D01*
X120582158Y-90519886D01*
X120634500Y-90508500D01*
X187976764Y-90508500D01*
X188044885Y-90528502D01*
G37*
%TD.AperFunction*%
M02*
