%TF.GenerationSoftware,KiCad,Pcbnew,(5.1.12-1-10_14)*%
%TF.CreationDate,2022-04-14T08:48:01-04:00*%
%TF.ProjectId,Remove_Before_Flight,52656d6f-7665-45f4-9265-666f72655f46,rev?*%
%TF.SameCoordinates,Original*%
%TF.FileFunction,Copper,L1,Top*%
%TF.FilePolarity,Positive*%
%FSLAX46Y46*%
G04 Gerber Fmt 4.6, Leading zero omitted, Abs format (unit mm)*
G04 Created by KiCad (PCBNEW (5.1.12-1-10_14)) date 2022-04-14 08:48:01*
%MOMM*%
%LPD*%
G01*
G04 APERTURE LIST*
%TA.AperFunction,ComponentPad*%
%ADD10R,1.700000X1.700000*%
%TD*%
%TA.AperFunction,ComponentPad*%
%ADD11O,1.700000X1.700000*%
%TD*%
%TA.AperFunction,ViaPad*%
%ADD12C,0.800000*%
%TD*%
%TA.AperFunction,Conductor*%
%ADD13C,0.254000*%
%TD*%
%TA.AperFunction,NonConductor*%
%ADD14C,0.254000*%
%TD*%
%TA.AperFunction,NonConductor*%
%ADD15C,0.100000*%
%TD*%
G04 APERTURE END LIST*
D10*
%TO.P,J1,1*%
%TO.N,Net-(J1-Pad1)*%
X124460000Y-99060000D03*
D11*
%TO.P,J1,2*%
%TO.N,Net-(J1-Pad2)*%
X124460000Y-101600000D03*
%TO.P,J1,3*%
%TO.N,Net-(J1-Pad3)*%
X127000000Y-99060000D03*
%TO.P,J1,4*%
%TO.N,Net-(J1-Pad4)*%
X127000000Y-101600000D03*
%TO.P,J1,5*%
%TO.N,Net-(J1-Pad5)*%
X129540000Y-99060000D03*
%TO.P,J1,6*%
%TO.N,Net-(J1-Pad6)*%
X129540000Y-101600000D03*
%TD*%
%TO.P,J2,6*%
%TO.N,Net-(J1-Pad6)*%
X195580000Y-101600000D03*
%TO.P,J2,5*%
%TO.N,Net-(J1-Pad5)*%
X195580000Y-99060000D03*
%TO.P,J2,4*%
%TO.N,Net-(J1-Pad4)*%
X193040000Y-101600000D03*
%TO.P,J2,3*%
%TO.N,Net-(J1-Pad3)*%
X193040000Y-99060000D03*
%TO.P,J2,2*%
%TO.N,Net-(J1-Pad2)*%
X190500000Y-101600000D03*
D10*
%TO.P,J2,1*%
%TO.N,Net-(J1-Pad1)*%
X190500000Y-99060000D03*
%TD*%
D12*
%TO.N,Net-(J1-Pad6)*%
X187960000Y-101600000D03*
%TD*%
D13*
%TO.N,Net-(J1-Pad1)*%
X189322999Y-100237001D02*
X190500000Y-99060000D01*
X125637001Y-100237001D02*
X189322999Y-100237001D01*
X124460000Y-99060000D02*
X125637001Y-100237001D01*
%TO.N,Net-(J1-Pad2)*%
X189322999Y-102777001D02*
X190500000Y-101600000D01*
X125637001Y-102777001D02*
X189322999Y-102777001D01*
X124460000Y-101600000D02*
X125637001Y-102777001D01*
%TO.N,Net-(J1-Pad6)*%
X194402999Y-100422999D02*
X195580000Y-101600000D01*
X189935039Y-100422999D02*
X194402999Y-100422999D01*
X188758038Y-101600000D02*
X189935039Y-100422999D01*
X187960000Y-101600000D02*
X188758038Y-101600000D01*
%TD*%
D14*
X199340001Y-109340000D02*
X120660000Y-109340000D01*
X120660000Y-98210000D01*
X122971928Y-98210000D01*
X122971928Y-99910000D01*
X122984188Y-100034482D01*
X123020498Y-100154180D01*
X123079463Y-100264494D01*
X123158815Y-100361185D01*
X123255506Y-100440537D01*
X123365820Y-100499502D01*
X123438380Y-100521513D01*
X123306525Y-100653368D01*
X123144010Y-100896589D01*
X123032068Y-101166842D01*
X122975000Y-101453740D01*
X122975000Y-101746260D01*
X123032068Y-102033158D01*
X123144010Y-102303411D01*
X123306525Y-102546632D01*
X123513368Y-102753475D01*
X123756589Y-102915990D01*
X124026842Y-103027932D01*
X124313740Y-103085000D01*
X124606260Y-103085000D01*
X124824048Y-103041679D01*
X125071722Y-103289353D01*
X125095579Y-103318423D01*
X125124649Y-103342280D01*
X125211608Y-103413646D01*
X125282365Y-103451466D01*
X125343986Y-103484403D01*
X125487623Y-103527975D01*
X125599575Y-103539001D01*
X125599578Y-103539001D01*
X125637001Y-103542687D01*
X125674424Y-103539001D01*
X189285576Y-103539001D01*
X189322999Y-103542687D01*
X189360422Y-103539001D01*
X189360425Y-103539001D01*
X189472377Y-103527975D01*
X189616014Y-103484403D01*
X189748391Y-103413646D01*
X189864421Y-103318423D01*
X189888283Y-103289347D01*
X190135951Y-103041679D01*
X190353740Y-103085000D01*
X190646260Y-103085000D01*
X190933158Y-103027932D01*
X191203411Y-102915990D01*
X191446632Y-102753475D01*
X191653475Y-102546632D01*
X191770000Y-102372240D01*
X191886525Y-102546632D01*
X192093368Y-102753475D01*
X192336589Y-102915990D01*
X192606842Y-103027932D01*
X192893740Y-103085000D01*
X193186260Y-103085000D01*
X193473158Y-103027932D01*
X193743411Y-102915990D01*
X193986632Y-102753475D01*
X194193475Y-102546632D01*
X194310000Y-102372240D01*
X194426525Y-102546632D01*
X194633368Y-102753475D01*
X194876589Y-102915990D01*
X195146842Y-103027932D01*
X195433740Y-103085000D01*
X195726260Y-103085000D01*
X196013158Y-103027932D01*
X196283411Y-102915990D01*
X196526632Y-102753475D01*
X196733475Y-102546632D01*
X196895990Y-102303411D01*
X197007932Y-102033158D01*
X197065000Y-101746260D01*
X197065000Y-101453740D01*
X197007932Y-101166842D01*
X196895990Y-100896589D01*
X196733475Y-100653368D01*
X196526632Y-100446525D01*
X196352240Y-100330000D01*
X196526632Y-100213475D01*
X196733475Y-100006632D01*
X196895990Y-99763411D01*
X197007932Y-99493158D01*
X197065000Y-99206260D01*
X197065000Y-98913740D01*
X197007932Y-98626842D01*
X196895990Y-98356589D01*
X196733475Y-98113368D01*
X196526632Y-97906525D01*
X196283411Y-97744010D01*
X196013158Y-97632068D01*
X195726260Y-97575000D01*
X195433740Y-97575000D01*
X195146842Y-97632068D01*
X194876589Y-97744010D01*
X194633368Y-97906525D01*
X194426525Y-98113368D01*
X194310000Y-98287760D01*
X194193475Y-98113368D01*
X193986632Y-97906525D01*
X193743411Y-97744010D01*
X193473158Y-97632068D01*
X193186260Y-97575000D01*
X192893740Y-97575000D01*
X192606842Y-97632068D01*
X192336589Y-97744010D01*
X192093368Y-97906525D01*
X191961513Y-98038380D01*
X191939502Y-97965820D01*
X191880537Y-97855506D01*
X191801185Y-97758815D01*
X191704494Y-97679463D01*
X191594180Y-97620498D01*
X191474482Y-97584188D01*
X191350000Y-97571928D01*
X189650000Y-97571928D01*
X189525518Y-97584188D01*
X189405820Y-97620498D01*
X189295506Y-97679463D01*
X189198815Y-97758815D01*
X189119463Y-97855506D01*
X189060498Y-97965820D01*
X189024188Y-98085518D01*
X189011928Y-98210000D01*
X189011928Y-99470442D01*
X189007369Y-99475001D01*
X130971544Y-99475001D01*
X131025000Y-99206260D01*
X131025000Y-98913740D01*
X130967932Y-98626842D01*
X130855990Y-98356589D01*
X130693475Y-98113368D01*
X130486632Y-97906525D01*
X130243411Y-97744010D01*
X129973158Y-97632068D01*
X129686260Y-97575000D01*
X129393740Y-97575000D01*
X129106842Y-97632068D01*
X128836589Y-97744010D01*
X128593368Y-97906525D01*
X128386525Y-98113368D01*
X128270000Y-98287760D01*
X128153475Y-98113368D01*
X127946632Y-97906525D01*
X127703411Y-97744010D01*
X127433158Y-97632068D01*
X127146260Y-97575000D01*
X126853740Y-97575000D01*
X126566842Y-97632068D01*
X126296589Y-97744010D01*
X126053368Y-97906525D01*
X125921513Y-98038380D01*
X125899502Y-97965820D01*
X125840537Y-97855506D01*
X125761185Y-97758815D01*
X125664494Y-97679463D01*
X125554180Y-97620498D01*
X125434482Y-97584188D01*
X125310000Y-97571928D01*
X123610000Y-97571928D01*
X123485518Y-97584188D01*
X123365820Y-97620498D01*
X123255506Y-97679463D01*
X123158815Y-97758815D01*
X123079463Y-97855506D01*
X123020498Y-97965820D01*
X122984188Y-98085518D01*
X122971928Y-98210000D01*
X120660000Y-98210000D01*
X120660000Y-93968188D01*
X121527598Y-93968188D01*
X121527598Y-94591578D01*
X121649215Y-95202988D01*
X121887775Y-95778925D01*
X122234112Y-96297254D01*
X122674914Y-96738056D01*
X123193243Y-97084393D01*
X123769180Y-97322953D01*
X124380590Y-97444570D01*
X125003980Y-97444570D01*
X125615390Y-97322953D01*
X126191327Y-97084393D01*
X126709656Y-96738056D01*
X127150458Y-96297254D01*
X127496795Y-95778925D01*
X127735355Y-95202988D01*
X127856972Y-94591578D01*
X127856972Y-93968188D01*
X127735355Y-93356778D01*
X127496795Y-92780841D01*
X127150458Y-92262512D01*
X126709656Y-91821710D01*
X126191327Y-91475373D01*
X125615390Y-91236813D01*
X125003980Y-91115196D01*
X124380590Y-91115196D01*
X123769180Y-91236813D01*
X123193243Y-91475373D01*
X122674914Y-91821710D01*
X122234112Y-92262512D01*
X121887775Y-92780841D01*
X121649215Y-93356778D01*
X121527598Y-93968188D01*
X120660000Y-93968188D01*
X120660000Y-90660000D01*
X199340000Y-90660000D01*
X199340001Y-109340000D01*
%TA.AperFunction,NonConductor*%
D15*
G36*
X199340001Y-109340000D02*
G01*
X120660000Y-109340000D01*
X120660000Y-98210000D01*
X122971928Y-98210000D01*
X122971928Y-99910000D01*
X122984188Y-100034482D01*
X123020498Y-100154180D01*
X123079463Y-100264494D01*
X123158815Y-100361185D01*
X123255506Y-100440537D01*
X123365820Y-100499502D01*
X123438380Y-100521513D01*
X123306525Y-100653368D01*
X123144010Y-100896589D01*
X123032068Y-101166842D01*
X122975000Y-101453740D01*
X122975000Y-101746260D01*
X123032068Y-102033158D01*
X123144010Y-102303411D01*
X123306525Y-102546632D01*
X123513368Y-102753475D01*
X123756589Y-102915990D01*
X124026842Y-103027932D01*
X124313740Y-103085000D01*
X124606260Y-103085000D01*
X124824048Y-103041679D01*
X125071722Y-103289353D01*
X125095579Y-103318423D01*
X125124649Y-103342280D01*
X125211608Y-103413646D01*
X125282365Y-103451466D01*
X125343986Y-103484403D01*
X125487623Y-103527975D01*
X125599575Y-103539001D01*
X125599578Y-103539001D01*
X125637001Y-103542687D01*
X125674424Y-103539001D01*
X189285576Y-103539001D01*
X189322999Y-103542687D01*
X189360422Y-103539001D01*
X189360425Y-103539001D01*
X189472377Y-103527975D01*
X189616014Y-103484403D01*
X189748391Y-103413646D01*
X189864421Y-103318423D01*
X189888283Y-103289347D01*
X190135951Y-103041679D01*
X190353740Y-103085000D01*
X190646260Y-103085000D01*
X190933158Y-103027932D01*
X191203411Y-102915990D01*
X191446632Y-102753475D01*
X191653475Y-102546632D01*
X191770000Y-102372240D01*
X191886525Y-102546632D01*
X192093368Y-102753475D01*
X192336589Y-102915990D01*
X192606842Y-103027932D01*
X192893740Y-103085000D01*
X193186260Y-103085000D01*
X193473158Y-103027932D01*
X193743411Y-102915990D01*
X193986632Y-102753475D01*
X194193475Y-102546632D01*
X194310000Y-102372240D01*
X194426525Y-102546632D01*
X194633368Y-102753475D01*
X194876589Y-102915990D01*
X195146842Y-103027932D01*
X195433740Y-103085000D01*
X195726260Y-103085000D01*
X196013158Y-103027932D01*
X196283411Y-102915990D01*
X196526632Y-102753475D01*
X196733475Y-102546632D01*
X196895990Y-102303411D01*
X197007932Y-102033158D01*
X197065000Y-101746260D01*
X197065000Y-101453740D01*
X197007932Y-101166842D01*
X196895990Y-100896589D01*
X196733475Y-100653368D01*
X196526632Y-100446525D01*
X196352240Y-100330000D01*
X196526632Y-100213475D01*
X196733475Y-100006632D01*
X196895990Y-99763411D01*
X197007932Y-99493158D01*
X197065000Y-99206260D01*
X197065000Y-98913740D01*
X197007932Y-98626842D01*
X196895990Y-98356589D01*
X196733475Y-98113368D01*
X196526632Y-97906525D01*
X196283411Y-97744010D01*
X196013158Y-97632068D01*
X195726260Y-97575000D01*
X195433740Y-97575000D01*
X195146842Y-97632068D01*
X194876589Y-97744010D01*
X194633368Y-97906525D01*
X194426525Y-98113368D01*
X194310000Y-98287760D01*
X194193475Y-98113368D01*
X193986632Y-97906525D01*
X193743411Y-97744010D01*
X193473158Y-97632068D01*
X193186260Y-97575000D01*
X192893740Y-97575000D01*
X192606842Y-97632068D01*
X192336589Y-97744010D01*
X192093368Y-97906525D01*
X191961513Y-98038380D01*
X191939502Y-97965820D01*
X191880537Y-97855506D01*
X191801185Y-97758815D01*
X191704494Y-97679463D01*
X191594180Y-97620498D01*
X191474482Y-97584188D01*
X191350000Y-97571928D01*
X189650000Y-97571928D01*
X189525518Y-97584188D01*
X189405820Y-97620498D01*
X189295506Y-97679463D01*
X189198815Y-97758815D01*
X189119463Y-97855506D01*
X189060498Y-97965820D01*
X189024188Y-98085518D01*
X189011928Y-98210000D01*
X189011928Y-99470442D01*
X189007369Y-99475001D01*
X130971544Y-99475001D01*
X131025000Y-99206260D01*
X131025000Y-98913740D01*
X130967932Y-98626842D01*
X130855990Y-98356589D01*
X130693475Y-98113368D01*
X130486632Y-97906525D01*
X130243411Y-97744010D01*
X129973158Y-97632068D01*
X129686260Y-97575000D01*
X129393740Y-97575000D01*
X129106842Y-97632068D01*
X128836589Y-97744010D01*
X128593368Y-97906525D01*
X128386525Y-98113368D01*
X128270000Y-98287760D01*
X128153475Y-98113368D01*
X127946632Y-97906525D01*
X127703411Y-97744010D01*
X127433158Y-97632068D01*
X127146260Y-97575000D01*
X126853740Y-97575000D01*
X126566842Y-97632068D01*
X126296589Y-97744010D01*
X126053368Y-97906525D01*
X125921513Y-98038380D01*
X125899502Y-97965820D01*
X125840537Y-97855506D01*
X125761185Y-97758815D01*
X125664494Y-97679463D01*
X125554180Y-97620498D01*
X125434482Y-97584188D01*
X125310000Y-97571928D01*
X123610000Y-97571928D01*
X123485518Y-97584188D01*
X123365820Y-97620498D01*
X123255506Y-97679463D01*
X123158815Y-97758815D01*
X123079463Y-97855506D01*
X123020498Y-97965820D01*
X122984188Y-98085518D01*
X122971928Y-98210000D01*
X120660000Y-98210000D01*
X120660000Y-93968188D01*
X121527598Y-93968188D01*
X121527598Y-94591578D01*
X121649215Y-95202988D01*
X121887775Y-95778925D01*
X122234112Y-96297254D01*
X122674914Y-96738056D01*
X123193243Y-97084393D01*
X123769180Y-97322953D01*
X124380590Y-97444570D01*
X125003980Y-97444570D01*
X125615390Y-97322953D01*
X126191327Y-97084393D01*
X126709656Y-96738056D01*
X127150458Y-96297254D01*
X127496795Y-95778925D01*
X127735355Y-95202988D01*
X127856972Y-94591578D01*
X127856972Y-93968188D01*
X127735355Y-93356778D01*
X127496795Y-92780841D01*
X127150458Y-92262512D01*
X126709656Y-91821710D01*
X126191327Y-91475373D01*
X125615390Y-91236813D01*
X125003980Y-91115196D01*
X124380590Y-91115196D01*
X123769180Y-91236813D01*
X123193243Y-91475373D01*
X122674914Y-91821710D01*
X122234112Y-92262512D01*
X121887775Y-92780841D01*
X121649215Y-93356778D01*
X121527598Y-93968188D01*
X120660000Y-93968188D01*
X120660000Y-90660000D01*
X199340000Y-90660000D01*
X199340001Y-109340000D01*
G37*
%TD.AperFunction*%
D14*
X187042795Y-101109744D02*
X186964774Y-101298102D01*
X186925000Y-101498061D01*
X186925000Y-101701939D01*
X186964774Y-101901898D01*
X187011623Y-102015001D01*
X130971544Y-102015001D01*
X131025000Y-101746260D01*
X131025000Y-101453740D01*
X130967932Y-101166842D01*
X130898410Y-100999001D01*
X187116791Y-100999001D01*
X187042795Y-101109744D01*
%TA.AperFunction,NonConductor*%
D15*
G36*
X187042795Y-101109744D02*
G01*
X186964774Y-101298102D01*
X186925000Y-101498061D01*
X186925000Y-101701939D01*
X186964774Y-101901898D01*
X187011623Y-102015001D01*
X130971544Y-102015001D01*
X131025000Y-101746260D01*
X131025000Y-101453740D01*
X130967932Y-101166842D01*
X130898410Y-100999001D01*
X187116791Y-100999001D01*
X187042795Y-101109744D01*
G37*
%TD.AperFunction*%
M02*
