%TF.GenerationSoftware,KiCad,Pcbnew,(5.1.12-1-10_14)*%
%TF.CreationDate,2022-04-14T08:48:01-04:00*%
%TF.ProjectId,Remove_Before_Flight,52656d6f-7665-45f4-9265-666f72655f46,rev?*%
%TF.SameCoordinates,Original*%
%TF.FileFunction,Legend,Bot*%
%TF.FilePolarity,Positive*%
%FSLAX46Y46*%
G04 Gerber Fmt 4.6, Leading zero omitted, Abs format (unit mm)*
G04 Created by KiCad (PCBNEW (5.1.12-1-10_14)) date 2022-04-14 08:48:01*
%MOMM*%
%LPD*%
G01*
G04 APERTURE LIST*
%ADD10C,0.150000*%
%ADD11C,0.500000*%
%ADD12C,0.750000*%
%ADD13C,0.120000*%
G04 APERTURE END LIST*
D10*
X120435714Y-96853809D02*
X121292857Y-96853809D01*
X121388095Y-96806190D01*
X121435714Y-96710952D01*
X121435714Y-96663333D01*
X120102380Y-96853809D02*
X120150000Y-96806190D01*
X120197619Y-96853809D01*
X120150000Y-96901428D01*
X120102380Y-96853809D01*
X120197619Y-96853809D01*
X121102380Y-97472857D02*
X121054761Y-97377619D01*
X120959523Y-97330000D01*
X120102380Y-97330000D01*
X121054761Y-98282380D02*
X121102380Y-98187142D01*
X121102380Y-97996666D01*
X121054761Y-97901428D01*
X121007142Y-97853809D01*
X120911904Y-97806190D01*
X120626190Y-97806190D01*
X120530952Y-97853809D01*
X120483333Y-97901428D01*
X120435714Y-97996666D01*
X120435714Y-98187142D01*
X120483333Y-98282380D01*
X120435714Y-98710952D02*
X121292857Y-98710952D01*
X121388095Y-98663333D01*
X121435714Y-98568095D01*
X121435714Y-98520476D01*
X120102380Y-98710952D02*
X120150000Y-98663333D01*
X120197619Y-98710952D01*
X120150000Y-98758571D01*
X120102380Y-98710952D01*
X120197619Y-98710952D01*
X121102380Y-99330000D02*
X121054761Y-99234761D01*
X120959523Y-99187142D01*
X120102380Y-99187142D01*
X121054761Y-100139523D02*
X121102380Y-100044285D01*
X121102380Y-99853809D01*
X121054761Y-99758571D01*
X121007142Y-99710952D01*
X120911904Y-99663333D01*
X120626190Y-99663333D01*
X120530952Y-99710952D01*
X120483333Y-99758571D01*
X120435714Y-99853809D01*
X120435714Y-100044285D01*
X120483333Y-100139523D01*
X120435714Y-100568095D02*
X121292857Y-100568095D01*
X121388095Y-100520476D01*
X121435714Y-100425238D01*
X121435714Y-100377619D01*
X120102380Y-100568095D02*
X120150000Y-100520476D01*
X120197619Y-100568095D01*
X120150000Y-100615714D01*
X120102380Y-100568095D01*
X120197619Y-100568095D01*
X121102380Y-101187142D02*
X121054761Y-101091904D01*
X120959523Y-101044285D01*
X120102380Y-101044285D01*
X121054761Y-101996666D02*
X121102380Y-101901428D01*
X121102380Y-101710952D01*
X121054761Y-101615714D01*
X121007142Y-101568095D01*
X120911904Y-101520476D01*
X120626190Y-101520476D01*
X120530952Y-101568095D01*
X120483333Y-101615714D01*
X120435714Y-101710952D01*
X120435714Y-101901428D01*
X120483333Y-101996666D01*
X120435714Y-102425238D02*
X121292857Y-102425238D01*
X121388095Y-102377619D01*
X121435714Y-102282380D01*
X121435714Y-102234761D01*
X120102380Y-102425238D02*
X120150000Y-102377619D01*
X120197619Y-102425238D01*
X120150000Y-102472857D01*
X120102380Y-102425238D01*
X120197619Y-102425238D01*
X121102380Y-103044285D02*
X121054761Y-102949047D01*
X120959523Y-102901428D01*
X120102380Y-102901428D01*
X121054761Y-103853809D02*
X121102380Y-103758571D01*
X121102380Y-103568095D01*
X121054761Y-103472857D01*
X121007142Y-103425238D01*
X120911904Y-103377619D01*
X120626190Y-103377619D01*
X120530952Y-103425238D01*
X120483333Y-103472857D01*
X120435714Y-103568095D01*
X120435714Y-103758571D01*
X120483333Y-103853809D01*
D11*
X198120000Y-107950000D02*
X198120000Y-91440000D01*
X121920000Y-107950000D02*
X198120000Y-107950000D01*
X121920000Y-91440000D02*
X121920000Y-107950000D01*
X198120000Y-91440000D02*
X121920000Y-91440000D01*
D12*
X184662857Y-104853809D02*
X185662857Y-100091904D01*
X186377142Y-104853809D02*
X186377142Y-94853809D01*
X185234285Y-94853809D01*
X184948571Y-95330000D01*
X184805714Y-95806190D01*
X184662857Y-96758571D01*
X184662857Y-98187142D01*
X184805714Y-99139523D01*
X184948571Y-99615714D01*
X185234285Y-100091904D01*
X186377142Y-100091904D01*
X183377142Y-99615714D02*
X182377142Y-99615714D01*
X181948571Y-104853809D02*
X183377142Y-104853809D01*
X183377142Y-94853809D01*
X181948571Y-94853809D01*
X180662857Y-104853809D02*
X180662857Y-94853809D01*
X179662857Y-101996666D01*
X178662857Y-94853809D01*
X178662857Y-104853809D01*
X176662857Y-94853809D02*
X176091428Y-94853809D01*
X175805714Y-95330000D01*
X175520000Y-96282380D01*
X175377142Y-98187142D01*
X175377142Y-101520476D01*
X175520000Y-103425238D01*
X175805714Y-104377619D01*
X176091428Y-104853809D01*
X176662857Y-104853809D01*
X176948571Y-104377619D01*
X177234285Y-103425238D01*
X177377142Y-101520476D01*
X177377142Y-98187142D01*
X177234285Y-96282380D01*
X176948571Y-95330000D01*
X176662857Y-94853809D01*
X174520000Y-94853809D02*
X173520000Y-104853809D01*
X172520000Y-94853809D01*
X171520000Y-99615714D02*
X170520000Y-99615714D01*
X170091428Y-104853809D02*
X171520000Y-104853809D01*
X171520000Y-94853809D01*
X170091428Y-94853809D01*
X165520000Y-99615714D02*
X165091428Y-100091904D01*
X164948571Y-100568095D01*
X164805714Y-101520476D01*
X164805714Y-102949047D01*
X164948571Y-103901428D01*
X165091428Y-104377619D01*
X165377142Y-104853809D01*
X166520000Y-104853809D01*
X166520000Y-94853809D01*
X165520000Y-94853809D01*
X165234285Y-95330000D01*
X165091428Y-95806190D01*
X164948571Y-96758571D01*
X164948571Y-97710952D01*
X165091428Y-98663333D01*
X165234285Y-99139523D01*
X165520000Y-99615714D01*
X166520000Y-99615714D01*
X163520000Y-99615714D02*
X162520000Y-99615714D01*
X162091428Y-104853809D02*
X163520000Y-104853809D01*
X163520000Y-94853809D01*
X162091428Y-94853809D01*
X159805714Y-99615714D02*
X160805714Y-99615714D01*
X160805714Y-104853809D02*
X160805714Y-94853809D01*
X159377142Y-94853809D01*
X157662857Y-94853809D02*
X157091428Y-94853809D01*
X156805714Y-95330000D01*
X156520000Y-96282380D01*
X156377142Y-98187142D01*
X156377142Y-101520476D01*
X156520000Y-103425238D01*
X156805714Y-104377619D01*
X157091428Y-104853809D01*
X157662857Y-104853809D01*
X157948571Y-104377619D01*
X158234285Y-103425238D01*
X158377142Y-101520476D01*
X158377142Y-98187142D01*
X158234285Y-96282380D01*
X157948571Y-95330000D01*
X157662857Y-94853809D01*
X153377142Y-104853809D02*
X154377142Y-100091904D01*
X155091428Y-104853809D02*
X155091428Y-94853809D01*
X153948571Y-94853809D01*
X153662857Y-95330000D01*
X153520000Y-95806190D01*
X153377142Y-96758571D01*
X153377142Y-98187142D01*
X153520000Y-99139523D01*
X153662857Y-99615714D01*
X153948571Y-100091904D01*
X155091428Y-100091904D01*
X152091428Y-99615714D02*
X151091428Y-99615714D01*
X150662857Y-104853809D02*
X152091428Y-104853809D01*
X152091428Y-94853809D01*
X150662857Y-94853809D01*
X146091428Y-99615714D02*
X147091428Y-99615714D01*
X147091428Y-104853809D02*
X147091428Y-94853809D01*
X145662857Y-94853809D01*
X143091428Y-104853809D02*
X144520000Y-104853809D01*
X144520000Y-94853809D01*
X142091428Y-104853809D02*
X142091428Y-94853809D01*
X139091428Y-95330000D02*
X139377142Y-94853809D01*
X139805714Y-94853809D01*
X140234285Y-95330000D01*
X140520000Y-96282380D01*
X140662857Y-97234761D01*
X140805714Y-99139523D01*
X140805714Y-100568095D01*
X140662857Y-102472857D01*
X140520000Y-103425238D01*
X140234285Y-104377619D01*
X139805714Y-104853809D01*
X139520000Y-104853809D01*
X139091428Y-104377619D01*
X138948571Y-103901428D01*
X138948571Y-100568095D01*
X139520000Y-100568095D01*
X137662857Y-104853809D02*
X137662857Y-94853809D01*
X137662857Y-99615714D02*
X135948571Y-99615714D01*
X135948571Y-104853809D02*
X135948571Y-94853809D01*
X134948571Y-94853809D02*
X133234285Y-94853809D01*
X134091428Y-104853809D02*
X134091428Y-94853809D01*
D13*
%TO.C,J1*%
X123130000Y-97730000D02*
X123130000Y-99060000D01*
X124460000Y-97730000D02*
X123130000Y-97730000D01*
X123130000Y-100330000D02*
X123130000Y-102930000D01*
X125730000Y-100330000D02*
X123130000Y-100330000D01*
X125730000Y-97730000D02*
X125730000Y-100330000D01*
X123130000Y-102930000D02*
X130870000Y-102930000D01*
X125730000Y-97730000D02*
X130870000Y-97730000D01*
X130870000Y-97730000D02*
X130870000Y-102930000D01*
%TO.C,J2*%
X196910000Y-97730000D02*
X196910000Y-102930000D01*
X191770000Y-97730000D02*
X196910000Y-97730000D01*
X189170000Y-102930000D02*
X196910000Y-102930000D01*
X191770000Y-97730000D02*
X191770000Y-100330000D01*
X191770000Y-100330000D02*
X189170000Y-100330000D01*
X189170000Y-100330000D02*
X189170000Y-102930000D01*
X190500000Y-97730000D02*
X189170000Y-97730000D01*
X189170000Y-97730000D02*
X189170000Y-99060000D01*
%TD*%
M02*
