%TF.GenerationSoftware,KiCad,Pcbnew,(5.1.12-1-10_14)*%
%TF.CreationDate,2022-04-14T08:48:01-04:00*%
%TF.ProjectId,Remove_Before_Flight,52656d6f-7665-45f4-9265-666f72655f46,rev?*%
%TF.SameCoordinates,Original*%
%TF.FileFunction,Legend,Top*%
%TF.FilePolarity,Positive*%
%FSLAX46Y46*%
G04 Gerber Fmt 4.6, Leading zero omitted, Abs format (unit mm)*
G04 Created by KiCad (PCBNEW (5.1.12-1-10_14)) date 2022-04-14 08:48:01*
%MOMM*%
%LPD*%
G01*
G04 APERTURE LIST*
%ADD10C,0.500000*%
%ADD11C,0.750000*%
G04 APERTURE END LIST*
D10*
X121920000Y-107950000D02*
X121920000Y-91440000D01*
X198120000Y-107950000D02*
X121920000Y-107950000D01*
X198120000Y-91440000D02*
X198120000Y-107950000D01*
X121920000Y-91440000D02*
X198120000Y-91440000D01*
D11*
X135377142Y-104853809D02*
X134377142Y-100091904D01*
X133662857Y-104853809D02*
X133662857Y-94853809D01*
X134805714Y-94853809D01*
X135091428Y-95330000D01*
X135234285Y-95806190D01*
X135377142Y-96758571D01*
X135377142Y-98187142D01*
X135234285Y-99139523D01*
X135091428Y-99615714D01*
X134805714Y-100091904D01*
X133662857Y-100091904D01*
X136662857Y-99615714D02*
X137662857Y-99615714D01*
X138091428Y-104853809D02*
X136662857Y-104853809D01*
X136662857Y-94853809D01*
X138091428Y-94853809D01*
X139377142Y-104853809D02*
X139377142Y-94853809D01*
X140377142Y-101996666D01*
X141377142Y-94853809D01*
X141377142Y-104853809D01*
X143377142Y-94853809D02*
X143948571Y-94853809D01*
X144234285Y-95330000D01*
X144520000Y-96282380D01*
X144662857Y-98187142D01*
X144662857Y-101520476D01*
X144520000Y-103425238D01*
X144234285Y-104377619D01*
X143948571Y-104853809D01*
X143377142Y-104853809D01*
X143091428Y-104377619D01*
X142805714Y-103425238D01*
X142662857Y-101520476D01*
X142662857Y-98187142D01*
X142805714Y-96282380D01*
X143091428Y-95330000D01*
X143377142Y-94853809D01*
X145520000Y-94853809D02*
X146520000Y-104853809D01*
X147520000Y-94853809D01*
X148520000Y-99615714D02*
X149520000Y-99615714D01*
X149948571Y-104853809D02*
X148520000Y-104853809D01*
X148520000Y-94853809D01*
X149948571Y-94853809D01*
X154519999Y-99615714D02*
X154948571Y-100091904D01*
X155091428Y-100568095D01*
X155234285Y-101520476D01*
X155234285Y-102949047D01*
X155091428Y-103901428D01*
X154948571Y-104377619D01*
X154662857Y-104853809D01*
X153519999Y-104853809D01*
X153519999Y-94853809D01*
X154519999Y-94853809D01*
X154805714Y-95330000D01*
X154948571Y-95806190D01*
X155091428Y-96758571D01*
X155091428Y-97710952D01*
X154948571Y-98663333D01*
X154805714Y-99139523D01*
X154519999Y-99615714D01*
X153519999Y-99615714D01*
X156519999Y-99615714D02*
X157519999Y-99615714D01*
X157948571Y-104853809D02*
X156519999Y-104853809D01*
X156519999Y-94853809D01*
X157948571Y-94853809D01*
X160234285Y-99615714D02*
X159234285Y-99615714D01*
X159234285Y-104853809D02*
X159234285Y-94853809D01*
X160662857Y-94853809D01*
X162377142Y-94853809D02*
X162948571Y-94853809D01*
X163234285Y-95330000D01*
X163519999Y-96282380D01*
X163662857Y-98187142D01*
X163662857Y-101520476D01*
X163519999Y-103425238D01*
X163234285Y-104377619D01*
X162948571Y-104853809D01*
X162377142Y-104853809D01*
X162091428Y-104377619D01*
X161805714Y-103425238D01*
X161662857Y-101520476D01*
X161662857Y-98187142D01*
X161805714Y-96282380D01*
X162091428Y-95330000D01*
X162377142Y-94853809D01*
X166662857Y-104853809D02*
X165662857Y-100091904D01*
X164948571Y-104853809D02*
X164948571Y-94853809D01*
X166091428Y-94853809D01*
X166377142Y-95330000D01*
X166519999Y-95806190D01*
X166662857Y-96758571D01*
X166662857Y-98187142D01*
X166519999Y-99139523D01*
X166377142Y-99615714D01*
X166091428Y-100091904D01*
X164948571Y-100091904D01*
X167948571Y-99615714D02*
X168948571Y-99615714D01*
X169377142Y-104853809D02*
X167948571Y-104853809D01*
X167948571Y-94853809D01*
X169377142Y-94853809D01*
X173948571Y-99615714D02*
X172948571Y-99615714D01*
X172948571Y-104853809D02*
X172948571Y-94853809D01*
X174377142Y-94853809D01*
X176948571Y-104853809D02*
X175520000Y-104853809D01*
X175520000Y-94853809D01*
X177948571Y-104853809D02*
X177948571Y-94853809D01*
X180948571Y-95330000D02*
X180662857Y-94853809D01*
X180234285Y-94853809D01*
X179805714Y-95330000D01*
X179519999Y-96282380D01*
X179377142Y-97234761D01*
X179234285Y-99139523D01*
X179234285Y-100568095D01*
X179377142Y-102472857D01*
X179519999Y-103425238D01*
X179805714Y-104377619D01*
X180234285Y-104853809D01*
X180519999Y-104853809D01*
X180948571Y-104377619D01*
X181091428Y-103901428D01*
X181091428Y-100568095D01*
X180519999Y-100568095D01*
X182377142Y-104853809D02*
X182377142Y-94853809D01*
X182377142Y-99615714D02*
X184091428Y-99615714D01*
X184091428Y-104853809D02*
X184091428Y-94853809D01*
X185091428Y-94853809D02*
X186805714Y-94853809D01*
X185948571Y-104853809D02*
X185948571Y-94853809D01*
M02*
