M48
; DRILL file {KiCad (6.99.0-2452-gdb4f2d9dd8)} date Friday, July 29, 2022 at 02:07:59 PM
; FORMAT={-:-/ absolute / metric / decimal}
; #@! TF.CreationDate,2022-07-29T14:07:59-05:00
; #@! TF.GenerationSoftware,Kicad,Pcbnew,(6.99.0-2452-gdb4f2d9dd8)
; #@! TF.FileFunction,Plated,1,2,PTH
FMAT,2
METRIC
; #@! TA.AperFunction,Plated,PTH,ComponentDrill
T1C1.016
%
G90
G05
T1
X115.011Y-80.291
X116.281Y-78.092
X117.211Y-81.561
X117.551Y-75.892
X118.481Y-79.362
X119.751Y-77.162
X137.1Y-115.55
X137.1Y-118.09
X137.22Y-72.41
X137.22Y-74.95
X139.64Y-115.55
X139.64Y-118.09
X139.76Y-72.41
X139.76Y-74.95
X142.18Y-115.55
X142.18Y-118.09
X142.3Y-72.41
X142.3Y-74.95
X159.695Y-77.237
X160.965Y-79.437
X161.895Y-75.967
X162.235Y-81.637
X163.165Y-78.167
X164.435Y-80.367
T0
M30
