G04 #@! TF.GenerationSoftware,KiCad,Pcbnew,(6.99.0-2452-gdb4f2d9dd8)*
G04 #@! TF.CreationDate,2022-07-29T14:07:57-05:00*
G04 #@! TF.ProjectId,VORTAC SAO Board,564f5254-4143-4205-9341-4f20426f6172,rev?*
G04 #@! TF.SameCoordinates,Original*
G04 #@! TF.FileFunction,Legend,Bot*
G04 #@! TF.FilePolarity,Positive*
%FSLAX46Y46*%
G04 Gerber Fmt 4.6, Leading zero omitted, Abs format (unit mm)*
G04 Created by KiCad (PCBNEW (6.99.0-2452-gdb4f2d9dd8)) date 2022-07-29 14:07:57*
%MOMM*%
%LPD*%
G01*
G04 APERTURE LIST*
G04 Aperture macros list*
%AMHorizOval*
0 Thick line with rounded ends*
0 $1 width*
0 $2 $3 position (X,Y) of the first rounded end (center of the circle)*
0 $4 $5 position (X,Y) of the second rounded end (center of the circle)*
0 Add line between two ends*
20,1,$1,$2,$3,$4,$5,0*
0 Add two circle primitives to create the rounded ends*
1,1,$1,$2,$3*
1,1,$1,$4,$5*%
%AMRotRect*
0 Rectangle, with rotation*
0 The origin of the aperture is its center*
0 $1 length*
0 $2 width*
0 $3 Rotation angle, in degrees counterclockwise*
0 Add horizontal line*
21,1,$1,$2,0,0,$3*%
G04 Aperture macros list end*
%ADD10C,0.150000*%
%ADD11C,0.500000*%
%ADD12C,0.300000*%
%ADD13C,0.700000*%
%ADD14R,1.727200X1.727200*%
%ADD15C,1.727200*%
%ADD16O,1.727200X1.727200*%
%ADD17RotRect,1.727200X1.727200X210.000000*%
%ADD18HorizOval,1.727200X0.000000X0.000000X0.000000X0.000000X0*%
%ADD19RotRect,1.727200X1.727200X330.000000*%
%ADD20HorizOval,1.727200X0.000000X0.000000X0.000000X0.000000X0*%
G04 APERTURE END LIST*
D10*
X159101660Y-66403233D02*
X159530232Y-67145541D01*
X159530232Y-67145541D02*
X159619090Y-67204210D01*
X159619090Y-67204210D02*
X159725378Y-67197830D01*
X159725378Y-67197830D02*
X159766617Y-67174021D01*
X158934993Y-66114558D02*
X159000042Y-66131988D01*
X159000042Y-66131988D02*
X158982612Y-66197037D01*
X158982612Y-66197037D02*
X158917564Y-66179607D01*
X158917564Y-66179607D02*
X158934993Y-66114558D01*
X158934993Y-66114558D02*
X158982612Y-66197037D01*
X158898883Y-67290107D02*
X158957552Y-67201249D01*
X158957552Y-67201249D02*
X158951172Y-67094961D01*
X158951172Y-67094961D02*
X158522601Y-66352653D01*
X158174005Y-67653630D02*
X158280293Y-67647250D01*
X158280293Y-67647250D02*
X158445250Y-67552012D01*
X158445250Y-67552012D02*
X158503919Y-67463154D01*
X158503919Y-67463154D02*
X158521349Y-67398105D01*
X158521349Y-67398105D02*
X158514969Y-67291817D01*
X158514969Y-67291817D02*
X158372112Y-67044381D01*
X158372112Y-67044381D02*
X158283254Y-66985712D01*
X158283254Y-66985712D02*
X158218205Y-66968282D01*
X158218205Y-66968282D02*
X158111917Y-66974662D01*
X158111917Y-66974662D02*
X157946960Y-67069900D01*
X157946960Y-67069900D02*
X157888290Y-67158758D01*
X157493327Y-67331805D02*
X157921899Y-68074112D01*
X157921899Y-68074112D02*
X158010757Y-68132781D01*
X158010757Y-68132781D02*
X158117045Y-68126402D01*
X158117045Y-68126402D02*
X158158284Y-68102592D01*
X157326660Y-67043130D02*
X157391709Y-67060559D01*
X157391709Y-67060559D02*
X157374279Y-67125608D01*
X157374279Y-67125608D02*
X157309231Y-67108178D01*
X157309231Y-67108178D02*
X157326660Y-67043130D01*
X157326660Y-67043130D02*
X157374279Y-67125608D01*
X157290550Y-68218679D02*
X157349219Y-68129820D01*
X157349219Y-68129820D02*
X157342839Y-68023532D01*
X157342839Y-68023532D02*
X156914268Y-67281225D01*
X156565672Y-68582201D02*
X156671960Y-68575822D01*
X156671960Y-68575822D02*
X156836917Y-68480584D01*
X156836917Y-68480584D02*
X156895586Y-68391725D01*
X156895586Y-68391725D02*
X156913016Y-68326676D01*
X156913016Y-68326676D02*
X156906636Y-68220388D01*
X156906636Y-68220388D02*
X156763779Y-67972952D01*
X156763779Y-67972952D02*
X156674921Y-67914283D01*
X156674921Y-67914283D02*
X156609872Y-67896854D01*
X156609872Y-67896854D02*
X156503584Y-67903233D01*
X156503584Y-67903233D02*
X156338627Y-67998471D01*
X156338627Y-67998471D02*
X156279957Y-68087330D01*
X155884994Y-68260376D02*
X156313566Y-69002684D01*
X156313566Y-69002684D02*
X156402424Y-69061353D01*
X156402424Y-69061353D02*
X156508712Y-69054973D01*
X156508712Y-69054973D02*
X156549951Y-69031164D01*
X155718327Y-67971701D02*
X155783376Y-67989131D01*
X155783376Y-67989131D02*
X155765946Y-68054180D01*
X155765946Y-68054180D02*
X155700898Y-68036750D01*
X155700898Y-68036750D02*
X155718327Y-67971701D01*
X155718327Y-67971701D02*
X155765946Y-68054180D01*
X155682217Y-69147250D02*
X155740886Y-69058392D01*
X155740886Y-69058392D02*
X155734506Y-68952104D01*
X155734506Y-68952104D02*
X155305935Y-68209796D01*
X154957339Y-69510773D02*
X155063627Y-69504393D01*
X155063627Y-69504393D02*
X155228584Y-69409155D01*
X155228584Y-69409155D02*
X155287253Y-69320297D01*
X155287253Y-69320297D02*
X155304683Y-69255248D01*
X155304683Y-69255248D02*
X155298303Y-69148960D01*
X155298303Y-69148960D02*
X155155446Y-68901524D01*
X155155446Y-68901524D02*
X155066588Y-68842855D01*
X155066588Y-68842855D02*
X155001539Y-68825425D01*
X155001539Y-68825425D02*
X154895251Y-68831805D01*
X154895251Y-68831805D02*
X154730294Y-68927043D01*
X154730294Y-68927043D02*
X154671624Y-69015901D01*
X154276661Y-69188948D02*
X154705232Y-69931255D01*
X154705232Y-69931255D02*
X154794091Y-69989924D01*
X154794091Y-69989924D02*
X154900379Y-69983545D01*
X154900379Y-69983545D02*
X154941618Y-69959735D01*
X154109994Y-68900273D02*
X154175043Y-68917702D01*
X154175043Y-68917702D02*
X154157613Y-68982751D01*
X154157613Y-68982751D02*
X154092565Y-68965321D01*
X154092565Y-68965321D02*
X154109994Y-68900273D01*
X154109994Y-68900273D02*
X154157613Y-68982751D01*
X154073884Y-70075822D02*
X154132553Y-69986963D01*
X154132553Y-69986963D02*
X154126173Y-69880675D01*
X154126173Y-69880675D02*
X153697602Y-69138368D01*
X153349006Y-70439344D02*
X153455294Y-70432965D01*
X153455294Y-70432965D02*
X153620251Y-70337727D01*
X153620251Y-70337727D02*
X153678920Y-70248868D01*
X153678920Y-70248868D02*
X153696350Y-70183819D01*
X153696350Y-70183819D02*
X153689970Y-70077531D01*
X153689970Y-70077531D02*
X153547113Y-69830095D01*
X153547113Y-69830095D02*
X153458255Y-69771426D01*
X153458255Y-69771426D02*
X153393206Y-69753997D01*
X153393206Y-69753997D02*
X153286918Y-69760376D01*
X153286918Y-69760376D02*
X153121961Y-69855614D01*
X153121961Y-69855614D02*
X153063291Y-69944473D01*
D11*
X144096410Y-87162316D02*
X143667838Y-87305173D01*
X143667838Y-87305173D02*
X143524981Y-87448030D01*
X143524981Y-87448030D02*
X143382124Y-87733744D01*
X143382124Y-87733744D02*
X143382124Y-88162316D01*
X143382124Y-88162316D02*
X143524981Y-88448030D01*
X143524981Y-88448030D02*
X143667838Y-88590887D01*
X143667838Y-88590887D02*
X143953553Y-88733744D01*
X143953553Y-88733744D02*
X145096410Y-88733744D01*
X145096410Y-88733744D02*
X145096410Y-85733744D01*
X145096410Y-85733744D02*
X144096410Y-85733744D01*
X144096410Y-85733744D02*
X143810696Y-85876602D01*
X143810696Y-85876602D02*
X143667838Y-86019459D01*
X143667838Y-86019459D02*
X143524981Y-86305173D01*
X143524981Y-86305173D02*
X143524981Y-86590887D01*
X143524981Y-86590887D02*
X143667838Y-86876602D01*
X143667838Y-86876602D02*
X143810696Y-87019459D01*
X143810696Y-87019459D02*
X144096410Y-87162316D01*
X144096410Y-87162316D02*
X145096410Y-87162316D01*
X140810696Y-86733744D02*
X140810696Y-88733744D01*
X142096410Y-86733744D02*
X142096410Y-88305173D01*
X142096410Y-88305173D02*
X141953553Y-88590887D01*
X141953553Y-88590887D02*
X141667838Y-88733744D01*
X141667838Y-88733744D02*
X141239267Y-88733744D01*
X141239267Y-88733744D02*
X140953553Y-88590887D01*
X140953553Y-88590887D02*
X140810696Y-88448030D01*
X139382124Y-88733744D02*
X139382124Y-86733744D01*
X139382124Y-85733744D02*
X139524981Y-85876602D01*
X139524981Y-85876602D02*
X139382124Y-86019459D01*
X139382124Y-86019459D02*
X139239267Y-85876602D01*
X139239267Y-85876602D02*
X139382124Y-85733744D01*
X139382124Y-85733744D02*
X139382124Y-86019459D01*
X137524981Y-88733744D02*
X137810696Y-88590887D01*
X137810696Y-88590887D02*
X137953553Y-88305173D01*
X137953553Y-88305173D02*
X137953553Y-85733744D01*
X135096410Y-88733744D02*
X135096410Y-85733744D01*
X135096410Y-88590887D02*
X135382124Y-88733744D01*
X135382124Y-88733744D02*
X135953552Y-88733744D01*
X135953552Y-88733744D02*
X136239267Y-88590887D01*
X136239267Y-88590887D02*
X136382124Y-88448030D01*
X136382124Y-88448030D02*
X136524981Y-88162316D01*
X136524981Y-88162316D02*
X136524981Y-87305173D01*
X136524981Y-87305173D02*
X136382124Y-87019459D01*
X136382124Y-87019459D02*
X136239267Y-86876602D01*
X136239267Y-86876602D02*
X135953552Y-86733744D01*
X135953552Y-86733744D02*
X135382124Y-86733744D01*
X135382124Y-86733744D02*
X135096410Y-86876602D01*
X146953552Y-93593744D02*
X146953552Y-90593744D01*
X145524981Y-91593744D02*
X145524981Y-93593744D01*
X145524981Y-91879459D02*
X145382124Y-91736602D01*
X145382124Y-91736602D02*
X145096409Y-91593744D01*
X145096409Y-91593744D02*
X144667838Y-91593744D01*
X144667838Y-91593744D02*
X144382124Y-91736602D01*
X144382124Y-91736602D02*
X144239267Y-92022316D01*
X144239267Y-92022316D02*
X144239267Y-93593744D01*
X142953552Y-93450887D02*
X142667838Y-93593744D01*
X142667838Y-93593744D02*
X142096409Y-93593744D01*
X142096409Y-93593744D02*
X141810695Y-93450887D01*
X141810695Y-93450887D02*
X141667838Y-93165173D01*
X141667838Y-93165173D02*
X141667838Y-93022316D01*
X141667838Y-93022316D02*
X141810695Y-92736602D01*
X141810695Y-92736602D02*
X142096409Y-92593744D01*
X142096409Y-92593744D02*
X142524981Y-92593744D01*
X142524981Y-92593744D02*
X142810695Y-92450887D01*
X142810695Y-92450887D02*
X142953552Y-92165173D01*
X142953552Y-92165173D02*
X142953552Y-92022316D01*
X142953552Y-92022316D02*
X142810695Y-91736602D01*
X142810695Y-91736602D02*
X142524981Y-91593744D01*
X142524981Y-91593744D02*
X142096409Y-91593744D01*
X142096409Y-91593744D02*
X141810695Y-91736602D01*
X140382124Y-91593744D02*
X140382124Y-94593744D01*
X140382124Y-91736602D02*
X140096410Y-91593744D01*
X140096410Y-91593744D02*
X139524981Y-91593744D01*
X139524981Y-91593744D02*
X139239267Y-91736602D01*
X139239267Y-91736602D02*
X139096410Y-91879459D01*
X139096410Y-91879459D02*
X138953552Y-92165173D01*
X138953552Y-92165173D02*
X138953552Y-93022316D01*
X138953552Y-93022316D02*
X139096410Y-93308030D01*
X139096410Y-93308030D02*
X139239267Y-93450887D01*
X139239267Y-93450887D02*
X139524981Y-93593744D01*
X139524981Y-93593744D02*
X140096410Y-93593744D01*
X140096410Y-93593744D02*
X140382124Y-93450887D01*
X137667838Y-93593744D02*
X137667838Y-91593744D01*
X137667838Y-90593744D02*
X137810695Y-90736602D01*
X137810695Y-90736602D02*
X137667838Y-90879459D01*
X137667838Y-90879459D02*
X137524981Y-90736602D01*
X137524981Y-90736602D02*
X137667838Y-90593744D01*
X137667838Y-90593744D02*
X137667838Y-90879459D01*
X136239267Y-93593744D02*
X136239267Y-91593744D01*
X136239267Y-92165173D02*
X136096410Y-91879459D01*
X136096410Y-91879459D02*
X135953553Y-91736602D01*
X135953553Y-91736602D02*
X135667838Y-91593744D01*
X135667838Y-91593744D02*
X135382124Y-91593744D01*
X133239267Y-93450887D02*
X133524981Y-93593744D01*
X133524981Y-93593744D02*
X134096410Y-93593744D01*
X134096410Y-93593744D02*
X134382124Y-93450887D01*
X134382124Y-93450887D02*
X134524981Y-93165173D01*
X134524981Y-93165173D02*
X134524981Y-92022316D01*
X134524981Y-92022316D02*
X134382124Y-91736602D01*
X134382124Y-91736602D02*
X134096410Y-91593744D01*
X134096410Y-91593744D02*
X133524981Y-91593744D01*
X133524981Y-91593744D02*
X133239267Y-91736602D01*
X133239267Y-91736602D02*
X133096410Y-92022316D01*
X133096410Y-92022316D02*
X133096410Y-92308030D01*
X133096410Y-92308030D02*
X134524981Y-92593744D01*
X148667839Y-98453744D02*
X148667839Y-95453744D01*
X148667839Y-95453744D02*
X147524982Y-95453744D01*
X147524982Y-95453744D02*
X147239267Y-95596602D01*
X147239267Y-95596602D02*
X147096410Y-95739459D01*
X147096410Y-95739459D02*
X146953553Y-96025173D01*
X146953553Y-96025173D02*
X146953553Y-96453744D01*
X146953553Y-96453744D02*
X147096410Y-96739459D01*
X147096410Y-96739459D02*
X147239267Y-96882316D01*
X147239267Y-96882316D02*
X147524982Y-97025173D01*
X147524982Y-97025173D02*
X148667839Y-97025173D01*
X145667839Y-98453744D02*
X145667839Y-96453744D01*
X145667839Y-97025173D02*
X145524982Y-96739459D01*
X145524982Y-96739459D02*
X145382125Y-96596602D01*
X145382125Y-96596602D02*
X145096410Y-96453744D01*
X145096410Y-96453744D02*
X144810696Y-96453744D01*
X143382124Y-98453744D02*
X143667839Y-98310887D01*
X143667839Y-98310887D02*
X143810696Y-98168030D01*
X143810696Y-98168030D02*
X143953553Y-97882316D01*
X143953553Y-97882316D02*
X143953553Y-97025173D01*
X143953553Y-97025173D02*
X143810696Y-96739459D01*
X143810696Y-96739459D02*
X143667839Y-96596602D01*
X143667839Y-96596602D02*
X143382124Y-96453744D01*
X143382124Y-96453744D02*
X142953553Y-96453744D01*
X142953553Y-96453744D02*
X142667839Y-96596602D01*
X142667839Y-96596602D02*
X142524982Y-96739459D01*
X142524982Y-96739459D02*
X142382124Y-97025173D01*
X142382124Y-97025173D02*
X142382124Y-97882316D01*
X142382124Y-97882316D02*
X142524982Y-98168030D01*
X142524982Y-98168030D02*
X142667839Y-98310887D01*
X142667839Y-98310887D02*
X142953553Y-98453744D01*
X142953553Y-98453744D02*
X143382124Y-98453744D01*
X141096410Y-98453744D02*
X141096410Y-96453744D01*
X141096410Y-96739459D02*
X140953553Y-96596602D01*
X140953553Y-96596602D02*
X140667838Y-96453744D01*
X140667838Y-96453744D02*
X140239267Y-96453744D01*
X140239267Y-96453744D02*
X139953553Y-96596602D01*
X139953553Y-96596602D02*
X139810696Y-96882316D01*
X139810696Y-96882316D02*
X139810696Y-98453744D01*
X139810696Y-96882316D02*
X139667838Y-96596602D01*
X139667838Y-96596602D02*
X139382124Y-96453744D01*
X139382124Y-96453744D02*
X138953553Y-96453744D01*
X138953553Y-96453744D02*
X138667838Y-96596602D01*
X138667838Y-96596602D02*
X138524981Y-96882316D01*
X138524981Y-96882316D02*
X138524981Y-98453744D01*
X136667838Y-98453744D02*
X136953553Y-98310887D01*
X136953553Y-98310887D02*
X137096410Y-98168030D01*
X137096410Y-98168030D02*
X137239267Y-97882316D01*
X137239267Y-97882316D02*
X137239267Y-97025173D01*
X137239267Y-97025173D02*
X137096410Y-96739459D01*
X137096410Y-96739459D02*
X136953553Y-96596602D01*
X136953553Y-96596602D02*
X136667838Y-96453744D01*
X136667838Y-96453744D02*
X136239267Y-96453744D01*
X136239267Y-96453744D02*
X135953553Y-96596602D01*
X135953553Y-96596602D02*
X135810696Y-96739459D01*
X135810696Y-96739459D02*
X135667838Y-97025173D01*
X135667838Y-97025173D02*
X135667838Y-97882316D01*
X135667838Y-97882316D02*
X135810696Y-98168030D01*
X135810696Y-98168030D02*
X135953553Y-98310887D01*
X135953553Y-98310887D02*
X136239267Y-98453744D01*
X136239267Y-98453744D02*
X136667838Y-98453744D01*
X134810695Y-96453744D02*
X133667838Y-96453744D01*
X134382124Y-95453744D02*
X134382124Y-98025173D01*
X134382124Y-98025173D02*
X134239267Y-98310887D01*
X134239267Y-98310887D02*
X133953552Y-98453744D01*
X133953552Y-98453744D02*
X133667838Y-98453744D01*
X131524981Y-98310887D02*
X131810695Y-98453744D01*
X131810695Y-98453744D02*
X132382124Y-98453744D01*
X132382124Y-98453744D02*
X132667838Y-98310887D01*
X132667838Y-98310887D02*
X132810695Y-98025173D01*
X132810695Y-98025173D02*
X132810695Y-96882316D01*
X132810695Y-96882316D02*
X132667838Y-96596602D01*
X132667838Y-96596602D02*
X132382124Y-96453744D01*
X132382124Y-96453744D02*
X131810695Y-96453744D01*
X131810695Y-96453744D02*
X131524981Y-96596602D01*
X131524981Y-96596602D02*
X131382124Y-96882316D01*
X131382124Y-96882316D02*
X131382124Y-97168030D01*
X131382124Y-97168030D02*
X132810695Y-97453744D01*
D10*
X132408689Y-117055087D02*
X132456308Y-117007468D01*
X132456308Y-117007468D02*
X132551546Y-116959849D01*
X132551546Y-116959849D02*
X132646784Y-116959849D01*
X132646784Y-116959849D02*
X132742022Y-117007468D01*
X132742022Y-117007468D02*
X132789641Y-117055087D01*
X132789641Y-117055087D02*
X132837260Y-117150325D01*
X132837260Y-117150325D02*
X132837260Y-117245563D01*
X132837260Y-117245563D02*
X132789641Y-117340801D01*
X132789641Y-117340801D02*
X132742022Y-117388420D01*
X132742022Y-117388420D02*
X132646784Y-117436039D01*
X132646784Y-117436039D02*
X132551546Y-117436039D01*
X132551546Y-117436039D02*
X132456308Y-117388420D01*
X132456308Y-117388420D02*
X132408689Y-117340801D01*
X132408689Y-116959849D02*
X132408689Y-117340801D01*
X132408689Y-117340801D02*
X132361070Y-117388420D01*
X132361070Y-117388420D02*
X132313451Y-117388420D01*
X132313451Y-117388420D02*
X132218212Y-117340801D01*
X132218212Y-117340801D02*
X132170593Y-117245563D01*
X132170593Y-117245563D02*
X132170593Y-117007468D01*
X132170593Y-117007468D02*
X132265832Y-116864611D01*
X132265832Y-116864611D02*
X132408689Y-116769373D01*
X132408689Y-116769373D02*
X132599165Y-116721754D01*
X132599165Y-116721754D02*
X132789641Y-116769373D01*
X132789641Y-116769373D02*
X132932498Y-116864611D01*
X132932498Y-116864611D02*
X133027736Y-117007468D01*
X133027736Y-117007468D02*
X133075355Y-117197944D01*
X133075355Y-117197944D02*
X133027736Y-117388420D01*
X133027736Y-117388420D02*
X132932498Y-117531277D01*
X132932498Y-117531277D02*
X132789641Y-117626516D01*
X132789641Y-117626516D02*
X132599165Y-117674135D01*
X132599165Y-117674135D02*
X132408689Y-117626516D01*
X132408689Y-117626516D02*
X132265832Y-117531277D01*
X131837260Y-116864611D02*
X131313451Y-116864611D01*
X131313451Y-116864611D02*
X131837260Y-117531277D01*
X131837260Y-117531277D02*
X131313451Y-117531277D01*
X130503927Y-117531277D02*
X130503927Y-117007468D01*
X130503927Y-117007468D02*
X130551546Y-116912230D01*
X130551546Y-116912230D02*
X130646784Y-116864611D01*
X130646784Y-116864611D02*
X130837260Y-116864611D01*
X130837260Y-116864611D02*
X130932498Y-116912230D01*
X130503927Y-117483658D02*
X130599165Y-117531277D01*
X130599165Y-117531277D02*
X130837260Y-117531277D01*
X130837260Y-117531277D02*
X130932498Y-117483658D01*
X130932498Y-117483658D02*
X130980117Y-117388420D01*
X130980117Y-117388420D02*
X130980117Y-117293182D01*
X130980117Y-117293182D02*
X130932498Y-117197944D01*
X130932498Y-117197944D02*
X130837260Y-117150325D01*
X130837260Y-117150325D02*
X130599165Y-117150325D01*
X130599165Y-117150325D02*
X130503927Y-117102706D01*
X130027736Y-116864611D02*
X130027736Y-117864611D01*
X130027736Y-116912230D02*
X129932498Y-116864611D01*
X129932498Y-116864611D02*
X129742022Y-116864611D01*
X129742022Y-116864611D02*
X129646784Y-116912230D01*
X129646784Y-116912230D02*
X129599165Y-116959849D01*
X129599165Y-116959849D02*
X129551546Y-117055087D01*
X129551546Y-117055087D02*
X129551546Y-117340801D01*
X129551546Y-117340801D02*
X129599165Y-117436039D01*
X129599165Y-117436039D02*
X129646784Y-117483658D01*
X129646784Y-117483658D02*
X129742022Y-117531277D01*
X129742022Y-117531277D02*
X129932498Y-117531277D01*
X129932498Y-117531277D02*
X130027736Y-117483658D01*
X129122974Y-117436039D02*
X129075355Y-117483658D01*
X129075355Y-117483658D02*
X129122974Y-117531277D01*
X129122974Y-117531277D02*
X129170593Y-117483658D01*
X129170593Y-117483658D02*
X129122974Y-117436039D01*
X129122974Y-117436039D02*
X129122974Y-117531277D01*
X129122974Y-117150325D02*
X129170593Y-116578897D01*
X129170593Y-116578897D02*
X129122974Y-116531277D01*
X129122974Y-116531277D02*
X129075355Y-116578897D01*
X129075355Y-116578897D02*
X129122974Y-117150325D01*
X129122974Y-117150325D02*
X129122974Y-116531277D01*
D12*
X153842858Y-103604761D02*
X153842858Y-102557142D01*
X153842858Y-102557142D02*
X153938096Y-102366666D01*
X153938096Y-102366666D02*
X154128572Y-102271428D01*
X154128572Y-102271428D02*
X154509525Y-102271428D01*
X154509525Y-102271428D02*
X154700001Y-102366666D01*
X153842858Y-103509523D02*
X154033334Y-103604761D01*
X154033334Y-103604761D02*
X154509525Y-103604761D01*
X154509525Y-103604761D02*
X154700001Y-103509523D01*
X154700001Y-103509523D02*
X154795239Y-103319047D01*
X154795239Y-103319047D02*
X154795239Y-103128571D01*
X154795239Y-103128571D02*
X154700001Y-102938095D01*
X154700001Y-102938095D02*
X154509525Y-102842857D01*
X154509525Y-102842857D02*
X154033334Y-102842857D01*
X154033334Y-102842857D02*
X153842858Y-102747619D01*
X152128572Y-103509523D02*
X152319048Y-103604761D01*
X152319048Y-103604761D02*
X152700001Y-103604761D01*
X152700001Y-103604761D02*
X152890477Y-103509523D01*
X152890477Y-103509523D02*
X152985715Y-103319047D01*
X152985715Y-103319047D02*
X152985715Y-102557142D01*
X152985715Y-102557142D02*
X152890477Y-102366666D01*
X152890477Y-102366666D02*
X152700001Y-102271428D01*
X152700001Y-102271428D02*
X152319048Y-102271428D01*
X152319048Y-102271428D02*
X152128572Y-102366666D01*
X152128572Y-102366666D02*
X152033334Y-102557142D01*
X152033334Y-102557142D02*
X152033334Y-102747619D01*
X152033334Y-102747619D02*
X152985715Y-102938095D01*
X151176191Y-103604761D02*
X151176191Y-102271428D01*
X151176191Y-102652380D02*
X151080953Y-102461904D01*
X151080953Y-102461904D02*
X150985715Y-102366666D01*
X150985715Y-102366666D02*
X150795239Y-102271428D01*
X150795239Y-102271428D02*
X150604762Y-102271428D01*
X149652382Y-103604761D02*
X149842858Y-103509523D01*
X149842858Y-103509523D02*
X149938096Y-103414285D01*
X149938096Y-103414285D02*
X150033334Y-103223809D01*
X150033334Y-103223809D02*
X150033334Y-102652380D01*
X150033334Y-102652380D02*
X149938096Y-102461904D01*
X149938096Y-102461904D02*
X149842858Y-102366666D01*
X149842858Y-102366666D02*
X149652382Y-102271428D01*
X149652382Y-102271428D02*
X149366667Y-102271428D01*
X149366667Y-102271428D02*
X149176191Y-102366666D01*
X149176191Y-102366666D02*
X149080953Y-102461904D01*
X149080953Y-102461904D02*
X148985715Y-102652380D01*
X148985715Y-102652380D02*
X148985715Y-103223809D01*
X148985715Y-103223809D02*
X149080953Y-103414285D01*
X149080953Y-103414285D02*
X149176191Y-103509523D01*
X149176191Y-103509523D02*
X149366667Y-103604761D01*
X149366667Y-103604761D02*
X149652382Y-103604761D01*
X148223810Y-103509523D02*
X148033334Y-103604761D01*
X148033334Y-103604761D02*
X147652382Y-103604761D01*
X147652382Y-103604761D02*
X147461905Y-103509523D01*
X147461905Y-103509523D02*
X147366667Y-103319047D01*
X147366667Y-103319047D02*
X147366667Y-103223809D01*
X147366667Y-103223809D02*
X147461905Y-103033333D01*
X147461905Y-103033333D02*
X147652382Y-102938095D01*
X147652382Y-102938095D02*
X147938096Y-102938095D01*
X147938096Y-102938095D02*
X148128572Y-102842857D01*
X148128572Y-102842857D02*
X148223810Y-102652380D01*
X148223810Y-102652380D02*
X148223810Y-102557142D01*
X148223810Y-102557142D02*
X148128572Y-102366666D01*
X148128572Y-102366666D02*
X147938096Y-102271428D01*
X147938096Y-102271428D02*
X147652382Y-102271428D01*
X147652382Y-102271428D02*
X147461905Y-102366666D01*
X146509524Y-102271428D02*
X146509524Y-104271428D01*
X146509524Y-102366666D02*
X146319048Y-102271428D01*
X146319048Y-102271428D02*
X145938095Y-102271428D01*
X145938095Y-102271428D02*
X145747619Y-102366666D01*
X145747619Y-102366666D02*
X145652381Y-102461904D01*
X145652381Y-102461904D02*
X145557143Y-102652380D01*
X145557143Y-102652380D02*
X145557143Y-103223809D01*
X145557143Y-103223809D02*
X145652381Y-103414285D01*
X145652381Y-103414285D02*
X145747619Y-103509523D01*
X145747619Y-103509523D02*
X145938095Y-103604761D01*
X145938095Y-103604761D02*
X146319048Y-103604761D01*
X146319048Y-103604761D02*
X146509524Y-103509523D01*
X143842857Y-103604761D02*
X143842857Y-102557142D01*
X143842857Y-102557142D02*
X143938095Y-102366666D01*
X143938095Y-102366666D02*
X144128571Y-102271428D01*
X144128571Y-102271428D02*
X144509524Y-102271428D01*
X144509524Y-102271428D02*
X144700000Y-102366666D01*
X143842857Y-103509523D02*
X144033333Y-103604761D01*
X144033333Y-103604761D02*
X144509524Y-103604761D01*
X144509524Y-103604761D02*
X144700000Y-103509523D01*
X144700000Y-103509523D02*
X144795238Y-103319047D01*
X144795238Y-103319047D02*
X144795238Y-103128571D01*
X144795238Y-103128571D02*
X144700000Y-102938095D01*
X144700000Y-102938095D02*
X144509524Y-102842857D01*
X144509524Y-102842857D02*
X144033333Y-102842857D01*
X144033333Y-102842857D02*
X143842857Y-102747619D01*
X142033333Y-103509523D02*
X142223809Y-103604761D01*
X142223809Y-103604761D02*
X142604762Y-103604761D01*
X142604762Y-103604761D02*
X142795238Y-103509523D01*
X142795238Y-103509523D02*
X142890476Y-103414285D01*
X142890476Y-103414285D02*
X142985714Y-103223809D01*
X142985714Y-103223809D02*
X142985714Y-102652380D01*
X142985714Y-102652380D02*
X142890476Y-102461904D01*
X142890476Y-102461904D02*
X142795238Y-102366666D01*
X142795238Y-102366666D02*
X142604762Y-102271428D01*
X142604762Y-102271428D02*
X142223809Y-102271428D01*
X142223809Y-102271428D02*
X142033333Y-102366666D01*
X140414285Y-103509523D02*
X140604761Y-103604761D01*
X140604761Y-103604761D02*
X140985714Y-103604761D01*
X140985714Y-103604761D02*
X141176190Y-103509523D01*
X141176190Y-103509523D02*
X141271428Y-103319047D01*
X141271428Y-103319047D02*
X141271428Y-102557142D01*
X141271428Y-102557142D02*
X141176190Y-102366666D01*
X141176190Y-102366666D02*
X140985714Y-102271428D01*
X140985714Y-102271428D02*
X140604761Y-102271428D01*
X140604761Y-102271428D02*
X140414285Y-102366666D01*
X140414285Y-102366666D02*
X140319047Y-102557142D01*
X140319047Y-102557142D02*
X140319047Y-102747619D01*
X140319047Y-102747619D02*
X141271428Y-102938095D01*
X139652380Y-102271428D02*
X139176190Y-103604761D01*
X139176190Y-103604761D02*
X138699999Y-102271428D01*
X137938094Y-103604761D02*
X137938094Y-102271428D01*
X137938094Y-101604761D02*
X138033332Y-101700000D01*
X138033332Y-101700000D02*
X137938094Y-101795238D01*
X137938094Y-101795238D02*
X137842856Y-101700000D01*
X137842856Y-101700000D02*
X137938094Y-101604761D01*
X137938094Y-101604761D02*
X137938094Y-101795238D01*
X136699999Y-103604761D02*
X136890475Y-103509523D01*
X136890475Y-103509523D02*
X136985713Y-103319047D01*
X136985713Y-103319047D02*
X136985713Y-101604761D01*
X135652380Y-103604761D02*
X135842856Y-103509523D01*
X135842856Y-103509523D02*
X135938094Y-103319047D01*
X135938094Y-103319047D02*
X135938094Y-101604761D01*
X134033332Y-103604761D02*
X134033332Y-102557142D01*
X134033332Y-102557142D02*
X134128570Y-102366666D01*
X134128570Y-102366666D02*
X134319046Y-102271428D01*
X134319046Y-102271428D02*
X134699999Y-102271428D01*
X134699999Y-102271428D02*
X134890475Y-102366666D01*
X134033332Y-103509523D02*
X134223808Y-103604761D01*
X134223808Y-103604761D02*
X134699999Y-103604761D01*
X134699999Y-103604761D02*
X134890475Y-103509523D01*
X134890475Y-103509523D02*
X134985713Y-103319047D01*
X134985713Y-103319047D02*
X134985713Y-103128571D01*
X134985713Y-103128571D02*
X134890475Y-102938095D01*
X134890475Y-102938095D02*
X134699999Y-102842857D01*
X134699999Y-102842857D02*
X134223808Y-102842857D01*
X134223808Y-102842857D02*
X134033332Y-102747619D01*
X132223808Y-102271428D02*
X132223808Y-103890476D01*
X132223808Y-103890476D02*
X132319046Y-104080952D01*
X132319046Y-104080952D02*
X132414284Y-104176190D01*
X132414284Y-104176190D02*
X132604761Y-104271428D01*
X132604761Y-104271428D02*
X132890475Y-104271428D01*
X132890475Y-104271428D02*
X133080951Y-104176190D01*
X132223808Y-103509523D02*
X132414284Y-103604761D01*
X132414284Y-103604761D02*
X132795237Y-103604761D01*
X132795237Y-103604761D02*
X132985713Y-103509523D01*
X132985713Y-103509523D02*
X133080951Y-103414285D01*
X133080951Y-103414285D02*
X133176189Y-103223809D01*
X133176189Y-103223809D02*
X133176189Y-102652380D01*
X133176189Y-102652380D02*
X133080951Y-102461904D01*
X133080951Y-102461904D02*
X132985713Y-102366666D01*
X132985713Y-102366666D02*
X132795237Y-102271428D01*
X132795237Y-102271428D02*
X132414284Y-102271428D01*
X132414284Y-102271428D02*
X132223808Y-102366666D01*
X130509522Y-103509523D02*
X130699998Y-103604761D01*
X130699998Y-103604761D02*
X131080951Y-103604761D01*
X131080951Y-103604761D02*
X131271427Y-103509523D01*
X131271427Y-103509523D02*
X131366665Y-103319047D01*
X131366665Y-103319047D02*
X131366665Y-102557142D01*
X131366665Y-102557142D02*
X131271427Y-102366666D01*
X131271427Y-102366666D02*
X131080951Y-102271428D01*
X131080951Y-102271428D02*
X130699998Y-102271428D01*
X130699998Y-102271428D02*
X130509522Y-102366666D01*
X130509522Y-102366666D02*
X130414284Y-102557142D01*
X130414284Y-102557142D02*
X130414284Y-102747619D01*
X130414284Y-102747619D02*
X131366665Y-102938095D01*
X129557141Y-103414285D02*
X129461903Y-103509523D01*
X129461903Y-103509523D02*
X129557141Y-103604761D01*
X129557141Y-103604761D02*
X129652379Y-103509523D01*
X129652379Y-103509523D02*
X129557141Y-103414285D01*
X129557141Y-103414285D02*
X129557141Y-103604761D01*
X128319046Y-103604761D02*
X128509522Y-103509523D01*
X128509522Y-103509523D02*
X128604760Y-103414285D01*
X128604760Y-103414285D02*
X128699998Y-103223809D01*
X128699998Y-103223809D02*
X128699998Y-102652380D01*
X128699998Y-102652380D02*
X128604760Y-102461904D01*
X128604760Y-102461904D02*
X128509522Y-102366666D01*
X128509522Y-102366666D02*
X128319046Y-102271428D01*
X128319046Y-102271428D02*
X128033331Y-102271428D01*
X128033331Y-102271428D02*
X127842855Y-102366666D01*
X127842855Y-102366666D02*
X127747617Y-102461904D01*
X127747617Y-102461904D02*
X127652379Y-102652380D01*
X127652379Y-102652380D02*
X127652379Y-103223809D01*
X127652379Y-103223809D02*
X127747617Y-103414285D01*
X127747617Y-103414285D02*
X127842855Y-103509523D01*
X127842855Y-103509523D02*
X128033331Y-103604761D01*
X128033331Y-103604761D02*
X128319046Y-103604761D01*
X126795236Y-103604761D02*
X126795236Y-102271428D01*
X126795236Y-102652380D02*
X126699998Y-102461904D01*
X126699998Y-102461904D02*
X126604760Y-102366666D01*
X126604760Y-102366666D02*
X126414284Y-102271428D01*
X126414284Y-102271428D02*
X126223807Y-102271428D01*
X124699998Y-102271428D02*
X124699998Y-103890476D01*
X124699998Y-103890476D02*
X124795236Y-104080952D01*
X124795236Y-104080952D02*
X124890474Y-104176190D01*
X124890474Y-104176190D02*
X125080951Y-104271428D01*
X125080951Y-104271428D02*
X125366665Y-104271428D01*
X125366665Y-104271428D02*
X125557141Y-104176190D01*
X124699998Y-103509523D02*
X124890474Y-103604761D01*
X124890474Y-103604761D02*
X125271427Y-103604761D01*
X125271427Y-103604761D02*
X125461903Y-103509523D01*
X125461903Y-103509523D02*
X125557141Y-103414285D01*
X125557141Y-103414285D02*
X125652379Y-103223809D01*
X125652379Y-103223809D02*
X125652379Y-102652380D01*
X125652379Y-102652380D02*
X125557141Y-102461904D01*
X125557141Y-102461904D02*
X125461903Y-102366666D01*
X125461903Y-102366666D02*
X125271427Y-102271428D01*
X125271427Y-102271428D02*
X124890474Y-102271428D01*
X124890474Y-102271428D02*
X124699998Y-102366666D01*
D10*
X140438094Y-122707380D02*
X140438094Y-121707380D01*
X140438094Y-121707380D02*
X140057142Y-121707380D01*
X140057142Y-121707380D02*
X139961904Y-121755000D01*
X139961904Y-121755000D02*
X139914285Y-121802619D01*
X139914285Y-121802619D02*
X139866666Y-121897857D01*
X139866666Y-121897857D02*
X139866666Y-122040714D01*
X139866666Y-122040714D02*
X139914285Y-122135952D01*
X139914285Y-122135952D02*
X139961904Y-122183571D01*
X139961904Y-122183571D02*
X140057142Y-122231190D01*
X140057142Y-122231190D02*
X140438094Y-122231190D01*
X138914285Y-122707380D02*
X139485713Y-122707380D01*
X139199999Y-122707380D02*
X139199999Y-121707380D01*
X139199999Y-121707380D02*
X139295237Y-121850238D01*
X139295237Y-121850238D02*
X139390475Y-121945476D01*
X139390475Y-121945476D02*
X139485713Y-121993095D01*
X137607142Y-119195250D02*
X137678571Y-119159535D01*
X137678571Y-119159535D02*
X137785713Y-119159535D01*
X137785713Y-119159535D02*
X137892856Y-119195250D01*
X137892856Y-119195250D02*
X137964285Y-119266678D01*
X137964285Y-119266678D02*
X137999999Y-119338107D01*
X137999999Y-119338107D02*
X138035713Y-119480964D01*
X138035713Y-119480964D02*
X138035713Y-119588107D01*
X138035713Y-119588107D02*
X137999999Y-119730964D01*
X137999999Y-119730964D02*
X137964285Y-119802392D01*
X137964285Y-119802392D02*
X137892856Y-119873821D01*
X137892856Y-119873821D02*
X137785713Y-119909535D01*
X137785713Y-119909535D02*
X137714285Y-119909535D01*
X137714285Y-119909535D02*
X137607142Y-119873821D01*
X137607142Y-119873821D02*
X137571428Y-119838107D01*
X137571428Y-119838107D02*
X137571428Y-119588107D01*
X137571428Y-119588107D02*
X137714285Y-119588107D01*
X137249999Y-119909535D02*
X137249999Y-119159535D01*
X137249999Y-119159535D02*
X136964285Y-119159535D01*
X136964285Y-119159535D02*
X136892856Y-119195250D01*
X136892856Y-119195250D02*
X136857142Y-119230964D01*
X136857142Y-119230964D02*
X136821428Y-119302392D01*
X136821428Y-119302392D02*
X136821428Y-119409535D01*
X136821428Y-119409535D02*
X136857142Y-119480964D01*
X136857142Y-119480964D02*
X136892856Y-119516678D01*
X136892856Y-119516678D02*
X136964285Y-119552392D01*
X136964285Y-119552392D02*
X137249999Y-119552392D01*
X136499999Y-119909535D02*
X136499999Y-119159535D01*
X135999999Y-119159535D02*
X135857142Y-119159535D01*
X135857142Y-119159535D02*
X135785713Y-119195250D01*
X135785713Y-119195250D02*
X135714285Y-119266678D01*
X135714285Y-119266678D02*
X135678570Y-119409535D01*
X135678570Y-119409535D02*
X135678570Y-119659535D01*
X135678570Y-119659535D02*
X135714285Y-119802392D01*
X135714285Y-119802392D02*
X135785713Y-119873821D01*
X135785713Y-119873821D02*
X135857142Y-119909535D01*
X135857142Y-119909535D02*
X135999999Y-119909535D01*
X135999999Y-119909535D02*
X136071428Y-119873821D01*
X136071428Y-119873821D02*
X136142856Y-119802392D01*
X136142856Y-119802392D02*
X136178570Y-119659535D01*
X136178570Y-119659535D02*
X136178570Y-119409535D01*
X136178570Y-119409535D02*
X136142856Y-119266678D01*
X136142856Y-119266678D02*
X136071428Y-119195250D01*
X136071428Y-119195250D02*
X135999999Y-119159535D01*
X134964285Y-119909535D02*
X135392856Y-119909535D01*
X135178571Y-119909535D02*
X135178571Y-119159535D01*
X135178571Y-119159535D02*
X135249999Y-119266678D01*
X135249999Y-119266678D02*
X135321428Y-119338107D01*
X135321428Y-119338107D02*
X135392856Y-119373821D01*
X143239999Y-119159535D02*
X142989999Y-119909535D01*
X142989999Y-119909535D02*
X142739999Y-119159535D01*
X142061428Y-119838107D02*
X142097142Y-119873821D01*
X142097142Y-119873821D02*
X142204285Y-119909535D01*
X142204285Y-119909535D02*
X142275713Y-119909535D01*
X142275713Y-119909535D02*
X142382856Y-119873821D01*
X142382856Y-119873821D02*
X142454285Y-119802392D01*
X142454285Y-119802392D02*
X142489999Y-119730964D01*
X142489999Y-119730964D02*
X142525713Y-119588107D01*
X142525713Y-119588107D02*
X142525713Y-119480964D01*
X142525713Y-119480964D02*
X142489999Y-119338107D01*
X142489999Y-119338107D02*
X142454285Y-119266678D01*
X142454285Y-119266678D02*
X142382856Y-119195250D01*
X142382856Y-119195250D02*
X142275713Y-119159535D01*
X142275713Y-119159535D02*
X142204285Y-119159535D01*
X142204285Y-119159535D02*
X142097142Y-119195250D01*
X142097142Y-119195250D02*
X142061428Y-119230964D01*
X141311428Y-119838107D02*
X141347142Y-119873821D01*
X141347142Y-119873821D02*
X141454285Y-119909535D01*
X141454285Y-119909535D02*
X141525713Y-119909535D01*
X141525713Y-119909535D02*
X141632856Y-119873821D01*
X141632856Y-119873821D02*
X141704285Y-119802392D01*
X141704285Y-119802392D02*
X141739999Y-119730964D01*
X141739999Y-119730964D02*
X141775713Y-119588107D01*
X141775713Y-119588107D02*
X141775713Y-119480964D01*
X141775713Y-119480964D02*
X141739999Y-119338107D01*
X141739999Y-119338107D02*
X141704285Y-119266678D01*
X141704285Y-119266678D02*
X141632856Y-119195250D01*
X141632856Y-119195250D02*
X141525713Y-119159535D01*
X141525713Y-119159535D02*
X141454285Y-119159535D01*
X141454285Y-119159535D02*
X141347142Y-119195250D01*
X141347142Y-119195250D02*
X141311428Y-119230964D01*
X140592856Y-114031821D02*
X140485714Y-114067535D01*
X140485714Y-114067535D02*
X140307142Y-114067535D01*
X140307142Y-114067535D02*
X140235714Y-114031821D01*
X140235714Y-114031821D02*
X140199999Y-113996107D01*
X140199999Y-113996107D02*
X140164285Y-113924678D01*
X140164285Y-113924678D02*
X140164285Y-113853250D01*
X140164285Y-113853250D02*
X140199999Y-113781821D01*
X140199999Y-113781821D02*
X140235714Y-113746107D01*
X140235714Y-113746107D02*
X140307142Y-113710392D01*
X140307142Y-113710392D02*
X140449999Y-113674678D01*
X140449999Y-113674678D02*
X140521428Y-113638964D01*
X140521428Y-113638964D02*
X140557142Y-113603250D01*
X140557142Y-113603250D02*
X140592856Y-113531821D01*
X140592856Y-113531821D02*
X140592856Y-113460392D01*
X140592856Y-113460392D02*
X140557142Y-113388964D01*
X140557142Y-113388964D02*
X140521428Y-113353250D01*
X140521428Y-113353250D02*
X140449999Y-113317535D01*
X140449999Y-113317535D02*
X140271428Y-113317535D01*
X140271428Y-113317535D02*
X140164285Y-113353250D01*
X139414285Y-113996107D02*
X139449999Y-114031821D01*
X139449999Y-114031821D02*
X139557142Y-114067535D01*
X139557142Y-114067535D02*
X139628570Y-114067535D01*
X139628570Y-114067535D02*
X139735713Y-114031821D01*
X139735713Y-114031821D02*
X139807142Y-113960392D01*
X139807142Y-113960392D02*
X139842856Y-113888964D01*
X139842856Y-113888964D02*
X139878570Y-113746107D01*
X139878570Y-113746107D02*
X139878570Y-113638964D01*
X139878570Y-113638964D02*
X139842856Y-113496107D01*
X139842856Y-113496107D02*
X139807142Y-113424678D01*
X139807142Y-113424678D02*
X139735713Y-113353250D01*
X139735713Y-113353250D02*
X139628570Y-113317535D01*
X139628570Y-113317535D02*
X139557142Y-113317535D01*
X139557142Y-113317535D02*
X139449999Y-113353250D01*
X139449999Y-113353250D02*
X139414285Y-113388964D01*
X138735713Y-114067535D02*
X139092856Y-114067535D01*
X139092856Y-114067535D02*
X139092856Y-113317535D01*
X142811428Y-113353250D02*
X142882857Y-113317535D01*
X142882857Y-113317535D02*
X142989999Y-113317535D01*
X142989999Y-113317535D02*
X143097142Y-113353250D01*
X143097142Y-113353250D02*
X143168571Y-113424678D01*
X143168571Y-113424678D02*
X143204285Y-113496107D01*
X143204285Y-113496107D02*
X143239999Y-113638964D01*
X143239999Y-113638964D02*
X143239999Y-113746107D01*
X143239999Y-113746107D02*
X143204285Y-113888964D01*
X143204285Y-113888964D02*
X143168571Y-113960392D01*
X143168571Y-113960392D02*
X143097142Y-114031821D01*
X143097142Y-114031821D02*
X142989999Y-114067535D01*
X142989999Y-114067535D02*
X142918571Y-114067535D01*
X142918571Y-114067535D02*
X142811428Y-114031821D01*
X142811428Y-114031821D02*
X142775714Y-113996107D01*
X142775714Y-113996107D02*
X142775714Y-113746107D01*
X142775714Y-113746107D02*
X142918571Y-113746107D01*
X142454285Y-114067535D02*
X142454285Y-113317535D01*
X142454285Y-113317535D02*
X142025714Y-114067535D01*
X142025714Y-114067535D02*
X142025714Y-113317535D01*
X141668571Y-114067535D02*
X141668571Y-113317535D01*
X141668571Y-113317535D02*
X141490000Y-113317535D01*
X141490000Y-113317535D02*
X141382857Y-113353250D01*
X141382857Y-113353250D02*
X141311428Y-113424678D01*
X141311428Y-113424678D02*
X141275714Y-113496107D01*
X141275714Y-113496107D02*
X141240000Y-113638964D01*
X141240000Y-113638964D02*
X141240000Y-113746107D01*
X141240000Y-113746107D02*
X141275714Y-113888964D01*
X141275714Y-113888964D02*
X141311428Y-113960392D01*
X141311428Y-113960392D02*
X141382857Y-114031821D01*
X141382857Y-114031821D02*
X141490000Y-114067535D01*
X141490000Y-114067535D02*
X141668571Y-114067535D01*
X137607142Y-113353250D02*
X137678571Y-113317535D01*
X137678571Y-113317535D02*
X137785713Y-113317535D01*
X137785713Y-113317535D02*
X137892856Y-113353250D01*
X137892856Y-113353250D02*
X137964285Y-113424678D01*
X137964285Y-113424678D02*
X137999999Y-113496107D01*
X137999999Y-113496107D02*
X138035713Y-113638964D01*
X138035713Y-113638964D02*
X138035713Y-113746107D01*
X138035713Y-113746107D02*
X137999999Y-113888964D01*
X137999999Y-113888964D02*
X137964285Y-113960392D01*
X137964285Y-113960392D02*
X137892856Y-114031821D01*
X137892856Y-114031821D02*
X137785713Y-114067535D01*
X137785713Y-114067535D02*
X137714285Y-114067535D01*
X137714285Y-114067535D02*
X137607142Y-114031821D01*
X137607142Y-114031821D02*
X137571428Y-113996107D01*
X137571428Y-113996107D02*
X137571428Y-113746107D01*
X137571428Y-113746107D02*
X137714285Y-113746107D01*
X137249999Y-114067535D02*
X137249999Y-113317535D01*
X137249999Y-113317535D02*
X136964285Y-113317535D01*
X136964285Y-113317535D02*
X136892856Y-113353250D01*
X136892856Y-113353250D02*
X136857142Y-113388964D01*
X136857142Y-113388964D02*
X136821428Y-113460392D01*
X136821428Y-113460392D02*
X136821428Y-113567535D01*
X136821428Y-113567535D02*
X136857142Y-113638964D01*
X136857142Y-113638964D02*
X136892856Y-113674678D01*
X136892856Y-113674678D02*
X136964285Y-113710392D01*
X136964285Y-113710392D02*
X137249999Y-113710392D01*
X136499999Y-114067535D02*
X136499999Y-113317535D01*
X135999999Y-113317535D02*
X135857142Y-113317535D01*
X135857142Y-113317535D02*
X135785713Y-113353250D01*
X135785713Y-113353250D02*
X135714285Y-113424678D01*
X135714285Y-113424678D02*
X135678570Y-113567535D01*
X135678570Y-113567535D02*
X135678570Y-113817535D01*
X135678570Y-113817535D02*
X135714285Y-113960392D01*
X135714285Y-113960392D02*
X135785713Y-114031821D01*
X135785713Y-114031821D02*
X135857142Y-114067535D01*
X135857142Y-114067535D02*
X135999999Y-114067535D01*
X135999999Y-114067535D02*
X136071428Y-114031821D01*
X136071428Y-114031821D02*
X136142856Y-113960392D01*
X136142856Y-113960392D02*
X136178570Y-113817535D01*
X136178570Y-113817535D02*
X136178570Y-113567535D01*
X136178570Y-113567535D02*
X136142856Y-113424678D01*
X136142856Y-113424678D02*
X136071428Y-113353250D01*
X136071428Y-113353250D02*
X135999999Y-113317535D01*
X135392856Y-113388964D02*
X135357142Y-113353250D01*
X135357142Y-113353250D02*
X135285714Y-113317535D01*
X135285714Y-113317535D02*
X135107142Y-113317535D01*
X135107142Y-113317535D02*
X135035714Y-113353250D01*
X135035714Y-113353250D02*
X134999999Y-113388964D01*
X134999999Y-113388964D02*
X134964285Y-113460392D01*
X134964285Y-113460392D02*
X134964285Y-113531821D01*
X134964285Y-113531821D02*
X134999999Y-113638964D01*
X134999999Y-113638964D02*
X135428571Y-114067535D01*
X135428571Y-114067535D02*
X134964285Y-114067535D01*
X140610713Y-119873821D02*
X140503571Y-119909535D01*
X140503571Y-119909535D02*
X140324999Y-119909535D01*
X140324999Y-119909535D02*
X140253571Y-119873821D01*
X140253571Y-119873821D02*
X140217856Y-119838107D01*
X140217856Y-119838107D02*
X140182142Y-119766678D01*
X140182142Y-119766678D02*
X140182142Y-119695250D01*
X140182142Y-119695250D02*
X140217856Y-119623821D01*
X140217856Y-119623821D02*
X140253571Y-119588107D01*
X140253571Y-119588107D02*
X140324999Y-119552392D01*
X140324999Y-119552392D02*
X140467856Y-119516678D01*
X140467856Y-119516678D02*
X140539285Y-119480964D01*
X140539285Y-119480964D02*
X140574999Y-119445250D01*
X140574999Y-119445250D02*
X140610713Y-119373821D01*
X140610713Y-119373821D02*
X140610713Y-119302392D01*
X140610713Y-119302392D02*
X140574999Y-119230964D01*
X140574999Y-119230964D02*
X140539285Y-119195250D01*
X140539285Y-119195250D02*
X140467856Y-119159535D01*
X140467856Y-119159535D02*
X140289285Y-119159535D01*
X140289285Y-119159535D02*
X140182142Y-119195250D01*
X139860713Y-119909535D02*
X139860713Y-119159535D01*
X139860713Y-119159535D02*
X139682142Y-119159535D01*
X139682142Y-119159535D02*
X139574999Y-119195250D01*
X139574999Y-119195250D02*
X139503570Y-119266678D01*
X139503570Y-119266678D02*
X139467856Y-119338107D01*
X139467856Y-119338107D02*
X139432142Y-119480964D01*
X139432142Y-119480964D02*
X139432142Y-119588107D01*
X139432142Y-119588107D02*
X139467856Y-119730964D01*
X139467856Y-119730964D02*
X139503570Y-119802392D01*
X139503570Y-119802392D02*
X139574999Y-119873821D01*
X139574999Y-119873821D02*
X139682142Y-119909535D01*
X139682142Y-119909535D02*
X139860713Y-119909535D01*
X139146427Y-119695250D02*
X138789285Y-119695250D01*
X139217856Y-119909535D02*
X138967856Y-119159535D01*
X138967856Y-119159535D02*
X138717856Y-119909535D01*
X166866026Y-76812899D02*
X167732051Y-76312899D01*
X167732051Y-76312899D02*
X167541575Y-75982984D01*
X167541575Y-75982984D02*
X167452717Y-75924315D01*
X167452717Y-75924315D02*
X167387668Y-75906885D01*
X167387668Y-75906885D02*
X167281380Y-75913265D01*
X167281380Y-75913265D02*
X167157662Y-75984694D01*
X167157662Y-75984694D02*
X167098993Y-76073552D01*
X167098993Y-76073552D02*
X167081563Y-76138601D01*
X167081563Y-76138601D02*
X167087943Y-76244889D01*
X167087943Y-76244889D02*
X167278419Y-76574804D01*
X167173382Y-75535732D02*
X167190812Y-75470683D01*
X167190812Y-75470683D02*
X167184432Y-75364395D01*
X167184432Y-75364395D02*
X167065384Y-75158198D01*
X167065384Y-75158198D02*
X166976526Y-75099529D01*
X166976526Y-75099529D02*
X166911477Y-75082099D01*
X166911477Y-75082099D02*
X166805189Y-75088479D01*
X166805189Y-75088479D02*
X166722710Y-75136098D01*
X166722710Y-75136098D02*
X166622802Y-75248766D01*
X166622802Y-75248766D02*
X166413645Y-76029352D01*
X166413645Y-76029352D02*
X166104121Y-75493241D01*
X167005214Y-80853719D02*
X167071858Y-80897721D01*
X167071858Y-80897721D02*
X167125430Y-80990509D01*
X167125430Y-80990509D02*
X167148072Y-81101155D01*
X167148072Y-81101155D02*
X167121927Y-81198728D01*
X167121927Y-81198728D02*
X167077925Y-81265372D01*
X167077925Y-81265372D02*
X166972064Y-81367730D01*
X166972064Y-81367730D02*
X166879276Y-81421301D01*
X166879276Y-81421301D02*
X166737701Y-81461800D01*
X166737701Y-81461800D02*
X166657985Y-81466585D01*
X166657985Y-81466585D02*
X166560411Y-81440441D01*
X166560411Y-81440441D02*
X166475911Y-81365509D01*
X166475911Y-81365509D02*
X166440196Y-81303650D01*
X166440196Y-81303650D02*
X166417554Y-81193005D01*
X166417554Y-81193005D02*
X166430627Y-81144218D01*
X166430627Y-81144218D02*
X166647133Y-81019218D01*
X166647133Y-81019218D02*
X166718562Y-81142936D01*
X166208053Y-80901567D02*
X166857572Y-80526567D01*
X166857572Y-80526567D02*
X166714715Y-80279131D01*
X166714715Y-80279131D02*
X166648072Y-80235129D01*
X166648072Y-80235129D02*
X166599285Y-80222057D01*
X166599285Y-80222057D02*
X166519569Y-80226842D01*
X166519569Y-80226842D02*
X166426780Y-80280413D01*
X166426780Y-80280413D02*
X166382779Y-80347057D01*
X166382779Y-80347057D02*
X166369706Y-80395844D01*
X166369706Y-80395844D02*
X166374491Y-80475560D01*
X166374491Y-80475560D02*
X166517348Y-80722996D01*
X165833053Y-80252048D02*
X166482572Y-79877048D01*
X166232572Y-79444035D02*
X166161144Y-79320317D01*
X166161144Y-79320317D02*
X166094500Y-79276315D01*
X166094500Y-79276315D02*
X165996927Y-79250171D01*
X165996927Y-79250171D02*
X165855352Y-79290670D01*
X165855352Y-79290670D02*
X165638845Y-79415670D01*
X165638845Y-79415670D02*
X165532985Y-79518028D01*
X165532985Y-79518028D02*
X165506840Y-79615601D01*
X165506840Y-79615601D02*
X165511625Y-79695317D01*
X165511625Y-79695317D02*
X165583053Y-79819035D01*
X165583053Y-79819035D02*
X165649697Y-79863037D01*
X165649697Y-79863037D02*
X165747270Y-79889182D01*
X165747270Y-79889182D02*
X165888845Y-79848683D01*
X165888845Y-79848683D02*
X166105352Y-79723683D01*
X166105352Y-79723683D02*
X166211212Y-79621325D01*
X166211212Y-79621325D02*
X166237357Y-79523751D01*
X166237357Y-79523751D02*
X166232572Y-79444035D01*
X165065196Y-78922081D02*
X165279482Y-79293234D01*
X165172339Y-79107657D02*
X165821858Y-78732657D01*
X165821858Y-78732657D02*
X165764784Y-78848088D01*
X165764784Y-78848088D02*
X165738639Y-78945661D01*
X165738639Y-78945661D02*
X165743424Y-79025377D01*
X158808037Y-78339791D02*
X158874681Y-78383793D01*
X158874681Y-78383793D02*
X158928253Y-78476581D01*
X158928253Y-78476581D02*
X158950895Y-78587227D01*
X158950895Y-78587227D02*
X158924750Y-78684800D01*
X158924750Y-78684800D02*
X158880748Y-78751444D01*
X158880748Y-78751444D02*
X158774887Y-78853802D01*
X158774887Y-78853802D02*
X158682099Y-78907373D01*
X158682099Y-78907373D02*
X158540524Y-78947872D01*
X158540524Y-78947872D02*
X158460808Y-78952657D01*
X158460808Y-78952657D02*
X158363234Y-78926513D01*
X158363234Y-78926513D02*
X158278734Y-78851581D01*
X158278734Y-78851581D02*
X158243019Y-78789722D01*
X158243019Y-78789722D02*
X158220377Y-78679077D01*
X158220377Y-78679077D02*
X158233450Y-78630290D01*
X158233450Y-78630290D02*
X158449956Y-78505290D01*
X158449956Y-78505290D02*
X158521385Y-78629008D01*
X158010876Y-78387639D02*
X158660395Y-78012639D01*
X158660395Y-78012639D02*
X157796591Y-78016485D01*
X157796591Y-78016485D02*
X158446110Y-77641485D01*
X157618019Y-77707191D02*
X158267538Y-77332191D01*
X158267538Y-77332191D02*
X158178253Y-77177543D01*
X158178253Y-77177543D02*
X158093752Y-77102612D01*
X158093752Y-77102612D02*
X157996179Y-77076467D01*
X157996179Y-77076467D02*
X157916462Y-77081252D01*
X157916462Y-77081252D02*
X157774887Y-77121751D01*
X157774887Y-77121751D02*
X157682099Y-77175323D01*
X157682099Y-77175323D02*
X157576238Y-77277681D01*
X157576238Y-77277681D02*
X157532236Y-77344325D01*
X157532236Y-77344325D02*
X157506092Y-77441898D01*
X157506092Y-77441898D02*
X157528734Y-77552543D01*
X157528734Y-77552543D02*
X157618019Y-77707191D01*
X164112572Y-75772087D02*
X163338053Y-75930581D01*
X163338053Y-75930581D02*
X163862572Y-75339075D01*
X162935627Y-75090700D02*
X162922554Y-75139487D01*
X162922554Y-75139487D02*
X162945196Y-75250133D01*
X162945196Y-75250133D02*
X162980911Y-75311991D01*
X162980911Y-75311991D02*
X163065411Y-75386923D01*
X163065411Y-75386923D02*
X163162985Y-75413067D01*
X163162985Y-75413067D02*
X163242701Y-75408283D01*
X163242701Y-75408283D02*
X163384276Y-75367784D01*
X163384276Y-75367784D02*
X163477064Y-75314212D01*
X163477064Y-75314212D02*
X163582925Y-75211854D01*
X163582925Y-75211854D02*
X163626927Y-75145210D01*
X163626927Y-75145210D02*
X163653072Y-75047637D01*
X163653072Y-75047637D02*
X163630430Y-74936991D01*
X163630430Y-74936991D02*
X163594715Y-74875133D01*
X163594715Y-74875133D02*
X163510214Y-74800201D01*
X163510214Y-74800201D02*
X163461428Y-74787129D01*
X162560627Y-74441181D02*
X162547554Y-74489968D01*
X162547554Y-74489968D02*
X162570196Y-74600613D01*
X162570196Y-74600613D02*
X162605911Y-74662472D01*
X162605911Y-74662472D02*
X162690411Y-74737404D01*
X162690411Y-74737404D02*
X162787985Y-74763548D01*
X162787985Y-74763548D02*
X162867701Y-74758764D01*
X162867701Y-74758764D02*
X163009276Y-74718264D01*
X163009276Y-74718264D02*
X163102064Y-74664693D01*
X163102064Y-74664693D02*
X163207925Y-74562335D01*
X163207925Y-74562335D02*
X163251927Y-74495691D01*
X163251927Y-74495691D02*
X163278072Y-74398118D01*
X163278072Y-74398118D02*
X163255430Y-74287472D01*
X163255430Y-74287472D02*
X163219715Y-74225613D01*
X163219715Y-74225613D02*
X163135214Y-74150682D01*
X163135214Y-74150682D02*
X163086428Y-74137610D01*
X164719340Y-78251612D02*
X164634839Y-78176680D01*
X164634839Y-78176680D02*
X164545553Y-78022033D01*
X164545553Y-78022033D02*
X164540769Y-77942317D01*
X164540769Y-77942317D02*
X164553841Y-77893530D01*
X164553841Y-77893530D02*
X164597843Y-77826886D01*
X164597843Y-77826886D02*
X164659702Y-77791172D01*
X164659702Y-77791172D02*
X164739418Y-77786387D01*
X164739418Y-77786387D02*
X164788204Y-77799460D01*
X164788204Y-77799460D02*
X164854848Y-77843461D01*
X164854848Y-77843461D02*
X164957206Y-77949322D01*
X164957206Y-77949322D02*
X165023850Y-77993324D01*
X165023850Y-77993324D02*
X165072637Y-78006396D01*
X165072637Y-78006396D02*
X165152353Y-78001612D01*
X165152353Y-78001612D02*
X165214212Y-77965897D01*
X165214212Y-77965897D02*
X165258213Y-77899254D01*
X165258213Y-77899254D02*
X165271286Y-77850467D01*
X165271286Y-77850467D02*
X165266501Y-77770751D01*
X165266501Y-77770751D02*
X165177215Y-77616103D01*
X165177215Y-77616103D02*
X165092714Y-77541172D01*
X164313410Y-77619949D02*
X164962929Y-77244949D01*
X164962929Y-77244949D02*
X164873644Y-77090302D01*
X164873644Y-77090302D02*
X164789143Y-77015371D01*
X164789143Y-77015371D02*
X164691570Y-76989226D01*
X164691570Y-76989226D02*
X164611853Y-76994011D01*
X164611853Y-76994011D02*
X164470278Y-77034510D01*
X164470278Y-77034510D02*
X164377490Y-77088081D01*
X164377490Y-77088081D02*
X164271629Y-77190439D01*
X164271629Y-77190439D02*
X164227627Y-77257083D01*
X164227627Y-77257083D02*
X164201483Y-77354656D01*
X164201483Y-77354656D02*
X164224125Y-77465302D01*
X164224125Y-77465302D02*
X164313410Y-77619949D01*
X164141844Y-76894217D02*
X163963273Y-76584922D01*
X163991982Y-77063219D02*
X164516501Y-76471712D01*
X164516501Y-76471712D02*
X163741982Y-76630206D01*
X161945894Y-83774719D02*
X162012538Y-83818721D01*
X162012538Y-83818721D02*
X162066110Y-83911509D01*
X162066110Y-83911509D02*
X162088752Y-84022155D01*
X162088752Y-84022155D02*
X162062607Y-84119728D01*
X162062607Y-84119728D02*
X162018605Y-84186372D01*
X162018605Y-84186372D02*
X161912744Y-84288730D01*
X161912744Y-84288730D02*
X161819956Y-84342301D01*
X161819956Y-84342301D02*
X161678381Y-84382800D01*
X161678381Y-84382800D02*
X161598665Y-84387585D01*
X161598665Y-84387585D02*
X161501091Y-84361441D01*
X161501091Y-84361441D02*
X161416591Y-84286509D01*
X161416591Y-84286509D02*
X161380876Y-84224650D01*
X161380876Y-84224650D02*
X161358234Y-84114005D01*
X161358234Y-84114005D02*
X161371307Y-84065218D01*
X161371307Y-84065218D02*
X161587813Y-83940218D01*
X161587813Y-83940218D02*
X161659242Y-84063936D01*
X161148733Y-83822567D02*
X161798252Y-83447567D01*
X161798252Y-83447567D02*
X161655395Y-83200131D01*
X161655395Y-83200131D02*
X161588752Y-83156129D01*
X161588752Y-83156129D02*
X161539965Y-83143057D01*
X161539965Y-83143057D02*
X161460249Y-83147842D01*
X161460249Y-83147842D02*
X161367460Y-83201413D01*
X161367460Y-83201413D02*
X161323459Y-83268057D01*
X161323459Y-83268057D02*
X161310386Y-83316844D01*
X161310386Y-83316844D02*
X161315171Y-83396560D01*
X161315171Y-83396560D02*
X161458028Y-83643996D01*
X160773733Y-83173048D02*
X161423252Y-82798048D01*
X161173252Y-82365035D02*
X161101824Y-82241317D01*
X161101824Y-82241317D02*
X161035180Y-82197315D01*
X161035180Y-82197315D02*
X160937607Y-82171171D01*
X160937607Y-82171171D02*
X160796032Y-82211670D01*
X160796032Y-82211670D02*
X160579525Y-82336670D01*
X160579525Y-82336670D02*
X160473665Y-82439028D01*
X160473665Y-82439028D02*
X160447520Y-82536601D01*
X160447520Y-82536601D02*
X160452305Y-82616317D01*
X160452305Y-82616317D02*
X160523733Y-82740035D01*
X160523733Y-82740035D02*
X160590377Y-82784037D01*
X160590377Y-82784037D02*
X160687950Y-82810182D01*
X160687950Y-82810182D02*
X160829525Y-82769683D01*
X160829525Y-82769683D02*
X161046032Y-82644683D01*
X161046032Y-82644683D02*
X161151892Y-82542325D01*
X161151892Y-82542325D02*
X161178037Y-82444751D01*
X161178037Y-82444751D02*
X161173252Y-82365035D01*
X160807822Y-81874949D02*
X160820894Y-81826162D01*
X160820894Y-81826162D02*
X160816110Y-81746446D01*
X160816110Y-81746446D02*
X160726824Y-81591798D01*
X160726824Y-81591798D02*
X160660180Y-81547797D01*
X160660180Y-81547797D02*
X160611394Y-81534724D01*
X160611394Y-81534724D02*
X160531677Y-81539509D01*
X160531677Y-81539509D02*
X160469818Y-81575223D01*
X160469818Y-81575223D02*
X160394887Y-81659724D01*
X160394887Y-81659724D02*
X160238019Y-82245164D01*
X160238019Y-82245164D02*
X160005876Y-81843081D01*
X159651091Y-81157147D02*
X159566591Y-81082216D01*
X159566591Y-81082216D02*
X159477305Y-80927568D01*
X159477305Y-80927568D02*
X159472520Y-80847852D01*
X159472520Y-80847852D02*
X159485592Y-80799066D01*
X159485592Y-80799066D02*
X159529594Y-80732422D01*
X159529594Y-80732422D02*
X159591453Y-80696707D01*
X159591453Y-80696707D02*
X159671169Y-80691923D01*
X159671169Y-80691923D02*
X159719956Y-80704995D01*
X159719956Y-80704995D02*
X159786600Y-80748997D01*
X159786600Y-80748997D02*
X159888958Y-80854858D01*
X159888958Y-80854858D02*
X159955601Y-80898859D01*
X159955601Y-80898859D02*
X160004388Y-80911932D01*
X160004388Y-80911932D02*
X160084104Y-80907147D01*
X160084104Y-80907147D02*
X160145963Y-80871433D01*
X160145963Y-80871433D02*
X160189965Y-80804789D01*
X160189965Y-80804789D02*
X160203037Y-80756002D01*
X160203037Y-80756002D02*
X160198252Y-80676286D01*
X160198252Y-80676286D02*
X160108967Y-80521639D01*
X160108967Y-80521639D02*
X160024466Y-80446707D01*
X159092735Y-80118617D02*
X159079663Y-80167403D01*
X159079663Y-80167403D02*
X159102305Y-80278049D01*
X159102305Y-80278049D02*
X159138019Y-80339908D01*
X159138019Y-80339908D02*
X159222520Y-80414839D01*
X159222520Y-80414839D02*
X159320093Y-80440984D01*
X159320093Y-80440984D02*
X159399809Y-80436199D01*
X159399809Y-80436199D02*
X159541384Y-80395700D01*
X159541384Y-80395700D02*
X159634173Y-80342129D01*
X159634173Y-80342129D02*
X159740034Y-80239770D01*
X159740034Y-80239770D02*
X159784035Y-80173127D01*
X159784035Y-80173127D02*
X159810180Y-80075553D01*
X159810180Y-80075553D02*
X159787538Y-79964908D01*
X159787538Y-79964908D02*
X159751824Y-79903049D01*
X159751824Y-79903049D02*
X159667323Y-79828118D01*
X159667323Y-79828118D02*
X159618536Y-79815045D01*
X158691590Y-79566671D02*
X158870162Y-79875966D01*
X158870162Y-79875966D02*
X159519681Y-79500966D01*
X140033333Y-67527380D02*
X140033333Y-68241666D01*
X140033333Y-68241666D02*
X140080952Y-68384523D01*
X140080952Y-68384523D02*
X140176190Y-68479761D01*
X140176190Y-68479761D02*
X140319047Y-68527380D01*
X140319047Y-68527380D02*
X140414285Y-68527380D01*
X139033333Y-68527380D02*
X139604761Y-68527380D01*
X139319047Y-68527380D02*
X139319047Y-67527380D01*
X139319047Y-67527380D02*
X139414285Y-67670238D01*
X139414285Y-67670238D02*
X139509523Y-67765476D01*
X139509523Y-67765476D02*
X139604761Y-67813095D01*
X144007142Y-70427250D02*
X144078571Y-70391535D01*
X144078571Y-70391535D02*
X144185713Y-70391535D01*
X144185713Y-70391535D02*
X144292856Y-70427250D01*
X144292856Y-70427250D02*
X144364285Y-70498678D01*
X144364285Y-70498678D02*
X144399999Y-70570107D01*
X144399999Y-70570107D02*
X144435713Y-70712964D01*
X144435713Y-70712964D02*
X144435713Y-70820107D01*
X144435713Y-70820107D02*
X144399999Y-70962964D01*
X144399999Y-70962964D02*
X144364285Y-71034392D01*
X144364285Y-71034392D02*
X144292856Y-71105821D01*
X144292856Y-71105821D02*
X144185713Y-71141535D01*
X144185713Y-71141535D02*
X144114285Y-71141535D01*
X144114285Y-71141535D02*
X144007142Y-71105821D01*
X144007142Y-71105821D02*
X143971428Y-71070107D01*
X143971428Y-71070107D02*
X143971428Y-70820107D01*
X143971428Y-70820107D02*
X144114285Y-70820107D01*
X143649999Y-71141535D02*
X143649999Y-70391535D01*
X143649999Y-70391535D02*
X143364285Y-70391535D01*
X143364285Y-70391535D02*
X143292856Y-70427250D01*
X143292856Y-70427250D02*
X143257142Y-70462964D01*
X143257142Y-70462964D02*
X143221428Y-70534392D01*
X143221428Y-70534392D02*
X143221428Y-70641535D01*
X143221428Y-70641535D02*
X143257142Y-70712964D01*
X143257142Y-70712964D02*
X143292856Y-70748678D01*
X143292856Y-70748678D02*
X143364285Y-70784392D01*
X143364285Y-70784392D02*
X143649999Y-70784392D01*
X142899999Y-71141535D02*
X142899999Y-70391535D01*
X142399999Y-70391535D02*
X142257142Y-70391535D01*
X142257142Y-70391535D02*
X142185713Y-70427250D01*
X142185713Y-70427250D02*
X142114285Y-70498678D01*
X142114285Y-70498678D02*
X142078570Y-70641535D01*
X142078570Y-70641535D02*
X142078570Y-70891535D01*
X142078570Y-70891535D02*
X142114285Y-71034392D01*
X142114285Y-71034392D02*
X142185713Y-71105821D01*
X142185713Y-71105821D02*
X142257142Y-71141535D01*
X142257142Y-71141535D02*
X142399999Y-71141535D01*
X142399999Y-71141535D02*
X142471428Y-71105821D01*
X142471428Y-71105821D02*
X142542856Y-71034392D01*
X142542856Y-71034392D02*
X142578570Y-70891535D01*
X142578570Y-70891535D02*
X142578570Y-70641535D01*
X142578570Y-70641535D02*
X142542856Y-70498678D01*
X142542856Y-70498678D02*
X142471428Y-70427250D01*
X142471428Y-70427250D02*
X142399999Y-70391535D01*
X141364285Y-71141535D02*
X141792856Y-71141535D01*
X141578571Y-71141535D02*
X141578571Y-70391535D01*
X141578571Y-70391535D02*
X141649999Y-70498678D01*
X141649999Y-70498678D02*
X141721428Y-70570107D01*
X141721428Y-70570107D02*
X141792856Y-70605821D01*
X137731428Y-76269250D02*
X137802857Y-76233535D01*
X137802857Y-76233535D02*
X137909999Y-76233535D01*
X137909999Y-76233535D02*
X138017142Y-76269250D01*
X138017142Y-76269250D02*
X138088571Y-76340678D01*
X138088571Y-76340678D02*
X138124285Y-76412107D01*
X138124285Y-76412107D02*
X138159999Y-76554964D01*
X138159999Y-76554964D02*
X138159999Y-76662107D01*
X138159999Y-76662107D02*
X138124285Y-76804964D01*
X138124285Y-76804964D02*
X138088571Y-76876392D01*
X138088571Y-76876392D02*
X138017142Y-76947821D01*
X138017142Y-76947821D02*
X137909999Y-76983535D01*
X137909999Y-76983535D02*
X137838571Y-76983535D01*
X137838571Y-76983535D02*
X137731428Y-76947821D01*
X137731428Y-76947821D02*
X137695714Y-76912107D01*
X137695714Y-76912107D02*
X137695714Y-76662107D01*
X137695714Y-76662107D02*
X137838571Y-76662107D01*
X137374285Y-76983535D02*
X137374285Y-76233535D01*
X137374285Y-76233535D02*
X136945714Y-76983535D01*
X136945714Y-76983535D02*
X136945714Y-76233535D01*
X136588571Y-76983535D02*
X136588571Y-76233535D01*
X136588571Y-76233535D02*
X136410000Y-76233535D01*
X136410000Y-76233535D02*
X136302857Y-76269250D01*
X136302857Y-76269250D02*
X136231428Y-76340678D01*
X136231428Y-76340678D02*
X136195714Y-76412107D01*
X136195714Y-76412107D02*
X136160000Y-76554964D01*
X136160000Y-76554964D02*
X136160000Y-76662107D01*
X136160000Y-76662107D02*
X136195714Y-76804964D01*
X136195714Y-76804964D02*
X136231428Y-76876392D01*
X136231428Y-76876392D02*
X136302857Y-76947821D01*
X136302857Y-76947821D02*
X136410000Y-76983535D01*
X136410000Y-76983535D02*
X136588571Y-76983535D01*
X144007142Y-76269250D02*
X144078571Y-76233535D01*
X144078571Y-76233535D02*
X144185713Y-76233535D01*
X144185713Y-76233535D02*
X144292856Y-76269250D01*
X144292856Y-76269250D02*
X144364285Y-76340678D01*
X144364285Y-76340678D02*
X144399999Y-76412107D01*
X144399999Y-76412107D02*
X144435713Y-76554964D01*
X144435713Y-76554964D02*
X144435713Y-76662107D01*
X144435713Y-76662107D02*
X144399999Y-76804964D01*
X144399999Y-76804964D02*
X144364285Y-76876392D01*
X144364285Y-76876392D02*
X144292856Y-76947821D01*
X144292856Y-76947821D02*
X144185713Y-76983535D01*
X144185713Y-76983535D02*
X144114285Y-76983535D01*
X144114285Y-76983535D02*
X144007142Y-76947821D01*
X144007142Y-76947821D02*
X143971428Y-76912107D01*
X143971428Y-76912107D02*
X143971428Y-76662107D01*
X143971428Y-76662107D02*
X144114285Y-76662107D01*
X143649999Y-76983535D02*
X143649999Y-76233535D01*
X143649999Y-76233535D02*
X143364285Y-76233535D01*
X143364285Y-76233535D02*
X143292856Y-76269250D01*
X143292856Y-76269250D02*
X143257142Y-76304964D01*
X143257142Y-76304964D02*
X143221428Y-76376392D01*
X143221428Y-76376392D02*
X143221428Y-76483535D01*
X143221428Y-76483535D02*
X143257142Y-76554964D01*
X143257142Y-76554964D02*
X143292856Y-76590678D01*
X143292856Y-76590678D02*
X143364285Y-76626392D01*
X143364285Y-76626392D02*
X143649999Y-76626392D01*
X142899999Y-76983535D02*
X142899999Y-76233535D01*
X142399999Y-76233535D02*
X142257142Y-76233535D01*
X142257142Y-76233535D02*
X142185713Y-76269250D01*
X142185713Y-76269250D02*
X142114285Y-76340678D01*
X142114285Y-76340678D02*
X142078570Y-76483535D01*
X142078570Y-76483535D02*
X142078570Y-76733535D01*
X142078570Y-76733535D02*
X142114285Y-76876392D01*
X142114285Y-76876392D02*
X142185713Y-76947821D01*
X142185713Y-76947821D02*
X142257142Y-76983535D01*
X142257142Y-76983535D02*
X142399999Y-76983535D01*
X142399999Y-76983535D02*
X142471428Y-76947821D01*
X142471428Y-76947821D02*
X142542856Y-76876392D01*
X142542856Y-76876392D02*
X142578570Y-76733535D01*
X142578570Y-76733535D02*
X142578570Y-76483535D01*
X142578570Y-76483535D02*
X142542856Y-76340678D01*
X142542856Y-76340678D02*
X142471428Y-76269250D01*
X142471428Y-76269250D02*
X142399999Y-76233535D01*
X141792856Y-76304964D02*
X141757142Y-76269250D01*
X141757142Y-76269250D02*
X141685714Y-76233535D01*
X141685714Y-76233535D02*
X141507142Y-76233535D01*
X141507142Y-76233535D02*
X141435714Y-76269250D01*
X141435714Y-76269250D02*
X141399999Y-76304964D01*
X141399999Y-76304964D02*
X141364285Y-76376392D01*
X141364285Y-76376392D02*
X141364285Y-76447821D01*
X141364285Y-76447821D02*
X141399999Y-76554964D01*
X141399999Y-76554964D02*
X141828571Y-76983535D01*
X141828571Y-76983535D02*
X141364285Y-76983535D01*
X138159999Y-70391535D02*
X137909999Y-71141535D01*
X137909999Y-71141535D02*
X137659999Y-70391535D01*
X136981428Y-71070107D02*
X137017142Y-71105821D01*
X137017142Y-71105821D02*
X137124285Y-71141535D01*
X137124285Y-71141535D02*
X137195713Y-71141535D01*
X137195713Y-71141535D02*
X137302856Y-71105821D01*
X137302856Y-71105821D02*
X137374285Y-71034392D01*
X137374285Y-71034392D02*
X137409999Y-70962964D01*
X137409999Y-70962964D02*
X137445713Y-70820107D01*
X137445713Y-70820107D02*
X137445713Y-70712964D01*
X137445713Y-70712964D02*
X137409999Y-70570107D01*
X137409999Y-70570107D02*
X137374285Y-70498678D01*
X137374285Y-70498678D02*
X137302856Y-70427250D01*
X137302856Y-70427250D02*
X137195713Y-70391535D01*
X137195713Y-70391535D02*
X137124285Y-70391535D01*
X137124285Y-70391535D02*
X137017142Y-70427250D01*
X137017142Y-70427250D02*
X136981428Y-70462964D01*
X136231428Y-71070107D02*
X136267142Y-71105821D01*
X136267142Y-71105821D02*
X136374285Y-71141535D01*
X136374285Y-71141535D02*
X136445713Y-71141535D01*
X136445713Y-71141535D02*
X136552856Y-71105821D01*
X136552856Y-71105821D02*
X136624285Y-71034392D01*
X136624285Y-71034392D02*
X136659999Y-70962964D01*
X136659999Y-70962964D02*
X136695713Y-70820107D01*
X136695713Y-70820107D02*
X136695713Y-70712964D01*
X136695713Y-70712964D02*
X136659999Y-70570107D01*
X136659999Y-70570107D02*
X136624285Y-70498678D01*
X136624285Y-70498678D02*
X136552856Y-70427250D01*
X136552856Y-70427250D02*
X136445713Y-70391535D01*
X136445713Y-70391535D02*
X136374285Y-70391535D01*
X136374285Y-70391535D02*
X136267142Y-70427250D01*
X136267142Y-70427250D02*
X136231428Y-70462964D01*
X140592856Y-76947821D02*
X140485714Y-76983535D01*
X140485714Y-76983535D02*
X140307142Y-76983535D01*
X140307142Y-76983535D02*
X140235714Y-76947821D01*
X140235714Y-76947821D02*
X140199999Y-76912107D01*
X140199999Y-76912107D02*
X140164285Y-76840678D01*
X140164285Y-76840678D02*
X140164285Y-76769250D01*
X140164285Y-76769250D02*
X140199999Y-76697821D01*
X140199999Y-76697821D02*
X140235714Y-76662107D01*
X140235714Y-76662107D02*
X140307142Y-76626392D01*
X140307142Y-76626392D02*
X140449999Y-76590678D01*
X140449999Y-76590678D02*
X140521428Y-76554964D01*
X140521428Y-76554964D02*
X140557142Y-76519250D01*
X140557142Y-76519250D02*
X140592856Y-76447821D01*
X140592856Y-76447821D02*
X140592856Y-76376392D01*
X140592856Y-76376392D02*
X140557142Y-76304964D01*
X140557142Y-76304964D02*
X140521428Y-76269250D01*
X140521428Y-76269250D02*
X140449999Y-76233535D01*
X140449999Y-76233535D02*
X140271428Y-76233535D01*
X140271428Y-76233535D02*
X140164285Y-76269250D01*
X139414285Y-76912107D02*
X139449999Y-76947821D01*
X139449999Y-76947821D02*
X139557142Y-76983535D01*
X139557142Y-76983535D02*
X139628570Y-76983535D01*
X139628570Y-76983535D02*
X139735713Y-76947821D01*
X139735713Y-76947821D02*
X139807142Y-76876392D01*
X139807142Y-76876392D02*
X139842856Y-76804964D01*
X139842856Y-76804964D02*
X139878570Y-76662107D01*
X139878570Y-76662107D02*
X139878570Y-76554964D01*
X139878570Y-76554964D02*
X139842856Y-76412107D01*
X139842856Y-76412107D02*
X139807142Y-76340678D01*
X139807142Y-76340678D02*
X139735713Y-76269250D01*
X139735713Y-76269250D02*
X139628570Y-76233535D01*
X139628570Y-76233535D02*
X139557142Y-76233535D01*
X139557142Y-76233535D02*
X139449999Y-76269250D01*
X139449999Y-76269250D02*
X139414285Y-76304964D01*
X138735713Y-76983535D02*
X139092856Y-76983535D01*
X139092856Y-76983535D02*
X139092856Y-76233535D01*
X140610713Y-71105821D02*
X140503571Y-71141535D01*
X140503571Y-71141535D02*
X140324999Y-71141535D01*
X140324999Y-71141535D02*
X140253571Y-71105821D01*
X140253571Y-71105821D02*
X140217856Y-71070107D01*
X140217856Y-71070107D02*
X140182142Y-70998678D01*
X140182142Y-70998678D02*
X140182142Y-70927250D01*
X140182142Y-70927250D02*
X140217856Y-70855821D01*
X140217856Y-70855821D02*
X140253571Y-70820107D01*
X140253571Y-70820107D02*
X140324999Y-70784392D01*
X140324999Y-70784392D02*
X140467856Y-70748678D01*
X140467856Y-70748678D02*
X140539285Y-70712964D01*
X140539285Y-70712964D02*
X140574999Y-70677250D01*
X140574999Y-70677250D02*
X140610713Y-70605821D01*
X140610713Y-70605821D02*
X140610713Y-70534392D01*
X140610713Y-70534392D02*
X140574999Y-70462964D01*
X140574999Y-70462964D02*
X140539285Y-70427250D01*
X140539285Y-70427250D02*
X140467856Y-70391535D01*
X140467856Y-70391535D02*
X140289285Y-70391535D01*
X140289285Y-70391535D02*
X140182142Y-70427250D01*
X139860713Y-71141535D02*
X139860713Y-70391535D01*
X139860713Y-70391535D02*
X139682142Y-70391535D01*
X139682142Y-70391535D02*
X139574999Y-70427250D01*
X139574999Y-70427250D02*
X139503570Y-70498678D01*
X139503570Y-70498678D02*
X139467856Y-70570107D01*
X139467856Y-70570107D02*
X139432142Y-70712964D01*
X139432142Y-70712964D02*
X139432142Y-70820107D01*
X139432142Y-70820107D02*
X139467856Y-70962964D01*
X139467856Y-70962964D02*
X139503570Y-71034392D01*
X139503570Y-71034392D02*
X139574999Y-71105821D01*
X139574999Y-71105821D02*
X139682142Y-71141535D01*
X139682142Y-71141535D02*
X139860713Y-71141535D01*
X139146427Y-70927250D02*
X138789285Y-70927250D01*
X139217856Y-71141535D02*
X138967856Y-70391535D01*
X138967856Y-70391535D02*
X138717856Y-71141535D01*
X113257693Y-75563121D02*
X112391668Y-75063121D01*
X112391668Y-75063121D02*
X112201192Y-75393036D01*
X112201192Y-75393036D02*
X112194812Y-75499324D01*
X112194812Y-75499324D02*
X112212242Y-75564373D01*
X112212242Y-75564373D02*
X112270911Y-75653231D01*
X112270911Y-75653231D02*
X112394629Y-75724659D01*
X112394629Y-75724659D02*
X112500917Y-75731039D01*
X112500917Y-75731039D02*
X112565966Y-75713609D01*
X112565966Y-75713609D02*
X112654824Y-75654940D01*
X112654824Y-75654940D02*
X112845300Y-75325026D01*
X111939287Y-75846668D02*
X111629763Y-76382779D01*
X111629763Y-76382779D02*
X112126344Y-76284580D01*
X112126344Y-76284580D02*
X112054915Y-76408298D01*
X112054915Y-76408298D02*
X112048536Y-76514586D01*
X112048536Y-76514586D02*
X112065966Y-76579635D01*
X112065966Y-76579635D02*
X112124635Y-76668493D01*
X112124635Y-76668493D02*
X112330831Y-76787541D01*
X112330831Y-76787541D02*
X112437119Y-76793921D01*
X112437119Y-76793921D02*
X112502168Y-76776491D01*
X112502168Y-76776491D02*
X112591026Y-76717822D01*
X112591026Y-76717822D02*
X112733884Y-76470386D01*
X112733884Y-76470386D02*
X112740263Y-76364098D01*
X112740263Y-76364098D02*
X112722834Y-76299049D01*
X115576998Y-76702849D02*
X115554356Y-76813494D01*
X115554356Y-76813494D02*
X115465070Y-76968142D01*
X115465070Y-76968142D02*
X115398426Y-77012144D01*
X115398426Y-77012144D02*
X115349640Y-77025216D01*
X115349640Y-77025216D02*
X115269924Y-77020431D01*
X115269924Y-77020431D02*
X115208065Y-76984717D01*
X115208065Y-76984717D02*
X115164063Y-76918073D01*
X115164063Y-76918073D02*
X115150991Y-76869287D01*
X115150991Y-76869287D02*
X115155775Y-76789570D01*
X115155775Y-76789570D02*
X115196275Y-76647995D01*
X115196275Y-76647995D02*
X115201059Y-76568279D01*
X115201059Y-76568279D02*
X115187987Y-76519493D01*
X115187987Y-76519493D02*
X115143985Y-76452849D01*
X115143985Y-76452849D02*
X115082126Y-76417135D01*
X115082126Y-76417135D02*
X115002410Y-76412350D01*
X115002410Y-76412350D02*
X114953623Y-76425422D01*
X114953623Y-76425422D02*
X114886980Y-76469424D01*
X114886980Y-76469424D02*
X114797694Y-76624071D01*
X114797694Y-76624071D02*
X114775052Y-76734717D01*
X115232927Y-77370225D02*
X114583408Y-76995225D01*
X114583408Y-76995225D02*
X114494122Y-77149873D01*
X114494122Y-77149873D02*
X114471480Y-77260518D01*
X114471480Y-77260518D02*
X114497625Y-77358092D01*
X114497625Y-77358092D02*
X114541627Y-77424735D01*
X114541627Y-77424735D02*
X114647488Y-77527093D01*
X114647488Y-77527093D02*
X114740276Y-77580665D01*
X114740276Y-77580665D02*
X114881851Y-77621164D01*
X114881851Y-77621164D02*
X114961567Y-77625949D01*
X114961567Y-77625949D02*
X115059141Y-77599804D01*
X115059141Y-77599804D02*
X115143641Y-77524873D01*
X115143641Y-77524873D02*
X115232927Y-77370225D01*
X114690207Y-77881672D02*
X114511636Y-78190967D01*
X114911499Y-77926956D02*
X114136980Y-77768462D01*
X114136980Y-77768462D02*
X114661499Y-78359969D01*
X118609015Y-81778098D02*
X118613800Y-81698382D01*
X118613800Y-81698382D02*
X118667371Y-81605593D01*
X118667371Y-81605593D02*
X118751872Y-81530662D01*
X118751872Y-81530662D02*
X118849445Y-81504517D01*
X118849445Y-81504517D02*
X118929162Y-81509302D01*
X118929162Y-81509302D02*
X119070737Y-81549801D01*
X119070737Y-81549801D02*
X119163525Y-81603373D01*
X119163525Y-81603373D02*
X119269386Y-81705731D01*
X119269386Y-81705731D02*
X119313388Y-81772375D01*
X119313388Y-81772375D02*
X119339532Y-81869948D01*
X119339532Y-81869948D02*
X119316890Y-81980593D01*
X119316890Y-81980593D02*
X119281176Y-82042452D01*
X119281176Y-82042452D02*
X119196675Y-82117384D01*
X119196675Y-82117384D02*
X119147889Y-82130456D01*
X119147889Y-82130456D02*
X118931382Y-82005456D01*
X118931382Y-82005456D02*
X119002811Y-81881738D01*
X119049033Y-82444536D02*
X118399514Y-82069536D01*
X118399514Y-82069536D02*
X118834747Y-82815689D01*
X118834747Y-82815689D02*
X118185228Y-82440689D01*
X118656176Y-83124984D02*
X118006657Y-82749984D01*
X118006657Y-82749984D02*
X117917371Y-82904631D01*
X117917371Y-82904631D02*
X117894729Y-83015277D01*
X117894729Y-83015277D02*
X117920874Y-83112850D01*
X117920874Y-83112850D02*
X117964876Y-83179494D01*
X117964876Y-83179494D02*
X118070737Y-83281852D01*
X118070737Y-83281852D02*
X118163525Y-83335423D01*
X118163525Y-83335423D02*
X118305100Y-83375922D01*
X118305100Y-83375922D02*
X118384816Y-83380707D01*
X118384816Y-83380707D02*
X118482390Y-83354563D01*
X118482390Y-83354563D02*
X118566890Y-83279631D01*
X118566890Y-83279631D02*
X118656176Y-83124984D01*
X116687552Y-73422170D02*
X116692337Y-73342454D01*
X116692337Y-73342454D02*
X116745908Y-73249665D01*
X116745908Y-73249665D02*
X116830409Y-73174734D01*
X116830409Y-73174734D02*
X116927982Y-73148590D01*
X116927982Y-73148590D02*
X117007699Y-73153374D01*
X117007699Y-73153374D02*
X117149274Y-73193873D01*
X117149274Y-73193873D02*
X117242062Y-73247445D01*
X117242062Y-73247445D02*
X117347923Y-73349803D01*
X117347923Y-73349803D02*
X117391925Y-73416447D01*
X117391925Y-73416447D02*
X117418069Y-73514020D01*
X117418069Y-73514020D02*
X117395427Y-73624665D01*
X117395427Y-73624665D02*
X117359713Y-73686524D01*
X117359713Y-73686524D02*
X117275212Y-73761456D01*
X117275212Y-73761456D02*
X117226426Y-73774528D01*
X117226426Y-73774528D02*
X117009919Y-73649528D01*
X117009919Y-73649528D02*
X117081348Y-73525810D01*
X117127570Y-74088608D02*
X116478051Y-73713608D01*
X116478051Y-73713608D02*
X116335194Y-73961044D01*
X116335194Y-73961044D02*
X116330409Y-74040760D01*
X116330409Y-74040760D02*
X116343482Y-74089546D01*
X116343482Y-74089546D02*
X116387483Y-74156190D01*
X116387483Y-74156190D02*
X116480272Y-74209761D01*
X116480272Y-74209761D02*
X116559988Y-74214546D01*
X116559988Y-74214546D02*
X116608775Y-74201474D01*
X116608775Y-74201474D02*
X116675418Y-74157472D01*
X116675418Y-74157472D02*
X116818275Y-73910036D01*
X116752570Y-74738127D02*
X116103051Y-74363127D01*
X115853051Y-74796140D02*
X115781623Y-74919857D01*
X115781623Y-74919857D02*
X115776838Y-74999574D01*
X115776838Y-74999574D02*
X115802982Y-75097147D01*
X115802982Y-75097147D02*
X115908843Y-75199505D01*
X115908843Y-75199505D02*
X116125350Y-75324505D01*
X116125350Y-75324505D02*
X116266925Y-75365004D01*
X116266925Y-75365004D02*
X116364498Y-75338859D01*
X116364498Y-75338859D02*
X116431142Y-75294857D01*
X116431142Y-75294857D02*
X116502570Y-75171140D01*
X116502570Y-75171140D02*
X116507355Y-75091423D01*
X116507355Y-75091423D02*
X116481210Y-74993850D01*
X116481210Y-74993850D02*
X116375350Y-74891492D01*
X116375350Y-74891492D02*
X116158843Y-74766492D01*
X116158843Y-74766492D02*
X116017268Y-74725993D01*
X116017268Y-74725993D02*
X115919695Y-74752138D01*
X115919695Y-74752138D02*
X115853051Y-74796140D01*
X115984713Y-76068094D02*
X116198999Y-75696940D01*
X116091856Y-75882517D02*
X115442337Y-75507517D01*
X115442337Y-75507517D02*
X115570840Y-75499230D01*
X115570840Y-75499230D02*
X115668413Y-75473085D01*
X115668413Y-75473085D02*
X115735057Y-75429083D01*
X113733051Y-78468087D02*
X114257570Y-79059594D01*
X114257570Y-79059594D02*
X113483051Y-78901100D01*
X113731426Y-79828046D02*
X113780212Y-79814974D01*
X113780212Y-79814974D02*
X113864713Y-79740042D01*
X113864713Y-79740042D02*
X113900427Y-79678183D01*
X113900427Y-79678183D02*
X113923069Y-79567538D01*
X113923069Y-79567538D02*
X113896925Y-79469964D01*
X113896925Y-79469964D02*
X113852923Y-79403321D01*
X113852923Y-79403321D02*
X113747062Y-79300963D01*
X113747062Y-79300963D02*
X113654274Y-79247391D01*
X113654274Y-79247391D02*
X113512699Y-79206892D01*
X113512699Y-79206892D02*
X113432982Y-79202107D01*
X113432982Y-79202107D02*
X113335409Y-79228252D01*
X113335409Y-79228252D02*
X113250908Y-79303183D01*
X113250908Y-79303183D02*
X113215194Y-79365042D01*
X113215194Y-79365042D02*
X113192552Y-79475688D01*
X113192552Y-79475688D02*
X113205624Y-79524474D01*
X113356426Y-80477565D02*
X113405212Y-80464493D01*
X113405212Y-80464493D02*
X113489713Y-80389561D01*
X113489713Y-80389561D02*
X113525427Y-80327702D01*
X113525427Y-80327702D02*
X113548069Y-80217057D01*
X113548069Y-80217057D02*
X113521925Y-80119483D01*
X113521925Y-80119483D02*
X113477923Y-80052840D01*
X113477923Y-80052840D02*
X113372062Y-79950482D01*
X113372062Y-79950482D02*
X113279274Y-79896910D01*
X113279274Y-79896910D02*
X113137699Y-79856411D01*
X113137699Y-79856411D02*
X113057982Y-79851626D01*
X113057982Y-79851626D02*
X112960409Y-79877771D01*
X112960409Y-79877771D02*
X112875908Y-79952702D01*
X112875908Y-79952702D02*
X112840194Y-80014561D01*
X112840194Y-80014561D02*
X112817552Y-80125207D01*
X112817552Y-80125207D02*
X112830624Y-80173993D01*
X120627389Y-79639313D02*
X120604747Y-79749959D01*
X120604747Y-79749959D02*
X120515462Y-79904606D01*
X120515462Y-79904606D02*
X120448818Y-79948608D01*
X120448818Y-79948608D02*
X120400031Y-79961681D01*
X120400031Y-79961681D02*
X120320315Y-79956896D01*
X120320315Y-79956896D02*
X120258456Y-79921182D01*
X120258456Y-79921182D02*
X120214454Y-79854538D01*
X120214454Y-79854538D02*
X120201382Y-79805751D01*
X120201382Y-79805751D02*
X120206167Y-79726035D01*
X120206167Y-79726035D02*
X120246666Y-79584460D01*
X120246666Y-79584460D02*
X120251451Y-79504744D01*
X120251451Y-79504744D02*
X120238378Y-79455957D01*
X120238378Y-79455957D02*
X120194377Y-79389313D01*
X120194377Y-79389313D02*
X120132518Y-79353599D01*
X120132518Y-79353599D02*
X120052802Y-79348814D01*
X120052802Y-79348814D02*
X120004015Y-79361887D01*
X120004015Y-79361887D02*
X119937371Y-79405889D01*
X119937371Y-79405889D02*
X119848086Y-79560536D01*
X119848086Y-79560536D02*
X119825444Y-79671182D01*
X120007174Y-80642129D02*
X120055961Y-80629057D01*
X120055961Y-80629057D02*
X120140462Y-80554126D01*
X120140462Y-80554126D02*
X120176176Y-80492267D01*
X120176176Y-80492267D02*
X120198818Y-80381621D01*
X120198818Y-80381621D02*
X120172673Y-80284048D01*
X120172673Y-80284048D02*
X120128671Y-80217404D01*
X120128671Y-80217404D02*
X120022811Y-80115046D01*
X120022811Y-80115046D02*
X119930022Y-80061475D01*
X119930022Y-80061475D02*
X119788447Y-80020976D01*
X119788447Y-80020976D02*
X119708731Y-80016191D01*
X119708731Y-80016191D02*
X119611158Y-80042336D01*
X119611158Y-80042336D02*
X119526657Y-80117267D01*
X119526657Y-80117267D02*
X119490943Y-80179126D01*
X119490943Y-80179126D02*
X119468301Y-80289771D01*
X119468301Y-80289771D02*
X119481373Y-80338558D01*
X119729747Y-81265504D02*
X119908319Y-80956209D01*
X119908319Y-80956209D02*
X119258800Y-80581209D01*
X121746872Y-76343170D02*
X121751657Y-76263454D01*
X121751657Y-76263454D02*
X121805228Y-76170665D01*
X121805228Y-76170665D02*
X121889729Y-76095734D01*
X121889729Y-76095734D02*
X121987302Y-76069590D01*
X121987302Y-76069590D02*
X122067019Y-76074374D01*
X122067019Y-76074374D02*
X122208594Y-76114873D01*
X122208594Y-76114873D02*
X122301382Y-76168445D01*
X122301382Y-76168445D02*
X122407243Y-76270803D01*
X122407243Y-76270803D02*
X122451245Y-76337447D01*
X122451245Y-76337447D02*
X122477389Y-76435020D01*
X122477389Y-76435020D02*
X122454747Y-76545665D01*
X122454747Y-76545665D02*
X122419033Y-76607524D01*
X122419033Y-76607524D02*
X122334532Y-76682456D01*
X122334532Y-76682456D02*
X122285746Y-76695528D01*
X122285746Y-76695528D02*
X122069239Y-76570528D01*
X122069239Y-76570528D02*
X122140668Y-76446810D01*
X122186890Y-77009608D02*
X121537371Y-76634608D01*
X121537371Y-76634608D02*
X121394514Y-76882044D01*
X121394514Y-76882044D02*
X121389729Y-76961760D01*
X121389729Y-76961760D02*
X121402802Y-77010546D01*
X121402802Y-77010546D02*
X121446803Y-77077190D01*
X121446803Y-77077190D02*
X121539592Y-77130761D01*
X121539592Y-77130761D02*
X121619308Y-77135546D01*
X121619308Y-77135546D02*
X121668095Y-77122474D01*
X121668095Y-77122474D02*
X121734738Y-77078472D01*
X121734738Y-77078472D02*
X121877595Y-76831036D01*
X121811890Y-77659127D02*
X121162371Y-77284127D01*
X120912371Y-77717140D02*
X120840943Y-77840857D01*
X120840943Y-77840857D02*
X120836158Y-77920574D01*
X120836158Y-77920574D02*
X120862302Y-78018147D01*
X120862302Y-78018147D02*
X120968163Y-78120505D01*
X120968163Y-78120505D02*
X121184670Y-78245505D01*
X121184670Y-78245505D02*
X121326245Y-78286004D01*
X121326245Y-78286004D02*
X121423818Y-78259859D01*
X121423818Y-78259859D02*
X121490462Y-78215857D01*
X121490462Y-78215857D02*
X121561890Y-78092140D01*
X121561890Y-78092140D02*
X121566675Y-78012423D01*
X121566675Y-78012423D02*
X121540530Y-77914850D01*
X121540530Y-77914850D02*
X121434670Y-77812492D01*
X121434670Y-77812492D02*
X121218163Y-77687492D01*
X121218163Y-77687492D02*
X121076588Y-77646993D01*
X121076588Y-77646993D02*
X120979015Y-77673138D01*
X120979015Y-77673138D02*
X120912371Y-77717140D01*
X120670659Y-78278655D02*
X120621872Y-78291727D01*
X120621872Y-78291727D02*
X120555228Y-78335729D01*
X120555228Y-78335729D02*
X120465943Y-78490376D01*
X120465943Y-78490376D02*
X120461158Y-78570092D01*
X120461158Y-78570092D02*
X120474230Y-78618879D01*
X120474230Y-78618879D02*
X120518232Y-78685523D01*
X120518232Y-78685523D02*
X120580091Y-78721237D01*
X120580091Y-78721237D02*
X120690737Y-78743879D01*
X120690737Y-78743879D02*
X121276176Y-78587011D01*
X121276176Y-78587011D02*
X121044033Y-78989094D01*
D13*
X132334000Y-69596000D02*
X132334000Y-77978000D01*
X132334000Y-77978000D02*
X147066000Y-77978000D01*
X137160000Y-69596000D02*
X132334000Y-69596000D01*
X146979640Y-69545200D02*
X142240000Y-69545200D01*
X147066000Y-77978000D02*
X147066000Y-69596000D01*
%LPC*%
D14*
X142179999Y-118089999D03*
D15*
X142180000Y-115550000D03*
D16*
X139639999Y-118089999D03*
X139639999Y-115549999D03*
D15*
X137100000Y-118090000D03*
X137100000Y-115550000D03*
D17*
X161894531Y-75967256D03*
D15*
X159694827Y-77237257D03*
D18*
X163164531Y-78166961D03*
X160964826Y-79436961D03*
D15*
X164434532Y-80366666D03*
X162234827Y-81636666D03*
D14*
X137219999Y-72409999D03*
D15*
X137220000Y-74950000D03*
D16*
X139759999Y-72409999D03*
X139759999Y-74949999D03*
D15*
X142300000Y-72410000D03*
X142300000Y-74950000D03*
D19*
X115011092Y-80291382D03*
D15*
X117210798Y-81561383D03*
D20*
X116281092Y-78091677D03*
X118480797Y-79361677D03*
D15*
X117551093Y-75891974D03*
X119750798Y-77161974D03*
M02*
