%TF.GenerationSoftware,KiCad,Pcbnew,(6.99.0-2452-gdb4f2d9dd8)*%
%TF.CreationDate,2022-07-29T14:02:18-05:00*%
%TF.ProjectId,VORTAC SAO Board,564f5254-4143-4205-9341-4f20426f6172,rev?*%
%TF.SameCoordinates,Original*%
%TF.FileFunction,Drillmap*%
%TF.FilePolarity,Positive*%
%FSLAX45Y45*%
G04 Gerber Fmt 4.5, Leading zero omitted, Abs format (unit mm)*
G04 Created by KiCad (PCBNEW (6.99.0-2452-gdb4f2d9dd8)) date 2022-07-29 14:02:18*
%MOMM*%
%LPD*%
G01*
G04 APERTURE LIST*
%ADD10C,0.100000*%
%ADD11C,0.200000*%
%ADD12C,0.101600*%
G04 APERTURE END LIST*
D10*
X12700000Y-12115800D02*
X12700000Y-11343704D01*
X12031346Y-6558248D02*
X12700000Y-6944295D01*
X11430000Y-9144000D02*
X10761346Y-8757952D01*
X15240000Y-6944295D02*
X15908654Y-6558248D01*
X17178654Y-8757952D02*
X16510000Y-9144000D01*
X16510000Y-9144000D02*
X15240000Y-11343704D01*
X10761346Y-8757952D02*
X12031346Y-6558248D01*
X12700000Y-6944295D02*
X15240000Y-6944295D01*
X12700000Y-11343704D02*
X11430000Y-9144000D01*
X15240000Y-11343704D02*
X15240000Y-12115800D01*
X15908654Y-6558248D02*
X17178654Y-8757952D01*
X15240000Y-12115800D02*
X12700000Y-12115800D01*
D11*
D12*
X11450309Y-7978338D02*
X11551909Y-8079938D01*
X11551909Y-7978338D02*
X11450309Y-8079938D01*
X11577309Y-7758368D02*
X11678909Y-7859968D01*
X11678909Y-7758368D02*
X11577309Y-7859968D01*
X11670280Y-8105338D02*
X11771880Y-8206938D01*
X11771880Y-8105338D02*
X11670280Y-8206938D01*
X11704309Y-7538397D02*
X11805909Y-7639997D01*
X11805909Y-7538397D02*
X11704309Y-7639997D01*
X11797280Y-7885368D02*
X11898880Y-7986968D01*
X11898880Y-7885368D02*
X11797280Y-7986968D01*
X11924280Y-7665397D02*
X12025880Y-7766997D01*
X12025880Y-7665397D02*
X11924280Y-7766997D01*
X13659200Y-11504200D02*
X13760800Y-11605800D01*
X13760800Y-11504200D02*
X13659200Y-11605800D01*
X13659200Y-11758200D02*
X13760800Y-11859800D01*
X13760800Y-11758200D02*
X13659200Y-11859800D01*
X13671200Y-7190200D02*
X13772800Y-7291800D01*
X13772800Y-7190200D02*
X13671200Y-7291800D01*
X13671200Y-7444200D02*
X13772800Y-7545800D01*
X13772800Y-7444200D02*
X13671200Y-7545800D01*
X13913200Y-11504200D02*
X14014800Y-11605800D01*
X14014800Y-11504200D02*
X13913200Y-11605800D01*
X13913200Y-11758200D02*
X14014800Y-11859800D01*
X14014800Y-11758200D02*
X13913200Y-11859800D01*
X13925200Y-7190200D02*
X14026800Y-7291800D01*
X14026800Y-7190200D02*
X13925200Y-7291800D01*
X13925200Y-7444200D02*
X14026800Y-7545800D01*
X14026800Y-7444200D02*
X13925200Y-7545800D01*
X14167200Y-11504200D02*
X14268800Y-11605800D01*
X14268800Y-11504200D02*
X14167200Y-11605800D01*
X14167200Y-11758200D02*
X14268800Y-11859800D01*
X14268800Y-11758200D02*
X14167200Y-11859800D01*
X14179200Y-7190200D02*
X14280800Y-7291800D01*
X14280800Y-7190200D02*
X14179200Y-7291800D01*
X14179200Y-7444200D02*
X14280800Y-7545800D01*
X14280800Y-7444200D02*
X14179200Y-7545800D01*
X15918683Y-7672926D02*
X16020283Y-7774526D01*
X16020283Y-7672926D02*
X15918683Y-7774526D01*
X16045683Y-7892896D02*
X16147283Y-7994496D01*
X16147283Y-7892896D02*
X16045683Y-7994496D01*
X16138653Y-7545926D02*
X16240253Y-7647526D01*
X16240253Y-7545926D02*
X16138653Y-7647526D01*
X16172683Y-8112867D02*
X16274283Y-8214467D01*
X16274283Y-8112867D02*
X16172683Y-8214467D01*
X16265653Y-7765896D02*
X16367253Y-7867496D01*
X16367253Y-7765896D02*
X16265653Y-7867496D01*
X16392653Y-7985867D02*
X16494253Y-8087467D01*
X16494253Y-7985867D02*
X16392653Y-8087467D01*
D11*
X11003965Y-12414276D02*
X11003965Y-12214276D01*
X11003965Y-12214276D02*
X11051584Y-12214276D01*
X11051584Y-12214276D02*
X11080155Y-12223800D01*
X11080155Y-12223800D02*
X11099203Y-12242848D01*
X11099203Y-12242848D02*
X11108727Y-12261895D01*
X11108727Y-12261895D02*
X11118250Y-12299990D01*
X11118250Y-12299990D02*
X11118250Y-12328562D01*
X11118250Y-12328562D02*
X11108727Y-12366657D01*
X11108727Y-12366657D02*
X11099203Y-12385705D01*
X11099203Y-12385705D02*
X11080155Y-12404752D01*
X11080155Y-12404752D02*
X11051584Y-12414276D01*
X11051584Y-12414276D02*
X11003965Y-12414276D01*
X11203965Y-12414276D02*
X11203965Y-12280943D01*
X11203965Y-12319038D02*
X11213488Y-12299990D01*
X11213488Y-12299990D02*
X11223012Y-12290467D01*
X11223012Y-12290467D02*
X11242060Y-12280943D01*
X11242060Y-12280943D02*
X11261108Y-12280943D01*
X11327774Y-12414276D02*
X11327774Y-12280943D01*
X11327774Y-12214276D02*
X11318250Y-12223800D01*
X11318250Y-12223800D02*
X11327774Y-12233324D01*
X11327774Y-12233324D02*
X11337298Y-12223800D01*
X11337298Y-12223800D02*
X11327774Y-12214276D01*
X11327774Y-12214276D02*
X11327774Y-12233324D01*
X11451584Y-12414276D02*
X11432536Y-12404752D01*
X11432536Y-12404752D02*
X11423012Y-12385705D01*
X11423012Y-12385705D02*
X11423012Y-12214276D01*
X11556346Y-12414276D02*
X11537298Y-12404752D01*
X11537298Y-12404752D02*
X11527774Y-12385705D01*
X11527774Y-12385705D02*
X11527774Y-12214276D01*
X11752536Y-12414276D02*
X11752536Y-12214276D01*
X11752536Y-12214276D02*
X11819203Y-12357133D01*
X11819203Y-12357133D02*
X11885869Y-12214276D01*
X11885869Y-12214276D02*
X11885869Y-12414276D01*
X12066822Y-12414276D02*
X12066822Y-12309514D01*
X12066822Y-12309514D02*
X12057298Y-12290467D01*
X12057298Y-12290467D02*
X12038250Y-12280943D01*
X12038250Y-12280943D02*
X12000155Y-12280943D01*
X12000155Y-12280943D02*
X11981107Y-12290467D01*
X12066822Y-12404752D02*
X12047774Y-12414276D01*
X12047774Y-12414276D02*
X12000155Y-12414276D01*
X12000155Y-12414276D02*
X11981107Y-12404752D01*
X11981107Y-12404752D02*
X11971584Y-12385705D01*
X11971584Y-12385705D02*
X11971584Y-12366657D01*
X11971584Y-12366657D02*
X11981107Y-12347609D01*
X11981107Y-12347609D02*
X12000155Y-12338086D01*
X12000155Y-12338086D02*
X12047774Y-12338086D01*
X12047774Y-12338086D02*
X12066822Y-12328562D01*
X12162060Y-12280943D02*
X12162060Y-12480943D01*
X12162060Y-12290467D02*
X12181107Y-12280943D01*
X12181107Y-12280943D02*
X12219203Y-12280943D01*
X12219203Y-12280943D02*
X12238250Y-12290467D01*
X12238250Y-12290467D02*
X12247774Y-12299990D01*
X12247774Y-12299990D02*
X12257298Y-12319038D01*
X12257298Y-12319038D02*
X12257298Y-12376181D01*
X12257298Y-12376181D02*
X12247774Y-12395228D01*
X12247774Y-12395228D02*
X12238250Y-12404752D01*
X12238250Y-12404752D02*
X12219203Y-12414276D01*
X12219203Y-12414276D02*
X12181107Y-12414276D01*
X12181107Y-12414276D02*
X12162060Y-12404752D01*
X12343012Y-12395228D02*
X12352536Y-12404752D01*
X12352536Y-12404752D02*
X12343012Y-12414276D01*
X12343012Y-12414276D02*
X12333488Y-12404752D01*
X12333488Y-12404752D02*
X12343012Y-12395228D01*
X12343012Y-12395228D02*
X12343012Y-12414276D01*
X12343012Y-12290467D02*
X12352536Y-12299990D01*
X12352536Y-12299990D02*
X12343012Y-12309514D01*
X12343012Y-12309514D02*
X12333488Y-12299990D01*
X12333488Y-12299990D02*
X12343012Y-12290467D01*
X12343012Y-12290467D02*
X12343012Y-12309514D01*
D12*
X10654746Y-12710000D02*
X10756346Y-12811600D01*
X10756346Y-12710000D02*
X10654746Y-12811600D01*
D11*
X11108727Y-12834276D02*
X10994441Y-12834276D01*
X11051584Y-12834276D02*
X11051584Y-12634276D01*
X11051584Y-12634276D02*
X11032536Y-12662848D01*
X11032536Y-12662848D02*
X11013489Y-12681895D01*
X11013489Y-12681895D02*
X10994441Y-12691419D01*
X11194441Y-12815228D02*
X11203965Y-12824752D01*
X11203965Y-12824752D02*
X11194441Y-12834276D01*
X11194441Y-12834276D02*
X11184917Y-12824752D01*
X11184917Y-12824752D02*
X11194441Y-12815228D01*
X11194441Y-12815228D02*
X11194441Y-12834276D01*
X11327774Y-12634276D02*
X11346822Y-12634276D01*
X11346822Y-12634276D02*
X11365869Y-12643800D01*
X11365869Y-12643800D02*
X11375393Y-12653324D01*
X11375393Y-12653324D02*
X11384917Y-12672371D01*
X11384917Y-12672371D02*
X11394441Y-12710467D01*
X11394441Y-12710467D02*
X11394441Y-12758086D01*
X11394441Y-12758086D02*
X11384917Y-12796181D01*
X11384917Y-12796181D02*
X11375393Y-12815228D01*
X11375393Y-12815228D02*
X11365869Y-12824752D01*
X11365869Y-12824752D02*
X11346822Y-12834276D01*
X11346822Y-12834276D02*
X11327774Y-12834276D01*
X11327774Y-12834276D02*
X11308727Y-12824752D01*
X11308727Y-12824752D02*
X11299203Y-12815228D01*
X11299203Y-12815228D02*
X11289679Y-12796181D01*
X11289679Y-12796181D02*
X11280155Y-12758086D01*
X11280155Y-12758086D02*
X11280155Y-12710467D01*
X11280155Y-12710467D02*
X11289679Y-12672371D01*
X11289679Y-12672371D02*
X11299203Y-12653324D01*
X11299203Y-12653324D02*
X11308727Y-12643800D01*
X11308727Y-12643800D02*
X11327774Y-12634276D01*
X11584917Y-12834276D02*
X11470631Y-12834276D01*
X11527774Y-12834276D02*
X11527774Y-12634276D01*
X11527774Y-12634276D02*
X11508727Y-12662848D01*
X11508727Y-12662848D02*
X11489679Y-12681895D01*
X11489679Y-12681895D02*
X11470631Y-12691419D01*
X11756346Y-12634276D02*
X11718250Y-12634276D01*
X11718250Y-12634276D02*
X11699203Y-12643800D01*
X11699203Y-12643800D02*
X11689679Y-12653324D01*
X11689679Y-12653324D02*
X11670631Y-12681895D01*
X11670631Y-12681895D02*
X11661108Y-12719990D01*
X11661108Y-12719990D02*
X11661108Y-12796181D01*
X11661108Y-12796181D02*
X11670631Y-12815228D01*
X11670631Y-12815228D02*
X11680155Y-12824752D01*
X11680155Y-12824752D02*
X11699203Y-12834276D01*
X11699203Y-12834276D02*
X11737298Y-12834276D01*
X11737298Y-12834276D02*
X11756346Y-12824752D01*
X11756346Y-12824752D02*
X11765869Y-12815228D01*
X11765869Y-12815228D02*
X11775393Y-12796181D01*
X11775393Y-12796181D02*
X11775393Y-12748562D01*
X11775393Y-12748562D02*
X11765869Y-12729514D01*
X11765869Y-12729514D02*
X11756346Y-12719990D01*
X11756346Y-12719990D02*
X11737298Y-12710467D01*
X11737298Y-12710467D02*
X11699203Y-12710467D01*
X11699203Y-12710467D02*
X11680155Y-12719990D01*
X11680155Y-12719990D02*
X11670631Y-12729514D01*
X11670631Y-12729514D02*
X11661108Y-12748562D01*
X11861108Y-12834276D02*
X11861108Y-12700943D01*
X11861108Y-12719990D02*
X11870631Y-12710467D01*
X11870631Y-12710467D02*
X11889679Y-12700943D01*
X11889679Y-12700943D02*
X11918250Y-12700943D01*
X11918250Y-12700943D02*
X11937298Y-12710467D01*
X11937298Y-12710467D02*
X11946822Y-12729514D01*
X11946822Y-12729514D02*
X11946822Y-12834276D01*
X11946822Y-12729514D02*
X11956346Y-12710467D01*
X11956346Y-12710467D02*
X11975393Y-12700943D01*
X11975393Y-12700943D02*
X12003965Y-12700943D01*
X12003965Y-12700943D02*
X12023012Y-12710467D01*
X12023012Y-12710467D02*
X12032536Y-12729514D01*
X12032536Y-12729514D02*
X12032536Y-12834276D01*
X12127774Y-12834276D02*
X12127774Y-12700943D01*
X12127774Y-12719990D02*
X12137298Y-12710467D01*
X12137298Y-12710467D02*
X12156346Y-12700943D01*
X12156346Y-12700943D02*
X12184917Y-12700943D01*
X12184917Y-12700943D02*
X12203965Y-12710467D01*
X12203965Y-12710467D02*
X12213489Y-12729514D01*
X12213489Y-12729514D02*
X12213489Y-12834276D01*
X12213489Y-12729514D02*
X12223012Y-12710467D01*
X12223012Y-12710467D02*
X12242060Y-12700943D01*
X12242060Y-12700943D02*
X12270631Y-12700943D01*
X12270631Y-12700943D02*
X12289679Y-12710467D01*
X12289679Y-12710467D02*
X12299203Y-12729514D01*
X12299203Y-12729514D02*
X12299203Y-12834276D01*
X12657298Y-12624752D02*
X12485870Y-12881895D01*
X12882060Y-12634276D02*
X12901108Y-12634276D01*
X12901108Y-12634276D02*
X12920155Y-12643800D01*
X12920155Y-12643800D02*
X12929679Y-12653324D01*
X12929679Y-12653324D02*
X12939203Y-12672371D01*
X12939203Y-12672371D02*
X12948727Y-12710467D01*
X12948727Y-12710467D02*
X12948727Y-12758086D01*
X12948727Y-12758086D02*
X12939203Y-12796181D01*
X12939203Y-12796181D02*
X12929679Y-12815228D01*
X12929679Y-12815228D02*
X12920155Y-12824752D01*
X12920155Y-12824752D02*
X12901108Y-12834276D01*
X12901108Y-12834276D02*
X12882060Y-12834276D01*
X12882060Y-12834276D02*
X12863012Y-12824752D01*
X12863012Y-12824752D02*
X12853489Y-12815228D01*
X12853489Y-12815228D02*
X12843965Y-12796181D01*
X12843965Y-12796181D02*
X12834441Y-12758086D01*
X12834441Y-12758086D02*
X12834441Y-12710467D01*
X12834441Y-12710467D02*
X12843965Y-12672371D01*
X12843965Y-12672371D02*
X12853489Y-12653324D01*
X12853489Y-12653324D02*
X12863012Y-12643800D01*
X12863012Y-12643800D02*
X12882060Y-12634276D01*
X13034441Y-12815228D02*
X13043965Y-12824752D01*
X13043965Y-12824752D02*
X13034441Y-12834276D01*
X13034441Y-12834276D02*
X13024917Y-12824752D01*
X13024917Y-12824752D02*
X13034441Y-12815228D01*
X13034441Y-12815228D02*
X13034441Y-12834276D01*
X13167774Y-12634276D02*
X13186822Y-12634276D01*
X13186822Y-12634276D02*
X13205870Y-12643800D01*
X13205870Y-12643800D02*
X13215393Y-12653324D01*
X13215393Y-12653324D02*
X13224917Y-12672371D01*
X13224917Y-12672371D02*
X13234441Y-12710467D01*
X13234441Y-12710467D02*
X13234441Y-12758086D01*
X13234441Y-12758086D02*
X13224917Y-12796181D01*
X13224917Y-12796181D02*
X13215393Y-12815228D01*
X13215393Y-12815228D02*
X13205870Y-12824752D01*
X13205870Y-12824752D02*
X13186822Y-12834276D01*
X13186822Y-12834276D02*
X13167774Y-12834276D01*
X13167774Y-12834276D02*
X13148727Y-12824752D01*
X13148727Y-12824752D02*
X13139203Y-12815228D01*
X13139203Y-12815228D02*
X13129679Y-12796181D01*
X13129679Y-12796181D02*
X13120155Y-12758086D01*
X13120155Y-12758086D02*
X13120155Y-12710467D01*
X13120155Y-12710467D02*
X13129679Y-12672371D01*
X13129679Y-12672371D02*
X13139203Y-12653324D01*
X13139203Y-12653324D02*
X13148727Y-12643800D01*
X13148727Y-12643800D02*
X13167774Y-12634276D01*
X13405870Y-12700943D02*
X13405870Y-12834276D01*
X13358250Y-12624752D02*
X13310631Y-12767609D01*
X13310631Y-12767609D02*
X13434441Y-12767609D01*
X13548727Y-12634276D02*
X13567774Y-12634276D01*
X13567774Y-12634276D02*
X13586822Y-12643800D01*
X13586822Y-12643800D02*
X13596346Y-12653324D01*
X13596346Y-12653324D02*
X13605870Y-12672371D01*
X13605870Y-12672371D02*
X13615393Y-12710467D01*
X13615393Y-12710467D02*
X13615393Y-12758086D01*
X13615393Y-12758086D02*
X13605870Y-12796181D01*
X13605870Y-12796181D02*
X13596346Y-12815228D01*
X13596346Y-12815228D02*
X13586822Y-12824752D01*
X13586822Y-12824752D02*
X13567774Y-12834276D01*
X13567774Y-12834276D02*
X13548727Y-12834276D01*
X13548727Y-12834276D02*
X13529679Y-12824752D01*
X13529679Y-12824752D02*
X13520155Y-12815228D01*
X13520155Y-12815228D02*
X13510631Y-12796181D01*
X13510631Y-12796181D02*
X13501108Y-12758086D01*
X13501108Y-12758086D02*
X13501108Y-12710467D01*
X13501108Y-12710467D02*
X13510631Y-12672371D01*
X13510631Y-12672371D02*
X13520155Y-12653324D01*
X13520155Y-12653324D02*
X13529679Y-12643800D01*
X13529679Y-12643800D02*
X13548727Y-12634276D01*
X13739203Y-12634276D02*
X13758251Y-12634276D01*
X13758251Y-12634276D02*
X13777298Y-12643800D01*
X13777298Y-12643800D02*
X13786822Y-12653324D01*
X13786822Y-12653324D02*
X13796346Y-12672371D01*
X13796346Y-12672371D02*
X13805870Y-12710467D01*
X13805870Y-12710467D02*
X13805870Y-12758086D01*
X13805870Y-12758086D02*
X13796346Y-12796181D01*
X13796346Y-12796181D02*
X13786822Y-12815228D01*
X13786822Y-12815228D02*
X13777298Y-12824752D01*
X13777298Y-12824752D02*
X13758251Y-12834276D01*
X13758251Y-12834276D02*
X13739203Y-12834276D01*
X13739203Y-12834276D02*
X13720155Y-12824752D01*
X13720155Y-12824752D02*
X13710631Y-12815228D01*
X13710631Y-12815228D02*
X13701108Y-12796181D01*
X13701108Y-12796181D02*
X13691584Y-12758086D01*
X13691584Y-12758086D02*
X13691584Y-12710467D01*
X13691584Y-12710467D02*
X13701108Y-12672371D01*
X13701108Y-12672371D02*
X13710631Y-12653324D01*
X13710631Y-12653324D02*
X13720155Y-12643800D01*
X13720155Y-12643800D02*
X13739203Y-12634276D01*
X13882060Y-12634276D02*
X13882060Y-12672371D01*
X13958251Y-12634276D02*
X13958251Y-12672371D01*
X14221108Y-12910467D02*
X14211584Y-12900943D01*
X14211584Y-12900943D02*
X14192536Y-12872371D01*
X14192536Y-12872371D02*
X14183012Y-12853324D01*
X14183012Y-12853324D02*
X14173489Y-12824752D01*
X14173489Y-12824752D02*
X14163965Y-12777133D01*
X14163965Y-12777133D02*
X14163965Y-12739038D01*
X14163965Y-12739038D02*
X14173489Y-12691419D01*
X14173489Y-12691419D02*
X14183012Y-12662848D01*
X14183012Y-12662848D02*
X14192536Y-12643800D01*
X14192536Y-12643800D02*
X14211584Y-12615228D01*
X14211584Y-12615228D02*
X14221108Y-12605705D01*
X14287774Y-12653324D02*
X14297298Y-12643800D01*
X14297298Y-12643800D02*
X14316346Y-12634276D01*
X14316346Y-12634276D02*
X14363965Y-12634276D01*
X14363965Y-12634276D02*
X14383012Y-12643800D01*
X14383012Y-12643800D02*
X14392536Y-12653324D01*
X14392536Y-12653324D02*
X14402060Y-12672371D01*
X14402060Y-12672371D02*
X14402060Y-12691419D01*
X14402060Y-12691419D02*
X14392536Y-12719990D01*
X14392536Y-12719990D02*
X14278251Y-12834276D01*
X14278251Y-12834276D02*
X14402060Y-12834276D01*
X14573489Y-12700943D02*
X14573489Y-12834276D01*
X14525870Y-12624752D02*
X14478251Y-12767609D01*
X14478251Y-12767609D02*
X14602060Y-12767609D01*
X14798251Y-12834276D02*
X14798251Y-12634276D01*
X14883965Y-12834276D02*
X14883965Y-12729514D01*
X14883965Y-12729514D02*
X14874441Y-12710467D01*
X14874441Y-12710467D02*
X14855393Y-12700943D01*
X14855393Y-12700943D02*
X14826822Y-12700943D01*
X14826822Y-12700943D02*
X14807774Y-12710467D01*
X14807774Y-12710467D02*
X14798251Y-12719990D01*
X15007774Y-12834276D02*
X14988727Y-12824752D01*
X14988727Y-12824752D02*
X14979203Y-12815228D01*
X14979203Y-12815228D02*
X14969679Y-12796181D01*
X14969679Y-12796181D02*
X14969679Y-12739038D01*
X14969679Y-12739038D02*
X14979203Y-12719990D01*
X14979203Y-12719990D02*
X14988727Y-12710467D01*
X14988727Y-12710467D02*
X15007774Y-12700943D01*
X15007774Y-12700943D02*
X15036346Y-12700943D01*
X15036346Y-12700943D02*
X15055393Y-12710467D01*
X15055393Y-12710467D02*
X15064917Y-12719990D01*
X15064917Y-12719990D02*
X15074441Y-12739038D01*
X15074441Y-12739038D02*
X15074441Y-12796181D01*
X15074441Y-12796181D02*
X15064917Y-12815228D01*
X15064917Y-12815228D02*
X15055393Y-12824752D01*
X15055393Y-12824752D02*
X15036346Y-12834276D01*
X15036346Y-12834276D02*
X15007774Y-12834276D01*
X15188727Y-12834276D02*
X15169679Y-12824752D01*
X15169679Y-12824752D02*
X15160155Y-12805705D01*
X15160155Y-12805705D02*
X15160155Y-12634276D01*
X15341108Y-12824752D02*
X15322060Y-12834276D01*
X15322060Y-12834276D02*
X15283965Y-12834276D01*
X15283965Y-12834276D02*
X15264917Y-12824752D01*
X15264917Y-12824752D02*
X15255393Y-12805705D01*
X15255393Y-12805705D02*
X15255393Y-12729514D01*
X15255393Y-12729514D02*
X15264917Y-12710467D01*
X15264917Y-12710467D02*
X15283965Y-12700943D01*
X15283965Y-12700943D02*
X15322060Y-12700943D01*
X15322060Y-12700943D02*
X15341108Y-12710467D01*
X15341108Y-12710467D02*
X15350632Y-12729514D01*
X15350632Y-12729514D02*
X15350632Y-12748562D01*
X15350632Y-12748562D02*
X15255393Y-12767609D01*
X15426822Y-12824752D02*
X15445870Y-12834276D01*
X15445870Y-12834276D02*
X15483965Y-12834276D01*
X15483965Y-12834276D02*
X15503013Y-12824752D01*
X15503013Y-12824752D02*
X15512536Y-12805705D01*
X15512536Y-12805705D02*
X15512536Y-12796181D01*
X15512536Y-12796181D02*
X15503013Y-12777133D01*
X15503013Y-12777133D02*
X15483965Y-12767609D01*
X15483965Y-12767609D02*
X15455393Y-12767609D01*
X15455393Y-12767609D02*
X15436346Y-12758086D01*
X15436346Y-12758086D02*
X15426822Y-12739038D01*
X15426822Y-12739038D02*
X15426822Y-12729514D01*
X15426822Y-12729514D02*
X15436346Y-12710467D01*
X15436346Y-12710467D02*
X15455393Y-12700943D01*
X15455393Y-12700943D02*
X15483965Y-12700943D01*
X15483965Y-12700943D02*
X15503013Y-12710467D01*
X15579203Y-12910467D02*
X15588727Y-12900943D01*
X15588727Y-12900943D02*
X15607774Y-12872371D01*
X15607774Y-12872371D02*
X15617298Y-12853324D01*
X15617298Y-12853324D02*
X15626822Y-12824752D01*
X15626822Y-12824752D02*
X15636346Y-12777133D01*
X15636346Y-12777133D02*
X15636346Y-12739038D01*
X15636346Y-12739038D02*
X15626822Y-12691419D01*
X15626822Y-12691419D02*
X15617298Y-12662848D01*
X15617298Y-12662848D02*
X15607774Y-12643800D01*
X15607774Y-12643800D02*
X15588727Y-12615228D01*
X15588727Y-12615228D02*
X15579203Y-12605705D01*
M02*
