G04 #@! TF.GenerationSoftware,KiCad,Pcbnew,(6.99.0-2452-gdb4f2d9dd8)*
G04 #@! TF.CreationDate,2022-07-29T14:07:57-05:00*
G04 #@! TF.ProjectId,VORTAC SAO Board,564f5254-4143-4205-9341-4f20426f6172,rev?*
G04 #@! TF.SameCoordinates,Original*
G04 #@! TF.FileFunction,Copper,L1,Top*
G04 #@! TF.FilePolarity,Positive*
%FSLAX46Y46*%
G04 Gerber Fmt 4.6, Leading zero omitted, Abs format (unit mm)*
G04 Created by KiCad (PCBNEW (6.99.0-2452-gdb4f2d9dd8)) date 2022-07-29 14:07:57*
%MOMM*%
%LPD*%
G01*
G04 APERTURE LIST*
G04 Aperture macros list*
%AMHorizOval*
0 Thick line with rounded ends*
0 $1 width*
0 $2 $3 position (X,Y) of the first rounded end (center of the circle)*
0 $4 $5 position (X,Y) of the second rounded end (center of the circle)*
0 Add line between two ends*
20,1,$1,$2,$3,$4,$5,0*
0 Add two circle primitives to create the rounded ends*
1,1,$1,$2,$3*
1,1,$1,$4,$5*%
%AMRotRect*
0 Rectangle, with rotation*
0 The origin of the aperture is its center*
0 $1 length*
0 $2 width*
0 $3 Rotation angle, in degrees counterclockwise*
0 Add horizontal line*
21,1,$1,$2,0,0,$3*%
G04 Aperture macros list end*
G04 #@! TA.AperFunction,ComponentPad*
%ADD10R,1.727200X1.727200*%
G04 #@! TD*
G04 #@! TA.AperFunction,ComponentPad*
%ADD11C,1.727200*%
G04 #@! TD*
G04 #@! TA.AperFunction,ComponentPad*
%ADD12O,1.727200X1.727200*%
G04 #@! TD*
G04 #@! TA.AperFunction,ComponentPad*
%ADD13RotRect,1.727200X1.727200X210.000000*%
G04 #@! TD*
G04 #@! TA.AperFunction,ComponentPad*
%ADD14HorizOval,1.727200X0.000000X0.000000X0.000000X0.000000X0*%
G04 #@! TD*
G04 #@! TA.AperFunction,ComponentPad*
%ADD15RotRect,1.727200X1.727200X330.000000*%
G04 #@! TD*
G04 #@! TA.AperFunction,ComponentPad*
%ADD16HorizOval,1.727200X0.000000X0.000000X0.000000X0.000000X0*%
G04 #@! TD*
G04 #@! TA.AperFunction,Conductor*
%ADD17C,0.250000*%
G04 #@! TD*
G04 APERTURE END LIST*
D10*
X142179999Y-118089999D03*
D11*
X142180000Y-115550000D03*
D12*
X139639999Y-118089999D03*
X139639999Y-115549999D03*
D11*
X137100000Y-118090000D03*
X137100000Y-115550000D03*
D13*
X161894531Y-75967256D03*
D11*
X159694827Y-77237257D03*
D14*
X163164531Y-78166961D03*
X160964826Y-79436961D03*
D11*
X164434532Y-80366666D03*
X162234827Y-81636666D03*
D10*
X137219999Y-72409999D03*
D11*
X137220000Y-74950000D03*
D12*
X139759999Y-72409999D03*
X139759999Y-74949999D03*
D11*
X142300000Y-72410000D03*
X142300000Y-74950000D03*
D15*
X115011092Y-80291382D03*
D11*
X117210798Y-81561383D03*
D16*
X116281092Y-78091677D03*
X118480797Y-79361677D03*
D11*
X117551093Y-75891974D03*
X119750798Y-77161974D03*
D17*
X138052800Y-76657200D02*
X123850400Y-76657200D01*
X119684800Y-80565680D02*
X117144800Y-86055200D01*
X139640000Y-110651600D02*
X139640000Y-115550000D01*
X117144800Y-86055200D02*
X117195600Y-88087200D01*
X123850400Y-76657200D02*
X121145922Y-79361678D01*
X159751762Y-79436962D02*
X160964827Y-79436962D01*
X117195600Y-88087200D02*
X139700000Y-110591600D01*
X121145922Y-79361678D02*
X118480798Y-79361678D01*
X139760000Y-74950000D02*
X142127600Y-77317600D01*
X139700000Y-110591600D02*
X139640000Y-110651600D01*
X118480798Y-79361678D02*
X119684800Y-80565680D01*
X139760000Y-74950000D02*
X138052800Y-76657200D01*
X157632400Y-77317600D02*
X159751762Y-79436962D01*
X142127600Y-77317600D02*
X157632400Y-77317600D01*
X142300000Y-72410000D02*
X161930400Y-72410000D01*
X141111400Y-71221400D02*
X120040600Y-71221400D01*
X117551093Y-73710907D02*
X117551093Y-75891974D01*
X161930400Y-72410000D02*
X161950400Y-72390000D01*
X120040600Y-71221400D02*
X117551093Y-73710907D01*
X112928400Y-80162400D02*
X112928400Y-87071200D01*
X166166800Y-79603600D02*
X164434532Y-80366666D01*
X117551093Y-75891974D02*
X116030426Y-75891974D01*
X161950400Y-72390000D02*
X166166800Y-79603600D01*
X116030426Y-75891974D02*
X112928400Y-80162400D01*
X142300000Y-72410000D02*
X141111400Y-71221400D01*
X112928400Y-87071200D02*
X135483600Y-109626400D01*
X135483600Y-109626400D02*
X135483600Y-116473600D01*
X135483600Y-116473600D02*
X137100000Y-118090000D01*
X115925600Y-88493600D02*
X137100000Y-109668000D01*
X119750798Y-77404002D02*
X119634000Y-77520800D01*
X142300000Y-74950000D02*
X141111400Y-73761400D01*
X113893600Y-84988400D02*
X115925600Y-88493600D01*
X159481200Y-74950000D02*
X160274000Y-75742800D01*
X117703600Y-78130400D02*
X113893600Y-84988400D01*
X137100000Y-109668000D02*
X137100000Y-115550000D01*
X119750798Y-77161974D02*
X119750798Y-77404002D01*
X160274000Y-75742800D02*
X163220400Y-80924400D01*
X141111400Y-73761400D02*
X123151372Y-73761400D01*
X163220400Y-80924400D02*
X162234827Y-81636666D01*
X142300000Y-74950000D02*
X159481200Y-74950000D01*
X123151372Y-73761400D02*
X119750798Y-77161974D01*
X119634000Y-77520800D02*
X117703600Y-78130400D01*
M02*
