<?xml version="1.0" encoding="UTF-8" standalone="no"?>
<!-- Generator: Adobe Illustrator 24.0.0, SVG Export Plug-In . SVG Version: 6.00 Build 0)  -->

<svg
   version="1.1"
   id="Layer_1"
   x="0px"
   y="0px"
   viewBox="0 0 158.00391 190.56741"
   xml:space="preserve"
   sodipodi:docname="av_logo-negative.svg"
   inkscape:version="1.2-beta (1b65182c, 2022-04-05)"
   width="158.00391"
   height="190.56741"
   xmlns:inkscape="http://www.inkscape.org/namespaces/inkscape"
   xmlns:sodipodi="http://sodipodi.sourceforge.net/DTD/sodipodi-0.dtd"
   xmlns:xlink="http://www.w3.org/1999/xlink"
   xmlns="http://www.w3.org/2000/svg"
   xmlns:svg="http://www.w3.org/2000/svg"><defs
   id="defs3444" /><sodipodi:namedview
   id="namedview3442"
   pagecolor="#ffffff"
   bordercolor="#000000"
   borderopacity="0.25"
   inkscape:pageshadow="2"
   inkscape:pageopacity="0.0"
   inkscape:pagecheckerboard="0"
   inkscape:deskcolor="#d1d1d1"
   showgrid="false"
   inkscape:zoom="2.120601"
   inkscape:cx="129.44444"
   inkscape:cy="73.799833"
   inkscape:window-width="1800"
   inkscape:window-height="1011"
   inkscape:window-x="0"
   inkscape:window-y="44"
   inkscape:window-maximized="0"
   inkscape:current-layer="g3439" />
<style
   type="text/css"
   id="style3379">
	.st0{fill:#262262;}
	.st1{clip-path:url(#SVGID_2_);fill:#262262;}
	.st2{clip-path:url(#SVGID_2_);fill:#FFFFFF;}
	.st3{clip-path:url(#SVGID_2_);fill:#00AEEF;}
</style>


<g
   id="g3439"
   transform="translate(-0.0060924)">
	<defs
   id="defs3386">
		<rect
   id="SVGID_1_"
   width="728.22998"
   height="190.57001"
   x="0"
   y="0" />
	</defs>
	<clipPath
   id="SVGID_2_">
		<use
   xlink:href="#SVGID_1_"
   style="overflow:visible"
   id="use3388" />
	</clipPath>
	
	
	
	
	
	
	
	
	
	
	
	
	
	
	<path
   class="st2"
   d="m 79.17,97.22 v 50.93 c 11.7,-14.63 23.95,-31.86 25.42,-50.93 z"
   clip-path="url(#SVGID_2_)"
   id="path3419"
   style="fill:#000000" />
	<path
   class="st2"
   d="M 133.85,89.82 C 132.2,62.22 111.91,39.82 85.58,35.18 97.46,50 110.62,68.7 111.9,89.82 Z"
   clip-path="url(#SVGID_2_)"
   id="path3421"
   style="fill:#000000" />
	<path
   class="st2"
   d="m 79.17,89.82 h 25.42 C 103.13,70.56 90.88,53.52 79.17,38.89 Z"
   clip-path="url(#SVGID_2_)"
   id="path3423"
   style="fill:#000000" />
	<path
   class="st2"
   d="m 111.9,97.22 c -1.28,21.11 -14.44,39.82 -26.33,54.64 26.33,-4.63 46.63,-27.04 48.27,-54.64 z"
   clip-path="url(#SVGID_2_)"
   id="path3425"
   style="fill:#000000" />
	<path
   class="st2"
   d="M 71.86,97.22 H 46.44 c 1.46,19.08 13.71,36.3 25.42,50.93 z"
   clip-path="url(#SVGID_2_)"
   id="path3427"
   style="fill:#000000" />
	<path
   class="st2"
   d="M 71.86,89.82 V 38.88 C 60.16,53.52 47.9,70.74 46.44,89.82 Z"
   clip-path="url(#SVGID_2_)"
   id="path3429"
   style="fill:#000000" />
	<path
   class="st2"
   d="M 65.46,151.86 C 53.57,137.04 40.59,118.34 39.13,97.22 H 17.19 c 1.64,27.6 21.94,50.01 48.27,54.64"
   clip-path="url(#SVGID_2_)"
   id="path3431"
   style="fill:#000000" />
	<path
   class="st2"
   d="M 65.46,35.18 C 39.13,39.81 18.83,62.22 17.19,89.82 H 39.13 C 40.41,68.7 53.57,50 65.46,35.18"
   clip-path="url(#SVGID_2_)"
   id="path3433"
   style="fill:#000000" />
	<path
   class="st1"
   d="m 75.52,23.14 c -38.4,0 -69.49,31.49 -69.49,70.38 0,38.89 31.09,70.38 69.49,70.38 38.4,0 69.48,-31.49 69.48,-70.38 0,-38.89 -31.08,-70.38 -69.48,-70.38 m 10.05,12.04 c 26.33,4.63 46.63,27.04 48.27,54.64 H 111.9 C 110.62,68.7 97.46,50 85.57,35.18 m 19.02,54.64 H 79.17 V 38.88 c 11.71,14.64 23.96,31.67 25.42,50.94 m -25.42,7.4 h 25.42 c -1.46,19.08 -13.71,36.3 -25.42,50.93 z m 6.4,54.64 c 11.89,-14.82 25.05,-33.52 26.33,-54.64 h 21.94 c -1.64,27.6 -21.94,50.01 -48.27,54.64 M 39.13,97.22 c 1.46,21.11 14.45,39.82 26.33,54.64 C 39.13,147.23 18.83,124.82 17.19,97.22 Z M 17.19,89.82 C 18.84,62.22 39.13,39.82 65.46,35.18 53.57,50 40.41,68.7 39.13,89.82 Z m 29.25,7.4 h 25.42 v 50.93 C 60.16,133.52 47.9,116.3 46.44,97.22 m 25.42,-7.4 H 46.44 C 47.9,70.74 60.15,53.52 71.86,38.89 Z"
   clip-path="url(#SVGID_2_)"
   id="path3435"
   style="fill:#ffffff" />
	<path
   class="st3"
   d="m 145.3,30.57 -6.56,-7.82 -1.99,27.74 21.26,-17.93 -10.35,-0.72 c 2.52,-5.01 4.76,-10.2 6.21,-15.85 0.44,-1.76 0.78,-3.59 0.87,-5.54 0.08,-1.93 -0.01,-4.07 -1.17,-6.29 -0.34,-0.54 -0.61,-1.1 -1.11,-1.56 l -0.7,-0.71 C 151.5,1.68 151.22,1.51 150.94,1.33 150.66,1.15 150.37,0.97 150.08,0.82 L 149.2,0.5 c -0.61,-0.24 -1.2,-0.35 -1.77,-0.41 -2.32,-0.27 -4.4,0.07 -6.24,0.6 -7.45,2.17 -13.33,6.2 -19.16,10.23 -5.76,4.11 -11.21,8.54 -16.47,13.16 -20.88,18.66 -39.31,39.65 -56.22,61.75 -8.35,11.13 -16.49,22.45 -23.81,34.33 -7.32,11.87 -14.29,24.02 -19.67,37.11 -1.34,3.28 -2.61,6.59 -3.65,10.04 -1.05,3.45 -1.89,7 -2.17,10.85 -0.08,1.95 -0.06,3.97 0.53,6.16 0.2,0.56 0.41,1.12 0.64,1.66 0.3,0.55 0.66,1.1 1.02,1.63 0.45,0.49 0.94,0.98 1.45,1.4 0.56,0.4 1.14,0.72 1.75,0.96 2.48,0.92 4.72,0.61 6.64,0.18 1.95,-0.45 3.67,-1.19 5.32,-1.99 3.28,-1.63 6.24,-3.59 9.09,-5.66 2.85,-2.06 5.56,-4.28 8.17,-6.58 5.25,-4.57 10.14,-9.5 14.85,-14.57 -5.36,4.37 -10.83,8.59 -16.44,12.54 -5.63,3.86 -11.42,7.68 -17.51,10.07 -1.51,0.57 -3.04,1.04 -4.48,1.27 -1.44,0.24 -2.8,0.16 -3.55,-0.24 -0.72,-0.38 -1.1,-0.96 -1.37,-2.15 -0.22,-1.18 -0.17,-2.64 0.01,-4.13 0.99,-6.1 3.6,-12.44 6.45,-18.49 2.87,-6.09 6.24,-12 9.65,-17.89 3.44,-5.87 7.08,-11.64 10.86,-17.33 7.62,-11.34 15.5,-22.53 23.9,-33.34 C 65.4,80.84 73.95,70.13 82.99,59.87 92,49.62 101.22,39.5 111.12,30.15 c 4.89,-4.73 9.94,-9.29 15.21,-13.48 2.64,-2.08 5.34,-4.07 8.11,-5.88 2.75,-1.81 5.62,-3.47 8.46,-4.46 1.42,-0.55 2.82,-0.79 3.94,-0.75 1.12,0.08 1.72,0.35 2.28,1.14 0.56,0.81 0.84,2.24 0.9,3.73 0.07,1.5 -0.06,3.11 -0.31,4.73 -0.83,5.14 -2.51,10.3 -4.41,15.39"
   clip-path="url(#SVGID_2_)"
   id="path3437"
   style="fill:#ffffff" />
</g>
</svg>
