%TF.GenerationSoftware,KiCad,Pcbnew,(6.99.0-2452-gdb4f2d9dd8)*%
%TF.CreationDate,2022-07-21T16:36:43-08:00*%
%TF.ProjectId,crew-SAO,63726577-2d53-4414-9f2e-6b696361645f,rev?*%
%TF.SameCoordinates,Original*%
%TF.FileFunction,Drillmap*%
%TF.FilePolarity,Positive*%
%FSLAX45Y45*%
G04 Gerber Fmt 4.5, Leading zero omitted, Abs format (unit mm)*
G04 Created by KiCad (PCBNEW (6.99.0-2452-gdb4f2d9dd8)) date 2022-07-21 16:36:43*
%MOMM*%
%LPD*%
G01*
G04 APERTURE LIST*
%ADD10C,0.100000*%
%ADD11C,0.200000*%
%ADD12C,0.090000*%
G04 APERTURE END LIST*
D10*
X8412000Y-12273000D02*
X16288000Y-12273000D01*
X16288000Y-12273000D02*
X16288000Y-13922000D01*
X16288000Y-13922000D02*
X8412000Y-13922000D01*
X8412000Y-13922000D02*
X8412000Y-12273000D01*
D11*
D12*
X15705000Y-13105000D02*
X15795000Y-13195000D01*
X15795000Y-13105000D02*
X15705000Y-13195000D01*
X15705000Y-13359000D02*
X15795000Y-13449000D01*
X15795000Y-13359000D02*
X15705000Y-13449000D01*
D10*
X15534000Y-12494000D02*
G75*
G03*
X15534000Y-12494000I-50000J0D01*
G01*
X15534000Y-12748000D02*
G75*
G03*
X15534000Y-12748000I-50000J0D01*
G01*
X15788000Y-12494000D02*
G75*
G03*
X15788000Y-12494000I-50000J0D01*
G01*
X15788000Y-12748000D02*
G75*
G03*
X15788000Y-12748000I-50000J0D01*
G01*
X16042000Y-12494000D02*
G75*
G03*
X16042000Y-12494000I-50000J0D01*
G01*
X16042000Y-12748000D02*
G75*
G03*
X16042000Y-12748000I-50000J0D01*
G01*
D11*
X8654619Y-14220476D02*
X8654619Y-14020476D01*
X8654619Y-14020476D02*
X8702238Y-14020476D01*
X8702238Y-14020476D02*
X8730810Y-14030000D01*
X8730810Y-14030000D02*
X8749857Y-14049048D01*
X8749857Y-14049048D02*
X8759381Y-14068095D01*
X8759381Y-14068095D02*
X8768905Y-14106190D01*
X8768905Y-14106190D02*
X8768905Y-14134762D01*
X8768905Y-14134762D02*
X8759381Y-14172857D01*
X8759381Y-14172857D02*
X8749857Y-14191905D01*
X8749857Y-14191905D02*
X8730810Y-14210952D01*
X8730810Y-14210952D02*
X8702238Y-14220476D01*
X8702238Y-14220476D02*
X8654619Y-14220476D01*
X8854619Y-14220476D02*
X8854619Y-14087143D01*
X8854619Y-14125238D02*
X8864143Y-14106190D01*
X8864143Y-14106190D02*
X8873667Y-14096667D01*
X8873667Y-14096667D02*
X8892714Y-14087143D01*
X8892714Y-14087143D02*
X8911762Y-14087143D01*
X8978429Y-14220476D02*
X8978429Y-14087143D01*
X8978429Y-14020476D02*
X8968905Y-14030000D01*
X8968905Y-14030000D02*
X8978429Y-14039524D01*
X8978429Y-14039524D02*
X8987952Y-14030000D01*
X8987952Y-14030000D02*
X8978429Y-14020476D01*
X8978429Y-14020476D02*
X8978429Y-14039524D01*
X9102238Y-14220476D02*
X9083190Y-14210952D01*
X9083190Y-14210952D02*
X9073667Y-14191905D01*
X9073667Y-14191905D02*
X9073667Y-14020476D01*
X9207000Y-14220476D02*
X9187952Y-14210952D01*
X9187952Y-14210952D02*
X9178429Y-14191905D01*
X9178429Y-14191905D02*
X9178429Y-14020476D01*
X9403190Y-14220476D02*
X9403190Y-14020476D01*
X9403190Y-14020476D02*
X9469857Y-14163333D01*
X9469857Y-14163333D02*
X9536524Y-14020476D01*
X9536524Y-14020476D02*
X9536524Y-14220476D01*
X9717476Y-14220476D02*
X9717476Y-14115714D01*
X9717476Y-14115714D02*
X9707952Y-14096667D01*
X9707952Y-14096667D02*
X9688905Y-14087143D01*
X9688905Y-14087143D02*
X9650809Y-14087143D01*
X9650809Y-14087143D02*
X9631762Y-14096667D01*
X9717476Y-14210952D02*
X9698429Y-14220476D01*
X9698429Y-14220476D02*
X9650809Y-14220476D01*
X9650809Y-14220476D02*
X9631762Y-14210952D01*
X9631762Y-14210952D02*
X9622238Y-14191905D01*
X9622238Y-14191905D02*
X9622238Y-14172857D01*
X9622238Y-14172857D02*
X9631762Y-14153809D01*
X9631762Y-14153809D02*
X9650809Y-14144286D01*
X9650809Y-14144286D02*
X9698429Y-14144286D01*
X9698429Y-14144286D02*
X9717476Y-14134762D01*
X9812714Y-14087143D02*
X9812714Y-14287143D01*
X9812714Y-14096667D02*
X9831762Y-14087143D01*
X9831762Y-14087143D02*
X9869857Y-14087143D01*
X9869857Y-14087143D02*
X9888905Y-14096667D01*
X9888905Y-14096667D02*
X9898429Y-14106190D01*
X9898429Y-14106190D02*
X9907952Y-14125238D01*
X9907952Y-14125238D02*
X9907952Y-14182381D01*
X9907952Y-14182381D02*
X9898429Y-14201428D01*
X9898429Y-14201428D02*
X9888905Y-14210952D01*
X9888905Y-14210952D02*
X9869857Y-14220476D01*
X9869857Y-14220476D02*
X9831762Y-14220476D01*
X9831762Y-14220476D02*
X9812714Y-14210952D01*
X9993667Y-14201428D02*
X10003190Y-14210952D01*
X10003190Y-14210952D02*
X9993667Y-14220476D01*
X9993667Y-14220476D02*
X9984143Y-14210952D01*
X9984143Y-14210952D02*
X9993667Y-14201428D01*
X9993667Y-14201428D02*
X9993667Y-14220476D01*
X9993667Y-14096667D02*
X10003190Y-14106190D01*
X10003190Y-14106190D02*
X9993667Y-14115714D01*
X9993667Y-14115714D02*
X9984143Y-14106190D01*
X9984143Y-14106190D02*
X9993667Y-14096667D01*
X9993667Y-14096667D02*
X9993667Y-14115714D01*
D12*
X8317000Y-14522000D02*
X8407000Y-14612000D01*
X8407000Y-14522000D02*
X8317000Y-14612000D01*
D11*
X8692714Y-14440476D02*
X8711762Y-14440476D01*
X8711762Y-14440476D02*
X8730810Y-14450000D01*
X8730810Y-14450000D02*
X8740333Y-14459524D01*
X8740333Y-14459524D02*
X8749857Y-14478571D01*
X8749857Y-14478571D02*
X8759381Y-14516667D01*
X8759381Y-14516667D02*
X8759381Y-14564286D01*
X8759381Y-14564286D02*
X8749857Y-14602381D01*
X8749857Y-14602381D02*
X8740333Y-14621428D01*
X8740333Y-14621428D02*
X8730810Y-14630952D01*
X8730810Y-14630952D02*
X8711762Y-14640476D01*
X8711762Y-14640476D02*
X8692714Y-14640476D01*
X8692714Y-14640476D02*
X8673667Y-14630952D01*
X8673667Y-14630952D02*
X8664143Y-14621428D01*
X8664143Y-14621428D02*
X8654619Y-14602381D01*
X8654619Y-14602381D02*
X8645095Y-14564286D01*
X8645095Y-14564286D02*
X8645095Y-14516667D01*
X8645095Y-14516667D02*
X8654619Y-14478571D01*
X8654619Y-14478571D02*
X8664143Y-14459524D01*
X8664143Y-14459524D02*
X8673667Y-14450000D01*
X8673667Y-14450000D02*
X8692714Y-14440476D01*
X8845095Y-14621428D02*
X8854619Y-14630952D01*
X8854619Y-14630952D02*
X8845095Y-14640476D01*
X8845095Y-14640476D02*
X8835571Y-14630952D01*
X8835571Y-14630952D02*
X8845095Y-14621428D01*
X8845095Y-14621428D02*
X8845095Y-14640476D01*
X8949857Y-14640476D02*
X8987952Y-14640476D01*
X8987952Y-14640476D02*
X9007000Y-14630952D01*
X9007000Y-14630952D02*
X9016524Y-14621428D01*
X9016524Y-14621428D02*
X9035571Y-14592857D01*
X9035571Y-14592857D02*
X9045095Y-14554762D01*
X9045095Y-14554762D02*
X9045095Y-14478571D01*
X9045095Y-14478571D02*
X9035571Y-14459524D01*
X9035571Y-14459524D02*
X9026048Y-14450000D01*
X9026048Y-14450000D02*
X9007000Y-14440476D01*
X9007000Y-14440476D02*
X8968905Y-14440476D01*
X8968905Y-14440476D02*
X8949857Y-14450000D01*
X8949857Y-14450000D02*
X8940333Y-14459524D01*
X8940333Y-14459524D02*
X8930810Y-14478571D01*
X8930810Y-14478571D02*
X8930810Y-14526190D01*
X8930810Y-14526190D02*
X8940333Y-14545238D01*
X8940333Y-14545238D02*
X8949857Y-14554762D01*
X8949857Y-14554762D02*
X8968905Y-14564286D01*
X8968905Y-14564286D02*
X9007000Y-14564286D01*
X9007000Y-14564286D02*
X9026048Y-14554762D01*
X9026048Y-14554762D02*
X9035571Y-14545238D01*
X9035571Y-14545238D02*
X9045095Y-14526190D01*
X9168905Y-14440476D02*
X9187952Y-14440476D01*
X9187952Y-14440476D02*
X9207000Y-14450000D01*
X9207000Y-14450000D02*
X9216524Y-14459524D01*
X9216524Y-14459524D02*
X9226048Y-14478571D01*
X9226048Y-14478571D02*
X9235571Y-14516667D01*
X9235571Y-14516667D02*
X9235571Y-14564286D01*
X9235571Y-14564286D02*
X9226048Y-14602381D01*
X9226048Y-14602381D02*
X9216524Y-14621428D01*
X9216524Y-14621428D02*
X9207000Y-14630952D01*
X9207000Y-14630952D02*
X9187952Y-14640476D01*
X9187952Y-14640476D02*
X9168905Y-14640476D01*
X9168905Y-14640476D02*
X9149857Y-14630952D01*
X9149857Y-14630952D02*
X9140333Y-14621428D01*
X9140333Y-14621428D02*
X9130810Y-14602381D01*
X9130810Y-14602381D02*
X9121286Y-14564286D01*
X9121286Y-14564286D02*
X9121286Y-14516667D01*
X9121286Y-14516667D02*
X9130810Y-14478571D01*
X9130810Y-14478571D02*
X9140333Y-14459524D01*
X9140333Y-14459524D02*
X9149857Y-14450000D01*
X9149857Y-14450000D02*
X9168905Y-14440476D01*
X9359381Y-14440476D02*
X9378429Y-14440476D01*
X9378429Y-14440476D02*
X9397476Y-14450000D01*
X9397476Y-14450000D02*
X9407000Y-14459524D01*
X9407000Y-14459524D02*
X9416524Y-14478571D01*
X9416524Y-14478571D02*
X9426048Y-14516667D01*
X9426048Y-14516667D02*
X9426048Y-14564286D01*
X9426048Y-14564286D02*
X9416524Y-14602381D01*
X9416524Y-14602381D02*
X9407000Y-14621428D01*
X9407000Y-14621428D02*
X9397476Y-14630952D01*
X9397476Y-14630952D02*
X9378429Y-14640476D01*
X9378429Y-14640476D02*
X9359381Y-14640476D01*
X9359381Y-14640476D02*
X9340333Y-14630952D01*
X9340333Y-14630952D02*
X9330810Y-14621428D01*
X9330810Y-14621428D02*
X9321286Y-14602381D01*
X9321286Y-14602381D02*
X9311762Y-14564286D01*
X9311762Y-14564286D02*
X9311762Y-14516667D01*
X9311762Y-14516667D02*
X9321286Y-14478571D01*
X9321286Y-14478571D02*
X9330810Y-14459524D01*
X9330810Y-14459524D02*
X9340333Y-14450000D01*
X9340333Y-14450000D02*
X9359381Y-14440476D01*
X9511762Y-14640476D02*
X9511762Y-14507143D01*
X9511762Y-14526190D02*
X9521286Y-14516667D01*
X9521286Y-14516667D02*
X9540333Y-14507143D01*
X9540333Y-14507143D02*
X9568905Y-14507143D01*
X9568905Y-14507143D02*
X9587952Y-14516667D01*
X9587952Y-14516667D02*
X9597476Y-14535714D01*
X9597476Y-14535714D02*
X9597476Y-14640476D01*
X9597476Y-14535714D02*
X9607000Y-14516667D01*
X9607000Y-14516667D02*
X9626048Y-14507143D01*
X9626048Y-14507143D02*
X9654619Y-14507143D01*
X9654619Y-14507143D02*
X9673667Y-14516667D01*
X9673667Y-14516667D02*
X9683191Y-14535714D01*
X9683191Y-14535714D02*
X9683191Y-14640476D01*
X9778429Y-14640476D02*
X9778429Y-14507143D01*
X9778429Y-14526190D02*
X9787952Y-14516667D01*
X9787952Y-14516667D02*
X9807000Y-14507143D01*
X9807000Y-14507143D02*
X9835572Y-14507143D01*
X9835572Y-14507143D02*
X9854619Y-14516667D01*
X9854619Y-14516667D02*
X9864143Y-14535714D01*
X9864143Y-14535714D02*
X9864143Y-14640476D01*
X9864143Y-14535714D02*
X9873667Y-14516667D01*
X9873667Y-14516667D02*
X9892714Y-14507143D01*
X9892714Y-14507143D02*
X9921286Y-14507143D01*
X9921286Y-14507143D02*
X9940333Y-14516667D01*
X9940333Y-14516667D02*
X9949857Y-14535714D01*
X9949857Y-14535714D02*
X9949857Y-14640476D01*
X10307952Y-14430952D02*
X10136524Y-14688095D01*
X10532714Y-14440476D02*
X10551762Y-14440476D01*
X10551762Y-14440476D02*
X10570810Y-14450000D01*
X10570810Y-14450000D02*
X10580333Y-14459524D01*
X10580333Y-14459524D02*
X10589857Y-14478571D01*
X10589857Y-14478571D02*
X10599381Y-14516667D01*
X10599381Y-14516667D02*
X10599381Y-14564286D01*
X10599381Y-14564286D02*
X10589857Y-14602381D01*
X10589857Y-14602381D02*
X10580333Y-14621428D01*
X10580333Y-14621428D02*
X10570810Y-14630952D01*
X10570810Y-14630952D02*
X10551762Y-14640476D01*
X10551762Y-14640476D02*
X10532714Y-14640476D01*
X10532714Y-14640476D02*
X10513667Y-14630952D01*
X10513667Y-14630952D02*
X10504143Y-14621428D01*
X10504143Y-14621428D02*
X10494619Y-14602381D01*
X10494619Y-14602381D02*
X10485095Y-14564286D01*
X10485095Y-14564286D02*
X10485095Y-14516667D01*
X10485095Y-14516667D02*
X10494619Y-14478571D01*
X10494619Y-14478571D02*
X10504143Y-14459524D01*
X10504143Y-14459524D02*
X10513667Y-14450000D01*
X10513667Y-14450000D02*
X10532714Y-14440476D01*
X10685095Y-14621428D02*
X10694619Y-14630952D01*
X10694619Y-14630952D02*
X10685095Y-14640476D01*
X10685095Y-14640476D02*
X10675572Y-14630952D01*
X10675572Y-14630952D02*
X10685095Y-14621428D01*
X10685095Y-14621428D02*
X10685095Y-14640476D01*
X10818429Y-14440476D02*
X10837476Y-14440476D01*
X10837476Y-14440476D02*
X10856524Y-14450000D01*
X10856524Y-14450000D02*
X10866048Y-14459524D01*
X10866048Y-14459524D02*
X10875572Y-14478571D01*
X10875572Y-14478571D02*
X10885095Y-14516667D01*
X10885095Y-14516667D02*
X10885095Y-14564286D01*
X10885095Y-14564286D02*
X10875572Y-14602381D01*
X10875572Y-14602381D02*
X10866048Y-14621428D01*
X10866048Y-14621428D02*
X10856524Y-14630952D01*
X10856524Y-14630952D02*
X10837476Y-14640476D01*
X10837476Y-14640476D02*
X10818429Y-14640476D01*
X10818429Y-14640476D02*
X10799381Y-14630952D01*
X10799381Y-14630952D02*
X10789857Y-14621428D01*
X10789857Y-14621428D02*
X10780333Y-14602381D01*
X10780333Y-14602381D02*
X10770810Y-14564286D01*
X10770810Y-14564286D02*
X10770810Y-14516667D01*
X10770810Y-14516667D02*
X10780333Y-14478571D01*
X10780333Y-14478571D02*
X10789857Y-14459524D01*
X10789857Y-14459524D02*
X10799381Y-14450000D01*
X10799381Y-14450000D02*
X10818429Y-14440476D01*
X10951762Y-14440476D02*
X11075572Y-14440476D01*
X11075572Y-14440476D02*
X11008905Y-14516667D01*
X11008905Y-14516667D02*
X11037476Y-14516667D01*
X11037476Y-14516667D02*
X11056524Y-14526190D01*
X11056524Y-14526190D02*
X11066048Y-14535714D01*
X11066048Y-14535714D02*
X11075572Y-14554762D01*
X11075572Y-14554762D02*
X11075572Y-14602381D01*
X11075572Y-14602381D02*
X11066048Y-14621428D01*
X11066048Y-14621428D02*
X11056524Y-14630952D01*
X11056524Y-14630952D02*
X11037476Y-14640476D01*
X11037476Y-14640476D02*
X10980333Y-14640476D01*
X10980333Y-14640476D02*
X10961286Y-14630952D01*
X10961286Y-14630952D02*
X10951762Y-14621428D01*
X11256524Y-14440476D02*
X11161286Y-14440476D01*
X11161286Y-14440476D02*
X11151762Y-14535714D01*
X11151762Y-14535714D02*
X11161286Y-14526190D01*
X11161286Y-14526190D02*
X11180333Y-14516667D01*
X11180333Y-14516667D02*
X11227952Y-14516667D01*
X11227952Y-14516667D02*
X11247000Y-14526190D01*
X11247000Y-14526190D02*
X11256524Y-14535714D01*
X11256524Y-14535714D02*
X11266048Y-14554762D01*
X11266048Y-14554762D02*
X11266048Y-14602381D01*
X11266048Y-14602381D02*
X11256524Y-14621428D01*
X11256524Y-14621428D02*
X11247000Y-14630952D01*
X11247000Y-14630952D02*
X11227952Y-14640476D01*
X11227952Y-14640476D02*
X11180333Y-14640476D01*
X11180333Y-14640476D02*
X11161286Y-14630952D01*
X11161286Y-14630952D02*
X11151762Y-14621428D01*
X11437476Y-14507143D02*
X11437476Y-14640476D01*
X11389857Y-14430952D02*
X11342238Y-14573809D01*
X11342238Y-14573809D02*
X11466048Y-14573809D01*
X11532714Y-14440476D02*
X11532714Y-14478571D01*
X11608905Y-14440476D02*
X11608905Y-14478571D01*
X11871762Y-14716667D02*
X11862238Y-14707143D01*
X11862238Y-14707143D02*
X11843191Y-14678571D01*
X11843191Y-14678571D02*
X11833667Y-14659524D01*
X11833667Y-14659524D02*
X11824143Y-14630952D01*
X11824143Y-14630952D02*
X11814619Y-14583333D01*
X11814619Y-14583333D02*
X11814619Y-14545238D01*
X11814619Y-14545238D02*
X11824143Y-14497619D01*
X11824143Y-14497619D02*
X11833667Y-14469048D01*
X11833667Y-14469048D02*
X11843191Y-14450000D01*
X11843191Y-14450000D02*
X11862238Y-14421428D01*
X11862238Y-14421428D02*
X11871762Y-14411905D01*
X11938429Y-14459524D02*
X11947952Y-14450000D01*
X11947952Y-14450000D02*
X11967000Y-14440476D01*
X11967000Y-14440476D02*
X12014619Y-14440476D01*
X12014619Y-14440476D02*
X12033667Y-14450000D01*
X12033667Y-14450000D02*
X12043191Y-14459524D01*
X12043191Y-14459524D02*
X12052714Y-14478571D01*
X12052714Y-14478571D02*
X12052714Y-14497619D01*
X12052714Y-14497619D02*
X12043191Y-14526190D01*
X12043191Y-14526190D02*
X11928905Y-14640476D01*
X11928905Y-14640476D02*
X12052714Y-14640476D01*
X12258429Y-14640476D02*
X12258429Y-14440476D01*
X12344143Y-14640476D02*
X12344143Y-14535714D01*
X12344143Y-14535714D02*
X12334619Y-14516667D01*
X12334619Y-14516667D02*
X12315572Y-14507143D01*
X12315572Y-14507143D02*
X12287000Y-14507143D01*
X12287000Y-14507143D02*
X12267952Y-14516667D01*
X12267952Y-14516667D02*
X12258429Y-14526190D01*
X12467952Y-14640476D02*
X12448905Y-14630952D01*
X12448905Y-14630952D02*
X12439381Y-14621428D01*
X12439381Y-14621428D02*
X12429857Y-14602381D01*
X12429857Y-14602381D02*
X12429857Y-14545238D01*
X12429857Y-14545238D02*
X12439381Y-14526190D01*
X12439381Y-14526190D02*
X12448905Y-14516667D01*
X12448905Y-14516667D02*
X12467952Y-14507143D01*
X12467952Y-14507143D02*
X12496524Y-14507143D01*
X12496524Y-14507143D02*
X12515572Y-14516667D01*
X12515572Y-14516667D02*
X12525095Y-14526190D01*
X12525095Y-14526190D02*
X12534619Y-14545238D01*
X12534619Y-14545238D02*
X12534619Y-14602381D01*
X12534619Y-14602381D02*
X12525095Y-14621428D01*
X12525095Y-14621428D02*
X12515572Y-14630952D01*
X12515572Y-14630952D02*
X12496524Y-14640476D01*
X12496524Y-14640476D02*
X12467952Y-14640476D01*
X12648905Y-14640476D02*
X12629857Y-14630952D01*
X12629857Y-14630952D02*
X12620333Y-14611905D01*
X12620333Y-14611905D02*
X12620333Y-14440476D01*
X12801286Y-14630952D02*
X12782238Y-14640476D01*
X12782238Y-14640476D02*
X12744143Y-14640476D01*
X12744143Y-14640476D02*
X12725095Y-14630952D01*
X12725095Y-14630952D02*
X12715572Y-14611905D01*
X12715572Y-14611905D02*
X12715572Y-14535714D01*
X12715572Y-14535714D02*
X12725095Y-14516667D01*
X12725095Y-14516667D02*
X12744143Y-14507143D01*
X12744143Y-14507143D02*
X12782238Y-14507143D01*
X12782238Y-14507143D02*
X12801286Y-14516667D01*
X12801286Y-14516667D02*
X12810810Y-14535714D01*
X12810810Y-14535714D02*
X12810810Y-14554762D01*
X12810810Y-14554762D02*
X12715572Y-14573809D01*
X12887000Y-14630952D02*
X12906048Y-14640476D01*
X12906048Y-14640476D02*
X12944143Y-14640476D01*
X12944143Y-14640476D02*
X12963191Y-14630952D01*
X12963191Y-14630952D02*
X12972714Y-14611905D01*
X12972714Y-14611905D02*
X12972714Y-14602381D01*
X12972714Y-14602381D02*
X12963191Y-14583333D01*
X12963191Y-14583333D02*
X12944143Y-14573809D01*
X12944143Y-14573809D02*
X12915572Y-14573809D01*
X12915572Y-14573809D02*
X12896524Y-14564286D01*
X12896524Y-14564286D02*
X12887000Y-14545238D01*
X12887000Y-14545238D02*
X12887000Y-14535714D01*
X12887000Y-14535714D02*
X12896524Y-14516667D01*
X12896524Y-14516667D02*
X12915572Y-14507143D01*
X12915572Y-14507143D02*
X12944143Y-14507143D01*
X12944143Y-14507143D02*
X12963191Y-14516667D01*
X13039381Y-14716667D02*
X13048905Y-14707143D01*
X13048905Y-14707143D02*
X13067953Y-14678571D01*
X13067953Y-14678571D02*
X13077476Y-14659524D01*
X13077476Y-14659524D02*
X13087000Y-14630952D01*
X13087000Y-14630952D02*
X13096524Y-14583333D01*
X13096524Y-14583333D02*
X13096524Y-14545238D01*
X13096524Y-14545238D02*
X13087000Y-14497619D01*
X13087000Y-14497619D02*
X13077476Y-14469048D01*
X13077476Y-14469048D02*
X13067953Y-14450000D01*
X13067953Y-14450000D02*
X13048905Y-14421428D01*
X13048905Y-14421428D02*
X13039381Y-14411905D01*
D10*
X8407000Y-14831000D02*
G75*
G03*
X8407000Y-14831000I-50000J0D01*
G01*
D11*
X8759381Y-14904476D02*
X8645095Y-14904476D01*
X8702238Y-14904476D02*
X8702238Y-14704476D01*
X8702238Y-14704476D02*
X8683190Y-14733048D01*
X8683190Y-14733048D02*
X8664143Y-14752095D01*
X8664143Y-14752095D02*
X8645095Y-14761619D01*
X8845095Y-14885428D02*
X8854619Y-14894952D01*
X8854619Y-14894952D02*
X8845095Y-14904476D01*
X8845095Y-14904476D02*
X8835571Y-14894952D01*
X8835571Y-14894952D02*
X8845095Y-14885428D01*
X8845095Y-14885428D02*
X8845095Y-14904476D01*
X8978429Y-14704476D02*
X8997476Y-14704476D01*
X8997476Y-14704476D02*
X9016524Y-14714000D01*
X9016524Y-14714000D02*
X9026048Y-14723524D01*
X9026048Y-14723524D02*
X9035571Y-14742571D01*
X9035571Y-14742571D02*
X9045095Y-14780667D01*
X9045095Y-14780667D02*
X9045095Y-14828286D01*
X9045095Y-14828286D02*
X9035571Y-14866381D01*
X9035571Y-14866381D02*
X9026048Y-14885428D01*
X9026048Y-14885428D02*
X9016524Y-14894952D01*
X9016524Y-14894952D02*
X8997476Y-14904476D01*
X8997476Y-14904476D02*
X8978429Y-14904476D01*
X8978429Y-14904476D02*
X8959381Y-14894952D01*
X8959381Y-14894952D02*
X8949857Y-14885428D01*
X8949857Y-14885428D02*
X8940333Y-14866381D01*
X8940333Y-14866381D02*
X8930810Y-14828286D01*
X8930810Y-14828286D02*
X8930810Y-14780667D01*
X8930810Y-14780667D02*
X8940333Y-14742571D01*
X8940333Y-14742571D02*
X8949857Y-14723524D01*
X8949857Y-14723524D02*
X8959381Y-14714000D01*
X8959381Y-14714000D02*
X8978429Y-14704476D01*
X9168905Y-14704476D02*
X9187952Y-14704476D01*
X9187952Y-14704476D02*
X9207000Y-14714000D01*
X9207000Y-14714000D02*
X9216524Y-14723524D01*
X9216524Y-14723524D02*
X9226048Y-14742571D01*
X9226048Y-14742571D02*
X9235571Y-14780667D01*
X9235571Y-14780667D02*
X9235571Y-14828286D01*
X9235571Y-14828286D02*
X9226048Y-14866381D01*
X9226048Y-14866381D02*
X9216524Y-14885428D01*
X9216524Y-14885428D02*
X9207000Y-14894952D01*
X9207000Y-14894952D02*
X9187952Y-14904476D01*
X9187952Y-14904476D02*
X9168905Y-14904476D01*
X9168905Y-14904476D02*
X9149857Y-14894952D01*
X9149857Y-14894952D02*
X9140333Y-14885428D01*
X9140333Y-14885428D02*
X9130810Y-14866381D01*
X9130810Y-14866381D02*
X9121286Y-14828286D01*
X9121286Y-14828286D02*
X9121286Y-14780667D01*
X9121286Y-14780667D02*
X9130810Y-14742571D01*
X9130810Y-14742571D02*
X9140333Y-14723524D01*
X9140333Y-14723524D02*
X9149857Y-14714000D01*
X9149857Y-14714000D02*
X9168905Y-14704476D01*
X9359381Y-14704476D02*
X9378429Y-14704476D01*
X9378429Y-14704476D02*
X9397476Y-14714000D01*
X9397476Y-14714000D02*
X9407000Y-14723524D01*
X9407000Y-14723524D02*
X9416524Y-14742571D01*
X9416524Y-14742571D02*
X9426048Y-14780667D01*
X9426048Y-14780667D02*
X9426048Y-14828286D01*
X9426048Y-14828286D02*
X9416524Y-14866381D01*
X9416524Y-14866381D02*
X9407000Y-14885428D01*
X9407000Y-14885428D02*
X9397476Y-14894952D01*
X9397476Y-14894952D02*
X9378429Y-14904476D01*
X9378429Y-14904476D02*
X9359381Y-14904476D01*
X9359381Y-14904476D02*
X9340333Y-14894952D01*
X9340333Y-14894952D02*
X9330810Y-14885428D01*
X9330810Y-14885428D02*
X9321286Y-14866381D01*
X9321286Y-14866381D02*
X9311762Y-14828286D01*
X9311762Y-14828286D02*
X9311762Y-14780667D01*
X9311762Y-14780667D02*
X9321286Y-14742571D01*
X9321286Y-14742571D02*
X9330810Y-14723524D01*
X9330810Y-14723524D02*
X9340333Y-14714000D01*
X9340333Y-14714000D02*
X9359381Y-14704476D01*
X9511762Y-14904476D02*
X9511762Y-14771143D01*
X9511762Y-14790190D02*
X9521286Y-14780667D01*
X9521286Y-14780667D02*
X9540333Y-14771143D01*
X9540333Y-14771143D02*
X9568905Y-14771143D01*
X9568905Y-14771143D02*
X9587952Y-14780667D01*
X9587952Y-14780667D02*
X9597476Y-14799714D01*
X9597476Y-14799714D02*
X9597476Y-14904476D01*
X9597476Y-14799714D02*
X9607000Y-14780667D01*
X9607000Y-14780667D02*
X9626048Y-14771143D01*
X9626048Y-14771143D02*
X9654619Y-14771143D01*
X9654619Y-14771143D02*
X9673667Y-14780667D01*
X9673667Y-14780667D02*
X9683191Y-14799714D01*
X9683191Y-14799714D02*
X9683191Y-14904476D01*
X9778429Y-14904476D02*
X9778429Y-14771143D01*
X9778429Y-14790190D02*
X9787952Y-14780667D01*
X9787952Y-14780667D02*
X9807000Y-14771143D01*
X9807000Y-14771143D02*
X9835572Y-14771143D01*
X9835572Y-14771143D02*
X9854619Y-14780667D01*
X9854619Y-14780667D02*
X9864143Y-14799714D01*
X9864143Y-14799714D02*
X9864143Y-14904476D01*
X9864143Y-14799714D02*
X9873667Y-14780667D01*
X9873667Y-14780667D02*
X9892714Y-14771143D01*
X9892714Y-14771143D02*
X9921286Y-14771143D01*
X9921286Y-14771143D02*
X9940333Y-14780667D01*
X9940333Y-14780667D02*
X9949857Y-14799714D01*
X9949857Y-14799714D02*
X9949857Y-14904476D01*
X10307952Y-14694952D02*
X10136524Y-14952095D01*
X10532714Y-14704476D02*
X10551762Y-14704476D01*
X10551762Y-14704476D02*
X10570810Y-14714000D01*
X10570810Y-14714000D02*
X10580333Y-14723524D01*
X10580333Y-14723524D02*
X10589857Y-14742571D01*
X10589857Y-14742571D02*
X10599381Y-14780667D01*
X10599381Y-14780667D02*
X10599381Y-14828286D01*
X10599381Y-14828286D02*
X10589857Y-14866381D01*
X10589857Y-14866381D02*
X10580333Y-14885428D01*
X10580333Y-14885428D02*
X10570810Y-14894952D01*
X10570810Y-14894952D02*
X10551762Y-14904476D01*
X10551762Y-14904476D02*
X10532714Y-14904476D01*
X10532714Y-14904476D02*
X10513667Y-14894952D01*
X10513667Y-14894952D02*
X10504143Y-14885428D01*
X10504143Y-14885428D02*
X10494619Y-14866381D01*
X10494619Y-14866381D02*
X10485095Y-14828286D01*
X10485095Y-14828286D02*
X10485095Y-14780667D01*
X10485095Y-14780667D02*
X10494619Y-14742571D01*
X10494619Y-14742571D02*
X10504143Y-14723524D01*
X10504143Y-14723524D02*
X10513667Y-14714000D01*
X10513667Y-14714000D02*
X10532714Y-14704476D01*
X10685095Y-14885428D02*
X10694619Y-14894952D01*
X10694619Y-14894952D02*
X10685095Y-14904476D01*
X10685095Y-14904476D02*
X10675572Y-14894952D01*
X10675572Y-14894952D02*
X10685095Y-14885428D01*
X10685095Y-14885428D02*
X10685095Y-14904476D01*
X10818429Y-14704476D02*
X10837476Y-14704476D01*
X10837476Y-14704476D02*
X10856524Y-14714000D01*
X10856524Y-14714000D02*
X10866048Y-14723524D01*
X10866048Y-14723524D02*
X10875572Y-14742571D01*
X10875572Y-14742571D02*
X10885095Y-14780667D01*
X10885095Y-14780667D02*
X10885095Y-14828286D01*
X10885095Y-14828286D02*
X10875572Y-14866381D01*
X10875572Y-14866381D02*
X10866048Y-14885428D01*
X10866048Y-14885428D02*
X10856524Y-14894952D01*
X10856524Y-14894952D02*
X10837476Y-14904476D01*
X10837476Y-14904476D02*
X10818429Y-14904476D01*
X10818429Y-14904476D02*
X10799381Y-14894952D01*
X10799381Y-14894952D02*
X10789857Y-14885428D01*
X10789857Y-14885428D02*
X10780333Y-14866381D01*
X10780333Y-14866381D02*
X10770810Y-14828286D01*
X10770810Y-14828286D02*
X10770810Y-14780667D01*
X10770810Y-14780667D02*
X10780333Y-14742571D01*
X10780333Y-14742571D02*
X10789857Y-14723524D01*
X10789857Y-14723524D02*
X10799381Y-14714000D01*
X10799381Y-14714000D02*
X10818429Y-14704476D01*
X10951762Y-14704476D02*
X11075572Y-14704476D01*
X11075572Y-14704476D02*
X11008905Y-14780667D01*
X11008905Y-14780667D02*
X11037476Y-14780667D01*
X11037476Y-14780667D02*
X11056524Y-14790190D01*
X11056524Y-14790190D02*
X11066048Y-14799714D01*
X11066048Y-14799714D02*
X11075572Y-14818762D01*
X11075572Y-14818762D02*
X11075572Y-14866381D01*
X11075572Y-14866381D02*
X11066048Y-14885428D01*
X11066048Y-14885428D02*
X11056524Y-14894952D01*
X11056524Y-14894952D02*
X11037476Y-14904476D01*
X11037476Y-14904476D02*
X10980333Y-14904476D01*
X10980333Y-14904476D02*
X10961286Y-14894952D01*
X10961286Y-14894952D02*
X10951762Y-14885428D01*
X11170810Y-14904476D02*
X11208905Y-14904476D01*
X11208905Y-14904476D02*
X11227952Y-14894952D01*
X11227952Y-14894952D02*
X11237476Y-14885428D01*
X11237476Y-14885428D02*
X11256524Y-14856857D01*
X11256524Y-14856857D02*
X11266048Y-14818762D01*
X11266048Y-14818762D02*
X11266048Y-14742571D01*
X11266048Y-14742571D02*
X11256524Y-14723524D01*
X11256524Y-14723524D02*
X11247000Y-14714000D01*
X11247000Y-14714000D02*
X11227952Y-14704476D01*
X11227952Y-14704476D02*
X11189857Y-14704476D01*
X11189857Y-14704476D02*
X11170810Y-14714000D01*
X11170810Y-14714000D02*
X11161286Y-14723524D01*
X11161286Y-14723524D02*
X11151762Y-14742571D01*
X11151762Y-14742571D02*
X11151762Y-14790190D01*
X11151762Y-14790190D02*
X11161286Y-14809238D01*
X11161286Y-14809238D02*
X11170810Y-14818762D01*
X11170810Y-14818762D02*
X11189857Y-14828286D01*
X11189857Y-14828286D02*
X11227952Y-14828286D01*
X11227952Y-14828286D02*
X11247000Y-14818762D01*
X11247000Y-14818762D02*
X11256524Y-14809238D01*
X11256524Y-14809238D02*
X11266048Y-14790190D01*
X11437476Y-14771143D02*
X11437476Y-14904476D01*
X11389857Y-14694952D02*
X11342238Y-14837809D01*
X11342238Y-14837809D02*
X11466048Y-14837809D01*
X11532714Y-14704476D02*
X11532714Y-14742571D01*
X11608905Y-14704476D02*
X11608905Y-14742571D01*
X11871762Y-14980667D02*
X11862238Y-14971143D01*
X11862238Y-14971143D02*
X11843191Y-14942571D01*
X11843191Y-14942571D02*
X11833667Y-14923524D01*
X11833667Y-14923524D02*
X11824143Y-14894952D01*
X11824143Y-14894952D02*
X11814619Y-14847333D01*
X11814619Y-14847333D02*
X11814619Y-14809238D01*
X11814619Y-14809238D02*
X11824143Y-14761619D01*
X11824143Y-14761619D02*
X11833667Y-14733048D01*
X11833667Y-14733048D02*
X11843191Y-14714000D01*
X11843191Y-14714000D02*
X11862238Y-14685428D01*
X11862238Y-14685428D02*
X11871762Y-14675905D01*
X12033667Y-14704476D02*
X11995571Y-14704476D01*
X11995571Y-14704476D02*
X11976524Y-14714000D01*
X11976524Y-14714000D02*
X11967000Y-14723524D01*
X11967000Y-14723524D02*
X11947952Y-14752095D01*
X11947952Y-14752095D02*
X11938429Y-14790190D01*
X11938429Y-14790190D02*
X11938429Y-14866381D01*
X11938429Y-14866381D02*
X11947952Y-14885428D01*
X11947952Y-14885428D02*
X11957476Y-14894952D01*
X11957476Y-14894952D02*
X11976524Y-14904476D01*
X11976524Y-14904476D02*
X12014619Y-14904476D01*
X12014619Y-14904476D02*
X12033667Y-14894952D01*
X12033667Y-14894952D02*
X12043191Y-14885428D01*
X12043191Y-14885428D02*
X12052714Y-14866381D01*
X12052714Y-14866381D02*
X12052714Y-14818762D01*
X12052714Y-14818762D02*
X12043191Y-14799714D01*
X12043191Y-14799714D02*
X12033667Y-14790190D01*
X12033667Y-14790190D02*
X12014619Y-14780667D01*
X12014619Y-14780667D02*
X11976524Y-14780667D01*
X11976524Y-14780667D02*
X11957476Y-14790190D01*
X11957476Y-14790190D02*
X11947952Y-14799714D01*
X11947952Y-14799714D02*
X11938429Y-14818762D01*
X12258429Y-14904476D02*
X12258429Y-14704476D01*
X12344143Y-14904476D02*
X12344143Y-14799714D01*
X12344143Y-14799714D02*
X12334619Y-14780667D01*
X12334619Y-14780667D02*
X12315572Y-14771143D01*
X12315572Y-14771143D02*
X12287000Y-14771143D01*
X12287000Y-14771143D02*
X12267952Y-14780667D01*
X12267952Y-14780667D02*
X12258429Y-14790190D01*
X12467952Y-14904476D02*
X12448905Y-14894952D01*
X12448905Y-14894952D02*
X12439381Y-14885428D01*
X12439381Y-14885428D02*
X12429857Y-14866381D01*
X12429857Y-14866381D02*
X12429857Y-14809238D01*
X12429857Y-14809238D02*
X12439381Y-14790190D01*
X12439381Y-14790190D02*
X12448905Y-14780667D01*
X12448905Y-14780667D02*
X12467952Y-14771143D01*
X12467952Y-14771143D02*
X12496524Y-14771143D01*
X12496524Y-14771143D02*
X12515572Y-14780667D01*
X12515572Y-14780667D02*
X12525095Y-14790190D01*
X12525095Y-14790190D02*
X12534619Y-14809238D01*
X12534619Y-14809238D02*
X12534619Y-14866381D01*
X12534619Y-14866381D02*
X12525095Y-14885428D01*
X12525095Y-14885428D02*
X12515572Y-14894952D01*
X12515572Y-14894952D02*
X12496524Y-14904476D01*
X12496524Y-14904476D02*
X12467952Y-14904476D01*
X12648905Y-14904476D02*
X12629857Y-14894952D01*
X12629857Y-14894952D02*
X12620333Y-14875905D01*
X12620333Y-14875905D02*
X12620333Y-14704476D01*
X12801286Y-14894952D02*
X12782238Y-14904476D01*
X12782238Y-14904476D02*
X12744143Y-14904476D01*
X12744143Y-14904476D02*
X12725095Y-14894952D01*
X12725095Y-14894952D02*
X12715572Y-14875905D01*
X12715572Y-14875905D02*
X12715572Y-14799714D01*
X12715572Y-14799714D02*
X12725095Y-14780667D01*
X12725095Y-14780667D02*
X12744143Y-14771143D01*
X12744143Y-14771143D02*
X12782238Y-14771143D01*
X12782238Y-14771143D02*
X12801286Y-14780667D01*
X12801286Y-14780667D02*
X12810810Y-14799714D01*
X12810810Y-14799714D02*
X12810810Y-14818762D01*
X12810810Y-14818762D02*
X12715572Y-14837809D01*
X12887000Y-14894952D02*
X12906048Y-14904476D01*
X12906048Y-14904476D02*
X12944143Y-14904476D01*
X12944143Y-14904476D02*
X12963191Y-14894952D01*
X12963191Y-14894952D02*
X12972714Y-14875905D01*
X12972714Y-14875905D02*
X12972714Y-14866381D01*
X12972714Y-14866381D02*
X12963191Y-14847333D01*
X12963191Y-14847333D02*
X12944143Y-14837809D01*
X12944143Y-14837809D02*
X12915572Y-14837809D01*
X12915572Y-14837809D02*
X12896524Y-14828286D01*
X12896524Y-14828286D02*
X12887000Y-14809238D01*
X12887000Y-14809238D02*
X12887000Y-14799714D01*
X12887000Y-14799714D02*
X12896524Y-14780667D01*
X12896524Y-14780667D02*
X12915572Y-14771143D01*
X12915572Y-14771143D02*
X12944143Y-14771143D01*
X12944143Y-14771143D02*
X12963191Y-14780667D01*
X13039381Y-14980667D02*
X13048905Y-14971143D01*
X13048905Y-14971143D02*
X13067953Y-14942571D01*
X13067953Y-14942571D02*
X13077476Y-14923524D01*
X13077476Y-14923524D02*
X13087000Y-14894952D01*
X13087000Y-14894952D02*
X13096524Y-14847333D01*
X13096524Y-14847333D02*
X13096524Y-14809238D01*
X13096524Y-14809238D02*
X13087000Y-14761619D01*
X13087000Y-14761619D02*
X13077476Y-14733048D01*
X13077476Y-14733048D02*
X13067953Y-14714000D01*
X13067953Y-14714000D02*
X13048905Y-14685428D01*
X13048905Y-14685428D02*
X13039381Y-14675905D01*
M02*
