G04 #@! TF.GenerationSoftware,KiCad,Pcbnew,(6.99.0-2452-gdb4f2d9dd8)*
G04 #@! TF.CreationDate,2022-07-21T16:36:40-08:00*
G04 #@! TF.ProjectId,crew-SAO,63726577-2d53-4414-9f2e-6b696361645f,rev?*
G04 #@! TF.SameCoordinates,Original*
G04 #@! TF.FileFunction,Legend,Top*
G04 #@! TF.FilePolarity,Positive*
%FSLAX46Y46*%
G04 Gerber Fmt 4.6, Leading zero omitted, Abs format (unit mm)*
G04 Created by KiCad (PCBNEW (6.99.0-2452-gdb4f2d9dd8)) date 2022-07-21 16:36:40*
%MOMM*%
%LPD*%
G01*
G04 APERTURE LIST*
%ADD10C,0.100000*%
%ADD11C,0.020000*%
%ADD12C,0.300000*%
%ADD13C,0.264583*%
%ADD14C,0.150000*%
%ADD15C,0.120000*%
%ADD16R,1.800000X1.800000*%
%ADD17C,1.800000*%
%ADD18R,1.700000X1.700000*%
%ADD19O,1.700000X1.700000*%
G04 APERTURE END LIST*
D10*
G36*
X90559245Y-127772901D02*
G01*
X85055911Y-127772901D01*
X85055911Y-127067346D01*
X90559245Y-127067346D01*
X90559245Y-127772901D01*
G37*
X90559245Y-127772901D02*
X85055911Y-127772901D01*
X85055911Y-127067346D01*
X90559245Y-127067346D01*
X90559245Y-127772901D01*
G36*
X107114956Y-125863793D02*
G01*
X103688522Y-125863793D01*
X103688522Y-125262231D01*
X107114956Y-125262231D01*
X107114956Y-125863793D01*
G37*
X107114956Y-125863793D02*
X103688522Y-125863793D01*
X103688522Y-125262231D01*
X107114956Y-125262231D01*
X107114956Y-125863793D01*
D11*
G36*
X112212582Y-135778166D02*
G01*
X111907517Y-135778166D01*
X111767288Y-135565441D01*
X111084134Y-135565441D01*
X111230448Y-135342926D01*
X111622297Y-135342926D01*
X111342367Y-134915360D01*
X111062174Y-135342926D01*
X111062438Y-135342926D01*
X110916124Y-135565441D01*
X110914536Y-135565441D01*
X110776953Y-135778166D01*
X110471888Y-135778166D01*
X111342367Y-134502609D01*
X112212582Y-135778166D01*
G37*
X112212582Y-135778166D02*
X111907517Y-135778166D01*
X111767288Y-135565441D01*
X111084134Y-135565441D01*
X111230448Y-135342926D01*
X111622297Y-135342926D01*
X111342367Y-134915360D01*
X111062174Y-135342926D01*
X111062438Y-135342926D01*
X110916124Y-135565441D01*
X110914536Y-135565441D01*
X110776953Y-135778166D01*
X110471888Y-135778166D01*
X111342367Y-134502609D01*
X112212582Y-135778166D01*
D10*
G36*
X107114887Y-124734902D02*
G01*
X103688522Y-124734902D01*
X103688522Y-124133340D01*
X107114887Y-124133340D01*
X107114887Y-124734902D01*
G37*
X107114887Y-124734902D02*
X103688522Y-124734902D01*
X103688522Y-124133340D01*
X107114887Y-124133340D01*
X107114887Y-124734902D01*
G36*
X90559245Y-125232903D02*
G01*
X85055911Y-125232903D01*
X85055911Y-124527347D01*
X90559245Y-124527347D01*
X90559245Y-125232903D01*
G37*
X90559245Y-125232903D02*
X85055911Y-125232903D01*
X85055911Y-124527347D01*
X90559245Y-124527347D01*
X90559245Y-125232903D01*
D11*
G36*
X113690544Y-134740205D02*
G01*
X112695182Y-134740205D01*
X112695182Y-135045270D01*
X113510627Y-135045270D01*
X113510627Y-135242914D01*
X112695182Y-135242914D01*
X112695182Y-135563059D01*
X113690544Y-135563059D01*
X113690544Y-135778166D01*
X112422661Y-135778166D01*
X112422661Y-134522718D01*
X113690544Y-134522718D01*
X113690544Y-134740205D01*
G37*
X113690544Y-134740205D02*
X112695182Y-134740205D01*
X112695182Y-135045270D01*
X113510627Y-135045270D01*
X113510627Y-135242914D01*
X112695182Y-135242914D01*
X112695182Y-135563059D01*
X113690544Y-135563059D01*
X113690544Y-135778166D01*
X112422661Y-135778166D01*
X112422661Y-134522718D01*
X113690544Y-134522718D01*
X113690544Y-134740205D01*
G36*
X130470000Y-135537305D02*
G01*
X131385194Y-135537305D01*
X131385194Y-135772255D01*
X130197479Y-135772255D01*
X130197479Y-134516807D01*
X130470000Y-134516807D01*
X130470000Y-135537305D01*
G37*
X130470000Y-135537305D02*
X131385194Y-135537305D01*
X131385194Y-135772255D01*
X130197479Y-135772255D01*
X130197479Y-134516807D01*
X130470000Y-134516807D01*
X130470000Y-135537305D01*
G36*
X133183566Y-135772255D02*
G01*
X132878503Y-135772255D01*
X132738273Y-135559795D01*
X132052737Y-135559795D01*
X132199052Y-135337280D01*
X132593282Y-135337280D01*
X132313351Y-134909449D01*
X131748202Y-135772255D01*
X131442873Y-135772255D01*
X132313351Y-134496963D01*
X133183566Y-135772255D01*
G37*
X133183566Y-135772255D02*
X132878503Y-135772255D01*
X132738273Y-135559795D01*
X132052737Y-135559795D01*
X132199052Y-135337280D01*
X132593282Y-135337280D01*
X132313351Y-134909449D01*
X131748202Y-135772255D01*
X131442873Y-135772255D01*
X132313351Y-134496963D01*
X133183566Y-135772255D01*
G36*
X126978559Y-135367178D02*
G01*
X127508784Y-134516807D01*
X127828928Y-134516807D01*
X126978559Y-135797391D01*
X126133215Y-134516807D01*
X126456007Y-134516807D01*
X126978559Y-135367178D01*
G37*
X126978559Y-135367178D02*
X127508784Y-134516807D01*
X127828928Y-134516807D01*
X126978559Y-135797391D01*
X126133215Y-134516807D01*
X126456007Y-134516807D01*
X126978559Y-135367178D01*
G36*
X115632669Y-135114977D02*
G01*
X115636057Y-135078243D01*
X115641636Y-135042503D01*
X115649352Y-135007772D01*
X115659151Y-134974064D01*
X115670977Y-134941393D01*
X115684778Y-134909773D01*
X115700498Y-134879219D01*
X115718082Y-134849745D01*
X115737476Y-134821364D01*
X115758626Y-134794092D01*
X115781477Y-134767942D01*
X115805975Y-134742929D01*
X115832064Y-134719067D01*
X115859692Y-134696370D01*
X115888802Y-134674853D01*
X115951254Y-134635414D01*
X116018985Y-134600864D01*
X116091558Y-134571317D01*
X116168537Y-134546886D01*
X116249486Y-134527686D01*
X116333970Y-134513831D01*
X116421552Y-134505434D01*
X116511796Y-134502609D01*
X116511796Y-134502610D01*
X116557457Y-134503318D01*
X116602477Y-134505434D01*
X116646803Y-134508943D01*
X116690382Y-134513831D01*
X116733162Y-134520083D01*
X116775089Y-134527686D01*
X116816110Y-134536625D01*
X116856172Y-134546886D01*
X116895222Y-134558455D01*
X116933207Y-134571317D01*
X116970075Y-134585458D01*
X117005771Y-134600864D01*
X117040243Y-134617521D01*
X117073437Y-134635414D01*
X117105302Y-134654530D01*
X117135783Y-134674853D01*
X117164828Y-134696371D01*
X117192383Y-134719067D01*
X117218396Y-134742929D01*
X117242813Y-134767942D01*
X117265582Y-134794092D01*
X117286650Y-134821364D01*
X117305962Y-134849745D01*
X117323467Y-134879219D01*
X117339112Y-134909773D01*
X117352842Y-134941393D01*
X117364606Y-134974064D01*
X117374350Y-135007772D01*
X117382020Y-135042503D01*
X117387565Y-135078243D01*
X117390931Y-135114977D01*
X117392065Y-135152691D01*
X117390930Y-135189962D01*
X117387562Y-135226310D01*
X117382014Y-135261717D01*
X117374339Y-135296166D01*
X117364589Y-135329640D01*
X117352819Y-135362122D01*
X117339082Y-135393595D01*
X117323430Y-135424042D01*
X117305917Y-135453446D01*
X117286596Y-135481790D01*
X117265521Y-135509057D01*
X117242744Y-135535230D01*
X117218318Y-135560292D01*
X117192297Y-135584227D01*
X117164735Y-135607016D01*
X117135684Y-135628643D01*
X117073327Y-135668343D01*
X117005654Y-135703192D01*
X116933090Y-135733052D01*
X116856060Y-135757789D01*
X116774991Y-135777265D01*
X116690306Y-135791345D01*
X116602433Y-135799892D01*
X116511796Y-135802772D01*
X116466369Y-135802050D01*
X116421552Y-135799895D01*
X116377401Y-135796325D01*
X116333970Y-135791356D01*
X116291314Y-135785004D01*
X116249486Y-135777287D01*
X116208543Y-135768222D01*
X116168537Y-135757826D01*
X116129524Y-135746115D01*
X116091558Y-135733106D01*
X116054693Y-135718816D01*
X116018985Y-135703262D01*
X115984487Y-135686461D01*
X115951254Y-135668429D01*
X115919341Y-135649184D01*
X115888802Y-135628742D01*
X115859692Y-135607121D01*
X115832064Y-135584336D01*
X115805975Y-135560406D01*
X115781477Y-135535346D01*
X115758626Y-135509174D01*
X115737476Y-135481907D01*
X115718082Y-135453561D01*
X115700498Y-135424153D01*
X115684778Y-135393701D01*
X115670977Y-135362220D01*
X115659151Y-135329728D01*
X115649352Y-135296242D01*
X115641636Y-135261778D01*
X115636057Y-135226354D01*
X115632669Y-135189986D01*
X115631536Y-135152955D01*
X115924157Y-135152955D01*
X115924878Y-135176363D01*
X115927021Y-135199201D01*
X115930559Y-135221458D01*
X115935462Y-135243123D01*
X115941703Y-135264184D01*
X115949253Y-135284630D01*
X115958083Y-135304450D01*
X115968165Y-135323632D01*
X115979470Y-135342165D01*
X115991971Y-135360037D01*
X116005638Y-135377238D01*
X116020444Y-135393755D01*
X116036360Y-135409577D01*
X116053356Y-135424693D01*
X116071406Y-135439092D01*
X116090481Y-135452761D01*
X116131589Y-135477869D01*
X116176454Y-135499924D01*
X116224848Y-135518836D01*
X116276545Y-135534513D01*
X116331315Y-135546866D01*
X116388932Y-135555802D01*
X116449168Y-135561230D01*
X116511796Y-135563059D01*
X116543395Y-135562600D01*
X116574424Y-135561230D01*
X116604856Y-135558960D01*
X116634661Y-135555802D01*
X116663811Y-135551766D01*
X116692278Y-135546866D01*
X116720033Y-135541111D01*
X116747048Y-135534513D01*
X116773295Y-135527085D01*
X116798744Y-135518836D01*
X116823368Y-135509778D01*
X116847139Y-135499924D01*
X116870026Y-135489283D01*
X116892004Y-135477869D01*
X116913042Y-135465691D01*
X116933112Y-135452761D01*
X116952186Y-135439092D01*
X116970236Y-135424693D01*
X116987233Y-135409577D01*
X117003149Y-135393755D01*
X117017954Y-135377238D01*
X117031622Y-135360037D01*
X117044122Y-135342165D01*
X117055428Y-135323632D01*
X117065510Y-135304450D01*
X117074340Y-135284630D01*
X117081890Y-135264184D01*
X117088130Y-135243123D01*
X117093034Y-135221458D01*
X117096571Y-135199201D01*
X117098715Y-135176363D01*
X117099435Y-135152955D01*
X117098715Y-135129129D01*
X117096571Y-135105925D01*
X117093034Y-135083353D01*
X117088130Y-135061420D01*
X117081890Y-135040137D01*
X117074340Y-135019512D01*
X117065510Y-134999553D01*
X117055428Y-134980269D01*
X117044122Y-134961670D01*
X117031622Y-134943763D01*
X117017954Y-134926558D01*
X117003149Y-134910063D01*
X116987233Y-134894288D01*
X116970236Y-134879240D01*
X116952186Y-134864929D01*
X116933112Y-134851363D01*
X116892004Y-134826504D01*
X116847139Y-134804731D01*
X116798744Y-134786116D01*
X116747048Y-134770728D01*
X116692278Y-134758637D01*
X116634661Y-134749914D01*
X116574424Y-134744629D01*
X116511796Y-134742851D01*
X116480197Y-134743297D01*
X116449168Y-134744629D01*
X116418737Y-134746837D01*
X116388932Y-134749914D01*
X116359782Y-134753850D01*
X116331315Y-134758637D01*
X116303560Y-134764266D01*
X116276545Y-134770728D01*
X116250298Y-134778014D01*
X116224848Y-134786116D01*
X116200224Y-134795024D01*
X116176454Y-134804731D01*
X116153566Y-134815227D01*
X116131589Y-134826504D01*
X116110551Y-134838552D01*
X116090481Y-134851363D01*
X116071406Y-134864929D01*
X116053356Y-134879240D01*
X116036360Y-134894288D01*
X116020444Y-134910063D01*
X116005638Y-134926558D01*
X115991971Y-134943763D01*
X115979470Y-134961670D01*
X115968165Y-134980269D01*
X115958083Y-134999553D01*
X115949253Y-135019512D01*
X115941703Y-135040137D01*
X115935462Y-135061420D01*
X115930559Y-135083353D01*
X115927021Y-135105925D01*
X115924878Y-135129129D01*
X115924157Y-135152955D01*
X115631536Y-135152955D01*
X115631528Y-135152691D01*
X115632669Y-135114977D01*
G37*
X115632669Y-135114977D02*
X115636057Y-135078243D01*
X115641636Y-135042503D01*
X115649352Y-135007772D01*
X115659151Y-134974064D01*
X115670977Y-134941393D01*
X115684778Y-134909773D01*
X115700498Y-134879219D01*
X115718082Y-134849745D01*
X115737476Y-134821364D01*
X115758626Y-134794092D01*
X115781477Y-134767942D01*
X115805975Y-134742929D01*
X115832064Y-134719067D01*
X115859692Y-134696370D01*
X115888802Y-134674853D01*
X115951254Y-134635414D01*
X116018985Y-134600864D01*
X116091558Y-134571317D01*
X116168537Y-134546886D01*
X116249486Y-134527686D01*
X116333970Y-134513831D01*
X116421552Y-134505434D01*
X116511796Y-134502609D01*
X116511796Y-134502610D01*
X116557457Y-134503318D01*
X116602477Y-134505434D01*
X116646803Y-134508943D01*
X116690382Y-134513831D01*
X116733162Y-134520083D01*
X116775089Y-134527686D01*
X116816110Y-134536625D01*
X116856172Y-134546886D01*
X116895222Y-134558455D01*
X116933207Y-134571317D01*
X116970075Y-134585458D01*
X117005771Y-134600864D01*
X117040243Y-134617521D01*
X117073437Y-134635414D01*
X117105302Y-134654530D01*
X117135783Y-134674853D01*
X117164828Y-134696371D01*
X117192383Y-134719067D01*
X117218396Y-134742929D01*
X117242813Y-134767942D01*
X117265582Y-134794092D01*
X117286650Y-134821364D01*
X117305962Y-134849745D01*
X117323467Y-134879219D01*
X117339112Y-134909773D01*
X117352842Y-134941393D01*
X117364606Y-134974064D01*
X117374350Y-135007772D01*
X117382020Y-135042503D01*
X117387565Y-135078243D01*
X117390931Y-135114977D01*
X117392065Y-135152691D01*
X117390930Y-135189962D01*
X117387562Y-135226310D01*
X117382014Y-135261717D01*
X117374339Y-135296166D01*
X117364589Y-135329640D01*
X117352819Y-135362122D01*
X117339082Y-135393595D01*
X117323430Y-135424042D01*
X117305917Y-135453446D01*
X117286596Y-135481790D01*
X117265521Y-135509057D01*
X117242744Y-135535230D01*
X117218318Y-135560292D01*
X117192297Y-135584227D01*
X117164735Y-135607016D01*
X117135684Y-135628643D01*
X117073327Y-135668343D01*
X117005654Y-135703192D01*
X116933090Y-135733052D01*
X116856060Y-135757789D01*
X116774991Y-135777265D01*
X116690306Y-135791345D01*
X116602433Y-135799892D01*
X116511796Y-135802772D01*
X116466369Y-135802050D01*
X116421552Y-135799895D01*
X116377401Y-135796325D01*
X116333970Y-135791356D01*
X116291314Y-135785004D01*
X116249486Y-135777287D01*
X116208543Y-135768222D01*
X116168537Y-135757826D01*
X116129524Y-135746115D01*
X116091558Y-135733106D01*
X116054693Y-135718816D01*
X116018985Y-135703262D01*
X115984487Y-135686461D01*
X115951254Y-135668429D01*
X115919341Y-135649184D01*
X115888802Y-135628742D01*
X115859692Y-135607121D01*
X115832064Y-135584336D01*
X115805975Y-135560406D01*
X115781477Y-135535346D01*
X115758626Y-135509174D01*
X115737476Y-135481907D01*
X115718082Y-135453561D01*
X115700498Y-135424153D01*
X115684778Y-135393701D01*
X115670977Y-135362220D01*
X115659151Y-135329728D01*
X115649352Y-135296242D01*
X115641636Y-135261778D01*
X115636057Y-135226354D01*
X115632669Y-135189986D01*
X115631536Y-135152955D01*
X115924157Y-135152955D01*
X115924878Y-135176363D01*
X115927021Y-135199201D01*
X115930559Y-135221458D01*
X115935462Y-135243123D01*
X115941703Y-135264184D01*
X115949253Y-135284630D01*
X115958083Y-135304450D01*
X115968165Y-135323632D01*
X115979470Y-135342165D01*
X115991971Y-135360037D01*
X116005638Y-135377238D01*
X116020444Y-135393755D01*
X116036360Y-135409577D01*
X116053356Y-135424693D01*
X116071406Y-135439092D01*
X116090481Y-135452761D01*
X116131589Y-135477869D01*
X116176454Y-135499924D01*
X116224848Y-135518836D01*
X116276545Y-135534513D01*
X116331315Y-135546866D01*
X116388932Y-135555802D01*
X116449168Y-135561230D01*
X116511796Y-135563059D01*
X116543395Y-135562600D01*
X116574424Y-135561230D01*
X116604856Y-135558960D01*
X116634661Y-135555802D01*
X116663811Y-135551766D01*
X116692278Y-135546866D01*
X116720033Y-135541111D01*
X116747048Y-135534513D01*
X116773295Y-135527085D01*
X116798744Y-135518836D01*
X116823368Y-135509778D01*
X116847139Y-135499924D01*
X116870026Y-135489283D01*
X116892004Y-135477869D01*
X116913042Y-135465691D01*
X116933112Y-135452761D01*
X116952186Y-135439092D01*
X116970236Y-135424693D01*
X116987233Y-135409577D01*
X117003149Y-135393755D01*
X117017954Y-135377238D01*
X117031622Y-135360037D01*
X117044122Y-135342165D01*
X117055428Y-135323632D01*
X117065510Y-135304450D01*
X117074340Y-135284630D01*
X117081890Y-135264184D01*
X117088130Y-135243123D01*
X117093034Y-135221458D01*
X117096571Y-135199201D01*
X117098715Y-135176363D01*
X117099435Y-135152955D01*
X117098715Y-135129129D01*
X117096571Y-135105925D01*
X117093034Y-135083353D01*
X117088130Y-135061420D01*
X117081890Y-135040137D01*
X117074340Y-135019512D01*
X117065510Y-134999553D01*
X117055428Y-134980269D01*
X117044122Y-134961670D01*
X117031622Y-134943763D01*
X117017954Y-134926558D01*
X117003149Y-134910063D01*
X116987233Y-134894288D01*
X116970236Y-134879240D01*
X116952186Y-134864929D01*
X116933112Y-134851363D01*
X116892004Y-134826504D01*
X116847139Y-134804731D01*
X116798744Y-134786116D01*
X116747048Y-134770728D01*
X116692278Y-134758637D01*
X116634661Y-134749914D01*
X116574424Y-134744629D01*
X116511796Y-134742851D01*
X116480197Y-134743297D01*
X116449168Y-134744629D01*
X116418737Y-134746837D01*
X116388932Y-134749914D01*
X116359782Y-134753850D01*
X116331315Y-134758637D01*
X116303560Y-134764266D01*
X116276545Y-134770728D01*
X116250298Y-134778014D01*
X116224848Y-134786116D01*
X116200224Y-134795024D01*
X116176454Y-134804731D01*
X116153566Y-134815227D01*
X116131589Y-134826504D01*
X116110551Y-134838552D01*
X116090481Y-134851363D01*
X116071406Y-134864929D01*
X116053356Y-134879240D01*
X116036360Y-134894288D01*
X116020444Y-134910063D01*
X116005638Y-134926558D01*
X115991971Y-134943763D01*
X115979470Y-134961670D01*
X115968165Y-134980269D01*
X115958083Y-134999553D01*
X115949253Y-135019512D01*
X115941703Y-135040137D01*
X115935462Y-135061420D01*
X115930559Y-135083353D01*
X115927021Y-135105925D01*
X115924878Y-135129129D01*
X115924157Y-135152955D01*
X115631536Y-135152955D01*
X115631528Y-135152691D01*
X115632669Y-135114977D01*
D10*
G36*
X107117819Y-135177122D02*
G01*
X103691454Y-135177122D01*
X103691454Y-134575560D01*
X107117819Y-134575560D01*
X107117819Y-135177122D01*
G37*
X107117819Y-135177122D02*
X103691454Y-135177122D01*
X103691454Y-134575560D01*
X107117819Y-134575560D01*
X107117819Y-135177122D01*
G36*
X107116421Y-137434901D02*
G01*
X103689987Y-137434901D01*
X103689987Y-136833341D01*
X107116421Y-136833341D01*
X107116421Y-137434901D01*
G37*
X107116421Y-137434901D02*
X103689987Y-137434901D01*
X103689987Y-136833341D01*
X107116421Y-136833341D01*
X107116421Y-137434901D01*
D11*
G36*
X118365137Y-134503037D02*
G01*
X118412040Y-134504268D01*
X118458096Y-134506225D01*
X118503113Y-134508831D01*
X118589269Y-134515683D01*
X118668978Y-134524206D01*
X118740713Y-134533783D01*
X118802944Y-134543798D01*
X118854143Y-134553632D01*
X118892782Y-134562670D01*
X118880347Y-134790212D01*
X118835179Y-134778287D01*
X118784262Y-134767098D01*
X118727677Y-134756907D01*
X118665506Y-134747977D01*
X118597827Y-134740574D01*
X118524722Y-134734959D01*
X118446272Y-134731397D01*
X118362557Y-134730151D01*
X118321309Y-134730463D01*
X118280335Y-134731470D01*
X118239964Y-134733278D01*
X118200525Y-134735993D01*
X118162348Y-134739719D01*
X118125762Y-134744564D01*
X118091097Y-134750633D01*
X118074588Y-134754160D01*
X118058683Y-134758032D01*
X118043422Y-134762263D01*
X118028848Y-134766866D01*
X118015001Y-134771854D01*
X118001922Y-134777241D01*
X117989653Y-134783040D01*
X117978235Y-134789264D01*
X117967709Y-134795926D01*
X117958116Y-134803040D01*
X117949497Y-134810618D01*
X117941894Y-134818674D01*
X117935348Y-134827222D01*
X117929899Y-134836273D01*
X117925590Y-134845843D01*
X117922461Y-134855943D01*
X117920553Y-134866587D01*
X117919908Y-134877789D01*
X117919910Y-134877789D01*
X117922995Y-134900517D01*
X117931988Y-134920117D01*
X117946496Y-134936860D01*
X117966123Y-134951018D01*
X117990477Y-134962862D01*
X118019164Y-134972664D01*
X118051788Y-134980695D01*
X118087958Y-134987227D01*
X118169354Y-134996878D01*
X118260201Y-135003790D01*
X118457643Y-135018084D01*
X118557935Y-135029810D01*
X118655072Y-135047484D01*
X118701473Y-135059230D01*
X118745904Y-135073278D01*
X118787970Y-135089899D01*
X118827278Y-135109365D01*
X118863434Y-135131947D01*
X118896044Y-135157916D01*
X118924714Y-135187545D01*
X118949050Y-135221104D01*
X118968658Y-135258865D01*
X118983145Y-135301100D01*
X118992116Y-135348080D01*
X118995177Y-135400076D01*
X118994097Y-135431819D01*
X118990907Y-135461892D01*
X118985677Y-135490336D01*
X118978481Y-135517197D01*
X118969388Y-135542516D01*
X118958473Y-135566339D01*
X118945805Y-135588708D01*
X118931458Y-135609667D01*
X118915502Y-135629260D01*
X118898011Y-135647529D01*
X118879055Y-135664519D01*
X118858706Y-135680273D01*
X118837037Y-135694834D01*
X118814119Y-135708246D01*
X118764824Y-135731797D01*
X118711396Y-135751274D01*
X118654410Y-135767025D01*
X118594440Y-135779398D01*
X118532061Y-135788741D01*
X118467849Y-135795401D01*
X118402377Y-135799728D01*
X118336221Y-135802069D01*
X118269955Y-135802772D01*
X118188269Y-135801856D01*
X118105169Y-135799163D01*
X118021598Y-135794777D01*
X117938498Y-135788782D01*
X117856812Y-135781262D01*
X117777482Y-135772299D01*
X117701452Y-135761979D01*
X117629663Y-135750384D01*
X117639717Y-135522843D01*
X117713312Y-135535208D01*
X117786160Y-135545915D01*
X117858703Y-135554966D01*
X117931387Y-135562365D01*
X118004653Y-135568114D01*
X118078945Y-135572216D01*
X118154708Y-135574676D01*
X118232383Y-135575495D01*
X118280803Y-135575123D01*
X118328327Y-135573935D01*
X118374647Y-135571822D01*
X118419456Y-135568673D01*
X118462446Y-135564381D01*
X118503311Y-135558835D01*
X118541742Y-135551927D01*
X118559949Y-135547927D01*
X118577433Y-135543546D01*
X118594155Y-135538770D01*
X118610076Y-135533585D01*
X118625158Y-135527976D01*
X118639364Y-135521932D01*
X118652653Y-135515438D01*
X118664989Y-135508480D01*
X118676332Y-135501045D01*
X118686644Y-135493118D01*
X118695887Y-135484688D01*
X118704022Y-135475738D01*
X118711011Y-135466257D01*
X118716815Y-135456231D01*
X118721396Y-135445645D01*
X118724716Y-135434486D01*
X118726737Y-135422741D01*
X118727419Y-135410395D01*
X118724327Y-135385652D01*
X118715316Y-135364224D01*
X118700780Y-135345831D01*
X118681113Y-135330198D01*
X118656711Y-135317047D01*
X118627968Y-135306101D01*
X118595278Y-135297083D01*
X118559036Y-135289716D01*
X118477476Y-135278827D01*
X118386444Y-135271217D01*
X118188594Y-135256970D01*
X118088091Y-135245899D01*
X117990744Y-135229241D01*
X117944242Y-135218124D01*
X117899713Y-135204779D01*
X117857551Y-135188930D01*
X117818152Y-135170298D01*
X117781911Y-135148607D01*
X117749221Y-135123580D01*
X117720477Y-135094940D01*
X117696075Y-135062409D01*
X117676408Y-135025711D01*
X117661872Y-134984569D01*
X117652861Y-134938705D01*
X117649770Y-134887843D01*
X117650883Y-134856801D01*
X117654165Y-134827444D01*
X117659525Y-134799726D01*
X117666875Y-134773600D01*
X117676124Y-134749020D01*
X117687184Y-134725942D01*
X117699965Y-134704319D01*
X117714378Y-134684105D01*
X117730333Y-134665255D01*
X117747742Y-134647722D01*
X117766514Y-134631462D01*
X117786561Y-134616427D01*
X117807794Y-134602572D01*
X117830122Y-134589852D01*
X117877708Y-134567631D01*
X117928606Y-134549397D01*
X117982101Y-134534784D01*
X118037478Y-134523425D01*
X118094022Y-134514954D01*
X118151018Y-134509003D01*
X118207753Y-134505207D01*
X118263511Y-134503198D01*
X118317578Y-134502609D01*
X118365137Y-134503037D01*
G37*
X118365137Y-134503037D02*
X118412040Y-134504268D01*
X118458096Y-134506225D01*
X118503113Y-134508831D01*
X118589269Y-134515683D01*
X118668978Y-134524206D01*
X118740713Y-134533783D01*
X118802944Y-134543798D01*
X118854143Y-134553632D01*
X118892782Y-134562670D01*
X118880347Y-134790212D01*
X118835179Y-134778287D01*
X118784262Y-134767098D01*
X118727677Y-134756907D01*
X118665506Y-134747977D01*
X118597827Y-134740574D01*
X118524722Y-134734959D01*
X118446272Y-134731397D01*
X118362557Y-134730151D01*
X118321309Y-134730463D01*
X118280335Y-134731470D01*
X118239964Y-134733278D01*
X118200525Y-134735993D01*
X118162348Y-134739719D01*
X118125762Y-134744564D01*
X118091097Y-134750633D01*
X118074588Y-134754160D01*
X118058683Y-134758032D01*
X118043422Y-134762263D01*
X118028848Y-134766866D01*
X118015001Y-134771854D01*
X118001922Y-134777241D01*
X117989653Y-134783040D01*
X117978235Y-134789264D01*
X117967709Y-134795926D01*
X117958116Y-134803040D01*
X117949497Y-134810618D01*
X117941894Y-134818674D01*
X117935348Y-134827222D01*
X117929899Y-134836273D01*
X117925590Y-134845843D01*
X117922461Y-134855943D01*
X117920553Y-134866587D01*
X117919908Y-134877789D01*
X117919910Y-134877789D01*
X117922995Y-134900517D01*
X117931988Y-134920117D01*
X117946496Y-134936860D01*
X117966123Y-134951018D01*
X117990477Y-134962862D01*
X118019164Y-134972664D01*
X118051788Y-134980695D01*
X118087958Y-134987227D01*
X118169354Y-134996878D01*
X118260201Y-135003790D01*
X118457643Y-135018084D01*
X118557935Y-135029810D01*
X118655072Y-135047484D01*
X118701473Y-135059230D01*
X118745904Y-135073278D01*
X118787970Y-135089899D01*
X118827278Y-135109365D01*
X118863434Y-135131947D01*
X118896044Y-135157916D01*
X118924714Y-135187545D01*
X118949050Y-135221104D01*
X118968658Y-135258865D01*
X118983145Y-135301100D01*
X118992116Y-135348080D01*
X118995177Y-135400076D01*
X118994097Y-135431819D01*
X118990907Y-135461892D01*
X118985677Y-135490336D01*
X118978481Y-135517197D01*
X118969388Y-135542516D01*
X118958473Y-135566339D01*
X118945805Y-135588708D01*
X118931458Y-135609667D01*
X118915502Y-135629260D01*
X118898011Y-135647529D01*
X118879055Y-135664519D01*
X118858706Y-135680273D01*
X118837037Y-135694834D01*
X118814119Y-135708246D01*
X118764824Y-135731797D01*
X118711396Y-135751274D01*
X118654410Y-135767025D01*
X118594440Y-135779398D01*
X118532061Y-135788741D01*
X118467849Y-135795401D01*
X118402377Y-135799728D01*
X118336221Y-135802069D01*
X118269955Y-135802772D01*
X118188269Y-135801856D01*
X118105169Y-135799163D01*
X118021598Y-135794777D01*
X117938498Y-135788782D01*
X117856812Y-135781262D01*
X117777482Y-135772299D01*
X117701452Y-135761979D01*
X117629663Y-135750384D01*
X117639717Y-135522843D01*
X117713312Y-135535208D01*
X117786160Y-135545915D01*
X117858703Y-135554966D01*
X117931387Y-135562365D01*
X118004653Y-135568114D01*
X118078945Y-135572216D01*
X118154708Y-135574676D01*
X118232383Y-135575495D01*
X118280803Y-135575123D01*
X118328327Y-135573935D01*
X118374647Y-135571822D01*
X118419456Y-135568673D01*
X118462446Y-135564381D01*
X118503311Y-135558835D01*
X118541742Y-135551927D01*
X118559949Y-135547927D01*
X118577433Y-135543546D01*
X118594155Y-135538770D01*
X118610076Y-135533585D01*
X118625158Y-135527976D01*
X118639364Y-135521932D01*
X118652653Y-135515438D01*
X118664989Y-135508480D01*
X118676332Y-135501045D01*
X118686644Y-135493118D01*
X118695887Y-135484688D01*
X118704022Y-135475738D01*
X118711011Y-135466257D01*
X118716815Y-135456231D01*
X118721396Y-135445645D01*
X118724716Y-135434486D01*
X118726737Y-135422741D01*
X118727419Y-135410395D01*
X118724327Y-135385652D01*
X118715316Y-135364224D01*
X118700780Y-135345831D01*
X118681113Y-135330198D01*
X118656711Y-135317047D01*
X118627968Y-135306101D01*
X118595278Y-135297083D01*
X118559036Y-135289716D01*
X118477476Y-135278827D01*
X118386444Y-135271217D01*
X118188594Y-135256970D01*
X118088091Y-135245899D01*
X117990744Y-135229241D01*
X117944242Y-135218124D01*
X117899713Y-135204779D01*
X117857551Y-135188930D01*
X117818152Y-135170298D01*
X117781911Y-135148607D01*
X117749221Y-135123580D01*
X117720477Y-135094940D01*
X117696075Y-135062409D01*
X117676408Y-135025711D01*
X117661872Y-134984569D01*
X117652861Y-134938705D01*
X117649770Y-134887843D01*
X117650883Y-134856801D01*
X117654165Y-134827444D01*
X117659525Y-134799726D01*
X117666875Y-134773600D01*
X117676124Y-134749020D01*
X117687184Y-134725942D01*
X117699965Y-134704319D01*
X117714378Y-134684105D01*
X117730333Y-134665255D01*
X117747742Y-134647722D01*
X117766514Y-134631462D01*
X117786561Y-134616427D01*
X117807794Y-134602572D01*
X117830122Y-134589852D01*
X117877708Y-134567631D01*
X117928606Y-134549397D01*
X117982101Y-134534784D01*
X118037478Y-134523425D01*
X118094022Y-134514954D01*
X118151018Y-134509003D01*
X118207753Y-134505207D01*
X118263511Y-134503198D01*
X118317578Y-134502609D01*
X118365137Y-134503037D01*
D10*
G36*
X90559245Y-129042901D02*
G01*
X85055911Y-129042901D01*
X85055911Y-128337345D01*
X90559245Y-128337345D01*
X90559245Y-129042901D01*
G37*
X90559245Y-129042901D02*
X85055911Y-129042901D01*
X85055911Y-128337345D01*
X90559245Y-128337345D01*
X90559245Y-129042901D01*
D11*
G36*
X128311529Y-135772255D02*
G01*
X128039008Y-135772255D01*
X128039008Y-134516807D01*
X128311529Y-134516807D01*
X128311529Y-135772255D01*
G37*
X128311529Y-135772255D02*
X128039008Y-135772255D01*
X128039008Y-134516807D01*
X128311529Y-134516807D01*
X128311529Y-135772255D01*
G36*
X129009499Y-135537305D02*
G01*
X129924694Y-135537305D01*
X129924694Y-135772255D01*
X128736715Y-135772255D01*
X128736715Y-134516807D01*
X129009499Y-134516807D01*
X129009499Y-135537305D01*
G37*
X129009499Y-135537305D02*
X129924694Y-135537305D01*
X129924694Y-135772255D01*
X128736715Y-135772255D01*
X128736715Y-134516807D01*
X129009499Y-134516807D01*
X129009499Y-135537305D01*
D12*
X84250000Y-122880000D02*
X84620000Y-122880000D01*
X84620000Y-122880000D02*
X84620000Y-139070000D01*
X84620000Y-139070000D02*
X84250000Y-139070000D01*
X84250000Y-139070000D02*
X84250000Y-122880000D01*
G36*
X84250000Y-122880000D02*
G01*
X84620000Y-122880000D01*
X84620000Y-139070000D01*
X84250000Y-139070000D01*
X84250000Y-122880000D01*
G37*
D11*
G36*
X114885931Y-134522718D02*
G01*
X114919035Y-134523399D01*
X114950836Y-134525407D01*
X114981353Y-134528693D01*
X115010602Y-134533206D01*
X115038598Y-134538895D01*
X115065359Y-134545710D01*
X115090900Y-134553601D01*
X115115239Y-134562517D01*
X115138391Y-134572408D01*
X115160373Y-134583223D01*
X115181202Y-134594912D01*
X115200894Y-134607424D01*
X115219465Y-134620710D01*
X115236932Y-134634718D01*
X115253311Y-134649398D01*
X115268619Y-134664700D01*
X115282871Y-134680573D01*
X115296085Y-134696967D01*
X115308277Y-134713832D01*
X115319463Y-134731116D01*
X115329660Y-134748770D01*
X115338885Y-134766743D01*
X115347152Y-134784985D01*
X115354480Y-134803445D01*
X115360884Y-134822073D01*
X115366381Y-134840818D01*
X115374719Y-134878459D01*
X115379625Y-134915964D01*
X115381232Y-134952930D01*
X115380345Y-134981629D01*
X115377647Y-135010475D01*
X115373083Y-135039318D01*
X115366597Y-135068008D01*
X115358132Y-135096393D01*
X115353141Y-135110425D01*
X115347634Y-135124325D01*
X115341604Y-135138073D01*
X115335045Y-135151651D01*
X115327950Y-135165041D01*
X115320312Y-135178223D01*
X115312123Y-135191179D01*
X115303376Y-135203889D01*
X115294065Y-135216336D01*
X115284184Y-135228500D01*
X115273723Y-135240362D01*
X115262678Y-135251905D01*
X115251040Y-135263108D01*
X115238803Y-135273953D01*
X115225960Y-135284421D01*
X115212504Y-135294494D01*
X115198428Y-135304152D01*
X115183725Y-135313378D01*
X115168387Y-135322151D01*
X115152409Y-135330454D01*
X115135782Y-135338267D01*
X115118501Y-135345572D01*
X115408483Y-135778166D01*
X115103418Y-135778166D01*
X114838306Y-135385524D01*
X114300673Y-135385524D01*
X114300673Y-135778166D01*
X114028152Y-135778166D01*
X114028152Y-135145282D01*
X114300938Y-135145282D01*
X114846245Y-135145282D01*
X114865191Y-135144986D01*
X114883154Y-135144111D01*
X114900157Y-135142677D01*
X114916226Y-135140707D01*
X114931387Y-135138221D01*
X114945663Y-135135240D01*
X114959082Y-135131785D01*
X114971666Y-135127878D01*
X114983442Y-135123539D01*
X114994435Y-135118789D01*
X115004669Y-135113649D01*
X115014170Y-135108141D01*
X115022963Y-135102285D01*
X115031073Y-135096102D01*
X115038525Y-135089614D01*
X115045344Y-135082841D01*
X115051556Y-135075804D01*
X115057185Y-135068526D01*
X115062256Y-135061025D01*
X115066795Y-135053324D01*
X115070827Y-135045444D01*
X115074376Y-135037405D01*
X115077468Y-135029229D01*
X115080129Y-135020937D01*
X115082382Y-135012549D01*
X115084253Y-135004087D01*
X115086951Y-134987023D01*
X115088422Y-134969915D01*
X115088868Y-134952930D01*
X115088422Y-134937220D01*
X115086951Y-134921169D01*
X115084253Y-134904965D01*
X115080128Y-134888794D01*
X115074376Y-134872843D01*
X115070826Y-134865008D01*
X115066795Y-134857299D01*
X115062256Y-134849738D01*
X115057184Y-134842349D01*
X115051555Y-134835155D01*
X115045344Y-134828179D01*
X115038525Y-134821446D01*
X115031073Y-134814977D01*
X115022963Y-134808797D01*
X115014170Y-134802929D01*
X115004668Y-134797396D01*
X114994434Y-134792222D01*
X114983442Y-134787430D01*
X114971666Y-134783043D01*
X114959081Y-134779085D01*
X114945663Y-134775579D01*
X114931387Y-134772548D01*
X114916226Y-134770015D01*
X114900157Y-134768005D01*
X114883154Y-134766541D01*
X114865191Y-134765645D01*
X114846245Y-134765341D01*
X114300938Y-134765341D01*
X114300938Y-135145282D01*
X114028152Y-135145282D01*
X114028152Y-134522718D01*
X114885931Y-134522718D01*
G37*
X114885931Y-134522718D02*
X114919035Y-134523399D01*
X114950836Y-134525407D01*
X114981353Y-134528693D01*
X115010602Y-134533206D01*
X115038598Y-134538895D01*
X115065359Y-134545710D01*
X115090900Y-134553601D01*
X115115239Y-134562517D01*
X115138391Y-134572408D01*
X115160373Y-134583223D01*
X115181202Y-134594912D01*
X115200894Y-134607424D01*
X115219465Y-134620710D01*
X115236932Y-134634718D01*
X115253311Y-134649398D01*
X115268619Y-134664700D01*
X115282871Y-134680573D01*
X115296085Y-134696967D01*
X115308277Y-134713832D01*
X115319463Y-134731116D01*
X115329660Y-134748770D01*
X115338885Y-134766743D01*
X115347152Y-134784985D01*
X115354480Y-134803445D01*
X115360884Y-134822073D01*
X115366381Y-134840818D01*
X115374719Y-134878459D01*
X115379625Y-134915964D01*
X115381232Y-134952930D01*
X115380345Y-134981629D01*
X115377647Y-135010475D01*
X115373083Y-135039318D01*
X115366597Y-135068008D01*
X115358132Y-135096393D01*
X115353141Y-135110425D01*
X115347634Y-135124325D01*
X115341604Y-135138073D01*
X115335045Y-135151651D01*
X115327950Y-135165041D01*
X115320312Y-135178223D01*
X115312123Y-135191179D01*
X115303376Y-135203889D01*
X115294065Y-135216336D01*
X115284184Y-135228500D01*
X115273723Y-135240362D01*
X115262678Y-135251905D01*
X115251040Y-135263108D01*
X115238803Y-135273953D01*
X115225960Y-135284421D01*
X115212504Y-135294494D01*
X115198428Y-135304152D01*
X115183725Y-135313378D01*
X115168387Y-135322151D01*
X115152409Y-135330454D01*
X115135782Y-135338267D01*
X115118501Y-135345572D01*
X115408483Y-135778166D01*
X115103418Y-135778166D01*
X114838306Y-135385524D01*
X114300673Y-135385524D01*
X114300673Y-135778166D01*
X114028152Y-135778166D01*
X114028152Y-135145282D01*
X114300938Y-135145282D01*
X114846245Y-135145282D01*
X114865191Y-135144986D01*
X114883154Y-135144111D01*
X114900157Y-135142677D01*
X114916226Y-135140707D01*
X114931387Y-135138221D01*
X114945663Y-135135240D01*
X114959082Y-135131785D01*
X114971666Y-135127878D01*
X114983442Y-135123539D01*
X114994435Y-135118789D01*
X115004669Y-135113649D01*
X115014170Y-135108141D01*
X115022963Y-135102285D01*
X115031073Y-135096102D01*
X115038525Y-135089614D01*
X115045344Y-135082841D01*
X115051556Y-135075804D01*
X115057185Y-135068526D01*
X115062256Y-135061025D01*
X115066795Y-135053324D01*
X115070827Y-135045444D01*
X115074376Y-135037405D01*
X115077468Y-135029229D01*
X115080129Y-135020937D01*
X115082382Y-135012549D01*
X115084253Y-135004087D01*
X115086951Y-134987023D01*
X115088422Y-134969915D01*
X115088868Y-134952930D01*
X115088422Y-134937220D01*
X115086951Y-134921169D01*
X115084253Y-134904965D01*
X115080128Y-134888794D01*
X115074376Y-134872843D01*
X115070826Y-134865008D01*
X115066795Y-134857299D01*
X115062256Y-134849738D01*
X115057184Y-134842349D01*
X115051555Y-134835155D01*
X115045344Y-134828179D01*
X115038525Y-134821446D01*
X115031073Y-134814977D01*
X115022963Y-134808797D01*
X115014170Y-134802929D01*
X115004668Y-134797396D01*
X114994434Y-134792222D01*
X114983442Y-134787430D01*
X114971666Y-134783043D01*
X114959081Y-134779085D01*
X114945663Y-134775579D01*
X114931387Y-134772548D01*
X114916226Y-134770015D01*
X114900157Y-134768005D01*
X114883154Y-134766541D01*
X114865191Y-134765645D01*
X114846245Y-134765341D01*
X114300938Y-134765341D01*
X114300938Y-135145282D01*
X114028152Y-135145282D01*
X114028152Y-134522718D01*
X114885931Y-134522718D01*
G36*
X139630668Y-133966349D02*
G01*
X139630825Y-133966566D01*
X139631138Y-133967011D01*
X139640692Y-133980743D01*
X139641338Y-133981681D01*
X139651637Y-133996975D01*
X139661878Y-134012321D01*
X139672217Y-134027596D01*
X139586578Y-134123355D01*
X139501530Y-134219574D01*
X139476067Y-134248748D01*
X139450802Y-134278106D01*
X139400451Y-134336983D01*
X139400451Y-133963569D01*
X139463772Y-133895148D01*
X139495621Y-133861105D01*
X139527675Y-133827250D01*
X139630668Y-133966349D01*
G37*
X139630668Y-133966349D02*
X139630825Y-133966566D01*
X139631138Y-133967011D01*
X139640692Y-133980743D01*
X139641338Y-133981681D01*
X139651637Y-133996975D01*
X139661878Y-134012321D01*
X139672217Y-134027596D01*
X139586578Y-134123355D01*
X139501530Y-134219574D01*
X139476067Y-134248748D01*
X139450802Y-134278106D01*
X139400451Y-134336983D01*
X139400451Y-133963569D01*
X139463772Y-133895148D01*
X139495621Y-133861105D01*
X139527675Y-133827250D01*
X139630668Y-133966349D01*
G36*
X139746369Y-133608619D02*
G01*
X139747922Y-133609072D01*
X139748410Y-133609210D01*
X139760131Y-133612605D01*
X139761256Y-133612944D01*
X139761931Y-133613159D01*
X139822892Y-133633679D01*
X139881920Y-133656388D01*
X139883367Y-133656972D01*
X139884807Y-133657570D01*
X139942615Y-133682667D01*
X139977976Y-133699823D01*
X139934964Y-133744530D01*
X139892162Y-133789468D01*
X139849600Y-133834653D01*
X139807300Y-133880111D01*
X139807299Y-133880111D01*
X139806586Y-133879069D01*
X139806059Y-133878350D01*
X139777403Y-133838002D01*
X139747984Y-133797473D01*
X139718379Y-133757504D01*
X139688650Y-133718106D01*
X139682524Y-133710180D01*
X139676406Y-133702425D01*
X139671653Y-133696419D01*
X139665571Y-133688654D01*
X139664156Y-133686841D01*
X139683890Y-133666987D01*
X139703705Y-133647206D01*
X139743475Y-133607781D01*
X139746369Y-133608619D01*
G37*
X139746369Y-133608619D02*
X139747922Y-133609072D01*
X139748410Y-133609210D01*
X139760131Y-133612605D01*
X139761256Y-133612944D01*
X139761931Y-133613159D01*
X139822892Y-133633679D01*
X139881920Y-133656388D01*
X139883367Y-133656972D01*
X139884807Y-133657570D01*
X139942615Y-133682667D01*
X139977976Y-133699823D01*
X139934964Y-133744530D01*
X139892162Y-133789468D01*
X139849600Y-133834653D01*
X139807300Y-133880111D01*
X139807299Y-133880111D01*
X139806586Y-133879069D01*
X139806059Y-133878350D01*
X139777403Y-133838002D01*
X139747984Y-133797473D01*
X139718379Y-133757504D01*
X139688650Y-133718106D01*
X139682524Y-133710180D01*
X139676406Y-133702425D01*
X139671653Y-133696419D01*
X139665571Y-133688654D01*
X139664156Y-133686841D01*
X139683890Y-133666987D01*
X139703705Y-133647206D01*
X139743475Y-133607781D01*
X139746369Y-133608619D01*
D10*
G36*
X90559245Y-136239568D02*
G01*
X85055911Y-136239568D01*
X85055911Y-135534012D01*
X90559245Y-135534012D01*
X90559245Y-136239568D01*
G37*
X90559245Y-136239568D02*
X85055911Y-136239568D01*
X85055911Y-135534012D01*
X90559245Y-135534012D01*
X90559245Y-136239568D01*
G36*
X90559245Y-126502903D02*
G01*
X85055911Y-126502903D01*
X85055911Y-125797347D01*
X90559245Y-125797347D01*
X90559245Y-126502903D01*
G37*
X90559245Y-126502903D02*
X85055911Y-126502903D01*
X85055911Y-125797347D01*
X90559245Y-125797347D01*
X90559245Y-126502903D01*
G36*
X90559245Y-134969567D02*
G01*
X85055911Y-134969567D01*
X85055911Y-134264011D01*
X90559245Y-134264011D01*
X90559245Y-134969567D01*
G37*
X90559245Y-134969567D02*
X85055911Y-134969567D01*
X85055911Y-134264011D01*
X90559245Y-134264011D01*
X90559245Y-134969567D01*
D11*
G36*
X134133334Y-134497282D02*
G01*
X134177298Y-134499019D01*
X134220814Y-134501891D01*
X134263834Y-134505881D01*
X134306312Y-134510970D01*
X134348200Y-134517139D01*
X134389451Y-134524372D01*
X134430017Y-134532649D01*
X134469852Y-134541952D01*
X134508907Y-134552264D01*
X134547137Y-134563565D01*
X134584492Y-134575838D01*
X134620927Y-134589064D01*
X134656394Y-134603226D01*
X134690845Y-134618305D01*
X134724233Y-134634282D01*
X134724233Y-134876905D01*
X134657634Y-134846758D01*
X134588709Y-134818639D01*
X134553237Y-134805531D01*
X134517019Y-134793161D01*
X134479999Y-134781605D01*
X134442122Y-134770939D01*
X134403334Y-134761241D01*
X134363579Y-134752587D01*
X134322803Y-134745054D01*
X134280950Y-134738718D01*
X134237965Y-134733657D01*
X134193793Y-134729946D01*
X134148380Y-134727664D01*
X134101670Y-134726886D01*
X134053065Y-134728003D01*
X134003293Y-134731481D01*
X133952947Y-134737509D01*
X133902621Y-134746279D01*
X133852909Y-134757981D01*
X133828469Y-134764990D01*
X133804405Y-134772804D01*
X133780791Y-134781446D01*
X133757702Y-134790940D01*
X133735212Y-134801309D01*
X133713395Y-134812578D01*
X133692324Y-134824770D01*
X133672076Y-134837909D01*
X133652723Y-134852019D01*
X133634340Y-134867123D01*
X133617001Y-134883246D01*
X133600780Y-134900411D01*
X133585752Y-134918641D01*
X133571991Y-134937962D01*
X133559571Y-134958396D01*
X133548566Y-134979967D01*
X133539050Y-135002699D01*
X133531098Y-135026616D01*
X133524784Y-135051742D01*
X133520182Y-135078100D01*
X133517367Y-135105715D01*
X133516412Y-135134609D01*
X133517132Y-135159364D01*
X133519272Y-135183466D01*
X133522803Y-135206907D01*
X133527696Y-135229679D01*
X133533922Y-135251772D01*
X133541451Y-135273178D01*
X133550255Y-135293888D01*
X133560303Y-135313893D01*
X133571568Y-135333185D01*
X133584019Y-135351754D01*
X133597627Y-135369593D01*
X133612364Y-135386691D01*
X133628199Y-135403041D01*
X133645104Y-135418634D01*
X133663050Y-135433460D01*
X133682007Y-135447512D01*
X133701946Y-135460780D01*
X133722839Y-135473255D01*
X133767365Y-135495794D01*
X133815352Y-135515057D01*
X133866566Y-135530975D01*
X133920774Y-135543479D01*
X133977742Y-135552496D01*
X134037236Y-135557958D01*
X134099023Y-135559794D01*
X134136177Y-135559099D01*
X134174302Y-135556935D01*
X134213080Y-135553186D01*
X134252192Y-135547735D01*
X134291320Y-135540466D01*
X134330144Y-135531261D01*
X134368347Y-135520005D01*
X134405610Y-135506580D01*
X134423789Y-135499018D01*
X134441613Y-135490870D01*
X134459044Y-135482122D01*
X134476040Y-135472758D01*
X134492562Y-135462765D01*
X134508570Y-135452128D01*
X134524024Y-135440832D01*
X134538885Y-135428863D01*
X134553113Y-135416205D01*
X134566668Y-135402846D01*
X134579509Y-135388769D01*
X134591598Y-135373960D01*
X134602894Y-135358405D01*
X134613358Y-135342090D01*
X134622950Y-135324998D01*
X134631629Y-135307117D01*
X134199036Y-135307117D01*
X134199036Y-135104446D01*
X134936695Y-135104446D01*
X134936809Y-135112576D01*
X134937109Y-135120272D01*
X134938018Y-135135403D01*
X134938504Y-135143359D01*
X134938928Y-135151923D01*
X134939227Y-135161355D01*
X134939341Y-135171915D01*
X134938172Y-135209581D01*
X134934708Y-135246127D01*
X134929014Y-135281549D01*
X134921153Y-135315841D01*
X134911192Y-135348998D01*
X134899194Y-135381016D01*
X134885224Y-135411889D01*
X134869346Y-135441612D01*
X134851626Y-135470181D01*
X134832127Y-135497591D01*
X134810914Y-135523836D01*
X134788053Y-135548911D01*
X134763606Y-135572812D01*
X134737640Y-135595533D01*
X134710218Y-135617069D01*
X134681405Y-135637417D01*
X134619866Y-135674522D01*
X134553538Y-135706810D01*
X134482938Y-135734240D01*
X134408583Y-135756773D01*
X134330989Y-135774367D01*
X134250674Y-135786984D01*
X134168153Y-135794584D01*
X134083944Y-135797126D01*
X134041228Y-135796446D01*
X133998896Y-135794411D01*
X133957012Y-135791029D01*
X133915641Y-135786307D01*
X133874846Y-135780254D01*
X133834689Y-135772878D01*
X133795236Y-135764185D01*
X133756550Y-135754185D01*
X133718695Y-135742884D01*
X133681734Y-135730290D01*
X133645730Y-135716412D01*
X133610749Y-135701257D01*
X133576853Y-135684833D01*
X133544106Y-135667148D01*
X133512571Y-135648209D01*
X133482314Y-135628024D01*
X133453396Y-135606601D01*
X133425883Y-135583949D01*
X133399837Y-135560074D01*
X133375322Y-135534984D01*
X133352403Y-135508688D01*
X133331142Y-135481193D01*
X133311604Y-135452507D01*
X133293852Y-135422637D01*
X133277950Y-135391592D01*
X133263961Y-135359379D01*
X133251950Y-135326007D01*
X133241980Y-135291482D01*
X133234114Y-135255813D01*
X133228417Y-135219007D01*
X133224952Y-135181073D01*
X133223783Y-135142018D01*
X133225023Y-135101221D01*
X133228692Y-135061824D01*
X133234713Y-135023820D01*
X133243010Y-134987201D01*
X133253506Y-134951960D01*
X133266126Y-134918092D01*
X133280792Y-134885589D01*
X133297428Y-134854444D01*
X133315958Y-134824651D01*
X133336305Y-134796202D01*
X133358393Y-134769092D01*
X133382145Y-134743312D01*
X133407485Y-134718856D01*
X133434337Y-134695717D01*
X133462623Y-134673890D01*
X133492268Y-134653365D01*
X133555328Y-134616200D01*
X133622905Y-134584168D01*
X133694387Y-134557214D01*
X133769162Y-134535282D01*
X133846620Y-134518320D01*
X133926148Y-134506272D01*
X134007135Y-134499083D01*
X134088969Y-134496699D01*
X134133334Y-134497282D01*
G37*
X134133334Y-134497282D02*
X134177298Y-134499019D01*
X134220814Y-134501891D01*
X134263834Y-134505881D01*
X134306312Y-134510970D01*
X134348200Y-134517139D01*
X134389451Y-134524372D01*
X134430017Y-134532649D01*
X134469852Y-134541952D01*
X134508907Y-134552264D01*
X134547137Y-134563565D01*
X134584492Y-134575838D01*
X134620927Y-134589064D01*
X134656394Y-134603226D01*
X134690845Y-134618305D01*
X134724233Y-134634282D01*
X134724233Y-134876905D01*
X134657634Y-134846758D01*
X134588709Y-134818639D01*
X134553237Y-134805531D01*
X134517019Y-134793161D01*
X134479999Y-134781605D01*
X134442122Y-134770939D01*
X134403334Y-134761241D01*
X134363579Y-134752587D01*
X134322803Y-134745054D01*
X134280950Y-134738718D01*
X134237965Y-134733657D01*
X134193793Y-134729946D01*
X134148380Y-134727664D01*
X134101670Y-134726886D01*
X134053065Y-134728003D01*
X134003293Y-134731481D01*
X133952947Y-134737509D01*
X133902621Y-134746279D01*
X133852909Y-134757981D01*
X133828469Y-134764990D01*
X133804405Y-134772804D01*
X133780791Y-134781446D01*
X133757702Y-134790940D01*
X133735212Y-134801309D01*
X133713395Y-134812578D01*
X133692324Y-134824770D01*
X133672076Y-134837909D01*
X133652723Y-134852019D01*
X133634340Y-134867123D01*
X133617001Y-134883246D01*
X133600780Y-134900411D01*
X133585752Y-134918641D01*
X133571991Y-134937962D01*
X133559571Y-134958396D01*
X133548566Y-134979967D01*
X133539050Y-135002699D01*
X133531098Y-135026616D01*
X133524784Y-135051742D01*
X133520182Y-135078100D01*
X133517367Y-135105715D01*
X133516412Y-135134609D01*
X133517132Y-135159364D01*
X133519272Y-135183466D01*
X133522803Y-135206907D01*
X133527696Y-135229679D01*
X133533922Y-135251772D01*
X133541451Y-135273178D01*
X133550255Y-135293888D01*
X133560303Y-135313893D01*
X133571568Y-135333185D01*
X133584019Y-135351754D01*
X133597627Y-135369593D01*
X133612364Y-135386691D01*
X133628199Y-135403041D01*
X133645104Y-135418634D01*
X133663050Y-135433460D01*
X133682007Y-135447512D01*
X133701946Y-135460780D01*
X133722839Y-135473255D01*
X133767365Y-135495794D01*
X133815352Y-135515057D01*
X133866566Y-135530975D01*
X133920774Y-135543479D01*
X133977742Y-135552496D01*
X134037236Y-135557958D01*
X134099023Y-135559794D01*
X134136177Y-135559099D01*
X134174302Y-135556935D01*
X134213080Y-135553186D01*
X134252192Y-135547735D01*
X134291320Y-135540466D01*
X134330144Y-135531261D01*
X134368347Y-135520005D01*
X134405610Y-135506580D01*
X134423789Y-135499018D01*
X134441613Y-135490870D01*
X134459044Y-135482122D01*
X134476040Y-135472758D01*
X134492562Y-135462765D01*
X134508570Y-135452128D01*
X134524024Y-135440832D01*
X134538885Y-135428863D01*
X134553113Y-135416205D01*
X134566668Y-135402846D01*
X134579509Y-135388769D01*
X134591598Y-135373960D01*
X134602894Y-135358405D01*
X134613358Y-135342090D01*
X134622950Y-135324998D01*
X134631629Y-135307117D01*
X134199036Y-135307117D01*
X134199036Y-135104446D01*
X134936695Y-135104446D01*
X134936809Y-135112576D01*
X134937109Y-135120272D01*
X134938018Y-135135403D01*
X134938504Y-135143359D01*
X134938928Y-135151923D01*
X134939227Y-135161355D01*
X134939341Y-135171915D01*
X134938172Y-135209581D01*
X134934708Y-135246127D01*
X134929014Y-135281549D01*
X134921153Y-135315841D01*
X134911192Y-135348998D01*
X134899194Y-135381016D01*
X134885224Y-135411889D01*
X134869346Y-135441612D01*
X134851626Y-135470181D01*
X134832127Y-135497591D01*
X134810914Y-135523836D01*
X134788053Y-135548911D01*
X134763606Y-135572812D01*
X134737640Y-135595533D01*
X134710218Y-135617069D01*
X134681405Y-135637417D01*
X134619866Y-135674522D01*
X134553538Y-135706810D01*
X134482938Y-135734240D01*
X134408583Y-135756773D01*
X134330989Y-135774367D01*
X134250674Y-135786984D01*
X134168153Y-135794584D01*
X134083944Y-135797126D01*
X134041228Y-135796446D01*
X133998896Y-135794411D01*
X133957012Y-135791029D01*
X133915641Y-135786307D01*
X133874846Y-135780254D01*
X133834689Y-135772878D01*
X133795236Y-135764185D01*
X133756550Y-135754185D01*
X133718695Y-135742884D01*
X133681734Y-135730290D01*
X133645730Y-135716412D01*
X133610749Y-135701257D01*
X133576853Y-135684833D01*
X133544106Y-135667148D01*
X133512571Y-135648209D01*
X133482314Y-135628024D01*
X133453396Y-135606601D01*
X133425883Y-135583949D01*
X133399837Y-135560074D01*
X133375322Y-135534984D01*
X133352403Y-135508688D01*
X133331142Y-135481193D01*
X133311604Y-135452507D01*
X133293852Y-135422637D01*
X133277950Y-135391592D01*
X133263961Y-135359379D01*
X133251950Y-135326007D01*
X133241980Y-135291482D01*
X133234114Y-135255813D01*
X133228417Y-135219007D01*
X133224952Y-135181073D01*
X133223783Y-135142018D01*
X133225023Y-135101221D01*
X133228692Y-135061824D01*
X133234713Y-135023820D01*
X133243010Y-134987201D01*
X133253506Y-134951960D01*
X133266126Y-134918092D01*
X133280792Y-134885589D01*
X133297428Y-134854444D01*
X133315958Y-134824651D01*
X133336305Y-134796202D01*
X133358393Y-134769092D01*
X133382145Y-134743312D01*
X133407485Y-134718856D01*
X133434337Y-134695717D01*
X133462623Y-134673890D01*
X133492268Y-134653365D01*
X133555328Y-134616200D01*
X133622905Y-134584168D01*
X133694387Y-134557214D01*
X133769162Y-134535282D01*
X133846620Y-134518320D01*
X133926148Y-134506272D01*
X134007135Y-134499083D01*
X134088969Y-134496699D01*
X134133334Y-134497282D01*
G36*
X138667325Y-135255053D02*
G01*
X138632146Y-135302416D01*
X138597176Y-135349927D01*
X138562442Y-135397551D01*
X138561759Y-135394780D01*
X138545097Y-135302517D01*
X138544999Y-135301885D01*
X138544917Y-135301285D01*
X138534468Y-135207834D01*
X138702716Y-135207834D01*
X138667325Y-135255053D01*
G37*
X138667325Y-135255053D02*
X138632146Y-135302416D01*
X138597176Y-135349927D01*
X138562442Y-135397551D01*
X138561759Y-135394780D01*
X138545097Y-135302517D01*
X138544999Y-135301885D01*
X138544917Y-135301285D01*
X138534468Y-135207834D01*
X138702716Y-135207834D01*
X138667325Y-135255053D01*
D10*
G36*
X90559245Y-138779570D02*
G01*
X85055911Y-138779570D01*
X85055911Y-138074014D01*
X90559245Y-138074014D01*
X90559245Y-138779570D01*
G37*
X90559245Y-138779570D02*
X85055911Y-138779570D01*
X85055911Y-138074014D01*
X90559245Y-138074014D01*
X90559245Y-138779570D01*
G36*
X107113495Y-126992681D02*
G01*
X103687061Y-126992681D01*
X103687061Y-126391120D01*
X107113495Y-126391120D01*
X107113495Y-126992681D01*
G37*
X107113495Y-126992681D02*
X103687061Y-126992681D01*
X103687061Y-126391120D01*
X107113495Y-126391120D01*
X107113495Y-126992681D01*
D13*
X101645910Y-130908320D02*
X109400000Y-130860000D01*
D11*
G36*
X137576785Y-135750399D02*
G01*
X137547895Y-135663860D01*
X137523133Y-135575475D01*
X137502615Y-135485358D01*
X137486455Y-135393628D01*
X137474771Y-135300400D01*
X137467827Y-135207815D01*
X137760560Y-135207815D01*
X137766064Y-135275863D01*
X137774400Y-135343046D01*
X137785506Y-135409303D01*
X137799322Y-135474571D01*
X137815785Y-135538791D01*
X137834836Y-135601902D01*
X137856412Y-135663842D01*
X137880453Y-135724550D01*
X137906897Y-135783966D01*
X137935684Y-135842029D01*
X137949546Y-135867305D01*
X137981210Y-135814773D01*
X138024813Y-135744880D01*
X138069137Y-135675481D01*
X138114128Y-135606544D01*
X138159734Y-135538036D01*
X138252575Y-135402172D01*
X138347232Y-135267626D01*
X138347303Y-135268320D01*
X138348336Y-135278677D01*
X138349355Y-135289750D01*
X138350450Y-135300804D01*
X138351076Y-135306314D01*
X138351781Y-135311807D01*
X138355528Y-135337560D01*
X138359687Y-135363215D01*
X138364247Y-135388772D01*
X138369154Y-135414015D01*
X138369188Y-135414212D01*
X138369234Y-135414408D01*
X138374528Y-135439587D01*
X138380238Y-135464844D01*
X138386318Y-135489998D01*
X138392734Y-135514947D01*
X138392755Y-135515034D01*
X138392779Y-135515118D01*
X138392761Y-135515050D01*
X138392734Y-135514947D01*
X138369234Y-135414408D01*
X138369196Y-135414229D01*
X138369154Y-135414015D01*
X138351792Y-135311787D01*
X138347303Y-135268320D01*
X138347234Y-135267623D01*
X138347232Y-135267626D01*
X138341057Y-135207834D01*
X138534457Y-135207834D01*
X138536480Y-135231458D01*
X138538919Y-135255005D01*
X138541762Y-135278480D01*
X138544917Y-135301285D01*
X138544984Y-135301888D01*
X138545097Y-135302517D01*
X138548619Y-135325223D01*
X138552616Y-135348491D01*
X138556991Y-135371685D01*
X138561743Y-135394799D01*
X138562414Y-135397589D01*
X138562442Y-135397551D01*
X138584351Y-135486461D01*
X138612319Y-135576905D01*
X138645224Y-135666081D01*
X138682624Y-135753963D01*
X138724080Y-135840522D01*
X138769151Y-135925729D01*
X138817397Y-136009556D01*
X138868378Y-136091976D01*
X138921653Y-136172959D01*
X138976783Y-136252477D01*
X139033326Y-136330502D01*
X139090843Y-136407006D01*
X139207036Y-136555338D01*
X139400447Y-136555338D01*
X139516716Y-136407006D01*
X139630812Y-136252477D01*
X139685947Y-136172959D01*
X139739221Y-136091976D01*
X139790196Y-136009556D01*
X139838431Y-135925729D01*
X139883489Y-135840522D01*
X139924929Y-135753963D01*
X139962313Y-135666081D01*
X139995201Y-135576905D01*
X140023155Y-135486461D01*
X140045735Y-135394780D01*
X140062502Y-135301888D01*
X140073018Y-135207815D01*
X139400447Y-135207815D01*
X139400447Y-136555338D01*
X139207036Y-136555338D01*
X139207036Y-135207815D01*
X138534466Y-135207815D01*
X138534468Y-135207834D01*
X138534457Y-135207834D01*
X138341057Y-135207834D01*
X138341055Y-135207815D01*
X137760560Y-135207815D01*
X137467827Y-135207815D01*
X137467675Y-135205792D01*
X137465285Y-135109919D01*
X137467675Y-135014047D01*
X137467826Y-135012032D01*
X138534457Y-135012032D01*
X138852423Y-135012032D01*
X138852429Y-135012023D01*
X139207036Y-135012023D01*
X139400447Y-135012023D01*
X140073018Y-135012023D01*
X140062502Y-134917122D01*
X140045735Y-134823615D01*
X140023155Y-134731509D01*
X139995201Y-134640809D01*
X139962313Y-134551521D01*
X139924929Y-134463652D01*
X139883489Y-134377207D01*
X139838431Y-134292191D01*
X139790196Y-134208611D01*
X139739221Y-134126473D01*
X139685947Y-134045781D01*
X139640692Y-133980743D01*
X139636118Y-133974093D01*
X139631138Y-133967011D01*
X139630812Y-133966543D01*
X139630668Y-133966349D01*
X139605386Y-133931264D01*
X139579670Y-133896308D01*
X139553745Y-133861650D01*
X139527678Y-133827246D01*
X139527675Y-133827250D01*
X139516716Y-133812449D01*
X139400447Y-133664236D01*
X139400447Y-135012023D01*
X139207036Y-135012023D01*
X139207036Y-133664501D01*
X139090767Y-133812832D01*
X138976671Y-133967362D01*
X138921536Y-134046880D01*
X138868262Y-134127863D01*
X138817287Y-134210282D01*
X138769052Y-134294110D01*
X138723995Y-134379317D01*
X138682554Y-134465875D01*
X138645171Y-134553757D01*
X138612282Y-134642934D01*
X138584328Y-134733377D01*
X138561748Y-134825059D01*
X138544981Y-134917950D01*
X138534726Y-135009692D01*
X138534716Y-135009706D01*
X138534457Y-135012032D01*
X137467826Y-135012032D01*
X137467827Y-135012023D01*
X137760560Y-135012023D01*
X138341055Y-135012023D01*
X138345141Y-134959825D01*
X138351004Y-134908008D01*
X138367810Y-134805550D01*
X138390963Y-134704706D01*
X138419955Y-134605532D01*
X138454275Y-134508086D01*
X138493413Y-134412423D01*
X138536861Y-134318600D01*
X138584108Y-134226674D01*
X138634645Y-134136701D01*
X138687962Y-134048739D01*
X138743549Y-133962842D01*
X138800897Y-133879069D01*
X138859496Y-133797476D01*
X138918836Y-133718119D01*
X138961035Y-133664236D01*
X139037703Y-133566340D01*
X139569780Y-133566340D01*
X139665571Y-133688654D01*
X139670286Y-133694693D01*
X139671653Y-133696419D01*
X139688647Y-133718119D01*
X139806059Y-133878350D01*
X139806576Y-133879078D01*
X139807299Y-133880111D01*
X139863934Y-133962842D01*
X139919522Y-134048739D01*
X139972838Y-134136701D01*
X140023375Y-134226674D01*
X140070622Y-134318600D01*
X140114070Y-134412423D01*
X140153209Y-134508086D01*
X140187528Y-134605532D01*
X140216520Y-134704706D01*
X140239674Y-134805550D01*
X140256480Y-134908008D01*
X140266428Y-135012023D01*
X140846924Y-135012023D01*
X140841420Y-134943975D01*
X140833084Y-134876792D01*
X140821978Y-134810536D01*
X140808162Y-134745267D01*
X140791698Y-134681047D01*
X140772648Y-134617936D01*
X140751071Y-134555996D01*
X140727031Y-134495288D01*
X140700586Y-134435872D01*
X140671800Y-134377810D01*
X140640733Y-134321162D01*
X140607446Y-134265990D01*
X140572000Y-134212354D01*
X140534457Y-134160316D01*
X140494878Y-134109936D01*
X140453323Y-134061276D01*
X140409855Y-134014397D01*
X140364534Y-133969359D01*
X140317422Y-133926223D01*
X140268579Y-133885051D01*
X140218068Y-133845903D01*
X140165948Y-133808841D01*
X140112282Y-133773925D01*
X140057130Y-133741217D01*
X140000554Y-133710778D01*
X139977976Y-133699823D01*
X139977987Y-133699812D01*
X139960375Y-133691123D01*
X139951538Y-133686835D01*
X139942640Y-133682656D01*
X139927945Y-133676005D01*
X139913163Y-133669511D01*
X139898301Y-133663169D01*
X139884807Y-133657570D01*
X139883374Y-133656948D01*
X139881920Y-133656388D01*
X139868364Y-133650917D01*
X139853288Y-133645009D01*
X139838136Y-133639256D01*
X139822906Y-133633666D01*
X139807600Y-133628245D01*
X139792224Y-133622987D01*
X139776777Y-133617889D01*
X139761931Y-133613159D01*
X139761230Y-133612923D01*
X139760131Y-133612605D01*
X139756830Y-133611610D01*
X139752379Y-133610334D01*
X139748410Y-133609210D01*
X139746369Y-133608619D01*
X139743479Y-133607776D01*
X139743475Y-133607781D01*
X139698450Y-133594741D01*
X139634613Y-133579193D01*
X139569780Y-133566340D01*
X139037703Y-133566340D01*
X138972871Y-133579216D01*
X138909036Y-133594784D01*
X138846259Y-133612984D01*
X138784602Y-133633755D01*
X138724126Y-133657036D01*
X138664891Y-133682766D01*
X138606959Y-133710884D01*
X138550390Y-133741329D01*
X138495246Y-133774041D01*
X138441588Y-133808958D01*
X138338974Y-133885167D01*
X138243035Y-133969468D01*
X138154260Y-134061375D01*
X138073137Y-134160401D01*
X138000154Y-134266060D01*
X137966868Y-134321224D01*
X137935801Y-134377863D01*
X137907013Y-134435917D01*
X137880565Y-134495325D01*
X137856518Y-134556026D01*
X137834934Y-134617959D01*
X137815874Y-134681063D01*
X137799397Y-134745278D01*
X137785567Y-134810542D01*
X137774443Y-134876795D01*
X137766087Y-134943976D01*
X137760560Y-135012023D01*
X137467827Y-135012023D01*
X137474771Y-134919438D01*
X137486455Y-134826211D01*
X137502615Y-134734480D01*
X137523133Y-134644364D01*
X137547895Y-134555978D01*
X137576785Y-134469440D01*
X137609689Y-134384866D01*
X137646491Y-134302373D01*
X137687076Y-134222077D01*
X137731329Y-134144096D01*
X137779135Y-134068546D01*
X137830378Y-133995543D01*
X137884943Y-133925205D01*
X137942715Y-133857648D01*
X138003579Y-133792989D01*
X138067420Y-133731344D01*
X138134121Y-133672831D01*
X138203569Y-133617565D01*
X138275648Y-133565665D01*
X138350243Y-133517245D01*
X138427238Y-133472424D01*
X138506519Y-133431318D01*
X138587969Y-133394043D01*
X138671475Y-133360716D01*
X138756920Y-133331454D01*
X138844190Y-133306374D01*
X138933169Y-133285592D01*
X139023742Y-133269225D01*
X139115794Y-133257390D01*
X139209210Y-133250203D01*
X139303874Y-133247782D01*
X139398537Y-133250203D01*
X139491951Y-133257390D01*
X139583999Y-133269225D01*
X139674568Y-133285592D01*
X139763541Y-133306374D01*
X139850803Y-133331454D01*
X139936241Y-133360716D01*
X140019737Y-133394043D01*
X140101178Y-133431318D01*
X140180106Y-133472247D01*
X140180455Y-133472436D01*
X140180807Y-133472633D01*
X140189364Y-133477615D01*
X140192344Y-133479388D01*
X140194326Y-133480546D01*
X140196319Y-133481686D01*
X140196333Y-133481672D01*
X140189364Y-133477615D01*
X140188400Y-133477041D01*
X140184449Y-133474704D01*
X140182459Y-133473558D01*
X140180807Y-133472633D01*
X140180448Y-133472424D01*
X140180106Y-133472247D01*
X140160847Y-133461802D01*
X140141098Y-133451397D01*
X140121209Y-133441228D01*
X140101183Y-133431301D01*
X140081022Y-133421621D01*
X140060726Y-133412186D01*
X140040299Y-133402993D01*
X140019741Y-133394043D01*
X140015171Y-133392119D01*
X140010578Y-133390242D01*
X140001342Y-133386582D01*
X139982844Y-133379315D01*
X140040532Y-133325756D01*
X140069488Y-133299084D01*
X140098703Y-133272655D01*
X140151132Y-133227058D01*
X140204068Y-133181972D01*
X140257548Y-133137438D01*
X140311610Y-133093497D01*
X140366292Y-133050187D01*
X140421632Y-133007551D01*
X140477668Y-132965628D01*
X140534438Y-132924459D01*
X140592423Y-132884569D01*
X140651004Y-132845256D01*
X140710652Y-132807095D01*
X140771838Y-132770664D01*
X140803155Y-132753277D01*
X140835033Y-132736539D01*
X140867531Y-132720523D01*
X140900708Y-132705299D01*
X140934623Y-132690941D01*
X140969335Y-132677519D01*
X141004902Y-132665108D01*
X141041384Y-132653778D01*
X141055244Y-132649977D01*
X141069438Y-132646499D01*
X141083967Y-132643397D01*
X141098831Y-132640726D01*
X141114030Y-132638540D01*
X141129563Y-132636893D01*
X141145432Y-132635839D01*
X141153492Y-132635552D01*
X141161635Y-132635433D01*
X141167111Y-132635449D01*
X141172625Y-132635545D01*
X141178177Y-132635721D01*
X141183765Y-132635981D01*
X141189391Y-132636328D01*
X141195054Y-132636764D01*
X141200754Y-132637291D01*
X141206491Y-132637913D01*
X141212170Y-132638575D01*
X141217899Y-132639386D01*
X141223676Y-132640370D01*
X141229503Y-132641553D01*
X141235380Y-132642960D01*
X141241306Y-132644614D01*
X141244288Y-132645542D01*
X141247283Y-132646541D01*
X141250290Y-132647614D01*
X141253310Y-132648765D01*
X141276615Y-132657240D01*
X141279492Y-132658764D01*
X141282363Y-132660352D01*
X141285228Y-132661996D01*
X141288084Y-132663686D01*
X141290926Y-132665414D01*
X141293754Y-132667169D01*
X141299353Y-132670728D01*
X141304903Y-132674273D01*
X141310404Y-132677846D01*
X141313120Y-132679680D01*
X141315806Y-132681567D01*
X141318454Y-132683522D01*
X141321057Y-132685559D01*
X141339558Y-132704317D01*
X141341969Y-132706630D01*
X141344250Y-132709000D01*
X141346413Y-132711423D01*
X141348468Y-132713894D01*
X141350427Y-132716409D01*
X141352303Y-132718963D01*
X141354105Y-132721551D01*
X141355847Y-132724168D01*
X141359193Y-132729473D01*
X141362432Y-132734839D01*
X141365658Y-132740230D01*
X141368961Y-132745607D01*
X141374390Y-132756594D01*
X141379189Y-132767526D01*
X141383395Y-132778398D01*
X141387043Y-132789205D01*
X141390166Y-132799942D01*
X141392800Y-132810604D01*
X141394980Y-132821186D01*
X141396741Y-132831683D01*
X141398117Y-132842090D01*
X141399143Y-132852402D01*
X141399855Y-132862615D01*
X141400288Y-132872722D01*
X141400452Y-132892603D01*
X141399916Y-132912005D01*
X141398719Y-132931207D01*
X141396947Y-132950130D01*
X141394646Y-132968787D01*
X141391864Y-132987193D01*
X141388649Y-133005364D01*
X141385046Y-133023314D01*
X141381103Y-133041058D01*
X141376868Y-133058611D01*
X141361529Y-133114113D01*
X141344390Y-133168560D01*
X141325610Y-133222040D01*
X141305345Y-133274638D01*
X141283752Y-133326443D01*
X141260991Y-133377541D01*
X141237217Y-133428019D01*
X141212588Y-133477965D01*
X141486422Y-133497034D01*
X140923924Y-133971423D01*
X140976582Y-133237463D01*
X141150111Y-133444376D01*
X141168658Y-133393790D01*
X141186463Y-133343058D01*
X141203332Y-133292208D01*
X141219070Y-133241266D01*
X141233481Y-133190263D01*
X141246369Y-133139227D01*
X141257539Y-133088185D01*
X141266796Y-133037165D01*
X141269125Y-133021109D01*
X141271132Y-133005107D01*
X141272792Y-132989192D01*
X141274080Y-132973394D01*
X141274972Y-132957746D01*
X141275441Y-132942277D01*
X141275463Y-132927020D01*
X141275013Y-132912005D01*
X141274647Y-132904636D01*
X141274141Y-132897326D01*
X141273495Y-132890098D01*
X141272705Y-132882973D01*
X141271769Y-132875972D01*
X141270685Y-132869118D01*
X141269450Y-132862431D01*
X141268063Y-132855933D01*
X141266520Y-132849646D01*
X141264821Y-132843591D01*
X141262961Y-132837791D01*
X141260940Y-132832266D01*
X141258755Y-132827039D01*
X141256403Y-132822130D01*
X141253882Y-132817561D01*
X141251190Y-132813355D01*
X141248397Y-132809594D01*
X141245560Y-132806143D01*
X141242662Y-132802989D01*
X141239684Y-132800119D01*
X141236606Y-132797519D01*
X141233411Y-132795178D01*
X141230080Y-132793083D01*
X141226593Y-132791221D01*
X141222933Y-132789578D01*
X141219081Y-132788143D01*
X141215018Y-132786903D01*
X141210725Y-132785845D01*
X141206184Y-132784955D01*
X141201375Y-132784223D01*
X141196282Y-132783634D01*
X141190884Y-132783176D01*
X141185243Y-132783064D01*
X141179438Y-132783128D01*
X141173480Y-132783367D01*
X141167380Y-132783783D01*
X141161146Y-132784378D01*
X141154788Y-132785152D01*
X141148318Y-132786107D01*
X141141745Y-132787244D01*
X141135078Y-132788563D01*
X141128329Y-132790067D01*
X141121507Y-132791755D01*
X141114622Y-132793631D01*
X141107684Y-132795694D01*
X141100703Y-132797945D01*
X141093689Y-132800387D01*
X141086653Y-132803019D01*
X141072555Y-132808135D01*
X141058444Y-132813645D01*
X141044326Y-132819530D01*
X141030206Y-132825769D01*
X141001985Y-132839232D01*
X140973829Y-132853872D01*
X140945784Y-132869529D01*
X140917898Y-132886043D01*
X140890218Y-132903252D01*
X140862791Y-132920997D01*
X140835394Y-132939175D01*
X140808169Y-132957773D01*
X140781113Y-132976763D01*
X140754221Y-132996117D01*
X140727490Y-133015805D01*
X140700917Y-133035799D01*
X140674498Y-133056072D01*
X140648230Y-133076594D01*
X140596210Y-133118616D01*
X140544716Y-133161494D01*
X140493729Y-133205167D01*
X140443232Y-133249572D01*
X140393205Y-133294646D01*
X140343632Y-133340328D01*
X140294494Y-133386555D01*
X140245774Y-133433265D01*
X140239518Y-133439235D01*
X140233312Y-133445261D01*
X140220993Y-133457415D01*
X140208701Y-133469599D01*
X140196333Y-133481672D01*
X140257433Y-133517245D01*
X140332016Y-133565665D01*
X140404083Y-133617565D01*
X140473519Y-133672831D01*
X140540208Y-133731344D01*
X140604037Y-133792989D01*
X140664888Y-133857648D01*
X140722648Y-133925205D01*
X140777201Y-133995543D01*
X140828432Y-134068546D01*
X140876226Y-134144096D01*
X140920468Y-134222077D01*
X140961043Y-134302373D01*
X140997836Y-134384866D01*
X141030731Y-134469440D01*
X141059614Y-134555978D01*
X141084368Y-134644364D01*
X141104881Y-134734480D01*
X141121035Y-134826211D01*
X141132716Y-134919438D01*
X141139809Y-135014047D01*
X141142199Y-135109919D01*
X141139809Y-135205791D01*
X141132716Y-135300400D01*
X141121035Y-135393628D01*
X141104881Y-135485358D01*
X141084368Y-135575475D01*
X141059614Y-135663860D01*
X141030731Y-135750398D01*
X140997836Y-135834972D01*
X140961043Y-135917466D01*
X140920468Y-135997761D01*
X140876226Y-136075742D01*
X140828432Y-136151293D01*
X140777201Y-136224295D01*
X140722648Y-136294633D01*
X140664888Y-136362190D01*
X140604037Y-136426849D01*
X140540208Y-136488494D01*
X140473519Y-136547007D01*
X140404083Y-136602273D01*
X140332016Y-136654173D01*
X140257433Y-136702593D01*
X140180448Y-136747414D01*
X140101178Y-136788521D01*
X140019737Y-136825796D01*
X139936241Y-136859122D01*
X139850803Y-136888384D01*
X139763541Y-136913464D01*
X139674568Y-136934246D01*
X139583999Y-136950613D01*
X139491951Y-136962448D01*
X139398537Y-136969635D01*
X139303874Y-136972056D01*
X139209210Y-136969635D01*
X139115794Y-136962448D01*
X139023742Y-136950613D01*
X138933169Y-136934246D01*
X138844190Y-136913464D01*
X138756920Y-136888384D01*
X138671475Y-136859122D01*
X138587969Y-136825796D01*
X138506519Y-136788521D01*
X138427238Y-136747414D01*
X138350243Y-136702593D01*
X138275648Y-136654174D01*
X138203569Y-136602273D01*
X138134122Y-136547007D01*
X138067420Y-136488494D01*
X138003579Y-136426850D01*
X137942715Y-136362190D01*
X137884943Y-136294633D01*
X137830378Y-136224295D01*
X137781931Y-136155276D01*
X137780808Y-136153616D01*
X137780789Y-136153650D01*
X137779135Y-136151293D01*
X137731330Y-136075742D01*
X137687077Y-135997761D01*
X137646491Y-135917466D01*
X137624124Y-135867328D01*
X137949532Y-135867328D01*
X137958050Y-135883068D01*
X137962349Y-135890914D01*
X137966740Y-135898696D01*
X137974855Y-135912624D01*
X137983106Y-135926453D01*
X137991494Y-135940188D01*
X138000020Y-135953835D01*
X138008682Y-135967391D01*
X138017479Y-135980850D01*
X138026409Y-135994212D01*
X138035470Y-136007475D01*
X138044665Y-136020636D01*
X138053996Y-136033697D01*
X138063456Y-136046656D01*
X138072455Y-136058730D01*
X138073027Y-136059522D01*
X138073822Y-136060535D01*
X138077575Y-136065430D01*
X138082182Y-136071289D01*
X138091435Y-136082974D01*
X138091442Y-136082963D01*
X138112606Y-136109902D01*
X138154160Y-136158562D01*
X138197628Y-136205442D01*
X138242949Y-136250480D01*
X138290062Y-136293615D01*
X138338904Y-136334788D01*
X138389416Y-136373935D01*
X138441535Y-136410997D01*
X138495201Y-136445913D01*
X138550353Y-136478621D01*
X138606929Y-136509061D01*
X138664868Y-136537171D01*
X138724110Y-136562891D01*
X138784591Y-136586159D01*
X138846253Y-136606915D01*
X138909033Y-136625098D01*
X138972870Y-136640646D01*
X139037703Y-136653498D01*
X139569780Y-136653498D01*
X139634613Y-136640646D01*
X139698450Y-136625098D01*
X139761230Y-136606915D01*
X139822892Y-136586159D01*
X139883374Y-136562891D01*
X139942615Y-136537171D01*
X140000554Y-136509061D01*
X140057130Y-136478621D01*
X140112282Y-136445913D01*
X140165948Y-136410997D01*
X140268579Y-136334788D01*
X140364534Y-136250480D01*
X140453323Y-136158562D01*
X140534457Y-136059522D01*
X140607446Y-135953849D01*
X140640733Y-135898676D01*
X140671800Y-135842029D01*
X140700586Y-135783966D01*
X140727031Y-135724550D01*
X140751071Y-135663842D01*
X140772648Y-135601902D01*
X140791698Y-135538791D01*
X140808162Y-135474571D01*
X140821978Y-135409303D01*
X140833084Y-135343046D01*
X140841420Y-135275863D01*
X140846924Y-135207815D01*
X140266428Y-135207815D01*
X140262343Y-135260014D01*
X140256479Y-135311830D01*
X140239674Y-135414288D01*
X140216520Y-135515132D01*
X140187528Y-135614306D01*
X140153208Y-135711753D01*
X140114070Y-135807416D01*
X140070622Y-135901238D01*
X140023375Y-135993164D01*
X139972838Y-136083137D01*
X139919522Y-136171100D01*
X139863934Y-136256996D01*
X139806586Y-136340769D01*
X139747987Y-136422362D01*
X139688647Y-136501719D01*
X139569780Y-136653498D01*
X139037703Y-136653498D01*
X138919108Y-136501709D01*
X138801678Y-136340732D01*
X138744625Y-136256943D01*
X138689334Y-136171030D01*
X138636293Y-136083052D01*
X138585993Y-135993065D01*
X138538924Y-135901129D01*
X138495576Y-135807299D01*
X138456439Y-135711635D01*
X138422001Y-135614194D01*
X138392779Y-135515118D01*
X138398617Y-135536427D01*
X138404790Y-135557709D01*
X138411214Y-135578913D01*
X138417824Y-135600058D01*
X138358219Y-135685337D01*
X138299020Y-135770876D01*
X138240272Y-135856699D01*
X138182024Y-135942827D01*
X138159099Y-135977710D01*
X138136449Y-136012744D01*
X138091442Y-136082963D01*
X138073822Y-136060535D01*
X138073039Y-136059513D01*
X138072455Y-136058730D01*
X138035484Y-136007484D01*
X138000038Y-135953849D01*
X137966751Y-135898676D01*
X137949546Y-135867305D01*
X137949532Y-135867328D01*
X137624124Y-135867328D01*
X137609689Y-135834973D01*
X137576785Y-135750399D01*
G37*
X137576785Y-135750399D02*
X137547895Y-135663860D01*
X137523133Y-135575475D01*
X137502615Y-135485358D01*
X137486455Y-135393628D01*
X137474771Y-135300400D01*
X137467827Y-135207815D01*
X137760560Y-135207815D01*
X137766064Y-135275863D01*
X137774400Y-135343046D01*
X137785506Y-135409303D01*
X137799322Y-135474571D01*
X137815785Y-135538791D01*
X137834836Y-135601902D01*
X137856412Y-135663842D01*
X137880453Y-135724550D01*
X137906897Y-135783966D01*
X137935684Y-135842029D01*
X137949546Y-135867305D01*
X137981210Y-135814773D01*
X138024813Y-135744880D01*
X138069137Y-135675481D01*
X138114128Y-135606544D01*
X138159734Y-135538036D01*
X138252575Y-135402172D01*
X138347232Y-135267626D01*
X138347303Y-135268320D01*
X138348336Y-135278677D01*
X138349355Y-135289750D01*
X138350450Y-135300804D01*
X138351076Y-135306314D01*
X138351781Y-135311807D01*
X138355528Y-135337560D01*
X138359687Y-135363215D01*
X138364247Y-135388772D01*
X138369154Y-135414015D01*
X138369188Y-135414212D01*
X138369234Y-135414408D01*
X138374528Y-135439587D01*
X138380238Y-135464844D01*
X138386318Y-135489998D01*
X138392734Y-135514947D01*
X138392755Y-135515034D01*
X138392779Y-135515118D01*
X138392761Y-135515050D01*
X138392734Y-135514947D01*
X138369234Y-135414408D01*
X138369196Y-135414229D01*
X138369154Y-135414015D01*
X138351792Y-135311787D01*
X138347303Y-135268320D01*
X138347234Y-135267623D01*
X138347232Y-135267626D01*
X138341057Y-135207834D01*
X138534457Y-135207834D01*
X138536480Y-135231458D01*
X138538919Y-135255005D01*
X138541762Y-135278480D01*
X138544917Y-135301285D01*
X138544984Y-135301888D01*
X138545097Y-135302517D01*
X138548619Y-135325223D01*
X138552616Y-135348491D01*
X138556991Y-135371685D01*
X138561743Y-135394799D01*
X138562414Y-135397589D01*
X138562442Y-135397551D01*
X138584351Y-135486461D01*
X138612319Y-135576905D01*
X138645224Y-135666081D01*
X138682624Y-135753963D01*
X138724080Y-135840522D01*
X138769151Y-135925729D01*
X138817397Y-136009556D01*
X138868378Y-136091976D01*
X138921653Y-136172959D01*
X138976783Y-136252477D01*
X139033326Y-136330502D01*
X139090843Y-136407006D01*
X139207036Y-136555338D01*
X139400447Y-136555338D01*
X139516716Y-136407006D01*
X139630812Y-136252477D01*
X139685947Y-136172959D01*
X139739221Y-136091976D01*
X139790196Y-136009556D01*
X139838431Y-135925729D01*
X139883489Y-135840522D01*
X139924929Y-135753963D01*
X139962313Y-135666081D01*
X139995201Y-135576905D01*
X140023155Y-135486461D01*
X140045735Y-135394780D01*
X140062502Y-135301888D01*
X140073018Y-135207815D01*
X139400447Y-135207815D01*
X139400447Y-136555338D01*
X139207036Y-136555338D01*
X139207036Y-135207815D01*
X138534466Y-135207815D01*
X138534468Y-135207834D01*
X138534457Y-135207834D01*
X138341057Y-135207834D01*
X138341055Y-135207815D01*
X137760560Y-135207815D01*
X137467827Y-135207815D01*
X137467675Y-135205792D01*
X137465285Y-135109919D01*
X137467675Y-135014047D01*
X137467826Y-135012032D01*
X138534457Y-135012032D01*
X138852423Y-135012032D01*
X138852429Y-135012023D01*
X139207036Y-135012023D01*
X139400447Y-135012023D01*
X140073018Y-135012023D01*
X140062502Y-134917122D01*
X140045735Y-134823615D01*
X140023155Y-134731509D01*
X139995201Y-134640809D01*
X139962313Y-134551521D01*
X139924929Y-134463652D01*
X139883489Y-134377207D01*
X139838431Y-134292191D01*
X139790196Y-134208611D01*
X139739221Y-134126473D01*
X139685947Y-134045781D01*
X139640692Y-133980743D01*
X139636118Y-133974093D01*
X139631138Y-133967011D01*
X139630812Y-133966543D01*
X139630668Y-133966349D01*
X139605386Y-133931264D01*
X139579670Y-133896308D01*
X139553745Y-133861650D01*
X139527678Y-133827246D01*
X139527675Y-133827250D01*
X139516716Y-133812449D01*
X139400447Y-133664236D01*
X139400447Y-135012023D01*
X139207036Y-135012023D01*
X139207036Y-133664501D01*
X139090767Y-133812832D01*
X138976671Y-133967362D01*
X138921536Y-134046880D01*
X138868262Y-134127863D01*
X138817287Y-134210282D01*
X138769052Y-134294110D01*
X138723995Y-134379317D01*
X138682554Y-134465875D01*
X138645171Y-134553757D01*
X138612282Y-134642934D01*
X138584328Y-134733377D01*
X138561748Y-134825059D01*
X138544981Y-134917950D01*
X138534726Y-135009692D01*
X138534716Y-135009706D01*
X138534457Y-135012032D01*
X137467826Y-135012032D01*
X137467827Y-135012023D01*
X137760560Y-135012023D01*
X138341055Y-135012023D01*
X138345141Y-134959825D01*
X138351004Y-134908008D01*
X138367810Y-134805550D01*
X138390963Y-134704706D01*
X138419955Y-134605532D01*
X138454275Y-134508086D01*
X138493413Y-134412423D01*
X138536861Y-134318600D01*
X138584108Y-134226674D01*
X138634645Y-134136701D01*
X138687962Y-134048739D01*
X138743549Y-133962842D01*
X138800897Y-133879069D01*
X138859496Y-133797476D01*
X138918836Y-133718119D01*
X138961035Y-133664236D01*
X139037703Y-133566340D01*
X139569780Y-133566340D01*
X139665571Y-133688654D01*
X139670286Y-133694693D01*
X139671653Y-133696419D01*
X139688647Y-133718119D01*
X139806059Y-133878350D01*
X139806576Y-133879078D01*
X139807299Y-133880111D01*
X139863934Y-133962842D01*
X139919522Y-134048739D01*
X139972838Y-134136701D01*
X140023375Y-134226674D01*
X140070622Y-134318600D01*
X140114070Y-134412423D01*
X140153209Y-134508086D01*
X140187528Y-134605532D01*
X140216520Y-134704706D01*
X140239674Y-134805550D01*
X140256480Y-134908008D01*
X140266428Y-135012023D01*
X140846924Y-135012023D01*
X140841420Y-134943975D01*
X140833084Y-134876792D01*
X140821978Y-134810536D01*
X140808162Y-134745267D01*
X140791698Y-134681047D01*
X140772648Y-134617936D01*
X140751071Y-134555996D01*
X140727031Y-134495288D01*
X140700586Y-134435872D01*
X140671800Y-134377810D01*
X140640733Y-134321162D01*
X140607446Y-134265990D01*
X140572000Y-134212354D01*
X140534457Y-134160316D01*
X140494878Y-134109936D01*
X140453323Y-134061276D01*
X140409855Y-134014397D01*
X140364534Y-133969359D01*
X140317422Y-133926223D01*
X140268579Y-133885051D01*
X140218068Y-133845903D01*
X140165948Y-133808841D01*
X140112282Y-133773925D01*
X140057130Y-133741217D01*
X140000554Y-133710778D01*
X139977976Y-133699823D01*
X139977987Y-133699812D01*
X139960375Y-133691123D01*
X139951538Y-133686835D01*
X139942640Y-133682656D01*
X139927945Y-133676005D01*
X139913163Y-133669511D01*
X139898301Y-133663169D01*
X139884807Y-133657570D01*
X139883374Y-133656948D01*
X139881920Y-133656388D01*
X139868364Y-133650917D01*
X139853288Y-133645009D01*
X139838136Y-133639256D01*
X139822906Y-133633666D01*
X139807600Y-133628245D01*
X139792224Y-133622987D01*
X139776777Y-133617889D01*
X139761931Y-133613159D01*
X139761230Y-133612923D01*
X139760131Y-133612605D01*
X139756830Y-133611610D01*
X139752379Y-133610334D01*
X139748410Y-133609210D01*
X139746369Y-133608619D01*
X139743479Y-133607776D01*
X139743475Y-133607781D01*
X139698450Y-133594741D01*
X139634613Y-133579193D01*
X139569780Y-133566340D01*
X139037703Y-133566340D01*
X138972871Y-133579216D01*
X138909036Y-133594784D01*
X138846259Y-133612984D01*
X138784602Y-133633755D01*
X138724126Y-133657036D01*
X138664891Y-133682766D01*
X138606959Y-133710884D01*
X138550390Y-133741329D01*
X138495246Y-133774041D01*
X138441588Y-133808958D01*
X138338974Y-133885167D01*
X138243035Y-133969468D01*
X138154260Y-134061375D01*
X138073137Y-134160401D01*
X138000154Y-134266060D01*
X137966868Y-134321224D01*
X137935801Y-134377863D01*
X137907013Y-134435917D01*
X137880565Y-134495325D01*
X137856518Y-134556026D01*
X137834934Y-134617959D01*
X137815874Y-134681063D01*
X137799397Y-134745278D01*
X137785567Y-134810542D01*
X137774443Y-134876795D01*
X137766087Y-134943976D01*
X137760560Y-135012023D01*
X137467827Y-135012023D01*
X137474771Y-134919438D01*
X137486455Y-134826211D01*
X137502615Y-134734480D01*
X137523133Y-134644364D01*
X137547895Y-134555978D01*
X137576785Y-134469440D01*
X137609689Y-134384866D01*
X137646491Y-134302373D01*
X137687076Y-134222077D01*
X137731329Y-134144096D01*
X137779135Y-134068546D01*
X137830378Y-133995543D01*
X137884943Y-133925205D01*
X137942715Y-133857648D01*
X138003579Y-133792989D01*
X138067420Y-133731344D01*
X138134121Y-133672831D01*
X138203569Y-133617565D01*
X138275648Y-133565665D01*
X138350243Y-133517245D01*
X138427238Y-133472424D01*
X138506519Y-133431318D01*
X138587969Y-133394043D01*
X138671475Y-133360716D01*
X138756920Y-133331454D01*
X138844190Y-133306374D01*
X138933169Y-133285592D01*
X139023742Y-133269225D01*
X139115794Y-133257390D01*
X139209210Y-133250203D01*
X139303874Y-133247782D01*
X139398537Y-133250203D01*
X139491951Y-133257390D01*
X139583999Y-133269225D01*
X139674568Y-133285592D01*
X139763541Y-133306374D01*
X139850803Y-133331454D01*
X139936241Y-133360716D01*
X140019737Y-133394043D01*
X140101178Y-133431318D01*
X140180106Y-133472247D01*
X140180455Y-133472436D01*
X140180807Y-133472633D01*
X140189364Y-133477615D01*
X140192344Y-133479388D01*
X140194326Y-133480546D01*
X140196319Y-133481686D01*
X140196333Y-133481672D01*
X140189364Y-133477615D01*
X140188400Y-133477041D01*
X140184449Y-133474704D01*
X140182459Y-133473558D01*
X140180807Y-133472633D01*
X140180448Y-133472424D01*
X140180106Y-133472247D01*
X140160847Y-133461802D01*
X140141098Y-133451397D01*
X140121209Y-133441228D01*
X140101183Y-133431301D01*
X140081022Y-133421621D01*
X140060726Y-133412186D01*
X140040299Y-133402993D01*
X140019741Y-133394043D01*
X140015171Y-133392119D01*
X140010578Y-133390242D01*
X140001342Y-133386582D01*
X139982844Y-133379315D01*
X140040532Y-133325756D01*
X140069488Y-133299084D01*
X140098703Y-133272655D01*
X140151132Y-133227058D01*
X140204068Y-133181972D01*
X140257548Y-133137438D01*
X140311610Y-133093497D01*
X140366292Y-133050187D01*
X140421632Y-133007551D01*
X140477668Y-132965628D01*
X140534438Y-132924459D01*
X140592423Y-132884569D01*
X140651004Y-132845256D01*
X140710652Y-132807095D01*
X140771838Y-132770664D01*
X140803155Y-132753277D01*
X140835033Y-132736539D01*
X140867531Y-132720523D01*
X140900708Y-132705299D01*
X140934623Y-132690941D01*
X140969335Y-132677519D01*
X141004902Y-132665108D01*
X141041384Y-132653778D01*
X141055244Y-132649977D01*
X141069438Y-132646499D01*
X141083967Y-132643397D01*
X141098831Y-132640726D01*
X141114030Y-132638540D01*
X141129563Y-132636893D01*
X141145432Y-132635839D01*
X141153492Y-132635552D01*
X141161635Y-132635433D01*
X141167111Y-132635449D01*
X141172625Y-132635545D01*
X141178177Y-132635721D01*
X141183765Y-132635981D01*
X141189391Y-132636328D01*
X141195054Y-132636764D01*
X141200754Y-132637291D01*
X141206491Y-132637913D01*
X141212170Y-132638575D01*
X141217899Y-132639386D01*
X141223676Y-132640370D01*
X141229503Y-132641553D01*
X141235380Y-132642960D01*
X141241306Y-132644614D01*
X141244288Y-132645542D01*
X141247283Y-132646541D01*
X141250290Y-132647614D01*
X141253310Y-132648765D01*
X141276615Y-132657240D01*
X141279492Y-132658764D01*
X141282363Y-132660352D01*
X141285228Y-132661996D01*
X141288084Y-132663686D01*
X141290926Y-132665414D01*
X141293754Y-132667169D01*
X141299353Y-132670728D01*
X141304903Y-132674273D01*
X141310404Y-132677846D01*
X141313120Y-132679680D01*
X141315806Y-132681567D01*
X141318454Y-132683522D01*
X141321057Y-132685559D01*
X141339558Y-132704317D01*
X141341969Y-132706630D01*
X141344250Y-132709000D01*
X141346413Y-132711423D01*
X141348468Y-132713894D01*
X141350427Y-132716409D01*
X141352303Y-132718963D01*
X141354105Y-132721551D01*
X141355847Y-132724168D01*
X141359193Y-132729473D01*
X141362432Y-132734839D01*
X141365658Y-132740230D01*
X141368961Y-132745607D01*
X141374390Y-132756594D01*
X141379189Y-132767526D01*
X141383395Y-132778398D01*
X141387043Y-132789205D01*
X141390166Y-132799942D01*
X141392800Y-132810604D01*
X141394980Y-132821186D01*
X141396741Y-132831683D01*
X141398117Y-132842090D01*
X141399143Y-132852402D01*
X141399855Y-132862615D01*
X141400288Y-132872722D01*
X141400452Y-132892603D01*
X141399916Y-132912005D01*
X141398719Y-132931207D01*
X141396947Y-132950130D01*
X141394646Y-132968787D01*
X141391864Y-132987193D01*
X141388649Y-133005364D01*
X141385046Y-133023314D01*
X141381103Y-133041058D01*
X141376868Y-133058611D01*
X141361529Y-133114113D01*
X141344390Y-133168560D01*
X141325610Y-133222040D01*
X141305345Y-133274638D01*
X141283752Y-133326443D01*
X141260991Y-133377541D01*
X141237217Y-133428019D01*
X141212588Y-133477965D01*
X141486422Y-133497034D01*
X140923924Y-133971423D01*
X140976582Y-133237463D01*
X141150111Y-133444376D01*
X141168658Y-133393790D01*
X141186463Y-133343058D01*
X141203332Y-133292208D01*
X141219070Y-133241266D01*
X141233481Y-133190263D01*
X141246369Y-133139227D01*
X141257539Y-133088185D01*
X141266796Y-133037165D01*
X141269125Y-133021109D01*
X141271132Y-133005107D01*
X141272792Y-132989192D01*
X141274080Y-132973394D01*
X141274972Y-132957746D01*
X141275441Y-132942277D01*
X141275463Y-132927020D01*
X141275013Y-132912005D01*
X141274647Y-132904636D01*
X141274141Y-132897326D01*
X141273495Y-132890098D01*
X141272705Y-132882973D01*
X141271769Y-132875972D01*
X141270685Y-132869118D01*
X141269450Y-132862431D01*
X141268063Y-132855933D01*
X141266520Y-132849646D01*
X141264821Y-132843591D01*
X141262961Y-132837791D01*
X141260940Y-132832266D01*
X141258755Y-132827039D01*
X141256403Y-132822130D01*
X141253882Y-132817561D01*
X141251190Y-132813355D01*
X141248397Y-132809594D01*
X141245560Y-132806143D01*
X141242662Y-132802989D01*
X141239684Y-132800119D01*
X141236606Y-132797519D01*
X141233411Y-132795178D01*
X141230080Y-132793083D01*
X141226593Y-132791221D01*
X141222933Y-132789578D01*
X141219081Y-132788143D01*
X141215018Y-132786903D01*
X141210725Y-132785845D01*
X141206184Y-132784955D01*
X141201375Y-132784223D01*
X141196282Y-132783634D01*
X141190884Y-132783176D01*
X141185243Y-132783064D01*
X141179438Y-132783128D01*
X141173480Y-132783367D01*
X141167380Y-132783783D01*
X141161146Y-132784378D01*
X141154788Y-132785152D01*
X141148318Y-132786107D01*
X141141745Y-132787244D01*
X141135078Y-132788563D01*
X141128329Y-132790067D01*
X141121507Y-132791755D01*
X141114622Y-132793631D01*
X141107684Y-132795694D01*
X141100703Y-132797945D01*
X141093689Y-132800387D01*
X141086653Y-132803019D01*
X141072555Y-132808135D01*
X141058444Y-132813645D01*
X141044326Y-132819530D01*
X141030206Y-132825769D01*
X141001985Y-132839232D01*
X140973829Y-132853872D01*
X140945784Y-132869529D01*
X140917898Y-132886043D01*
X140890218Y-132903252D01*
X140862791Y-132920997D01*
X140835394Y-132939175D01*
X140808169Y-132957773D01*
X140781113Y-132976763D01*
X140754221Y-132996117D01*
X140727490Y-133015805D01*
X140700917Y-133035799D01*
X140674498Y-133056072D01*
X140648230Y-133076594D01*
X140596210Y-133118616D01*
X140544716Y-133161494D01*
X140493729Y-133205167D01*
X140443232Y-133249572D01*
X140393205Y-133294646D01*
X140343632Y-133340328D01*
X140294494Y-133386555D01*
X140245774Y-133433265D01*
X140239518Y-133439235D01*
X140233312Y-133445261D01*
X140220993Y-133457415D01*
X140208701Y-133469599D01*
X140196333Y-133481672D01*
X140257433Y-133517245D01*
X140332016Y-133565665D01*
X140404083Y-133617565D01*
X140473519Y-133672831D01*
X140540208Y-133731344D01*
X140604037Y-133792989D01*
X140664888Y-133857648D01*
X140722648Y-133925205D01*
X140777201Y-133995543D01*
X140828432Y-134068546D01*
X140876226Y-134144096D01*
X140920468Y-134222077D01*
X140961043Y-134302373D01*
X140997836Y-134384866D01*
X141030731Y-134469440D01*
X141059614Y-134555978D01*
X141084368Y-134644364D01*
X141104881Y-134734480D01*
X141121035Y-134826211D01*
X141132716Y-134919438D01*
X141139809Y-135014047D01*
X141142199Y-135109919D01*
X141139809Y-135205791D01*
X141132716Y-135300400D01*
X141121035Y-135393628D01*
X141104881Y-135485358D01*
X141084368Y-135575475D01*
X141059614Y-135663860D01*
X141030731Y-135750398D01*
X140997836Y-135834972D01*
X140961043Y-135917466D01*
X140920468Y-135997761D01*
X140876226Y-136075742D01*
X140828432Y-136151293D01*
X140777201Y-136224295D01*
X140722648Y-136294633D01*
X140664888Y-136362190D01*
X140604037Y-136426849D01*
X140540208Y-136488494D01*
X140473519Y-136547007D01*
X140404083Y-136602273D01*
X140332016Y-136654173D01*
X140257433Y-136702593D01*
X140180448Y-136747414D01*
X140101178Y-136788521D01*
X140019737Y-136825796D01*
X139936241Y-136859122D01*
X139850803Y-136888384D01*
X139763541Y-136913464D01*
X139674568Y-136934246D01*
X139583999Y-136950613D01*
X139491951Y-136962448D01*
X139398537Y-136969635D01*
X139303874Y-136972056D01*
X139209210Y-136969635D01*
X139115794Y-136962448D01*
X139023742Y-136950613D01*
X138933169Y-136934246D01*
X138844190Y-136913464D01*
X138756920Y-136888384D01*
X138671475Y-136859122D01*
X138587969Y-136825796D01*
X138506519Y-136788521D01*
X138427238Y-136747414D01*
X138350243Y-136702593D01*
X138275648Y-136654174D01*
X138203569Y-136602273D01*
X138134122Y-136547007D01*
X138067420Y-136488494D01*
X138003579Y-136426850D01*
X137942715Y-136362190D01*
X137884943Y-136294633D01*
X137830378Y-136224295D01*
X137781931Y-136155276D01*
X137780808Y-136153616D01*
X137780789Y-136153650D01*
X137779135Y-136151293D01*
X137731330Y-136075742D01*
X137687077Y-135997761D01*
X137646491Y-135917466D01*
X137624124Y-135867328D01*
X137949532Y-135867328D01*
X137958050Y-135883068D01*
X137962349Y-135890914D01*
X137966740Y-135898696D01*
X137974855Y-135912624D01*
X137983106Y-135926453D01*
X137991494Y-135940188D01*
X138000020Y-135953835D01*
X138008682Y-135967391D01*
X138017479Y-135980850D01*
X138026409Y-135994212D01*
X138035470Y-136007475D01*
X138044665Y-136020636D01*
X138053996Y-136033697D01*
X138063456Y-136046656D01*
X138072455Y-136058730D01*
X138073027Y-136059522D01*
X138073822Y-136060535D01*
X138077575Y-136065430D01*
X138082182Y-136071289D01*
X138091435Y-136082974D01*
X138091442Y-136082963D01*
X138112606Y-136109902D01*
X138154160Y-136158562D01*
X138197628Y-136205442D01*
X138242949Y-136250480D01*
X138290062Y-136293615D01*
X138338904Y-136334788D01*
X138389416Y-136373935D01*
X138441535Y-136410997D01*
X138495201Y-136445913D01*
X138550353Y-136478621D01*
X138606929Y-136509061D01*
X138664868Y-136537171D01*
X138724110Y-136562891D01*
X138784591Y-136586159D01*
X138846253Y-136606915D01*
X138909033Y-136625098D01*
X138972870Y-136640646D01*
X139037703Y-136653498D01*
X139569780Y-136653498D01*
X139634613Y-136640646D01*
X139698450Y-136625098D01*
X139761230Y-136606915D01*
X139822892Y-136586159D01*
X139883374Y-136562891D01*
X139942615Y-136537171D01*
X140000554Y-136509061D01*
X140057130Y-136478621D01*
X140112282Y-136445913D01*
X140165948Y-136410997D01*
X140268579Y-136334788D01*
X140364534Y-136250480D01*
X140453323Y-136158562D01*
X140534457Y-136059522D01*
X140607446Y-135953849D01*
X140640733Y-135898676D01*
X140671800Y-135842029D01*
X140700586Y-135783966D01*
X140727031Y-135724550D01*
X140751071Y-135663842D01*
X140772648Y-135601902D01*
X140791698Y-135538791D01*
X140808162Y-135474571D01*
X140821978Y-135409303D01*
X140833084Y-135343046D01*
X140841420Y-135275863D01*
X140846924Y-135207815D01*
X140266428Y-135207815D01*
X140262343Y-135260014D01*
X140256479Y-135311830D01*
X140239674Y-135414288D01*
X140216520Y-135515132D01*
X140187528Y-135614306D01*
X140153208Y-135711753D01*
X140114070Y-135807416D01*
X140070622Y-135901238D01*
X140023375Y-135993164D01*
X139972838Y-136083137D01*
X139919522Y-136171100D01*
X139863934Y-136256996D01*
X139806586Y-136340769D01*
X139747987Y-136422362D01*
X139688647Y-136501719D01*
X139569780Y-136653498D01*
X139037703Y-136653498D01*
X138919108Y-136501709D01*
X138801678Y-136340732D01*
X138744625Y-136256943D01*
X138689334Y-136171030D01*
X138636293Y-136083052D01*
X138585993Y-135993065D01*
X138538924Y-135901129D01*
X138495576Y-135807299D01*
X138456439Y-135711635D01*
X138422001Y-135614194D01*
X138392779Y-135515118D01*
X138398617Y-135536427D01*
X138404790Y-135557709D01*
X138411214Y-135578913D01*
X138417824Y-135600058D01*
X138358219Y-135685337D01*
X138299020Y-135770876D01*
X138240272Y-135856699D01*
X138182024Y-135942827D01*
X138159099Y-135977710D01*
X138136449Y-136012744D01*
X138091442Y-136082963D01*
X138073822Y-136060535D01*
X138073039Y-136059513D01*
X138072455Y-136058730D01*
X138035484Y-136007484D01*
X138000038Y-135953849D01*
X137966751Y-135898676D01*
X137949546Y-135867305D01*
X137949532Y-135867328D01*
X137624124Y-135867328D01*
X137609689Y-135834973D01*
X137576785Y-135750399D01*
G36*
X120175746Y-134522718D02*
G01*
X120208849Y-134523384D01*
X120240651Y-134525351D01*
X120271168Y-134528569D01*
X120300416Y-134532990D01*
X120328412Y-134538565D01*
X120355172Y-134545246D01*
X120380712Y-134552984D01*
X120405050Y-134561731D01*
X120428200Y-134571438D01*
X120450180Y-134582057D01*
X120471007Y-134593538D01*
X120490695Y-134605834D01*
X120509262Y-134618895D01*
X120526725Y-134632673D01*
X120543099Y-134647120D01*
X120558401Y-134662186D01*
X120572647Y-134677824D01*
X120585853Y-134693985D01*
X120598037Y-134710619D01*
X120609214Y-134727679D01*
X120619401Y-134745117D01*
X120628614Y-134762882D01*
X120636869Y-134780927D01*
X120644183Y-134799203D01*
X120650573Y-134817662D01*
X120656054Y-134836255D01*
X120660643Y-134854933D01*
X120664357Y-134873648D01*
X120669222Y-134910994D01*
X120670782Y-134947903D01*
X120669178Y-134984840D01*
X120664280Y-135022261D01*
X120655955Y-135059771D01*
X120644071Y-135096975D01*
X120628496Y-135133477D01*
X120619283Y-135151341D01*
X120609097Y-135168880D01*
X120597922Y-135186047D01*
X120585743Y-135202790D01*
X120572541Y-135219061D01*
X120558301Y-135234811D01*
X120543005Y-135249989D01*
X120526639Y-135264546D01*
X120509184Y-135278433D01*
X120490624Y-135291601D01*
X120470944Y-135303999D01*
X120450126Y-135315578D01*
X120428154Y-135326290D01*
X120405012Y-135336084D01*
X120380682Y-135344911D01*
X120355148Y-135352722D01*
X120328395Y-135359466D01*
X120300405Y-135365096D01*
X120271161Y-135369560D01*
X120240648Y-135372810D01*
X120208848Y-135374797D01*
X120175746Y-135375470D01*
X119585461Y-135375470D01*
X119585461Y-135778166D01*
X119312940Y-135778166D01*
X119312940Y-135137874D01*
X119585725Y-135137874D01*
X120118330Y-135137874D01*
X120138661Y-135137570D01*
X120157947Y-135136674D01*
X120176216Y-135135208D01*
X120193494Y-135133195D01*
X120209807Y-135130658D01*
X120225180Y-135127621D01*
X120239640Y-135124105D01*
X120253214Y-135120135D01*
X120265926Y-135115732D01*
X120277804Y-135110920D01*
X120288874Y-135105722D01*
X120299161Y-135100160D01*
X120308691Y-135094258D01*
X120317492Y-135088038D01*
X120325588Y-135081524D01*
X120333006Y-135074738D01*
X120339773Y-135067703D01*
X120345913Y-135060442D01*
X120351454Y-135052978D01*
X120356421Y-135045334D01*
X120360841Y-135037533D01*
X120364740Y-135029598D01*
X120368143Y-135021552D01*
X120371077Y-135013417D01*
X120373569Y-135005216D01*
X120375643Y-134996973D01*
X120378646Y-134980451D01*
X120380294Y-134964033D01*
X120380797Y-134947903D01*
X120380294Y-134932193D01*
X120378646Y-134916142D01*
X120375643Y-134899938D01*
X120371077Y-134883767D01*
X120364740Y-134867816D01*
X120356421Y-134852272D01*
X120351454Y-134844711D01*
X120345913Y-134837322D01*
X120339773Y-134830128D01*
X120333006Y-134823152D01*
X120325588Y-134816419D01*
X120317492Y-134809950D01*
X120308691Y-134803770D01*
X120299161Y-134797902D01*
X120288874Y-134792369D01*
X120277804Y-134787195D01*
X120265926Y-134782403D01*
X120253214Y-134778016D01*
X120239640Y-134774058D01*
X120225180Y-134770551D01*
X120209807Y-134767520D01*
X120193494Y-134764988D01*
X120176216Y-134762978D01*
X120157947Y-134761513D01*
X120138661Y-134760617D01*
X120118330Y-134760314D01*
X119585725Y-134760314D01*
X119585725Y-135137874D01*
X119312940Y-135137874D01*
X119312940Y-134522718D01*
X120175746Y-134522718D01*
G37*
X120175746Y-134522718D02*
X120208849Y-134523384D01*
X120240651Y-134525351D01*
X120271168Y-134528569D01*
X120300416Y-134532990D01*
X120328412Y-134538565D01*
X120355172Y-134545246D01*
X120380712Y-134552984D01*
X120405050Y-134561731D01*
X120428200Y-134571438D01*
X120450180Y-134582057D01*
X120471007Y-134593538D01*
X120490695Y-134605834D01*
X120509262Y-134618895D01*
X120526725Y-134632673D01*
X120543099Y-134647120D01*
X120558401Y-134662186D01*
X120572647Y-134677824D01*
X120585853Y-134693985D01*
X120598037Y-134710619D01*
X120609214Y-134727679D01*
X120619401Y-134745117D01*
X120628614Y-134762882D01*
X120636869Y-134780927D01*
X120644183Y-134799203D01*
X120650573Y-134817662D01*
X120656054Y-134836255D01*
X120660643Y-134854933D01*
X120664357Y-134873648D01*
X120669222Y-134910994D01*
X120670782Y-134947903D01*
X120669178Y-134984840D01*
X120664280Y-135022261D01*
X120655955Y-135059771D01*
X120644071Y-135096975D01*
X120628496Y-135133477D01*
X120619283Y-135151341D01*
X120609097Y-135168880D01*
X120597922Y-135186047D01*
X120585743Y-135202790D01*
X120572541Y-135219061D01*
X120558301Y-135234811D01*
X120543005Y-135249989D01*
X120526639Y-135264546D01*
X120509184Y-135278433D01*
X120490624Y-135291601D01*
X120470944Y-135303999D01*
X120450126Y-135315578D01*
X120428154Y-135326290D01*
X120405012Y-135336084D01*
X120380682Y-135344911D01*
X120355148Y-135352722D01*
X120328395Y-135359466D01*
X120300405Y-135365096D01*
X120271161Y-135369560D01*
X120240648Y-135372810D01*
X120208848Y-135374797D01*
X120175746Y-135375470D01*
X119585461Y-135375470D01*
X119585461Y-135778166D01*
X119312940Y-135778166D01*
X119312940Y-135137874D01*
X119585725Y-135137874D01*
X120118330Y-135137874D01*
X120138661Y-135137570D01*
X120157947Y-135136674D01*
X120176216Y-135135208D01*
X120193494Y-135133195D01*
X120209807Y-135130658D01*
X120225180Y-135127621D01*
X120239640Y-135124105D01*
X120253214Y-135120135D01*
X120265926Y-135115732D01*
X120277804Y-135110920D01*
X120288874Y-135105722D01*
X120299161Y-135100160D01*
X120308691Y-135094258D01*
X120317492Y-135088038D01*
X120325588Y-135081524D01*
X120333006Y-135074738D01*
X120339773Y-135067703D01*
X120345913Y-135060442D01*
X120351454Y-135052978D01*
X120356421Y-135045334D01*
X120360841Y-135037533D01*
X120364740Y-135029598D01*
X120368143Y-135021552D01*
X120371077Y-135013417D01*
X120373569Y-135005216D01*
X120375643Y-134996973D01*
X120378646Y-134980451D01*
X120380294Y-134964033D01*
X120380797Y-134947903D01*
X120380294Y-134932193D01*
X120378646Y-134916142D01*
X120375643Y-134899938D01*
X120371077Y-134883767D01*
X120364740Y-134867816D01*
X120356421Y-134852272D01*
X120351454Y-134844711D01*
X120345913Y-134837322D01*
X120339773Y-134830128D01*
X120333006Y-134823152D01*
X120325588Y-134816419D01*
X120317492Y-134809950D01*
X120308691Y-134803770D01*
X120299161Y-134797902D01*
X120288874Y-134792369D01*
X120277804Y-134787195D01*
X120265926Y-134782403D01*
X120253214Y-134778016D01*
X120239640Y-134774058D01*
X120225180Y-134770551D01*
X120209807Y-134767520D01*
X120193494Y-134764988D01*
X120176216Y-134762978D01*
X120157947Y-134761513D01*
X120138661Y-134760617D01*
X120118330Y-134760314D01*
X119585725Y-134760314D01*
X119585725Y-135137874D01*
X119312940Y-135137874D01*
X119312940Y-134522718D01*
X120175746Y-134522718D01*
D10*
G36*
X90559245Y-133699568D02*
G01*
X85055911Y-133699568D01*
X85055911Y-132994012D01*
X90559245Y-132994012D01*
X90559245Y-133699568D01*
G37*
X90559245Y-133699568D02*
X85055911Y-133699568D01*
X85055911Y-132994012D01*
X90559245Y-132994012D01*
X90559245Y-133699568D01*
G36*
X90559245Y-130312901D02*
G01*
X85055911Y-130312901D01*
X85055911Y-129607346D01*
X90559245Y-129607346D01*
X90559245Y-130312901D01*
G37*
X90559245Y-130312901D02*
X85055911Y-130312901D01*
X85055911Y-129607346D01*
X90559245Y-129607346D01*
X90559245Y-130312901D01*
D11*
G36*
X123346416Y-134502786D02*
G01*
X123387227Y-134504111D01*
X123427171Y-134506323D01*
X123466282Y-134509427D01*
X123504591Y-134513425D01*
X123542131Y-134518321D01*
X123578934Y-134524118D01*
X123615032Y-134530821D01*
X123650457Y-134538432D01*
X123685241Y-134546955D01*
X123719417Y-134556393D01*
X123753016Y-134566750D01*
X123786072Y-134578030D01*
X123818615Y-134590236D01*
X123850679Y-134603371D01*
X123882294Y-134617439D01*
X123882294Y-134875143D01*
X123858377Y-134861680D01*
X123832688Y-134848531D01*
X123805269Y-134835770D01*
X123776159Y-134823475D01*
X123745398Y-134811722D01*
X123713025Y-134800589D01*
X123679082Y-134790152D01*
X123643607Y-134780488D01*
X123606640Y-134771674D01*
X123568223Y-134763785D01*
X123528393Y-134756900D01*
X123487192Y-134751095D01*
X123444660Y-134746446D01*
X123400835Y-134743030D01*
X123355759Y-134740924D01*
X123309470Y-134740205D01*
X123273595Y-134740658D01*
X123238656Y-134742009D01*
X123204665Y-134744250D01*
X123171637Y-134747370D01*
X123139585Y-134751360D01*
X123108521Y-134756211D01*
X123078460Y-134761912D01*
X123049415Y-134768454D01*
X123021398Y-134775827D01*
X122994424Y-134784022D01*
X122968506Y-134793029D01*
X122943657Y-134802839D01*
X122919890Y-134813441D01*
X122897218Y-134824826D01*
X122875655Y-134836985D01*
X122855215Y-134849908D01*
X122835910Y-134863585D01*
X122817755Y-134878007D01*
X122800761Y-134893163D01*
X122784943Y-134909045D01*
X122770314Y-134925643D01*
X122756887Y-134942946D01*
X122744675Y-134960946D01*
X122733693Y-134979633D01*
X122723952Y-134998996D01*
X122715467Y-135019027D01*
X122708251Y-135039716D01*
X122702317Y-135061053D01*
X122697679Y-135083029D01*
X122694349Y-135105634D01*
X122692342Y-135128857D01*
X122691669Y-135152691D01*
X122692334Y-135176548D01*
X122694322Y-135199794D01*
X122697622Y-135222420D01*
X122702223Y-135244415D01*
X122708116Y-135265771D01*
X122715290Y-135286477D01*
X122723733Y-135306524D01*
X122733436Y-135325902D01*
X122744389Y-135344602D01*
X122756580Y-135362614D01*
X122769999Y-135379929D01*
X122784636Y-135396536D01*
X122800480Y-135412427D01*
X122817520Y-135427592D01*
X122835747Y-135442021D01*
X122855149Y-135455705D01*
X122897438Y-135480797D01*
X122944303Y-135502793D01*
X122995659Y-135521616D01*
X123051424Y-135537188D01*
X123111513Y-135549433D01*
X123175841Y-135558275D01*
X123244325Y-135563636D01*
X123316880Y-135565441D01*
X123361146Y-135564807D01*
X123404767Y-135562954D01*
X123447627Y-135559950D01*
X123489607Y-135555866D01*
X123530590Y-135550771D01*
X123570459Y-135544735D01*
X123609097Y-135537828D01*
X123646385Y-135530119D01*
X123682207Y-135521678D01*
X123716444Y-135512576D01*
X123748981Y-135502881D01*
X123779698Y-135492664D01*
X123808479Y-135481994D01*
X123835206Y-135470941D01*
X123859762Y-135459575D01*
X123882029Y-135447966D01*
X123882029Y-135690853D01*
X123850387Y-135704455D01*
X123818252Y-135717183D01*
X123785603Y-135729035D01*
X123752416Y-135740012D01*
X123718672Y-135750113D01*
X123684348Y-135759337D01*
X123649423Y-135767685D01*
X123613874Y-135775156D01*
X123577680Y-135781749D01*
X123540820Y-135787465D01*
X123503271Y-135792302D01*
X123465012Y-135796261D01*
X123426022Y-135799340D01*
X123386278Y-135801540D01*
X123345760Y-135802861D01*
X123304444Y-135803301D01*
X123252800Y-135802621D01*
X123202410Y-135800587D01*
X123153299Y-135797208D01*
X123105494Y-135792492D01*
X123059020Y-135786448D01*
X123013901Y-135779084D01*
X122970162Y-135770410D01*
X122927830Y-135760434D01*
X122886929Y-135749165D01*
X122847485Y-135736611D01*
X122809522Y-135722781D01*
X122773067Y-135707684D01*
X122738143Y-135691328D01*
X122704778Y-135673722D01*
X122672995Y-135654874D01*
X122642820Y-135634795D01*
X122614278Y-135613491D01*
X122587395Y-135590972D01*
X122562195Y-135567246D01*
X122538704Y-135542322D01*
X122516948Y-135516209D01*
X122496951Y-135488916D01*
X122478739Y-135460450D01*
X122462336Y-135430821D01*
X122447769Y-135400038D01*
X122435062Y-135368109D01*
X122424241Y-135335043D01*
X122415331Y-135300848D01*
X122408357Y-135265533D01*
X122403344Y-135229107D01*
X122400318Y-135191578D01*
X122399303Y-135152955D01*
X122399305Y-135152955D01*
X122400319Y-135114333D01*
X122403346Y-135076804D01*
X122408358Y-135040378D01*
X122415333Y-135005062D01*
X122424244Y-134970867D01*
X122435066Y-134937800D01*
X122447773Y-134905870D01*
X122462342Y-134875085D01*
X122478746Y-134845454D01*
X122496960Y-134816987D01*
X122516960Y-134789691D01*
X122538719Y-134763574D01*
X122562214Y-134738647D01*
X122587418Y-134714917D01*
X122614306Y-134692393D01*
X122642853Y-134671083D01*
X122673035Y-134650996D01*
X122704825Y-134632142D01*
X122738199Y-134614527D01*
X122773132Y-134598162D01*
X122847571Y-134569214D01*
X122927942Y-134545364D01*
X123014042Y-134526684D01*
X123105671Y-134513241D01*
X123202627Y-134505105D01*
X123304708Y-134502345D01*
X123346416Y-134502786D01*
G37*
X123346416Y-134502786D02*
X123387227Y-134504111D01*
X123427171Y-134506323D01*
X123466282Y-134509427D01*
X123504591Y-134513425D01*
X123542131Y-134518321D01*
X123578934Y-134524118D01*
X123615032Y-134530821D01*
X123650457Y-134538432D01*
X123685241Y-134546955D01*
X123719417Y-134556393D01*
X123753016Y-134566750D01*
X123786072Y-134578030D01*
X123818615Y-134590236D01*
X123850679Y-134603371D01*
X123882294Y-134617439D01*
X123882294Y-134875143D01*
X123858377Y-134861680D01*
X123832688Y-134848531D01*
X123805269Y-134835770D01*
X123776159Y-134823475D01*
X123745398Y-134811722D01*
X123713025Y-134800589D01*
X123679082Y-134790152D01*
X123643607Y-134780488D01*
X123606640Y-134771674D01*
X123568223Y-134763785D01*
X123528393Y-134756900D01*
X123487192Y-134751095D01*
X123444660Y-134746446D01*
X123400835Y-134743030D01*
X123355759Y-134740924D01*
X123309470Y-134740205D01*
X123273595Y-134740658D01*
X123238656Y-134742009D01*
X123204665Y-134744250D01*
X123171637Y-134747370D01*
X123139585Y-134751360D01*
X123108521Y-134756211D01*
X123078460Y-134761912D01*
X123049415Y-134768454D01*
X123021398Y-134775827D01*
X122994424Y-134784022D01*
X122968506Y-134793029D01*
X122943657Y-134802839D01*
X122919890Y-134813441D01*
X122897218Y-134824826D01*
X122875655Y-134836985D01*
X122855215Y-134849908D01*
X122835910Y-134863585D01*
X122817755Y-134878007D01*
X122800761Y-134893163D01*
X122784943Y-134909045D01*
X122770314Y-134925643D01*
X122756887Y-134942946D01*
X122744675Y-134960946D01*
X122733693Y-134979633D01*
X122723952Y-134998996D01*
X122715467Y-135019027D01*
X122708251Y-135039716D01*
X122702317Y-135061053D01*
X122697679Y-135083029D01*
X122694349Y-135105634D01*
X122692342Y-135128857D01*
X122691669Y-135152691D01*
X122692334Y-135176548D01*
X122694322Y-135199794D01*
X122697622Y-135222420D01*
X122702223Y-135244415D01*
X122708116Y-135265771D01*
X122715290Y-135286477D01*
X122723733Y-135306524D01*
X122733436Y-135325902D01*
X122744389Y-135344602D01*
X122756580Y-135362614D01*
X122769999Y-135379929D01*
X122784636Y-135396536D01*
X122800480Y-135412427D01*
X122817520Y-135427592D01*
X122835747Y-135442021D01*
X122855149Y-135455705D01*
X122897438Y-135480797D01*
X122944303Y-135502793D01*
X122995659Y-135521616D01*
X123051424Y-135537188D01*
X123111513Y-135549433D01*
X123175841Y-135558275D01*
X123244325Y-135563636D01*
X123316880Y-135565441D01*
X123361146Y-135564807D01*
X123404767Y-135562954D01*
X123447627Y-135559950D01*
X123489607Y-135555866D01*
X123530590Y-135550771D01*
X123570459Y-135544735D01*
X123609097Y-135537828D01*
X123646385Y-135530119D01*
X123682207Y-135521678D01*
X123716444Y-135512576D01*
X123748981Y-135502881D01*
X123779698Y-135492664D01*
X123808479Y-135481994D01*
X123835206Y-135470941D01*
X123859762Y-135459575D01*
X123882029Y-135447966D01*
X123882029Y-135690853D01*
X123850387Y-135704455D01*
X123818252Y-135717183D01*
X123785603Y-135729035D01*
X123752416Y-135740012D01*
X123718672Y-135750113D01*
X123684348Y-135759337D01*
X123649423Y-135767685D01*
X123613874Y-135775156D01*
X123577680Y-135781749D01*
X123540820Y-135787465D01*
X123503271Y-135792302D01*
X123465012Y-135796261D01*
X123426022Y-135799340D01*
X123386278Y-135801540D01*
X123345760Y-135802861D01*
X123304444Y-135803301D01*
X123252800Y-135802621D01*
X123202410Y-135800587D01*
X123153299Y-135797208D01*
X123105494Y-135792492D01*
X123059020Y-135786448D01*
X123013901Y-135779084D01*
X122970162Y-135770410D01*
X122927830Y-135760434D01*
X122886929Y-135749165D01*
X122847485Y-135736611D01*
X122809522Y-135722781D01*
X122773067Y-135707684D01*
X122738143Y-135691328D01*
X122704778Y-135673722D01*
X122672995Y-135654874D01*
X122642820Y-135634795D01*
X122614278Y-135613491D01*
X122587395Y-135590972D01*
X122562195Y-135567246D01*
X122538704Y-135542322D01*
X122516948Y-135516209D01*
X122496951Y-135488916D01*
X122478739Y-135460450D01*
X122462336Y-135430821D01*
X122447769Y-135400038D01*
X122435062Y-135368109D01*
X122424241Y-135335043D01*
X122415331Y-135300848D01*
X122408357Y-135265533D01*
X122403344Y-135229107D01*
X122400318Y-135191578D01*
X122399303Y-135152955D01*
X122399305Y-135152955D01*
X122400319Y-135114333D01*
X122403346Y-135076804D01*
X122408358Y-135040378D01*
X122415333Y-135005062D01*
X122424244Y-134970867D01*
X122435066Y-134937800D01*
X122447773Y-134905870D01*
X122462342Y-134875085D01*
X122478746Y-134845454D01*
X122496960Y-134816987D01*
X122516960Y-134789691D01*
X122538719Y-134763574D01*
X122562214Y-134738647D01*
X122587418Y-134714917D01*
X122614306Y-134692393D01*
X122642853Y-134671083D01*
X122673035Y-134650996D01*
X122704825Y-134632142D01*
X122738199Y-134614527D01*
X122773132Y-134598162D01*
X122847571Y-134569214D01*
X122927942Y-134545364D01*
X123014042Y-134526684D01*
X123105671Y-134513241D01*
X123202627Y-134505105D01*
X123304708Y-134502345D01*
X123346416Y-134502786D01*
D10*
G36*
X90559245Y-132429567D02*
G01*
X85055911Y-132429567D01*
X85055911Y-131724012D01*
X90559245Y-131724012D01*
X90559245Y-132429567D01*
G37*
X90559245Y-132429567D02*
X85055911Y-132429567D01*
X85055911Y-131724012D01*
X90559245Y-131724012D01*
X90559245Y-132429567D01*
D11*
G36*
X137781931Y-136155276D02*
G01*
X137792909Y-136171511D01*
X137805192Y-136189268D01*
X137817672Y-136206872D01*
X137830366Y-136224309D01*
X137843701Y-136242147D01*
X137857243Y-136259815D01*
X137870989Y-136277313D01*
X137884936Y-136294641D01*
X137895644Y-136307567D01*
X137906518Y-136320344D01*
X137917505Y-136333020D01*
X137928551Y-136345645D01*
X137920112Y-136359584D01*
X137911571Y-136373470D01*
X137903057Y-136387371D01*
X137894703Y-136401352D01*
X137827423Y-136518400D01*
X137761679Y-136636046D01*
X137729740Y-136695217D01*
X137698614Y-136754684D01*
X137668443Y-136814499D01*
X137639370Y-136874708D01*
X137611463Y-136935068D01*
X137584580Y-136995983D01*
X137559149Y-137057290D01*
X137535598Y-137118823D01*
X137514353Y-137180417D01*
X137504729Y-137211187D01*
X137495843Y-137241910D01*
X137487747Y-137272566D01*
X137480494Y-137303135D01*
X137474139Y-137333596D01*
X137468735Y-137363929D01*
X137467117Y-137378662D01*
X137465866Y-137393240D01*
X137465025Y-137407587D01*
X137464636Y-137421627D01*
X137464744Y-137435283D01*
X137464997Y-137441942D01*
X137465391Y-137448477D01*
X137465930Y-137454877D01*
X137466621Y-137461132D01*
X137467467Y-137467235D01*
X137468476Y-137473173D01*
X137469851Y-137478890D01*
X137471302Y-137484245D01*
X137472839Y-137489254D01*
X137474471Y-137493932D01*
X137476206Y-137498296D01*
X137478054Y-137502361D01*
X137479023Y-137504286D01*
X137480024Y-137506143D01*
X137481057Y-137507933D01*
X137482124Y-137509658D01*
X137483226Y-137511320D01*
X137484363Y-137512922D01*
X137485538Y-137514464D01*
X137486751Y-137515950D01*
X137488004Y-137517381D01*
X137489297Y-137518760D01*
X137490632Y-137520087D01*
X137492009Y-137521365D01*
X137493430Y-137522597D01*
X137494896Y-137523783D01*
X137496409Y-137524927D01*
X137497968Y-137526029D01*
X137501234Y-137528119D01*
X137504701Y-137530069D01*
X137508608Y-137531954D01*
X137512873Y-137533641D01*
X137517475Y-137535130D01*
X137522394Y-137536420D01*
X137527610Y-137537512D01*
X137533101Y-137538405D01*
X137538848Y-137539101D01*
X137544829Y-137539597D01*
X137551024Y-137539895D01*
X137557412Y-137539995D01*
X137563974Y-137539897D01*
X137570687Y-137539599D01*
X137577532Y-137539104D01*
X137584487Y-137538409D01*
X137591533Y-137537517D01*
X137598649Y-137536425D01*
X137613041Y-137533853D01*
X137627619Y-137530730D01*
X137642350Y-137527100D01*
X137657201Y-137523004D01*
X137672140Y-137518487D01*
X137687131Y-137513591D01*
X137702144Y-137508359D01*
X137717143Y-137502836D01*
X137747263Y-137490545D01*
X137777204Y-137477420D01*
X137806971Y-137463517D01*
X137836568Y-137448888D01*
X137866002Y-137433588D01*
X137895277Y-137417671D01*
X137953372Y-137384199D01*
X138010898Y-137348904D01*
X138067895Y-137312217D01*
X138124406Y-137274569D01*
X138180474Y-137236392D01*
X138235963Y-137196871D01*
X138291113Y-137156715D01*
X138345934Y-137115963D01*
X138400435Y-137074652D01*
X138508516Y-136990505D01*
X138615434Y-136904577D01*
X138568470Y-136954697D01*
X138521005Y-137004401D01*
X138472981Y-137053622D01*
X138424344Y-137102291D01*
X138375037Y-137150341D01*
X138325005Y-137197701D01*
X138274191Y-137244305D01*
X138222538Y-137290083D01*
X138196516Y-137312801D01*
X138170234Y-137335295D01*
X138143679Y-137357541D01*
X138116838Y-137379514D01*
X138089700Y-137401189D01*
X138062252Y-137422542D01*
X138034482Y-137443548D01*
X138006376Y-137464182D01*
X137977952Y-137484572D01*
X137949189Y-137504622D01*
X137920024Y-137524263D01*
X137890391Y-137543426D01*
X137860225Y-137562044D01*
X137829460Y-137580048D01*
X137798031Y-137597369D01*
X137765874Y-137613940D01*
X137749407Y-137621791D01*
X137732717Y-137629423D01*
X137715753Y-137636764D01*
X137698467Y-137643742D01*
X137680809Y-137650286D01*
X137662729Y-137656324D01*
X137644178Y-137661785D01*
X137634711Y-137664277D01*
X137625107Y-137666598D01*
X137605664Y-137670659D01*
X137585450Y-137674078D01*
X137575063Y-137675440D01*
X137564492Y-137676512D01*
X137553741Y-137677252D01*
X137542814Y-137677616D01*
X137531712Y-137677561D01*
X137520441Y-137677045D01*
X137509002Y-137676024D01*
X137497399Y-137674456D01*
X137485635Y-137672297D01*
X137473713Y-137669504D01*
X137461636Y-137666034D01*
X137449407Y-137661844D01*
X137443392Y-137659362D01*
X137437447Y-137656681D01*
X137431571Y-137653799D01*
X137425760Y-137650719D01*
X137420011Y-137647440D01*
X137414321Y-137643963D01*
X137408687Y-137640290D01*
X137403105Y-137636419D01*
X137398072Y-137632168D01*
X137393096Y-137627765D01*
X137388183Y-137623231D01*
X137383338Y-137618588D01*
X137378568Y-137613858D01*
X137373878Y-137609063D01*
X137369274Y-137604226D01*
X137364761Y-137599367D01*
X137357636Y-137588763D01*
X137354117Y-137583405D01*
X137350653Y-137578016D01*
X137347263Y-137572603D01*
X137343967Y-137567170D01*
X137340784Y-137561724D01*
X137337735Y-137556269D01*
X137335478Y-137550887D01*
X137333271Y-137545462D01*
X137328988Y-137534505D01*
X137324853Y-137523449D01*
X137320836Y-137512344D01*
X137318083Y-137501532D01*
X137315664Y-137490821D01*
X137313561Y-137480207D01*
X137311757Y-137469688D01*
X137310233Y-137459258D01*
X137308971Y-137448914D01*
X137307953Y-137438652D01*
X137307161Y-137428469D01*
X137306182Y-137408322D01*
X137305889Y-137388441D01*
X137306136Y-137368796D01*
X137306780Y-137349357D01*
X137310235Y-137311519D01*
X137314970Y-137274365D01*
X137320877Y-137237832D01*
X137327847Y-137201856D01*
X137335772Y-137166377D01*
X137344544Y-137131332D01*
X137354054Y-137096658D01*
X137364193Y-137062294D01*
X137374789Y-137028230D01*
X137385907Y-136994478D01*
X137397497Y-136961003D01*
X137409508Y-136927773D01*
X137421892Y-136894754D01*
X137434597Y-136861911D01*
X137460776Y-136796625D01*
X137496042Y-136713379D01*
X137532914Y-136631093D01*
X137571266Y-136549697D01*
X137610972Y-136469120D01*
X137651905Y-136389294D01*
X137693939Y-136310147D01*
X137736949Y-136231611D01*
X137780789Y-136153650D01*
X137781931Y-136155276D01*
G37*
X137781931Y-136155276D02*
X137792909Y-136171511D01*
X137805192Y-136189268D01*
X137817672Y-136206872D01*
X137830366Y-136224309D01*
X137843701Y-136242147D01*
X137857243Y-136259815D01*
X137870989Y-136277313D01*
X137884936Y-136294641D01*
X137895644Y-136307567D01*
X137906518Y-136320344D01*
X137917505Y-136333020D01*
X137928551Y-136345645D01*
X137920112Y-136359584D01*
X137911571Y-136373470D01*
X137903057Y-136387371D01*
X137894703Y-136401352D01*
X137827423Y-136518400D01*
X137761679Y-136636046D01*
X137729740Y-136695217D01*
X137698614Y-136754684D01*
X137668443Y-136814499D01*
X137639370Y-136874708D01*
X137611463Y-136935068D01*
X137584580Y-136995983D01*
X137559149Y-137057290D01*
X137535598Y-137118823D01*
X137514353Y-137180417D01*
X137504729Y-137211187D01*
X137495843Y-137241910D01*
X137487747Y-137272566D01*
X137480494Y-137303135D01*
X137474139Y-137333596D01*
X137468735Y-137363929D01*
X137467117Y-137378662D01*
X137465866Y-137393240D01*
X137465025Y-137407587D01*
X137464636Y-137421627D01*
X137464744Y-137435283D01*
X137464997Y-137441942D01*
X137465391Y-137448477D01*
X137465930Y-137454877D01*
X137466621Y-137461132D01*
X137467467Y-137467235D01*
X137468476Y-137473173D01*
X137469851Y-137478890D01*
X137471302Y-137484245D01*
X137472839Y-137489254D01*
X137474471Y-137493932D01*
X137476206Y-137498296D01*
X137478054Y-137502361D01*
X137479023Y-137504286D01*
X137480024Y-137506143D01*
X137481057Y-137507933D01*
X137482124Y-137509658D01*
X137483226Y-137511320D01*
X137484363Y-137512922D01*
X137485538Y-137514464D01*
X137486751Y-137515950D01*
X137488004Y-137517381D01*
X137489297Y-137518760D01*
X137490632Y-137520087D01*
X137492009Y-137521365D01*
X137493430Y-137522597D01*
X137494896Y-137523783D01*
X137496409Y-137524927D01*
X137497968Y-137526029D01*
X137501234Y-137528119D01*
X137504701Y-137530069D01*
X137508608Y-137531954D01*
X137512873Y-137533641D01*
X137517475Y-137535130D01*
X137522394Y-137536420D01*
X137527610Y-137537512D01*
X137533101Y-137538405D01*
X137538848Y-137539101D01*
X137544829Y-137539597D01*
X137551024Y-137539895D01*
X137557412Y-137539995D01*
X137563974Y-137539897D01*
X137570687Y-137539599D01*
X137577532Y-137539104D01*
X137584487Y-137538409D01*
X137591533Y-137537517D01*
X137598649Y-137536425D01*
X137613041Y-137533853D01*
X137627619Y-137530730D01*
X137642350Y-137527100D01*
X137657201Y-137523004D01*
X137672140Y-137518487D01*
X137687131Y-137513591D01*
X137702144Y-137508359D01*
X137717143Y-137502836D01*
X137747263Y-137490545D01*
X137777204Y-137477420D01*
X137806971Y-137463517D01*
X137836568Y-137448888D01*
X137866002Y-137433588D01*
X137895277Y-137417671D01*
X137953372Y-137384199D01*
X138010898Y-137348904D01*
X138067895Y-137312217D01*
X138124406Y-137274569D01*
X138180474Y-137236392D01*
X138235963Y-137196871D01*
X138291113Y-137156715D01*
X138345934Y-137115963D01*
X138400435Y-137074652D01*
X138508516Y-136990505D01*
X138615434Y-136904577D01*
X138568470Y-136954697D01*
X138521005Y-137004401D01*
X138472981Y-137053622D01*
X138424344Y-137102291D01*
X138375037Y-137150341D01*
X138325005Y-137197701D01*
X138274191Y-137244305D01*
X138222538Y-137290083D01*
X138196516Y-137312801D01*
X138170234Y-137335295D01*
X138143679Y-137357541D01*
X138116838Y-137379514D01*
X138089700Y-137401189D01*
X138062252Y-137422542D01*
X138034482Y-137443548D01*
X138006376Y-137464182D01*
X137977952Y-137484572D01*
X137949189Y-137504622D01*
X137920024Y-137524263D01*
X137890391Y-137543426D01*
X137860225Y-137562044D01*
X137829460Y-137580048D01*
X137798031Y-137597369D01*
X137765874Y-137613940D01*
X137749407Y-137621791D01*
X137732717Y-137629423D01*
X137715753Y-137636764D01*
X137698467Y-137643742D01*
X137680809Y-137650286D01*
X137662729Y-137656324D01*
X137644178Y-137661785D01*
X137634711Y-137664277D01*
X137625107Y-137666598D01*
X137605664Y-137670659D01*
X137585450Y-137674078D01*
X137575063Y-137675440D01*
X137564492Y-137676512D01*
X137553741Y-137677252D01*
X137542814Y-137677616D01*
X137531712Y-137677561D01*
X137520441Y-137677045D01*
X137509002Y-137676024D01*
X137497399Y-137674456D01*
X137485635Y-137672297D01*
X137473713Y-137669504D01*
X137461636Y-137666034D01*
X137449407Y-137661844D01*
X137443392Y-137659362D01*
X137437447Y-137656681D01*
X137431571Y-137653799D01*
X137425760Y-137650719D01*
X137420011Y-137647440D01*
X137414321Y-137643963D01*
X137408687Y-137640290D01*
X137403105Y-137636419D01*
X137398072Y-137632168D01*
X137393096Y-137627765D01*
X137388183Y-137623231D01*
X137383338Y-137618588D01*
X137378568Y-137613858D01*
X137373878Y-137609063D01*
X137369274Y-137604226D01*
X137364761Y-137599367D01*
X137357636Y-137588763D01*
X137354117Y-137583405D01*
X137350653Y-137578016D01*
X137347263Y-137572603D01*
X137343967Y-137567170D01*
X137340784Y-137561724D01*
X137337735Y-137556269D01*
X137335478Y-137550887D01*
X137333271Y-137545462D01*
X137328988Y-137534505D01*
X137324853Y-137523449D01*
X137320836Y-137512344D01*
X137318083Y-137501532D01*
X137315664Y-137490821D01*
X137313561Y-137480207D01*
X137311757Y-137469688D01*
X137310233Y-137459258D01*
X137308971Y-137448914D01*
X137307953Y-137438652D01*
X137307161Y-137428469D01*
X137306182Y-137408322D01*
X137305889Y-137388441D01*
X137306136Y-137368796D01*
X137306780Y-137349357D01*
X137310235Y-137311519D01*
X137314970Y-137274365D01*
X137320877Y-137237832D01*
X137327847Y-137201856D01*
X137335772Y-137166377D01*
X137344544Y-137131332D01*
X137354054Y-137096658D01*
X137364193Y-137062294D01*
X137374789Y-137028230D01*
X137385907Y-136994478D01*
X137397497Y-136961003D01*
X137409508Y-136927773D01*
X137421892Y-136894754D01*
X137434597Y-136861911D01*
X137460776Y-136796625D01*
X137496042Y-136713379D01*
X137532914Y-136631093D01*
X137571266Y-136549697D01*
X137610972Y-136469120D01*
X137651905Y-136389294D01*
X137693939Y-136310147D01*
X137736949Y-136231611D01*
X137780789Y-136153650D01*
X137781931Y-136155276D01*
D10*
G36*
X90559245Y-123972982D02*
G01*
X85055911Y-123972982D01*
X85055911Y-123247268D01*
X90559245Y-123247268D01*
X90559245Y-123972982D01*
G37*
X90559245Y-123972982D02*
X85055911Y-123972982D01*
X85055911Y-123247268D01*
X90559245Y-123247268D01*
X90559245Y-123972982D01*
D11*
G36*
X136494828Y-134734559D02*
G01*
X135499464Y-134734559D01*
X135499464Y-135039624D01*
X136314912Y-135039624D01*
X136314912Y-135237268D01*
X135499464Y-135237268D01*
X135499464Y-135557149D01*
X136494828Y-135557149D01*
X136494828Y-135772255D01*
X135226942Y-135772255D01*
X135226942Y-134516807D01*
X136494828Y-134516807D01*
X136494828Y-134734559D01*
G37*
X136494828Y-134734559D02*
X135499464Y-134734559D01*
X135499464Y-135039624D01*
X136314912Y-135039624D01*
X136314912Y-135237268D01*
X135499464Y-135237268D01*
X135499464Y-135557149D01*
X136494828Y-135557149D01*
X136494828Y-135772255D01*
X135226942Y-135772255D01*
X135226942Y-134516807D01*
X136494828Y-134516807D01*
X136494828Y-134734559D01*
G36*
X122356706Y-135778166D02*
G01*
X122051641Y-135778166D01*
X121911412Y-135565441D01*
X121225613Y-135565441D01*
X121371926Y-135342926D01*
X121766421Y-135342926D01*
X121486491Y-134915360D01*
X120921342Y-135778166D01*
X120616012Y-135778166D01*
X121486491Y-134502609D01*
X122356706Y-135778166D01*
G37*
X122356706Y-135778166D02*
X122051641Y-135778166D01*
X121911412Y-135565441D01*
X121225613Y-135565441D01*
X121371926Y-135342926D01*
X121766421Y-135342926D01*
X121486491Y-134915360D01*
X120921342Y-135778166D01*
X120616012Y-135778166D01*
X121486491Y-134502609D01*
X122356706Y-135778166D01*
G36*
X139207026Y-134567304D02*
G01*
X139117231Y-134677555D01*
X139028245Y-134788481D01*
X138940000Y-134900000D01*
X138852429Y-135012023D01*
X138534466Y-135012023D01*
X138534726Y-135009692D01*
X138572891Y-134958025D01*
X138611197Y-134906457D01*
X138755553Y-134720854D01*
X138828860Y-134628915D01*
X138902932Y-134537573D01*
X138977776Y-134446847D01*
X139053401Y-134356754D01*
X139129815Y-134267314D01*
X139207026Y-134178543D01*
X139207026Y-134567304D01*
G37*
X139207026Y-134567304D02*
X139117231Y-134677555D01*
X139028245Y-134788481D01*
X138940000Y-134900000D01*
X138852429Y-135012023D01*
X138534466Y-135012023D01*
X138534726Y-135009692D01*
X138572891Y-134958025D01*
X138611197Y-134906457D01*
X138755553Y-134720854D01*
X138828860Y-134628915D01*
X138902932Y-134537573D01*
X138977776Y-134446847D01*
X139053401Y-134356754D01*
X139129815Y-134267314D01*
X139207026Y-134178543D01*
X139207026Y-134567304D01*
D10*
G36*
X90559245Y-137509570D02*
G01*
X85055911Y-137509570D01*
X85055911Y-136804014D01*
X90559245Y-136804014D01*
X90559245Y-137509570D01*
G37*
X90559245Y-137509570D02*
X85055911Y-137509570D01*
X85055911Y-136804014D01*
X90559245Y-136804014D01*
X90559245Y-137509570D01*
D11*
G36*
X125493076Y-134740205D02*
G01*
X124497713Y-134740205D01*
X124497713Y-135045270D01*
X125312894Y-135045270D01*
X125312894Y-135242914D01*
X124497713Y-135242914D01*
X124497713Y-135563059D01*
X125493076Y-135563059D01*
X125493076Y-135778166D01*
X124224929Y-135778166D01*
X124224929Y-134522718D01*
X125493076Y-134522718D01*
X125493076Y-134740205D01*
G37*
X125493076Y-134740205D02*
X124497713Y-134740205D01*
X124497713Y-135045270D01*
X125312894Y-135045270D01*
X125312894Y-135242914D01*
X124497713Y-135242914D01*
X124497713Y-135563059D01*
X125493076Y-135563059D01*
X125493076Y-135778166D01*
X124224929Y-135778166D01*
X124224929Y-134522718D01*
X125493076Y-134522718D01*
X125493076Y-134740205D01*
D10*
G36*
X107117888Y-136306011D02*
G01*
X103691454Y-136306011D01*
X103691454Y-135704451D01*
X107117888Y-135704451D01*
X107117888Y-136306011D01*
G37*
X107117888Y-136306011D02*
X103691454Y-136306011D01*
X103691454Y-135704451D01*
X107117888Y-135704451D01*
X107117888Y-136306011D01*
D12*
X84250000Y-122880000D02*
X151660000Y-122880000D01*
X151660000Y-122880000D02*
X151660000Y-139090000D01*
X151660000Y-139090000D02*
X84250000Y-139090000D01*
X84250000Y-139090000D02*
X84250000Y-122880000D01*
D14*
G36*
X97793677Y-128605980D02*
G01*
X97969532Y-127547920D01*
X98033669Y-127565357D01*
X98095897Y-127584694D01*
X98156217Y-127605931D01*
X98214630Y-127629070D01*
X98271134Y-127654108D01*
X98325730Y-127681048D01*
X98378417Y-127709887D01*
X98429197Y-127740628D01*
X98478068Y-127773268D01*
X98525032Y-127807810D01*
X98570087Y-127844251D01*
X98613234Y-127882594D01*
X98654473Y-127922837D01*
X98693804Y-127964980D01*
X98731226Y-128009024D01*
X98766741Y-128054968D01*
X98800339Y-128103080D01*
X98831770Y-128153627D01*
X98861034Y-128206609D01*
X98888129Y-128262025D01*
X98913057Y-128319876D01*
X98935818Y-128380162D01*
X98956410Y-128442883D01*
X98974836Y-128508039D01*
X98991093Y-128575629D01*
X99005183Y-128645654D01*
X99017105Y-128718114D01*
X99026859Y-128793009D01*
X99034446Y-128870338D01*
X99037427Y-128909916D01*
X99039865Y-128950103D01*
X99041762Y-128990898D01*
X99043117Y-129032302D01*
X99043930Y-129074315D01*
X99044200Y-129116936D01*
X99043922Y-129165846D01*
X99043086Y-129213900D01*
X99041693Y-129261100D01*
X99039743Y-129307445D01*
X99037236Y-129352936D01*
X99034171Y-129397571D01*
X99030550Y-129441352D01*
X99026371Y-129484277D01*
X99021635Y-129526348D01*
X99016342Y-129567564D01*
X99010491Y-129607925D01*
X99004084Y-129647431D01*
X98997119Y-129686083D01*
X98981518Y-129760821D01*
X98963688Y-129832140D01*
X98943630Y-129900040D01*
X98921343Y-129964520D01*
X98896827Y-130025580D01*
X98870082Y-130083222D01*
X98841109Y-130137444D01*
X98809907Y-130188246D01*
X98776476Y-130235629D01*
X98758925Y-130258039D01*
X98722811Y-130300628D01*
X98685545Y-130340471D01*
X98647126Y-130377565D01*
X98607555Y-130411912D01*
X98566832Y-130443510D01*
X98524955Y-130472362D01*
X98481927Y-130498465D01*
X98437745Y-130521821D01*
X98392412Y-130542429D01*
X98345925Y-130560289D01*
X98298287Y-130575402D01*
X98249495Y-130587766D01*
X98199551Y-130597383D01*
X98148455Y-130604253D01*
X98096206Y-130608374D01*
X98042805Y-130609748D01*
X97995956Y-130608486D01*
X97949931Y-130604699D01*
X97904731Y-130598388D01*
X97860355Y-130589552D01*
X97816804Y-130578192D01*
X97774077Y-130564308D01*
X97732174Y-130547899D01*
X97691095Y-130528965D01*
X97650841Y-130507507D01*
X97611411Y-130483524D01*
X97585582Y-130466133D01*
X97547560Y-130438109D01*
X97510432Y-130407527D01*
X97474196Y-130374385D01*
X97438853Y-130338685D01*
X97404404Y-130300425D01*
X97370847Y-130259607D01*
X97338183Y-130216230D01*
X97306413Y-130170294D01*
X97275535Y-130121800D01*
X97255446Y-130088048D01*
X97235754Y-130053160D01*
X97226057Y-130035289D01*
X97214903Y-130078099D01*
X97203422Y-130118969D01*
X97191616Y-130157898D01*
X97175366Y-130206785D01*
X97158536Y-130252222D01*
X97141126Y-130294208D01*
X97123136Y-130332745D01*
X97104566Y-130367832D01*
X97090258Y-130391884D01*
X97066115Y-130428655D01*
X97040581Y-130463863D01*
X97013656Y-130497508D01*
X96985340Y-130529591D01*
X96955633Y-130560111D01*
X96924535Y-130589068D01*
X96892046Y-130616462D01*
X96858166Y-130642294D01*
X96822895Y-130666562D01*
X96786233Y-130689268D01*
X96761018Y-130703538D01*
X96722221Y-130723441D01*
X96682032Y-130741388D01*
X96640453Y-130757376D01*
X96597482Y-130771407D01*
X96553121Y-130783479D01*
X96507368Y-130793594D01*
X96460225Y-130801752D01*
X96411690Y-130807951D01*
X96361764Y-130812193D01*
X96310448Y-130814477D01*
X96275464Y-130814912D01*
X96231244Y-130814191D01*
X96187246Y-130812027D01*
X96143469Y-130808421D01*
X96099914Y-130803372D01*
X96056580Y-130796880D01*
X96013467Y-130788946D01*
X95970576Y-130779570D01*
X95927906Y-130768750D01*
X95885457Y-130756489D01*
X95843230Y-130742784D01*
X95801224Y-130727637D01*
X95759439Y-130711048D01*
X95717876Y-130693016D01*
X95676534Y-130673541D01*
X95635414Y-130652624D01*
X95594515Y-130630265D01*
X95554432Y-130606672D01*
X95515517Y-130581813D01*
X95477770Y-130555687D01*
X95441191Y-130528293D01*
X95405780Y-130499633D01*
X95371536Y-130469706D01*
X95338460Y-130438511D01*
X95306552Y-130406050D01*
X95275812Y-130372321D01*
X95246239Y-130337326D01*
X95217835Y-130301063D01*
X95190598Y-130263534D01*
X95164529Y-130224738D01*
X95139627Y-130184674D01*
X95115894Y-130143344D01*
X95093328Y-130100746D01*
X95072033Y-130056664D01*
X95052112Y-130010880D01*
X95033565Y-129963394D01*
X95016392Y-129914206D01*
X95000592Y-129863315D01*
X94986167Y-129810723D01*
X94973115Y-129756429D01*
X94961437Y-129700432D01*
X94951133Y-129642734D01*
X94942203Y-129583333D01*
X94934647Y-129522230D01*
X94928464Y-129459426D01*
X94923656Y-129394919D01*
X94920221Y-129328710D01*
X94918160Y-129260799D01*
X94917473Y-129191186D01*
X94917973Y-129123458D01*
X94919473Y-129057539D01*
X94921973Y-128993429D01*
X94925472Y-128931128D01*
X94929972Y-128870636D01*
X94935471Y-128811953D01*
X94941970Y-128755079D01*
X94949469Y-128700013D01*
X94957968Y-128646757D01*
X94967467Y-128595310D01*
X94977965Y-128545671D01*
X94989464Y-128497841D01*
X95001962Y-128451821D01*
X95015461Y-128407609D01*
X95029959Y-128365206D01*
X95045457Y-128324612D01*
X95062038Y-128285362D01*
X95079544Y-128246989D01*
X95097973Y-128209494D01*
X95117325Y-128172876D01*
X95137601Y-128137137D01*
X95158801Y-128102275D01*
X95180924Y-128068291D01*
X95203970Y-128035184D01*
X95227940Y-128002956D01*
X95252834Y-127971605D01*
X95278651Y-127941132D01*
X95305392Y-127911536D01*
X95333056Y-127882819D01*
X95361644Y-127854979D01*
X95391156Y-127828017D01*
X95421591Y-127801933D01*
X95453102Y-127776779D01*
X95485597Y-127752366D01*
X95519078Y-127728694D01*
X95553543Y-127705762D01*
X95588992Y-127683570D01*
X95625426Y-127662119D01*
X95662845Y-127641408D01*
X95701249Y-127621437D01*
X95740637Y-127602207D01*
X95781009Y-127583717D01*
X95822366Y-127565967D01*
X95864708Y-127548958D01*
X95908035Y-127532689D01*
X95952346Y-127517161D01*
X95997641Y-127502372D01*
X96043921Y-127488325D01*
X96167997Y-128605980D01*
X96116577Y-128618897D01*
X96068197Y-128633102D01*
X96022856Y-128648596D01*
X95980556Y-128665377D01*
X95941295Y-128683446D01*
X95905073Y-128702803D01*
X95871891Y-128723448D01*
X95832377Y-128752979D01*
X95798267Y-128784799D01*
X95776231Y-128810167D01*
X95750815Y-128846254D01*
X95728787Y-128884661D01*
X95710148Y-128925389D01*
X95694898Y-128968436D01*
X95683037Y-129013804D01*
X95674565Y-129061493D01*
X95669482Y-129111502D01*
X95667787Y-129163831D01*
X95669153Y-129205301D01*
X95673248Y-129245450D01*
X95680075Y-129284276D01*
X95693424Y-129333987D01*
X95711628Y-129381347D01*
X95734686Y-129426356D01*
X95762598Y-129469015D01*
X95795365Y-129509323D01*
X95823126Y-129538011D01*
X95853337Y-129564898D01*
X95885350Y-129589141D01*
X95919168Y-129610740D01*
X95954788Y-129629693D01*
X95992212Y-129646002D01*
X96031438Y-129659667D01*
X96072468Y-129670686D01*
X96115301Y-129679061D01*
X96159938Y-129684791D01*
X96206377Y-129687877D01*
X96238339Y-129688464D01*
X96286925Y-129687193D01*
X96333399Y-129683381D01*
X96377760Y-129677027D01*
X96420010Y-129668131D01*
X96460146Y-129656694D01*
X96498171Y-129642715D01*
X96534083Y-129626194D01*
X96578681Y-129600212D01*
X96619523Y-129569713D01*
X96647690Y-129543872D01*
X96681807Y-129506351D01*
X96711376Y-129465593D01*
X96736396Y-129421598D01*
X96756866Y-129374368D01*
X96769234Y-129336821D01*
X96779043Y-129297454D01*
X96786293Y-129256267D01*
X96790984Y-129213259D01*
X96793116Y-129168431D01*
X96793258Y-129153084D01*
X96791732Y-129109459D01*
X96787152Y-129061016D01*
X96781290Y-129018792D01*
X96773475Y-128973485D01*
X96763705Y-128925095D01*
X96755095Y-128886778D01*
X96745387Y-128846727D01*
X96734579Y-128804942D01*
X96730732Y-128790628D01*
X97555296Y-128848269D01*
X97550728Y-128887291D01*
X97546881Y-128926966D01*
X97544133Y-128969174D01*
X97543572Y-128993838D01*
X97544629Y-129034410D01*
X97547797Y-129073694D01*
X97555308Y-129124069D01*
X97566573Y-129172154D01*
X97581594Y-129217949D01*
X97600370Y-129261455D01*
X97622902Y-129302671D01*
X97649188Y-129341597D01*
X97663740Y-129360202D01*
X97694469Y-129394778D01*
X97726571Y-129424743D01*
X97760048Y-129450099D01*
X97794898Y-129470844D01*
X97831123Y-129486979D01*
X97868721Y-129498504D01*
X97907693Y-129505420D01*
X97948039Y-129507725D01*
X97995642Y-129505029D01*
X98040145Y-129496944D01*
X98081547Y-129483467D01*
X98119848Y-129464600D01*
X98155049Y-129440343D01*
X98187149Y-129410695D01*
X98199120Y-129397327D01*
X98226421Y-129361105D01*
X98249095Y-129320829D01*
X98267141Y-129276498D01*
X98278246Y-129238114D01*
X98286390Y-129197134D01*
X98291573Y-129153560D01*
X98293794Y-129107390D01*
X98293886Y-129095443D01*
X98292146Y-129047021D01*
X98286926Y-129000921D01*
X98278224Y-128957140D01*
X98266043Y-128915680D01*
X98250381Y-128876540D01*
X98231238Y-128839720D01*
X98208615Y-128805221D01*
X98182512Y-128773042D01*
X98152287Y-128743504D01*
X98116810Y-128716439D01*
X98076083Y-128691847D01*
X98030104Y-128669727D01*
X97992174Y-128654761D01*
X97951290Y-128641185D01*
X97907452Y-128629001D01*
X97860661Y-128618207D01*
X97810915Y-128608805D01*
X97793677Y-128605980D01*
G37*
G36*
X97067853Y-131252999D02*
G01*
X97136927Y-131254210D01*
X97204667Y-131256228D01*
X97271074Y-131259053D01*
X97336146Y-131262685D01*
X97399885Y-131267124D01*
X97462290Y-131272371D01*
X97523361Y-131278424D01*
X97583099Y-131285285D01*
X97641502Y-131292953D01*
X97698572Y-131301428D01*
X97754308Y-131310710D01*
X97808710Y-131320799D01*
X97861779Y-131331696D01*
X97913514Y-131343399D01*
X97963914Y-131355910D01*
X98012981Y-131369228D01*
X98060715Y-131383353D01*
X98107114Y-131398285D01*
X98152180Y-131414025D01*
X98195912Y-131430571D01*
X98238310Y-131447925D01*
X98279374Y-131466086D01*
X98319105Y-131485054D01*
X98357501Y-131504829D01*
X98394564Y-131525411D01*
X98430293Y-131546800D01*
X98464689Y-131568997D01*
X98497750Y-131592000D01*
X98529478Y-131615811D01*
X98559872Y-131640429D01*
X98588932Y-131665854D01*
X98644062Y-131719321D01*
X98695635Y-131776161D01*
X98743652Y-131836374D01*
X98788112Y-131899961D01*
X98809008Y-131933020D01*
X98829015Y-131966922D01*
X98848133Y-132001667D01*
X98866361Y-132037256D01*
X98883700Y-132073688D01*
X98900151Y-132110964D01*
X98915712Y-132149083D01*
X98930383Y-132188046D01*
X98944166Y-132227851D01*
X98957059Y-132268501D01*
X98969063Y-132309993D01*
X98980178Y-132352329D01*
X98990404Y-132395509D01*
X98999741Y-132439532D01*
X99008188Y-132484398D01*
X99015746Y-132530108D01*
X99022415Y-132576661D01*
X99028195Y-132624057D01*
X99033086Y-132672297D01*
X99037087Y-132721380D01*
X99040199Y-132771307D01*
X99042422Y-132822077D01*
X99043756Y-132873691D01*
X99044200Y-132926147D01*
X99043811Y-132976381D01*
X99042643Y-133025478D01*
X99040697Y-133073437D01*
X99037972Y-133120259D01*
X99034469Y-133165944D01*
X99030187Y-133210492D01*
X99025127Y-133253902D01*
X99019288Y-133296175D01*
X99012670Y-133337311D01*
X99005274Y-133377310D01*
X98997100Y-133416171D01*
X98983378Y-133472331D01*
X98967905Y-133525932D01*
X98950680Y-133576974D01*
X98944549Y-133593419D01*
X98925516Y-133641653D01*
X98905417Y-133688170D01*
X98884254Y-133732969D01*
X98862026Y-133776051D01*
X98838733Y-133817416D01*
X98814376Y-133857064D01*
X98788953Y-133894994D01*
X98762466Y-133931207D01*
X98734915Y-133965702D01*
X98706298Y-133998480D01*
X98686629Y-134019378D01*
X98656624Y-134049718D01*
X98626328Y-134078821D01*
X98595739Y-134106688D01*
X98564859Y-134133318D01*
X98533686Y-134158711D01*
X98502222Y-134182868D01*
X98470465Y-134205789D01*
X98427670Y-134234427D01*
X98384355Y-134260866D01*
X98351528Y-134279253D01*
X98306663Y-134302593D01*
X98259998Y-134324743D01*
X98223816Y-134340574D01*
X98186622Y-134355735D01*
X98148414Y-134370227D01*
X98109193Y-134384048D01*
X98068959Y-134397200D01*
X98027711Y-134409682D01*
X97985451Y-134421495D01*
X97942177Y-134432637D01*
X97886218Y-134446242D01*
X97829962Y-134458970D01*
X97773409Y-134470819D01*
X97716557Y-134481791D01*
X97659408Y-134491885D01*
X97601962Y-134501102D01*
X97544217Y-134509440D01*
X97486175Y-134516901D01*
X97427836Y-134523484D01*
X97369198Y-134529190D01*
X97310263Y-134534017D01*
X97251031Y-134537967D01*
X97191500Y-134541039D01*
X97131672Y-134543234D01*
X97071546Y-134544550D01*
X97011123Y-134544989D01*
X96943792Y-134544626D01*
X96877599Y-134543539D01*
X96812542Y-134541726D01*
X96748623Y-134539188D01*
X96685841Y-134535925D01*
X96624197Y-134531937D01*
X96563689Y-134527224D01*
X96504319Y-134521786D01*
X96446086Y-134515623D01*
X96388991Y-134508734D01*
X96333032Y-134501121D01*
X96278211Y-134492782D01*
X96224527Y-134483718D01*
X96171981Y-134473930D01*
X96120572Y-134463416D01*
X96070300Y-134452177D01*
X96021165Y-134440213D01*
X95973167Y-134427523D01*
X95926307Y-134414109D01*
X95880584Y-134399970D01*
X95835998Y-134385105D01*
X95792550Y-134369516D01*
X95750238Y-134353201D01*
X95709064Y-134336161D01*
X95669028Y-134318397D01*
X95630128Y-134299907D01*
X95592366Y-134280692D01*
X95555741Y-134260751D01*
X95520253Y-134240086D01*
X95485903Y-134218696D01*
X95452690Y-134196580D01*
X95420614Y-134173740D01*
X95359686Y-134125242D01*
X95302690Y-134072562D01*
X95249625Y-134015700D01*
X95224566Y-133985700D01*
X95200490Y-133954654D01*
X95177396Y-133922563D01*
X95155286Y-133889426D01*
X95134158Y-133855243D01*
X95114012Y-133820015D01*
X95094850Y-133783741D01*
X95076670Y-133746422D01*
X95059473Y-133708057D01*
X95043258Y-133668646D01*
X95028027Y-133628189D01*
X95013778Y-133586687D01*
X95000511Y-133544139D01*
X94988227Y-133500546D01*
X94976926Y-133455906D01*
X94966608Y-133410221D01*
X94957273Y-133363491D01*
X94948920Y-133315715D01*
X94941549Y-133266893D01*
X94935162Y-133217025D01*
X94929757Y-133166112D01*
X94925335Y-133114153D01*
X94921895Y-133061149D01*
X94919439Y-133007099D01*
X94917965Y-132952003D01*
X94917473Y-132895861D01*
X94917492Y-132893907D01*
X95667787Y-132893907D01*
X95669634Y-132935703D01*
X95675176Y-132976095D01*
X95684411Y-133015082D01*
X95697341Y-133052665D01*
X95713965Y-133088844D01*
X95734282Y-133123618D01*
X95758295Y-133156987D01*
X95786001Y-133188953D01*
X95817691Y-133219178D01*
X95853656Y-133247327D01*
X95893895Y-133273400D01*
X95938408Y-133297397D01*
X95974598Y-133314032D01*
X96013193Y-133329499D01*
X96054191Y-133343799D01*
X96097594Y-133356931D01*
X96143401Y-133368895D01*
X96159204Y-133372623D01*
X96209530Y-133383274D01*
X96264889Y-133392876D01*
X96304590Y-133398696D01*
X96346527Y-133404051D01*
X96390700Y-133408939D01*
X96437110Y-133413362D01*
X96485757Y-133417320D01*
X96536639Y-133420812D01*
X96589758Y-133423838D01*
X96645114Y-133426399D01*
X96702705Y-133428494D01*
X96762533Y-133430123D01*
X96824598Y-133431287D01*
X96888899Y-133431986D01*
X96955436Y-133432219D01*
X97004448Y-133432086D01*
X97052446Y-133431688D01*
X97099428Y-133431025D01*
X97145396Y-133430097D01*
X97190348Y-133428903D01*
X97234285Y-133427444D01*
X97277207Y-133425720D01*
X97319113Y-133423731D01*
X97360005Y-133421477D01*
X97399881Y-133418957D01*
X97476589Y-133413122D01*
X97549236Y-133406226D01*
X97617822Y-133398269D01*
X97682348Y-133389251D01*
X97742814Y-133379172D01*
X97799218Y-133368032D01*
X97851563Y-133355832D01*
X97899846Y-133342570D01*
X97944070Y-133328247D01*
X97984232Y-133312864D01*
X98020334Y-133296420D01*
X98069221Y-133269755D01*
X98113299Y-133240686D01*
X98152569Y-133209213D01*
X98187030Y-133175336D01*
X98216683Y-133139055D01*
X98241527Y-133100369D01*
X98261562Y-133059279D01*
X98276789Y-133015785D01*
X98287208Y-132969886D01*
X98292818Y-132921583D01*
X98293886Y-132888046D01*
X98291439Y-132837370D01*
X98284098Y-132789391D01*
X98271862Y-132744107D01*
X98254731Y-132701520D01*
X98232706Y-132661630D01*
X98205787Y-132624435D01*
X98173974Y-132589937D01*
X98137266Y-132558135D01*
X98095663Y-132529029D01*
X98049167Y-132502619D01*
X98015450Y-132486510D01*
X97978794Y-132471604D01*
X97938437Y-132457659D01*
X97894378Y-132444676D01*
X97846617Y-132432655D01*
X97795154Y-132421595D01*
X97739989Y-132411497D01*
X97681123Y-132402361D01*
X97618555Y-132394187D01*
X97552285Y-132386974D01*
X97482313Y-132380723D01*
X97408640Y-132375433D01*
X97331264Y-132371106D01*
X97291188Y-132369302D01*
X97250187Y-132367740D01*
X97208260Y-132366417D01*
X97165408Y-132365335D01*
X97121631Y-132364494D01*
X97076927Y-132363893D01*
X97031299Y-132363532D01*
X96984745Y-132363412D01*
X96937710Y-132363545D01*
X96891616Y-132363942D01*
X96846462Y-132364605D01*
X96802250Y-132365534D01*
X96758978Y-132366727D01*
X96716646Y-132368186D01*
X96675256Y-132369910D01*
X96634806Y-132371899D01*
X96595297Y-132374154D01*
X96519101Y-132379458D01*
X96446667Y-132385824D01*
X96377997Y-132393251D01*
X96313089Y-132401738D01*
X96251945Y-132411286D01*
X96194563Y-132421896D01*
X96140944Y-132433566D01*
X96091088Y-132446297D01*
X96044995Y-132460089D01*
X96002664Y-132474942D01*
X95964097Y-132490856D01*
X95946224Y-132499211D01*
X95896464Y-132525755D01*
X95851599Y-132554463D01*
X95811628Y-132585335D01*
X95776552Y-132618371D01*
X95746370Y-132653571D01*
X95721082Y-132690934D01*
X95700689Y-132730461D01*
X95685190Y-132772152D01*
X95674585Y-132816007D01*
X95668875Y-132862026D01*
X95667787Y-132893907D01*
X94917492Y-132893907D01*
X94918099Y-132833118D01*
X94919977Y-132771893D01*
X94923106Y-132712187D01*
X94927487Y-132654000D01*
X94933120Y-132597332D01*
X94940005Y-132542182D01*
X94948141Y-132488552D01*
X94957529Y-132436441D01*
X94968169Y-132385848D01*
X94980061Y-132336774D01*
X94993204Y-132289219D01*
X95007599Y-132243183D01*
X95023246Y-132198666D01*
X95040144Y-132155668D01*
X95058295Y-132114189D01*
X95077697Y-132074228D01*
X95098427Y-132035470D01*
X95120317Y-131997597D01*
X95143367Y-131960610D01*
X95167578Y-131924508D01*
X95192949Y-131889291D01*
X95219480Y-131854959D01*
X95247171Y-131821513D01*
X95276022Y-131788953D01*
X95306033Y-131757278D01*
X95337205Y-131726488D01*
X95369536Y-131696583D01*
X95403028Y-131667564D01*
X95437680Y-131639430D01*
X95473492Y-131612182D01*
X95510464Y-131585819D01*
X95548597Y-131560341D01*
X95591413Y-131533614D01*
X95637062Y-131508020D01*
X95685546Y-131483560D01*
X95736862Y-131460232D01*
X95791013Y-131438039D01*
X95828687Y-131423873D01*
X95867621Y-131410210D01*
X95907814Y-131397052D01*
X95949267Y-131384397D01*
X95991979Y-131372246D01*
X96035950Y-131360598D01*
X96081181Y-131349455D01*
X96127671Y-131338815D01*
X96151388Y-131333684D01*
X96199573Y-131323865D01*
X96248383Y-131314679D01*
X96297819Y-131306127D01*
X96347882Y-131298208D01*
X96398570Y-131290922D01*
X96449883Y-131284271D01*
X96501823Y-131278252D01*
X96554389Y-131272868D01*
X96607580Y-131268116D01*
X96661398Y-131263999D01*
X96715841Y-131260514D01*
X96770910Y-131257663D01*
X96826605Y-131255446D01*
X96882926Y-131253862D01*
X96939873Y-131252912D01*
X96997445Y-131252595D01*
X97067853Y-131252999D01*
G37*
G36*
X119717550Y-128569720D02*
G01*
X119720074Y-128496687D01*
X119727565Y-128424650D01*
X119739902Y-128353695D01*
X119756965Y-128283909D01*
X119778634Y-128215378D01*
X119804788Y-128148190D01*
X119835306Y-128082432D01*
X119870068Y-128018189D01*
X119908954Y-127955550D01*
X119951842Y-127894600D01*
X119998613Y-127835426D01*
X120049146Y-127778116D01*
X120103319Y-127722755D01*
X120161014Y-127669431D01*
X120222109Y-127618231D01*
X120286483Y-127569241D01*
X120354017Y-127522547D01*
X120424589Y-127478237D01*
X120498080Y-127436398D01*
X120574368Y-127397116D01*
X120653333Y-127360478D01*
X120734855Y-127326571D01*
X120818812Y-127295481D01*
X120905086Y-127267295D01*
X120993554Y-127242101D01*
X121084096Y-127219984D01*
X121176593Y-127201032D01*
X121270923Y-127185331D01*
X121366965Y-127172968D01*
X121464601Y-127164030D01*
X121563707Y-127158604D01*
X121664166Y-127156775D01*
X121730984Y-127157784D01*
X121797685Y-127160793D01*
X121864224Y-127165779D01*
X121930555Y-127172718D01*
X121996633Y-127181585D01*
X122062412Y-127192356D01*
X122127848Y-127205008D01*
X122192894Y-127219515D01*
X122257506Y-127235855D01*
X122321637Y-127254002D01*
X122385243Y-127273932D01*
X122448278Y-127295622D01*
X122510697Y-127319047D01*
X122572454Y-127344183D01*
X122633504Y-127371006D01*
X122693802Y-127399492D01*
X122753302Y-127429616D01*
X122811958Y-127461355D01*
X122869726Y-127494684D01*
X122926560Y-127529580D01*
X122982415Y-127566017D01*
X123037244Y-127603972D01*
X123091004Y-127643421D01*
X123143648Y-127684340D01*
X123195130Y-127726704D01*
X123245407Y-127770489D01*
X123294432Y-127815672D01*
X123342159Y-127862227D01*
X123388544Y-127910131D01*
X123433541Y-127959360D01*
X123477105Y-128009889D01*
X123519190Y-128061695D01*
X123519190Y-127023663D01*
X123470149Y-126990553D01*
X123420353Y-126958320D01*
X123369820Y-126926975D01*
X123318567Y-126896530D01*
X123266614Y-126866997D01*
X123213977Y-126838387D01*
X123160675Y-126810711D01*
X123106725Y-126783981D01*
X123052145Y-126758207D01*
X122996954Y-126733403D01*
X122941169Y-126709578D01*
X122884807Y-126686744D01*
X122827888Y-126664913D01*
X122770428Y-126644096D01*
X122712446Y-126624305D01*
X122653960Y-126605550D01*
X122594987Y-126587844D01*
X122535545Y-126571197D01*
X122475652Y-126555621D01*
X122415327Y-126541128D01*
X122354586Y-126527729D01*
X122293449Y-126515436D01*
X122231932Y-126504258D01*
X122170054Y-126494210D01*
X122107832Y-126485300D01*
X122045285Y-126477542D01*
X121982430Y-126470945D01*
X121919285Y-126465523D01*
X121855868Y-126461286D01*
X121792197Y-126458245D01*
X121728291Y-126456412D01*
X121664166Y-126455799D01*
X121522629Y-126458553D01*
X121382980Y-126466726D01*
X121245390Y-126480185D01*
X121110030Y-126498796D01*
X120977071Y-126522426D01*
X120846683Y-126550941D01*
X120719038Y-126584208D01*
X120594306Y-126622094D01*
X120472657Y-126664463D01*
X120354264Y-126711185D01*
X120239297Y-126762124D01*
X120127926Y-126817147D01*
X120020322Y-126876121D01*
X119916657Y-126938912D01*
X119817101Y-127005387D01*
X119721824Y-127075412D01*
X119630999Y-127148854D01*
X119544795Y-127225579D01*
X119463383Y-127305454D01*
X119386935Y-127388346D01*
X119315621Y-127474120D01*
X119249612Y-127562643D01*
X119189078Y-127653783D01*
X119134191Y-127747404D01*
X119085122Y-127843375D01*
X119042041Y-127941560D01*
X119005119Y-128041828D01*
X118974527Y-128144044D01*
X118950436Y-128248074D01*
X118933017Y-128353786D01*
X118922440Y-128461046D01*
X118918876Y-128569720D01*
X118922440Y-128678374D01*
X118933017Y-128785572D01*
X118950436Y-128891185D01*
X118974527Y-128995082D01*
X119005119Y-129097132D01*
X119042041Y-129197204D01*
X119085122Y-129295168D01*
X119134191Y-129390892D01*
X119189078Y-129484245D01*
X119249612Y-129575098D01*
X119315621Y-129663318D01*
X119386935Y-129748776D01*
X119463383Y-129831341D01*
X119544795Y-129910881D01*
X119630999Y-129987266D01*
X119721824Y-130060365D01*
X119817101Y-130130047D01*
X119916657Y-130196182D01*
X120020322Y-130258638D01*
X120127926Y-130317285D01*
X120239297Y-130371992D01*
X120354264Y-130422628D01*
X120472657Y-130469063D01*
X120594306Y-130511165D01*
X120719038Y-130548804D01*
X120846683Y-130581848D01*
X120977071Y-130610168D01*
X121110030Y-130633632D01*
X121245390Y-130652110D01*
X121382980Y-130665470D01*
X121522629Y-130673582D01*
X121664166Y-130676315D01*
X121728273Y-130675723D01*
X121792130Y-130673951D01*
X121855722Y-130671010D01*
X121919034Y-130666908D01*
X121982052Y-130661653D01*
X122044761Y-130655256D01*
X122107147Y-130647725D01*
X122169195Y-130639068D01*
X122230890Y-130629295D01*
X122292219Y-130618415D01*
X122353166Y-130606436D01*
X122413717Y-130593368D01*
X122473857Y-130579219D01*
X122533573Y-130563999D01*
X122592848Y-130547716D01*
X122651670Y-130530380D01*
X122710023Y-130511999D01*
X122767893Y-130492582D01*
X122825264Y-130472138D01*
X122882124Y-130450677D01*
X122938457Y-130428206D01*
X122994248Y-130404735D01*
X123049484Y-130380274D01*
X123104149Y-130354830D01*
X123158229Y-130328413D01*
X123211710Y-130301032D01*
X123264576Y-130272696D01*
X123316814Y-130243414D01*
X123368409Y-130213194D01*
X123419347Y-130182045D01*
X123469612Y-130149977D01*
X123519190Y-130116999D01*
X123519190Y-129086294D01*
X123476460Y-129137950D01*
X123432334Y-129188263D01*
X123386852Y-129237214D01*
X123340056Y-129284782D01*
X123291987Y-129330948D01*
X123242686Y-129375694D01*
X123192196Y-129418999D01*
X123140556Y-129460844D01*
X123087810Y-129501210D01*
X123033997Y-129540077D01*
X122979160Y-129577425D01*
X122923340Y-129613236D01*
X122866578Y-129647490D01*
X122808915Y-129680166D01*
X122750394Y-129711247D01*
X122691054Y-129740712D01*
X122630938Y-129768542D01*
X122570087Y-129794718D01*
X122508543Y-129819219D01*
X122446346Y-129842028D01*
X122383538Y-129863123D01*
X122320161Y-129882486D01*
X122256256Y-129900097D01*
X122191864Y-129915937D01*
X122127026Y-129929987D01*
X122061784Y-129942226D01*
X121996180Y-129952636D01*
X121930254Y-129961196D01*
X121864049Y-129967888D01*
X121797604Y-129972692D01*
X121730963Y-129975589D01*
X121664166Y-129976559D01*
X121563707Y-129974752D01*
X121464601Y-129969387D01*
X121366965Y-129960547D01*
X121270923Y-129948316D01*
X121176593Y-129932779D01*
X121084096Y-129914019D01*
X120993554Y-129892120D01*
X120905086Y-129867165D01*
X120818812Y-129839239D01*
X120734855Y-129808426D01*
X120653333Y-129774809D01*
X120574368Y-129738472D01*
X120498080Y-129699500D01*
X120424589Y-129657975D01*
X120354017Y-129613982D01*
X120286483Y-129567605D01*
X120222109Y-129518927D01*
X120161014Y-129468033D01*
X120103319Y-129415006D01*
X120049146Y-129359929D01*
X119998613Y-129302888D01*
X119951842Y-129243966D01*
X119908954Y-129183246D01*
X119870068Y-129120812D01*
X119835306Y-129056749D01*
X119804788Y-128991140D01*
X119778634Y-128924069D01*
X119756965Y-128855620D01*
X119739902Y-128785877D01*
X119727565Y-128714924D01*
X119720074Y-128642843D01*
X119717550Y-128569720D01*
G37*
G36*
X127113309Y-126612925D02*
G01*
X127181000Y-126615395D01*
X127248962Y-126619580D01*
X127317026Y-126625538D01*
X127385022Y-126633323D01*
X127452783Y-126642994D01*
X127520139Y-126654605D01*
X127586921Y-126668213D01*
X127652961Y-126683876D01*
X127718090Y-126701648D01*
X127782138Y-126721586D01*
X127844938Y-126743747D01*
X127906320Y-126768188D01*
X127966116Y-126794963D01*
X128024156Y-126824131D01*
X128080273Y-126855746D01*
X128134296Y-126889866D01*
X128186057Y-126926547D01*
X128235388Y-126965845D01*
X128282119Y-127007816D01*
X128326082Y-127052517D01*
X128367107Y-127100005D01*
X128405027Y-127150334D01*
X128439672Y-127203563D01*
X128470873Y-127259747D01*
X128498462Y-127318943D01*
X128522270Y-127381207D01*
X128542128Y-127446594D01*
X128557866Y-127515163D01*
X128569317Y-127586968D01*
X128576312Y-127662067D01*
X128578681Y-127740516D01*
X128577563Y-127796877D01*
X128574244Y-127851487D01*
X128568779Y-127904369D01*
X128561221Y-127955547D01*
X128551624Y-128005045D01*
X128540041Y-128052885D01*
X128511132Y-128143688D01*
X128474925Y-128228144D01*
X128431849Y-128306441D01*
X128382332Y-128378767D01*
X128326805Y-128445309D01*
X128265697Y-128506256D01*
X128199436Y-128561794D01*
X128128453Y-128612113D01*
X128053177Y-128657400D01*
X127974036Y-128697842D01*
X127891461Y-128733628D01*
X127805881Y-128764945D01*
X127717725Y-128791981D01*
X128838799Y-130520000D01*
X127927773Y-130520000D01*
X126877529Y-128876245D01*
X125436496Y-128876245D01*
X125436496Y-130520000D01*
X124673237Y-130520000D01*
X124673237Y-128175268D01*
X125436496Y-128175268D01*
X126976448Y-128175268D01*
X127030437Y-128174832D01*
X127082287Y-128173525D01*
X127132024Y-128171350D01*
X127225274Y-128164403D01*
X127310410Y-128154008D01*
X127387656Y-128140184D01*
X127457236Y-128122949D01*
X127519374Y-128102320D01*
X127574292Y-128078316D01*
X127622215Y-128050954D01*
X127663366Y-128020252D01*
X127712885Y-127967976D01*
X127748424Y-127908286D01*
X127770740Y-127841242D01*
X127778643Y-127792491D01*
X127781228Y-127740516D01*
X127780586Y-127714792D01*
X127770740Y-127642208D01*
X127748424Y-127576579D01*
X127712885Y-127518002D01*
X127663366Y-127466573D01*
X127622215Y-127436307D01*
X127574292Y-127409288D01*
X127519374Y-127385547D01*
X127457236Y-127365112D01*
X127387656Y-127348012D01*
X127310410Y-127334274D01*
X127225274Y-127323929D01*
X127132024Y-127317003D01*
X127082287Y-127314832D01*
X127030437Y-127313527D01*
X126976448Y-127313091D01*
X125436496Y-127313091D01*
X125436496Y-128175268D01*
X124673237Y-128175268D01*
X124673237Y-126612114D01*
X127046057Y-126612114D01*
X127113309Y-126612925D01*
G37*
G36*
X129919574Y-130520000D02*
G01*
X133804256Y-130520000D01*
X133804256Y-129820244D01*
X130682833Y-129820244D01*
X130682833Y-128800530D01*
X133314549Y-128800530D01*
X133314549Y-128100774D01*
X130688939Y-128100774D01*
X130688939Y-127313091D01*
X133804256Y-127313091D01*
X133804256Y-126612114D01*
X129919574Y-126612114D01*
X129919574Y-130520000D01*
G37*
G36*
X137878227Y-126299483D02*
G01*
X136492149Y-129160788D01*
X135162247Y-126647529D01*
X134329378Y-126647529D01*
X136499476Y-130832630D01*
X137878227Y-128036050D01*
X139265526Y-130832630D01*
X141435624Y-126647529D01*
X140601535Y-126647529D01*
X139271632Y-129166894D01*
X137878227Y-126299483D01*
G37*
G36*
X142790504Y-134296671D02*
G01*
X142832259Y-134298799D01*
X142874151Y-134302348D01*
X142916078Y-134307320D01*
X142957938Y-134313716D01*
X142999628Y-134321539D01*
X143041047Y-134330790D01*
X143082092Y-134341470D01*
X143122662Y-134353583D01*
X143162653Y-134367129D01*
X143201965Y-134382110D01*
X143240495Y-134398528D01*
X143278141Y-134416385D01*
X143314800Y-134435682D01*
X143350371Y-134456422D01*
X143384752Y-134478607D01*
X143417840Y-134502237D01*
X143449533Y-134527315D01*
X143479730Y-134553842D01*
X143508327Y-134581821D01*
X143535224Y-134611253D01*
X143560317Y-134642140D01*
X143583505Y-134674484D01*
X143604686Y-134708286D01*
X143623758Y-134743549D01*
X143640618Y-134780274D01*
X143655164Y-134818462D01*
X143667294Y-134858116D01*
X143676907Y-134899238D01*
X143683899Y-134941829D01*
X143688170Y-134985891D01*
X143689616Y-135031426D01*
X143689112Y-135051962D01*
X143687603Y-135072578D01*
X143685095Y-135093226D01*
X143681594Y-135113859D01*
X143677104Y-135134427D01*
X143671630Y-135154884D01*
X143665179Y-135175181D01*
X143657754Y-135195270D01*
X143649362Y-135215103D01*
X143640009Y-135234633D01*
X143629698Y-135253810D01*
X143618436Y-135272587D01*
X143606227Y-135290917D01*
X143593078Y-135308751D01*
X143578993Y-135326040D01*
X143563977Y-135342738D01*
X143548037Y-135358795D01*
X143531176Y-135374165D01*
X143513402Y-135388799D01*
X143494718Y-135402648D01*
X143475130Y-135415666D01*
X143454643Y-135427803D01*
X143433263Y-135439013D01*
X143410996Y-135449246D01*
X143387845Y-135458455D01*
X143363817Y-135466592D01*
X143338917Y-135473609D01*
X143313150Y-135479458D01*
X143286522Y-135484091D01*
X143259037Y-135487459D01*
X143230702Y-135489516D01*
X143201521Y-135490212D01*
X143181291Y-135489775D01*
X143159907Y-135488408D01*
X143137639Y-135486027D01*
X143114754Y-135482545D01*
X143099288Y-135479571D01*
X143083747Y-135476046D01*
X143068210Y-135471943D01*
X143052758Y-135467238D01*
X143037469Y-135461905D01*
X143022424Y-135455920D01*
X143007701Y-135449257D01*
X142993381Y-135441891D01*
X142979543Y-135433797D01*
X142966266Y-135424950D01*
X142949169Y-135432945D01*
X142931629Y-135440243D01*
X142913719Y-135446867D01*
X142895509Y-135452842D01*
X142877070Y-135458196D01*
X142858473Y-135462951D01*
X142839788Y-135467134D01*
X142821088Y-135470770D01*
X142802443Y-135473884D01*
X142783924Y-135476500D01*
X142765601Y-135478646D01*
X142747547Y-135480344D01*
X142729831Y-135481622D01*
X142712525Y-135482503D01*
X142695700Y-135483013D01*
X142679427Y-135483177D01*
X142660407Y-135482829D01*
X142641189Y-135481781D01*
X142621827Y-135480032D01*
X142602373Y-135477578D01*
X142582880Y-135474417D01*
X142563399Y-135470545D01*
X142543984Y-135465960D01*
X142524687Y-135460658D01*
X142505561Y-135454638D01*
X142486658Y-135447896D01*
X142468030Y-135440429D01*
X142449731Y-135432234D01*
X142431812Y-135423310D01*
X142414326Y-135413651D01*
X142397326Y-135403257D01*
X142380865Y-135392124D01*
X142364994Y-135380248D01*
X142349766Y-135367628D01*
X142335235Y-135354261D01*
X142321451Y-135340143D01*
X142308469Y-135325271D01*
X142296339Y-135309644D01*
X142285116Y-135293257D01*
X142274851Y-135276108D01*
X142265597Y-135258195D01*
X142257407Y-135239514D01*
X142250332Y-135220062D01*
X142244426Y-135199837D01*
X142239741Y-135178836D01*
X142236330Y-135157056D01*
X142234244Y-135134494D01*
X142233538Y-135111147D01*
X142233620Y-135108802D01*
X142473482Y-135108802D01*
X142474762Y-135128920D01*
X142478486Y-135147529D01*
X142484476Y-135164657D01*
X142492557Y-135180335D01*
X142502552Y-135194590D01*
X142514286Y-135207452D01*
X142527580Y-135218951D01*
X142542260Y-135229116D01*
X142558150Y-135237975D01*
X142575071Y-135245559D01*
X142592850Y-135251896D01*
X142611308Y-135257015D01*
X142630270Y-135260945D01*
X142649559Y-135263717D01*
X142669000Y-135265358D01*
X142688415Y-135265899D01*
X142700490Y-135265731D01*
X142719725Y-135264784D01*
X142739945Y-135262870D01*
X142760736Y-135259844D01*
X142781687Y-135255558D01*
X142802387Y-135249865D01*
X142822425Y-135242620D01*
X142841388Y-135233674D01*
X142858866Y-135222881D01*
X142874446Y-135210094D01*
X142887718Y-135195166D01*
X142941646Y-134929430D01*
X142938821Y-134911742D01*
X142930839Y-134897691D01*
X142918442Y-134886881D01*
X142902372Y-134878921D01*
X142883372Y-134873414D01*
X142867644Y-134870659D01*
X142850998Y-134868896D01*
X142833747Y-134867960D01*
X142816203Y-134867685D01*
X142787947Y-134868547D01*
X142758954Y-134871154D01*
X142729577Y-134875537D01*
X142700170Y-134881729D01*
X142671085Y-134889763D01*
X142642677Y-134899669D01*
X142615298Y-134911481D01*
X142589302Y-134925229D01*
X142565041Y-134940947D01*
X142542869Y-134958666D01*
X142523139Y-134978418D01*
X142506204Y-135000236D01*
X142492418Y-135024151D01*
X142482133Y-135050196D01*
X142475703Y-135078402D01*
X142473482Y-135108802D01*
X142233620Y-135108802D01*
X142234528Y-135082898D01*
X142237447Y-135055525D01*
X142242213Y-135029030D01*
X142248745Y-135003414D01*
X142256965Y-134978677D01*
X142266791Y-134954822D01*
X142278143Y-134931850D01*
X142290941Y-134909762D01*
X142305104Y-134888560D01*
X142320551Y-134868245D01*
X142337204Y-134848818D01*
X142354980Y-134830280D01*
X142373801Y-134812634D01*
X142393585Y-134795880D01*
X142414252Y-134780020D01*
X142435722Y-134765055D01*
X142457914Y-134750986D01*
X142480748Y-134737815D01*
X142504144Y-134725543D01*
X142528022Y-134714172D01*
X142552300Y-134703703D01*
X142576899Y-134694137D01*
X142601739Y-134685475D01*
X142626738Y-134677719D01*
X142651817Y-134670871D01*
X142676895Y-134664932D01*
X142701892Y-134659902D01*
X142726727Y-134655784D01*
X142751321Y-134652579D01*
X142775592Y-134650288D01*
X142799461Y-134648912D01*
X142822847Y-134648453D01*
X142841242Y-134648626D01*
X142859478Y-134649157D01*
X142877528Y-134650061D01*
X142895364Y-134651354D01*
X142912958Y-134653053D01*
X142930281Y-134655174D01*
X142947307Y-134657732D01*
X142964007Y-134660745D01*
X142980353Y-134664227D01*
X142996317Y-134668195D01*
X143011872Y-134672666D01*
X143026989Y-134677655D01*
X143041641Y-134683178D01*
X143069437Y-134695892D01*
X143095037Y-134710936D01*
X143118217Y-134728440D01*
X143138754Y-134748533D01*
X143156424Y-134771342D01*
X143171005Y-134796998D01*
X143182274Y-134825628D01*
X143186596Y-134841099D01*
X143190006Y-134857362D01*
X143192477Y-134874433D01*
X143193979Y-134892328D01*
X143194487Y-134911063D01*
X143193784Y-134930972D01*
X143191800Y-134950718D01*
X143188716Y-134970339D01*
X143184717Y-134989874D01*
X143179985Y-135009361D01*
X143174703Y-135028838D01*
X143169055Y-135048343D01*
X143163224Y-135067916D01*
X143157392Y-135087594D01*
X143151744Y-135107415D01*
X143146462Y-135127419D01*
X143141730Y-135147643D01*
X143137731Y-135168125D01*
X143134647Y-135188905D01*
X143132663Y-135210021D01*
X143131960Y-135231510D01*
X143134183Y-135243805D01*
X143144222Y-135256061D01*
X143158506Y-135262664D01*
X143173882Y-135265911D01*
X143191987Y-135267509D01*
X143208164Y-135267853D01*
X143235558Y-135266724D01*
X143261441Y-135263402D01*
X143285779Y-135257984D01*
X143308536Y-135250567D01*
X143329676Y-135241246D01*
X143349164Y-135230120D01*
X143366965Y-135217284D01*
X143383042Y-135202836D01*
X143397361Y-135186871D01*
X143409886Y-135169488D01*
X143420581Y-135150782D01*
X143429412Y-135130851D01*
X143436341Y-135109791D01*
X143441335Y-135087699D01*
X143444358Y-135064671D01*
X143445373Y-135040805D01*
X143444367Y-135008531D01*
X143441390Y-134977290D01*
X143436507Y-134947081D01*
X143429779Y-134917903D01*
X143421271Y-134889755D01*
X143411045Y-134862638D01*
X143399164Y-134836550D01*
X143385692Y-134811491D01*
X143370691Y-134787461D01*
X143354225Y-134764460D01*
X143336357Y-134742486D01*
X143317150Y-134721539D01*
X143296667Y-134701619D01*
X143274971Y-134682725D01*
X143252125Y-134664857D01*
X143228192Y-134648013D01*
X143203236Y-134632195D01*
X143177320Y-134617401D01*
X143150506Y-134603630D01*
X143122858Y-134590883D01*
X143094439Y-134579158D01*
X143065312Y-134568455D01*
X143035540Y-134558775D01*
X143005186Y-134550115D01*
X142974314Y-134542476D01*
X142942986Y-134535857D01*
X142911266Y-134530258D01*
X142879216Y-134525678D01*
X142846901Y-134522116D01*
X142814382Y-134519573D01*
X142781723Y-134518047D01*
X142748988Y-134517539D01*
X142708395Y-134518347D01*
X142668558Y-134520740D01*
X142629512Y-134524669D01*
X142591292Y-134530087D01*
X142553933Y-134536945D01*
X142517471Y-134545195D01*
X142481939Y-134554789D01*
X142447372Y-134565679D01*
X142413806Y-134577817D01*
X142381276Y-134591155D01*
X142349816Y-134605645D01*
X142319462Y-134621238D01*
X142290248Y-134637887D01*
X142262209Y-134655544D01*
X142235381Y-134674160D01*
X142209797Y-134693687D01*
X142185494Y-134714077D01*
X142162505Y-134735283D01*
X142140866Y-134757256D01*
X142120612Y-134779947D01*
X142101777Y-134803310D01*
X142084398Y-134827295D01*
X142068507Y-134851855D01*
X142054141Y-134876942D01*
X142041335Y-134902508D01*
X142030122Y-134928503D01*
X142020539Y-134954882D01*
X142012620Y-134981594D01*
X142006400Y-135008593D01*
X142001914Y-135035830D01*
X141999196Y-135063257D01*
X141998283Y-135090826D01*
X141999654Y-135130587D01*
X142003686Y-135168703D01*
X142010253Y-135205197D01*
X142019230Y-135240095D01*
X142030495Y-135273422D01*
X142043922Y-135305204D01*
X142059386Y-135335465D01*
X142076764Y-135364231D01*
X142095931Y-135391527D01*
X142116762Y-135417378D01*
X142139133Y-135441810D01*
X142162920Y-135464847D01*
X142187998Y-135486515D01*
X142214243Y-135506838D01*
X142241530Y-135525843D01*
X142269734Y-135543554D01*
X142298732Y-135559997D01*
X142328400Y-135575196D01*
X142358611Y-135589177D01*
X142389243Y-135601965D01*
X142420171Y-135613585D01*
X142451269Y-135624063D01*
X142482415Y-135633423D01*
X142513483Y-135641691D01*
X142544348Y-135648892D01*
X142574888Y-135655051D01*
X142604976Y-135660194D01*
X142634489Y-135664345D01*
X142663302Y-135667529D01*
X142691291Y-135669773D01*
X142718331Y-135671101D01*
X142744298Y-135671538D01*
X142755224Y-135671460D01*
X142777154Y-135670833D01*
X142799246Y-135669556D01*
X142821574Y-135667603D01*
X142844209Y-135664950D01*
X142867224Y-135661573D01*
X142890690Y-135657447D01*
X142914680Y-135652548D01*
X142939266Y-135646850D01*
X142964520Y-135640329D01*
X142990514Y-135632960D01*
X143017321Y-135624720D01*
X143045012Y-135615583D01*
X143073660Y-135605524D01*
X143088365Y-135600142D01*
X143103336Y-135594519D01*
X143118582Y-135588655D01*
X143134113Y-135582544D01*
X143149937Y-135576185D01*
X143149937Y-135830588D01*
X143123438Y-135838310D01*
X143096235Y-135845505D01*
X143068510Y-135852176D01*
X143040449Y-135858328D01*
X143012234Y-135863965D01*
X142984049Y-135869091D01*
X142956079Y-135873710D01*
X142928506Y-135877825D01*
X142901515Y-135881441D01*
X142875289Y-135884562D01*
X142850013Y-135887192D01*
X142825869Y-135889335D01*
X142803042Y-135890995D01*
X142781715Y-135892175D01*
X142762073Y-135892880D01*
X142744298Y-135893115D01*
X142697317Y-135892156D01*
X142650514Y-135889303D01*
X142603975Y-135884587D01*
X142557785Y-135878043D01*
X142512032Y-135869702D01*
X142466801Y-135859598D01*
X142422179Y-135847765D01*
X142378251Y-135834234D01*
X142335105Y-135819039D01*
X142292825Y-135802213D01*
X142251498Y-135783789D01*
X142211211Y-135763800D01*
X142172049Y-135742278D01*
X142134098Y-135719258D01*
X142097446Y-135694771D01*
X142062177Y-135668851D01*
X142028378Y-135641531D01*
X141996135Y-135612843D01*
X141965535Y-135582822D01*
X141936663Y-135551499D01*
X141909606Y-135518908D01*
X141884450Y-135485082D01*
X141861281Y-135450053D01*
X141840184Y-135413855D01*
X141821247Y-135376521D01*
X141804556Y-135338084D01*
X141790196Y-135298576D01*
X141778254Y-135258031D01*
X141768815Y-135216481D01*
X141761967Y-135173960D01*
X141757795Y-135130501D01*
X141756385Y-135086136D01*
X141756568Y-135069994D01*
X141757118Y-135053953D01*
X141758036Y-135038017D01*
X141759322Y-135022187D01*
X141760976Y-135006465D01*
X141763000Y-134990852D01*
X141765393Y-134975350D01*
X141769678Y-134952309D01*
X141774798Y-134929527D01*
X141780756Y-134907011D01*
X141787552Y-134884766D01*
X141795190Y-134862797D01*
X141803670Y-134841112D01*
X141818689Y-134806747D01*
X141835204Y-134773552D01*
X141853159Y-134741521D01*
X141872499Y-134710650D01*
X141893168Y-134680932D01*
X141915110Y-134652363D01*
X141938268Y-134624938D01*
X141962587Y-134598652D01*
X141988011Y-134573499D01*
X142014483Y-134549474D01*
X142041949Y-134526573D01*
X142070351Y-134504789D01*
X142099635Y-134484119D01*
X142129743Y-134464556D01*
X142160621Y-134446095D01*
X142192212Y-134428732D01*
X142224460Y-134412461D01*
X142257309Y-134397278D01*
X142290703Y-134383176D01*
X142324587Y-134370151D01*
X142358904Y-134358197D01*
X142393598Y-134347310D01*
X142428614Y-134337484D01*
X142463895Y-134328715D01*
X142499386Y-134320996D01*
X142535030Y-134314324D01*
X142570772Y-134308692D01*
X142606556Y-134304095D01*
X142642325Y-134300529D01*
X142678024Y-134297988D01*
X142713597Y-134296468D01*
X142748988Y-134295962D01*
X142790504Y-134296671D01*
G37*
G36*
X144750012Y-134367985D02*
G01*
X144785892Y-134369526D01*
X144822186Y-134372119D01*
X144858786Y-134375782D01*
X144895584Y-134380536D01*
X144932473Y-134386399D01*
X144969344Y-134393393D01*
X145006091Y-134401536D01*
X145042604Y-134410848D01*
X145078777Y-134421348D01*
X145114501Y-134433056D01*
X145149668Y-134445993D01*
X145184171Y-134460176D01*
X145217902Y-134475627D01*
X145250753Y-134492364D01*
X145282616Y-134510407D01*
X145313384Y-134529776D01*
X145342948Y-134550491D01*
X145371201Y-134572570D01*
X145398034Y-134596034D01*
X145423341Y-134620902D01*
X145447012Y-134647194D01*
X145468941Y-134674930D01*
X145489020Y-134704128D01*
X145507140Y-134734809D01*
X145523194Y-134766993D01*
X145537074Y-134800698D01*
X145548672Y-134835945D01*
X145557881Y-134872752D01*
X145564592Y-134911141D01*
X145568698Y-134951129D01*
X145570090Y-134992738D01*
X145568698Y-135034381D01*
X145564592Y-135074399D01*
X145557881Y-135112814D01*
X145548672Y-135149643D01*
X145537074Y-135184908D01*
X145523194Y-135218628D01*
X145507140Y-135250823D01*
X145489020Y-135281512D01*
X145468941Y-135310716D01*
X145447012Y-135338454D01*
X145423341Y-135364747D01*
X145398034Y-135389613D01*
X145371201Y-135413074D01*
X145342948Y-135435147D01*
X145313384Y-135455855D01*
X145282616Y-135475215D01*
X145250753Y-135493249D01*
X145217902Y-135509975D01*
X145184171Y-135525414D01*
X145149668Y-135539586D01*
X145114501Y-135552510D01*
X145078777Y-135564206D01*
X145042604Y-135574695D01*
X145006091Y-135583995D01*
X144969344Y-135592127D01*
X144932473Y-135599110D01*
X144895584Y-135604964D01*
X144858786Y-135609710D01*
X144822186Y-135613366D01*
X144785892Y-135615953D01*
X144750012Y-135617491D01*
X144714654Y-135618000D01*
X144026866Y-135618000D01*
X144026866Y-135394078D01*
X144273063Y-135394078D01*
X144694333Y-135394078D01*
X144719191Y-135393837D01*
X144744541Y-135393095D01*
X144770300Y-135391823D01*
X144796385Y-135389992D01*
X144822709Y-135387572D01*
X144849191Y-135384534D01*
X144875745Y-135380848D01*
X144902288Y-135376486D01*
X144928734Y-135371418D01*
X144955002Y-135365615D01*
X144981005Y-135359048D01*
X145006661Y-135351687D01*
X145031885Y-135343503D01*
X145056592Y-135334467D01*
X145080700Y-135324550D01*
X145104124Y-135313722D01*
X145126779Y-135301954D01*
X145148582Y-135289216D01*
X145169449Y-135275481D01*
X145189295Y-135260717D01*
X145208037Y-135244897D01*
X145225590Y-135227990D01*
X145241870Y-135209968D01*
X145256794Y-135190800D01*
X145270277Y-135170459D01*
X145282234Y-135148915D01*
X145292583Y-135126137D01*
X145301239Y-135102098D01*
X145308118Y-135076768D01*
X145313135Y-135050117D01*
X145316207Y-135022117D01*
X145317250Y-134992738D01*
X145316207Y-134963394D01*
X145313135Y-134935427D01*
X145308118Y-134908807D01*
X145301239Y-134883506D01*
X145292583Y-134859494D01*
X145282234Y-134836742D01*
X145270277Y-134815221D01*
X145256794Y-134794901D01*
X145241870Y-134775754D01*
X145225590Y-134757749D01*
X145208037Y-134740859D01*
X145189295Y-134725054D01*
X145169449Y-134710304D01*
X145148582Y-134696580D01*
X145126779Y-134683854D01*
X145104124Y-134672096D01*
X145080700Y-134661276D01*
X145056592Y-134651366D01*
X145031885Y-134642337D01*
X145006661Y-134634159D01*
X144981005Y-134626803D01*
X144955002Y-134620239D01*
X144928734Y-134614440D01*
X144902288Y-134609374D01*
X144875745Y-134605014D01*
X144849191Y-134601330D01*
X144822709Y-134598293D01*
X144796385Y-134595874D01*
X144770300Y-134594043D01*
X144744541Y-134592771D01*
X144719191Y-134592029D01*
X144694333Y-134591789D01*
X144273063Y-134591789D01*
X144273063Y-135394078D01*
X144026866Y-135394078D01*
X144026866Y-134367476D01*
X144714654Y-134367476D01*
X144750012Y-134367985D01*
G37*
G36*
X146094138Y-134993910D02*
G01*
X146094945Y-134970540D01*
X146097342Y-134947488D01*
X146101290Y-134924782D01*
X146106751Y-134902450D01*
X146113685Y-134880521D01*
X146122054Y-134859021D01*
X146131820Y-134837978D01*
X146142943Y-134817420D01*
X146155387Y-134797376D01*
X146169111Y-134777872D01*
X146184078Y-134758936D01*
X146200248Y-134740597D01*
X146217584Y-134722881D01*
X146236046Y-134705818D01*
X146255596Y-134689434D01*
X146276196Y-134673757D01*
X146297807Y-134658815D01*
X146320390Y-134644636D01*
X146343907Y-134631247D01*
X146368319Y-134618677D01*
X146393588Y-134606953D01*
X146419675Y-134596102D01*
X146446542Y-134586154D01*
X146474149Y-134577134D01*
X146502459Y-134569072D01*
X146531432Y-134561995D01*
X146561031Y-134555930D01*
X146591217Y-134550906D01*
X146621951Y-134546949D01*
X146653194Y-134544089D01*
X146684908Y-134542353D01*
X146717055Y-134541768D01*
X146738436Y-134542091D01*
X146759781Y-134543054D01*
X146781073Y-134544649D01*
X146802299Y-134546869D01*
X146823444Y-134549707D01*
X146844494Y-134553154D01*
X146865433Y-134557202D01*
X146886248Y-134561845D01*
X146906923Y-134567073D01*
X146927446Y-134572880D01*
X146947799Y-134579258D01*
X146967971Y-134586199D01*
X146987945Y-134593695D01*
X147007707Y-134601738D01*
X147027243Y-134610322D01*
X147046538Y-134619437D01*
X147065578Y-134629077D01*
X147084348Y-134639233D01*
X147102834Y-134649899D01*
X147121021Y-134661065D01*
X147138894Y-134672725D01*
X147156440Y-134684871D01*
X147173643Y-134697495D01*
X147190489Y-134710588D01*
X147206963Y-134724145D01*
X147223052Y-134738156D01*
X147238740Y-134752615D01*
X147254013Y-134767512D01*
X147268856Y-134782842D01*
X147283255Y-134798595D01*
X147297195Y-134814764D01*
X147310662Y-134831342D01*
X147310662Y-134499172D01*
X147294969Y-134488577D01*
X147279035Y-134478262D01*
X147262864Y-134468232D01*
X147246463Y-134458489D01*
X147229838Y-134449039D01*
X147212994Y-134439884D01*
X147195938Y-134431027D01*
X147178674Y-134422474D01*
X147161208Y-134414226D01*
X147143547Y-134406289D01*
X147125696Y-134398665D01*
X147107660Y-134391358D01*
X147089446Y-134384372D01*
X147071059Y-134377710D01*
X147052504Y-134371377D01*
X147033789Y-134365376D01*
X147014917Y-134359710D01*
X146995896Y-134354383D01*
X146976730Y-134349399D01*
X146957426Y-134344761D01*
X146937989Y-134340473D01*
X146918425Y-134336539D01*
X146898740Y-134332962D01*
X146878939Y-134329747D01*
X146859028Y-134326896D01*
X146839013Y-134324413D01*
X146818899Y-134322302D01*
X146798693Y-134320567D01*
X146778399Y-134319211D01*
X146758025Y-134318238D01*
X146737575Y-134317651D01*
X146717055Y-134317455D01*
X146671763Y-134318337D01*
X146627075Y-134320952D01*
X146583046Y-134325259D01*
X146539731Y-134331214D01*
X146497184Y-134338776D01*
X146455460Y-134347901D01*
X146414614Y-134358546D01*
X146374699Y-134370670D01*
X146335772Y-134384228D01*
X146297886Y-134399179D01*
X146261097Y-134415479D01*
X146225458Y-134433087D01*
X146191025Y-134451958D01*
X146157852Y-134472051D01*
X146125994Y-134493323D01*
X146095505Y-134515732D01*
X146066441Y-134539233D01*
X146038856Y-134563785D01*
X146012804Y-134589345D01*
X145988341Y-134615870D01*
X145965520Y-134643318D01*
X145944397Y-134671646D01*
X145925027Y-134700810D01*
X145907463Y-134730769D01*
X145891761Y-134761480D01*
X145877975Y-134792899D01*
X145866160Y-134824985D01*
X145856370Y-134857694D01*
X145848661Y-134890983D01*
X145843087Y-134924811D01*
X145839702Y-134959134D01*
X145838562Y-134993910D01*
X145839702Y-135028679D01*
X145843087Y-135062983D01*
X145848661Y-135096779D01*
X145856370Y-135130026D01*
X145866160Y-135162682D01*
X145877975Y-135194705D01*
X145891761Y-135226053D01*
X145907463Y-135256685D01*
X145925027Y-135286558D01*
X145944397Y-135315631D01*
X145965520Y-135343862D01*
X145988341Y-135371208D01*
X146012804Y-135397629D01*
X146038856Y-135423082D01*
X146066441Y-135447525D01*
X146095505Y-135470916D01*
X146125994Y-135493215D01*
X146157852Y-135514378D01*
X146191025Y-135534364D01*
X146225458Y-135553131D01*
X146261097Y-135570637D01*
X146297886Y-135586841D01*
X146335772Y-135601700D01*
X146374699Y-135615172D01*
X146414614Y-135627217D01*
X146455460Y-135637791D01*
X146497184Y-135646853D01*
X146539731Y-135654362D01*
X146583046Y-135660275D01*
X146627075Y-135664550D01*
X146671763Y-135667146D01*
X146717055Y-135668020D01*
X146737569Y-135667831D01*
X146758003Y-135667264D01*
X146778353Y-135666323D01*
X146798613Y-135665010D01*
X146818778Y-135663329D01*
X146838845Y-135661282D01*
X146858809Y-135658872D01*
X146878664Y-135656101D01*
X146898407Y-135652974D01*
X146918032Y-135649492D01*
X146937535Y-135645659D01*
X146956911Y-135641477D01*
X146976156Y-135636950D01*
X146995265Y-135632079D01*
X147014233Y-135626869D01*
X147033056Y-135621321D01*
X147051729Y-135615439D01*
X147070247Y-135609226D01*
X147088606Y-135602684D01*
X147106801Y-135595816D01*
X147124828Y-135588626D01*
X147142681Y-135581115D01*
X147160356Y-135573287D01*
X147177849Y-135565145D01*
X147195155Y-135556692D01*
X147212269Y-135547930D01*
X147229186Y-135538862D01*
X147245902Y-135529492D01*
X147262413Y-135519822D01*
X147278713Y-135509854D01*
X147294797Y-135499592D01*
X147310662Y-135489039D01*
X147310662Y-135159214D01*
X147296989Y-135175744D01*
X147282868Y-135191844D01*
X147268314Y-135207508D01*
X147253339Y-135222730D01*
X147237957Y-135237503D01*
X147222181Y-135251822D01*
X147206024Y-135265679D01*
X147189500Y-135279070D01*
X147172621Y-135291987D01*
X147155401Y-135304424D01*
X147137853Y-135316376D01*
X147119990Y-135327835D01*
X147101827Y-135338796D01*
X147083375Y-135349253D01*
X147064648Y-135359199D01*
X147045659Y-135368628D01*
X147026422Y-135377533D01*
X147006950Y-135385909D01*
X146987255Y-135393750D01*
X146967352Y-135401049D01*
X146947254Y-135407799D01*
X146926973Y-135413995D01*
X146906524Y-135419631D01*
X146885918Y-135424700D01*
X146865170Y-135429195D01*
X146844293Y-135433112D01*
X146823299Y-135436443D01*
X146802203Y-135439182D01*
X146781017Y-135441324D01*
X146759755Y-135442861D01*
X146738430Y-135443788D01*
X146717055Y-135444099D01*
X146684908Y-135443520D01*
X146653194Y-135441803D01*
X146621951Y-135438975D01*
X146591217Y-135435061D01*
X146561031Y-135430089D01*
X146531432Y-135424086D01*
X146502459Y-135417078D01*
X146474149Y-135409092D01*
X146446542Y-135400156D01*
X146419675Y-135390296D01*
X146393588Y-135379539D01*
X146368319Y-135367911D01*
X146343907Y-135355440D01*
X146320390Y-135342152D01*
X146297807Y-135328074D01*
X146276196Y-135313233D01*
X146255596Y-135297656D01*
X146236046Y-135281370D01*
X146217584Y-135264401D01*
X146200248Y-135246777D01*
X146184078Y-135228524D01*
X146169111Y-135209669D01*
X146155387Y-135190238D01*
X146142943Y-135170260D01*
X146131820Y-135149759D01*
X146122054Y-135128765D01*
X146113685Y-135107302D01*
X146106751Y-135085398D01*
X146101290Y-135063080D01*
X146097342Y-135040375D01*
X146094945Y-135017310D01*
X146094138Y-134993910D01*
G37*
G36*
X148672170Y-135301852D02*
G01*
X148671979Y-135282991D01*
X148671406Y-135264866D01*
X148670446Y-135247458D01*
X148669098Y-135230749D01*
X148667357Y-135214720D01*
X148662690Y-135184635D01*
X148656419Y-135157055D01*
X148648523Y-135131837D01*
X148638977Y-135108836D01*
X148627758Y-135087907D01*
X148614843Y-135068905D01*
X148600207Y-135051685D01*
X148583829Y-135036103D01*
X148565683Y-135022013D01*
X148545748Y-135009271D01*
X148523998Y-134997733D01*
X148500411Y-134987252D01*
X148474964Y-134977685D01*
X148461535Y-134973198D01*
X148483338Y-134962256D01*
X148503352Y-134950399D01*
X148521631Y-134937645D01*
X148538227Y-134924014D01*
X148553193Y-134909524D01*
X148566581Y-134894194D01*
X148578443Y-134878044D01*
X148588834Y-134861091D01*
X148597805Y-134843355D01*
X148605409Y-134824855D01*
X148611699Y-134805610D01*
X148616727Y-134785638D01*
X148620546Y-134764959D01*
X148623208Y-134743591D01*
X148624767Y-134721553D01*
X148625275Y-134698865D01*
X148624630Y-134678726D01*
X148622715Y-134659056D01*
X148619561Y-134639866D01*
X148615199Y-134621168D01*
X148609660Y-134602973D01*
X148602975Y-134585291D01*
X148595174Y-134568134D01*
X148586288Y-134551513D01*
X148576348Y-134535440D01*
X148565386Y-134519924D01*
X148553431Y-134504979D01*
X148540514Y-134490614D01*
X148526668Y-134476841D01*
X148511921Y-134463672D01*
X148496306Y-134451116D01*
X148479853Y-134439186D01*
X148462593Y-134427892D01*
X148444556Y-134417246D01*
X148425774Y-134407259D01*
X148406277Y-134397942D01*
X148386097Y-134389307D01*
X148365263Y-134381363D01*
X148343808Y-134374123D01*
X148321761Y-134367598D01*
X148299153Y-134361799D01*
X148276017Y-134356737D01*
X148252381Y-134352423D01*
X148228277Y-134348868D01*
X148203737Y-134346084D01*
X148178790Y-134344081D01*
X148153468Y-134342871D01*
X148127801Y-134342466D01*
X148096792Y-134343098D01*
X148081046Y-134343887D01*
X148065179Y-134344993D01*
X148049221Y-134346414D01*
X148033202Y-134348151D01*
X148017152Y-134350203D01*
X148001100Y-134352571D01*
X147985077Y-134355255D01*
X147969113Y-134358253D01*
X147953237Y-134361567D01*
X147937480Y-134365196D01*
X147921870Y-134369141D01*
X147906439Y-134373400D01*
X147891216Y-134377974D01*
X147876231Y-134382863D01*
X147847095Y-134393586D01*
X147819269Y-134405568D01*
X147792994Y-134418808D01*
X147768508Y-134433306D01*
X147746051Y-134449060D01*
X147725862Y-134466072D01*
X147708180Y-134484339D01*
X147693244Y-134503861D01*
X147693244Y-134749667D01*
X147713889Y-134729658D01*
X147735507Y-134710416D01*
X147758071Y-134692015D01*
X147781557Y-134674526D01*
X147805937Y-134658022D01*
X147831187Y-134642574D01*
X147857281Y-134628256D01*
X147884193Y-134615138D01*
X147911898Y-134603294D01*
X147940369Y-134592795D01*
X147969580Y-134583713D01*
X147999507Y-134576121D01*
X148030122Y-134570090D01*
X148045681Y-134567683D01*
X148061402Y-134565693D01*
X148077282Y-134564130D01*
X148093319Y-134563002D01*
X148109508Y-134562319D01*
X148125847Y-134562089D01*
X148141716Y-134562311D01*
X148171741Y-134564043D01*
X148199512Y-134567396D01*
X148225065Y-134572254D01*
X148248436Y-134578500D01*
X148269661Y-134586019D01*
X148288776Y-134594693D01*
X148305818Y-134604408D01*
X148320822Y-134615046D01*
X148333825Y-134626491D01*
X148344862Y-134638628D01*
X148353969Y-134651340D01*
X148364092Y-134671231D01*
X148370076Y-134691763D01*
X148372044Y-134712542D01*
X148369916Y-134734070D01*
X148363507Y-134755302D01*
X148352784Y-134775842D01*
X148343221Y-134788953D01*
X148331714Y-134801462D01*
X148318254Y-134813250D01*
X148302830Y-134824199D01*
X148285431Y-134834192D01*
X148266048Y-134843111D01*
X148244669Y-134850837D01*
X148221286Y-134857252D01*
X148195886Y-134862240D01*
X148168461Y-134865681D01*
X148139000Y-134867458D01*
X148123503Y-134867685D01*
X147924200Y-134867685D01*
X147924200Y-135089653D01*
X148123503Y-135089653D01*
X148143061Y-135089901D01*
X148161880Y-135090635D01*
X148179969Y-135091839D01*
X148197334Y-135093497D01*
X148213984Y-135095594D01*
X148229926Y-135098113D01*
X148259717Y-135104357D01*
X148286769Y-135112103D01*
X148311145Y-135121225D01*
X148332906Y-135131597D01*
X148352114Y-135143094D01*
X148368830Y-135155589D01*
X148383118Y-135168956D01*
X148395037Y-135183070D01*
X148404651Y-135197804D01*
X148412020Y-135213033D01*
X148417208Y-135228631D01*
X148420275Y-135244471D01*
X148421284Y-135260428D01*
X148420353Y-135284075D01*
X148417501Y-135306482D01*
X148412638Y-135327611D01*
X148405676Y-135347421D01*
X148396525Y-135365874D01*
X148385096Y-135382929D01*
X148371299Y-135398547D01*
X148355045Y-135412689D01*
X148336245Y-135425315D01*
X148314809Y-135436386D01*
X148290648Y-135445862D01*
X148263674Y-135453703D01*
X148233795Y-135459871D01*
X148217740Y-135462315D01*
X148200925Y-135464326D01*
X148183339Y-135465898D01*
X148164972Y-135467027D01*
X148145812Y-135467709D01*
X148125847Y-135467937D01*
X148099837Y-135467287D01*
X148071712Y-135465321D01*
X148041813Y-135462014D01*
X148026304Y-135459851D01*
X148010479Y-135457343D01*
X147994381Y-135454487D01*
X147978051Y-135451281D01*
X147961532Y-135447721D01*
X147944868Y-135443805D01*
X147928100Y-135439528D01*
X147911271Y-135434889D01*
X147894423Y-135429884D01*
X147877599Y-135424510D01*
X147860841Y-135418764D01*
X147844193Y-135412643D01*
X147827696Y-135406143D01*
X147811392Y-135399262D01*
X147795325Y-135391997D01*
X147779538Y-135384344D01*
X147764071Y-135376301D01*
X147748968Y-135367864D01*
X147734272Y-135359031D01*
X147720025Y-135349797D01*
X147706269Y-135340161D01*
X147693048Y-135330119D01*
X147680402Y-135319668D01*
X147668376Y-135308804D01*
X147657011Y-135297526D01*
X147646350Y-135285829D01*
X147646350Y-135560163D01*
X147666548Y-135576341D01*
X147689158Y-135591330D01*
X147713918Y-135605151D01*
X147740566Y-135617822D01*
X147768840Y-135629365D01*
X147798478Y-135639799D01*
X147813726Y-135644606D01*
X147829217Y-135649144D01*
X147844917Y-135653414D01*
X147860795Y-135657420D01*
X147876817Y-135661164D01*
X147892950Y-135664648D01*
X147909162Y-135667875D01*
X147925420Y-135670847D01*
X147941691Y-135673567D01*
X147957943Y-135676037D01*
X147974142Y-135678260D01*
X147990256Y-135680239D01*
X148006252Y-135681975D01*
X148022097Y-135683472D01*
X148037759Y-135684731D01*
X148068402Y-135686549D01*
X148097917Y-135687448D01*
X148112170Y-135687560D01*
X148141179Y-135687236D01*
X148169786Y-135686259D01*
X148197956Y-135684618D01*
X148225655Y-135682303D01*
X148252850Y-135679302D01*
X148279506Y-135675607D01*
X148305589Y-135671207D01*
X148331066Y-135666091D01*
X148355903Y-135660249D01*
X148380065Y-135653671D01*
X148403518Y-135646347D01*
X148426229Y-135638266D01*
X148448163Y-135629417D01*
X148469287Y-135619792D01*
X148489566Y-135609378D01*
X148508967Y-135598167D01*
X148527455Y-135586147D01*
X148544997Y-135573309D01*
X148561558Y-135559642D01*
X148577105Y-135545136D01*
X148591604Y-135529780D01*
X148605020Y-135513564D01*
X148617319Y-135496479D01*
X148628469Y-135478512D01*
X148638434Y-135459656D01*
X148647180Y-135439898D01*
X148654674Y-135419228D01*
X148660882Y-135397637D01*
X148665769Y-135375115D01*
X148669302Y-135351650D01*
X148671447Y-135327232D01*
X148672170Y-135301852D01*
G37*
G36*
X149579490Y-134343410D02*
G01*
X149615340Y-134346203D01*
X149650008Y-134350787D01*
X149683493Y-134357105D01*
X149715797Y-134365097D01*
X149746919Y-134374707D01*
X149776860Y-134385875D01*
X149805621Y-134398544D01*
X149833203Y-134412655D01*
X149859605Y-134428151D01*
X149884828Y-134444973D01*
X149908873Y-134463064D01*
X149931740Y-134482364D01*
X149953430Y-134502817D01*
X149973943Y-134524363D01*
X149993279Y-134546946D01*
X150011440Y-134570506D01*
X150028426Y-134594986D01*
X150044237Y-134620327D01*
X150058873Y-134646472D01*
X150072336Y-134673362D01*
X150084625Y-134700939D01*
X150095742Y-134729145D01*
X150105686Y-134757923D01*
X150114459Y-134787213D01*
X150122060Y-134816958D01*
X150128490Y-134847100D01*
X150133750Y-134877580D01*
X150137841Y-134908341D01*
X150140762Y-134939325D01*
X150142514Y-134970472D01*
X150143098Y-135001726D01*
X150142482Y-135033640D01*
X150140637Y-135065521D01*
X150137570Y-135097302D01*
X150133285Y-135128921D01*
X150127790Y-135160312D01*
X150121089Y-135191413D01*
X150113187Y-135222158D01*
X150104092Y-135252484D01*
X150093809Y-135282326D01*
X150082342Y-135311620D01*
X150069699Y-135340302D01*
X150055885Y-135368308D01*
X150040905Y-135395573D01*
X150024765Y-135422034D01*
X150007472Y-135447625D01*
X149989030Y-135472284D01*
X149969445Y-135495946D01*
X149948723Y-135518546D01*
X149926871Y-135540021D01*
X149903893Y-135560306D01*
X149879795Y-135579336D01*
X149854583Y-135597049D01*
X149828263Y-135613380D01*
X149800840Y-135628264D01*
X149772321Y-135641637D01*
X149742711Y-135653436D01*
X149712015Y-135663595D01*
X149680239Y-135672051D01*
X149647390Y-135678740D01*
X149613473Y-135683597D01*
X149578493Y-135686558D01*
X149542456Y-135687560D01*
X149505279Y-135686629D01*
X149469292Y-135683875D01*
X149434495Y-135679354D01*
X149400886Y-135673123D01*
X149368465Y-135665237D01*
X149337232Y-135655754D01*
X149307186Y-135644730D01*
X149278326Y-135632221D01*
X149250651Y-135618283D01*
X149224161Y-135602974D01*
X149198856Y-135586350D01*
X149174734Y-135568466D01*
X149151795Y-135549381D01*
X149130038Y-135529149D01*
X149109463Y-135507828D01*
X149090069Y-135485473D01*
X149071856Y-135462142D01*
X149054822Y-135437891D01*
X149038967Y-135412777D01*
X149024291Y-135386855D01*
X149010792Y-135360182D01*
X148998471Y-135332815D01*
X148987326Y-135304811D01*
X148977357Y-135276224D01*
X148968564Y-135247113D01*
X148960944Y-135217534D01*
X148954499Y-135187542D01*
X148949227Y-135157195D01*
X148945128Y-135126549D01*
X148942201Y-135095660D01*
X148940445Y-135064585D01*
X148939860Y-135033380D01*
X148940343Y-135008369D01*
X149190746Y-135008369D01*
X149191094Y-135029905D01*
X149192137Y-135051398D01*
X149193875Y-135072807D01*
X149196306Y-135094089D01*
X149199429Y-135115204D01*
X149203245Y-135136108D01*
X149207751Y-135156760D01*
X149212948Y-135177117D01*
X149218834Y-135197137D01*
X149225408Y-135216779D01*
X149232669Y-135236000D01*
X149240618Y-135254758D01*
X149249252Y-135273012D01*
X149258571Y-135290718D01*
X149268574Y-135307836D01*
X149279260Y-135324322D01*
X149290628Y-135340135D01*
X149302678Y-135355233D01*
X149315409Y-135369573D01*
X149328820Y-135383114D01*
X149342909Y-135395814D01*
X149357677Y-135407630D01*
X149373121Y-135418520D01*
X149389242Y-135428443D01*
X149406039Y-135437355D01*
X149423510Y-135445216D01*
X149441655Y-135451983D01*
X149460473Y-135457614D01*
X149479963Y-135462067D01*
X149500124Y-135465300D01*
X149520955Y-135467271D01*
X149542456Y-135467937D01*
X149564151Y-135467291D01*
X149585126Y-135465381D01*
X149605385Y-135462247D01*
X149624928Y-135457930D01*
X149643757Y-135452470D01*
X149661876Y-135445909D01*
X149679285Y-135438288D01*
X149695987Y-135429646D01*
X149711984Y-135420024D01*
X149727277Y-135409464D01*
X149741869Y-135398006D01*
X149755762Y-135385690D01*
X149768958Y-135372558D01*
X149781459Y-135358650D01*
X149793266Y-135344007D01*
X149804382Y-135328669D01*
X149814809Y-135312678D01*
X149824548Y-135296074D01*
X149833603Y-135278897D01*
X149841974Y-135261189D01*
X149849664Y-135242990D01*
X149856675Y-135224341D01*
X149863008Y-135205282D01*
X149868667Y-135185855D01*
X149873652Y-135166099D01*
X149877966Y-135146056D01*
X149881611Y-135125767D01*
X149884588Y-135105272D01*
X149886901Y-135084612D01*
X149888550Y-135063827D01*
X149889538Y-135042958D01*
X149889867Y-135022047D01*
X149889519Y-135000683D01*
X149888477Y-134979336D01*
X149886742Y-134958051D01*
X149884316Y-134936871D01*
X149881200Y-134915839D01*
X149877397Y-134894998D01*
X149872907Y-134874391D01*
X149867732Y-134854063D01*
X149861875Y-134834055D01*
X149855337Y-134814412D01*
X149848118Y-134795177D01*
X149840222Y-134776393D01*
X149831650Y-134758103D01*
X149822403Y-134740351D01*
X149812482Y-134723179D01*
X149801891Y-134706632D01*
X149790629Y-134690752D01*
X149778700Y-134675583D01*
X149766104Y-134661168D01*
X149752843Y-134647550D01*
X149738919Y-134634773D01*
X149724333Y-134622880D01*
X149709088Y-134611914D01*
X149693184Y-134601919D01*
X149676624Y-134592937D01*
X149659409Y-134585013D01*
X149641540Y-134578189D01*
X149623020Y-134572508D01*
X149603850Y-134568015D01*
X149584031Y-134564751D01*
X149563566Y-134562762D01*
X149542456Y-134562089D01*
X149520783Y-134562736D01*
X149499802Y-134564649D01*
X149479511Y-134567789D01*
X149459912Y-134572113D01*
X149441003Y-134577581D01*
X149422784Y-134584152D01*
X149405256Y-134591786D01*
X149388418Y-134600441D01*
X149372270Y-134610077D01*
X149356811Y-134620652D01*
X149342041Y-134632127D01*
X149327961Y-134644459D01*
X149314570Y-134657608D01*
X149301867Y-134671534D01*
X149289853Y-134686196D01*
X149278527Y-134701551D01*
X149267889Y-134717561D01*
X149257939Y-134734184D01*
X149248677Y-134751378D01*
X149240102Y-134769104D01*
X149232215Y-134787320D01*
X149225014Y-134805985D01*
X149218500Y-134825059D01*
X149212673Y-134844501D01*
X149207532Y-134864269D01*
X149203077Y-134884324D01*
X149199309Y-134904624D01*
X149196226Y-134925128D01*
X149193828Y-134945795D01*
X149192116Y-134966585D01*
X149191089Y-134987457D01*
X149190746Y-135008369D01*
X148940343Y-135008369D01*
X148940476Y-135001451D01*
X148942321Y-134969528D01*
X148945390Y-134937678D01*
X148949676Y-134905967D01*
X148955175Y-134874460D01*
X148961882Y-134843224D01*
X148969791Y-134812325D01*
X148978896Y-134781828D01*
X148989193Y-134751800D01*
X149000675Y-134722307D01*
X149013338Y-134693416D01*
X149027176Y-134665191D01*
X149042184Y-134637699D01*
X149058356Y-134611006D01*
X149075688Y-134585178D01*
X149094173Y-134560281D01*
X149113806Y-134536382D01*
X149134582Y-134513546D01*
X149156496Y-134491839D01*
X149179542Y-134471327D01*
X149203715Y-134452077D01*
X149229010Y-134434155D01*
X149255420Y-134417625D01*
X149282942Y-134402556D01*
X149311569Y-134389011D01*
X149341295Y-134377059D01*
X149372117Y-134366764D01*
X149404027Y-134358193D01*
X149437022Y-134351411D01*
X149471095Y-134346485D01*
X149506242Y-134343482D01*
X149542456Y-134342466D01*
X149579490Y-134343410D01*
G37*
D15*
X159045000Y-130210000D02*
X155955000Y-130210000D01*
X157499538Y-135759999D02*
G75*
G03*
X159044830Y-130210001I462J2989999D01*
G01*
X155955170Y-130210000D02*
G75*
G03*
X157500462Y-135760000I1544830J-2560000D01*
G01*
X160000000Y-132770000D02*
G75*
G03*
X160000000Y-132770000I-2500000J0D01*
G01*
%LPC*%
D16*
X157499999Y-131499999D03*
D17*
X157500000Y-134040000D03*
D18*
X154839999Y-124939999D03*
D19*
X154839999Y-127479999D03*
X157379999Y-124939999D03*
X157379999Y-127479999D03*
X159919999Y-124939999D03*
X159919999Y-127479999D03*
M02*
