%TF.GenerationSoftware,KiCad,Pcbnew,(6.99.0-1934-gfe17dca71f)*%
%TF.CreationDate,2022-06-18T07:02:21-05:00*%
%TF.ProjectId,jwtelescope,6a777465-6c65-4736-936f-70652e6b6963,rev?*%
%TF.SameCoordinates,Original*%
%TF.FileFunction,Copper,L1,Top*%
%TF.FilePolarity,Positive*%
%FSLAX46Y46*%
G04 Gerber Fmt 4.6, Leading zero omitted, Abs format (unit mm)*
G04 Created by KiCad (PCBNEW (6.99.0-1934-gfe17dca71f)) date 2022-06-18 07:02:21*
%MOMM*%
%LPD*%
G01*
G04 APERTURE LIST*
%TA.AperFunction,NonConductor*%
%ADD10C,0.050000*%
%TD*%
%TA.AperFunction,ComponentPad*%
%ADD11R,1.700000X1.700000*%
%TD*%
%TA.AperFunction,ComponentPad*%
%ADD12O,1.700000X1.700000*%
%TD*%
G04 APERTURE END LIST*
D10*
G36*
X86116833Y-53349206D02*
G01*
X87175038Y-53406179D01*
X87651234Y-51711965D01*
X87924603Y-51574762D01*
X88357136Y-51507326D01*
X88867184Y-51534715D01*
X88898575Y-51422834D01*
X89033062Y-51401910D01*
X88976090Y-51617399D01*
X89590653Y-53494935D01*
X90648853Y-53551782D01*
X91138230Y-51810800D01*
X90919380Y-51107873D01*
X91129315Y-51075185D01*
X91305142Y-51612363D01*
X92363343Y-51669210D01*
X92594467Y-50846779D01*
X105535797Y-48829459D01*
X111464646Y-51516370D01*
X110776184Y-52231573D01*
X111416710Y-52521863D01*
X110739746Y-53225183D01*
X111512444Y-53575292D01*
X110824112Y-54290494D01*
X111464638Y-54580785D01*
X110837288Y-55232557D01*
X111512436Y-55538480D01*
X103612663Y-63746118D01*
X64478103Y-72170541D01*
X59983288Y-69640462D01*
X60857394Y-69201856D01*
X59935358Y-68682897D01*
X60905195Y-68196233D01*
X59983288Y-67677400D01*
X60922119Y-67206369D01*
X59887557Y-66623975D01*
X60857266Y-66137441D01*
X59935358Y-65618482D01*
X80904360Y-55097165D01*
X87767502Y-55097165D01*
X87913227Y-55399732D01*
X88944172Y-55489393D01*
X89022591Y-55242895D01*
X87767502Y-55097165D01*
X80904360Y-55097165D01*
X84075712Y-53505922D01*
X87285744Y-53505922D01*
X87588310Y-54380025D01*
X89213146Y-54581693D01*
X89470883Y-53685235D01*
X88843273Y-51757833D01*
X87767502Y-51724115D01*
X87285744Y-53505922D01*
X84075712Y-53505922D01*
X85872921Y-52604162D01*
X86116833Y-53349206D01*
G37*
X86116833Y-53349206D02*
X87175038Y-53406179D01*
X87651234Y-51711965D01*
X87924603Y-51574762D01*
X88357136Y-51507326D01*
X88867184Y-51534715D01*
X88898575Y-51422834D01*
X89033062Y-51401910D01*
X88976090Y-51617399D01*
X89590653Y-53494935D01*
X90648853Y-53551782D01*
X91138230Y-51810800D01*
X90919380Y-51107873D01*
X91129315Y-51075185D01*
X91305142Y-51612363D01*
X92363343Y-51669210D01*
X92594467Y-50846779D01*
X105535797Y-48829459D01*
X111464646Y-51516370D01*
X110776184Y-52231573D01*
X111416710Y-52521863D01*
X110739746Y-53225183D01*
X111512444Y-53575292D01*
X110824112Y-54290494D01*
X111464638Y-54580785D01*
X110837288Y-55232557D01*
X111512436Y-55538480D01*
X103612663Y-63746118D01*
X64478103Y-72170541D01*
X59983288Y-69640462D01*
X60857394Y-69201856D01*
X59935358Y-68682897D01*
X60905195Y-68196233D01*
X59983288Y-67677400D01*
X60922119Y-67206369D01*
X59887557Y-66623975D01*
X60857266Y-66137441D01*
X59935358Y-65618482D01*
X80904360Y-55097165D01*
X87767502Y-55097165D01*
X87913227Y-55399732D01*
X88944172Y-55489393D01*
X89022591Y-55242895D01*
X87767502Y-55097165D01*
X80904360Y-55097165D01*
X84075712Y-53505922D01*
X87285744Y-53505922D01*
X87588310Y-54380025D01*
X89213146Y-54581693D01*
X89470883Y-53685235D01*
X88843273Y-51757833D01*
X87767502Y-51724115D01*
X87285744Y-53505922D01*
X84075712Y-53505922D01*
X85872921Y-52604162D01*
X86116833Y-53349206D01*
D11*
X99099999Y-42699999D03*
D12*
X99099999Y-45239999D03*
X101639999Y-42699999D03*
X101639999Y-45239999D03*
X104179999Y-42699999D03*
X104179999Y-45239999D03*
M02*
