<?xml version="1.0" encoding="UTF-8" standalone="no"?>
<!-- Created with Inkscape (http://www.inkscape.org/) -->

<svg
   width="210mm"
   height="297mm"
   viewBox="0 0 210 297"
   version="1.1"
   id="svg5"
   inkscape:version="1.1.1 (c3084ef, 2021-09-22)"
   sodipodi:docname="master_warning.svg"
   xmlns:inkscape="http://www.inkscape.org/namespaces/inkscape"
   xmlns:sodipodi="http://sodipodi.sourceforge.net/DTD/sodipodi-0.dtd"
   xmlns="http://www.w3.org/2000/svg"
   xmlns:svg="http://www.w3.org/2000/svg">
  <sodipodi:namedview
     id="namedview7"
     pagecolor="#ffffff"
     bordercolor="#666666"
     borderopacity="1.0"
     inkscape:pageshadow="2"
     inkscape:pageopacity="0.0"
     inkscape:pagecheckerboard="0"
     inkscape:document-units="mm"
     showgrid="false"
     inkscape:zoom="1.2810466"
     inkscape:cx="245.89269"
     inkscape:cy="230.67077"
     inkscape:window-width="1499"
     inkscape:window-height="941"
     inkscape:window-x="21"
     inkscape:window-y="25"
     inkscape:window-maximized="0"
     inkscape:current-layer="layer1" />
  <defs
     id="defs2">
    <rect
       x="411.38238"
       y="157.68357"
       width="90.55096"
       height="71.816279"
       id="rect10133" />
  </defs>
  <g
     inkscape:label="F.Mask"
     inkscape:groupmode="layer"
     id="layer1">
    <path
       id="rect3219"
       style="fill:#00ffff;stroke-width:0.23151"
       d="M 77.245015,49.982101 V 84.982027 H 112.24494 V 49.982101 Z m 16.65686,7.165969 c 0.22076,0 0.43895,0.06124 0.65371,0.184486 0.21626,0.119002 0.403,0.269934 0.56069,0.452687 v 2.186945 h -0.0925 c -0.13517,-0.306004 -0.30091,-0.561324 -0.49765,-0.765329 -0.19523,-0.208253 -0.3952,-0.312123 -0.59945,-0.312123 -0.0721,0 -0.14392,0.01468 -0.216,0.04444 -0.0706,0.02551 -0.13908,0.07646 -0.20516,0.152961 -0.0586,0.06375 -0.10884,0.161769 -0.15089,0.293523 -0.0421,0.1275 -0.0631,0.274013 -0.0631,0.439767 0,0.250753 0.0337,0.444322 0.10129,0.580324 0.0676,0.131754 0.1952,0.252785 0.38292,0.363286 0.12315,0.07225 0.24135,0.142322 0.35398,0.210322 0.11414,0.068 0.23625,0.161603 0.36691,0.280604 0.2568,0.238003 0.44627,0.562877 0.56792,0.975135 0.12315,0.408006 0.18449,0.939189 0.18449,1.593699 0,0.935017 -0.14033,1.69604 -0.42117,2.28255 -0.27933,0.582258 -0.65941,0.873332 -1.13998,0.873332 -0.27783,0 -0.52036,-0.06812 -0.7276,-0.204124 -0.20575,-0.14025 -0.39856,-0.316661 -0.57878,-0.529166 v -2.27583 h 0.0946 c 0.17871,0.403757 0.37816,0.713939 0.59893,0.930693 0.22226,0.216755 0.43603,0.325562 0.64027,0.325562 0.0526,0 0.12162,-0.01326 0.20722,-0.03876 0.0856,-0.02551 0.15523,-0.06762 0.20929,-0.127121 0.0661,-0.0765 0.12022,-0.172054 0.16227,-0.286806 0.0435,-0.114753 0.0651,-0.284792 0.0651,-0.510045 0,-0.208254 -0.0315,-0.387133 -0.0946,-0.535885 -0.0616,-0.153003 -0.15219,-0.269616 -0.27234,-0.350366 -0.12615,-0.085 -0.25983,-0.163912 -0.401,-0.236162 -0.13967,-0.0765 -0.27115,-0.172053 -0.3943,-0.286806 -0.28233,-0.259252 -0.48565,-0.609608 -0.61029,-1.051613 -0.12315,-0.446259 -0.18501,-0.999021 -0.18501,-1.657781 0,-0.884015 0.13977,-1.604349 0.4191,-2.161109 0.28084,-0.561009 0.64105,-0.841293 1.08107,-0.841293 z m -9.29452,0.172083 h 1.00459 l 0.75499,4.761984 0.75241,-4.761984 h 1.00459 v 9.492445 h -0.86041 v -6.356202 l -0.62167,4.124812 h -0.59738 l -0.62167,-4.124812 v 6.356202 h -0.81545 z m 5.23534,0 h 0.9958 l 1.23869,9.492445 h -0.89401 l -0.23202,-1.918747 h -1.24385 l -0.23203,1.918747 h -0.87178 z m 5.66529,0 h 2.96002 v 1.836065 h -1.04748 v 7.65638 h -0.86506 v -7.65638 h -1.04748 z m 3.4804,0 h 2.426205 v 1.836065 h -1.565275 v 1.638141 h 1.452625 v 1.836066 h -1.452625 v 2.346108 h 1.565275 v 1.836065 h -2.426205 z m 3.153815,0 h 1.45107 c 0.19824,0 0.36841,0.03185 0.51108,0.0956 0.14267,0.06375 0.27636,0.201943 0.40101,0.414446 0.12615,0.212502 0.22613,0.488367 0.29972,0.828373 0.0751,0.335756 0.11266,0.758648 0.11266,1.268656 0,0.701262 -0.058,1.273132 -0.17364,1.71514 -0.11413,0.442008 -0.27767,0.809522 -0.49092,1.102775 l 1.11931,4.067453 h -1.05627 l -0.91467,-3.480924 h -0.39843 v 3.480924 h -0.86092 z m 0.86092,1.746665 v 2.556433 h 0.26562 c 0.13817,0 0.25364,-0.0191 0.34675,-0.05736 0.0931,-0.03825 0.17154,-0.125482 0.23461,-0.261483 0.0601,-0.131752 0.10319,-0.276312 0.13023,-0.433565 0.0285,-0.161504 0.0429,-0.376134 0.0429,-0.64389 0,-0.238003 -0.0172,-0.441846 -0.0517,-0.611848 -0.0345,-0.170003 -0.0937,-0.303774 -0.17777,-0.401524 -0.0586,-0.068 -0.12706,-0.108691 -0.20515,-0.121441 -0.0781,-0.01701 -0.16923,-0.02532 -0.27285,-0.02532 z m -12.673635,0.682128 -0.41238,3.404444 h 0.82424 z m 16.014005,9.789583 c 0.22076,0 0.43123,0.05733 0.63097,0.172082 0.19974,0.110503 0.42183,0.333973 0.66662,0.669727 v 2.224672 h -0.0966 c -0.0421,-0.08925 -0.10391,-0.214704 -0.185,-0.376206 -0.0811,-0.165753 -0.15901,-0.305893 -0.2341,-0.420645 -0.0871,-0.136004 -0.1893,-0.253132 -0.30644,-0.350882 -0.11564,-0.09775 -0.23883,-0.146246 -0.36949,-0.146246 -0.15318,0 -0.29186,0.0637 -0.41651,0.191204 -0.12465,0.127502 -0.23678,0.323021 -0.33589,0.586525 -0.0946,0.255006 -0.16975,0.57988 -0.22531,0.975135 -0.0541,0.391007 -0.0811,0.843799 -0.0811,1.358056 0,1.049769 0.0983,1.852914 0.29507,2.409674 0.19673,0.556758 0.48732,0.835092 0.87178,0.835092 0.033,0 0.0695,-0.0019 0.10852,-0.0062 0.0405,-0.0043 0.077,-0.01061 0.11007,-0.01913 v -1.861383 h -0.66869 V 73.98838 h 1.54719 v 4.685507 c -0.15018,0.16575 -0.34907,0.33189 -0.59686,0.49764 -0.2478,0.1615 -0.49475,0.24184 -0.74104,0.24184 -0.57068,0 -1.0176,-0.43758 -1.34049,-1.31309 -0.32288,-0.879768 -0.48421,-2.093065 -0.48421,-3.640089 0,-1.474774 0.16297,-2.662595 0.48886,-3.56361 0.32589,-0.905263 0.78001,-1.358055 1.36271,-1.358055 z m -24.686865,0.185002 h 0.90331 l 0.51573,6.534486 0.61702,-6.534486 h 0.86299 l 0.58808,6.534486 0.54053,-6.534486 h 0.88057 l -0.9033,9.492446 h -0.95705 l -0.60151,-6.183604 -0.58602,6.183604 h -0.95704 z m 6.35259,0 h 0.99529 l 1.2392,9.492446 h -0.89452 l -0.23203,-1.918748 h -1.24333 l -0.23203,1.918748 h -0.87178 z m 2.72128,0 h 1.45056 c 0.19823,0 0.36841,0.03185 0.51108,0.0956 0.14266,0.06375 0.27636,0.20194 0.401,0.414446 0.12615,0.212502 0.22614,0.488884 0.29973,0.828889 0.0751,0.335756 0.11265,0.758648 0.11265,1.268656 0,0.701262 -0.058,1.272617 -0.17363,1.714624 -0.11414,0.442008 -0.27767,0.809519 -0.49093,1.102776 l 1.11983,4.067455 h -1.05678 l -0.91467,-3.48093 h -0.39843 v 3.48093 h -0.86041 z m 3.61322,0 h 1.03404 l 1.22318,5.437912 v -5.437912 h 0.79272 v 9.492446 h -0.83354 l -1.42369,-6.515368 v 6.515368 h -0.79271 z m 3.75945,0 h 1.964225 v 1.683102 h -0.549315 v 6.126241 h 0.549315 v 1.683103 h -1.964225 v -1.683103 h 0.54984 v -6.126241 h -0.54984 z m 2.674255,0 h 1.03405 l 1.22318,5.437912 v -5.437912 h 0.79271 v 9.492446 h -0.83354 l -1.42368,-6.515368 v 6.515368 h -0.79272 z m -9.186515,1.746663 v 2.556433 h 0.26562 c 0.13816,0 0.25364,-0.0191 0.34675,-0.05736 0.0931,-0.03825 0.17153,-0.125482 0.23461,-0.261485 0.0601,-0.131752 0.10371,-0.276313 0.13074,-0.433565 0.0285,-0.161502 0.0429,-0.376134 0.0429,-0.643887 0,-0.238004 -0.0176,-0.441847 -0.0522,-0.611849 -0.0345,-0.170003 -0.0937,-0.303774 -0.17777,-0.401527 -0.0586,-0.068 -0.12706,-0.108688 -0.20515,-0.121438 -0.0781,-0.01701 -0.16872,-0.02532 -0.27234,-0.02532 z m -3.09542,0.68213 -0.41237,3.404444 h 0.82475 z" />
    <text
       xml:space="preserve"
       transform="scale(0.26458333)"
       id="text10131"
       style="font-style:normal;font-weight:normal;font-size:40px;line-height:1.25;font-family:sans-serif;white-space:pre;shape-inside:url(#rect10133);fill:#000000;fill-opacity:1;stroke:none" />
  </g>
</svg>
