%TF.GenerationSoftware,KiCad,Pcbnew,(6.0.4-0)*%
%TF.CreationDate,2022-05-21T11:08:47-04:00*%
%TF.ProjectId,Master_Warning,4d617374-6572-45f5-9761-726e696e672e,v02*%
%TF.SameCoordinates,Original*%
%TF.FileFunction,Soldermask,Top*%
%TF.FilePolarity,Negative*%
%FSLAX46Y46*%
G04 Gerber Fmt 4.6, Leading zero omitted, Abs format (unit mm)*
G04 Created by KiCad (PCBNEW (6.0.4-0)) date 2022-05-21 11:08:47*
%MOMM*%
%LPD*%
G01*
G04 APERTURE LIST*
%ADD10R,1.700000X1.700000*%
%ADD11O,1.700000X1.700000*%
G04 APERTURE END LIST*
%TO.C,svg2mod*%
G36*
X205136006Y-86628925D02*
G01*
X204381012Y-86628925D01*
X204758250Y-85341148D01*
X205136006Y-86628925D01*
G37*
G36*
X208130137Y-85092593D02*
G01*
X208318240Y-85138586D01*
X208481022Y-85290515D01*
X208528562Y-85522025D01*
X208489290Y-85765420D01*
X208369915Y-85929751D01*
X208154942Y-86028453D01*
X207837132Y-86050149D01*
X207593736Y-86050149D01*
X207593736Y-85083282D01*
X207880539Y-85083280D01*
X208130137Y-85092593D01*
G37*
G36*
X197570058Y-80730061D02*
G01*
X223493025Y-80730061D01*
X223493025Y-91652908D01*
X197570058Y-91652908D01*
X197570058Y-84422340D01*
X198493517Y-84422340D01*
X199320856Y-88013336D01*
X200197804Y-88013336D01*
X200734723Y-85673943D01*
X201285594Y-88013336D01*
X202162544Y-88013336D01*
X203177986Y-88013336D01*
X203976388Y-88013336D01*
X204188777Y-87287283D01*
X205328242Y-87287283D01*
X205540631Y-88013336D01*
X206359704Y-88013336D01*
X206805670Y-88013336D01*
X207593736Y-88013336D01*
X207593736Y-86696621D01*
X207959089Y-86696621D01*
X208796762Y-88013336D01*
X209764664Y-88013336D01*
X210115546Y-88013336D01*
X210842116Y-88013336D01*
X210842116Y-85548370D01*
X212145914Y-88013336D01*
X212909692Y-88013336D01*
X213559781Y-88013336D01*
X215359154Y-88013336D01*
X216009243Y-88013336D01*
X216735297Y-88013336D01*
X216735297Y-85548370D01*
X218039611Y-88013336D01*
X218803389Y-88013336D01*
X218803389Y-86213963D01*
X219412137Y-86213963D01*
X219522912Y-86997206D01*
X219855520Y-87591141D01*
X220384313Y-87963641D01*
X221083351Y-88087750D01*
X221762380Y-87996284D01*
X222309118Y-87808181D01*
X222309118Y-86035629D01*
X220891634Y-86035629D01*
X220891634Y-86713108D01*
X221504515Y-86713108D01*
X221504515Y-87417458D01*
X221403229Y-87424681D01*
X221304011Y-87427327D01*
X220505609Y-87111065D01*
X220235343Y-86199493D01*
X220309757Y-85685831D01*
X220515944Y-85316859D01*
X220823419Y-85095167D01*
X221205308Y-85022822D01*
X221543789Y-85078115D01*
X221824393Y-85210923D01*
X222038849Y-85370088D01*
X222207830Y-85512198D01*
X222296714Y-85512198D01*
X222296714Y-84670905D01*
X221685900Y-84417691D01*
X221108158Y-84352577D01*
X220395688Y-84480994D01*
X219859653Y-84866242D01*
X219523946Y-85458711D01*
X219412137Y-86213963D01*
X218803389Y-86213963D01*
X218803389Y-84422340D01*
X218076816Y-84422340D01*
X218076816Y-86479581D01*
X216956473Y-84422340D01*
X216009243Y-84422340D01*
X216009243Y-88013336D01*
X215359154Y-88013336D01*
X215359154Y-87376683D01*
X214855308Y-87376683D01*
X214855308Y-85058996D01*
X215359154Y-85058996D01*
X215359154Y-84422340D01*
X213559781Y-84422340D01*
X213559781Y-85058996D01*
X214063108Y-85058996D01*
X214063108Y-87376683D01*
X213559781Y-87376683D01*
X213559781Y-88013336D01*
X212909692Y-88013336D01*
X212909692Y-84422340D01*
X212183120Y-84422340D01*
X212183120Y-86479581D01*
X211062776Y-84422340D01*
X210115546Y-84422340D01*
X210115546Y-88013336D01*
X209764664Y-88013336D01*
X208738887Y-86474411D01*
X209188989Y-86057383D01*
X209347636Y-85408844D01*
X209244797Y-84928771D01*
X208970398Y-84615094D01*
X208602976Y-84458514D01*
X208134272Y-84422340D01*
X206805670Y-84422340D01*
X206805670Y-88013336D01*
X206359704Y-88013336D01*
X205224887Y-84422340D01*
X204312800Y-84422340D01*
X203177986Y-88013336D01*
X202162544Y-88013336D01*
X202989883Y-84422340D01*
X202183214Y-84422340D01*
X201687636Y-86894024D01*
X201149169Y-84422340D01*
X200359036Y-84422340D01*
X199793696Y-86894024D01*
X199320856Y-84422340D01*
X198493517Y-84422340D01*
X197570058Y-84422340D01*
X197570058Y-80730061D01*
G37*
%TD*%
D10*
%TO.C,J1*%
X227121946Y-85090000D03*
D11*
X227121946Y-87630000D03*
X229661946Y-85090000D03*
X229661946Y-87630000D03*
X232201946Y-85090000D03*
X232201946Y-87630000D03*
%TD*%
M02*
