%TF.GenerationSoftware,KiCad,Pcbnew,(6.0.4-0)*%
%TF.CreationDate,2022-05-11T16:37:37-04:00*%
%TF.ProjectId,Master_Warning,4d617374-6572-45f5-9761-726e696e672e,v02*%
%TF.SameCoordinates,Original*%
%TF.FileFunction,Copper,L2,Bot*%
%TF.FilePolarity,Positive*%
%FSLAX46Y46*%
G04 Gerber Fmt 4.6, Leading zero omitted, Abs format (unit mm)*
G04 Created by KiCad (PCBNEW (6.0.4-0)) date 2022-05-11 16:37:37*
%MOMM*%
%LPD*%
G01*
G04 APERTURE LIST*
G04 Aperture macros list*
%AMRoundRect*
0 Rectangle with rounded corners*
0 $1 Rounding radius*
0 $2 $3 $4 $5 $6 $7 $8 $9 X,Y pos of 4 corners*
0 Add a 4 corners polygon primitive as box body*
4,1,4,$2,$3,$4,$5,$6,$7,$8,$9,$2,$3,0*
0 Add four circle primitives for the rounded corners*
1,1,$1+$1,$2,$3*
1,1,$1+$1,$4,$5*
1,1,$1+$1,$6,$7*
1,1,$1+$1,$8,$9*
0 Add four rect primitives between the rounded corners*
20,1,$1+$1,$2,$3,$4,$5,0*
20,1,$1+$1,$4,$5,$6,$7,0*
20,1,$1+$1,$6,$7,$8,$9,0*
20,1,$1+$1,$8,$9,$2,$3,0*%
G04 Aperture macros list end*
%ADD10C,0.100000*%
%TA.AperFunction,NonConductor*%
%ADD11C,0.100000*%
%TD*%
%ADD12C,0.200000*%
%TA.AperFunction,NonConductor*%
%ADD13C,0.200000*%
%TD*%
%TA.AperFunction,SMDPad,CuDef*%
%ADD14R,2.600000X1.400000*%
%TD*%
%TA.AperFunction,SMDPad,CuDef*%
%ADD15RoundRect,0.249998X-0.312502X-0.625002X0.312502X-0.625002X0.312502X0.625002X-0.312502X0.625002X0*%
%TD*%
%TA.AperFunction,ComponentPad*%
%ADD16R,1.700000X1.700000*%
%TD*%
%TA.AperFunction,ComponentPad*%
%ADD17O,1.700000X1.700000*%
%TD*%
%TA.AperFunction,Conductor*%
%ADD18C,0.254000*%
%TD*%
G04 APERTURE END LIST*
D10*
D11*
X207137676Y-80061053D02*
X207185295Y-80013434D01*
X207280533Y-79965815D01*
X207375771Y-79965815D01*
X207471009Y-80013434D01*
X207518628Y-80061053D01*
X207566247Y-80156291D01*
X207566247Y-80251529D01*
X207518628Y-80346767D01*
X207471009Y-80394386D01*
X207375771Y-80442005D01*
X207280533Y-80442005D01*
X207185295Y-80394386D01*
X207137676Y-80346767D01*
X207137676Y-79965815D02*
X207137676Y-80346767D01*
X207090057Y-80394386D01*
X207042438Y-80394386D01*
X206947200Y-80346767D01*
X206899581Y-80251529D01*
X206899581Y-80013434D01*
X206994819Y-79870577D01*
X207137676Y-79775339D01*
X207328152Y-79727720D01*
X207518628Y-79775339D01*
X207661485Y-79870577D01*
X207756724Y-80013434D01*
X207804343Y-80203910D01*
X207756724Y-80394386D01*
X207661485Y-80537243D01*
X207518628Y-80632482D01*
X207328152Y-80680101D01*
X207137676Y-80632482D01*
X206994819Y-80537243D01*
X206042438Y-80489624D02*
X206137676Y-80537243D01*
X206328152Y-80537243D01*
X206423390Y-80489624D01*
X206471009Y-80442005D01*
X206518628Y-80346767D01*
X206518628Y-80061053D01*
X206471009Y-79965815D01*
X206423390Y-79918196D01*
X206328152Y-79870577D01*
X206137676Y-79870577D01*
X206042438Y-79918196D01*
X205709104Y-79870577D02*
X205471009Y-80537243D01*
X205232914Y-79870577D02*
X205471009Y-80537243D01*
X205566247Y-80775339D01*
X205613866Y-80822958D01*
X205709104Y-80870577D01*
X204851962Y-80537243D02*
X204851962Y-79537243D01*
X204851962Y-79918196D02*
X204756724Y-79870577D01*
X204566247Y-79870577D01*
X204471009Y-79918196D01*
X204423390Y-79965815D01*
X204375771Y-80061053D01*
X204375771Y-80346767D01*
X204423390Y-80442005D01*
X204471009Y-80489624D01*
X204566247Y-80537243D01*
X204756724Y-80537243D01*
X204851962Y-80489624D01*
X203566247Y-80489624D02*
X203661485Y-80537243D01*
X203851962Y-80537243D01*
X203947200Y-80489624D01*
X203994819Y-80394386D01*
X203994819Y-80013434D01*
X203947200Y-79918196D01*
X203851962Y-79870577D01*
X203661485Y-79870577D01*
X203566247Y-79918196D01*
X203518628Y-80013434D01*
X203518628Y-80108672D01*
X203994819Y-80203910D01*
X203090057Y-80537243D02*
X203090057Y-79870577D01*
X203090057Y-80061053D02*
X203042438Y-79965815D01*
X202994819Y-79918196D01*
X202899581Y-79870577D01*
X202804343Y-79870577D01*
X202613866Y-79870577D02*
X202232914Y-79870577D01*
X202471009Y-79537243D02*
X202471009Y-80394386D01*
X202423390Y-80489624D01*
X202328152Y-80537243D01*
X202232914Y-80537243D01*
X201518628Y-80489624D02*
X201613866Y-80537243D01*
X201804343Y-80537243D01*
X201899581Y-80489624D01*
X201947200Y-80394386D01*
X201947200Y-80013434D01*
X201899581Y-79918196D01*
X201804343Y-79870577D01*
X201613866Y-79870577D01*
X201518628Y-79918196D01*
X201471009Y-80013434D01*
X201471009Y-80108672D01*
X201947200Y-80203910D01*
X201090057Y-80489624D02*
X200994819Y-80537243D01*
X200804343Y-80537243D01*
X200709104Y-80489624D01*
X200661485Y-80394386D01*
X200661485Y-80346767D01*
X200709104Y-80251529D01*
X200804343Y-80203910D01*
X200947200Y-80203910D01*
X201042438Y-80156291D01*
X201090057Y-80061053D01*
X201090057Y-80013434D01*
X201042438Y-79918196D01*
X200947200Y-79870577D01*
X200804343Y-79870577D01*
X200709104Y-79918196D01*
X200375771Y-79870577D02*
X199994819Y-79870577D01*
X200232914Y-79537243D02*
X200232914Y-80394386D01*
X200185295Y-80489624D01*
X200090057Y-80537243D01*
X199994819Y-80537243D01*
X199661485Y-79870577D02*
X199661485Y-80870577D01*
X199661485Y-79918196D02*
X199566247Y-79870577D01*
X199375771Y-79870577D01*
X199280533Y-79918196D01*
X199232914Y-79965815D01*
X199185295Y-80061053D01*
X199185295Y-80346767D01*
X199232914Y-80442005D01*
X199280533Y-80489624D01*
X199375771Y-80537243D01*
X199566247Y-80537243D01*
X199661485Y-80489624D01*
X198756724Y-80537243D02*
X198756724Y-79870577D01*
X198756724Y-79537243D02*
X198804343Y-79584863D01*
X198756724Y-79632482D01*
X198709104Y-79584863D01*
X198756724Y-79537243D01*
X198756724Y-79632482D01*
X198137676Y-80537243D02*
X198232914Y-80489624D01*
X198280533Y-80394386D01*
X198280533Y-79537243D01*
X197613866Y-80537243D02*
X197709104Y-80489624D01*
X197756724Y-80442005D01*
X197804343Y-80346767D01*
X197804343Y-80061053D01*
X197756724Y-79965815D01*
X197709104Y-79918196D01*
X197613866Y-79870577D01*
X197471009Y-79870577D01*
X197375771Y-79918196D01*
X197328152Y-79965815D01*
X197280533Y-80061053D01*
X197280533Y-80346767D01*
X197328152Y-80442005D01*
X197375771Y-80489624D01*
X197471009Y-80537243D01*
X197613866Y-80537243D01*
X196994819Y-79870577D02*
X196613866Y-79870577D01*
X196851962Y-79537243D02*
X196851962Y-80394386D01*
X196804343Y-80489624D01*
X196709104Y-80537243D01*
X196613866Y-80537243D01*
D12*
D13*
X212306739Y-92883247D02*
X212306739Y-92359438D01*
X212354358Y-92264200D01*
X212449596Y-92216581D01*
X212640073Y-92216581D01*
X212735311Y-92264200D01*
X212306739Y-92835628D02*
X212401977Y-92883247D01*
X212640073Y-92883247D01*
X212735311Y-92835628D01*
X212782930Y-92740390D01*
X212782930Y-92645152D01*
X212735311Y-92549914D01*
X212640073Y-92502295D01*
X212401977Y-92502295D01*
X212306739Y-92454676D01*
X211449596Y-92835628D02*
X211544834Y-92883247D01*
X211735311Y-92883247D01*
X211830549Y-92835628D01*
X211878168Y-92740390D01*
X211878168Y-92359438D01*
X211830549Y-92264200D01*
X211735311Y-92216581D01*
X211544834Y-92216581D01*
X211449596Y-92264200D01*
X211401977Y-92359438D01*
X211401977Y-92454676D01*
X211878168Y-92549914D01*
X210973406Y-92883247D02*
X210973406Y-92216581D01*
X210973406Y-92407057D02*
X210925787Y-92311819D01*
X210878168Y-92264200D01*
X210782930Y-92216581D01*
X210687692Y-92216581D01*
X210211501Y-92883247D02*
X210306739Y-92835628D01*
X210354358Y-92788009D01*
X210401977Y-92692771D01*
X210401977Y-92407057D01*
X210354358Y-92311819D01*
X210306739Y-92264200D01*
X210211501Y-92216581D01*
X210068644Y-92216581D01*
X209973406Y-92264200D01*
X209925787Y-92311819D01*
X209878168Y-92407057D01*
X209878168Y-92692771D01*
X209925787Y-92788009D01*
X209973406Y-92835628D01*
X210068644Y-92883247D01*
X210211501Y-92883247D01*
X209497215Y-92835628D02*
X209401977Y-92883247D01*
X209211501Y-92883247D01*
X209116263Y-92835628D01*
X209068644Y-92740390D01*
X209068644Y-92692771D01*
X209116263Y-92597533D01*
X209211501Y-92549914D01*
X209354358Y-92549914D01*
X209449596Y-92502295D01*
X209497215Y-92407057D01*
X209497215Y-92359438D01*
X209449596Y-92264200D01*
X209354358Y-92216581D01*
X209211501Y-92216581D01*
X209116263Y-92264200D01*
X208640073Y-92216581D02*
X208640073Y-93216581D01*
X208640073Y-92264200D02*
X208544834Y-92216581D01*
X208354358Y-92216581D01*
X208259120Y-92264200D01*
X208211501Y-92311819D01*
X208163882Y-92407057D01*
X208163882Y-92692771D01*
X208211501Y-92788009D01*
X208259120Y-92835628D01*
X208354358Y-92883247D01*
X208544834Y-92883247D01*
X208640073Y-92835628D01*
X207306739Y-92883247D02*
X207306739Y-92359438D01*
X207354358Y-92264200D01*
X207449596Y-92216581D01*
X207640073Y-92216581D01*
X207735311Y-92264200D01*
X207306739Y-92835628D02*
X207401977Y-92883247D01*
X207640073Y-92883247D01*
X207735311Y-92835628D01*
X207782930Y-92740390D01*
X207782930Y-92645152D01*
X207735311Y-92549914D01*
X207640073Y-92502295D01*
X207401977Y-92502295D01*
X207306739Y-92454676D01*
X206401977Y-92835628D02*
X206497215Y-92883247D01*
X206687692Y-92883247D01*
X206782930Y-92835628D01*
X206830549Y-92788009D01*
X206878168Y-92692771D01*
X206878168Y-92407057D01*
X206830549Y-92311819D01*
X206782930Y-92264200D01*
X206687692Y-92216581D01*
X206497215Y-92216581D01*
X206401977Y-92264200D01*
X205592454Y-92835628D02*
X205687692Y-92883247D01*
X205878168Y-92883247D01*
X205973406Y-92835628D01*
X206021025Y-92740390D01*
X206021025Y-92359438D01*
X205973406Y-92264200D01*
X205878168Y-92216581D01*
X205687692Y-92216581D01*
X205592454Y-92264200D01*
X205544834Y-92359438D01*
X205544834Y-92454676D01*
X206021025Y-92549914D01*
X204449596Y-92216581D02*
X204211501Y-92883247D01*
X203973406Y-92216581D01*
X203592454Y-92883247D02*
X203592454Y-92216581D01*
X203592454Y-91883247D02*
X203640073Y-91930867D01*
X203592454Y-91978486D01*
X203544834Y-91930867D01*
X203592454Y-91883247D01*
X203592454Y-91978486D01*
X202973406Y-92883247D02*
X203068644Y-92835628D01*
X203116263Y-92740390D01*
X203116263Y-91883247D01*
X202449596Y-92883247D02*
X202544834Y-92835628D01*
X202592454Y-92740390D01*
X202592454Y-91883247D01*
X201640073Y-92883247D02*
X201640073Y-92359438D01*
X201687692Y-92264200D01*
X201782930Y-92216581D01*
X201973406Y-92216581D01*
X202068644Y-92264200D01*
X201640073Y-92835628D02*
X201735311Y-92883247D01*
X201973406Y-92883247D01*
X202068644Y-92835628D01*
X202116263Y-92740390D01*
X202116263Y-92645152D01*
X202068644Y-92549914D01*
X201973406Y-92502295D01*
X201735311Y-92502295D01*
X201640073Y-92454676D01*
X200735311Y-92216581D02*
X200735311Y-93026105D01*
X200782930Y-93121343D01*
X200830549Y-93168962D01*
X200925787Y-93216581D01*
X201068644Y-93216581D01*
X201163882Y-93168962D01*
X200735311Y-92835628D02*
X200830549Y-92883247D01*
X201021025Y-92883247D01*
X201116263Y-92835628D01*
X201163882Y-92788009D01*
X201211501Y-92692771D01*
X201211501Y-92407057D01*
X201163882Y-92311819D01*
X201116263Y-92264200D01*
X201021025Y-92216581D01*
X200830549Y-92216581D01*
X200735311Y-92264200D01*
X199878168Y-92835628D02*
X199973406Y-92883247D01*
X200163882Y-92883247D01*
X200259120Y-92835628D01*
X200306739Y-92740390D01*
X200306739Y-92359438D01*
X200259120Y-92264200D01*
X200163882Y-92216581D01*
X199973406Y-92216581D01*
X199878168Y-92264200D01*
X199830549Y-92359438D01*
X199830549Y-92454676D01*
X200306739Y-92549914D01*
X198735311Y-92216581D02*
X198497215Y-92883247D01*
X198259120Y-92216581D01*
X197687692Y-91883247D02*
X197592454Y-91883247D01*
X197497215Y-91930867D01*
X197449596Y-91978486D01*
X197401977Y-92073724D01*
X197354358Y-92264200D01*
X197354358Y-92502295D01*
X197401977Y-92692771D01*
X197449596Y-92788009D01*
X197497215Y-92835628D01*
X197592454Y-92883247D01*
X197687692Y-92883247D01*
X197782930Y-92835628D01*
X197830549Y-92788009D01*
X197878168Y-92692771D01*
X197925787Y-92502295D01*
X197925787Y-92264200D01*
X197878168Y-92073724D01*
X197830549Y-91978486D01*
X197782930Y-91930867D01*
X197687692Y-91883247D01*
X196973406Y-91978486D02*
X196925787Y-91930867D01*
X196830549Y-91883247D01*
X196592454Y-91883247D01*
X196497215Y-91930867D01*
X196449596Y-91978486D01*
X196401977Y-92073724D01*
X196401977Y-92168962D01*
X196449596Y-92311819D01*
X197021025Y-92883247D01*
X196401977Y-92883247D01*
D14*
%TO.P,D1,1,K*%
%TO.N,GND*%
X205019401Y-88993178D03*
%TO.P,D1,2,A*%
%TO.N,Net-(D1-Pad2)*%
X205019401Y-83793178D03*
%TD*%
%TO.P,D2,1,K*%
%TO.N,GND*%
X216416997Y-88925978D03*
%TO.P,D2,2,A*%
%TO.N,Net-(D2-Pad2)*%
X216416997Y-83725978D03*
%TD*%
D15*
%TO.P,R1,1*%
%TO.N,Net-(D1-Pad2)*%
X229349849Y-81470612D03*
%TO.P,R1,2*%
%TO.N,Net-(J1-Pad1)*%
X232274849Y-81470612D03*
%TD*%
%TO.P,R2,1*%
%TO.N,Net-(D2-Pad2)*%
X229001537Y-91535306D03*
%TO.P,R2,2*%
%TO.N,Net-(J1-Pad1)*%
X231926537Y-91535306D03*
%TD*%
D16*
%TO.P,J1,1,Pin_1*%
%TO.N,Net-(J1-Pad1)*%
X228131712Y-85078461D03*
D17*
%TO.P,J1,2,Pin_2*%
%TO.N,GND*%
X228131712Y-87618461D03*
%TO.P,J1,3,Pin_3*%
%TO.N,unconnected-(J1-Pad3)*%
X230671712Y-85078461D03*
%TO.P,J1,4,Pin_4*%
%TO.N,unconnected-(J1-Pad4)*%
X230671712Y-87618461D03*
%TO.P,J1,5,Pin_5*%
%TO.N,unconnected-(J1-Pad5)*%
X233211712Y-85078461D03*
%TO.P,J1,6,Pin_6*%
%TO.N,unconnected-(J1-Pad6)*%
X233211712Y-87618461D03*
%TD*%
D18*
%TO.N,Net-(D1-Pad2)*%
X205019401Y-83793178D02*
X206113112Y-82699467D01*
X206113112Y-82699467D02*
X228120994Y-82699467D01*
X228120994Y-82699467D02*
X229349849Y-81470612D01*
%TO.N,Net-(D2-Pad2)*%
X229308223Y-87068223D02*
X229308223Y-91228620D01*
X222575390Y-83725978D02*
X225209412Y-86360000D01*
X225209412Y-86360000D02*
X228600000Y-86360000D01*
X229308223Y-91228620D02*
X229001537Y-91535306D01*
X228600000Y-86360000D02*
X229308223Y-87068223D01*
X216416997Y-83725978D02*
X222575390Y-83725978D01*
%TO.N,Net-(J1-Pad1)*%
X231739561Y-81470612D02*
X232274849Y-81470612D01*
X231926537Y-87209447D02*
X231159040Y-86441950D01*
X231159040Y-86441950D02*
X229495201Y-86441950D01*
X229495201Y-86441950D02*
X228131712Y-85078461D01*
X231926537Y-91535306D02*
X231926537Y-87209447D01*
X228131712Y-85078461D02*
X231739561Y-81470612D01*
%TD*%
%TA.AperFunction,Conductor*%
%TO.N,GND*%
G36*
X234936024Y-79275708D02*
G01*
X234982517Y-79329364D01*
X234993903Y-79381706D01*
X234993903Y-93001310D01*
X234973901Y-93069431D01*
X234920245Y-93115924D01*
X234867903Y-93127310D01*
X232513148Y-93127310D01*
X232445027Y-93107308D01*
X232398534Y-93053652D01*
X232388430Y-92983378D01*
X232417924Y-92918798D01*
X232473271Y-92881787D01*
X232491457Y-92875719D01*
X232562984Y-92851856D01*
X232713386Y-92758785D01*
X232838343Y-92633610D01*
X232842184Y-92627379D01*
X232927312Y-92489276D01*
X232927313Y-92489274D01*
X232931152Y-92483046D01*
X232986834Y-92315169D01*
X232997537Y-92210708D01*
X232997537Y-90859904D01*
X232986563Y-90754138D01*
X232930587Y-90586359D01*
X232837516Y-90435957D01*
X232712341Y-90311000D01*
X232621921Y-90255264D01*
X232574428Y-90202491D01*
X232562037Y-90148004D01*
X232562037Y-89007619D01*
X232582039Y-88939498D01*
X232635695Y-88893005D01*
X232705969Y-88882901D01*
X232732986Y-88889909D01*
X232784531Y-88909592D01*
X232831404Y-88927491D01*
X232836472Y-88928522D01*
X232836475Y-88928523D01*
X232931574Y-88947871D01*
X233050309Y-88972028D01*
X233055484Y-88972218D01*
X233055486Y-88972218D01*
X233268385Y-88980025D01*
X233268389Y-88980025D01*
X233273549Y-88980214D01*
X233278669Y-88979558D01*
X233278671Y-88979558D01*
X233490000Y-88952486D01*
X233490001Y-88952486D01*
X233495128Y-88951829D01*
X233500078Y-88950344D01*
X233704141Y-88889122D01*
X233704146Y-88889120D01*
X233709096Y-88887635D01*
X233909706Y-88789357D01*
X234091572Y-88659634D01*
X234249808Y-88501950D01*
X234380165Y-88320538D01*
X234448978Y-88181306D01*
X234476848Y-88124914D01*
X234476849Y-88124912D01*
X234479142Y-88120272D01*
X234524091Y-87972329D01*
X234542577Y-87911484D01*
X234542577Y-87911482D01*
X234544082Y-87906530D01*
X234573241Y-87685051D01*
X234574868Y-87618461D01*
X234556564Y-87395822D01*
X234502143Y-87179163D01*
X234413066Y-86974301D01*
X234353378Y-86882038D01*
X234294534Y-86791078D01*
X234294532Y-86791075D01*
X234291726Y-86786738D01*
X234141382Y-86621512D01*
X234137331Y-86618313D01*
X234137327Y-86618309D01*
X233970126Y-86486261D01*
X233970122Y-86486259D01*
X233966071Y-86483059D01*
X233924765Y-86460257D01*
X233874796Y-86409825D01*
X233860024Y-86340382D01*
X233885140Y-86273977D01*
X233912492Y-86247370D01*
X233956315Y-86216111D01*
X234091572Y-86119634D01*
X234249808Y-85961950D01*
X234380165Y-85780538D01*
X234401032Y-85738318D01*
X234476848Y-85584914D01*
X234476849Y-85584912D01*
X234479142Y-85580272D01*
X234544082Y-85366530D01*
X234573241Y-85145051D01*
X234574868Y-85078461D01*
X234556564Y-84855822D01*
X234502143Y-84639163D01*
X234413066Y-84434301D01*
X234291726Y-84246738D01*
X234141382Y-84081512D01*
X234137331Y-84078313D01*
X234137327Y-84078309D01*
X233970126Y-83946261D01*
X233970122Y-83946259D01*
X233966071Y-83943059D01*
X233770501Y-83835099D01*
X233765632Y-83833375D01*
X233765628Y-83833373D01*
X233564799Y-83762256D01*
X233564795Y-83762255D01*
X233559924Y-83760530D01*
X233554831Y-83759623D01*
X233554828Y-83759622D01*
X233345085Y-83722261D01*
X233345079Y-83722260D01*
X233339996Y-83721355D01*
X233266164Y-83720453D01*
X233121793Y-83718689D01*
X233121791Y-83718689D01*
X233116623Y-83718626D01*
X232895803Y-83752416D01*
X232683468Y-83821818D01*
X232485319Y-83924968D01*
X232481186Y-83928071D01*
X232481183Y-83928073D01*
X232310812Y-84055991D01*
X232306677Y-84059096D01*
X232152341Y-84220599D01*
X232044913Y-84378082D01*
X231990005Y-84423082D01*
X231919480Y-84431253D01*
X231855733Y-84399999D01*
X231835036Y-84375515D01*
X231754534Y-84251078D01*
X231754532Y-84251075D01*
X231751726Y-84246738D01*
X231601382Y-84081512D01*
X231597331Y-84078313D01*
X231597327Y-84078309D01*
X231430126Y-83946261D01*
X231430122Y-83946259D01*
X231426071Y-83943059D01*
X231230501Y-83835099D01*
X231225632Y-83833375D01*
X231225628Y-83833373D01*
X231024799Y-83762256D01*
X231024795Y-83762255D01*
X231019924Y-83760530D01*
X231014831Y-83759623D01*
X231014828Y-83759622D01*
X230805085Y-83722261D01*
X230805079Y-83722260D01*
X230799996Y-83721355D01*
X230691517Y-83720030D01*
X230623647Y-83699197D01*
X230577813Y-83644978D01*
X230568568Y-83574585D01*
X230598847Y-83510370D01*
X230603962Y-83504944D01*
X231372184Y-82736722D01*
X231434496Y-82702696D01*
X231505311Y-82707761D01*
X231527393Y-82718556D01*
X231545824Y-82729917D01*
X231632447Y-82783312D01*
X231639609Y-82787727D01*
X231719352Y-82814176D01*
X231800958Y-82841244D01*
X231800960Y-82841244D01*
X231807486Y-82843409D01*
X231814322Y-82844109D01*
X231814325Y-82844110D01*
X231857378Y-82848521D01*
X231911947Y-82854112D01*
X232637751Y-82854112D01*
X232640997Y-82853775D01*
X232641001Y-82853775D01*
X232670934Y-82850669D01*
X232743517Y-82843138D01*
X232911296Y-82787162D01*
X233061698Y-82694091D01*
X233186655Y-82568916D01*
X233279464Y-82418352D01*
X233335146Y-82250475D01*
X233336360Y-82238633D01*
X233343315Y-82170748D01*
X233345849Y-82146014D01*
X233345849Y-80795210D01*
X233334875Y-80689444D01*
X233278899Y-80521665D01*
X233185828Y-80371263D01*
X233060653Y-80246306D01*
X233054422Y-80242465D01*
X232916319Y-80157337D01*
X232916317Y-80157336D01*
X232910089Y-80153497D01*
X232749608Y-80100268D01*
X232748740Y-80099980D01*
X232748738Y-80099980D01*
X232742212Y-80097815D01*
X232735376Y-80097115D01*
X232735373Y-80097114D01*
X232692320Y-80092703D01*
X232637751Y-80087112D01*
X231911947Y-80087112D01*
X231908701Y-80087449D01*
X231908697Y-80087449D01*
X231878764Y-80090555D01*
X231806181Y-80098086D01*
X231638402Y-80154062D01*
X231488000Y-80247133D01*
X231363043Y-80372308D01*
X231359203Y-80378538D01*
X231359202Y-80378539D01*
X231274813Y-80515444D01*
X231270234Y-80522872D01*
X231214552Y-80690749D01*
X231203849Y-80795210D01*
X231203849Y-81055402D01*
X231183847Y-81123523D01*
X231166944Y-81144497D01*
X230635944Y-81675497D01*
X230573632Y-81709523D01*
X230502817Y-81704458D01*
X230445981Y-81661911D01*
X230421170Y-81595391D01*
X230420849Y-81586402D01*
X230420849Y-80795210D01*
X230409875Y-80689444D01*
X230353899Y-80521665D01*
X230260828Y-80371263D01*
X230135653Y-80246306D01*
X230129422Y-80242465D01*
X229991319Y-80157337D01*
X229991317Y-80157336D01*
X229985089Y-80153497D01*
X229824608Y-80100268D01*
X229823740Y-80099980D01*
X229823738Y-80099980D01*
X229817212Y-80097815D01*
X229810376Y-80097115D01*
X229810373Y-80097114D01*
X229767320Y-80092703D01*
X229712751Y-80087112D01*
X228986947Y-80087112D01*
X228983701Y-80087449D01*
X228983697Y-80087449D01*
X228953764Y-80090555D01*
X228881181Y-80098086D01*
X228713402Y-80154062D01*
X228563000Y-80247133D01*
X228438043Y-80372308D01*
X228434203Y-80378538D01*
X228434202Y-80378539D01*
X228349813Y-80515444D01*
X228345234Y-80522872D01*
X228289552Y-80690749D01*
X228278849Y-80795210D01*
X228278849Y-81590689D01*
X228258847Y-81658810D01*
X228241944Y-81679784D01*
X227894666Y-82027062D01*
X227832354Y-82061088D01*
X227805571Y-82063967D01*
X206192144Y-82063967D01*
X206180905Y-82063437D01*
X206173393Y-82061758D01*
X206165468Y-82062007D01*
X206165467Y-82062007D01*
X206105082Y-82063905D01*
X206101124Y-82063967D01*
X206073129Y-82063967D01*
X206069195Y-82064464D01*
X206069193Y-82064464D01*
X206069106Y-82064475D01*
X206057272Y-82065407D01*
X206012907Y-82066802D01*
X206005294Y-82069014D01*
X206005293Y-82069014D01*
X205993364Y-82072480D01*
X205974000Y-82076490D01*
X205961672Y-82078047D01*
X205961670Y-82078047D01*
X205953813Y-82079040D01*
X205946449Y-82081956D01*
X205946444Y-82081957D01*
X205912556Y-82095374D01*
X205901327Y-82099219D01*
X205884647Y-82104065D01*
X205858719Y-82111598D01*
X205851892Y-82115636D01*
X205851889Y-82115637D01*
X205841206Y-82121955D01*
X205823448Y-82130655D01*
X205811897Y-82135228D01*
X205811891Y-82135232D01*
X205804524Y-82138148D01*
X205798113Y-82142806D01*
X205798111Y-82142807D01*
X205768624Y-82164231D01*
X205758702Y-82170748D01*
X205727344Y-82189293D01*
X205727340Y-82189296D01*
X205720514Y-82193333D01*
X205706130Y-82207717D01*
X205691096Y-82220558D01*
X205674625Y-82232525D01*
X205669572Y-82238633D01*
X205646335Y-82266722D01*
X205638345Y-82275502D01*
X205366074Y-82547773D01*
X205303762Y-82581799D01*
X205276979Y-82584678D01*
X203671267Y-82584678D01*
X203609085Y-82591433D01*
X203472696Y-82642563D01*
X203356140Y-82729917D01*
X203268786Y-82846473D01*
X203217656Y-82982862D01*
X203210901Y-83045044D01*
X203210901Y-84541312D01*
X203217656Y-84603494D01*
X203258134Y-84711467D01*
X203267307Y-84735937D01*
X203275316Y-84778666D01*
X203279717Y-85148369D01*
X203313007Y-87944814D01*
X203293817Y-88013168D01*
X203287843Y-88021878D01*
X203274612Y-88039532D01*
X203266079Y-88055119D01*
X203220923Y-88175572D01*
X203217296Y-88190827D01*
X203211770Y-88241692D01*
X203211401Y-88248506D01*
X203211401Y-88721063D01*
X203215876Y-88736302D01*
X203217266Y-88737507D01*
X203224949Y-88739178D01*
X206809285Y-88739178D01*
X206824524Y-88734703D01*
X206825729Y-88733313D01*
X206827400Y-88725630D01*
X206827400Y-88248509D01*
X206827030Y-88241688D01*
X206821506Y-88190826D01*
X206817880Y-88175574D01*
X206772725Y-88055124D01*
X206764187Y-88039529D01*
X206687686Y-87937454D01*
X206675125Y-87924893D01*
X206583496Y-87856221D01*
X206540981Y-87799362D01*
X206533064Y-87756087D01*
X206518240Y-85043382D01*
X206537869Y-84975154D01*
X206568673Y-84941869D01*
X206655771Y-84876593D01*
X206682662Y-84856439D01*
X206770016Y-84739883D01*
X206821146Y-84603494D01*
X206827901Y-84541312D01*
X206827901Y-83460967D01*
X206847903Y-83392846D01*
X206901559Y-83346353D01*
X206953901Y-83334967D01*
X214482497Y-83334967D01*
X214550618Y-83354969D01*
X214597111Y-83408625D01*
X214608497Y-83460967D01*
X214608497Y-84474112D01*
X214615252Y-84536294D01*
X214618026Y-84543693D01*
X214664903Y-84668737D01*
X214672912Y-84711466D01*
X214678113Y-85148369D01*
X214710603Y-87877614D01*
X214691413Y-87945968D01*
X214685439Y-87954678D01*
X214672208Y-87972332D01*
X214663675Y-87987919D01*
X214618519Y-88108372D01*
X214614892Y-88123627D01*
X214609366Y-88174492D01*
X214608997Y-88181306D01*
X214608997Y-88653863D01*
X214613472Y-88669102D01*
X214614862Y-88670307D01*
X214622545Y-88671978D01*
X218206881Y-88671978D01*
X218222120Y-88667503D01*
X218223325Y-88666113D01*
X218224996Y-88658430D01*
X218224996Y-88181309D01*
X218224626Y-88174488D01*
X218219102Y-88123626D01*
X218215476Y-88108374D01*
X218170321Y-87987924D01*
X218161783Y-87972329D01*
X218097403Y-87886427D01*
X226799969Y-87886427D01*
X226830277Y-88020907D01*
X226833357Y-88030736D01*
X226913482Y-88228064D01*
X226918125Y-88237255D01*
X227029406Y-88418849D01*
X227035489Y-88427160D01*
X227174925Y-88588128D01*
X227182292Y-88595344D01*
X227346146Y-88731377D01*
X227354593Y-88737292D01*
X227538468Y-88844740D01*
X227547754Y-88849190D01*
X227746713Y-88925164D01*
X227756611Y-88928040D01*
X227859962Y-88949067D01*
X227874011Y-88947871D01*
X227877712Y-88937526D01*
X227877712Y-87890576D01*
X227873237Y-87875337D01*
X227871847Y-87874132D01*
X227864164Y-87872461D01*
X226814937Y-87872461D01*
X226801406Y-87876434D01*
X226799969Y-87886427D01*
X218097403Y-87886427D01*
X218085282Y-87870254D01*
X218072721Y-87857693D01*
X217981092Y-87789021D01*
X217938577Y-87732162D01*
X217930660Y-87688887D01*
X217915836Y-84976182D01*
X217935465Y-84907954D01*
X217966269Y-84874669D01*
X217983414Y-84861820D01*
X218080258Y-84789239D01*
X218167612Y-84672683D01*
X218218742Y-84536294D01*
X218225497Y-84474112D01*
X218227220Y-84474299D01*
X218248582Y-84413769D01*
X218304654Y-84370222D01*
X218350773Y-84361478D01*
X222259968Y-84361478D01*
X222328089Y-84381480D01*
X222349063Y-84398383D01*
X223530951Y-85580272D01*
X224704162Y-86753483D01*
X224711738Y-86761809D01*
X224715859Y-86768303D01*
X224735490Y-86786738D01*
X224765677Y-86815085D01*
X224768519Y-86817840D01*
X224788318Y-86837639D01*
X224791449Y-86840068D01*
X224791454Y-86840072D01*
X224791540Y-86840139D01*
X224800565Y-86847847D01*
X224832906Y-86878217D01*
X224839851Y-86882035D01*
X224839855Y-86882038D01*
X224850746Y-86888026D01*
X224867267Y-86898878D01*
X224883346Y-86911350D01*
X224924067Y-86928971D01*
X224934723Y-86934192D01*
X224966657Y-86951748D01*
X224966663Y-86951750D01*
X224973609Y-86955569D01*
X224981284Y-86957540D01*
X224981290Y-86957542D01*
X224993323Y-86960631D01*
X225012025Y-86967034D01*
X225030704Y-86975117D01*
X225038530Y-86976357D01*
X225038535Y-86976358D01*
X225074532Y-86982060D01*
X225086152Y-86984466D01*
X225121449Y-86993528D01*
X225129130Y-86995500D01*
X225149478Y-86995500D01*
X225169190Y-86997051D01*
X225189292Y-87000235D01*
X225233467Y-86996059D01*
X225245326Y-86995500D01*
X226729448Y-86995500D01*
X226797569Y-87015502D01*
X226844062Y-87069158D01*
X226854166Y-87139432D01*
X226850865Y-87155172D01*
X226796101Y-87352644D01*
X226797624Y-87361068D01*
X226810004Y-87364461D01*
X228259712Y-87364461D01*
X228327833Y-87384463D01*
X228374326Y-87438119D01*
X228385712Y-87490461D01*
X228385712Y-88936978D01*
X228389776Y-88950820D01*
X228403190Y-88952854D01*
X228409896Y-88951995D01*
X228419974Y-88949853D01*
X228510515Y-88922689D01*
X228581511Y-88922272D01*
X228641461Y-88960305D01*
X228671333Y-89024711D01*
X228672723Y-89043375D01*
X228672723Y-90034666D01*
X228652721Y-90102787D01*
X228599065Y-90149280D01*
X228559728Y-90159993D01*
X228553033Y-90160688D01*
X228532869Y-90162780D01*
X228365090Y-90218756D01*
X228214688Y-90311827D01*
X228089731Y-90437002D01*
X228085891Y-90443232D01*
X228085890Y-90443233D01*
X228001501Y-90580138D01*
X227996922Y-90587566D01*
X227941240Y-90755443D01*
X227930537Y-90859904D01*
X227930537Y-92210708D01*
X227941511Y-92316474D01*
X227997487Y-92484253D01*
X228090558Y-92634655D01*
X228215733Y-92759612D01*
X228221963Y-92763452D01*
X228221964Y-92763453D01*
X228359135Y-92848006D01*
X228366297Y-92852421D01*
X228445082Y-92878553D01*
X228454622Y-92881717D01*
X228512982Y-92922148D01*
X228540219Y-92987712D01*
X228527686Y-93057593D01*
X228479361Y-93109605D01*
X228414955Y-93127310D01*
X213707907Y-93127310D01*
X213639786Y-93107308D01*
X213593293Y-93053652D01*
X213581907Y-93001310D01*
X213581907Y-90967367D01*
X196248300Y-90967367D01*
X196180179Y-90947365D01*
X196133686Y-90893709D01*
X196122300Y-90841367D01*
X196122300Y-89737847D01*
X203211402Y-89737847D01*
X203211772Y-89744668D01*
X203217296Y-89795530D01*
X203220922Y-89810782D01*
X203266077Y-89931232D01*
X203274615Y-89946827D01*
X203351116Y-90048902D01*
X203363677Y-90061463D01*
X203465752Y-90137964D01*
X203481347Y-90146502D01*
X203601795Y-90191656D01*
X203617050Y-90195283D01*
X203667915Y-90200809D01*
X203674729Y-90201178D01*
X204747286Y-90201178D01*
X204762525Y-90196703D01*
X204763730Y-90195313D01*
X204765401Y-90187630D01*
X204765401Y-90183062D01*
X205273401Y-90183062D01*
X205277876Y-90198301D01*
X205279266Y-90199506D01*
X205286949Y-90201177D01*
X206364070Y-90201177D01*
X206370891Y-90200807D01*
X206421753Y-90195283D01*
X206437005Y-90191657D01*
X206557455Y-90146502D01*
X206573050Y-90137964D01*
X206675125Y-90061463D01*
X206687686Y-90048902D01*
X206764187Y-89946827D01*
X206772725Y-89931232D01*
X206817879Y-89810784D01*
X206821506Y-89795529D01*
X206827032Y-89744664D01*
X206827401Y-89737850D01*
X206827401Y-89670647D01*
X214608998Y-89670647D01*
X214609368Y-89677468D01*
X214614892Y-89728330D01*
X214618518Y-89743582D01*
X214663673Y-89864032D01*
X214672211Y-89879627D01*
X214748712Y-89981702D01*
X214761273Y-89994263D01*
X214863348Y-90070764D01*
X214878943Y-90079302D01*
X214999391Y-90124456D01*
X215014646Y-90128083D01*
X215065511Y-90133609D01*
X215072325Y-90133978D01*
X216144882Y-90133978D01*
X216160121Y-90129503D01*
X216161326Y-90128113D01*
X216162997Y-90120430D01*
X216162997Y-90115862D01*
X216670997Y-90115862D01*
X216675472Y-90131101D01*
X216676862Y-90132306D01*
X216684545Y-90133977D01*
X217761666Y-90133977D01*
X217768487Y-90133607D01*
X217819349Y-90128083D01*
X217834601Y-90124457D01*
X217955051Y-90079302D01*
X217970646Y-90070764D01*
X218072721Y-89994263D01*
X218085282Y-89981702D01*
X218161783Y-89879627D01*
X218170321Y-89864032D01*
X218215475Y-89743584D01*
X218219102Y-89728329D01*
X218224628Y-89677464D01*
X218224997Y-89670650D01*
X218224997Y-89198093D01*
X218220522Y-89182854D01*
X218219132Y-89181649D01*
X218211449Y-89179978D01*
X216689112Y-89179978D01*
X216673873Y-89184453D01*
X216672668Y-89185843D01*
X216670997Y-89193526D01*
X216670997Y-90115862D01*
X216162997Y-90115862D01*
X216162997Y-89198093D01*
X216158522Y-89182854D01*
X216157132Y-89181649D01*
X216149449Y-89179978D01*
X214627113Y-89179978D01*
X214611874Y-89184453D01*
X214610669Y-89185843D01*
X214608998Y-89193526D01*
X214608998Y-89670647D01*
X206827401Y-89670647D01*
X206827401Y-89265293D01*
X206822926Y-89250054D01*
X206821536Y-89248849D01*
X206813853Y-89247178D01*
X205291516Y-89247178D01*
X205276277Y-89251653D01*
X205275072Y-89253043D01*
X205273401Y-89260726D01*
X205273401Y-90183062D01*
X204765401Y-90183062D01*
X204765401Y-89265293D01*
X204760926Y-89250054D01*
X204759536Y-89248849D01*
X204751853Y-89247178D01*
X203229517Y-89247178D01*
X203214278Y-89251653D01*
X203213073Y-89253043D01*
X203211402Y-89260726D01*
X203211402Y-89737847D01*
X196122300Y-89737847D01*
X196122300Y-81599363D01*
X196142302Y-81531242D01*
X196195958Y-81484749D01*
X196248300Y-81473363D01*
X208553319Y-81473363D01*
X208553319Y-79381706D01*
X208573321Y-79313585D01*
X208626977Y-79267092D01*
X208679319Y-79255706D01*
X234867903Y-79255706D01*
X234936024Y-79275708D01*
G37*
%TD.AperFunction*%
%TD*%
M02*
