%TF.GenerationSoftware,KiCad,Pcbnew,(6.0.4-0)*%
%TF.CreationDate,2022-05-21T11:08:46-04:00*%
%TF.ProjectId,Master_Warning,4d617374-6572-45f5-9761-726e696e672e,v02*%
%TF.SameCoordinates,Original*%
%TF.FileFunction,Copper,L1,Top*%
%TF.FilePolarity,Positive*%
%FSLAX46Y46*%
G04 Gerber Fmt 4.6, Leading zero omitted, Abs format (unit mm)*
G04 Created by KiCad (PCBNEW (6.0.4-0)) date 2022-05-21 11:08:46*
%MOMM*%
%LPD*%
G01*
G04 APERTURE LIST*
%TA.AperFunction,EtchedComponent*%
%ADD10C,0.096499*%
%TD*%
%TA.AperFunction,ComponentPad*%
%ADD11R,1.700000X1.700000*%
%TD*%
%TA.AperFunction,ComponentPad*%
%ADD12O,1.700000X1.700000*%
%TD*%
G04 APERTURE END LIST*
%TO.C,svg2mod*%
G36*
X218076791Y-86479388D02*
G01*
X218076791Y-84422319D01*
X218803168Y-84422319D01*
X218803168Y-88013139D01*
X218039641Y-88013139D01*
X216735465Y-85548519D01*
X216735465Y-88013139D01*
X216009087Y-88013139D01*
X216009087Y-84422319D01*
X216956268Y-84422319D01*
X218076791Y-86479388D01*
G37*
G36*
X212183221Y-86479388D02*
G01*
X212183221Y-84422319D01*
X212909599Y-84422319D01*
X212909599Y-88013139D01*
X212146076Y-88013139D01*
X210841897Y-85548519D01*
X210841897Y-88013139D01*
X210115519Y-88013139D01*
X210115519Y-84422319D01*
X211062700Y-84422319D01*
X212183221Y-86479388D01*
G37*
G36*
X199793521Y-86894170D02*
G01*
X200358940Y-84422319D01*
X201149290Y-84422319D01*
X201687883Y-86894170D01*
X202183140Y-84422319D01*
X202989998Y-84422319D01*
X202162505Y-88013139D01*
X201285486Y-88013139D01*
X200734511Y-85673919D01*
X200197982Y-88013139D01*
X199320963Y-88013139D01*
X198493470Y-84422319D01*
X199320963Y-84422319D01*
X199793521Y-86894170D01*
G37*
G36*
X195580000Y-78740000D02*
G01*
X225483083Y-78740000D01*
X225483083Y-93643484D01*
X195580000Y-93643484D01*
X195580000Y-91652908D01*
X197570058Y-91652908D01*
X223493025Y-91652908D01*
X223493025Y-80730061D01*
X197570058Y-80730061D01*
X197570058Y-91652908D01*
X195580000Y-91652908D01*
X195580000Y-78740000D01*
G37*
D10*
X195580000Y-78740000D02*
X225483083Y-78740000D01*
X225483083Y-93643484D01*
X195580000Y-93643484D01*
X195580000Y-91652908D01*
X197570058Y-91652908D01*
X223493025Y-91652908D01*
X223493025Y-80730061D01*
X197570058Y-80730061D01*
X197570058Y-91652908D01*
X195580000Y-91652908D01*
X195580000Y-78740000D01*
G36*
X206805546Y-84422319D02*
G01*
X208134487Y-84422319D01*
X208602919Y-84458533D01*
X208970235Y-84615283D01*
X209244691Y-84928784D01*
X209347869Y-85408687D01*
X209188974Y-86057406D01*
X208739115Y-86474599D01*
X209764711Y-88013139D01*
X208796895Y-88013139D01*
X207959084Y-86696427D01*
X207593831Y-86696427D01*
X207593831Y-88013139D01*
X206805546Y-88013139D01*
X206805546Y-86050022D01*
X207593829Y-86050022D01*
X207837331Y-86050022D01*
X208155121Y-86028293D01*
X208369733Y-85929379D01*
X208489420Y-85765397D01*
X208528611Y-85521901D01*
X208481166Y-85290476D01*
X208318143Y-85138548D01*
X208130359Y-85092712D01*
X207880665Y-85082982D01*
X207593829Y-85082982D01*
X207593829Y-86050022D01*
X206805546Y-86050022D01*
X206805546Y-84422319D01*
G37*
G36*
X203976386Y-88013139D02*
G01*
X203177783Y-88013139D01*
X203615307Y-86628895D01*
X204380846Y-86628895D01*
X205136115Y-86628895D01*
X204758481Y-85341123D01*
X204380846Y-86628895D01*
X203615307Y-86628895D01*
X204312749Y-84422319D01*
X205224849Y-84422319D01*
X206359814Y-88013139D01*
X205540576Y-88013139D01*
X205328028Y-87287256D01*
X204188934Y-87287256D01*
X203976386Y-88013139D01*
G37*
G36*
X221685980Y-84417486D02*
G01*
X222296802Y-84670697D01*
X222296802Y-85512337D01*
X222208091Y-85512337D01*
X222038882Y-85370051D01*
X221824264Y-85210890D01*
X221543616Y-85078247D01*
X221205191Y-85022790D01*
X220823436Y-85095112D01*
X220515962Y-85316972D01*
X220309604Y-85685940D01*
X220235324Y-86199605D01*
X220505648Y-87111177D01*
X221304253Y-87427099D01*
X221403306Y-87424937D01*
X221504422Y-87417369D01*
X221504422Y-86713183D01*
X220891537Y-86713183D01*
X220891537Y-86035536D01*
X222309216Y-86035536D01*
X222309179Y-87808153D01*
X221762333Y-87996264D01*
X221083418Y-88087935D01*
X220384378Y-87963738D01*
X219855586Y-87591146D01*
X219522835Y-86997301D01*
X219411918Y-86214145D01*
X219523869Y-85458718D01*
X219859721Y-84866073D01*
X220395733Y-84480824D01*
X221108182Y-84352408D01*
X221685980Y-84417486D01*
G37*
G36*
X215359062Y-85058973D02*
G01*
X214855549Y-85058973D01*
X214855549Y-87376485D01*
X215359062Y-87376485D01*
X215359062Y-88013139D01*
X213559625Y-88013139D01*
X213559625Y-87376485D01*
X214063137Y-87376485D01*
X214063137Y-85058973D01*
X213559625Y-85058973D01*
X213559625Y-84422319D01*
X215359062Y-84422319D01*
X215359062Y-85058973D01*
G37*
%TD*%
D11*
%TO.P,J1,1,Pin_1*%
%TO.N,Net-(J1-Pad1)*%
X227121946Y-85090000D03*
D12*
%TO.P,J1,2,Pin_2*%
%TO.N,GND*%
X227121946Y-87630000D03*
%TO.P,J1,3,Pin_3*%
%TO.N,unconnected-(J1-Pad3)*%
X229661946Y-85090000D03*
%TO.P,J1,4,Pin_4*%
%TO.N,unconnected-(J1-Pad4)*%
X229661946Y-87630000D03*
%TO.P,J1,5,Pin_5*%
%TO.N,Net-(J1-Pad1)*%
X232201946Y-85090000D03*
%TO.P,J1,6,Pin_6*%
%TO.N,unconnected-(J1-Pad6)*%
X232201946Y-87630000D03*
%TD*%
M02*
