%TF.GenerationSoftware,KiCad,Pcbnew,(6.0.4-0)*%
%TF.CreationDate,2022-05-11T16:37:37-04:00*%
%TF.ProjectId,Master_Warning,4d617374-6572-45f5-9761-726e696e672e,v02*%
%TF.SameCoordinates,Original*%
%TF.FileFunction,Legend,Bot*%
%TF.FilePolarity,Positive*%
%FSLAX46Y46*%
G04 Gerber Fmt 4.6, Leading zero omitted, Abs format (unit mm)*
G04 Created by KiCad (PCBNEW (6.0.4-0)) date 2022-05-11 16:37:37*
%MOMM*%
%LPD*%
G01*
G04 APERTURE LIST*
%ADD10C,0.150000*%
%ADD11C,0.400000*%
%ADD12C,0.120000*%
G04 APERTURE END LIST*
D10*
X224709493Y-83359839D02*
X225566636Y-83359839D01*
X225661874Y-83312220D01*
X225709493Y-83216982D01*
X225709493Y-83169363D01*
X224376159Y-83359839D02*
X224423779Y-83312220D01*
X224471398Y-83359839D01*
X224423779Y-83407458D01*
X224376159Y-83359839D01*
X224471398Y-83359839D01*
X225376159Y-83978887D02*
X225328540Y-83883649D01*
X225233302Y-83836030D01*
X224376159Y-83836030D01*
X225328540Y-84788410D02*
X225376159Y-84693172D01*
X225376159Y-84502696D01*
X225328540Y-84407458D01*
X225280921Y-84359839D01*
X225185683Y-84312220D01*
X224899969Y-84312220D01*
X224804731Y-84359839D01*
X224757112Y-84407458D01*
X224709493Y-84502696D01*
X224709493Y-84693172D01*
X224757112Y-84788410D01*
X224709493Y-85216982D02*
X225566636Y-85216982D01*
X225661874Y-85169363D01*
X225709493Y-85074125D01*
X225709493Y-85026506D01*
X224376159Y-85216982D02*
X224423779Y-85169363D01*
X224471398Y-85216982D01*
X224423779Y-85264601D01*
X224376159Y-85216982D01*
X224471398Y-85216982D01*
X225376159Y-85836030D02*
X225328540Y-85740791D01*
X225233302Y-85693172D01*
X224376159Y-85693172D01*
X225328540Y-86645553D02*
X225376159Y-86550315D01*
X225376159Y-86359839D01*
X225328540Y-86264601D01*
X225280921Y-86216982D01*
X225185683Y-86169363D01*
X224899969Y-86169363D01*
X224804731Y-86216982D01*
X224757112Y-86264601D01*
X224709493Y-86359839D01*
X224709493Y-86550315D01*
X224757112Y-86645553D01*
X224709493Y-87074125D02*
X225566636Y-87074125D01*
X225661874Y-87026506D01*
X225709493Y-86931268D01*
X225709493Y-86883649D01*
X224376159Y-87074125D02*
X224423779Y-87026506D01*
X224471398Y-87074125D01*
X224423779Y-87121744D01*
X224376159Y-87074125D01*
X224471398Y-87074125D01*
X225376159Y-87693172D02*
X225328540Y-87597934D01*
X225233302Y-87550315D01*
X224376159Y-87550315D01*
X225328540Y-88502696D02*
X225376159Y-88407458D01*
X225376159Y-88216982D01*
X225328540Y-88121744D01*
X225280921Y-88074125D01*
X225185683Y-88026506D01*
X224899969Y-88026506D01*
X224804731Y-88074125D01*
X224757112Y-88121744D01*
X224709493Y-88216982D01*
X224709493Y-88407458D01*
X224757112Y-88502696D01*
X224709493Y-88931268D02*
X225566636Y-88931268D01*
X225661874Y-88883649D01*
X225709493Y-88788410D01*
X225709493Y-88740791D01*
X224376159Y-88931268D02*
X224423779Y-88883649D01*
X224471398Y-88931268D01*
X224423779Y-88978887D01*
X224376159Y-88931268D01*
X224471398Y-88931268D01*
X225376159Y-89550315D02*
X225328540Y-89455077D01*
X225233302Y-89407458D01*
X224376159Y-89407458D01*
X225328540Y-90359839D02*
X225376159Y-90264601D01*
X225376159Y-90074125D01*
X225328540Y-89978887D01*
X225280921Y-89931268D01*
X225185683Y-89883649D01*
X224899969Y-89883649D01*
X224804731Y-89931268D01*
X224757112Y-89978887D01*
X224709493Y-90074125D01*
X224709493Y-90264601D01*
X224757112Y-90359839D01*
%TO.C,D1*%
X206082616Y-81742698D02*
X206082616Y-80742698D01*
X205844521Y-80742698D01*
X205701663Y-80790318D01*
X205606425Y-80885556D01*
X205558806Y-80980794D01*
X205511187Y-81171270D01*
X205511187Y-81314127D01*
X205558806Y-81504603D01*
X205606425Y-81599841D01*
X205701663Y-81695079D01*
X205844521Y-81742698D01*
X206082616Y-81742698D01*
X204558806Y-81742698D02*
X205130235Y-81742698D01*
X204844521Y-81742698D02*
X204844521Y-80742698D01*
X204939759Y-80885556D01*
X205034997Y-80980794D01*
X205130235Y-81028413D01*
%TO.C,D2*%
X217480212Y-81675498D02*
X217480212Y-80675498D01*
X217242117Y-80675498D01*
X217099259Y-80723118D01*
X217004021Y-80818356D01*
X216956402Y-80913594D01*
X216908783Y-81104070D01*
X216908783Y-81246927D01*
X216956402Y-81437403D01*
X217004021Y-81532641D01*
X217099259Y-81627879D01*
X217242117Y-81675498D01*
X217480212Y-81675498D01*
X216527831Y-80770737D02*
X216480212Y-80723118D01*
X216384974Y-80675498D01*
X216146878Y-80675498D01*
X216051640Y-80723118D01*
X216004021Y-80770737D01*
X215956402Y-80865975D01*
X215956402Y-80961213D01*
X216004021Y-81104070D01*
X216575450Y-81675498D01*
X215956402Y-81675498D01*
D11*
%TO.C,D1*%
X207088716Y-84248795D02*
G75*
G03*
X207088716Y-84248795I-200000J0D01*
G01*
%TO.C,D2*%
X218486312Y-84181595D02*
G75*
G03*
X218486312Y-84181595I-200000J0D01*
G01*
D12*
%TO.C,R1*%
X230085285Y-80560612D02*
X231539413Y-80560612D01*
X230085285Y-82380612D02*
X231539413Y-82380612D01*
%TO.C,R2*%
X229736973Y-90625306D02*
X231191101Y-90625306D01*
X229736973Y-92445306D02*
X231191101Y-92445306D01*
%TO.C,J1*%
X234541712Y-83748461D02*
X234541712Y-88948461D01*
X226801712Y-88948461D02*
X234541712Y-88948461D01*
X226801712Y-83748461D02*
X226801712Y-85078461D01*
X229401712Y-86348461D02*
X226801712Y-86348461D01*
X226801712Y-86348461D02*
X226801712Y-88948461D01*
X229401712Y-83748461D02*
X229401712Y-86348461D01*
X229401712Y-83748461D02*
X234541712Y-83748461D01*
X228131712Y-83748461D02*
X226801712Y-83748461D01*
%TD*%
M02*
