%TF.GenerationSoftware,KiCad,Pcbnew,(6.0.4-0)*%
%TF.CreationDate,2022-05-26T18:37:45-04:00*%
%TF.ProjectId,space_shuttle_SAO,73706163-655f-4736-9875-74746c655f53,v04*%
%TF.SameCoordinates,Original*%
%TF.FileFunction,Soldermask,Top*%
%TF.FilePolarity,Negative*%
%FSLAX46Y46*%
G04 Gerber Fmt 4.6, Leading zero omitted, Abs format (unit mm)*
G04 Created by KiCad (PCBNEW (6.0.4-0)) date 2022-05-26 18:37:45*
%MOMM*%
%LPD*%
G01*
G04 APERTURE LIST*
G04 Aperture macros list*
%AMRotRect*
0 Rectangle, with rotation*
0 The origin of the aperture is its center*
0 $1 length*
0 $2 width*
0 $3 Rotation angle, in degrees counterclockwise*
0 Add horizontal line*
21,1,$1,$2,0,0,$3*%
G04 Aperture macros list end*
%ADD10RotRect,1.524000X1.524000X340.000000*%
%ADD11C,1.524000*%
G04 APERTURE END LIST*
%TO.C,svg2mod*%
G36*
X165373958Y-106182077D02*
G01*
X165525837Y-106237745D01*
X165670654Y-106383562D01*
X165672770Y-106387028D01*
X165674622Y-106390468D01*
X166252510Y-107582191D01*
X166301960Y-107714998D01*
X166320798Y-107837836D01*
X166284889Y-107965069D01*
X166280365Y-107972239D01*
X164966235Y-109067106D01*
X164957795Y-109070546D01*
X164868315Y-109100489D01*
X164664631Y-109137811D01*
X164548270Y-109134318D01*
X164436028Y-109098131D01*
X164345763Y-109012991D01*
X164300631Y-108877966D01*
X164300101Y-108875109D01*
X164300101Y-106957613D01*
X164305605Y-106798648D01*
X164356034Y-106665862D01*
X164478089Y-106579915D01*
X165089727Y-106256260D01*
X165148790Y-106221939D01*
X165280655Y-106182381D01*
X165373863Y-106182116D01*
X165373958Y-106182037D01*
X165373958Y-106182077D01*
G37*
G36*
X168689735Y-102993882D02*
G01*
X168728586Y-103027534D01*
X169675969Y-103845290D01*
X169671842Y-103876056D01*
X169581971Y-104457829D01*
X169526437Y-104592912D01*
X169437939Y-104666811D01*
X169386134Y-104679458D01*
X169239359Y-104648120D01*
X169093365Y-104550595D01*
X169030965Y-104490884D01*
X169028214Y-104488238D01*
X168223684Y-103726251D01*
X168228579Y-103730246D01*
X168195808Y-103699478D01*
X168147342Y-103610959D01*
X168164010Y-103477016D01*
X168293913Y-103355708D01*
X168689700Y-102993826D01*
X168689735Y-102993882D01*
G37*
G36*
X162900265Y-106290900D02*
G01*
X163607859Y-106472272D01*
X163608388Y-106472536D01*
X163748691Y-106554459D01*
X163843663Y-106681851D01*
X163886637Y-106885299D01*
X163886637Y-106885564D01*
X163868592Y-108743868D01*
X163863116Y-108803698D01*
X163807191Y-108927536D01*
X163698481Y-109010578D01*
X163513635Y-109047980D01*
X163340368Y-109032766D01*
X163335076Y-109031972D01*
X162066076Y-108379481D01*
X162065931Y-108379216D01*
X161995091Y-108352017D01*
X161876767Y-108260204D01*
X161828102Y-108175945D01*
X161811036Y-108065330D01*
X161839881Y-107931465D01*
X161924847Y-107772423D01*
X162539037Y-106507683D01*
X162539567Y-106506625D01*
X162634539Y-106391166D01*
X162747172Y-106316091D01*
X162898072Y-106291061D01*
X162897884Y-106290860D01*
X162900265Y-106290900D01*
G37*
G36*
X166659703Y-105192530D02*
G01*
X166659703Y-105192493D01*
X166771162Y-105212601D01*
X166875553Y-105287071D01*
X168120611Y-106451205D01*
X168121669Y-106451735D01*
X168161698Y-106498653D01*
X168226256Y-106619311D01*
X168240782Y-106699784D01*
X168225092Y-106787753D01*
X168169363Y-106867911D01*
X168072427Y-106933766D01*
X168071898Y-106933766D01*
X167981046Y-106992987D01*
X167974749Y-106995369D01*
X167297571Y-107283526D01*
X166866658Y-107484012D01*
X166856048Y-107489198D01*
X166844089Y-107489727D01*
X166672977Y-107469724D01*
X166526591Y-107406187D01*
X166400025Y-107272692D01*
X166398173Y-107269517D01*
X165873658Y-106034389D01*
X165821659Y-105871130D01*
X165831264Y-105710851D01*
X165868549Y-105628513D01*
X165935462Y-105553792D01*
X165939193Y-105550617D01*
X166441337Y-105262028D01*
X166590271Y-105200510D01*
X166659539Y-105192466D01*
X166659703Y-105192530D01*
G37*
G36*
X167953227Y-103986615D02*
G01*
X168092528Y-104025992D01*
X168192604Y-104117395D01*
X169183744Y-105018233D01*
X169176679Y-105012782D01*
X169279107Y-105132737D01*
X169308741Y-105262266D01*
X169290088Y-105404276D01*
X169289558Y-105405334D01*
X168961467Y-106279425D01*
X168957737Y-106285193D01*
X168873554Y-106375908D01*
X168779564Y-106418566D01*
X168732468Y-106422562D01*
X168607079Y-106387790D01*
X168491501Y-106300901D01*
X168448136Y-106252120D01*
X168447988Y-106251591D01*
X167456062Y-104880792D01*
X167455533Y-104879999D01*
X167454210Y-104877882D01*
X167369639Y-104712443D01*
X167358050Y-104565155D01*
X167396118Y-104419124D01*
X167399055Y-104413964D01*
X167478134Y-104319675D01*
X167479192Y-104318616D01*
X167752927Y-104029752D01*
X167763511Y-104025175D01*
X167953262Y-103986654D01*
X167953227Y-103986615D01*
X167953206Y-103986609D01*
X167953206Y-103986591D01*
X167953227Y-103986615D01*
G37*
%TD*%
D10*
%TO.C,J1*%
X113067172Y-97821158D03*
D11*
X112198441Y-100207977D03*
X115453992Y-98689889D03*
X114585260Y-101076709D03*
X117840811Y-99558621D03*
X116972080Y-101945440D03*
%TD*%
M02*
