%TF.GenerationSoftware,KiCad,Pcbnew,(5.1.12-1-10_14)*%
%TF.CreationDate,2022-04-05T14:51:50-04:00*%
%TF.ProjectId,space_shuttle_SAO,73706163-655f-4736-9875-74746c655f53,rev?*%
%TF.SameCoordinates,Original*%
%TF.FileFunction,Legend,Top*%
%TF.FilePolarity,Positive*%
%FSLAX46Y46*%
G04 Gerber Fmt 4.6, Leading zero omitted, Abs format (unit mm)*
G04 Created by KiCad (PCBNEW (5.1.12-1-10_14)) date 2022-04-05 14:51:50*
%MOMM*%
%LPD*%
G01*
G04 APERTURE LIST*
%ADD10C,0.100000*%
G04 APERTURE END LIST*
D10*
%TO.C,svg2mod*%
G36*
X122213571Y-102012628D02*
G01*
X121648421Y-101843648D01*
X121650185Y-101844001D01*
X121561285Y-101806606D01*
X121522127Y-101750514D01*
X121517188Y-101681723D01*
X121485438Y-101242867D01*
X121485791Y-101244631D01*
X121488613Y-101190656D01*
X121498491Y-101169137D01*
X121510485Y-101161023D01*
X121527771Y-101164551D01*
X121523538Y-101162081D01*
X122207927Y-101374101D01*
X122206516Y-101373748D01*
X122238266Y-101398442D01*
X122256610Y-101437601D01*
X122275307Y-101510626D01*
X122275307Y-101511331D01*
X122318346Y-101967120D01*
X122317993Y-101965709D01*
X122304941Y-101998164D01*
X122275307Y-102011923D01*
X122223449Y-101984053D01*
X122267899Y-101982995D01*
X122286596Y-101975234D01*
X122289066Y-101971353D01*
X122288713Y-101970648D01*
X122246027Y-101515917D01*
X122228741Y-101447831D01*
X122213571Y-101415376D01*
X122200518Y-101403028D01*
X122199813Y-101403028D01*
X121519657Y-101192420D01*
X121517188Y-101198417D01*
X121515071Y-101238987D01*
X121515424Y-101239692D01*
X121547527Y-101682428D01*
X121546821Y-101684545D01*
X121550349Y-101740637D01*
X121579982Y-101784028D01*
X121655124Y-101814367D01*
X121655830Y-101814367D01*
X121656535Y-101814720D01*
X122222743Y-101983701D01*
X122223449Y-101984053D01*
X122275307Y-102011923D01*
X122213571Y-102012276D01*
X122213571Y-102012628D01*
G37*
G36*
X162795715Y-101421726D02*
G01*
X162827465Y-101496514D01*
X162947763Y-101512389D01*
X163083935Y-101581534D01*
X163690360Y-101881748D01*
X163651907Y-101959712D01*
X163041954Y-101657381D01*
X163038779Y-101654912D01*
X162891671Y-101585767D01*
X162781251Y-101591059D01*
X162684590Y-101642212D01*
X162683885Y-101642917D01*
X162151896Y-102129045D01*
X162093335Y-102065192D01*
X162623560Y-101580476D01*
X162659543Y-101552606D01*
X162758321Y-101507451D01*
X162827465Y-101496514D01*
X162795715Y-101421726D01*
X162717399Y-101437601D01*
X162608390Y-101493692D01*
X162569938Y-101526853D01*
X162575935Y-101521209D01*
X162158246Y-101874692D01*
X162156835Y-101876103D01*
X162116265Y-101922670D01*
X162052413Y-102042262D01*
X162040065Y-102122342D01*
X162060174Y-102209126D01*
X162124026Y-102287442D01*
X162232329Y-102348473D01*
X162685649Y-102534034D01*
X162686001Y-102534034D01*
X162880382Y-102577073D01*
X162880735Y-102577073D01*
X163008088Y-102572134D01*
X163110393Y-102550967D01*
X163202468Y-102516748D01*
X163208113Y-102513925D01*
X163556657Y-102236995D01*
X163666371Y-102139276D01*
X163729871Y-102046495D01*
X163752449Y-101957242D01*
X163740454Y-101879278D01*
X163666724Y-101779442D01*
X163619451Y-101748751D01*
X163618746Y-101748398D01*
X163444826Y-101666553D01*
X163108276Y-101498278D01*
X163111099Y-101500042D01*
X162940001Y-101431251D01*
X162795715Y-101421726D01*
G37*
G36*
X136034346Y-105411466D02*
G01*
X135984957Y-105414394D01*
X135945446Y-105436619D01*
X135909816Y-105514477D01*
X135892177Y-106311260D01*
X135892529Y-106309214D01*
X135908757Y-106407216D01*
X135964849Y-106483310D01*
X136078796Y-106535698D01*
X136075621Y-106535098D01*
X137184049Y-106915675D01*
X137186166Y-106915992D01*
X137244021Y-106911124D01*
X137300466Y-106874929D01*
X137342093Y-106803244D01*
X137359732Y-106693460D01*
X137387602Y-106054756D01*
X137387249Y-106056802D01*
X137369963Y-105940068D01*
X137309638Y-105866796D01*
X137218974Y-105822205D01*
X137218268Y-105821887D01*
X137216152Y-105821287D01*
X136036463Y-105411713D01*
X136034699Y-105411430D01*
X136034346Y-105411466D01*
G37*
G36*
X147904965Y-107674817D02*
G01*
X147884857Y-107681414D01*
X147865102Y-107706426D01*
X147853107Y-107766786D01*
X147853107Y-107770914D01*
X147843582Y-108235381D01*
X147842524Y-108314685D01*
X147894382Y-108382701D01*
X148017149Y-108433889D01*
X148019618Y-108434489D01*
X148816543Y-108682915D01*
X148817249Y-108683232D01*
X148857465Y-108691029D01*
X148904738Y-108690147D01*
X148949188Y-108679387D01*
X148968590Y-108664253D01*
X148976352Y-108635254D01*
X148976352Y-108638641D01*
X148972118Y-108148280D01*
X148972118Y-108146516D01*
X148953421Y-108064672D01*
X148930138Y-108018035D01*
X148886040Y-107986390D01*
X148887804Y-107986673D01*
X147920840Y-107676898D01*
X147926838Y-107679685D01*
X147904965Y-107674817D01*
G37*
G36*
X141496404Y-105681976D02*
G01*
X141476649Y-105688608D01*
X141457246Y-105713302D01*
X141445252Y-105778072D01*
X141444899Y-105773662D01*
X141435374Y-106242539D01*
X141434315Y-106321879D01*
X141486174Y-106389718D01*
X141609293Y-106440765D01*
X141611410Y-106441365D01*
X142408335Y-106690109D01*
X142409393Y-106690391D01*
X142449610Y-106698187D01*
X142496529Y-106697305D01*
X142540979Y-106686263D01*
X142560382Y-106671411D01*
X142568143Y-106642413D01*
X142563910Y-106155439D01*
X142563910Y-106153675D01*
X142545213Y-106071830D01*
X142521929Y-106025193D01*
X142478185Y-105993231D01*
X141512279Y-105684057D01*
X141518629Y-105686844D01*
X141496404Y-105681976D01*
G37*
G36*
X136314804Y-104010867D02*
G01*
X136295049Y-104017464D01*
X136275293Y-104042511D01*
X136263299Y-104102836D01*
X136263299Y-104107105D01*
X136253774Y-104571572D01*
X136253068Y-104650594D01*
X136304574Y-104718610D01*
X136428046Y-104769974D01*
X136429810Y-104770574D01*
X137226735Y-105019141D01*
X137227441Y-105019424D01*
X137267657Y-105026938D01*
X137314577Y-105026056D01*
X137359027Y-105015437D01*
X137378782Y-105000162D01*
X137386543Y-104971164D01*
X137382310Y-104484471D01*
X137381957Y-104482849D01*
X137363613Y-104400581D01*
X137340329Y-104354085D01*
X137296232Y-104322441D01*
X137297996Y-104322723D01*
X136330679Y-104012772D01*
X136337029Y-104016018D01*
X136314804Y-104010867D01*
G37*
G36*
X123357982Y-98744848D02*
G01*
X123357982Y-98735323D01*
X123453232Y-98709217D01*
X123515674Y-98642895D01*
X123538605Y-98541295D01*
X123533666Y-98413237D01*
X123494155Y-97487195D01*
X123235921Y-97409584D01*
X123277902Y-98387484D01*
X123262380Y-98435815D01*
X123221105Y-98448515D01*
X123173832Y-98421351D01*
X123136438Y-98352912D01*
X123118799Y-98292587D01*
X122943821Y-97647004D01*
X122869385Y-97425459D01*
X122744855Y-97268826D01*
X122584693Y-97184159D01*
X122465455Y-97164404D01*
X122369499Y-97189098D01*
X122305293Y-97253304D01*
X122280952Y-97353493D01*
X122285891Y-97481198D01*
X122325755Y-98406181D01*
X122321521Y-98406181D01*
X122322932Y-98406534D01*
X122583988Y-98485204D01*
X122544124Y-97558809D01*
X122542007Y-97522473D01*
X122542007Y-97490723D01*
X122561410Y-97450859D01*
X122599510Y-97440981D01*
X122641491Y-97462854D01*
X122675357Y-97517181D01*
X122700757Y-97602201D01*
X122875735Y-98247784D01*
X122950171Y-98469329D01*
X123071880Y-98627726D01*
X123235216Y-98713451D01*
X123357630Y-98735323D01*
X123357982Y-98735323D01*
X123357982Y-98744848D01*
X123231688Y-98722623D01*
X123065882Y-98634781D01*
X122941705Y-98473562D01*
X122866563Y-98250606D01*
X122691938Y-97604670D01*
X122666538Y-97521062D01*
X122666538Y-97520709D01*
X122598099Y-97450154D01*
X122567407Y-97458267D01*
X122551180Y-97492134D01*
X122551180Y-97522120D01*
X122552943Y-97558456D01*
X122593160Y-98491554D01*
X122591396Y-98495081D01*
X122587163Y-98495787D01*
X122320816Y-98415354D01*
X122321168Y-98415354D01*
X122316582Y-98411120D01*
X122276366Y-97481904D01*
X122271427Y-97353493D01*
X122297180Y-97249070D01*
X122365266Y-97181337D01*
X122465102Y-97155231D01*
X122587516Y-97175340D01*
X122750146Y-97261770D01*
X122877499Y-97421579D01*
X122952641Y-97644534D01*
X123127266Y-98290470D01*
X123144905Y-98350090D01*
X123144905Y-98350442D01*
X123180182Y-98415001D01*
X123222163Y-98439695D01*
X123255324Y-98429465D01*
X123268377Y-98387837D01*
X123226043Y-97403587D01*
X123227807Y-97400059D01*
X123232041Y-97399354D01*
X123499446Y-97479787D01*
X123501563Y-97480845D01*
X123501916Y-97480845D01*
X123503327Y-97483667D01*
X123543191Y-98412884D01*
X123547777Y-98540942D01*
X123547777Y-98541295D01*
X123523435Y-98647129D01*
X123458171Y-98717331D01*
X123358335Y-98744495D01*
X123357982Y-98744848D01*
G37*
G36*
X122696171Y-97603612D02*
G01*
X122871149Y-98249195D01*
X122945938Y-98471798D01*
X123069057Y-98631254D01*
X123233452Y-98718390D01*
X123357982Y-98740262D01*
X123455349Y-98713451D01*
X123519202Y-98645012D01*
X123543191Y-98541648D01*
X123538252Y-98413237D01*
X123498388Y-97484373D01*
X123498035Y-97484020D01*
X123230630Y-97403587D01*
X123272963Y-98387837D01*
X123258852Y-98432640D01*
X123221810Y-98444281D01*
X123177007Y-98418176D01*
X123140318Y-98351854D01*
X123123032Y-98291881D01*
X122948055Y-97645592D01*
X122873266Y-97423695D01*
X122747324Y-97265298D01*
X122585752Y-97179926D01*
X122465102Y-97159818D01*
X122367382Y-97185218D01*
X122301060Y-97251187D01*
X122276013Y-97353493D01*
X122280952Y-97481551D01*
X122320816Y-98411120D01*
X122321168Y-98411120D01*
X122588574Y-98491554D01*
X122548357Y-97558809D01*
X122546241Y-97491429D01*
X122564232Y-97454740D01*
X122598452Y-97445920D01*
X122637963Y-97466734D01*
X122670418Y-97519298D01*
X122695818Y-97603612D01*
X122696171Y-97603612D01*
G37*
G36*
X126897049Y-99800006D02*
G01*
X126882938Y-99786248D01*
X126513580Y-98627726D01*
X126421152Y-98436167D01*
X126311791Y-98333862D01*
X126311438Y-98333509D01*
X126311438Y-98333156D01*
X126210896Y-98285884D01*
X126208074Y-98284826D01*
X126110002Y-98272479D01*
X126109649Y-98272479D01*
X126042268Y-98283062D01*
X125991116Y-98322926D01*
X125916327Y-98502137D01*
X125652096Y-99413362D01*
X125910682Y-99490973D01*
X126172443Y-98598092D01*
X126192552Y-98553290D01*
X126205957Y-98545176D01*
X126222538Y-98547292D01*
X126222891Y-98547292D01*
X126224302Y-98547645D01*
X126226066Y-98547998D01*
X126254993Y-98571281D01*
X126277218Y-98625609D01*
X126629643Y-99708990D01*
X126883291Y-99785895D01*
X126882938Y-99786248D01*
X126897049Y-99800006D01*
X126621882Y-99716751D01*
X126268046Y-98628784D01*
X126246527Y-98576926D01*
X126223243Y-98557523D01*
X126221480Y-98557170D01*
X126219363Y-98556465D01*
X126207368Y-98554701D01*
X126198902Y-98559640D01*
X126180910Y-98600915D01*
X125916327Y-99502615D01*
X125640455Y-99420065D01*
X125907155Y-98499667D01*
X125983707Y-98317281D01*
X126038388Y-98275301D01*
X126109649Y-98263306D01*
X126210896Y-98276006D01*
X126213718Y-98277065D01*
X126316024Y-98325748D01*
X126428913Y-98430876D01*
X126522046Y-98624904D01*
X126897049Y-99800006D01*
G37*
G36*
X125911388Y-98500726D02*
G01*
X125987235Y-98320104D01*
X126040152Y-98278829D01*
X126109649Y-98267892D01*
X126209485Y-98280592D01*
X126212307Y-98281651D01*
X126313555Y-98329629D01*
X126425032Y-98433345D01*
X126517813Y-98626315D01*
X126889993Y-99792951D01*
X126625410Y-99713223D01*
X126272280Y-98627373D01*
X126224302Y-98552937D01*
X126222538Y-98552584D01*
X126220774Y-98551879D01*
X126195374Y-98556465D01*
X126176324Y-98599504D01*
X125913152Y-99496970D01*
X125645746Y-99416537D01*
X125911388Y-98500726D01*
G37*
G36*
X125429493Y-99348451D02*
G01*
X125430199Y-99339278D01*
X125524743Y-99329401D01*
X125602707Y-99287067D01*
X125672557Y-99187584D01*
X125693724Y-99047178D01*
X125653860Y-98866556D01*
X125565666Y-98722270D01*
X125449249Y-98618554D01*
X125325071Y-98558581D01*
X124970177Y-98451690D01*
X124891155Y-98392423D01*
X124857641Y-98296467D01*
X124884805Y-98217798D01*
X124962768Y-98204745D01*
X125603060Y-98394540D01*
X125591771Y-98136659D01*
X125167732Y-98008601D01*
X125146213Y-98002251D01*
X124944071Y-97941220D01*
X124808957Y-97930990D01*
X124701007Y-97981084D01*
X124631157Y-98080567D01*
X124609991Y-98220973D01*
X124649855Y-98401595D01*
X124738049Y-98545881D01*
X124854818Y-98649598D01*
X124978643Y-98709570D01*
X125179727Y-98769895D01*
X125204068Y-98777304D01*
X125333538Y-98816462D01*
X125412560Y-98875729D01*
X125446074Y-98971684D01*
X125419263Y-99050353D01*
X125341299Y-99063406D01*
X124674902Y-98862676D01*
X124663260Y-98864087D01*
X124669963Y-98856326D01*
X124406085Y-98035765D01*
X124299546Y-97799756D01*
X124191243Y-97693923D01*
X124190891Y-97693923D01*
X124190891Y-97693570D01*
X124090702Y-97646298D01*
X124087527Y-97645240D01*
X123989102Y-97632540D01*
X123988749Y-97632540D01*
X123886796Y-97666406D01*
X123807774Y-97816337D01*
X123530843Y-98773776D01*
X123789430Y-98851034D01*
X124051543Y-97957801D01*
X124071299Y-97913704D01*
X124085057Y-97905590D01*
X124101638Y-97907706D01*
X124103049Y-97908412D01*
X124104813Y-97909117D01*
X124104460Y-97909117D01*
X124133388Y-97932401D01*
X124155613Y-97986729D01*
X124504510Y-99069051D01*
X124651266Y-99112795D01*
X124786027Y-99153365D01*
X125358938Y-99325873D01*
X125429493Y-99339278D01*
X125429846Y-99339631D01*
X125430199Y-99339278D01*
X125429493Y-99348451D01*
X125356468Y-99334692D01*
X124783910Y-99162184D01*
X124649149Y-99121615D01*
X124497807Y-99076459D01*
X124147499Y-97989551D01*
X124126332Y-97937340D01*
X124102343Y-97917937D01*
X124100580Y-97917231D01*
X124098816Y-97916526D01*
X124087174Y-97914762D01*
X124078707Y-97920054D01*
X124060363Y-97960976D01*
X123796485Y-98863029D01*
X123520260Y-98780126D01*
X123798955Y-97813867D01*
X123880799Y-97660056D01*
X123989102Y-97623720D01*
X124090349Y-97636773D01*
X124093524Y-97637831D01*
X124195830Y-97685809D01*
X124307660Y-97794817D01*
X124415257Y-98032942D01*
X124679135Y-98854209D01*
X125344121Y-99054587D01*
X125413266Y-99043298D01*
X125436902Y-98972037D01*
X125405152Y-98881373D01*
X125331068Y-98825281D01*
X125201599Y-98785770D01*
X125177257Y-98778715D01*
X124976174Y-98718037D01*
X124849527Y-98657359D01*
X124730993Y-98551526D01*
X124641035Y-98405123D01*
X124600818Y-98221326D01*
X124623043Y-98077392D01*
X124695363Y-97973676D01*
X124807193Y-97922170D01*
X124946893Y-97932401D01*
X125149035Y-97993431D01*
X125170555Y-97999781D01*
X125600943Y-98129604D01*
X125612938Y-98406887D01*
X124960299Y-98213565D01*
X124891155Y-98224501D01*
X124867166Y-98296115D01*
X124898916Y-98386779D01*
X124972999Y-98442870D01*
X125327893Y-98549762D01*
X125454541Y-98610440D01*
X125573074Y-98716273D01*
X125663032Y-98863029D01*
X125703249Y-99046826D01*
X125681024Y-99190759D01*
X125608705Y-99293770D01*
X125527566Y-99337867D01*
X125429493Y-99348451D01*
G37*
G36*
X124410318Y-98034706D02*
G01*
X124303427Y-97797640D01*
X124193007Y-97690042D01*
X124091760Y-97642065D01*
X124088585Y-97641006D01*
X123988749Y-97628306D01*
X123883621Y-97663584D01*
X123803188Y-97815631D01*
X123525199Y-98777304D01*
X123792957Y-98857384D01*
X124055777Y-97959917D01*
X124074827Y-97916879D01*
X124100227Y-97912292D01*
X124101991Y-97912998D01*
X124103755Y-97913704D01*
X124151732Y-97988140D01*
X124501335Y-99072931D01*
X124650207Y-99117381D01*
X124784968Y-99157951D01*
X125357880Y-99330459D01*
X125495816Y-99341395D01*
X125605177Y-99290595D01*
X125676438Y-99189348D01*
X125698310Y-99047178D01*
X125658446Y-98865145D01*
X125569193Y-98719801D01*
X125451718Y-98614673D01*
X125326482Y-98554701D01*
X124971235Y-98447809D01*
X124894682Y-98389601D01*
X124861874Y-98296467D01*
X124887627Y-98221679D01*
X124961005Y-98209331D01*
X125607646Y-98400890D01*
X125596005Y-98133131D01*
X125168791Y-98004720D01*
X125147624Y-97998370D01*
X124945482Y-97937340D01*
X124807899Y-97926756D01*
X124698185Y-97977556D01*
X124626924Y-98079156D01*
X124605052Y-98221326D01*
X124645268Y-98403712D01*
X124734168Y-98549056D01*
X124851996Y-98653831D01*
X124977232Y-98714156D01*
X125178316Y-98774834D01*
X125202657Y-98781890D01*
X125332127Y-98821048D01*
X125408680Y-98878904D01*
X125441488Y-98972037D01*
X125415735Y-99047178D01*
X125342357Y-99059173D01*
X124675255Y-98858090D01*
X124674549Y-98858090D01*
X124674902Y-98857737D01*
X124410318Y-98034706D01*
G37*
G36*
X135156001Y-105284125D02*
G01*
X135170643Y-105442424D01*
X135000065Y-105337941D01*
X134820592Y-105266153D01*
X134613639Y-105240914D01*
X134554761Y-105334599D01*
X134613327Y-105441578D01*
X134820425Y-105565028D01*
X134885976Y-105597169D01*
X135061395Y-105694930D01*
X135180045Y-105791056D01*
X135282778Y-106010399D01*
X135262862Y-106127990D01*
X135176862Y-106196917D01*
X135033169Y-106213963D01*
X134838135Y-106175292D01*
X134644525Y-106101011D01*
X134430683Y-105990563D01*
X134414695Y-105817708D01*
X134626805Y-105952398D01*
X134829263Y-106036421D01*
X135029917Y-106057992D01*
X135090839Y-105964923D01*
X135029050Y-105844592D01*
X134943749Y-105784167D01*
X134796757Y-105706472D01*
X134730100Y-105673113D01*
X134575814Y-105586365D01*
X134468463Y-105496962D01*
X134373557Y-105287053D01*
X134467464Y-105099568D01*
X134600488Y-105082623D01*
X134785154Y-105119274D01*
X134982598Y-105192057D01*
X135156001Y-105284125D01*
G37*
G36*
X134282304Y-105446153D02*
G01*
X134089751Y-105340353D01*
X134055593Y-105210000D01*
X133982620Y-105094920D01*
X133879359Y-105004097D01*
X133752297Y-104945896D01*
X133612355Y-104922948D01*
X133507238Y-104948968D01*
X133419546Y-105139211D01*
X134089751Y-105340353D01*
X134282304Y-105446153D01*
X134289877Y-105528031D01*
X133425449Y-105267459D01*
X133474796Y-105430470D01*
X133566336Y-105566402D01*
X133698263Y-105671836D01*
X133866897Y-105744558D01*
X134074174Y-105784045D01*
X134269924Y-105774069D01*
X134284566Y-105932367D01*
X134082529Y-105928067D01*
X133868785Y-105883092D01*
X133697369Y-105816092D01*
X133548241Y-105725150D01*
X133421399Y-105610267D01*
X133286409Y-105407290D01*
X133226489Y-105178300D01*
X133243552Y-104965440D01*
X133341023Y-104827229D01*
X133509356Y-104770517D01*
X133737126Y-104803358D01*
X133946853Y-104898858D01*
X134114189Y-105046141D01*
X134229756Y-105232430D01*
X134282304Y-105446153D01*
G37*
G36*
X132837642Y-104274860D02*
G01*
X132864401Y-104564164D01*
X133251657Y-104680897D01*
X133263691Y-104810993D01*
X132876435Y-104694259D01*
X132927599Y-105247394D01*
X132980215Y-105418908D01*
X133139830Y-105501513D01*
X133332947Y-105559726D01*
X133345906Y-105699829D01*
X133152789Y-105641616D01*
X132967206Y-105568207D01*
X132845737Y-105479192D01*
X132774197Y-105358132D01*
X132738569Y-105190413D01*
X132687405Y-104637278D01*
X132549464Y-104595698D01*
X132537431Y-104465602D01*
X132675372Y-104507183D01*
X132648612Y-104217879D01*
X132837642Y-104274860D01*
G37*
G36*
X132450507Y-104864793D02*
G01*
X132081908Y-104820897D01*
X131890119Y-104774361D01*
X131770468Y-104772121D01*
X131697237Y-104903931D01*
X131775759Y-105065566D01*
X131960389Y-105171631D01*
X132098868Y-105189495D01*
X132201638Y-105148838D01*
X132262241Y-105055010D01*
X132272344Y-104914562D01*
X132268894Y-104877262D01*
X132081908Y-104820897D01*
X132450507Y-104864793D01*
X132504279Y-105446130D01*
X132316271Y-105389457D01*
X132301965Y-105234798D01*
X132154252Y-105323815D01*
X131923281Y-105296642D01*
X131763396Y-105227221D01*
X131635234Y-105124912D01*
X131548304Y-104998550D01*
X131510239Y-104858175D01*
X131528477Y-104717085D01*
X131615001Y-104637702D01*
X131770383Y-104620864D01*
X131993156Y-104666791D01*
X132256776Y-104746256D01*
X132255262Y-104729881D01*
X132152938Y-104525695D01*
X132046342Y-104447132D01*
X131907950Y-104389939D01*
X131718812Y-104353266D01*
X131545807Y-104362139D01*
X131531501Y-104207480D01*
X131726890Y-104215083D01*
X131914237Y-104253868D01*
X132133761Y-104347900D01*
X132295747Y-104480304D01*
X132401045Y-104652221D01*
X132450507Y-104864793D01*
G37*
G36*
X131092408Y-103748779D02*
G01*
X131119168Y-104038082D01*
X131506423Y-104154816D01*
X131518457Y-104284912D01*
X131131201Y-104168178D01*
X131182365Y-104721313D01*
X131234981Y-104892826D01*
X131394596Y-104975432D01*
X131587713Y-105033645D01*
X131600672Y-105173748D01*
X131407555Y-105115535D01*
X131221972Y-105042126D01*
X131100503Y-104953110D01*
X131028963Y-104832051D01*
X130993335Y-104664332D01*
X130942171Y-104111197D01*
X130804230Y-104069617D01*
X130792197Y-103939521D01*
X130930138Y-103981102D01*
X130903378Y-103691798D01*
X131092408Y-103748779D01*
G37*
G36*
X130432839Y-103544653D02*
G01*
X130449417Y-103723876D01*
X130331194Y-103645788D01*
X130220790Y-103582438D01*
X130017226Y-103497198D01*
X129869137Y-103466708D01*
X129762057Y-103476881D01*
X129686434Y-103615045D01*
X129759342Y-103769681D01*
X129851534Y-103837491D01*
X129997081Y-103912981D01*
X130123843Y-103973302D01*
X130329375Y-104087879D01*
X130476887Y-104214151D01*
X130570297Y-104354184D01*
X130611644Y-104511246D01*
X130590400Y-104673541D01*
X130490149Y-104765589D01*
X130314318Y-104786875D01*
X130064294Y-104736272D01*
X129831351Y-104644828D01*
X129704957Y-104580417D01*
X129572996Y-104504158D01*
X129555493Y-104314928D01*
X129684986Y-104407468D01*
X129810494Y-104483772D01*
X130050493Y-104587071D01*
X130205651Y-104618807D01*
X130317587Y-104607444D01*
X130397310Y-104459903D01*
X130313354Y-104282480D01*
X130218106Y-104205790D01*
X130079714Y-104129803D01*
X129952015Y-104070085D01*
X129748163Y-103957562D01*
X129606027Y-103841091D01*
X129518971Y-103713364D01*
X129480359Y-103567076D01*
X129500971Y-103416752D01*
X129596131Y-103326044D01*
X129758808Y-103299465D01*
X129979925Y-103340913D01*
X130200185Y-103424111D01*
X130432839Y-103544653D01*
G37*
G36*
X128559560Y-103416865D02*
G01*
X128479873Y-103457405D01*
X128370885Y-103347609D01*
X128235102Y-103281031D01*
X128104200Y-103267220D01*
X128009853Y-103315723D01*
X127957776Y-103421186D01*
X127951805Y-103579462D01*
X127988259Y-103750747D01*
X128063457Y-103895240D01*
X128172383Y-104004353D01*
X128308145Y-104070704D01*
X128439068Y-104084743D01*
X128533478Y-104036922D01*
X128586258Y-103931007D01*
X128592463Y-103772581D01*
X128555775Y-103601446D01*
X128479873Y-103457405D01*
X128559560Y-103416865D01*
X128508565Y-102865550D01*
X128696573Y-102922223D01*
X128827512Y-104337810D01*
X128639504Y-104281137D01*
X128625366Y-104128297D01*
X128487703Y-104218575D01*
X128275124Y-104196946D01*
X128083452Y-104103351D01*
X127923281Y-103947616D01*
X127810178Y-103747698D01*
X127757666Y-103520941D01*
X127770038Y-103313742D01*
X127851585Y-103172500D01*
X127991307Y-103107164D01*
X128176162Y-103127068D01*
X128396904Y-103236944D01*
X128559560Y-103416865D01*
G37*
G36*
X127650833Y-103447171D02*
G01*
X127458281Y-103341371D01*
X127424122Y-103211018D01*
X127351149Y-103095938D01*
X127247888Y-103005115D01*
X127120826Y-102946915D01*
X126980884Y-102923966D01*
X126875767Y-102949986D01*
X126788075Y-103140229D01*
X127458281Y-103341371D01*
X127650833Y-103447171D01*
X127658406Y-103529049D01*
X126793978Y-103268477D01*
X126843325Y-103431488D01*
X126934865Y-103567420D01*
X127066792Y-103672854D01*
X127235426Y-103745576D01*
X127442703Y-103785063D01*
X127638453Y-103775087D01*
X127653095Y-103933385D01*
X127451059Y-103929085D01*
X127237314Y-103884110D01*
X127065898Y-103817110D01*
X126916770Y-103726168D01*
X126789928Y-103611285D01*
X126654938Y-103408308D01*
X126595018Y-103179318D01*
X126612081Y-102966458D01*
X126709553Y-102828247D01*
X126877885Y-102771535D01*
X127105655Y-102804376D01*
X127315382Y-102899876D01*
X127482718Y-103047159D01*
X127598285Y-103233448D01*
X127650833Y-103447171D01*
G37*
G36*
X126206171Y-102275878D02*
G01*
X126232931Y-102565182D01*
X126620187Y-102681916D01*
X126632220Y-102812011D01*
X126244965Y-102695277D01*
X126296128Y-103248412D01*
X126348745Y-103419926D01*
X126508360Y-103502531D01*
X126701477Y-103560744D01*
X126714436Y-103700847D01*
X126521319Y-103642634D01*
X126335736Y-103569226D01*
X126214267Y-103480210D01*
X126142726Y-103359150D01*
X126107098Y-103191431D01*
X126055935Y-102638296D01*
X125917994Y-102596716D01*
X125905960Y-102466620D01*
X126043901Y-102508201D01*
X126017141Y-102218897D01*
X126206171Y-102275878D01*
G37*
G36*
X125582408Y-102369089D02*
G01*
X125770416Y-102425762D01*
X125864665Y-103444693D01*
X125676657Y-103388020D01*
X125582408Y-102369089D01*
G37*
G36*
X125545718Y-101972433D02*
G01*
X125733726Y-102029106D01*
X125753333Y-102241080D01*
X125565325Y-102184407D01*
X125545718Y-101972433D01*
G37*
G36*
X125407562Y-102709054D02*
G01*
X125464448Y-103324052D01*
X125276439Y-103267379D01*
X125220058Y-102657840D01*
X125136680Y-102422221D01*
X124939980Y-102293061D01*
X124707856Y-102307107D01*
X124641777Y-102516246D01*
X124695045Y-103092125D01*
X124506015Y-103035144D01*
X124411766Y-102016212D01*
X124600796Y-102073193D01*
X124615438Y-102231491D01*
X124761108Y-102141858D01*
X124968409Y-102160127D01*
X125144126Y-102239627D01*
X125276868Y-102359236D01*
X125365127Y-102516068D01*
X125407562Y-102709054D01*
G37*
G36*
X122861341Y-101218975D02*
G01*
X123068763Y-101281500D01*
X123145088Y-102106653D01*
X123184689Y-102301217D01*
X123263100Y-102448226D01*
X123386210Y-102554983D01*
X123560078Y-102630609D01*
X123728763Y-102658241D01*
X123838364Y-102621633D01*
X123893296Y-102514819D01*
X123898143Y-102333653D01*
X123821818Y-101508500D01*
X124029240Y-101571025D01*
X124107668Y-102418922D01*
X124092192Y-102640882D01*
X123996620Y-102775465D01*
X123823636Y-102822152D01*
X123573879Y-102779809D01*
X123395377Y-102711360D01*
X123245423Y-102622233D01*
X123124017Y-102512429D01*
X122998118Y-102311086D01*
X122939770Y-102066872D01*
X122861341Y-101218975D01*
G37*
G36*
X171492040Y-108750154D02*
G01*
X171445826Y-108771144D01*
X171368568Y-108853624D01*
X171351282Y-108901355D01*
X171371743Y-108947639D01*
X171427835Y-108999956D01*
X171475812Y-109017771D01*
X171522026Y-108996781D01*
X171598932Y-108914302D01*
X171616924Y-108866571D01*
X171595757Y-108820569D01*
X171539665Y-108767969D01*
X171492040Y-108750154D01*
G37*
G36*
X171189004Y-108555280D02*
G01*
X171157607Y-108577963D01*
X171149846Y-108619380D01*
X171195354Y-108715370D01*
X171287782Y-108795874D01*
X171380915Y-108817147D01*
X171412312Y-108794428D01*
X171419721Y-108753047D01*
X171374565Y-108657021D01*
X171282137Y-108576552D01*
X171189004Y-108555280D01*
G37*
G36*
X172319304Y-107812224D02*
G01*
X172273090Y-107833214D01*
X172195832Y-107915729D01*
X172195832Y-107916011D01*
X172178193Y-107963425D01*
X172199007Y-108009709D01*
X172255099Y-108062026D01*
X172303076Y-108079841D01*
X172348937Y-108058886D01*
X172425843Y-107976371D01*
X172443835Y-107928676D01*
X172422668Y-107882674D01*
X172366576Y-107830075D01*
X172319304Y-107812224D01*
G37*
G36*
X172015915Y-107617350D02*
G01*
X171984871Y-107640068D01*
X171977110Y-107681449D01*
X172022618Y-107777440D01*
X172115046Y-107857944D01*
X172208179Y-107879216D01*
X172239224Y-107856498D01*
X172246985Y-107815117D01*
X172201476Y-107719091D01*
X172109401Y-107638622D01*
X172015915Y-107617350D01*
G37*
G36*
X171407374Y-107842140D02*
G01*
X171361160Y-107863130D01*
X171284254Y-107945609D01*
X171266262Y-107993340D01*
X171287429Y-108039307D01*
X171343521Y-108091906D01*
X171391146Y-108109757D01*
X171437007Y-108088766D01*
X171514618Y-108006252D01*
X171514618Y-108005970D01*
X171531904Y-107958556D01*
X171511443Y-107912272D01*
X171455351Y-107859955D01*
X171407374Y-107842140D01*
G37*
G36*
X171104690Y-107646948D02*
G01*
X171072940Y-107669667D01*
X171065532Y-107711047D01*
X171111040Y-107807356D01*
X171203115Y-107887824D01*
X171296249Y-107909097D01*
X171327646Y-107886413D01*
X171335054Y-107844997D01*
X171289899Y-107748724D01*
X171197471Y-107668502D01*
X171104690Y-107646948D01*
G37*
G36*
X172752515Y-106573657D02*
G01*
X172726057Y-106533652D01*
X172752515Y-106544976D01*
X172752515Y-106544940D01*
X172778974Y-106534110D01*
X172778974Y-106534075D01*
X172827657Y-106486662D01*
X172828010Y-106433604D01*
X172622340Y-106224195D01*
X172569071Y-106223701D01*
X172569071Y-106223772D01*
X172520740Y-106271255D01*
X172520035Y-106324243D01*
X172726057Y-106533652D01*
X172752515Y-106573657D01*
X172705596Y-106553901D01*
X172705596Y-106553866D01*
X172499574Y-106344457D01*
X172480876Y-106297326D01*
X172500632Y-106250583D01*
X172548962Y-106203064D01*
X172548962Y-106203028D01*
X172595882Y-106184190D01*
X172642801Y-106203910D01*
X172848471Y-106413354D01*
X172867521Y-106460415D01*
X172847765Y-106507193D01*
X172847765Y-106507229D01*
X172799435Y-106554642D01*
X172799435Y-106554677D01*
X172752515Y-106573657D01*
G37*
G36*
X165674382Y-103626340D02*
G01*
X165620054Y-103599670D01*
X165756932Y-103569542D01*
X165757285Y-103569190D01*
X166682974Y-102943891D01*
X166694968Y-102910659D01*
X166684737Y-102853862D01*
X166615593Y-102765809D01*
X164626985Y-102015098D01*
X164520093Y-102002751D01*
X164429076Y-102015451D01*
X164350407Y-102065192D01*
X164348996Y-102066603D01*
X164347232Y-102067662D01*
X163359101Y-102679025D01*
X163340757Y-102723828D01*
X163391910Y-102766162D01*
X165571018Y-103588451D01*
X165571018Y-103588487D01*
X165619701Y-103599493D01*
X165620054Y-103599493D01*
X165620054Y-103599670D01*
X165674382Y-103626340D01*
X165561493Y-103612828D01*
X163382385Y-102790503D01*
X163315710Y-102731942D01*
X163343226Y-102658564D01*
X163343932Y-102658212D01*
X164333474Y-102045789D01*
X164422021Y-101990403D01*
X164519740Y-101976645D01*
X164633687Y-101990051D01*
X164634393Y-101990403D01*
X166624765Y-102741467D01*
X166675565Y-102782037D01*
X166708726Y-102845149D01*
X166720721Y-102911365D01*
X166699201Y-102964211D01*
X166698849Y-102964564D01*
X165772101Y-103590427D01*
X165773160Y-103589792D01*
X165674735Y-103626516D01*
X165674735Y-103626481D01*
X165674382Y-103626340D01*
G37*
G36*
X164363460Y-104886321D02*
G01*
X164366282Y-104859862D01*
X164502454Y-104827971D01*
X165147685Y-104174521D01*
X165172026Y-104054435D01*
X165143804Y-103974249D01*
X165076776Y-103913360D01*
X163160135Y-103220222D01*
X163018318Y-103173867D01*
X162945293Y-103161449D01*
X162902254Y-103169775D01*
X162094040Y-103970404D01*
X162093688Y-103970792D01*
X162074990Y-104015983D01*
X162127201Y-104057575D01*
X164317246Y-104849526D01*
X164366635Y-104859827D01*
X164366282Y-104859862D01*
X164363460Y-104886321D01*
X164308074Y-104873938D01*
X162117676Y-104081987D01*
X162049943Y-104024379D01*
X162076754Y-103950683D01*
X162076049Y-103951495D01*
X162884968Y-103150054D01*
X162885321Y-103149702D01*
X162945999Y-103135414D01*
X163024315Y-103148643D01*
X163168601Y-103195774D01*
X165087007Y-103889441D01*
X165087712Y-103889759D01*
X165164971Y-103959715D01*
X165197426Y-104052883D01*
X165170615Y-104186903D01*
X165169557Y-104189020D01*
X165168146Y-104190678D01*
X164519387Y-104847444D01*
X164519035Y-104847868D01*
X164448832Y-104880958D01*
X164363812Y-104886356D01*
X164363460Y-104886321D01*
G37*
G36*
X161452690Y-102615878D02*
G01*
X161482676Y-102695253D01*
X161673882Y-102765809D01*
X161667179Y-102762281D01*
X162305354Y-103020797D01*
X162272899Y-103100983D01*
X161631196Y-102841444D01*
X161628021Y-102839434D01*
X161473504Y-102780273D01*
X161367671Y-102793325D01*
X161284415Y-102850934D01*
X161283710Y-102851534D01*
X160843443Y-103385287D01*
X160776415Y-103330112D01*
X161214918Y-102798264D01*
X161215976Y-102796853D01*
X161246315Y-102766867D01*
X161336626Y-102712539D01*
X161482676Y-102695253D01*
X161452690Y-102615878D01*
X161286532Y-102644806D01*
X161187401Y-102711481D01*
X161154240Y-102749581D01*
X161159532Y-102742525D01*
X160808871Y-103132698D01*
X160807813Y-103134708D01*
X160775357Y-103185579D01*
X160731613Y-103312614D01*
X160732318Y-103393965D01*
X160765126Y-103477891D01*
X160837446Y-103550633D01*
X160951393Y-103603515D01*
X161422351Y-103757573D01*
X161422704Y-103757573D01*
X161618849Y-103786042D01*
X161743026Y-103771084D01*
X161840393Y-103741486D01*
X161926118Y-103699788D01*
X161931410Y-103696048D01*
X162228801Y-103386768D01*
X162227390Y-103387932D01*
X162319818Y-103278995D01*
X162367090Y-103178982D01*
X162374851Y-103087577D01*
X162351568Y-103011377D01*
X162266196Y-102918844D01*
X162216454Y-102891539D01*
X162215749Y-102891221D01*
X162033363Y-102821548D01*
X161681996Y-102677614D01*
X161559935Y-102632106D01*
X161452690Y-102615878D01*
G37*
G36*
X161639310Y-105246048D02*
G01*
X161659065Y-105208195D01*
X161996674Y-105018859D01*
X161617790Y-104845928D01*
X161659065Y-105208195D01*
X161639310Y-105246048D01*
X161589568Y-104807193D01*
X161608618Y-104815800D01*
X162048532Y-105016743D01*
X161639310Y-105246048D01*
G37*
G36*
X161548293Y-105441205D02*
G01*
X161568049Y-105403316D01*
X162272546Y-105007853D01*
X161481618Y-104646855D01*
X161568049Y-105403316D01*
X161548293Y-105441205D01*
X161453749Y-104608120D01*
X161472799Y-104616798D01*
X162324757Y-105005665D01*
X161548293Y-105441205D01*
G37*
G36*
X116195888Y-101676784D02*
G01*
X116201532Y-101649620D01*
X116233635Y-101641153D01*
X116246688Y-101605170D01*
X116221994Y-100787431D01*
X116167313Y-100717228D01*
X115407782Y-100569767D01*
X115375327Y-100578234D01*
X115362274Y-100614570D01*
X115386969Y-101431956D01*
X115441649Y-101502159D01*
X116201532Y-101649620D01*
X116195888Y-101676784D01*
X115436357Y-101529676D01*
X115382030Y-101495456D01*
X115359099Y-101433014D01*
X115334757Y-100615276D01*
X115356277Y-100558126D01*
X115412721Y-100542603D01*
X116172605Y-100690064D01*
X116226932Y-100724284D01*
X116249863Y-100786726D01*
X116274557Y-101604112D01*
X116274557Y-101604464D01*
X116252685Y-101661262D01*
X116196241Y-101676784D01*
X116195888Y-101676784D01*
G37*
G36*
X123012966Y-91609918D02*
G01*
X119869716Y-89659057D01*
X119900055Y-89610021D01*
X123043305Y-91560882D01*
X123012966Y-91609918D01*
G37*
G36*
X120853260Y-89951510D02*
G01*
X120299752Y-89806871D01*
X119027635Y-89445274D01*
X117618993Y-88975021D01*
X117044671Y-88733015D01*
X116651324Y-88500888D01*
X116687660Y-88455732D01*
X117069366Y-88679746D01*
X117639455Y-88921046D01*
X119044216Y-89390240D01*
X120314568Y-89750779D01*
X120867371Y-89895418D01*
X120853260Y-89951510D01*
G37*
G36*
X109260630Y-83231446D02*
G01*
X109561196Y-83489680D01*
X111006880Y-83814941D01*
X111007232Y-83815293D01*
X111088371Y-83826935D01*
X111237596Y-83815999D01*
X111263349Y-83892905D01*
X111166688Y-83910543D01*
X111167041Y-83910191D01*
X110987830Y-83893257D01*
X110987477Y-83893257D01*
X109543557Y-83568702D01*
X109561196Y-83489680D01*
X109260630Y-83231446D01*
X109598591Y-83780016D01*
X111708907Y-84398788D01*
X111708907Y-84398435D01*
X111710319Y-84399141D01*
X111731485Y-84320824D01*
X111729721Y-84320471D01*
X111598841Y-84254855D01*
X111491949Y-84138791D01*
X111408341Y-83987449D01*
X111348016Y-83820232D01*
X111287691Y-83517549D01*
X111282752Y-83423357D01*
X111284516Y-83402896D01*
X111282752Y-83406424D01*
X111250296Y-83424768D01*
X111252766Y-83343982D01*
X109338241Y-83235680D01*
X109260630Y-83231446D01*
G37*
G36*
X114296532Y-86962071D02*
G01*
X114259844Y-86903157D01*
X114932591Y-86483704D01*
X114936471Y-85755924D01*
X113382132Y-83683355D01*
X112756305Y-83975455D01*
X113289705Y-84767793D01*
X112891419Y-85054249D01*
X114055232Y-86730649D01*
X113998082Y-86770513D01*
X112795463Y-85037668D01*
X113194807Y-84750507D01*
X112653646Y-83946880D01*
X113404005Y-83596571D01*
X115005969Y-85732641D01*
X115001735Y-86522157D01*
X114296532Y-86962071D01*
G37*
G36*
X104124538Y-71296975D02*
G01*
X105308460Y-72798750D01*
X105343032Y-72872128D01*
X105633369Y-73304280D01*
X105667941Y-73377658D01*
X105053755Y-73666583D01*
X105019182Y-73593558D01*
X105633369Y-73304280D01*
X105343032Y-72872128D01*
X104728494Y-73160700D01*
X104694274Y-73087675D01*
X105308460Y-72798750D01*
X104124538Y-71296975D01*
X103955663Y-71334369D01*
X103764811Y-71443025D01*
X103728898Y-71475833D01*
X103664198Y-71573200D01*
X103632025Y-71736536D01*
X103644937Y-71842369D01*
X103685753Y-71963372D01*
X103687199Y-71966547D01*
X111431624Y-83384199D01*
X108305307Y-78218827D01*
X108270735Y-78145449D01*
X108884921Y-77856524D01*
X108919494Y-77929549D01*
X109210182Y-78362408D01*
X109244755Y-78435433D01*
X108630216Y-78724358D01*
X108595996Y-78650980D01*
X109210182Y-78362408D01*
X108919494Y-77929549D01*
X108305307Y-78218827D01*
X111431624Y-83384199D01*
X111412574Y-83540832D01*
X111414338Y-83682296D01*
X111440091Y-83845280D01*
X111510294Y-84022374D01*
X111641174Y-84176538D01*
X111733955Y-84236157D01*
X111846844Y-84279902D01*
X109569663Y-78904980D01*
X108955477Y-79193905D01*
X108920905Y-79120880D01*
X109535091Y-78831955D01*
X109569663Y-78904980D01*
X111846844Y-84279902D01*
X111980899Y-84305655D01*
X111050977Y-82265188D01*
X111016405Y-82192163D01*
X111630591Y-81902885D01*
X111665163Y-81976263D01*
X111050977Y-82265188D01*
X111980899Y-84305655D01*
X112137180Y-84309888D01*
X111375885Y-82770719D01*
X111341666Y-82697694D01*
X111955852Y-82408416D01*
X111990424Y-82481794D01*
X111375885Y-82770719D01*
X112137180Y-84309888D01*
X112146352Y-84309535D01*
X112315332Y-82951341D01*
X111701146Y-83240618D01*
X111666574Y-83167241D01*
X112280760Y-82878316D01*
X112315332Y-82951341D01*
X112146352Y-84309535D01*
X113168349Y-83780016D01*
X105958630Y-73774180D01*
X105993202Y-73846852D01*
X105378663Y-74136130D01*
X105344444Y-74062752D01*
X105958630Y-73774180D01*
X113168349Y-83780016D01*
X104582796Y-71601069D01*
X104531996Y-71515697D01*
X104385594Y-71371411D01*
X104268824Y-71314967D01*
X104124538Y-71296975D01*
G37*
G36*
X121332332Y-91748207D02*
G01*
X121309049Y-91727393D01*
X121348560Y-91723512D01*
X121550702Y-91570054D01*
X121554230Y-91565115D01*
X121546468Y-91559118D01*
X121107260Y-91382729D01*
X121067749Y-91386610D01*
X120865607Y-91539715D01*
X120862080Y-91545007D01*
X120869488Y-91551004D01*
X121309049Y-91727393D01*
X121332332Y-91748207D01*
X121302346Y-91744326D01*
X120862785Y-91567937D01*
X120844441Y-91548887D01*
X120854671Y-91525251D01*
X121056813Y-91372146D01*
X121113610Y-91365796D01*
X121553171Y-91542185D01*
X121571868Y-91560882D01*
X121561638Y-91584518D01*
X121359496Y-91737976D01*
X121332332Y-91748207D01*
G37*
G36*
X111314855Y-94867820D02*
G01*
X111284516Y-94865704D01*
X110967369Y-94833954D01*
X110215599Y-94720712D01*
X109769688Y-94625462D01*
X109326599Y-94499168D01*
X108923021Y-94337595D01*
X108594938Y-94136865D01*
X108631274Y-94091709D01*
X108948069Y-94284679D01*
X109344591Y-94443076D01*
X109783446Y-94568665D01*
X110226182Y-94663915D01*
X110932444Y-94771865D01*
X111259116Y-94805026D01*
X111332141Y-93702948D01*
X111478544Y-92724343D01*
X111673982Y-91874501D01*
X111894469Y-91158010D01*
X112115660Y-90579454D01*
X112313921Y-90144126D01*
X112544991Y-89720793D01*
X110209955Y-88776407D01*
X110231827Y-88722785D01*
X112630716Y-89693276D01*
X112611313Y-89722557D01*
X112419049Y-90065457D01*
X112220435Y-90485615D01*
X111990424Y-91063465D01*
X111757238Y-91793362D01*
X111548394Y-92669662D01*
X111391760Y-93686368D01*
X111315560Y-94837482D01*
X111314855Y-94867820D01*
G37*
G36*
X103622641Y-71863183D02*
G01*
X102141363Y-71736889D01*
X102151170Y-71621530D01*
X103632484Y-71747825D01*
X103622641Y-71863183D01*
G37*
G36*
X106334338Y-71581314D02*
G01*
X104238838Y-71382700D01*
X104244483Y-71325197D01*
X106339630Y-71523811D01*
X106334338Y-71581314D01*
G37*
G36*
X107319294Y-91786307D02*
G01*
X107255441Y-91799007D01*
X107140788Y-91885790D01*
X107105510Y-91948937D01*
X107094574Y-92011732D01*
X107109391Y-92068176D01*
X107151019Y-92108040D01*
X107210285Y-92121798D01*
X107210285Y-92121446D01*
X107274138Y-92109098D01*
X107388791Y-92022315D01*
X107424069Y-91959168D01*
X107435005Y-91896373D01*
X107419835Y-91839929D01*
X107378560Y-91799360D01*
X107319294Y-91786307D01*
G37*
G36*
X107861160Y-91966929D02*
G01*
X107797307Y-91979276D01*
X107682655Y-92066412D01*
X107647730Y-92129560D01*
X107636794Y-92192354D01*
X107651610Y-92248798D01*
X107692885Y-92289015D01*
X107752152Y-92302421D01*
X107816005Y-92289721D01*
X107930657Y-92202937D01*
X107965935Y-92139790D01*
X107976871Y-92076996D01*
X107962055Y-92020551D01*
X107920427Y-91980335D01*
X107861160Y-91966929D01*
G37*
G36*
X174087074Y-108699848D02*
G01*
X174001349Y-108708174D01*
X173928324Y-108746133D01*
X173878229Y-108811679D01*
X173862707Y-108893029D01*
X173882815Y-108972616D01*
X173933968Y-109042184D01*
X174009815Y-109093054D01*
X174097657Y-109115491D01*
X174222540Y-109091925D01*
X174306854Y-109003660D01*
X174322376Y-108922345D01*
X174301915Y-108842723D01*
X174250762Y-108773155D01*
X174175268Y-108722567D01*
X174087074Y-108699848D01*
G37*
G36*
X173253460Y-109256284D02*
G01*
X173128929Y-109279885D01*
X173044262Y-109368115D01*
X173028740Y-109449395D01*
X173049201Y-109529017D01*
X173100354Y-109598479D01*
X173175849Y-109649208D01*
X173264043Y-109671927D01*
X173388574Y-109648326D01*
X173472887Y-109560132D01*
X173488762Y-109478887D01*
X173468301Y-109399230D01*
X173417149Y-109329768D01*
X173341654Y-109279003D01*
X173253460Y-109256320D01*
X173253460Y-109256284D01*
G37*
G36*
X172721118Y-110039063D02*
G01*
X172635393Y-110047389D01*
X172562368Y-110085312D01*
X172512274Y-110150858D01*
X172496399Y-110232209D01*
X172516860Y-110311831D01*
X172568012Y-110381399D01*
X172643507Y-110432269D01*
X172731701Y-110454670D01*
X172856232Y-110431105D01*
X172940899Y-110342875D01*
X172956421Y-110261525D01*
X172935960Y-110181903D01*
X172884807Y-110112617D01*
X172809312Y-110061747D01*
X172721118Y-110039063D01*
G37*
G36*
X175202204Y-113408267D02*
G01*
X175200793Y-113338911D01*
X175233249Y-113326881D01*
X175328499Y-113192720D01*
X175423749Y-112997316D01*
X175722904Y-112513517D01*
X175958912Y-112201696D01*
X176257362Y-111863665D01*
X176623193Y-111514732D01*
X177059579Y-111170139D01*
X177060990Y-111168975D01*
X177062754Y-111167987D01*
X177207746Y-111088295D01*
X177214096Y-110986095D01*
X177147773Y-110869855D01*
X175969143Y-109810816D01*
X175969143Y-109810781D01*
X175846729Y-109762767D01*
X175738073Y-109781500D01*
X175735957Y-109783299D01*
X175560626Y-109904408D01*
X175559568Y-109905078D01*
X175176804Y-110166910D01*
X174837079Y-110468111D01*
X174542862Y-110785752D01*
X174296624Y-111097008D01*
X173957604Y-111608677D01*
X173840482Y-111819956D01*
X173840129Y-111820273D01*
X173772749Y-111948790D01*
X173769926Y-111952036D01*
X173763576Y-112066547D01*
X173830251Y-112191043D01*
X173830251Y-112191078D01*
X175008529Y-113250187D01*
X175136587Y-113326034D01*
X175200440Y-113338840D01*
X175200440Y-113338876D01*
X175200793Y-113338911D01*
X175202204Y-113408267D01*
X175113304Y-113391263D01*
X174962315Y-113301799D01*
X173784037Y-112242725D01*
X173696549Y-112084151D01*
X173685612Y-111989218D01*
X173718774Y-111905681D01*
X173713835Y-111912771D01*
X173778393Y-111789088D01*
X173778393Y-111788947D01*
X173778746Y-111788417D01*
X173897279Y-111574105D01*
X174239121Y-111056545D01*
X174488535Y-110741408D01*
X174786985Y-110419322D01*
X175132707Y-110113287D01*
X175523232Y-109846164D01*
X175694329Y-109727772D01*
X175690448Y-109731123D01*
X175766296Y-109694681D01*
X175855196Y-109693976D01*
X176015357Y-109759240D01*
X176015357Y-109759275D01*
X177193987Y-110818314D01*
X177193987Y-110818349D01*
X177280771Y-110967398D01*
X177291001Y-111057074D01*
X177258193Y-111137472D01*
X177254312Y-111141776D01*
X177098385Y-111227642D01*
X176665173Y-111570048D01*
X176302871Y-111916652D01*
X176006890Y-112252108D01*
X175774410Y-112561001D01*
X175480899Y-113037744D01*
X175389882Y-113223976D01*
X175388471Y-113227574D01*
X175286518Y-113371684D01*
X175285107Y-113373166D01*
X175202204Y-113408267D01*
X175202557Y-113408267D01*
X175202204Y-113408267D01*
G37*
G36*
X175840379Y-110129021D02*
G01*
X175780054Y-110133713D01*
X175731018Y-110161830D01*
X175702796Y-110209807D01*
X175696798Y-110267204D01*
X175731018Y-110398332D01*
X175819918Y-110551543D01*
X175947976Y-110706342D01*
X176091204Y-110836447D01*
X176234079Y-110930215D01*
X176367782Y-110973183D01*
X176428460Y-110968456D01*
X176477496Y-110940516D01*
X176505718Y-110892397D01*
X176512068Y-110835000D01*
X176477496Y-110703873D01*
X176388243Y-110550661D01*
X176260537Y-110395827D01*
X176117310Y-110265864D01*
X175974435Y-110171990D01*
X175840379Y-110129021D01*
G37*
G36*
X174498412Y-111677222D02*
G01*
X174426799Y-111685935D01*
X174370354Y-111721672D01*
X174340015Y-111779951D01*
X174335782Y-111848248D01*
X174383407Y-112001001D01*
X174496296Y-112177037D01*
X174655399Y-112352897D01*
X174831082Y-112498735D01*
X175005001Y-112601888D01*
X175165162Y-112645597D01*
X175236424Y-112636777D01*
X175292868Y-112601006D01*
X175323560Y-112542903D01*
X175327793Y-112474746D01*
X175280168Y-112321994D01*
X175166926Y-112145958D01*
X175008176Y-111969957D01*
X174832493Y-111824118D01*
X174658574Y-111720790D01*
X174498412Y-111677222D01*
G37*
G36*
X145340624Y-94225765D02*
G01*
X143281460Y-84976991D01*
X143309682Y-84970993D01*
X145368846Y-94219415D01*
X145340624Y-94225765D01*
G37*
G36*
X105385013Y-93877573D02*
G01*
X105302463Y-93911793D01*
X105268244Y-93994696D01*
X105302463Y-94077598D01*
X105385013Y-94111818D01*
X105467916Y-94077598D01*
X105502488Y-93994696D01*
X105467916Y-93911793D01*
X105385013Y-93877573D01*
G37*
G36*
X121506957Y-98824929D02*
G01*
X120459207Y-98535651D01*
X120466968Y-98507781D01*
X121514366Y-98797059D01*
X121506957Y-98824929D01*
G37*
G36*
X112047574Y-98072101D02*
G01*
X111990777Y-98083742D01*
X111944210Y-98115140D01*
X111912813Y-98161706D01*
X111901524Y-98218504D01*
X111912813Y-98275654D01*
X111944210Y-98322220D01*
X111990777Y-98353617D01*
X112047574Y-98365259D01*
X112104371Y-98353617D01*
X112150938Y-98322220D01*
X112182335Y-98275654D01*
X112193977Y-98218504D01*
X112182335Y-98161706D01*
X112150938Y-98115140D01*
X112104371Y-98083742D01*
X112047574Y-98072101D01*
G37*
G36*
X112661760Y-98217092D02*
G01*
X112604963Y-98228381D01*
X112558396Y-98259779D01*
X112526999Y-98306345D01*
X112515357Y-98363142D01*
X112526999Y-98419940D01*
X112558396Y-98466506D01*
X112604963Y-98498256D01*
X112661760Y-98509898D01*
X112718557Y-98498256D01*
X112765124Y-98466506D01*
X112796874Y-98419940D01*
X112808163Y-98363142D01*
X112796874Y-98306345D01*
X112765124Y-98259779D01*
X112718557Y-98228381D01*
X112661760Y-98217092D01*
G37*
G36*
X123033427Y-90965040D02*
G01*
X123033427Y-90924824D01*
X123088107Y-90902599D01*
X123110685Y-90847918D01*
X123088107Y-90793237D01*
X123033427Y-90770660D01*
X122978746Y-90793237D01*
X122956168Y-90847918D01*
X122978746Y-90902599D01*
X123033427Y-90924824D01*
X123033427Y-90965040D01*
X122950877Y-90930821D01*
X122916657Y-90847918D01*
X122950877Y-90765368D01*
X123033427Y-90730796D01*
X123116330Y-90765368D01*
X123150549Y-90847918D01*
X123116330Y-90930821D01*
X123033427Y-90965040D01*
G37*
G36*
X123033427Y-90944932D02*
G01*
X122964635Y-90916357D01*
X122936413Y-90847918D01*
X122964635Y-90779126D01*
X123033427Y-90750551D01*
X123102218Y-90779126D01*
X123130441Y-90847918D01*
X123102218Y-90916357D01*
X123033427Y-90944932D01*
G37*
G36*
X125770630Y-89540171D02*
G01*
X123892088Y-89106607D01*
X123898438Y-89078385D01*
X125776980Y-89511949D01*
X125770630Y-89540171D01*
G37*
G36*
X144740902Y-86852710D02*
G01*
X144162699Y-86852710D01*
X144740902Y-86852710D01*
G37*
G36*
X125189252Y-89828037D02*
G01*
X124875985Y-89713385D01*
X124533438Y-89635068D01*
X124146441Y-89576507D01*
X124149263Y-89547932D01*
X124538730Y-89606846D01*
X124883393Y-89685515D01*
X125201952Y-89802285D01*
X125189252Y-89828037D01*
G37*
G36*
X122325402Y-90629196D02*
G01*
X122325402Y-90588979D01*
X122380082Y-90566754D01*
X122402660Y-90511721D01*
X122380082Y-90457393D01*
X122325402Y-90434815D01*
X122271074Y-90457393D01*
X122248496Y-90511721D01*
X122270721Y-90566754D01*
X122325402Y-90588979D01*
X122325402Y-90629196D01*
X122242852Y-90594624D01*
X122208632Y-90512074D01*
X122242852Y-90429171D01*
X122325402Y-90394599D01*
X122408305Y-90429171D01*
X122442524Y-90512074D01*
X122408305Y-90594624D01*
X122325402Y-90629196D01*
G37*
G36*
X122325402Y-90609087D02*
G01*
X122256610Y-90580512D01*
X122228388Y-90511721D01*
X122256610Y-90443282D01*
X122325402Y-90414707D01*
X122394193Y-90443282D01*
X122422416Y-90511721D01*
X122394193Y-90580512D01*
X122325402Y-90609087D01*
G37*
G36*
X159773468Y-105604400D02*
G01*
X159777349Y-105627683D01*
X159942801Y-105630541D01*
X160039110Y-105644616D01*
X160039815Y-105644934D01*
X160054279Y-105645534D01*
X160607082Y-105776873D01*
X160612374Y-105753872D01*
X160178810Y-105650684D01*
X160580624Y-105668817D01*
X160698451Y-105722827D01*
X160772888Y-105790666D01*
X160823335Y-105876321D01*
X160811340Y-106027521D01*
X160758776Y-106123265D01*
X160679049Y-106180733D01*
X160584151Y-106214670D01*
X160523826Y-106221549D01*
X160336149Y-106168103D01*
X160204563Y-106088199D01*
X159985135Y-105892725D01*
X160532999Y-106119526D01*
X160541818Y-106097971D01*
X159912463Y-105836951D01*
X159797104Y-105754189D01*
X159729018Y-105679153D01*
X159724079Y-105658163D01*
X159729724Y-105645816D01*
X159777349Y-105627683D01*
X159773468Y-105604400D01*
X159713143Y-105629129D01*
X159700443Y-105656152D01*
X159708204Y-105689490D01*
X159781229Y-105772851D01*
X159900821Y-105857624D01*
X159949151Y-105892125D01*
X160189746Y-106106261D01*
X160190451Y-106106579D01*
X160326271Y-106189058D01*
X160523826Y-106245397D01*
X160590501Y-106237354D01*
X160689279Y-106201723D01*
X160776063Y-106139034D01*
X160833918Y-106033836D01*
X160846971Y-105872864D01*
X160846618Y-105871382D01*
X160846618Y-105869900D01*
X160792290Y-105778778D01*
X160712563Y-105704059D01*
X160585915Y-105645710D01*
X160584857Y-105645110D01*
X160077563Y-105622391D01*
X160058160Y-105621792D01*
X160043696Y-105618334D01*
X160042990Y-105621192D01*
X160041932Y-105621192D01*
X159945271Y-105607116D01*
X159773468Y-105604400D01*
G37*
G36*
X172036024Y-113096059D02*
G01*
X171968643Y-113054396D01*
X172036024Y-113067307D01*
X172036024Y-113067272D01*
X172129862Y-113038097D01*
X172194068Y-112959710D01*
X172625868Y-111901518D01*
X172625162Y-111769262D01*
X172531324Y-111676340D01*
X171339287Y-111189753D01*
X171206996Y-111190318D01*
X171113862Y-111284333D01*
X170682062Y-112342561D01*
X170682768Y-112474817D01*
X170776607Y-112567809D01*
X171968643Y-113054396D01*
X172036024Y-113096059D01*
X171957707Y-113081101D01*
X170765671Y-112594515D01*
X170698996Y-112550206D01*
X170655957Y-112485930D01*
X170640082Y-112410259D01*
X170655251Y-112331660D01*
X170655251Y-112331625D01*
X171087051Y-111273362D01*
X171131501Y-111206828D01*
X171195707Y-111163824D01*
X171271554Y-111148055D01*
X171349871Y-111162978D01*
X172541907Y-111649564D01*
X172608582Y-111693873D01*
X172651621Y-111758149D01*
X172667496Y-111833820D01*
X172652326Y-111912454D01*
X172220526Y-112970611D01*
X172220526Y-112970646D01*
X172146090Y-113061910D01*
X172036024Y-113096059D01*
G37*
G36*
X171154785Y-106508393D02*
G01*
X171045776Y-106463237D01*
X171155843Y-106485286D01*
X171155843Y-106485250D01*
X171222518Y-106481194D01*
X171276140Y-106446833D01*
X171302599Y-106382769D01*
X171311065Y-106292210D01*
X171310712Y-106283991D01*
X171422896Y-106238235D01*
X171307185Y-106014998D01*
X171169249Y-106070842D01*
X171163957Y-106066433D01*
X171068354Y-106009847D01*
X170975926Y-105994149D01*
X170894787Y-106013410D01*
X170831993Y-106061882D01*
X170801654Y-106132720D01*
X170810474Y-106219679D01*
X170855629Y-106312425D01*
X170935004Y-106398820D01*
X171045776Y-106463237D01*
X171154785Y-106508393D01*
X171037662Y-106484898D01*
X170920187Y-106416600D01*
X170836579Y-106325548D01*
X170788249Y-106226241D01*
X170779076Y-106129333D01*
X170814001Y-106047101D01*
X170883146Y-105993514D01*
X170971693Y-105971994D01*
X171071176Y-105987375D01*
X171172424Y-106044490D01*
X171318121Y-105985647D01*
X171454999Y-106250054D01*
X171333996Y-106299372D01*
X171325176Y-106387919D01*
X171294485Y-106460415D01*
X171226046Y-106504018D01*
X171154785Y-106508393D01*
G37*
G36*
X175199029Y-110820254D02*
G01*
X175131649Y-110824382D01*
X175076615Y-110854862D01*
X175044512Y-110907531D01*
X175036399Y-110971278D01*
X175072029Y-111117399D01*
X175167985Y-111289448D01*
X175306979Y-111463827D01*
X175463612Y-111611005D01*
X175620599Y-111718003D01*
X175768412Y-111768344D01*
X175836146Y-111764358D01*
X175891179Y-111734054D01*
X175922929Y-111681349D01*
X175931396Y-111617638D01*
X175895412Y-111471341D01*
X175799457Y-111299467D01*
X175660462Y-111125054D01*
X175504182Y-110977875D01*
X175347196Y-110870737D01*
X175199029Y-110820254D01*
G37*
G36*
X171451824Y-107085008D02*
G01*
X171268732Y-107045814D01*
X171180185Y-106993497D01*
X171102221Y-106911865D01*
X171103632Y-106913487D01*
X170235799Y-106009494D01*
X170235093Y-106008612D01*
X170201226Y-105950898D01*
X170160304Y-105821146D01*
X170166301Y-105749003D01*
X170206518Y-105684798D01*
X170290126Y-105641265D01*
X170424182Y-105625002D01*
X170971693Y-105516382D01*
X171462760Y-105456903D01*
X171928779Y-105462160D01*
X171924899Y-105490841D01*
X171465229Y-105485866D01*
X170975926Y-105544921D01*
X170430885Y-105653083D01*
X170429121Y-105653506D01*
X170427357Y-105653506D01*
X170299299Y-105668499D01*
X170225921Y-105706211D01*
X170193465Y-105757752D01*
X170188879Y-105818254D01*
X170226626Y-105936011D01*
X170258376Y-105991432D01*
X171124799Y-106894261D01*
X171125504Y-106895108D01*
X171198176Y-106971096D01*
X171280726Y-107019709D01*
X171453235Y-107056151D01*
X171651496Y-107034137D01*
X172347879Y-106835277D01*
X172917968Y-106713321D01*
X173172321Y-106684111D01*
X173374110Y-106690567D01*
X173369524Y-106719072D01*
X173174790Y-106713498D01*
X172923612Y-106742567D01*
X172354935Y-106863287D01*
X171660315Y-107061760D01*
X171659962Y-107061795D01*
X171659962Y-107061830D01*
X171451824Y-107085008D01*
X171452176Y-107085008D01*
X171451824Y-107085008D01*
G37*
G36*
X164246337Y-110132479D02*
G01*
X164040668Y-110096354D01*
X163852637Y-109992002D01*
X163784199Y-109931219D01*
X163786668Y-109933688D01*
X163518910Y-109723962D01*
X163156254Y-109492257D01*
X162309235Y-109027120D01*
X161251254Y-108514569D01*
X161286885Y-108435547D01*
X162349099Y-108949897D01*
X163199646Y-109415811D01*
X163567593Y-109651219D01*
X163845935Y-109870435D01*
X163846993Y-109871599D01*
X163848051Y-109872905D01*
X163906965Y-109925045D01*
X164069949Y-110014898D01*
X164182485Y-110043014D01*
X164312307Y-110043014D01*
X164458004Y-110001386D01*
X164619224Y-109904619D01*
X164824187Y-109711086D01*
X165366407Y-109278651D01*
X165736824Y-109034811D01*
X166158746Y-108805646D01*
X166621237Y-108615887D01*
X167113715Y-108490333D01*
X167292574Y-108259793D01*
X167480957Y-108055253D01*
X167731782Y-107824995D01*
X168042579Y-107594278D01*
X168410174Y-107388503D01*
X168832449Y-107232928D01*
X169306229Y-107152988D01*
X169354560Y-106873765D01*
X169477326Y-106323572D01*
X169571871Y-106000569D01*
X169685112Y-105710939D01*
X169818110Y-105491193D01*
X169947932Y-105391251D01*
X169937701Y-105220225D01*
X169945815Y-104894964D01*
X169973332Y-104676559D01*
X170028012Y-104461788D01*
X170119382Y-104270547D01*
X170256965Y-104122733D01*
X170308118Y-104192865D01*
X170192760Y-104319724D01*
X170111621Y-104492868D01*
X170032246Y-104901913D01*
X170026249Y-105262911D01*
X170036832Y-105417498D01*
X170041065Y-105457715D01*
X170001201Y-105464947D01*
X169884785Y-105547038D01*
X169763429Y-105747804D01*
X169654421Y-106027768D01*
X169561287Y-106345409D01*
X169431818Y-106933666D01*
X169386310Y-107198920D01*
X169381018Y-107233986D01*
X169345740Y-107235856D01*
X168865610Y-107312797D01*
X168438396Y-107471547D01*
X168066921Y-107683778D01*
X167755418Y-107921021D01*
X167507062Y-108154983D01*
X167325382Y-108357195D01*
X167175804Y-108553057D01*
X167165221Y-108569003D01*
X167146524Y-108572037D01*
X166662512Y-108693322D01*
X166205665Y-108880259D01*
X165786918Y-109107659D01*
X165418618Y-109350264D01*
X164878515Y-109780265D01*
X164677785Y-109968437D01*
X164675668Y-109970695D01*
X164673199Y-109972670D01*
X164449890Y-110096636D01*
X164246337Y-110132514D01*
X164246337Y-110132479D01*
G37*
G36*
X170005435Y-113499707D02*
G01*
X169892193Y-113475859D01*
X170140901Y-112505826D01*
X170444996Y-111659160D01*
X170794599Y-110927569D01*
X171180185Y-110302729D01*
X171591171Y-109776385D01*
X172018385Y-109340175D01*
X172452301Y-108985845D01*
X172881985Y-108705034D01*
X173298968Y-108489381D01*
X173692668Y-108330243D01*
X174052854Y-108219047D01*
X174370354Y-108147257D01*
X174835668Y-108087708D01*
X175008529Y-108083051D01*
X175004296Y-108198586D01*
X174837432Y-108203031D01*
X174387287Y-108260887D01*
X174079665Y-108330807D01*
X173729710Y-108439216D01*
X173346593Y-108594509D01*
X172940193Y-108805046D01*
X172520035Y-109079155D01*
X172095643Y-109425336D01*
X171676896Y-109852267D01*
X171273671Y-110368522D01*
X170895140Y-110982779D01*
X170551182Y-111703610D01*
X170251321Y-112539728D01*
X170005435Y-113499707D01*
G37*
G36*
X179414723Y-112793058D02*
G01*
X178541246Y-111777905D01*
X177630373Y-110787940D01*
X176694807Y-109828702D01*
X175747598Y-108905835D01*
X173870115Y-107191229D01*
X172101993Y-105688678D01*
X170546243Y-104442561D01*
X169306582Y-103497399D01*
X168190746Y-102687845D01*
X168186512Y-102685023D01*
X168182632Y-102681495D01*
X167514824Y-102072248D01*
X166860774Y-101572362D01*
X166243412Y-101173017D01*
X165686376Y-100866101D01*
X165212243Y-100642087D01*
X164845001Y-100492862D01*
X164523268Y-100384206D01*
X164553960Y-100272728D01*
X164880279Y-100383148D01*
X165252812Y-100534137D01*
X165733296Y-100760973D01*
X166297740Y-101071770D01*
X166922862Y-101475348D01*
X167585026Y-101980526D01*
X168260243Y-102595770D01*
X169387721Y-103413368D01*
X170629851Y-104360611D01*
X172187012Y-105608069D01*
X173955487Y-107111784D01*
X175833676Y-108827589D01*
X176781237Y-109751267D01*
X177717157Y-110711457D01*
X178629087Y-111702657D01*
X179503623Y-112719398D01*
X179414723Y-112793164D01*
X179414723Y-112793058D01*
G37*
G36*
X116910036Y-109768107D02*
G01*
X117719090Y-109493057D01*
X117328221Y-109854982D01*
X118221149Y-110044822D01*
X117719090Y-109493057D01*
X116910036Y-109768107D01*
X117485350Y-109235397D01*
X117256529Y-108981739D01*
X117626374Y-108639282D01*
X118852215Y-110059520D01*
X118413562Y-110465690D01*
X116130749Y-110024152D01*
X116500594Y-109681696D01*
X116910036Y-109768107D01*
G37*
G36*
X120011986Y-108905192D02*
G01*
X119640675Y-108708165D01*
X119813485Y-108630734D01*
X119967564Y-108547540D01*
X120100947Y-108459976D01*
X120211668Y-108369434D01*
X120361974Y-108165221D01*
X120286394Y-108033245D01*
X120133891Y-108013571D01*
X119912096Y-108121386D01*
X119716589Y-108245934D01*
X119527282Y-108354283D01*
X119354977Y-108427111D01*
X119199677Y-108464417D01*
X118979301Y-108457100D01*
X118758571Y-108376516D01*
X118597142Y-108268122D01*
X118499832Y-108148279D01*
X118466642Y-108016987D01*
X118497783Y-107874050D01*
X118593177Y-107717259D01*
X118752823Y-107546616D01*
X118896698Y-107424947D01*
X119056915Y-107311253D01*
X119232939Y-107205600D01*
X119424239Y-107108052D01*
X119806126Y-107310690D01*
X119593420Y-107393400D01*
X119407232Y-107483220D01*
X119248072Y-107581815D01*
X119116017Y-107687831D01*
X118980924Y-107884804D01*
X119057898Y-108018913D01*
X119228763Y-108045546D01*
X119335811Y-108008040D01*
X119481642Y-107927777D01*
X119662813Y-107816502D01*
X119837827Y-107720056D01*
X120002241Y-107655106D01*
X120156053Y-107621650D01*
X120374702Y-107630138D01*
X120587022Y-107706956D01*
X120784394Y-107861798D01*
X120852443Y-108048243D01*
X120825655Y-108187149D01*
X120740773Y-108334205D01*
X120597799Y-108489412D01*
X120472998Y-108596842D01*
X120333689Y-108701446D01*
X120180569Y-108804289D01*
X120011986Y-108905192D01*
G37*
G36*
X123017365Y-106202811D02*
G01*
X122649431Y-106543498D01*
X121597775Y-105985464D01*
X121396903Y-105899756D01*
X121229051Y-105873330D01*
X121082976Y-105907179D01*
X120947000Y-105999284D01*
X120856960Y-106116459D01*
X120850605Y-106223751D01*
X120931730Y-106330482D01*
X121103693Y-106442958D01*
X122155349Y-107000991D01*
X121787416Y-107341678D01*
X120735760Y-106783645D01*
X120525470Y-106647468D01*
X120391248Y-106502470D01*
X120333095Y-106348653D01*
X120350946Y-106184743D01*
X120444736Y-106009469D01*
X120614465Y-105822833D01*
X120824137Y-105658164D01*
X121039029Y-105547614D01*
X121259140Y-105491183D01*
X121486129Y-105488668D01*
X121721652Y-105539866D01*
X121965709Y-105644777D01*
X123017365Y-106202811D01*
G37*
G36*
X109888574Y-109795329D02*
G01*
X106709341Y-108711490D01*
X106759788Y-108563782D01*
X109939021Y-109647621D01*
X109888574Y-109795329D01*
G37*
G36*
X103671078Y-115144145D02*
G01*
X103597065Y-114551549D01*
X115237744Y-103555537D01*
X115277255Y-103597553D01*
X103658060Y-114573457D01*
X103728439Y-115136984D01*
X103671078Y-115144145D01*
G37*
G36*
X115189060Y-103726952D02*
G01*
X115109685Y-103642850D01*
X115220810Y-103537722D01*
X115300185Y-103621789D01*
X115189060Y-103726952D01*
G37*
G36*
X106476860Y-78628049D02*
G01*
X106414066Y-78531035D01*
X107642438Y-77736227D01*
X107705232Y-77833241D01*
X106476860Y-78628049D01*
G37*
G36*
X108403380Y-92147551D02*
G01*
X108339174Y-92160251D01*
X108224521Y-92247035D01*
X108189596Y-92310182D01*
X108178307Y-92373329D01*
X108193477Y-92429421D01*
X108234752Y-92469637D01*
X108294019Y-92483396D01*
X108357871Y-92470696D01*
X108472524Y-92383560D01*
X108507802Y-92320412D01*
X108518738Y-92257618D01*
X108503921Y-92201173D01*
X108462646Y-92160957D01*
X108403380Y-92147551D01*
G37*
G36*
X105938521Y-93929432D02*
G01*
X105861969Y-93963651D01*
X105812580Y-94037382D01*
X105793530Y-94136512D01*
X105805524Y-94250812D01*
X105846446Y-94362290D01*
X105908888Y-94451190D01*
X105986146Y-94509398D01*
X106072224Y-94525979D01*
X106148777Y-94491759D01*
X106198166Y-94417676D01*
X106217569Y-94318898D01*
X106205574Y-94203893D01*
X106164299Y-94092768D01*
X106101857Y-94004221D01*
X106024599Y-93945659D01*
X105938521Y-93929432D01*
G37*
G36*
X106592219Y-94136512D02*
G01*
X106515666Y-94170732D01*
X106466630Y-94244462D01*
X106447227Y-94343240D01*
X106459221Y-94457893D01*
X106500496Y-94569370D01*
X106562938Y-94657918D01*
X106640196Y-94716479D01*
X106726274Y-94732707D01*
X106726627Y-94732707D01*
X106802827Y-94698487D01*
X106852216Y-94624404D01*
X106871266Y-94525626D01*
X106859271Y-94410973D01*
X106818349Y-94299848D01*
X106755907Y-94210948D01*
X106678296Y-94152740D01*
X106592219Y-94136512D01*
G37*
G36*
X107224044Y-94358409D02*
G01*
X107147844Y-94392982D01*
X107098102Y-94466712D01*
X107079052Y-94565490D01*
X107091046Y-94680143D01*
X107132321Y-94791268D01*
X107194410Y-94879815D01*
X107272021Y-94938376D01*
X107358099Y-94954957D01*
X107434652Y-94920737D01*
X107484041Y-94847007D01*
X107503091Y-94747876D01*
X107491096Y-94632870D01*
X107450174Y-94522098D01*
X107387732Y-94433198D01*
X107310474Y-94374990D01*
X107224044Y-94358409D01*
G37*
G36*
X107769438Y-94544676D02*
G01*
X107693238Y-94578895D01*
X107643849Y-94652626D01*
X107624799Y-94751404D01*
X107636794Y-94866057D01*
X107677716Y-94977534D01*
X107740157Y-95066082D01*
X107817416Y-95124643D01*
X107903846Y-95140870D01*
X107980046Y-95106651D01*
X108029435Y-95032920D01*
X108048838Y-94934143D01*
X108036844Y-94819490D01*
X107995569Y-94708012D01*
X107933480Y-94619112D01*
X107855869Y-94560904D01*
X107769438Y-94544676D01*
G37*
G36*
X110105532Y-102601414D02*
G01*
X110010988Y-102535092D01*
X110516519Y-101812603D01*
X110611416Y-101878573D01*
X110105532Y-102601414D01*
G37*
G36*
X110463249Y-102979804D02*
G01*
X106489207Y-100739806D01*
X106546005Y-100639264D01*
X110520046Y-102879086D01*
X110463249Y-102979804D01*
G37*
G36*
X110564144Y-104287868D02*
G01*
X110531688Y-104279331D01*
X110515813Y-104270088D01*
X110474891Y-104242290D01*
X110340482Y-104142559D01*
X109888221Y-103789958D01*
X108549782Y-102721712D01*
X106625732Y-101168078D01*
X106625380Y-101167726D01*
X106625027Y-101167373D01*
X106488502Y-101021323D01*
X106414771Y-100874567D01*
X106392194Y-100735573D01*
X106407716Y-100611395D01*
X106493441Y-100428303D01*
X106549180Y-100359512D01*
X108156788Y-98769895D01*
X108238280Y-98852092D01*
X106630671Y-100441356D01*
X106586927Y-100496742D01*
X106519194Y-100641381D01*
X106505435Y-100735573D01*
X106521310Y-100840701D01*
X106580930Y-100955353D01*
X106699110Y-101078826D01*
X106698405Y-101078473D01*
X108622102Y-102631753D01*
X109959482Y-103699294D01*
X110410332Y-104050661D01*
X110507699Y-104122804D01*
X110578255Y-99063053D01*
X110693966Y-99064817D01*
X110620941Y-104288151D01*
X110563791Y-104288151D01*
X110564144Y-104287868D01*
G37*
G36*
X113802291Y-99776017D02*
G01*
X111877535Y-99580931D01*
X111799924Y-99557295D01*
X111734660Y-99507906D01*
X111663399Y-99357623D01*
X111186091Y-96648643D01*
X111254530Y-96636648D01*
X111732191Y-99348451D01*
X111732191Y-99349509D01*
X111785813Y-99458517D01*
X111884591Y-99512140D01*
X113809346Y-99706873D01*
X113888016Y-99678651D01*
X113912005Y-99585870D01*
X113911652Y-99583048D01*
X114009724Y-97354551D01*
X114079221Y-97357726D01*
X113981149Y-99583048D01*
X113980796Y-99577403D01*
X113975152Y-99658190D01*
X113940227Y-99724512D01*
X113879549Y-99766140D01*
X113802291Y-99776017D01*
G37*
G36*
X113386719Y-98751904D02*
G01*
X113386719Y-98691931D01*
X113469621Y-98674998D01*
X113537002Y-98629490D01*
X113582510Y-98561756D01*
X113599444Y-98479206D01*
X113582510Y-98395951D01*
X113537002Y-98328570D01*
X113469621Y-98283062D01*
X113386719Y-98266481D01*
X113303816Y-98283062D01*
X113236082Y-98328570D01*
X113190574Y-98395951D01*
X113173994Y-98479206D01*
X113190574Y-98561756D01*
X113236082Y-98629490D01*
X113303816Y-98674998D01*
X113386719Y-98691931D01*
X113386719Y-98751904D01*
X113280532Y-98730384D01*
X113193749Y-98671823D01*
X113135188Y-98585040D01*
X113113669Y-98479206D01*
X113135188Y-98373020D01*
X113193749Y-98286237D01*
X113280532Y-98227676D01*
X113386719Y-98206156D01*
X113492552Y-98227676D01*
X113579335Y-98286237D01*
X113637896Y-98373020D01*
X113659416Y-98479206D01*
X113637896Y-98585040D01*
X113579335Y-98671823D01*
X113492552Y-98730384D01*
X113386719Y-98751904D01*
G37*
G36*
X101803013Y-68489570D02*
G01*
X101259348Y-68506856D01*
X101058829Y-68525200D01*
X101024080Y-68529786D01*
X101059428Y-68635619D01*
X101078690Y-68636678D01*
X101892019Y-68683244D01*
X102234284Y-68718169D01*
X102545187Y-68780964D01*
X103407517Y-69052250D01*
X103408082Y-69052250D01*
X103408646Y-69052250D01*
X103561963Y-69104108D01*
X103939294Y-69263211D01*
X104173221Y-69384919D01*
X104416638Y-69535908D01*
X104654057Y-69716531D01*
X104870310Y-69927844D01*
X105242138Y-70351883D01*
X106712869Y-72022991D01*
X119285516Y-86329893D01*
X119285868Y-86330599D01*
X119944505Y-87081663D01*
X120444391Y-87714193D01*
X120872310Y-88313915D01*
X120873368Y-88315326D01*
X120874074Y-88316385D01*
X120910057Y-88427863D01*
X120929107Y-88640588D01*
X120922405Y-89213499D01*
X120868077Y-89993490D01*
X120865607Y-90020301D01*
X124264974Y-90592507D01*
X124264974Y-90595682D01*
X161351090Y-102017920D01*
X161359910Y-101990403D01*
X161368376Y-101962887D01*
X124332355Y-90555818D01*
X124334118Y-90545587D01*
X124319302Y-90543118D01*
X124244513Y-90053110D01*
X124101991Y-89572626D01*
X123915724Y-89119307D01*
X123709349Y-88709026D01*
X123331877Y-88088843D01*
X123161132Y-87848954D01*
X123160780Y-87848601D01*
X122827405Y-87354360D01*
X122455930Y-86853063D01*
X121633957Y-85850821D01*
X120759421Y-84884563D01*
X119898291Y-83997327D01*
X119114771Y-83232505D01*
X118474127Y-82632430D01*
X117882518Y-82099382D01*
X106068344Y-69887628D01*
X106067285Y-69886922D01*
X105795646Y-69673844D01*
X105516599Y-69482992D01*
X104941924Y-69163375D01*
X104357724Y-68919253D01*
X103778886Y-68740394D01*
X103219522Y-68617628D01*
X102694201Y-68541428D01*
X102217386Y-68502270D01*
X101803578Y-68490275D01*
X101803013Y-68489570D01*
G37*
G36*
X148541377Y-107121873D02*
G01*
X148521621Y-106405452D01*
X148542788Y-105722192D01*
X148602054Y-105071423D01*
X148696952Y-104452475D01*
X148824304Y-103864606D01*
X148981996Y-103307217D01*
X149167204Y-102779567D01*
X149377460Y-102281092D01*
X149609940Y-101810839D01*
X149861824Y-101368456D01*
X150414627Y-100564123D01*
X151014349Y-99862801D01*
X151639824Y-99258845D01*
X152270943Y-98746612D01*
X152886188Y-98320809D01*
X153464038Y-97975440D01*
X153984385Y-97705212D01*
X154766846Y-97368309D01*
X155064943Y-97265651D01*
X155081171Y-97321037D01*
X154785190Y-97422990D01*
X154008021Y-97758129D01*
X153490849Y-98026240D01*
X152916526Y-98369492D01*
X152305515Y-98793179D01*
X151678277Y-99302237D01*
X151056329Y-99902312D01*
X150460135Y-100599048D01*
X149910860Y-101397737D01*
X149660388Y-101837298D01*
X149429318Y-102304375D01*
X149220827Y-102799675D01*
X149036677Y-103324009D01*
X148880043Y-103878117D01*
X148753396Y-104462599D01*
X148659204Y-105078196D01*
X148600643Y-105725579D01*
X148579477Y-106405523D01*
X148599232Y-107118663D01*
X148541377Y-107121873D01*
G37*
G36*
X139654552Y-104452333D02*
G01*
X139559302Y-103830915D01*
X139516263Y-103231017D01*
X139521554Y-102652567D01*
X139572707Y-102095178D01*
X139666546Y-101558956D01*
X139799191Y-101043901D01*
X139967818Y-100550012D01*
X140169254Y-100076584D01*
X140400324Y-99623970D01*
X140657499Y-99192170D01*
X141237818Y-98389954D01*
X141884813Y-97668523D01*
X142572377Y-97027879D01*
X143275110Y-96466256D01*
X143967260Y-95982598D01*
X144623427Y-95576198D01*
X145217857Y-95245293D01*
X146118852Y-94808907D01*
X146464574Y-94665326D01*
X146485035Y-94719301D01*
X146140371Y-94862529D01*
X145243610Y-95297504D01*
X144651649Y-95626645D01*
X143998657Y-96031281D01*
X143309329Y-96512823D01*
X142610124Y-97071623D01*
X141926088Y-97708740D01*
X141282974Y-98425231D01*
X140706182Y-99221451D01*
X140451124Y-99650076D01*
X140221465Y-100099162D01*
X140021441Y-100568356D01*
X139854224Y-101058717D01*
X139722638Y-101569539D01*
X139629857Y-102101528D01*
X139579057Y-102654684D01*
X139573766Y-103228830D01*
X139616452Y-103824354D01*
X139711349Y-104441327D01*
X139654552Y-104452333D01*
G37*
G36*
X130333104Y-101523326D02*
G01*
X130290066Y-100826237D01*
X130294299Y-100160898D01*
X130343335Y-99526603D01*
X130433646Y-98923001D01*
X130562410Y-98349031D01*
X130726804Y-97804342D01*
X130923302Y-97288229D01*
X131149432Y-96800337D01*
X131401668Y-96339609D01*
X131677188Y-95905693D01*
X131972816Y-95497882D01*
X132286082Y-95115823D01*
X132951774Y-94425437D01*
X133649921Y-93829596D01*
X134356535Y-93323359D01*
X135047274Y-92900732D01*
X135698149Y-92557479D01*
X136285171Y-92287957D01*
X137169938Y-91949996D01*
X137507899Y-91846632D01*
X137522363Y-91902723D01*
X137186518Y-92005735D01*
X136306338Y-92341579D01*
X135722843Y-92609690D01*
X135075143Y-92951532D01*
X134388285Y-93371337D01*
X133685552Y-93875104D01*
X132991285Y-94467418D01*
X132329474Y-95152865D01*
X132018324Y-95532454D01*
X131724813Y-95937090D01*
X131451057Y-96367831D01*
X131200232Y-96825031D01*
X130976218Y-97309395D01*
X130780779Y-97821629D01*
X130617796Y-98362790D01*
X130490091Y-98932879D01*
X130400485Y-99532601D01*
X130352154Y-100163015D01*
X130347921Y-100824473D01*
X130390960Y-101517681D01*
X130333457Y-101523326D01*
X130333104Y-101523326D01*
G37*
G36*
X125038263Y-89047340D02*
G01*
X125013921Y-89018060D01*
X125047435Y-89011357D01*
X125232996Y-88838849D01*
X125234407Y-88839201D01*
X125230174Y-88837438D01*
X124775091Y-88705851D01*
X124741577Y-88712201D01*
X124555663Y-88884710D01*
X124554252Y-88884710D01*
X124558838Y-88886474D01*
X125013921Y-89018060D01*
X125038263Y-89047340D01*
X125005807Y-89045929D01*
X124550724Y-88914343D01*
X124527088Y-88894235D01*
X124536260Y-88863543D01*
X124722174Y-88691035D01*
X124783557Y-88677982D01*
X125237935Y-88809921D01*
X125262277Y-88830029D01*
X125252752Y-88860368D01*
X125066838Y-89032524D01*
X125038263Y-89047340D01*
G37*
G36*
X131031604Y-89800521D02*
G01*
X130992799Y-89757482D01*
X137689579Y-83704874D01*
X138173943Y-83187702D01*
X138570466Y-82822577D01*
X138746149Y-82694519D01*
X138892552Y-82635252D01*
X139210404Y-82589391D01*
X139361746Y-82577749D01*
X139478868Y-82599974D01*
X139453116Y-82651480D01*
X139217107Y-82646894D01*
X138899607Y-82692402D01*
X138778252Y-82744966D01*
X138607154Y-82867380D01*
X138215218Y-83228624D01*
X137731913Y-83744385D01*
X137730854Y-83745443D01*
X131031604Y-89800168D01*
X131031604Y-89800521D01*
G37*
G36*
X134242941Y-87975601D02*
G01*
X130702463Y-87000171D01*
X130744091Y-86849888D01*
X134284568Y-87825318D01*
X134242941Y-87975601D01*
G37*
G36*
X140346702Y-82389719D02*
G01*
X139848579Y-82197102D01*
X139384324Y-82067985D01*
X139403727Y-81954038D01*
X139887738Y-82087388D01*
X140392210Y-82283532D01*
X140346702Y-82389719D01*
G37*
G36*
X128372718Y-88669868D02*
G01*
X128304985Y-88576029D01*
X136651707Y-82583394D01*
X136795993Y-82458510D01*
X137163588Y-82205569D01*
X137410532Y-82077863D01*
X137689227Y-81974852D01*
X137991204Y-81915232D01*
X138308352Y-81917702D01*
X138631143Y-81895477D01*
X138974396Y-81903591D01*
X139403727Y-81954038D01*
X139384324Y-82068338D01*
X138958521Y-82018244D01*
X138621266Y-82011188D01*
X138318582Y-82032707D01*
X138310821Y-82033766D01*
X138302354Y-82032707D01*
X138007432Y-82030591D01*
X137722035Y-82088799D01*
X137456041Y-82189341D01*
X137217916Y-82313166D01*
X136861963Y-82556582D01*
X136726849Y-82670882D01*
X136724027Y-82673705D01*
X128372718Y-88669868D01*
G37*
G36*
X128505363Y-89085440D02*
G01*
X128229843Y-88637413D01*
X127929982Y-88208788D01*
X127265702Y-87407277D01*
X126529455Y-86678790D01*
X125738880Y-86020154D01*
X124911263Y-85429252D01*
X124063891Y-84903260D01*
X123214755Y-84439710D01*
X122381141Y-84035780D01*
X121579982Y-83688999D01*
X120828918Y-83396899D01*
X119547982Y-82966157D01*
X118676974Y-82722741D01*
X118355593Y-82646188D01*
X118379582Y-82532946D01*
X118702727Y-82609146D01*
X119578321Y-82852210D01*
X120867018Y-83284010D01*
X121622668Y-83577168D01*
X122428766Y-83925713D01*
X123268024Y-84331760D01*
X124123157Y-84799191D01*
X124976880Y-85329416D01*
X125811199Y-85925963D01*
X126608477Y-86591302D01*
X127351780Y-87328607D01*
X128023468Y-88139643D01*
X128326504Y-88573913D01*
X128605552Y-89027938D01*
X128505363Y-89085440D01*
G37*
G36*
X115815594Y-86472415D02*
G01*
X104615957Y-71443378D01*
X104662171Y-71408805D01*
X115861807Y-86438196D01*
X115815594Y-86472415D01*
G37*
G36*
X119180035Y-101035787D02*
G01*
X119193088Y-100967701D01*
X119274227Y-100946534D01*
X119306330Y-100856223D01*
X119245299Y-98811876D01*
X119201555Y-98698634D01*
X119108421Y-98636545D01*
X117208713Y-98268245D01*
X117127927Y-98289412D01*
X117095824Y-98379370D01*
X117156855Y-100423717D01*
X117200599Y-100536959D01*
X117293732Y-100599401D01*
X119193088Y-100967701D01*
X119180035Y-101035787D01*
X117280680Y-100667134D01*
X117205538Y-100636795D01*
X117144860Y-100581762D01*
X117087710Y-100425481D01*
X117026327Y-98381487D01*
X117039027Y-98301406D01*
X117079949Y-98238612D01*
X117144155Y-98202629D01*
X117221766Y-98199806D01*
X119121474Y-98568459D01*
X119196616Y-98598798D01*
X119256941Y-98653831D01*
X119314443Y-98809759D01*
X119375827Y-100854106D01*
X119362774Y-100934187D01*
X119321852Y-100996628D01*
X119257646Y-101032964D01*
X119180035Y-101035787D01*
G37*
G36*
X137835982Y-90890251D02*
G01*
X138219099Y-91363326D01*
X138270957Y-91383787D01*
X138293535Y-91435646D01*
X138272721Y-91487857D01*
X137956632Y-91815235D01*
X137905127Y-91837460D01*
X137852916Y-91816646D01*
X137830691Y-91765140D01*
X137851152Y-91713282D01*
X138167593Y-91385904D01*
X138219099Y-91363326D01*
X137835982Y-90890251D01*
X137755902Y-90902951D01*
X137785535Y-91218687D01*
X137837393Y-91239501D01*
X137859971Y-91291007D01*
X137839157Y-91342865D01*
X137523068Y-91670596D01*
X137471563Y-91693173D01*
X137419352Y-91672360D01*
X137397127Y-91620854D01*
X137417588Y-91568643D01*
X137734029Y-91241265D01*
X137785535Y-91218687D01*
X137755902Y-90902951D01*
X137663121Y-90947049D01*
X137517777Y-91063818D01*
X137335391Y-91265607D01*
X136953685Y-91633554D01*
X136993902Y-91674829D01*
X137033766Y-91716810D01*
X137057402Y-91694232D01*
X139542721Y-92443885D01*
X139583291Y-92484807D01*
X140250040Y-91819115D01*
X140293785Y-91757732D01*
X140295196Y-91684707D01*
X140251099Y-91628262D01*
X140182307Y-91597571D01*
X137883254Y-90896601D01*
X137882196Y-90896249D01*
X137835982Y-90890251D01*
G37*
G36*
X140424313Y-82282474D02*
G01*
X140190068Y-82294821D01*
X139981929Y-82337507D01*
X139800954Y-82401713D01*
X139647143Y-82480382D01*
X139490157Y-82587980D01*
X139376210Y-82687816D01*
X139276021Y-82801410D01*
X131913549Y-90096149D01*
X133774452Y-90638721D01*
X140518504Y-83895021D01*
X140743577Y-83712988D01*
X140946777Y-83623030D01*
X141127046Y-83602568D01*
X141282974Y-83629380D01*
X141411385Y-83683707D01*
X141508046Y-83746502D01*
X141590243Y-83819880D01*
X141594829Y-83825171D01*
X143533343Y-85189010D01*
X144487960Y-87823907D01*
X145065810Y-87823907D01*
X145065810Y-87904693D01*
X144487960Y-87904693D01*
X144487960Y-87823907D01*
X143533343Y-85189010D01*
X145630607Y-94374990D01*
X144740902Y-88880124D01*
X144740902Y-88798985D01*
X145318752Y-88798985D01*
X145318752Y-88880124D01*
X144740902Y-88880124D01*
X145630607Y-94374990D01*
X147208935Y-94927440D01*
X145499727Y-89819218D01*
X144921171Y-89819218D01*
X145102146Y-90677879D01*
X145679996Y-90677879D01*
X145679996Y-90758665D01*
X145282415Y-91509023D01*
X145860618Y-91509023D01*
X145860618Y-91589457D01*
X145463390Y-92303479D01*
X146041240Y-92303479D01*
X146041240Y-92384265D01*
X145715979Y-93098287D01*
X146294182Y-93098287D01*
X146294182Y-93179073D01*
X145715979Y-93179073D01*
X145715979Y-93098287D01*
X146041240Y-92384265D01*
X145463390Y-92384265D01*
X145463390Y-92303479D01*
X145860618Y-91589457D01*
X145282415Y-91589457D01*
X145282415Y-91509023D01*
X145679996Y-90758665D01*
X145102146Y-90758665D01*
X145102146Y-90677879D01*
X144921171Y-89819218D01*
X144921171Y-89738432D01*
X145499727Y-89738432D01*
X145499727Y-89819218D01*
X147208935Y-94927440D01*
X144599438Y-85106813D01*
X144599085Y-85105754D01*
X144498543Y-84828118D01*
X144393063Y-84598813D01*
X144189510Y-84269671D01*
X144030407Y-84089755D01*
X143965143Y-84034368D01*
X143490657Y-83638905D01*
X143027813Y-83305177D01*
X142585077Y-83030716D01*
X142165977Y-82809877D01*
X141772277Y-82634899D01*
X141407857Y-82500491D01*
X140777443Y-82326219D01*
X140424313Y-82282474D01*
G37*
G36*
X105597385Y-94539032D02*
G01*
X105869377Y-94721770D01*
X105937463Y-94734823D01*
X105874669Y-95133109D01*
X105784710Y-96084904D01*
X106075399Y-96002354D01*
X105820341Y-95917687D01*
X105842213Y-95851365D01*
X106020366Y-95910984D01*
X106194638Y-94867468D01*
X106263077Y-94878757D01*
X106075399Y-96002354D01*
X105784710Y-96084904D01*
X105776244Y-96653934D01*
X106664538Y-94972948D01*
X106731919Y-94989529D01*
X106654307Y-95370529D01*
X106591866Y-95782220D01*
X106543182Y-96284223D01*
X107568002Y-95333487D01*
X107635030Y-95351479D01*
X107557771Y-95703904D01*
X107494977Y-96086668D01*
X108443244Y-95698965D01*
X108511330Y-95712370D01*
X108421724Y-96341726D01*
X109542499Y-96171687D01*
X109610585Y-96183681D01*
X110409274Y-96316326D01*
X110477360Y-96328320D01*
X110396221Y-96916048D01*
X110361296Y-97645592D01*
X110379288Y-98025887D01*
X110429382Y-98396656D01*
X110520046Y-98743790D01*
X110656924Y-99051765D01*
X110596599Y-99086337D01*
X110453724Y-98766367D01*
X110359180Y-98409709D01*
X110306969Y-98031531D01*
X110288977Y-97645592D01*
X110325666Y-96909345D01*
X110409274Y-96316326D01*
X109610585Y-96183681D01*
X109528741Y-96771762D01*
X109494169Y-97500601D01*
X109511807Y-97880895D01*
X109562607Y-98252017D01*
X109652919Y-98599151D01*
X109789796Y-98907126D01*
X109729824Y-98942051D01*
X109586244Y-98621729D01*
X109492405Y-98265423D01*
X109440194Y-97886892D01*
X109421849Y-97501306D01*
X109458891Y-96764706D01*
X109542499Y-96171687D01*
X108421724Y-96341726D01*
X108391032Y-97165462D01*
X108423135Y-97596909D01*
X108499688Y-98013540D01*
X108629157Y-98393834D01*
X108820716Y-98717331D01*
X108766388Y-98760017D01*
X108565305Y-98422762D01*
X108431249Y-98030826D01*
X108353991Y-97605729D01*
X108321888Y-97167579D01*
X108352227Y-96335023D01*
X108443244Y-95698965D01*
X107494977Y-96086668D01*
X107446294Y-96555156D01*
X107435357Y-97070212D01*
X107483688Y-97592323D01*
X107613510Y-98081979D01*
X107715463Y-98302465D01*
X107845638Y-98500726D01*
X107790957Y-98543059D01*
X107654432Y-98336331D01*
X107548246Y-98107731D01*
X107414544Y-97604670D01*
X107365155Y-97072681D01*
X107377149Y-96550570D01*
X107426185Y-96076790D01*
X107489685Y-95690145D01*
X107568002Y-95333487D01*
X106543182Y-96284223D01*
X106532246Y-96832440D01*
X106580930Y-97383479D01*
X106710399Y-97893948D01*
X106812352Y-98120431D01*
X106942527Y-98320104D01*
X106887846Y-98362437D01*
X106750969Y-98153592D01*
X106644782Y-97918995D01*
X106511080Y-97395473D01*
X106462044Y-96834556D01*
X106474038Y-96279637D01*
X106523074Y-95773048D01*
X106586221Y-95357476D01*
X106664538Y-94972948D01*
X105776244Y-96653934D01*
X105816813Y-97223670D01*
X105923352Y-97747192D01*
X106006960Y-97977204D01*
X106113499Y-98177934D01*
X106055291Y-98215329D01*
X105943107Y-98005073D01*
X105855971Y-97767301D01*
X105746610Y-97232490D01*
X105706041Y-96655345D01*
X105715566Y-96081376D01*
X105805877Y-95123232D01*
X105869377Y-94721770D01*
X105597385Y-94539032D01*
X105448160Y-97149234D01*
X105448513Y-97153115D01*
X105473913Y-97330562D01*
X105519069Y-97515417D01*
X105597385Y-97732376D01*
X105719799Y-97957448D01*
X105894777Y-98166998D01*
X106130785Y-98334567D01*
X106274366Y-98394892D01*
X106435938Y-98434404D01*
X106444757Y-98435815D01*
X106453577Y-98434756D01*
X106711457Y-98407945D01*
X106899488Y-98404417D01*
X106964752Y-98412884D01*
X106982391Y-98418176D01*
X106984860Y-98420645D01*
X106987330Y-98422762D01*
X107051888Y-98468270D01*
X107217694Y-98557170D01*
X107438532Y-98617142D01*
X107560946Y-98615379D01*
X107684066Y-98580101D01*
X107793427Y-98589273D01*
X107880563Y-98615026D01*
X107955352Y-98667942D01*
X107952530Y-98664415D01*
X107997332Y-98711687D01*
X108131035Y-98798117D01*
X108228402Y-98830573D01*
X108347288Y-98846095D01*
X108486988Y-98837981D01*
X108647149Y-98798823D01*
X108742399Y-98830220D01*
X108823538Y-98855267D01*
X108854230Y-98864087D01*
X108871163Y-98866909D01*
X108878924Y-98870437D01*
X108912791Y-98888781D01*
X108975232Y-98936406D01*
X109119871Y-99006256D01*
X109120224Y-99006609D01*
X109292027Y-99034831D01*
X109488524Y-99033420D01*
X109753460Y-98993204D01*
X110690438Y-99111031D01*
X110840721Y-96459201D01*
X105597385Y-94539032D01*
G37*
G36*
X133500696Y-111347198D02*
G01*
X133581482Y-111347198D01*
X133581482Y-112322488D01*
X133500696Y-112322488D01*
X133500696Y-111347198D01*
G37*
G36*
X120892418Y-113478822D02*
G01*
X120973205Y-113478822D01*
X120973205Y-114454112D01*
X120892418Y-114454112D01*
X120892418Y-113478822D01*
G37*
G36*
X123854693Y-112900796D02*
G01*
X123935832Y-112900796D01*
X123935832Y-113876086D01*
X123854693Y-113876086D01*
X123854693Y-112900796D01*
G37*
G36*
X119157810Y-113912316D02*
G01*
X119238949Y-113912316D01*
X119238949Y-114887605D01*
X119157810Y-114887605D01*
X119157810Y-113912316D01*
G37*
G36*
X126708666Y-112178166D02*
G01*
X126789805Y-112178166D01*
X126789805Y-113153456D01*
X126708666Y-113153456D01*
X126708666Y-112178166D01*
G37*
G36*
X129526302Y-111708478D02*
G01*
X129607441Y-111708478D01*
X129607441Y-112683767D01*
X129526302Y-112683767D01*
X129526302Y-111708478D01*
G37*
G36*
X122337396Y-113189686D02*
G01*
X122418182Y-113189686D01*
X122418182Y-114165257D01*
X122337396Y-114165257D01*
X122337396Y-113189686D01*
G37*
G36*
X139931482Y-111888994D02*
G01*
X140012268Y-111888994D01*
X140012268Y-112864566D01*
X139931482Y-112864566D01*
X139931482Y-111888994D01*
G37*
G36*
X128153996Y-111925225D02*
G01*
X128234782Y-111925225D01*
X128234782Y-112900796D01*
X128153996Y-112900796D01*
X128153996Y-111925225D01*
G37*
G36*
X130791010Y-111563910D02*
G01*
X130871796Y-111563910D01*
X130871796Y-112539481D01*
X130791010Y-112539481D01*
X130791010Y-111563910D01*
G37*
G36*
X134837371Y-111455536D02*
G01*
X134918157Y-111455536D01*
X134918157Y-112431108D01*
X134837371Y-112431108D01*
X134837371Y-111455536D01*
G37*
G36*
X137258132Y-111672283D02*
G01*
X137338918Y-111672283D01*
X137338918Y-112647854D01*
X137258132Y-112647854D01*
X137258132Y-111672283D01*
G37*
G36*
X132128038Y-111419341D02*
G01*
X132208824Y-111419341D01*
X132208824Y-112394913D01*
X132128038Y-112394913D01*
X132128038Y-111419341D01*
G37*
G36*
X136065743Y-111563910D02*
G01*
X136146882Y-111563910D01*
X136146882Y-112539481D01*
X136065743Y-112539481D01*
X136065743Y-111563910D01*
G37*
G36*
X125263688Y-112575394D02*
G01*
X125344474Y-112575394D01*
X125344474Y-113551001D01*
X125263688Y-113551001D01*
X125263688Y-112575394D01*
G37*
G36*
X138486152Y-111780621D02*
G01*
X138566938Y-111780621D01*
X138566938Y-112756228D01*
X138486152Y-112756228D01*
X138486152Y-111780621D01*
G37*
G36*
X147540193Y-110811082D02*
G01*
X147443179Y-110924359D01*
X146235621Y-112332824D01*
X134199549Y-110386584D01*
X134197432Y-110386584D01*
X133795971Y-110380552D01*
X133251635Y-110411879D01*
X131972463Y-110540078D01*
X130354271Y-110748182D01*
X130352154Y-110748464D01*
X125653507Y-111760548D01*
X111637646Y-115011501D01*
X111138819Y-115082797D01*
X106536127Y-115010936D01*
X106396780Y-114917803D01*
X119023402Y-103941582D01*
X119031163Y-103933503D01*
X121032471Y-104175226D01*
X123166071Y-104467856D01*
X125402330Y-104811920D01*
X127706321Y-105211476D01*
X129451513Y-105635726D01*
X133600532Y-106691802D01*
X136069624Y-107356647D01*
X138532013Y-108058569D01*
X140784146Y-108757633D01*
X141768396Y-109093654D01*
X142624235Y-109413870D01*
X147441415Y-110923794D01*
X147441063Y-110924077D01*
X147442827Y-110924359D01*
X147443179Y-110924359D01*
X147540193Y-110811082D01*
X142666921Y-109306344D01*
X141806496Y-108984399D01*
X140818365Y-108646967D01*
X138559882Y-107945609D01*
X136093966Y-107242523D01*
X133622757Y-106577361D01*
X129474091Y-105521603D01*
X127731368Y-105098481D01*
X127729605Y-105098199D01*
X127728546Y-105097917D01*
X125454541Y-104703546D01*
X123245093Y-104362622D01*
X121133718Y-104072039D01*
X119170510Y-103825976D01*
X119157810Y-103824248D01*
X119110891Y-103819662D01*
X118905574Y-103799836D01*
X116797021Y-103578185D01*
X116664024Y-103674811D01*
X104167577Y-114591272D01*
X104107605Y-114648457D01*
X104068446Y-114722893D01*
X104021880Y-114906020D01*
X104009533Y-115029598D01*
X103703533Y-115010619D01*
X103700076Y-115068404D01*
X103699758Y-115068404D01*
X102209096Y-114956609D01*
X101441063Y-114862029D01*
X100845751Y-114749634D01*
X111815799Y-103277866D01*
X113163057Y-103368388D01*
X114684235Y-103490555D01*
X116611460Y-103669908D01*
X116620280Y-103657843D01*
X116765624Y-103618332D01*
X116807957Y-103578926D01*
X116030788Y-103497752D01*
X113782535Y-103300549D01*
X111795691Y-103160885D01*
X111768880Y-103159403D01*
X100632673Y-114805373D01*
X100719209Y-114834124D01*
X100804264Y-114858254D01*
X100773220Y-114896495D01*
X101042566Y-115093380D01*
X101360171Y-115300038D01*
X101783011Y-115543207D01*
X102298102Y-115796749D01*
X102893097Y-116033886D01*
X103555084Y-116228478D01*
X103907192Y-116301503D01*
X104271294Y-116354102D01*
X104353491Y-116362992D01*
X104352785Y-116360135D01*
X104876660Y-116555609D01*
X105452394Y-116711960D01*
X106067638Y-116833563D01*
X106711810Y-116923239D01*
X107371857Y-116985328D01*
X108037196Y-117022969D01*
X109336124Y-117040819D01*
X110521810Y-117004871D01*
X111488069Y-116943664D01*
X112377069Y-116860021D01*
X112379185Y-116859703D01*
X112380949Y-116859421D01*
X115414485Y-116280231D01*
X118644871Y-115642408D01*
X118645577Y-115642408D01*
X124434660Y-114356075D01*
X124435718Y-114355793D01*
X125711716Y-114055720D01*
X126974307Y-113807647D01*
X128202327Y-113607022D01*
X129375666Y-113448625D01*
X130473510Y-113327340D01*
X131475046Y-113238510D01*
X133105938Y-113137334D01*
X133107349Y-113137334D01*
X133108760Y-113137334D01*
X134103241Y-113067201D01*
X134997885Y-113033864D01*
X135848432Y-113050515D01*
X137208743Y-113177586D01*
X138802241Y-113369567D01*
X142177618Y-113848463D01*
X144952568Y-114284496D01*
X146104388Y-114475067D01*
X146104740Y-114475067D01*
X168938987Y-117943366D01*
X168938987Y-117943648D01*
X170069640Y-118082749D01*
X171127268Y-118177328D01*
X172112224Y-118232820D01*
X173024154Y-118253493D01*
X173863765Y-118244603D01*
X174629999Y-118210666D01*
X175323912Y-118157220D01*
X175944801Y-118088217D01*
X176966798Y-117924951D01*
X177698460Y-117759392D01*
X178139432Y-117631193D01*
X178287951Y-117579158D01*
X178614271Y-117448948D01*
X178906723Y-117302087D01*
X179167073Y-117143407D01*
X179396379Y-116977566D01*
X179767148Y-116644121D01*
X180028204Y-116340026D01*
X180030321Y-116337451D01*
X180032437Y-116334876D01*
X180181662Y-116031910D01*
X180305135Y-115696172D01*
X180404265Y-115276507D01*
X180444129Y-114811405D01*
X180415201Y-114389165D01*
X180331946Y-114010882D01*
X180209179Y-113677189D01*
X180060660Y-113389146D01*
X179901910Y-113147423D01*
X179610162Y-112806816D01*
X179557598Y-112755346D01*
X179478223Y-112713401D01*
X179359337Y-112684049D01*
X179195648Y-112680592D01*
X178980454Y-112715094D01*
X178706346Y-112800466D01*
X178365210Y-112949656D01*
X177947521Y-113191097D01*
X179768912Y-113583456D01*
X179787610Y-113584338D01*
X179992221Y-113747921D01*
X179997865Y-113757976D01*
X180098054Y-113993102D01*
X180162260Y-114245761D01*
X180197185Y-114500996D01*
X180210590Y-114744166D01*
X180200360Y-115134514D01*
X180185190Y-115292912D01*
X180141446Y-115528885D01*
X180078651Y-115747360D01*
X179905790Y-116133969D01*
X179683540Y-116458207D01*
X179430598Y-116724942D01*
X179164251Y-116939078D01*
X178903196Y-117106083D01*
X178467515Y-117318491D01*
X178320760Y-117364493D01*
X178193054Y-117375711D01*
X178118265Y-117366222D01*
X177994440Y-117314187D01*
X177904835Y-117233718D01*
X177810643Y-117060116D01*
X177789123Y-116974144D01*
X177726329Y-116366520D01*
X177725623Y-115835025D01*
X177778893Y-115374827D01*
X177878376Y-114981056D01*
X178015960Y-114649057D01*
X178184235Y-114373396D01*
X178375087Y-114149171D01*
X178580757Y-113971547D01*
X178792776Y-113835587D01*
X179003032Y-113735574D01*
X179385443Y-113621733D01*
X179662021Y-113585820D01*
X179768912Y-113583456D01*
X177947521Y-113191097D01*
X177569343Y-113459279D01*
X177232793Y-113713949D01*
X176937518Y-113916302D01*
X176625662Y-114090222D01*
X176375190Y-114204910D01*
X176158585Y-114276770D01*
X175948682Y-114322773D01*
X175958207Y-114379676D01*
X175919401Y-114400066D01*
X175907054Y-114343445D01*
X175674221Y-114350360D01*
X175292868Y-114333391D01*
X174785926Y-114297761D01*
X174785221Y-114297761D01*
X173887049Y-114187094D01*
X173109174Y-114065809D01*
X172354935Y-113927838D01*
X163914021Y-112181623D01*
X163479751Y-114858572D01*
X161460804Y-114570246D01*
X161388485Y-114860265D01*
X160912235Y-114800504D01*
X160912235Y-114370786D01*
X160445863Y-114277335D01*
X160373896Y-114708500D01*
X158629410Y-114290000D01*
X147598402Y-110829497D01*
X147598754Y-110829215D01*
X147540193Y-110811082D01*
G37*
G36*
X157745349Y-110123800D02*
G01*
X157678321Y-110042132D01*
X157650099Y-109676866D01*
X157655743Y-108837819D01*
X157703368Y-108276374D01*
X157797560Y-107639433D01*
X157951018Y-106941286D01*
X158177149Y-106196220D01*
X158498882Y-105396684D01*
X158925038Y-104582791D01*
X159470079Y-103771084D01*
X159791107Y-103371281D01*
X160147060Y-102978216D01*
X160539701Y-102594006D01*
X160970443Y-102220767D01*
X161441049Y-101860581D01*
X161953282Y-101515564D01*
X162509260Y-101187481D01*
X163110393Y-100878801D01*
X163758446Y-100591287D01*
X164455182Y-100327056D01*
X162723043Y-99668773D01*
X129603207Y-89415993D01*
X129602502Y-89446332D01*
X128890949Y-89473496D01*
X128213968Y-89574743D01*
X127573324Y-89740196D01*
X126970074Y-89958565D01*
X126405982Y-90219621D01*
X125882813Y-90513132D01*
X125401977Y-90828515D01*
X124965238Y-91155187D01*
X124229696Y-91800771D01*
X123688888Y-92365568D01*
X123241213Y-92918018D01*
X123240860Y-92918371D01*
X123240507Y-92918723D01*
X122882438Y-93433073D01*
X122576580Y-93950246D01*
X122319052Y-94465301D01*
X122105621Y-94972948D01*
X121932407Y-95468954D01*
X121795530Y-95948731D01*
X121613849Y-96839495D01*
X121529182Y-97607140D01*
X121509427Y-98213212D01*
X121537296Y-98788592D01*
X157678321Y-110042026D01*
X157678321Y-110042132D01*
X157745349Y-110123800D01*
X121484380Y-98833042D01*
X121481910Y-98814345D01*
X121453688Y-98280945D01*
X121468857Y-97674873D01*
X121548938Y-96897351D01*
X121727796Y-95988948D01*
X121864674Y-95497882D01*
X122038946Y-94989882D01*
X122254846Y-94469534D01*
X122516255Y-93941779D01*
X122827757Y-93412259D01*
X123193588Y-92885209D01*
X123193941Y-92885209D01*
X123194293Y-92884504D01*
X123639852Y-92333465D01*
X124176780Y-91771490D01*
X124907030Y-91128023D01*
X125340946Y-90801704D01*
X125818255Y-90485968D01*
X126338249Y-90191046D01*
X126898460Y-89927168D01*
X127498535Y-89704565D01*
X128135652Y-89534174D01*
X128809104Y-89425871D01*
X129517482Y-89389887D01*
X128764302Y-89156349D01*
X128638360Y-89129538D01*
X128285229Y-89084382D01*
X127739482Y-89073799D01*
X127036396Y-89151057D01*
X126637052Y-89239251D01*
X126211602Y-89369426D01*
X125764632Y-89548637D01*
X125300730Y-89782882D01*
X124824480Y-90079215D01*
X124340116Y-90444340D01*
X123851871Y-90885312D01*
X123364332Y-91408482D01*
X122681355Y-92278079D01*
X122132785Y-93115926D01*
X121703807Y-93909323D01*
X121379957Y-94644865D01*
X121146418Y-95309851D01*
X120988727Y-95891581D01*
X120891360Y-96376298D01*
X120840207Y-96751654D01*
X120852907Y-97839973D01*
X120699802Y-98290823D01*
X120698038Y-98293645D01*
X120569980Y-98452042D01*
X120397471Y-98549762D01*
X120391474Y-98551173D01*
X116628041Y-97827273D01*
X116638977Y-97770829D01*
X120388299Y-98491554D01*
X120531880Y-98407240D01*
X120647591Y-98265070D01*
X120795052Y-97830448D01*
X120782352Y-96748479D01*
X120782705Y-96747068D01*
X120834210Y-96368537D01*
X120932282Y-95879940D01*
X121091032Y-95294329D01*
X121325982Y-94625109D01*
X121651596Y-93884629D01*
X122082691Y-93086998D01*
X122634082Y-92244565D01*
X123320588Y-91370735D01*
X123811302Y-90844037D01*
X124303427Y-90399890D01*
X124792024Y-90031943D01*
X125272507Y-89732787D01*
X125740996Y-89496074D01*
X126192552Y-89315099D01*
X126622588Y-89183513D01*
X127026518Y-89094260D01*
X127738424Y-89016296D01*
X128292638Y-89027232D01*
X128651766Y-89073446D01*
X128779824Y-89100963D01*
X128780529Y-89100963D01*
X162742093Y-99614445D01*
X164623810Y-100329526D01*
X164548315Y-100355631D01*
X163844876Y-100617745D01*
X163191179Y-100903495D01*
X162584754Y-101210764D01*
X162024543Y-101537437D01*
X161508429Y-101881748D01*
X161034649Y-102241228D01*
X160601438Y-102613762D01*
X160206679Y-102997584D01*
X159849315Y-103390331D01*
X159526876Y-103789958D01*
X158980776Y-104601523D01*
X158553563Y-105415522D01*
X158231476Y-106215199D01*
X158000407Y-106983725D01*
X157846243Y-107704168D01*
X157754521Y-108359806D01*
X157711129Y-108933846D01*
X157713246Y-109770070D01*
X157739351Y-110078609D01*
X157745349Y-110123553D01*
X157745349Y-110123800D01*
G37*
G36*
X107285074Y-91568996D02*
G01*
X107178888Y-91588751D01*
X107042716Y-91653310D01*
X107006380Y-91686471D01*
X106891374Y-91791246D01*
X106852569Y-91853687D01*
X106633846Y-92116154D01*
X106618677Y-92111568D01*
X106180880Y-92514793D01*
X106045060Y-92689418D01*
X106033066Y-92813243D01*
X105138774Y-93631334D01*
X105084446Y-93678607D01*
X105049521Y-93741754D01*
X105019535Y-93921318D01*
X105035763Y-94155562D01*
X105037174Y-94163676D01*
X105042113Y-94171084D01*
X105244607Y-94404270D01*
X105443927Y-94554201D01*
X105656652Y-94658623D01*
X105680994Y-94581365D01*
X105486260Y-94485409D01*
X105302463Y-94346768D01*
X105114080Y-94132279D01*
X105100321Y-93923787D01*
X105125016Y-93770329D01*
X105162057Y-93714590D01*
X105166644Y-93717059D01*
X105204038Y-93731171D01*
X105289410Y-93739637D01*
X105527182Y-93703654D01*
X105700396Y-93675432D01*
X105793530Y-93665907D01*
X105913121Y-93610521D01*
X106005196Y-93517034D01*
X106075752Y-93370279D01*
X106114910Y-93161434D01*
X106111735Y-92880271D01*
X106109971Y-92860515D01*
X106123377Y-92720462D01*
X106240499Y-92570179D01*
X106639491Y-92202232D01*
X108637271Y-92815712D01*
X108661260Y-92738454D01*
X106717807Y-92141907D01*
X106919244Y-91900607D01*
X106921713Y-91894610D01*
X106948877Y-91849101D01*
X107051535Y-91753498D01*
X107057180Y-91749618D01*
X107061060Y-91744679D01*
X107090694Y-91718221D01*
X107201113Y-91666010D01*
X107411721Y-91649429D01*
X107560594Y-91675182D01*
X107742274Y-91734801D01*
X107743685Y-91735507D01*
X108745574Y-92057240D01*
X108770269Y-91980335D01*
X107772260Y-91660012D01*
X107495330Y-91579226D01*
X107285074Y-91568996D01*
G37*
G36*
X107114330Y-88081788D02*
G01*
X107062471Y-88212315D01*
X107092810Y-88274404D01*
X106842691Y-88430685D01*
X106593982Y-88633179D01*
X106318816Y-88924574D01*
X106184760Y-89104843D01*
X106060230Y-89309454D01*
X105950516Y-89538054D01*
X105860910Y-89792054D01*
X105796705Y-90071807D01*
X105763544Y-90378018D01*
X105766719Y-90711746D01*
X105811169Y-91073343D01*
X105743082Y-91085690D01*
X105697927Y-90716685D01*
X105695105Y-90375196D01*
X105729324Y-90060871D01*
X105794941Y-89773357D01*
X105887016Y-89512301D01*
X105999552Y-89276646D01*
X106127610Y-89066390D01*
X106265194Y-88880829D01*
X106548121Y-88581674D01*
X106804591Y-88373182D01*
X107062471Y-88212315D01*
X107114330Y-88081788D01*
X106978510Y-88094135D01*
X106830696Y-88136468D01*
X106679002Y-88218313D01*
X106530482Y-88349193D01*
X106152305Y-88763001D01*
X105959688Y-89003949D01*
X105783299Y-89274882D01*
X105637249Y-89582151D01*
X105535296Y-89931401D01*
X105491199Y-90328276D01*
X105518716Y-90778774D01*
X105530357Y-90847212D01*
X105578688Y-90999612D01*
X105691224Y-91170357D01*
X105779419Y-91237737D01*
X105893013Y-91278660D01*
X105898657Y-91279365D01*
X108914907Y-91245498D01*
X108923021Y-91197873D01*
X108982641Y-90937524D01*
X109067660Y-90650362D01*
X109197835Y-90292999D01*
X109332596Y-90014304D01*
X109432432Y-89823099D01*
X109468063Y-89764537D01*
X109620110Y-89764537D01*
X107413838Y-88138938D01*
X107408194Y-88136468D01*
X107324938Y-88108951D01*
X107114330Y-88081788D01*
G37*
G36*
X109816960Y-84158546D02*
G01*
X101905389Y-71361180D01*
X101139086Y-69970531D01*
X100672325Y-69012386D01*
X100671338Y-68863514D01*
X100674195Y-68857517D01*
X100798973Y-68685714D01*
X100932252Y-68603517D01*
X101083770Y-68579528D01*
X101077244Y-68637031D01*
X100952643Y-68657844D01*
X100839154Y-68727342D01*
X100729193Y-68877625D01*
X100730040Y-68998981D01*
X101190450Y-69944072D01*
X101955308Y-71331900D01*
X109865996Y-84128207D01*
X109816960Y-84158546D01*
G37*
G36*
X109876932Y-84147610D02*
G01*
X109865644Y-84152902D01*
X109498755Y-84363510D01*
X109123046Y-84633738D01*
X108691952Y-85020382D01*
X108473230Y-85258860D01*
X108260857Y-85528735D01*
X108062949Y-85829654D01*
X107885149Y-86162677D01*
X107735219Y-86528507D01*
X107619507Y-86927499D01*
X107545071Y-87360357D01*
X107518613Y-87828140D01*
X107518613Y-87836960D01*
X107654432Y-88031693D01*
X107661488Y-88035221D01*
X107699588Y-88059915D01*
X107771907Y-88111068D01*
X107860455Y-87570965D01*
X107982869Y-87059085D01*
X108142677Y-86528860D01*
X108049896Y-86390218D01*
X107983221Y-86341888D01*
X107951824Y-86326013D01*
X107968052Y-86294615D01*
X108225227Y-85856818D01*
X108507096Y-85471232D01*
X108794963Y-85141032D01*
X109071188Y-84866571D01*
X109516041Y-84494038D01*
X109696310Y-84367038D01*
X109711832Y-84357160D01*
X109728413Y-84363863D01*
X109850474Y-84385735D01*
X109959835Y-84364921D01*
X110065669Y-84278491D01*
X110121407Y-84319766D01*
X109988057Y-84427363D01*
X109850474Y-84455232D01*
X109721005Y-84434066D01*
X109530857Y-84569532D01*
X109101527Y-84932893D01*
X108837649Y-85196418D01*
X108562835Y-85512860D01*
X108293313Y-85880454D01*
X108045310Y-86298496D01*
X108136327Y-86376107D01*
X108213232Y-86519335D01*
X108215702Y-86529213D01*
X108212174Y-86539090D01*
X108056952Y-87052029D01*
X108002977Y-87276043D01*
X108400557Y-87434793D01*
X108485930Y-87102477D01*
X108635507Y-86710893D01*
X108817894Y-86355293D01*
X109024621Y-86034618D01*
X109248282Y-85748163D01*
X109480763Y-85495221D01*
X109942902Y-85085999D01*
X110349302Y-84801660D01*
X110729949Y-84591404D01*
X110340835Y-84338816D01*
X109888221Y-84152549D01*
X109876932Y-84147610D01*
G37*
G36*
X110762405Y-84612218D02*
G01*
X110776516Y-84644321D01*
X110384227Y-84860574D01*
X109984882Y-85139621D01*
X109530152Y-85541435D01*
X109301552Y-85790143D01*
X109081771Y-86071660D01*
X108878571Y-86387043D01*
X108699713Y-86736646D01*
X108552605Y-87121527D01*
X108465469Y-87460546D01*
X108617516Y-87521224D01*
X109302610Y-87867299D01*
X109337888Y-87730774D01*
X109489935Y-87331782D01*
X109674438Y-86968774D01*
X109883988Y-86640338D01*
X110110824Y-86346827D01*
X110347185Y-86086477D01*
X110816027Y-85665260D01*
X111228424Y-85370691D01*
X111603780Y-85157966D01*
X110762405Y-84612218D01*
G37*
G36*
X109284971Y-87936090D02*
G01*
X108586824Y-87584018D01*
X108447830Y-87528279D01*
X108444302Y-87542038D01*
X108383271Y-87999590D01*
X108383977Y-88562976D01*
X109156560Y-89139768D01*
X109162910Y-88638118D01*
X109226410Y-88165749D01*
X109284971Y-87936090D01*
G37*
G36*
X108308130Y-88506179D02*
G01*
X108307424Y-88498065D01*
X108314127Y-87995004D01*
X108376216Y-87530043D01*
X108383271Y-87502527D01*
X107986749Y-87343424D01*
X107931363Y-87571671D01*
X107834702Y-88155871D01*
X107912666Y-88210904D01*
X108308130Y-88506179D01*
G37*
G36*
X111656696Y-85192185D02*
G01*
X111662341Y-85204532D01*
X111264055Y-85429604D01*
X110858360Y-85718529D01*
X110396927Y-86132691D01*
X110164799Y-86388807D01*
X109941491Y-86677379D01*
X109735116Y-87000171D01*
X109553435Y-87357182D01*
X109404210Y-87749824D01*
X109294496Y-88178096D01*
X109232407Y-88643057D01*
X109217238Y-89184924D01*
X109390452Y-89314393D01*
X109591888Y-89460796D01*
X109352705Y-89903532D01*
X109159735Y-90341682D01*
X109008746Y-90757607D01*
X108894799Y-91135785D01*
X108761802Y-91710812D01*
X108724760Y-91934121D01*
X108724055Y-91934473D01*
X108724055Y-91936590D01*
X108724055Y-91936943D01*
X108592116Y-92836526D01*
X108548371Y-93345232D01*
X108531791Y-93870518D01*
X108552252Y-94395804D01*
X108619280Y-94903804D01*
X108742399Y-95377937D01*
X108827771Y-95597365D01*
X108930782Y-95801270D01*
X108936780Y-95811501D01*
X108946305Y-95818204D01*
X109083182Y-95901459D01*
X109469827Y-96100426D01*
X110067785Y-96340668D01*
X110434321Y-96452851D01*
X110839663Y-96547043D01*
X111883532Y-96851843D01*
X112999016Y-97146412D01*
X114346627Y-97460031D01*
X115344635Y-97658292D01*
X116353932Y-97821276D01*
X117335360Y-97929226D01*
X118249760Y-97963445D01*
X118250113Y-97963445D01*
X118268810Y-97963445D01*
X118268105Y-97962387D01*
X118645224Y-97947923D01*
X118997296Y-97913351D01*
X119320793Y-97856201D01*
X119612188Y-97775062D01*
X119612541Y-97775062D01*
X119616068Y-97774004D01*
X119619949Y-97771887D01*
X119767763Y-97680870D01*
X120082441Y-97429692D01*
X120241543Y-97255068D01*
X120371366Y-97050456D01*
X120446507Y-96820798D01*
X120455327Y-96698031D01*
X120441216Y-96570326D01*
X120468380Y-96234129D01*
X120581621Y-95423093D01*
X120685691Y-94922148D01*
X120829271Y-94406740D01*
X121017302Y-93912498D01*
X121255074Y-93475759D01*
X121255074Y-93475407D01*
X121805760Y-92697179D01*
X121806818Y-92695768D01*
X121891838Y-92525023D01*
X121958866Y-92340168D01*
X122006843Y-92115096D01*
X122008960Y-91867093D01*
X121983913Y-91741151D01*
X121936641Y-91616973D01*
X121864321Y-91499146D01*
X121763780Y-91389079D01*
X121632546Y-91290654D01*
X121469210Y-91205635D01*
X121464624Y-91203165D01*
X118867474Y-89755012D01*
X118867121Y-89754660D01*
X118866768Y-89754307D01*
X118864652Y-89752896D01*
X118864299Y-89753601D01*
X118863593Y-89753601D01*
X118565849Y-89593087D01*
X118129110Y-89390593D01*
X115376385Y-87605185D01*
X115343224Y-87584018D01*
X114648957Y-88181271D01*
X114676827Y-88188326D01*
X115138613Y-88305096D01*
X115965877Y-88598254D01*
X117051021Y-89037815D01*
X118040563Y-89459737D01*
X118176030Y-89519710D01*
X118560910Y-89701390D01*
X118812088Y-89838974D01*
X118813499Y-89840032D01*
X121422996Y-91294535D01*
X121425466Y-91295593D01*
X121577160Y-91373204D01*
X121694988Y-91461398D01*
X121783535Y-91558060D01*
X121845977Y-91661071D01*
X121909124Y-91879793D01*
X121907007Y-92102396D01*
X121862557Y-92309829D01*
X121800116Y-92481985D01*
X121720741Y-92643557D01*
X121172524Y-93417904D01*
X121172171Y-93417904D01*
X121171466Y-93418962D01*
X120925227Y-93870518D01*
X120732610Y-94374990D01*
X120587266Y-94898159D01*
X120482491Y-95405101D01*
X120367838Y-96230248D01*
X120340321Y-96568562D01*
X120339968Y-96575618D01*
X120341380Y-96582320D01*
X120348082Y-96801748D01*
X120281055Y-97006359D01*
X120162168Y-97192979D01*
X120012591Y-97357373D01*
X119717668Y-97593029D01*
X119575146Y-97680870D01*
X119292218Y-97759187D01*
X118974718Y-97814573D01*
X118626527Y-97847734D01*
X118251171Y-97860787D01*
X118246232Y-97860787D01*
X117342063Y-97826215D01*
X116367338Y-97720029D01*
X115362274Y-97559867D01*
X114368146Y-97363018D01*
X113022299Y-97049398D01*
X111907874Y-96755181D01*
X110868238Y-96451793D01*
X110865769Y-96450734D01*
X110862594Y-96450029D01*
X110471716Y-96360070D01*
X110117880Y-96252826D01*
X109539677Y-96023520D01*
X109160441Y-95830551D01*
X109013685Y-95742004D01*
X108836238Y-95335604D01*
X108720174Y-94875229D01*
X108656674Y-94378870D01*
X108637271Y-93862757D01*
X108652794Y-93345232D01*
X108694774Y-92842876D01*
X108823185Y-91952818D01*
X108823891Y-91951407D01*
X108823891Y-91949996D01*
X108878219Y-91639198D01*
X108956888Y-91294535D01*
X109080360Y-90862029D01*
X109255338Y-90370962D01*
X109489935Y-89850968D01*
X109790855Y-89330268D01*
X109968655Y-89078738D01*
X110129521Y-88882240D01*
X110229357Y-88352721D01*
X110355652Y-87991124D01*
X110509816Y-87658807D01*
X110686557Y-87355771D01*
X111086960Y-86832954D01*
X111512410Y-86417735D01*
X111919163Y-86104116D01*
X112263827Y-85886452D01*
X112522766Y-85754513D01*
X111656696Y-85192185D01*
G37*
G36*
X112589794Y-85797552D02*
G01*
X112295930Y-85947482D01*
X111956910Y-86161266D01*
X111557213Y-86469593D01*
X111138819Y-86878110D01*
X110745471Y-87391754D01*
X110571552Y-87689852D01*
X110419857Y-88016171D01*
X110296032Y-88371418D01*
X110218421Y-88785226D01*
X110377171Y-88626476D01*
X110618119Y-88438093D01*
X110886582Y-88274404D01*
X111182563Y-88138232D01*
X111657402Y-88033810D01*
X111993246Y-87551915D01*
X112293813Y-87223479D01*
X112592616Y-86947607D01*
X112873427Y-86724299D01*
X113316869Y-86430435D01*
X113451630Y-86356352D01*
X112589794Y-85797552D01*
G37*
G36*
X113517599Y-86399390D02*
G01*
X113349677Y-86491113D01*
X112913291Y-86781449D01*
X112636360Y-87001582D01*
X112342496Y-87273221D01*
X112046163Y-87596365D01*
X111745949Y-88016171D01*
X112254655Y-87950554D01*
X112623660Y-87936443D01*
X113148594Y-87949849D01*
X113190927Y-87953729D01*
X113710216Y-87460899D01*
X114101094Y-87162802D01*
X114401307Y-86972302D01*
X113517599Y-86399390D01*
G37*
G36*
X115317471Y-87566732D02*
G01*
X114465160Y-87013929D01*
X114139194Y-87220657D01*
X113753960Y-87514521D01*
X113273830Y-87961843D01*
X113746905Y-88006999D01*
X114411891Y-88120946D01*
X114614385Y-88172099D01*
X115317471Y-87566732D01*
G37*
G36*
X116713413Y-100885856D02*
G01*
X116708121Y-100913020D01*
X117468005Y-101060481D01*
X117505046Y-101085528D01*
X117522332Y-101130684D01*
X117524802Y-101213939D01*
X117520921Y-101213939D01*
X117529035Y-101478876D01*
X117515982Y-101514859D01*
X117483527Y-101523326D01*
X116723996Y-101375864D01*
X116686602Y-101351170D01*
X116669316Y-101305662D01*
X116666493Y-101212881D01*
X116670727Y-101212881D01*
X116662613Y-100957823D01*
X116675666Y-100921839D01*
X116708121Y-100913020D01*
X116713413Y-100885856D01*
X116656968Y-100901731D01*
X116635096Y-100958528D01*
X116638271Y-101069301D01*
X116634391Y-101069301D01*
X116641446Y-101306720D01*
X116664730Y-101369162D01*
X116719057Y-101403028D01*
X117478588Y-101550489D01*
X117535385Y-101534967D01*
X117556905Y-101477817D01*
X117553377Y-101357167D01*
X117557257Y-101357167D01*
X117550202Y-101129978D01*
X117527271Y-101067537D01*
X117472943Y-101033317D01*
X116713413Y-100885856D01*
G37*
%TD*%
M02*
