%TF.GenerationSoftware,KiCad,Pcbnew,(5.1.12-1-10_14)*%
%TF.CreationDate,2022-04-05T14:51:50-04:00*%
%TF.ProjectId,space_shuttle_SAO,73706163-655f-4736-9875-74746c655f53,rev?*%
%TF.SameCoordinates,Original*%
%TF.FileFunction,Legend,Bot*%
%TF.FilePolarity,Positive*%
%FSLAX46Y46*%
G04 Gerber Fmt 4.6, Leading zero omitted, Abs format (unit mm)*
G04 Created by KiCad (PCBNEW (5.1.12-1-10_14)) date 2022-04-05 14:51:50*
%MOMM*%
%LPD*%
G01*
G04 APERTURE LIST*
%ADD10C,0.150000*%
%ADD11C,0.400000*%
%ADD12C,0.120000*%
G04 APERTURE END LIST*
D10*
X110448520Y-79928680D02*
X109863411Y-80338378D01*
X109773702Y-80459325D01*
X109750314Y-80591965D01*
X109793247Y-80736300D01*
X109847873Y-80814315D01*
X109083104Y-79722112D02*
X109356236Y-80112184D01*
X110175388Y-79538608D01*
X108642169Y-78926348D02*
X108630475Y-78992669D01*
X108673407Y-79137003D01*
X108728033Y-79215018D01*
X108848980Y-79304726D01*
X108981621Y-79328115D01*
X109086948Y-79312496D01*
X109270290Y-79242250D01*
X109387312Y-79160311D01*
X109516028Y-79012051D01*
X109566729Y-78918417D01*
X109590117Y-78785776D01*
X109547185Y-78641441D01*
X109492559Y-78563427D01*
X109371612Y-78473718D01*
X109305292Y-78462024D01*
X108973609Y-77822289D02*
X108388500Y-78231987D01*
X108298792Y-78352934D01*
X108275403Y-78485574D01*
X108318336Y-78629909D01*
X108372962Y-78707924D01*
X107608193Y-77615721D02*
X107881325Y-78005793D01*
X108700477Y-77432217D01*
X107167258Y-76819957D02*
X107155564Y-76886278D01*
X107198496Y-77030612D01*
X107253122Y-77108627D01*
X107374069Y-77198336D01*
X107506710Y-77221724D01*
X107612038Y-77206105D01*
X107795380Y-77135859D01*
X107912401Y-77053920D01*
X108041117Y-76905660D01*
X108091818Y-76812026D01*
X108115207Y-76679385D01*
X108072274Y-76535051D01*
X108017648Y-76457036D01*
X107896701Y-76367327D01*
X107830381Y-76355633D01*
X107498698Y-75715898D02*
X106913589Y-76125596D01*
X106823881Y-76246543D01*
X106800493Y-76379183D01*
X106843425Y-76523518D01*
X106898051Y-76601533D01*
X106133283Y-75509330D02*
X106406414Y-75899403D01*
X107225566Y-75325826D01*
X105692347Y-74713566D02*
X105680653Y-74779887D01*
X105723585Y-74924222D01*
X105778212Y-75002236D01*
X105899158Y-75091945D01*
X106031799Y-75115333D01*
X106137127Y-75099714D01*
X106320469Y-75029468D01*
X106437491Y-74947529D01*
X106566206Y-74799269D01*
X106616908Y-74705635D01*
X106640296Y-74572994D01*
X106597364Y-74428660D01*
X106542737Y-74350645D01*
X106421791Y-74260937D01*
X106355470Y-74249242D01*
X106023787Y-73609508D02*
X105438679Y-74019205D01*
X105348970Y-74140152D01*
X105325582Y-74272792D01*
X105368514Y-74417127D01*
X105423140Y-74495142D01*
X104658372Y-73402939D02*
X104931503Y-73793012D01*
X105750655Y-73219435D01*
X104217436Y-72607175D02*
X104205742Y-72673496D01*
X104248674Y-72817831D01*
X104303301Y-72895845D01*
X104424247Y-72985554D01*
X104556888Y-73008942D01*
X104662216Y-72993323D01*
X104845558Y-72923077D01*
X104962580Y-72841138D01*
X105091296Y-72692878D01*
X105141997Y-72599244D01*
X105165385Y-72466603D01*
X105122453Y-72322269D01*
X105067826Y-72244254D01*
X104946880Y-72154546D01*
X104880559Y-72142851D01*
X115970392Y-112935070D02*
X116018011Y-112887451D01*
X116113249Y-112839832D01*
X116208487Y-112839832D01*
X116303725Y-112887451D01*
X116351344Y-112935070D01*
X116398963Y-113030308D01*
X116398963Y-113125546D01*
X116351344Y-113220784D01*
X116303725Y-113268403D01*
X116208487Y-113316022D01*
X116113249Y-113316022D01*
X116018011Y-113268403D01*
X115970392Y-113220784D01*
X115970392Y-112839832D02*
X115970392Y-113220784D01*
X115922773Y-113268403D01*
X115875154Y-113268403D01*
X115779916Y-113220784D01*
X115732297Y-113125546D01*
X115732297Y-112887451D01*
X115827535Y-112744594D01*
X115970392Y-112649356D01*
X116160868Y-112601737D01*
X116351344Y-112649356D01*
X116494201Y-112744594D01*
X116589440Y-112887451D01*
X116637059Y-113077927D01*
X116589440Y-113268403D01*
X116494201Y-113411260D01*
X116351344Y-113506499D01*
X116160868Y-113554118D01*
X115970392Y-113506499D01*
X115827535Y-113411260D01*
X114875154Y-113363641D02*
X114970392Y-113411260D01*
X115160868Y-113411260D01*
X115256106Y-113363641D01*
X115303725Y-113316022D01*
X115351344Y-113220784D01*
X115351344Y-112935070D01*
X115303725Y-112839832D01*
X115256106Y-112792213D01*
X115160868Y-112744594D01*
X114970392Y-112744594D01*
X114875154Y-112792213D01*
X114541820Y-112744594D02*
X114303725Y-113411260D01*
X114065630Y-112744594D02*
X114303725Y-113411260D01*
X114398963Y-113649356D01*
X114446582Y-113696975D01*
X114541820Y-113744594D01*
X113684678Y-113411260D02*
X113684678Y-112411260D01*
X113684678Y-112792213D02*
X113589440Y-112744594D01*
X113398963Y-112744594D01*
X113303725Y-112792213D01*
X113256106Y-112839832D01*
X113208487Y-112935070D01*
X113208487Y-113220784D01*
X113256106Y-113316022D01*
X113303725Y-113363641D01*
X113398963Y-113411260D01*
X113589440Y-113411260D01*
X113684678Y-113363641D01*
X112398963Y-113363641D02*
X112494201Y-113411260D01*
X112684678Y-113411260D01*
X112779916Y-113363641D01*
X112827535Y-113268403D01*
X112827535Y-112887451D01*
X112779916Y-112792213D01*
X112684678Y-112744594D01*
X112494201Y-112744594D01*
X112398963Y-112792213D01*
X112351344Y-112887451D01*
X112351344Y-112982689D01*
X112827535Y-113077927D01*
X111922773Y-113411260D02*
X111922773Y-112744594D01*
X111922773Y-112935070D02*
X111875154Y-112839832D01*
X111827535Y-112792213D01*
X111732297Y-112744594D01*
X111637059Y-112744594D01*
X111446582Y-112744594D02*
X111065630Y-112744594D01*
X111303725Y-112411260D02*
X111303725Y-113268403D01*
X111256106Y-113363641D01*
X111160868Y-113411260D01*
X111065630Y-113411260D01*
X110351344Y-113363641D02*
X110446582Y-113411260D01*
X110637059Y-113411260D01*
X110732297Y-113363641D01*
X110779916Y-113268403D01*
X110779916Y-112887451D01*
X110732297Y-112792213D01*
X110637059Y-112744594D01*
X110446582Y-112744594D01*
X110351344Y-112792213D01*
X110303725Y-112887451D01*
X110303725Y-112982689D01*
X110779916Y-113077927D01*
X109922773Y-113363641D02*
X109827535Y-113411260D01*
X109637059Y-113411260D01*
X109541820Y-113363641D01*
X109494201Y-113268403D01*
X109494201Y-113220784D01*
X109541820Y-113125546D01*
X109637059Y-113077927D01*
X109779916Y-113077927D01*
X109875154Y-113030308D01*
X109922773Y-112935070D01*
X109922773Y-112887451D01*
X109875154Y-112792213D01*
X109779916Y-112744594D01*
X109637059Y-112744594D01*
X109541820Y-112792213D01*
X109208487Y-112744594D02*
X108827535Y-112744594D01*
X109065630Y-112411260D02*
X109065630Y-113268403D01*
X109018011Y-113363641D01*
X108922773Y-113411260D01*
X108827535Y-113411260D01*
X108494201Y-112744594D02*
X108494201Y-113744594D01*
X108494201Y-112792213D02*
X108398963Y-112744594D01*
X108208487Y-112744594D01*
X108113249Y-112792213D01*
X108065630Y-112839832D01*
X108018011Y-112935070D01*
X108018011Y-113220784D01*
X108065630Y-113316022D01*
X108113249Y-113363641D01*
X108208487Y-113411260D01*
X108398963Y-113411260D01*
X108494201Y-113363641D01*
X107589440Y-113411260D02*
X107589440Y-112744594D01*
X107589440Y-112411260D02*
X107637059Y-112458880D01*
X107589440Y-112506499D01*
X107541820Y-112458880D01*
X107589440Y-112411260D01*
X107589440Y-112506499D01*
X106970392Y-113411260D02*
X107065630Y-113363641D01*
X107113249Y-113268403D01*
X107113249Y-112411260D01*
X106446582Y-113411260D02*
X106541820Y-113363641D01*
X106589440Y-113316022D01*
X106637059Y-113220784D01*
X106637059Y-112935070D01*
X106589440Y-112839832D01*
X106541820Y-112792213D01*
X106446582Y-112744594D01*
X106303725Y-112744594D01*
X106208487Y-112792213D01*
X106160868Y-112839832D01*
X106113249Y-112935070D01*
X106113249Y-113220784D01*
X106160868Y-113316022D01*
X106208487Y-113363641D01*
X106303725Y-113411260D01*
X106446582Y-113411260D01*
X105827535Y-112744594D02*
X105446582Y-112744594D01*
X105684678Y-112411260D02*
X105684678Y-113268403D01*
X105637059Y-113363641D01*
X105541820Y-113411260D01*
X105446582Y-113411260D01*
X121046380Y-96223721D02*
X120903523Y-96271340D01*
X120665428Y-96271340D01*
X120570190Y-96223721D01*
X120522571Y-96176102D01*
X120474952Y-96080864D01*
X120474952Y-95985626D01*
X120522571Y-95890388D01*
X120570190Y-95842769D01*
X120665428Y-95795150D01*
X120855904Y-95747531D01*
X120951142Y-95699912D01*
X120998761Y-95652293D01*
X121046380Y-95557055D01*
X121046380Y-95461817D01*
X120998761Y-95366579D01*
X120951142Y-95318960D01*
X120855904Y-95271340D01*
X120617809Y-95271340D01*
X120474952Y-95318960D01*
X120094000Y-95985626D02*
X119617809Y-95985626D01*
X120189238Y-96271340D02*
X119855904Y-95271340D01*
X119522571Y-96271340D01*
X118998761Y-95271340D02*
X118808285Y-95271340D01*
X118713047Y-95318960D01*
X118617809Y-95414198D01*
X118570190Y-95604674D01*
X118570190Y-95938007D01*
X118617809Y-96128483D01*
X118713047Y-96223721D01*
X118808285Y-96271340D01*
X118998761Y-96271340D01*
X119094000Y-96223721D01*
X119189238Y-96128483D01*
X119236857Y-95938007D01*
X119236857Y-95604674D01*
X119189238Y-95414198D01*
X119094000Y-95318960D01*
X118998761Y-95271340D01*
X117522571Y-95271340D02*
X117189238Y-96271340D01*
X116855904Y-95271340D01*
X116522571Y-96176102D02*
X116474952Y-96223721D01*
X116522571Y-96271340D01*
X116570190Y-96223721D01*
X116522571Y-96176102D01*
X116522571Y-96271340D01*
X115522571Y-96271340D02*
X116094000Y-96271340D01*
X115808285Y-96271340D02*
X115808285Y-95271340D01*
X115903523Y-95414198D01*
X115998761Y-95509436D01*
X116094000Y-95557055D01*
X115094000Y-96176102D02*
X115046380Y-96223721D01*
X115094000Y-96271340D01*
X115141619Y-96223721D01*
X115094000Y-96176102D01*
X115094000Y-96271340D01*
X114189238Y-95271340D02*
X114379714Y-95271340D01*
X114474952Y-95318960D01*
X114522571Y-95366579D01*
X114617809Y-95509436D01*
X114665428Y-95699912D01*
X114665428Y-96080864D01*
X114617809Y-96176102D01*
X114570190Y-96223721D01*
X114474952Y-96271340D01*
X114284476Y-96271340D01*
X114189238Y-96223721D01*
X114141619Y-96176102D01*
X114094000Y-96080864D01*
X114094000Y-95842769D01*
X114141619Y-95747531D01*
X114189238Y-95699912D01*
X114284476Y-95652293D01*
X114474952Y-95652293D01*
X114570190Y-95699912D01*
X114617809Y-95747531D01*
X114665428Y-95842769D01*
X113617809Y-96271340D02*
X113427333Y-96271340D01*
X113332095Y-96223721D01*
X113284476Y-96176102D01*
X113189238Y-96033245D01*
X113141619Y-95842769D01*
X113141619Y-95461817D01*
X113189238Y-95366579D01*
X113236857Y-95318960D01*
X113332095Y-95271340D01*
X113522571Y-95271340D01*
X113617809Y-95318960D01*
X113665428Y-95366579D01*
X113713047Y-95461817D01*
X113713047Y-95699912D01*
X113665428Y-95795150D01*
X113617809Y-95842769D01*
X113522571Y-95890388D01*
X113332095Y-95890388D01*
X113236857Y-95842769D01*
X113189238Y-95795150D01*
X113141619Y-95699912D01*
D11*
%TO.C,D1*%
X168297095Y-110544944D02*
G75*
G03*
X168297095Y-110544944I-200000J0D01*
G01*
D12*
%TO.C,R1*%
X162369797Y-110474211D02*
X163398021Y-111502435D01*
X163656731Y-109187277D02*
X164684955Y-110215501D01*
%TO.C,D1*%
D10*
X170890368Y-110413132D02*
X170183262Y-109706025D01*
X170014903Y-109874384D01*
X169947559Y-110009071D01*
X169947559Y-110143758D01*
X169981231Y-110244773D01*
X170082246Y-110413132D01*
X170183262Y-110514147D01*
X170351620Y-110615163D01*
X170452636Y-110648834D01*
X170587323Y-110648834D01*
X170722010Y-110581491D01*
X170890368Y-110413132D01*
X169812872Y-111490628D02*
X170216933Y-111086567D01*
X170014903Y-111288598D02*
X169307796Y-110581491D01*
X169476155Y-110615163D01*
X169610842Y-110615163D01*
X169711857Y-110581491D01*
%TO.C,R1*%
X162038411Y-112069522D02*
X162610831Y-111968507D01*
X162442472Y-112473583D02*
X163149579Y-111766477D01*
X162880205Y-111497102D01*
X162779190Y-111463431D01*
X162711846Y-111463431D01*
X162610831Y-111497102D01*
X162509816Y-111598118D01*
X162476144Y-111699133D01*
X162476144Y-111766477D01*
X162509816Y-111867492D01*
X162779190Y-112136866D01*
X161364976Y-111396087D02*
X161769037Y-111800148D01*
X161567006Y-111598118D02*
X162274113Y-110891011D01*
X162240442Y-111059370D01*
X162240442Y-111194057D01*
X162274113Y-111295072D01*
%TD*%
M02*
