G04 #@! TF.GenerationSoftware,KiCad,Pcbnew,(6.99.0-2452-gdb4f2d9dd8)*
G04 #@! TF.CreationDate,2022-07-20T23:01:19+09:00*
G04 #@! TF.ProjectId,an225,616e3232-352e-46b6-9963-61645f706362,rev?*
G04 #@! TF.SameCoordinates,Original*
G04 #@! TF.FileFunction,Legend,Top*
G04 #@! TF.FilePolarity,Positive*
%FSLAX46Y46*%
G04 Gerber Fmt 4.6, Leading zero omitted, Abs format (unit mm)*
G04 Created by KiCad (PCBNEW (6.99.0-2452-gdb4f2d9dd8)) date 2022-07-20 23:01:19*
%MOMM*%
%LPD*%
G01*
G04 APERTURE LIST*
%ADD10C,0.150000*%
%ADD11R,1.700000X1.700000*%
%ADD12O,1.700000X1.700000*%
G04 APERTURE END LIST*
D10*
G36*
X119930048Y-45927807D02*
G01*
X120092419Y-46036359D01*
X120204969Y-46117773D01*
X120334544Y-46217279D01*
X120478230Y-46334877D01*
X120633112Y-46470566D01*
X120796278Y-46624348D01*
X120964812Y-46796222D01*
X121050182Y-46888944D01*
X121135801Y-46986188D01*
X121221306Y-47087955D01*
X121306331Y-47194246D01*
X121390514Y-47305059D01*
X121473488Y-47420396D01*
X121554891Y-47540255D01*
X121634358Y-47664637D01*
X121711525Y-47793543D01*
X121786027Y-47926971D01*
X121857501Y-48064922D01*
X121925581Y-48207397D01*
X122173760Y-48761030D01*
X122394992Y-49284654D01*
X122591028Y-49790756D01*
X122763620Y-50291823D01*
X122914518Y-50800342D01*
X123045474Y-51328799D01*
X123158239Y-51889681D01*
X123254564Y-52495474D01*
X123336199Y-53158666D01*
X123404897Y-53891743D01*
X123462408Y-54707191D01*
X123510483Y-55617498D01*
X123550873Y-56635149D01*
X123585331Y-57772632D01*
X123643449Y-60457040D01*
X123690969Y-62878790D01*
X123747713Y-64712112D01*
X123786344Y-65438987D01*
X123835444Y-66055804D01*
X123897731Y-66574913D01*
X123975926Y-67008663D01*
X124072751Y-67369403D01*
X124190925Y-67669484D01*
X124333170Y-67921255D01*
X124502205Y-68137065D01*
X124700751Y-68329265D01*
X124931528Y-68510203D01*
X125500661Y-68887695D01*
X126209878Y-69340282D01*
X126493862Y-69517435D01*
X126735344Y-69661275D01*
X126937761Y-69771386D01*
X127104550Y-69847352D01*
X127175657Y-69872401D01*
X127239145Y-69888758D01*
X127295444Y-69896371D01*
X127344984Y-69895188D01*
X127388193Y-69885158D01*
X127425502Y-69866227D01*
X127457339Y-69838345D01*
X127484136Y-69801460D01*
X127506320Y-69755519D01*
X127524321Y-69700470D01*
X127538570Y-69636263D01*
X127549495Y-69562844D01*
X127563094Y-69388164D01*
X127568552Y-69176016D01*
X127568796Y-68637653D01*
X127571754Y-68182555D01*
X127578779Y-67998429D01*
X127592461Y-67840559D01*
X127602491Y-67770839D01*
X127615017Y-67706925D01*
X127630316Y-67648565D01*
X127648665Y-67595507D01*
X127670343Y-67547497D01*
X127695626Y-67504285D01*
X127724791Y-67465617D01*
X127758116Y-67431241D01*
X127795879Y-67400904D01*
X127838356Y-67374353D01*
X127885825Y-67351338D01*
X127938563Y-67331604D01*
X127996847Y-67314900D01*
X128060956Y-67300972D01*
X128131165Y-67289570D01*
X128207753Y-67280439D01*
X128381174Y-67267984D01*
X128583437Y-67261589D01*
X129083362Y-67258896D01*
X129349945Y-67259475D01*
X129583135Y-67263528D01*
X129785035Y-67274530D01*
X129874908Y-67283723D01*
X129957748Y-67295956D01*
X130033818Y-67311662D01*
X130103379Y-67331278D01*
X130166696Y-67355236D01*
X130224031Y-67383972D01*
X130275648Y-67417919D01*
X130321809Y-67457512D01*
X130362777Y-67503185D01*
X130398815Y-67555373D01*
X130430186Y-67614509D01*
X130457154Y-67681028D01*
X130479980Y-67755364D01*
X130498929Y-67837952D01*
X130514263Y-67929226D01*
X130526245Y-68029620D01*
X130535138Y-68139569D01*
X130541205Y-68259506D01*
X130545913Y-68531083D01*
X130542473Y-68847827D01*
X130519563Y-69630711D01*
X130497701Y-70416033D01*
X130496743Y-70738564D01*
X130506283Y-71021409D01*
X130529210Y-71269872D01*
X130546595Y-71382867D01*
X130568409Y-71489254D01*
X130595013Y-71589696D01*
X130626768Y-71684855D01*
X130664035Y-71775396D01*
X130707175Y-71861979D01*
X130756549Y-71945268D01*
X130812517Y-72025926D01*
X130875441Y-72104615D01*
X130945681Y-72181998D01*
X131023599Y-72258737D01*
X131109555Y-72335496D01*
X131307025Y-72491723D01*
X131540980Y-72655979D01*
X131814306Y-72833567D01*
X132490620Y-73249944D01*
X133301449Y-73740338D01*
X133994149Y-74153434D01*
X134495204Y-74445789D01*
X134650891Y-74533113D01*
X134731099Y-74573959D01*
X134740892Y-74575908D01*
X134750562Y-74573914D01*
X134760095Y-74568071D01*
X134769479Y-74558470D01*
X134778702Y-74545204D01*
X134787752Y-74528364D01*
X134796617Y-74508043D01*
X134805284Y-74484332D01*
X134821976Y-74427111D01*
X134837730Y-74357436D01*
X134852449Y-74276045D01*
X134866034Y-74183672D01*
X134878387Y-74081056D01*
X134889412Y-73968932D01*
X134899009Y-73848036D01*
X134907080Y-73719105D01*
X134913529Y-73582875D01*
X134918256Y-73440083D01*
X134921165Y-73291464D01*
X134922156Y-73137756D01*
X134925123Y-72638413D01*
X134932169Y-72436386D01*
X134945891Y-72263167D01*
X134955951Y-72186669D01*
X134968514Y-72116541D01*
X134983859Y-72052507D01*
X135002263Y-71994291D01*
X135024005Y-71941614D01*
X135049363Y-71894200D01*
X135078615Y-71851773D01*
X135112039Y-71814054D01*
X135149914Y-71780768D01*
X135192518Y-71751637D01*
X135240128Y-71726383D01*
X135293022Y-71704731D01*
X135351480Y-71686403D01*
X135415779Y-71671121D01*
X135486198Y-71658610D01*
X135563013Y-71648592D01*
X135736950Y-71634926D01*
X135939814Y-71627909D01*
X136441226Y-71624954D01*
X136708601Y-71625565D01*
X136942472Y-71629838D01*
X137144940Y-71641436D01*
X137235054Y-71651127D01*
X137318104Y-71664022D01*
X137394353Y-71680581D01*
X137464064Y-71701259D01*
X137527499Y-71726516D01*
X137584920Y-71756809D01*
X137636590Y-71792596D01*
X137682772Y-71834335D01*
X137723727Y-71882483D01*
X137759719Y-71937499D01*
X137791009Y-71999840D01*
X137817861Y-72069965D01*
X137840537Y-72148330D01*
X137859299Y-72235394D01*
X137874410Y-72331614D01*
X137886132Y-72437449D01*
X137894728Y-72553356D01*
X137900460Y-72679794D01*
X137904383Y-72966090D01*
X137900000Y-73300000D01*
X137874718Y-74125314D01*
X137848495Y-74951827D01*
X137841875Y-75288582D01*
X137841442Y-75580417D01*
X137848588Y-75831894D01*
X137864706Y-76047572D01*
X137891190Y-76232013D01*
X137929433Y-76389778D01*
X137980829Y-76525427D01*
X138011894Y-76586384D01*
X138046771Y-76643522D01*
X138128652Y-76748623D01*
X138227865Y-76845291D01*
X138345805Y-76938086D01*
X138483864Y-77031571D01*
X138825914Y-77238849D01*
X139310072Y-77529008D01*
X139861900Y-77865770D01*
X140413447Y-78207360D01*
X140896764Y-78512002D01*
X141359639Y-78805240D01*
X141546047Y-78917040D01*
X141705286Y-79003503D01*
X141775386Y-79036734D01*
X141839496Y-79063034D01*
X141897883Y-79082203D01*
X141950815Y-79094041D01*
X141998558Y-79098350D01*
X142041381Y-79094930D01*
X142079551Y-79083582D01*
X142113335Y-79064107D01*
X142142999Y-79036306D01*
X142168813Y-78999979D01*
X142191043Y-78954927D01*
X142209955Y-78900951D01*
X142225819Y-78837853D01*
X142238900Y-78765431D01*
X142249467Y-78683489D01*
X142257787Y-78591825D01*
X142268753Y-78378539D01*
X142273938Y-78123979D01*
X142275520Y-77484666D01*
X142278494Y-76915795D01*
X142285557Y-76685638D01*
X142299310Y-76488300D01*
X142309393Y-76401149D01*
X142321985Y-76321257D01*
X142337365Y-76248307D01*
X142355812Y-76181985D01*
X142377604Y-76121974D01*
X142403020Y-76067958D01*
X142432340Y-76019623D01*
X142465841Y-75976653D01*
X142503803Y-75938731D01*
X142546505Y-75905544D01*
X142594224Y-75876774D01*
X142647241Y-75852107D01*
X142705833Y-75831227D01*
X142770280Y-75813817D01*
X142840861Y-75799564D01*
X142917853Y-75788151D01*
X143092190Y-75772583D01*
X143295522Y-75764588D01*
X143798088Y-75761222D01*
X144066074Y-75761855D01*
X144300461Y-75766282D01*
X144503332Y-75778298D01*
X144593601Y-75788338D01*
X144676773Y-75801698D01*
X144753109Y-75818853D01*
X144822870Y-75840277D01*
X144886315Y-75866444D01*
X144943706Y-75897829D01*
X144995304Y-75934905D01*
X145041368Y-75978148D01*
X145082160Y-76028032D01*
X145117940Y-76085030D01*
X145148969Y-76149618D01*
X145175508Y-76222269D01*
X145197817Y-76303458D01*
X145216156Y-76393660D01*
X145230787Y-76493348D01*
X145241970Y-76602997D01*
X145249965Y-76723081D01*
X145255034Y-76854074D01*
X145257434Y-77150687D01*
X145251255Y-77496631D01*
X145221500Y-78351686D01*
X145205791Y-78808669D01*
X145202737Y-79214706D01*
X145209184Y-79401672D01*
X145222668Y-79579564D01*
X145244480Y-79749603D01*
X145275912Y-79913011D01*
X145318255Y-80071008D01*
X145372801Y-80224815D01*
X145440840Y-80375653D01*
X145523664Y-80524744D01*
X145622565Y-80673307D01*
X145738832Y-80822564D01*
X145873759Y-80973737D01*
X146028635Y-81128045D01*
X146204753Y-81286710D01*
X146403403Y-81450954D01*
X146625877Y-81621995D01*
X146873466Y-81801057D01*
X147147461Y-81989360D01*
X147449153Y-82188124D01*
X148140796Y-82621922D01*
X148958725Y-83112218D01*
X149913269Y-83668780D01*
X152273523Y-85019774D01*
X155097073Y-86648553D01*
X157310178Y-87980746D01*
X158210350Y-88555000D01*
X158984954Y-89078361D01*
X159643003Y-89558579D01*
X160193514Y-90003406D01*
X160645498Y-90420594D01*
X161007972Y-90817892D01*
X161289949Y-91203053D01*
X161500444Y-91583827D01*
X161648470Y-91967965D01*
X161743043Y-92363219D01*
X161793176Y-92777340D01*
X161807884Y-93218079D01*
X161809464Y-93297654D01*
X161813235Y-93372450D01*
X161821541Y-93506806D01*
X161823172Y-93565916D01*
X161821185Y-93619349D01*
X161814128Y-93666881D01*
X161808244Y-93688363D01*
X161800548Y-93708285D01*
X161790859Y-93726620D01*
X161778994Y-93743339D01*
X161764773Y-93758414D01*
X161748014Y-93771817D01*
X161728535Y-93783520D01*
X161706154Y-93793495D01*
X161680691Y-93801714D01*
X161651963Y-93808148D01*
X161619790Y-93812770D01*
X161583989Y-93815552D01*
X161500778Y-93815483D01*
X161400880Y-93807715D01*
X161282842Y-93792025D01*
X161145211Y-93768188D01*
X160986535Y-93735978D01*
X160805362Y-93695173D01*
X160600241Y-93645547D01*
X160369717Y-93586875D01*
X160112340Y-93518934D01*
X159511216Y-93354343D01*
X158785250Y-93149980D01*
X157922824Y-92904046D01*
X155742122Y-92280286D01*
X151621663Y-91110996D01*
X149762620Y-90595047D01*
X149685135Y-90576548D01*
X149559611Y-90543220D01*
X149190666Y-90439588D01*
X148708217Y-90299178D01*
X148164696Y-90137018D01*
X147620336Y-89974737D01*
X147135605Y-89833993D01*
X146763283Y-89729864D01*
X146556151Y-89677432D01*
X146477750Y-89658976D01*
X146353727Y-89626372D01*
X145994228Y-89525971D01*
X145528475Y-89390744D01*
X145007289Y-89235201D01*
X144472330Y-89075831D01*
X143969071Y-88930193D01*
X143554060Y-88814385D01*
X143283850Y-88744510D01*
X142865373Y-88631679D01*
X142046673Y-88398924D01*
X140945955Y-88080206D01*
X139681424Y-87709483D01*
X131886519Y-85459873D01*
X131849162Y-85453752D01*
X131808282Y-85445576D01*
X131716538Y-85423787D01*
X131612459Y-85395958D01*
X131497219Y-85363542D01*
X131237946Y-85290759D01*
X131096260Y-85253296D01*
X130948103Y-85217056D01*
X130678440Y-85135022D01*
X130354530Y-85058992D01*
X129983752Y-84989143D01*
X129573482Y-84925649D01*
X128663987Y-84818428D01*
X127685072Y-84738728D01*
X126695765Y-84687948D01*
X125755094Y-84667488D01*
X124922087Y-84678749D01*
X124564404Y-84696712D01*
X124255772Y-84723129D01*
X124205301Y-84723433D01*
X124157960Y-84725556D01*
X124135425Y-84727868D01*
X124113627Y-84731318D01*
X124092550Y-84736133D01*
X124072178Y-84742541D01*
X124052497Y-84750768D01*
X124033490Y-84761042D01*
X124015142Y-84773591D01*
X123997438Y-84788642D01*
X123980362Y-84806423D01*
X123963899Y-84827161D01*
X123948033Y-84851084D01*
X123932750Y-84878419D01*
X123918032Y-84909393D01*
X123903866Y-84944235D01*
X123890235Y-84983171D01*
X123877124Y-85026429D01*
X123864518Y-85074237D01*
X123852401Y-85126821D01*
X123840758Y-85184411D01*
X123829573Y-85247232D01*
X123818831Y-85315512D01*
X123808516Y-85389479D01*
X123789107Y-85555384D01*
X123771221Y-85746766D01*
X123754736Y-85965446D01*
X123739527Y-86213242D01*
X123725471Y-86491974D01*
X123712445Y-86803463D01*
X123700324Y-87149528D01*
X123688985Y-87531989D01*
X123678305Y-87952666D01*
X123668159Y-88413379D01*
X123658425Y-88915947D01*
X123639695Y-90053928D01*
X123621125Y-91381168D01*
X123580511Y-94661659D01*
X123522247Y-98594338D01*
X123452131Y-101955245D01*
X123378986Y-104387609D01*
X123311635Y-105534659D01*
X123286749Y-105700173D01*
X123278109Y-105777065D01*
X123273333Y-105851299D01*
X123273418Y-105923814D01*
X123279360Y-105995550D01*
X123292156Y-106067445D01*
X123301436Y-106103745D01*
X123312803Y-106140438D01*
X123326382Y-106177640D01*
X123342298Y-106215469D01*
X123360674Y-106254042D01*
X123381637Y-106293477D01*
X123431817Y-106375401D01*
X123493835Y-106462180D01*
X123568687Y-106554753D01*
X123657371Y-106654060D01*
X123760883Y-106761039D01*
X123880219Y-106876630D01*
X124016377Y-107001772D01*
X124170353Y-107137404D01*
X124343144Y-107284465D01*
X124535746Y-107443894D01*
X124749157Y-107616630D01*
X124984373Y-107803613D01*
X125242391Y-108005782D01*
X125524207Y-108224075D01*
X126163222Y-108712793D01*
X126909391Y-109277280D01*
X128755090Y-110663612D01*
X130601480Y-112045396D01*
X131991498Y-113066754D01*
X132536597Y-113452527D01*
X132993078Y-113760497D01*
X133369433Y-113994765D01*
X133674154Y-114159433D01*
X133915732Y-114258601D01*
X134015496Y-114284904D01*
X134102659Y-114296370D01*
X134178282Y-114293511D01*
X134243427Y-114276841D01*
X134299155Y-114246872D01*
X134346527Y-114204116D01*
X134386606Y-114149087D01*
X134420451Y-114082296D01*
X134473692Y-113915481D01*
X134552086Y-113463272D01*
X134586088Y-113247507D01*
X134621473Y-113054148D01*
X134658129Y-112882933D01*
X134695946Y-112733601D01*
X134734814Y-112605888D01*
X134774622Y-112499534D01*
X134815261Y-112414277D01*
X134856619Y-112349854D01*
X134898586Y-112306004D01*
X134941053Y-112282465D01*
X134962439Y-112278230D01*
X134983909Y-112278975D01*
X135027042Y-112295272D01*
X135070344Y-112331094D01*
X135113703Y-112386179D01*
X135157010Y-112460266D01*
X135200154Y-112553093D01*
X135243024Y-112664397D01*
X135285510Y-112793917D01*
X135327503Y-112941390D01*
X135368891Y-113106556D01*
X135449412Y-113488916D01*
X135526190Y-113938901D01*
X135598344Y-114454417D01*
X135664991Y-115033367D01*
X135725246Y-115673658D01*
X135778229Y-116373193D01*
X135803474Y-116931838D01*
X135807410Y-117513465D01*
X135792109Y-118106813D01*
X135759644Y-118700620D01*
X135712090Y-119283625D01*
X135651519Y-119844565D01*
X135580005Y-120372178D01*
X135499621Y-120855203D01*
X135412439Y-121282379D01*
X135320534Y-121642442D01*
X135225979Y-121924132D01*
X135130847Y-122116186D01*
X135083712Y-122175080D01*
X135037210Y-122207343D01*
X134991601Y-122211565D01*
X134947144Y-122186340D01*
X134904097Y-122130260D01*
X134862720Y-122041917D01*
X134786012Y-121762811D01*
X134765680Y-121669258D01*
X134744928Y-121583997D01*
X134723726Y-121506986D01*
X134702043Y-121438185D01*
X134679847Y-121377551D01*
X134657108Y-121325043D01*
X134633795Y-121280620D01*
X134609877Y-121244241D01*
X134597681Y-121229054D01*
X134585322Y-121215863D01*
X134572796Y-121204661D01*
X134560100Y-121195445D01*
X134547228Y-121188209D01*
X134534179Y-121182946D01*
X134520947Y-121179654D01*
X134507529Y-121178325D01*
X134493920Y-121178955D01*
X134480118Y-121181540D01*
X134466118Y-121186072D01*
X134451916Y-121192548D01*
X134437508Y-121200963D01*
X134422891Y-121211310D01*
X134393013Y-121237784D01*
X134377880Y-121252400D01*
X134362792Y-121265934D01*
X134347745Y-121278384D01*
X134332734Y-121289749D01*
X134317754Y-121300029D01*
X134302800Y-121309223D01*
X134287869Y-121317331D01*
X134272954Y-121324351D01*
X134258050Y-121330284D01*
X134243155Y-121335127D01*
X134228261Y-121338882D01*
X134213365Y-121341546D01*
X134198463Y-121343119D01*
X134183548Y-121343600D01*
X134168616Y-121342989D01*
X134153663Y-121341285D01*
X134138684Y-121338488D01*
X134123673Y-121334595D01*
X134108627Y-121329608D01*
X134093540Y-121323525D01*
X134078407Y-121316345D01*
X134063224Y-121308067D01*
X134047987Y-121298692D01*
X134032689Y-121288218D01*
X134017326Y-121276644D01*
X134001895Y-121263970D01*
X133986389Y-121250195D01*
X133970804Y-121235318D01*
X133955135Y-121219339D01*
X133939377Y-121202256D01*
X133923526Y-121184070D01*
X133907577Y-121164780D01*
X133307938Y-120821059D01*
X131865892Y-120090895D01*
X127569318Y-118004173D01*
X123247332Y-115970495D01*
X121773521Y-115306635D01*
X121129411Y-115055740D01*
X121121026Y-115056717D01*
X121112193Y-115059615D01*
X121102936Y-115064386D01*
X121093278Y-115070983D01*
X121083243Y-115079358D01*
X121072856Y-115089463D01*
X121062139Y-115101249D01*
X121051118Y-115114670D01*
X121039815Y-115129677D01*
X121028254Y-115146222D01*
X121004457Y-115183737D01*
X120979917Y-115226831D01*
X120954824Y-115275121D01*
X120929370Y-115328225D01*
X120903745Y-115385760D01*
X120878141Y-115447343D01*
X120852748Y-115512591D01*
X120827757Y-115581120D01*
X120803360Y-115652549D01*
X120779746Y-115726494D01*
X120757107Y-115802573D01*
X120738831Y-115859576D01*
X120717682Y-115913717D01*
X120693889Y-115965065D01*
X120667676Y-116013689D01*
X120639272Y-116059658D01*
X120608901Y-116103040D01*
X120576791Y-116143906D01*
X120543167Y-116182323D01*
X120508257Y-116218361D01*
X120472286Y-116252089D01*
X120435480Y-116283577D01*
X120398067Y-116312892D01*
X120322323Y-116365283D01*
X120246863Y-116409815D01*
X120173499Y-116447039D01*
X120104041Y-116477508D01*
X120040301Y-116501775D01*
X119984090Y-116520391D01*
X119901495Y-116542881D01*
X119870744Y-116549396D01*
X119870744Y-45891623D01*
X119930048Y-45927807D01*
G37*
X119930048Y-45927807D02*
X120092419Y-46036359D01*
X120204969Y-46117773D01*
X120334544Y-46217279D01*
X120478230Y-46334877D01*
X120633112Y-46470566D01*
X120796278Y-46624348D01*
X120964812Y-46796222D01*
X121050182Y-46888944D01*
X121135801Y-46986188D01*
X121221306Y-47087955D01*
X121306331Y-47194246D01*
X121390514Y-47305059D01*
X121473488Y-47420396D01*
X121554891Y-47540255D01*
X121634358Y-47664637D01*
X121711525Y-47793543D01*
X121786027Y-47926971D01*
X121857501Y-48064922D01*
X121925581Y-48207397D01*
X122173760Y-48761030D01*
X122394992Y-49284654D01*
X122591028Y-49790756D01*
X122763620Y-50291823D01*
X122914518Y-50800342D01*
X123045474Y-51328799D01*
X123158239Y-51889681D01*
X123254564Y-52495474D01*
X123336199Y-53158666D01*
X123404897Y-53891743D01*
X123462408Y-54707191D01*
X123510483Y-55617498D01*
X123550873Y-56635149D01*
X123585331Y-57772632D01*
X123643449Y-60457040D01*
X123690969Y-62878790D01*
X123747713Y-64712112D01*
X123786344Y-65438987D01*
X123835444Y-66055804D01*
X123897731Y-66574913D01*
X123975926Y-67008663D01*
X124072751Y-67369403D01*
X124190925Y-67669484D01*
X124333170Y-67921255D01*
X124502205Y-68137065D01*
X124700751Y-68329265D01*
X124931528Y-68510203D01*
X125500661Y-68887695D01*
X126209878Y-69340282D01*
X126493862Y-69517435D01*
X126735344Y-69661275D01*
X126937761Y-69771386D01*
X127104550Y-69847352D01*
X127175657Y-69872401D01*
X127239145Y-69888758D01*
X127295444Y-69896371D01*
X127344984Y-69895188D01*
X127388193Y-69885158D01*
X127425502Y-69866227D01*
X127457339Y-69838345D01*
X127484136Y-69801460D01*
X127506320Y-69755519D01*
X127524321Y-69700470D01*
X127538570Y-69636263D01*
X127549495Y-69562844D01*
X127563094Y-69388164D01*
X127568552Y-69176016D01*
X127568796Y-68637653D01*
X127571754Y-68182555D01*
X127578779Y-67998429D01*
X127592461Y-67840559D01*
X127602491Y-67770839D01*
X127615017Y-67706925D01*
X127630316Y-67648565D01*
X127648665Y-67595507D01*
X127670343Y-67547497D01*
X127695626Y-67504285D01*
X127724791Y-67465617D01*
X127758116Y-67431241D01*
X127795879Y-67400904D01*
X127838356Y-67374353D01*
X127885825Y-67351338D01*
X127938563Y-67331604D01*
X127996847Y-67314900D01*
X128060956Y-67300972D01*
X128131165Y-67289570D01*
X128207753Y-67280439D01*
X128381174Y-67267984D01*
X128583437Y-67261589D01*
X129083362Y-67258896D01*
X129349945Y-67259475D01*
X129583135Y-67263528D01*
X129785035Y-67274530D01*
X129874908Y-67283723D01*
X129957748Y-67295956D01*
X130033818Y-67311662D01*
X130103379Y-67331278D01*
X130166696Y-67355236D01*
X130224031Y-67383972D01*
X130275648Y-67417919D01*
X130321809Y-67457512D01*
X130362777Y-67503185D01*
X130398815Y-67555373D01*
X130430186Y-67614509D01*
X130457154Y-67681028D01*
X130479980Y-67755364D01*
X130498929Y-67837952D01*
X130514263Y-67929226D01*
X130526245Y-68029620D01*
X130535138Y-68139569D01*
X130541205Y-68259506D01*
X130545913Y-68531083D01*
X130542473Y-68847827D01*
X130519563Y-69630711D01*
X130497701Y-70416033D01*
X130496743Y-70738564D01*
X130506283Y-71021409D01*
X130529210Y-71269872D01*
X130546595Y-71382867D01*
X130568409Y-71489254D01*
X130595013Y-71589696D01*
X130626768Y-71684855D01*
X130664035Y-71775396D01*
X130707175Y-71861979D01*
X130756549Y-71945268D01*
X130812517Y-72025926D01*
X130875441Y-72104615D01*
X130945681Y-72181998D01*
X131023599Y-72258737D01*
X131109555Y-72335496D01*
X131307025Y-72491723D01*
X131540980Y-72655979D01*
X131814306Y-72833567D01*
X132490620Y-73249944D01*
X133301449Y-73740338D01*
X133994149Y-74153434D01*
X134495204Y-74445789D01*
X134650891Y-74533113D01*
X134731099Y-74573959D01*
X134740892Y-74575908D01*
X134750562Y-74573914D01*
X134760095Y-74568071D01*
X134769479Y-74558470D01*
X134778702Y-74545204D01*
X134787752Y-74528364D01*
X134796617Y-74508043D01*
X134805284Y-74484332D01*
X134821976Y-74427111D01*
X134837730Y-74357436D01*
X134852449Y-74276045D01*
X134866034Y-74183672D01*
X134878387Y-74081056D01*
X134889412Y-73968932D01*
X134899009Y-73848036D01*
X134907080Y-73719105D01*
X134913529Y-73582875D01*
X134918256Y-73440083D01*
X134921165Y-73291464D01*
X134922156Y-73137756D01*
X134925123Y-72638413D01*
X134932169Y-72436386D01*
X134945891Y-72263167D01*
X134955951Y-72186669D01*
X134968514Y-72116541D01*
X134983859Y-72052507D01*
X135002263Y-71994291D01*
X135024005Y-71941614D01*
X135049363Y-71894200D01*
X135078615Y-71851773D01*
X135112039Y-71814054D01*
X135149914Y-71780768D01*
X135192518Y-71751637D01*
X135240128Y-71726383D01*
X135293022Y-71704731D01*
X135351480Y-71686403D01*
X135415779Y-71671121D01*
X135486198Y-71658610D01*
X135563013Y-71648592D01*
X135736950Y-71634926D01*
X135939814Y-71627909D01*
X136441226Y-71624954D01*
X136708601Y-71625565D01*
X136942472Y-71629838D01*
X137144940Y-71641436D01*
X137235054Y-71651127D01*
X137318104Y-71664022D01*
X137394353Y-71680581D01*
X137464064Y-71701259D01*
X137527499Y-71726516D01*
X137584920Y-71756809D01*
X137636590Y-71792596D01*
X137682772Y-71834335D01*
X137723727Y-71882483D01*
X137759719Y-71937499D01*
X137791009Y-71999840D01*
X137817861Y-72069965D01*
X137840537Y-72148330D01*
X137859299Y-72235394D01*
X137874410Y-72331614D01*
X137886132Y-72437449D01*
X137894728Y-72553356D01*
X137900460Y-72679794D01*
X137904383Y-72966090D01*
X137900000Y-73300000D01*
X137874718Y-74125314D01*
X137848495Y-74951827D01*
X137841875Y-75288582D01*
X137841442Y-75580417D01*
X137848588Y-75831894D01*
X137864706Y-76047572D01*
X137891190Y-76232013D01*
X137929433Y-76389778D01*
X137980829Y-76525427D01*
X138011894Y-76586384D01*
X138046771Y-76643522D01*
X138128652Y-76748623D01*
X138227865Y-76845291D01*
X138345805Y-76938086D01*
X138483864Y-77031571D01*
X138825914Y-77238849D01*
X139310072Y-77529008D01*
X139861900Y-77865770D01*
X140413447Y-78207360D01*
X140896764Y-78512002D01*
X141359639Y-78805240D01*
X141546047Y-78917040D01*
X141705286Y-79003503D01*
X141775386Y-79036734D01*
X141839496Y-79063034D01*
X141897883Y-79082203D01*
X141950815Y-79094041D01*
X141998558Y-79098350D01*
X142041381Y-79094930D01*
X142079551Y-79083582D01*
X142113335Y-79064107D01*
X142142999Y-79036306D01*
X142168813Y-78999979D01*
X142191043Y-78954927D01*
X142209955Y-78900951D01*
X142225819Y-78837853D01*
X142238900Y-78765431D01*
X142249467Y-78683489D01*
X142257787Y-78591825D01*
X142268753Y-78378539D01*
X142273938Y-78123979D01*
X142275520Y-77484666D01*
X142278494Y-76915795D01*
X142285557Y-76685638D01*
X142299310Y-76488300D01*
X142309393Y-76401149D01*
X142321985Y-76321257D01*
X142337365Y-76248307D01*
X142355812Y-76181985D01*
X142377604Y-76121974D01*
X142403020Y-76067958D01*
X142432340Y-76019623D01*
X142465841Y-75976653D01*
X142503803Y-75938731D01*
X142546505Y-75905544D01*
X142594224Y-75876774D01*
X142647241Y-75852107D01*
X142705833Y-75831227D01*
X142770280Y-75813817D01*
X142840861Y-75799564D01*
X142917853Y-75788151D01*
X143092190Y-75772583D01*
X143295522Y-75764588D01*
X143798088Y-75761222D01*
X144066074Y-75761855D01*
X144300461Y-75766282D01*
X144503332Y-75778298D01*
X144593601Y-75788338D01*
X144676773Y-75801698D01*
X144753109Y-75818853D01*
X144822870Y-75840277D01*
X144886315Y-75866444D01*
X144943706Y-75897829D01*
X144995304Y-75934905D01*
X145041368Y-75978148D01*
X145082160Y-76028032D01*
X145117940Y-76085030D01*
X145148969Y-76149618D01*
X145175508Y-76222269D01*
X145197817Y-76303458D01*
X145216156Y-76393660D01*
X145230787Y-76493348D01*
X145241970Y-76602997D01*
X145249965Y-76723081D01*
X145255034Y-76854074D01*
X145257434Y-77150687D01*
X145251255Y-77496631D01*
X145221500Y-78351686D01*
X145205791Y-78808669D01*
X145202737Y-79214706D01*
X145209184Y-79401672D01*
X145222668Y-79579564D01*
X145244480Y-79749603D01*
X145275912Y-79913011D01*
X145318255Y-80071008D01*
X145372801Y-80224815D01*
X145440840Y-80375653D01*
X145523664Y-80524744D01*
X145622565Y-80673307D01*
X145738832Y-80822564D01*
X145873759Y-80973737D01*
X146028635Y-81128045D01*
X146204753Y-81286710D01*
X146403403Y-81450954D01*
X146625877Y-81621995D01*
X146873466Y-81801057D01*
X147147461Y-81989360D01*
X147449153Y-82188124D01*
X148140796Y-82621922D01*
X148958725Y-83112218D01*
X149913269Y-83668780D01*
X152273523Y-85019774D01*
X155097073Y-86648553D01*
X157310178Y-87980746D01*
X158210350Y-88555000D01*
X158984954Y-89078361D01*
X159643003Y-89558579D01*
X160193514Y-90003406D01*
X160645498Y-90420594D01*
X161007972Y-90817892D01*
X161289949Y-91203053D01*
X161500444Y-91583827D01*
X161648470Y-91967965D01*
X161743043Y-92363219D01*
X161793176Y-92777340D01*
X161807884Y-93218079D01*
X161809464Y-93297654D01*
X161813235Y-93372450D01*
X161821541Y-93506806D01*
X161823172Y-93565916D01*
X161821185Y-93619349D01*
X161814128Y-93666881D01*
X161808244Y-93688363D01*
X161800548Y-93708285D01*
X161790859Y-93726620D01*
X161778994Y-93743339D01*
X161764773Y-93758414D01*
X161748014Y-93771817D01*
X161728535Y-93783520D01*
X161706154Y-93793495D01*
X161680691Y-93801714D01*
X161651963Y-93808148D01*
X161619790Y-93812770D01*
X161583989Y-93815552D01*
X161500778Y-93815483D01*
X161400880Y-93807715D01*
X161282842Y-93792025D01*
X161145211Y-93768188D01*
X160986535Y-93735978D01*
X160805362Y-93695173D01*
X160600241Y-93645547D01*
X160369717Y-93586875D01*
X160112340Y-93518934D01*
X159511216Y-93354343D01*
X158785250Y-93149980D01*
X157922824Y-92904046D01*
X155742122Y-92280286D01*
X151621663Y-91110996D01*
X149762620Y-90595047D01*
X149685135Y-90576548D01*
X149559611Y-90543220D01*
X149190666Y-90439588D01*
X148708217Y-90299178D01*
X148164696Y-90137018D01*
X147620336Y-89974737D01*
X147135605Y-89833993D01*
X146763283Y-89729864D01*
X146556151Y-89677432D01*
X146477750Y-89658976D01*
X146353727Y-89626372D01*
X145994228Y-89525971D01*
X145528475Y-89390744D01*
X145007289Y-89235201D01*
X144472330Y-89075831D01*
X143969071Y-88930193D01*
X143554060Y-88814385D01*
X143283850Y-88744510D01*
X142865373Y-88631679D01*
X142046673Y-88398924D01*
X140945955Y-88080206D01*
X139681424Y-87709483D01*
X131886519Y-85459873D01*
X131849162Y-85453752D01*
X131808282Y-85445576D01*
X131716538Y-85423787D01*
X131612459Y-85395958D01*
X131497219Y-85363542D01*
X131237946Y-85290759D01*
X131096260Y-85253296D01*
X130948103Y-85217056D01*
X130678440Y-85135022D01*
X130354530Y-85058992D01*
X129983752Y-84989143D01*
X129573482Y-84925649D01*
X128663987Y-84818428D01*
X127685072Y-84738728D01*
X126695765Y-84687948D01*
X125755094Y-84667488D01*
X124922087Y-84678749D01*
X124564404Y-84696712D01*
X124255772Y-84723129D01*
X124205301Y-84723433D01*
X124157960Y-84725556D01*
X124135425Y-84727868D01*
X124113627Y-84731318D01*
X124092550Y-84736133D01*
X124072178Y-84742541D01*
X124052497Y-84750768D01*
X124033490Y-84761042D01*
X124015142Y-84773591D01*
X123997438Y-84788642D01*
X123980362Y-84806423D01*
X123963899Y-84827161D01*
X123948033Y-84851084D01*
X123932750Y-84878419D01*
X123918032Y-84909393D01*
X123903866Y-84944235D01*
X123890235Y-84983171D01*
X123877124Y-85026429D01*
X123864518Y-85074237D01*
X123852401Y-85126821D01*
X123840758Y-85184411D01*
X123829573Y-85247232D01*
X123818831Y-85315512D01*
X123808516Y-85389479D01*
X123789107Y-85555384D01*
X123771221Y-85746766D01*
X123754736Y-85965446D01*
X123739527Y-86213242D01*
X123725471Y-86491974D01*
X123712445Y-86803463D01*
X123700324Y-87149528D01*
X123688985Y-87531989D01*
X123678305Y-87952666D01*
X123668159Y-88413379D01*
X123658425Y-88915947D01*
X123639695Y-90053928D01*
X123621125Y-91381168D01*
X123580511Y-94661659D01*
X123522247Y-98594338D01*
X123452131Y-101955245D01*
X123378986Y-104387609D01*
X123311635Y-105534659D01*
X123286749Y-105700173D01*
X123278109Y-105777065D01*
X123273333Y-105851299D01*
X123273418Y-105923814D01*
X123279360Y-105995550D01*
X123292156Y-106067445D01*
X123301436Y-106103745D01*
X123312803Y-106140438D01*
X123326382Y-106177640D01*
X123342298Y-106215469D01*
X123360674Y-106254042D01*
X123381637Y-106293477D01*
X123431817Y-106375401D01*
X123493835Y-106462180D01*
X123568687Y-106554753D01*
X123657371Y-106654060D01*
X123760883Y-106761039D01*
X123880219Y-106876630D01*
X124016377Y-107001772D01*
X124170353Y-107137404D01*
X124343144Y-107284465D01*
X124535746Y-107443894D01*
X124749157Y-107616630D01*
X124984373Y-107803613D01*
X125242391Y-108005782D01*
X125524207Y-108224075D01*
X126163222Y-108712793D01*
X126909391Y-109277280D01*
X128755090Y-110663612D01*
X130601480Y-112045396D01*
X131991498Y-113066754D01*
X132536597Y-113452527D01*
X132993078Y-113760497D01*
X133369433Y-113994765D01*
X133674154Y-114159433D01*
X133915732Y-114258601D01*
X134015496Y-114284904D01*
X134102659Y-114296370D01*
X134178282Y-114293511D01*
X134243427Y-114276841D01*
X134299155Y-114246872D01*
X134346527Y-114204116D01*
X134386606Y-114149087D01*
X134420451Y-114082296D01*
X134473692Y-113915481D01*
X134552086Y-113463272D01*
X134586088Y-113247507D01*
X134621473Y-113054148D01*
X134658129Y-112882933D01*
X134695946Y-112733601D01*
X134734814Y-112605888D01*
X134774622Y-112499534D01*
X134815261Y-112414277D01*
X134856619Y-112349854D01*
X134898586Y-112306004D01*
X134941053Y-112282465D01*
X134962439Y-112278230D01*
X134983909Y-112278975D01*
X135027042Y-112295272D01*
X135070344Y-112331094D01*
X135113703Y-112386179D01*
X135157010Y-112460266D01*
X135200154Y-112553093D01*
X135243024Y-112664397D01*
X135285510Y-112793917D01*
X135327503Y-112941390D01*
X135368891Y-113106556D01*
X135449412Y-113488916D01*
X135526190Y-113938901D01*
X135598344Y-114454417D01*
X135664991Y-115033367D01*
X135725246Y-115673658D01*
X135778229Y-116373193D01*
X135803474Y-116931838D01*
X135807410Y-117513465D01*
X135792109Y-118106813D01*
X135759644Y-118700620D01*
X135712090Y-119283625D01*
X135651519Y-119844565D01*
X135580005Y-120372178D01*
X135499621Y-120855203D01*
X135412439Y-121282379D01*
X135320534Y-121642442D01*
X135225979Y-121924132D01*
X135130847Y-122116186D01*
X135083712Y-122175080D01*
X135037210Y-122207343D01*
X134991601Y-122211565D01*
X134947144Y-122186340D01*
X134904097Y-122130260D01*
X134862720Y-122041917D01*
X134786012Y-121762811D01*
X134765680Y-121669258D01*
X134744928Y-121583997D01*
X134723726Y-121506986D01*
X134702043Y-121438185D01*
X134679847Y-121377551D01*
X134657108Y-121325043D01*
X134633795Y-121280620D01*
X134609877Y-121244241D01*
X134597681Y-121229054D01*
X134585322Y-121215863D01*
X134572796Y-121204661D01*
X134560100Y-121195445D01*
X134547228Y-121188209D01*
X134534179Y-121182946D01*
X134520947Y-121179654D01*
X134507529Y-121178325D01*
X134493920Y-121178955D01*
X134480118Y-121181540D01*
X134466118Y-121186072D01*
X134451916Y-121192548D01*
X134437508Y-121200963D01*
X134422891Y-121211310D01*
X134393013Y-121237784D01*
X134377880Y-121252400D01*
X134362792Y-121265934D01*
X134347745Y-121278384D01*
X134332734Y-121289749D01*
X134317754Y-121300029D01*
X134302800Y-121309223D01*
X134287869Y-121317331D01*
X134272954Y-121324351D01*
X134258050Y-121330284D01*
X134243155Y-121335127D01*
X134228261Y-121338882D01*
X134213365Y-121341546D01*
X134198463Y-121343119D01*
X134183548Y-121343600D01*
X134168616Y-121342989D01*
X134153663Y-121341285D01*
X134138684Y-121338488D01*
X134123673Y-121334595D01*
X134108627Y-121329608D01*
X134093540Y-121323525D01*
X134078407Y-121316345D01*
X134063224Y-121308067D01*
X134047987Y-121298692D01*
X134032689Y-121288218D01*
X134017326Y-121276644D01*
X134001895Y-121263970D01*
X133986389Y-121250195D01*
X133970804Y-121235318D01*
X133955135Y-121219339D01*
X133939377Y-121202256D01*
X133923526Y-121184070D01*
X133907577Y-121164780D01*
X133307938Y-120821059D01*
X131865892Y-120090895D01*
X127569318Y-118004173D01*
X123247332Y-115970495D01*
X121773521Y-115306635D01*
X121129411Y-115055740D01*
X121121026Y-115056717D01*
X121112193Y-115059615D01*
X121102936Y-115064386D01*
X121093278Y-115070983D01*
X121083243Y-115079358D01*
X121072856Y-115089463D01*
X121062139Y-115101249D01*
X121051118Y-115114670D01*
X121039815Y-115129677D01*
X121028254Y-115146222D01*
X121004457Y-115183737D01*
X120979917Y-115226831D01*
X120954824Y-115275121D01*
X120929370Y-115328225D01*
X120903745Y-115385760D01*
X120878141Y-115447343D01*
X120852748Y-115512591D01*
X120827757Y-115581120D01*
X120803360Y-115652549D01*
X120779746Y-115726494D01*
X120757107Y-115802573D01*
X120738831Y-115859576D01*
X120717682Y-115913717D01*
X120693889Y-115965065D01*
X120667676Y-116013689D01*
X120639272Y-116059658D01*
X120608901Y-116103040D01*
X120576791Y-116143906D01*
X120543167Y-116182323D01*
X120508257Y-116218361D01*
X120472286Y-116252089D01*
X120435480Y-116283577D01*
X120398067Y-116312892D01*
X120322323Y-116365283D01*
X120246863Y-116409815D01*
X120173499Y-116447039D01*
X120104041Y-116477508D01*
X120040301Y-116501775D01*
X119984090Y-116520391D01*
X119901495Y-116542881D01*
X119870744Y-116549396D01*
X119870744Y-45891623D01*
X119930048Y-45927807D01*
%LPC*%
D11*
X117374999Y-71224999D03*
D12*
X117374999Y-73764999D03*
X119914999Y-71224999D03*
X119914999Y-73764999D03*
X122454999Y-71224999D03*
X122454999Y-73764999D03*
M02*
