G04 #@! TF.GenerationSoftware,KiCad,Pcbnew,(6.99.0-2452-gdb4f2d9dd8)*
G04 #@! TF.CreationDate,2022-07-20T23:01:19+09:00*
G04 #@! TF.ProjectId,an225,616e3232-352e-46b6-9963-61645f706362,rev?*
G04 #@! TF.SameCoordinates,Original*
G04 #@! TF.FileFunction,Legend,Bot*
G04 #@! TF.FilePolarity,Positive*
%FSLAX46Y46*%
G04 Gerber Fmt 4.6, Leading zero omitted, Abs format (unit mm)*
G04 Created by KiCad (PCBNEW (6.99.0-2452-gdb4f2d9dd8)) date 2022-07-20 23:01:19*
%MOMM*%
%LPD*%
G01*
G04 APERTURE LIST*
%ADD10C,0.150000*%
%ADD11C,0.120000*%
%ADD12R,1.700000X1.700000*%
%ADD13O,1.700000X1.700000*%
G04 APERTURE END LIST*
D10*
G36*
X119964600Y-116488121D02*
G01*
X119933849Y-116481606D01*
X119851254Y-116459116D01*
X119795043Y-116440500D01*
X119731303Y-116416233D01*
X119661845Y-116385764D01*
X119588481Y-116348540D01*
X119513021Y-116304008D01*
X119437277Y-116251617D01*
X119399864Y-116222302D01*
X119363058Y-116190814D01*
X119327087Y-116157086D01*
X119292177Y-116121048D01*
X119258553Y-116082631D01*
X119226443Y-116041765D01*
X119196072Y-115998383D01*
X119167668Y-115952414D01*
X119141455Y-115903790D01*
X119117662Y-115852442D01*
X119096513Y-115798301D01*
X119078237Y-115741298D01*
X119055598Y-115665219D01*
X119031984Y-115591274D01*
X119007587Y-115519845D01*
X118982596Y-115451316D01*
X118957203Y-115386068D01*
X118931599Y-115324485D01*
X118905974Y-115266950D01*
X118880520Y-115213846D01*
X118855427Y-115165556D01*
X118830887Y-115122462D01*
X118807090Y-115084947D01*
X118795529Y-115068402D01*
X118784226Y-115053395D01*
X118773205Y-115039974D01*
X118762488Y-115028188D01*
X118752101Y-115018083D01*
X118742066Y-115009708D01*
X118732408Y-115003111D01*
X118723151Y-114998340D01*
X118714318Y-114995442D01*
X118705933Y-114994465D01*
X118061823Y-115245360D01*
X116588012Y-115909220D01*
X112266026Y-117942898D01*
X107969452Y-120029620D01*
X106527406Y-120759784D01*
X105927767Y-121103505D01*
X105911818Y-121122795D01*
X105895967Y-121140981D01*
X105880209Y-121158064D01*
X105864540Y-121174043D01*
X105848955Y-121188920D01*
X105833449Y-121202695D01*
X105818018Y-121215369D01*
X105802655Y-121226943D01*
X105787357Y-121237417D01*
X105772120Y-121246792D01*
X105756937Y-121255070D01*
X105741804Y-121262250D01*
X105726717Y-121268333D01*
X105711671Y-121273320D01*
X105696660Y-121277213D01*
X105681681Y-121280010D01*
X105666728Y-121281714D01*
X105651796Y-121282325D01*
X105636881Y-121281844D01*
X105621979Y-121280271D01*
X105607083Y-121277607D01*
X105592189Y-121273852D01*
X105577294Y-121269009D01*
X105562390Y-121263076D01*
X105547475Y-121256056D01*
X105532544Y-121247948D01*
X105517590Y-121238754D01*
X105502610Y-121228474D01*
X105487599Y-121217109D01*
X105472552Y-121204659D01*
X105457464Y-121191125D01*
X105442331Y-121176509D01*
X105412453Y-121150035D01*
X105397836Y-121139688D01*
X105383428Y-121131273D01*
X105369226Y-121124797D01*
X105355226Y-121120265D01*
X105341424Y-121117680D01*
X105327815Y-121117050D01*
X105314397Y-121118379D01*
X105301165Y-121121671D01*
X105288116Y-121126934D01*
X105275244Y-121134170D01*
X105262548Y-121143386D01*
X105250022Y-121154588D01*
X105237663Y-121167779D01*
X105225467Y-121182966D01*
X105201549Y-121219345D01*
X105178236Y-121263768D01*
X105155497Y-121316276D01*
X105133301Y-121376910D01*
X105111618Y-121445711D01*
X105090416Y-121522722D01*
X105069664Y-121607983D01*
X105049332Y-121701536D01*
X104972624Y-121980642D01*
X104931247Y-122068985D01*
X104888200Y-122125065D01*
X104843743Y-122150290D01*
X104798134Y-122146068D01*
X104751632Y-122113805D01*
X104704497Y-122054911D01*
X104609365Y-121862857D01*
X104514810Y-121581167D01*
X104422905Y-121221104D01*
X104335723Y-120793928D01*
X104255339Y-120310903D01*
X104183825Y-119783290D01*
X104123254Y-119222350D01*
X104075700Y-118639345D01*
X104043235Y-118045538D01*
X104027934Y-117452190D01*
X104031870Y-116870563D01*
X104057115Y-116311918D01*
X104110098Y-115612383D01*
X104170353Y-114972092D01*
X104237000Y-114393142D01*
X104309154Y-113877626D01*
X104385932Y-113427641D01*
X104466453Y-113045281D01*
X104507841Y-112880115D01*
X104549834Y-112732642D01*
X104592320Y-112603122D01*
X104635190Y-112491818D01*
X104678334Y-112398991D01*
X104721641Y-112324904D01*
X104765000Y-112269819D01*
X104808302Y-112233997D01*
X104851435Y-112217700D01*
X104872905Y-112216955D01*
X104894291Y-112221190D01*
X104936758Y-112244729D01*
X104978725Y-112288579D01*
X105020083Y-112353002D01*
X105060722Y-112438259D01*
X105100530Y-112544613D01*
X105139398Y-112672326D01*
X105177215Y-112821658D01*
X105213871Y-112992873D01*
X105249256Y-113186232D01*
X105283258Y-113401997D01*
X105361652Y-113854206D01*
X105414893Y-114021021D01*
X105448738Y-114087812D01*
X105488817Y-114142841D01*
X105536189Y-114185597D01*
X105591917Y-114215566D01*
X105657062Y-114232236D01*
X105732685Y-114235095D01*
X105819848Y-114223629D01*
X105919612Y-114197326D01*
X106161190Y-114098158D01*
X106465911Y-113933490D01*
X106842266Y-113699222D01*
X107298747Y-113391252D01*
X107843846Y-113005479D01*
X109233864Y-111984121D01*
X111080254Y-110602337D01*
X112925953Y-109216005D01*
X113672122Y-108651518D01*
X114311137Y-108162800D01*
X114592953Y-107944507D01*
X114850971Y-107742338D01*
X115086187Y-107555355D01*
X115299598Y-107382619D01*
X115492200Y-107223190D01*
X115664991Y-107076129D01*
X115818967Y-106940497D01*
X115955125Y-106815355D01*
X116074461Y-106699764D01*
X116177973Y-106592785D01*
X116266657Y-106493478D01*
X116341509Y-106400905D01*
X116403527Y-106314126D01*
X116453707Y-106232202D01*
X116474670Y-106192767D01*
X116493046Y-106154194D01*
X116508962Y-106116365D01*
X116522541Y-106079163D01*
X116533908Y-106042470D01*
X116543188Y-106006170D01*
X116555984Y-105934275D01*
X116561926Y-105862539D01*
X116562011Y-105790024D01*
X116557235Y-105715790D01*
X116548595Y-105638898D01*
X116523709Y-105473384D01*
X116456358Y-104326334D01*
X116383213Y-101893970D01*
X116313097Y-98533063D01*
X116254833Y-94600384D01*
X116214219Y-91319893D01*
X116195649Y-89992653D01*
X116176919Y-88854672D01*
X116167185Y-88352104D01*
X116157039Y-87891391D01*
X116146359Y-87470714D01*
X116135020Y-87088253D01*
X116122899Y-86742188D01*
X116109873Y-86430699D01*
X116095817Y-86151967D01*
X116080608Y-85904171D01*
X116064123Y-85685491D01*
X116046237Y-85494109D01*
X116026828Y-85328204D01*
X116016513Y-85254237D01*
X116005771Y-85185957D01*
X115994586Y-85123136D01*
X115982943Y-85065546D01*
X115970826Y-85012962D01*
X115958220Y-84965154D01*
X115945109Y-84921896D01*
X115931478Y-84882960D01*
X115917312Y-84848118D01*
X115902594Y-84817144D01*
X115887311Y-84789809D01*
X115871445Y-84765886D01*
X115854982Y-84745148D01*
X115837906Y-84727367D01*
X115820202Y-84712316D01*
X115801854Y-84699767D01*
X115782847Y-84689493D01*
X115763166Y-84681266D01*
X115742794Y-84674858D01*
X115721717Y-84670043D01*
X115699919Y-84666593D01*
X115677384Y-84664281D01*
X115630043Y-84662158D01*
X115579572Y-84661854D01*
X115270940Y-84635437D01*
X114913257Y-84617474D01*
X114080250Y-84606213D01*
X113139579Y-84626673D01*
X112150272Y-84677453D01*
X111171357Y-84757153D01*
X110261862Y-84864374D01*
X109851592Y-84927868D01*
X109480814Y-84997717D01*
X109156904Y-85073747D01*
X108887241Y-85155781D01*
X108739084Y-85192021D01*
X108597398Y-85229484D01*
X108338125Y-85302267D01*
X108222885Y-85334683D01*
X108118806Y-85362512D01*
X108027062Y-85384301D01*
X107986182Y-85392477D01*
X107948825Y-85398598D01*
X100153920Y-87648208D01*
X98889389Y-88018931D01*
X97788671Y-88337649D01*
X96969971Y-88570404D01*
X96551494Y-88683235D01*
X96281284Y-88753110D01*
X95866273Y-88868918D01*
X95363014Y-89014556D01*
X94828055Y-89173926D01*
X94306869Y-89329469D01*
X93841116Y-89464696D01*
X93481617Y-89565097D01*
X93357594Y-89597701D01*
X93279193Y-89616157D01*
X93072061Y-89668589D01*
X92699739Y-89772718D01*
X92215008Y-89913462D01*
X91670648Y-90075743D01*
X91127127Y-90237903D01*
X90644678Y-90378313D01*
X90275733Y-90481945D01*
X90150209Y-90515273D01*
X90072724Y-90533772D01*
X88213681Y-91049721D01*
X84093222Y-92219011D01*
X81912520Y-92842771D01*
X81050094Y-93088705D01*
X80324128Y-93293068D01*
X79723004Y-93457659D01*
X79465627Y-93525600D01*
X79235103Y-93584272D01*
X79029982Y-93633898D01*
X78848809Y-93674703D01*
X78690133Y-93706913D01*
X78552502Y-93730750D01*
X78434464Y-93746440D01*
X78334566Y-93754208D01*
X78251355Y-93754277D01*
X78215554Y-93751495D01*
X78183381Y-93746873D01*
X78154653Y-93740439D01*
X78129190Y-93732220D01*
X78106809Y-93722245D01*
X78087330Y-93710542D01*
X78070571Y-93697139D01*
X78056350Y-93682064D01*
X78044485Y-93665345D01*
X78034796Y-93647010D01*
X78027100Y-93627088D01*
X78021216Y-93605606D01*
X78014159Y-93558074D01*
X78012172Y-93504641D01*
X78013803Y-93445531D01*
X78022109Y-93311175D01*
X78025880Y-93236379D01*
X78027460Y-93156804D01*
X78042168Y-92716065D01*
X78092301Y-92301944D01*
X78186874Y-91906690D01*
X78334900Y-91522552D01*
X78545395Y-91141778D01*
X78827372Y-90756617D01*
X79189846Y-90359319D01*
X79641830Y-89942131D01*
X80192341Y-89497304D01*
X80850390Y-89017086D01*
X81624994Y-88493725D01*
X82525166Y-87919471D01*
X84738271Y-86587278D01*
X87561821Y-84958499D01*
X89922075Y-83607505D01*
X90876619Y-83050943D01*
X91694548Y-82560647D01*
X92386191Y-82126849D01*
X92687883Y-81928085D01*
X92961878Y-81739782D01*
X93209467Y-81560720D01*
X93431941Y-81389679D01*
X93630591Y-81225435D01*
X93806709Y-81066770D01*
X93961585Y-80912462D01*
X94096512Y-80761289D01*
X94212779Y-80612032D01*
X94311680Y-80463469D01*
X94394504Y-80314378D01*
X94462543Y-80163540D01*
X94517089Y-80009733D01*
X94559432Y-79851736D01*
X94590864Y-79688328D01*
X94612676Y-79518289D01*
X94626160Y-79340397D01*
X94632607Y-79153431D01*
X94629553Y-78747394D01*
X94613844Y-78290411D01*
X94584089Y-77435356D01*
X94577910Y-77089412D01*
X94580310Y-76792799D01*
X94585379Y-76661806D01*
X94593374Y-76541722D01*
X94604557Y-76432073D01*
X94619188Y-76332385D01*
X94637527Y-76242183D01*
X94659836Y-76160994D01*
X94686375Y-76088343D01*
X94717404Y-76023755D01*
X94753184Y-75966757D01*
X94793976Y-75916873D01*
X94840040Y-75873630D01*
X94891638Y-75836554D01*
X94949029Y-75805169D01*
X95012474Y-75779002D01*
X95082235Y-75757578D01*
X95158571Y-75740423D01*
X95241743Y-75727063D01*
X95332012Y-75717023D01*
X95534883Y-75705007D01*
X95769270Y-75700580D01*
X96037256Y-75699947D01*
X96539822Y-75703313D01*
X96743154Y-75711308D01*
X96917491Y-75726876D01*
X96994483Y-75738289D01*
X97065064Y-75752542D01*
X97129511Y-75769952D01*
X97188103Y-75790832D01*
X97241120Y-75815499D01*
X97288839Y-75844269D01*
X97331541Y-75877456D01*
X97369503Y-75915378D01*
X97403004Y-75958348D01*
X97432324Y-76006683D01*
X97457740Y-76060699D01*
X97479532Y-76120710D01*
X97497979Y-76187032D01*
X97513359Y-76259982D01*
X97525951Y-76339874D01*
X97536034Y-76427025D01*
X97549787Y-76624363D01*
X97556850Y-76854520D01*
X97559824Y-77423391D01*
X97561406Y-78062704D01*
X97566591Y-78317264D01*
X97577557Y-78530550D01*
X97585877Y-78622214D01*
X97596444Y-78704156D01*
X97609525Y-78776578D01*
X97625389Y-78839676D01*
X97644301Y-78893652D01*
X97666531Y-78938704D01*
X97692345Y-78975031D01*
X97722009Y-79002832D01*
X97755793Y-79022307D01*
X97793963Y-79033655D01*
X97836786Y-79037075D01*
X97884529Y-79032766D01*
X97937461Y-79020928D01*
X97995848Y-79001759D01*
X98059958Y-78975459D01*
X98130058Y-78942228D01*
X98289297Y-78855765D01*
X98475705Y-78743965D01*
X98938580Y-78450727D01*
X99421897Y-78146085D01*
X99973444Y-77804495D01*
X100525272Y-77467733D01*
X101009430Y-77177574D01*
X101351480Y-76970296D01*
X101489539Y-76876811D01*
X101607479Y-76784016D01*
X101706692Y-76687348D01*
X101788573Y-76582247D01*
X101823450Y-76525109D01*
X101854515Y-76464152D01*
X101905911Y-76328503D01*
X101944154Y-76170738D01*
X101970638Y-75986297D01*
X101986756Y-75770619D01*
X101993902Y-75519142D01*
X101993469Y-75227307D01*
X101986849Y-74890552D01*
X101960626Y-74064039D01*
X101935344Y-73238725D01*
X101930961Y-72904815D01*
X101934884Y-72618519D01*
X101940616Y-72492081D01*
X101949212Y-72376174D01*
X101960934Y-72270339D01*
X101976045Y-72174119D01*
X101994807Y-72087055D01*
X102017483Y-72008690D01*
X102044335Y-71938565D01*
X102075625Y-71876224D01*
X102111617Y-71821208D01*
X102152572Y-71773060D01*
X102198754Y-71731321D01*
X102250424Y-71695534D01*
X102307845Y-71665241D01*
X102371280Y-71639984D01*
X102440991Y-71619306D01*
X102517240Y-71602747D01*
X102600290Y-71589852D01*
X102690404Y-71580161D01*
X102892872Y-71568563D01*
X103126743Y-71564290D01*
X103394118Y-71563679D01*
X103895530Y-71566634D01*
X104098394Y-71573651D01*
X104272331Y-71587317D01*
X104349146Y-71597335D01*
X104419565Y-71609846D01*
X104483864Y-71625128D01*
X104542322Y-71643456D01*
X104595216Y-71665108D01*
X104642826Y-71690362D01*
X104685430Y-71719493D01*
X104723305Y-71752779D01*
X104756729Y-71790498D01*
X104785981Y-71832925D01*
X104811339Y-71880339D01*
X104833081Y-71933016D01*
X104851485Y-71991232D01*
X104866830Y-72055266D01*
X104879393Y-72125394D01*
X104889453Y-72201892D01*
X104903175Y-72375111D01*
X104910221Y-72577138D01*
X104913188Y-73076481D01*
X104914179Y-73230189D01*
X104917088Y-73378808D01*
X104921815Y-73521600D01*
X104928264Y-73657830D01*
X104936335Y-73786761D01*
X104945932Y-73907657D01*
X104956957Y-74019781D01*
X104969310Y-74122397D01*
X104982895Y-74214770D01*
X104997614Y-74296161D01*
X105013368Y-74365836D01*
X105030060Y-74423057D01*
X105038727Y-74446768D01*
X105047592Y-74467089D01*
X105056642Y-74483929D01*
X105065865Y-74497195D01*
X105075249Y-74506796D01*
X105084782Y-74512639D01*
X105094452Y-74514633D01*
X105104245Y-74512684D01*
X105184453Y-74471838D01*
X105340140Y-74384514D01*
X105841195Y-74092159D01*
X106533895Y-73679063D01*
X107344724Y-73188669D01*
X108021038Y-72772292D01*
X108294364Y-72594704D01*
X108528319Y-72430448D01*
X108725789Y-72274221D01*
X108811745Y-72197462D01*
X108889663Y-72120723D01*
X108959903Y-72043340D01*
X109022827Y-71964651D01*
X109078795Y-71883993D01*
X109128169Y-71800704D01*
X109171309Y-71714121D01*
X109208576Y-71623580D01*
X109240331Y-71528421D01*
X109266935Y-71427979D01*
X109288749Y-71321592D01*
X109306134Y-71208597D01*
X109329061Y-70960134D01*
X109338601Y-70677289D01*
X109337643Y-70354758D01*
X109315781Y-69569436D01*
X109292871Y-68786552D01*
X109289431Y-68469808D01*
X109294139Y-68198231D01*
X109300206Y-68078294D01*
X109309099Y-67968345D01*
X109321081Y-67867951D01*
X109336415Y-67776677D01*
X109355364Y-67694089D01*
X109378190Y-67619753D01*
X109405158Y-67553234D01*
X109436529Y-67494098D01*
X109472567Y-67441910D01*
X109513535Y-67396237D01*
X109559696Y-67356644D01*
X109611313Y-67322697D01*
X109668648Y-67293961D01*
X109731965Y-67270003D01*
X109801526Y-67250387D01*
X109877596Y-67234681D01*
X109960436Y-67222448D01*
X110050309Y-67213255D01*
X110252209Y-67202253D01*
X110485399Y-67198200D01*
X110751982Y-67197621D01*
X111251907Y-67200314D01*
X111454170Y-67206709D01*
X111627591Y-67219164D01*
X111704179Y-67228295D01*
X111774388Y-67239697D01*
X111838497Y-67253625D01*
X111896781Y-67270329D01*
X111949519Y-67290063D01*
X111996988Y-67313078D01*
X112039465Y-67339629D01*
X112077228Y-67369966D01*
X112110553Y-67404342D01*
X112139718Y-67443010D01*
X112165001Y-67486222D01*
X112186679Y-67534232D01*
X112205028Y-67587290D01*
X112220327Y-67645650D01*
X112232853Y-67709564D01*
X112242883Y-67779284D01*
X112256565Y-67937154D01*
X112263590Y-68121280D01*
X112266548Y-68576378D01*
X112266792Y-69114741D01*
X112272250Y-69326889D01*
X112285849Y-69501569D01*
X112296774Y-69574988D01*
X112311023Y-69639195D01*
X112329024Y-69694244D01*
X112351208Y-69740185D01*
X112378005Y-69777070D01*
X112409842Y-69804952D01*
X112447151Y-69823883D01*
X112490360Y-69833913D01*
X112539900Y-69835096D01*
X112596199Y-69827483D01*
X112659687Y-69811126D01*
X112730794Y-69786077D01*
X112897583Y-69710111D01*
X113100000Y-69600000D01*
X113341482Y-69456160D01*
X113625466Y-69279007D01*
X114334683Y-68826420D01*
X114903816Y-68448928D01*
X115134593Y-68267990D01*
X115333139Y-68075790D01*
X115502174Y-67859980D01*
X115644419Y-67608209D01*
X115762593Y-67308128D01*
X115859418Y-66947388D01*
X115937613Y-66513638D01*
X115999900Y-65994529D01*
X116049000Y-65377712D01*
X116087631Y-64650837D01*
X116144375Y-62817515D01*
X116191895Y-60395765D01*
X116250013Y-57711357D01*
X116284471Y-56573874D01*
X116324861Y-55556223D01*
X116372936Y-54645916D01*
X116430447Y-53830468D01*
X116499145Y-53097391D01*
X116580780Y-52434199D01*
X116677105Y-51828406D01*
X116789870Y-51267524D01*
X116920826Y-50739067D01*
X117071724Y-50230548D01*
X117244316Y-49729481D01*
X117440352Y-49223379D01*
X117661584Y-48699755D01*
X117909763Y-48146122D01*
X117977843Y-48003647D01*
X118049317Y-47865696D01*
X118123819Y-47732268D01*
X118200986Y-47603362D01*
X118280453Y-47478980D01*
X118361856Y-47359121D01*
X118444830Y-47243784D01*
X118529013Y-47132971D01*
X118614038Y-47026680D01*
X118699543Y-46924913D01*
X118785162Y-46827669D01*
X118870532Y-46734947D01*
X119039066Y-46563073D01*
X119202232Y-46409291D01*
X119357114Y-46273602D01*
X119500800Y-46156004D01*
X119630375Y-46056498D01*
X119742925Y-45975084D01*
X119905296Y-45866532D01*
X119964600Y-45830348D01*
X119964600Y-116488121D01*
G37*
X119964600Y-116488121D02*
X119933849Y-116481606D01*
X119851254Y-116459116D01*
X119795043Y-116440500D01*
X119731303Y-116416233D01*
X119661845Y-116385764D01*
X119588481Y-116348540D01*
X119513021Y-116304008D01*
X119437277Y-116251617D01*
X119399864Y-116222302D01*
X119363058Y-116190814D01*
X119327087Y-116157086D01*
X119292177Y-116121048D01*
X119258553Y-116082631D01*
X119226443Y-116041765D01*
X119196072Y-115998383D01*
X119167668Y-115952414D01*
X119141455Y-115903790D01*
X119117662Y-115852442D01*
X119096513Y-115798301D01*
X119078237Y-115741298D01*
X119055598Y-115665219D01*
X119031984Y-115591274D01*
X119007587Y-115519845D01*
X118982596Y-115451316D01*
X118957203Y-115386068D01*
X118931599Y-115324485D01*
X118905974Y-115266950D01*
X118880520Y-115213846D01*
X118855427Y-115165556D01*
X118830887Y-115122462D01*
X118807090Y-115084947D01*
X118795529Y-115068402D01*
X118784226Y-115053395D01*
X118773205Y-115039974D01*
X118762488Y-115028188D01*
X118752101Y-115018083D01*
X118742066Y-115009708D01*
X118732408Y-115003111D01*
X118723151Y-114998340D01*
X118714318Y-114995442D01*
X118705933Y-114994465D01*
X118061823Y-115245360D01*
X116588012Y-115909220D01*
X112266026Y-117942898D01*
X107969452Y-120029620D01*
X106527406Y-120759784D01*
X105927767Y-121103505D01*
X105911818Y-121122795D01*
X105895967Y-121140981D01*
X105880209Y-121158064D01*
X105864540Y-121174043D01*
X105848955Y-121188920D01*
X105833449Y-121202695D01*
X105818018Y-121215369D01*
X105802655Y-121226943D01*
X105787357Y-121237417D01*
X105772120Y-121246792D01*
X105756937Y-121255070D01*
X105741804Y-121262250D01*
X105726717Y-121268333D01*
X105711671Y-121273320D01*
X105696660Y-121277213D01*
X105681681Y-121280010D01*
X105666728Y-121281714D01*
X105651796Y-121282325D01*
X105636881Y-121281844D01*
X105621979Y-121280271D01*
X105607083Y-121277607D01*
X105592189Y-121273852D01*
X105577294Y-121269009D01*
X105562390Y-121263076D01*
X105547475Y-121256056D01*
X105532544Y-121247948D01*
X105517590Y-121238754D01*
X105502610Y-121228474D01*
X105487599Y-121217109D01*
X105472552Y-121204659D01*
X105457464Y-121191125D01*
X105442331Y-121176509D01*
X105412453Y-121150035D01*
X105397836Y-121139688D01*
X105383428Y-121131273D01*
X105369226Y-121124797D01*
X105355226Y-121120265D01*
X105341424Y-121117680D01*
X105327815Y-121117050D01*
X105314397Y-121118379D01*
X105301165Y-121121671D01*
X105288116Y-121126934D01*
X105275244Y-121134170D01*
X105262548Y-121143386D01*
X105250022Y-121154588D01*
X105237663Y-121167779D01*
X105225467Y-121182966D01*
X105201549Y-121219345D01*
X105178236Y-121263768D01*
X105155497Y-121316276D01*
X105133301Y-121376910D01*
X105111618Y-121445711D01*
X105090416Y-121522722D01*
X105069664Y-121607983D01*
X105049332Y-121701536D01*
X104972624Y-121980642D01*
X104931247Y-122068985D01*
X104888200Y-122125065D01*
X104843743Y-122150290D01*
X104798134Y-122146068D01*
X104751632Y-122113805D01*
X104704497Y-122054911D01*
X104609365Y-121862857D01*
X104514810Y-121581167D01*
X104422905Y-121221104D01*
X104335723Y-120793928D01*
X104255339Y-120310903D01*
X104183825Y-119783290D01*
X104123254Y-119222350D01*
X104075700Y-118639345D01*
X104043235Y-118045538D01*
X104027934Y-117452190D01*
X104031870Y-116870563D01*
X104057115Y-116311918D01*
X104110098Y-115612383D01*
X104170353Y-114972092D01*
X104237000Y-114393142D01*
X104309154Y-113877626D01*
X104385932Y-113427641D01*
X104466453Y-113045281D01*
X104507841Y-112880115D01*
X104549834Y-112732642D01*
X104592320Y-112603122D01*
X104635190Y-112491818D01*
X104678334Y-112398991D01*
X104721641Y-112324904D01*
X104765000Y-112269819D01*
X104808302Y-112233997D01*
X104851435Y-112217700D01*
X104872905Y-112216955D01*
X104894291Y-112221190D01*
X104936758Y-112244729D01*
X104978725Y-112288579D01*
X105020083Y-112353002D01*
X105060722Y-112438259D01*
X105100530Y-112544613D01*
X105139398Y-112672326D01*
X105177215Y-112821658D01*
X105213871Y-112992873D01*
X105249256Y-113186232D01*
X105283258Y-113401997D01*
X105361652Y-113854206D01*
X105414893Y-114021021D01*
X105448738Y-114087812D01*
X105488817Y-114142841D01*
X105536189Y-114185597D01*
X105591917Y-114215566D01*
X105657062Y-114232236D01*
X105732685Y-114235095D01*
X105819848Y-114223629D01*
X105919612Y-114197326D01*
X106161190Y-114098158D01*
X106465911Y-113933490D01*
X106842266Y-113699222D01*
X107298747Y-113391252D01*
X107843846Y-113005479D01*
X109233864Y-111984121D01*
X111080254Y-110602337D01*
X112925953Y-109216005D01*
X113672122Y-108651518D01*
X114311137Y-108162800D01*
X114592953Y-107944507D01*
X114850971Y-107742338D01*
X115086187Y-107555355D01*
X115299598Y-107382619D01*
X115492200Y-107223190D01*
X115664991Y-107076129D01*
X115818967Y-106940497D01*
X115955125Y-106815355D01*
X116074461Y-106699764D01*
X116177973Y-106592785D01*
X116266657Y-106493478D01*
X116341509Y-106400905D01*
X116403527Y-106314126D01*
X116453707Y-106232202D01*
X116474670Y-106192767D01*
X116493046Y-106154194D01*
X116508962Y-106116365D01*
X116522541Y-106079163D01*
X116533908Y-106042470D01*
X116543188Y-106006170D01*
X116555984Y-105934275D01*
X116561926Y-105862539D01*
X116562011Y-105790024D01*
X116557235Y-105715790D01*
X116548595Y-105638898D01*
X116523709Y-105473384D01*
X116456358Y-104326334D01*
X116383213Y-101893970D01*
X116313097Y-98533063D01*
X116254833Y-94600384D01*
X116214219Y-91319893D01*
X116195649Y-89992653D01*
X116176919Y-88854672D01*
X116167185Y-88352104D01*
X116157039Y-87891391D01*
X116146359Y-87470714D01*
X116135020Y-87088253D01*
X116122899Y-86742188D01*
X116109873Y-86430699D01*
X116095817Y-86151967D01*
X116080608Y-85904171D01*
X116064123Y-85685491D01*
X116046237Y-85494109D01*
X116026828Y-85328204D01*
X116016513Y-85254237D01*
X116005771Y-85185957D01*
X115994586Y-85123136D01*
X115982943Y-85065546D01*
X115970826Y-85012962D01*
X115958220Y-84965154D01*
X115945109Y-84921896D01*
X115931478Y-84882960D01*
X115917312Y-84848118D01*
X115902594Y-84817144D01*
X115887311Y-84789809D01*
X115871445Y-84765886D01*
X115854982Y-84745148D01*
X115837906Y-84727367D01*
X115820202Y-84712316D01*
X115801854Y-84699767D01*
X115782847Y-84689493D01*
X115763166Y-84681266D01*
X115742794Y-84674858D01*
X115721717Y-84670043D01*
X115699919Y-84666593D01*
X115677384Y-84664281D01*
X115630043Y-84662158D01*
X115579572Y-84661854D01*
X115270940Y-84635437D01*
X114913257Y-84617474D01*
X114080250Y-84606213D01*
X113139579Y-84626673D01*
X112150272Y-84677453D01*
X111171357Y-84757153D01*
X110261862Y-84864374D01*
X109851592Y-84927868D01*
X109480814Y-84997717D01*
X109156904Y-85073747D01*
X108887241Y-85155781D01*
X108739084Y-85192021D01*
X108597398Y-85229484D01*
X108338125Y-85302267D01*
X108222885Y-85334683D01*
X108118806Y-85362512D01*
X108027062Y-85384301D01*
X107986182Y-85392477D01*
X107948825Y-85398598D01*
X100153920Y-87648208D01*
X98889389Y-88018931D01*
X97788671Y-88337649D01*
X96969971Y-88570404D01*
X96551494Y-88683235D01*
X96281284Y-88753110D01*
X95866273Y-88868918D01*
X95363014Y-89014556D01*
X94828055Y-89173926D01*
X94306869Y-89329469D01*
X93841116Y-89464696D01*
X93481617Y-89565097D01*
X93357594Y-89597701D01*
X93279193Y-89616157D01*
X93072061Y-89668589D01*
X92699739Y-89772718D01*
X92215008Y-89913462D01*
X91670648Y-90075743D01*
X91127127Y-90237903D01*
X90644678Y-90378313D01*
X90275733Y-90481945D01*
X90150209Y-90515273D01*
X90072724Y-90533772D01*
X88213681Y-91049721D01*
X84093222Y-92219011D01*
X81912520Y-92842771D01*
X81050094Y-93088705D01*
X80324128Y-93293068D01*
X79723004Y-93457659D01*
X79465627Y-93525600D01*
X79235103Y-93584272D01*
X79029982Y-93633898D01*
X78848809Y-93674703D01*
X78690133Y-93706913D01*
X78552502Y-93730750D01*
X78434464Y-93746440D01*
X78334566Y-93754208D01*
X78251355Y-93754277D01*
X78215554Y-93751495D01*
X78183381Y-93746873D01*
X78154653Y-93740439D01*
X78129190Y-93732220D01*
X78106809Y-93722245D01*
X78087330Y-93710542D01*
X78070571Y-93697139D01*
X78056350Y-93682064D01*
X78044485Y-93665345D01*
X78034796Y-93647010D01*
X78027100Y-93627088D01*
X78021216Y-93605606D01*
X78014159Y-93558074D01*
X78012172Y-93504641D01*
X78013803Y-93445531D01*
X78022109Y-93311175D01*
X78025880Y-93236379D01*
X78027460Y-93156804D01*
X78042168Y-92716065D01*
X78092301Y-92301944D01*
X78186874Y-91906690D01*
X78334900Y-91522552D01*
X78545395Y-91141778D01*
X78827372Y-90756617D01*
X79189846Y-90359319D01*
X79641830Y-89942131D01*
X80192341Y-89497304D01*
X80850390Y-89017086D01*
X81624994Y-88493725D01*
X82525166Y-87919471D01*
X84738271Y-86587278D01*
X87561821Y-84958499D01*
X89922075Y-83607505D01*
X90876619Y-83050943D01*
X91694548Y-82560647D01*
X92386191Y-82126849D01*
X92687883Y-81928085D01*
X92961878Y-81739782D01*
X93209467Y-81560720D01*
X93431941Y-81389679D01*
X93630591Y-81225435D01*
X93806709Y-81066770D01*
X93961585Y-80912462D01*
X94096512Y-80761289D01*
X94212779Y-80612032D01*
X94311680Y-80463469D01*
X94394504Y-80314378D01*
X94462543Y-80163540D01*
X94517089Y-80009733D01*
X94559432Y-79851736D01*
X94590864Y-79688328D01*
X94612676Y-79518289D01*
X94626160Y-79340397D01*
X94632607Y-79153431D01*
X94629553Y-78747394D01*
X94613844Y-78290411D01*
X94584089Y-77435356D01*
X94577910Y-77089412D01*
X94580310Y-76792799D01*
X94585379Y-76661806D01*
X94593374Y-76541722D01*
X94604557Y-76432073D01*
X94619188Y-76332385D01*
X94637527Y-76242183D01*
X94659836Y-76160994D01*
X94686375Y-76088343D01*
X94717404Y-76023755D01*
X94753184Y-75966757D01*
X94793976Y-75916873D01*
X94840040Y-75873630D01*
X94891638Y-75836554D01*
X94949029Y-75805169D01*
X95012474Y-75779002D01*
X95082235Y-75757578D01*
X95158571Y-75740423D01*
X95241743Y-75727063D01*
X95332012Y-75717023D01*
X95534883Y-75705007D01*
X95769270Y-75700580D01*
X96037256Y-75699947D01*
X96539822Y-75703313D01*
X96743154Y-75711308D01*
X96917491Y-75726876D01*
X96994483Y-75738289D01*
X97065064Y-75752542D01*
X97129511Y-75769952D01*
X97188103Y-75790832D01*
X97241120Y-75815499D01*
X97288839Y-75844269D01*
X97331541Y-75877456D01*
X97369503Y-75915378D01*
X97403004Y-75958348D01*
X97432324Y-76006683D01*
X97457740Y-76060699D01*
X97479532Y-76120710D01*
X97497979Y-76187032D01*
X97513359Y-76259982D01*
X97525951Y-76339874D01*
X97536034Y-76427025D01*
X97549787Y-76624363D01*
X97556850Y-76854520D01*
X97559824Y-77423391D01*
X97561406Y-78062704D01*
X97566591Y-78317264D01*
X97577557Y-78530550D01*
X97585877Y-78622214D01*
X97596444Y-78704156D01*
X97609525Y-78776578D01*
X97625389Y-78839676D01*
X97644301Y-78893652D01*
X97666531Y-78938704D01*
X97692345Y-78975031D01*
X97722009Y-79002832D01*
X97755793Y-79022307D01*
X97793963Y-79033655D01*
X97836786Y-79037075D01*
X97884529Y-79032766D01*
X97937461Y-79020928D01*
X97995848Y-79001759D01*
X98059958Y-78975459D01*
X98130058Y-78942228D01*
X98289297Y-78855765D01*
X98475705Y-78743965D01*
X98938580Y-78450727D01*
X99421897Y-78146085D01*
X99973444Y-77804495D01*
X100525272Y-77467733D01*
X101009430Y-77177574D01*
X101351480Y-76970296D01*
X101489539Y-76876811D01*
X101607479Y-76784016D01*
X101706692Y-76687348D01*
X101788573Y-76582247D01*
X101823450Y-76525109D01*
X101854515Y-76464152D01*
X101905911Y-76328503D01*
X101944154Y-76170738D01*
X101970638Y-75986297D01*
X101986756Y-75770619D01*
X101993902Y-75519142D01*
X101993469Y-75227307D01*
X101986849Y-74890552D01*
X101960626Y-74064039D01*
X101935344Y-73238725D01*
X101930961Y-72904815D01*
X101934884Y-72618519D01*
X101940616Y-72492081D01*
X101949212Y-72376174D01*
X101960934Y-72270339D01*
X101976045Y-72174119D01*
X101994807Y-72087055D01*
X102017483Y-72008690D01*
X102044335Y-71938565D01*
X102075625Y-71876224D01*
X102111617Y-71821208D01*
X102152572Y-71773060D01*
X102198754Y-71731321D01*
X102250424Y-71695534D01*
X102307845Y-71665241D01*
X102371280Y-71639984D01*
X102440991Y-71619306D01*
X102517240Y-71602747D01*
X102600290Y-71589852D01*
X102690404Y-71580161D01*
X102892872Y-71568563D01*
X103126743Y-71564290D01*
X103394118Y-71563679D01*
X103895530Y-71566634D01*
X104098394Y-71573651D01*
X104272331Y-71587317D01*
X104349146Y-71597335D01*
X104419565Y-71609846D01*
X104483864Y-71625128D01*
X104542322Y-71643456D01*
X104595216Y-71665108D01*
X104642826Y-71690362D01*
X104685430Y-71719493D01*
X104723305Y-71752779D01*
X104756729Y-71790498D01*
X104785981Y-71832925D01*
X104811339Y-71880339D01*
X104833081Y-71933016D01*
X104851485Y-71991232D01*
X104866830Y-72055266D01*
X104879393Y-72125394D01*
X104889453Y-72201892D01*
X104903175Y-72375111D01*
X104910221Y-72577138D01*
X104913188Y-73076481D01*
X104914179Y-73230189D01*
X104917088Y-73378808D01*
X104921815Y-73521600D01*
X104928264Y-73657830D01*
X104936335Y-73786761D01*
X104945932Y-73907657D01*
X104956957Y-74019781D01*
X104969310Y-74122397D01*
X104982895Y-74214770D01*
X104997614Y-74296161D01*
X105013368Y-74365836D01*
X105030060Y-74423057D01*
X105038727Y-74446768D01*
X105047592Y-74467089D01*
X105056642Y-74483929D01*
X105065865Y-74497195D01*
X105075249Y-74506796D01*
X105084782Y-74512639D01*
X105094452Y-74514633D01*
X105104245Y-74512684D01*
X105184453Y-74471838D01*
X105340140Y-74384514D01*
X105841195Y-74092159D01*
X106533895Y-73679063D01*
X107344724Y-73188669D01*
X108021038Y-72772292D01*
X108294364Y-72594704D01*
X108528319Y-72430448D01*
X108725789Y-72274221D01*
X108811745Y-72197462D01*
X108889663Y-72120723D01*
X108959903Y-72043340D01*
X109022827Y-71964651D01*
X109078795Y-71883993D01*
X109128169Y-71800704D01*
X109171309Y-71714121D01*
X109208576Y-71623580D01*
X109240331Y-71528421D01*
X109266935Y-71427979D01*
X109288749Y-71321592D01*
X109306134Y-71208597D01*
X109329061Y-70960134D01*
X109338601Y-70677289D01*
X109337643Y-70354758D01*
X109315781Y-69569436D01*
X109292871Y-68786552D01*
X109289431Y-68469808D01*
X109294139Y-68198231D01*
X109300206Y-68078294D01*
X109309099Y-67968345D01*
X109321081Y-67867951D01*
X109336415Y-67776677D01*
X109355364Y-67694089D01*
X109378190Y-67619753D01*
X109405158Y-67553234D01*
X109436529Y-67494098D01*
X109472567Y-67441910D01*
X109513535Y-67396237D01*
X109559696Y-67356644D01*
X109611313Y-67322697D01*
X109668648Y-67293961D01*
X109731965Y-67270003D01*
X109801526Y-67250387D01*
X109877596Y-67234681D01*
X109960436Y-67222448D01*
X110050309Y-67213255D01*
X110252209Y-67202253D01*
X110485399Y-67198200D01*
X110751982Y-67197621D01*
X111251907Y-67200314D01*
X111454170Y-67206709D01*
X111627591Y-67219164D01*
X111704179Y-67228295D01*
X111774388Y-67239697D01*
X111838497Y-67253625D01*
X111896781Y-67270329D01*
X111949519Y-67290063D01*
X111996988Y-67313078D01*
X112039465Y-67339629D01*
X112077228Y-67369966D01*
X112110553Y-67404342D01*
X112139718Y-67443010D01*
X112165001Y-67486222D01*
X112186679Y-67534232D01*
X112205028Y-67587290D01*
X112220327Y-67645650D01*
X112232853Y-67709564D01*
X112242883Y-67779284D01*
X112256565Y-67937154D01*
X112263590Y-68121280D01*
X112266548Y-68576378D01*
X112266792Y-69114741D01*
X112272250Y-69326889D01*
X112285849Y-69501569D01*
X112296774Y-69574988D01*
X112311023Y-69639195D01*
X112329024Y-69694244D01*
X112351208Y-69740185D01*
X112378005Y-69777070D01*
X112409842Y-69804952D01*
X112447151Y-69823883D01*
X112490360Y-69833913D01*
X112539900Y-69835096D01*
X112596199Y-69827483D01*
X112659687Y-69811126D01*
X112730794Y-69786077D01*
X112897583Y-69710111D01*
X113100000Y-69600000D01*
X113341482Y-69456160D01*
X113625466Y-69279007D01*
X114334683Y-68826420D01*
X114903816Y-68448928D01*
X115134593Y-68267990D01*
X115333139Y-68075790D01*
X115502174Y-67859980D01*
X115644419Y-67608209D01*
X115762593Y-67308128D01*
X115859418Y-66947388D01*
X115937613Y-66513638D01*
X115999900Y-65994529D01*
X116049000Y-65377712D01*
X116087631Y-64650837D01*
X116144375Y-62817515D01*
X116191895Y-60395765D01*
X116250013Y-57711357D01*
X116284471Y-56573874D01*
X116324861Y-55556223D01*
X116372936Y-54645916D01*
X116430447Y-53830468D01*
X116499145Y-53097391D01*
X116580780Y-52434199D01*
X116677105Y-51828406D01*
X116789870Y-51267524D01*
X116920826Y-50739067D01*
X117071724Y-50230548D01*
X117244316Y-49729481D01*
X117440352Y-49223379D01*
X117661584Y-48699755D01*
X117909763Y-48146122D01*
X117977843Y-48003647D01*
X118049317Y-47865696D01*
X118123819Y-47732268D01*
X118200986Y-47603362D01*
X118280453Y-47478980D01*
X118361856Y-47359121D01*
X118444830Y-47243784D01*
X118529013Y-47132971D01*
X118614038Y-47026680D01*
X118699543Y-46924913D01*
X118785162Y-46827669D01*
X118870532Y-46734947D01*
X119039066Y-46563073D01*
X119202232Y-46409291D01*
X119357114Y-46273602D01*
X119500800Y-46156004D01*
X119630375Y-46056498D01*
X119742925Y-45975084D01*
X119905296Y-45866532D01*
X119964600Y-45830348D01*
X119964600Y-116488121D01*
X160814285Y-92000714D02*
X160576190Y-92667380D01*
X160576190Y-92667380D02*
X160338095Y-92000714D01*
X160004761Y-91762619D02*
X159957142Y-91715000D01*
X159957142Y-91715000D02*
X159861904Y-91667380D01*
X159861904Y-91667380D02*
X159623809Y-91667380D01*
X159623809Y-91667380D02*
X159528571Y-91715000D01*
X159528571Y-91715000D02*
X159480952Y-91762619D01*
X159480952Y-91762619D02*
X159433333Y-91857857D01*
X159433333Y-91857857D02*
X159433333Y-91953095D01*
X159433333Y-91953095D02*
X159480952Y-92095952D01*
X159480952Y-92095952D02*
X160052380Y-92667380D01*
X160052380Y-92667380D02*
X159433333Y-92667380D01*
D11*
X123785000Y-69895000D02*
X123785000Y-75095000D01*
X118645000Y-69895000D02*
X123785000Y-69895000D01*
X118645000Y-69895000D02*
X118645000Y-72495000D01*
X117375000Y-69895000D02*
X116045000Y-69895000D01*
X116045000Y-69895000D02*
X116045000Y-71225000D01*
X118645000Y-72495000D02*
X116045000Y-72495000D01*
X116045000Y-72495000D02*
X116045000Y-75095000D01*
X116045000Y-75095000D02*
X123785000Y-75095000D01*
%LPC*%
D12*
X117374999Y-71224999D03*
D13*
X117374999Y-73764999D03*
X119914999Y-71224999D03*
X119914999Y-73764999D03*
X122454999Y-71224999D03*
X122454999Y-73764999D03*
M02*
