<?xml version="1.0" encoding="UTF-8" standalone="no"?>
<!-- Created with Inkscape (http://www.inkscape.org/) -->

<svg
   width="559.36572mm"
   height="509.16046mm"
   viewBox="0 0 559.36572 509.16046"
   version="1.1"
   id="svg5"
   xml:space="preserve"
   inkscape:version="1.2 (dc2aeda, 2022-05-15)"
   sodipodi:docname="an225.svg"
   xmlns:inkscape="http://www.inkscape.org/namespaces/inkscape"
   xmlns:sodipodi="http://sodipodi.sourceforge.net/DTD/sodipodi-0.dtd"
   xmlns="http://www.w3.org/2000/svg"
   xmlns:svg="http://www.w3.org/2000/svg"><sodipodi:namedview
     id="namedview7"
     pagecolor="#ffffff"
     bordercolor="#000000"
     borderopacity="0.25"
     inkscape:showpageshadow="2"
     inkscape:pageopacity="0.0"
     inkscape:pagecheckerboard="0"
     inkscape:deskcolor="#d1d1d1"
     inkscape:document-units="mm"
     showgrid="false"
     inkscape:zoom="0.40995757"
     inkscape:cx="878.13966"
     inkscape:cy="1167.194"
     inkscape:window-width="1800"
     inkscape:window-height="1097"
     inkscape:window-x="0"
     inkscape:window-y="44"
     inkscape:window-maximized="0"
     inkscape:current-layer="layer1" /><defs
     id="defs2" /><g
     inkscape:label="Layer 1"
     inkscape:groupmode="layer"
     id="layer1"
     transform="translate(389.09864,188.17925)"><path
       style="fill:#000000;stroke-width:1.53195"
       d="m -211.82251,319.45885 c -4.49212,-14.93946 -4.94251,-40.8708 -1.01459,-58.41653 2.3514,-10.50355 3.87284,-10.15893 5.5457,1.2561 1.36275,9.29885 1.36275,9.29885 38.64665,-18.66439 37.28392,-27.96325 37.28392,-27.96325 36.28972,-34.19304 -0.5468,-3.4264 -1.35345,-36.04539 -1.79254,-72.48666 -0.79836,-66.256858 -0.79836,-66.256858 -4.37408,-66.256858 -14.89469,-0.540455 -33.84419,-0.500704 -44.74317,3.292821 -2.35423,0.955033 -5.31449,1.882843 -6.57835,2.061791 -17.41168,5.547331 -34.44476,9.528743 -51.6438,14.554417 -11.61811,3.425794 -22.42539,6.530858 -24.01616,6.90015 -1.59077,0.369292 -6.76111,1.841359 -11.48963,3.271279 -4.72852,1.42991 -9.3751,2.75661 -10.32573,2.94821 -0.95062,0.19162 -5.77627,1.57037 -10.72365,3.0639 -4.94738,1.49355 -9.74115,2.86763 -10.65282,3.05352 -0.91167,0.18588 -18.85019,5.24161 -39.86336,11.23495 -44.58379,12.71611 -40.4384,12.07522 -40.4384,6.25192 0,-16.23576 7.51243,-22.69548 63.56242,-54.655347 47.67453,-27.184155 47.67453,-27.184155 47.0135,-44.453924 -0.66104,-17.269754 -0.66104,-17.269754 9.48941,-17.269754 10.15045,0 10.15045,0 10.15045,11.489628 0,12.96528 -0.18062,12.830698 9.1917,6.848906 3.79158,-2.41993 10.00411,-6.239404 13.80565,-8.487694 6.91185,-4.087811 6.91185,-4.087811 6.34131,-20.75688727 -0.57055,-16.66906073 -0.57055,-16.66906073 9.55661,-16.66906073 10.12714,0 10.12714,0 10.12714,10.0853351 0,5.54694752 0.57317,9.8555582 1.27371,9.5746904 0.70053,-0.2808525 7.42197,-4.2528936 14.93652,-8.8267615 13.66281,-8.316101 13.66281,-8.316101 13.14038,-24.12822 -0.52244,-15.812103 -0.52244,-15.812103 9.57469,-15.812103 10.09712,0 10.09712,0 10.09712,9.191703 0,10.937575 -0.617,10.862969 13.78755,1.666946 11.48963,-7.335117 11.48963,-7.335117 12.38142,-56.204359 0.96752,-53.019428 2.12851,-61.298078 11.45247,-81.664288 9.42397,-20.58465 17.97382,-20.58465 27.397796,0 9.323956,20.36621 10.484944,28.64486 11.452463,81.664288 0.891794,48.869242 0.891794,48.869242 12.381422,56.204359 14.404547,9.196023 13.787554,9.270629 13.787554,-1.666946 0,-9.191703 0,-9.191703 10.097116,-9.191703 10.097131,0 10.097131,0 9.57469,15.812103 -0.522426,15.812119 -0.522426,15.812119 13.140381,24.12822 7.514554,4.5738679 14.235987,8.545909 14.936517,8.8267615 0.7005454,0.2808678 1.2737093,-4.02774288 1.2737093,-9.5746904 0,-10.0853351 0,-10.0853351 10.1271421,-10.0853351 10.1271576,0 10.1271576,0 9.5566126,16.66906073 -0.570544,16.66907627 -0.570544,16.66907627 6.34131,20.75688727 3.801535,2.24829 10.014069,6.067764 13.805646,8.487694 9.37232,5.981792 9.191703,6.116374 9.191703,-6.848906 0,-11.489628 0,-11.489628 10.150458,-11.489628 10.150443,0 10.150443,0 9.489406,17.269754 -0.661036,17.269769 -0.661036,17.269769 47.013504,44.453924 56.04998,31.959867 63.56242,38.419587 63.56242,54.655347 0,5.8233 4.14538,6.46419 -40.43841,-6.25192 -21.01316,-5.99334 -38.951691,-11.04907 -39.863355,-11.23495 -0.911679,-0.18589 -5.705443,-1.55997 -10.652831,-3.05352 -4.947372,-1.49353 -9.773016,-2.87228 -10.723652,-3.0639 -0.950622,-0.1916 -5.597196,-1.5183 -10.325714,-2.94821 C 53.432685,99.34801 48.262352,97.875943 46.67159,97.506651 45.080813,97.137359 34.273531,94.032295 22.655418,90.606501 5.00188,86.277753 -13.93552,79.243651 -29.310603,75.609093 c -1.263859,-0.178948 -3.571658,-0.994007 -6.256122,-1.6188 -8.536141,-3.021461 -34.601412,-4.384525 -44.615513,-3.292821 -3.703383,0 -3.703383,0 -4.501744,66.256858 -0.439087,36.44127 -1.245736,69.06026 -1.792535,72.48666 -0.994205,6.22979 -0.994205,6.22979 36.289715,34.19304 37.283904,27.96324 37.283904,27.96324 38.646651,18.66439 2.3662044,-16.14614 6.4302238,-6.5013 8.174288,19.39949 1.3010089,19.32088 -4.0491441,48.38238 -6.614778,35.93083 -0.715865,-3.47425 -1.542123,-4.57808 -2.620003,-3.5002 -1.077896,1.07789 -2.098481,0.9244 -3.236245,-0.48667 -1.520721,-1.886 -82.763529,-40.72694 -85.187751,-40.72694 -0.57976,0 -1.69669,2.24048 -2.48205,4.97884 -1.19221,4.15699 -2.1676,4.97884 -5.90908,4.97884 -3.74149,0 -4.71688,-0.82185 -5.90909,-4.97884 -0.78535,-2.73836 -1.90228,-4.97884 -2.48205,-4.97884 -2.42422,0 -83.66703,38.84094 -85.18775,40.72694 -1.26498,1.56885 -2.08814,1.63477 -3.44689,0.27602 -1.35873,-1.35873 -1.79063,-1.07161 -1.80848,1.20228 -0.038,4.8324 -2.51827,7.84467 -3.57248,4.33868 z"
       id="path361"
       sodipodi:nodetypes="ssssssccccssssssssssssssssssssssssssssssssssssssssssssssssccccsssssssssssssssss" /></g></svg>
