G04 #@! TF.GenerationSoftware,KiCad,Pcbnew,(6.99.0-2452-gdb4f2d9dd8)*
G04 #@! TF.CreationDate,2022-07-21T12:57:02-08:00*
G04 #@! TF.ProjectId,787,3738372e-6b69-4636-9164-5f7063625858,rev?*
G04 #@! TF.SameCoordinates,Original*
G04 #@! TF.FileFunction,Profile,NP*
%FSLAX46Y46*%
G04 Gerber Fmt 4.6, Leading zero omitted, Abs format (unit mm)*
G04 Created by KiCad (PCBNEW (6.99.0-2452-gdb4f2d9dd8)) date 2022-07-21 12:57:02*
%MOMM*%
%LPD*%
G01*
G04 APERTURE LIST*
G04 #@! TA.AperFunction,Profile*
%ADD10C,0.078000*%
G04 #@! TD*
G04 APERTURE END LIST*
D10*
X106841628Y-65854004D02*
X107097932Y-65860456D01*
X107311179Y-65871421D01*
X107481439Y-65886914D01*
X107550473Y-65896363D01*
X107608788Y-65906950D01*
X107656392Y-65918675D01*
X107693295Y-65931541D01*
X107719507Y-65945550D01*
X107735036Y-65960704D01*
X107738797Y-65968710D01*
X107739891Y-65977004D01*
X107734081Y-65994451D01*
X107681074Y-66065861D01*
X107563665Y-66214681D01*
X107165362Y-66708010D01*
X106598603Y-67401358D01*
X105922821Y-68221646D01*
X105572962Y-68648753D01*
X105239102Y-69063828D01*
X104929080Y-69456599D01*
X104650739Y-69816792D01*
X104411920Y-70134133D01*
X104220465Y-70398351D01*
X104084213Y-70599171D01*
X104039240Y-70672596D01*
X104011008Y-70726320D01*
X103516902Y-71872567D01*
X102594955Y-74036857D01*
X97158021Y-86743164D01*
X92947555Y-96560392D01*
X92947555Y-110015065D01*
X113587693Y-110015065D01*
X116647607Y-110641441D01*
X117865678Y-110885737D01*
X118920222Y-111087853D01*
X119698375Y-111226789D01*
X119948535Y-111266001D01*
X120087273Y-111281541D01*
X120155579Y-111283287D01*
X120221715Y-111282601D01*
X120286951Y-111278171D01*
X120352553Y-111268683D01*
X120419792Y-111252822D01*
X120489933Y-111229274D01*
X120564247Y-111196726D01*
X120644001Y-111153864D01*
X120730463Y-111099374D01*
X120824902Y-111031942D01*
X120928586Y-110950253D01*
X121042782Y-110852995D01*
X121168760Y-110738853D01*
X121307788Y-110606512D01*
X121461133Y-110454661D01*
X121630065Y-110281983D01*
X121815850Y-110087166D01*
X122019759Y-109868895D01*
X122243058Y-109625858D01*
X122487015Y-109356738D01*
X122752901Y-109060224D01*
X123041981Y-108735000D01*
X123694802Y-107993169D01*
X124455623Y-107120734D01*
X125334590Y-106107184D01*
X127487549Y-103614693D01*
X129780621Y-100952394D01*
X130955940Y-99578655D01*
X131016054Y-99508938D01*
X131076606Y-99444553D01*
X131107506Y-99414143D01*
X131139069Y-99384807D01*
X131171479Y-99356458D01*
X131204919Y-99329009D01*
X131239575Y-99302374D01*
X131275630Y-99276467D01*
X131313269Y-99251202D01*
X131352676Y-99226491D01*
X131394036Y-99202248D01*
X131437532Y-99178387D01*
X131483350Y-99154821D01*
X131531673Y-99131465D01*
X131636572Y-99085033D01*
X131753705Y-99038399D01*
X131884546Y-98990872D01*
X132030570Y-98941761D01*
X132193250Y-98890373D01*
X132374062Y-98836016D01*
X132574480Y-98778001D01*
X132795979Y-98715634D01*
X133090791Y-98635284D01*
X133368506Y-98563007D01*
X133622854Y-98500191D01*
X133847566Y-98448228D01*
X134036370Y-98408507D01*
X134182998Y-98382418D01*
X134281178Y-98371352D01*
X134310141Y-98371887D01*
X134324641Y-98376698D01*
X134324127Y-98424385D01*
X134297551Y-98544983D01*
X134162383Y-99016532D01*
X133911476Y-99814581D01*
X133537171Y-100962368D01*
X132387729Y-104400101D01*
X130652776Y-109515621D01*
X130167437Y-110954354D01*
X129776298Y-112138865D01*
X129519275Y-112946472D01*
X129453532Y-113170599D01*
X129436287Y-113254494D01*
X129620828Y-113303738D01*
X130084542Y-113409543D01*
X131483771Y-113713007D01*
X132902542Y-114009231D01*
X133390683Y-114105987D01*
X133609423Y-114142563D01*
X133612640Y-114143435D01*
X133615816Y-114146023D01*
X133618948Y-114150284D01*
X133622031Y-114156176D01*
X133628035Y-114172679D01*
X133633796Y-114195192D01*
X133639281Y-114223370D01*
X133644459Y-114256874D01*
X133649297Y-114295361D01*
X133653763Y-114338488D01*
X133657825Y-114385914D01*
X133661449Y-114437297D01*
X133664605Y-114492296D01*
X133667259Y-114550567D01*
X133669380Y-114611769D01*
X133670935Y-114675560D01*
X133671891Y-114741599D01*
X133672217Y-114809543D01*
X133672217Y-115476523D01*
X131581418Y-115914320D01*
X130766113Y-116087801D01*
X130091803Y-116236510D01*
X129628543Y-116344632D01*
X129497951Y-116378531D01*
X129446392Y-116396352D01*
X129444776Y-116400490D01*
X129444473Y-116408280D01*
X129447689Y-116434437D01*
X129455805Y-116474068D01*
X129468590Y-116526415D01*
X129507230Y-116666236D01*
X129561742Y-116847851D01*
X129630260Y-117065210D01*
X129710920Y-117312264D01*
X129801854Y-117582963D01*
X129901197Y-117871259D01*
X132586728Y-125767580D01*
X133833764Y-129506872D01*
X134359383Y-131148475D01*
X134357754Y-131156694D01*
X134352822Y-131163754D01*
X134344627Y-131169663D01*
X134333207Y-131174427D01*
X134318605Y-131178055D01*
X134300859Y-131180553D01*
X134280009Y-131181930D01*
X134256096Y-131182191D01*
X134199240Y-131179401D01*
X134130611Y-131172241D01*
X134050529Y-131160770D01*
X133959315Y-131145048D01*
X133857289Y-131125133D01*
X133744772Y-131101085D01*
X133622083Y-131072963D01*
X133489543Y-131040826D01*
X133347473Y-131004733D01*
X133196193Y-130964744D01*
X133036022Y-130920916D01*
X132867283Y-130873310D01*
X132867283Y-130873322D01*
X131374433Y-130446200D01*
X127821301Y-126318696D01*
X124185418Y-122106665D01*
X122994951Y-120744775D01*
X122132813Y-119780223D01*
X121531510Y-119138953D01*
X121123552Y-118746905D01*
X120841447Y-118530022D01*
X120617703Y-118414246D01*
X120588013Y-118403028D01*
X120556045Y-118393149D01*
X120521475Y-118384655D01*
X120483981Y-118377593D01*
X120443239Y-118372011D01*
X120398928Y-118367956D01*
X120298302Y-118364617D01*
X120179519Y-118367953D01*
X120039997Y-118378344D01*
X119877150Y-118396167D01*
X119688397Y-118421800D01*
X119471153Y-118455623D01*
X119222834Y-118498014D01*
X118940857Y-118549350D01*
X118622639Y-118610010D01*
X117867144Y-118760816D01*
X116935679Y-118953459D01*
X113623595Y-119645909D01*
X92947549Y-119645909D01*
X92947549Y-132938020D01*
X93420921Y-134099817D01*
X95266152Y-138441254D01*
X99037824Y-147247715D01*
X99466413Y-148177323D01*
X99870711Y-149106379D01*
X100627889Y-150958289D01*
X102086776Y-154605482D01*
X102471235Y-155498854D01*
X102874317Y-156382582D01*
X103301387Y-157255530D01*
X103757810Y-158116562D01*
X104248949Y-158964541D01*
X104780169Y-159798331D01*
X105356836Y-160616795D01*
X105984312Y-161418798D01*
X107787264Y-163603784D01*
X105208483Y-163682346D01*
X102686558Y-162032654D01*
X100164632Y-160382957D01*
X95753376Y-154013536D01*
X86006274Y-139939449D01*
X82184844Y-134437405D01*
X80490037Y-132028409D01*
X80477654Y-132014964D01*
X80464509Y-132002104D01*
X80450581Y-131989825D01*
X80435849Y-131978125D01*
X80420292Y-131966998D01*
X80403889Y-131956441D01*
X80386619Y-131946451D01*
X80368462Y-131937024D01*
X80349396Y-131928155D01*
X80329400Y-131919842D01*
X80308454Y-131912080D01*
X80286536Y-131904865D01*
X80263625Y-131898194D01*
X80239701Y-131892063D01*
X80188729Y-131881405D01*
X80133450Y-131872861D01*
X80073699Y-131866402D01*
X80009306Y-131861995D01*
X79940104Y-131859613D01*
X79865925Y-131859223D01*
X79786603Y-131860795D01*
X79701968Y-131864300D01*
X79611853Y-131869707D01*
X78914059Y-131917383D01*
X78912107Y-132695208D01*
X78909617Y-132854588D01*
X78903308Y-133009331D01*
X78893603Y-133155616D01*
X78880923Y-133289624D01*
X78865692Y-133407534D01*
X78848333Y-133505528D01*
X78838987Y-133545862D01*
X78829267Y-133579785D01*
X78819227Y-133606819D01*
X78808918Y-133626486D01*
X78772763Y-133667380D01*
X78718484Y-133708625D01*
X78559163Y-133791640D01*
X78338168Y-133874476D01*
X78062712Y-133956079D01*
X77740006Y-134035397D01*
X77377265Y-134111374D01*
X76981700Y-134182957D01*
X76560525Y-134249092D01*
X76120952Y-134308725D01*
X75670194Y-134360803D01*
X75215464Y-134404270D01*
X74763975Y-134438075D01*
X74322938Y-134461162D01*
X73899568Y-134472477D01*
X73501076Y-134470967D01*
X73134676Y-134455578D01*
X72278897Y-134388780D01*
X71526684Y-134306677D01*
X71189361Y-134259873D01*
X70877865Y-134209228D01*
X70592175Y-134154735D01*
X70332270Y-134096389D01*
X70098128Y-134034186D01*
X69889727Y-133968121D01*
X69707047Y-133898187D01*
X69550066Y-133824380D01*
X69418763Y-133746694D01*
X69313116Y-133665125D01*
X69233103Y-133579667D01*
X69178704Y-133490314D01*
X69163733Y-133445995D01*
X69149017Y-133380052D01*
X69134636Y-133293769D01*
X69120673Y-133188432D01*
X69094324Y-132925734D01*
X69070620Y-132602239D01*
X69050210Y-132228227D01*
X69033746Y-131813977D01*
X69021875Y-131369770D01*
X69015250Y-130905886D01*
X69011332Y-129958611D01*
X69016724Y-129573809D01*
X69030390Y-129242068D01*
X69054861Y-128958767D01*
X69092668Y-128719283D01*
X69117363Y-128614528D01*
X69146341Y-128518995D01*
X69179919Y-128432105D01*
X69218411Y-128353280D01*
X69262136Y-128281944D01*
X69311409Y-128217518D01*
X69366546Y-128159425D01*
X69427864Y-128107086D01*
X69495679Y-128059925D01*
X69570308Y-128017363D01*
X69652067Y-127978823D01*
X69741272Y-127943726D01*
X69943285Y-127881554D01*
X70178878Y-127826226D01*
X70760928Y-127717611D01*
X71620885Y-127582467D01*
X72039790Y-127529325D01*
X72452149Y-127485802D01*
X72858589Y-127451897D01*
X73259736Y-127427610D01*
X73656218Y-127412942D01*
X74048662Y-127407890D01*
X74437693Y-127412456D01*
X74823941Y-127426638D01*
X75208031Y-127450437D01*
X75590590Y-127483852D01*
X75972245Y-127526882D01*
X76353623Y-127579528D01*
X76735352Y-127641788D01*
X77118057Y-127713662D01*
X77571569Y-127804363D01*
X76389479Y-126098453D01*
X75078586Y-124197118D01*
X73586819Y-122021359D01*
X71966256Y-119650182D01*
X63966602Y-119648034D01*
X58828048Y-119627170D01*
X57011345Y-119594748D01*
X55563992Y-119540896D01*
X54386715Y-119460539D01*
X53380238Y-119348599D01*
X52445287Y-119200000D01*
X51482587Y-119009666D01*
X50507935Y-118792950D01*
X49563588Y-118560915D01*
X48654041Y-118315555D01*
X47783788Y-118058864D01*
X46957325Y-117792837D01*
X46179146Y-117519468D01*
X45453746Y-117240752D01*
X44785621Y-116958683D01*
X44179264Y-116675255D01*
X43639172Y-116392463D01*
X43169839Y-116112301D01*
X42775759Y-115836764D01*
X42461428Y-115567845D01*
X42231341Y-115307540D01*
X42089993Y-115057843D01*
X42054000Y-114937596D01*
X42041877Y-114820748D01*
X42055898Y-114692936D01*
X42097493Y-114561581D01*
X42165965Y-114426973D01*
X42260616Y-114289401D01*
X42380747Y-114149154D01*
X42525660Y-114006520D01*
X42694657Y-113861790D01*
X42887040Y-113715252D01*
X43102110Y-113567194D01*
X43339169Y-113417906D01*
X43876464Y-113116796D01*
X44493336Y-112814234D01*
X45184202Y-112512531D01*
X45943475Y-112214000D01*
X46765569Y-111920953D01*
X47644899Y-111635701D01*
X48575880Y-111360557D01*
X49552924Y-111097832D01*
X50570447Y-110849839D01*
X51622863Y-110618890D01*
X52704586Y-110407296D01*
X53261209Y-110311309D01*
X53535555Y-110271706D01*
X53824658Y-110237104D01*
X54141568Y-110207061D01*
X54499337Y-110181131D01*
X54911014Y-110158872D01*
X55389650Y-110139838D01*
X55948295Y-110123586D01*
X56600000Y-110109672D01*
X58234792Y-110087083D01*
X60398429Y-110068518D01*
X63195314Y-110050425D01*
X66631956Y-110020237D01*
X69442231Y-109977590D01*
X71338980Y-109928108D01*
X71855045Y-109902561D01*
X72035043Y-109877414D01*
X72057045Y-109825160D01*
X72121733Y-109713216D01*
X72371241Y-109321834D01*
X72767726Y-108726417D01*
X73295343Y-107950114D01*
X74680606Y-105947447D01*
X76400289Y-103499025D01*
X76843569Y-102860816D01*
X77034066Y-102578297D01*
X77197812Y-102329412D01*
X77330315Y-102121094D01*
X77427083Y-101960274D01*
X77483625Y-101853886D01*
X77495407Y-101823269D01*
X77495447Y-101808860D01*
X77491668Y-101806053D01*
X77486375Y-101803645D01*
X77479612Y-101801633D01*
X77471420Y-101800010D01*
X77450922Y-101797912D01*
X77425220Y-101797308D01*
X77394651Y-101798157D01*
X77359557Y-101800415D01*
X77320274Y-101804042D01*
X77277143Y-101808994D01*
X77230503Y-101815229D01*
X77180691Y-101822706D01*
X77128048Y-101831380D01*
X77072913Y-101841211D01*
X77015623Y-101852156D01*
X76956519Y-101864172D01*
X76895939Y-101877218D01*
X76834222Y-101891251D01*
X76375855Y-101981164D01*
X75870058Y-102050020D01*
X75326469Y-102098623D01*
X74754728Y-102127779D01*
X74164476Y-102138293D01*
X73565352Y-102130972D01*
X72966996Y-102106619D01*
X72379048Y-102066041D01*
X71811148Y-102010044D01*
X71272935Y-101939432D01*
X70774050Y-101855012D01*
X70324132Y-101757588D01*
X69932821Y-101647966D01*
X69609757Y-101526951D01*
X69364580Y-101395349D01*
X69274212Y-101325830D01*
X69206930Y-101253966D01*
X69193713Y-101234842D01*
X69181054Y-101213001D01*
X69168944Y-101188312D01*
X69157373Y-101160644D01*
X69135808Y-101095850D01*
X69116282Y-101017570D01*
X69098716Y-100924758D01*
X69083033Y-100816367D01*
X69069154Y-100691350D01*
X69057002Y-100548661D01*
X69046499Y-100387251D01*
X69037566Y-100206074D01*
X69030126Y-100004084D01*
X69024100Y-99780233D01*
X69015981Y-99262760D01*
X69012584Y-98645282D01*
X69013034Y-97951629D01*
X69018456Y-97399532D01*
X69030573Y-96969824D01*
X69051107Y-96643340D01*
X69065068Y-96512817D01*
X69081779Y-96400913D01*
X69101456Y-96305232D01*
X69124312Y-96223379D01*
X69150565Y-96152957D01*
X69180429Y-96091571D01*
X69214119Y-96036825D01*
X69251850Y-95986324D01*
X69333623Y-95903732D01*
X69440944Y-95825340D01*
X69572517Y-95751195D01*
X69727048Y-95681345D01*
X70099804Y-95554720D01*
X70548852Y-95445843D01*
X71063831Y-95355094D01*
X71634383Y-95282851D01*
X72250146Y-95229495D01*
X72900762Y-95195405D01*
X73575870Y-95180959D01*
X74265111Y-95186537D01*
X74958125Y-95212519D01*
X75644552Y-95259283D01*
X76314032Y-95327210D01*
X76956206Y-95416678D01*
X77560713Y-95528066D01*
X78117194Y-95661754D01*
X78902389Y-95876922D01*
X78942695Y-96789134D01*
X78983001Y-97701351D01*
X79670916Y-97740806D01*
X80358832Y-97780267D01*
X83110499Y-93777238D01*
X85178340Y-90780699D01*
X86285920Y-89197529D01*
X87952847Y-86809909D01*
X91365513Y-81879263D01*
X97282020Y-73349096D01*
X98411499Y-71737182D01*
X99356764Y-70373358D01*
X99629294Y-69980671D01*
X99750217Y-69814630D01*
X99867300Y-69663367D01*
X99985331Y-69522811D01*
X100109100Y-69388897D01*
X100243397Y-69257553D01*
X100393012Y-69124714D01*
X100562734Y-68986309D01*
X100757354Y-68838271D01*
X100981660Y-68676531D01*
X101240443Y-68497020D01*
X101538492Y-68295671D01*
X101880597Y-68068414D01*
X102716134Y-67519906D01*
X105261423Y-65853611D01*
X106542193Y-65852052D01*
X106841628Y-65854004D01*
M02*
