%TF.GenerationSoftware,KiCad,Pcbnew,(6.99.0-2452-gdb4f2d9dd8)*%
%TF.CreationDate,2022-07-19T11:44:13+04:00*%
%TF.ProjectId,787,3738372e-6b69-4636-9164-5f7063625858,rev?*%
%TF.SameCoordinates,Original*%
%TF.FileFunction,Legend,Bot*%
%TF.FilePolarity,Positive*%
%FSLAX46Y46*%
G04 Gerber Fmt 4.6, Leading zero omitted, Abs format (unit mm)*
G04 Created by KiCad (PCBNEW (6.99.0-2452-gdb4f2d9dd8)) date 2022-07-19 11:44:13*
%MOMM*%
%LPD*%
G01*
G04 APERTURE LIST*
%ADD10C,0.150000*%
%ADD11C,0.120000*%
%ADD12R,1.700000X1.700000*%
%ADD13O,1.700000X1.700000*%
G04 APERTURE END LIST*
D10*
X128466190Y-93338094D02*
X128418571Y-93290475D01*
X128418571Y-93290475D02*
X128370952Y-93195237D01*
X128370952Y-93195237D02*
X128370952Y-93099999D01*
X128370952Y-93099999D02*
X128418571Y-93004761D01*
X128418571Y-93004761D02*
X128466190Y-92957142D01*
X128466190Y-92957142D02*
X128561428Y-92909523D01*
X128561428Y-92909523D02*
X128656666Y-92909523D01*
X128656666Y-92909523D02*
X128751904Y-92957142D01*
X128751904Y-92957142D02*
X128799523Y-93004761D01*
X128799523Y-93004761D02*
X128847142Y-93099999D01*
X128847142Y-93099999D02*
X128847142Y-93195237D01*
X128847142Y-93195237D02*
X128799523Y-93290475D01*
X128799523Y-93290475D02*
X128751904Y-93338094D01*
X128370952Y-93338094D02*
X128751904Y-93338094D01*
X128751904Y-93338094D02*
X128799523Y-93385713D01*
X128799523Y-93385713D02*
X128799523Y-93433332D01*
X128799523Y-93433332D02*
X128751904Y-93528571D01*
X128751904Y-93528571D02*
X128656666Y-93576190D01*
X128656666Y-93576190D02*
X128418571Y-93576190D01*
X128418571Y-93576190D02*
X128275714Y-93480952D01*
X128275714Y-93480952D02*
X128180476Y-93338094D01*
X128180476Y-93338094D02*
X128132857Y-93147618D01*
X128132857Y-93147618D02*
X128180476Y-92957142D01*
X128180476Y-92957142D02*
X128275714Y-92814285D01*
X128275714Y-92814285D02*
X128418571Y-92719047D01*
X128418571Y-92719047D02*
X128609047Y-92671428D01*
X128609047Y-92671428D02*
X128799523Y-92719047D01*
X128799523Y-92719047D02*
X128942380Y-92814285D01*
X128942380Y-92814285D02*
X129037619Y-92957142D01*
X129037619Y-92957142D02*
X129085238Y-93147618D01*
X129085238Y-93147618D02*
X129037619Y-93338094D01*
X129037619Y-93338094D02*
X128942380Y-93480952D01*
X128942380Y-94433332D02*
X128418571Y-94433332D01*
X128418571Y-94433332D02*
X128323333Y-94385713D01*
X128323333Y-94385713D02*
X128275714Y-94290475D01*
X128275714Y-94290475D02*
X128275714Y-94099999D01*
X128275714Y-94099999D02*
X128323333Y-94004761D01*
X128894761Y-94433332D02*
X128942380Y-94338094D01*
X128942380Y-94338094D02*
X128942380Y-94099999D01*
X128942380Y-94099999D02*
X128894761Y-94004761D01*
X128894761Y-94004761D02*
X128799523Y-93957142D01*
X128799523Y-93957142D02*
X128704285Y-93957142D01*
X128704285Y-93957142D02*
X128609047Y-94004761D01*
X128609047Y-94004761D02*
X128561428Y-94099999D01*
X128561428Y-94099999D02*
X128561428Y-94338094D01*
X128561428Y-94338094D02*
X128513809Y-94433332D01*
X128275714Y-94814285D02*
X128942380Y-95052380D01*
X128942380Y-95052380D02*
X128275714Y-95290475D01*
X129037619Y-95433333D02*
X129037619Y-96195237D01*
X128275714Y-96433333D02*
X129275714Y-96433333D01*
X128323333Y-96433333D02*
X128275714Y-96528571D01*
X128275714Y-96528571D02*
X128275714Y-96719047D01*
X128275714Y-96719047D02*
X128323333Y-96814285D01*
X128323333Y-96814285D02*
X128370952Y-96861904D01*
X128370952Y-96861904D02*
X128466190Y-96909523D01*
X128466190Y-96909523D02*
X128751904Y-96909523D01*
X128751904Y-96909523D02*
X128847142Y-96861904D01*
X128847142Y-96861904D02*
X128894761Y-96814285D01*
X128894761Y-96814285D02*
X128942380Y-96719047D01*
X128942380Y-96719047D02*
X128942380Y-96528571D01*
X128942380Y-96528571D02*
X128894761Y-96433333D01*
X128275714Y-97766666D02*
X128942380Y-97766666D01*
X128275714Y-97338095D02*
X128799523Y-97338095D01*
X128799523Y-97338095D02*
X128894761Y-97385714D01*
X128894761Y-97385714D02*
X128942380Y-97480952D01*
X128942380Y-97480952D02*
X128942380Y-97623809D01*
X128942380Y-97623809D02*
X128894761Y-97719047D01*
X128894761Y-97719047D02*
X128847142Y-97766666D01*
X128942380Y-98242857D02*
X127942380Y-98242857D01*
X128323333Y-98242857D02*
X128275714Y-98338095D01*
X128275714Y-98338095D02*
X128275714Y-98528571D01*
X128275714Y-98528571D02*
X128323333Y-98623809D01*
X128323333Y-98623809D02*
X128370952Y-98671428D01*
X128370952Y-98671428D02*
X128466190Y-98719047D01*
X128466190Y-98719047D02*
X128751904Y-98719047D01*
X128751904Y-98719047D02*
X128847142Y-98671428D01*
X128847142Y-98671428D02*
X128894761Y-98623809D01*
X128894761Y-98623809D02*
X128942380Y-98528571D01*
X128942380Y-98528571D02*
X128942380Y-98338095D01*
X128942380Y-98338095D02*
X128894761Y-98242857D01*
X128894761Y-99100000D02*
X128942380Y-99195238D01*
X128942380Y-99195238D02*
X128942380Y-99385714D01*
X128942380Y-99385714D02*
X128894761Y-99480952D01*
X128894761Y-99480952D02*
X128799523Y-99528571D01*
X128799523Y-99528571D02*
X128751904Y-99528571D01*
X128751904Y-99528571D02*
X128656666Y-99480952D01*
X128656666Y-99480952D02*
X128609047Y-99385714D01*
X128609047Y-99385714D02*
X128609047Y-99242857D01*
X128609047Y-99242857D02*
X128561428Y-99147619D01*
X128561428Y-99147619D02*
X128466190Y-99100000D01*
X128466190Y-99100000D02*
X128418571Y-99100000D01*
X128418571Y-99100000D02*
X128323333Y-99147619D01*
X128323333Y-99147619D02*
X128275714Y-99242857D01*
X128275714Y-99242857D02*
X128275714Y-99385714D01*
X128275714Y-99385714D02*
X128323333Y-99480952D01*
X129562380Y-94814286D02*
X129562380Y-95480952D01*
X129562380Y-95480952D02*
X130562380Y-95052381D01*
X129990952Y-96004762D02*
X129943333Y-95909524D01*
X129943333Y-95909524D02*
X129895714Y-95861905D01*
X129895714Y-95861905D02*
X129800476Y-95814286D01*
X129800476Y-95814286D02*
X129752857Y-95814286D01*
X129752857Y-95814286D02*
X129657619Y-95861905D01*
X129657619Y-95861905D02*
X129610000Y-95909524D01*
X129610000Y-95909524D02*
X129562380Y-96004762D01*
X129562380Y-96004762D02*
X129562380Y-96195238D01*
X129562380Y-96195238D02*
X129610000Y-96290476D01*
X129610000Y-96290476D02*
X129657619Y-96338095D01*
X129657619Y-96338095D02*
X129752857Y-96385714D01*
X129752857Y-96385714D02*
X129800476Y-96385714D01*
X129800476Y-96385714D02*
X129895714Y-96338095D01*
X129895714Y-96338095D02*
X129943333Y-96290476D01*
X129943333Y-96290476D02*
X129990952Y-96195238D01*
X129990952Y-96195238D02*
X129990952Y-96004762D01*
X129990952Y-96004762D02*
X130038571Y-95909524D01*
X130038571Y-95909524D02*
X130086190Y-95861905D01*
X130086190Y-95861905D02*
X130181428Y-95814286D01*
X130181428Y-95814286D02*
X130371904Y-95814286D01*
X130371904Y-95814286D02*
X130467142Y-95861905D01*
X130467142Y-95861905D02*
X130514761Y-95909524D01*
X130514761Y-95909524D02*
X130562380Y-96004762D01*
X130562380Y-96004762D02*
X130562380Y-96195238D01*
X130562380Y-96195238D02*
X130514761Y-96290476D01*
X130514761Y-96290476D02*
X130467142Y-96338095D01*
X130467142Y-96338095D02*
X130371904Y-96385714D01*
X130371904Y-96385714D02*
X130181428Y-96385714D01*
X130181428Y-96385714D02*
X130086190Y-96338095D01*
X130086190Y-96338095D02*
X130038571Y-96290476D01*
X130038571Y-96290476D02*
X129990952Y-96195238D01*
X129562380Y-96719048D02*
X129562380Y-97385714D01*
X129562380Y-97385714D02*
X130562380Y-96957143D01*
X131515714Y-95385714D02*
X132182380Y-95623809D01*
X132182380Y-95623809D02*
X131515714Y-95861904D01*
X132182380Y-96766666D02*
X132182380Y-96195238D01*
X132182380Y-96480952D02*
X131182380Y-96480952D01*
X131182380Y-96480952D02*
X131325238Y-96385714D01*
X131325238Y-96385714D02*
X131420476Y-96290476D01*
X131420476Y-96290476D02*
X131468095Y-96195238D01*
X157261904Y-95815714D02*
X157261904Y-96672857D01*
X157261904Y-96672857D02*
X157309523Y-96768095D01*
X157309523Y-96768095D02*
X157404761Y-96815714D01*
X157404761Y-96815714D02*
X157452380Y-96815714D01*
X157261904Y-95482380D02*
X157309523Y-95530000D01*
X157309523Y-95530000D02*
X157261904Y-95577619D01*
X157261904Y-95577619D02*
X157214285Y-95530000D01*
X157214285Y-95530000D02*
X157261904Y-95482380D01*
X157261904Y-95482380D02*
X157261904Y-95577619D01*
X156642857Y-96482380D02*
X156738095Y-96434761D01*
X156738095Y-96434761D02*
X156785714Y-96339523D01*
X156785714Y-96339523D02*
X156785714Y-95482380D01*
X155833333Y-96434761D02*
X155928571Y-96482380D01*
X155928571Y-96482380D02*
X156119047Y-96482380D01*
X156119047Y-96482380D02*
X156214285Y-96434761D01*
X156214285Y-96434761D02*
X156261904Y-96387142D01*
X156261904Y-96387142D02*
X156309523Y-96291904D01*
X156309523Y-96291904D02*
X156309523Y-96006190D01*
X156309523Y-96006190D02*
X156261904Y-95910952D01*
X156261904Y-95910952D02*
X156214285Y-95863333D01*
X156214285Y-95863333D02*
X156119047Y-95815714D01*
X156119047Y-95815714D02*
X155928571Y-95815714D01*
X155928571Y-95815714D02*
X155833333Y-95863333D01*
X155404761Y-95815714D02*
X155404761Y-96672857D01*
X155404761Y-96672857D02*
X155452380Y-96768095D01*
X155452380Y-96768095D02*
X155547618Y-96815714D01*
X155547618Y-96815714D02*
X155595237Y-96815714D01*
X155404761Y-95482380D02*
X155452380Y-95530000D01*
X155452380Y-95530000D02*
X155404761Y-95577619D01*
X155404761Y-95577619D02*
X155357142Y-95530000D01*
X155357142Y-95530000D02*
X155404761Y-95482380D01*
X155404761Y-95482380D02*
X155404761Y-95577619D01*
X154785714Y-96482380D02*
X154880952Y-96434761D01*
X154880952Y-96434761D02*
X154928571Y-96339523D01*
X154928571Y-96339523D02*
X154928571Y-95482380D01*
X153976190Y-96434761D02*
X154071428Y-96482380D01*
X154071428Y-96482380D02*
X154261904Y-96482380D01*
X154261904Y-96482380D02*
X154357142Y-96434761D01*
X154357142Y-96434761D02*
X154404761Y-96387142D01*
X154404761Y-96387142D02*
X154452380Y-96291904D01*
X154452380Y-96291904D02*
X154452380Y-96006190D01*
X154452380Y-96006190D02*
X154404761Y-95910952D01*
X154404761Y-95910952D02*
X154357142Y-95863333D01*
X154357142Y-95863333D02*
X154261904Y-95815714D01*
X154261904Y-95815714D02*
X154071428Y-95815714D01*
X154071428Y-95815714D02*
X153976190Y-95863333D01*
X153547618Y-95815714D02*
X153547618Y-96672857D01*
X153547618Y-96672857D02*
X153595237Y-96768095D01*
X153595237Y-96768095D02*
X153690475Y-96815714D01*
X153690475Y-96815714D02*
X153738094Y-96815714D01*
X153547618Y-95482380D02*
X153595237Y-95530000D01*
X153595237Y-95530000D02*
X153547618Y-95577619D01*
X153547618Y-95577619D02*
X153499999Y-95530000D01*
X153499999Y-95530000D02*
X153547618Y-95482380D01*
X153547618Y-95482380D02*
X153547618Y-95577619D01*
X152928571Y-96482380D02*
X153023809Y-96434761D01*
X153023809Y-96434761D02*
X153071428Y-96339523D01*
X153071428Y-96339523D02*
X153071428Y-95482380D01*
X152119047Y-96434761D02*
X152214285Y-96482380D01*
X152214285Y-96482380D02*
X152404761Y-96482380D01*
X152404761Y-96482380D02*
X152499999Y-96434761D01*
X152499999Y-96434761D02*
X152547618Y-96387142D01*
X152547618Y-96387142D02*
X152595237Y-96291904D01*
X152595237Y-96291904D02*
X152595237Y-96006190D01*
X152595237Y-96006190D02*
X152547618Y-95910952D01*
X152547618Y-95910952D02*
X152499999Y-95863333D01*
X152499999Y-95863333D02*
X152404761Y-95815714D01*
X152404761Y-95815714D02*
X152214285Y-95815714D01*
X152214285Y-95815714D02*
X152119047Y-95863333D01*
X151690475Y-95815714D02*
X151690475Y-96672857D01*
X151690475Y-96672857D02*
X151738094Y-96768095D01*
X151738094Y-96768095D02*
X151833332Y-96815714D01*
X151833332Y-96815714D02*
X151880951Y-96815714D01*
X151690475Y-95482380D02*
X151738094Y-95530000D01*
X151738094Y-95530000D02*
X151690475Y-95577619D01*
X151690475Y-95577619D02*
X151642856Y-95530000D01*
X151642856Y-95530000D02*
X151690475Y-95482380D01*
X151690475Y-95482380D02*
X151690475Y-95577619D01*
X151071428Y-96482380D02*
X151166666Y-96434761D01*
X151166666Y-96434761D02*
X151214285Y-96339523D01*
X151214285Y-96339523D02*
X151214285Y-95482380D01*
X150261904Y-96434761D02*
X150357142Y-96482380D01*
X150357142Y-96482380D02*
X150547618Y-96482380D01*
X150547618Y-96482380D02*
X150642856Y-96434761D01*
X150642856Y-96434761D02*
X150690475Y-96387142D01*
X150690475Y-96387142D02*
X150738094Y-96291904D01*
X150738094Y-96291904D02*
X150738094Y-96006190D01*
X150738094Y-96006190D02*
X150690475Y-95910952D01*
X150690475Y-95910952D02*
X150642856Y-95863333D01*
X150642856Y-95863333D02*
X150547618Y-95815714D01*
X150547618Y-95815714D02*
X150357142Y-95815714D01*
X150357142Y-95815714D02*
X150261904Y-95863333D01*
D11*
X146830000Y-93570000D02*
X146830000Y-98770000D01*
X141690000Y-93570000D02*
X146830000Y-93570000D01*
X141690000Y-93570000D02*
X141690000Y-96170000D01*
X140420000Y-93570000D02*
X139090000Y-93570000D01*
X139090000Y-93570000D02*
X139090000Y-94900000D01*
X141690000Y-96170000D02*
X139090000Y-96170000D01*
X139090000Y-96170000D02*
X139090000Y-98770000D01*
X139090000Y-98770000D02*
X146830000Y-98770000D01*
%LPC*%
D12*
X140419999Y-94899999D03*
D13*
X140419999Y-97439999D03*
X142959999Y-94899999D03*
X142959999Y-97439999D03*
X145499999Y-94899999D03*
X145499999Y-97439999D03*
M02*
