%TF.GenerationSoftware,KiCad,Pcbnew,(6.99.0-2452-gdb4f2d9dd8)*%
%TF.CreationDate,2022-07-19T11:44:13+04:00*%
%TF.ProjectId,787,3738372e-6b69-4636-9164-5f7063625858,rev?*%
%TF.SameCoordinates,Original*%
%TF.FileFunction,Copper,L1,Top*%
%TF.FilePolarity,Positive*%
%FSLAX46Y46*%
G04 Gerber Fmt 4.6, Leading zero omitted, Abs format (unit mm)*
G04 Created by KiCad (PCBNEW (6.99.0-2452-gdb4f2d9dd8)) date 2022-07-19 11:44:13*
%MOMM*%
%LPD*%
G01*
G04 APERTURE LIST*
%TA.AperFunction,ComponentPad*%
%ADD10R,1.700000X1.700000*%
%TD*%
%TA.AperFunction,ComponentPad*%
%ADD11O,1.700000X1.700000*%
%TD*%
G04 APERTURE END LIST*
D10*
X140419999Y-94899999D03*
D11*
X140419999Y-97439999D03*
X142959999Y-94899999D03*
X142959999Y-97439999D03*
X145499999Y-94899999D03*
X145499999Y-97439999D03*
%TA.AperFunction,NonConductor*%
G36*
X144313226Y-95575670D02*
G01*
X144335483Y-95601357D01*
X144424278Y-95737268D01*
X144427803Y-95741097D01*
X144427806Y-95741101D01*
X144513286Y-95833956D01*
X144576760Y-95902906D01*
X144580879Y-95906112D01*
X144739946Y-96029920D01*
X144754424Y-96041189D01*
X144759005Y-96043668D01*
X144787680Y-96059186D01*
X144838071Y-96109199D01*
X144853423Y-96178516D01*
X144828863Y-96245129D01*
X144787681Y-96280813D01*
X144754424Y-96298811D01*
X144750313Y-96302010D01*
X144750311Y-96302012D01*
X144626757Y-96398179D01*
X144576760Y-96437094D01*
X144573228Y-96440931D01*
X144427806Y-96598899D01*
X144427803Y-96598903D01*
X144424278Y-96602732D01*
X144421427Y-96607096D01*
X144335483Y-96738643D01*
X144281479Y-96784732D01*
X144211132Y-96794307D01*
X144146774Y-96764330D01*
X144124517Y-96738643D01*
X144038573Y-96607096D01*
X144035722Y-96602732D01*
X144032197Y-96598903D01*
X144032194Y-96598899D01*
X143886772Y-96440931D01*
X143883240Y-96437094D01*
X143833243Y-96398179D01*
X143709689Y-96302012D01*
X143709687Y-96302010D01*
X143705576Y-96298811D01*
X143672320Y-96280814D01*
X143621929Y-96230801D01*
X143606577Y-96161484D01*
X143631137Y-96094871D01*
X143672320Y-96059186D01*
X143700995Y-96043668D01*
X143705576Y-96041189D01*
X143720055Y-96029920D01*
X143879121Y-95906112D01*
X143883240Y-95902906D01*
X143946714Y-95833956D01*
X144032194Y-95741101D01*
X144032197Y-95741097D01*
X144035722Y-95737268D01*
X144124517Y-95601357D01*
X144178521Y-95555268D01*
X144248868Y-95545693D01*
X144313226Y-95575670D01*
G37*
%TD.AperFunction*%
%TA.AperFunction,NonConductor*%
G36*
X141943439Y-95811388D02*
G01*
X141975755Y-95836638D01*
X142006552Y-95870092D01*
X142036760Y-95902906D01*
X142040879Y-95906112D01*
X142199946Y-96029920D01*
X142214424Y-96041189D01*
X142219005Y-96043668D01*
X142247680Y-96059186D01*
X142298071Y-96109199D01*
X142313423Y-96178516D01*
X142288863Y-96245129D01*
X142247681Y-96280813D01*
X142214424Y-96298811D01*
X142210313Y-96302010D01*
X142210311Y-96302012D01*
X142086757Y-96398179D01*
X142036760Y-96437094D01*
X142033228Y-96440931D01*
X141887806Y-96598899D01*
X141887803Y-96598903D01*
X141884278Y-96602732D01*
X141881427Y-96607096D01*
X141795483Y-96738643D01*
X141741479Y-96784732D01*
X141671132Y-96794307D01*
X141606774Y-96764330D01*
X141584517Y-96738643D01*
X141498573Y-96607096D01*
X141495722Y-96602732D01*
X141492197Y-96598903D01*
X141492194Y-96598899D01*
X141352525Y-96447180D01*
X141321104Y-96383515D01*
X141329091Y-96312969D01*
X141373949Y-96257940D01*
X141401191Y-96243787D01*
X141516204Y-96200889D01*
X141528536Y-96191658D01*
X141626050Y-96118659D01*
X141633261Y-96113261D01*
X141663041Y-96073480D01*
X141715489Y-96003418D01*
X141715490Y-96003416D01*
X141720889Y-95996204D01*
X141764998Y-95877944D01*
X141807545Y-95821108D01*
X141874065Y-95796297D01*
X141943439Y-95811388D01*
G37*
%TD.AperFunction*%
%TA.AperFunction,NonConductor*%
G36*
X145315111Y-64690880D02*
G01*
X145437737Y-64691679D01*
X145505331Y-64692120D01*
X145507620Y-64692157D01*
X145669074Y-64696220D01*
X145672364Y-64696346D01*
X145804934Y-64703163D01*
X145809853Y-64703513D01*
X145888013Y-64710625D01*
X145954040Y-64736719D01*
X145995479Y-64794367D01*
X145999172Y-64865267D01*
X145975516Y-64914148D01*
X145969301Y-64922026D01*
X145968425Y-64923122D01*
X145968348Y-64923218D01*
X145713969Y-65238284D01*
X145713504Y-65238858D01*
X145350222Y-65683281D01*
X144917030Y-66209104D01*
X144913647Y-66206317D01*
X144913636Y-66206327D01*
X144917029Y-66209107D01*
X144692885Y-66482740D01*
X144690826Y-66481053D01*
X144690813Y-66481072D01*
X144692882Y-66482742D01*
X144692790Y-66482856D01*
X144692760Y-66482893D01*
X144690704Y-66481226D01*
X144690698Y-66481235D01*
X144692760Y-66482894D01*
X144478868Y-66748818D01*
X144477910Y-66748048D01*
X144477770Y-66748204D01*
X144478744Y-66748973D01*
X144280132Y-67000598D01*
X144278280Y-66999136D01*
X144278269Y-66999148D01*
X144280130Y-67000599D01*
X144280084Y-67000658D01*
X144280011Y-67000751D01*
X144278152Y-66999291D01*
X144278138Y-66999308D01*
X144280010Y-67000754D01*
X144101706Y-67231494D01*
X144098902Y-67229327D01*
X144098880Y-67229366D01*
X144101702Y-67231496D01*
X144101619Y-67231606D01*
X144101586Y-67231649D01*
X144098798Y-67229510D01*
X144098781Y-67229540D01*
X144101586Y-67231651D01*
X143948610Y-67434923D01*
X143947470Y-67434065D01*
X143947342Y-67434248D01*
X143948493Y-67435082D01*
X143825872Y-67604304D01*
X143824291Y-67603158D01*
X143824259Y-67603203D01*
X143825866Y-67604308D01*
X143825822Y-67604372D01*
X143825761Y-67604457D01*
X143824178Y-67603321D01*
X143824144Y-67603370D01*
X143825759Y-67604466D01*
X143738519Y-67733049D01*
X143737284Y-67732211D01*
X143737141Y-67732434D01*
X143738413Y-67733213D01*
X143709670Y-67780138D01*
X143708904Y-67779669D01*
X143708871Y-67779729D01*
X143709659Y-67780148D01*
X143709625Y-67780212D01*
X143709577Y-67780291D01*
X143708816Y-67779828D01*
X143708780Y-67779893D01*
X143709574Y-67780310D01*
X143691551Y-67814605D01*
X143691072Y-67814353D01*
X143690968Y-67814567D01*
X143691466Y-67814782D01*
X143374803Y-68549393D01*
X143370263Y-68547436D01*
X143370256Y-68547458D01*
X143374802Y-68549394D01*
X142783810Y-69936758D01*
X139298596Y-78081827D01*
X136599620Y-84374825D01*
X136599617Y-84374826D01*
X136599549Y-84374992D01*
X136599501Y-84375103D01*
X136599501Y-84375108D01*
X136599500Y-84375110D01*
X136599500Y-84375180D01*
X136599497Y-84375410D01*
X136599500Y-84375413D01*
X136599500Y-92999901D01*
X136599459Y-93000000D01*
X136599500Y-93000099D01*
X136599617Y-93000383D01*
X136600000Y-93000541D01*
X136600099Y-93000500D01*
X149818045Y-93000500D01*
X149843314Y-93003060D01*
X150276221Y-93091678D01*
X151716739Y-93386558D01*
X151792145Y-93401994D01*
X151792146Y-93401994D01*
X151792219Y-93402009D01*
X151792338Y-93402033D01*
X151792339Y-93402033D01*
X152572249Y-93558451D01*
X152572250Y-93558452D01*
X152572965Y-93558595D01*
X152572925Y-93558793D01*
X152573110Y-93558886D01*
X152573159Y-93558632D01*
X153248959Y-93688159D01*
X153248945Y-93688234D01*
X153248948Y-93688234D01*
X153248961Y-93688160D01*
X153249040Y-93688174D01*
X153249031Y-93688223D01*
X153249199Y-93688202D01*
X153490784Y-93731336D01*
X153747479Y-93777168D01*
X153747645Y-93777198D01*
X153747649Y-93777198D01*
X153747783Y-93777222D01*
X153747787Y-93777225D01*
X153747872Y-93777238D01*
X153747971Y-93777256D01*
X153747619Y-93779191D01*
X153747672Y-93779202D01*
X153747977Y-93777255D01*
X153908156Y-93802362D01*
X153907956Y-93803636D01*
X153908021Y-93803645D01*
X153908167Y-93802368D01*
X153908263Y-93802379D01*
X153908341Y-93802391D01*
X153908145Y-93803663D01*
X153908207Y-93803671D01*
X153908351Y-93802389D01*
X153997124Y-93812331D01*
X153997056Y-93812935D01*
X153997127Y-93812941D01*
X153997143Y-93812340D01*
X153997217Y-93812342D01*
X153997298Y-93812351D01*
X153997232Y-93812949D01*
X153997304Y-93812955D01*
X153997320Y-93812345D01*
X154040937Y-93813459D01*
X154040897Y-93815015D01*
X154040963Y-93815015D01*
X154040947Y-93813463D01*
X154041047Y-93813462D01*
X154041127Y-93813464D01*
X154041088Y-93815016D01*
X154041151Y-93815017D01*
X154041135Y-93813461D01*
X154083356Y-93813024D01*
X154083367Y-93814047D01*
X154083438Y-93814045D01*
X154083371Y-93813029D01*
X154083462Y-93813023D01*
X154083540Y-93813022D01*
X154083553Y-93814042D01*
X154083622Y-93814039D01*
X154083553Y-93813017D01*
X154125208Y-93810187D01*
X154125248Y-93810778D01*
X154125488Y-93810754D01*
X154125403Y-93810167D01*
X154167305Y-93804107D01*
X154167346Y-93804388D01*
X154167564Y-93804345D01*
X154167499Y-93804069D01*
X154210449Y-93793938D01*
X154210603Y-93794591D01*
X154210681Y-93794569D01*
X154210474Y-93793940D01*
X154210550Y-93793915D01*
X154210620Y-93793898D01*
X154210776Y-93794542D01*
X154210851Y-93794521D01*
X154210638Y-93793885D01*
X154255459Y-93778837D01*
X154255586Y-93779215D01*
X154255803Y-93779134D01*
X154255642Y-93778767D01*
X154303138Y-93757964D01*
X154303423Y-93758614D01*
X154303487Y-93758583D01*
X154303157Y-93757962D01*
X154303221Y-93757928D01*
X154303300Y-93757893D01*
X154303585Y-93758536D01*
X154303653Y-93758503D01*
X154303316Y-93757877D01*
X154354295Y-93730478D01*
X154354756Y-93731336D01*
X154354830Y-93731294D01*
X154354315Y-93730475D01*
X154354393Y-93730426D01*
X154354456Y-93730392D01*
X154354916Y-93731244D01*
X154354986Y-93731205D01*
X154354466Y-93730380D01*
X154409752Y-93695537D01*
X154410391Y-93696551D01*
X154410458Y-93696508D01*
X154409767Y-93695534D01*
X154409836Y-93695485D01*
X154409907Y-93695440D01*
X154410547Y-93696450D01*
X154410614Y-93696406D01*
X154409916Y-93695428D01*
X154470316Y-93652301D01*
X154470989Y-93653243D01*
X154471190Y-93653093D01*
X154470473Y-93652183D01*
X154536799Y-93599927D01*
X154537745Y-93601128D01*
X154537797Y-93601086D01*
X154536808Y-93599924D01*
X154536875Y-93599867D01*
X154536946Y-93599811D01*
X154537890Y-93601008D01*
X154537942Y-93600966D01*
X154536951Y-93599802D01*
X154610017Y-93537574D01*
X154610940Y-93538657D01*
X154610977Y-93538623D01*
X154610024Y-93537571D01*
X154610088Y-93537513D01*
X154610162Y-93537450D01*
X154611081Y-93538529D01*
X154611119Y-93538494D01*
X154610166Y-93537442D01*
X154690785Y-93464398D01*
X154691916Y-93465646D01*
X154691950Y-93465615D01*
X154690790Y-93464396D01*
X154690851Y-93464338D01*
X154690926Y-93464270D01*
X154692056Y-93465517D01*
X154692091Y-93465485D01*
X154690929Y-93464264D01*
X154779915Y-93379559D01*
X154781483Y-93381206D01*
X154781660Y-93381039D01*
X154780057Y-93379420D01*
X154878219Y-93282215D01*
X154878221Y-93282213D01*
X154878223Y-93282212D01*
X154878264Y-93282170D01*
X154878357Y-93282078D01*
X154878359Y-93282073D01*
X154986514Y-93171520D01*
X154989039Y-93173990D01*
X154989068Y-93173949D01*
X154986519Y-93171518D01*
X155105612Y-93046634D01*
X155108733Y-93049610D01*
X155108762Y-93049571D01*
X155105616Y-93046632D01*
X155236328Y-92906713D01*
X155236501Y-92906875D01*
X155236605Y-92906699D01*
X155236462Y-92906567D01*
X155379604Y-92750774D01*
X155382936Y-92753835D01*
X155382960Y-92753812D01*
X155379605Y-92750771D01*
X155535989Y-92578258D01*
X155538618Y-92580641D01*
X155538634Y-92580627D01*
X155535990Y-92578256D01*
X155706297Y-92388329D01*
X155709932Y-92391588D01*
X155709945Y-92391569D01*
X155706299Y-92388328D01*
X155891608Y-92179851D01*
X155892013Y-92180211D01*
X155892015Y-92180207D01*
X155891609Y-92179850D01*
X155891675Y-92179775D01*
X155891739Y-92179703D01*
X155892124Y-92180046D01*
X155892126Y-92180043D01*
X155891739Y-92179702D01*
X156310215Y-91704169D01*
X156312811Y-91706454D01*
X156312825Y-91706442D01*
X156310216Y-91704167D01*
X156797922Y-91144914D01*
X156801692Y-91148202D01*
X156801702Y-91148191D01*
X156797922Y-91144913D01*
X157361232Y-90495351D01*
X157365202Y-90498794D01*
X157365209Y-90498783D01*
X157361234Y-90495350D01*
X158741465Y-88897449D01*
X158745288Y-88900751D01*
X158745293Y-88900745D01*
X158741465Y-88897448D01*
X160211254Y-87190996D01*
X160215197Y-87194392D01*
X160215208Y-87194376D01*
X160211256Y-87190995D01*
X160964551Y-86310527D01*
X160964869Y-86310156D01*
X161001489Y-86267688D01*
X161005127Y-86263649D01*
X161040396Y-86226148D01*
X161043801Y-86222665D01*
X161060566Y-86206166D01*
X161063162Y-86203683D01*
X161080673Y-86187406D01*
X161083499Y-86184858D01*
X161101336Y-86169255D01*
X161104355Y-86166696D01*
X161122722Y-86151621D01*
X161125876Y-86149116D01*
X161127902Y-86147559D01*
X161144863Y-86134523D01*
X161148094Y-86132122D01*
X161167940Y-86117862D01*
X161171241Y-86115568D01*
X161192064Y-86101591D01*
X161195350Y-86099459D01*
X161217347Y-86085666D01*
X161220566Y-86083714D01*
X161243887Y-86070044D01*
X161246974Y-86068293D01*
X161271818Y-86054664D01*
X161274776Y-86053092D01*
X161275103Y-86052924D01*
X161301301Y-86039449D01*
X161304071Y-86038069D01*
X161331722Y-86024704D01*
X161335557Y-86022929D01*
X161398682Y-85994989D01*
X161403047Y-85993155D01*
X161474148Y-85964847D01*
X161477665Y-85963508D01*
X161558362Y-85934195D01*
X161561209Y-85933200D01*
X161652243Y-85902583D01*
X161654431Y-85901869D01*
X161756848Y-85869516D01*
X161758478Y-85869014D01*
X161872908Y-85834614D01*
X161874146Y-85834249D01*
X162001665Y-85797335D01*
X162002551Y-85797082D01*
X162143494Y-85757397D01*
X162144512Y-85757115D01*
X162332224Y-85705956D01*
X162333620Y-85705584D01*
X162510242Y-85659616D01*
X162511768Y-85659229D01*
X162558856Y-85647600D01*
X162673295Y-85619338D01*
X162674848Y-85618967D01*
X162816875Y-85586124D01*
X162819245Y-85585601D01*
X162937153Y-85560795D01*
X162941010Y-85560047D01*
X162942292Y-85559819D01*
X163012863Y-85567584D01*
X163068033Y-85612270D01*
X163090286Y-85679689D01*
X163085477Y-85718588D01*
X163052219Y-85834614D01*
X163019719Y-85947993D01*
X163018796Y-85951064D01*
X162858642Y-86460454D01*
X162858234Y-86461728D01*
X162776518Y-86712307D01*
X162620414Y-87190996D01*
X162618655Y-87196389D01*
X162618399Y-87197163D01*
X162325335Y-88073655D01*
X161881808Y-89400148D01*
X161881635Y-89400662D01*
X160939087Y-92179775D01*
X160769573Y-92679589D01*
X160766051Y-92678394D01*
X160766049Y-92678402D01*
X160769572Y-92679590D01*
X160458457Y-93601854D01*
X160455258Y-93600775D01*
X160455253Y-93600800D01*
X160458455Y-93601857D01*
X160207663Y-94361347D01*
X160204112Y-94360174D01*
X160204092Y-94360216D01*
X160207663Y-94361352D01*
X160069998Y-94793920D01*
X160042963Y-94878867D01*
X160042959Y-94878872D01*
X160042928Y-94878978D01*
X160042905Y-94879050D01*
X160041581Y-94878627D01*
X160041569Y-94878663D01*
X160042905Y-94879055D01*
X160042904Y-94879057D01*
X160000809Y-95022564D01*
X160000281Y-95022409D01*
X160000266Y-95022470D01*
X160000798Y-95022581D01*
X160000783Y-95022653D01*
X160000760Y-95022732D01*
X160000238Y-95022580D01*
X160000223Y-95022643D01*
X160000762Y-95022754D01*
X159989746Y-95076345D01*
X159989690Y-95076418D01*
X159989706Y-95076539D01*
X159989703Y-95076553D01*
X159989718Y-95076632D01*
X159989744Y-95076828D01*
X159989758Y-95076839D01*
X159989761Y-95076855D01*
X159989916Y-95076960D01*
X159989988Y-95077015D01*
X159990004Y-95077019D01*
X159990104Y-95077087D01*
X159990194Y-95077070D01*
X160003462Y-95080611D01*
X160003463Y-95080611D01*
X160108295Y-95108585D01*
X160107925Y-95109970D01*
X160108169Y-95110026D01*
X160108487Y-95108631D01*
X160405554Y-95176412D01*
X160405332Y-95177386D01*
X160405533Y-95177443D01*
X160405747Y-95176456D01*
X161302214Y-95370881D01*
X161302504Y-95370944D01*
X161302486Y-95371025D01*
X161302668Y-95371122D01*
X161302697Y-95370984D01*
X162211976Y-95560833D01*
X162211221Y-95564451D01*
X162211237Y-95564452D01*
X162211977Y-95560834D01*
X162212021Y-95560843D01*
X162212166Y-95560873D01*
X162211423Y-95564464D01*
X162211458Y-95564466D01*
X162212170Y-95560872D01*
X162524897Y-95622859D01*
X162524511Y-95624808D01*
X162524764Y-95624853D01*
X162525091Y-95622895D01*
X162585849Y-95633055D01*
X162649738Y-95664018D01*
X162686745Y-95724607D01*
X162690079Y-95741576D01*
X162690188Y-95742441D01*
X162690504Y-95745190D01*
X162693109Y-95770346D01*
X162693310Y-95772464D01*
X162695552Y-95798638D01*
X162695753Y-95800984D01*
X162695894Y-95802803D01*
X162697669Y-95827944D01*
X162698093Y-95833956D01*
X162698195Y-95835547D01*
X162699552Y-95859201D01*
X162700130Y-95869284D01*
X162700206Y-95870764D01*
X162701848Y-95906807D01*
X162701903Y-95908178D01*
X162703210Y-95945899D01*
X162703249Y-95947194D01*
X162704216Y-95986897D01*
X162704240Y-95988140D01*
X162704836Y-96029283D01*
X162704848Y-96030507D01*
X162705052Y-96073272D01*
X162705053Y-96073873D01*
X162705053Y-96398179D01*
X162685051Y-96466300D01*
X162631395Y-96512793D01*
X162604876Y-96521504D01*
X161365292Y-96781064D01*
X161364720Y-96778330D01*
X161364709Y-96778334D01*
X161365290Y-96781064D01*
X160842659Y-96892270D01*
X160841905Y-96888729D01*
X160841877Y-96888739D01*
X160842655Y-96892269D01*
X160410401Y-96987597D01*
X160410260Y-96986958D01*
X160410059Y-96987004D01*
X160410208Y-96987641D01*
X160113433Y-97056907D01*
X160113044Y-97055239D01*
X160112811Y-97055298D01*
X160113241Y-97056954D01*
X160029692Y-97078641D01*
X160029514Y-97077956D01*
X160029444Y-97077977D01*
X160029671Y-97078640D01*
X160029592Y-97078667D01*
X160029520Y-97078686D01*
X160029341Y-97078008D01*
X160029274Y-97078029D01*
X160029505Y-97078697D01*
X159996603Y-97090070D01*
X159996474Y-97090072D01*
X159996344Y-97090207D01*
X159996204Y-97090331D01*
X159996197Y-97090459D01*
X159995195Y-97093024D01*
X159995159Y-97093102D01*
X159995158Y-97093117D01*
X159995153Y-97093131D01*
X159995155Y-97093215D01*
X159994964Y-97098136D01*
X159994953Y-97098177D01*
X159994960Y-97098236D01*
X159994958Y-97098294D01*
X159994972Y-97098332D01*
X159995937Y-97106181D01*
X159997016Y-97114963D01*
X159996486Y-97115028D01*
X159996496Y-97115091D01*
X159997012Y-97114985D01*
X159997029Y-97115068D01*
X159997038Y-97115141D01*
X159996514Y-97115206D01*
X159996524Y-97115265D01*
X159997047Y-97115158D01*
X160002217Y-97140399D01*
X160001086Y-97140631D01*
X160001141Y-97140865D01*
X160002261Y-97140592D01*
X160010413Y-97173972D01*
X160010411Y-97173972D01*
X160010412Y-97173977D01*
X160010412Y-97173980D01*
X160010425Y-97174026D01*
X160010425Y-97174027D01*
X160010436Y-97174066D01*
X160010431Y-97174067D01*
X160010443Y-97174158D01*
X160010520Y-97174370D01*
X160023358Y-97220828D01*
X160035182Y-97263616D01*
X160034095Y-97263916D01*
X160034102Y-97263941D01*
X160035182Y-97263620D01*
X160035201Y-97263684D01*
X160035233Y-97263799D01*
X160034149Y-97264101D01*
X160034158Y-97264129D01*
X160035237Y-97263805D01*
X160070127Y-97380041D01*
X160066802Y-97381039D01*
X160066825Y-97381088D01*
X160070126Y-97380047D01*
X160114049Y-97519381D01*
X160111959Y-97520040D01*
X160111967Y-97520062D01*
X160114049Y-97519384D01*
X160114078Y-97519473D01*
X160114108Y-97519568D01*
X160112027Y-97520225D01*
X160112035Y-97520247D01*
X160114110Y-97519570D01*
X160165815Y-97677940D01*
X160161406Y-97679379D01*
X160161418Y-97679421D01*
X160165818Y-97677943D01*
X160224046Y-97851283D01*
X160220126Y-97852600D01*
X160220142Y-97852631D01*
X160224046Y-97851286D01*
X160287708Y-98036035D01*
X160287872Y-98036514D01*
X162009124Y-103097545D01*
X162009362Y-103098253D01*
X162808395Y-105494188D01*
X162808866Y-105495628D01*
X163096110Y-106392744D01*
X163097833Y-106463720D01*
X163060910Y-106524360D01*
X162997064Y-106555412D01*
X162958240Y-106555892D01*
X162955133Y-106555447D01*
X162949913Y-106554699D01*
X162946381Y-106554142D01*
X162891026Y-106544600D01*
X162888292Y-106544097D01*
X162829415Y-106532605D01*
X162825346Y-106531811D01*
X162823220Y-106531377D01*
X162773467Y-106520743D01*
X162753014Y-106516371D01*
X162751202Y-106515969D01*
X162674405Y-106498367D01*
X162672864Y-106498004D01*
X162617298Y-106484531D01*
X162589226Y-106477725D01*
X162587915Y-106477399D01*
X162498085Y-106454577D01*
X162496944Y-106454282D01*
X162401013Y-106428923D01*
X162399979Y-106428645D01*
X162328399Y-106409059D01*
X162298293Y-106400822D01*
X162297439Y-106400584D01*
X162189736Y-106370198D01*
X162189761Y-106370109D01*
X162189290Y-106370078D01*
X161269136Y-106106811D01*
X161208305Y-106067875D01*
X160964296Y-105784421D01*
X158955409Y-103450795D01*
X158956666Y-103449713D01*
X158956664Y-103449711D01*
X158955409Y-103450794D01*
X156624585Y-100750624D01*
X156628262Y-100747450D01*
X156628241Y-100747424D01*
X156624582Y-100750623D01*
X155861591Y-99877761D01*
X155862292Y-99877148D01*
X155862284Y-99877138D01*
X155861590Y-99877759D01*
X155861539Y-99877702D01*
X155861463Y-99877615D01*
X155862164Y-99877003D01*
X155862154Y-99876992D01*
X155861460Y-99877613D01*
X155308935Y-99259454D01*
X155310383Y-99258160D01*
X155310345Y-99258121D01*
X155308932Y-99259447D01*
X155308856Y-99259366D01*
X155308806Y-99259310D01*
X155310249Y-99258022D01*
X155310213Y-99257984D01*
X155308801Y-99259308D01*
X154923473Y-98848367D01*
X154924225Y-98847662D01*
X154924049Y-98847485D01*
X154923335Y-98848227D01*
X154838042Y-98766261D01*
X154661936Y-98597023D01*
X154662014Y-98596941D01*
X154661984Y-98596915D01*
X154661921Y-98596997D01*
X154661860Y-98596950D01*
X154661812Y-98596904D01*
X154661884Y-98596829D01*
X154661856Y-98596804D01*
X154661787Y-98596894D01*
X154655928Y-98592390D01*
X154644584Y-98583668D01*
X154497019Y-98470221D01*
X154481046Y-98457941D01*
X154481018Y-98457907D01*
X154480971Y-98457883D01*
X154480926Y-98457848D01*
X154480880Y-98457836D01*
X154337565Y-98383676D01*
X154337631Y-98383549D01*
X154337593Y-98383532D01*
X154337544Y-98383657D01*
X154337482Y-98383633D01*
X154337417Y-98383600D01*
X154337478Y-98383481D01*
X154337437Y-98383463D01*
X154337386Y-98383597D01*
X154327463Y-98379848D01*
X154327462Y-98379847D01*
X154318496Y-98376460D01*
X154318887Y-98375426D01*
X154318809Y-98375400D01*
X154318485Y-98376451D01*
X154318417Y-98376430D01*
X154318327Y-98376396D01*
X154318715Y-98375369D01*
X154318635Y-98375342D01*
X154318309Y-98376397D01*
X154297977Y-98370114D01*
X154298315Y-98369019D01*
X154298242Y-98368998D01*
X154297965Y-98370105D01*
X154297885Y-98370085D01*
X154297803Y-98370060D01*
X154298136Y-98368967D01*
X154298062Y-98368946D01*
X154297788Y-98370061D01*
X154275792Y-98364657D01*
X154276123Y-98363308D01*
X154276043Y-98363290D01*
X154275780Y-98364649D01*
X154275692Y-98364632D01*
X154275613Y-98364613D01*
X154275937Y-98363267D01*
X154275857Y-98363249D01*
X154275600Y-98364615D01*
X154251732Y-98360119D01*
X154251943Y-98359000D01*
X154251691Y-98358962D01*
X154251537Y-98360088D01*
X154225593Y-98356533D01*
X154225778Y-98355185D01*
X154225712Y-98355178D01*
X154225583Y-98356528D01*
X154225499Y-98356520D01*
X154225409Y-98356508D01*
X154225588Y-98355164D01*
X154225521Y-98355156D01*
X154225397Y-98356511D01*
X154197161Y-98353926D01*
X154197233Y-98353138D01*
X154196991Y-98353125D01*
X154196965Y-98353915D01*
X154132631Y-98351780D01*
X154132657Y-98351008D01*
X154132412Y-98351007D01*
X154132434Y-98351779D01*
X154056461Y-98353913D01*
X154056423Y-98352563D01*
X154056164Y-98352575D01*
X154056264Y-98353923D01*
X153967004Y-98360571D01*
X153966898Y-98359141D01*
X153966842Y-98359145D01*
X153966994Y-98360568D01*
X153966891Y-98360579D01*
X153966814Y-98360585D01*
X153966703Y-98359156D01*
X153966651Y-98359160D01*
X153966807Y-98360588D01*
X153862601Y-98371994D01*
X153862397Y-98370135D01*
X153862339Y-98370143D01*
X153862593Y-98371992D01*
X153862484Y-98372007D01*
X153862409Y-98372015D01*
X153862404Y-98372018D01*
X153862262Y-98372037D01*
X153862101Y-98372059D01*
X153862071Y-98372063D01*
X153741592Y-98388425D01*
X153741365Y-98386757D01*
X153741137Y-98386793D01*
X153741396Y-98388454D01*
X153602326Y-98410105D01*
X153602321Y-98410104D01*
X153602216Y-98410122D01*
X153602132Y-98410135D01*
X153602123Y-98410078D01*
X153602119Y-98410077D01*
X153602129Y-98410137D01*
X153443140Y-98437278D01*
X153442536Y-98433742D01*
X153442498Y-98433754D01*
X153443136Y-98437277D01*
X153442998Y-98437302D01*
X153442946Y-98437311D01*
X153442339Y-98433806D01*
X153442308Y-98433816D01*
X153442945Y-98437312D01*
X153262381Y-98470186D01*
X153262381Y-98470184D01*
X153262377Y-98470184D01*
X153262377Y-98470185D01*
X153262213Y-98470216D01*
X153262187Y-98470221D01*
X153261986Y-98470259D01*
X153058389Y-98509070D01*
X153058388Y-98509065D01*
X153058313Y-98509085D01*
X153058300Y-98509087D01*
X153058197Y-98509107D01*
X153057740Y-98506754D01*
X153057726Y-98506760D01*
X153058195Y-98509108D01*
X152574094Y-98605741D01*
X152573755Y-98604041D01*
X152573742Y-98604045D01*
X152574092Y-98605741D01*
X152573971Y-98605766D01*
X152573901Y-98605780D01*
X152573565Y-98604099D01*
X152573553Y-98604102D01*
X152573900Y-98605781D01*
X151976805Y-98729270D01*
X151975788Y-98724352D01*
X151975776Y-98724354D01*
X151976804Y-98729271D01*
X149906484Y-99162108D01*
X149866578Y-99170451D01*
X149840793Y-99173118D01*
X136600096Y-99173118D01*
X136599997Y-99173077D01*
X136599614Y-99173235D01*
X136599456Y-99173618D01*
X136599497Y-99173717D01*
X136599497Y-107694301D01*
X136599571Y-107694481D01*
X136865565Y-108347311D01*
X136902941Y-108439044D01*
X136900922Y-108439867D01*
X136900935Y-108439899D01*
X136902941Y-108439047D01*
X136902972Y-108439120D01*
X136903014Y-108439223D01*
X136900996Y-108440046D01*
X136901010Y-108440079D01*
X136903017Y-108439226D01*
X138085782Y-111222021D01*
X138082374Y-111223470D01*
X138082380Y-111223479D01*
X138085782Y-111222022D01*
X140503505Y-116867153D01*
X140503522Y-116867298D01*
X140503560Y-116867282D01*
X140503598Y-116867371D01*
X140503534Y-116867398D01*
X140503535Y-116867407D01*
X140503603Y-116867376D01*
X140777728Y-117461951D01*
X140778838Y-117464429D01*
X141036895Y-118057428D01*
X141037989Y-118060020D01*
X141522587Y-119245254D01*
X141522947Y-119246143D01*
X142457978Y-121583702D01*
X142456014Y-121584487D01*
X142456033Y-121584532D01*
X142457978Y-121583707D01*
X142458006Y-121583773D01*
X142458048Y-121583877D01*
X142456089Y-121584668D01*
X142456110Y-121584719D01*
X142458054Y-121583883D01*
X142704427Y-122156386D01*
X142702567Y-122157186D01*
X142702588Y-122157234D01*
X142704427Y-122156392D01*
X142704465Y-122156475D01*
X142704503Y-122156563D01*
X142704507Y-122156567D01*
X142704539Y-122156638D01*
X142962816Y-122722891D01*
X142961222Y-122723618D01*
X142961321Y-122723843D01*
X142962900Y-122723070D01*
X143236583Y-123282488D01*
X143236584Y-123282496D01*
X143236626Y-123282575D01*
X143236666Y-123282657D01*
X143236642Y-123282669D01*
X143236644Y-123282678D01*
X143236672Y-123282663D01*
X143529168Y-123834448D01*
X143527555Y-123835303D01*
X143527685Y-123835536D01*
X143529264Y-123834621D01*
X143844007Y-124378044D01*
X143843061Y-124378592D01*
X143843189Y-124378800D01*
X143844110Y-124378213D01*
X144184541Y-124912546D01*
X144184481Y-124912584D01*
X144184513Y-124912675D01*
X144184592Y-124912625D01*
X144184641Y-124912702D01*
X144184543Y-124912764D01*
X144184549Y-124912781D01*
X144184651Y-124912709D01*
X144554209Y-125437224D01*
X144553114Y-125437996D01*
X144553270Y-125438208D01*
X144554326Y-125437382D01*
X144956445Y-125951345D01*
X144954965Y-125952503D01*
X144954996Y-125952542D01*
X144956447Y-125951352D01*
X144956511Y-125951430D01*
X144956563Y-125951496D01*
X144955087Y-125952659D01*
X144955117Y-125952696D01*
X144956568Y-125951499D01*
X145947967Y-127152968D01*
X145975894Y-127218241D01*
X145964100Y-127288251D01*
X145916327Y-127340770D01*
X145854619Y-127359103D01*
X144499342Y-127400391D01*
X144426531Y-127379893D01*
X142843145Y-126344137D01*
X142843142Y-126344135D01*
X142843140Y-126344135D01*
X142843138Y-126344134D01*
X142244740Y-125952696D01*
X141247281Y-125300215D01*
X141212676Y-125266514D01*
X138398958Y-121203782D01*
X132150816Y-112181931D01*
X132153006Y-112180415D01*
X132153004Y-112180410D01*
X132150815Y-112181930D01*
X129701293Y-108655141D01*
X129703064Y-108653911D01*
X129703059Y-108653901D01*
X129701293Y-108655139D01*
X129701225Y-108655042D01*
X129701181Y-108654979D01*
X129702967Y-108653732D01*
X129702963Y-108653724D01*
X129701180Y-108654978D01*
X129549317Y-108439120D01*
X128614859Y-107110883D01*
X128614847Y-107110852D01*
X128614802Y-107110804D01*
X128614764Y-107110749D01*
X128614735Y-107110731D01*
X128606898Y-107102221D01*
X128607009Y-107102119D01*
X128606998Y-107102105D01*
X128606894Y-107102211D01*
X128606845Y-107102163D01*
X128606775Y-107102087D01*
X128606894Y-107101978D01*
X128606878Y-107101959D01*
X128606760Y-107102080D01*
X128598459Y-107093957D01*
X128599198Y-107093202D01*
X128599014Y-107093030D01*
X128598315Y-107093823D01*
X128589515Y-107086067D01*
X128590426Y-107085033D01*
X128590425Y-107085032D01*
X128590367Y-107084985D01*
X128589508Y-107086055D01*
X128589437Y-107085998D01*
X128589375Y-107085944D01*
X128590276Y-107084910D01*
X128590219Y-107084862D01*
X128589363Y-107085940D01*
X128580056Y-107078548D01*
X128580846Y-107077553D01*
X128580782Y-107077510D01*
X128580048Y-107078535D01*
X128579967Y-107078477D01*
X128579909Y-107078431D01*
X128580690Y-107077447D01*
X128580629Y-107077405D01*
X128579898Y-107078428D01*
X128570063Y-107071395D01*
X128570646Y-107070580D01*
X128570443Y-107070442D01*
X128569901Y-107071285D01*
X128559532Y-107064612D01*
X128560230Y-107063527D01*
X128560175Y-107063495D01*
X128559525Y-107064602D01*
X128559450Y-107064558D01*
X128559376Y-107064511D01*
X128560062Y-107063431D01*
X128560006Y-107063399D01*
X128559364Y-107064509D01*
X128548444Y-107058192D01*
X128549056Y-107057135D01*
X128548837Y-107057009D01*
X128548272Y-107058097D01*
X128536787Y-107052135D01*
X128537534Y-107050696D01*
X128537467Y-107050662D01*
X128536779Y-107052126D01*
X128536696Y-107052087D01*
X128536622Y-107052049D01*
X128537361Y-107050609D01*
X128537295Y-107050577D01*
X128536611Y-107052048D01*
X128524548Y-107046437D01*
X128525321Y-107044776D01*
X128525248Y-107044745D01*
X128524540Y-107046429D01*
X128524452Y-107046392D01*
X128524378Y-107046358D01*
X128525140Y-107044699D01*
X128525070Y-107044669D01*
X128524368Y-107046358D01*
X128511713Y-107041095D01*
X128512353Y-107039555D01*
X128512288Y-107039532D01*
X128511707Y-107041089D01*
X128511640Y-107041064D01*
X128511541Y-107041023D01*
X128512176Y-107039491D01*
X128512106Y-107039466D01*
X128511529Y-107041023D01*
X128498271Y-107036111D01*
X128498813Y-107034649D01*
X128498755Y-107034628D01*
X128498263Y-107036104D01*
X128498167Y-107036072D01*
X128498093Y-107036045D01*
X128498627Y-107034581D01*
X128498573Y-107034562D01*
X128498085Y-107036045D01*
X128484204Y-107031476D01*
X128484815Y-107029619D01*
X128484750Y-107029599D01*
X128484198Y-107031471D01*
X128484120Y-107031448D01*
X128484025Y-107031417D01*
X128484630Y-107029562D01*
X128484562Y-107029541D01*
X128484015Y-107031418D01*
X128469503Y-107027191D01*
X128469961Y-107025619D01*
X128469905Y-107025604D01*
X128469496Y-107027186D01*
X128469411Y-107027164D01*
X128469321Y-107027138D01*
X128469774Y-107025569D01*
X128469718Y-107025554D01*
X128469312Y-107027139D01*
X128454150Y-107023254D01*
X128454542Y-107021726D01*
X128454462Y-107021708D01*
X128454140Y-107023247D01*
X128454054Y-107023229D01*
X128453968Y-107023207D01*
X128454358Y-107021684D01*
X128454279Y-107021666D01*
X128453956Y-107023209D01*
X128421452Y-107016412D01*
X128421761Y-107014935D01*
X128421674Y-107014919D01*
X128421441Y-107016405D01*
X128421358Y-107016392D01*
X128421271Y-107016374D01*
X128421576Y-107014902D01*
X128421487Y-107014886D01*
X128421257Y-107016377D01*
X128385993Y-107010927D01*
X128386201Y-107009581D01*
X128386135Y-107009573D01*
X128385983Y-107010922D01*
X128385903Y-107010913D01*
X128385810Y-107010899D01*
X128386012Y-107009558D01*
X128385944Y-107009550D01*
X128385798Y-107010902D01*
X128347669Y-107006779D01*
X128347839Y-107005206D01*
X128347776Y-107005200D01*
X128347661Y-107006775D01*
X128347579Y-107006769D01*
X128347483Y-107006759D01*
X128347647Y-107005188D01*
X128347580Y-107005182D01*
X128347472Y-107006762D01*
X128306373Y-107003949D01*
X128306473Y-107002490D01*
X128306226Y-107002473D01*
X128306176Y-107003939D01*
X128261999Y-107002419D01*
X128262065Y-107000510D01*
X128261811Y-107000501D01*
X128261801Y-107002415D01*
X128214434Y-107002165D01*
X128214443Y-107000372D01*
X128214201Y-107000374D01*
X128214237Y-107002167D01*
X128163577Y-107003171D01*
X128163543Y-107001443D01*
X128163505Y-107001444D01*
X128163571Y-107003169D01*
X128163466Y-107003173D01*
X128163383Y-107003175D01*
X128163341Y-107001449D01*
X128163306Y-107001450D01*
X128163378Y-107003177D01*
X128109314Y-107005417D01*
X128109199Y-107002631D01*
X128109142Y-107002637D01*
X128109308Y-107005415D01*
X128109191Y-107005422D01*
X128109119Y-107005425D01*
X128109003Y-107002649D01*
X128108950Y-107002654D01*
X128109116Y-107005427D01*
X128051542Y-107008881D01*
X128051502Y-107008222D01*
X128051495Y-107008224D01*
X128051539Y-107008880D01*
X128051376Y-107008891D01*
X128051345Y-107008893D01*
X128051305Y-107008274D01*
X128051302Y-107008275D01*
X128051344Y-107008893D01*
X127604253Y-107039440D01*
X127604171Y-107039406D01*
X127604054Y-107039454D01*
X127604037Y-107039455D01*
X127603967Y-107039490D01*
X127603788Y-107039563D01*
X127603780Y-107039582D01*
X127603762Y-107039591D01*
X127603703Y-107039768D01*
X127603670Y-107039846D01*
X127603670Y-107039865D01*
X127603630Y-107039984D01*
X127603669Y-107040064D01*
X127603637Y-107052653D01*
X127603637Y-107052655D01*
X127602421Y-107537736D01*
X127602406Y-107539389D01*
X127600848Y-107639092D01*
X127600758Y-107642255D01*
X127596844Y-107738280D01*
X127596673Y-107741489D01*
X127590677Y-107831870D01*
X127590393Y-107835397D01*
X127582633Y-107917417D01*
X127582158Y-107921662D01*
X127574912Y-107977746D01*
X127573048Y-107992174D01*
X127572155Y-107998009D01*
X127562122Y-108054641D01*
X127560803Y-108061099D01*
X127556295Y-108080557D01*
X127554672Y-108086826D01*
X127550780Y-108100409D01*
X127524058Y-108149151D01*
X127521506Y-108152038D01*
X127503344Y-108168902D01*
X127487054Y-108181281D01*
X127469044Y-108192700D01*
X127383274Y-108237390D01*
X127369281Y-108243630D01*
X127239008Y-108292462D01*
X127230587Y-108295283D01*
X127180277Y-108310187D01*
X127061139Y-108345481D01*
X127055430Y-108347028D01*
X126976283Y-108366480D01*
X126853600Y-108396634D01*
X126849358Y-108397600D01*
X126620602Y-108445515D01*
X126617287Y-108446162D01*
X126459830Y-108474656D01*
X126366867Y-108491479D01*
X126363976Y-108491968D01*
X126096688Y-108533939D01*
X126094080Y-108534320D01*
X126037307Y-108542022D01*
X125814867Y-108572198D01*
X125812445Y-108572503D01*
X125693988Y-108586188D01*
X125525967Y-108605600D01*
X125523496Y-108605861D01*
X125303362Y-108626904D01*
X125234527Y-108633484D01*
X125231968Y-108633702D01*
X124945221Y-108655172D01*
X124942451Y-108655348D01*
X124804360Y-108662577D01*
X124662710Y-108669991D01*
X124659491Y-108670118D01*
X124523833Y-108673744D01*
X124391665Y-108677277D01*
X124387859Y-108677321D01*
X124209259Y-108676644D01*
X124136727Y-108676369D01*
X124131918Y-108676259D01*
X123901731Y-108666591D01*
X123897213Y-108666320D01*
X123753966Y-108655139D01*
X123352806Y-108623826D01*
X123348995Y-108623470D01*
X122870531Y-108571246D01*
X122866933Y-108570800D01*
X122653968Y-108541251D01*
X122651121Y-108540822D01*
X122535625Y-108522044D01*
X122454576Y-108508866D01*
X122451190Y-108508268D01*
X122389427Y-108496488D01*
X122271682Y-108474030D01*
X122267742Y-108473211D01*
X122105513Y-108436792D01*
X122100784Y-108435634D01*
X121959563Y-108398117D01*
X121955946Y-108397156D01*
X121950221Y-108395489D01*
X121910982Y-108383050D01*
X121823009Y-108355161D01*
X121816050Y-108352728D01*
X121706765Y-108310891D01*
X121698230Y-108307256D01*
X121607252Y-108264481D01*
X121596706Y-108258898D01*
X121524410Y-108216125D01*
X121511576Y-108207423D01*
X121458087Y-108166125D01*
X121443129Y-108152525D01*
X121407711Y-108114696D01*
X121392072Y-108094110D01*
X121371284Y-108059964D01*
X121359537Y-108034770D01*
X121356588Y-108026040D01*
X121352987Y-108013163D01*
X121345765Y-107980805D01*
X121344453Y-107974071D01*
X121336146Y-107924227D01*
X121335525Y-107920071D01*
X121327117Y-107856640D01*
X121326653Y-107852657D01*
X121324745Y-107833634D01*
X121310131Y-107687925D01*
X121309842Y-107684588D01*
X121309837Y-107684508D01*
X121294862Y-107480153D01*
X121294712Y-107477810D01*
X121281743Y-107240148D01*
X121281655Y-107238288D01*
X121274029Y-107046437D01*
X121271163Y-106974333D01*
X121271110Y-106972728D01*
X121263545Y-106689599D01*
X121263513Y-106688033D01*
X121261074Y-106517187D01*
X121259287Y-106392012D01*
X121259276Y-106390832D01*
X121259191Y-106370146D01*
X121256773Y-105785487D01*
X121256784Y-105783201D01*
X121260199Y-105539389D01*
X121260294Y-105535967D01*
X121262003Y-105494501D01*
X121268867Y-105327881D01*
X121269227Y-105322225D01*
X121284287Y-105147868D01*
X121285361Y-105139063D01*
X121308160Y-104994645D01*
X121309981Y-104985381D01*
X121323806Y-104926738D01*
X121325868Y-104919079D01*
X121341923Y-104866145D01*
X121344969Y-104857299D01*
X121362852Y-104811022D01*
X121367161Y-104801149D01*
X121386809Y-104760917D01*
X121392590Y-104750384D01*
X121414065Y-104715346D01*
X121421400Y-104704659D01*
X121444930Y-104673893D01*
X121453619Y-104663704D01*
X121479765Y-104636157D01*
X121489352Y-104627063D01*
X121518834Y-104601898D01*
X121528696Y-104594289D01*
X121562389Y-104570857D01*
X121571896Y-104564857D01*
X121610569Y-104542801D01*
X121619257Y-104538285D01*
X121663452Y-104517452D01*
X121671017Y-104514184D01*
X121719890Y-104494956D01*
X121728936Y-104491790D01*
X121849736Y-104454613D01*
X121857970Y-104452382D01*
X122001965Y-104418566D01*
X122007637Y-104417371D01*
X122376142Y-104348605D01*
X122379677Y-104347998D01*
X122927320Y-104261935D01*
X122930998Y-104261413D01*
X123196363Y-104227750D01*
X123198906Y-104227454D01*
X123460633Y-104199829D01*
X123463361Y-104199571D01*
X123563225Y-104191241D01*
X123721059Y-104178075D01*
X123723918Y-104177869D01*
X123866759Y-104169221D01*
X123978175Y-104162476D01*
X123981117Y-104162332D01*
X124023481Y-104160765D01*
X124232251Y-104153042D01*
X124235287Y-104152966D01*
X124483810Y-104149767D01*
X124486910Y-104149766D01*
X124610009Y-104151210D01*
X124733146Y-104152656D01*
X124736217Y-104152730D01*
X124980694Y-104161707D01*
X124983795Y-104161859D01*
X125226915Y-104176922D01*
X125230067Y-104177157D01*
X125351090Y-104187728D01*
X125472102Y-104198299D01*
X125475254Y-104198614D01*
X125564653Y-104208693D01*
X125716825Y-104225851D01*
X125719877Y-104226234D01*
X125961274Y-104259557D01*
X125964253Y-104260005D01*
X126099763Y-104282106D01*
X126205978Y-104299429D01*
X126208953Y-104299951D01*
X126452105Y-104345617D01*
X126453558Y-104345899D01*
X126731622Y-104401511D01*
X126731623Y-104401511D01*
X126743408Y-104403868D01*
X126743502Y-104403929D01*
X126743678Y-104403890D01*
X126743899Y-104403847D01*
X126743903Y-104403841D01*
X126743907Y-104403840D01*
X126744014Y-104403674D01*
X126744129Y-104403502D01*
X126744128Y-104403498D01*
X126744132Y-104403492D01*
X126744089Y-104403297D01*
X126744050Y-104403096D01*
X126743956Y-104403033D01*
X126706242Y-104348606D01*
X125986204Y-103309498D01*
X125986036Y-103309254D01*
X125747679Y-102963538D01*
X125145988Y-102090839D01*
X124589507Y-101279206D01*
X124189847Y-100696297D01*
X124189741Y-100696142D01*
X123165797Y-99197926D01*
X123165796Y-99197925D01*
X123150892Y-99176118D01*
X123150833Y-99175974D01*
X123150684Y-99175913D01*
X123150550Y-99175825D01*
X123150398Y-99175857D01*
X123133113Y-99175852D01*
X123133112Y-99175852D01*
X118022816Y-99174480D01*
X118022338Y-99174479D01*
X117617240Y-99172834D01*
X114729343Y-99161109D01*
X114727745Y-99161092D01*
X113565173Y-99140344D01*
X113562771Y-99140277D01*
X112638167Y-99105876D01*
X112634282Y-99105671D01*
X112508667Y-99097097D01*
X111884219Y-99054474D01*
X111878871Y-99053994D01*
X111486119Y-99010312D01*
X111239316Y-98982863D01*
X111233487Y-98982075D01*
X110971994Y-98940515D01*
X110639430Y-98887658D01*
X110634770Y-98886827D01*
X110021470Y-98765572D01*
X110018559Y-98764961D01*
X109673977Y-98688342D01*
X109396601Y-98626666D01*
X109393888Y-98626032D01*
X109311306Y-98605741D01*
X108791226Y-98477953D01*
X108788521Y-98477255D01*
X108208228Y-98320714D01*
X108205474Y-98319937D01*
X107650508Y-98156243D01*
X107647558Y-98155334D01*
X107120817Y-97985784D01*
X107117663Y-97984722D01*
X106952231Y-97926607D01*
X106622106Y-97810636D01*
X106618715Y-97809389D01*
X106280343Y-97679379D01*
X106157368Y-97632129D01*
X106153552Y-97630591D01*
X105729366Y-97451507D01*
X105725018Y-97449574D01*
X105704536Y-97440000D01*
X139056844Y-97440000D01*
X139057274Y-97445189D01*
X139072783Y-97632350D01*
X139075436Y-97664368D01*
X139076717Y-97669426D01*
X139076717Y-97669427D01*
X139112159Y-97809382D01*
X139130704Y-97882616D01*
X139221140Y-98088791D01*
X139223990Y-98093153D01*
X139223992Y-98093157D01*
X139265548Y-98156763D01*
X139344278Y-98277268D01*
X139347803Y-98281097D01*
X139347806Y-98281101D01*
X139442162Y-98383597D01*
X139496760Y-98442906D01*
X139500879Y-98446112D01*
X139581767Y-98509070D01*
X139674424Y-98581189D01*
X139719864Y-98605780D01*
X139759708Y-98627342D01*
X139872426Y-98688342D01*
X140085365Y-98761444D01*
X140090499Y-98762301D01*
X140090504Y-98762302D01*
X140302294Y-98797643D01*
X140302296Y-98797643D01*
X140307431Y-98798500D01*
X140532569Y-98798500D01*
X140537704Y-98797643D01*
X140537706Y-98797643D01*
X140749496Y-98762302D01*
X140749501Y-98762301D01*
X140754635Y-98761444D01*
X140967574Y-98688342D01*
X141080293Y-98627342D01*
X141120136Y-98605780D01*
X141165576Y-98581189D01*
X141258234Y-98509070D01*
X141339121Y-98446112D01*
X141343240Y-98442906D01*
X141397838Y-98383597D01*
X141492194Y-98281101D01*
X141492197Y-98281097D01*
X141495722Y-98277268D01*
X141584517Y-98141357D01*
X141638521Y-98095268D01*
X141708868Y-98085693D01*
X141773226Y-98115670D01*
X141795483Y-98141357D01*
X141884278Y-98277268D01*
X141887803Y-98281097D01*
X141887806Y-98281101D01*
X141982162Y-98383597D01*
X142036760Y-98442906D01*
X142040879Y-98446112D01*
X142121767Y-98509070D01*
X142214424Y-98581189D01*
X142259864Y-98605780D01*
X142299708Y-98627342D01*
X142412426Y-98688342D01*
X142625365Y-98761444D01*
X142630499Y-98762301D01*
X142630504Y-98762302D01*
X142842294Y-98797643D01*
X142842296Y-98797643D01*
X142847431Y-98798500D01*
X143072569Y-98798500D01*
X143077704Y-98797643D01*
X143077706Y-98797643D01*
X143289496Y-98762302D01*
X143289501Y-98762301D01*
X143294635Y-98761444D01*
X143507574Y-98688342D01*
X143620293Y-98627342D01*
X143660136Y-98605780D01*
X143705576Y-98581189D01*
X143798234Y-98509070D01*
X143879121Y-98446112D01*
X143883240Y-98442906D01*
X143937838Y-98383597D01*
X144032194Y-98281101D01*
X144032197Y-98281097D01*
X144035722Y-98277268D01*
X144124517Y-98141357D01*
X144178521Y-98095268D01*
X144248868Y-98085693D01*
X144313226Y-98115670D01*
X144335483Y-98141357D01*
X144424278Y-98277268D01*
X144427803Y-98281097D01*
X144427806Y-98281101D01*
X144522162Y-98383597D01*
X144576760Y-98442906D01*
X144580879Y-98446112D01*
X144661767Y-98509070D01*
X144754424Y-98581189D01*
X144799864Y-98605780D01*
X144839708Y-98627342D01*
X144952426Y-98688342D01*
X145165365Y-98761444D01*
X145170499Y-98762301D01*
X145170504Y-98762302D01*
X145382294Y-98797643D01*
X145382296Y-98797643D01*
X145387431Y-98798500D01*
X145612569Y-98798500D01*
X145617704Y-98797643D01*
X145617706Y-98797643D01*
X145829496Y-98762302D01*
X145829501Y-98762301D01*
X145834635Y-98761444D01*
X146047574Y-98688342D01*
X146160293Y-98627342D01*
X146200136Y-98605780D01*
X146245576Y-98581189D01*
X146338234Y-98509070D01*
X146419121Y-98446112D01*
X146423240Y-98442906D01*
X146477838Y-98383597D01*
X146572194Y-98281101D01*
X146572197Y-98281097D01*
X146575722Y-98277268D01*
X146654452Y-98156763D01*
X146696008Y-98093157D01*
X146696010Y-98093153D01*
X146698860Y-98088791D01*
X146789296Y-97882616D01*
X146807842Y-97809382D01*
X146843283Y-97669427D01*
X146843283Y-97669426D01*
X146844564Y-97664368D01*
X146847218Y-97632350D01*
X146862726Y-97445189D01*
X146863156Y-97440000D01*
X146858170Y-97379824D01*
X146844995Y-97220828D01*
X146844994Y-97220823D01*
X146844564Y-97215632D01*
X146833970Y-97173797D01*
X146790578Y-97002446D01*
X146790578Y-97002445D01*
X146789296Y-96997384D01*
X146698860Y-96791209D01*
X146694629Y-96784732D01*
X146578573Y-96607096D01*
X146575722Y-96602732D01*
X146572197Y-96598903D01*
X146572194Y-96598899D01*
X146426772Y-96440931D01*
X146423240Y-96437094D01*
X146373243Y-96398179D01*
X146249689Y-96302012D01*
X146249687Y-96302010D01*
X146245576Y-96298811D01*
X146212320Y-96280814D01*
X146161929Y-96230801D01*
X146146577Y-96161484D01*
X146171137Y-96094871D01*
X146212320Y-96059186D01*
X146240995Y-96043668D01*
X146245576Y-96041189D01*
X146260055Y-96029920D01*
X146419121Y-95906112D01*
X146423240Y-95902906D01*
X146486714Y-95833956D01*
X146572194Y-95741101D01*
X146572197Y-95741097D01*
X146575722Y-95737268D01*
X146613554Y-95679362D01*
X146696008Y-95553157D01*
X146696010Y-95553153D01*
X146698860Y-95548791D01*
X146736029Y-95464055D01*
X146787200Y-95347394D01*
X146789296Y-95342616D01*
X146806003Y-95276644D01*
X146843283Y-95129427D01*
X146843283Y-95129426D01*
X146844564Y-95124368D01*
X146845753Y-95110026D01*
X146862726Y-94905189D01*
X146863156Y-94900000D01*
X146854541Y-94796033D01*
X146844995Y-94680828D01*
X146844994Y-94680823D01*
X146844564Y-94675632D01*
X146789296Y-94457384D01*
X146698860Y-94251209D01*
X146694629Y-94244732D01*
X146578573Y-94067096D01*
X146575722Y-94062732D01*
X146572197Y-94058903D01*
X146572194Y-94058899D01*
X146426772Y-93900931D01*
X146423240Y-93897094D01*
X146317789Y-93815017D01*
X146249689Y-93762012D01*
X146249687Y-93762010D01*
X146245576Y-93758811D01*
X146130343Y-93696450D01*
X146052159Y-93654139D01*
X146052156Y-93654138D01*
X146047574Y-93651658D01*
X145834635Y-93578556D01*
X145829501Y-93577699D01*
X145829496Y-93577698D01*
X145617706Y-93542357D01*
X145617704Y-93542357D01*
X145612569Y-93541500D01*
X145387431Y-93541500D01*
X145382296Y-93542357D01*
X145382294Y-93542357D01*
X145170504Y-93577698D01*
X145170499Y-93577699D01*
X145165365Y-93578556D01*
X144952426Y-93651658D01*
X144947844Y-93654138D01*
X144947841Y-93654139D01*
X144869657Y-93696450D01*
X144754424Y-93758811D01*
X144750313Y-93762010D01*
X144750311Y-93762012D01*
X144682211Y-93815017D01*
X144576760Y-93897094D01*
X144573228Y-93900931D01*
X144427806Y-94058899D01*
X144427803Y-94058903D01*
X144424278Y-94062732D01*
X144421427Y-94067096D01*
X144335483Y-94198643D01*
X144281479Y-94244732D01*
X144211132Y-94254307D01*
X144146774Y-94224330D01*
X144124517Y-94198643D01*
X144038573Y-94067096D01*
X144035722Y-94062732D01*
X144032197Y-94058903D01*
X144032194Y-94058899D01*
X143886772Y-93900931D01*
X143883240Y-93897094D01*
X143777789Y-93815017D01*
X143709689Y-93762012D01*
X143709687Y-93762010D01*
X143705576Y-93758811D01*
X143590343Y-93696450D01*
X143512159Y-93654139D01*
X143512156Y-93654138D01*
X143507574Y-93651658D01*
X143294635Y-93578556D01*
X143289501Y-93577699D01*
X143289496Y-93577698D01*
X143077706Y-93542357D01*
X143077704Y-93542357D01*
X143072569Y-93541500D01*
X142847431Y-93541500D01*
X142842296Y-93542357D01*
X142842294Y-93542357D01*
X142630504Y-93577698D01*
X142630499Y-93577699D01*
X142625365Y-93578556D01*
X142412426Y-93651658D01*
X142407844Y-93654138D01*
X142407841Y-93654139D01*
X142329657Y-93696450D01*
X142214424Y-93758811D01*
X142210313Y-93762010D01*
X142210311Y-93762012D01*
X142142211Y-93815017D01*
X142036760Y-93897094D01*
X142033228Y-93900931D01*
X141975755Y-93963362D01*
X141914901Y-93999933D01*
X141843937Y-93997798D01*
X141785392Y-93957636D01*
X141764998Y-93922056D01*
X141725074Y-93815015D01*
X141720889Y-93803796D01*
X141713999Y-93794591D01*
X141640574Y-93696508D01*
X141633261Y-93686739D01*
X141516204Y-93599111D01*
X141379201Y-93548011D01*
X141342295Y-93544043D01*
X141321988Y-93541860D01*
X141321985Y-93541860D01*
X141318638Y-93541500D01*
X139521362Y-93541500D01*
X139518015Y-93541860D01*
X139518012Y-93541860D01*
X139497705Y-93544043D01*
X139460799Y-93548011D01*
X139323796Y-93599111D01*
X139206739Y-93686739D01*
X139199426Y-93696508D01*
X139126002Y-93794591D01*
X139119111Y-93803796D01*
X139068011Y-93940799D01*
X139061500Y-94001362D01*
X139061500Y-95798638D01*
X139068011Y-95859201D01*
X139119111Y-95996204D01*
X139124510Y-96003416D01*
X139124511Y-96003418D01*
X139176959Y-96073480D01*
X139206739Y-96113261D01*
X139213950Y-96118659D01*
X139311465Y-96191658D01*
X139323796Y-96200889D01*
X139438808Y-96243787D01*
X139495642Y-96286333D01*
X139520453Y-96352853D01*
X139505361Y-96422227D01*
X139487475Y-96447180D01*
X139347806Y-96598899D01*
X139347803Y-96598903D01*
X139344278Y-96602732D01*
X139341427Y-96607096D01*
X139225372Y-96784732D01*
X139221140Y-96791209D01*
X139130704Y-96997384D01*
X139129422Y-97002445D01*
X139129422Y-97002446D01*
X139086030Y-97173797D01*
X139075436Y-97215632D01*
X139075006Y-97220823D01*
X139075005Y-97220828D01*
X139061830Y-97379824D01*
X139056844Y-97440000D01*
X105704536Y-97440000D01*
X105341057Y-97270100D01*
X105335965Y-97267578D01*
X105329325Y-97264101D01*
X105157547Y-97174158D01*
X104995417Y-97089266D01*
X104989282Y-97085832D01*
X104767415Y-96953393D01*
X104695373Y-96910388D01*
X104687770Y-96905470D01*
X104443938Y-96734984D01*
X104434229Y-96727467D01*
X104244126Y-96564828D01*
X104231631Y-96552532D01*
X104098761Y-96402212D01*
X104083517Y-96380837D01*
X104006450Y-96244699D01*
X103995394Y-96218764D01*
X103979813Y-96166707D01*
X103975198Y-96143591D01*
X103970047Y-96093945D01*
X103970125Y-96067203D01*
X103976275Y-96011139D01*
X103981403Y-95986840D01*
X104001147Y-95924489D01*
X104008963Y-95905399D01*
X104044353Y-95835828D01*
X104052853Y-95821538D01*
X104104998Y-95745746D01*
X104113104Y-95735203D01*
X104182256Y-95654472D01*
X104189563Y-95646642D01*
X104275507Y-95562050D01*
X104281934Y-95556148D01*
X104285427Y-95553157D01*
X104384175Y-95468588D01*
X104389785Y-95464055D01*
X104402411Y-95454438D01*
X104507829Y-95374140D01*
X104512709Y-95370605D01*
X104645943Y-95278885D01*
X104650222Y-95276067D01*
X104797276Y-95183459D01*
X104802817Y-95180164D01*
X104807774Y-95177386D01*
X105141416Y-94990407D01*
X105147467Y-94987230D01*
X105537319Y-94796017D01*
X105542343Y-94793689D01*
X105980520Y-94602337D01*
X105984841Y-94600545D01*
X106209953Y-94512035D01*
X106467491Y-94410776D01*
X106471249Y-94409368D01*
X106994623Y-94222803D01*
X106998052Y-94221636D01*
X107558412Y-94039857D01*
X107561579Y-94038876D01*
X107563312Y-94038364D01*
X107700570Y-93997798D01*
X108155220Y-93863429D01*
X108158213Y-93862584D01*
X108545153Y-93758536D01*
X108781643Y-93694944D01*
X108784480Y-93694217D01*
X109433933Y-93535931D01*
X109436637Y-93535305D01*
X110108472Y-93387873D01*
X110111273Y-93387293D01*
X110801961Y-93252188D01*
X110804714Y-93251681D01*
X111158427Y-93190684D01*
X111161815Y-93190148D01*
X111220027Y-93181745D01*
X111334467Y-93165225D01*
X111337497Y-93164825D01*
X111519722Y-93143017D01*
X111522801Y-93142687D01*
X111723031Y-93123703D01*
X111725784Y-93123473D01*
X111952565Y-93107036D01*
X111954791Y-93106895D01*
X112216777Y-93092728D01*
X112218343Y-93092654D01*
X112523783Y-93080508D01*
X112525033Y-93080465D01*
X112851418Y-93070970D01*
X112882143Y-93070077D01*
X112883094Y-93070053D01*
X113299854Y-93061155D01*
X113300794Y-93061138D01*
X113337407Y-93060632D01*
X114348027Y-93046669D01*
X114348687Y-93046662D01*
X115388380Y-93037740D01*
X115735079Y-93034765D01*
X115735080Y-93034765D01*
X117527954Y-93023167D01*
X117527979Y-93027069D01*
X117527990Y-93027067D01*
X117527956Y-93023168D01*
X119730629Y-93003819D01*
X119730630Y-93003819D01*
X119730935Y-93003816D01*
X119730936Y-93003816D01*
X119730982Y-93003815D01*
X119731130Y-93003814D01*
X119731132Y-93003813D01*
X119731673Y-93003805D01*
X119731674Y-93003805D01*
X121532396Y-92976478D01*
X121532416Y-92977818D01*
X121532629Y-92977816D01*
X121532594Y-92976474D01*
X122748270Y-92944760D01*
X122748299Y-92945882D01*
X122748524Y-92945878D01*
X122748468Y-92944753D01*
X123079107Y-92928385D01*
X123079119Y-92928622D01*
X123079336Y-92928601D01*
X123079303Y-92928367D01*
X123168266Y-92915938D01*
X123194571Y-92912263D01*
X123194748Y-92912264D01*
X123194850Y-92912162D01*
X123194977Y-92912088D01*
X123195021Y-92911916D01*
X123206027Y-92885779D01*
X123213056Y-92871636D01*
X123249171Y-92809136D01*
X123252021Y-92804443D01*
X123284285Y-92753835D01*
X123409792Y-92556965D01*
X123411162Y-92554862D01*
X123474603Y-92459590D01*
X123664328Y-92174674D01*
X123664962Y-92173733D01*
X124002570Y-91676998D01*
X124003154Y-91676146D01*
X124817538Y-90498794D01*
X124890591Y-90393182D01*
X124891067Y-90392497D01*
X124891286Y-90392186D01*
X125993245Y-88823258D01*
X125997242Y-88826065D01*
X125997257Y-88826042D01*
X125993245Y-88823256D01*
X126277288Y-88414307D01*
X126278494Y-88415145D01*
X126278508Y-88415126D01*
X126277291Y-88414305D01*
X126277349Y-88414219D01*
X126277399Y-88414147D01*
X126278608Y-88414987D01*
X126278622Y-88414968D01*
X126277400Y-88414144D01*
X126399406Y-88233201D01*
X126402495Y-88235284D01*
X126402511Y-88235256D01*
X126399409Y-88233199D01*
X126399472Y-88233104D01*
X126399516Y-88233038D01*
X126402606Y-88235098D01*
X126402618Y-88235077D01*
X126399516Y-88233036D01*
X126504376Y-88073654D01*
X126504378Y-88073655D01*
X126504460Y-88073526D01*
X126504483Y-88073491D01*
X126504484Y-88073488D01*
X126589321Y-87940109D01*
X126590858Y-87941087D01*
X126590884Y-87941044D01*
X126589326Y-87940105D01*
X126589370Y-87940032D01*
X126589424Y-87939947D01*
X126590957Y-87940921D01*
X126590983Y-87940877D01*
X126589425Y-87939940D01*
X126651366Y-87837002D01*
X126651488Y-87837075D01*
X126651549Y-87837012D01*
X126651410Y-87836928D01*
X126651460Y-87836845D01*
X126651618Y-87836940D01*
X126651636Y-87836922D01*
X126651462Y-87836830D01*
X126659115Y-87822430D01*
X126687636Y-87768768D01*
X126687656Y-87768747D01*
X126687679Y-87768686D01*
X126687713Y-87768623D01*
X126687716Y-87768591D01*
X126689472Y-87764029D01*
X126690349Y-87761747D01*
X126695236Y-87749047D01*
X126695277Y-87748949D01*
X126695277Y-87748941D01*
X126695279Y-87748936D01*
X126695277Y-87748859D01*
X126695303Y-87739674D01*
X126695338Y-87739533D01*
X126695252Y-87739390D01*
X126695187Y-87739230D01*
X126695052Y-87739174D01*
X126692714Y-87737437D01*
X126692677Y-87737398D01*
X126692636Y-87737379D01*
X126692599Y-87737352D01*
X126692546Y-87737339D01*
X126689254Y-87735841D01*
X126689226Y-87735818D01*
X126689162Y-87735799D01*
X126689105Y-87735773D01*
X126689071Y-87735772D01*
X126684866Y-87734521D01*
X126684846Y-87734508D01*
X126684771Y-87734493D01*
X126684700Y-87734472D01*
X126684676Y-87734474D01*
X126684404Y-87734420D01*
X126684401Y-87734419D01*
X126679571Y-87733463D01*
X126679641Y-87733108D01*
X126679413Y-87733073D01*
X126679376Y-87733434D01*
X126666393Y-87732105D01*
X126666451Y-87731535D01*
X126666209Y-87731520D01*
X126666196Y-87732092D01*
X126649885Y-87731709D01*
X126649908Y-87730739D01*
X126649660Y-87730740D01*
X126649687Y-87731709D01*
X126630265Y-87732249D01*
X126630224Y-87730784D01*
X126630168Y-87730785D01*
X126630257Y-87732246D01*
X126630175Y-87732251D01*
X126630077Y-87732254D01*
X126630032Y-87730785D01*
X126629989Y-87730785D01*
X126629973Y-87730782D01*
X126630068Y-87732258D01*
X126607753Y-87733694D01*
X126607627Y-87731735D01*
X126607569Y-87731739D01*
X126607747Y-87733692D01*
X126607670Y-87733699D01*
X126607563Y-87733706D01*
X126607435Y-87731749D01*
X126607374Y-87731754D01*
X126607555Y-87733710D01*
X126582560Y-87736017D01*
X126582439Y-87734707D01*
X126582211Y-87734734D01*
X126582361Y-87736038D01*
X126554904Y-87739191D01*
X126554897Y-87739189D01*
X126554763Y-87739207D01*
X126554710Y-87739213D01*
X126554508Y-87737427D01*
X126554470Y-87737431D01*
X126554708Y-87739214D01*
X126524996Y-87743187D01*
X126524712Y-87741062D01*
X126524675Y-87741068D01*
X126524991Y-87743186D01*
X126524877Y-87743203D01*
X126524803Y-87743213D01*
X126524517Y-87741095D01*
X126524483Y-87741101D01*
X126524800Y-87743215D01*
X126493093Y-87747972D01*
X126493074Y-87747975D01*
X126493054Y-87747978D01*
X126493052Y-87747978D01*
X126492998Y-87747987D01*
X126492864Y-87748007D01*
X126492863Y-87747997D01*
X126492777Y-87748023D01*
X126459305Y-87753539D01*
X126459304Y-87753539D01*
X126459303Y-87753537D01*
X126459126Y-87753569D01*
X126459112Y-87753571D01*
X126459111Y-87753572D01*
X126423955Y-87759841D01*
X126423644Y-87758097D01*
X126423621Y-87758100D01*
X126423951Y-87759840D01*
X126423835Y-87759862D01*
X126423763Y-87759875D01*
X126423447Y-87758126D01*
X126423427Y-87758129D01*
X126423761Y-87759876D01*
X126401989Y-87764036D01*
X126387261Y-87766850D01*
X126387224Y-87766857D01*
X126387221Y-87766856D01*
X126387133Y-87766874D01*
X126387033Y-87766893D01*
X126386489Y-87764029D01*
X126386449Y-87764036D01*
X126387030Y-87766895D01*
X126349332Y-87774560D01*
X126348665Y-87771279D01*
X126348620Y-87771291D01*
X126349327Y-87774559D01*
X126349179Y-87774591D01*
X126349139Y-87774599D01*
X126349138Y-87774600D01*
X126349077Y-87774613D01*
X126334140Y-87777830D01*
X126310494Y-87782922D01*
X126310184Y-87781481D01*
X126309971Y-87781516D01*
X126310300Y-87782964D01*
X126310299Y-87782964D01*
X126272671Y-87791521D01*
X126269011Y-87792296D01*
X125980628Y-87848864D01*
X125973371Y-87850068D01*
X125843008Y-87867815D01*
X125655703Y-87893314D01*
X125649956Y-87893961D01*
X125306781Y-87924646D01*
X125301992Y-87924981D01*
X124940031Y-87943440D01*
X124935863Y-87943584D01*
X124767112Y-87946590D01*
X124561482Y-87950253D01*
X124557699Y-87950264D01*
X124463405Y-87949112D01*
X124177322Y-87945617D01*
X124173762Y-87945522D01*
X123793731Y-87930055D01*
X123790187Y-87929860D01*
X123416919Y-87904099D01*
X123413275Y-87903794D01*
X123192045Y-87881980D01*
X123053094Y-87868278D01*
X123049068Y-87867815D01*
X122708432Y-87823125D01*
X122703799Y-87822430D01*
X122521107Y-87791515D01*
X122389131Y-87769182D01*
X122383498Y-87768096D01*
X122243641Y-87737812D01*
X122101610Y-87707057D01*
X122094287Y-87705240D01*
X121852310Y-87637453D01*
X121842101Y-87634118D01*
X121648005Y-87561413D01*
X121632624Y-87554442D01*
X121492058Y-87478992D01*
X121474825Y-87467844D01*
X121433249Y-87435860D01*
X121418103Y-87422113D01*
X121388412Y-87390401D01*
X121376730Y-87375911D01*
X121376435Y-87375484D01*
X121371088Y-87367048D01*
X121367691Y-87361187D01*
X121363583Y-87353498D01*
X121359422Y-87345016D01*
X121356306Y-87338152D01*
X121352169Y-87328259D01*
X121348870Y-87319457D01*
X121338069Y-87287008D01*
X121335371Y-87277729D01*
X121324906Y-87235773D01*
X121323361Y-87228720D01*
X121313283Y-87175472D01*
X121312384Y-87170085D01*
X121303023Y-87105387D01*
X121302497Y-87101279D01*
X121294006Y-87024797D01*
X121293701Y-87021688D01*
X121286139Y-86932906D01*
X121285958Y-86930482D01*
X121279371Y-86829239D01*
X121279258Y-86827262D01*
X121273620Y-86712885D01*
X121273552Y-86711319D01*
X121268833Y-86583189D01*
X121268794Y-86581942D01*
X121264969Y-86439820D01*
X121264941Y-86438524D01*
X121259758Y-86108133D01*
X121259746Y-86106973D01*
X121258241Y-85833448D01*
X121257573Y-85712084D01*
X121257571Y-85711391D01*
X121257576Y-85704810D01*
X121257859Y-85267619D01*
X121257865Y-85266464D01*
X121261323Y-84914284D01*
X121261367Y-84911969D01*
X121269040Y-84639872D01*
X121269238Y-84635515D01*
X121282090Y-84431166D01*
X121282557Y-84425672D01*
X121290933Y-84347375D01*
X121291599Y-84342172D01*
X121301414Y-84276441D01*
X121302609Y-84269706D01*
X121313644Y-84216047D01*
X121315700Y-84207557D01*
X121327735Y-84164458D01*
X121331027Y-84154340D01*
X121343866Y-84119902D01*
X121348624Y-84108796D01*
X121362378Y-84080524D01*
X121368374Y-84069607D01*
X121383697Y-84044708D01*
X121390065Y-84035333D01*
X121405586Y-84014558D01*
X121416988Y-84001321D01*
X121456109Y-83961808D01*
X121471327Y-83948711D01*
X121487678Y-83936768D01*
X121525938Y-83908821D01*
X121538400Y-83900797D01*
X121611366Y-83859679D01*
X121621327Y-83854634D01*
X121709676Y-83814700D01*
X121721046Y-83810212D01*
X121754930Y-83798702D01*
X121948798Y-83732846D01*
X121959634Y-83729698D01*
X122238080Y-83662186D01*
X122245890Y-83660552D01*
X122569051Y-83603604D01*
X122575072Y-83602693D01*
X122811008Y-83572820D01*
X122935285Y-83557085D01*
X122940234Y-83556557D01*
X122961240Y-83554737D01*
X123330405Y-83522748D01*
X123334633Y-83522455D01*
X123747579Y-83500818D01*
X123751422Y-83500676D01*
X124134184Y-83492486D01*
X124180405Y-83491497D01*
X124184120Y-83491472D01*
X124622206Y-83495018D01*
X124625907Y-83495102D01*
X124997456Y-83509032D01*
X125041821Y-83510695D01*
X125066360Y-83511615D01*
X125070203Y-83511818D01*
X125506259Y-83541525D01*
X125510414Y-83541878D01*
X125935047Y-83584963D01*
X125939714Y-83585524D01*
X126346324Y-83642173D01*
X126351771Y-83643054D01*
X126611966Y-83690998D01*
X126733233Y-83713343D01*
X126739820Y-83714741D01*
X126815185Y-83732846D01*
X127091277Y-83799174D01*
X127095144Y-83800168D01*
X127507681Y-83913216D01*
X127568092Y-83950509D01*
X127598752Y-84014545D01*
X127600257Y-84029169D01*
X127622022Y-84521761D01*
X127622022Y-84521762D01*
X127647858Y-85106490D01*
X127647823Y-85106563D01*
X127647867Y-85106689D01*
X127647868Y-85106715D01*
X127647900Y-85106784D01*
X127647959Y-85106954D01*
X127647984Y-85106966D01*
X127647997Y-85106994D01*
X127648174Y-85107058D01*
X127648236Y-85107088D01*
X127648261Y-85107089D01*
X127648387Y-85107135D01*
X127648460Y-85107101D01*
X127662374Y-85107899D01*
X128089206Y-85132379D01*
X128089207Y-85132379D01*
X128530238Y-85157677D01*
X128530405Y-85157713D01*
X128530529Y-85157632D01*
X128530667Y-85157584D01*
X128530741Y-85157431D01*
X130294663Y-82591339D01*
X130294721Y-82591379D01*
X130294793Y-82591149D01*
X130294942Y-82590934D01*
X131619864Y-80670970D01*
X131620325Y-80670306D01*
X132330187Y-79655632D01*
X132334324Y-79658526D01*
X132334327Y-79658521D01*
X132330187Y-79655631D01*
X133398616Y-78125268D01*
X133402645Y-78128081D01*
X133402656Y-78128060D01*
X133398619Y-78125266D01*
X135586339Y-74964432D01*
X135586346Y-74964437D01*
X135586411Y-74964327D01*
X139378770Y-69496668D01*
X139379115Y-69496174D01*
X140102883Y-68463262D01*
X140104738Y-68464562D01*
X140104744Y-68464550D01*
X140102884Y-68463261D01*
X140708935Y-67588852D01*
X140708979Y-67588788D01*
X140709217Y-67588445D01*
X140882782Y-67338357D01*
X140884422Y-67336052D01*
X140959991Y-67232287D01*
X140962204Y-67229339D01*
X141034598Y-67135811D01*
X141037747Y-67131906D01*
X141109853Y-67046041D01*
X141113812Y-67041548D01*
X141152853Y-66999308D01*
X141188939Y-66960264D01*
X141193370Y-66955706D01*
X141274986Y-66875884D01*
X141279397Y-66871772D01*
X141371106Y-66790345D01*
X141375104Y-66786944D01*
X141480187Y-66701252D01*
X141483523Y-66698624D01*
X141605299Y-66605995D01*
X141607887Y-66604079D01*
X141749453Y-66502000D01*
X141751293Y-66500698D01*
X141915538Y-66386765D01*
X141916805Y-66385897D01*
X142107044Y-66257380D01*
X142107833Y-66256852D01*
X142108455Y-66256439D01*
X142326467Y-66111616D01*
X142326743Y-66111434D01*
X142862267Y-65759877D01*
X144462288Y-64712410D01*
X144531146Y-64691829D01*
X144877733Y-64691408D01*
X145314137Y-64690877D01*
X145315111Y-64690880D01*
G37*
%TD.AperFunction*%
M02*
