%TF.GenerationSoftware,KiCad,Pcbnew,(6.99.0-2452-gdb4f2d9dd8)*%
%TF.CreationDate,2022-07-19T11:44:18+04:00*%
%TF.ProjectId,787,3738372e-6b69-4636-9164-5f7063625858,rev?*%
%TF.SameCoordinates,Original*%
%TF.FileFunction,Drillmap*%
%TF.FilePolarity,Positive*%
%FSLAX45Y45*%
G04 Gerber Fmt 4.5, Leading zero omitted, Abs format (unit mm)*
G04 Created by KiCad (PCBNEW (6.99.0-2452-gdb4f2d9dd8)) date 2022-07-19 11:44:18*
%MOMM*%
%LPD*%
G01*
G04 APERTURE LIST*
%ADD10C,0.050000*%
%ADD11C,0.200000*%
G04 APERTURE END LIST*
D10*
X14550646Y-6469163D02*
X14567075Y-6469576D01*
X14580745Y-6470279D01*
X14591659Y-6471272D01*
X14596084Y-6471878D01*
X14599823Y-6472557D01*
X14602874Y-6473308D01*
X14605240Y-6474133D01*
X14606920Y-6475031D01*
X14607915Y-6476002D01*
X14608157Y-6476516D01*
X14608227Y-6477047D01*
X14607854Y-6478166D01*
X14604456Y-6482743D01*
X14596930Y-6492283D01*
X14571398Y-6523907D01*
X14535067Y-6568352D01*
X14491748Y-6620935D01*
X14469321Y-6648313D01*
X14447920Y-6674921D01*
X14428046Y-6700098D01*
X14410204Y-6723188D01*
X14394895Y-6743530D01*
X14382622Y-6760467D01*
X14373888Y-6773340D01*
X14371005Y-6778047D01*
X14369196Y-6781491D01*
X14337522Y-6854968D01*
X14278423Y-6993705D01*
X13929902Y-7808211D01*
X13660000Y-8437521D01*
X13660000Y-9300000D01*
X14983086Y-9300000D01*
X15179234Y-9340152D01*
X15257316Y-9355812D01*
X15324915Y-9368769D01*
X15374796Y-9377675D01*
X15390832Y-9380188D01*
X15399725Y-9381184D01*
X15404104Y-9381296D01*
X15408344Y-9381252D01*
X15412525Y-9380968D01*
X15416731Y-9380360D01*
X15421041Y-9379343D01*
X15425537Y-9377834D01*
X15430301Y-9375748D01*
X15435413Y-9373000D01*
X15440956Y-9369507D01*
X15447009Y-9365184D01*
X15453656Y-9359948D01*
X15460976Y-9353713D01*
X15469052Y-9346397D01*
X15477964Y-9337913D01*
X15487793Y-9328179D01*
X15498622Y-9317110D01*
X15510532Y-9304622D01*
X15523603Y-9290630D01*
X15537917Y-9275051D01*
X15553555Y-9257800D01*
X15570599Y-9238792D01*
X15589130Y-9217945D01*
X15630977Y-9170391D01*
X15679748Y-9114466D01*
X15736092Y-9049495D01*
X15874102Y-8889720D01*
X16021094Y-8719060D01*
X16096435Y-8630999D01*
X16100288Y-8626530D01*
X16104170Y-8622403D01*
X16106151Y-8620454D01*
X16108174Y-8618573D01*
X16110252Y-8616756D01*
X16112395Y-8614996D01*
X16114617Y-8613289D01*
X16116928Y-8611628D01*
X16119341Y-8610009D01*
X16121867Y-8608425D01*
X16124518Y-8606871D01*
X16127306Y-8605341D01*
X16130243Y-8603831D01*
X16133341Y-8602333D01*
X16140065Y-8599357D01*
X16147574Y-8596368D01*
X16155961Y-8593321D01*
X16165321Y-8590173D01*
X16175750Y-8586879D01*
X16187340Y-8583394D01*
X16200188Y-8579675D01*
X16214386Y-8575677D01*
X16233284Y-8570527D01*
X16251087Y-8565894D01*
X16267391Y-8561867D01*
X16281796Y-8558536D01*
X16293898Y-8555990D01*
X16303298Y-8554318D01*
X16309591Y-8553608D01*
X16311448Y-8553642D01*
X16312377Y-8553951D01*
X16312344Y-8557008D01*
X16310641Y-8564738D01*
X16301976Y-8594966D01*
X16285892Y-8646123D01*
X16261898Y-8719699D01*
X16188216Y-8940066D01*
X16077001Y-9267984D01*
X16045890Y-9360211D01*
X16020817Y-9436141D01*
X16004341Y-9487911D01*
X16000127Y-9502278D01*
X15999021Y-9507656D01*
X16010851Y-9510812D01*
X16040576Y-9517595D01*
X16130270Y-9537048D01*
X16221217Y-9556036D01*
X16252508Y-9562239D01*
X16266530Y-9564583D01*
X16266736Y-9564639D01*
X16266940Y-9564805D01*
X16267141Y-9565078D01*
X16267338Y-9565456D01*
X16267723Y-9566514D01*
X16268092Y-9567957D01*
X16268444Y-9569763D01*
X16268776Y-9571911D01*
X16269086Y-9574378D01*
X16269372Y-9577143D01*
X16269633Y-9580183D01*
X16269865Y-9583476D01*
X16270067Y-9587002D01*
X16270237Y-9590737D01*
X16270373Y-9594661D01*
X16270473Y-9598750D01*
X16270534Y-9602983D01*
X16270555Y-9607338D01*
X16270555Y-9650093D01*
X16136530Y-9678157D01*
X16084267Y-9689278D01*
X16041042Y-9698811D01*
X16011345Y-9705742D01*
X16002974Y-9707915D01*
X15999669Y-9709057D01*
X15999565Y-9709322D01*
X15999546Y-9709821D01*
X15999752Y-9711498D01*
X16000272Y-9714039D01*
X16001092Y-9717394D01*
X16003569Y-9726357D01*
X16007063Y-9737999D01*
X16011455Y-9751932D01*
X16016626Y-9767769D01*
X16022455Y-9785122D01*
X16028823Y-9803602D01*
X16200973Y-10309777D01*
X16280911Y-10549475D01*
X16314604Y-10654706D01*
X16314500Y-10655233D01*
X16314184Y-10655685D01*
X16313658Y-10656064D01*
X16312926Y-10656369D01*
X16311990Y-10656602D01*
X16310853Y-10656762D01*
X16309516Y-10656850D01*
X16307983Y-10656867D01*
X16304339Y-10656688D01*
X16299939Y-10656229D01*
X16294806Y-10655494D01*
X16288959Y-10654486D01*
X16282419Y-10653210D01*
X16275206Y-10651668D01*
X16267342Y-10649865D01*
X16258845Y-10647805D01*
X16249738Y-10645492D01*
X16240041Y-10642928D01*
X16229774Y-10640119D01*
X16218957Y-10637067D01*
X16218957Y-10637068D01*
X16123261Y-10609688D01*
X15895497Y-10345105D01*
X15662427Y-10075103D01*
X15586115Y-9987802D01*
X15530850Y-9925972D01*
X15492305Y-9884865D01*
X15466154Y-9859733D01*
X15448070Y-9845831D01*
X15433727Y-9838409D01*
X15431824Y-9837690D01*
X15429775Y-9837057D01*
X15427559Y-9836512D01*
X15425155Y-9836060D01*
X15422544Y-9835702D01*
X15419703Y-9835442D01*
X15413253Y-9835228D01*
X15405639Y-9835442D01*
X15396695Y-9836108D01*
X15386256Y-9837250D01*
X15374157Y-9838893D01*
X15360231Y-9841061D01*
X15344313Y-9843779D01*
X15326237Y-9847070D01*
X15305839Y-9850958D01*
X15257410Y-9860625D01*
X15197700Y-9872974D01*
X14985387Y-9917362D01*
X13660000Y-9917362D01*
X13660000Y-10769420D01*
X13690344Y-10843894D01*
X13808628Y-11122192D01*
X14050402Y-11686708D01*
X14077876Y-11746299D01*
X14103792Y-11805853D01*
X14152329Y-11924566D01*
X14245848Y-12158360D01*
X14270492Y-12215627D01*
X14296331Y-12272277D01*
X14323707Y-12328235D01*
X14352965Y-12383429D01*
X14384448Y-12437787D01*
X14418501Y-12491235D01*
X14455467Y-12543701D01*
X14495690Y-12595111D01*
X14611263Y-12735174D01*
X14445957Y-12740210D01*
X14284295Y-12634461D01*
X14122633Y-12528711D01*
X13839860Y-12120415D01*
X13215046Y-11218230D01*
X12970083Y-10865535D01*
X12861441Y-10711112D01*
X12860647Y-10710250D01*
X12859805Y-10709426D01*
X12858912Y-10708639D01*
X12857968Y-10707888D01*
X12856970Y-10707175D01*
X12855919Y-10706499D01*
X12854812Y-10705858D01*
X12853648Y-10705254D01*
X12852426Y-10704685D01*
X12851144Y-10704152D01*
X12849801Y-10703655D01*
X12848396Y-10703192D01*
X12846928Y-10702765D01*
X12845394Y-10702372D01*
X12842127Y-10701688D01*
X12838583Y-10701141D01*
X12834753Y-10700727D01*
X12830625Y-10700444D01*
X12826189Y-10700292D01*
X12821434Y-10700267D01*
X12816349Y-10700367D01*
X12810924Y-10700592D01*
X12805147Y-10700939D01*
X12760417Y-10703995D01*
X12760292Y-10753855D01*
X12760132Y-10764072D01*
X12759728Y-10773991D01*
X12759106Y-10783369D01*
X12758293Y-10791959D01*
X12757316Y-10799517D01*
X12756204Y-10805799D01*
X12755605Y-10808384D01*
X12754982Y-10810559D01*
X12754338Y-10812292D01*
X12753677Y-10813553D01*
X12751359Y-10816174D01*
X12747880Y-10818818D01*
X12737667Y-10824139D01*
X12723501Y-10829449D01*
X12705843Y-10834680D01*
X12685157Y-10839765D01*
X12661904Y-10844635D01*
X12636548Y-10849224D01*
X12609549Y-10853463D01*
X12581372Y-10857286D01*
X12552477Y-10860624D01*
X12523328Y-10863411D01*
X12494386Y-10865578D01*
X12466114Y-10867057D01*
X12438975Y-10867783D01*
X12413431Y-10867686D01*
X12389944Y-10866700D01*
X12335086Y-10862418D01*
X12286867Y-10857155D01*
X12265244Y-10854154D01*
X12245276Y-10850908D01*
X12226963Y-10847415D01*
X12210302Y-10843675D01*
X12195293Y-10839687D01*
X12181934Y-10835452D01*
X12170224Y-10830969D01*
X12160161Y-10826238D01*
X12151744Y-10821258D01*
X12144972Y-10816030D01*
X12139843Y-10810551D01*
X12136356Y-10804824D01*
X12135396Y-10801983D01*
X12134453Y-10797756D01*
X12133531Y-10792225D01*
X12132636Y-10785472D01*
X12130947Y-10768633D01*
X12129427Y-10747896D01*
X12128119Y-10723921D01*
X12127063Y-10697366D01*
X12126303Y-10668891D01*
X12125878Y-10639155D01*
X12125627Y-10578432D01*
X12125972Y-10553766D01*
X12126848Y-10532500D01*
X12128417Y-10514340D01*
X12130841Y-10498988D01*
X12132424Y-10492273D01*
X12134281Y-10486149D01*
X12136434Y-10480579D01*
X12138901Y-10475527D01*
X12141704Y-10470954D01*
X12144862Y-10466824D01*
X12148397Y-10463100D01*
X12152328Y-10459745D01*
X12156675Y-10456722D01*
X12161459Y-10453993D01*
X12166699Y-10451523D01*
X12172418Y-10449273D01*
X12185367Y-10445288D01*
X12200469Y-10441741D01*
X12237780Y-10434779D01*
X12292906Y-10426116D01*
X12319759Y-10422709D01*
X12346192Y-10419919D01*
X12372246Y-10417746D01*
X12397960Y-10416189D01*
X12423376Y-10415249D01*
X12448532Y-10414925D01*
X12473470Y-10415217D01*
X12498230Y-10416127D01*
X12522851Y-10417652D01*
X12547374Y-10419794D01*
X12571839Y-10422552D01*
X12596286Y-10425927D01*
X12620756Y-10429918D01*
X12645289Y-10434525D01*
X12674360Y-10440340D01*
X12598585Y-10330986D01*
X12514553Y-10209106D01*
X12418927Y-10069634D01*
X12315045Y-9917636D01*
X11802247Y-9917498D01*
X11472852Y-9916161D01*
X11356397Y-9914082D01*
X11263618Y-9910630D01*
X11188151Y-9905479D01*
X11123634Y-9898303D01*
X11063701Y-9888778D01*
X11001989Y-9876577D01*
X10939512Y-9862685D01*
X10878977Y-9847811D01*
X10820672Y-9832083D01*
X10764887Y-9815628D01*
X10711908Y-9798575D01*
X10662025Y-9781052D01*
X10615525Y-9763185D01*
X10572697Y-9745104D01*
X10533828Y-9726935D01*
X10499206Y-9708808D01*
X10469121Y-9690848D01*
X10443859Y-9673186D01*
X10423710Y-9655947D01*
X10408961Y-9639261D01*
X10399900Y-9623255D01*
X10397593Y-9615547D01*
X10396816Y-9608057D01*
X10397714Y-9599864D01*
X10400381Y-9591443D01*
X10404770Y-9582815D01*
X10410837Y-9573996D01*
X10418538Y-9565006D01*
X10427827Y-9555863D01*
X10438660Y-9546585D01*
X10450993Y-9537191D01*
X10464779Y-9527701D01*
X10479975Y-9518131D01*
X10514417Y-9498829D01*
X10553960Y-9479434D01*
X10598247Y-9460094D01*
X10646918Y-9440957D01*
X10699616Y-9422172D01*
X10755984Y-9403887D01*
X10815662Y-9386249D01*
X10878293Y-9369408D01*
X10943519Y-9353511D01*
X11010981Y-9338707D01*
X11080323Y-9325143D01*
X11116004Y-9318990D01*
X11133590Y-9316451D01*
X11152122Y-9314233D01*
X11172437Y-9312307D01*
X11195371Y-9310645D01*
X11221760Y-9309218D01*
X11252442Y-9307998D01*
X11288253Y-9306957D01*
X11330029Y-9306065D01*
X11434823Y-9304617D01*
X11573518Y-9303426D01*
X11752805Y-9302267D01*
X11973103Y-9300332D01*
X12153248Y-9297598D01*
X12274835Y-9294426D01*
X12307916Y-9292788D01*
X12319454Y-9291176D01*
X12320865Y-9287827D01*
X12325011Y-9280651D01*
X12341006Y-9255562D01*
X12366421Y-9217394D01*
X12400243Y-9167631D01*
X12489042Y-9039255D01*
X12599278Y-8882305D01*
X12627693Y-8841394D01*
X12639905Y-8823284D01*
X12650401Y-8807330D01*
X12658895Y-8793976D01*
X12665098Y-8783667D01*
X12668722Y-8776848D01*
X12669478Y-8774885D01*
X12669480Y-8773961D01*
X12669238Y-8773781D01*
X12668899Y-8773627D01*
X12668465Y-8773498D01*
X12667940Y-8773394D01*
X12666626Y-8773259D01*
X12664978Y-8773221D01*
X12663019Y-8773275D01*
X12660769Y-8773420D01*
X12658251Y-8773652D01*
X12655486Y-8773970D01*
X12652497Y-8774370D01*
X12649304Y-8774849D01*
X12645929Y-8775405D01*
X12642395Y-8776035D01*
X12638722Y-8776737D01*
X12634934Y-8777507D01*
X12631050Y-8778343D01*
X12627094Y-8779243D01*
X12597712Y-8785006D01*
X12565289Y-8789420D01*
X12530443Y-8792536D01*
X12493793Y-8794405D01*
X12455956Y-8795079D01*
X12417551Y-8794609D01*
X12379195Y-8793048D01*
X12341506Y-8790447D01*
X12305102Y-8786858D01*
X12270601Y-8782331D01*
X12238621Y-8776920D01*
X12209781Y-8770675D01*
X12184697Y-8763648D01*
X12163987Y-8755890D01*
X12148271Y-8747454D01*
X12142478Y-8742998D01*
X12138165Y-8738391D01*
X12137318Y-8737165D01*
X12136506Y-8735765D01*
X12135730Y-8734183D01*
X12134988Y-8732409D01*
X12133606Y-8728255D01*
X12132354Y-8723238D01*
X12131228Y-8717288D01*
X12130223Y-8710340D01*
X12129333Y-8702326D01*
X12128554Y-8693179D01*
X12127881Y-8682832D01*
X12127308Y-8671219D01*
X12126831Y-8658270D01*
X12126445Y-8643921D01*
X12125925Y-8610750D01*
X12125707Y-8571168D01*
X12125736Y-8526703D01*
X12126083Y-8491312D01*
X12126860Y-8463767D01*
X12128176Y-8442838D01*
X12129071Y-8434471D01*
X12130143Y-8427298D01*
X12131404Y-8421165D01*
X12132869Y-8415918D01*
X12134552Y-8411403D01*
X12136466Y-8407468D01*
X12138626Y-8403959D01*
X12141045Y-8400722D01*
X12146286Y-8395427D01*
X12153166Y-8390402D01*
X12161600Y-8385649D01*
X12171506Y-8381172D01*
X12195401Y-8373055D01*
X12224186Y-8366075D01*
X12257197Y-8360258D01*
X12293771Y-8355627D01*
X12333243Y-8352207D01*
X12374949Y-8350022D01*
X12418225Y-8349096D01*
X12462407Y-8349453D01*
X12506831Y-8351119D01*
X12550833Y-8354116D01*
X12593749Y-8358471D01*
X12634914Y-8364206D01*
X12673664Y-8371346D01*
X12709336Y-8379916D01*
X12759669Y-8393709D01*
X12762253Y-8452184D01*
X12764836Y-8510659D01*
X12808933Y-8513189D01*
X12853031Y-8515718D01*
X13029419Y-8259114D01*
X13161973Y-8067028D01*
X13232972Y-7965543D01*
X13339826Y-7812490D01*
X13558587Y-7496423D01*
X13937850Y-6949617D01*
X14010253Y-6846289D01*
X14070847Y-6758865D01*
X14088317Y-6733693D01*
X14096068Y-6723049D01*
X14103573Y-6713353D01*
X14111139Y-6704343D01*
X14119073Y-6695758D01*
X14127682Y-6687339D01*
X14137273Y-6678824D01*
X14148153Y-6669951D01*
X14160628Y-6660462D01*
X14175007Y-6650094D01*
X14191595Y-6638587D01*
X14210701Y-6625680D01*
X14232631Y-6611112D01*
X14286191Y-6575951D01*
X14449350Y-6469137D01*
X14531451Y-6469038D01*
X14550646Y-6469163D01*
D11*
X10641935Y-13036186D02*
X10641935Y-12836186D01*
X10641935Y-12836186D02*
X10689554Y-12836186D01*
X10689554Y-12836186D02*
X10718125Y-12845710D01*
X10718125Y-12845710D02*
X10737173Y-12864758D01*
X10737173Y-12864758D02*
X10746697Y-12883805D01*
X10746697Y-12883805D02*
X10756220Y-12921901D01*
X10756220Y-12921901D02*
X10756220Y-12950472D01*
X10756220Y-12950472D02*
X10746697Y-12988567D01*
X10746697Y-12988567D02*
X10737173Y-13007615D01*
X10737173Y-13007615D02*
X10718125Y-13026663D01*
X10718125Y-13026663D02*
X10689554Y-13036186D01*
X10689554Y-13036186D02*
X10641935Y-13036186D01*
X10841935Y-13036186D02*
X10841935Y-12902853D01*
X10841935Y-12940948D02*
X10851458Y-12921901D01*
X10851458Y-12921901D02*
X10860982Y-12912377D01*
X10860982Y-12912377D02*
X10880030Y-12902853D01*
X10880030Y-12902853D02*
X10899078Y-12902853D01*
X10965744Y-13036186D02*
X10965744Y-12902853D01*
X10965744Y-12836186D02*
X10956220Y-12845710D01*
X10956220Y-12845710D02*
X10965744Y-12855234D01*
X10965744Y-12855234D02*
X10975268Y-12845710D01*
X10975268Y-12845710D02*
X10965744Y-12836186D01*
X10965744Y-12836186D02*
X10965744Y-12855234D01*
X11089554Y-13036186D02*
X11070506Y-13026663D01*
X11070506Y-13026663D02*
X11060982Y-13007615D01*
X11060982Y-13007615D02*
X11060982Y-12836186D01*
X11194315Y-13036186D02*
X11175268Y-13026663D01*
X11175268Y-13026663D02*
X11165744Y-13007615D01*
X11165744Y-13007615D02*
X11165744Y-12836186D01*
X11390506Y-13036186D02*
X11390506Y-12836186D01*
X11390506Y-12836186D02*
X11457173Y-12979044D01*
X11457173Y-12979044D02*
X11523839Y-12836186D01*
X11523839Y-12836186D02*
X11523839Y-13036186D01*
X11704792Y-13036186D02*
X11704792Y-12931424D01*
X11704792Y-12931424D02*
X11695268Y-12912377D01*
X11695268Y-12912377D02*
X11676220Y-12902853D01*
X11676220Y-12902853D02*
X11638125Y-12902853D01*
X11638125Y-12902853D02*
X11619077Y-12912377D01*
X11704792Y-13026663D02*
X11685744Y-13036186D01*
X11685744Y-13036186D02*
X11638125Y-13036186D01*
X11638125Y-13036186D02*
X11619077Y-13026663D01*
X11619077Y-13026663D02*
X11609554Y-13007615D01*
X11609554Y-13007615D02*
X11609554Y-12988567D01*
X11609554Y-12988567D02*
X11619077Y-12969520D01*
X11619077Y-12969520D02*
X11638125Y-12959996D01*
X11638125Y-12959996D02*
X11685744Y-12959996D01*
X11685744Y-12959996D02*
X11704792Y-12950472D01*
X11800030Y-12902853D02*
X11800030Y-13102853D01*
X11800030Y-12912377D02*
X11819077Y-12902853D01*
X11819077Y-12902853D02*
X11857173Y-12902853D01*
X11857173Y-12902853D02*
X11876220Y-12912377D01*
X11876220Y-12912377D02*
X11885744Y-12921901D01*
X11885744Y-12921901D02*
X11895268Y-12940948D01*
X11895268Y-12940948D02*
X11895268Y-12998091D01*
X11895268Y-12998091D02*
X11885744Y-13017139D01*
X11885744Y-13017139D02*
X11876220Y-13026663D01*
X11876220Y-13026663D02*
X11857173Y-13036186D01*
X11857173Y-13036186D02*
X11819077Y-13036186D01*
X11819077Y-13036186D02*
X11800030Y-13026663D01*
X11980982Y-13017139D02*
X11990506Y-13026663D01*
X11990506Y-13026663D02*
X11980982Y-13036186D01*
X11980982Y-13036186D02*
X11971458Y-13026663D01*
X11971458Y-13026663D02*
X11980982Y-13017139D01*
X11980982Y-13017139D02*
X11980982Y-13036186D01*
X11980982Y-12912377D02*
X11990506Y-12921901D01*
X11990506Y-12921901D02*
X11980982Y-12931424D01*
X11980982Y-12931424D02*
X11971458Y-12921901D01*
X11971458Y-12921901D02*
X11980982Y-12912377D01*
X11980982Y-12912377D02*
X11980982Y-12931424D01*
M02*
