M48
; DRILL file {KiCad (6.99.0-2452-gdb4f2d9dd8)} date Thursday, July 21, 2022 at 12:57:04 PM
; FORMAT={-:-/ absolute / metric / decimal}
; #@! TF.CreationDate,2022-07-21T12:57:04-08:00
; #@! TF.GenerationSoftware,Kicad,Pcbnew,(6.99.0-2452-gdb4f2d9dd8)
; #@! TF.FileFunction,Plated,1,2,PTH
FMAT,2
METRIC
; #@! TA.AperFunction,Plated,PTH,ViaDrill
T1C0.400
; #@! TA.AperFunction,Plated,PTH,ComponentDrill
T2C1.000
%
G90
G05
T1
X86.7Y-98.0
X88.7Y-112.3
X90.8Y-112.3
X90.8Y-118.0
X93.1Y-118.0
X93.714Y-90.814
X117.4Y-111.6
X117.4Y-116.3
T2
X91.503Y-144.119
X91.57Y-85.352
X92.96Y-146.2
X93.027Y-83.272
X93.583Y-142.662
X93.65Y-86.809
X94.417Y-148.281
X94.483Y-81.191
X95.04Y-144.743
X95.107Y-84.728
X96.497Y-146.824
X96.564Y-82.648
X105.6Y-113.5
X105.6Y-116.04
X108.14Y-113.5
X108.14Y-116.04
X110.68Y-113.5
X110.68Y-116.04
T0
M30
