G04 #@! TF.GenerationSoftware,KiCad,Pcbnew,(6.99.0-2452-gdb4f2d9dd8)*
G04 #@! TF.CreationDate,2022-08-01T19:22:38-05:00*
G04 #@! TF.ProjectId,jwtelescope,6a777465-6c65-4736-936f-70652e6b6963,rev?*
G04 #@! TF.SameCoordinates,Original*
G04 #@! TF.FileFunction,Soldermask,Top*
G04 #@! TF.FilePolarity,Negative*
%FSLAX46Y46*%
G04 Gerber Fmt 4.6, Leading zero omitted, Abs format (unit mm)*
G04 Created by KiCad (PCBNEW (6.99.0-2452-gdb4f2d9dd8)) date 2022-08-01 19:22:38*
%MOMM*%
%LPD*%
G01*
G04 APERTURE LIST*
%ADD10C,0.150000*%
%ADD11R,1.700000X1.700000*%
%ADD12O,1.700000X1.700000*%
G04 APERTURE END LIST*
D10*
G36*
X88160000Y-40170000D02*
G01*
X88810000Y-41970000D01*
X88230000Y-43580000D01*
X87530000Y-43540000D01*
X86940000Y-41840000D01*
X87390000Y-40100000D01*
X88160000Y-40170000D01*
G37*
X88160000Y-40170000D02*
X88810000Y-41970000D01*
X88230000Y-43580000D01*
X87530000Y-43540000D01*
X86940000Y-41840000D01*
X87390000Y-40100000D01*
X88160000Y-40170000D01*
G36*
X88180000Y-36260000D02*
G01*
X88710000Y-37890000D01*
X88180000Y-39680000D01*
X87420000Y-39620000D01*
X86780000Y-37800000D01*
X87190000Y-36200000D01*
X88180000Y-36260000D01*
G37*
X88180000Y-36260000D02*
X88710000Y-37890000D01*
X88180000Y-39680000D01*
X87420000Y-39620000D01*
X86780000Y-37800000D01*
X87190000Y-36200000D01*
X88180000Y-36260000D01*
G36*
X86930000Y-39850000D02*
G01*
X86510000Y-41550000D01*
X85720000Y-41490000D01*
X85120000Y-39640000D01*
X85530000Y-38100000D01*
X86340000Y-38100000D01*
X86930000Y-39850000D01*
G37*
X86930000Y-39850000D02*
X86510000Y-41550000D01*
X85720000Y-41490000D01*
X85120000Y-39640000D01*
X85530000Y-38100000D01*
X86340000Y-38100000D01*
X86930000Y-39850000D01*
G36*
X84650000Y-39910000D02*
G01*
X85270000Y-41790000D01*
X84840000Y-43350000D01*
X84020000Y-43330000D01*
X83420000Y-41570000D01*
X83930000Y-39900000D01*
X84650000Y-39910000D01*
G37*
X84650000Y-39910000D02*
X85270000Y-41790000D01*
X84840000Y-43350000D01*
X84020000Y-43330000D01*
X83420000Y-41570000D01*
X83930000Y-39900000D01*
X84650000Y-39910000D01*
G36*
X86470000Y-42020000D02*
G01*
X87120000Y-43840000D01*
X86960000Y-44460000D01*
X85790000Y-44830000D01*
X85750000Y-44950000D01*
X85290000Y-43540000D01*
X85730000Y-42000000D01*
X86470000Y-42020000D01*
G37*
X86470000Y-42020000D02*
X87120000Y-43840000D01*
X86960000Y-44460000D01*
X85790000Y-44830000D01*
X85750000Y-44950000D01*
X85290000Y-43540000D01*
X85730000Y-42000000D01*
X86470000Y-42020000D01*
G36*
X85830000Y-46800000D02*
G01*
X87020000Y-47080000D01*
X87240000Y-47690000D01*
X86780000Y-49360000D01*
X86040000Y-49330000D01*
X85400000Y-47480000D01*
X85690000Y-46450000D01*
X85830000Y-46800000D01*
G37*
X85830000Y-46800000D02*
X87020000Y-47080000D01*
X87240000Y-47690000D01*
X86780000Y-49360000D01*
X86040000Y-49330000D01*
X85400000Y-47480000D01*
X85690000Y-46450000D01*
X85830000Y-46800000D01*
G36*
X84850000Y-43840000D02*
G01*
X85430000Y-45580000D01*
X84950000Y-47240000D01*
X84150000Y-47220000D01*
X83540000Y-45470000D01*
X84030000Y-43800000D01*
X84850000Y-43840000D01*
G37*
X84850000Y-43840000D02*
X85430000Y-45580000D01*
X84950000Y-47240000D01*
X84150000Y-47220000D01*
X83540000Y-45470000D01*
X84030000Y-43800000D01*
X84850000Y-43840000D01*
G36*
X84950000Y-47740000D02*
G01*
X85590000Y-49550000D01*
X85130000Y-51230000D01*
X84310000Y-51180000D01*
X83730000Y-49450000D01*
X84210000Y-47690000D01*
X84950000Y-47740000D01*
G37*
X84950000Y-47740000D02*
X85590000Y-49550000D01*
X85130000Y-51230000D01*
X84310000Y-51180000D01*
X83730000Y-49450000D01*
X84210000Y-47690000D01*
X84950000Y-47740000D01*
G36*
X86820000Y-49850000D02*
G01*
X87380000Y-51550000D01*
X86930000Y-53240000D01*
X86130000Y-53210000D01*
X85540000Y-51570000D01*
X86020000Y-49810000D01*
X86820000Y-49850000D01*
G37*
X86820000Y-49850000D02*
X87380000Y-51550000D01*
X86930000Y-53240000D01*
X86130000Y-53210000D01*
X85540000Y-51570000D01*
X86020000Y-49810000D01*
X86820000Y-49850000D01*
G36*
X88480000Y-47980000D02*
G01*
X89060000Y-49740000D01*
X88620000Y-51400000D01*
X87820000Y-51350000D01*
X87230000Y-49560000D01*
X87660000Y-47970000D01*
X88480000Y-47980000D01*
G37*
X88480000Y-47980000D02*
X89060000Y-49740000D01*
X88620000Y-51400000D01*
X87820000Y-51350000D01*
X87230000Y-49560000D01*
X87660000Y-47970000D01*
X88480000Y-47980000D01*
G36*
X88630000Y-51940000D02*
G01*
X89180000Y-53630000D01*
X88970000Y-54400000D01*
X87570000Y-54230000D01*
X87350000Y-53540000D01*
X87780000Y-51900000D01*
X88630000Y-51940000D01*
G37*
X88630000Y-51940000D02*
X89180000Y-53630000D01*
X88970000Y-54400000D01*
X87570000Y-54230000D01*
X87350000Y-53540000D01*
X87780000Y-51900000D01*
X88630000Y-51940000D01*
G36*
X88060000Y-55270000D02*
G01*
X88690000Y-55350000D01*
X88440000Y-55330000D01*
X87950000Y-55260000D01*
X88060000Y-55270000D01*
G37*
X88060000Y-55270000D02*
X88690000Y-55350000D01*
X88440000Y-55330000D01*
X87950000Y-55260000D01*
X88060000Y-55270000D01*
G36*
X90160000Y-46170000D02*
G01*
X90760000Y-47900000D01*
X90280000Y-49560000D01*
X89500000Y-49510000D01*
X88910000Y-47670000D01*
X89340000Y-46120000D01*
X90160000Y-46170000D01*
G37*
X90160000Y-46170000D02*
X90760000Y-47900000D01*
X90280000Y-49560000D01*
X89500000Y-49510000D01*
X88910000Y-47670000D01*
X89340000Y-46120000D01*
X90160000Y-46170000D01*
G36*
X90010000Y-42260000D02*
G01*
X90600000Y-44030000D01*
X90150000Y-45680000D01*
X89330000Y-45620000D01*
X88730000Y-44000000D01*
X89250000Y-42220000D01*
X90010000Y-42260000D01*
G37*
X90010000Y-42260000D02*
X90600000Y-44030000D01*
X90150000Y-45680000D01*
X89330000Y-45620000D01*
X88730000Y-44000000D01*
X89250000Y-42220000D01*
X90010000Y-42260000D01*
G36*
X89830000Y-38340000D02*
G01*
X90430000Y-40090000D01*
X89990000Y-41760000D01*
X89230000Y-41720000D01*
X88620000Y-39950000D01*
X89140000Y-38310000D01*
X89830000Y-38340000D01*
G37*
X89830000Y-38340000D02*
X90430000Y-40090000D01*
X89990000Y-41760000D01*
X89230000Y-41720000D01*
X88620000Y-39950000D01*
X89140000Y-38310000D01*
X89830000Y-38340000D01*
G36*
X91720000Y-40430000D02*
G01*
X92270000Y-42130000D01*
X91790000Y-43770000D01*
X91070000Y-43710000D01*
X90450000Y-41950000D01*
X90880000Y-40390000D01*
X91720000Y-40430000D01*
G37*
X91720000Y-40430000D02*
X92270000Y-42130000D01*
X91790000Y-43770000D01*
X91070000Y-43710000D01*
X90450000Y-41950000D01*
X90880000Y-40390000D01*
X91720000Y-40430000D01*
G36*
X91900000Y-44320000D02*
G01*
X92500000Y-46120000D01*
X92040000Y-47700000D01*
X91180000Y-47660000D01*
X90610000Y-45940000D01*
X91060000Y-44240000D01*
X91900000Y-44320000D01*
G37*
X91900000Y-44320000D02*
X92500000Y-46120000D01*
X92040000Y-47700000D01*
X91180000Y-47660000D01*
X90610000Y-45940000D01*
X91060000Y-44240000D01*
X91900000Y-44320000D01*
G36*
X92060000Y-48210000D02*
G01*
X92630000Y-49900000D01*
X92170000Y-51540000D01*
X91350000Y-51550000D01*
X90750000Y-49790000D01*
X91190000Y-48140000D01*
X92060000Y-48210000D01*
G37*
X92060000Y-48210000D02*
X92630000Y-49900000D01*
X92170000Y-51540000D01*
X91350000Y-51550000D01*
X90750000Y-49790000D01*
X91190000Y-48140000D01*
X92060000Y-48210000D01*
G36*
X90320000Y-50050000D02*
G01*
X90880000Y-51820000D01*
X90430000Y-53430000D01*
X89660000Y-53390000D01*
X89080000Y-51690000D01*
X89520000Y-50000000D01*
X90320000Y-50050000D01*
G37*
X90320000Y-50050000D02*
X90880000Y-51820000D01*
X90430000Y-53430000D01*
X89660000Y-53390000D01*
X89080000Y-51690000D01*
X89520000Y-50000000D01*
X90320000Y-50050000D01*
G36*
X96380000Y-55100000D02*
G01*
X95560000Y-52740000D01*
X96370000Y-52590000D01*
X96380000Y-55100000D01*
G37*
X96380000Y-55100000D02*
X95560000Y-52740000D01*
X96370000Y-52590000D01*
X96380000Y-55100000D01*
G36*
X111060000Y-51570000D02*
G01*
X103270000Y-59590000D01*
X64340000Y-67970000D01*
X60200000Y-65600000D01*
X82400000Y-54490000D01*
X87310000Y-55070000D01*
X87540000Y-55720000D01*
X88490000Y-55810000D01*
X89340000Y-55930000D01*
X89500000Y-55860000D01*
X89590000Y-55540000D01*
X91820000Y-55970000D01*
X92210000Y-55840000D01*
X92450000Y-55630000D01*
X92740000Y-53990000D01*
X92820000Y-53550000D01*
X92920000Y-53400000D01*
X93270000Y-56200000D01*
X93370000Y-56520000D01*
X94170000Y-56890000D01*
X94840000Y-57140000D01*
X95100000Y-57080000D01*
X95270000Y-56830000D01*
X94920000Y-52880000D01*
X96530000Y-57290000D01*
X96660000Y-57370000D01*
X96880000Y-57370000D01*
X97040000Y-57260000D01*
X97080000Y-52370000D01*
X97370000Y-52250000D01*
X97560000Y-52030000D01*
X97410000Y-50260000D01*
X105400000Y-49010000D01*
X111060000Y-51570000D01*
G37*
X111060000Y-51570000D02*
X103270000Y-59590000D01*
X64340000Y-67970000D01*
X60200000Y-65600000D01*
X82400000Y-54490000D01*
X87310000Y-55070000D01*
X87540000Y-55720000D01*
X88490000Y-55810000D01*
X89340000Y-55930000D01*
X89500000Y-55860000D01*
X89590000Y-55540000D01*
X91820000Y-55970000D01*
X92210000Y-55840000D01*
X92450000Y-55630000D01*
X92740000Y-53990000D01*
X92820000Y-53550000D01*
X92920000Y-53400000D01*
X93270000Y-56200000D01*
X93370000Y-56520000D01*
X94170000Y-56890000D01*
X94840000Y-57140000D01*
X95100000Y-57080000D01*
X95270000Y-56830000D01*
X94920000Y-52880000D01*
X96530000Y-57290000D01*
X96660000Y-57370000D01*
X96880000Y-57370000D01*
X97040000Y-57260000D01*
X97080000Y-52370000D01*
X97370000Y-52250000D01*
X97560000Y-52030000D01*
X97410000Y-50260000D01*
X105400000Y-49010000D01*
X111060000Y-51570000D01*
G36*
X85730000Y-53510000D02*
G01*
X84580000Y-53380000D01*
X85520000Y-52920000D01*
X85730000Y-53510000D01*
G37*
X85730000Y-53510000D02*
X84580000Y-53380000D01*
X85520000Y-52920000D01*
X85730000Y-53510000D01*
G36*
X85760000Y-54130000D02*
G01*
X85740000Y-54230000D01*
X83410000Y-53980000D01*
X83600000Y-53880000D01*
X85760000Y-54130000D01*
G37*
X85760000Y-54130000D02*
X85740000Y-54230000D01*
X83410000Y-53980000D01*
X83600000Y-53880000D01*
X85760000Y-54130000D01*
G36*
X111100000Y-55600000D02*
G01*
X103420000Y-63600000D01*
X64400000Y-71990000D01*
X60260000Y-69660000D01*
X60750000Y-69400000D01*
X64300000Y-71410000D01*
X103540000Y-62950000D01*
X110760000Y-55450000D01*
X111100000Y-55600000D01*
G37*
X111100000Y-55600000D02*
X103420000Y-63600000D01*
X64400000Y-71990000D01*
X60260000Y-69660000D01*
X60750000Y-69400000D01*
X64300000Y-71410000D01*
X103540000Y-62950000D01*
X110760000Y-55450000D01*
X111100000Y-55600000D01*
G36*
X111060000Y-54640000D02*
G01*
X103380000Y-62630000D01*
X64360000Y-71040000D01*
X60210000Y-68700000D01*
X60810000Y-68400000D01*
X64350000Y-70400000D01*
X103600000Y-61940000D01*
X110740000Y-54490000D01*
X111060000Y-54640000D01*
G37*
X111060000Y-54640000D02*
X103380000Y-62630000D01*
X64360000Y-71040000D01*
X60210000Y-68700000D01*
X60810000Y-68400000D01*
X64350000Y-70400000D01*
X103600000Y-61940000D01*
X110740000Y-54490000D01*
X111060000Y-54640000D01*
G36*
X111100000Y-53630000D02*
G01*
X103430000Y-61620000D01*
X64400000Y-70030000D01*
X60260000Y-67680000D01*
X60820000Y-67400000D01*
X64250000Y-69340000D01*
X103500000Y-60890000D01*
X110670000Y-53440000D01*
X111100000Y-53630000D01*
G37*
X111100000Y-53630000D02*
X103430000Y-61620000D01*
X64400000Y-70030000D01*
X60260000Y-67680000D01*
X60820000Y-67400000D01*
X64250000Y-69340000D01*
X103500000Y-60890000D01*
X110670000Y-53440000D01*
X111100000Y-53630000D01*
G36*
X111020000Y-52580000D02*
G01*
X103330000Y-60570000D01*
X64300000Y-68980000D01*
X60150000Y-66640000D01*
X60770000Y-66330000D01*
X64300000Y-68350000D01*
X103440000Y-59920000D01*
X110700000Y-52450000D01*
X111020000Y-52580000D01*
G37*
X111020000Y-52580000D02*
X103330000Y-60570000D01*
X64300000Y-68980000D01*
X60150000Y-66640000D01*
X60770000Y-66330000D01*
X64300000Y-68350000D01*
X103440000Y-59920000D01*
X110700000Y-52450000D01*
X111020000Y-52580000D01*
D11*
X99159999Y-41779999D03*
D12*
X99159999Y-44319999D03*
X101699999Y-41779999D03*
X101699999Y-44319999D03*
X104239999Y-41779999D03*
X104239999Y-44319999D03*
M02*
