%TF.GenerationSoftware,KiCad,Pcbnew,(6.99.0-2452-gdb4f2d9dd8)*%
%TF.CreationDate,2022-08-01T19:22:41-05:00*%
%TF.ProjectId,jwtelescope,6a777465-6c65-4736-936f-70652e6b6963,rev?*%
%TF.SameCoordinates,Original*%
%TF.FileFunction,Drillmap*%
%TF.FilePolarity,Positive*%
%FSLAX45Y45*%
G04 Gerber Fmt 4.5, Leading zero omitted, Abs format (unit mm)*
G04 Created by KiCad (PCBNEW (6.99.0-2452-gdb4f2d9dd8)) date 2022-08-01 19:22:41*
%MOMM*%
%LPD*%
G01*
G04 APERTURE LIST*
%ADD10C,0.100000*%
%ADD11C,0.200000*%
G04 APERTURE END LIST*
D10*
X10345000Y-3535000D02*
X11240000Y-4450000D01*
X5840000Y-6360000D02*
X5840000Y-7020000D01*
X9560000Y-3320000D02*
X10345000Y-3535000D01*
X10420000Y-6510000D02*
X11240000Y-5620000D01*
X5840000Y-6360000D02*
X6590000Y-4730000D01*
X6590000Y-4730000D02*
X8790000Y-3320000D01*
X11240000Y-4450000D02*
X11240000Y-5620000D01*
X8790000Y-3320000D02*
X9560000Y-3320000D01*
X5840000Y-7020000D02*
X6440000Y-7360000D01*
X6440000Y-7360000D02*
X10420000Y-6510000D01*
D11*
D10*
X9866000Y-4128000D02*
X9966000Y-4228000D01*
X9966000Y-4128000D02*
X9866000Y-4228000D01*
X9866000Y-4382000D02*
X9966000Y-4482000D01*
X9966000Y-4382000D02*
X9866000Y-4482000D01*
X10120000Y-4128000D02*
X10220000Y-4228000D01*
X10220000Y-4128000D02*
X10120000Y-4228000D01*
X10120000Y-4382000D02*
X10220000Y-4482000D01*
X10220000Y-4382000D02*
X10120000Y-4482000D01*
X10374000Y-4128000D02*
X10474000Y-4228000D01*
X10474000Y-4128000D02*
X10374000Y-4228000D01*
X10374000Y-4382000D02*
X10474000Y-4482000D01*
X10474000Y-4382000D02*
X10374000Y-4482000D01*
D11*
X6082619Y-7658476D02*
X6082619Y-7458476D01*
X6082619Y-7458476D02*
X6130238Y-7458476D01*
X6130238Y-7458476D02*
X6158809Y-7468000D01*
X6158809Y-7468000D02*
X6177857Y-7487048D01*
X6177857Y-7487048D02*
X6187381Y-7506095D01*
X6187381Y-7506095D02*
X6196905Y-7544190D01*
X6196905Y-7544190D02*
X6196905Y-7572762D01*
X6196905Y-7572762D02*
X6187381Y-7610857D01*
X6187381Y-7610857D02*
X6177857Y-7629905D01*
X6177857Y-7629905D02*
X6158809Y-7648952D01*
X6158809Y-7648952D02*
X6130238Y-7658476D01*
X6130238Y-7658476D02*
X6082619Y-7658476D01*
X6282619Y-7658476D02*
X6282619Y-7525143D01*
X6282619Y-7563238D02*
X6292143Y-7544190D01*
X6292143Y-7544190D02*
X6301667Y-7534667D01*
X6301667Y-7534667D02*
X6320714Y-7525143D01*
X6320714Y-7525143D02*
X6339762Y-7525143D01*
X6406428Y-7658476D02*
X6406428Y-7525143D01*
X6406428Y-7458476D02*
X6396905Y-7468000D01*
X6396905Y-7468000D02*
X6406428Y-7477524D01*
X6406428Y-7477524D02*
X6415952Y-7468000D01*
X6415952Y-7468000D02*
X6406428Y-7458476D01*
X6406428Y-7458476D02*
X6406428Y-7477524D01*
X6530238Y-7658476D02*
X6511190Y-7648952D01*
X6511190Y-7648952D02*
X6501667Y-7629905D01*
X6501667Y-7629905D02*
X6501667Y-7458476D01*
X6635000Y-7658476D02*
X6615952Y-7648952D01*
X6615952Y-7648952D02*
X6606428Y-7629905D01*
X6606428Y-7629905D02*
X6606428Y-7458476D01*
X6831190Y-7658476D02*
X6831190Y-7458476D01*
X6831190Y-7458476D02*
X6897857Y-7601333D01*
X6897857Y-7601333D02*
X6964524Y-7458476D01*
X6964524Y-7458476D02*
X6964524Y-7658476D01*
X7145476Y-7658476D02*
X7145476Y-7553714D01*
X7145476Y-7553714D02*
X7135952Y-7534667D01*
X7135952Y-7534667D02*
X7116905Y-7525143D01*
X7116905Y-7525143D02*
X7078809Y-7525143D01*
X7078809Y-7525143D02*
X7059762Y-7534667D01*
X7145476Y-7648952D02*
X7126428Y-7658476D01*
X7126428Y-7658476D02*
X7078809Y-7658476D01*
X7078809Y-7658476D02*
X7059762Y-7648952D01*
X7059762Y-7648952D02*
X7050238Y-7629905D01*
X7050238Y-7629905D02*
X7050238Y-7610857D01*
X7050238Y-7610857D02*
X7059762Y-7591809D01*
X7059762Y-7591809D02*
X7078809Y-7582286D01*
X7078809Y-7582286D02*
X7126428Y-7582286D01*
X7126428Y-7582286D02*
X7145476Y-7572762D01*
X7240714Y-7525143D02*
X7240714Y-7725143D01*
X7240714Y-7534667D02*
X7259762Y-7525143D01*
X7259762Y-7525143D02*
X7297857Y-7525143D01*
X7297857Y-7525143D02*
X7316905Y-7534667D01*
X7316905Y-7534667D02*
X7326428Y-7544190D01*
X7326428Y-7544190D02*
X7335952Y-7563238D01*
X7335952Y-7563238D02*
X7335952Y-7620381D01*
X7335952Y-7620381D02*
X7326428Y-7639428D01*
X7326428Y-7639428D02*
X7316905Y-7648952D01*
X7316905Y-7648952D02*
X7297857Y-7658476D01*
X7297857Y-7658476D02*
X7259762Y-7658476D01*
X7259762Y-7658476D02*
X7240714Y-7648952D01*
X7421667Y-7639428D02*
X7431190Y-7648952D01*
X7431190Y-7648952D02*
X7421667Y-7658476D01*
X7421667Y-7658476D02*
X7412143Y-7648952D01*
X7412143Y-7648952D02*
X7421667Y-7639428D01*
X7421667Y-7639428D02*
X7421667Y-7658476D01*
X7421667Y-7534667D02*
X7431190Y-7544190D01*
X7431190Y-7544190D02*
X7421667Y-7553714D01*
X7421667Y-7553714D02*
X7412143Y-7544190D01*
X7412143Y-7544190D02*
X7421667Y-7534667D01*
X7421667Y-7534667D02*
X7421667Y-7553714D01*
D10*
X5735000Y-7955000D02*
X5835000Y-8055000D01*
X5835000Y-7955000D02*
X5735000Y-8055000D01*
D11*
X6187381Y-8078476D02*
X6073095Y-8078476D01*
X6130238Y-8078476D02*
X6130238Y-7878476D01*
X6130238Y-7878476D02*
X6111190Y-7907048D01*
X6111190Y-7907048D02*
X6092143Y-7926095D01*
X6092143Y-7926095D02*
X6073095Y-7935619D01*
X6273095Y-8059428D02*
X6282619Y-8068952D01*
X6282619Y-8068952D02*
X6273095Y-8078476D01*
X6273095Y-8078476D02*
X6263571Y-8068952D01*
X6263571Y-8068952D02*
X6273095Y-8059428D01*
X6273095Y-8059428D02*
X6273095Y-8078476D01*
X6406428Y-7878476D02*
X6425476Y-7878476D01*
X6425476Y-7878476D02*
X6444524Y-7888000D01*
X6444524Y-7888000D02*
X6454048Y-7897524D01*
X6454048Y-7897524D02*
X6463571Y-7916571D01*
X6463571Y-7916571D02*
X6473095Y-7954667D01*
X6473095Y-7954667D02*
X6473095Y-8002286D01*
X6473095Y-8002286D02*
X6463571Y-8040381D01*
X6463571Y-8040381D02*
X6454048Y-8059428D01*
X6454048Y-8059428D02*
X6444524Y-8068952D01*
X6444524Y-8068952D02*
X6425476Y-8078476D01*
X6425476Y-8078476D02*
X6406428Y-8078476D01*
X6406428Y-8078476D02*
X6387381Y-8068952D01*
X6387381Y-8068952D02*
X6377857Y-8059428D01*
X6377857Y-8059428D02*
X6368333Y-8040381D01*
X6368333Y-8040381D02*
X6358809Y-8002286D01*
X6358809Y-8002286D02*
X6358809Y-7954667D01*
X6358809Y-7954667D02*
X6368333Y-7916571D01*
X6368333Y-7916571D02*
X6377857Y-7897524D01*
X6377857Y-7897524D02*
X6387381Y-7888000D01*
X6387381Y-7888000D02*
X6406428Y-7878476D01*
X6596905Y-7878476D02*
X6615952Y-7878476D01*
X6615952Y-7878476D02*
X6635000Y-7888000D01*
X6635000Y-7888000D02*
X6644524Y-7897524D01*
X6644524Y-7897524D02*
X6654048Y-7916571D01*
X6654048Y-7916571D02*
X6663571Y-7954667D01*
X6663571Y-7954667D02*
X6663571Y-8002286D01*
X6663571Y-8002286D02*
X6654048Y-8040381D01*
X6654048Y-8040381D02*
X6644524Y-8059428D01*
X6644524Y-8059428D02*
X6635000Y-8068952D01*
X6635000Y-8068952D02*
X6615952Y-8078476D01*
X6615952Y-8078476D02*
X6596905Y-8078476D01*
X6596905Y-8078476D02*
X6577857Y-8068952D01*
X6577857Y-8068952D02*
X6568333Y-8059428D01*
X6568333Y-8059428D02*
X6558809Y-8040381D01*
X6558809Y-8040381D02*
X6549286Y-8002286D01*
X6549286Y-8002286D02*
X6549286Y-7954667D01*
X6549286Y-7954667D02*
X6558809Y-7916571D01*
X6558809Y-7916571D02*
X6568333Y-7897524D01*
X6568333Y-7897524D02*
X6577857Y-7888000D01*
X6577857Y-7888000D02*
X6596905Y-7878476D01*
X6787381Y-7878476D02*
X6806429Y-7878476D01*
X6806429Y-7878476D02*
X6825476Y-7888000D01*
X6825476Y-7888000D02*
X6835000Y-7897524D01*
X6835000Y-7897524D02*
X6844524Y-7916571D01*
X6844524Y-7916571D02*
X6854048Y-7954667D01*
X6854048Y-7954667D02*
X6854048Y-8002286D01*
X6854048Y-8002286D02*
X6844524Y-8040381D01*
X6844524Y-8040381D02*
X6835000Y-8059428D01*
X6835000Y-8059428D02*
X6825476Y-8068952D01*
X6825476Y-8068952D02*
X6806429Y-8078476D01*
X6806429Y-8078476D02*
X6787381Y-8078476D01*
X6787381Y-8078476D02*
X6768333Y-8068952D01*
X6768333Y-8068952D02*
X6758809Y-8059428D01*
X6758809Y-8059428D02*
X6749286Y-8040381D01*
X6749286Y-8040381D02*
X6739762Y-8002286D01*
X6739762Y-8002286D02*
X6739762Y-7954667D01*
X6739762Y-7954667D02*
X6749286Y-7916571D01*
X6749286Y-7916571D02*
X6758809Y-7897524D01*
X6758809Y-7897524D02*
X6768333Y-7888000D01*
X6768333Y-7888000D02*
X6787381Y-7878476D01*
X6939762Y-8078476D02*
X6939762Y-7945143D01*
X6939762Y-7964190D02*
X6949286Y-7954667D01*
X6949286Y-7954667D02*
X6968333Y-7945143D01*
X6968333Y-7945143D02*
X6996905Y-7945143D01*
X6996905Y-7945143D02*
X7015952Y-7954667D01*
X7015952Y-7954667D02*
X7025476Y-7973714D01*
X7025476Y-7973714D02*
X7025476Y-8078476D01*
X7025476Y-7973714D02*
X7035000Y-7954667D01*
X7035000Y-7954667D02*
X7054048Y-7945143D01*
X7054048Y-7945143D02*
X7082619Y-7945143D01*
X7082619Y-7945143D02*
X7101667Y-7954667D01*
X7101667Y-7954667D02*
X7111190Y-7973714D01*
X7111190Y-7973714D02*
X7111190Y-8078476D01*
X7206429Y-8078476D02*
X7206429Y-7945143D01*
X7206429Y-7964190D02*
X7215952Y-7954667D01*
X7215952Y-7954667D02*
X7235000Y-7945143D01*
X7235000Y-7945143D02*
X7263571Y-7945143D01*
X7263571Y-7945143D02*
X7282619Y-7954667D01*
X7282619Y-7954667D02*
X7292143Y-7973714D01*
X7292143Y-7973714D02*
X7292143Y-8078476D01*
X7292143Y-7973714D02*
X7301667Y-7954667D01*
X7301667Y-7954667D02*
X7320714Y-7945143D01*
X7320714Y-7945143D02*
X7349286Y-7945143D01*
X7349286Y-7945143D02*
X7368333Y-7954667D01*
X7368333Y-7954667D02*
X7377857Y-7973714D01*
X7377857Y-7973714D02*
X7377857Y-8078476D01*
X7735952Y-7868952D02*
X7564524Y-8126095D01*
X7960714Y-7878476D02*
X7979762Y-7878476D01*
X7979762Y-7878476D02*
X7998810Y-7888000D01*
X7998810Y-7888000D02*
X8008333Y-7897524D01*
X8008333Y-7897524D02*
X8017857Y-7916571D01*
X8017857Y-7916571D02*
X8027381Y-7954667D01*
X8027381Y-7954667D02*
X8027381Y-8002286D01*
X8027381Y-8002286D02*
X8017857Y-8040381D01*
X8017857Y-8040381D02*
X8008333Y-8059428D01*
X8008333Y-8059428D02*
X7998810Y-8068952D01*
X7998810Y-8068952D02*
X7979762Y-8078476D01*
X7979762Y-8078476D02*
X7960714Y-8078476D01*
X7960714Y-8078476D02*
X7941667Y-8068952D01*
X7941667Y-8068952D02*
X7932143Y-8059428D01*
X7932143Y-8059428D02*
X7922619Y-8040381D01*
X7922619Y-8040381D02*
X7913095Y-8002286D01*
X7913095Y-8002286D02*
X7913095Y-7954667D01*
X7913095Y-7954667D02*
X7922619Y-7916571D01*
X7922619Y-7916571D02*
X7932143Y-7897524D01*
X7932143Y-7897524D02*
X7941667Y-7888000D01*
X7941667Y-7888000D02*
X7960714Y-7878476D01*
X8113095Y-8059428D02*
X8122619Y-8068952D01*
X8122619Y-8068952D02*
X8113095Y-8078476D01*
X8113095Y-8078476D02*
X8103571Y-8068952D01*
X8103571Y-8068952D02*
X8113095Y-8059428D01*
X8113095Y-8059428D02*
X8113095Y-8078476D01*
X8246429Y-7878476D02*
X8265476Y-7878476D01*
X8265476Y-7878476D02*
X8284524Y-7888000D01*
X8284524Y-7888000D02*
X8294048Y-7897524D01*
X8294048Y-7897524D02*
X8303571Y-7916571D01*
X8303571Y-7916571D02*
X8313095Y-7954667D01*
X8313095Y-7954667D02*
X8313095Y-8002286D01*
X8313095Y-8002286D02*
X8303571Y-8040381D01*
X8303571Y-8040381D02*
X8294048Y-8059428D01*
X8294048Y-8059428D02*
X8284524Y-8068952D01*
X8284524Y-8068952D02*
X8265476Y-8078476D01*
X8265476Y-8078476D02*
X8246429Y-8078476D01*
X8246429Y-8078476D02*
X8227381Y-8068952D01*
X8227381Y-8068952D02*
X8217857Y-8059428D01*
X8217857Y-8059428D02*
X8208333Y-8040381D01*
X8208333Y-8040381D02*
X8198810Y-8002286D01*
X8198810Y-8002286D02*
X8198810Y-7954667D01*
X8198810Y-7954667D02*
X8208333Y-7916571D01*
X8208333Y-7916571D02*
X8217857Y-7897524D01*
X8217857Y-7897524D02*
X8227381Y-7888000D01*
X8227381Y-7888000D02*
X8246429Y-7878476D01*
X8379762Y-7878476D02*
X8503572Y-7878476D01*
X8503572Y-7878476D02*
X8436905Y-7954667D01*
X8436905Y-7954667D02*
X8465476Y-7954667D01*
X8465476Y-7954667D02*
X8484524Y-7964190D01*
X8484524Y-7964190D02*
X8494048Y-7973714D01*
X8494048Y-7973714D02*
X8503572Y-7992762D01*
X8503572Y-7992762D02*
X8503572Y-8040381D01*
X8503572Y-8040381D02*
X8494048Y-8059428D01*
X8494048Y-8059428D02*
X8484524Y-8068952D01*
X8484524Y-8068952D02*
X8465476Y-8078476D01*
X8465476Y-8078476D02*
X8408333Y-8078476D01*
X8408333Y-8078476D02*
X8389286Y-8068952D01*
X8389286Y-8068952D02*
X8379762Y-8059428D01*
X8598810Y-8078476D02*
X8636905Y-8078476D01*
X8636905Y-8078476D02*
X8655953Y-8068952D01*
X8655953Y-8068952D02*
X8665476Y-8059428D01*
X8665476Y-8059428D02*
X8684524Y-8030857D01*
X8684524Y-8030857D02*
X8694048Y-7992762D01*
X8694048Y-7992762D02*
X8694048Y-7916571D01*
X8694048Y-7916571D02*
X8684524Y-7897524D01*
X8684524Y-7897524D02*
X8675000Y-7888000D01*
X8675000Y-7888000D02*
X8655953Y-7878476D01*
X8655953Y-7878476D02*
X8617857Y-7878476D01*
X8617857Y-7878476D02*
X8598810Y-7888000D01*
X8598810Y-7888000D02*
X8589286Y-7897524D01*
X8589286Y-7897524D02*
X8579762Y-7916571D01*
X8579762Y-7916571D02*
X8579762Y-7964190D01*
X8579762Y-7964190D02*
X8589286Y-7983238D01*
X8589286Y-7983238D02*
X8598810Y-7992762D01*
X8598810Y-7992762D02*
X8617857Y-8002286D01*
X8617857Y-8002286D02*
X8655953Y-8002286D01*
X8655953Y-8002286D02*
X8675000Y-7992762D01*
X8675000Y-7992762D02*
X8684524Y-7983238D01*
X8684524Y-7983238D02*
X8694048Y-7964190D01*
X8865476Y-7945143D02*
X8865476Y-8078476D01*
X8817857Y-7868952D02*
X8770238Y-8011809D01*
X8770238Y-8011809D02*
X8894048Y-8011809D01*
X8960714Y-7878476D02*
X8960714Y-7916571D01*
X9036905Y-7878476D02*
X9036905Y-7916571D01*
X9299762Y-8154667D02*
X9290238Y-8145143D01*
X9290238Y-8145143D02*
X9271191Y-8116571D01*
X9271191Y-8116571D02*
X9261667Y-8097524D01*
X9261667Y-8097524D02*
X9252143Y-8068952D01*
X9252143Y-8068952D02*
X9242619Y-8021333D01*
X9242619Y-8021333D02*
X9242619Y-7983238D01*
X9242619Y-7983238D02*
X9252143Y-7935619D01*
X9252143Y-7935619D02*
X9261667Y-7907048D01*
X9261667Y-7907048D02*
X9271191Y-7888000D01*
X9271191Y-7888000D02*
X9290238Y-7859428D01*
X9290238Y-7859428D02*
X9299762Y-7849905D01*
X9461667Y-7878476D02*
X9423572Y-7878476D01*
X9423572Y-7878476D02*
X9404524Y-7888000D01*
X9404524Y-7888000D02*
X9395000Y-7897524D01*
X9395000Y-7897524D02*
X9375953Y-7926095D01*
X9375953Y-7926095D02*
X9366429Y-7964190D01*
X9366429Y-7964190D02*
X9366429Y-8040381D01*
X9366429Y-8040381D02*
X9375953Y-8059428D01*
X9375953Y-8059428D02*
X9385476Y-8068952D01*
X9385476Y-8068952D02*
X9404524Y-8078476D01*
X9404524Y-8078476D02*
X9442619Y-8078476D01*
X9442619Y-8078476D02*
X9461667Y-8068952D01*
X9461667Y-8068952D02*
X9471191Y-8059428D01*
X9471191Y-8059428D02*
X9480714Y-8040381D01*
X9480714Y-8040381D02*
X9480714Y-7992762D01*
X9480714Y-7992762D02*
X9471191Y-7973714D01*
X9471191Y-7973714D02*
X9461667Y-7964190D01*
X9461667Y-7964190D02*
X9442619Y-7954667D01*
X9442619Y-7954667D02*
X9404524Y-7954667D01*
X9404524Y-7954667D02*
X9385476Y-7964190D01*
X9385476Y-7964190D02*
X9375953Y-7973714D01*
X9375953Y-7973714D02*
X9366429Y-7992762D01*
X9686429Y-8078476D02*
X9686429Y-7878476D01*
X9772143Y-8078476D02*
X9772143Y-7973714D01*
X9772143Y-7973714D02*
X9762619Y-7954667D01*
X9762619Y-7954667D02*
X9743572Y-7945143D01*
X9743572Y-7945143D02*
X9715000Y-7945143D01*
X9715000Y-7945143D02*
X9695953Y-7954667D01*
X9695953Y-7954667D02*
X9686429Y-7964190D01*
X9895953Y-8078476D02*
X9876905Y-8068952D01*
X9876905Y-8068952D02*
X9867381Y-8059428D01*
X9867381Y-8059428D02*
X9857857Y-8040381D01*
X9857857Y-8040381D02*
X9857857Y-7983238D01*
X9857857Y-7983238D02*
X9867381Y-7964190D01*
X9867381Y-7964190D02*
X9876905Y-7954667D01*
X9876905Y-7954667D02*
X9895953Y-7945143D01*
X9895953Y-7945143D02*
X9924524Y-7945143D01*
X9924524Y-7945143D02*
X9943572Y-7954667D01*
X9943572Y-7954667D02*
X9953095Y-7964190D01*
X9953095Y-7964190D02*
X9962619Y-7983238D01*
X9962619Y-7983238D02*
X9962619Y-8040381D01*
X9962619Y-8040381D02*
X9953095Y-8059428D01*
X9953095Y-8059428D02*
X9943572Y-8068952D01*
X9943572Y-8068952D02*
X9924524Y-8078476D01*
X9924524Y-8078476D02*
X9895953Y-8078476D01*
X10076905Y-8078476D02*
X10057857Y-8068952D01*
X10057857Y-8068952D02*
X10048334Y-8049905D01*
X10048334Y-8049905D02*
X10048334Y-7878476D01*
X10229286Y-8068952D02*
X10210238Y-8078476D01*
X10210238Y-8078476D02*
X10172143Y-8078476D01*
X10172143Y-8078476D02*
X10153095Y-8068952D01*
X10153095Y-8068952D02*
X10143572Y-8049905D01*
X10143572Y-8049905D02*
X10143572Y-7973714D01*
X10143572Y-7973714D02*
X10153095Y-7954667D01*
X10153095Y-7954667D02*
X10172143Y-7945143D01*
X10172143Y-7945143D02*
X10210238Y-7945143D01*
X10210238Y-7945143D02*
X10229286Y-7954667D01*
X10229286Y-7954667D02*
X10238810Y-7973714D01*
X10238810Y-7973714D02*
X10238810Y-7992762D01*
X10238810Y-7992762D02*
X10143572Y-8011809D01*
X10315000Y-8068952D02*
X10334048Y-8078476D01*
X10334048Y-8078476D02*
X10372143Y-8078476D01*
X10372143Y-8078476D02*
X10391191Y-8068952D01*
X10391191Y-8068952D02*
X10400715Y-8049905D01*
X10400715Y-8049905D02*
X10400715Y-8040381D01*
X10400715Y-8040381D02*
X10391191Y-8021333D01*
X10391191Y-8021333D02*
X10372143Y-8011809D01*
X10372143Y-8011809D02*
X10343572Y-8011809D01*
X10343572Y-8011809D02*
X10324524Y-8002286D01*
X10324524Y-8002286D02*
X10315000Y-7983238D01*
X10315000Y-7983238D02*
X10315000Y-7973714D01*
X10315000Y-7973714D02*
X10324524Y-7954667D01*
X10324524Y-7954667D02*
X10343572Y-7945143D01*
X10343572Y-7945143D02*
X10372143Y-7945143D01*
X10372143Y-7945143D02*
X10391191Y-7954667D01*
X10467381Y-8154667D02*
X10476905Y-8145143D01*
X10476905Y-8145143D02*
X10495953Y-8116571D01*
X10495953Y-8116571D02*
X10505476Y-8097524D01*
X10505476Y-8097524D02*
X10515000Y-8068952D01*
X10515000Y-8068952D02*
X10524524Y-8021333D01*
X10524524Y-8021333D02*
X10524524Y-7983238D01*
X10524524Y-7983238D02*
X10515000Y-7935619D01*
X10515000Y-7935619D02*
X10505476Y-7907048D01*
X10505476Y-7907048D02*
X10495953Y-7888000D01*
X10495953Y-7888000D02*
X10476905Y-7859428D01*
X10476905Y-7859428D02*
X10467381Y-7849905D01*
M02*
