G04 #@! TF.GenerationSoftware,KiCad,Pcbnew,(6.99.0-2452-gdb4f2d9dd8)*
G04 #@! TF.CreationDate,2022-07-21T07:00:24-08:00*
G04 #@! TF.ProjectId,jwtelescope,6a777465-6c65-4736-936f-70652e6b6963,rev?*
G04 #@! TF.SameCoordinates,Original*
G04 #@! TF.FileFunction,Legend,Bot*
G04 #@! TF.FilePolarity,Positive*
%FSLAX46Y46*%
G04 Gerber Fmt 4.6, Leading zero omitted, Abs format (unit mm)*
G04 Created by KiCad (PCBNEW (6.99.0-2452-gdb4f2d9dd8)) date 2022-07-21 07:00:24*
%MOMM*%
%LPD*%
G01*
G04 APERTURE LIST*
G04 Aperture macros list*
%AMRoundRect*
0 Rectangle with rounded corners*
0 $1 Rounding radius*
0 $2 $3 $4 $5 $6 $7 $8 $9 X,Y pos of 4 corners*
0 Add a 4 corners polygon primitive as box body*
4,1,4,$2,$3,$4,$5,$6,$7,$8,$9,$2,$3,0*
0 Add four circle primitives for the rounded corners*
1,1,$1+$1,$2,$3*
1,1,$1+$1,$4,$5*
1,1,$1+$1,$6,$7*
1,1,$1+$1,$8,$9*
0 Add four rect primitives between the rounded corners*
20,1,$1+$1,$2,$3,$4,$5,0*
20,1,$1+$1,$4,$5,$6,$7,0*
20,1,$1+$1,$6,$7,$8,$9,0*
20,1,$1+$1,$8,$9,$2,$3,0*%
G04 Aperture macros list end*
%ADD10C,0.150000*%
%ADD11C,0.120000*%
%ADD12RoundRect,0.250000X-0.400000X-0.625000X0.400000X-0.625000X0.400000X0.625000X-0.400000X0.625000X0*%
%ADD13R,1.700000X1.700000*%
%ADD14O,1.700000X1.700000*%
%ADD15RoundRect,0.250001X0.483999X-0.608501X0.723406X0.284978X-0.483999X0.608501X-0.723406X-0.284978X0*%
%ADD16RoundRect,0.250001X0.741523X-0.233822X0.440373X0.640781X-0.741523X0.233822X-0.440373X-0.640781X0*%
%ADD17RoundRect,0.250000X0.400000X0.625000X-0.400000X0.625000X-0.400000X-0.625000X0.400000X-0.625000X0*%
G04 APERTURE END LIST*
D10*
X76514285Y-47290714D02*
X76276190Y-47957380D01*
X76276190Y-47957380D02*
X76038095Y-47290714D01*
X75752380Y-46957380D02*
X75133333Y-46957380D01*
X75133333Y-46957380D02*
X75466666Y-47338333D01*
X75466666Y-47338333D02*
X75323809Y-47338333D01*
X75323809Y-47338333D02*
X75228571Y-47385952D01*
X75228571Y-47385952D02*
X75180952Y-47433571D01*
X75180952Y-47433571D02*
X75133333Y-47528809D01*
X75133333Y-47528809D02*
X75133333Y-47766904D01*
X75133333Y-47766904D02*
X75180952Y-47862142D01*
X75180952Y-47862142D02*
X75228571Y-47909761D01*
X75228571Y-47909761D02*
X75323809Y-47957380D01*
X75323809Y-47957380D02*
X75609523Y-47957380D01*
X75609523Y-47957380D02*
X75704761Y-47909761D01*
X75704761Y-47909761D02*
X75752380Y-47862142D01*
X78561905Y-49101190D02*
X78609524Y-49053571D01*
X78609524Y-49053571D02*
X78704762Y-49005952D01*
X78704762Y-49005952D02*
X78800000Y-49005952D01*
X78800000Y-49005952D02*
X78895238Y-49053571D01*
X78895238Y-49053571D02*
X78942857Y-49101190D01*
X78942857Y-49101190D02*
X78990476Y-49196428D01*
X78990476Y-49196428D02*
X78990476Y-49291666D01*
X78990476Y-49291666D02*
X78942857Y-49386904D01*
X78942857Y-49386904D02*
X78895238Y-49434523D01*
X78895238Y-49434523D02*
X78800000Y-49482142D01*
X78800000Y-49482142D02*
X78704762Y-49482142D01*
X78704762Y-49482142D02*
X78609524Y-49434523D01*
X78609524Y-49434523D02*
X78561905Y-49386904D01*
X78561905Y-49005952D02*
X78561905Y-49386904D01*
X78561905Y-49386904D02*
X78514286Y-49434523D01*
X78514286Y-49434523D02*
X78466667Y-49434523D01*
X78466667Y-49434523D02*
X78371428Y-49386904D01*
X78371428Y-49386904D02*
X78323809Y-49291666D01*
X78323809Y-49291666D02*
X78323809Y-49053571D01*
X78323809Y-49053571D02*
X78419048Y-48910714D01*
X78419048Y-48910714D02*
X78561905Y-48815476D01*
X78561905Y-48815476D02*
X78752381Y-48767857D01*
X78752381Y-48767857D02*
X78942857Y-48815476D01*
X78942857Y-48815476D02*
X79085714Y-48910714D01*
X79085714Y-48910714D02*
X79180952Y-49053571D01*
X79180952Y-49053571D02*
X79228571Y-49244047D01*
X79228571Y-49244047D02*
X79180952Y-49434523D01*
X79180952Y-49434523D02*
X79085714Y-49577380D01*
X79085714Y-49577380D02*
X78942857Y-49672619D01*
X78942857Y-49672619D02*
X78752381Y-49720238D01*
X78752381Y-49720238D02*
X78561905Y-49672619D01*
X78561905Y-49672619D02*
X78419048Y-49577380D01*
X77466667Y-49577380D02*
X77466667Y-49053571D01*
X77466667Y-49053571D02*
X77514286Y-48958333D01*
X77514286Y-48958333D02*
X77609524Y-48910714D01*
X77609524Y-48910714D02*
X77800000Y-48910714D01*
X77800000Y-48910714D02*
X77895238Y-48958333D01*
X77466667Y-49529761D02*
X77561905Y-49577380D01*
X77561905Y-49577380D02*
X77800000Y-49577380D01*
X77800000Y-49577380D02*
X77895238Y-49529761D01*
X77895238Y-49529761D02*
X77942857Y-49434523D01*
X77942857Y-49434523D02*
X77942857Y-49339285D01*
X77942857Y-49339285D02*
X77895238Y-49244047D01*
X77895238Y-49244047D02*
X77800000Y-49196428D01*
X77800000Y-49196428D02*
X77561905Y-49196428D01*
X77561905Y-49196428D02*
X77466667Y-49148809D01*
X77085714Y-48910714D02*
X76847619Y-49577380D01*
X76847619Y-49577380D02*
X76609524Y-48910714D01*
X76466667Y-49672619D02*
X75704762Y-49672619D01*
X75466666Y-48910714D02*
X75466666Y-49910714D01*
X75466666Y-48958333D02*
X75371428Y-48910714D01*
X75371428Y-48910714D02*
X75180952Y-48910714D01*
X75180952Y-48910714D02*
X75085714Y-48958333D01*
X75085714Y-48958333D02*
X75038095Y-49005952D01*
X75038095Y-49005952D02*
X74990476Y-49101190D01*
X74990476Y-49101190D02*
X74990476Y-49386904D01*
X74990476Y-49386904D02*
X75038095Y-49482142D01*
X75038095Y-49482142D02*
X75085714Y-49529761D01*
X75085714Y-49529761D02*
X75180952Y-49577380D01*
X75180952Y-49577380D02*
X75371428Y-49577380D01*
X75371428Y-49577380D02*
X75466666Y-49529761D01*
X74133333Y-48910714D02*
X74133333Y-49577380D01*
X74561904Y-48910714D02*
X74561904Y-49434523D01*
X74561904Y-49434523D02*
X74514285Y-49529761D01*
X74514285Y-49529761D02*
X74419047Y-49577380D01*
X74419047Y-49577380D02*
X74276190Y-49577380D01*
X74276190Y-49577380D02*
X74180952Y-49529761D01*
X74180952Y-49529761D02*
X74133333Y-49482142D01*
X73657142Y-49577380D02*
X73657142Y-48577380D01*
X73657142Y-48958333D02*
X73561904Y-48910714D01*
X73561904Y-48910714D02*
X73371428Y-48910714D01*
X73371428Y-48910714D02*
X73276190Y-48958333D01*
X73276190Y-48958333D02*
X73228571Y-49005952D01*
X73228571Y-49005952D02*
X73180952Y-49101190D01*
X73180952Y-49101190D02*
X73180952Y-49386904D01*
X73180952Y-49386904D02*
X73228571Y-49482142D01*
X73228571Y-49482142D02*
X73276190Y-49529761D01*
X73276190Y-49529761D02*
X73371428Y-49577380D01*
X73371428Y-49577380D02*
X73561904Y-49577380D01*
X73561904Y-49577380D02*
X73657142Y-49529761D01*
X72799999Y-49529761D02*
X72704761Y-49577380D01*
X72704761Y-49577380D02*
X72514285Y-49577380D01*
X72514285Y-49577380D02*
X72419047Y-49529761D01*
X72419047Y-49529761D02*
X72371428Y-49434523D01*
X72371428Y-49434523D02*
X72371428Y-49386904D01*
X72371428Y-49386904D02*
X72419047Y-49291666D01*
X72419047Y-49291666D02*
X72514285Y-49244047D01*
X72514285Y-49244047D02*
X72657142Y-49244047D01*
X72657142Y-49244047D02*
X72752380Y-49196428D01*
X72752380Y-49196428D02*
X72799999Y-49101190D01*
X72799999Y-49101190D02*
X72799999Y-49053571D01*
X72799999Y-49053571D02*
X72752380Y-48958333D01*
X72752380Y-48958333D02*
X72657142Y-48910714D01*
X72657142Y-48910714D02*
X72514285Y-48910714D01*
X72514285Y-48910714D02*
X72419047Y-48958333D01*
X108176190Y-57300714D02*
X108176190Y-58157857D01*
X108176190Y-58157857D02*
X108223809Y-58253095D01*
X108223809Y-58253095D02*
X108319047Y-58300714D01*
X108319047Y-58300714D02*
X108366666Y-58300714D01*
X108176190Y-56967380D02*
X108223809Y-57015000D01*
X108223809Y-57015000D02*
X108176190Y-57062619D01*
X108176190Y-57062619D02*
X108128571Y-57015000D01*
X108128571Y-57015000D02*
X108176190Y-56967380D01*
X108176190Y-56967380D02*
X108176190Y-57062619D01*
X107557143Y-57967380D02*
X107652381Y-57919761D01*
X107652381Y-57919761D02*
X107700000Y-57824523D01*
X107700000Y-57824523D02*
X107700000Y-56967380D01*
X106747619Y-57919761D02*
X106842857Y-57967380D01*
X106842857Y-57967380D02*
X107033333Y-57967380D01*
X107033333Y-57967380D02*
X107128571Y-57919761D01*
X107128571Y-57919761D02*
X107176190Y-57872142D01*
X107176190Y-57872142D02*
X107223809Y-57776904D01*
X107223809Y-57776904D02*
X107223809Y-57491190D01*
X107223809Y-57491190D02*
X107176190Y-57395952D01*
X107176190Y-57395952D02*
X107128571Y-57348333D01*
X107128571Y-57348333D02*
X107033333Y-57300714D01*
X107033333Y-57300714D02*
X106842857Y-57300714D01*
X106842857Y-57300714D02*
X106747619Y-57348333D01*
X106319047Y-57300714D02*
X106319047Y-58157857D01*
X106319047Y-58157857D02*
X106366666Y-58253095D01*
X106366666Y-58253095D02*
X106461904Y-58300714D01*
X106461904Y-58300714D02*
X106509523Y-58300714D01*
X106319047Y-56967380D02*
X106366666Y-57015000D01*
X106366666Y-57015000D02*
X106319047Y-57062619D01*
X106319047Y-57062619D02*
X106271428Y-57015000D01*
X106271428Y-57015000D02*
X106319047Y-56967380D01*
X106319047Y-56967380D02*
X106319047Y-57062619D01*
X105700000Y-57967380D02*
X105795238Y-57919761D01*
X105795238Y-57919761D02*
X105842857Y-57824523D01*
X105842857Y-57824523D02*
X105842857Y-56967380D01*
X104890476Y-57919761D02*
X104985714Y-57967380D01*
X104985714Y-57967380D02*
X105176190Y-57967380D01*
X105176190Y-57967380D02*
X105271428Y-57919761D01*
X105271428Y-57919761D02*
X105319047Y-57872142D01*
X105319047Y-57872142D02*
X105366666Y-57776904D01*
X105366666Y-57776904D02*
X105366666Y-57491190D01*
X105366666Y-57491190D02*
X105319047Y-57395952D01*
X105319047Y-57395952D02*
X105271428Y-57348333D01*
X105271428Y-57348333D02*
X105176190Y-57300714D01*
X105176190Y-57300714D02*
X104985714Y-57300714D01*
X104985714Y-57300714D02*
X104890476Y-57348333D01*
X104461904Y-57300714D02*
X104461904Y-58157857D01*
X104461904Y-58157857D02*
X104509523Y-58253095D01*
X104509523Y-58253095D02*
X104604761Y-58300714D01*
X104604761Y-58300714D02*
X104652380Y-58300714D01*
X104461904Y-56967380D02*
X104509523Y-57015000D01*
X104509523Y-57015000D02*
X104461904Y-57062619D01*
X104461904Y-57062619D02*
X104414285Y-57015000D01*
X104414285Y-57015000D02*
X104461904Y-56967380D01*
X104461904Y-56967380D02*
X104461904Y-57062619D01*
X103842857Y-57967380D02*
X103938095Y-57919761D01*
X103938095Y-57919761D02*
X103985714Y-57824523D01*
X103985714Y-57824523D02*
X103985714Y-56967380D01*
X103033333Y-57919761D02*
X103128571Y-57967380D01*
X103128571Y-57967380D02*
X103319047Y-57967380D01*
X103319047Y-57967380D02*
X103414285Y-57919761D01*
X103414285Y-57919761D02*
X103461904Y-57872142D01*
X103461904Y-57872142D02*
X103509523Y-57776904D01*
X103509523Y-57776904D02*
X103509523Y-57491190D01*
X103509523Y-57491190D02*
X103461904Y-57395952D01*
X103461904Y-57395952D02*
X103414285Y-57348333D01*
X103414285Y-57348333D02*
X103319047Y-57300714D01*
X103319047Y-57300714D02*
X103128571Y-57300714D01*
X103128571Y-57300714D02*
X103033333Y-57348333D01*
X102604761Y-57300714D02*
X102604761Y-58157857D01*
X102604761Y-58157857D02*
X102652380Y-58253095D01*
X102652380Y-58253095D02*
X102747618Y-58300714D01*
X102747618Y-58300714D02*
X102795237Y-58300714D01*
X102604761Y-56967380D02*
X102652380Y-57015000D01*
X102652380Y-57015000D02*
X102604761Y-57062619D01*
X102604761Y-57062619D02*
X102557142Y-57015000D01*
X102557142Y-57015000D02*
X102604761Y-56967380D01*
X102604761Y-56967380D02*
X102604761Y-57062619D01*
X101985714Y-57967380D02*
X102080952Y-57919761D01*
X102080952Y-57919761D02*
X102128571Y-57824523D01*
X102128571Y-57824523D02*
X102128571Y-56967380D01*
X101176190Y-57919761D02*
X101271428Y-57967380D01*
X101271428Y-57967380D02*
X101461904Y-57967380D01*
X101461904Y-57967380D02*
X101557142Y-57919761D01*
X101557142Y-57919761D02*
X101604761Y-57872142D01*
X101604761Y-57872142D02*
X101652380Y-57776904D01*
X101652380Y-57776904D02*
X101652380Y-57491190D01*
X101652380Y-57491190D02*
X101604761Y-57395952D01*
X101604761Y-57395952D02*
X101557142Y-57348333D01*
X101557142Y-57348333D02*
X101461904Y-57300714D01*
X101461904Y-57300714D02*
X101271428Y-57300714D01*
X101271428Y-57300714D02*
X101176190Y-57348333D01*
X96866666Y-57187380D02*
X97199999Y-56711190D01*
X97438094Y-57187380D02*
X97438094Y-56187380D01*
X97438094Y-56187380D02*
X97057142Y-56187380D01*
X97057142Y-56187380D02*
X96961904Y-56235000D01*
X96961904Y-56235000D02*
X96914285Y-56282619D01*
X96914285Y-56282619D02*
X96866666Y-56377857D01*
X96866666Y-56377857D02*
X96866666Y-56520714D01*
X96866666Y-56520714D02*
X96914285Y-56615952D01*
X96914285Y-56615952D02*
X96961904Y-56663571D01*
X96961904Y-56663571D02*
X97057142Y-56711190D01*
X97057142Y-56711190D02*
X97438094Y-56711190D01*
X96485713Y-56282619D02*
X96438094Y-56235000D01*
X96438094Y-56235000D02*
X96342856Y-56187380D01*
X96342856Y-56187380D02*
X96104761Y-56187380D01*
X96104761Y-56187380D02*
X96009523Y-56235000D01*
X96009523Y-56235000D02*
X95961904Y-56282619D01*
X95961904Y-56282619D02*
X95914285Y-56377857D01*
X95914285Y-56377857D02*
X95914285Y-56473095D01*
X95914285Y-56473095D02*
X95961904Y-56615952D01*
X95961904Y-56615952D02*
X96533332Y-57187380D01*
X96533332Y-57187380D02*
X95914285Y-57187380D01*
X96003880Y-50953191D02*
X95037954Y-50694372D01*
X95037954Y-50694372D02*
X94976331Y-50924354D01*
X94976331Y-50924354D02*
X94985353Y-51074668D01*
X94985353Y-51074668D02*
X95052697Y-51191311D01*
X95052697Y-51191311D02*
X95132365Y-51261957D01*
X95132365Y-51261957D02*
X95304026Y-51357252D01*
X95304026Y-51357252D02*
X95442015Y-51394226D01*
X95442015Y-51394226D02*
X95638326Y-51397528D01*
X95638326Y-51397528D02*
X95742644Y-51376181D01*
X95742644Y-51376181D02*
X95859286Y-51308838D01*
X95859286Y-51308838D02*
X95942257Y-51183173D01*
X95942257Y-51183173D02*
X96003880Y-50953191D01*
X94883453Y-51638951D02*
X94825132Y-51672622D01*
X94825132Y-51672622D02*
X94754486Y-51752291D01*
X94754486Y-51752291D02*
X94692862Y-51982273D01*
X94692862Y-51982273D02*
X94714209Y-52086591D01*
X94714209Y-52086591D02*
X94747881Y-52144912D01*
X94747881Y-52144912D02*
X94827549Y-52215558D01*
X94827549Y-52215558D02*
X94919542Y-52240207D01*
X94919542Y-52240207D02*
X95069856Y-52231185D01*
X95069856Y-52231185D02*
X95769711Y-51827124D01*
X95769711Y-51827124D02*
X95609489Y-52425078D01*
X95013778Y-41124955D02*
X95959297Y-40799387D01*
X95959297Y-40799387D02*
X95881780Y-40574264D01*
X95881780Y-40574264D02*
X95790246Y-40454693D01*
X95790246Y-40454693D02*
X95669190Y-40395650D01*
X95669190Y-40395650D02*
X95563638Y-40381632D01*
X95563638Y-40381632D02*
X95368036Y-40398620D01*
X95368036Y-40398620D02*
X95232961Y-40445130D01*
X95232961Y-40445130D02*
X95068366Y-40552167D01*
X95068366Y-40552167D02*
X94993820Y-40628199D01*
X94993820Y-40628199D02*
X94934777Y-40749255D01*
X94934777Y-40749255D02*
X94936262Y-40899832D01*
X94936262Y-40899832D02*
X95013778Y-41124955D01*
X94517674Y-39684165D02*
X94703713Y-40224461D01*
X94610694Y-39954313D02*
X95556212Y-39628745D01*
X95556212Y-39628745D02*
X95452145Y-39765304D01*
X95452145Y-39765304D02*
X95393102Y-39886360D01*
X95393102Y-39886360D02*
X95379084Y-39991913D01*
X94366666Y-35247380D02*
X94699999Y-34771190D01*
X94938094Y-35247380D02*
X94938094Y-34247380D01*
X94938094Y-34247380D02*
X94557142Y-34247380D01*
X94557142Y-34247380D02*
X94461904Y-34295000D01*
X94461904Y-34295000D02*
X94414285Y-34342619D01*
X94414285Y-34342619D02*
X94366666Y-34437857D01*
X94366666Y-34437857D02*
X94366666Y-34580714D01*
X94366666Y-34580714D02*
X94414285Y-34675952D01*
X94414285Y-34675952D02*
X94461904Y-34723571D01*
X94461904Y-34723571D02*
X94557142Y-34771190D01*
X94557142Y-34771190D02*
X94938094Y-34771190D01*
X93414285Y-35247380D02*
X93985713Y-35247380D01*
X93699999Y-35247380D02*
X93699999Y-34247380D01*
X93699999Y-34247380D02*
X93795237Y-34390238D01*
X93795237Y-34390238D02*
X93890475Y-34485476D01*
X93890475Y-34485476D02*
X93985713Y-34533095D01*
D11*
X95972936Y-54090000D02*
X97427064Y-54090000D01*
X95972936Y-55910000D02*
X97427064Y-55910000D01*
X105470000Y-41700000D02*
X105470000Y-46900000D01*
X100330000Y-41700000D02*
X105470000Y-41700000D01*
X100330000Y-41700000D02*
X100330000Y-44300000D01*
X99060000Y-41700000D02*
X97730000Y-41700000D01*
X97730000Y-41700000D02*
X97730000Y-43030000D01*
X100330000Y-44300000D02*
X97730000Y-44300000D01*
X97730000Y-44300000D02*
X97730000Y-46900000D01*
X97730000Y-46900000D02*
X105470000Y-46900000D01*
X94927064Y-37610000D02*
X93472936Y-37610000D01*
X94927064Y-35790000D02*
X93472936Y-35790000D01*
%LPC*%
D10*
G36*
X88400000Y-36000000D02*
G01*
X89000000Y-38100000D01*
X90100000Y-38100000D01*
X90700000Y-40100000D01*
X92000000Y-40200000D01*
X92600000Y-42200000D01*
X92100000Y-44000000D01*
X92800000Y-46100000D01*
X92300000Y-48000000D01*
X92900000Y-49900000D01*
X92400000Y-51900000D01*
X91100000Y-51900000D01*
X90700000Y-53700000D01*
X89400000Y-53600000D01*
X88900000Y-55600000D01*
X87700000Y-55500000D01*
X87200000Y-53500000D01*
X85900000Y-53400000D01*
X85300000Y-51500000D01*
X84100000Y-51500000D01*
X83500000Y-49500000D01*
X84000000Y-47500000D01*
X83300000Y-45400000D01*
X83900000Y-43600000D01*
X83200000Y-41600000D01*
X83800000Y-39700000D01*
X84900000Y-39700000D01*
X85300000Y-37800000D01*
X86600000Y-37800000D01*
X87100000Y-35900000D01*
X88400000Y-36000000D01*
G37*
X88400000Y-36000000D02*
X89000000Y-38100000D01*
X90100000Y-38100000D01*
X90700000Y-40100000D01*
X92000000Y-40200000D01*
X92600000Y-42200000D01*
X92100000Y-44000000D01*
X92800000Y-46100000D01*
X92300000Y-48000000D01*
X92900000Y-49900000D01*
X92400000Y-51900000D01*
X91100000Y-51900000D01*
X90700000Y-53700000D01*
X89400000Y-53600000D01*
X88900000Y-55600000D01*
X87700000Y-55500000D01*
X87200000Y-53500000D01*
X85900000Y-53400000D01*
X85300000Y-51500000D01*
X84100000Y-51500000D01*
X83500000Y-49500000D01*
X84000000Y-47500000D01*
X83300000Y-45400000D01*
X83900000Y-43600000D01*
X83200000Y-41600000D01*
X83800000Y-39700000D01*
X84900000Y-39700000D01*
X85300000Y-37800000D01*
X86600000Y-37800000D01*
X87100000Y-35900000D01*
X88400000Y-36000000D01*
D12*
X95150000Y-55000000D03*
X98250000Y-55000000D03*
D13*
X99059999Y-43029999D03*
D14*
X99059999Y-45569999D03*
X101599999Y-43029999D03*
X101599999Y-45569999D03*
X104139999Y-43029999D03*
X104139999Y-45569999D03*
D15*
X93315007Y-52536815D03*
X94084993Y-49663185D03*
D16*
X93884283Y-42306459D03*
X92915717Y-39493541D03*
D17*
X95750000Y-36700000D03*
X92650000Y-36700000D03*
M02*
