  0
SECTION
  2
HEADER
  9
$ACADVER
  1
AC1014
  9
$HANDSEED
  5
FFFF
  9
$MEASUREMENT
 70
     1
  0
ENDSEC
  0
SECTION
  2
TABLES
  0
TABLE
  2
VPORT
  5
8
330
0
100
AcDbSymbolTable
 70
     4
  0
VPORT
  5
2E
330
8
100
AcDbSymbolTableRecord
100
AcDbViewportTableRecord
  2
*ACTIVE
 70
     0
 10
0.0
 20
0.0
 11
1.0
 21
1.0
 12
210.0
 22
148.5
 13
0.0
 23
0.0
 14
10.0
 24
10.0
 15
10.0
 25
10.0
 16
0.0
 26
0.0
 36
1.0
 17
0.0
 27
0.0
 37
0.0
 40
341.0
 41
1.24
 42
50.0
 43
0.0
 44
0.0
 50
0.0
 51
0.0
 71
     0
 72
   100
 73
     1
 74
     3
 75
     0
 76
     0
 77
     0
 78
     0
  0
ENDTAB
  0
TABLE
  2
LTYPE
  5
5
330
0
100
AcDbSymbolTable
 70
     1
  0
LTYPE
  5
14
330
5
100
AcDbSymbolTableRecord
100
AcDbLinetypeTableRecord
  2
BYBLOCK
 70
     0
  3

 72
    65
 73
     0
 40
0.0
  0
LTYPE
  5
15
330
5
100
AcDbSymbolTableRecord
100
AcDbLinetypeTableRecord
  2
BYLAYER
 70
     0
  3

 72
    65
 73
     0
 40
0.0
  0
LTYPE
  5
16
330
5
100
AcDbSymbolTableRecord
100
AcDbLinetypeTableRecord
  2
CONTINUOUS
 70
     0
  3
Solid line
 72
    65
 73
     0
 40
0.0
  0
ENDTAB
  0
TABLE
  2
LAYER
  5
2
100
AcDbSymbolTable
 70
2
  0
LAYER
  5
50
100
AcDbSymbolTableRecord
100
AcDbLayerTableRecord
  2
0
 70
0
  6
CONTINUOUS
  0
LAYER
  5
51
100
AcDbSymbolTableRecord
100
AcDbLayerTableRecord
  2
Layer_1
 70
0
  6
CONTINUOUS
  0
ENDTAB
  0
TABLE
  2
STYLE
  5
3
330
0
100
AcDbSymbolTable
 70
     1
  0
STYLE
  5
11
330
3
100
AcDbSymbolTableRecord
100
AcDbTextStyleTableRecord
  2
STANDARD
 70
     0
 40
0.0
 41
1.0
 50
0.0
 71
     0
 42
2.5
  3
txt
  4

  0
ENDTAB
  0
TABLE
  2
VIEW
  5
6
330
0
100
AcDbSymbolTable
 70
     0
  0
ENDTAB
  0
TABLE
  2
UCS
  5
7
330
0
100
AcDbSymbolTable
 70
     0
  0
ENDTAB
  0
TABLE
  2
APPID
  5
9
330
0
100
AcDbSymbolTable
 70
     2
  0
APPID
  5
12
330
9
100
AcDbSymbolTableRecord
100
AcDbRegAppTableRecord
  2
ACAD
 70
     0
  0
ENDTAB
  0
TABLE
  2
DIMSTYLE
  5
A
330
0
100
AcDbSymbolTable
 70
     1
  0
DIMSTYLE
105
27
330
A
100
AcDbSymbolTableRecord
100
AcDbDimStyleTableRecord
  2
ISO-25
 70
     0
  3

  4

  5

  6

  7

 40
1.0
 41
2.5
 42
0.625
 43
3.75
 44
1.25
 45
0.0
 46
0.0
 47
0.0
 48
0.0
140
2.5
141
2.5
142
0.0
143
0.03937007874016
144
1.0
145
0.0
146
1.0
147
0.625
 71
     0
 72
     0
 73
     0
 74
     0
 75
     0
 76
     0
 77
     1
 78
     8
170
     0
171
     3
172
     1
173
     0
174
     0
175
     0
176
     0
177
     0
178
     0
270
     2
271
     2
272
     2
273
     2
274
     3
340
11
275
     0
280
     0
281
     0
282
     0
283
     0
284
     8
285
     0
286
     0
287
     3
288
     0
  0
ENDTAB
  0
TABLE
  2
BLOCK_RECORD
  5
1
330
0
100
AcDbSymbolTable
 70
     1
  0
BLOCK_RECORD
  5
1F
330
1
100
AcDbSymbolTableRecord
100
AcDbBlockTableRecord
  2
*MODEL_SPACE
  0
BLOCK_RECORD
  5
1B
330
1
100
AcDbSymbolTableRecord
100
AcDbBlockTableRecord
  2
*PAPER_SPACE
  0
ENDTAB
  0
ENDSEC
  0
SECTION
  2
BLOCKS
  0
BLOCK
  5
20
330
1F
100
AcDbEntity
  8
0
100
AcDbBlockBegin
  2
*MODEL_SPACE
 70
     0
 10
0.0
 20
0.0
 30
0.0
  3
*MODEL_SPACE
  1

  0
ENDBLK
  5
21
330
1F
100
AcDbEntity
  8
0
100
AcDbBlockEnd
  0
BLOCK
  5
1C
330
1B
100
AcDbEntity
 67
     1
  8
0
100
AcDbBlockBegin
  2
*PAPER_SPACE
  1

  0
ENDBLK
  5
1D
330
1B
100
AcDbEntity
 67
     1
  8
0
100
AcDbBlockEnd
  0
ENDSEC
  0
SECTION
  2
ENTITIES
  0
LINE
  5
100
100
AcDbEntity
  8
Layer_1
 62
7
100
AcDbLine
 10
50.401063
 20
156.308850
 30
0.0
 11
50.879708
 21
156.252650
 31
0.0
  0
LINE
  5
101
100
AcDbEntity
  8
Layer_1
 62
7
100
AcDbLine
 10
50.879708
 20
156.252650
 30
0.0
 11
51.430840
 21
156.089150
 31
0.0
  0
LINE
  5
102
100
AcDbEntity
  8
Layer_1
 62
7
100
AcDbLine
 10
51.430840
 20
156.089150
 30
0.0
 11
52.049322
 21
155.820920
 31
0.0
  0
LINE
  5
103
100
AcDbEntity
  8
Layer_1
 62
7
100
AcDbLine
 10
52.049322
 20
155.820920
 30
0.0
 11
52.730024
 21
155.450530
 31
0.0
  0
LINE
  5
104
100
AcDbEntity
  8
Layer_1
 62
7
100
AcDbLine
 10
52.730024
 20
155.450530
 30
0.0
 11
53.467806
 21
154.980560
 31
0.0
  0
LINE
  5
105
100
AcDbEntity
  8
Layer_1
 62
7
100
AcDbLine
 10
53.467806
 20
154.980560
 30
0.0
 11
54.257535
 21
154.413590
 31
0.0
  0
LINE
  5
106
100
AcDbEntity
  8
Layer_1
 62
7
100
AcDbLine
 10
54.257535
 20
154.413590
 30
0.0
 11
55.094078
 21
153.752200
 31
0.0
  0
LINE
  5
107
100
AcDbEntity
  8
Layer_1
 62
7
100
AcDbLine
 10
55.094078
 20
153.752200
 30
0.0
 11
55.972299
 21
152.998960
 31
0.0
  0
LINE
  5
108
100
AcDbEntity
  8
Layer_1
 62
7
100
AcDbLine
 10
55.972299
 20
152.998960
 30
0.0
 11
56.526271
 21
152.506490
 31
0.0
  0
LINE
  5
109
100
AcDbEntity
  8
Layer_1
 62
7
100
AcDbLine
 10
56.526271
 20
152.506490
 30
0.0
 11
57.109182
 21
152.702340
 31
0.0
  0
LINE
  5
10a
100
AcDbEntity
  8
Layer_1
 62
7
100
AcDbLine
 10
57.109182
 20
152.702340
 30
0.0
 11
57.817040
 21
152.913950
 31
0.0
  0
LINE
  5
10b
100
AcDbEntity
  8
Layer_1
 62
7
100
AcDbLine
 10
57.817040
 20
152.913950
 30
0.0
 11
58.484267
 21
153.048000
 31
0.0
  0
LINE
  5
10c
100
AcDbEntity
  8
Layer_1
 62
7
100
AcDbLine
 10
58.484267
 20
153.048000
 30
0.0
 11
59.202407
 21
153.118100
 31
0.0
  0
LINE
  5
10d
100
AcDbEntity
  8
Layer_1
 62
7
100
AcDbLine
 10
59.202407
 20
153.118100
 30
0.0
 11
60.063006
 21
153.137900
 31
0.0
  0
LINE
  5
10e
100
AcDbEntity
  8
Layer_1
 62
7
100
AcDbLine
 10
60.063006
 20
153.137900
 30
0.0
 11
61.136839
 21
153.107000
 31
0.0
  0
LINE
  5
10f
100
AcDbEntity
  8
Layer_1
 62
7
100
AcDbLine
 10
61.136839
 20
153.107000
 30
0.0
 11
61.937828
 21
152.982840
 31
0.0
  0
LINE
  5
110
100
AcDbEntity
  8
Layer_1
 62
7
100
AcDbLine
 10
61.937828
 20
152.982840
 30
0.0
 11
62.615450
 21
152.812170
 31
0.0
  0
LINE
  5
111
100
AcDbEntity
  8
Layer_1
 62
7
100
AcDbLine
 10
62.615450
 20
152.812170
 30
0.0
 11
63.270050
 21
152.598230
 31
0.0
  0
LINE
  5
112
100
AcDbEntity
  8
Layer_1
 62
7
100
AcDbLine
 10
63.270050
 20
152.598230
 30
0.0
 11
63.900338
 21
152.342270
 31
0.0
  0
LINE
  5
113
100
AcDbEntity
  8
Layer_1
 62
7
100
AcDbLine
 10
63.900338
 20
152.342270
 30
0.0
 11
64.505027
 21
152.045570
 31
0.0
  0
LINE
  5
114
100
AcDbEntity
  8
Layer_1
 62
7
100
AcDbLine
 10
64.505027
 20
152.045570
 30
0.0
 11
65.082829
 21
151.709380
 31
0.0
  0
LINE
  5
115
100
AcDbEntity
  8
Layer_1
 62
7
100
AcDbLine
 10
65.082829
 20
151.709380
 30
0.0
 11
65.632459
 21
151.334960
 31
0.0
  0
LINE
  5
116
100
AcDbEntity
  8
Layer_1
 62
7
100
AcDbLine
 10
65.632459
 20
151.334960
 30
0.0
 11
66.152630
 21
150.923590
 31
0.0
  0
LINE
  5
117
100
AcDbEntity
  8
Layer_1
 62
7
100
AcDbLine
 10
66.152630
 20
150.923590
 30
0.0
 11
66.642053
 21
150.476510
 31
0.0
  0
LINE
  5
118
100
AcDbEntity
  8
Layer_1
 62
7
100
AcDbLine
 10
66.642053
 20
150.476510
 30
0.0
 11
67.099441
 21
149.995000
 31
0.0
  0
LINE
  5
119
100
AcDbEntity
  8
Layer_1
 62
7
100
AcDbLine
 10
67.099441
 20
149.995000
 30
0.0
 11
67.523505
 21
149.480310
 31
0.0
  0
LINE
  5
11a
100
AcDbEntity
  8
Layer_1
 62
7
100
AcDbLine
 10
67.523505
 20
149.480310
 30
0.0
 11
67.912961
 21
148.933710
 31
0.0
  0
LINE
  5
11b
100
AcDbEntity
  8
Layer_1
 62
7
100
AcDbLine
 10
67.912961
 20
148.933710
 30
0.0
 11
68.266518
 21
148.356460
 31
0.0
  0
LINE
  5
11c
100
AcDbEntity
  8
Layer_1
 62
7
100
AcDbLine
 10
68.266518
 20
148.356460
 30
0.0
 11
68.582894
 21
147.749830
 31
0.0
  0
LINE
  5
11d
100
AcDbEntity
  8
Layer_1
 62
7
100
AcDbLine
 10
68.582894
 20
147.749830
 30
0.0
 11
68.860796
 21
147.115070
 31
0.0
  0
LINE
  5
11e
100
AcDbEntity
  8
Layer_1
 62
7
100
AcDbLine
 10
68.860796
 20
147.115070
 30
0.0
 11
69.098940
 21
146.453450
 31
0.0
  0
LINE
  5
11f
100
AcDbEntity
  8
Layer_1
 62
7
100
AcDbLine
 10
69.098940
 20
146.453450
 30
0.0
 11
69.296036
 21
145.766230
 31
0.0
  0
LINE
  5
120
100
AcDbEntity
  8
Layer_1
 62
7
100
AcDbLine
 10
69.296036
 20
145.766230
 30
0.0
 11
69.400025
 21
145.317220
 31
0.0
  0
LINE
  5
121
100
AcDbEntity
  8
Layer_1
 62
7
100
AcDbLine
 10
69.400025
 20
145.317220
 30
0.0
 11
69.456795
 21
144.909950
 31
0.0
  0
LINE
  5
122
100
AcDbEntity
  8
Layer_1
 62
7
100
AcDbLine
 10
69.456795
 20
144.909950
 30
0.0
 11
69.486205
 21
143.548790
 31
0.0
  0
LINE
  5
123
100
AcDbEntity
  8
Layer_1
 62
7
100
AcDbLine
 10
69.486205
 20
143.548790
 30
0.0
 11
69.459575
 21
142.185890
 31
0.0
  0
LINE
  5
124
100
AcDbEntity
  8
Layer_1
 62
7
100
AcDbLine
 10
69.459575
 20
142.185890
 30
0.0
 11
69.402825
 21
141.781070
 31
0.0
  0
LINE
  5
125
100
AcDbEntity
  8
Layer_1
 62
7
100
AcDbLine
 10
69.402825
 20
141.781070
 30
0.0
 11
69.297589
 21
141.331350
 31
0.0
  0
LINE
  5
126
100
AcDbEntity
  8
Layer_1
 62
7
100
AcDbLine
 10
69.297589
 20
141.331350
 30
0.0
 11
69.093090
 21
140.628880
 31
0.0
  0
LINE
  5
127
100
AcDbEntity
  8
Layer_1
 62
7
100
AcDbLine
 10
69.093090
 20
140.628880
 30
0.0
 11
68.839598
 21
139.925850
 31
0.0
  0
LINE
  5
128
100
AcDbEntity
  8
Layer_1
 62
7
100
AcDbLine
 10
68.839598
 20
139.925850
 30
0.0
 11
68.552329
 21
139.260750
 31
0.0
  0
LINE
  5
129
100
AcDbEntity
  8
Layer_1
 62
7
100
AcDbLine
 10
68.552329
 20
139.260750
 30
0.0
 11
68.246490
 21
138.672080
 31
0.0
  0
LINE
  5
12a
100
AcDbEntity
  8
Layer_1
 62
7
100
AcDbLine
 10
68.246490
 20
138.672080
 30
0.0
 11
67.935398
 21
138.132070
 31
0.0
  0
LINE
  5
12b
100
AcDbEntity
  8
Layer_1
 62
7
100
AcDbLine
 10
67.935398
 20
138.132070
 30
0.0
 11
68.221169
 21
137.613240
 31
0.0
  0
LINE
  5
12c
100
AcDbEntity
  8
Layer_1
 62
7
100
AcDbLine
 10
68.221169
 20
137.613240
 30
0.0
 11
68.997459
 21
136.075420
 31
0.0
  0
LINE
  5
12d
100
AcDbEntity
  8
Layer_1
 62
7
100
AcDbLine
 10
68.997459
 20
136.075420
 30
0.0
 11
69.680510
 21
134.526090
 31
0.0
  0
LINE
  5
12e
100
AcDbEntity
  8
Layer_1
 62
7
100
AcDbLine
 10
69.680510
 20
134.526090
 30
0.0
 11
69.981963
 21
133.713190
 31
0.0
  0
LINE
  5
12f
100
AcDbEntity
  8
Layer_1
 62
7
100
AcDbLine
 10
69.981963
 20
133.713190
 30
0.0
 11
70.173865
 21
133.053860
 31
0.0
  0
LINE
  5
130
100
AcDbEntity
  8
Layer_1
 62
7
100
AcDbLine
 10
70.173865
 20
133.053860
 30
0.0
 11
70.275412
 21
132.466610
 31
0.0
  0
LINE
  5
131
100
AcDbEntity
  8
Layer_1
 62
7
100
AcDbLine
 10
70.275412
 20
132.466610
 30
0.0
 11
70.305792
 21
131.869920
 31
0.0
  0
LINE
  5
132
100
AcDbEntity
  8
Layer_1
 62
7
100
AcDbLine
 10
70.305792
 20
131.869920
 30
0.0
 11
70.280892
 21
131.324010
 31
0.0
  0
LINE
  5
133
100
AcDbEntity
  8
Layer_1
 62
7
100
AcDbLine
 10
70.280892
 20
131.324010
 30
0.0
 11
70.192312
 21
130.934920
 31
0.0
  0
LINE
  5
134
100
AcDbEntity
  8
Layer_1
 62
7
100
AcDbLine
 10
70.192312
 20
130.934920
 30
0.0
 11
70.022749
 21
130.658180
 31
0.0
  0
LINE
  5
135
100
AcDbEntity
  8
Layer_1
 62
7
100
AcDbLine
 10
70.022749
 20
130.658180
 30
0.0
 11
69.754906
 21
130.449330
 31
0.0
  0
LINE
  5
136
100
AcDbEntity
  8
Layer_1
 62
7
100
AcDbLine
 10
69.754906
 20
130.449330
 30
0.0
 11
69.451460
 21
130.326120
 31
0.0
  0
LINE
  5
137
100
AcDbEntity
  8
Layer_1
 62
7
100
AcDbLine
 10
69.451460
 20
130.326120
 30
0.0
 11
69.020584
 21
130.321120
 31
0.0
  0
LINE
  5
138
100
AcDbEntity
  8
Layer_1
 62
7
100
AcDbLine
 10
69.020584
 20
130.321120
 30
0.0
 11
68.627884
 21
130.387020
 31
0.0
  0
LINE
  5
139
100
AcDbEntity
  8
Layer_1
 62
7
100
AcDbLine
 10
68.627884
 20
130.387020
 30
0.0
 11
68.190207
 21
130.538170
 31
0.0
  0
LINE
  5
13a
100
AcDbEntity
  8
Layer_1
 62
7
100
AcDbLine
 10
68.190207
 20
130.538170
 30
0.0
 11
67.709729
 21
130.773120
 31
0.0
  0
LINE
  5
13b
100
AcDbEntity
  8
Layer_1
 62
7
100
AcDbLine
 10
67.709729
 20
130.773120
 30
0.0
 11
67.188617
 21
131.090430
 31
0.0
  0
LINE
  5
13c
100
AcDbEntity
  8
Layer_1
 62
7
100
AcDbLine
 10
67.188617
 20
131.090430
 30
0.0
 11
66.629041
 21
131.488660
 31
0.0
  0
LINE
  5
13d
100
AcDbEntity
  8
Layer_1
 62
7
100
AcDbLine
 10
66.629041
 20
131.488660
 30
0.0
 11
66.033176
 21
131.966380
 31
0.0
  0
LINE
  5
13e
100
AcDbEntity
  8
Layer_1
 62
7
100
AcDbLine
 10
66.033176
 20
131.966380
 30
0.0
 11
64.741258
 21
133.154520
 31
0.0
  0
LINE
  5
13f
100
AcDbEntity
  8
Layer_1
 62
7
100
AcDbLine
 10
64.741258
 20
133.154520
 30
0.0
 11
63.682409
 21
134.202520
 31
0.0
  0
LINE
  5
140
100
AcDbEntity
  8
Layer_1
 62
7
100
AcDbLine
 10
63.682409
 20
134.202520
 30
0.0
 11
64.331463
 21
133.697640
 31
0.0
  0
LINE
  5
141
100
AcDbEntity
  8
Layer_1
 62
7
100
AcDbLine
 10
64.331463
 20
133.697640
 30
0.0
 11
65.810926
 21
132.603390
 31
0.0
  0
LINE
  5
142
100
AcDbEntity
  8
Layer_1
 62
7
100
AcDbLine
 10
65.810926
 20
132.603390
 30
0.0
 11
67.080111
 21
131.784590
 31
0.0
  0
LINE
  5
143
100
AcDbEntity
  8
Layer_1
 62
7
100
AcDbLine
 10
67.080111
 20
131.784590
 30
0.0
 11
68.124517
 21
131.249740
 31
0.0
  0
LINE
  5
144
100
AcDbEntity
  8
Layer_1
 62
7
100
AcDbLine
 10
68.124517
 20
131.249740
 30
0.0
 11
68.557891
 21
131.091460
 31
0.0
  0
LINE
  5
145
100
AcDbEntity
  8
Layer_1
 62
7
100
AcDbLine
 10
68.557891
 20
131.091460
 30
0.0
 11
68.929633
 21
131.007360
 31
0.0
  0
LINE
  5
146
100
AcDbEntity
  8
Layer_1
 62
7
100
AcDbLine
 10
68.929633
 20
131.007360
 30
0.0
 11
69.204808
 21
131.001360
 31
0.0
  0
LINE
  5
147
100
AcDbEntity
  8
Layer_1
 62
7
100
AcDbLine
 10
69.204808
 20
131.001360
 30
0.0
 11
69.385936
 21
131.119250
 31
0.0
  0
LINE
  5
148
100
AcDbEntity
  8
Layer_1
 62
7
100
AcDbLine
 10
69.385936
 20
131.119250
 30
0.0
 11
69.468346
 21
131.217150
 31
0.0
  0
LINE
  5
149
100
AcDbEntity
  8
Layer_1
 62
7
100
AcDbLine
 10
69.468346
 20
131.217150
 30
0.0
 11
69.509946
 21
131.330940
 31
0.0
  0
LINE
  5
14a
100
AcDbEntity
  8
Layer_1
 62
7
100
AcDbLine
 10
69.509946
 20
131.330940
 30
0.0
 11
69.502746
 21
131.793670
 31
0.0
  0
LINE
  5
14b
100
AcDbEntity
  8
Layer_1
 62
7
100
AcDbLine
 10
69.502746
 20
131.793670
 30
0.0
 11
69.360294
 21
132.570680
 31
0.0
  0
LINE
  5
14c
100
AcDbEntity
  8
Layer_1
 62
7
100
AcDbLine
 10
69.360294
 20
132.570680
 30
0.0
 11
69.030734
 21
133.529270
 31
0.0
  0
LINE
  5
14d
100
AcDbEntity
  8
Layer_1
 62
7
100
AcDbLine
 10
69.030734
 20
133.529270
 30
0.0
 11
68.511751
 21
134.675430
 31
0.0
  0
LINE
  5
14e
100
AcDbEntity
  8
Layer_1
 62
7
100
AcDbLine
 10
68.511751
 20
134.675430
 30
0.0
 11
67.801041
 21
136.015120
 31
0.0
  0
LINE
  5
14f
100
AcDbEntity
  8
Layer_1
 62
7
100
AcDbLine
 10
67.801041
 20
136.015120
 30
0.0
 11
67.180405
 21
137.121510
 31
0.0
  0
LINE
  5
150
100
AcDbEntity
  8
Layer_1
 62
7
100
AcDbLine
 10
67.180405
 20
137.121510
 30
0.0
 11
66.558221
 21
136.538600
 31
0.0
  0
LINE
  5
151
100
AcDbEntity
  8
Layer_1
 62
7
100
AcDbLine
 10
66.558221
 20
136.538600
 30
0.0
 11
66.079072
 21
136.117160
 31
0.0
  0
LINE
  5
152
100
AcDbEntity
  8
Layer_1
 62
7
100
AcDbLine
 10
66.079072
 20
136.117160
 30
0.0
 11
65.579999
 21
135.731470
 31
0.0
  0
LINE
  5
153
100
AcDbEntity
  8
Layer_1
 62
7
100
AcDbLine
 10
65.579999
 20
135.731470
 30
0.0
 11
65.062580
 21
135.381920
 31
0.0
  0
LINE
  5
154
100
AcDbEntity
  8
Layer_1
 62
7
100
AcDbLine
 10
65.062580
 20
135.381920
 30
0.0
 11
64.528378
 21
135.068890
 31
0.0
  0
LINE
  5
155
100
AcDbEntity
  8
Layer_1
 62
7
100
AcDbLine
 10
64.528378
 20
135.068890
 30
0.0
 11
63.415924
 21
134.553900
 31
0.0
  0
LINE
  5
156
100
AcDbEntity
  8
Layer_1
 62
7
100
AcDbLine
 10
63.415924
 20
134.553900
 30
0.0
 11
62.255205
 21
134.189570
 31
0.0
  0
LINE
  5
157
100
AcDbEntity
  8
Layer_1
 62
7
100
AcDbLine
 10
62.255205
 20
134.189570
 30
0.0
 11
61.058786
 21
133.978960
 31
0.0
  0
LINE
  5
158
100
AcDbEntity
  8
Layer_1
 62
7
100
AcDbLine
 10
61.058786
 20
133.978960
 30
0.0
 11
60.451117
 21
133.932260
 31
0.0
  0
LINE
  5
159
100
AcDbEntity
  8
Layer_1
 62
7
100
AcDbLine
 10
60.451117
 20
133.932260
 30
0.0
 11
59.839234
 21
133.925260
 31
0.0
  0
LINE
  5
15a
100
AcDbEntity
  8
Layer_1
 62
7
100
AcDbLine
 10
59.839234
 20
133.925260
 30
0.0
 11
59.224712
 21
133.958060
 31
0.0
  0
LINE
  5
15b
100
AcDbEntity
  8
Layer_1
 62
7
100
AcDbLine
 10
59.224712
 20
133.958060
 30
0.0
 11
58.609120
 21
134.031260
 31
0.0
  0
LINE
  5
15c
100
AcDbEntity
  8
Layer_1
 62
7
100
AcDbLine
 10
58.609120
 20
134.031260
 30
0.0
 11
57.994024
 21
134.145150
 31
0.0
  0
LINE
  5
15d
100
AcDbEntity
  8
Layer_1
 62
7
100
AcDbLine
 10
57.994024
 20
134.145150
 30
0.0
 11
57.381003
 21
134.300140
 31
0.0
  0
LINE
  5
15e
100
AcDbEntity
  8
Layer_1
 62
7
100
AcDbLine
 10
57.381003
 20
134.300140
 30
0.0
 11
56.702598
 21
134.541580
 31
0.0
  0
LINE
  5
15f
100
AcDbEntity
  8
Layer_1
 62
7
100
AcDbLine
 10
56.702598
 20
134.541580
 30
0.0
 11
55.937624
 21
134.887320
 31
0.0
  0
LINE
  5
160
100
AcDbEntity
  8
Layer_1
 62
7
100
AcDbLine
 10
55.937624
 20
134.887320
 30
0.0
 11
55.185988
 21
135.288160
 31
0.0
  0
LINE
  5
161
100
AcDbEntity
  8
Layer_1
 62
7
100
AcDbLine
 10
55.185988
 20
135.288160
 30
0.0
 11
54.547586
 21
135.694880
 31
0.0
  0
LINE
  5
162
100
AcDbEntity
  8
Layer_1
 62
7
100
AcDbLine
 10
54.547586
 20
135.694880
 30
0.0
 11
53.934887
 21
136.195270
 31
0.0
  0
LINE
  5
163
100
AcDbEntity
  8
Layer_1
 62
7
100
AcDbLine
 10
53.934887
 20
136.195270
 30
0.0
 11
53.271471
 21
136.833800
 31
0.0
  0
LINE
  5
164
100
AcDbEntity
  8
Layer_1
 62
7
100
AcDbLine
 10
53.271471
 20
136.833800
 30
0.0
 11
52.655966
 21
137.509160
 31
0.0
  0
LINE
  5
165
100
AcDbEntity
  8
Layer_1
 62
7
100
AcDbLine
 10
52.655966
 20
137.509160
 30
0.0
 11
52.187005
 21
138.120060
 31
0.0
  0
LINE
  5
166
100
AcDbEntity
  8
Layer_1
 62
7
100
AcDbLine
 10
52.187005
 20
138.120060
 30
0.0
 11
51.693943
 21
138.953030
 31
0.0
  0
LINE
  5
167
100
AcDbEntity
  8
Layer_1
 62
7
100
AcDbLine
 10
51.693943
 20
138.953030
 30
0.0
 11
51.273068
 21
139.855220
 31
0.0
  0
LINE
  5
168
100
AcDbEntity
  8
Layer_1
 62
7
100
AcDbLine
 10
51.273068
 20
139.855220
 30
0.0
 11
50.935928
 21
140.798440
 31
0.0
  0
LINE
  5
169
100
AcDbEntity
  8
Layer_1
 62
7
100
AcDbLine
 10
50.935928
 20
140.798440
 30
0.0
 11
50.694075
 21
141.754460
 31
0.0
  0
LINE
  5
16a
100
AcDbEntity
  8
Layer_1
 62
7
100
AcDbLine
 10
50.694075
 20
141.754460
 30
0.0
 11
50.600565
 21
142.549210
 31
0.0
  0
LINE
  5
16b
100
AcDbEntity
  8
Layer_1
 62
7
100
AcDbLine
 10
50.600565
 20
142.549210
 30
0.0
 11
50.569395
 21
143.548670
 31
0.0
  0
LINE
  5
16c
100
AcDbEntity
  8
Layer_1
 62
7
100
AcDbLine
 10
50.569395
 20
143.548670
 30
0.0
 11
50.600565
 21
144.548130
 31
0.0
  0
LINE
  5
16d
100
AcDbEntity
  8
Layer_1
 62
7
100
AcDbLine
 10
50.600565
 20
144.548130
 30
0.0
 11
50.694075
 21
145.342870
 31
0.0
  0
LINE
  5
16e
100
AcDbEntity
  8
Layer_1
 62
7
100
AcDbLine
 10
50.694075
 20
145.342870
 30
0.0
 11
50.933020
 21
146.298080
 31
0.0
  0
LINE
  5
16f
100
AcDbEntity
  8
Layer_1
 62
7
100
AcDbLine
 10
50.933020
 20
146.298080
 30
0.0
 11
51.261323
 21
147.219030
 31
0.0
  0
LINE
  5
170
100
AcDbEntity
  8
Layer_1
 62
7
100
AcDbLine
 10
51.261323
 20
147.219030
 30
0.0
 11
51.678719
 21
148.105080
 31
0.0
  0
LINE
  5
171
100
AcDbEntity
  8
Layer_1
 62
7
100
AcDbLine
 10
51.678719
 20
148.105080
 30
0.0
 11
52.184938
 21
148.955570
 31
0.0
  0
LINE
  5
172
100
AcDbEntity
  8
Layer_1
 62
7
100
AcDbLine
 10
52.184938
 20
148.955570
 30
0.0
 11
52.708541
 21
149.637150
 31
0.0
  0
LINE
  5
173
100
AcDbEntity
  8
Layer_1
 62
7
100
AcDbLine
 10
52.708541
 20
149.637150
 30
0.0
 11
53.388824
 21
150.371110
 31
0.0
  0
LINE
  5
174
100
AcDbEntity
  8
Layer_1
 62
7
100
AcDbLine
 10
53.388824
 20
150.371110
 30
0.0
 11
54.120355
 21
151.051780
 31
0.0
  0
LINE
  5
175
100
AcDbEntity
  8
Layer_1
 62
7
100
AcDbLine
 10
54.120355
 20
151.051780
 30
0.0
 11
54.797699
 21
151.573500
 31
0.0
  0
LINE
  5
176
100
AcDbEntity
  8
Layer_1
 62
7
100
AcDbLine
 10
54.797699
 20
151.573500
 30
0.0
 11
55.405931
 21
151.976060
 31
0.0
  0
LINE
  5
177
100
AcDbEntity
  8
Layer_1
 62
7
100
AcDbLine
 10
55.405931
 20
151.976060
 30
0.0
 11
54.794082
 21
152.562590
 31
0.0
  0
LINE
  5
178
100
AcDbEntity
  8
Layer_1
 62
7
100
AcDbLine
 10
54.794082
 20
152.562590
 30
0.0
 11
53.995387
 21
153.294860
 31
0.0
  0
LINE
  5
179
100
AcDbEntity
  8
Layer_1
 62
7
100
AcDbLine
 10
53.995387
 20
153.294860
 30
0.0
 11
53.218652
 21
153.944450
 31
0.0
  0
LINE
  5
17a
100
AcDbEntity
  8
Layer_1
 62
7
100
AcDbLine
 10
53.218652
 20
153.944450
 30
0.0
 11
52.482447
 21
154.499960
 31
0.0
  0
LINE
  5
17b
100
AcDbEntity
  8
Layer_1
 62
7
100
AcDbLine
 10
52.482447
 20
154.499960
 30
0.0
 11
51.805328
 21
154.950000
 31
0.0
  0
LINE
  5
17c
100
AcDbEntity
  8
Layer_1
 62
7
100
AcDbLine
 10
51.805328
 20
154.950000
 30
0.0
 11
51.205858
 21
155.283200
 31
0.0
  0
LINE
  5
17d
100
AcDbEntity
  8
Layer_1
 62
7
100
AcDbLine
 10
51.205858
 20
155.283200
 30
0.0
 11
50.702600
 21
155.488170
 31
0.0
  0
LINE
  5
17e
100
AcDbEntity
  8
Layer_1
 62
7
100
AcDbLine
 10
50.702600
 20
155.488170
 30
0.0
 11
50.314117
 21
155.553470
 31
0.0
  0
LINE
  5
17f
100
AcDbEntity
  8
Layer_1
 62
7
100
AcDbLine
 10
50.314117
 20
155.553470
 30
0.0
 11
50.168716
 21
155.530170
 31
0.0
  0
LINE
  5
180
100
AcDbEntity
  8
Layer_1
 62
7
100
AcDbLine
 10
50.168716
 20
155.530170
 30
0.0
 11
50.058969
 21
155.467770
 31
0.0
  0
LINE
  5
181
100
AcDbEntity
  8
Layer_1
 62
7
100
AcDbLine
 10
50.058969
 20
155.467770
 30
0.0
 11
49.962429
 21
155.335330
 31
0.0
  0
LINE
  5
182
100
AcDbEntity
  8
Layer_1
 62
7
100
AcDbLine
 10
49.962429
 20
155.335330
 30
0.0
 11
49.900199
 21
155.145780
 31
0.0
  0
LINE
  5
183
100
AcDbEntity
  8
Layer_1
 62
7
100
AcDbLine
 10
49.900199
 20
155.145780
 30
0.0
 11
49.877919
 21
154.606450
 31
0.0
  0
LINE
  5
184
100
AcDbEntity
  8
Layer_1
 62
7
100
AcDbLine
 10
49.877919
 20
154.606450
 30
0.0
 11
49.990599
 21
153.871970
 31
0.0
  0
LINE
  5
185
100
AcDbEntity
  8
Layer_1
 62
7
100
AcDbLine
 10
49.990599
 20
153.871970
 30
0.0
 11
50.236744
 21
152.964560
 31
0.0
  0
LINE
  5
186
100
AcDbEntity
  8
Layer_1
 62
7
100
AcDbLine
 10
50.236744
 20
152.964560
 30
0.0
 11
50.418124
 21
152.440160
 31
0.0
  0
LINE
  5
187
100
AcDbEntity
  8
Layer_1
 62
7
100
AcDbLine
 10
50.418124
 20
152.440160
 30
0.0
 11
50.524066
 21
152.221970
 31
0.0
  0
LINE
  5
188
100
AcDbEntity
  8
Layer_1
 62
7
100
AcDbLine
 10
50.524066
 20
152.221970
 30
0.0
 11
50.982951
 21
152.710830
 31
0.0
  0
LINE
  5
189
100
AcDbEntity
  8
Layer_1
 62
7
100
AcDbLine
 10
50.982951
 20
152.710830
 30
0.0
 11
51.304769
 21
153.065140
 31
0.0
  0
LINE
  5
18a
100
AcDbEntity
  8
Layer_1
 62
7
100
AcDbLine
 10
51.304769
 20
153.065140
 30
0.0
 11
51.377969
 21
153.106640
 31
0.0
  0
LINE
  5
18b
100
AcDbEntity
  8
Layer_1
 62
7
100
AcDbLine
 10
51.377969
 20
153.106640
 30
0.0
 11
51.406699
 21
153.069440
 31
0.0
  0
LINE
  5
18c
100
AcDbEntity
  8
Layer_1
 62
7
100
AcDbLine
 10
51.406699
 20
153.069440
 30
0.0
 11
51.672314
 21
149.444860
 31
0.0
  0
LINE
  5
18d
100
AcDbEntity
  8
Layer_1
 62
7
100
AcDbLine
 10
51.672314
 20
149.444860
 30
0.0
 11
50.233642
 21
150.640130
 31
0.0
  0
LINE
  5
18e
100
AcDbEntity
  8
Layer_1
 62
7
100
AcDbLine
 10
50.233642
 20
150.640130
 30
0.0
 11
48.805305
 21
151.846780
 31
0.0
  0
LINE
  5
18f
100
AcDbEntity
  8
Layer_1
 62
7
100
AcDbLine
 10
48.805305
 20
151.846780
 30
0.0
 11
49.141204
 21
151.891780
 31
0.0
  0
LINE
  5
190
100
AcDbEntity
  8
Layer_1
 62
7
100
AcDbLine
 10
49.141204
 20
151.891780
 30
0.0
 11
49.801112
 21
151.942980
 31
0.0
  0
LINE
  5
191
100
AcDbEntity
  8
Layer_1
 62
7
100
AcDbLine
 10
49.801112
 20
151.942980
 30
0.0
 11
50.030286
 21
151.961680
 31
0.0
  0
LINE
  5
192
100
AcDbEntity
  8
Layer_1
 62
7
100
AcDbLine
 10
50.030286
 20
151.961680
 30
0.0
 11
50.125636
 21
151.998280
 31
0.0
  0
LINE
  5
193
100
AcDbEntity
  8
Layer_1
 62
7
100
AcDbLine
 10
50.125636
 20
151.998280
 30
0.0
 11
49.816611
 21
152.780140
 31
0.0
  0
LINE
  5
194
100
AcDbEntity
  8
Layer_1
 62
7
100
AcDbLine
 10
49.816611
 20
152.780140
 30
0.0
 11
49.572567
 21
153.406850
 31
0.0
  0
LINE
  5
195
100
AcDbEntity
  8
Layer_1
 62
7
100
AcDbLine
 10
49.572567
 20
153.406850
 30
0.0
 11
49.394987
 21
153.973330
 31
0.0
  0
LINE
  5
196
100
AcDbEntity
  8
Layer_1
 62
7
100
AcDbLine
 10
49.394987
 20
153.973330
 30
0.0
 11
49.283870
 21
154.479830
 31
0.0
  0
LINE
  5
197
100
AcDbEntity
  8
Layer_1
 62
7
100
AcDbLine
 10
49.283870
 20
154.479830
 30
0.0
 11
49.239210
 21
154.926610
 31
0.0
  0
LINE
  5
198
100
AcDbEntity
  8
Layer_1
 62
7
100
AcDbLine
 10
49.239210
 20
154.926610
 30
0.0
 11
49.261010
 21
155.313920
 31
0.0
  0
LINE
  5
199
100
AcDbEntity
  8
Layer_1
 62
7
100
AcDbLine
 10
49.261010
 20
155.313920
 30
0.0
 11
49.349270
 21
155.642010
 31
0.0
  0
LINE
  5
19a
100
AcDbEntity
  8
Layer_1
 62
7
100
AcDbLine
 10
49.349270
 20
155.642010
 30
0.0
 11
49.503983
 21
155.911130
 31
0.0
  0
LINE
  5
19b
100
AcDbEntity
  8
Layer_1
 62
7
100
AcDbLine
 10
49.503983
 20
155.911130
 30
0.0
 11
49.725145
 21
156.121540
 31
0.0
  0
LINE
  5
19c
100
AcDbEntity
  8
Layer_1
 62
7
100
AcDbLine
 10
49.725145
 20
156.121540
 30
0.0
 11
50.028011
 21
156.262870
 31
0.0
  0
LINE
  5
19d
100
AcDbEntity
  8
Layer_1
 62
7
100
AcDbLine
 10
50.028011
 20
156.262870
 30
0.0
 11
50.401071
 21
156.308570
 31
0.0
  0
LINE
  5
19e
100
AcDbEntity
  8
Layer_1
 62
7
100
AcDbLine
 10
50.401071
 20
156.308570
 30
0.0
 11
50.401071
 21
156.308570
 31
0.0
  0
LINE
  5
19f
100
AcDbEntity
  8
Layer_1
 62
7
100
AcDbLine
 10
58.623310
 20
151.492840
 30
0.0
 11
58.430040
 21
151.444240
 31
0.0
  0
LINE
  5
1a0
100
AcDbEntity
  8
Layer_1
 62
7
100
AcDbLine
 10
58.430040
 20
151.444240
 30
0.0
 11
58.039883
 21
151.356340
 31
0.0
  0
LINE
  5
1a1
100
AcDbEntity
  8
Layer_1
 62
7
100
AcDbLine
 10
58.039883
 20
151.356340
 30
0.0
 11
57.842996
 21
151.269540
 31
0.0
  0
LINE
  5
1a2
100
AcDbEntity
  8
Layer_1
 62
7
100
AcDbLine
 10
57.842996
 20
151.269540
 30
0.0
 11
58.005259
 21
151.069040
 31
0.0
  0
LINE
  5
1a3
100
AcDbEntity
  8
Layer_1
 62
7
100
AcDbLine
 10
58.005259
 20
151.069040
 30
0.0
 11
58.167007
 21
150.917110
 31
0.0
  0
LINE
  5
1a4
100
AcDbEntity
  8
Layer_1
 62
7
100
AcDbLine
 10
58.167007
 20
150.917110
 30
0.0
 11
58.395417
 21
151.204940
 31
0.0
  0
LINE
  5
1a5
100
AcDbEntity
  8
Layer_1
 62
7
100
AcDbLine
 10
58.395417
 20
151.204940
 30
0.0
 11
58.623310
 21
151.492780
 31
0.0
  0
LINE
  5
1a6
100
AcDbEntity
  8
Layer_1
 62
7
100
AcDbLine
 10
61.586953
 20
151.453480
 30
0.0
 11
61.568803
 21
151.417180
 31
0.0
  0
LINE
  5
1a7
100
AcDbEntity
  8
Layer_1
 62
7
100
AcDbLine
 10
61.568803
 20
151.417180
 30
0.0
 11
61.633033
 21
151.303050
 31
0.0
  0
LINE
  5
1a8
100
AcDbEntity
  8
Layer_1
 62
7
100
AcDbLine
 10
61.633033
 20
151.303050
 30
0.0
 11
62.069098
 21
150.719680
 31
0.0
  0
LINE
  5
1a9
100
AcDbEntity
  8
Layer_1
 62
7
100
AcDbLine
 10
62.069098
 20
150.719680
 30
0.0
 11
62.834513
 21
149.647470
 31
0.0
  0
LINE
  5
1aa
100
AcDbEntity
  8
Layer_1
 62
7
100
AcDbLine
 10
62.834513
 20
149.647470
 30
0.0
 11
63.513223
 21
148.561130
 31
0.0
  0
LINE
  5
1ab
100
AcDbEntity
  8
Layer_1
 62
7
100
AcDbLine
 10
63.513223
 20
148.561130
 30
0.0
 11
64.075518
 21
147.511760
 31
0.0
  0
LINE
  5
1ac
100
AcDbEntity
  8
Layer_1
 62
7
100
AcDbLine
 10
64.075518
 20
147.511760
 30
0.0
 11
64.491689
 21
146.550430
 31
0.0
  0
LINE
  5
1ad
100
AcDbEntity
  8
Layer_1
 62
7
100
AcDbLine
 10
64.491689
 20
146.550430
 30
0.0
 11
64.844378
 21
145.326730
 31
0.0
  0
LINE
  5
1ae
100
AcDbEntity
  8
Layer_1
 62
7
100
AcDbLine
 10
64.844378
 20
145.326730
 30
0.0
 11
64.966804
 21
144.727900
 31
0.0
  0
LINE
  5
1af
100
AcDbEntity
  8
Layer_1
 62
7
100
AcDbLine
 10
64.966804
 20
144.727900
 30
0.0
 11
65.014134
 21
144.306120
 31
0.0
  0
LINE
  5
1b0
100
AcDbEntity
  8
Layer_1
 62
7
100
AcDbLine
 10
65.014134
 20
144.306120
 30
0.0
 11
65.014134
 21
144.094770
 31
0.0
  0
LINE
  5
1b1
100
AcDbEntity
  8
Layer_1
 62
7
100
AcDbLine
 10
65.014134
 20
144.094770
 30
0.0
 11
66.504484
 21
144.094770
 31
0.0
  0
LINE
  5
1b2
100
AcDbEntity
  8
Layer_1
 62
7
100
AcDbLine
 10
66.504484
 20
144.094770
 30
0.0
 11
67.994832
 21
144.094770
 31
0.0
  0
LINE
  5
1b3
100
AcDbEntity
  8
Layer_1
 62
7
100
AcDbLine
 10
67.994832
 20
144.094770
 30
0.0
 11
67.939022
 21
144.560890
 31
0.0
  0
LINE
  5
1b4
100
AcDbEntity
  8
Layer_1
 62
7
100
AcDbLine
 10
67.939022
 20
144.560890
 30
0.0
 11
67.754010
 21
145.549880
 31
0.0
  0
LINE
  5
1b5
100
AcDbEntity
  8
Layer_1
 62
7
100
AcDbLine
 10
67.754010
 20
145.549880
 30
0.0
 11
67.444283
 21
146.505270
 31
0.0
  0
LINE
  5
1b6
100
AcDbEntity
  8
Layer_1
 62
7
100
AcDbLine
 10
67.444283
 20
146.505270
 30
0.0
 11
67.018966
 21
147.414280
 31
0.0
  0
LINE
  5
1b7
100
AcDbEntity
  8
Layer_1
 62
7
100
AcDbLine
 10
67.018966
 20
147.414280
 30
0.0
 11
66.487180
 21
148.264110
 31
0.0
  0
LINE
  5
1b8
100
AcDbEntity
  8
Layer_1
 62
7
100
AcDbLine
 10
66.487180
 20
148.264110
 30
0.0
 11
65.858045
 21
149.041970
 31
0.0
  0
LINE
  5
1b9
100
AcDbEntity
  8
Layer_1
 62
7
100
AcDbLine
 10
65.858045
 20
149.041970
 30
0.0
 11
65.140688
 21
149.735070
 31
0.0
  0
LINE
  5
1ba
100
AcDbEntity
  8
Layer_1
 62
7
100
AcDbLine
 10
65.140688
 20
149.735070
 30
0.0
 11
64.344232
 21
150.330610
 31
0.0
  0
LINE
  5
1bb
100
AcDbEntity
  8
Layer_1
 62
7
100
AcDbLine
 10
64.344232
 20
150.330610
 30
0.0
 11
63.477795
 21
150.815800
 31
0.0
  0
LINE
  5
1bc
100
AcDbEntity
  8
Layer_1
 62
7
100
AcDbLine
 10
63.477795
 20
150.815800
 30
0.0
 11
62.589483
 21
151.168390
 31
0.0
  0
LINE
  5
1bd
100
AcDbEntity
  8
Layer_1
 62
7
100
AcDbLine
 10
62.589483
 20
151.168390
 30
0.0
 11
61.713046
 21
151.433330
 31
0.0
  0
LINE
  5
1be
100
AcDbEntity
  8
Layer_1
 62
7
100
AcDbLine
 10
61.713046
 20
151.433330
 30
0.0
 11
61.586956
 21
151.453530
 31
0.0
  0
LINE
  5
1bf
100
AcDbEntity
  8
Layer_1
 62
7
100
AcDbLine
 10
61.586956
 20
151.453530
 30
0.0
 11
61.586956
 21
151.453520
 31
0.0
  0
LINE
  5
1c0
100
AcDbEntity
  8
Layer_1
 62
7
100
AcDbLine
 10
59.524550
 20
150.924350
 30
0.0
 11
59.208807
 21
150.548670
 31
0.0
  0
LINE
  5
1c1
100
AcDbEntity
  8
Layer_1
 62
7
100
AcDbLine
 10
59.208807
 20
150.548670
 30
0.0
 11
58.918900
 21
150.172460
 31
0.0
  0
LINE
  5
1c2
100
AcDbEntity
  8
Layer_1
 62
7
100
AcDbLine
 10
58.918900
 20
150.172460
 30
0.0
 11
59.183484
 21
149.872220
 31
0.0
  0
LINE
  5
1c3
100
AcDbEntity
  8
Layer_1
 62
7
100
AcDbLine
 10
59.183484
 20
149.872220
 30
0.0
 11
59.499227
 21
149.564740
 31
0.0
  0
LINE
  5
1c4
100
AcDbEntity
  8
Layer_1
 62
7
100
AcDbLine
 10
59.499227
 20
149.564740
 30
0.0
 11
59.535367
 21
149.761030
 31
0.0
  0
LINE
  5
1c5
100
AcDbEntity
  8
Layer_1
 62
7
100
AcDbLine
 10
59.535367
 20
149.761030
 30
0.0
 11
59.550367
 21
150.241710
 31
0.0
  0
LINE
  5
1c6
100
AcDbEntity
  8
Layer_1
 62
7
100
AcDbLine
 10
59.550367
 20
150.241710
 30
0.0
 11
59.524547
 21
150.924350
 31
0.0
  0
LINE
  5
1c7
100
AcDbEntity
  8
Layer_1
 62
7
100
AcDbLine
 10
59.524547
 20
150.924350
 30
0.0
 11
59.524534
 21
150.924350
 31
0.0
  0
LINE
  5
1c8
100
AcDbEntity
  8
Layer_1
 62
7
100
AcDbLine
 10
60.580282
 20
150.890250
 30
0.0
 11
60.577682
 21
149.608150
 31
0.0
  0
LINE
  5
1c9
100
AcDbEntity
  8
Layer_1
 62
7
100
AcDbLine
 10
60.577682
 20
149.608150
 30
0.0
 11
60.575082
 21
148.326060
 31
0.0
  0
LINE
  5
1ca
100
AcDbEntity
  8
Layer_1
 62
7
100
AcDbLine
 10
60.575082
 20
148.326060
 30
0.0
 11
60.836564
 21
148.037190
 31
0.0
  0
LINE
  5
1cb
100
AcDbEntity
  8
Layer_1
 62
7
100
AcDbLine
 10
60.836564
 20
148.037190
 30
0.0
 11
61.891325
 21
146.787740
 31
0.0
  0
LINE
  5
1cc
100
AcDbEntity
  8
Layer_1
 62
7
100
AcDbLine
 10
61.891325
 20
146.787740
 30
0.0
 11
63.166138
 21
145.187750
 31
0.0
  0
LINE
  5
1cd
100
AcDbEntity
  8
Layer_1
 62
7
100
AcDbLine
 10
63.166138
 20
145.187750
 30
0.0
 11
63.920412
 21
144.237140
 31
0.0
  0
LINE
  5
1ce
100
AcDbEntity
  8
Layer_1
 62
7
100
AcDbLine
 10
63.920412
 20
144.237140
 30
0.0
 11
63.968992
 21
144.205740
 31
0.0
  0
LINE
  5
1cf
100
AcDbEntity
  8
Layer_1
 62
7
100
AcDbLine
 10
63.968992
 20
144.205740
 30
0.0
 11
63.983962
 21
144.235540
 31
0.0
  0
LINE
  5
1d0
100
AcDbEntity
  8
Layer_1
 62
7
100
AcDbLine
 10
63.983962
 20
144.235540
 30
0.0
 11
63.957822
 21
144.436410
 31
0.0
  0
LINE
  5
1d1
100
AcDbEntity
  8
Layer_1
 62
7
100
AcDbLine
 10
63.957822
 20
144.436410
 30
0.0
 11
63.777945
 21
145.284710
 31
0.0
  0
LINE
  5
1d2
100
AcDbEntity
  8
Layer_1
 62
7
100
AcDbLine
 10
63.777945
 20
145.284710
 30
0.0
 11
63.490457
 21
146.178600
 31
0.0
  0
LINE
  5
1d3
100
AcDbEntity
  8
Layer_1
 62
7
100
AcDbLine
 10
63.490457
 20
146.178600
 30
0.0
 11
63.105401
 21
147.091130
 31
0.0
  0
LINE
  5
1d4
100
AcDbEntity
  8
Layer_1
 62
7
100
AcDbLine
 10
63.105401
 20
147.091130
 30
0.0
 11
62.632837
 21
147.995360
 31
0.0
  0
LINE
  5
1d5
100
AcDbEntity
  8
Layer_1
 62
7
100
AcDbLine
 10
62.632837
 20
147.995360
 30
0.0
 11
61.725123
 21
149.398490
 31
0.0
  0
LINE
  5
1d6
100
AcDbEntity
  8
Layer_1
 62
7
100
AcDbLine
 10
61.725123
 20
149.398490
 30
0.0
 11
60.817443
 21
150.616910
 31
0.0
  0
LINE
  5
1d7
100
AcDbEntity
  8
Layer_1
 62
7
100
AcDbLine
 10
60.817443
 20
150.616910
 30
0.0
 11
60.580374
 21
150.890280
 31
0.0
  0
LINE
  5
1d8
100
AcDbEntity
  8
Layer_1
 62
7
100
AcDbLine
 10
56.557363
 20
150.806080
 30
0.0
 11
56.108296
 21
150.555450
 31
0.0
  0
LINE
  5
1d9
100
AcDbEntity
  8
Layer_1
 62
7
100
AcDbLine
 10
56.108296
 20
150.555450
 30
0.0
 11
55.514825
 21
150.181710
 31
0.0
  0
LINE
  5
1da
100
AcDbEntity
  8
Layer_1
 62
7
100
AcDbLine
 10
55.514825
 20
150.181710
 30
0.0
 11
54.950977
 21
149.743410
 31
0.0
  0
LINE
  5
1db
100
AcDbEntity
  8
Layer_1
 62
7
100
AcDbLine
 10
54.950977
 20
149.743410
 30
0.0
 11
54.422599
 21
149.247720
 31
0.0
  0
LINE
  5
1dc
100
AcDbEntity
  8
Layer_1
 62
7
100
AcDbLine
 10
54.422599
 20
149.247720
 30
0.0
 11
53.935533
 21
148.701790
 31
0.0
  0
LINE
  5
1dd
100
AcDbEntity
  8
Layer_1
 62
7
100
AcDbLine
 10
53.935533
 20
148.701790
 30
0.0
 11
53.495626
 21
148.112770
 31
0.0
  0
LINE
  5
1de
100
AcDbEntity
  8
Layer_1
 62
7
100
AcDbLine
 10
53.495626
 20
148.112770
 30
0.0
 11
53.108723
 21
147.487840
 31
0.0
  0
LINE
  5
1df
100
AcDbEntity
  8
Layer_1
 62
7
100
AcDbLine
 10
53.108723
 20
147.487840
 30
0.0
 11
52.780666
 21
146.834130
 31
0.0
  0
LINE
  5
1e0
100
AcDbEntity
  8
Layer_1
 62
7
100
AcDbLine
 10
52.780666
 20
146.834130
 30
0.0
 11
52.517300
 21
146.158820
 31
0.0
  0
LINE
  5
1e1
100
AcDbEntity
  8
Layer_1
 62
7
100
AcDbLine
 10
52.517300
 20
146.158820
 30
0.0
 11
52.243615
 21
145.104620
 31
0.0
  0
LINE
  5
1e2
100
AcDbEntity
  8
Layer_1
 62
7
100
AcDbLine
 10
52.243615
 20
145.104620
 30
0.0
 11
52.106474
 21
144.222510
 31
0.0
  0
LINE
  5
1e3
100
AcDbEntity
  8
Layer_1
 62
7
100
AcDbLine
 10
52.106474
 20
144.222510
 30
0.0
 11
52.140534
 21
144.151610
 31
0.0
  0
LINE
  5
1e4
100
AcDbEntity
  8
Layer_1
 62
7
100
AcDbLine
 10
52.140534
 20
144.151610
 30
0.0
 11
52.319300
 21
144.113410
 31
0.0
  0
LINE
  5
1e5
100
AcDbEntity
  8
Layer_1
 62
7
100
AcDbLine
 10
52.319300
 20
144.113410
 30
0.0
 11
53.570467
 21
144.094810
 31
0.0
  0
LINE
  5
1e6
100
AcDbEntity
  8
Layer_1
 62
7
100
AcDbLine
 10
53.570467
 20
144.094810
 30
0.0
 11
55.034460
 21
144.094810
 31
0.0
  0
LINE
  5
1e7
100
AcDbEntity
  8
Layer_1
 62
7
100
AcDbLine
 10
55.034460
 20
144.094810
 30
0.0
 11
55.079420
 21
144.419340
 31
0.0
  0
LINE
  5
1e8
100
AcDbEntity
  8
Layer_1
 62
7
100
AcDbLine
 10
55.079420
 20
144.419340
 30
0.0
 11
55.254568
 21
145.375790
 31
0.0
  0
LINE
  5
1e9
100
AcDbEntity
  8
Layer_1
 62
7
100
AcDbLine
 10
55.254568
 20
145.375790
 30
0.0
 11
55.493866
 21
146.264190
 31
0.0
  0
LINE
  5
1ea
100
AcDbEntity
  8
Layer_1
 62
7
100
AcDbLine
 10
55.493866
 20
146.264190
 30
0.0
 11
55.746381
 21
146.909330
 31
0.0
  0
LINE
  5
1eb
100
AcDbEntity
  8
Layer_1
 62
7
100
AcDbLine
 10
55.746381
 20
146.909330
 30
0.0
 11
56.117388
 21
147.702420
 31
0.0
  0
LINE
  5
1ec
100
AcDbEntity
  8
Layer_1
 62
7
100
AcDbLine
 10
56.117388
 20
147.702420
 30
0.0
 11
56.541338
 21
148.511360
 31
0.0
  0
LINE
  5
1ed
100
AcDbEntity
  8
Layer_1
 62
7
100
AcDbLine
 10
56.541338
 20
148.511360
 30
0.0
 11
56.952691
 21
149.204060
 31
0.0
  0
LINE
  5
1ee
100
AcDbEntity
  8
Layer_1
 62
7
100
AcDbLine
 10
56.952691
 20
149.204060
 30
0.0
 11
57.365070
 21
149.922880
 31
0.0
  0
LINE
  5
1ef
100
AcDbEntity
  8
Layer_1
 62
7
100
AcDbLine
 10
57.365070
 20
149.922880
 30
0.0
 11
57.246325
 21
150.099530
 31
0.0
  0
LINE
  5
1f0
100
AcDbEntity
  8
Layer_1
 62
7
100
AcDbLine
 10
57.246325
 20
150.099530
 30
0.0
 11
56.960959
 21
150.406570
 31
0.0
  0
LINE
  5
1f1
100
AcDbEntity
  8
Layer_1
 62
7
100
AcDbLine
 10
56.960959
 20
150.406570
 30
0.0
 11
56.557366
 21
150.806030
 31
0.0
  0
LINE
  5
1f2
100
AcDbEntity
  8
Layer_1
 62
7
100
AcDbLine
 10
58.142800
 20
149.004070
 30
0.0
 11
58.068810
 21
148.973670
 31
0.0
  0
LINE
  5
1f3
100
AcDbEntity
  8
Layer_1
 62
7
100
AcDbLine
 10
58.068810
 20
148.973670
 30
0.0
 11
57.994390
 21
148.892270
 31
0.0
  0
LINE
  5
1f4
100
AcDbEntity
  8
Layer_1
 62
7
100
AcDbLine
 10
57.994390
 20
148.892270
 30
0.0
 11
57.798635
 21
148.591170
 31
0.0
  0
LINE
  5
1f5
100
AcDbEntity
  8
Layer_1
 62
7
100
AcDbLine
 10
57.798635
 20
148.591170
 30
0.0
 11
57.232466
 21
147.615700
 31
0.0
  0
LINE
  5
1f6
100
AcDbEntity
  8
Layer_1
 62
7
100
AcDbLine
 10
57.232466
 20
147.615700
 30
0.0
 11
56.755645
 21
146.591410
 31
0.0
  0
LINE
  5
1f7
100
AcDbEntity
  8
Layer_1
 62
7
100
AcDbLine
 10
56.755645
 20
146.591410
 30
0.0
 11
56.394528
 21
145.582180
 31
0.0
  0
LINE
  5
1f8
100
AcDbEntity
  8
Layer_1
 62
7
100
AcDbLine
 10
56.394528
 20
145.582180
 30
0.0
 11
56.175477
 21
144.651880
 31
0.0
  0
LINE
  5
1f9
100
AcDbEntity
  8
Layer_1
 62
7
100
AcDbLine
 10
56.175477
 20
144.651880
 30
0.0
 11
56.086597
 21
144.094810
 31
0.0
  0
LINE
  5
1fa
100
AcDbEntity
  8
Layer_1
 62
7
100
AcDbLine
 10
56.086597
 20
144.094810
 30
0.0
 11
57.818273
 21
144.094810
 31
0.0
  0
LINE
  5
1fb
100
AcDbEntity
  8
Layer_1
 62
7
100
AcDbLine
 10
57.818273
 20
144.094810
 30
0.0
 11
59.550466
 21
144.094810
 31
0.0
  0
LINE
  5
1fc
100
AcDbEntity
  8
Layer_1
 62
7
100
AcDbLine
 10
59.550466
 20
144.094810
 30
0.0
 11
59.550466
 21
145.801160
 31
0.0
  0
LINE
  5
1fd
100
AcDbEntity
  8
Layer_1
 62
7
100
AcDbLine
 10
59.550466
 20
145.801160
 30
0.0
 11
59.550466
 21
147.507520
 31
0.0
  0
LINE
  5
1fe
100
AcDbEntity
  8
Layer_1
 62
7
100
AcDbLine
 10
59.550466
 20
147.507520
 30
0.0
 11
58.942234
 21
148.211870
 31
0.0
  0
LINE
  5
1ff
100
AcDbEntity
  8
Layer_1
 62
7
100
AcDbLine
 10
58.942234
 20
148.211870
 30
0.0
 11
58.410242
 21
148.821240
 31
0.0
  0
LINE
  5
200
100
AcDbEntity
  8
Layer_1
 62
7
100
AcDbLine
 10
58.410242
 20
148.821240
 30
0.0
 11
58.255505
 21
148.961990
 31
0.0
  0
LINE
  5
201
100
AcDbEntity
  8
Layer_1
 62
7
100
AcDbLine
 10
58.255505
 20
148.961990
 30
0.0
 11
58.142801
 21
149.004090
 31
0.0
  0
LINE
  5
202
100
AcDbEntity
  8
Layer_1
 62
7
100
AcDbLine
 10
58.142801
 20
149.004090
 30
0.0
 11
58.142801
 21
149.004090
 31
0.0
  0
LINE
  5
203
100
AcDbEntity
  8
Layer_1
 62
7
100
AcDbLine
 10
60.575211
 20
146.295210
 30
0.0
 11
60.575211
 21
145.195020
 31
0.0
  0
LINE
  5
204
100
AcDbEntity
  8
Layer_1
 62
7
100
AcDbLine
 10
60.575211
 20
145.195020
 30
0.0
 11
60.575211
 21
144.094830
 31
0.0
  0
LINE
  5
205
100
AcDbEntity
  8
Layer_1
 62
7
100
AcDbLine
 10
60.575211
 20
144.094830
 30
0.0
 11
61.428905
 21
144.094830
 31
0.0
  0
LINE
  5
206
100
AcDbEntity
  8
Layer_1
 62
7
100
AcDbLine
 10
61.428905
 20
144.094830
 30
0.0
 11
62.282599
 21
144.131030
 31
0.0
  0
LINE
  5
207
100
AcDbEntity
  8
Layer_1
 62
7
100
AcDbLine
 10
62.282599
 20
144.131030
 30
0.0
 11
61.428905
 21
145.231220
 31
0.0
  0
LINE
  5
208
100
AcDbEntity
  8
Layer_1
 62
7
100
AcDbLine
 10
61.428905
 20
145.231220
 30
0.0
 11
60.575211
 21
146.295240
 31
0.0
  0
LINE
  5
209
100
AcDbEntity
  8
Layer_1
 62
7
100
AcDbLine
 10
60.575211
 20
143.005000
 30
0.0
 11
60.575211
 21
139.588670
 31
0.0
  0
LINE
  5
20a
100
AcDbEntity
  8
Layer_1
 62
7
100
AcDbLine
 10
60.575211
 20
139.588670
 30
0.0
 11
60.592251
 21
136.174410
 31
0.0
  0
LINE
  5
20b
100
AcDbEntity
  8
Layer_1
 62
7
100
AcDbLine
 10
60.592251
 20
136.174410
 30
0.0
 11
61.310658
 21
137.118750
 31
0.0
  0
LINE
  5
20c
100
AcDbEntity
  8
Layer_1
 62
7
100
AcDbLine
 10
61.310658
 20
137.118750
 30
0.0
 11
62.252098
 21
138.460580
 31
0.0
  0
LINE
  5
20d
100
AcDbEntity
  8
Layer_1
 62
7
100
AcDbLine
 10
62.252098
 20
138.460580
 30
0.0
 11
62.671659
 21
139.158030
 31
0.0
  0
LINE
  5
20e
100
AcDbEntity
  8
Layer_1
 62
7
100
AcDbLine
 10
62.671659
 20
139.158030
 30
0.0
 11
63.047981
 21
139.876760
 31
0.0
  0
LINE
  5
20f
100
AcDbEntity
  8
Layer_1
 62
7
100
AcDbLine
 10
63.047981
 20
139.876760
 30
0.0
 11
63.368203
 21
140.590330
 31
0.0
  0
LINE
  5
210
100
AcDbEntity
  8
Layer_1
 62
7
100
AcDbLine
 10
63.368203
 20
140.590330
 30
0.0
 11
63.619457
 21
141.272290
 31
0.0
  0
LINE
  5
211
100
AcDbEntity
  8
Layer_1
 62
7
100
AcDbLine
 10
63.619457
 20
141.272290
 30
0.0
 11
63.869570
 21
142.046400
 31
0.0
  0
LINE
  5
212
100
AcDbEntity
  8
Layer_1
 62
7
100
AcDbLine
 10
63.869570
 20
142.046400
 30
0.0
 11
63.533674
 21
142.507360
 31
0.0
  0
LINE
  5
213
100
AcDbEntity
  8
Layer_1
 62
7
100
AcDbLine
 10
63.533674
 20
142.507360
 30
0.0
 11
63.197777
 21
142.967790
 31
0.0
  0
LINE
  5
214
100
AcDbEntity
  8
Layer_1
 62
7
100
AcDbLine
 10
63.197777
 20
142.967790
 30
0.0
 11
61.886230
 21
142.986390
 31
0.0
  0
LINE
  5
215
100
AcDbEntity
  8
Layer_1
 62
7
100
AcDbLine
 10
61.886230
 20
142.986390
 30
0.0
 11
60.575212
 21
143.004990
 31
0.0
  0
LINE
  5
216
100
AcDbEntity
  8
Layer_1
 62
7
100
AcDbLine
 10
52.621691
 20
143.002990
 30
0.0
 11
52.261866
 21
142.963090
 31
0.0
  0
LINE
  5
217
100
AcDbEntity
  8
Layer_1
 62
7
100
AcDbLine
 10
52.261866
 20
142.963090
 30
0.0
 11
52.169126
 21
142.913690
 31
0.0
  0
LINE
  5
218
100
AcDbEntity
  8
Layer_1
 62
7
100
AcDbLine
 10
52.169126
 20
142.913690
 30
0.0
 11
52.122326
 21
142.836990
 31
0.0
  0
LINE
  5
219
100
AcDbEntity
  8
Layer_1
 62
7
100
AcDbLine
 10
52.122326
 20
142.836990
 30
0.0
 11
52.130026
 21
142.578230
 31
0.0
  0
LINE
  5
21a
100
AcDbEntity
  8
Layer_1
 62
7
100
AcDbLine
 10
52.130026
 20
142.578230
 30
0.0
 11
52.211906
 21
142.140490
 31
0.0
  0
LINE
  5
21b
100
AcDbEntity
  8
Layer_1
 62
7
100
AcDbLine
 10
52.211906
 20
142.140490
 30
0.0
 11
52.335835
 21
141.554590
 31
0.0
  0
LINE
  5
21c
100
AcDbEntity
  8
Layer_1
 62
7
100
AcDbLine
 10
52.335835
 20
141.554590
 30
0.0
 11
52.500175
 21
140.985630
 31
0.0
  0
LINE
  5
21d
100
AcDbEntity
  8
Layer_1
 62
7
100
AcDbLine
 10
52.500175
 20
140.985630
 30
0.0
 11
52.704582
 21
140.434260
 31
0.0
  0
LINE
  5
21e
100
AcDbEntity
  8
Layer_1
 62
7
100
AcDbLine
 10
52.704582
 20
140.434260
 30
0.0
 11
52.948713
 21
139.901140
 31
0.0
  0
LINE
  5
21f
100
AcDbEntity
  8
Layer_1
 62
7
100
AcDbLine
 10
52.948713
 20
139.901140
 30
0.0
 11
53.232230
 21
139.386950
 31
0.0
  0
LINE
  5
220
100
AcDbEntity
  8
Layer_1
 62
7
100
AcDbLine
 10
53.232230
 20
139.386950
 30
0.0
 11
53.554786
 21
138.892340
 31
0.0
  0
LINE
  5
221
100
AcDbEntity
  8
Layer_1
 62
7
100
AcDbLine
 10
53.554786
 20
138.892340
 30
0.0
 11
53.916043
 21
138.417970
 31
0.0
  0
LINE
  5
222
100
AcDbEntity
  8
Layer_1
 62
7
100
AcDbLine
 10
53.916043
 20
138.417970
 30
0.0
 11
54.315656
 21
137.964520
 31
0.0
  0
LINE
  5
223
100
AcDbEntity
  8
Layer_1
 62
7
100
AcDbLine
 10
54.315656
 20
137.964520
 30
0.0
 11
55.041109
 21
137.292010
 31
0.0
  0
LINE
  5
224
100
AcDbEntity
  8
Layer_1
 62
7
100
AcDbLine
 10
55.041109
 20
137.292010
 30
0.0
 11
55.855171
 21
136.705060
 31
0.0
  0
LINE
  5
225
100
AcDbEntity
  8
Layer_1
 62
7
100
AcDbLine
 10
55.855171
 20
136.705060
 30
0.0
 11
56.721647
 21
136.226680
 31
0.0
  0
LINE
  5
226
100
AcDbEntity
  8
Layer_1
 62
7
100
AcDbLine
 10
56.721647
 20
136.226680
 30
0.0
 11
57.604342
 21
135.879890
 31
0.0
  0
LINE
  5
227
100
AcDbEntity
  8
Layer_1
 62
7
100
AcDbLine
 10
57.604342
 20
135.879890
 30
0.0
 11
58.380005
 21
135.661300
 31
0.0
  0
LINE
  5
228
100
AcDbEntity
  8
Layer_1
 62
7
100
AcDbLine
 10
58.380005
 20
135.661300
 30
0.0
 11
58.609449
 21
135.612200
 31
0.0
  0
LINE
  5
229
100
AcDbEntity
  8
Layer_1
 62
7
100
AcDbLine
 10
58.609449
 20
135.612200
 30
0.0
 11
58.063746
 21
136.319130
 31
0.0
  0
LINE
  5
22a
100
AcDbEntity
  8
Layer_1
 62
7
100
AcDbLine
 10
58.063746
 20
136.319130
 30
0.0
 11
57.438843
 21
137.166890
 31
0.0
  0
LINE
  5
22b
100
AcDbEntity
  8
Layer_1
 62
7
100
AcDbLine
 10
57.438843
 20
137.166890
 30
0.0
 11
56.887970
 21
137.994850
 31
0.0
  0
LINE
  5
22c
100
AcDbEntity
  8
Layer_1
 62
7
100
AcDbLine
 10
56.887970
 20
137.994850
 30
0.0
 11
56.410026
 21
138.805350
 31
0.0
  0
LINE
  5
22d
100
AcDbEntity
  8
Layer_1
 62
7
100
AcDbLine
 10
56.410026
 20
138.805350
 30
0.0
 11
56.003917
 21
139.600730
 31
0.0
  0
LINE
  5
22e
100
AcDbEntity
  8
Layer_1
 62
7
100
AcDbLine
 10
56.003917
 20
139.600730
 30
0.0
 11
55.668542
 21
140.383330
 31
0.0
  0
LINE
  5
22f
100
AcDbEntity
  8
Layer_1
 62
7
100
AcDbLine
 10
55.668542
 20
140.383330
 30
0.0
 11
55.402797
 21
141.155510
 31
0.0
  0
LINE
  5
230
100
AcDbEntity
  8
Layer_1
 62
7
100
AcDbLine
 10
55.402797
 20
141.155510
 30
0.0
 11
55.205590
 21
141.919590
 31
0.0
  0
LINE
  5
231
100
AcDbEntity
  8
Layer_1
 62
7
100
AcDbLine
 10
55.205590
 20
141.919590
 30
0.0
 11
55.075815
 21
142.677920
 31
0.0
  0
LINE
  5
232
100
AcDbEntity
  8
Layer_1
 62
7
100
AcDbLine
 10
55.075815
 20
142.677920
 30
0.0
 11
55.034475
 21
143.001930
 31
0.0
  0
LINE
  5
233
100
AcDbEntity
  8
Layer_1
 62
7
100
AcDbLine
 10
55.034475
 20
143.001930
 30
0.0
 11
53.570482
 21
143.001930
 31
0.0
  0
LINE
  5
234
100
AcDbEntity
  8
Layer_1
 62
7
100
AcDbLine
 10
53.570482
 20
143.001930
 30
0.0
 11
52.621702
 21
143.002930
 31
0.0
  0
LINE
  5
235
100
AcDbEntity
  8
Layer_1
 62
7
100
AcDbLine
 10
52.621702
 20
143.002930
 30
0.0
 11
52.621702
 21
143.002910
 31
0.0
  0
LINE
  5
236
100
AcDbEntity
  8
Layer_1
 62
7
100
AcDbLine
 10
67.994925
 20
143.001910
 30
0.0
 11
66.504577
 21
143.001910
 31
0.0
  0
LINE
  5
237
100
AcDbEntity
  8
Layer_1
 62
7
100
AcDbLine
 10
66.504577
 20
143.001910
 30
0.0
 11
65.219763
 21
142.983310
 31
0.0
  0
LINE
  5
238
100
AcDbEntity
  8
Layer_1
 62
7
100
AcDbLine
 10
65.219763
 20
142.983310
 30
0.0
 11
65.044731
 21
142.943010
 31
0.0
  0
LINE
  5
239
100
AcDbEntity
  8
Layer_1
 62
7
100
AcDbLine
 10
65.044731
 20
142.943010
 30
0.0
 11
65.014231
 21
142.866910
 31
0.0
  0
LINE
  5
23a
100
AcDbEntity
  8
Layer_1
 62
7
100
AcDbLine
 10
65.014231
 20
142.866910
 30
0.0
 11
65.241019
 21
142.435060
 31
0.0
  0
LINE
  5
23b
100
AcDbEntity
  8
Layer_1
 62
7
100
AcDbLine
 10
65.241019
 20
142.435060
 30
0.0
 11
65.786277
 21
141.586370
 31
0.0
  0
LINE
  5
23c
100
AcDbEntity
  8
Layer_1
 62
7
100
AcDbLine
 10
65.786277
 20
141.586370
 30
0.0
 11
66.799137
 21
140.042800
 31
0.0
  0
LINE
  5
23d
100
AcDbEntity
  8
Layer_1
 62
7
100
AcDbLine
 10
66.799137
 20
140.042800
 30
0.0
 11
67.039947
 21
139.645400
 31
0.0
  0
LINE
  5
23e
100
AcDbEntity
  8
Layer_1
 62
7
100
AcDbLine
 10
67.039947
 20
139.645400
 30
0.0
 11
67.225465
 21
140.058820
 31
0.0
  0
LINE
  5
23f
100
AcDbEntity
  8
Layer_1
 62
7
100
AcDbLine
 10
67.225465
 20
140.058820
 30
0.0
 11
67.482172
 21
140.688250
 31
0.0
  0
LINE
  5
240
100
AcDbEntity
  8
Layer_1
 62
7
100
AcDbLine
 10
67.482172
 20
140.688250
 30
0.0
 11
67.687816
 21
141.318100
 31
0.0
  0
LINE
  5
241
100
AcDbEntity
  8
Layer_1
 62
7
100
AcDbLine
 10
67.687816
 20
141.318100
 30
0.0
 11
67.841600
 21
141.945660
 31
0.0
  0
LINE
  5
242
100
AcDbEntity
  8
Layer_1
 62
7
100
AcDbLine
 10
67.841600
 20
141.945660
 30
0.0
 11
67.942735
 21
142.568230
 31
0.0
  0
LINE
  5
243
100
AcDbEntity
  8
Layer_1
 62
7
100
AcDbLine
 10
67.942735
 20
142.568230
 30
0.0
 11
67.994925
 21
143.001790
 31
0.0
  0
LINE
  5
244
100
AcDbEntity
  8
Layer_1
 62
7
100
AcDbLine
 10
59.550478
 20
143.001790
 30
0.0
 11
57.818285
 21
143.001790
 31
0.0
  0
LINE
  5
245
100
AcDbEntity
  8
Layer_1
 62
7
100
AcDbLine
 10
57.818285
 20
143.001790
 30
0.0
 11
56.086609
 21
143.001790
 31
0.0
  0
LINE
  5
246
100
AcDbEntity
  8
Layer_1
 62
7
100
AcDbLine
 10
56.086609
 20
143.001790
 30
0.0
 11
56.171359
 21
142.472620
 31
0.0
  0
LINE
  5
247
100
AcDbEntity
  8
Layer_1
 62
7
100
AcDbLine
 10
56.171359
 20
142.472620
 30
0.0
 11
56.302288
 21
141.829780
 31
0.0
  0
LINE
  5
248
100
AcDbEntity
  8
Layer_1
 62
7
100
AcDbLine
 10
56.302288
 20
141.829780
 30
0.0
 11
56.491241
 21
141.179670
 31
0.0
  0
LINE
  5
249
100
AcDbEntity
  8
Layer_1
 62
7
100
AcDbLine
 10
56.491241
 20
141.179670
 30
0.0
 11
56.740796
 21
140.517160
 31
0.0
  0
LINE
  5
24a
100
AcDbEntity
  8
Layer_1
 62
7
100
AcDbLine
 10
56.740796
 20
140.517160
 30
0.0
 11
57.053528
 21
139.837080
 31
0.0
  0
LINE
  5
24b
100
AcDbEntity
  8
Layer_1
 62
7
100
AcDbLine
 10
57.053528
 20
139.837080
 30
0.0
 11
57.432009
 21
139.134310
 31
0.0
  0
LINE
  5
24c
100
AcDbEntity
  8
Layer_1
 62
7
100
AcDbLine
 10
57.432009
 20
139.134310
 30
0.0
 11
57.878821
 21
138.403690
 31
0.0
  0
LINE
  5
24d
100
AcDbEntity
  8
Layer_1
 62
7
100
AcDbLine
 10
57.878821
 20
138.403690
 30
0.0
 11
58.987725
 21
136.838340
 31
0.0
  0
LINE
  5
24e
100
AcDbEntity
  8
Layer_1
 62
7
100
AcDbLine
 10
58.987725
 20
136.838340
 30
0.0
 11
59.523609
 21
136.172230
 31
0.0
  0
LINE
  5
24f
100
AcDbEntity
  8
Layer_1
 62
7
100
AcDbLine
 10
59.523609
 20
136.172230
 30
0.0
 11
59.550479
 21
139.587010
 31
0.0
  0
LINE
  5
250
100
AcDbEntity
  8
Layer_1
 62
7
100
AcDbLine
 10
59.550479
 20
139.587010
 30
0.0
 11
59.550479
 21
143.001790
 31
0.0
  0
LINE
  5
251
100
AcDbEntity
  8
Layer_1
 62
7
100
AcDbLine
 10
64.647325
 20
140.965740
 30
0.0
 11
64.455605
 21
140.464480
 31
0.0
  0
LINE
  5
252
100
AcDbEntity
  8
Layer_1
 62
7
100
AcDbLine
 10
64.455605
 20
140.464480
 30
0.0
 11
64.033822
 21
139.510680
 31
0.0
  0
LINE
  5
253
100
AcDbEntity
  8
Layer_1
 62
7
100
AcDbLine
 10
64.033822
 20
139.510680
 30
0.0
 11
63.474551
 21
138.475560
 31
0.0
  0
LINE
  5
254
100
AcDbEntity
  8
Layer_1
 62
7
100
AcDbLine
 10
63.474551
 20
138.475560
 30
0.0
 11
62.809333
 21
137.413120
 31
0.0
  0
LINE
  5
255
100
AcDbEntity
  8
Layer_1
 62
7
100
AcDbLine
 10
62.809333
 20
137.413120
 30
0.0
 11
62.069707
 21
136.377390
 31
0.0
  0
LINE
  5
256
100
AcDbEntity
  8
Layer_1
 62
7
100
AcDbLine
 10
62.069707
 20
136.377390
 30
0.0
 11
61.575163
 21
135.711280
 31
0.0
  0
LINE
  5
257
100
AcDbEntity
  8
Layer_1
 62
7
100
AcDbLine
 10
61.575163
 20
135.711280
 30
0.0
 11
61.560293
 21
135.648580
 31
0.0
  0
LINE
  5
258
100
AcDbEntity
  8
Layer_1
 62
7
100
AcDbLine
 10
61.560293
 20
135.648580
 30
0.0
 11
61.642033
 21
135.638480
 31
0.0
  0
LINE
  5
259
100
AcDbEntity
  8
Layer_1
 62
7
100
AcDbLine
 10
61.642033
 20
135.638480
 30
0.0
 11
62.214409
 21
135.790870
 31
0.0
  0
LINE
  5
25a
100
AcDbEntity
  8
Layer_1
 62
7
100
AcDbLine
 10
62.214409
 20
135.790870
 30
0.0
 11
63.293954
 21
136.200230
 31
0.0
  0
LINE
  5
25b
100
AcDbEntity
  8
Layer_1
 62
7
100
AcDbLine
 10
63.293954
 20
136.200230
 30
0.0
 11
64.299961
 21
136.741550
 31
0.0
  0
LINE
  5
25c
100
AcDbEntity
  8
Layer_1
 62
7
100
AcDbLine
 10
64.299961
 20
136.741550
 30
0.0
 11
65.193628
 21
137.390440
 31
0.0
  0
LINE
  5
25d
100
AcDbEntity
  8
Layer_1
 62
7
100
AcDbLine
 10
65.193628
 20
137.390440
 30
0.0
 11
65.586206
 21
137.747600
 31
0.0
  0
LINE
  5
25e
100
AcDbEntity
  8
Layer_1
 62
7
100
AcDbLine
 10
65.586206
 20
137.747600
 30
0.0
 11
65.936147
 21
138.122510
 31
0.0
  0
LINE
  5
25f
100
AcDbEntity
  8
Layer_1
 62
7
100
AcDbLine
 10
65.936147
 20
138.122510
 30
0.0
 11
66.269977
 21
138.513180
 31
0.0
  0
LINE
  5
260
100
AcDbEntity
  8
Layer_1
 62
7
100
AcDbLine
 10
66.269977
 20
138.513180
 30
0.0
 11
66.114431
 21
138.783450
 31
0.0
  0
LINE
  5
261
100
AcDbEntity
  8
Layer_1
 62
7
100
AcDbLine
 10
66.114431
 20
138.783450
 30
0.0
 11
65.303110
 21
140.009730
 31
0.0
  0
LINE
  5
262
100
AcDbEntity
  8
Layer_1
 62
7
100
AcDbLine
 10
65.303110
 20
140.009730
 30
0.0
 11
64.647335
 21
140.965750
 31
0.0
  0
ENDSEC
  0
SECTION
  2
OBJECTS
  0
DICTIONARY
  5
C
330
0
100
AcDbDictionary
  3
ACAD_GROUP
350
D
  3
ACAD_MLINESTYLE
350
17
  0
DICTIONARY
  5
D
330
C
100
AcDbDictionary
  0
DICTIONARY
  5
1A
330
C
100
AcDbDictionary
  0
DICTIONARY
  5
17
330
C
100
AcDbDictionary
  3
STANDARD
350
18
  0
DICTIONARY
  5
19
330
C
100
AcDbDictionary
  0
ENDSEC
  0
EOF
