<?xml version="1.0" encoding="UTF-8" standalone="no"?>
<!-- Created with Inkscape (http://www.inkscape.org/) -->

<svg
   xmlns:dc="http://purl.org/dc/elements/1.1/"
   xmlns:cc="http://creativecommons.org/ns#"
   xmlns:rdf="http://www.w3.org/1999/02/22-rdf-syntax-ns#"
   xmlns:svg="http://www.w3.org/2000/svg"
   xmlns="http://www.w3.org/2000/svg"
   xmlns:sodipodi="http://sodipodi.sourceforge.net/DTD/sodipodi-0.dtd"
   xmlns:inkscape="http://www.inkscape.org/namespaces/inkscape"
   width="210mm"
   height="297mm"
   viewBox="0 0 210 297"
   version="1.1"
   id="svg1919"
   inkscape:version="0.92.3 (2405546, 2018-03-11)"
   sodipodi:docname="aerospace_logo_new.svg">
  <sodipodi:namedview
     id="base"
     pagecolor="#ffffff"
     bordercolor="#666666"
     borderopacity="1.0"
     inkscape:pageopacity="0.0"
     inkscape:pageshadow="2"
     inkscape:zoom="1.3822266"
     inkscape:cx="270.02143"
     inkscape:cy="508.12922"
     inkscape:document-units="mm"
     inkscape:current-layer="layer1"
     showgrid="false"
     inkscape:window-width="1920"
     inkscape:window-height="1172"
     inkscape:window-x="1920"
     inkscape:window-y="0"
     inkscape:window-maximized="1"
     inkscape:measure-start="323.391,476.767"
     inkscape:measure-end="280.707,553.455" />
  <defs
     id="defs1913" />
  <metadata
     id="metadata1916">
    <rdf:RDF>
      <cc:Work
         rdf:about="">
        <dc:format>image/svg+xml</dc:format>
        <dc:type
           rdf:resource="http://purl.org/dc/dcmitype/StillImage" />
        <dc:title></dc:title>
      </cc:Work>
    </rdf:RDF>
  </metadata>
  <g
     inkscape:label="SilkS"
     inkscape:groupmode="layer"
     id="layer1">
    <path
       style="fill:#000000;stroke-width:0.03176512"
       d="m 55.297745,147.64149 0.22262,0.0261 0.256335,0.076 0.287659,0.12476 0.316599,0.17227 0.343146,0.21858 0.367308,0.26371 0.389081,0.30761 0.408466,0.35034 0.257655,0.22905 0.271115,-0.0911 0.329229,-0.0984 0.310331,-0.0624 0.334011,-0.0326 0.40027,-0.009 0.499446,0.0144 0.372544,0.0578 0.315166,0.0794 0.304458,0.0995 0.293151,0.11905 0.281244,0.138 0.268739,0.15636 0.255636,0.17414 0.241935,0.19133 0.227633,0.20794 0.212734,0.22396 0.197235,0.23938 0.181138,0.25423 0.164441,0.26848 0.147149,0.28215 0.129254,0.29523 0.110762,0.30772 0.09167,0.31963 0.04837,0.20884 0.0264,0.18942 0.01368,0.63309 -0.01239,0.63389 -0.0264,0.18828 -0.04895,0.20917 -0.09511,0.32672 -0.117901,0.32699 -0.13361,0.30934 -0.142248,0.27379 -0.14469,0.25116 0.132913,0.24131 0.361057,0.71525 0.317691,0.72061 0.140208,0.37808 0.08925,0.30666 0.04723,0.27313 0.01413,0.27753 -0.01158,0.2539 -0.0412,0.18097 -0.07886,0.12871 -0.124576,0.0971 -0.141134,0.0573 -0.200403,0.002 -0.182647,-0.0307 -0.203566,-0.0703 -0.223473,-0.10928 -0.242372,-0.14758 -0.260263,-0.18522 -0.27714,-0.22219 -0.600878,-0.55261 -0.492477,-0.48743 0.301879,0.23482 0.688107,0.50894 0.590305,0.38083 0.485759,0.24877 0.201565,0.0736 0.172899,0.0391 0.127986,0.003 0.08424,-0.0548 0.03833,-0.0455 0.01935,-0.0529 -0.0033,-0.21522 -0.06625,-0.36139 -0.15328,-0.44585 -0.241382,-0.53308 -0.330556,-0.6231 -0.288661,-0.51459 -0.289381,0.27112 -0.222855,0.19601 -0.232122,0.17939 -0.240655,0.16257 -0.24846,0.1456 -0.517409,0.23952 -0.539857,0.16945 -0.556461,0.098 -0.28263,0.0217 -0.284591,0.003 -0.285817,-0.0153 -0.286316,-0.0341 -0.286085,-0.053 -0.285119,-0.0721 -0.31553,-0.1123 -0.355794,-0.1608 -0.34959,-0.18644 -0.296925,-0.18916 -0.284969,-0.23274 -0.308559,-0.29698 -0.286275,-0.31412 -0.218116,-0.28413 -0.229326,-0.38742 -0.195752,-0.41961 -0.156806,-0.4387 -0.112487,-0.44465 -0.04349,-0.36964 -0.0145,-0.46486 0.0145,-0.46485 0.04349,-0.36964 0.111135,-0.44427 0.152696,-0.42834 0.194133,-0.41211 0.235445,-0.39557 0.243531,-0.317 0.316404,-0.34137 0.340239,-0.31659 0.315036,-0.24265 0.282893,-0.18724 -0.284575,-0.27279 -0.371478,-0.34059 -0.361263,-0.30212 -0.342414,-0.25838 -0.314932,-0.20931 -0.278817,-0.15498 -0.234068,-0.0953 -0.180685,-0.0304 -0.06763,0.0108 -0.05104,0.029 -0.0449,0.0616 -0.02894,0.0882 -0.01036,0.25085 0.05241,0.34161 0.114483,0.42204 0.08436,0.2439 0.04927,0.10148 0.21343,-0.22737 0.14968,-0.16479 0.03404,-0.0193 0.01336,0.0173 0.123539,1.68581 -0.669135,-0.55593 -0.664328,-0.56122 0.156229,-0.0209 0.306927,-0.0238 0.10659,-0.009 0.04435,-0.017 -0.143729,-0.36365 -0.113507,-0.29148 -0.08259,-0.26348 -0.05168,-0.23557 -0.02077,-0.2078 0.01014,-0.18014 0.04105,-0.1526 0.07196,-0.12517 0.102863,-0.0979 0.140865,-0.0657 0.173512,-0.0213 v 0 m 3.824211,2.23982 -0.08989,0.0226 -0.181464,0.0409 -0.09157,0.0404 0.07547,0.0933 0.07523,0.0707 0.106235,-0.13387 0.105994,-0.13388 m 1.378407,0.0183 -0.0084,0.0169 0.02987,0.0531 0.202817,0.27132 0.355999,0.4987 0.315672,0.50526 0.261526,0.48807 0.193564,0.44712 0.164037,0.56915 0.05694,0.27852 0.02201,0.19617 v 0.0983 h 0.69317 0.69317 l -0.02596,-0.2168 -0.08605,-0.45998 -0.144056,-0.44436 -0.197817,-0.42279 -0.247337,-0.39526 -0.292614,-0.36178 -0.333647,-0.32237 -0.370436,-0.27699 -0.402985,-0.22566 -0.413159,-0.16399 -0.407636,-0.12323 -0.05864,-0.009 v 0 m -0.959237,0.24612 -0.146854,0.17473 -0.134837,0.17498 0.123059,0.13964 0.146854,0.14301 0.01681,-0.0913 0.007,-0.22357 -0.01201,-0.3175 h -7e-6 m 0.491035,0.0159 -0.0012,0.59631 -0.0012,0.59631 0.121617,0.13436 0.490576,0.58112 0.592922,0.74417 0.350818,0.44213 0.02259,0.0146 0.007,-0.0139 -0.01216,-0.0934 -0.08366,-0.39455 -0.133712,-0.41575 -0.179092,-0.42443 -0.219792,-0.42056 -0.422183,-0.6526 -0.422167,-0.5667 -0.110262,-0.12714 m -1.871126,0.0392 -0.208863,0.11657 -0.276027,0.17383 -0.262249,0.20385 -0.245752,0.23055 -0.226537,0.25392 -0.204603,0.27395 -0.179951,0.29066 -0.152581,0.30405 -0.122493,0.31409 -0.127293,0.49031 -0.06378,0.41028 0.01584,0.033 0.08315,0.0178 0.581925,0.009 h 0.680911 l 0.02091,-0.15094 0.08146,-0.44485 0.111299,-0.4132 0.117446,-0.30006 0.172557,-0.36887 0.197182,-0.37624 0.191323,-0.32218 0.191799,-0.33433 -0.05523,-0.0822 -0.132725,-0.14281 -0.187713,-0.18579 m 0.737394,0.8381 -0.03441,0.0141 -0.03461,0.0379 -0.09105,0.14005 -0.263329,0.45369 -0.221772,0.47641 -0.167957,0.4694 -0.101882,0.43268 -0.04134,0.2591 h 0.805413 0.805653 v -0.79363 -0.79364 l -0.282893,-0.3276 -0.247432,-0.28342 -0.07197,-0.0655 -0.05242,-0.0196 v 0 m 1.131327,1.25991 v 0.51171 0.5117 h 0.397058 l 0.397058,-0.0168 -0.397058,-0.5117 -0.397058,-0.49488 m 0,1.53031 v 1.58895 l 0.0079,1.58799 0.334135,-0.43922 0.437869,-0.62409 0.19514,-0.32439 0.17503,-0.33428 0.148937,-0.33189 0.11686,-0.31718 0.116329,-0.36004 -0.156227,-0.2144 -0.156228,-0.21415 -0.610008,-0.009 -0.609762,-0.009 m -3.699228,9.3e-4 -0.167357,0.0186 -0.04313,0.023 -0.02177,0.0357 0.0036,0.12035 0.03808,0.20359 0.05764,0.27251 0.07644,0.26463 0.09507,0.25644 0.113546,0.24796 0.131866,0.23915 0.150022,0.23005 0.168023,0.22063 0.185862,0.2109 0.337413,0.31279 0.378625,0.27299 0.403003,0.2225 0.410546,0.1613 0.360765,0.10166 0.106716,0.0228 -0.253809,-0.3288 -0.290646,-0.3943 -0.256215,-0.38508 -0.222294,-0.37697 -0.188884,-0.36994 -0.155985,-0.36399 -0.123599,-0.35915 -0.09172,-0.35537 -0.06036,-0.35271 -0.01923,-0.1507 H 56.77186 l -0.441283,-4.6e-4 v 1e-5 m 7.150174,4.6e-4 h -0.693169 l -0.597575,0.009 -0.08141,0.0188 -0.01419,0.0354 0.10548,0.20086 0.253603,0.39473 0.471087,0.71792 0.112002,0.18484 0.08629,-0.19229 0.119396,-0.29275 0.09565,-0.29295 0.07153,-0.29188 0.04704,-0.28956 0.02427,-0.20165 m -3.927561,0 h -0.805653 -0.805412 l 0.03942,0.24612 0.06089,0.29899 0.08788,0.30237 0.11607,0.30813 0.145453,0.31631 0.176034,0.32687 0.207815,0.33981 0.515758,0.72806 0.249242,0.30981 0.0125,-1.58824 v -1.58823 m 2.370572,0.94698 -0.08917,0.23314 -0.196174,0.44361 -0.26012,0.48144 -0.309397,0.49415 -0.344004,0.48173 -0.230015,0.30981 -0.0069,0.0292 0.03802,0.005 0.266216,-0.0709 0.502102,-0.1904 0.4679,-0.25177 0.41565,-0.3018 0.18259,-0.16612 0.16276,-0.17437 0.155266,-0.1817 -0.07235,-0.12571 -0.37735,-0.57035 -0.305004,-0.44465"
       id="path2669"
       inkscape:connector-curvature="0" />
  </g>
</svg>
