<?xml version="1.0" encoding="UTF-8" standalone="no"?>
<!-- Created with Inkscape (http://www.inkscape.org/) -->

<svg
   width="210mm"
   height="297mm"
   viewBox="0 0 210 297"
   version="1.1"
   id="svg5"
   inkscape:version="1.1.1 (c3084ef, 2021-09-22)"
   sodipodi:docname="bcbp_example_poc.svg"
   xmlns:inkscape="http://www.inkscape.org/namespaces/inkscape"
   xmlns:sodipodi="http://sodipodi.sourceforge.net/DTD/sodipodi-0.dtd"
   xmlns="http://www.w3.org/2000/svg"
   xmlns:svg="http://www.w3.org/2000/svg">
  <sodipodi:namedview
     id="namedview7"
     pagecolor="#ffffff"
     bordercolor="#666666"
     borderopacity="1.0"
     inkscape:pageshadow="2"
     inkscape:pageopacity="0.0"
     inkscape:pagecheckerboard="0"
     inkscape:document-units="mm"
     showgrid="false"
     inkscape:zoom="2.5620932"
     inkscape:cx="414.89514"
     inkscape:cy="588.77641"
     inkscape:window-width="1312"
     inkscape:window-height="941"
     inkscape:window-x="0"
     inkscape:window-y="25"
     inkscape:window-maximized="0"
     inkscape:current-layer="layer1" />
  <defs
     id="defs2" />
  <g
     inkscape:label="B.SilkS"
     inkscape:groupmode="layer"
     id="layer1">
    <path
       style="fill:#000000;stroke-width:0.264583"
       d="m 128.24726,170.73782 h 1.5875 v -1.19062 -1.19063 h -0.52917 -0.52916 v -0.52916 -0.52917 h 0.52916 0.52917 v -1.5875 -1.5875 h -0.52917 -0.52916 v -0.52917 -0.52916 h 0.52916 0.52917 v -0.52917 -0.52917 h -0.52917 -0.52916 v -0.52916 -0.52917 h -1.05834 -1.05833 v -0.52917 -0.52916 h 0.52916 0.52917 v -0.52917 -0.52917 h 0.52917 0.52917 v -1.05833 -1.05833 h -0.52917 -0.52917 v 1.05833 1.05833 h -0.52917 -0.52916 v 0.52917 0.52917 h -0.52917 -0.52917 v -0.52917 -0.52917 h -1.5875 -1.5875 v 1.5875 1.5875 h 0.52917 0.52917 v -1.05833 -1.05833 h 1.05833 1.05833 v 0.52916 0.52917 h -0.52916 -0.52917 v 0.52917 0.52916 h 0.52917 0.52916 v -0.52916 -0.52917 h 0.52917 0.52917 v 1.5875 1.5875 h 1.05833 1.05834 v 1.05833 1.05834 h -0.52917 -0.52917 v -0.52917 -0.52917 h -0.52917 -0.52916 v 0.52917 0.52917 h -0.52917 -0.52917 v -0.52917 -0.52917 h -0.52916 -0.52917 v -0.52916 -0.52917 h 0.52917 0.52916 v -0.52917 -0.52916 h -0.52916 -0.52917 v 0.52916 0.52917 h -0.52917 -0.52916 v 0.52917 0.52916 h -0.52917 -0.52917 v 0.52917 0.52917 h 0.52917 0.52917 v -0.52917 -0.52917 h 0.52916 0.52917 v 0.52917 0.52917 h 0.52917 0.52916 v 0.52916 0.52917 h -0.52916 -0.52917 v 0.52917 0.52916 h 0.52917 0.52916 v -0.52916 -0.52917 h 1.05834 1.05833 v 0.52917 0.52916 h -0.52917 -0.52916 v 1.19063 1.19062 z m 0,-1.32291 h -0.52917 v -0.52917 -0.52917 h 0.52917 0.52917 v 0.52917 0.52917 z m -3.175,1.32291 h 0.52916 v -0.66145 -0.66146 h -0.52916 -0.52917 v 0.66146 0.66145 z m -2.11667,0 h 0.52917 v -0.66145 -0.66146 h -0.52917 -0.52917 v 0.66146 0.66145 z m -5.29167,0 h 0.52917 v -0.66145 -0.66146 h -0.52917 -0.52916 v 0.66146 0.66145 z m -5.29166,0 h 0.52917 v -0.66145 -0.66146 h -0.52917 -0.52917 v 0.66146 0.66145 z m -4.23333,0 h 0.52916 v -0.66145 -0.66146 h -0.52916 -0.52917 v 0.66146 0.66145 z m -2.11667,0 h 0.52917 v -0.66145 -0.66146 h -0.52917 -0.52917 v 0.66146 0.66145 z m -5.29167,0 h 0.52917 v -0.66145 -0.66146 h -0.52917 -0.52916 v 0.66146 0.66145 z m -2.645829,0 h 1.05833 v -0.66145 -0.66146 h -1.05833 -1.05833 v 0.66146 0.66145 z m -2.64583,0 h 0.52916 v -1.19062 -1.19063 h -0.52916 -0.52917 v 1.19063 1.19062 z m -5.29167,0 h 1.5875 v -0.66145 -0.66146 h 0.52916 0.52917 v -1.05834 -1.05833 h 0.52917 0.52916 v -1.5875 -1.5875 h 1.05834 1.05833 v -1.5875 -1.5875 h 0.52917 0.52917 v 1.05833 1.05834 h 0.52916 0.52917 v 0.52916 0.52917 h -0.52917 -0.52916 v 1.05833 1.05834 h -0.52917 -0.52917 v -0.52917 -0.52917 h -0.52916 -0.52917 v 0.52917 0.52917 h 0.52917 0.52916 v 0.52916 0.52917 h 0.52917 0.52917 v -0.52917 -0.52916 h 0.52916 0.52917 v 0.52916 0.52917 h 0.52917 0.52916 v -0.52917 -0.52916 h 0.52917 0.529169 v -1.05834 -1.05833 h -0.529169 -0.52917 v -0.52917 -0.52916 h -0.52916 -0.52917 v -0.52917 -0.52917 h 1.05833 1.058339 v 0.52917 0.52917 h 1.05833 1.05833 v 1.05833 1.05833 h -0.52916 -0.52917 v 1.05834 1.05833 h -0.52917 -0.52916 v 0.52917 0.52916 h 1.05833 1.05833 v -0.52916 -0.52917 h 0.52917 0.52917 v 1.05833 1.05834 h 0.52916 0.52917 v -1.05834 -1.05833 h 0.52917 0.52916 v -0.52917 -0.52916 h 0.52917 0.52917 v 1.05833 1.05833 h 1.05833 1.05833 v -0.52916 -0.52917 h -0.52916 -0.52917 v -0.52917 -0.52916 h 0.52917 0.52916 v -0.52917 -0.52917 h 0.52917 0.52917 v 2.11667 2.11667 h 0.52916 0.52917 v -2.11667 -2.11667 h 0.52917 0.52916 v 0.52917 0.52917 h 0.52917 0.52917 v -1.05834 -1.05833 h 0.52916 0.52917 v 1.05833 1.05834 h 0.52916 0.52917 v -0.52917 -0.52917 h 0.52917 0.52916 v 1.05834 1.05833 h -0.52916 -0.52917 v 1.05833 1.05834 h 0.52917 0.52916 v -1.05834 -1.05833 h 0.52917 0.52917 v 0.52917 0.52916 h 1.5875 1.5875 v 0.52917 0.52917 h 0.52916 0.52917 v -1.05834 -1.05833 h -1.05833 -1.05834 v -1.05833 -1.05834 h 0.52917 0.52917 v 0.52917 0.52917 h 0.52916 0.52917 v -0.52917 -0.52917 h -0.52917 -0.52916 v -1.5875 -1.5875 h 0.52916 0.52917 v -0.52916 -0.52917 h -0.52917 -0.52916 v 0.52917 0.52916 h -0.52917 -0.52917 v -0.52916 -0.52917 h -0.52916 -0.52917 v -0.52917 -0.52916 h -1.05833 -1.05834 v 0.52916 0.52917 h -1.05833 -1.05833 v 1.05833 1.05834 h -0.52917 -0.52916 v 0.52916 0.52917 h -1.05834 -1.05833 v 0.52917 0.52916 h -0.52917 -0.52916 v -0.52916 -0.52917 h -0.52917 -0.52917 v -0.52917 -0.52916 h -0.52916 -0.52917 v -0.52917 -0.52917 h 1.05833 1.05834 v 0.52917 0.52917 h 1.05833 1.05833 v -0.52917 -0.52917 h 0.52917 0.52917 v -0.52916 -0.52917 h -0.52917 -0.52917 v -1.05833 -1.05834 h 0.52917 0.52917 v -0.52916 -0.52917 h 0.52916 0.52917 v -0.52917 -0.52916 h -0.52917 -0.52916 v -0.52917 -0.52917 h 1.05833 1.05833 v -1.5875 -1.5875 h 0.52917 0.52916 v 1.05834 1.05833 h 1.05834 1.05833 v -0.52917 -0.52916 h 0.52917 0.52916 v 0.52916 0.52917 h 0.52917 0.52917 v -1.05833 -1.05834 h 0.52916 0.52917 v 1.05834 1.05833 h 0.52917 0.52916 v -1.05833 -1.05834 h -0.52916 -0.52917 v -0.52916 -0.52917 h 0.52917 0.52916 v -0.52917 -0.52916 h -0.52916 -0.52917 v 0.52916 0.52917 h -0.52917 -0.52916 v 0.52917 0.52916 h -1.05834 -1.05833 v -0.52916 -0.52917 h 0.52917 0.52916 v -0.52917 -0.52916 h 0.52917 0.52917 v -0.52917 -0.52917 h 0.52916 0.52917 v -0.52916 -0.52917 h -0.52917 -0.52916 v -0.52917 -0.52916 h 1.5875 1.5875 v -1.5875 -1.5875 h -1.05834 -1.05833 v 0.52916 0.52917 h -1.05833 -1.05834 v -0.52917 -0.52916 h -0.52916 -0.52917 v -0.52917 -0.52917 h 1.05833 1.05834 v -1.05833 -1.05833 h 1.5875 1.5875 v 0.52916 0.52917 h 0.52916 0.52917 v 0.52917 0.52916 h 2.11667 2.11667 v -0.52916 -0.52917 h 0.52916 0.52917 v -0.52917 -0.52916 h -1.05833 -1.05834 v 0.52916 0.52917 h -0.52917 -0.52916 v -1.5875 -1.5875 h 0.52916 0.52917 v 0.52917 0.52916 h 0.52917 0.52917 v -0.52916 -0.52917 h -0.52917 -0.52917 v -1.05833 -1.05834 h 0.52917 0.52917 v 0.52917 0.52917 h 0.52916 0.52917 v -1.5875 -1.5875 h -1.05833 -1.05834 v 1.05833 1.05833 h -0.52917 -0.52916 v -0.52916 -0.52917 h -1.05834 -1.05833 v 0.52917 0.52916 h 0.52917 0.52916 v 0.52917 0.52917 h -0.52916 -0.52917 v 0.52916 0.52917 h 0.52917 0.52916 v 0.52917 0.52916 h -2.64583 -2.64583 v -0.52916 -0.52917 h -0.52917 -0.52917 v -0.52917 -0.52916 h -0.52916 -0.52917 v -1.05834 -1.05833 h 0.52917 0.52916 v 0.52917 0.52916 h 0.52917 0.52917 v -0.52916 -0.52917 h 0.52916 0.52917 v -1.05833 -1.05834 h -0.52917 -0.52916 v -0.52916 -0.52917 h 0.52916 0.52917 v -0.52917 -0.52916 h -0.52917 -0.52916 v 0.52916 0.52917 h -0.52917 -0.52917 v -0.52917 -0.52916 h -0.52916 -0.52917 v -0.52917 -0.52917 h 2.11667 2.11666 v -0.52916 -0.52917 h 1.05834 1.05833 v 0.52917 0.52916 h -0.52917 -0.52916 v 0.52917 0.52917 h -0.52917 -0.52917 v 2.64583 2.64583 h -0.52916 -0.52917 v 0.52917 0.52917 h 1.05833 1.05834 v -3.175 -3.175 h 0.52916 0.52917 v 0.52916 0.52917 h 0.52917 0.52916 v -0.52917 -0.52916 h 0.52917 0.52917 v 0.52916 0.52917 h 0.52916 0.52917 v -0.52917 -0.52916 h 0.52917 0.52917 v 1.05833 1.05833 h 0.52916 0.52917 v -1.5875 -1.5875 h -0.52917 -0.52916 v -0.52916 -0.52917 h 0.52916 0.52917 v -0.52917 -0.52916 h -0.52917 -0.52916 v -0.52917 -0.52917 h -0.52917 -0.52917 v 2.11667 2.11667 h -0.52917 -0.52916 v -0.52917 -0.52917 h -0.52917 -0.52917 v -0.52916 -0.52917 h 0.52917 0.52917 v -0.52917 -0.52916 h -0.52917 -0.52917 v -0.52917 -0.52917 h -0.52916 -0.52917 v 0.52917 0.52917 h -1.05833 -1.05834 v -0.52917 -0.52917 h -2.11666 -2.11667 v 0.52917 0.52917 h -0.52917 -0.52916 v 0.52916 0.52917 h -0.52917 -0.52917 v 0.52917 0.52916 h -0.52916 -0.52917 v 0.52917 0.52917 h -0.52917 -0.52916 v 0.52916 0.52917 h -0.52917 -0.52916 v -1.05833 -1.05834 h -0.52917 -0.52917 v 1.05834 1.05833 h -0.52916 -0.52917 v -0.52917 -0.52916 h -0.52917 -0.52916 v 1.05833 1.05833 h -1.05834 -1.05833 v 0.52917 0.52917 h 1.05833 1.05834 v -0.52917 -0.52917 h 1.05833 1.05833 v 0.52917 0.52917 h -0.52916 -0.52917 v 1.05833 1.05833 h -0.52917 -0.52916 v -0.52916 -0.52917 h -1.5875 -1.5875 v -0.52917 -0.52916 h -1.05834 -1.05833 v 0.52916 0.52917 h -1.05833 -1.05834 v -0.52917 -0.52916 h -1.05833 -1.05833 v 1.05833 1.05833 h -1.058339 -1.05833 v 0.52917 0.52917 h -1.05833 -1.05834 v -0.52917 -0.52917 h 0.52917 0.52917 v -0.52916 -0.52917 h 1.05833 1.05833 v -0.52917 -0.52916 h -0.52916 -0.52917 v -0.52917 -0.52917 h -1.05833 -1.05834 v 0.52917 0.52917 h -0.52916 -0.52917 v 0.52916 0.52917 h 0.52917 0.52916 v 0.52917 0.52916 h -1.05833 -1.05834 v -1.5875 -1.5875 h 0.52917 0.52917 v -0.52916 -0.52917 h 0.52917 0.52916 v -1.5875 -1.5875 h 0.52917 0.52917 v -0.52917 -0.52916 h 0.52916 0.52917 v -0.52917 -0.52917 h -0.52917 -0.52916 v 0.52917 0.52917 h -0.52917 -0.52917 v -0.52917 -0.52917 h -0.52916 -0.52917 v 0.52917 0.52917 h -0.52917 -0.52917 v 1.5875 1.5875 h -0.52916 -0.52917 v 2.11666 2.11667 h -1.5875 -1.5875 v -0.52917 -0.52916 h -0.52917 -0.52916 v 1.05833 1.05833 h 0.52916 0.52917 v 0.52917 0.52917 h -0.52917 -0.52916 v 0.52916 0.52917 h -0.52917 -0.52917 v -1.5875 -1.5875 h -0.66145 -0.66146 v 1.5875 1.5875 h 0.66146 0.66145 v 1.05833 1.05834 h 0.52917 0.52917 v -1.05834 -1.05833 h 0.52916 0.52917 v -0.52917 -0.52916 h 0.52917 0.52916 v 0.52916 0.52917 h 0.52917 0.52917 v -0.52917 -0.52916 h -0.52917 -0.52917 v -0.52917 -0.52917 h 1.5875 1.5875 v 0.52917 0.52917 h -0.52916 -0.52917 v 0.52916 0.52917 h 1.05833 1.05834 v 1.05833 1.05834 h -1.05834 -1.05833 v -0.52917 -0.52917 h -1.05833 -1.05834 v 0.52917 0.52917 h -0.52916 -0.52917 v 0.52916 0.52917 h 0.52917 0.52916 v 0.52917 0.52916 h -0.52916 -0.52917 v 0.52917 0.52917 h -0.52917 -0.52916 v 0.52916 0.52917 h -0.52917 -0.52917 v 0.52917 0.52916 h -0.66145 -0.66146 v 0.52917 0.52917 h 0.66146 0.66145 v 0.52916 0.52917 h -0.66145 -0.66146 v 1.05833 1.05834 h 0.66146 0.66145 v -1.05834 -1.05833 h 0.52917 0.52917 v 0.52917 0.52916 h 0.52916 0.52917 v 0.52917 0.52917 h -0.52917 -0.52916 v 1.05833 1.05833 h -1.19063 -1.19062 v 1.05834 1.05833 h 0.66146 0.66145 v 0.52917 0.52916 h -0.66145 -0.66146 v 1.5875 1.5875 h 0.66146 0.66145 v -1.05833 -1.05833 h 1.05834 1.05833 v 1.05833 1.05833 h -0.52917 -0.52916 v 0.52917 0.52917 h 1.5875 1.5875 v 0.52916 0.52917 h -1.05834 -1.05833 v 0.52917 0.52916 h 1.5875 1.5875 v 0.52917 0.52917 h 0.52917 0.52916 v 0.52916 0.52917 h -1.05833 -1.05833 v -0.52917 -0.52916 h -0.52917 -0.52917 v 0.52916 0.52917 h -0.52916 -0.52917 v -0.52917 -0.52916 h -1.05833 -1.05834 v -0.52917 -0.52917 h 0.52917 0.52917 v -0.52916 -0.52917 h -0.52917 -0.52917 v -0.52917 -0.52916 h -0.66145 -0.66146 v 0.52916 0.52917 h 0.66146 0.66145 v 0.52917 0.52916 h -0.66145 -0.66146 v 0.52917 0.52917 h 0.66146 0.66145 v 0.52916 0.52917 h 0.52917 0.52917 v 1.05833 1.05834 h -0.52917 -0.52917 v -0.52917 -0.52917 h -0.66145 -0.66146 v 1.5875 1.5875 h 1.19062 1.19063 v 1.19063 1.19062 z m 0.52916,-1.32291 h -1.05833 v -1.05834 -1.05833 h -0.52917 -0.52916 v -0.52917 -0.52916 h 0.52916 0.52917 v -0.52917 -0.52917 h 0.52917 0.52916 v -0.52916 -0.52917 h 0.52917 0.52917 v 0.52917 0.52916 h 0.52916 0.52917 v 1.05834 1.05833 h -1.05833 -1.05834 v 0.52917 0.52916 h 0.52917 0.52917 v 0.52917 0.52917 z m 0.52917,-3.175 h 0.52917 v -0.52917 -0.52917 h -0.52917 -0.52917 v 0.52917 0.52917 z m 26.458329,1.05833 h -0.52916 v -1.5875 -1.5875 h -1.5875 -1.5875 v -0.52917 -0.52916 h 0.52916 0.52917 v -0.52917 -0.52917 h 0.52917 0.52916 v -0.52916 -0.52917 h 1.05834 1.05833 v 0.52917 0.52916 h 0.52917 0.52916 v 0.52917 0.52917 h -0.52916 -0.52917 v 0.52916 0.52917 h 0.52917 0.52916 v 0.52917 0.52916 h -0.52916 -0.52917 v 1.05834 1.05833 z m -13.75833,0 h -0.52916 v -0.52917 -0.52916 h -0.52917 -0.52917 v -0.52917 -0.52917 h 0.52917 0.52917 v 0.52917 0.52917 h 0.52916 0.52917 v -2.11667 -2.11667 h 0.52917 0.52916 v -0.52916 -0.52917 h 0.52917 0.52917 v 0.52917 0.52916 h -0.52917 -0.52917 v 1.05834 1.05833 h 0.52917 0.52917 v -0.52917 -0.52916 h 0.52916 0.52917 v 0.52916 0.52917 h 0.52917 0.52916 v 0.52917 0.52916 h -0.52916 -0.52917 v 0.52917 0.52917 h -0.52917 -0.52916 v -0.52917 -0.52917 h -0.52917 -0.52917 v 0.52917 0.52917 h -0.52916 -0.52917 v 0.52916 0.52917 z m -5.291659,-1.05833 h -0.52917 v -1.05834 -1.05833 h 0.52917 0.52916 v 1.05833 1.05834 z m 4.233329,-4.23334 h -0.52917 v -0.52916 -0.52917 h 0.52917 0.52917 v 0.52917 0.52916 z m -9.524999,0 h -0.52917 v -0.52916 -0.52917 h 0.52917 0.52916 v 0.52917 0.52916 z m 15.874999,-1.05833 h -1.5875 v -0.52917 -0.52916 h -1.05833 -1.05834 v -0.52917 -0.52917 h 1.05834 1.05833 v -0.52916 -0.52917 h -1.05833 -1.05834 v -0.52917 -0.52916 h -0.52916 -0.52917 v 0.52916 0.52917 h -0.52917 -0.52916 v -0.52917 -0.52916 h -1.5875 -1.5875 v 1.05833 1.05833 h -2.116669 -2.11667 v 1.05834 1.05833 h -0.52916 -0.52917 v -1.05833 -1.05834 h -1.05834 -1.05833 v -0.52916 -0.52917 h -0.52917 -0.52916 v 0.52917 0.52916 h -0.52917 -0.52917 v -0.52916 -0.52917 h 0.52917 0.52917 v -0.52917 -0.52916 h -1.05834 -1.05833 v -1.05834 -1.05833 h -0.52917 -0.52916 v -1.05833 -1.05834 h 0.52916 0.52917 v -1.05833 -1.05833 h 0.52917 0.52916 v -0.52917 -0.52917 h -0.52916 -0.52917 v -0.52916 -0.52917 h -0.52917 -0.52916 v -1.5875 -1.5875 h 1.5875 1.5875 v -0.52917 -0.52916 h -0.52917 -0.52917 v -0.52917 -0.52917 h 0.52917 0.52917 v 0.52917 0.52917 h 0.52916 0.52917 v -1.05834 -1.05833 h -1.05833 -1.05834 v -0.52917 -0.52916 h 1.05834 1.05833 v 0.52916 0.52917 h 0.52917 0.52916 v 0.52917 0.52916 h 0.52917 0.52917 v -0.52916 -0.52917 h 1.5875 1.5875 v 0.52917 0.52916 h 0.52917 0.52916 v 0.52917 0.52917 h 1.058339 1.05833 v 0.52916 0.52917 h -0.52917 -0.52916 v 0.52917 0.52916 h 0.52916 0.52917 v 4.23334 4.23333 h -0.52917 -0.52916 v 0.52917 0.52916 h 1.5875 1.5875 v 0.52917 0.52917 h 0.52916 0.52917 v -0.52917 -0.52917 h 0.52917 0.52916 v 0.52917 0.52917 h 1.05834 1.05833 v -0.52917 -0.52917 h 1.05833 1.05834 v 0.52917 0.52917 h 0.52916 0.52917 v 0.52916 0.52917 h 0.52917 0.52916 v -0.52917 -0.52916 h 0.52917 0.52917 v 0.52916 0.52917 h -0.52917 -0.52917 v 0.52917 0.52916 h -0.52916 -0.52917 v 1.05834 1.05833 z m -0.52917,-1.05833 h 1.05834 v -0.52917 -0.52917 h 0.52916 0.52917 v -0.52916 -0.52917 h -1.05833 -1.05834 v -0.52917 -0.52916 h -0.52916 -0.52917 v 0.52916 0.52917 h 0.52917 0.52916 v 0.52917 0.52916 h -0.52916 -0.52917 v 0.52917 0.52917 z m -13.229159,-1.05834 h 0.52916 v -0.52916 -0.52917 h 1.5875 1.5875 v -0.52917 -0.52916 h -0.52916 -0.52917 v -0.52917 -0.52917 h -0.52917 -0.52916 v -0.52916 -0.52917 h 1.05833 1.05833 v -1.05833 -1.05834 h -0.52916 -0.52917 v 0.52917 0.52917 h -0.52917 -0.52916 v -0.52917 -0.52917 h -0.52917 -0.52917 v -1.05833 -1.05833 h 0.52917 0.52917 v 0.52916 0.52917 h 0.52916 0.52917 v -1.5875 -1.5875 h -0.52917 -0.52916 v 0.52917 0.52916 h -0.52917 -0.52917 v -0.52916 -0.52917 h -0.52916 -0.52917 v 0.52917 0.52916 h 0.52917 0.52916 v 0.52917 0.52917 h -1.05833 -1.05834 v 0.52916 0.52917 h 0.52917 0.52917 v 0.52917 0.52916 h 0.52917 0.52916 v 0.52917 0.52917 h -0.52916 -0.52917 v 0.52916 0.52917 h -0.52917 -0.52917 v 0.52917 0.52916 h 0.52917 0.52917 v -0.52916 -0.52917 h 0.52917 0.52916 v 1.05833 1.05834 h -1.5875 -1.5875 v 0.52916 0.52917 h 1.05833 1.05834 v 0.52917 0.52916 z m 1.05833,-4.23333 h -0.52917 v -0.52917 -0.52916 h 0.52917 0.52917 v 0.52916 0.52917 z m -5.29167,1.05833 h 0.52917 v -0.52916 -0.52917 h 0.52916 0.52917 v -0.52917 -0.52916 h 0.52917 0.52916 v -0.52917 -0.52917 h -0.52916 -0.52917 v -0.52916 -0.52917 h -0.52917 -0.52916 v -0.52917 -0.52916 h -0.52917 -0.52917 v 0.52916 0.52917 h 0.52917 0.52917 v 0.52917 0.52916 h -1.05834 -1.05833 v 0.52917 0.52917 h 1.05833 1.05834 v 0.52916 0.52917 h -0.52917 -0.52917 v 0.52917 0.52916 z m 8.46667,-5.29166 h 0.529169 v -1.05834 -1.05833 h -0.529169 -0.52917 v 1.05833 1.05834 z m -6.35,-1.05834 h 0.52916 v -0.52916 -0.52917 h -0.52916 -0.52917 v -1.05833 -1.05834 h -1.5875 -1.5875 v 1.05834 1.05833 h 0.52917 0.52916 v 0.52917 0.52916 h 0.52917 0.52917 v -0.52916 -0.52917 h 0.52916 0.52917 v 0.52917 0.52916 z m -2.11667,-1.05833 h -0.52917 v -0.52917 -0.52916 h 0.52917 0.52917 v 0.52916 0.52917 z m 7.9375,-1.05833 h 1.058339 v -0.52917 -0.52917 h -1.058339 -1.05833 v -0.52916 -0.52917 h 0.52917 0.52916 v -0.52917 -0.52916 h -0.52916 -0.52917 v -0.52917 -0.52917 h -0.52917 -0.52916 v 0.52917 0.52917 h -0.52917 -0.52917 v -0.52917 -0.52917 h -0.52916 -0.52917 v 0.52917 0.52917 h -0.52917 -0.52917 v 1.05833 1.05833 h 0.52917 0.52917 v -1.05833 -1.05833 h 0.52917 0.52916 v 0.52916 0.52917 h 0.52917 0.52917 v 0.52917 0.52916 h 0.52916 0.52917 v 0.52917 0.52917 z m -1.5875,-2.11667 h -0.52916 v -0.52917 -0.52916 h 0.52916 0.52917 v 0.52916 0.52917 z m 1.5875,15.875 h -1.05833 v -0.52917 -0.52916 h 1.05833 1.058339 v 0.52916 0.52917 z m 4.233339,-1.05833 h -1.05834 v -0.52917 -0.52917 h 1.05834 1.05833 v 0.52917 0.52917 z m 4.7625,-5.29167 h -5.82084 v -5.82083 -5.82084 h 5.82084 5.82083 v 5.82084 5.82083 z m 0,-1.05833 h 4.7625 v -4.7625 -4.7625 h -4.7625 -4.7625 v 4.7625 4.7625 z m 0,-1.05834 h -3.70417 v -3.70416 -3.70417 h 3.70417 3.70416 v 3.70417 3.70416 z m 0,-1.05833 h 2.64583 v -2.64583 -2.64584 h -2.64583 -2.64584 v 2.64584 2.64583 z m 0,-1.05833 h -1.5875 v -1.5875 -1.5875 h 1.5875 1.5875 v 1.5875 1.5875 z m 0,-1.05834 h 0.52916 v -0.52916 -0.52917 h -0.52916 -0.52917 v 0.52917 0.52916 z m 9.52499,4.23334 h -0.52916 v -0.52917 -0.52917 h -0.52917 -0.52917 v -0.52916 -0.52917 h 0.52917 0.52917 v -0.52917 -0.52916 h -0.52917 -0.52917 v -0.52917 -0.52917 h -0.52916 -0.52917 v -0.52916 -0.52917 h 0.52917 0.52916 v -1.05833 -1.05834 h 0.52917 0.52917 v -1.05833 -1.05833 h 0.52916 0.52917 v 1.5875 1.5875 h 0.52917 0.52916 v 0.52916 0.52917 h 0.52917 0.52917 v 0.52917 0.52916 h -0.52917 -0.52917 v 0.52917 0.52917 h -0.52916 -0.52917 v 0.52916 0.52917 h -0.52917 -0.52916 v 0.52917 0.52916 h 0.52916 0.52917 v 0.52917 0.52917 z m 1.05834,-4.23334 h 0.52916 v -0.52916 -0.52917 h -0.52916 -0.52917 v 0.52917 0.52916 z m -2.11667,0 h 0.52917 v -0.52916 -0.52917 h -0.52917 -0.52917 v 0.52917 0.52916 z m 5.29167,-3.175 h -0.52917 v -0.52916 -0.52917 h 0.52917 0.52916 v 0.52917 0.52916 z m -5.29167,-3.175 h -0.52917 v -1.05833 -1.05833 h -1.05833 -1.05833 v 0.52916 0.52917 h -1.05833 -1.05834 v -1.05833 -1.05834 h -1.05833 -1.05833 v -0.52916 -0.52917 h -0.52917 -0.52917 v 0.52917 0.52916 h -1.5875 -1.5875 v 0.52917 0.52917 h 1.5875 1.5875 v 0.52916 0.52917 h -2.64583 -2.64583 v -1.05833 -1.05834 h -1.05834 -1.05833 v 0.52917 0.52917 h 0.52917 0.52916 v 0.52916 0.52917 h -0.52916 -0.52917 v -0.52917 -0.52916 h -0.52917 -0.52916 v 0.52916 0.52917 h -0.529169 -0.52917 v -0.52917 -0.52916 h -1.5875 -1.5875 v -1.05834 -1.05833 h -0.52916 -0.52917 v -0.52917 -0.52916 h 0.52917 0.52916 v 0.52916 0.52917 h 0.52917 0.52917 v 0.52917 0.52916 h 1.5875 1.587499 v -1.5875 -1.5875 h 0.52916 0.52917 v -0.52916 -0.52917 h 0.52917 0.52916 v 0.52917 0.52916 h 1.5875 1.5875 v -0.52916 -0.52917 h 0.52917 0.52917 v 0.52917 0.52916 h -0.52917 -0.52917 v 0.52917 0.52917 h -1.05833 -1.05833 v 1.05833 1.05833 h 1.05833 1.05833 v -0.52916 -0.52917 h 1.5875 1.5875 v -0.52917 -0.52916 h -0.52916 -0.52917 v -0.52917 -0.52917 h 0.52917 0.52916 v 0.52917 0.52917 h 0.52917 0.52917 v 0.52916 0.52917 h 0.52916 0.52917 v -0.52917 -0.52916 h 0.52917 0.52916 v -1.5875 -1.5875 h 0.52917 0.52917 v -0.52917 -0.52917 h 1.58749 1.5875 v -0.52916 -0.52917 h -0.52916 -0.52917 v -0.52917 -0.52916 h 0.52917 0.52916 v 0.52916 0.52917 h 0.52917 0.52917 v -0.52917 -0.52916 h 0.52916 0.52917 v 0.52916 0.52917 h -0.52917 -0.52916 v 0.52917 0.52916 h 1.05833 1.05833 v 0.52917 0.52917 h 0.52917 0.52917 v 0.52916 0.52917 h -0.52917 -0.52917 v -0.52917 -0.52916 h -1.05833 -1.05833 v -0.52917 -0.52917 h -0.52917 -0.52917 v 1.05834 1.05833 h 0.52917 0.52917 v 0.52917 0.52916 h -0.52917 -0.52917 v 0.52917 0.52917 h 0.52917 0.52917 v 1.05833 1.05833 h -0.52917 -0.52917 v 0.52917 0.52917 h 1.05834 1.05833 v 0.52916 0.52917 h -0.52917 -0.52916 v 0.52917 0.52916 z m -1.05833,-3.175 h 0.52916 v -1.05833 -1.05833 h -0.52916 -0.52917 v 1.05833 1.05833 z m -2.11667,-1.05833 h 0.52917 v -0.52917 -0.52916 h -0.52917 -0.52916 v 0.52916 0.52917 z m -11.64166,0 h 0.52916 v -0.52917 -0.52916 h -0.52916 -0.52917 v 0.52916 0.52917 z m 12.69999,-2.11667 h 1.5875 v -0.52916 -0.52917 h -0.52916 -0.52917 v -0.52917 -0.52916 h -1.05833 -1.05833 v 1.05833 1.05833 z m 10.58334,5.29167 h -0.52917 v -0.52917 -0.52916 h 0.52917 0.52916 v 0.52916 0.52917 z m -14.81667,0 h -0.52916 v -0.52917 -0.52916 h 0.52916 0.52917 v 0.52916 0.52917 z m 15.875,-3.175 h -0.52917 v -0.52917 -0.52916 h 0.52917 0.52917 v 0.52916 0.52917 z m -27.516659,0 h -0.52917 v -0.52917 -0.52916 h 0.52917 0.52916 v 0.52916 0.52917 z m -2.11667,-3.175 h -0.52917 v -0.52917 -0.52916 h 0.52917 0.52917 v 0.52916 0.52917 z m -2.11667,-3.175 h -0.52917 v -0.52917 -0.52916 h 0.52917 0.52917 v 0.52916 0.52917 z m 30.691669,-1.05833 h -0.52917 v -0.52917 -0.52917 h 0.52917 0.52916 v 0.52917 0.52917 z m -7.40834,-1.05834 h -0.52916 v -0.52916 -0.52917 h 0.52916 0.52917 v -0.52917 -0.52916 h 0.52917 0.52916 v 0.52916 0.52917 h -0.52916 -0.52917 v 0.52917 0.52916 z m 7.40834,-1.05833 h -0.52917 v -0.52917 -0.52916 h 0.52917 0.52916 v 0.52916 0.52917 z m -3.175,0 h -0.52917 v -0.52917 -0.52916 h 0.52917 0.52916 v 0.52916 0.52917 z m -26.458329,0 h -0.52917 v -0.52917 -0.52916 h 0.52917 0.52916 v 0.52916 0.52917 z m 27.516659,39.15833 h 0.52917 v -0.52916 -0.52917 h -0.52917 -0.52917 v 0.52917 0.52916 z m -10.58333,0 h 0.52917 v -0.52916 -0.52917 h -0.52917 -0.52917 v 0.52917 0.52916 z m 8.46666,-8.46666 h 0.52917 v -1.05834 -1.05833 h -0.52917 -0.52916 v 1.05833 1.05834 z m -3.70416,-1.05834 h 1.05833 v -1.5875 -1.5875 h -1.05833 -1.05834 v 0.52917 0.52917 h -0.52916 -0.52917 v 0.52916 0.52917 h 0.52917 0.52916 v 0.52917 0.52916 z m -0.52917,-1.05833 h -0.52917 v -0.52917 -0.52916 h 0.52917 0.52917 v 0.52916 0.52917 z m 7.9375,0 h 1.05833 v -0.52917 -0.52916 h 0.52917 0.52917 v -0.52917 -0.52917 h 0.52916 0.52917 v -0.52916 -0.52917 h 1.05834 1.05833 v -1.05833 -1.05834 h -1.05833 -1.05834 v -0.52916 -0.52917 h 0.52917 0.52917 v -1.05833 -1.05834 h 0.52916 0.52917 v -1.05833 -1.05833 h -1.05833 -1.05834 v -0.52917 -0.52917 h 1.05834 1.05833 v -1.05833 -1.05833 h -0.52917 -0.52916 v 0.52916 0.52917 h -0.52917 -0.52917 v -0.52917 -0.52916 h -0.52917 -0.52916 v 1.5875 1.5875 h 0.52916 0.52917 v 0.52916 0.52917 h -0.52917 -0.52916 v 0.52917 0.52916 h -0.52917 -0.52917 v -0.52916 -0.52917 h -0.52916 -0.52917 v 0.52917 0.52916 h 0.52917 0.52916 v 0.52917 0.52917 h -0.52916 -0.52917 v 0.52916 0.52917 h -0.52917 -0.52916 v 0.52917 0.52916 h 0.52916 0.52917 v 0.52917 0.52917 h -0.52917 -0.52916 v 0.52916 0.52917 h 0.52916 0.52917 v 0.52917 0.52916 h 0.52917 0.52916 v 0.52917 0.52917 h -1.05833 -1.05833 v 0.52916 0.52917 z m 1.5875,-2.11667 h -0.52917 v -0.52916 -0.52917 h -0.52916 -0.52917 v -0.52917 -0.52916 h 0.52917 0.52916 v -0.52917 -0.52917 h -0.52916 -0.52917 v -0.52916 -0.52917 h 0.52917 0.52916 v 0.52917 0.52916 h 1.05834 1.05833 v 0.52917 0.52917 h -0.52917 -0.52916 v 1.05833 1.05833 z m 1.05833,-4.23333 h -0.52916 v -1.05833 -1.05834 h 0.52916 0.52917 v -0.52916 -0.52917 h 0.52917 0.52917 v 0.52917 0.52916 h -0.52917 -0.52917 v 1.05834 1.05833 z m -4.23333,-2.11667 h 0.52917 v -0.52916 -0.52917 h -0.52917 -0.52917 v 0.52917 0.52916 z m 2.11667,-2.11666 h 0.52916 v -0.52917 -0.52917 h -0.52916 -0.52917 v 0.52917 0.52917 z m 0,-2.11667 h 0.52916 v -0.52917 -0.52916 h -0.52916 -0.52917 v 0.52916 0.52917 z m -38.232289,-2.11667 h 0.66145 v -0.52916 -0.52917 h -0.66145 -0.66146 v 0.52917 0.52916 z m 38.761449,-8.46666 h 1.05834 v -0.52917 -0.52917 h -1.05834 -1.05833 v 0.52917 0.52917 z m -34.395829,0 h 0.52917 v -0.52917 -0.52917 h -0.52917 -0.52917 v -0.52916 -0.52917 h 0.52917 0.52917 v -0.52917 -0.52916 h -0.52917 -0.52917 v -0.52917 -0.52917 h 0.52917 0.52917 v -0.52916 -0.52917 h 0.52916 0.52917 v -1.05833 -1.05834 h -1.5875 -1.5875 v 0.52917 0.52917 h -0.52917 -0.52916 v 0.52916 0.52917 h -0.52917 -0.52917 v -0.52917 -0.52916 h -0.66145 -0.66146 v 0.52916 0.52917 h 0.66146 0.66145 v 0.52917 0.52916 h 0.52917 0.52917 v -0.52916 -0.52917 h 0.52916 0.52917 v 1.05833 1.05834 h -0.52917 -0.52916 v 0.52916 0.52917 h -0.52917 -0.52917 v -0.52917 -0.52916 h -0.66145 -0.66146 v 0.52916 0.52917 h 0.66146 0.66145 v 0.52917 0.52916 h 0.52917 0.52917 v -0.52916 -0.52917 h 0.52916 0.52917 v 0.52917 0.52916 h 0.52917 0.52916 v 0.52917 0.52917 z m -1.05833,-2.11667 h -0.52917 v -0.52917 -0.52916 h 0.52917 0.52916 v 0.52916 0.52917 z m 1.05833,-3.175 h -0.52917 v -0.52917 -0.52916 h 0.52917 0.52917 v 0.52916 0.52917 z m 14.816669,4.23333 h 0.52917 v -1.05833 -1.05833 h 0.52916 0.52917 v 0.52916 0.52917 h 0.52917 0.52916 v -0.52917 -0.52916 h -0.52916 -0.52917 v -0.52917 -0.52917 h 0.52917 0.52916 v -0.52916 -0.52917 h -0.52916 -0.52917 v -0.52917 -0.52916 h 0.52917 0.52916 v -0.52917 -0.52917 h -1.5875 -1.5875 v 3.175 3.175 z m 1.05833,-3.175 h -0.52916 v -0.52916 -0.52917 h 0.52916 0.52917 v 0.52917 0.52916 z m -3.175,3.175 h 0.52917 v -1.5875 -1.5875 h -1.05833 -1.05834 v -0.52916 -0.52917 h 1.05834 1.05833 v -1.05833 -1.05834 h -0.52917 -0.52916 v 0.52917 0.52917 h -0.52917 -0.52917 v -0.52917 -0.52917 h -0.52916 -0.52917 v 0.52917 0.52917 h -0.52917 -0.52916 v -0.52917 -0.52917 h -0.529169 -0.52917 v 0.52917 0.52917 h 0.52917 0.529169 v 0.52916 0.52917 h -1.058339 -1.05833 v 0.52917 0.52916 h -0.52917 -0.52916 v 1.05834 1.05833 h 0.52916 0.52917 v -0.52917 -0.52916 h 0.52917 0.52916 v 1.05833 1.05833 h 0.52917 0.529169 v -1.05833 -1.05833 h 0.52916 0.52917 v 1.05833 1.05833 h 0.52917 0.52916 v -1.05833 -1.05833 h 0.52917 0.52917 v 1.05833 1.05833 z m -2.11666,-2.11666 h -0.52917 v -0.52917 -0.52917 h -0.52917 -0.52916 v 0.52917 0.52917 h -0.529169 -0.52917 v -0.52917 -0.52917 h 0.52917 0.529169 v -0.52916 -0.52917 h 0.52916 0.52917 v 0.52917 0.52916 h 0.52917 0.52916 v 0.52917 0.52917 z m 11.64166,-2.11667 h 0.52917 v -1.05833 -1.05834 h -0.52917 -0.52916 v 1.05834 1.05833 z m -3.175,0 h 0.52917 v -0.52917 -0.52916 h 0.52917 0.52916 v -0.52917 -0.52917 h -0.52916 -0.52917 v 0.52917 0.52917 h -0.52917 -0.52916 v 0.52916 0.52917 z m 5.29167,-1.05833 h 0.52916 v -0.52917 -0.52917 h -0.52916 -0.52917 v 0.52917 0.52917 z"
       id="path852" />
  </g>
</svg>
