<?xml version="1.0" encoding="UTF-8" standalone="no"?>
<svg
   xmlns:dc="http://purl.org/dc/elements/1.1/"
   xmlns:cc="http://creativecommons.org/ns#"
   xmlns:rdf="http://www.w3.org/1999/02/22-rdf-syntax-ns#"
   xmlns:svg="http://www.w3.org/2000/svg"
   xmlns="http://www.w3.org/2000/svg"
   xmlns:sodipodi="http://sodipodi.sourceforge.net/DTD/sodipodi-0.dtd"
   xmlns:inkscape="http://www.inkscape.org/namespaces/inkscape"
   sodipodi:docname="sr-71_angledView.svg"
   inkscape:version="1.1-dev (f9311a1, 2019-12-25)"
   id="svg173"
   version="1.1"
   viewBox="0 0 210 297"
   height="297mm"
   width="210mm">
  <defs
     id="defs167" />
  <sodipodi:namedview
     inkscape:window-maximized="0"
     inkscape:window-y="23"
     inkscape:window-x="0"
     inkscape:window-height="698"
     inkscape:window-width="1280"
     showgrid="false"
     inkscape:document-rotation="0"
     inkscape:current-layer="layer1"
     inkscape:document-units="mm"
     inkscape:cy="505.45176"
     inkscape:cx="450.50763"
     inkscape:zoom="0.49497475"
     inkscape:pageshadow="2"
     inkscape:pageopacity="0.0"
     borderopacity="1.0"
     bordercolor="#666666"
     pagecolor="#ffffff"
     id="base" />
  <metadata
     id="metadata170">
    <rdf:RDF>
      <cc:Work
         rdf:about="">
        <dc:format>image/svg+xml</dc:format>
        <dc:type
           rdf:resource="http://purl.org/dc/dcmitype/StillImage" />
        <dc:title></dc:title>
      </cc:Work>
    </rdf:RDF>
  </metadata>
  <g
     id="layer1"
     inkscape:groupmode="layer"
     inkscape:label="Layer 1">
    <g
       id="g210">
      <path
         sodipodi:nodetypes="cssccsc"
         inkscape:connector-curvature="0"
         id="path3085"
         d="m 80.225833,131.74323 c 0.23019,-0.0883 0.41852,-0.45335 0.41852,-0.81115 0,-0.3578 0.12871,-0.89104 0.28602,-1.18498 0.15731,-0.29394 0.22482,-0.59563 0.15002,-0.67043 -0.30769,-0.30768 -2.05213,0.53666 -2.54826,1.2334 -0.80707,1.13344 -0.69998,1.59376 0.37079,1.59376 0.49742,0 1.09273,-0.0723 1.32291,-0.1606 z"
         style="fill:#000000;stroke-width:0.264583" />
      <path
         sodipodi:nodetypes="cscccc"
         inkscape:connector-curvature="0"
         id="path3083"
         d="m 79.582753,132.74058 c -0.32363,-0.10787 -2.1134,0.18737 -2.1134,0.34863 0,0.0567 0.1234,0.42764 0.27421,0.82433 l 0.27422,0.72125 0.92734,-0.89882 c 0.51004,-0.49435 0.79697,-0.94227 0.63763,-0.99539 z"
         style="fill:#000000;stroke-width:0.264583" />
      <path
         sodipodi:nodetypes="cscccc"
         inkscape:connector-curvature="0"
         id="path3081"
         d="m 84.669663,134.64275 c 0.93171,-0.64567 0.99868,-0.77543 0.8535,-1.65364 -0.27271,-1.64966 -0.30841,-1.69523 -0.96693,-1.23399 -0.32452,0.22731 -0.83144,0.41511 -1.12648,0.41734 -1.04087,0.008 -1.23929,0.3505 -1.04614,1.80653 0.21618,1.62968 0.69261,1.76801 2.28605,0.66376 z"
         style="fill:#000000;stroke-width:0.264583" />
      <path
         sodipodi:nodetypes="ccccc"
         inkscape:connector-curvature="0"
         id="path3079"
         d="m 81.288123,134.61585 c -0.10033,-0.69122 -0.22668,-1.30637 -0.28079,-1.367 -0.11348,-0.12715 -1.9229,1.87155 -1.93947,2.14235 -0.0116,0.19038 0.77251,0.38538 1.79114,0.44539 0.58181,0.0343 0.60266,-0.025 0.42912,-1.22074 z"
         style="fill:#000000;stroke-width:0.264583" />
      <path
         sodipodi:nodetypes="ccsccccccccccccccccssccccccsccccccsccccccsccccscccccccscccccscccccscccscccscc"
         inkscape:connector-curvature="0"
         id="path3077"
         d="m 59.089323,152.9772 c -0.44671,-0.32665 -0.47545,-0.64461 -0.32886,-3.63802 0.23777,-4.85508 1.2849,-9.36382 3.10204,-13.35677 1.80735,-3.97143 5.83876,-9.49613 9.11307,-12.48867 2.14821,-1.96334 7.50899,-5.44111 14.61317,-9.48021 3.46152,-1.96805 6.31969,-3.60429 6.35149,-3.63609 0.15755,-0.15756 -1.83632,-7.77048 -2.16752,-8.27596 -0.56275,-0.85887 -1.34297,-1.0046 -2.46319,-0.46007 -1.40698,0.68394 -4.48835,0.81065 -5.60986,0.23069 -0.65151,-0.3369 -1.20383,-0.40868 -2.16431,-0.28127 -0.70927,0.0941 -1.39758,0.10432 -1.52958,0.0227 -0.13554,-0.0838 -0.0765,-0.53969 0.13567,-1.04746 0.21665,-0.51853 0.36147,-1.668705 0.34211,-2.717145 -0.0185,-0.99991 0.10297,-2.07315 0.26986,-2.38499 0.16689,-0.31183 0.3046,-1.25941 0.30602,-2.10572 0.005,-2.7411 1.89307,-5.49758 4.97104,-7.25594 0.60925,-0.34805 1.10864,-0.72049 1.10976,-0.82767 0.001,-0.10717 -0.48022,-1.47639 -1.06965,-3.0427 -0.88349,-2.34774 -1.0995,-3.29938 -1.23008,-5.41904 -0.22134,-3.59324 0.19787,-4.0112 2.69166,-2.68365 1.23477,0.65732 7.48197,4.78667 11.69648,7.7313 1.80252,1.2594 1.94984,1.31366 2.873687,1.05858 1.01387,-0.27994 4.194,-0.20473 4.88369,0.1155 0.26676,0.12386 2.0883,-1.03142 5.55625,-3.52395 4.64698,-3.33995 6.6219,-4.44568 7.44832,-4.17021 0.14589,0.0486 -1.32148,1.39102 -3.26081,2.98309 -1.93933,1.59208 -4.12137,3.50146 -4.84897,4.24307 -0.72761,0.7416 -1.59936,1.53674 -1.93722,1.76696 -0.57481,0.39168 -0.59373,0.48725 -0.29431,1.48663 0.26951,0.89956 0.24792,1.29002 -0.13689,2.47533 -0.25128,0.77401 -0.70712,1.81533 -1.01299,2.31403 -0.30586,0.49871 -0.41583,0.82004 -0.24437,0.71408 0.4014,-0.24808 3.49893,0.86217 6.53619,2.34278 2.37394,1.15724 6.30578,3.67287 8.07688,5.16766 0.84029,0.7092 1.02439,0.76138 1.85034,0.5245 1.57142,-0.45068 3.284,-0.3251 4.07739,0.29899 0.65491,0.515145 0.70874,0.697245 0.64531,2.182805 l -0.0692,1.62078 4.08674,3.51739 c 2.2477,1.93457 4.47825,3.83486 4.95677,4.22286 0.47853,0.388 1.1794,1.39479 1.55749,2.23729 0.37809,0.84251 0.74155,1.53183 0.80769,1.53183 0.0661,0 0.60641,-0.41614 1.20062,-0.92475 0.5942,-0.50862 1.67866,-1.14795 2.40991,-1.42073 l 1.32955,-0.49596 2.52694,-6.33013 c 2.35262,-5.893465 3.29392,-7.761755 3.9106,-7.761755 0.13705,0 -0.15287,1.39898 -0.64426,3.108845 -0.4914,1.70987 -1.40515,4.98137 -2.03055,7.26999 l -1.13711,4.16113 0.61017,0.57322 c 1.01932,0.95761 1.51009,2.91389 1.35493,5.40097 l -0.1358,2.17665 1.18557,0.1625 c 1.28089,0.17556 3.24578,1.44125 9.73213,6.26897 2.37048,1.76432 3.62104,2.88378 4.02337,3.60158 1.55616,2.77637 -0.81101,3.34087 -8.66275,2.06582 -2.25053,-0.36546 -4.69089,-0.79529 -5.42301,-0.95518 l -1.33114,-0.2907 -1.64803,1.61259 c -2.39872,2.34715 -4.40081,3.24338 -8.08596,3.61967 -1.0995,0.11227 -2.24482,0.42429 -2.91042,0.79289 -1.51039,0.83645 -2.77754,1.01835 -4.4643,0.64087 -1.01718,-0.22763 -1.78992,-0.24472 -2.66138,-0.0589 -0.67541,0.14405 -1.28305,0.20689 -1.3503,0.13964 -0.0672,-0.0673 0.0411,-0.66516 0.24081,-1.32869 0.31461,-1.04535 0.30991,-1.30924 -0.0352,-1.97661 -0.52861,-1.02222 -0.52253,-3.11013 0.0121,-4.14391 0.31817,-0.61528 0.35919,-0.96395 0.15769,-1.34045 -0.30923,-0.57781 -0.65932,-0.70963 -2.52185,-0.94954 -0.7276,-0.0937 -2.91987,-0.45769 -4.87171,-0.80882 -1.95184,-0.35113 -3.73778,-0.63612 -3.96875,-0.63331 -0.50356,0.006 -3.83231,3.00455 -10.00525,9.0124 -2.50701,2.43997 -5.24545,4.96127 -6.085407,5.60289 -6.07478,4.6403 -15.67316,8.63874 -24.94284,10.39055 -5.9489,1.12424 -14.44094,1.57706 -15.46961,0.82488 z"
         style="fill:none;stroke:#000000;stroke-width:0.264583;stroke-opacity:1" />
    </g>
  </g>
</svg>
