<?xml version="1.0" encoding="UTF-8" standalone="no"?>
<svg
   xmlns:dc="http://purl.org/dc/elements/1.1/"
   xmlns:cc="http://creativecommons.org/ns#"
   xmlns:rdf="http://www.w3.org/1999/02/22-rdf-syntax-ns#"
   xmlns:svg="http://www.w3.org/2000/svg"
   xmlns="http://www.w3.org/2000/svg"
   xmlns:sodipodi="http://sodipodi.sourceforge.net/DTD/sodipodi-0.dtd"
   xmlns:inkscape="http://www.inkscape.org/namespaces/inkscape"
   sodipodi:docname="sr71_symetricView_smaller.svg"
   inkscape:version="0.92.3 (2405546, 2018-03-11)"
   id="svg102"
   version="1.1"
   viewBox="0 0 210 297"
   height="297mm"
   width="210mm">
  <sodipodi:namedview
     inkscape:window-maximized="1"
     inkscape:window-y="27"
     inkscape:window-x="1987"
     inkscape:window-height="1145"
     inkscape:window-width="1853"
     showgrid="false"
     inkscape:document-rotation="0"
     inkscape:current-layer="g1735"
     inkscape:document-units="mm"
     inkscape:cy="731.13566"
     inkscape:cx="317.37391"
     inkscape:zoom="2.8284271"
     inkscape:pageshadow="2"
     inkscape:pageopacity="0.0"
     borderopacity="1.0"
     bordercolor="#666666"
     pagecolor="#ffffff"
     id="base"
     inkscape:measure-start="425.325,871.156"
     inkscape:measure-end="372.437,675.187"
     showguides="true"
     inkscape:snap-global="false" />
  <defs
     id="defs96" />
  <metadata
     id="metadata99">
    <rdf:RDF>
      <cc:Work
         rdf:about="">
        <dc:format>image/svg+xml</dc:format>
        <dc:type
           rdf:resource="http://purl.org/dc/dcmitype/StillImage" />
        <dc:title />
      </cc:Work>
    </rdf:RDF>
  </metadata>
  <g
     inkscape:groupmode="layer"
     id="g1631"
     inkscape:label="Edge.Cuts"
     style="display:inline">
    <path
       style="display:inline;fill:none;fill-opacity:1;stroke:#000000;stroke-width:0.49511811;stroke-miterlimit:4;stroke-dasharray:none;stroke-opacity:1"
       d="m 286.80664,300.54102 -11.85156,0.20898 -10.45313,1.49609 -9.99414,2.49024 -9.4414,3.43359 -8.79493,4.32422 -8.05468,5.16016 -7.21875,5.94531 -6.29297,6.67773 -5.27149,7.35743 -2.89453,5.27734 -2.32226,5.46289 -1.70508,5.53906 -1.05078,5.50391 -0.66016,4.9375 -0.2539,1.82031 -1.51563,0.0859 -4.30078,0.46875 -4.65625,0.90234 -9.0918,2.81055 -6.96289,3.38086 -6.44726,4.48437 -3.58008,3.17188 -3.10938,3.39648 -2.6289,3.59375 -2.13477,3.77344 -1.63086,3.92969 -1.11719,4.06055 -0.59179,4.17382 -0.0547,4.26368 0.44922,4.30468 0.93945,3.96485 1.50781,3.86718 2.15039,4.01758 2.89649,4.23633 3.38476,3.85156 3.85938,3.45703 4.31641,3.05664 4.76367,2.64649 5.19336,2.22461 5.60937,1.79492 6.01172,1.35742 3.70898,0.67969 79.37305,0.15234 114.79883,0.23438 38.45508,-0.25 4.16797,-0.66016 3.93554,-1.0293 3.67969,-1.36914 3.4043,-1.67968 3.11133,-1.96289 2.79687,-2.2168 2.46484,-2.44336 2.10938,-2.64258 1.73828,-2.81445 1.34375,-2.95508 0.92969,-3.06836 0.49805,-3.15625 0.0449,-3.21289 -0.42774,-3.24414 -0.91992,-3.24414 -1.43164,-3.21875 -1.82031,-2.90039 -2.26563,-2.71484 -2.66406,-2.50196 -3.01172,-2.25 -3.30664,-1.96875 -3.55469,-1.65234 -3.75,-1.30078 -3.89453,-0.91797 -2.69922,-0.48828 0.23829,-1.25 0.5,-5.4043 -0.24219,-5.40625 -0.73438,-3.77539 -1.10937,-3.64453 -1.46485,-3.50391 -1.81054,-3.34961 -4.58399,-6.18554 -5.76953,-5.41993 -6.83398,-4.55859 -7.77149,-3.59766 -8.58594,-2.54101 -9.27929,-1.38477 -4.52539,-0.24023 -4.25977,0.11328 -11.11914,1.54102 -0.93945,-0.16016 -0.91211,-1.5918 -3.47852,-5.95312 -4.48242,-6.16407 -5.03906,-5.46093 -5.66211,-4.98438 -6.23633,-4.48242 -6.75781,-3.95117 -7.22852,-3.39258 -7.64843,-2.80859 -8.01563,-2.19922 -8.33398,-1.56055 -11.72849,-0.79683"
       transform="scale(0.26458333)"
       id="path1639"
       inkscape:connector-curvature="0" />
  </g>
  <g
     id="g1735"
     inkscape:label="Cu"
     style="display:inline"
     inkscape:groupmode="layer">
    <path
       inkscape:connector-curvature="0"
       id="path1181"
       transform="scale(0.26458333)"
       d="m 286.80664,300.54102 -11.85156,0.20898 -10.45313,1.49609 -9.99414,2.49024 -9.4414,3.43359 -8.79493,4.32422 -8.05468,5.16016 -7.21875,5.94531 -6.29297,6.67773 -5.27149,7.35743 -2.89453,5.27734 -2.32226,5.46289 -1.70508,5.53906 -1.05078,5.50391 -0.66016,4.9375 -0.2539,1.82031 -1.51563,0.0859 -4.30078,0.46875 -4.65625,0.90234 -9.0918,2.81055 -6.96289,3.38086 -6.44726,4.48437 -3.58008,3.17188 -3.10938,3.39648 -2.6289,3.59375 -2.13477,3.77344 -1.63086,3.92969 -1.11719,4.06055 -0.59179,4.17382 -0.0547,4.26368 0.44922,4.30468 0.93945,3.96485 1.50781,3.86718 2.15039,4.01758 2.89649,4.23633 3.38476,3.85156 3.85938,3.45703 4.31641,3.05664 4.76367,2.64649 5.19336,2.22461 5.60937,1.79492 6.01172,1.35742 3.70898,0.67969 79.37305,0.15234 114.79883,0.23438 38.45508,-0.25 4.16797,-0.66016 3.93554,-1.0293 3.67969,-1.36914 3.4043,-1.67968 3.11133,-1.96289 2.79687,-2.2168 2.46484,-2.44336 2.10938,-2.64258 1.73828,-2.81445 1.34375,-2.95508 0.92969,-3.06836 0.49805,-3.15625 0.0449,-3.21289 -0.42774,-3.24414 -0.91992,-3.24414 -1.43164,-3.21875 -1.82031,-2.90039 -2.26563,-2.71484 -2.66406,-2.50196 -3.01172,-2.25 -3.30664,-1.96875 -3.55469,-1.65234 -3.75,-1.30078 -3.89453,-0.91797 -2.69922,-0.48828 0.23829,-1.25 0.5,-5.4043 -0.24219,-5.40625 -0.73438,-3.77539 -1.10937,-3.64453 -1.46485,-3.50391 -1.81054,-3.34961 -4.58399,-6.18554 -5.76953,-5.41993 -6.83398,-4.55859 -7.77149,-3.59766 -8.58594,-2.54101 -9.27929,-1.38477 -4.52539,-0.24023 -4.25977,0.11328 -11.11914,1.54102 -0.93945,-0.16016 -0.91211,-1.5918 -3.47852,-5.95312 -4.48242,-6.16407 -5.03906,-5.46093 -5.66211,-4.98438 -6.23633,-4.48242 -6.75781,-3.95117 -7.22852,-3.39258 -7.64843,-2.80859 -8.01563,-2.19922 -8.33398,-1.56055 -11.72849,-0.79683 m -74.83984,76.4375 1.23047,0.0508 1.19335,0.17578 1.15821,0.30078 1.11328,0.42187 1.06445,0.54297 1.01367,0.66211 0.95508,0.77735 0.89258,0.89453 0.75977,0.9414 0.65429,1.03321 0.54493,1.10742 0.43164,1.1543 0.31054,1.1875 0.18164,1.19921 0.0469,1.1875 -0.0937,1.15821 -0.23438,1.19531 -0.33593,1.13672 -0.4375,1.07812 -0.53125,1.01368 -0.61915,0.94531 -0.70117,0.87109 -0.77734,0.79297 -0.84766,0.71094 -0.91211,0.625 -0.9707,0.53515 -1.02344,0.4375 -1.07031,0.33789 -1.11328,0.23438 -1.14649,0.12695 -1.17773,0.0156 -1.20312,-0.10547 -1.32032,-0.27539 -1.29883,-0.45703 -1.25195,-0.61914 -1.18164,-0.76563 -1.08789,-0.89258 -0.9668,-1.0039 -0.82617,-1.09766 -0.66015,-1.17187 -0.6504,-1.63477 -0.40234,-1.60937 -0.1543,-1.58204 0.0957,-1.55468 0.41992,-1.96485 0.6875,-1.72851 1.00391,-1.5918 1.37109,-1.55273 0.77539,-0.71289 0.79883,-0.61915 0.82812,-0.52734 0.86719,-0.43945 0.90625,-0.35352 0.95313,-0.26953 2.07031,-0.29687 0.66791,-0.0254 m 134.68359,0.0391 3.1543,0.37304 2.53906,1.08594 2.20508,1.66992 2.0332,2.54493 1.22852,3.01171 0.28711,3.0918 -0.55664,3.05664 -1.26954,2.70703 -1.95507,2.25196 -2.25586,1.61328 -2.28907,0.95117 -2.94531,0.35156 -3.35742,-0.33789 -2.41016,-1.08008 -2.28906,-1.68554 -1.63086,-1.95508 -1.2832,-2.5 -0.56445,-2.57813 0.0371,-2.84765 0.6543,-2.48438 1.3086,-2.47265 1.73828,-1.89063 2.44531,-1.68945 2.1543,-0.8711 3.02148,-0.3164 m -61.7793,8.86719 0.40821,0.61718 1.73242,2.44532 1.11133,1.67578 0.17383,0.5 0.0371,0.52343 -0.17578,1.16797 -0.43359,1.21094 -0.55469,0.94727 -0.53515,0.38281 -3.17969,-2.96289 -2.95703,-2.96289 1.18359,-1.21875 1.5332,-1.33008 1.00196,-0.55274 0.65429,-0.44335 m -11.51171,0.2539 1.07812,0.41797 1.0918,0.70898 1.10351,0.99805 1.10742,1.16602 -2.95117,2.96289 -3.17383,2.96289 -0.6582,-0.5918 -0.76562,-1.48633 -0.26953,-1.61718 0.0371,-0.57618 0.17969,-0.52929 1.25977,-1.85352 1.71484,-2.3457 0.2461,-0.2168 m 4.75781,5.75195 0.12695,1.96094 -0.0312,1.95899 -2.05078,0.0527 -2.05078,-0.0352 1.94336,-2.02734 2.06245,-1.91009 m 2.01562,0 2.07227,1.89258 1.93554,2.02735 -1.98437,0.0898 -2.08984,-0.11914 -0.1211,-2.02148 0.0605,-1.28907 0.127,-0.58004 m 53.51953,9.82227 h 0.27149 0.27148 l 8.27539,3.51758 8.27539,3.51562 3.48047,1.45899 3.48438,1.45703 1.1914,0.30078 1.19532,0.30273 0.95507,0.85157 0.95899,0.85547 2.14648,0.34961 2.14649,0.34961 1.81054,-0.0527 1.81055,-0.0508 3.6582,-0.4043 2.64844,-0.17187 4.5586,-0.17774 1.89843,-0.3164 1.90039,-0.31055 1.89844,0.31836 12.39453,1.21875 1.95117,-0.0254 1.95508,-0.0273 2.14453,-0.34961 2.14649,-0.34571 0.95898,-0.85547 0.95703,-0.85351 1.26758,-0.31836 1.26758,-0.32031 5.68945,-2.39063 5.6875,-2.39258 6.03516,-2.56054 6.03516,-2.5625 0.20117,-0.002 0.20117,-0.002 v 1.90234 1.90235 l -2.28125,2.44336 -2.2793,2.44336 v 0.6289 0.62891 L 433.01367,410 l 2.19336,-1.66992 -0.17773,0.46289 -0.17774,0.46094 -5.70508,6.2832 -5.70312,6.28125 -0.59961,-0.0859 -0.59766,-0.0859 -1.88281,2.27149 -1.88281,2.27148 v 0.72461 0.72461 l -2.94727,1.92774 -2.94922,1.92968 -2.26171,0.93555 -2.26368,0.9375 -4.35156,1.47656 -4.34765,1.47852 -4.04883,0.17969 -2.01367,0.30468 -2.80079,0.76758 -1.38867,0.70703 -1.3418,0.35742 -1.33984,0.35743 -2.01367,-0.0156 0.002,0.002 -2.01367,-0.0176 -0.26758,-0.0996 -0.26758,-0.0977 -1.08007,-0.27734 -1.07813,-0.27539 -3.79492,-1.10157 -2.76172,-0.78906 h -3.41601 l -4.26368,-1.44726 -4.26172,-1.44727 -2.46484,-1.06445 -2.46289,-1.0625 -2.23242,-1.40625 -2.23047,-1.40821 -0.60156,-0.55468 -0.60547,-0.55469 v -0.59375 -0.5957 l -1.88281,-2.27149 -1.88282,-2.27148 -0.59765,0.0898 -0.59961,0.0898 -5.74414,-6.36523 -5.7461,-6.36523 -0.12304,-0.37305 -0.12696,-0.375 2.1836,1.66016 2.17968,1.66015 v -0.74219 -0.74609 l -2.20703,-2.21875 -2.20703,-2.2207 -0.10351,-2.00977 -0.0996,-2.01172 -0.002,-0.008"
       style="display:inline;fill:#008080;fill-opacity:1;stroke:none;stroke-width:0.49511811;stroke-miterlimit:4;stroke-dasharray:none;stroke-opacity:1" />
    <path
       inkscape:connector-curvature="0"
       id="path1175"
       transform="scale(0.26458333)"
       d="m 212.625,379.50393 -1.55469,0.0547 -1.54101,0.26172 -1.44141,0.45703 -1.25781,0.63672 -0.93946,0.67578 -0.83593,0.75586 -0.73633,0.82813 -0.62891,0.89062 -0.52539,0.94336 -0.41601,0.98438 -0.3086,1.02148 -0.19922,1.04297 -0.0879,1.05664 0.0234,1.06055 0.13672,1.05469 0.25391,1.03906 0.36914,1.01562 0.48633,0.97852 0.60546,0.93359 0.72657,0.88086 0.70507,0.70117 0.73438,0.60547 0.77539,0.51953 0.82813,0.43164 0.89257,0.35743 0.97071,0.2832 2.21679,0.37109 1.64063,-0.17187 1.39844,-0.30078 1.32812,-0.49805 1.23828,-0.68359 1.12696,-0.84961 1.0039,-1.00196 0.85742,-1.13672 0.69141,-1.25585 0.51172,-1.35938 0.19531,-1.10156 0.084,-1.41211 -0.0312,-1.43555 -0.1543,-1.16992 -0.38477,-1.19727 -0.58203,-1.1621 -0.7539,-1.10352 -0.9004,-1.01563 -1.02148,-0.90625 -1.12109,-0.77148 -1.19141,-0.61133 -1.24023,-0.42773 -0.94532,-0.18555 -1.00196,-0.084"
       style="display:inline;fill:#008080;fill-opacity:1;stroke:none;stroke-width:0.49511811;stroke-miterlimit:4;stroke-dasharray:none;stroke-opacity:1" />
    <path
       inkscape:connector-curvature="0"
       id="path1173"
       transform="scale(0.26458333)"
       d="m 346.68945,379.51763 -2.55468,0.28906 -2.43165,0.96289 -2.16015,1.69727 -1.40235,1.67968 -0.94531,1.97657 -0.49609,2.63476 0.19922,2.67188 1.53711,3.63672 2.72656,2.61132 3.50977,1.45704 3.79882,-0.0117 3.72657,-1.57032 1.93945,-1.69531 1.41797,-2.15039 0.92383,-3.36719 -0.13282,-2.70507 -0.79492,-2.57422 -1.96484,-2.71289 -2.75,-1.92188 -2.01367,-0.72266 -2.13282,-0.18359 v -0.002"
       style="display:inline;fill:#008080;fill-opacity:1;stroke:none;stroke-width:0.49511811;stroke-miterlimit:4;stroke-dasharray:none;stroke-opacity:1" />
  </g>
  <g
     style="display:inline"
     inkscape:label="Mask"
     inkscape:groupmode="layer"
     id="layer1">
    <path
       inkscape:label="eng_left"
       inkscape:connector-curvature="0"
       id="path892"
       d="m 56.082751,99.742079 -0.176733,0.007 -0.54777,0.0785 -0.252182,0.0713 -0.239779,0.0935 -0.229444,0.116271 -0.219106,0.13953 -0.211358,0.16381 -0.205155,0.18862 -0.362767,0.41083 -0.265618,0.42116 -0.181901,0.45734 -0.111104,0.51986 -0.02532,0.41135 0.04082,0.41857 0.106453,0.42582 0.172085,0.43253 0.174665,0.31006 0.21859,0.29042 0.2558,0.26562 0.287837,0.23616 0.312642,0.20257 0.331245,0.16381 0.343649,0.12093 0.349332,0.0729 0.318328,0.0279 0.311608,-0.004 0.303342,-0.0336 0.294556,-0.062 0.283186,-0.0894 0.270785,-0.11576 0.256831,-0.14159 0.241329,-0.16537 0.224277,-0.1881 0.205671,-0.2098 0.185518,-0.23048 0.163814,-0.25011 0.140563,-0.2682 0.115755,-0.28526 0.08888,-0.30075 0.06201,-0.31627 0.02479,-0.30644 -0.01241,-0.31419 -0.04806,-0.31729 -0.08216,-0.3142 -0.114207,-0.3054 -0.144177,-0.29301 -0.173114,-0.27337 -0.201023,-0.24908 -0.236161,-0.23668 -0.252699,-0.20567 -0.2682,-0.17518 -0.281636,-0.143661 -0.294555,-0.11162 -0.306443,-0.0796 -0.315743,-0.0465 -0.325536,-0.01378 m 0.174149,0.668181 0.265099,0.0222 0.250114,0.0491 0.328147,0.11317 0.315227,0.16174 0.296622,0.20413 0.270266,0.23978 0.238228,0.26871 0.199472,0.29197 0.153996,0.30748 0.101803,0.31677 0.04082,0.30955 0.0083,0.37982 -0.02222,0.37362 -0.05168,0.29145 -0.135392,0.35967 -0.182936,0.33228 -0.226859,0.30076 -0.265618,0.2651 -0.298172,0.22479 -0.327628,0.18087 -0.351399,0.13177 -0.370004,0.0796 -0.434083,0.0455 -0.586526,-0.0982 -0.256833,-0.0749 -0.236162,-0.0946 -0.219107,-0.11421 -0.205155,-0.13746 -0.194305,-0.16019 -0.18655,-0.18552 -0.192238,-0.23306 -0.160197,-0.24702 -0.128672,-0.25889 -0.09767,-0.26872 -0.06718,-0.27492 -0.03617,-0.27905 -0.0062,-0.28061 0.02326,-0.27957 0.05271,-0.27595 0.08165,-0.27027 0.110069,-0.26045 0.139009,-0.24959 0.166399,-0.23565 0.194821,-0.2191 0.221173,-0.19999 0.248566,-0.17881 0.332795,-0.16846 0.381373,-0.12092 0.407726,-0.0692 0.411311,-0.0145"
       style="color:#000000;font-style:normal;font-variant:normal;font-weight:normal;font-stretch:normal;font-size:medium;line-height:normal;font-family:sans-serif;font-variant-ligatures:normal;font-variant-position:normal;font-variant-caps:normal;font-variant-numeric:normal;font-variant-alternates:normal;font-feature-settings:normal;text-indent:0;text-align:start;text-decoration:none;text-decoration-line:none;text-decoration-style:solid;text-decoration-color:#000000;letter-spacing:normal;word-spacing:normal;text-transform:none;writing-mode:lr-tb;direction:ltr;text-orientation:mixed;dominant-baseline:auto;baseline-shift:baseline;text-anchor:start;white-space:normal;shape-padding:0;clip-rule:nonzero;display:inline;overflow:visible;visibility:visible;isolation:auto;mix-blend-mode:normal;color-interpolation:sRGB;color-interpolation-filters:linearRGB;solid-color:#000000;solid-opacity:1;vector-effect:none;fill:#ff0000;fill-opacity:1;fill-rule:nonzero;stroke:#000000;stroke-width:0;stroke-linecap:butt;stroke-linejoin:miter;stroke-miterlimit:4;stroke-dasharray:none;stroke-dashoffset:0;stroke-opacity:1;color-rendering:auto;image-rendering:auto;shape-rendering:auto;text-rendering:auto;enable-background:accumulate" />
    <path
       style="color:#000000;font-style:normal;font-variant:normal;font-weight:normal;font-stretch:normal;font-size:medium;line-height:normal;font-family:sans-serif;font-variant-ligatures:normal;font-variant-position:normal;font-variant-caps:normal;font-variant-numeric:normal;font-variant-alternates:normal;font-feature-settings:normal;text-indent:0;text-align:start;text-decoration:none;text-decoration-line:none;text-decoration-style:solid;text-decoration-color:#000000;letter-spacing:normal;word-spacing:normal;text-transform:none;writing-mode:lr-tb;direction:ltr;text-orientation:mixed;dominant-baseline:auto;baseline-shift:baseline;text-anchor:start;white-space:normal;shape-padding:0;clip-rule:nonzero;display:inline;overflow:visible;visibility:visible;isolation:auto;mix-blend-mode:normal;color-interpolation:sRGB;color-interpolation-filters:linearRGB;solid-color:#000000;solid-opacity:1;vector-effect:none;fill:#ff0000;fill-opacity:1;fill-rule:nonzero;stroke:#000000;stroke-width:0;stroke-linecap:butt;stroke-linejoin:miter;stroke-miterlimit:4;stroke-dasharray:none;stroke-dashoffset:0;stroke-opacity:1;color-rendering:auto;image-rendering:auto;shape-rendering:auto;text-rendering:auto;enable-background:accumulate"
       d="m 91.717784,99.752419 -0.799087,0.08409 -0.570155,0.230121 -0.646984,0.44689 -0.459844,0.50037 -0.346366,0.65448 -0.173087,0.65693 -0.01009,0.75354 0.149541,0.68215 0.339409,0.66154 0.431434,0.5171 0.605739,0.44617 0.63761,0.28554 0.888402,0.0898 0.779402,-0.0932 0.605888,-0.25169 0.596533,-0.42662 0.517373,-0.59626 0.336147,-0.71611 0.147131,-0.80853 -0.07632,-0.81793 -0.324542,-0.7972 -0.538116,-0.67341 -0.583696,-0.44182 -0.671565,-0.287183 -0.83475,-0.09873 -6e-6,-3.8e-5 m 0.01035,0.661971 0.564578,0.0485 0.532442,0.19141 0.72789,0.50877 0.519612,0.71757 0.210602,0.68105 0.03479,0.7159 -0.244379,0.89069 -0.375072,0.56893 -0.513017,0.44866 -0.985827,0.41541 -1.005515,0.003 -0.928657,-0.38517 -0.720948,-0.69135 -0.406811,-0.96177 -0.05281,-0.70741 0.13148,-0.69703 0.249678,-0.52281 0.371448,-0.44428 0.571422,-0.44911 0.643282,-0.25468 0.675815,-0.0765 -2e-6,-3e-5"
       id="path890"
       inkscape:connector-curvature="0"
       inkscape:label="eng_right" />
    <g
       id="g911"
       style="display:inline;fill:#aa0000"
       inkscape:label="windows"
       transform="translate(-2.6805869,-38.980201)">
      <path
         style="color:#000000;font-style:normal;font-variant:normal;font-weight:normal;font-stretch:normal;font-size:medium;line-height:normal;font-family:sans-serif;font-variant-ligatures:normal;font-variant-position:normal;font-variant-caps:normal;font-variant-numeric:normal;font-variant-alternates:normal;font-feature-settings:normal;text-indent:0;text-align:start;text-decoration:none;text-decoration-line:none;text-decoration-style:solid;text-decoration-color:#000000;letter-spacing:normal;word-spacing:normal;text-transform:none;writing-mode:lr-tb;direction:ltr;text-orientation:mixed;dominant-baseline:auto;baseline-shift:baseline;text-anchor:start;white-space:normal;shape-padding:0;clip-rule:nonzero;display:inline;overflow:visible;visibility:visible;isolation:auto;mix-blend-mode:normal;color-interpolation:sRGB;color-interpolation-filters:linearRGB;solid-color:#000000;solid-opacity:1;vector-effect:none;fill:#aa0000;fill-opacity:1;fill-rule:nonzero;stroke:#000000;stroke-width:0;stroke-linecap:butt;stroke-linejoin:miter;stroke-miterlimit:4;stroke-dasharray:none;stroke-dashoffset:0;stroke-opacity:1;color-rendering:auto;image-rendering:auto;shape-rendering:auto;text-rendering:auto;enable-background:accumulate"
         d="m 78.052554,141.07894 0.108322,0.16339 c 0.05961,0.0899 0.265742,0.38108 0.458106,0.64692 0.317994,0.43943 0.349782,0.50442 0.349782,0.71408 0,0.36955 -0.280201,0.98157 -0.44933,0.98157 -0.03214,0 -0.410669,-0.35282 -0.841172,-0.78398 l -0.782773,-0.78399 0.313472,-0.32255 c 0.17228,-0.17735 0.354871,-0.33574 0.40576,-0.35189 0.05088,-0.0162 0.170105,-0.082 0.26506,-0.14645 z"
         id="path884"
         inkscape:connector-curvature="0" />
      <path
         style="color:#000000;font-style:normal;font-variant:normal;font-weight:normal;font-stretch:normal;font-size:medium;line-height:normal;font-family:sans-serif;font-variant-ligatures:normal;font-variant-position:normal;font-variant-caps:normal;font-variant-numeric:normal;font-variant-alternates:normal;font-feature-settings:normal;text-indent:0;text-align:start;text-decoration:none;text-decoration-line:none;text-decoration-style:solid;text-decoration-color:#000000;letter-spacing:normal;word-spacing:normal;text-transform:none;writing-mode:lr-tb;direction:ltr;text-orientation:mixed;dominant-baseline:auto;baseline-shift:baseline;text-anchor:start;white-space:normal;shape-padding:0;clip-rule:nonzero;display:inline;overflow:visible;visibility:visible;isolation:auto;mix-blend-mode:normal;color-interpolation:sRGB;color-interpolation-filters:linearRGB;solid-color:#000000;solid-opacity:1;vector-effect:none;fill:#aa0000;fill-opacity:1;fill-rule:nonzero;stroke:#000000;stroke-width:0;stroke-linecap:butt;stroke-linejoin:miter;stroke-miterlimit:4;stroke-dasharray:none;stroke-dashoffset:0;stroke-opacity:1;color-rendering:auto;image-rendering:auto;shape-rendering:auto;text-rendering:auto;enable-background:accumulate"
         d="m 75.007092,141.14581 c 0.04314,-0.008 0.112948,0.0246 0.285332,0.11074 0.17735,0.0886 0.398897,0.26099 0.580346,0.45175 l 0.2932,0.30863 -0.780957,0.78399 c -0.429606,0.43116 -0.807542,0.78398 -0.839658,0.78398 -0.03209,0 -0.110301,-0.0708 -0.173985,-0.15704 -0.173742,-0.23526 -0.275167,-0.53886 -0.274137,-0.82089 0.0013,-0.23911 0.02132,-0.28015 0.390935,-0.78308 0.214514,-0.29187 0.4185,-0.5711 0.453566,-0.62059 0.02298,-0.0325 0.03947,-0.0524 0.06536,-0.0575 z"
         id="path882"
         inkscape:connector-curvature="0" />
      <path
         style="color:#000000;font-style:normal;font-variant:normal;font-weight:normal;font-stretch:normal;font-size:medium;line-height:normal;font-family:sans-serif;font-variant-ligatures:normal;font-variant-position:normal;font-variant-caps:normal;font-variant-numeric:normal;font-variant-alternates:normal;font-feature-settings:normal;text-indent:0;text-align:start;text-decoration:none;text-decoration-line:none;text-decoration-style:solid;text-decoration-color:#000000;letter-spacing:normal;word-spacing:normal;text-transform:none;writing-mode:lr-tb;direction:ltr;text-orientation:mixed;dominant-baseline:auto;baseline-shift:baseline;text-anchor:start;white-space:normal;shape-padding:0;clip-rule:nonzero;display:inline;overflow:visible;visibility:visible;isolation:auto;mix-blend-mode:normal;color-interpolation:sRGB;color-interpolation-filters:linearRGB;solid-color:#000000;solid-opacity:1;vector-effect:none;fill:#aa0000;fill-opacity:1;fill-rule:nonzero;stroke:#000000;stroke-width:0;stroke-linecap:butt;stroke-linejoin:miter;stroke-miterlimit:4;stroke-dasharray:none;stroke-dashoffset:0;stroke-opacity:1;color-rendering:auto;image-rendering:auto;shape-rendering:auto;text-rendering:auto;enable-background:accumulate"
         d="m 76.265822,142.66809 c 0.02296,0 0.03803,0.23338 0.03359,0.51862 l -0.0082,0.51862 -0.542525,0.0136 c -0.298501,0.007 -0.542828,0.004 -0.542828,-0.009 0,-0.0416 1.017603,-1.04208 1.059935,-1.04208 z"
         id="path880"
         inkscape:connector-curvature="0" />
      <path
         style="color:#000000;font-style:normal;font-variant:normal;font-weight:normal;font-stretch:normal;font-size:medium;line-height:normal;font-family:sans-serif;font-variant-ligatures:normal;font-variant-position:normal;font-variant-caps:normal;font-variant-numeric:normal;font-variant-alternates:normal;font-feature-settings:normal;text-indent:0;text-align:start;text-decoration:none;text-decoration-line:none;text-decoration-style:solid;text-decoration-color:#000000;letter-spacing:normal;word-spacing:normal;text-transform:none;writing-mode:lr-tb;direction:ltr;text-orientation:mixed;dominant-baseline:auto;baseline-shift:baseline;text-anchor:start;white-space:normal;shape-padding:0;clip-rule:nonzero;display:inline;overflow:visible;visibility:visible;isolation:auto;mix-blend-mode:normal;color-interpolation:sRGB;color-interpolation-filters:linearRGB;solid-color:#000000;solid-opacity:1;vector-effect:none;fill:#aa0000;fill-opacity:1;fill-rule:nonzero;stroke:#000000;stroke-width:0;stroke-linecap:butt;stroke-linejoin:miter;stroke-miterlimit:4;stroke-dasharray:none;stroke-dashoffset:0;stroke-opacity:1;color-rendering:auto;image-rendering:auto;shape-rendering:auto;text-rendering:auto;enable-background:accumulate"
         d="m 76.798967,142.66809 c 0.04842,0 1.060238,0.98987 1.060238,1.03724 0,0.0366 -1.040626,0.029 -1.077485,-0.008 -0.05393,-0.0539 -0.03762,-1.02937 0.01725,-1.02937 z"
         id="path959-3"
         inkscape:connector-curvature="0" />
    </g>
  </g>
  <g
     style="display:inline"
     inkscape:label="SilkS"
     id="layer2"
     inkscape:groupmode="layer">
    <path
       style="display:inline;fill:#00ffff;fill-opacity:1;stroke:none;stroke-width:0.49511811;stroke-miterlimit:4;stroke-dasharray:none;stroke-opacity:1"
       d="m 286.80664,300.54102 -11.85156,0.20898 -10.45313,1.49609 -9.99414,2.49024 -9.4414,3.43359 -8.79493,4.32422 -8.05468,5.16016 -7.21875,5.94531 -6.29297,6.67773 -5.27149,7.35743 -2.89453,5.27734 -2.32226,5.46289 -1.70508,5.53906 -1.05078,5.50391 -0.66016,4.9375 -0.2539,1.82031 -1.51563,0.0859 -4.30078,0.46875 -4.65625,0.90234 -9.0918,2.81055 -6.96289,3.38086 -6.44726,4.48437 -3.58008,3.17188 -3.10938,3.39648 -2.6289,3.59375 -2.13477,3.77344 -1.63086,3.92969 -1.11719,4.06055 -0.59179,4.17382 -0.0547,4.26368 0.44922,4.30468 0.93945,3.96485 1.50781,3.86718 2.15039,4.01758 2.89649,4.23633 3.38476,3.85156 3.85938,3.45703 4.31641,3.05664 4.76367,2.64649 5.19336,2.22461 5.60937,1.79492 6.01172,1.35742 3.70898,0.67969 79.37305,0.15234 114.79883,0.23438 38.45508,-0.25 4.16797,-0.66016 3.93554,-1.0293 3.67969,-1.36914 3.4043,-1.67968 3.11133,-1.96289 2.79687,-2.2168 2.46484,-2.44336 2.10938,-2.64258 1.73828,-2.81445 1.34375,-2.95508 0.92969,-3.06836 0.49805,-3.15625 0.0449,-3.21289 -0.42774,-3.24414 -0.91992,-3.24414 -1.43164,-3.21875 -1.82031,-2.90039 -2.26563,-2.71484 -2.66406,-2.50196 -3.01172,-2.25 -3.30664,-1.96875 -3.55469,-1.65234 -3.75,-1.30078 -3.89453,-0.91797 -2.69922,-0.48828 0.23829,-1.25 0.5,-5.4043 -0.24219,-5.40625 -0.73438,-3.77539 -1.10937,-3.64453 -1.46485,-3.50391 -1.81054,-3.34961 -4.58399,-6.18554 -5.76953,-5.41993 -6.83398,-4.55859 -7.77149,-3.59766 -8.58594,-2.54101 -9.27929,-1.38477 -4.52539,-0.24023 -4.25977,0.11328 -11.11914,1.54102 -0.93945,-0.16016 -0.91211,-1.5918 -3.47852,-5.95312 -4.48242,-6.16407 -5.03906,-5.46093 -5.66211,-4.98438 -6.23633,-4.48242 -6.75781,-3.95117 -7.22852,-3.39258 -7.64843,-2.80859 -8.01563,-2.19922 -8.33398,-1.56055 -11.72849,-0.79683 m -54.32031,37.57226 v 0.002 l 0.16601,0.13282 0.043,0.36328 -0.23242,1.49805 -2.73828,12.125 -0.36523,1.55078 -2.73243,11.71875 -0.25586,1.05468 1.12305,0.5625 1.45313,0.86329 1.28711,1.04296 1.11132,1.20899 0.92969,1.35937 0.73828,1.49805 0.53906,1.61914 0.33008,1.72852 0.11328,1.82031 0.002,1.23047 h 1.41406 l 2.05078,-0.18555 3.5,-0.58594 4.97852,-0.51367 12.30664,-0.30273 9.39062,-0.0918 2.09571,-2.06836 1.97851,-1.86914 1.61719,-1.29297 1.54101,-0.91601 1.74414,-0.73438 1.25196,-0.32617 1.66601,-0.01 1.74414,0.18555 1.58594,0.64648 1.40039,0.74805 1.26172,0.85547 3.00781,2.72656 2.11328,2.09375 7.18555,0.002 7.63477,0.10937 6.73047,0.29883 5.33007,0.46094 3.44336,0.59179 1.96094,0.17774 1.32227,0.002 v -1.35156 l 0.10937,-1.7207 0.32227,-1.66016 0.51953,-1.57617 0.70703,-1.47071 0.87891,-1.33984 1.03906,-1.18945 1.18554,-1.01367 1.32227,-0.81836 1.01367,-0.59766 0.37696,-0.40625 -1.11329,-5.01367 -1.38085,-5.91016 -0.51172,-2.1875 -0.52735,-2.2793 -0.9375,-4.10351 -1.48437,-6.89258 -0.17578,-1.13867 0.0644,-0.56836 0.34375,-0.0605 0.66211,0.38281 0.77539,0.54297 1.75586,5.28125 4.39648,13.30274 2.64258,8.02344 1.71094,0.21679 2.70703,0.54688 2.8125,0.94922 2.82813,1.31445 2.75195,1.64648 2.41406,1.89454 2.2793,2.31054 2.00781,2.57422 1.60156,2.68555 0.61133,1.21484 9.44727,0.125 16.3164,0.37695 4.44141,0.2461 1.49609,0.26758 -0.28125,0.23828 -0.66797,0.24023 -2.39843,0.45508 -1.31641,0.24023 -1.0957,0.35352 -1.0586,0.54297 -1.20117,0.80664 -0.74023,0.53711 h -7.64453 -7.64454 l 0.37891,0.48047 0.37695,0.98633 -0.12109,0.43359 -0.3457,0.45508 -1.25782,0.91601 -1.84179,0.82227 -2.21289,0.61328 -1.57422,0.31641 -0.40625,1.61914 -0.5,1.63672 -0.64063,1.38086 -0.86523,1.26757 -1.17383,1.30078 -1.54883,1.40625 -1.55078,0.9004 -1.39062,0.57617 -1.41407,0.41406 -1.42773,0.24805 -1.42969,0.084 -1.42187,-0.0781 -1.40235,-0.24219 -1.375,-0.40625 -1.33789,-0.57031 -1.47461,-0.87305 -1.37109,-1.07813 -1.16797,-1.19336 -0.86133,-1.21875 -0.83008,-0.85351 -2.125,-1.37109 -4.08593,-2.30665 -1.50782,-0.7539 -2.22851,0.27539 -8.27735,1.16797 -5.79296,1.13476 -0.65625,0.23438 -0.125,0.27539 1.47851,2.29492 2.27539,2.90039 1.04102,1.27149 0.65039,1.1289 0.33398,1.16602 0.0957,1.3789 -0.0957,1.57813 -0.49609,1.31445 -1.1543,1.74805 -1.78125,1.75781 -2.31836,1.69531 -2.76367,1.55469 -7.02539,3.05274 -9.98242,3.98632 -10.48633,4.24414 -0.72656,0.41211 -0.0918,2.91016 -0.12891,2.43555 -0.10937,0.41211 -0.17383,0.12304 -0.25195,-0.0273 -0.15625,-0.1543 -0.13477,-2.9707 -0.0488,-2.72852 -0.72851,-0.41015 -9.75586,-3.98047 -9.02539,-3.55078 -3.73633,-1.55274 -3.98828,-1.75 -3.12695,-1.63086 -2.39649,-1.59375 -1.80078,-1.63086 -1.01758,-1.24609 -0.70898,-1.21875 -0.42969,-1.25391 -0.17773,-1.35546 0.0351,-1.42188 0.43555,-1.23047 0.71875,-1.2207 1.01172,-1.28516 2.33789,-3.00586 1.44727,-2.26953 -1.32422,-0.47265 -3.44727,-0.70118 -10.12695,-1.51757 -2.22852,-0.27149 -1.49804,0.74024 -4.41016,2.5039 -1.73242,1.17188 -0.84961,0.75976 -0.9043,1.27344 -1.1875,1.22852 -1.37305,1.09375 -1.45703,0.86328 -1.3457,0.5957 -1.23438,0.37109 -1.33593,0.19141 -1.64649,0.0566 -2.16797,-0.082 -1.71679,-0.4375 -1.54493,-0.62109 -1.42382,-0.80469 -1.28907,-0.9707 -1.13867,-1.12305 -0.97656,-1.25781 -0.80078,-1.38086 -0.61133,-1.48633 -0.40625,-1.57813 -0.19336,-1.03906 -1.35742,-0.22852 -1.6543,-0.38476 -1.5957,-0.56836 -1.38281,-0.68555 -1.02149,-0.73828 -0.29297,-0.41211 -0.10351,-0.48242 0.0859,-0.50781 0.27734,-0.4961 0.37891,-0.48046 h -7.64258 -7.64063 l -0.98633,-0.70508 -1.11132,-0.73438 -0.98829,-0.49023 -1.05664,-0.32422 -1.31054,-0.23047 -1.91992,-0.33594 -1.0586,-0.33593 -0.18164,-0.1543 0.0586,-0.14258 0.87695,-0.2207 7.85351,-0.34766 13.66797,-0.28906 9.07031,-0.11914 0.88282,-1.67383 1.0332,-1.77734 1.17969,-1.67969 1.31836,-1.58008 1.45508,-1.47656 1.58593,-1.36719 1.71485,-1.25586 1.83984,-1.13867 1.95899,-1.02148 3.60351,-1.42188 1.72266,-0.45117 1.70898,-0.28906 1.67774,-0.20704 0.36718,-1.00976 7.91407,-23.87305 0.59179,-1.50976 0.69141,-0.72461 0.5957,-0.39063 0.37895,-0.11917 m 101.16601,63.59961 h 0.27149 0.27148 l 8.27539,3.51758 8.27539,3.51562 3.48047,1.45899 3.48438,1.45703 1.1914,0.30078 1.19532,0.30273 0.95507,0.85157 0.95899,0.85547 2.14648,0.34961 2.14649,0.34961 1.81054,-0.0527 1.81055,-0.0508 1.30274,1.21875 1.30273,1.2168 h 0.81055 0.81054 l 0.33594,0.40429 0.33008,0.40039 1.10937,-1.08789 1.10547,-1.08593 1.87891,-0.91211 1.87891,-0.90821 1.89843,-0.3164 1.90039,-0.31055 1.89844,0.31836 1.89453,0.32031 1.56836,0.7461 1.56836,0.74609 1.43555,1.13672 1.43554,1.14062 0.29493,-0.29492 0.29492,-0.29492 h 0.86523 0.86524 l 1.08398,-1.14063 1.08789,-1.14062 1.95117,-0.0254 1.95508,-0.0273 2.14453,-0.34961 2.14649,-0.34571 0.95898,-0.85547 0.95703,-0.85351 1.26758,-0.31836 1.26758,-0.32031 5.68945,-2.39063 5.6875,-2.39258 6.03516,-2.56054 6.03516,-2.5625 0.20117,-0.002 0.20117,-0.002 v 1.90234 1.90235 l -2.28125,2.44336 -2.2793,2.44336 v 0.6289 0.62891 L 433.01367,410 l 2.19336,-1.66992 -0.17773,0.46289 -0.17774,0.46094 -5.70508,6.2832 -5.70312,6.28125 -0.59961,-0.0859 -0.59766,-0.0859 -1.88281,2.27149 -1.88281,2.27148 v 0.72461 0.72461 l -2.94727,1.92774 -2.94922,1.92968 -2.26171,0.93555 -2.26368,0.9375 -4.35156,1.47656 -4.34765,1.47852 h -3.57032 -3.5664 l -0.16797,0.27148 -0.16992,0.27344 -1.38868,0.70703 -1.38867,0.70703 -1.3418,0.35742 -1.33984,0.35743 -2.01367,-0.0156 0.002,0.002 -2.01367,-0.0176 -0.26758,-0.0996 -0.26758,-0.0977 -1.08007,-0.27734 -1.07813,-0.27539 -1.56836,-0.94532 -1.57031,-0.94531 h -3.41797 -3.41601 l -4.26368,-1.44726 -4.26172,-1.44727 -2.46484,-1.06445 -2.46289,-1.0625 -2.23242,-1.40625 -2.23047,-1.40821 -0.60156,-0.55468 -0.60547,-0.55469 v -0.59375 -0.5957 l -1.88281,-2.27149 -1.88282,-2.27148 -0.59765,0.0898 -0.59961,0.0898 -5.74414,-6.36523 -5.7461,-6.36523 -0.12304,-0.37305 -0.12696,-0.375 2.1836,1.66016 2.17968,1.66015 v -0.74219 -0.74609 l -2.20703,-2.21875 -2.20703,-2.2207 -0.10351,-2.00977 -0.0996,-2.01172 -0.002,-0.008"
       transform="scale(0.26458333)"
       id="path870"
       inkscape:connector-curvature="0" />
  </g>
</svg>
