  0
SECTION
  2
HEADER
  9
$ACADVER
  1
AC1014
  9
$HANDSEED
  5
FFFF
  9
$MEASUREMENT
 70
     1
  0
ENDSEC
  0
SECTION
  2
TABLES
  0
TABLE
  2
VPORT
  5
8
330
0
100
AcDbSymbolTable
 70
     4
  0
VPORT
  5
2E
330
8
100
AcDbSymbolTableRecord
100
AcDbViewportTableRecord
  2
*ACTIVE
 70
     0
 10
0.0
 20
0.0
 11
1.0
 21
1.0
 12
210.0
 22
148.5
 13
0.0
 23
0.0
 14
10.0
 24
10.0
 15
10.0
 25
10.0
 16
0.0
 26
0.0
 36
1.0
 17
0.0
 27
0.0
 37
0.0
 40
341.0
 41
1.24
 42
50.0
 43
0.0
 44
0.0
 50
0.0
 51
0.0
 71
     0
 72
   100
 73
     1
 74
     3
 75
     0
 76
     0
 77
     0
 78
     0
  0
ENDTAB
  0
TABLE
  2
LTYPE
  5
5
330
0
100
AcDbSymbolTable
 70
     1
  0
LTYPE
  5
14
330
5
100
AcDbSymbolTableRecord
100
AcDbLinetypeTableRecord
  2
BYBLOCK
 70
     0
  3

 72
    65
 73
     0
 40
0.0
  0
LTYPE
  5
15
330
5
100
AcDbSymbolTableRecord
100
AcDbLinetypeTableRecord
  2
BYLAYER
 70
     0
  3

 72
    65
 73
     0
 40
0.0
  0
LTYPE
  5
16
330
5
100
AcDbSymbolTableRecord
100
AcDbLinetypeTableRecord
  2
CONTINUOUS
 70
     0
  3
Solid line
 72
    65
 73
     0
 40
0.0
  0
ENDTAB
  0
TABLE
  2
LAYER
  5
2
100
AcDbSymbolTable
 70
2
  0
LAYER
  5
50
100
AcDbSymbolTableRecord
100
AcDbLayerTableRecord
  2
0
 70
0
  6
CONTINUOUS
  0
LAYER
  5
51
100
AcDbSymbolTableRecord
100
AcDbLayerTableRecord
  2
Edge.Cuts
 70
0
  6
CONTINUOUS
  0
ENDTAB
  0
TABLE
  2
STYLE
  5
3
330
0
100
AcDbSymbolTable
 70
     1
  0
STYLE
  5
11
330
3
100
AcDbSymbolTableRecord
100
AcDbTextStyleTableRecord
  2
STANDARD
 70
     0
 40
0.0
 41
1.0
 50
0.0
 71
     0
 42
2.5
  3
txt
  4

  0
ENDTAB
  0
TABLE
  2
VIEW
  5
6
330
0
100
AcDbSymbolTable
 70
     0
  0
ENDTAB
  0
TABLE
  2
UCS
  5
7
330
0
100
AcDbSymbolTable
 70
     0
  0
ENDTAB
  0
TABLE
  2
APPID
  5
9
330
0
100
AcDbSymbolTable
 70
     2
  0
APPID
  5
12
330
9
100
AcDbSymbolTableRecord
100
AcDbRegAppTableRecord
  2
ACAD
 70
     0
  0
ENDTAB
  0
TABLE
  2
DIMSTYLE
  5
A
330
0
100
AcDbSymbolTable
 70
     1
  0
DIMSTYLE
105
27
330
A
100
AcDbSymbolTableRecord
100
AcDbDimStyleTableRecord
  2
ISO-25
 70
     0
  3

  4

  5

  6

  7

 40
1.0
 41
2.5
 42
0.625
 43
3.75
 44
1.25
 45
0.0
 46
0.0
 47
0.0
 48
0.0
140
2.5
141
2.5
142
0.0
143
0.03937007874016
144
1.0
145
0.0
146
1.0
147
0.625
 71
     0
 72
     0
 73
     0
 74
     0
 75
     0
 76
     0
 77
     1
 78
     8
170
     0
171
     3
172
     1
173
     0
174
     0
175
     0
176
     0
177
     0
178
     0
270
     2
271
     2
272
     2
273
     2
274
     3
340
11
275
     0
280
     0
281
     0
282
     0
283
     0
284
     8
285
     0
286
     0
287
     3
288
     0
  0
ENDTAB
  0
TABLE
  2
BLOCK_RECORD
  5
1
330
0
100
AcDbSymbolTable
 70
     1
  0
BLOCK_RECORD
  5
1F
330
1
100
AcDbSymbolTableRecord
100
AcDbBlockTableRecord
  2
*MODEL_SPACE
  0
BLOCK_RECORD
  5
1B
330
1
100
AcDbSymbolTableRecord
100
AcDbBlockTableRecord
  2
*PAPER_SPACE
  0
ENDTAB
  0
ENDSEC
  0
SECTION
  2
BLOCKS
  0
BLOCK
  5
20
330
1F
100
AcDbEntity
  8
0
100
AcDbBlockBegin
  2
*MODEL_SPACE
 70
     0
 10
0.0
 20
0.0
 30
0.0
  3
*MODEL_SPACE
  1

  0
ENDBLK
  5
21
330
1F
100
AcDbEntity
  8
0
100
AcDbBlockEnd
  0
BLOCK
  5
1C
330
1B
100
AcDbEntity
 67
     1
  8
0
100
AcDbBlockBegin
  2
*PAPER_SPACE
  1

  0
ENDBLK
  5
1D
330
1B
100
AcDbEntity
 67
     1
  8
0
100
AcDbBlockEnd
  0
ENDSEC
  0
SECTION
  2
ENTITIES
  0
LINE
  5
100
100
AcDbEntity
  8
Edge.Cuts
 62
7
100
AcDbLine
 10
50.230151
 20
0.145008
 30
0.0
 11
18.152041
 21
0.206508
 31
0.0
  0
LINE
  5
101
100
AcDbEntity
  8
Edge.Cuts
 62
7
100
AcDbLine
 10
18.152041
 20
0.206508
 30
0.0
 11
16.652924
 21
0.480668
 31
0.0
  0
LINE
  5
102
100
AcDbEntity
  8
Edge.Cuts
 62
7
100
AcDbLine
 10
16.652924
 20
0.480668
 30
0.0
 11
14.223613
 21
1.029248
 31
0.0
  0
LINE
  5
103
100
AcDbEntity
  8
Edge.Cuts
 62
7
100
AcDbLine
 10
14.223613
 20
1.029248
 30
0.0
 11
11.956573
 21
1.755008
 31
0.0
  0
LINE
  5
104
100
AcDbEntity
  8
Edge.Cuts
 62
7
100
AcDbLine
 10
11.956573
 20
1.755008
 30
0.0
 11
9.857653
 21
2.654258
 31
0.0
  0
LINE
  5
105
100
AcDbEntity
  8
Edge.Cuts
 62
7
100
AcDbLine
 10
9.857653
 20
2.654258
 30
0.0
 11
7.932707
 21
3.723338
 31
0.0
  0
LINE
  5
106
100
AcDbEntity
  8
Edge.Cuts
 62
7
100
AcDbLine
 10
7.932707
 20
3.723338
 30
0.0
 11
6.187583
 21
4.958568
 31
0.0
  0
LINE
  5
107
100
AcDbEntity
  8
Edge.Cuts
 62
7
100
AcDbLine
 10
6.187583
 20
4.958568
 30
0.0
 11
4.628135
 21
6.356278
 31
0.0
  0
LINE
  5
108
100
AcDbEntity
  8
Edge.Cuts
 62
7
100
AcDbLine
 10
4.628135
 20
6.356278
 30
0.0
 11
3.260212
 21
7.912798
 31
0.0
  0
LINE
  5
109
100
AcDbEntity
  8
Edge.Cuts
 62
7
100
AcDbLine
 10
3.260212
 20
7.912798
 30
0.0
 11
2.089667
 21
9.624438
 31
0.0
  0
LINE
  5
10a
100
AcDbEntity
  8
Edge.Cuts
 62
7
100
AcDbLine
 10
2.089667
 20
9.624438
 30
0.0
 11
1.220205
 21
11.248628
 31
0.0
  0
LINE
  5
10b
100
AcDbEntity
  8
Edge.Cuts
 62
7
100
AcDbLine
 10
1.220205
 20
11.248628
 30
0.0
 11
0.611229
 21
12.811688
 31
0.0
  0
LINE
  5
10c
100
AcDbEntity
  8
Edge.Cuts
 62
7
100
AcDbLine
 10
0.611229
 20
12.811688
 30
0.0
 11
0.231564
 21
14.413408
 31
0.0
  0
LINE
  5
10d
100
AcDbEntity
  8
Edge.Cuts
 62
7
100
AcDbLine
 10
0.231564
 20
14.413408
 30
0.0
 11
0.050034
 21
16.153608
 31
0.0
  0
LINE
  5
10e
100
AcDbEntity
  8
Edge.Cuts
 62
7
100
AcDbLine
 10
0.050034
 20
16.153608
 30
0.0
 11
0.072304
 21
17.876308
 31
0.0
  0
LINE
  5
10f
100
AcDbEntity
  8
Edge.Cuts
 62
7
100
AcDbLine
 10
0.072304
 20
17.876308
 30
0.0
 11
0.311314
 21
19.563028
 31
0.0
  0
LINE
  5
110
100
AcDbEntity
  8
Edge.Cuts
 62
7
100
AcDbLine
 10
0.311314
 20
19.563028
 30
0.0
 11
0.762665
 21
21.204788
 31
0.0
  0
LINE
  5
111
100
AcDbEntity
  8
Edge.Cuts
 62
7
100
AcDbLine
 10
0.762665
 20
21.204788
 30
0.0
 11
1.421963
 21
22.792578
 31
0.0
  0
LINE
  5
112
100
AcDbEntity
  8
Edge.Cuts
 62
7
100
AcDbLine
 10
1.421963
 20
22.792578
 30
0.0
 11
2.284813
 21
24.317438
 31
0.0
  0
LINE
  5
113
100
AcDbEntity
  8
Edge.Cuts
 62
7
100
AcDbLine
 10
2.284813
 20
24.317438
 30
0.0
 11
3.346819
 21
25.770358
 31
0.0
  0
LINE
  5
114
100
AcDbEntity
  8
Edge.Cuts
 62
7
100
AcDbLine
 10
3.346819
 20
25.770358
 30
0.0
 11
4.603587
 21
27.142368
 31
0.0
  0
LINE
  5
115
100
AcDbEntity
  8
Edge.Cuts
 62
7
100
AcDbLine
 10
4.603587
 20
27.142368
 30
0.0
 11
6.050722
 21
28.424468
 31
0.0
  0
LINE
  5
116
100
AcDbEntity
  8
Edge.Cuts
 62
7
100
AcDbLine
 10
6.050722
 20
28.424468
 30
0.0
 11
8.656398
 21
30.236668
 31
0.0
  0
LINE
  5
117
100
AcDbEntity
  8
Edge.Cuts
 62
7
100
AcDbLine
 10
8.656398
 20
30.236668
 30
0.0
 11
11.470103
 21
31.603208
 31
0.0
  0
LINE
  5
118
100
AcDbEntity
  8
Edge.Cuts
 62
7
100
AcDbLine
 10
11.470103
 20
31.603208
 30
0.0
 11
15.144520
 21
32.738878
 31
0.0
  0
LINE
  5
119
100
AcDbEntity
  8
Edge.Cuts
 62
7
100
AcDbLine
 10
15.144520
 20
32.738878
 30
0.0
 11
17.026456
 21
33.103758
 31
0.0
  0
LINE
  5
11a
100
AcDbEntity
  8
Edge.Cuts
 62
7
100
AcDbLine
 10
17.026456
 20
33.103758
 30
0.0
 11
18.764500
 21
33.293078
 31
0.0
  0
LINE
  5
11b
100
AcDbEntity
  8
Edge.Cuts
 62
7
100
AcDbLine
 10
18.764500
 20
33.293078
 30
0.0
 11
19.376976
 21
33.327678
 31
0.0
  0
LINE
  5
11c
100
AcDbEntity
  8
Edge.Cuts
 62
7
100
AcDbLine
 10
19.376976
 20
33.327678
 30
0.0
 11
19.479641
 21
34.063698
 31
0.0
  0
LINE
  5
11d
100
AcDbEntity
  8
Edge.Cuts
 62
7
100
AcDbLine
 10
19.479641
 20
34.063698
 30
0.0
 11
19.746274
 21
36.059068
 31
0.0
  0
LINE
  5
11e
100
AcDbEntity
  8
Edge.Cuts
 62
7
100
AcDbLine
 10
19.746274
 20
36.059068
 30
0.0
 11
20.171037
 21
38.283868
 31
0.0
  0
LINE
  5
11f
100
AcDbEntity
  8
Edge.Cuts
 62
7
100
AcDbLine
 10
20.171037
 20
38.283868
 30
0.0
 11
20.860621
 21
40.522528
 31
0.0
  0
LINE
  5
120
100
AcDbEntity
  8
Edge.Cuts
 62
7
100
AcDbLine
 10
20.860621
 20
40.522528
 30
0.0
 11
21.798655
 21
42.730328
 31
0.0
  0
LINE
  5
121
100
AcDbEntity
  8
Edge.Cuts
 62
7
100
AcDbLine
 10
21.798655
 20
42.730328
 30
0.0
 11
22.968764
 21
44.862538
 31
0.0
  0
LINE
  5
122
100
AcDbEntity
  8
Edge.Cuts
 62
7
100
AcDbLine
 10
22.968764
 20
44.862538
 30
0.0
 11
25.099090
 21
47.835898
 31
0.0
  0
LINE
  5
123
100
AcDbEntity
  8
Edge.Cuts
 62
7
100
AcDbLine
 10
25.099090
 20
47.835898
 30
0.0
 11
27.642134
 21
50.534728
 31
0.0
  0
LINE
  5
124
100
AcDbEntity
  8
Edge.Cuts
 62
7
100
AcDbLine
 10
27.642134
 20
50.534728
 30
0.0
 11
30.560066
 21
52.937708
 31
0.0
  0
LINE
  5
125
100
AcDbEntity
  8
Edge.Cuts
 62
7
100
AcDbLine
 10
30.560066
 20
52.937708
 30
0.0
 11
33.815059
 21
55.023548
 31
0.0
  0
LINE
  5
126
100
AcDbEntity
  8
Edge.Cuts
 62
7
100
AcDbLine
 10
33.815059
 20
55.023548
 30
0.0
 11
37.369283
 21
56.770968
 31
0.0
  0
LINE
  5
127
100
AcDbEntity
  8
Edge.Cuts
 62
7
100
AcDbLine
 10
37.369283
 20
56.770968
 30
0.0
 11
41.184908
 21
58.158658
 31
0.0
  0
LINE
  5
128
100
AcDbEntity
  8
Edge.Cuts
 62
7
100
AcDbLine
 10
41.184908
 20
58.158658
 30
0.0
 11
45.224106
 21
59.165338
 31
0.0
  0
LINE
  5
129
100
AcDbEntity
  8
Edge.Cuts
 62
7
100
AcDbLine
 10
45.224106
 20
59.165338
 30
0.0
 11
49.449048
 21
59.769688
 31
0.0
  0
LINE
  5
12a
100
AcDbEntity
  8
Edge.Cuts
 62
7
100
AcDbLine
 10
49.449048
 20
59.769688
 30
0.0
 11
54.238859
 21
59.853988
 31
0.0
  0
LINE
  5
12b
100
AcDbEntity
  8
Edge.Cuts
 62
7
100
AcDbLine
 10
54.238859
 20
59.853988
 30
0.0
 11
58.979049
 21
59.531698
 31
0.0
  0
LINE
  5
12c
100
AcDbEntity
  8
Edge.Cuts
 62
7
100
AcDbLine
 10
58.979049
 20
59.531698
 30
0.0
 11
62.346589
 21
58.901268
 31
0.0
  0
LINE
  5
12d
100
AcDbEntity
  8
Edge.Cuts
 62
7
100
AcDbLine
 10
62.346589
 20
58.901268
 30
0.0
 11
65.586209
 21
58.012908
 31
0.0
  0
LINE
  5
12e
100
AcDbEntity
  8
Edge.Cuts
 62
7
100
AcDbLine
 10
65.586209
 20
58.012908
 30
0.0
 11
68.677149
 21
56.877518
 31
0.0
  0
LINE
  5
12f
100
AcDbEntity
  8
Edge.Cuts
 62
7
100
AcDbLine
 10
68.677149
 20
56.877518
 30
0.0
 11
71.598659
 21
55.505988
 31
0.0
  0
LINE
  5
130
100
AcDbEntity
  8
Edge.Cuts
 62
7
100
AcDbLine
 10
71.598659
 20
55.505988
 30
0.0
 11
74.329959
 21
53.909228
 31
0.0
  0
LINE
  5
131
100
AcDbEntity
  8
Edge.Cuts
 62
7
100
AcDbLine
 10
74.329959
 20
53.909228
 30
0.0
 11
76.850309
 21
52.098138
 31
0.0
  0
LINE
  5
132
100
AcDbEntity
  8
Edge.Cuts
 62
7
100
AcDbLine
 10
76.850309
 20
52.098138
 30
0.0
 11
79.138939
 21
50.083628
 31
0.0
  0
LINE
  5
133
100
AcDbEntity
  8
Edge.Cuts
 62
7
100
AcDbLine
 10
79.138939
 20
50.083628
 30
0.0
 11
81.175089
 21
47.876578
 31
0.0
  0
LINE
  5
134
100
AcDbEntity
  8
Edge.Cuts
 62
7
100
AcDbLine
 10
81.175089
 20
47.876578
 30
0.0
 11
82.986979
 21
45.385678
 31
0.0
  0
LINE
  5
135
100
AcDbEntity
  8
Edge.Cuts
 62
7
100
AcDbLine
 10
82.986979
 20
45.385678
 30
0.0
 11
84.392869
 21
42.979718
 31
0.0
  0
LINE
  5
136
100
AcDbEntity
  8
Edge.Cuts
 62
7
100
AcDbLine
 10
84.392869
 20
42.979718
 30
0.0
 11
84.760909
 21
42.335978
 31
0.0
  0
LINE
  5
137
100
AcDbEntity
  8
Edge.Cuts
 62
7
100
AcDbLine
 10
84.760909
 20
42.335978
 30
0.0
 11
85.140969
 21
42.271378
 31
0.0
  0
LINE
  5
138
100
AcDbEntity
  8
Edge.Cuts
 62
7
100
AcDbLine
 10
85.140969
 20
42.271378
 30
0.0
 11
89.634589
 21
42.893828
 31
0.0
  0
LINE
  5
139
100
AcDbEntity
  8
Edge.Cuts
 62
7
100
AcDbLine
 10
89.634589
 20
42.893828
 30
0.0
 11
91.355879
 21
42.940228
 31
0.0
  0
LINE
  5
13a
100
AcDbEntity
  8
Edge.Cuts
 62
7
100
AcDbLine
 10
91.355879
 20
42.940228
 30
0.0
 11
93.184989
 21
42.842628
 31
0.0
  0
LINE
  5
13b
100
AcDbEntity
  8
Edge.Cuts
 62
7
100
AcDbLine
 10
93.184989
 20
42.842628
 30
0.0
 11
96.935179
 21
42.282958
 31
0.0
  0
LINE
  5
13c
100
AcDbEntity
  8
Edge.Cuts
 62
7
100
AcDbLine
 10
96.935179
 20
42.282958
 30
0.0
 11
100.405619
 21
41.256298
 31
0.0
  0
LINE
  5
13d
100
AcDbEntity
  8
Edge.Cuts
 62
7
100
AcDbLine
 10
100.405619
 20
41.256298
 30
0.0
 11
103.546449
 21
39.802148
 31
0.0
  0
LINE
  5
13e
100
AcDbEntity
  8
Edge.Cuts
 62
7
100
AcDbLine
 10
103.546449
 20
39.802148
 30
0.0
 11
106.307819
 21
37.959978
 31
0.0
  0
LINE
  5
13f
100
AcDbEntity
  8
Edge.Cuts
 62
7
100
AcDbLine
 10
106.307819
 20
37.959978
 30
0.0
 11
108.639859
 21
35.769258
 31
0.0
  0
LINE
  5
140
100
AcDbEntity
  8
Edge.Cuts
 62
7
100
AcDbLine
 10
108.639859
 20
35.769258
 30
0.0
 11
110.492709
 21
33.269488
 31
0.0
  0
LINE
  5
141
100
AcDbEntity
  8
Edge.Cuts
 62
7
100
AcDbLine
 10
110.492709
 20
33.269488
 30
0.0
 11
111.223859
 21
31.916038
 31
0.0
  0
LINE
  5
142
100
AcDbEntity
  8
Edge.Cuts
 62
7
100
AcDbLine
 10
111.223859
 20
31.916038
 30
0.0
 11
111.816509
 21
30.500128
 31
0.0
  0
LINE
  5
143
100
AcDbEntity
  8
Edge.Cuts
 62
7
100
AcDbLine
 10
111.816509
 20
30.500128
 30
0.0
 11
112.264439
 21
29.026698
 31
0.0
  0
LINE
  5
144
100
AcDbEntity
  8
Edge.Cuts
 62
7
100
AcDbLine
 10
112.264439
 20
29.026698
 30
0.0
 11
112.561399
 21
27.500668
 31
0.0
  0
LINE
  5
145
100
AcDbEntity
  8
Edge.Cuts
 62
7
100
AcDbLine
 10
112.561399
 20
27.500668
 30
0.0
 11
112.658999
 21
25.315978
 31
0.0
  0
LINE
  5
146
100
AcDbEntity
  8
Edge.Cuts
 62
7
100
AcDbLine
 10
112.658999
 20
25.315978
 30
0.0
 11
112.456709
 21
23.131618
 31
0.0
  0
LINE
  5
147
100
AcDbEntity
  8
Edge.Cuts
 62
7
100
AcDbLine
 10
112.456709
 20
23.131618
 30
0.0
 11
112.361109
 21
22.626718
 31
0.0
  0
LINE
  5
148
100
AcDbEntity
  8
Edge.Cuts
 62
7
100
AcDbLine
 10
112.361109
 20
22.626718
 30
0.0
 11
113.451309
 21
22.429478
 31
0.0
  0
LINE
  5
149
100
AcDbEntity
  8
Edge.Cuts
 62
7
100
AcDbLine
 10
113.451309
 20
22.429478
 30
0.0
 11
115.025789
 21
22.058478
 31
0.0
  0
LINE
  5
14a
100
AcDbEntity
  8
Edge.Cuts
 62
7
100
AcDbLine
 10
115.025789
 20
22.058478
 30
0.0
 11
116.541279
 21
21.532458
 31
0.0
  0
LINE
  5
14b
100
AcDbEntity
  8
Edge.Cuts
 62
7
100
AcDbLine
 10
116.541279
 20
21.532458
 30
0.0
 11
117.977509
 21
20.864978
 31
0.0
  0
LINE
  5
14c
100
AcDbEntity
  8
Edge.Cuts
 62
7
100
AcDbLine
 10
117.977509
 20
20.864978
 30
0.0
 11
119.314169
 21
20.069568
 31
0.0
  0
LINE
  5
14d
100
AcDbEntity
  8
Edge.Cuts
 62
7
100
AcDbLine
 10
119.314169
 20
20.069568
 30
0.0
 11
120.530989
 21
19.159788
 31
0.0
  0
LINE
  5
14e
100
AcDbEntity
  8
Edge.Cuts
 62
7
100
AcDbLine
 10
120.530989
 20
19.159788
 30
0.0
 11
121.607669
 21
18.149178
 31
0.0
  0
LINE
  5
14f
100
AcDbEntity
  8
Edge.Cuts
 62
7
100
AcDbLine
 10
121.607669
 20
18.149178
 30
0.0
 11
122.523929
 21
17.051308
 31
0.0
  0
LINE
  5
150
100
AcDbEntity
  8
Edge.Cuts
 62
7
100
AcDbLine
 10
122.523929
 20
17.051308
 30
0.0
 11
123.259469
 21
15.879698
 31
0.0
  0
LINE
  5
151
100
AcDbEntity
  8
Edge.Cuts
 62
7
100
AcDbLine
 10
123.259469
 20
15.879698
 30
0.0
 11
123.838199
 21
14.578948
 31
0.0
  0
LINE
  5
152
100
AcDbEntity
  8
Edge.Cuts
 62
7
100
AcDbLine
 10
123.838199
 20
14.578948
 30
0.0
 11
124.209919
 21
13.267508
 31
0.0
  0
LINE
  5
153
100
AcDbEntity
  8
Edge.Cuts
 62
7
100
AcDbLine
 10
124.209919
 20
13.267508
 30
0.0
 11
124.382659
 21
11.956738
 31
0.0
  0
LINE
  5
154
100
AcDbEntity
  8
Edge.Cuts
 62
7
100
AcDbLine
 10
124.382659
 20
11.956738
 30
0.0
 11
124.364459
 21
10.658018
 31
0.0
  0
LINE
  5
155
100
AcDbEntity
  8
Edge.Cuts
 62
7
100
AcDbLine
 10
124.364459
 20
10.658018
 30
0.0
 11
124.163259
 21
9.382708
 31
0.0
  0
LINE
  5
156
100
AcDbEntity
  8
Edge.Cuts
 62
7
100
AcDbLine
 10
124.163259
 20
9.382708
 30
0.0
 11
123.787119
 21
8.142178
 31
0.0
  0
LINE
  5
157
100
AcDbEntity
  8
Edge.Cuts
 62
7
100
AcDbLine
 10
123.787119
 20
8.142178
 30
0.0
 11
123.244059
 21
6.947788
 31
0.0
  0
LINE
  5
158
100
AcDbEntity
  8
Edge.Cuts
 62
7
100
AcDbLine
 10
123.244059
 20
6.947788
 30
0.0
 11
122.542079
 21
5.810918
 31
0.0
  0
LINE
  5
159
100
AcDbEntity
  8
Edge.Cuts
 62
7
100
AcDbLine
 10
122.542079
 20
5.810918
 30
0.0
 11
121.689219
 21
4.742928
 31
0.0
  0
LINE
  5
15a
100
AcDbEntity
  8
Edge.Cuts
 62
7
100
AcDbLine
 10
121.689219
 20
4.742928
 30
0.0
 11
120.693479
 21
3.755188
 31
0.0
  0
LINE
  5
15b
100
AcDbEntity
  8
Edge.Cuts
 62
7
100
AcDbLine
 10
120.693479
 20
3.755188
 30
0.0
 11
119.562869
 21
2.859068
 31
0.0
  0
LINE
  5
15c
100
AcDbEntity
  8
Edge.Cuts
 62
7
100
AcDbLine
 10
119.562869
 20
2.859068
 30
0.0
 11
118.305429
 21
2.065928
 31
0.0
  0
LINE
  5
15d
100
AcDbEntity
  8
Edge.Cuts
 62
7
100
AcDbLine
 10
118.305429
 20
2.065928
 30
0.0
 11
116.929149
 21
1.387138
 31
0.0
  0
LINE
  5
15e
100
AcDbEntity
  8
Edge.Cuts
 62
7
100
AcDbLine
 10
116.929149
 20
1.387138
 30
0.0
 11
115.442069
 21
0.834068
 31
0.0
  0
LINE
  5
15f
100
AcDbEntity
  8
Edge.Cuts
 62
7
100
AcDbLine
 10
115.442069
 20
0.834068
 30
0.0
 11
113.852189
 21
0.418088
 31
0.0
  0
LINE
  5
160
100
AcDbEntity
  8
Edge.Cuts
 62
7
100
AcDbLine
 10
113.852189
 20
0.418088
 30
0.0
 11
112.167529
 21
0.150568
 31
0.0
  0
LINE
  5
161
100
AcDbEntity
  8
Edge.Cuts
 62
7
100
AcDbLine
 10
112.167529
 20
0.150568
 30
0.0
 11
96.626109
 21
0.049998
 31
0.0
  0
LINE
  5
162
100
AcDbEntity
  8
Edge.Cuts
 62
7
100
AcDbLine
 10
96.626109
 20
0.049998
 30
0.0
 11
50.230248
 21
0.144998
 31
0.0
  0
LINE
  5
163
100
AcDbEntity
  8
Edge.Cuts
 62
7
100
AcDbLine
 10
50.230248
 20
0.144998
 30
0.0
 11
50.230188
 21
0.144878
 31
0.0
  0
ENDSEC
  0
SECTION
  2
OBJECTS
  0
DICTIONARY
  5
C
330
0
100
AcDbDictionary
  3
ACAD_GROUP
350
D
  3
ACAD_MLINESTYLE
350
17
  0
DICTIONARY
  5
D
330
C
100
AcDbDictionary
  0
DICTIONARY
  5
1A
330
C
100
AcDbDictionary
  0
DICTIONARY
  5
17
330
C
100
AcDbDictionary
  3
STANDARD
350
18
  0
DICTIONARY
  5
19
330
C
100
AcDbDictionary
  0
ENDSEC
  0
EOF
