<?xml version="1.0" encoding="UTF-8" standalone="no"?>
<!-- Created with Inkscape (http://www.inkscape.org/) -->

<svg
   width="210mm"
   height="297mm"
   viewBox="0 0 210 297"
   version="1.1"
   id="svg5"
   sodipodi:docname="warning.svg"
   inkscape:version="1.1.1 (c3084ef, 2021-09-22)"
   xmlns:inkscape="http://www.inkscape.org/namespaces/inkscape"
   xmlns:sodipodi="http://sodipodi.sourceforge.net/DTD/sodipodi-0.dtd"
   xmlns="http://www.w3.org/2000/svg"
   xmlns:svg="http://www.w3.org/2000/svg">
  <sodipodi:namedview
     id="namedview7"
     pagecolor="#ffffff"
     bordercolor="#666666"
     borderopacity="1.0"
     inkscape:pageshadow="2"
     inkscape:pageopacity="0.0"
     inkscape:pagecheckerboard="0"
     inkscape:document-units="mm"
     showgrid="false"
     showguides="true"
     inkscape:guide-bbox="true"
     inkscape:zoom="3.6233469"
     inkscape:cx="368.44388"
     inkscape:cy="450.55029"
     inkscape:window-width="1614"
     inkscape:window-height="941"
     inkscape:window-x="1967"
     inkscape:window-y="48"
     inkscape:window-maximized="0"
     inkscape:current-layer="layer2">
    <sodipodi:guide
       position="70.027912,185.78779"
       orientation="1,0"
       id="guide965" />
    <sodipodi:guide
       position="109.97084,180.38418"
       orientation="1,0"
       id="guide967" />
    <sodipodi:guide
       position="79.812832,184.10829"
       orientation="1,0"
       id="guide969" />
    <sodipodi:guide
       position="99.96685,182.42879"
       orientation="1,0"
       id="guide971" />
    <sodipodi:guide
       position="74.774328,177.0982"
       orientation="0,-1"
       id="guide3888" />
    <sodipodi:guide
       position="72.875761,162.05571"
       orientation="0,-1"
       id="guide3890" />
  </sodipodi:namedview>
  <defs
     id="defs2" />
  <g
     inkscape:label="Edge.Cuts"
     inkscape:groupmode="layer"
     id="layer1"
     style="display:inline">
    <rect
       style="fill:none;stroke:#000000;stroke-width:0.111396;stroke-opacity:1"
       id="rect846"
       width="39.888603"
       height="14.888604"
       x="70.082237"
       y="120.05569" />
  </g>
  <g
     inkscape:groupmode="layer"
     id="layer3"
     inkscape:label="F.Mask"
     style="display:inline">
    <path
       id="rect846-7"
       style="fill:#ffb800;fill-opacity:1;stroke:none;stroke-width:0.290718;stroke-opacity:1"
       d="m 272.27148,461.24805 v 41.2832 h 97.97657 v -41.2832 z m 88.9629,13.6914 c 0.76433,0 1.49205,0.082 2.18359,0.2461 0.69154,0.15798 1.46106,0.47699 2.30859,0.95703 v 3.17969 h -0.33594 c -0.14558,-0.12761 -0.35789,-0.30621 -0.63867,-0.53711 -0.28077,-0.23698 -0.55057,-0.4375 -0.81054,-0.60157 -0.30158,-0.19444 -0.65499,-0.36219 -1.06055,-0.50195 -0.40037,-0.13976 -0.82694,-0.20898 -1.2793,-0.20898 -0.53035,0 -1.01179,0.0911 -1.44336,0.27343 -0.43156,0.1823 -0.81894,0.46116 -1.16211,0.83789 -0.32757,0.36459 -0.58691,0.82943 -0.77929,1.39454 -0.18719,0.55902 -0.28125,1.20616 -0.28125,1.9414 0,1.50087 0.34034,2.64931 1.02148,3.44531 0.68114,0.79601 1.68649,1.19532 3.01758,1.19532 0.11439,0 0.23981,-0.004 0.375,-0.01 0.14039,-0.006 0.26842,-0.0152 0.38281,-0.0273 v -2.66211 h -2.3164 v -2.56055 h 5.35742 V 488 c -0.51996,0.23698 -1.20848,0.47396 -2.06641,0.71094 -0.85793,0.2309 -1.71368,0.3457 -2.56641,0.3457 -1.97583,0 -3.52272,-0.62522 -4.64062,-1.87695 -1.1179,-1.25782 -1.67578,-2.99327 -1.67578,-5.20508 0,-2.10851 0.5631,-3.80556 1.6914,-5.09375 1.12831,-1.29427 2.70133,-1.94141 4.71876,-1.94141 z m -85.47266,0.26367 h 3.12695 l 1.78711,9.3418 2.13672,-9.3418 h 2.98633 l 2.03515,9.3418 1.87305,-9.3418 h 3.04883 l -3.12695,13.57227 h -3.31446 l -2.08203,-8.8418 -2.0293,8.8418 h -3.31445 z m 21.99414,0 h 3.44726 l 4.28907,13.57227 h -3.09571 l -0.80273,-2.74414 h -4.30664 l -0.80273,2.74414 h -3.01758 z m 9.42187,0 h 5.02149 c 0.68634,0 1.27753,0.0456 1.77148,0.13672 0.49396,0.0912 0.95711,0.28798 1.38868,0.5918 0.43676,0.30382 0.78233,0.69944 1.0371,1.18555 0.25998,0.48003 0.38868,1.08528 0.38868,1.81445 0,1.00261 -0.19925,1.81923 -0.59961,2.45117 -0.39517,0.63195 -0.96284,1.1569 -1.70117,1.57617 l 3.87695,5.81641 h -3.65821 l -3.16601,-4.97656 h -1.38086 v 4.97656 h -2.97852 z m 12.50977,0 h 3.58008 l 4.23437,7.7754 v -7.7754 h 2.7461 v 13.57227 h -2.88672 l -4.92774,-9.31641 v 9.31641 h -2.74609 z m 13.01758,0 h 6.80078 v 2.40626 h -1.9043 v 8.75976 h 1.9043 v 2.40625 h -6.80078 v -2.40625 h 1.90234 v -8.75976 h -1.90234 z m 9.25781,0 h 3.58008 l 4.23437,7.7754 v -7.7754 h 2.7461 v 13.57227 h -2.88672 l -4.92969,-9.31641 v 9.31641 h -2.74414 z m -31.80664,2.49805 v 3.6543 h 0.91992 c 0.47836,0 0.8788,-0.0273 1.20117,-0.082 0.32238,-0.0547 0.59412,-0.1786 0.8125,-0.37305 0.20799,-0.18837 0.35758,-0.39627 0.45118,-0.62109 0.0988,-0.23091 0.14843,-0.53711 0.14843,-0.91992 0,-0.34028 -0.0601,-0.63195 -0.17968,-0.875 -0.11959,-0.24306 -0.32406,-0.43447 -0.61524,-0.57422 -0.20278,-0.0972 -0.44056,-0.1556 -0.71094,-0.17383 -0.27037,-0.0243 -0.58459,-0.0352 -0.94336,-0.0352 z m -10.7168,0.97461 -1.42578,4.86719 h 2.85352 z"
       transform="scale(0.26458333)" />
  </g>
  <g
     inkscape:groupmode="layer"
     id="layer2"
     inkscape:label="F.Cu"
     style="display:inline">
    <g
       id="g4906">
      <g
         aria-label="WARNING"
         transform="scale(0.92503943,1.081035)"
         id="text1790-1"
         style="font-size:4.56867px;line-height:1.25;display:inline;fill:#1318e8;fill-opacity:1;stroke-width:0.24475">
        <path
           d="m 83.735279,116.30595 -0.894549,3.32165 h -0.948088 l -0.595623,-2.16387 -0.580007,2.16387 h -0.948088 l -0.894549,-3.32165 h 0.894549 l 0.510852,2.28656 0.611238,-2.28656 h 0.854395 l 0.582238,2.28656 0.535391,-2.28656 z"
           style="font-weight:bold;-inkscape-font-specification:'sans-serif Bold';fill:#1318e8;fill-opacity:1"
           id="path4506" />
        <path
           d="m 87.378168,119.6276 h -0.885625 l -0.229772,-0.67147 h -1.2314 l -0.229772,0.67147 h -0.863318 l 1.226938,-3.32165 h 0.986012 z m -1.322861,-1.28048 -0.408236,-1.19124 -0.408236,1.19124 z"
           style="font-weight:bold;-inkscape-font-specification:'sans-serif Bold';fill:#1318e8;fill-opacity:1"
           id="path4508" />
        <path
           d="m 89.722734,117.32319 q 0,-0.12493 -0.05131,-0.21416 -0.05131,-0.0892 -0.176233,-0.14054 -0.087,-0.0357 -0.203002,-0.0424 -0.116002,-0.009 -0.269927,-0.009 h -0.31008 v 0.89455 h 0.263234 q 0.205233,0 0.343542,-0.0201 0.13831,-0.0201 0.232003,-0.0915 0.08923,-0.0692 0.129386,-0.15169 0.04238,-0.0848 0.04238,-0.22531 z m 1.336247,2.30441 h -1.046243 l -0.905703,-1.21801 h -0.394851 v 1.21801 H 87.86002 v -3.32165 h 1.436632 q 0.294465,0 0.506391,0.0335 0.211926,0.0335 0.397082,0.145 0.187387,0.11154 0.296696,0.29 0.111539,0.17624 0.111539,0.44393 0,0.36808 -0.171771,0.60009 -0.16954,0.232 -0.486313,0.38592 z"
           style="font-weight:bold;-inkscape-font-specification:'sans-serif Bold';fill:#1318e8;fill-opacity:1"
           id="path4510" />
        <path
           d="M 94.458715,119.6276 H 93.63332 l -1.409863,-2.27987 v 2.27987 h -0.78524 v -3.32165 h 1.023936 l 1.211322,1.90287 v -1.90287 h 0.78524 z"
           style="font-weight:bold;-inkscape-font-specification:'sans-serif Bold';fill:#1318e8;fill-opacity:1"
           id="path4512" />
        <path
           d="m 97.10667,119.6276 h -1.945254 v -0.58893 h 0.544314 v -2.14379 h -0.544314 v -0.58893 h 1.945254 v 0.58893 h -0.544315 v 2.14379 h 0.544315 z"
           style="font-weight:bold;-inkscape-font-specification:'sans-serif Bold';fill:#1318e8;fill-opacity:1"
           id="path4514" />
        <path
           d="m 100.82987,119.6276 h -0.8254 l -1.40986,-2.27987 v 2.27987 h -0.78524 v -3.32165 h 1.023936 l 1.211324,1.90287 v -1.90287 h 0.78524 z"
           style="font-weight:bold;-inkscape-font-specification:'sans-serif Bold';fill:#1318e8;fill-opacity:1"
           id="path4516" />
        <path
           d="m 104.61999,119.43798 q -0.22308,0.087 -0.59116,0.17401 -0.36808,0.0848 -0.73393,0.0848 -0.84771,0 -1.32733,-0.45955 -0.47962,-0.46177 -0.47962,-1.27378 0,-0.77409 0.48409,-1.24702 0.48408,-0.47516 1.34963,-0.47516 0.32792,0 0.62462,0.0602 0.2967,0.058 0.66032,0.23423 v 0.77855 h -0.0959 q -0.0625,-0.0468 -0.18292,-0.13162 -0.12047,-0.087 -0.23201,-0.14723 -0.12938,-0.0714 -0.30339,-0.1227 -0.17177,-0.0513 -0.36585,-0.0513 -0.22754,0 -0.41269,0.0669 -0.18516,0.0669 -0.33239,0.20523 -0.14054,0.13385 -0.22308,0.34131 -0.0803,0.20524 -0.0803,0.47516 0,0.55101 0.29223,0.84324 0.29224,0.29224 0.86332,0.29224 0.0491,0 0.10708,-0.002 0.0602,-0.002 0.10931,-0.007 v -0.6514 h -0.66255 v -0.62685 h 1.53256 z"
           style="font-weight:bold;-inkscape-font-specification:'sans-serif Bold';fill:#1318e8;fill-opacity:1"
           id="path4518" />
      </g>
    </g>
    <path
       id="rect846-2"
       style="display:inline;fill:#3cff00;fill-opacity:1;stroke:#000000;stroke-width:0.364721;stroke-opacity:1"
       d="m 264.75,453.72656 v 56.32813 h 113.01953 v -56.32813 z m 7.52148,7.52149 h 97.97657 v 41.2832 h -97.97657 z"
       transform="scale(0.26458333)" />
  </g>
</svg>
