<?xml version="1.0" encoding="UTF-8" standalone="no"?>
<!-- Created with Inkscape (http://www.inkscape.org/) -->

<svg
   width="47.624939mm"
   height="47.624939mm"
   viewBox="0 0 47.624939 47.624939"
   version="1.1"
   id="svg4737"
   sodipodi:docname="adsb_exchange_qr_code.svg"
   inkscape:version="1.2-beta (1b65182c, 2022-04-05)"
   xmlns:inkscape="http://www.inkscape.org/namespaces/inkscape"
   xmlns:sodipodi="http://sodipodi.sourceforge.net/DTD/sodipodi-0.dtd"
   xmlns="http://www.w3.org/2000/svg"
   xmlns:svg="http://www.w3.org/2000/svg">
  <sodipodi:namedview
     id="namedview4739"
     pagecolor="#ffffff"
     bordercolor="#000000"
     borderopacity="0.25"
     inkscape:pageshadow="2"
     inkscape:pageopacity="0.0"
     inkscape:pagecheckerboard="0"
     inkscape:deskcolor="#d1d1d1"
     inkscape:document-units="mm"
     showgrid="false"
     inkscape:zoom="2.342625"
     inkscape:cx="49.517101"
     inkscape:cy="93.484872"
     inkscape:window-width="1800"
     inkscape:window-height="1012"
     inkscape:window-x="0"
     inkscape:window-y="44"
     inkscape:window-maximized="1"
     inkscape:current-layer="layer1" />
  <defs
     id="defs4734" />
  <g
     inkscape:label="Layer 1"
     inkscape:groupmode="layer"
     id="layer1"
     transform="translate(-105.116,-148.309)">
    <g
       inkscape:label="QR Code: https://globe.adsbexchange.com/?airport=KLAS"
       transform="matrix(0.264583,0,0,0.264583,105.116,148.309)"
       id="g4757">
      <rect
         x="0"
         y="0"
         width="180"
         height="180"
         style="fill:#ffffff;stroke:none"
         id="rect4751" />
      <g
         style="fill:#000000;stroke:none"
         id="g4755">
        <path
           d="m 163.6,164 h -11.2 c -0.22091,0 -0.4,-0.17909 -0.4,-0.4 v -3.2 c 0,-0.22091 -0.17909,-0.4 -0.4,-0.4 h -7.2 c -0.22091,0 -0.4,-0.17909 -0.4,-0.4 V 156 h 7.6 c 0.22091,0 0.4,-0.17909 0.4,-0.4 V 152 h 7.6 c 0.22091,0 0.4,0.17909 0.4,0.4 v 7.2 c 0,0.22091 0.17909,0.4 0.4,0.4 h 3.2 c 0.22091,0 0.4,0.17909 0.4,0.4 v 3.2 c 0,0.22091 -0.17909,0.4 -0.4,0.4 z m -24,0 h -3.2 c -0.22091,0 -0.4,-0.17909 -0.4,-0.4 v -3.2 c 0,-0.22091 0.17909,-0.4 0.4,-0.4 h 3.2 c 0.22091,0 0.4,0.17909 0.4,0.4 v 3.2 c 0,0.22091 -0.17909,0.4 -0.4,0.4 z m -12,0 h -7.2 c -0.22091,0 -0.4,-0.17909 -0.4,-0.4 v -7.2 c 0,-0.22091 -0.17909,-0.4 -0.4,-0.4 h -7.2 c -0.22091,0 -0.4,0.17909 -0.4,0.4 v 3.2 c 0,0.22091 -0.17909,0.4 -0.4,0.4 h -3.2 c -0.22091,0 -0.4,-0.17909 -0.4,-0.4 V 152 h 11.6 c 0.22091,0 0.4,-0.17909 0.4,-0.4 v -3.2 c 0,-0.22091 0.17909,-0.4 0.4,-0.4 h 3.2 c 0.22091,0 0.4,0.17909 0.4,0.4 v 11.2 c 0,0.22091 0.17909,0.4 0.4,0.4 h 3.2 c 0.22091,0 0.4,0.17909 0.4,0.4 v 3.2 c 0,0.22091 -0.17909,0.4 -0.4,0.4 z m -28,0 h -7.2 c -0.220914,0 -0.4,-0.17909 -0.4,-0.4 v -3.2 c 0,-0.22091 0.179086,-0.4 0.4,-0.4 h 3.2 c 0.220914,0 0.4,-0.17909 0.4,-0.4 v -15.2 c 0,-0.22091 -0.179086,-0.4 -0.4,-0.4 h -7.2 c -0.220914,0 -0.4,-0.17909 -0.4,-0.4 v -3.2 c 0,-0.22091 -0.179086,-0.4 -0.4,-0.4 h -3.2 c -0.220914,0 -0.4,0.17909 -0.4,0.4 v 3.2 c 0,0.22091 -0.179086,0.4 -0.4,0.4 h -3.2 c -0.220914,0 -0.4,0.17909 -0.4,0.4 V 156 h -3.6 c -0.220914,0 -0.4,0.17909 -0.4,0.4 v 3.2 c 0,0.22091 0.179086,0.4 0.4,0.4 H 80 v 3.6 c 0,0.22091 -0.179086,0.4 -0.4,0.4 h -7.2 c -0.220914,0 -0.4,-0.17909 -0.4,-0.4 v -7.2 c 0,-0.22091 -0.179086,-0.4 -0.4,-0.4 h -3.2 c -0.220914,0 -0.4,0.17909 -0.4,0.4 v 7.2 c 0,0.22091 -0.179086,0.4 -0.4,0.4 H 56.4 c -0.220914,0 -0.4,-0.17909 -0.4,-0.4 v -3.2 c 0,-0.22091 -0.179086,-0.4 -0.4,-0.4 h -3.2 c -0.220914,0 -0.4,-0.17909 -0.4,-0.4 v -3.2 c 0,-0.22091 0.179086,-0.4 0.4,-0.4 H 60 v 3.6 c 0,0.22091 0.179086,0.4 0.4,0.4 h 3.2 c 0.220914,0 0.4,-0.17909 0.4,-0.4 v -3.2 C 64,156.17909 63.820914,156 63.6,156 H 60 v -4 h 11.6 c 0.220914,0 0.4,-0.17909 0.4,-0.4 v -7.2 C 72,144.17909 71.820914,144 71.6,144 H 64.4 C 64.179086,144 64,143.82091 64,143.6 V 140 h 3.6 c 0.220914,0 0.4,-0.17909 0.4,-0.4 V 136 h 3.6 c 0.220914,0 0.4,0.17909 0.4,0.4 v 3.2 c 0,0.22091 0.179086,0.4 0.4,0.4 h 7.2 c 0.220914,0 0.4,-0.17909 0.4,-0.4 V 128 h 8 v 3.6 c 0,0.22091 0.179086,0.4 0.4,0.4 h 7.2 c 0.220914,0 0.4,0.17909 0.4,0.4 v 3.2 c 0,0.22091 0.179086,0.4 0.4,0.4 h 11.2 c 0.22091,0 0.4,-0.17909 0.4,-0.4 v -3.2 c 0,-0.22091 0.17909,-0.4 0.4,-0.4 h 3.6 v 3.6 c 0,0.22091 0.17909,0.4 0.4,0.4 h 3.2 c 0.22091,0 0.4,0.17909 0.4,0.4 v 7.2 c 0,0.22091 -0.17909,0.4 -0.4,0.4 H 112 v -3.6 c 0,-0.22091 -0.17909,-0.4 -0.4,-0.4 h -11.2 c -0.22091,0 -0.4,0.17909 -0.4,0.4 v 7.2 c 0,0.22091 0.17909,0.4 0.4,0.4 h 7.6 v 4 h -3.6 c -0.22091,0 -0.4,0.17909 -0.4,0.4 v 7.2 c 0,0.22091 -0.17909,0.4 -0.4,0.4 h -3.2 c -0.22091,0 -0.4,0.17909 -0.4,0.4 v 3.2 c 0,0.22091 -0.179086,0.4 -0.4,0.4 z m -56,0 H 16.4 c -0.220914,0 -0.4,-0.17909 -0.4,-0.4 v -27.2 c 0,-0.22091 0.179086,-0.4 0.4,-0.4 h 27.2 c 0.220914,0 0.4,0.17909 0.4,0.4 v 27.2 c 0,0.22091 -0.179086,0.4 -0.4,0.4 z m 44,-4 H 80 v -4 h 3.6 c 0.220914,0 0.4,-0.17909 0.4,-0.4 v -7.2 c 0,-0.22091 0.179086,-0.4 0.4,-0.4 h 7.2 c 0.220914,0 0.4,0.17909 0.4,0.4 v 7.2 c 0,0.22091 -0.179086,0.4 -0.4,0.4 h -3.2 c -0.220914,0 -0.4,0.17909 -0.4,0.4 v 3.2 c 0,0.22091 -0.179086,0.4 -0.4,0.4 z M 40,159.6 V 140.4 C 40,140.17909 39.820914,140 39.6,140 H 20.4 c -0.220914,0 -0.4,0.17909 -0.4,0.4 v 19.2 c 0,0.22091 0.179086,0.4 0.4,0.4 h 19.2 c 0.220914,0 0.4,-0.17909 0.4,-0.4 z M 143.6,156 h -7.2 c -0.22091,0 -0.4,-0.17909 -0.4,-0.4 v -7.2 c 0,-0.22091 -0.17909,-0.4 -0.4,-0.4 h -3.2 c -0.22091,0 -0.4,0.17909 -0.4,0.4 v 3.2 c 0,0.22091 -0.17909,0.4 -0.4,0.4 h -3.2 c -0.22091,0 -0.4,-0.17909 -0.4,-0.4 V 128 h 7.6 c 0.22091,0 0.4,-0.17909 0.4,-0.4 V 124 h 3.6 c 0.22091,0 0.4,0.17909 0.4,0.4 v 3.2 c 0,0.22091 0.17909,0.4 0.4,0.4 h 11.2 c 0.22091,0 0.4,-0.17909 0.4,-0.4 V 124 h 3.6 c 0.22091,0 0.4,0.17909 0.4,0.4 v 7.2 c 0,0.22091 -0.17909,0.4 -0.4,0.4 h -3.2 c -0.22091,0 -0.4,0.17909 -0.4,0.4 v 3.2 c 0,0.22091 0.17909,0.4 0.4,0.4 h 3.2 c 0.22091,0 0.4,0.17909 0.4,0.4 v 3.2 c 0,0.22091 0.17909,0.4 0.4,0.4 h 3.2 c 0.22091,0 0.4,0.17909 0.4,0.4 v 7.2 c 0,0.22091 -0.17909,0.4 -0.4,0.4 h -7.2 c -0.22091,0 -0.4,0.17909 -0.4,0.4 v 3.6 h -3.6 c -0.22091,0 -0.4,-0.17909 -0.4,-0.4 v -3.2 c 0,-0.22091 -0.17909,-0.4 -0.4,-0.4 h -3.2 c -0.22091,0 -0.4,0.17909 -0.4,0.4 v 7.6 z m -108,0 H 24.4 c -0.220914,0 -0.4,-0.17909 -0.4,-0.4 v -11.2 c 0,-0.22091 0.179086,-0.4 0.4,-0.4 h 11.2 c 0.220914,0 0.4,0.17909 0.4,0.4 v 11.2 c 0,0.22091 -0.179086,0.4 -0.4,0.4 z m 24,-4 H 52.4 C 52.179086,152 52,151.82091 52,151.6 V 148 h 3.6 c 0.220914,0 0.4,-0.17909 0.4,-0.4 v -3.2 c 0,-0.22091 0.179086,-0.4 0.4,-0.4 h 3.2 c 0.220914,0 0.4,0.17909 0.4,0.4 v 7.6 z m 52,-4 H 108 v -3.6 c 0,-0.22091 0.17909,-0.4 0.4,-0.4 h 3.6 v 3.6 c 0,0.22091 -0.17909,0.4 -0.4,0.4 z m -60,0 H 48.4 C 48.179086,148 48,147.82091 48,147.6 V 132 h 8 v 7.6 c 0,0.22091 -0.179086,0.4 -0.4,0.4 h -3.2 c -0.220914,0 -0.4,0.17909 -0.4,0.4 V 148 Z M 152,143.6 v -3.2 c 0,-0.22091 -0.17909,-0.4 -0.4,-0.4 h -3.2 c -0.22091,0 -0.4,0.17909 -0.4,0.4 v 3.2 c 0,0.22091 0.17909,0.4 0.4,0.4 h 3.2 c 0.22091,0 0.4,-0.17909 0.4,-0.4 z m -8,0 v -11.2 c 0,-0.22091 -0.17909,-0.4 -0.4,-0.4 h -11.2 c -0.22091,0 -0.4,0.17909 -0.4,0.4 v 11.2 c 0,0.22091 0.17909,0.4 0.4,0.4 h 11.2 c 0.22091,0 0.4,-0.17909 0.4,-0.4 z m -4.4,-3.6 h -3.2 c -0.22091,0 -0.4,-0.17909 -0.4,-0.4 v -3.2 c 0,-0.22091 0.17909,-0.4 0.4,-0.4 h 3.2 c 0.22091,0 0.4,0.17909 0.4,0.4 v 3.2 c 0,0.22091 -0.17909,0.4 -0.4,0.4 z m -76,0 h -3.2 c -0.220914,0 -0.4,-0.17909 -0.4,-0.4 v -7.2 C 60,132.17909 59.820914,132 59.6,132 H 56 v -4 h 7.6 c 0.220914,0 0.4,-0.17909 0.4,-0.4 v -3.2 c 0,-0.22091 0.179086,-0.4 0.4,-0.4 H 68 v 12 h -3.6 c -0.220914,0 -0.4,0.17909 -0.4,0.4 v 3.6 z m 60,-4 h -3.2 c -0.22091,0 -0.4,-0.17909 -0.4,-0.4 v -3.2 c 0,-0.22091 0.17909,-0.4 0.4,-0.4 h 3.2 c 0.22091,0 0.4,0.17909 0.4,0.4 v 3.2 c 0,0.22091 -0.17909,0.4 -0.4,0.4 z m 40,-4 h -3.2 c -0.22091,0 -0.4,-0.17909 -0.4,-0.4 v -7.2 c 0,-0.22091 0.17909,-0.4 0.4,-0.4 h 3.2 c 0.22091,0 0.4,0.17909 0.4,0.4 v 7.2 c 0,0.22091 -0.17909,0.4 -0.4,0.4 z m -48,0 H 112 v -3.6 c 0,-0.22091 0.17909,-0.4 0.4,-0.4 h 3.2 c 0.22091,0 0.4,0.17909 0.4,0.4 v 3.2 c 0,0.22091 -0.17909,0.4 -0.4,0.4 z m -12,0 h -3.2 c -0.22091,0 -0.4,-0.17909 -0.4,-0.4 v -3.2 c 0,-0.22091 0.17909,-0.4 0.4,-0.4 h 3.2 c 0.22091,0 0.4,0.17909 0.4,0.4 v 3.2 c 0,0.22091 -0.17909,0.4 -0.4,0.4 z m -56,0 H 28.4 C 28.179086,132 28,131.82091 28,131.6 V 128 h 3.6 c 0.220914,0 0.4,-0.17909 0.4,-0.4 V 124 h 8 v 3.6 c 0,0.22091 0.179086,0.4 0.4,0.4 h 7.2 c 0.220914,0 0.4,0.17909 0.4,0.4 v 3.6 z m -24,0 h -7.2 c -0.220914,0 -0.4,-0.17909 -0.4,-0.4 v -3.2 c 0,-0.22091 0.179086,-0.4 0.4,-0.4 H 24 v 3.6 c 0,0.22091 -0.179086,0.4 -0.4,0.4 z m 104,-4 h -7.2 c -0.22091,0 -0.4,-0.17909 -0.4,-0.4 v -3.2 c 0,-0.22091 -0.17909,-0.4 -0.4,-0.4 h -11.2 c -0.22091,0 -0.4,-0.17909 -0.4,-0.4 v -3.2 c 0,-0.22091 0.17909,-0.4 0.4,-0.4 h 3.2 c 0.22091,0 0.4,-0.17909 0.4,-0.4 v -3.2 c 0,-0.22091 -0.17909,-0.4 -0.4,-0.4 h -3.2 c -0.22091,0 -0.4,-0.17909 -0.4,-0.4 V 108 h 4 v 3.6 c 0,0.22091 0.17909,0.4 0.4,0.4 h 7.2 c 0.22091,0 0.4,0.17909 0.4,0.4 v 3.2 c 0,0.22091 0.17909,0.4 0.4,0.4 h 3.2 c 0.22091,0 0.4,-0.17909 0.4,-0.4 v -3.2 c 0,-0.22091 0.17909,-0.4 0.4,-0.4 h 3.2 c 0.22091,0 0.4,-0.17909 0.4,-0.4 v -3.2 c 0,-0.22091 -0.17909,-0.4 -0.4,-0.4 h -7.2 c -0.22091,0 -0.4,-0.17909 -0.4,-0.4 V 88.4 c 0,-0.220914 0.17909,-0.4 0.4,-0.4 h 3.2 c 0.22091,0 0.4,-0.179086 0.4,-0.4 v -3.2 c 0,-0.220914 0.17909,-0.4 0.4,-0.4 h 7.6 v 3.6 c 0,0.220914 -0.17909,0.4 -0.4,0.4 h -3.2 c -0.22091,0 -0.4,0.179086 -0.4,0.4 V 92 h -3.6 c -0.22091,0 -0.4,0.179086 -0.4,0.4 v 7.2 c 0,0.220914 0.17909,0.4 0.4,0.4 h 3.2 c 0.22091,0 0.4,0.17909 0.4,0.4 v 3.2 c 0,0.22091 0.17909,0.4 0.4,0.4 h 7.2 c 0.22091,0 0.4,0.17909 0.4,0.4 v 3.2 c 0,0.22091 0.17909,0.4 0.4,0.4 h 7.2 c 0.22091,0 0.4,0.17909 0.4,0.4 v 7.6 h -7.6 c -0.22091,0 -0.4,0.17909 -0.4,0.4 v 7.6 h -7.6 c -0.22091,0 -0.4,0.17909 -0.4,0.4 v 3.6 z m -36,0 H 88 v -4 h 3.6 c 0.220914,0 0.4,0.17909 0.4,0.4 v 3.2 c 0,0.22091 -0.179086,0.4 -0.4,0.4 z m -12,0 H 72.4 C 72.179086,128 72,127.82091 72,127.6 V 124 h 8 v 4 z m -24,0 H 52.4 C 52.179086,128 52,127.82091 52,127.6 V 120 h 3.6 c 0.220914,0 0.4,0.17909 0.4,0.4 v 7.6 z m -28,0 H 24 v -7.6 c 0,-0.22091 -0.179086,-0.4 -0.4,-0.4 h -7.2 c -0.220914,0 -0.4,-0.17909 -0.4,-0.4 v -3.2 c 0,-0.22091 0.179086,-0.4 0.4,-0.4 h 7.2 c 0.220914,0 0.4,-0.17909 0.4,-0.4 V 112 h 4 v 3.6 c 0,0.22091 0.179086,0.4 0.4,0.4 h 3.2 c 0.220914,0 0.4,0.17909 0.4,0.4 v 7.6 h -3.6 c -0.220914,0 -0.4,0.17909 -0.4,0.4 v 3.6 z m 124,-4 h -3.2 c -0.22091,0 -0.4,-0.17909 -0.4,-0.4 V 120 h 3.6 c 0.22091,0 0.4,0.17909 0.4,0.4 v 3.6 z m -64,0 H 80 v -3.6 c 0,-0.22091 -0.179086,-0.4 -0.4,-0.4 h -7.2 c -0.220914,0 -0.4,0.17909 -0.4,0.4 v 3.6 h -4 v -8 h 11.6 c 0.220914,0 0.4,-0.17909 0.4,-0.4 v -3.2 c 0,-0.22091 0.179086,-0.4 0.4,-0.4 H 84 v 7.6 c 0,0.22091 0.179086,0.4 0.4,0.4 H 88 v 4 z m -40,0 H 40 v -4 h 3.6 c 0.220914,0 0.4,-0.17909 0.4,-0.4 V 116 h 3.6 c 0.220914,0 0.4,-0.17909 0.4,-0.4 v -3.2 c 0,-0.22091 0.179086,-0.4 0.4,-0.4 h 11.2 c 0.220914,0 0.4,-0.17909 0.4,-0.4 v -3.2 c 0,-0.22091 0.179086,-0.4 0.4,-0.4 H 64 v 3.6 c 0,0.22091 0.179086,0.4 0.4,0.4 h 3.2 c 0.220914,0 0.4,0.17909 0.4,0.4 v 3.6 h -3.6 c -0.220914,0 -0.4,0.17909 -0.4,0.4 v 3.2 c 0,0.22091 -0.179086,0.4 -0.4,0.4 h -3.2 c -0.220914,0 -0.4,-0.17909 -0.4,-0.4 v -3.2 c 0,-0.22091 -0.179086,-0.4 -0.4,-0.4 h -7.2 c -0.220914,0 -0.4,0.17909 -0.4,0.4 v 3.6 h -3.6 c -0.220914,0 -0.4,0.17909 -0.4,0.4 v 3.2 c 0,0.22091 -0.179086,0.4 -0.4,0.4 z m 100,-4 h -3.2 c -0.22091,0 -0.4,-0.17909 -0.4,-0.4 V 116 h 3.6 c 0.22091,0 0.4,0.17909 0.4,0.4 V 120 Z M 132,119.6 v -3.2 c 0,-0.22091 -0.17909,-0.4 -0.4,-0.4 h -3.2 c -0.22091,0 -0.4,0.17909 -0.4,0.4 v 3.2 c 0,0.22091 0.17909,0.4 0.4,0.4 h 3.2 c 0.22091,0 0.4,-0.17909 0.4,-0.4 z M 99.6,120 H 88 v -7.6 C 88,112.17909 87.820914,112 87.6,112 H 84 v -4 h 7.6 c 0.220914,0 0.4,-0.17909 0.4,-0.4 v -3.2 C 92,104.17909 91.820914,104 91.6,104 H 88.4 C 88.179086,104 88,103.82091 88,103.6 V 100 h 7.6 c 0.220914,0 0.4,-0.179086 0.4,-0.4 V 92 h 4 v 11.6 c 0,0.22091 -0.179086,0.4 -0.4,0.4 h -3.2 c -0.220914,0 -0.4,0.17909 -0.4,0.4 v 3.2 c 0,0.22091 0.179086,0.4 0.4,0.4 h 3.2 c 0.220914,0 0.4,0.17909 0.4,0.4 v 3.2 c 0,0.22091 0.17909,0.4 0.4,0.4 h 3.2 c 0.22091,0 0.4,0.17909 0.4,0.4 v 3.2 c 0,0.22091 -0.17909,0.4 -0.4,0.4 h -3.2 c -0.22091,0 -0.4,0.17909 -0.4,0.4 v 3.2 c 0,0.22091 -0.179086,0.4 -0.4,0.4 z m -60,0 h -3.2 c -0.220914,0 -0.4,-0.17909 -0.4,-0.4 v -3.2 c 0,-0.22091 0.179086,-0.4 0.4,-0.4 H 40 v 4 z m 124,-4 h -3.2 c -0.22091,0 -0.4,-0.17909 -0.4,-0.4 v -3.2 c 0,-0.22091 0.17909,-0.4 0.4,-0.4 h 3.2 c 0.22091,0 0.4,0.17909 0.4,0.4 v 3.2 c 0,0.22091 -0.17909,0.4 -0.4,0.4 z m -8,0 h -3.2 c -0.22091,0 -0.4,-0.17909 -0.4,-0.4 v -11.2 c 0,-0.22091 0.17909,-0.4 0.4,-0.4 h 3.2 c 0.22091,0 0.4,0.17909 0.4,0.4 v 11.2 c 0,0.22091 -0.17909,0.4 -0.4,0.4 z m -112,0 H 40 v -3.6 c 0,-0.22091 0.179086,-0.4 0.4,-0.4 h 3.2 c 0.220914,0 0.4,0.17909 0.4,0.4 v 3.6 z m -8,-4 H 28 v -3.6 c 0,-0.22091 0.179086,-0.4 0.4,-0.4 h 7.2 c 0.220914,0 0.4,0.17909 0.4,0.4 v 3.2 c 0,0.22091 -0.179086,0.4 -0.4,0.4 z m -12,0 h -3.2 c -0.220914,0 -0.4,-0.17909 -0.4,-0.4 v -3.2 c 0,-0.22091 0.179086,-0.4 0.4,-0.4 h 3.2 c 0.220914,0 0.4,0.17909 0.4,0.4 v 3.6 z m 92,-4 H 112 v -3.6 c 0,-0.22091 0.17909,-0.4 0.4,-0.4 h 3.2 c 0.22091,0 0.4,0.17909 0.4,0.4 v 3.2 c 0,0.22091 -0.17909,0.4 -0.4,0.4 z m -8,0 h -3.2 c -0.22091,0 -0.4,-0.17909 -0.4,-0.4 v -7.2 c 0,-0.22091 0.17909,-0.4 0.4,-0.4 h 3.6 v 8 z m -24,0 H 80.4 C 80.179086,108 80,107.82091 80,107.6 V 104 h 3.6 c 0.220914,0 0.4,0.17909 0.4,0.4 v 3.6 z m -16,0 H 64 v -3.6 C 64,104.17909 63.820914,104 63.6,104 H 60.4 C 60.179086,104 60,103.82091 60,103.6 V 100 h 11.6 c 0.220914,0 0.4,0.17909 0.4,0.4 v 3.2 c 0,0.22091 -0.179086,0.4 -0.4,0.4 h -3.2 c -0.220914,0 -0.4,0.17909 -0.4,0.4 v 3.2 c 0,0.22091 -0.179086,0.4 -0.4,0.4 z m -20,0 h -7.2 c -0.220914,0 -0.4,-0.17909 -0.4,-0.4 v -3.2 c 0,-0.22091 0.179086,-0.4 0.4,-0.4 H 48 v 3.6 c 0,0.22091 -0.179086,0.4 -0.4,0.4 z m 100,-4 h -3.2 c -0.22091,0 -0.4,-0.17909 -0.4,-0.4 v -3.2 c 0,-0.22091 0.17909,-0.4 0.4,-0.4 h 3.2 c 0.22091,0 0.4,0.17909 0.4,0.4 v 3.2 c 0,0.22091 -0.17909,0.4 -0.4,0.4 z m -68,0 h -3.2 c -0.220914,0 -0.4,-0.17909 -0.4,-0.4 v -3.2 c 0,-0.22091 0.179086,-0.4 0.4,-0.4 H 80 v 4 z m -24,0 H 48 v -4 h 8 v 3.6 c 0,0.22091 -0.179086,0.4 -0.4,0.4 z m -20,0 H 32.4 C 32.179086,104 32,103.82091 32,103.6 V 92.4 C 32,92.179086 31.820914,92 31.6,92 H 28 V 88.4 C 28,88.179086 28.179086,88 28.4,88 h 3.2 C 31.820914,88 32,87.820914 32,87.6 V 84.4 C 32,84.179086 31.820914,84 31.6,84 H 28.4 C 28.179086,84 28,83.820914 28,83.6 V 76 h 4 v 3.6 c 0,0.220914 0.179086,0.4 0.4,0.4 H 36 v 7.6 c 0,0.220914 0.179086,0.4 0.4,0.4 h 7.2 c 0.220914,0 0.4,0.179086 0.4,0.4 V 92 H 36.4 C 36.179086,92 36,92.179086 36,92.4 v 11.2 c 0,0.22091 -0.179086,0.4 -0.4,0.4 z m -8,0 H 16.4 c -0.220914,0 -0.4,-0.17909 -0.4,-0.4 v -3.2 c 0,-0.22091 0.179086,-0.4 0.4,-0.4 h 3.2 c 0.220914,0 0.4,-0.179086 0.4,-0.4 V 92.4 C 20,92.179086 19.820914,92 19.6,92 H 16.4 C 16.179086,92 16,91.820914 16,91.6 V 80.4 C 16,80.179086 16.179086,80 16.4,80 h 7.2 c 0.220914,0 0.4,0.179086 0.4,0.4 v 3.2 C 24,83.820914 23.820914,84 23.6,84 H 20.4 C 20.179086,84 20,84.179086 20,84.4 v 3.2 c 0,0.220914 0.179086,0.4 0.4,0.4 h 3.2 c 0.220914,0 0.4,0.179086 0.4,0.4 v 3.2 c 0,0.220914 0.179086,0.4 0.4,0.4 H 28 v 3.6 C 28,95.820914 27.820914,96 27.6,96 H 24.4 C 24.179086,96 24,96.179086 24,96.4 v 3.2 c 0,0.220914 0.179086,0.4 0.4,0.4 h 3.2 c 0.220914,0 0.4,0.17909 0.4,0.4 v 3.2 c 0,0.22091 -0.179086,0.4 -0.4,0.4 z m 132,-4 h -7.2 c -0.22091,0 -0.4,-0.179086 -0.4,-0.4 V 92 h 7.6 c 0.22091,0 0.4,0.179086 0.4,0.4 v 7.2 c 0,0.220914 -0.17909,0.4 -0.4,0.4 z m -20,0 h -3.2 c -0.22091,0 -0.4,-0.179086 -0.4,-0.4 v -3.2 c 0,-0.220914 0.17909,-0.4 0.4,-0.4 h 3.6 v 3.6 c 0,0.220914 -0.17909,0.4 -0.4,0.4 z m -24,0 H 108 v -4 h 3.6 c 0.22091,0 0.4,-0.179086 0.4,-0.4 V 92 h 3.6 c 0.22091,0 0.4,0.179086 0.4,0.4 v 7.2 c 0,0.220914 -0.17909,0.4 -0.4,0.4 z m -28,0 H 80 v -4 h 3.6 C 83.820914,96 84,95.820914 84,95.6 V 92.4 C 84,92.179086 84.179086,92 84.4,92 H 92 v 3.6 C 92,95.820914 91.820914,96 91.6,96 H 88.4 C 88.179086,96 88,96.179086 88,96.4 v 3.6 z m -28,0 H 56 V 96.4 C 56,96.179086 56.179086,96 56.4,96 H 60 v 4 z m -12,0 H 40.4 C 40.179086,100 40,99.820914 40,99.6 V 96.4 C 40,96.179086 40.179086,96 40.4,96 h 3.2 C 43.820914,96 44,95.820914 44,95.6 V 92 h 8 v 3.6 C 52,95.820914 51.820914,96 51.6,96 H 48.4 C 48.179086,96 48,96.179086 48,96.4 v 3.6 z m 100,-4 H 140 v -3.6 c 0,-0.220914 0.17909,-0.4 0.4,-0.4 h 3.2 c 0.22091,0 0.4,-0.179086 0.4,-0.4 V 84 h 4 v 3.6 c 0,0.220914 0.17909,0.4 0.4,0.4 h 3.2 c 0.22091,0 0.4,0.179086 0.4,0.4 V 92 h -3.6 c -0.22091,0 -0.4,0.179086 -0.4,0.4 v 3.2 c 0,0.220914 -0.17909,0.4 -0.4,0.4 z m -16,0 h -3.2 C 128.17909,96 128,95.820914 128,95.6 V 92 h 3.6 c 0.22091,0 0.4,0.179086 0.4,0.4 v 3.2 c 0,0.220914 -0.17909,0.4 -0.4,0.4 z m -24,0 h -3.2 C 104.17909,96 104,95.820914 104,95.6 V 92 h 4 v 4 z m -28,0 H 60 V 92.4 C 60,92.179086 59.820914,92 59.6,92 H 52 V 80 h 4 v 7.6 c 0,0.220914 0.179086,0.4 0.4,0.4 h 3.2 C 59.820914,88 60,87.820914 60,87.6 V 84.4 C 60,84.179086 60.179086,84 60.4,84 H 64 v 3.6 c 0,0.220914 0.179086,0.4 0.4,0.4 H 68 v 3.6 c 0,0.220914 0.179086,0.4 0.4,0.4 h 11.2 c 0.220914,0 0.4,0.179086 0.4,0.4 V 96 Z m 32,-4 H 108 V 88.4 C 108,88.179086 107.82091,88 107.6,88 H 104 V 84.4 C 104,84.179086 103.82091,84 103.6,84 H 100 V 76.4 C 100,76.179086 99.820914,76 99.6,76 H 96 v -8 h 16 v 3.6 c 0,0.220914 -0.17909,0.4 -0.4,0.4 h -3.2 c -0.22091,0 -0.4,0.179086 -0.4,0.4 V 76 h -3.6 c -0.22091,0 -0.4,0.179086 -0.4,0.4 v 3.2 c 0,0.220914 0.17909,0.4 0.4,0.4 h 3.6 v 3.6 c 0,0.220914 0.17909,0.4 0.4,0.4 h 3.2 c 0.22091,0 0.4,-0.179086 0.4,-0.4 V 80.4 C 112,80.179086 111.82091,80 111.6,80 H 108 v -4 h 7.6 c 0.22091,0 0.4,0.179086 0.4,0.4 v 11.2 c 0,0.220914 -0.17909,0.4 -0.4,0.4 h -3.2 c -0.22091,0 -0.4,0.179086 -0.4,0.4 V 92 Z m -8,0 H 100 v -4 h 4 v 4 z m -8,0 H 92 v -4 h 4 v 4 z m 4,-4 H 96 v -4 h 4 v 4 z m -8,0 H 76.4 C 76.179086,88 76,87.820914 76,87.6 V 84.4 C 76,84.179086 75.820914,84 75.6,84 H 72.4 C 72.179086,84 72,84.179086 72,84.4 v 3.2 C 72,87.820914 71.820914,88 71.6,88 H 68 V 84.4 C 68,84.179086 67.820914,84 67.6,84 H 64 v -4 h 7.6 C 71.820914,80 72,79.820914 72,79.6 V 76 h 3.6 C 75.820914,76 76,75.820914 76,75.6 V 68.4 C 76,68.179086 75.820914,68 75.6,68 H 68.4 C 68.179086,68 68,67.820914 68,67.6 V 64 h 16 v 3.6 C 84,67.820914 83.820914,68 83.6,68 H 80.4 C 80.179086,68 80,68.179086 80,68.4 v 7.2 c 0,0.220914 0.179086,0.4 0.4,0.4 H 88 v 3.6 c 0,0.220914 0.179086,0.4 0.4,0.4 h 3.2 C 91.820914,80 92,79.820914 92,79.6 V 76 h 4 v 8 H 92.4 C 92.179086,84 92,84.179086 92,84.4 V 88 Z m 68,-4 H 148 v -3.6 c 0,-0.220914 0.17909,-0.4 0.4,-0.4 h 3.2 c 0.22091,0 0.4,-0.179086 0.4,-0.4 v -3.2 c 0,-0.220914 -0.17909,-0.4 -0.4,-0.4 h -7.2 c -0.22091,0 -0.4,0.179086 -0.4,0.4 V 84 h -12 v -4 h 7.6 c 0.22091,0 0.4,-0.179086 0.4,-0.4 v -7.2 c 0,-0.220914 0.17909,-0.4 0.4,-0.4 h 3.2 c 0.22091,0 0.4,-0.179086 0.4,-0.4 V 68 h 4 v 3.6 c 0,0.220914 0.17909,0.4 0.4,0.4 h 3.2 c 0.22091,0 0.4,-0.179086 0.4,-0.4 V 68.4 C 152,68.179086 151.82091,68 151.6,68 H 148 v -4 h 3.6 c 0.22091,0 0.4,-0.179086 0.4,-0.4 V 52.4 c 0,-0.220914 0.17909,-0.4 0.4,-0.4 h 3.6 v 7.6 c 0,0.220914 0.17909,0.4 0.4,0.4 h 3.2 c 0.22091,0 0.4,0.179086 0.4,0.4 v 3.2 c 0,0.220914 -0.17909,0.4 -0.4,0.4 h -3.2 c -0.22091,0 -0.4,0.179086 -0.4,0.4 v 15.2 c 0,0.220914 0.17909,0.4 0.4,0.4 h 3.6 v 3.6 c 0,0.220914 -0.17909,0.4 -0.4,0.4 z M 84,83.6 V 80.4 C 84,80.179086 83.820914,80 83.6,80 H 80.4 C 80.179086,80 80,80.179086 80,80.4 v 3.2 c 0,0.220914 0.179086,0.4 0.4,0.4 h 3.2 C 83.820914,84 84,83.820914 84,83.6 Z M 47.6,84 H 40.4 C 40.179086,84 40,83.820914 40,83.6 V 80 h 8 v 3.6 c 0,0.220914 -0.179086,0.4 -0.4,0.4 z m 116,-4 H 160 v -3.6 c 0,-0.220914 0.17909,-0.4 0.4,-0.4 h 3.2 c 0.22091,0 0.4,0.179086 0.4,0.4 v 3.2 c 0,0.220914 -0.17909,0.4 -0.4,0.4 z m -32,0 h -3.2 C 128.17909,80 128,79.820914 128,79.6 V 76 h 4 v 4 z m -8,0 h -3.2 c -0.22091,0 -0.4,-0.179086 -0.4,-0.4 v -7.2 c 0,-0.220914 -0.17909,-0.4 -0.4,-0.4 h -3.2 C 116.17909,72 116,71.820914 116,71.6 V 68 h 7.6 c 0.22091,0 0.4,-0.179086 0.4,-0.4 v -3.2 c 0,-0.220914 -0.17909,-0.4 -0.4,-0.4 h -3.2 c -0.22091,0 -0.4,-0.179086 -0.4,-0.4 v -3.2 c 0,-0.220914 -0.17909,-0.4 -0.4,-0.4 h -11.2 c -0.22091,0 -0.4,0.179086 -0.4,0.4 v 3.2 c 0,0.220914 -0.17909,0.4 -0.4,0.4 h -3.2 C 104.17909,64 104,63.820914 104,63.6 V 56.4 C 104,56.179086 103.82091,56 103.6,56 H 100 v -4 h 3.6 c 0.22091,0 0.4,-0.179086 0.4,-0.4 v -3.2 c 0,-0.220914 0.17909,-0.4 0.4,-0.4 h 7.6 v 3.6 c 0,0.220914 0.17909,0.4 0.4,0.4 h 3.6 v 3.6 c 0,0.220914 0.17909,0.4 0.4,0.4 h 3.2 c 0.22091,0 0.4,-0.179086 0.4,-0.4 V 52 h 4 v 3.6 c 0,0.220914 0.17909,0.4 0.4,0.4 h 3.6 v 11.6 c 0,0.220914 0.17909,0.4 0.4,0.4 h 3.2 c 0.22091,0 0.4,-0.179086 0.4,-0.4 V 56.4 C 132,56.179086 131.82091,56 131.6,56 H 128 v -4 h 8 v 11.6 c 0,0.220914 0.17909,0.4 0.4,0.4 h 3.2 c 0.22091,0 0.4,-0.179086 0.4,-0.4 v -7.2 c 0,-0.220914 0.17909,-0.4 0.4,-0.4 h 3.2 c 0.22091,0 0.4,-0.179086 0.4,-0.4 V 52 h 3.6 c 0.22091,0 0.4,0.179086 0.4,0.4 V 64 h -3.6 c -0.22091,0 -0.4,0.179086 -0.4,0.4 V 68 h -7.6 c -0.22091,0 -0.4,0.179086 -0.4,0.4 v 7.2 c 0,0.220914 -0.17909,0.4 -0.4,0.4 H 132 v -3.6 c 0,-0.220914 -0.17909,-0.4 -0.4,-0.4 h -3.2 c -0.22091,0 -0.4,0.179086 -0.4,0.4 V 76 h -3.6 c -0.22091,0 -0.4,0.179086 -0.4,0.4 v 3.2 c 0,0.220914 -0.17909,0.4 -0.4,0.4 z m -60,0 H 56 v -4 h 3.6 C 59.820914,76 60,75.820914 60,75.6 V 72 h 11.6 c 0.220914,0 0.4,0.179086 0.4,0.4 V 76 H 64.4 C 64.179086,76 64,76.179086 64,76.4 V 80 Z m -12,0 H 48 v -8 h 8 v 4 H 52.4 C 52.179086,76 52,76.179086 52,76.4 V 80 Z m -12,0 H 36 v -4 h 4 v 4 z m 52,-4 H 88 V 68.4 C 88,68.179086 88.179086,68 88.4,68 H 92 v 8 z m -48,0 H 40 v -4 h 4 v 3.6 c 0,0.220914 -0.179086,0.4 -0.4,0.4 z m -8,0 H 32 V 72.4 C 32,72.179086 32.179086,72 32.4,72 H 36 v 4 z m -8,0 H 24.4 C 24.179086,76 24,75.820914 24,75.6 V 72.4 C 24,72.179086 23.820914,72 23.6,72 H 16.4 C 16.179086,72 16,71.820914 16,71.6 V 68.4 C 16,68.179086 16.179086,68 16.4,68 h 3.2 C 19.820914,68 20,67.820914 20,67.6 V 64.4 C 20,64.179086 20.179086,64 20.4,64 H 32 v 3.6 C 32,67.820914 31.820914,68 31.6,68 H 28.4 C 28.179086,68 28,68.179086 28,68.4 V 76 Z m 32,-4 H 56 v -4 h 3.6 c 0.220914,0 0.4,0.179086 0.4,0.4 V 72 Z m -12,0 H 44 V 68.4 C 44,68.179086 43.820914,68 43.6,68 H 40 V 64.4 C 40,64.179086 40.179086,64 40.4,64 h 7.2 c 0.220914,0 0.4,0.179086 0.4,0.4 V 72 Z m -8,0 H 36 V 68.4 C 36,68.179086 36.179086,68 36.4,68 H 40 v 4 z m 76,-4 H 112 v -3.6 c 0,-0.220914 0.17909,-0.4 0.4,-0.4 h 3.2 c 0.22091,0 0.4,0.179086 0.4,0.4 V 68 Z m -20,0 H 92 V 56 h 8 v 3.6 c 0,0.220914 -0.179086,0.4 -0.4,0.4 H 96.4 C 96.179086,60 96,60.179086 96,60.4 V 68 Z m -40,0 H 52.4 C 52.179086,68 52,67.820914 52,67.6 V 64.4 C 52,64.179086 52.179086,64 52.4,64 H 56 v 4 z m 32,-4 H 84 V 60.4 C 84,60.179086 83.820914,60 83.6,60 H 76.4 C 76.179086,60 76,59.820914 76,59.6 V 56.4 C 76,56.179086 75.820914,56 75.6,56 H 72 V 52 H 83.6 C 83.820914,52 84,51.820914 84,51.6 V 48 h 3.6 c 0.220914,0 0.4,0.179086 0.4,0.4 v 3.2 c 0,0.220914 0.179086,0.4 0.4,0.4 H 92 v 4 H 88.4 C 88.179086,56 88,56.179086 88,56.4 v 7.2 c 0,0.220914 -0.179086,0.4 -0.4,0.4 z m -20,0 H 64.4 C 64.179086,64 64,63.820914 64,63.6 V 60.4 C 64,60.179086 63.820914,60 63.6,60 H 60.4 C 60.179086,60 60,60.179086 60,60.4 v 3.2 C 60,63.820914 59.820914,64 59.6,64 H 56 V 56.4 C 56,56.179086 55.820914,56 55.6,56 H 52.4 C 52.179086,56 52,56.179086 52,56.4 v 3.2 C 52,59.820914 51.820914,60 51.6,60 H 48.4 C 48.179086,60 48,59.820914 48,59.6 V 56.4 C 48,56.179086 47.820914,56 47.6,56 H 44 V 52.4 C 44,52.179086 43.820914,52 43.6,52 H 40.4 C 40.179086,52 40,52.179086 40,52.4 v 3.2 c 0,0.220914 0.179086,0.4 0.4,0.4 H 44 v 3.6 C 44,59.820914 43.820914,60 43.6,60 H 36 V 56.4 C 36,56.179086 35.820914,56 35.6,56 H 28 V 52.4 C 28,52.179086 28.179086,52 28.4,52 h 3.2 C 31.820914,52 32,51.820914 32,51.6 V 48.4 C 32,48.179086 32.179086,48 32.4,48 H 48 v 3.6 c 0,0.220914 0.179086,0.4 0.4,0.4 h 3.2 C 51.820914,52 52,51.820914 52,51.6 V 48 h 3.6 C 55.820914,48 56,47.820914 56,47.6 V 40.4 C 56,40.179086 55.820914,40 55.6,40 H 52.4 C 52.179086,40 52,40.179086 52,40.4 V 48 H 48 V 36.4 C 48,36.179086 48.179086,36 48.4,36 H 59.6 C 59.820914,36 60,35.820914 60,35.6 V 32 h 3.6 C 63.820914,32 64,31.820914 64,31.6 V 28.4 C 64,28.179086 63.820914,28 63.6,28 H 60 V 24.4 C 60,24.179086 60.179086,24 60.4,24 h 3.2 C 63.820914,24 64,23.820914 64,23.6 V 20 h 4 v 3.6 c 0,0.220914 0.179086,0.4 0.4,0.4 h 3.2 C 71.820914,24 72,23.820914 72,23.6 V 20 h 3.6 c 0.220914,0 0.4,0.179086 0.4,0.4 v 3.2 c 0,0.220914 0.179086,0.4 0.4,0.4 H 80 v 7.6 c 0,0.220914 0.179086,0.4 0.4,0.4 h 7.2 c 0.220914,0 0.4,0.179086 0.4,0.4 V 36 H 76.4 C 76.179086,36 76,35.820914 76,35.6 V 28.4 C 76,28.179086 75.820914,28 75.6,28 H 72.4 C 72.179086,28 72,28.179086 72,28.4 v 7.2 C 72,35.820914 71.820914,36 71.6,36 H 68.4 C 68.179086,36 68,36.179086 68,36.4 v 7.2 c 0,0.220914 0.179086,0.4 0.4,0.4 H 72 v 8 H 68 V 48.4 C 68,48.179086 67.820914,48 67.6,48 H 64 V 40.4 C 64,40.179086 63.820914,40 63.6,40 H 60.4 C 60.179086,40 60,40.179086 60,40.4 v 7.2 c 0,0.220914 0.179086,0.4 0.4,0.4 H 64 v 4 H 60.4 C 60.179086,52 60,52.179086 60,52.4 v 3.2 c 0,0.220914 0.179086,0.4 0.4,0.4 h 3.2 C 63.820914,56 64,55.820914 64,55.6 V 52 h 4 v 3.6 c 0,0.220914 0.179086,0.4 0.4,0.4 H 72 v 3.6 C 72,59.820914 71.820914,60 71.6,60 H 68.4 C 68.179086,60 68,60.179086 68,60.4 V 64 Z m -32,0 H 32 V 60.4 C 32,60.179086 32.179086,60 32.4,60 H 36 v 3.6 c 0,0.220914 -0.179086,0.4 -0.4,0.4 z m -8,-4 H 16.4 C 16.179086,60 16,59.820914 16,59.6 V 52.4 C 16,52.179086 16.179086,52 16.4,52 h 3.2 c 0.220914,0 0.4,0.179086 0.4,0.4 v 3.2 c 0,0.220914 0.179086,0.4 0.4,0.4 H 28 v 3.6 c 0,0.220914 -0.179086,0.4 -0.4,0.4 z m 132,-8 H 156 v -3.6 c 0,-0.220914 0.17909,-0.4 0.4,-0.4 h 3.2 c 0.22091,0 0.4,0.179086 0.4,0.4 v 3.2 c 0,0.220914 -0.17909,0.4 -0.4,0.4 z m -16,0 H 136 v -3.6 c 0,-0.220914 0.17909,-0.4 0.4,-0.4 h 7.2 c 0.22091,0 0.4,0.179086 0.4,0.4 V 52 Z m -16,0 H 124 v -4 h 3.6 c 0.22091,0 0.4,0.179086 0.4,0.4 V 52 Z m -8,0 H 116 v -4 h 4 v 4 z m -20,0 H 92 V 48.4 C 92,48.179086 92.179086,48 92.4,48 h 3.2 C 95.820914,48 96,47.820914 96,47.6 V 40.4 C 96,40.179086 95.820914,40 95.6,40 H 92.4 C 92.179086,40 92,40.179086 92,40.4 v 3.2 C 92,43.820914 91.820914,44 91.6,44 H 88.4 C 88.179086,44 88,43.820914 88,43.6 V 36 h 7.6 C 95.820914,36 96,35.820914 96,35.6 V 32.4 C 96,32.179086 96.179086,32 96.4,32 h 3.2 c 0.220914,0 0.4,0.179086 0.4,0.4 V 52 Z m 24,-4 H 120 V 32.4 c 0,-0.220914 -0.17909,-0.4 -0.4,-0.4 h -3.2 C 116.17909,32 116,31.820914 116,31.6 V 28 h 3.6 c 0.22091,0 0.4,-0.179086 0.4,-0.4 v -3.2 c 0,-0.220914 0.17909,-0.4 0.4,-0.4 h 3.2 c 0.22091,0 0.4,0.179086 0.4,0.4 v 3.2 c 0,0.220914 0.17909,0.4 0.4,0.4 h 3.2 c 0.22091,0 0.4,-0.179086 0.4,-0.4 v -3.2 c 0,-0.220914 0.17909,-0.4 0.4,-0.4 h 3.2 c 0.22091,0 0.4,0.179086 0.4,0.4 v 7.2 c 0,0.220914 -0.17909,0.4 -0.4,0.4 h -3.2 c -0.22091,0 -0.4,0.179086 -0.4,0.4 V 36 h -3.6 c -0.22091,0 -0.4,0.179086 -0.4,0.4 V 48 Z m -8,0 H 112 v -7.6 c 0,-0.220914 0.17909,-0.4 0.4,-0.4 h 3.2 c 0.22091,0 0.4,0.179086 0.4,0.4 V 48 Z m -32,0 H 80.4 C 80.179086,48 80,47.820914 80,47.6 V 40.4 C 80,40.179086 80.179086,40 80.4,40 h 3.2 c 0.220914,0 0.4,0.179086 0.4,0.4 V 48 Z m 80,-4 H 136.4 C 136.17909,44 136,43.820914 136,43.6 V 16.4 c 0,-0.220914 0.17909,-0.4 0.4,-0.4 h 27.2 c 0.22091,0 0.4,0.179086 0.4,0.4 v 27.2 c 0,0.220914 -0.17909,0.4 -0.4,0.4 z m -32,0 h -3.2 C 128.17909,44 128,43.820914 128,43.6 V 36 h 3.6 c 0.22091,0 0.4,0.179086 0.4,0.4 v 7.2 c 0,0.220914 -0.17909,0.4 -0.4,0.4 z m -24,0 h -3.2 c -0.22091,0 -0.4,-0.179086 -0.4,-0.4 v -3.2 c 0,-0.220914 0.17909,-0.4 0.4,-0.4 h 3.2 c 0.22091,0 0.4,0.179086 0.4,0.4 v 3.2 c 0,0.220914 -0.17909,0.4 -0.4,0.4 z m -32,0 H 72 V 40.4 C 72,40.179086 72.179086,40 72.4,40 h 3.2 c 0.220914,0 0.4,0.179086 0.4,0.4 v 3.2 c 0,0.220914 -0.179086,0.4 -0.4,0.4 z m -32,0 H 16.4 C 16.179086,44 16,43.820914 16,43.6 V 16.4 C 16,16.179086 16.179086,16 16.4,16 h 27.2 c 0.220914,0 0.4,0.179086 0.4,0.4 V 43.6 C 44,43.820914 43.820914,44 43.6,44 Z M 160,39.6 V 20.4 c 0,-0.220914 -0.17909,-0.4 -0.4,-0.4 h -19.2 c -0.22091,0 -0.4,0.179086 -0.4,0.4 v 19.2 c 0,0.220914 0.17909,0.4 0.4,0.4 h 19.2 c 0.22091,0 0.4,-0.179086 0.4,-0.4 z m -120,0 V 20.4 C 40,20.179086 39.820914,20 39.6,20 H 20.4 C 20.179086,20 20,20.179086 20,20.4 v 19.2 c 0,0.220914 0.179086,0.4 0.4,0.4 H 39.6 C 39.820914,40 40,39.820914 40,39.6 Z M 155.6,36 H 144.4 C 144.17909,36 144,35.820914 144,35.6 V 24.4 c 0,-0.220914 0.17909,-0.4 0.4,-0.4 h 11.2 c 0.22091,0 0.4,0.179086 0.4,0.4 v 11.2 c 0,0.220914 -0.17909,0.4 -0.4,0.4 z m -48,0 h -3.2 c -0.22091,0 -0.4,-0.179086 -0.4,-0.4 v -7.2 c 0,-0.220914 -0.17909,-0.4 -0.4,-0.4 h -3.2 c -0.22091,0 -0.4,-0.179086 -0.4,-0.4 v -3.2 c 0,-0.220914 0.17909,-0.4 0.4,-0.4 h 7.6 v 11.6 c 0,0.220914 -0.17909,0.4 -0.4,0.4 z m -72,0 H 24.4 C 24.179086,36 24,35.820914 24,35.6 V 24.4 C 24,24.179086 24.179086,24 24.4,24 h 11.2 c 0.220914,0 0.4,0.179086 0.4,0.4 v 11.2 c 0,0.220914 -0.179086,0.4 -0.4,0.4 z m 24,-4 H 56.4 C 56.179086,32 56,31.820914 56,31.6 V 28.4 C 56,28.179086 56.179086,28 56.4,28 H 60 v 4 z m 56,-4 h -3.2 C 112.17909,28 112,27.820914 112,27.6 V 24.4 C 112,24.179086 111.82091,24 111.6,24 H 108 v -3.6 c 0,-0.220914 0.17909,-0.4 0.4,-0.4 h 7.2 c 0.22091,0 0.4,0.179086 0.4,0.4 V 28 Z m -20,0 H 88.4 C 88.179086,28 88,27.820914 88,27.6 V 20.4 C 88,20.179086 88.179086,20 88.4,20 H 92 v 3.6 c 0,0.220914 0.179086,0.4 0.4,0.4 h 3.2 c 0.220914,0 0.4,0.179086 0.4,0.4 v 3.2 c 0,0.220914 -0.179086,0.4 -0.4,0.4 z m -12,-4 H 80 V 20.4 C 80,20.179086 80.179086,20 80.4,20 h 3.2 c 0.220914,0 0.4,0.179086 0.4,0.4 v 3.2 c 0,0.220914 -0.179086,0.4 -0.4,0.4 z m -32,0 H 48.4 C 48.179086,24 48,23.820914 48,23.6 V 20.4 C 48,20.179086 48.179086,20 48.4,20 H 52 v 3.6 c 0,0.220914 -0.179086,0.4 -0.4,0.4 z m 80,-4 h -11.2 c -0.22091,0 -0.4,-0.179086 -0.4,-0.4 v -3.2 c 0,-0.220914 0.17909,-0.4 0.4,-0.4 h 11.2 c 0.22091,0 0.4,0.179086 0.4,0.4 v 3.2 c 0,0.220914 -0.17909,0.4 -0.4,0.4 z m -32,0 H 92 V 16.4 C 92,16.179086 92.179086,16 92.4,16 h 7.2 c 0.220914,0 0.4,0.179086 0.4,0.4 v 3.2 c 0,0.220914 -0.179086,0.4 -0.4,0.4 z m -28,0 H 68 V 16.4 C 68,16.179086 68.179086,16 68.4,16 h 3.2 c 0.220914,0 0.4,0.179086 0.4,0.4 V 20 Z m -8,0 H 52 V 16.4 C 52,16.179086 52.179086,16 52.4,16 h 11.2 c 0.220914,0 0.4,0.179086 0.4,0.4 V 20 Z"
           id="path4753" />
      </g>
    </g>
  </g>
</svg>
