G04 #@! TF.GenerationSoftware,KiCad,Pcbnew,(6.99.0-2452-gdb4f2d9dd8)*
G04 #@! TF.CreationDate,2022-07-25T19:23:05-05:00*
G04 #@! TF.ProjectId,B2,42322e6b-6963-4616-945f-706362585858,rev?*
G04 #@! TF.SameCoordinates,Original*
G04 #@! TF.FileFunction,Legend,Bot*
G04 #@! TF.FilePolarity,Positive*
%FSLAX46Y46*%
G04 Gerber Fmt 4.6, Leading zero omitted, Abs format (unit mm)*
G04 Created by KiCad (PCBNEW (6.99.0-2452-gdb4f2d9dd8)) date 2022-07-25 19:23:05*
%MOMM*%
%LPD*%
G01*
G04 APERTURE LIST*
G04 Aperture macros list*
%AMRoundRect*
0 Rectangle with rounded corners*
0 $1 Rounding radius*
0 $2 $3 $4 $5 $6 $7 $8 $9 X,Y pos of 4 corners*
0 Add a 4 corners polygon primitive as box body*
4,1,4,$2,$3,$4,$5,$6,$7,$8,$9,$2,$3,0*
0 Add four circle primitives for the rounded corners*
1,1,$1+$1,$2,$3*
1,1,$1+$1,$4,$5*
1,1,$1+$1,$6,$7*
1,1,$1+$1,$8,$9*
0 Add four rect primitives between the rounded corners*
20,1,$1+$1,$2,$3,$4,$5,0*
20,1,$1+$1,$4,$5,$6,$7,0*
20,1,$1+$1,$6,$7,$8,$9,0*
20,1,$1+$1,$8,$9,$2,$3,0*%
G04 Aperture macros list end*
%ADD10C,0.300000*%
%ADD11C,0.150000*%
%ADD12C,0.120000*%
%ADD13C,0.400000*%
%ADD14C,0.090000*%
%ADD15C,1.600000*%
%ADD16R,1.000000X3.150000*%
%ADD17RoundRect,0.250000X0.400000X0.625000X-0.400000X0.625000X-0.400000X-0.625000X0.400000X-0.625000X0*%
%ADD18R,1.400000X2.600000*%
G04 APERTURE END LIST*
D10*
X155114285Y-101851071D02*
X155114285Y-103136785D01*
X155114285Y-103136785D02*
X155185713Y-103279642D01*
X155185713Y-103279642D02*
X155328570Y-103351071D01*
X155328570Y-103351071D02*
X155399999Y-103351071D01*
X155114285Y-101351071D02*
X155185713Y-101422500D01*
X155185713Y-101422500D02*
X155114285Y-101493928D01*
X155114285Y-101493928D02*
X155042856Y-101422500D01*
X155042856Y-101422500D02*
X155114285Y-101351071D01*
X155114285Y-101351071D02*
X155114285Y-101493928D01*
X154185713Y-102851071D02*
X154328570Y-102779642D01*
X154328570Y-102779642D02*
X154399999Y-102636785D01*
X154399999Y-102636785D02*
X154399999Y-101351071D01*
X152971428Y-102779642D02*
X153114285Y-102851071D01*
X153114285Y-102851071D02*
X153399999Y-102851071D01*
X153399999Y-102851071D02*
X153542856Y-102779642D01*
X153542856Y-102779642D02*
X153614285Y-102708214D01*
X153614285Y-102708214D02*
X153685713Y-102565357D01*
X153685713Y-102565357D02*
X153685713Y-102136785D01*
X153685713Y-102136785D02*
X153614285Y-101993928D01*
X153614285Y-101993928D02*
X153542856Y-101922500D01*
X153542856Y-101922500D02*
X153399999Y-101851071D01*
X153399999Y-101851071D02*
X153114285Y-101851071D01*
X153114285Y-101851071D02*
X152971428Y-101922500D01*
X152328571Y-101851071D02*
X152328571Y-103136785D01*
X152328571Y-103136785D02*
X152399999Y-103279642D01*
X152399999Y-103279642D02*
X152542856Y-103351071D01*
X152542856Y-103351071D02*
X152614285Y-103351071D01*
X152328571Y-101351071D02*
X152399999Y-101422500D01*
X152399999Y-101422500D02*
X152328571Y-101493928D01*
X152328571Y-101493928D02*
X152257142Y-101422500D01*
X152257142Y-101422500D02*
X152328571Y-101351071D01*
X152328571Y-101351071D02*
X152328571Y-101493928D01*
X151399999Y-102851071D02*
X151542856Y-102779642D01*
X151542856Y-102779642D02*
X151614285Y-102636785D01*
X151614285Y-102636785D02*
X151614285Y-101351071D01*
X150185714Y-102779642D02*
X150328571Y-102851071D01*
X150328571Y-102851071D02*
X150614285Y-102851071D01*
X150614285Y-102851071D02*
X150757142Y-102779642D01*
X150757142Y-102779642D02*
X150828571Y-102708214D01*
X150828571Y-102708214D02*
X150899999Y-102565357D01*
X150899999Y-102565357D02*
X150899999Y-102136785D01*
X150899999Y-102136785D02*
X150828571Y-101993928D01*
X150828571Y-101993928D02*
X150757142Y-101922500D01*
X150757142Y-101922500D02*
X150614285Y-101851071D01*
X150614285Y-101851071D02*
X150328571Y-101851071D01*
X150328571Y-101851071D02*
X150185714Y-101922500D01*
X149542857Y-101851071D02*
X149542857Y-103136785D01*
X149542857Y-103136785D02*
X149614285Y-103279642D01*
X149614285Y-103279642D02*
X149757142Y-103351071D01*
X149757142Y-103351071D02*
X149828571Y-103351071D01*
X149542857Y-101351071D02*
X149614285Y-101422500D01*
X149614285Y-101422500D02*
X149542857Y-101493928D01*
X149542857Y-101493928D02*
X149471428Y-101422500D01*
X149471428Y-101422500D02*
X149542857Y-101351071D01*
X149542857Y-101351071D02*
X149542857Y-101493928D01*
X148614285Y-102851071D02*
X148757142Y-102779642D01*
X148757142Y-102779642D02*
X148828571Y-102636785D01*
X148828571Y-102636785D02*
X148828571Y-101351071D01*
X147400000Y-102779642D02*
X147542857Y-102851071D01*
X147542857Y-102851071D02*
X147828571Y-102851071D01*
X147828571Y-102851071D02*
X147971428Y-102779642D01*
X147971428Y-102779642D02*
X148042857Y-102708214D01*
X148042857Y-102708214D02*
X148114285Y-102565357D01*
X148114285Y-102565357D02*
X148114285Y-102136785D01*
X148114285Y-102136785D02*
X148042857Y-101993928D01*
X148042857Y-101993928D02*
X147971428Y-101922500D01*
X147971428Y-101922500D02*
X147828571Y-101851071D01*
X147828571Y-101851071D02*
X147542857Y-101851071D01*
X147542857Y-101851071D02*
X147400000Y-101922500D01*
X146757143Y-101851071D02*
X146757143Y-103136785D01*
X146757143Y-103136785D02*
X146828571Y-103279642D01*
X146828571Y-103279642D02*
X146971428Y-103351071D01*
X146971428Y-103351071D02*
X147042857Y-103351071D01*
X146757143Y-101351071D02*
X146828571Y-101422500D01*
X146828571Y-101422500D02*
X146757143Y-101493928D01*
X146757143Y-101493928D02*
X146685714Y-101422500D01*
X146685714Y-101422500D02*
X146757143Y-101351071D01*
X146757143Y-101351071D02*
X146757143Y-101493928D01*
X145828571Y-102851071D02*
X145971428Y-102779642D01*
X145971428Y-102779642D02*
X146042857Y-102636785D01*
X146042857Y-102636785D02*
X146042857Y-101351071D01*
X144614286Y-102779642D02*
X144757143Y-102851071D01*
X144757143Y-102851071D02*
X145042857Y-102851071D01*
X145042857Y-102851071D02*
X145185714Y-102779642D01*
X145185714Y-102779642D02*
X145257143Y-102708214D01*
X145257143Y-102708214D02*
X145328571Y-102565357D01*
X145328571Y-102565357D02*
X145328571Y-102136785D01*
X145328571Y-102136785D02*
X145257143Y-101993928D01*
X145257143Y-101993928D02*
X145185714Y-101922500D01*
X145185714Y-101922500D02*
X145042857Y-101851071D01*
X145042857Y-101851071D02*
X144757143Y-101851071D01*
X144757143Y-101851071D02*
X144614286Y-101922500D01*
D11*
X127859303Y-96359410D02*
X128573589Y-96359410D01*
X128573589Y-96359410D02*
X128716446Y-96311791D01*
X128716446Y-96311791D02*
X128811684Y-96216553D01*
X128811684Y-96216553D02*
X128859303Y-96073696D01*
X128859303Y-96073696D02*
X128859303Y-95978458D01*
X128859303Y-97359410D02*
X128859303Y-96787982D01*
X128859303Y-97073696D02*
X127859303Y-97073696D01*
X127859303Y-97073696D02*
X128002161Y-96978458D01*
X128002161Y-96978458D02*
X128097399Y-96883220D01*
X128097399Y-96883220D02*
X128145018Y-96787982D01*
X146616989Y-86732230D02*
X146950322Y-86256040D01*
X147188417Y-86732230D02*
X147188417Y-85732230D01*
X147188417Y-85732230D02*
X146807465Y-85732230D01*
X146807465Y-85732230D02*
X146712227Y-85779850D01*
X146712227Y-85779850D02*
X146664608Y-85827469D01*
X146664608Y-85827469D02*
X146616989Y-85922707D01*
X146616989Y-85922707D02*
X146616989Y-86065564D01*
X146616989Y-86065564D02*
X146664608Y-86160802D01*
X146664608Y-86160802D02*
X146712227Y-86208421D01*
X146712227Y-86208421D02*
X146807465Y-86256040D01*
X146807465Y-86256040D02*
X147188417Y-86256040D01*
X145664608Y-86732230D02*
X146236036Y-86732230D01*
X145950322Y-86732230D02*
X145950322Y-85732230D01*
X145950322Y-85732230D02*
X146045560Y-85875088D01*
X146045560Y-85875088D02*
X146140798Y-85970326D01*
X146140798Y-85970326D02*
X146236036Y-86017945D01*
X145714520Y-80086785D02*
X144714520Y-80086785D01*
X144714520Y-80086785D02*
X144714520Y-80324880D01*
X144714520Y-80324880D02*
X144762140Y-80467737D01*
X144762140Y-80467737D02*
X144857378Y-80562975D01*
X144857378Y-80562975D02*
X144952616Y-80610594D01*
X144952616Y-80610594D02*
X145143092Y-80658213D01*
X145143092Y-80658213D02*
X145285949Y-80658213D01*
X145285949Y-80658213D02*
X145476425Y-80610594D01*
X145476425Y-80610594D02*
X145571663Y-80562975D01*
X145571663Y-80562975D02*
X145666901Y-80467737D01*
X145666901Y-80467737D02*
X145714520Y-80324880D01*
X145714520Y-80324880D02*
X145714520Y-80086785D01*
X145714520Y-81610594D02*
X145714520Y-81039166D01*
X145714520Y-81324880D02*
X144714520Y-81324880D01*
X144714520Y-81324880D02*
X144857378Y-81229642D01*
X144857378Y-81229642D02*
X144952616Y-81134404D01*
X144952616Y-81134404D02*
X145000235Y-81039166D01*
D12*
X130061923Y-92652744D02*
X130061923Y-94092744D01*
X137231923Y-94092744D02*
X137231923Y-99292744D01*
X136661923Y-94092744D02*
X137231923Y-94092744D01*
X134121923Y-94092744D02*
X135141923Y-94092744D01*
X131581923Y-94092744D02*
X132601923Y-94092744D01*
X129491923Y-94092744D02*
X130061923Y-94092744D01*
X129491923Y-94092744D02*
X129491923Y-99292744D01*
X136661923Y-99292744D02*
X137231923Y-99292744D01*
X134121923Y-99292744D02*
X135141923Y-99292744D01*
X131581923Y-99292744D02*
X132601923Y-99292744D01*
X129491923Y-99292744D02*
X130061923Y-99292744D01*
X147177387Y-89094850D02*
X145723259Y-89094850D01*
X147177387Y-87274850D02*
X145723259Y-87274850D01*
D13*
X146942827Y-79529940D02*
G75*
G03*
X146942827Y-79529940I-200000J0D01*
G01*
%LPC*%
D14*
G36*
X152994197Y-80617185D02*
G01*
X153052642Y-80747679D01*
X153122467Y-80909395D01*
X153196752Y-81090232D01*
X153233403Y-81184039D01*
X153268573Y-81278089D01*
X153301398Y-81370868D01*
X153331011Y-81460865D01*
X153356548Y-81546565D01*
X153377143Y-81626458D01*
X153394639Y-81709934D01*
X153410835Y-81803264D01*
X153439420Y-82011077D01*
X153463088Y-82233073D01*
X153482028Y-82452431D01*
X153506482Y-82815937D01*
X153514297Y-82967013D01*
X152744466Y-82958193D01*
X152666487Y-82495298D01*
X152595767Y-82107685D01*
X152560277Y-81930548D01*
X152527673Y-81785746D01*
X152510580Y-81722854D01*
X152490127Y-81658055D01*
X152466931Y-81592171D01*
X152441606Y-81526025D01*
X152387037Y-81396242D01*
X152331344Y-81275290D01*
X152279453Y-81169753D01*
X152236289Y-81086218D01*
X152195848Y-81011488D01*
X152939135Y-80498268D01*
X152994197Y-80617185D01*
G37*
X152994197Y-80617185D02*
X153052642Y-80747679D01*
X153122467Y-80909395D01*
X153196752Y-81090232D01*
X153233403Y-81184039D01*
X153268573Y-81278089D01*
X153301398Y-81370868D01*
X153331011Y-81460865D01*
X153356548Y-81546565D01*
X153377143Y-81626458D01*
X153394639Y-81709934D01*
X153410835Y-81803264D01*
X153439420Y-82011077D01*
X153463088Y-82233073D01*
X153482028Y-82452431D01*
X153506482Y-82815937D01*
X153514297Y-82967013D01*
X152744466Y-82958193D01*
X152666487Y-82495298D01*
X152595767Y-82107685D01*
X152560277Y-81930548D01*
X152527673Y-81785746D01*
X152510580Y-81722854D01*
X152490127Y-81658055D01*
X152466931Y-81592171D01*
X152441606Y-81526025D01*
X152387037Y-81396242D01*
X152331344Y-81275290D01*
X152279453Y-81169753D01*
X152236289Y-81086218D01*
X152195848Y-81011488D01*
X152939135Y-80498268D01*
X152994197Y-80617185D01*
G36*
X150710915Y-78235039D02*
G01*
X150744960Y-78239029D01*
X150791253Y-78246264D01*
X150849004Y-78257692D01*
X150917423Y-78274265D01*
X150995719Y-78296932D01*
X151083102Y-78326645D01*
X151178781Y-78364354D01*
X151229485Y-78386503D01*
X151281966Y-78411008D01*
X151336127Y-78437988D01*
X151391868Y-78467560D01*
X151449090Y-78499844D01*
X151507694Y-78534958D01*
X151567583Y-78573022D01*
X151628656Y-78614154D01*
X151690816Y-78658473D01*
X151753963Y-78706097D01*
X151817999Y-78757147D01*
X151882824Y-78811739D01*
X151948341Y-78869994D01*
X152014450Y-78932030D01*
X152109481Y-79029174D01*
X152199584Y-79131718D01*
X152284594Y-79238052D01*
X152364344Y-79346565D01*
X152438668Y-79455649D01*
X152507401Y-79563692D01*
X152570375Y-79669086D01*
X152627426Y-79770221D01*
X152723092Y-79953273D01*
X152793069Y-80099969D01*
X152850645Y-80232780D01*
X152850649Y-80232784D01*
X152054270Y-80772549D01*
X151999913Y-80715158D01*
X151936900Y-80651772D01*
X151897873Y-80613842D01*
X151854382Y-80572682D01*
X151806837Y-80528989D01*
X151755648Y-80483458D01*
X151701229Y-80436786D01*
X151643988Y-80389668D01*
X151584339Y-80342800D01*
X151522691Y-80296879D01*
X151459456Y-80252600D01*
X151427371Y-80231294D01*
X151395044Y-80210660D01*
X151318480Y-80165149D01*
X151245395Y-80126089D01*
X151175993Y-80092995D01*
X151110475Y-80065383D01*
X151049040Y-80042766D01*
X150991892Y-80024661D01*
X150939231Y-80010582D01*
X150891259Y-80000044D01*
X150848176Y-79992562D01*
X150810185Y-79987651D01*
X150750281Y-79983604D01*
X150700425Y-79985021D01*
X150682730Y-78232987D01*
X150710915Y-78235039D01*
G37*
X150710915Y-78235039D02*
X150744960Y-78239029D01*
X150791253Y-78246264D01*
X150849004Y-78257692D01*
X150917423Y-78274265D01*
X150995719Y-78296932D01*
X151083102Y-78326645D01*
X151178781Y-78364354D01*
X151229485Y-78386503D01*
X151281966Y-78411008D01*
X151336127Y-78437988D01*
X151391868Y-78467560D01*
X151449090Y-78499844D01*
X151507694Y-78534958D01*
X151567583Y-78573022D01*
X151628656Y-78614154D01*
X151690816Y-78658473D01*
X151753963Y-78706097D01*
X151817999Y-78757147D01*
X151882824Y-78811739D01*
X151948341Y-78869994D01*
X152014450Y-78932030D01*
X152109481Y-79029174D01*
X152199584Y-79131718D01*
X152284594Y-79238052D01*
X152364344Y-79346565D01*
X152438668Y-79455649D01*
X152507401Y-79563692D01*
X152570375Y-79669086D01*
X152627426Y-79770221D01*
X152723092Y-79953273D01*
X152793069Y-80099969D01*
X152850645Y-80232780D01*
X152850649Y-80232784D01*
X152054270Y-80772549D01*
X151999913Y-80715158D01*
X151936900Y-80651772D01*
X151897873Y-80613842D01*
X151854382Y-80572682D01*
X151806837Y-80528989D01*
X151755648Y-80483458D01*
X151701229Y-80436786D01*
X151643988Y-80389668D01*
X151584339Y-80342800D01*
X151522691Y-80296879D01*
X151459456Y-80252600D01*
X151427371Y-80231294D01*
X151395044Y-80210660D01*
X151318480Y-80165149D01*
X151245395Y-80126089D01*
X151175993Y-80092995D01*
X151110475Y-80065383D01*
X151049040Y-80042766D01*
X150991892Y-80024661D01*
X150939231Y-80010582D01*
X150891259Y-80000044D01*
X150848176Y-79992562D01*
X150810185Y-79987651D01*
X150750281Y-79983604D01*
X150700425Y-79985021D01*
X150682730Y-78232987D01*
X150710915Y-78235039D01*
G36*
X150417275Y-80002720D02*
G01*
X150367419Y-80001302D01*
X150307515Y-80005350D01*
X150269524Y-80010260D01*
X150226441Y-80017742D01*
X150178469Y-80028280D01*
X150125808Y-80042359D01*
X150068660Y-80060464D01*
X150007225Y-80083081D01*
X149941707Y-80110693D01*
X149872305Y-80143787D01*
X149799220Y-80182847D01*
X149722656Y-80228358D01*
X149690329Y-80248993D01*
X149658244Y-80270298D01*
X149595009Y-80314577D01*
X149533361Y-80360498D01*
X149473712Y-80407366D01*
X149416471Y-80454484D01*
X149362052Y-80501156D01*
X149310863Y-80546687D01*
X149263318Y-80590381D01*
X149219827Y-80631540D01*
X149180800Y-80669470D01*
X149117787Y-80732856D01*
X149063430Y-80790247D01*
X148267051Y-80250482D01*
X148267055Y-80250479D01*
X148324631Y-80117667D01*
X148394608Y-79970971D01*
X148490274Y-79787919D01*
X148547325Y-79686785D01*
X148610299Y-79581391D01*
X148679032Y-79473347D01*
X148753356Y-79364263D01*
X148833106Y-79255750D01*
X148918116Y-79149416D01*
X149008219Y-79046873D01*
X149103250Y-78949728D01*
X149169359Y-78887692D01*
X149234876Y-78829438D01*
X149299701Y-78774845D01*
X149363737Y-78723796D01*
X149426884Y-78676171D01*
X149489044Y-78631852D01*
X149550117Y-78590720D01*
X149610006Y-78552656D01*
X149668610Y-78517542D01*
X149725832Y-78485258D01*
X149781573Y-78455686D01*
X149835734Y-78428707D01*
X149888215Y-78404202D01*
X149938919Y-78382052D01*
X150034598Y-78344343D01*
X150121981Y-78314630D01*
X150200277Y-78291963D01*
X150268696Y-78275390D01*
X150326447Y-78263962D01*
X150372740Y-78256728D01*
X150406785Y-78252737D01*
X150434970Y-78250685D01*
X150417275Y-80002720D01*
G37*
X150417275Y-80002720D02*
X150367419Y-80001302D01*
X150307515Y-80005350D01*
X150269524Y-80010260D01*
X150226441Y-80017742D01*
X150178469Y-80028280D01*
X150125808Y-80042359D01*
X150068660Y-80060464D01*
X150007225Y-80083081D01*
X149941707Y-80110693D01*
X149872305Y-80143787D01*
X149799220Y-80182847D01*
X149722656Y-80228358D01*
X149690329Y-80248993D01*
X149658244Y-80270298D01*
X149595009Y-80314577D01*
X149533361Y-80360498D01*
X149473712Y-80407366D01*
X149416471Y-80454484D01*
X149362052Y-80501156D01*
X149310863Y-80546687D01*
X149263318Y-80590381D01*
X149219827Y-80631540D01*
X149180800Y-80669470D01*
X149117787Y-80732856D01*
X149063430Y-80790247D01*
X148267051Y-80250482D01*
X148267055Y-80250479D01*
X148324631Y-80117667D01*
X148394608Y-79970971D01*
X148490274Y-79787919D01*
X148547325Y-79686785D01*
X148610299Y-79581391D01*
X148679032Y-79473347D01*
X148753356Y-79364263D01*
X148833106Y-79255750D01*
X148918116Y-79149416D01*
X149008219Y-79046873D01*
X149103250Y-78949728D01*
X149169359Y-78887692D01*
X149234876Y-78829438D01*
X149299701Y-78774845D01*
X149363737Y-78723796D01*
X149426884Y-78676171D01*
X149489044Y-78631852D01*
X149550117Y-78590720D01*
X149610006Y-78552656D01*
X149668610Y-78517542D01*
X149725832Y-78485258D01*
X149781573Y-78455686D01*
X149835734Y-78428707D01*
X149888215Y-78404202D01*
X149938919Y-78382052D01*
X150034598Y-78344343D01*
X150121981Y-78314630D01*
X150200277Y-78291963D01*
X150268696Y-78275390D01*
X150326447Y-78263962D01*
X150372740Y-78256728D01*
X150406785Y-78252737D01*
X150434970Y-78250685D01*
X150417275Y-80002720D01*
G36*
X148904152Y-81011488D02*
G01*
X148863711Y-81086218D01*
X148820547Y-81169753D01*
X148768656Y-81275290D01*
X148712963Y-81396242D01*
X148658394Y-81526025D01*
X148633069Y-81592171D01*
X148609873Y-81658055D01*
X148589420Y-81722854D01*
X148572327Y-81785746D01*
X148539723Y-81930548D01*
X148504233Y-82107685D01*
X148433513Y-82495298D01*
X148355534Y-82958193D01*
X147585703Y-82967013D01*
X147593518Y-82815937D01*
X147617972Y-82452431D01*
X147636912Y-82233073D01*
X147660580Y-82011077D01*
X147689165Y-81803264D01*
X147705361Y-81709934D01*
X147722857Y-81626458D01*
X147743452Y-81546565D01*
X147768989Y-81460865D01*
X147798602Y-81370868D01*
X147831427Y-81278089D01*
X147866597Y-81184039D01*
X147903248Y-81090232D01*
X147977533Y-80909395D01*
X148047358Y-80747679D01*
X148105803Y-80617185D01*
X148160865Y-80498268D01*
X148904152Y-81011488D01*
G37*
X148904152Y-81011488D02*
X148863711Y-81086218D01*
X148820547Y-81169753D01*
X148768656Y-81275290D01*
X148712963Y-81396242D01*
X148658394Y-81526025D01*
X148633069Y-81592171D01*
X148609873Y-81658055D01*
X148589420Y-81722854D01*
X148572327Y-81785746D01*
X148539723Y-81930548D01*
X148504233Y-82107685D01*
X148433513Y-82495298D01*
X148355534Y-82958193D01*
X147585703Y-82967013D01*
X147593518Y-82815937D01*
X147617972Y-82452431D01*
X147636912Y-82233073D01*
X147660580Y-82011077D01*
X147689165Y-81803264D01*
X147705361Y-81709934D01*
X147722857Y-81626458D01*
X147743452Y-81546565D01*
X147768989Y-81460865D01*
X147798602Y-81370868D01*
X147831427Y-81278089D01*
X147866597Y-81184039D01*
X147903248Y-81090232D01*
X147977533Y-80909395D01*
X148047358Y-80747679D01*
X148105803Y-80617185D01*
X148160865Y-80498268D01*
X148904152Y-81011488D01*
D15*
X151265240Y-81292140D02*
G75*
G03*
X151265240Y-81292140I-800000J0D01*
G01*
D16*
X130821922Y-94167743D03*
X130821922Y-99217743D03*
X133361922Y-94167743D03*
X133361922Y-99217743D03*
X135901922Y-94167743D03*
X135901922Y-99217743D03*
D17*
X148000323Y-88184850D03*
X144900323Y-88184850D03*
D18*
X153049999Y-81149999D03*
X147849999Y-81149999D03*
M02*
