G04 #@! TF.GenerationSoftware,KiCad,Pcbnew,(6.99.0-2452-gdb4f2d9dd8)*
G04 #@! TF.CreationDate,2022-07-21T17:42:46-08:00*
G04 #@! TF.ProjectId,B2,42322e6b-6963-4616-945f-706362585858,rev?*
G04 #@! TF.SameCoordinates,Original*
G04 #@! TF.FileFunction,Copper,L2,Bot*
G04 #@! TF.FilePolarity,Positive*
%FSLAX46Y46*%
G04 Gerber Fmt 4.6, Leading zero omitted, Abs format (unit mm)*
G04 Created by KiCad (PCBNEW (6.99.0-2452-gdb4f2d9dd8)) date 2022-07-21 17:42:46*
%MOMM*%
%LPD*%
G01*
G04 APERTURE LIST*
G04 Aperture macros list*
%AMRoundRect*
0 Rectangle with rounded corners*
0 $1 Rounding radius*
0 $2 $3 $4 $5 $6 $7 $8 $9 X,Y pos of 4 corners*
0 Add a 4 corners polygon primitive as box body*
4,1,4,$2,$3,$4,$5,$6,$7,$8,$9,$2,$3,0*
0 Add four circle primitives for the rounded corners*
1,1,$1+$1,$2,$3*
1,1,$1+$1,$4,$5*
1,1,$1+$1,$6,$7*
1,1,$1+$1,$8,$9*
0 Add four rect primitives between the rounded corners*
20,1,$1+$1,$2,$3,$4,$5,0*
20,1,$1+$1,$4,$5,$6,$7,0*
20,1,$1+$1,$6,$7,$8,$9,0*
20,1,$1+$1,$8,$9,$2,$3,0*%
G04 Aperture macros list end*
%ADD10C,0.300000*%
G04 #@! TA.AperFunction,NonConductor*
%ADD11C,0.300000*%
G04 #@! TD*
G04 #@! TA.AperFunction,SMDPad,CuDef*
%ADD12RoundRect,0.250000X0.159099X-0.724784X0.724784X-0.159099X-0.159099X0.724784X-0.724784X0.159099X0*%
G04 #@! TD*
G04 #@! TA.AperFunction,SMDPad,CuDef*
%ADD13R,1.000000X3.150000*%
G04 #@! TD*
G04 #@! TA.AperFunction,SMDPad,CuDef*
%ADD14RoundRect,0.250001X0.462499X0.624999X-0.462499X0.624999X-0.462499X-0.624999X0.462499X-0.624999X0*%
G04 #@! TD*
G04 #@! TA.AperFunction,Conductor*
%ADD15C,0.250000*%
G04 #@! TD*
G04 APERTURE END LIST*
D10*
D11*
X184785714Y-102273571D02*
X184428571Y-103273571D01*
X184428571Y-103273571D02*
X184071428Y-102273571D01*
X183571428Y-101916428D02*
X183500000Y-101845000D01*
X183500000Y-101845000D02*
X183357143Y-101773571D01*
X183357143Y-101773571D02*
X183000000Y-101773571D01*
X183000000Y-101773571D02*
X182857143Y-101845000D01*
X182857143Y-101845000D02*
X182785714Y-101916428D01*
X182785714Y-101916428D02*
X182714285Y-102059285D01*
X182714285Y-102059285D02*
X182714285Y-102202142D01*
X182714285Y-102202142D02*
X182785714Y-102416428D01*
X182785714Y-102416428D02*
X183642857Y-103273571D01*
X183642857Y-103273571D02*
X182714285Y-103273571D01*
D10*
D11*
X154314285Y-88959285D02*
X154385714Y-88887857D01*
X154385714Y-88887857D02*
X154528571Y-88816428D01*
X154528571Y-88816428D02*
X154671428Y-88816428D01*
X154671428Y-88816428D02*
X154814285Y-88887857D01*
X154814285Y-88887857D02*
X154885714Y-88959285D01*
X154885714Y-88959285D02*
X154957142Y-89102142D01*
X154957142Y-89102142D02*
X154957142Y-89245000D01*
X154957142Y-89245000D02*
X154885714Y-89387857D01*
X154885714Y-89387857D02*
X154814285Y-89459285D01*
X154814285Y-89459285D02*
X154671428Y-89530714D01*
X154671428Y-89530714D02*
X154528571Y-89530714D01*
X154528571Y-89530714D02*
X154385714Y-89459285D01*
X154385714Y-89459285D02*
X154314285Y-89387857D01*
X154314285Y-88816428D02*
X154314285Y-89387857D01*
X154314285Y-89387857D02*
X154242857Y-89459285D01*
X154242857Y-89459285D02*
X154171428Y-89459285D01*
X154171428Y-89459285D02*
X154028571Y-89387857D01*
X154028571Y-89387857D02*
X153957142Y-89245000D01*
X153957142Y-89245000D02*
X153957142Y-88887857D01*
X153957142Y-88887857D02*
X154100000Y-88673571D01*
X154100000Y-88673571D02*
X154314285Y-88530714D01*
X154314285Y-88530714D02*
X154600000Y-88459285D01*
X154600000Y-88459285D02*
X154885714Y-88530714D01*
X154885714Y-88530714D02*
X155100000Y-88673571D01*
X155100000Y-88673571D02*
X155242857Y-88887857D01*
X155242857Y-88887857D02*
X155314285Y-89173571D01*
X155314285Y-89173571D02*
X155242857Y-89459285D01*
X155242857Y-89459285D02*
X155100000Y-89673571D01*
X155100000Y-89673571D02*
X154885714Y-89816428D01*
X154885714Y-89816428D02*
X154600000Y-89887857D01*
X154600000Y-89887857D02*
X154314285Y-89816428D01*
X154314285Y-89816428D02*
X154100000Y-89673571D01*
X152671429Y-89673571D02*
X152671429Y-88887857D01*
X152671429Y-88887857D02*
X152742857Y-88745000D01*
X152742857Y-88745000D02*
X152885714Y-88673571D01*
X152885714Y-88673571D02*
X153171429Y-88673571D01*
X153171429Y-88673571D02*
X153314286Y-88745000D01*
X152671429Y-89602142D02*
X152814286Y-89673571D01*
X152814286Y-89673571D02*
X153171429Y-89673571D01*
X153171429Y-89673571D02*
X153314286Y-89602142D01*
X153314286Y-89602142D02*
X153385714Y-89459285D01*
X153385714Y-89459285D02*
X153385714Y-89316428D01*
X153385714Y-89316428D02*
X153314286Y-89173571D01*
X153314286Y-89173571D02*
X153171429Y-89102142D01*
X153171429Y-89102142D02*
X152814286Y-89102142D01*
X152814286Y-89102142D02*
X152671429Y-89030714D01*
X152100000Y-88673571D02*
X151742857Y-89673571D01*
X151742857Y-89673571D02*
X151385714Y-88673571D01*
X151171429Y-89816428D02*
X150028571Y-89816428D01*
X149671429Y-88673571D02*
X149671429Y-90173571D01*
X149671429Y-88745000D02*
X149528572Y-88673571D01*
X149528572Y-88673571D02*
X149242857Y-88673571D01*
X149242857Y-88673571D02*
X149100000Y-88745000D01*
X149100000Y-88745000D02*
X149028572Y-88816428D01*
X149028572Y-88816428D02*
X148957143Y-88959285D01*
X148957143Y-88959285D02*
X148957143Y-89387857D01*
X148957143Y-89387857D02*
X149028572Y-89530714D01*
X149028572Y-89530714D02*
X149100000Y-89602142D01*
X149100000Y-89602142D02*
X149242857Y-89673571D01*
X149242857Y-89673571D02*
X149528572Y-89673571D01*
X149528572Y-89673571D02*
X149671429Y-89602142D01*
X147671429Y-88673571D02*
X147671429Y-89673571D01*
X148314286Y-88673571D02*
X148314286Y-89459285D01*
X148314286Y-89459285D02*
X148242857Y-89602142D01*
X148242857Y-89602142D02*
X148100000Y-89673571D01*
X148100000Y-89673571D02*
X147885714Y-89673571D01*
X147885714Y-89673571D02*
X147742857Y-89602142D01*
X147742857Y-89602142D02*
X147671429Y-89530714D01*
X146957143Y-89673571D02*
X146957143Y-88173571D01*
X146957143Y-88745000D02*
X146814286Y-88673571D01*
X146814286Y-88673571D02*
X146528571Y-88673571D01*
X146528571Y-88673571D02*
X146385714Y-88745000D01*
X146385714Y-88745000D02*
X146314286Y-88816428D01*
X146314286Y-88816428D02*
X146242857Y-88959285D01*
X146242857Y-88959285D02*
X146242857Y-89387857D01*
X146242857Y-89387857D02*
X146314286Y-89530714D01*
X146314286Y-89530714D02*
X146385714Y-89602142D01*
X146385714Y-89602142D02*
X146528571Y-89673571D01*
X146528571Y-89673571D02*
X146814286Y-89673571D01*
X146814286Y-89673571D02*
X146957143Y-89602142D01*
X145671428Y-89602142D02*
X145528571Y-89673571D01*
X145528571Y-89673571D02*
X145242857Y-89673571D01*
X145242857Y-89673571D02*
X145100000Y-89602142D01*
X145100000Y-89602142D02*
X145028571Y-89459285D01*
X145028571Y-89459285D02*
X145028571Y-89387857D01*
X145028571Y-89387857D02*
X145100000Y-89245000D01*
X145100000Y-89245000D02*
X145242857Y-89173571D01*
X145242857Y-89173571D02*
X145457143Y-89173571D01*
X145457143Y-89173571D02*
X145600000Y-89102142D01*
X145600000Y-89102142D02*
X145671428Y-88959285D01*
X145671428Y-88959285D02*
X145671428Y-88887857D01*
X145671428Y-88887857D02*
X145600000Y-88745000D01*
X145600000Y-88745000D02*
X145457143Y-88673571D01*
X145457143Y-88673571D02*
X145242857Y-88673571D01*
X145242857Y-88673571D02*
X145100000Y-88745000D01*
D12*
X143857968Y-83032032D03*
X146050000Y-80840000D03*
D13*
X130799999Y-94094999D03*
X130799999Y-99144999D03*
X133339999Y-94094999D03*
X133339999Y-99144999D03*
X135879999Y-94094999D03*
X135879999Y-99144999D03*
D14*
X151797500Y-78710000D03*
X148822500Y-78710000D03*
D15*
X132400000Y-89880000D02*
X130800000Y-91480000D01*
X150330000Y-98600000D02*
X144910000Y-98600000D01*
X148180000Y-78710000D02*
X146050000Y-80840000D01*
X148822500Y-78710000D02*
X148180000Y-78710000D01*
X161010000Y-87920000D02*
X150330000Y-98600000D01*
X151800000Y-78710000D02*
X161010000Y-87920000D01*
X130800000Y-100630000D02*
X130800000Y-99145000D01*
X143857968Y-83032032D02*
X137010000Y-89880000D01*
X131160000Y-100160000D02*
X131160000Y-97925000D01*
X136840000Y-106670000D02*
X130800000Y-100630000D01*
X144910000Y-98600000D02*
X136840000Y-106670000D01*
X137010000Y-89880000D02*
X132400000Y-89880000D01*
X151797500Y-78710000D02*
X151800000Y-78710000D01*
X130800000Y-91480000D02*
X130800000Y-94095000D01*
G04 #@! TA.AperFunction,NonConductor*
G36*
X150504238Y-75655762D02*
G01*
X150511710Y-75660586D01*
X152662014Y-77159172D01*
X152706465Y-77214531D01*
X152713931Y-77285134D01*
X152682040Y-77348565D01*
X152620918Y-77384686D01*
X152550341Y-77382150D01*
X152492356Y-77362936D01*
X152420951Y-77339275D01*
X152420947Y-77339274D01*
X152414425Y-77337113D01*
X152407591Y-77336415D01*
X152407587Y-77336414D01*
X152313728Y-77326825D01*
X152313722Y-77326825D01*
X152310544Y-77326500D01*
X151284456Y-77326500D01*
X151281278Y-77326825D01*
X151281272Y-77326825D01*
X151187413Y-77336414D01*
X151187409Y-77336415D01*
X151180575Y-77337113D01*
X151174053Y-77339274D01*
X151174049Y-77339275D01*
X151101754Y-77363231D01*
X151012262Y-77392885D01*
X150861349Y-77485970D01*
X150735970Y-77611349D01*
X150642885Y-77762262D01*
X150587113Y-77930575D01*
X150576500Y-78034456D01*
X150576500Y-79385544D01*
X150576825Y-79388722D01*
X150576825Y-79388728D01*
X150586307Y-79481532D01*
X150587113Y-79489425D01*
X150589274Y-79495947D01*
X150589275Y-79495951D01*
X150622122Y-79595079D01*
X150642885Y-79657738D01*
X150735970Y-79808651D01*
X150861349Y-79934030D01*
X151012262Y-80027115D01*
X151074921Y-80047878D01*
X151174049Y-80080725D01*
X151174053Y-80080726D01*
X151180575Y-80082887D01*
X151187409Y-80083585D01*
X151187413Y-80083586D01*
X151281272Y-80093175D01*
X151281278Y-80093175D01*
X151284456Y-80093500D01*
X152235406Y-80093500D01*
X152303527Y-80113502D01*
X152324501Y-80130405D01*
X160025001Y-87830905D01*
X160059027Y-87893217D01*
X160053962Y-87964032D01*
X160025001Y-88009095D01*
X150104500Y-97929595D01*
X150042188Y-97963621D01*
X150015405Y-97966500D01*
X144988763Y-97966500D01*
X144977579Y-97965973D01*
X144970091Y-97964299D01*
X144962168Y-97964548D01*
X144902033Y-97966438D01*
X144898075Y-97966500D01*
X144870144Y-97966500D01*
X144866229Y-97966995D01*
X144866225Y-97966995D01*
X144866167Y-97967003D01*
X144866138Y-97967006D01*
X144854296Y-97967939D01*
X144810110Y-97969327D01*
X144792744Y-97974372D01*
X144790658Y-97974978D01*
X144771306Y-97978986D01*
X144759068Y-97980532D01*
X144759066Y-97980533D01*
X144751203Y-97981526D01*
X144710086Y-97997806D01*
X144698885Y-98001641D01*
X144656406Y-98013982D01*
X144649587Y-98018015D01*
X144649582Y-98018017D01*
X144638971Y-98024293D01*
X144621221Y-98032990D01*
X144602383Y-98040448D01*
X144595967Y-98045109D01*
X144595966Y-98045110D01*
X144566625Y-98066428D01*
X144556701Y-98072947D01*
X144525460Y-98091422D01*
X144525455Y-98091426D01*
X144518637Y-98095458D01*
X144504313Y-98109782D01*
X144489281Y-98122621D01*
X144472893Y-98134528D01*
X144444712Y-98168593D01*
X144436722Y-98177373D01*
X136929095Y-105685000D01*
X136866783Y-105719026D01*
X136795968Y-105713961D01*
X136750905Y-105685000D01*
X132419507Y-101353602D01*
X132385481Y-101291290D01*
X132390546Y-101220475D01*
X132433093Y-101163639D01*
X132499613Y-101138828D01*
X132568987Y-101153919D01*
X132584109Y-101163637D01*
X132593796Y-101170889D01*
X132730799Y-101221989D01*
X132767705Y-101225957D01*
X132788012Y-101228140D01*
X132788015Y-101228140D01*
X132791362Y-101228500D01*
X133888638Y-101228500D01*
X133891985Y-101228140D01*
X133891988Y-101228140D01*
X133912295Y-101225957D01*
X133949201Y-101221989D01*
X134086204Y-101170889D01*
X134095891Y-101163638D01*
X134196050Y-101088659D01*
X134203261Y-101083261D01*
X134285490Y-100973417D01*
X134285490Y-100973416D01*
X134290889Y-100966204D01*
X134341989Y-100829201D01*
X134348500Y-100768638D01*
X134871500Y-100768638D01*
X134878011Y-100829201D01*
X134929111Y-100966204D01*
X134934510Y-100973416D01*
X134934511Y-100973417D01*
X135016739Y-101083261D01*
X135023950Y-101088659D01*
X135124110Y-101163638D01*
X135133796Y-101170889D01*
X135270799Y-101221989D01*
X135307705Y-101225957D01*
X135328012Y-101228140D01*
X135328015Y-101228140D01*
X135331362Y-101228500D01*
X136428638Y-101228500D01*
X136431985Y-101228140D01*
X136431988Y-101228140D01*
X136452295Y-101225957D01*
X136489201Y-101221989D01*
X136626204Y-101170889D01*
X136635891Y-101163638D01*
X136736050Y-101088659D01*
X136743261Y-101083261D01*
X136825490Y-100973417D01*
X136825490Y-100973416D01*
X136830889Y-100966204D01*
X136881989Y-100829201D01*
X136888500Y-100768638D01*
X136888500Y-97521362D01*
X136881989Y-97460799D01*
X136830889Y-97323796D01*
X136743261Y-97206739D01*
X136626204Y-97119111D01*
X136489201Y-97068011D01*
X136452295Y-97064043D01*
X136431988Y-97061860D01*
X136431985Y-97061860D01*
X136428638Y-97061500D01*
X135331362Y-97061500D01*
X135328015Y-97061860D01*
X135328012Y-97061860D01*
X135307705Y-97064043D01*
X135270799Y-97068011D01*
X135133796Y-97119111D01*
X135016739Y-97206739D01*
X134929111Y-97323796D01*
X134878011Y-97460799D01*
X134871500Y-97521362D01*
X134871500Y-100768638D01*
X134348500Y-100768638D01*
X134348500Y-97521362D01*
X134341989Y-97460799D01*
X134290889Y-97323796D01*
X134203261Y-97206739D01*
X134086204Y-97119111D01*
X133949201Y-97068011D01*
X133912295Y-97064043D01*
X133891988Y-97061860D01*
X133891985Y-97061860D01*
X133888638Y-97061500D01*
X132791362Y-97061500D01*
X132788015Y-97061860D01*
X132788012Y-97061860D01*
X132767705Y-97064043D01*
X132730799Y-97068011D01*
X132593796Y-97119111D01*
X132476739Y-97206739D01*
X132389111Y-97323796D01*
X132338011Y-97460799D01*
X132331500Y-97521362D01*
X132331500Y-100768638D01*
X132338011Y-100829201D01*
X132389111Y-100966204D01*
X132396362Y-100975890D01*
X132397441Y-100978784D01*
X132398829Y-100981325D01*
X132398464Y-100981525D01*
X132421172Y-101042410D01*
X132406080Y-101111784D01*
X132355878Y-101161986D01*
X132286503Y-101177077D01*
X132219983Y-101152266D01*
X132206398Y-101140493D01*
X131845405Y-100779500D01*
X131811379Y-100717188D01*
X131808500Y-100690405D01*
X131808500Y-97521362D01*
X131801989Y-97460799D01*
X131750889Y-97323796D01*
X131663261Y-97206739D01*
X131546204Y-97119111D01*
X131409201Y-97068011D01*
X131372295Y-97064043D01*
X131351988Y-97061860D01*
X131351985Y-97061860D01*
X131348638Y-97061500D01*
X130251362Y-97061500D01*
X130248015Y-97061860D01*
X130248012Y-97061860D01*
X130227705Y-97064043D01*
X130190799Y-97068011D01*
X130053796Y-97119111D01*
X129936739Y-97206739D01*
X129849111Y-97323796D01*
X129798011Y-97460799D01*
X129791500Y-97521362D01*
X129791500Y-100768638D01*
X129798011Y-100829201D01*
X129849111Y-100966204D01*
X129854510Y-100973416D01*
X129854511Y-100973417D01*
X129936739Y-101083261D01*
X129943950Y-101088659D01*
X130044110Y-101163638D01*
X130053796Y-101170889D01*
X130190799Y-101221989D01*
X130227705Y-101225957D01*
X130248012Y-101228140D01*
X130248015Y-101228140D01*
X130251362Y-101228500D01*
X130450406Y-101228500D01*
X130518527Y-101248502D01*
X130539501Y-101265405D01*
X136341280Y-107067185D01*
X136356395Y-107085453D01*
X136361028Y-107092271D01*
X136366976Y-107097515D01*
X136366977Y-107097516D01*
X136403155Y-107129411D01*
X136408925Y-107134830D01*
X136420230Y-107146135D01*
X136426177Y-107150748D01*
X136432874Y-107155943D01*
X136438972Y-107160988D01*
X136475144Y-107192878D01*
X136481090Y-107198120D01*
X136488154Y-107201719D01*
X136488155Y-107201720D01*
X136488429Y-107201860D01*
X136508450Y-107214566D01*
X136508690Y-107214752D01*
X136508694Y-107214754D01*
X136514959Y-107219614D01*
X136566073Y-107241733D01*
X136566507Y-107241921D01*
X136573642Y-107245278D01*
X136623704Y-107270785D01*
X136631749Y-107272583D01*
X136654294Y-107279909D01*
X136661855Y-107283181D01*
X136707894Y-107290473D01*
X136717326Y-107291967D01*
X136725101Y-107293451D01*
X136747135Y-107298376D01*
X136779909Y-107305702D01*
X136787832Y-107305453D01*
X136787833Y-107305453D01*
X136787894Y-107305451D01*
X136788144Y-107305443D01*
X136811815Y-107306933D01*
X136812111Y-107306980D01*
X136812114Y-107306980D01*
X136819943Y-107308220D01*
X136827835Y-107307474D01*
X136827836Y-107307474D01*
X136875858Y-107302935D01*
X136883755Y-107302438D01*
X136916972Y-107301393D01*
X136939889Y-107300673D01*
X136947798Y-107298375D01*
X136971094Y-107293932D01*
X136971404Y-107293903D01*
X136971407Y-107293902D01*
X136979292Y-107293157D01*
X137032144Y-107274129D01*
X137039673Y-107271683D01*
X137085981Y-107258230D01*
X137085985Y-107258228D01*
X137093593Y-107256018D01*
X137100416Y-107251983D01*
X137100420Y-107251981D01*
X137100688Y-107251823D01*
X137122132Y-107241733D01*
X137122423Y-107241628D01*
X137122431Y-107241624D01*
X137129889Y-107238939D01*
X137176365Y-107207354D01*
X137182996Y-107203145D01*
X137231362Y-107174542D01*
X137237182Y-107168722D01*
X137255453Y-107153606D01*
X137255710Y-107153431D01*
X137262271Y-107148972D01*
X137299418Y-107106837D01*
X137304837Y-107101067D01*
X145135499Y-99270405D01*
X145197811Y-99236379D01*
X145224594Y-99233500D01*
X150251233Y-99233500D01*
X150262416Y-99234027D01*
X150269909Y-99235702D01*
X150277835Y-99235453D01*
X150277836Y-99235453D01*
X150337986Y-99233562D01*
X150341945Y-99233500D01*
X150369856Y-99233500D01*
X150373791Y-99233003D01*
X150373856Y-99232995D01*
X150385693Y-99232062D01*
X150417951Y-99231048D01*
X150421970Y-99230922D01*
X150429889Y-99230673D01*
X150449343Y-99225021D01*
X150468700Y-99221013D01*
X150480930Y-99219468D01*
X150480931Y-99219468D01*
X150488797Y-99218474D01*
X150496168Y-99215555D01*
X150496170Y-99215555D01*
X150529912Y-99202196D01*
X150541142Y-99198351D01*
X150575983Y-99188229D01*
X150575984Y-99188229D01*
X150583593Y-99186018D01*
X150590412Y-99181985D01*
X150590417Y-99181983D01*
X150601028Y-99175707D01*
X150618776Y-99167012D01*
X150637617Y-99159552D01*
X150673387Y-99133564D01*
X150683307Y-99127048D01*
X150714535Y-99108580D01*
X150714538Y-99108578D01*
X150721362Y-99104542D01*
X150735683Y-99090221D01*
X150750717Y-99077380D01*
X150760694Y-99070131D01*
X150767107Y-99065472D01*
X150795298Y-99031395D01*
X150803288Y-99022616D01*
X161407185Y-88418720D01*
X161425455Y-88403604D01*
X161432271Y-88398972D01*
X161469411Y-88356845D01*
X161474830Y-88351075D01*
X161486135Y-88339770D01*
X161495943Y-88327126D01*
X161500988Y-88321028D01*
X161532878Y-88284856D01*
X161532878Y-88284855D01*
X161538120Y-88278910D01*
X161541720Y-88271845D01*
X161541860Y-88271571D01*
X161554566Y-88251550D01*
X161554752Y-88251310D01*
X161554754Y-88251306D01*
X161559614Y-88245041D01*
X161581912Y-88193513D01*
X161585282Y-88186352D01*
X161607184Y-88143366D01*
X161607185Y-88143364D01*
X161610786Y-88136296D01*
X161612585Y-88128248D01*
X161619909Y-88105707D01*
X161623181Y-88098145D01*
X161631967Y-88042674D01*
X161633450Y-88034901D01*
X161645702Y-87980091D01*
X161645443Y-87971857D01*
X161646933Y-87948186D01*
X161646980Y-87947890D01*
X161646980Y-87947885D01*
X161648220Y-87940057D01*
X161646324Y-87920000D01*
X161642936Y-87884153D01*
X161642439Y-87876255D01*
X161640923Y-87828038D01*
X161640674Y-87820111D01*
X161638376Y-87812202D01*
X161633932Y-87788904D01*
X161633903Y-87788599D01*
X161633157Y-87780708D01*
X161614131Y-87727862D01*
X161611686Y-87720336D01*
X161598229Y-87674016D01*
X161598228Y-87674014D01*
X161596018Y-87666407D01*
X161591985Y-87659587D01*
X161591982Y-87659581D01*
X161591823Y-87659312D01*
X161581733Y-87637868D01*
X161581628Y-87637577D01*
X161581624Y-87637569D01*
X161578939Y-87630111D01*
X161547354Y-87583635D01*
X161543145Y-87577004D01*
X161514542Y-87528638D01*
X161508722Y-87522818D01*
X161493606Y-87504547D01*
X161493431Y-87504290D01*
X161488972Y-87497729D01*
X161446837Y-87460582D01*
X161441067Y-87455163D01*
X153055405Y-79069500D01*
X153021379Y-79007188D01*
X153018500Y-78980405D01*
X153018500Y-78034456D01*
X153007887Y-77930575D01*
X152952115Y-77762262D01*
X152859030Y-77611349D01*
X152825686Y-77578005D01*
X152791660Y-77515693D01*
X152796725Y-77444878D01*
X152839272Y-77388042D01*
X152905792Y-77363231D01*
X152975166Y-77378322D01*
X152986823Y-77385537D01*
X197348812Y-108302214D01*
X197393263Y-108357573D01*
X197400729Y-108428176D01*
X197368838Y-108491607D01*
X197354130Y-108505042D01*
X192725192Y-112105328D01*
X191621252Y-112963948D01*
X191555200Y-112989982D01*
X191485560Y-112976172D01*
X191474574Y-112969707D01*
X191446952Y-112951508D01*
X184888507Y-108630518D01*
X178594120Y-104483500D01*
X181395072Y-104483500D01*
X185883500Y-104483500D01*
X185883500Y-100766500D01*
X181395072Y-100766500D01*
X181395072Y-104483500D01*
X178594120Y-104483500D01*
X174096246Y-101520104D01*
X174096245Y-101520104D01*
X174080287Y-101509590D01*
X174080112Y-101509470D01*
X174080002Y-101509491D01*
X174079891Y-101509469D01*
X174079703Y-101509597D01*
X163228121Y-108578514D01*
X163212174Y-108588902D01*
X163144178Y-108609325D01*
X163084389Y-108594653D01*
X158000264Y-105899574D01*
X158000122Y-105899472D01*
X157999981Y-105899496D01*
X157999841Y-105899482D01*
X157999709Y-105899591D01*
X157987971Y-105906908D01*
X155744472Y-107305453D01*
X150367794Y-110657149D01*
X150299405Y-110676211D01*
X150232866Y-110656122D01*
X142700289Y-105799591D01*
X142700151Y-105799480D01*
X142700017Y-105799495D01*
X142699886Y-105799471D01*
X142699739Y-105799573D01*
X142495036Y-105911959D01*
X137665872Y-108563264D01*
X137596532Y-108578514D01*
X137536903Y-108558678D01*
X126616821Y-101510262D01*
X126616819Y-101510261D01*
X126600266Y-101499577D01*
X126600108Y-101499469D01*
X126599996Y-101499491D01*
X126599886Y-101499471D01*
X126599732Y-101499577D01*
X109275105Y-112949762D01*
X109207248Y-112970636D01*
X109138876Y-112951508D01*
X109128730Y-112944456D01*
X103237620Y-108405404D01*
X103195867Y-108347983D01*
X103191786Y-108277103D01*
X103226674Y-108215270D01*
X103242927Y-108201912D01*
X104537127Y-107308220D01*
X121320572Y-95718638D01*
X129791500Y-95718638D01*
X129798011Y-95779201D01*
X129849111Y-95916204D01*
X129936739Y-96033261D01*
X130053796Y-96120889D01*
X130190799Y-96171989D01*
X130227705Y-96175957D01*
X130248012Y-96178140D01*
X130248015Y-96178140D01*
X130251362Y-96178500D01*
X131348638Y-96178500D01*
X131351985Y-96178140D01*
X131351988Y-96178140D01*
X131372295Y-96175957D01*
X131409201Y-96171989D01*
X131546204Y-96120889D01*
X131663261Y-96033261D01*
X131750889Y-95916204D01*
X131801989Y-95779201D01*
X131808500Y-95718638D01*
X132331500Y-95718638D01*
X132338011Y-95779201D01*
X132389111Y-95916204D01*
X132476739Y-96033261D01*
X132593796Y-96120889D01*
X132730799Y-96171989D01*
X132767705Y-96175957D01*
X132788012Y-96178140D01*
X132788015Y-96178140D01*
X132791362Y-96178500D01*
X133888638Y-96178500D01*
X133891985Y-96178140D01*
X133891988Y-96178140D01*
X133912295Y-96175957D01*
X133949201Y-96171989D01*
X134086204Y-96120889D01*
X134203261Y-96033261D01*
X134290889Y-95916204D01*
X134341989Y-95779201D01*
X134348500Y-95718638D01*
X134871500Y-95718638D01*
X134878011Y-95779201D01*
X134929111Y-95916204D01*
X135016739Y-96033261D01*
X135133796Y-96120889D01*
X135270799Y-96171989D01*
X135307705Y-96175957D01*
X135328012Y-96178140D01*
X135328015Y-96178140D01*
X135331362Y-96178500D01*
X136428638Y-96178500D01*
X136431985Y-96178140D01*
X136431988Y-96178140D01*
X136452295Y-96175957D01*
X136489201Y-96171989D01*
X136626204Y-96120889D01*
X136743261Y-96033261D01*
X136830889Y-95916204D01*
X136881989Y-95779201D01*
X136888500Y-95718638D01*
X136888500Y-92471362D01*
X136881989Y-92410799D01*
X136830889Y-92273796D01*
X136743261Y-92156739D01*
X136712901Y-92134012D01*
X136633418Y-92074511D01*
X136633416Y-92074510D01*
X136626204Y-92069111D01*
X136489201Y-92018011D01*
X136452295Y-92014043D01*
X136431988Y-92011860D01*
X136431985Y-92011860D01*
X136428638Y-92011500D01*
X135331362Y-92011500D01*
X135328015Y-92011860D01*
X135328012Y-92011860D01*
X135307705Y-92014043D01*
X135270799Y-92018011D01*
X135133796Y-92069111D01*
X135126584Y-92074510D01*
X135126582Y-92074511D01*
X135047099Y-92134012D01*
X135016739Y-92156739D01*
X134929111Y-92273796D01*
X134878011Y-92410799D01*
X134871500Y-92471362D01*
X134871500Y-95718638D01*
X134348500Y-95718638D01*
X134348500Y-92471362D01*
X134341989Y-92410799D01*
X134290889Y-92273796D01*
X134203261Y-92156739D01*
X134172901Y-92134012D01*
X134093418Y-92074511D01*
X134093416Y-92074510D01*
X134086204Y-92069111D01*
X133949201Y-92018011D01*
X133912295Y-92014043D01*
X133891988Y-92011860D01*
X133891985Y-92011860D01*
X133888638Y-92011500D01*
X132791362Y-92011500D01*
X132788015Y-92011860D01*
X132788012Y-92011860D01*
X132767705Y-92014043D01*
X132730799Y-92018011D01*
X132593796Y-92069111D01*
X132586584Y-92074510D01*
X132586582Y-92074511D01*
X132507099Y-92134012D01*
X132476739Y-92156739D01*
X132389111Y-92273796D01*
X132338011Y-92410799D01*
X132331500Y-92471362D01*
X132331500Y-95718638D01*
X131808500Y-95718638D01*
X131808500Y-92471362D01*
X131801989Y-92410799D01*
X131750889Y-92273796D01*
X131663261Y-92156739D01*
X131641105Y-92140153D01*
X131553421Y-92074513D01*
X131553418Y-92074511D01*
X131546204Y-92069111D01*
X131515467Y-92057647D01*
X131458632Y-92015102D01*
X131433821Y-91948582D01*
X131433500Y-91939592D01*
X131433500Y-91794594D01*
X131453502Y-91726473D01*
X131470405Y-91705499D01*
X132292404Y-90883500D01*
X143709357Y-90883500D01*
X156483500Y-90883500D01*
X156483500Y-87166500D01*
X143709357Y-87166500D01*
X143709357Y-90883500D01*
X132292404Y-90883500D01*
X132625499Y-90550405D01*
X132687811Y-90516379D01*
X132714594Y-90513500D01*
X136931233Y-90513500D01*
X136942416Y-90514027D01*
X136949909Y-90515702D01*
X136957835Y-90515453D01*
X136957836Y-90515453D01*
X137017986Y-90513562D01*
X137021945Y-90513500D01*
X137049856Y-90513500D01*
X137053791Y-90513003D01*
X137053856Y-90512995D01*
X137065693Y-90512062D01*
X137097951Y-90511048D01*
X137101970Y-90510922D01*
X137109889Y-90510673D01*
X137129343Y-90505021D01*
X137148700Y-90501013D01*
X137160930Y-90499468D01*
X137160931Y-90499468D01*
X137168797Y-90498474D01*
X137176168Y-90495555D01*
X137176170Y-90495555D01*
X137209912Y-90482196D01*
X137221142Y-90478351D01*
X137255983Y-90468229D01*
X137255984Y-90468229D01*
X137263593Y-90466018D01*
X137270412Y-90461985D01*
X137270417Y-90461983D01*
X137281028Y-90455707D01*
X137298776Y-90447012D01*
X137317617Y-90439552D01*
X137353387Y-90413564D01*
X137363307Y-90407048D01*
X137394535Y-90388580D01*
X137394538Y-90388578D01*
X137401362Y-90384542D01*
X137415683Y-90370221D01*
X137430717Y-90357380D01*
X137440694Y-90350131D01*
X137447107Y-90345472D01*
X137475298Y-90311395D01*
X137483288Y-90302616D01*
X143403243Y-84382661D01*
X143465555Y-84348635D01*
X143536370Y-84353700D01*
X143571919Y-84374069D01*
X143592089Y-84390500D01*
X143592092Y-84390502D01*
X143597427Y-84394848D01*
X143603575Y-84397936D01*
X143603577Y-84397937D01*
X143749315Y-84471130D01*
X143755878Y-84474426D01*
X143763017Y-84476118D01*
X143763020Y-84476119D01*
X143921275Y-84513626D01*
X143921277Y-84513626D01*
X143928411Y-84515317D01*
X144105723Y-84515317D01*
X144112857Y-84513626D01*
X144112859Y-84513626D01*
X144271114Y-84476119D01*
X144271117Y-84476118D01*
X144278256Y-84474426D01*
X144436707Y-84394848D01*
X144462216Y-84374069D01*
X144515180Y-84330924D01*
X144515181Y-84330923D01*
X144517667Y-84328898D01*
X145154832Y-83691731D01*
X145220784Y-83610771D01*
X145300362Y-83452320D01*
X145332177Y-83318084D01*
X145339562Y-83286923D01*
X145339562Y-83286921D01*
X145341253Y-83279787D01*
X145341253Y-83102475D01*
X145309554Y-82968725D01*
X145302055Y-82937084D01*
X145302054Y-82937081D01*
X145300362Y-82929942D01*
X145220784Y-82771491D01*
X145154834Y-82690531D01*
X144199469Y-81735168D01*
X144118509Y-81669216D01*
X144112361Y-81666128D01*
X144112359Y-81666127D01*
X143966621Y-81592934D01*
X143966620Y-81592934D01*
X143960058Y-81589638D01*
X143952919Y-81587946D01*
X143952916Y-81587945D01*
X143794661Y-81550438D01*
X143794659Y-81550438D01*
X143787525Y-81548747D01*
X143610213Y-81548747D01*
X143603079Y-81550438D01*
X143603077Y-81550438D01*
X143444822Y-81587945D01*
X143444819Y-81587946D01*
X143437680Y-81589638D01*
X143279229Y-81669216D01*
X143198269Y-81735166D01*
X142561104Y-82372333D01*
X142495152Y-82453293D01*
X142415574Y-82611744D01*
X142413882Y-82618883D01*
X142413881Y-82618886D01*
X142378978Y-82766153D01*
X142374683Y-82784277D01*
X142374683Y-82961589D01*
X142376374Y-82968723D01*
X142376374Y-82968725D01*
X142408074Y-83102475D01*
X142415574Y-83134122D01*
X142495152Y-83292573D01*
X142511377Y-83312491D01*
X142515933Y-83318084D01*
X142543448Y-83383532D01*
X142531211Y-83453467D01*
X142507338Y-83486757D01*
X136784500Y-89209595D01*
X136722188Y-89243621D01*
X136695405Y-89246500D01*
X132478768Y-89246500D01*
X132467585Y-89245973D01*
X132460092Y-89244298D01*
X132452166Y-89244547D01*
X132452165Y-89244547D01*
X132392002Y-89246438D01*
X132388044Y-89246500D01*
X132360144Y-89246500D01*
X132356154Y-89247004D01*
X132344320Y-89247936D01*
X132300111Y-89249326D01*
X132292497Y-89251538D01*
X132292492Y-89251539D01*
X132280659Y-89254977D01*
X132261296Y-89258988D01*
X132241203Y-89261526D01*
X132233836Y-89264443D01*
X132233831Y-89264444D01*
X132200092Y-89277802D01*
X132188865Y-89281646D01*
X132146407Y-89293982D01*
X132139581Y-89298019D01*
X132128972Y-89304293D01*
X132111224Y-89312988D01*
X132092383Y-89320448D01*
X132085967Y-89325110D01*
X132085966Y-89325110D01*
X132056613Y-89346436D01*
X132046693Y-89352952D01*
X132015465Y-89371420D01*
X132015462Y-89371422D01*
X132008638Y-89375458D01*
X131994317Y-89389779D01*
X131979284Y-89402619D01*
X131962893Y-89414528D01*
X131957842Y-89420634D01*
X131934702Y-89448605D01*
X131926712Y-89457384D01*
X130407747Y-90976348D01*
X130399461Y-90983888D01*
X130392982Y-90988000D01*
X130387557Y-90993777D01*
X130346357Y-91037651D01*
X130343602Y-91040493D01*
X130323865Y-91060230D01*
X130321385Y-91063427D01*
X130313682Y-91072447D01*
X130283414Y-91104679D01*
X130279595Y-91111625D01*
X130279593Y-91111628D01*
X130273652Y-91122434D01*
X130262801Y-91138953D01*
X130250386Y-91154959D01*
X130247241Y-91162228D01*
X130247238Y-91162232D01*
X130232826Y-91195537D01*
X130227609Y-91206187D01*
X130206305Y-91244940D01*
X130204334Y-91252615D01*
X130204334Y-91252616D01*
X130201267Y-91264562D01*
X130194863Y-91283266D01*
X130186819Y-91301855D01*
X130185580Y-91309678D01*
X130185577Y-91309688D01*
X130179901Y-91345524D01*
X130177495Y-91357144D01*
X130166500Y-91399970D01*
X130166500Y-91420224D01*
X130164949Y-91439934D01*
X130161780Y-91459943D01*
X130162526Y-91467835D01*
X130165941Y-91503961D01*
X130166500Y-91515819D01*
X130166500Y-91939592D01*
X130146498Y-92007713D01*
X130092842Y-92054206D01*
X130084549Y-92057641D01*
X130053796Y-92069111D01*
X130046582Y-92074511D01*
X130046579Y-92074513D01*
X129958895Y-92140153D01*
X129936739Y-92156739D01*
X129849111Y-92273796D01*
X129798011Y-92410799D01*
X129791500Y-92471362D01*
X129791500Y-95718638D01*
X121320572Y-95718638D01*
X126610192Y-92065962D01*
X147460383Y-77668143D01*
X147527803Y-77645894D01*
X147596549Y-77663628D01*
X147644795Y-77715713D01*
X147657222Y-77785613D01*
X147651584Y-77811455D01*
X147612113Y-77930575D01*
X147601500Y-78034456D01*
X147601500Y-78340406D01*
X147581498Y-78408527D01*
X147564595Y-78429501D01*
X146504725Y-79489370D01*
X146442413Y-79523396D01*
X146371597Y-79518331D01*
X146336051Y-79497964D01*
X146315878Y-79481531D01*
X146315874Y-79481528D01*
X146310541Y-79477184D01*
X146304393Y-79474096D01*
X146304391Y-79474095D01*
X146158653Y-79400902D01*
X146158652Y-79400902D01*
X146152090Y-79397606D01*
X146144951Y-79395914D01*
X146144948Y-79395913D01*
X145986693Y-79358406D01*
X145986691Y-79358406D01*
X145979557Y-79356715D01*
X145802245Y-79356715D01*
X145795111Y-79358406D01*
X145795109Y-79358406D01*
X145636854Y-79395913D01*
X145636851Y-79395914D01*
X145629712Y-79397606D01*
X145471261Y-79477184D01*
X145465925Y-79481531D01*
X145465923Y-79481532D01*
X145420749Y-79518331D01*
X145390301Y-79543134D01*
X144753136Y-80180301D01*
X144687184Y-80261261D01*
X144607606Y-80419712D01*
X144605914Y-80426851D01*
X144605913Y-80426854D01*
X144571010Y-80574121D01*
X144566715Y-80592245D01*
X144566715Y-80769557D01*
X144568406Y-80776691D01*
X144568406Y-80776693D01*
X144600106Y-80910443D01*
X144607606Y-80942090D01*
X144687184Y-81100541D01*
X144753134Y-81181501D01*
X145708499Y-82136864D01*
X145789459Y-82202816D01*
X145795607Y-82205904D01*
X145795609Y-82205905D01*
X145941347Y-82279098D01*
X145947910Y-82282394D01*
X145955049Y-82284086D01*
X145955052Y-82284087D01*
X146113307Y-82321594D01*
X146113309Y-82321594D01*
X146120443Y-82323285D01*
X146297755Y-82323285D01*
X146304889Y-82321594D01*
X146304891Y-82321594D01*
X146463146Y-82284087D01*
X146463149Y-82284086D01*
X146470288Y-82282394D01*
X146628739Y-82202816D01*
X146709699Y-82136866D01*
X147346864Y-81499699D01*
X147412816Y-81418739D01*
X147492394Y-81260288D01*
X147510530Y-81183769D01*
X147531594Y-81094891D01*
X147531594Y-81094889D01*
X147533285Y-81087755D01*
X147533285Y-80910443D01*
X147501586Y-80776693D01*
X147494087Y-80745052D01*
X147494086Y-80745049D01*
X147492394Y-80737910D01*
X147412816Y-80579459D01*
X147392035Y-80553948D01*
X147364520Y-80488500D01*
X147376757Y-80418565D01*
X147400630Y-80385275D01*
X147794579Y-79991326D01*
X147856891Y-79957300D01*
X147927706Y-79962365D01*
X147949823Y-79973181D01*
X148037262Y-80027115D01*
X148099921Y-80047878D01*
X148199049Y-80080725D01*
X148199053Y-80080726D01*
X148205575Y-80082887D01*
X148212409Y-80083585D01*
X148212413Y-80083586D01*
X148306272Y-80093175D01*
X148306278Y-80093175D01*
X148309456Y-80093500D01*
X149335544Y-80093500D01*
X149338722Y-80093175D01*
X149338728Y-80093175D01*
X149432587Y-80083586D01*
X149432591Y-80083585D01*
X149439425Y-80082887D01*
X149445947Y-80080726D01*
X149445951Y-80080725D01*
X149545079Y-80047878D01*
X149607738Y-80027115D01*
X149758651Y-79934030D01*
X149884030Y-79808651D01*
X149977115Y-79657738D01*
X149997878Y-79595079D01*
X150030725Y-79495951D01*
X150030726Y-79495947D01*
X150032887Y-79489425D01*
X150033694Y-79481532D01*
X150043175Y-79388728D01*
X150043175Y-79388722D01*
X150043500Y-79385544D01*
X150043500Y-78034456D01*
X150032887Y-77930575D01*
X149977115Y-77762262D01*
X149884030Y-77611349D01*
X149758651Y-77485970D01*
X149607738Y-77392885D01*
X149518246Y-77363231D01*
X149445951Y-77339275D01*
X149445947Y-77339274D01*
X149439425Y-77337113D01*
X149432591Y-77336415D01*
X149432587Y-77336414D01*
X149338728Y-77326825D01*
X149338722Y-77326825D01*
X149335544Y-77326500D01*
X148359343Y-77326500D01*
X148291222Y-77306498D01*
X148244729Y-77252842D01*
X148234625Y-77182568D01*
X148264119Y-77117988D01*
X148287747Y-77096818D01*
X150368072Y-75660277D01*
X150435492Y-75638028D01*
X150504238Y-75655762D01*
G37*
G04 #@! TD.AperFunction*
M02*
