G04 #@! TF.GenerationSoftware,KiCad,Pcbnew,(6.99.0-2452-gdb4f2d9dd8)*
G04 #@! TF.CreationDate,2022-07-25T19:23:05-05:00*
G04 #@! TF.ProjectId,B2,42322e6b-6963-4616-945f-706362585858,rev?*
G04 #@! TF.SameCoordinates,Original*
G04 #@! TF.FileFunction,Copper,L2,Bot*
G04 #@! TF.FilePolarity,Positive*
%FSLAX46Y46*%
G04 Gerber Fmt 4.6, Leading zero omitted, Abs format (unit mm)*
G04 Created by KiCad (PCBNEW (6.99.0-2452-gdb4f2d9dd8)) date 2022-07-25 19:23:05*
%MOMM*%
%LPD*%
G01*
G04 APERTURE LIST*
G04 Aperture macros list*
%AMRoundRect*
0 Rectangle with rounded corners*
0 $1 Rounding radius*
0 $2 $3 $4 $5 $6 $7 $8 $9 X,Y pos of 4 corners*
0 Add a 4 corners polygon primitive as box body*
4,1,4,$2,$3,$4,$5,$6,$7,$8,$9,$2,$3,0*
0 Add four circle primitives for the rounded corners*
1,1,$1+$1,$2,$3*
1,1,$1+$1,$4,$5*
1,1,$1+$1,$6,$7*
1,1,$1+$1,$8,$9*
0 Add four rect primitives between the rounded corners*
20,1,$1+$1,$2,$3,$4,$5,0*
20,1,$1+$1,$4,$5,$6,$7,0*
20,1,$1+$1,$6,$7,$8,$9,0*
20,1,$1+$1,$8,$9,$2,$3,0*%
G04 Aperture macros list end*
%ADD10C,0.300000*%
G04 #@! TA.AperFunction,NonConductor*
%ADD11C,0.300000*%
G04 #@! TD*
G04 #@! TA.AperFunction,SMDPad,CuDef*
%ADD12R,1.000000X3.150000*%
G04 #@! TD*
G04 #@! TA.AperFunction,SMDPad,CuDef*
%ADD13RoundRect,0.250000X0.400000X0.625000X-0.400000X0.625000X-0.400000X-0.625000X0.400000X-0.625000X0*%
G04 #@! TD*
G04 #@! TA.AperFunction,SMDPad,CuDef*
%ADD14R,1.400000X2.600000*%
G04 #@! TD*
G04 #@! TA.AperFunction,Conductor*
%ADD15C,0.254000*%
G04 #@! TD*
G04 #@! TA.AperFunction,Conductor*
%ADD16C,0.250000*%
G04 #@! TD*
G04 APERTURE END LIST*
D10*
D11*
X191635714Y-107123571D02*
X191278571Y-108123571D01*
X191278571Y-108123571D02*
X190921428Y-107123571D01*
X190064285Y-106623571D02*
X189921428Y-106623571D01*
X189921428Y-106623571D02*
X189778571Y-106695000D01*
X189778571Y-106695000D02*
X189707143Y-106766428D01*
X189707143Y-106766428D02*
X189635714Y-106909285D01*
X189635714Y-106909285D02*
X189564285Y-107195000D01*
X189564285Y-107195000D02*
X189564285Y-107552142D01*
X189564285Y-107552142D02*
X189635714Y-107837857D01*
X189635714Y-107837857D02*
X189707143Y-107980714D01*
X189707143Y-107980714D02*
X189778571Y-108052142D01*
X189778571Y-108052142D02*
X189921428Y-108123571D01*
X189921428Y-108123571D02*
X190064285Y-108123571D01*
X190064285Y-108123571D02*
X190207143Y-108052142D01*
X190207143Y-108052142D02*
X190278571Y-107980714D01*
X190278571Y-107980714D02*
X190350000Y-107837857D01*
X190350000Y-107837857D02*
X190421428Y-107552142D01*
X190421428Y-107552142D02*
X190421428Y-107195000D01*
X190421428Y-107195000D02*
X190350000Y-106909285D01*
X190350000Y-106909285D02*
X190278571Y-106766428D01*
X190278571Y-106766428D02*
X190207143Y-106695000D01*
X190207143Y-106695000D02*
X190064285Y-106623571D01*
X188278572Y-107123571D02*
X188278572Y-108123571D01*
X188635714Y-106552142D02*
X188992857Y-107623571D01*
X188992857Y-107623571D02*
X188064286Y-107623571D01*
D10*
D11*
X155006684Y-94755857D02*
X155078113Y-94684429D01*
X155078113Y-94684429D02*
X155220970Y-94613000D01*
X155220970Y-94613000D02*
X155363827Y-94613000D01*
X155363827Y-94613000D02*
X155506684Y-94684429D01*
X155506684Y-94684429D02*
X155578113Y-94755857D01*
X155578113Y-94755857D02*
X155649541Y-94898714D01*
X155649541Y-94898714D02*
X155649541Y-95041572D01*
X155649541Y-95041572D02*
X155578113Y-95184429D01*
X155578113Y-95184429D02*
X155506684Y-95255857D01*
X155506684Y-95255857D02*
X155363827Y-95327286D01*
X155363827Y-95327286D02*
X155220970Y-95327286D01*
X155220970Y-95327286D02*
X155078113Y-95255857D01*
X155078113Y-95255857D02*
X155006684Y-95184429D01*
X155006684Y-94613000D02*
X155006684Y-95184429D01*
X155006684Y-95184429D02*
X154935256Y-95255857D01*
X154935256Y-95255857D02*
X154863827Y-95255857D01*
X154863827Y-95255857D02*
X154720970Y-95184429D01*
X154720970Y-95184429D02*
X154649541Y-95041572D01*
X154649541Y-95041572D02*
X154649541Y-94684429D01*
X154649541Y-94684429D02*
X154792399Y-94470143D01*
X154792399Y-94470143D02*
X155006684Y-94327286D01*
X155006684Y-94327286D02*
X155292399Y-94255857D01*
X155292399Y-94255857D02*
X155578113Y-94327286D01*
X155578113Y-94327286D02*
X155792399Y-94470143D01*
X155792399Y-94470143D02*
X155935256Y-94684429D01*
X155935256Y-94684429D02*
X156006684Y-94970143D01*
X156006684Y-94970143D02*
X155935256Y-95255857D01*
X155935256Y-95255857D02*
X155792399Y-95470143D01*
X155792399Y-95470143D02*
X155578113Y-95613000D01*
X155578113Y-95613000D02*
X155292399Y-95684429D01*
X155292399Y-95684429D02*
X155006684Y-95613000D01*
X155006684Y-95613000D02*
X154792399Y-95470143D01*
X153363828Y-95470143D02*
X153363828Y-94684429D01*
X153363828Y-94684429D02*
X153435256Y-94541572D01*
X153435256Y-94541572D02*
X153578113Y-94470143D01*
X153578113Y-94470143D02*
X153863828Y-94470143D01*
X153863828Y-94470143D02*
X154006685Y-94541572D01*
X153363828Y-95398714D02*
X153506685Y-95470143D01*
X153506685Y-95470143D02*
X153863828Y-95470143D01*
X153863828Y-95470143D02*
X154006685Y-95398714D01*
X154006685Y-95398714D02*
X154078113Y-95255857D01*
X154078113Y-95255857D02*
X154078113Y-95113000D01*
X154078113Y-95113000D02*
X154006685Y-94970143D01*
X154006685Y-94970143D02*
X153863828Y-94898714D01*
X153863828Y-94898714D02*
X153506685Y-94898714D01*
X153506685Y-94898714D02*
X153363828Y-94827286D01*
X152792399Y-94470143D02*
X152435256Y-95470143D01*
X152435256Y-95470143D02*
X152078113Y-94470143D01*
X151863828Y-95613000D02*
X150720970Y-95613000D01*
X150363828Y-94470143D02*
X150363828Y-95970143D01*
X150363828Y-94541572D02*
X150220971Y-94470143D01*
X150220971Y-94470143D02*
X149935256Y-94470143D01*
X149935256Y-94470143D02*
X149792399Y-94541572D01*
X149792399Y-94541572D02*
X149720971Y-94613000D01*
X149720971Y-94613000D02*
X149649542Y-94755857D01*
X149649542Y-94755857D02*
X149649542Y-95184429D01*
X149649542Y-95184429D02*
X149720971Y-95327286D01*
X149720971Y-95327286D02*
X149792399Y-95398714D01*
X149792399Y-95398714D02*
X149935256Y-95470143D01*
X149935256Y-95470143D02*
X150220971Y-95470143D01*
X150220971Y-95470143D02*
X150363828Y-95398714D01*
X148363828Y-94470143D02*
X148363828Y-95470143D01*
X149006685Y-94470143D02*
X149006685Y-95255857D01*
X149006685Y-95255857D02*
X148935256Y-95398714D01*
X148935256Y-95398714D02*
X148792399Y-95470143D01*
X148792399Y-95470143D02*
X148578113Y-95470143D01*
X148578113Y-95470143D02*
X148435256Y-95398714D01*
X148435256Y-95398714D02*
X148363828Y-95327286D01*
X147649542Y-95470143D02*
X147649542Y-93970143D01*
X147649542Y-94541572D02*
X147506685Y-94470143D01*
X147506685Y-94470143D02*
X147220970Y-94470143D01*
X147220970Y-94470143D02*
X147078113Y-94541572D01*
X147078113Y-94541572D02*
X147006685Y-94613000D01*
X147006685Y-94613000D02*
X146935256Y-94755857D01*
X146935256Y-94755857D02*
X146935256Y-95184429D01*
X146935256Y-95184429D02*
X147006685Y-95327286D01*
X147006685Y-95327286D02*
X147078113Y-95398714D01*
X147078113Y-95398714D02*
X147220970Y-95470143D01*
X147220970Y-95470143D02*
X147506685Y-95470143D01*
X147506685Y-95470143D02*
X147649542Y-95398714D01*
X146363827Y-95398714D02*
X146220970Y-95470143D01*
X146220970Y-95470143D02*
X145935256Y-95470143D01*
X145935256Y-95470143D02*
X145792399Y-95398714D01*
X145792399Y-95398714D02*
X145720970Y-95255857D01*
X145720970Y-95255857D02*
X145720970Y-95184429D01*
X145720970Y-95184429D02*
X145792399Y-95041572D01*
X145792399Y-95041572D02*
X145935256Y-94970143D01*
X145935256Y-94970143D02*
X146149542Y-94970143D01*
X146149542Y-94970143D02*
X146292399Y-94898714D01*
X146292399Y-94898714D02*
X146363827Y-94755857D01*
X146363827Y-94755857D02*
X146363827Y-94684429D01*
X146363827Y-94684429D02*
X146292399Y-94541572D01*
X146292399Y-94541572D02*
X146149542Y-94470143D01*
X146149542Y-94470143D02*
X145935256Y-94470143D01*
X145935256Y-94470143D02*
X145792399Y-94541572D01*
X158185255Y-97185857D02*
X158256684Y-97114429D01*
X158256684Y-97114429D02*
X158399541Y-97043000D01*
X158399541Y-97043000D02*
X158542398Y-97043000D01*
X158542398Y-97043000D02*
X158685255Y-97114429D01*
X158685255Y-97114429D02*
X158756684Y-97185857D01*
X158756684Y-97185857D02*
X158828112Y-97328714D01*
X158828112Y-97328714D02*
X158828112Y-97471572D01*
X158828112Y-97471572D02*
X158756684Y-97614429D01*
X158756684Y-97614429D02*
X158685255Y-97685857D01*
X158685255Y-97685857D02*
X158542398Y-97757286D01*
X158542398Y-97757286D02*
X158399541Y-97757286D01*
X158399541Y-97757286D02*
X158256684Y-97685857D01*
X158256684Y-97685857D02*
X158185255Y-97614429D01*
X158185255Y-97043000D02*
X158185255Y-97614429D01*
X158185255Y-97614429D02*
X158113827Y-97685857D01*
X158113827Y-97685857D02*
X158042398Y-97685857D01*
X158042398Y-97685857D02*
X157899541Y-97614429D01*
X157899541Y-97614429D02*
X157828112Y-97471572D01*
X157828112Y-97471572D02*
X157828112Y-97114429D01*
X157828112Y-97114429D02*
X157970970Y-96900143D01*
X157970970Y-96900143D02*
X158185255Y-96757286D01*
X158185255Y-96757286D02*
X158470970Y-96685857D01*
X158470970Y-96685857D02*
X158756684Y-96757286D01*
X158756684Y-96757286D02*
X158970970Y-96900143D01*
X158970970Y-96900143D02*
X159113827Y-97114429D01*
X159113827Y-97114429D02*
X159185255Y-97400143D01*
X159185255Y-97400143D02*
X159113827Y-97685857D01*
X159113827Y-97685857D02*
X158970970Y-97900143D01*
X158970970Y-97900143D02*
X158756684Y-98043000D01*
X158756684Y-98043000D02*
X158470970Y-98114429D01*
X158470970Y-98114429D02*
X158185255Y-98043000D01*
X158185255Y-98043000D02*
X157970970Y-97900143D01*
X156542399Y-97828714D02*
X156685256Y-97900143D01*
X156685256Y-97900143D02*
X156970970Y-97900143D01*
X156970970Y-97900143D02*
X157113827Y-97828714D01*
X157113827Y-97828714D02*
X157185256Y-97757286D01*
X157185256Y-97757286D02*
X157256684Y-97614429D01*
X157256684Y-97614429D02*
X157256684Y-97185857D01*
X157256684Y-97185857D02*
X157185256Y-97043000D01*
X157185256Y-97043000D02*
X157113827Y-96971572D01*
X157113827Y-96971572D02*
X156970970Y-96900143D01*
X156970970Y-96900143D02*
X156685256Y-96900143D01*
X156685256Y-96900143D02*
X156542399Y-96971572D01*
X156042399Y-96900143D02*
X155685256Y-97900143D01*
X155328113Y-96900143D02*
X155685256Y-97900143D01*
X155685256Y-97900143D02*
X155828113Y-98257286D01*
X155828113Y-98257286D02*
X155899542Y-98328714D01*
X155899542Y-98328714D02*
X156042399Y-98400143D01*
X154756685Y-97900143D02*
X154756685Y-96400143D01*
X154756685Y-96971572D02*
X154613828Y-96900143D01*
X154613828Y-96900143D02*
X154328113Y-96900143D01*
X154328113Y-96900143D02*
X154185256Y-96971572D01*
X154185256Y-96971572D02*
X154113828Y-97043000D01*
X154113828Y-97043000D02*
X154042399Y-97185857D01*
X154042399Y-97185857D02*
X154042399Y-97614429D01*
X154042399Y-97614429D02*
X154113828Y-97757286D01*
X154113828Y-97757286D02*
X154185256Y-97828714D01*
X154185256Y-97828714D02*
X154328113Y-97900143D01*
X154328113Y-97900143D02*
X154613828Y-97900143D01*
X154613828Y-97900143D02*
X154756685Y-97828714D01*
X152828113Y-97828714D02*
X152970970Y-97900143D01*
X152970970Y-97900143D02*
X153256685Y-97900143D01*
X153256685Y-97900143D02*
X153399542Y-97828714D01*
X153399542Y-97828714D02*
X153470970Y-97685857D01*
X153470970Y-97685857D02*
X153470970Y-97114429D01*
X153470970Y-97114429D02*
X153399542Y-96971572D01*
X153399542Y-96971572D02*
X153256685Y-96900143D01*
X153256685Y-96900143D02*
X152970970Y-96900143D01*
X152970970Y-96900143D02*
X152828113Y-96971572D01*
X152828113Y-96971572D02*
X152756685Y-97114429D01*
X152756685Y-97114429D02*
X152756685Y-97257286D01*
X152756685Y-97257286D02*
X153470970Y-97400143D01*
X152113828Y-97900143D02*
X152113828Y-96900143D01*
X152113828Y-97185857D02*
X152042399Y-97043000D01*
X152042399Y-97043000D02*
X151970971Y-96971572D01*
X151970971Y-96971572D02*
X151828113Y-96900143D01*
X151828113Y-96900143D02*
X151685256Y-96900143D01*
X151399542Y-96900143D02*
X150828114Y-96900143D01*
X151185257Y-96400143D02*
X151185257Y-97685857D01*
X151185257Y-97685857D02*
X151113828Y-97828714D01*
X151113828Y-97828714D02*
X150970971Y-97900143D01*
X150970971Y-97900143D02*
X150828114Y-97900143D01*
X149756685Y-97828714D02*
X149899542Y-97900143D01*
X149899542Y-97900143D02*
X150185257Y-97900143D01*
X150185257Y-97900143D02*
X150328114Y-97828714D01*
X150328114Y-97828714D02*
X150399542Y-97685857D01*
X150399542Y-97685857D02*
X150399542Y-97114429D01*
X150399542Y-97114429D02*
X150328114Y-96971572D01*
X150328114Y-96971572D02*
X150185257Y-96900143D01*
X150185257Y-96900143D02*
X149899542Y-96900143D01*
X149899542Y-96900143D02*
X149756685Y-96971572D01*
X149756685Y-96971572D02*
X149685257Y-97114429D01*
X149685257Y-97114429D02*
X149685257Y-97257286D01*
X149685257Y-97257286D02*
X150399542Y-97400143D01*
X149113828Y-97828714D02*
X148970971Y-97900143D01*
X148970971Y-97900143D02*
X148685257Y-97900143D01*
X148685257Y-97900143D02*
X148542400Y-97828714D01*
X148542400Y-97828714D02*
X148470971Y-97685857D01*
X148470971Y-97685857D02*
X148470971Y-97614429D01*
X148470971Y-97614429D02*
X148542400Y-97471572D01*
X148542400Y-97471572D02*
X148685257Y-97400143D01*
X148685257Y-97400143D02*
X148899543Y-97400143D01*
X148899543Y-97400143D02*
X149042400Y-97328714D01*
X149042400Y-97328714D02*
X149113828Y-97185857D01*
X149113828Y-97185857D02*
X149113828Y-97114429D01*
X149113828Y-97114429D02*
X149042400Y-96971572D01*
X149042400Y-96971572D02*
X148899543Y-96900143D01*
X148899543Y-96900143D02*
X148685257Y-96900143D01*
X148685257Y-96900143D02*
X148542400Y-96971572D01*
X148042399Y-96900143D02*
X147470971Y-96900143D01*
X147828114Y-96400143D02*
X147828114Y-97685857D01*
X147828114Y-97685857D02*
X147756685Y-97828714D01*
X147756685Y-97828714D02*
X147613828Y-97900143D01*
X147613828Y-97900143D02*
X147470971Y-97900143D01*
X146970971Y-96900143D02*
X146970971Y-98400143D01*
X146970971Y-96971572D02*
X146828114Y-96900143D01*
X146828114Y-96900143D02*
X146542399Y-96900143D01*
X146542399Y-96900143D02*
X146399542Y-96971572D01*
X146399542Y-96971572D02*
X146328114Y-97043000D01*
X146328114Y-97043000D02*
X146256685Y-97185857D01*
X146256685Y-97185857D02*
X146256685Y-97614429D01*
X146256685Y-97614429D02*
X146328114Y-97757286D01*
X146328114Y-97757286D02*
X146399542Y-97828714D01*
X146399542Y-97828714D02*
X146542399Y-97900143D01*
X146542399Y-97900143D02*
X146828114Y-97900143D01*
X146828114Y-97900143D02*
X146970971Y-97828714D01*
X145613828Y-97900143D02*
X145613828Y-96900143D01*
X145613828Y-96400143D02*
X145685256Y-96471572D01*
X145685256Y-96471572D02*
X145613828Y-96543000D01*
X145613828Y-96543000D02*
X145542399Y-96471572D01*
X145542399Y-96471572D02*
X145613828Y-96400143D01*
X145613828Y-96400143D02*
X145613828Y-96543000D01*
X144685256Y-97900143D02*
X144828113Y-97828714D01*
X144828113Y-97828714D02*
X144899542Y-97685857D01*
X144899542Y-97685857D02*
X144899542Y-96400143D01*
X143899542Y-97900143D02*
X144042399Y-97828714D01*
X144042399Y-97828714D02*
X144113828Y-97757286D01*
X144113828Y-97757286D02*
X144185256Y-97614429D01*
X144185256Y-97614429D02*
X144185256Y-97185857D01*
X144185256Y-97185857D02*
X144113828Y-97043000D01*
X144113828Y-97043000D02*
X144042399Y-96971572D01*
X144042399Y-96971572D02*
X143899542Y-96900143D01*
X143899542Y-96900143D02*
X143685256Y-96900143D01*
X143685256Y-96900143D02*
X143542399Y-96971572D01*
X143542399Y-96971572D02*
X143470971Y-97043000D01*
X143470971Y-97043000D02*
X143399542Y-97185857D01*
X143399542Y-97185857D02*
X143399542Y-97614429D01*
X143399542Y-97614429D02*
X143470971Y-97757286D01*
X143470971Y-97757286D02*
X143542399Y-97828714D01*
X143542399Y-97828714D02*
X143685256Y-97900143D01*
X143685256Y-97900143D02*
X143899542Y-97900143D01*
X142970970Y-96900143D02*
X142399542Y-96900143D01*
X142756685Y-96400143D02*
X142756685Y-97685857D01*
X142756685Y-97685857D02*
X142685256Y-97828714D01*
X142685256Y-97828714D02*
X142542399Y-97900143D01*
X142542399Y-97900143D02*
X142399542Y-97900143D01*
D12*
X130821922Y-94167743D03*
X130821922Y-99217743D03*
X133361922Y-94167743D03*
X133361922Y-99217743D03*
X135901922Y-94167743D03*
X135901922Y-99217743D03*
D13*
X148000323Y-88184850D03*
X144900323Y-88184850D03*
D14*
X153049999Y-81149999D03*
X147849999Y-81149999D03*
D15*
X148000323Y-88184850D02*
X147950000Y-88134527D01*
X147950000Y-88134527D02*
X147950000Y-81150000D01*
X148013359Y-82413510D02*
X148000000Y-82426869D01*
X130821923Y-94167744D02*
X136825803Y-88163864D01*
X136846789Y-88184850D02*
X144900323Y-88184850D01*
X136825803Y-88163864D02*
X136846789Y-88184850D01*
D16*
X130800000Y-100630000D02*
X130800000Y-99145000D01*
X131160000Y-100160000D02*
X131160000Y-97925000D01*
G04 #@! TA.AperFunction,Conductor*
G36*
X150602402Y-75837796D02*
G01*
X150608838Y-75841933D01*
X195940804Y-106976527D01*
X195985631Y-107031580D01*
X195993579Y-107102131D01*
X195962122Y-107165778D01*
X195943932Y-107182032D01*
X192933963Y-109387137D01*
X192867190Y-109411259D01*
X192797976Y-109395452D01*
X192748295Y-109344734D01*
X192733500Y-109285494D01*
X192733500Y-105616500D01*
X186816501Y-105616500D01*
X186816501Y-109333500D01*
X192621982Y-109333500D01*
X192690103Y-109353502D01*
X192736596Y-109407158D01*
X192746700Y-109477432D01*
X192717206Y-109542012D01*
X192696445Y-109561143D01*
X192328573Y-109830646D01*
X189328144Y-112028762D01*
X189261372Y-112052884D01*
X189192158Y-112037077D01*
X189181598Y-112030462D01*
X189179161Y-112028762D01*
X174114138Y-101520594D01*
X174114133Y-101520575D01*
X174114097Y-101520553D01*
X174114081Y-101520514D01*
X174113940Y-101520456D01*
X174113903Y-101520430D01*
X174113886Y-101520426D01*
X174113778Y-101520361D01*
X174113690Y-101520383D01*
X174113603Y-101520364D01*
X174113497Y-101520432D01*
X174113480Y-101520436D01*
X174113449Y-101520459D01*
X174113315Y-101520514D01*
X174113296Y-101520560D01*
X174113254Y-101520587D01*
X174113250Y-101520606D01*
X174107520Y-101524846D01*
X163022304Y-109726913D01*
X162955647Y-109751352D01*
X162886358Y-109735874D01*
X162877698Y-109730616D01*
X157680859Y-106282472D01*
X157680858Y-106282472D01*
X157670902Y-106275866D01*
X157670901Y-106275863D01*
X157670860Y-106275836D01*
X157670840Y-106275788D01*
X157670691Y-106275727D01*
X157670651Y-106275700D01*
X157670648Y-106275699D01*
X157670553Y-106275638D01*
X157670452Y-106275660D01*
X157670350Y-106275640D01*
X157670256Y-106275703D01*
X157670253Y-106275704D01*
X157670217Y-106275729D01*
X157670074Y-106275788D01*
X157670052Y-106275841D01*
X157670006Y-106275872D01*
X157670005Y-106275876D01*
X156481048Y-107101889D01*
X150609254Y-111181244D01*
X150541897Y-111203684D01*
X150473101Y-111186146D01*
X150465719Y-111181415D01*
X148511471Y-109830583D01*
X143405080Y-106300901D01*
X143405079Y-106300895D01*
X143405034Y-106300866D01*
X143405014Y-106300816D01*
X143404873Y-106300758D01*
X143404834Y-106300731D01*
X143404828Y-106300730D01*
X143404733Y-106300667D01*
X143404634Y-106300688D01*
X143404534Y-106300666D01*
X143404436Y-106300729D01*
X143404432Y-106300730D01*
X143404394Y-106300756D01*
X143404248Y-106300816D01*
X143404228Y-106300864D01*
X143404186Y-106300891D01*
X143404185Y-106300898D01*
X143399887Y-106303811D01*
X143399886Y-106303812D01*
X138272680Y-109779465D01*
X138205070Y-109801132D01*
X138136480Y-109782807D01*
X138127144Y-109776539D01*
X132492978Y-105616500D01*
X126918097Y-101500235D01*
X126918096Y-101500235D01*
X126911789Y-101495578D01*
X126911784Y-101495557D01*
X126911742Y-101495531D01*
X126911724Y-101495486D01*
X126911587Y-101495430D01*
X126911558Y-101495408D01*
X126911543Y-101495404D01*
X126911434Y-101495335D01*
X126911347Y-101495355D01*
X126911260Y-101495333D01*
X126911151Y-101495399D01*
X126911134Y-101495403D01*
X126911098Y-101495428D01*
X126910958Y-101495486D01*
X126910941Y-101495527D01*
X126910906Y-101495548D01*
X126910901Y-101495567D01*
X126906043Y-101498988D01*
X111918090Y-112055283D01*
X111850878Y-112078156D01*
X111781971Y-112061060D01*
X111771777Y-112054424D01*
X105057916Y-107206873D01*
X105014395Y-107150780D01*
X105008110Y-107080062D01*
X105041055Y-107017172D01*
X105060381Y-107000827D01*
X106111763Y-106279336D01*
X114041113Y-100837967D01*
X129813923Y-100837967D01*
X129814283Y-100844682D01*
X129819585Y-100894001D01*
X129823182Y-100909222D01*
X129868328Y-101030264D01*
X129876877Y-101045920D01*
X129953621Y-101148437D01*
X129966230Y-101161046D01*
X130068747Y-101237790D01*
X130084403Y-101246339D01*
X130205445Y-101291485D01*
X130220666Y-101295082D01*
X130269985Y-101300384D01*
X130276700Y-101300744D01*
X130549808Y-101300744D01*
X130565047Y-101296269D01*
X130566252Y-101294879D01*
X130567923Y-101287196D01*
X130567923Y-101282629D01*
X131075923Y-101282629D01*
X131080398Y-101297868D01*
X131081788Y-101299073D01*
X131089471Y-101300744D01*
X131367146Y-101300744D01*
X131373861Y-101300384D01*
X131423180Y-101295082D01*
X131438401Y-101291485D01*
X131559443Y-101246339D01*
X131575099Y-101237790D01*
X131677616Y-101161046D01*
X131690225Y-101148437D01*
X131766969Y-101045920D01*
X131775518Y-101030264D01*
X131820664Y-100909222D01*
X131824261Y-100894001D01*
X131829563Y-100844682D01*
X131829740Y-100841382D01*
X132353423Y-100841382D01*
X132359934Y-100901945D01*
X132411034Y-101038948D01*
X132498662Y-101156005D01*
X132505873Y-101161403D01*
X132607914Y-101237790D01*
X132615719Y-101243633D01*
X132752722Y-101294733D01*
X132781883Y-101297868D01*
X132809935Y-101300884D01*
X132809938Y-101300884D01*
X132813285Y-101301244D01*
X133910561Y-101301244D01*
X133913908Y-101300884D01*
X133913911Y-101300884D01*
X133941963Y-101297868D01*
X133971124Y-101294733D01*
X134108127Y-101243633D01*
X134115933Y-101237790D01*
X134217973Y-101161403D01*
X134225184Y-101156005D01*
X134312812Y-101038948D01*
X134363912Y-100901945D01*
X134370423Y-100841382D01*
X134893423Y-100841382D01*
X134899934Y-100901945D01*
X134951034Y-101038948D01*
X135038662Y-101156005D01*
X135045873Y-101161403D01*
X135147914Y-101237790D01*
X135155719Y-101243633D01*
X135292722Y-101294733D01*
X135321883Y-101297868D01*
X135349935Y-101300884D01*
X135349938Y-101300884D01*
X135353285Y-101301244D01*
X136450561Y-101301244D01*
X136453908Y-101300884D01*
X136453911Y-101300884D01*
X136481963Y-101297868D01*
X136511124Y-101294733D01*
X136648127Y-101243633D01*
X136655933Y-101237790D01*
X136757973Y-101161403D01*
X136765184Y-101156005D01*
X136852812Y-101038948D01*
X136903912Y-100901945D01*
X136910423Y-100841382D01*
X136910423Y-99110072D01*
X141298186Y-99110072D01*
X160429471Y-99110072D01*
X160429471Y-92963072D01*
X141298186Y-92963072D01*
X141298186Y-99110072D01*
X136910423Y-99110072D01*
X136910423Y-97594106D01*
X136903912Y-97533543D01*
X136852812Y-97396540D01*
X136765184Y-97279483D01*
X136734824Y-97256756D01*
X136655341Y-97197255D01*
X136655339Y-97197254D01*
X136648127Y-97191855D01*
X136511124Y-97140755D01*
X136470755Y-97136415D01*
X136453911Y-97134604D01*
X136453908Y-97134604D01*
X136450561Y-97134244D01*
X135353285Y-97134244D01*
X135349938Y-97134604D01*
X135349935Y-97134604D01*
X135333091Y-97136415D01*
X135292722Y-97140755D01*
X135155719Y-97191855D01*
X135148507Y-97197254D01*
X135148505Y-97197255D01*
X135069022Y-97256756D01*
X135038662Y-97279483D01*
X134951034Y-97396540D01*
X134899934Y-97533543D01*
X134893423Y-97594106D01*
X134893423Y-100841382D01*
X134370423Y-100841382D01*
X134370423Y-97594106D01*
X134363912Y-97533543D01*
X134312812Y-97396540D01*
X134225184Y-97279483D01*
X134194824Y-97256756D01*
X134115341Y-97197255D01*
X134115339Y-97197254D01*
X134108127Y-97191855D01*
X133971124Y-97140755D01*
X133930755Y-97136415D01*
X133913911Y-97134604D01*
X133913908Y-97134604D01*
X133910561Y-97134244D01*
X132813285Y-97134244D01*
X132809938Y-97134604D01*
X132809935Y-97134604D01*
X132793091Y-97136415D01*
X132752722Y-97140755D01*
X132615719Y-97191855D01*
X132608507Y-97197254D01*
X132608505Y-97197255D01*
X132529022Y-97256756D01*
X132498662Y-97279483D01*
X132411034Y-97396540D01*
X132359934Y-97533543D01*
X132353423Y-97594106D01*
X132353423Y-100841382D01*
X131829740Y-100841382D01*
X131829923Y-100837967D01*
X131829923Y-99489859D01*
X131825448Y-99474620D01*
X131824058Y-99473415D01*
X131816375Y-99471744D01*
X131094038Y-99471744D01*
X131078799Y-99476219D01*
X131077594Y-99477609D01*
X131075923Y-99485292D01*
X131075923Y-101282629D01*
X130567923Y-101282629D01*
X130567923Y-99489859D01*
X130563448Y-99474620D01*
X130562058Y-99473415D01*
X130554375Y-99471744D01*
X129832038Y-99471744D01*
X129816799Y-99476219D01*
X129815594Y-99477609D01*
X129813923Y-99485292D01*
X129813923Y-100837967D01*
X114041113Y-100837967D01*
X116798693Y-98945629D01*
X129813923Y-98945629D01*
X129818398Y-98960868D01*
X129819788Y-98962073D01*
X129827471Y-98963744D01*
X130549808Y-98963744D01*
X130565047Y-98959269D01*
X130566252Y-98957879D01*
X130567923Y-98950196D01*
X130567923Y-98945629D01*
X131075923Y-98945629D01*
X131080398Y-98960868D01*
X131081788Y-98962073D01*
X131089471Y-98963744D01*
X131811808Y-98963744D01*
X131827047Y-98959269D01*
X131828252Y-98957879D01*
X131829923Y-98950196D01*
X131829923Y-97597521D01*
X131829563Y-97590806D01*
X131824261Y-97541487D01*
X131820664Y-97526266D01*
X131775518Y-97405224D01*
X131766969Y-97389568D01*
X131690225Y-97287051D01*
X131677616Y-97274442D01*
X131575099Y-97197698D01*
X131559443Y-97189149D01*
X131438401Y-97144003D01*
X131423180Y-97140406D01*
X131373861Y-97135104D01*
X131367146Y-97134744D01*
X131094038Y-97134744D01*
X131078799Y-97139219D01*
X131077594Y-97140609D01*
X131075923Y-97148292D01*
X131075923Y-98945629D01*
X130567923Y-98945629D01*
X130567923Y-97152859D01*
X130563448Y-97137620D01*
X130562058Y-97136415D01*
X130554375Y-97134744D01*
X130276700Y-97134744D01*
X130269985Y-97135104D01*
X130220666Y-97140406D01*
X130205445Y-97144003D01*
X130084403Y-97189149D01*
X130068747Y-97197698D01*
X129966230Y-97274442D01*
X129953621Y-97287051D01*
X129876877Y-97389568D01*
X129868328Y-97405224D01*
X129823182Y-97526266D01*
X129819585Y-97541487D01*
X129814283Y-97590806D01*
X129813923Y-97597521D01*
X129813923Y-98945629D01*
X116798693Y-98945629D01*
X121395170Y-95791382D01*
X129813423Y-95791382D01*
X129819934Y-95851945D01*
X129871034Y-95988948D01*
X129958662Y-96106005D01*
X130075719Y-96193633D01*
X130212722Y-96244733D01*
X130249628Y-96248701D01*
X130269935Y-96250884D01*
X130269938Y-96250884D01*
X130273285Y-96251244D01*
X131370561Y-96251244D01*
X131373908Y-96250884D01*
X131373911Y-96250884D01*
X131394218Y-96248701D01*
X131431124Y-96244733D01*
X131568127Y-96193633D01*
X131685184Y-96106005D01*
X131772812Y-95988948D01*
X131823912Y-95851945D01*
X131830423Y-95791382D01*
X131830423Y-94110166D01*
X131850425Y-94042045D01*
X131867328Y-94021071D01*
X132138328Y-93750071D01*
X132200640Y-93716045D01*
X132271455Y-93721110D01*
X132328291Y-93763657D01*
X132353102Y-93830177D01*
X132353423Y-93839166D01*
X132353423Y-95791382D01*
X132359934Y-95851945D01*
X132411034Y-95988948D01*
X132498662Y-96106005D01*
X132615719Y-96193633D01*
X132752722Y-96244733D01*
X132789628Y-96248701D01*
X132809935Y-96250884D01*
X132809938Y-96250884D01*
X132813285Y-96251244D01*
X133910561Y-96251244D01*
X133913908Y-96250884D01*
X133913911Y-96250884D01*
X133934218Y-96248701D01*
X133971124Y-96244733D01*
X134108127Y-96193633D01*
X134225184Y-96106005D01*
X134312812Y-95988948D01*
X134363912Y-95851945D01*
X134370423Y-95791382D01*
X134893423Y-95791382D01*
X134899934Y-95851945D01*
X134951034Y-95988948D01*
X135038662Y-96106005D01*
X135155719Y-96193633D01*
X135292722Y-96244733D01*
X135329628Y-96248701D01*
X135349935Y-96250884D01*
X135349938Y-96250884D01*
X135353285Y-96251244D01*
X136450561Y-96251244D01*
X136453908Y-96250884D01*
X136453911Y-96250884D01*
X136474218Y-96248701D01*
X136511124Y-96244733D01*
X136648127Y-96193633D01*
X136765184Y-96106005D01*
X136852812Y-95988948D01*
X136903912Y-95851945D01*
X136910423Y-95791382D01*
X136910423Y-92544106D01*
X136903912Y-92483543D01*
X136852812Y-92346540D01*
X136765184Y-92229483D01*
X136648127Y-92141855D01*
X136511124Y-92090755D01*
X136474218Y-92086787D01*
X136453911Y-92084604D01*
X136453908Y-92084604D01*
X136450561Y-92084244D01*
X135353285Y-92084244D01*
X135349938Y-92084604D01*
X135349935Y-92084604D01*
X135329628Y-92086787D01*
X135292722Y-92090755D01*
X135155719Y-92141855D01*
X135038662Y-92229483D01*
X134951034Y-92346540D01*
X134899934Y-92483543D01*
X134893423Y-92544106D01*
X134893423Y-95791382D01*
X134370423Y-95791382D01*
X134370423Y-92544106D01*
X134363912Y-92483543D01*
X134312812Y-92346540D01*
X134225184Y-92229483D01*
X134108127Y-92141855D01*
X134099687Y-92138707D01*
X134099685Y-92138706D01*
X134059297Y-92123642D01*
X134028468Y-92112144D01*
X133971633Y-92069597D01*
X133946822Y-92003077D01*
X133961913Y-91933703D01*
X133983406Y-91904993D01*
X137031145Y-88857255D01*
X137093457Y-88823229D01*
X137120240Y-88820350D01*
X143623949Y-88820350D01*
X143692070Y-88840352D01*
X143738563Y-88894008D01*
X143749297Y-88933546D01*
X143751737Y-88957439D01*
X143751738Y-88957444D01*
X143752436Y-88964276D01*
X143808208Y-89132588D01*
X143901293Y-89283502D01*
X144026671Y-89408880D01*
X144177585Y-89501965D01*
X144241130Y-89523021D01*
X144339371Y-89555575D01*
X144339375Y-89555576D01*
X144345897Y-89557737D01*
X144352731Y-89558435D01*
X144352735Y-89558436D01*
X144446594Y-89568025D01*
X144446600Y-89568025D01*
X144449778Y-89568350D01*
X144900252Y-89568350D01*
X145350867Y-89568349D01*
X145354044Y-89568024D01*
X145354053Y-89568024D01*
X145402790Y-89563045D01*
X145454749Y-89557737D01*
X145623061Y-89501965D01*
X145773975Y-89408880D01*
X145899353Y-89283502D01*
X145992438Y-89132588D01*
X146048210Y-88964276D01*
X146058823Y-88860395D01*
X146058822Y-87509306D01*
X146048210Y-87405424D01*
X145992438Y-87237112D01*
X145899353Y-87086198D01*
X145773975Y-86960820D01*
X145623061Y-86867735D01*
X145547699Y-86842763D01*
X145461275Y-86814125D01*
X145461271Y-86814124D01*
X145454749Y-86811963D01*
X145447915Y-86811265D01*
X145447911Y-86811264D01*
X145354052Y-86801675D01*
X145354046Y-86801675D01*
X145350868Y-86801350D01*
X144900394Y-86801350D01*
X144449779Y-86801351D01*
X144446602Y-86801676D01*
X144446593Y-86801676D01*
X144397856Y-86806655D01*
X144345897Y-86811963D01*
X144177585Y-86867735D01*
X144026671Y-86960820D01*
X143901293Y-87086198D01*
X143808208Y-87237112D01*
X143752436Y-87405424D01*
X143751737Y-87412267D01*
X143751736Y-87412271D01*
X143749295Y-87436157D01*
X143722473Y-87501892D01*
X143664369Y-87542690D01*
X143623948Y-87549350D01*
X137018238Y-87549350D01*
X136998526Y-87547798D01*
X136948860Y-87539931D01*
X136941087Y-87538449D01*
X136893820Y-87527884D01*
X136893819Y-87527884D01*
X136886084Y-87526155D01*
X136877787Y-87526416D01*
X136854115Y-87524926D01*
X136853755Y-87524869D01*
X136853752Y-87524869D01*
X136845924Y-87523629D01*
X136838032Y-87524375D01*
X136838031Y-87524375D01*
X136789830Y-87528931D01*
X136781932Y-87529428D01*
X136733520Y-87530950D01*
X136725599Y-87531199D01*
X136717624Y-87533516D01*
X136694330Y-87537959D01*
X136694086Y-87537982D01*
X136686071Y-87538740D01*
X136633037Y-87557833D01*
X136625534Y-87560271D01*
X136571410Y-87575995D01*
X136564264Y-87580222D01*
X136542811Y-87590317D01*
X136534999Y-87593129D01*
X136488378Y-87624812D01*
X136481719Y-87629038D01*
X136440028Y-87653693D01*
X136440023Y-87653697D01*
X136433205Y-87657729D01*
X136427341Y-87663593D01*
X136409067Y-87678711D01*
X136408759Y-87678920D01*
X136408755Y-87678924D01*
X136402199Y-87683379D01*
X136396955Y-87689327D01*
X136396954Y-87689328D01*
X136364928Y-87725655D01*
X136359509Y-87731425D01*
X131861506Y-92229428D01*
X131799194Y-92263454D01*
X131728379Y-92258389D01*
X131686837Y-92231691D01*
X131685184Y-92229483D01*
X131568127Y-92141855D01*
X131431124Y-92090755D01*
X131394218Y-92086787D01*
X131373911Y-92084604D01*
X131373908Y-92084604D01*
X131370561Y-92084244D01*
X130273285Y-92084244D01*
X130269938Y-92084604D01*
X130269935Y-92084604D01*
X130249628Y-92086787D01*
X130212722Y-92090755D01*
X130075719Y-92141855D01*
X129958662Y-92229483D01*
X129871034Y-92346540D01*
X129819934Y-92483543D01*
X129813423Y-92544106D01*
X129813423Y-95791382D01*
X121395170Y-95791382D01*
X140765814Y-82498638D01*
X146641500Y-82498638D01*
X146648011Y-82559201D01*
X146699111Y-82696204D01*
X146786739Y-82813261D01*
X146793950Y-82818659D01*
X146895991Y-82895046D01*
X146903796Y-82900889D01*
X147040799Y-82951989D01*
X147069960Y-82955124D01*
X147098012Y-82958140D01*
X147098015Y-82958140D01*
X147101362Y-82958500D01*
X147188500Y-82958500D01*
X147256621Y-82978502D01*
X147303114Y-83032158D01*
X147314500Y-83084500D01*
X147314500Y-86774642D01*
X147294498Y-86842763D01*
X147254647Y-86881883D01*
X147132919Y-86956966D01*
X147126671Y-86960820D01*
X147001293Y-87086198D01*
X146908208Y-87237112D01*
X146852436Y-87405424D01*
X146841823Y-87509305D01*
X146841824Y-88860394D01*
X146852436Y-88964276D01*
X146908208Y-89132588D01*
X147001293Y-89283502D01*
X147126671Y-89408880D01*
X147277585Y-89501965D01*
X147341130Y-89523021D01*
X147439371Y-89555575D01*
X147439375Y-89555576D01*
X147445897Y-89557737D01*
X147452731Y-89558435D01*
X147452735Y-89558436D01*
X147546594Y-89568025D01*
X147546600Y-89568025D01*
X147549778Y-89568350D01*
X148000252Y-89568350D01*
X148450867Y-89568349D01*
X148454044Y-89568024D01*
X148454053Y-89568024D01*
X148502790Y-89563045D01*
X148554749Y-89557737D01*
X148723061Y-89501965D01*
X148873975Y-89408880D01*
X148999353Y-89283502D01*
X149092438Y-89132588D01*
X149148210Y-88964276D01*
X149158823Y-88860395D01*
X149158822Y-87509306D01*
X149148210Y-87405424D01*
X149092438Y-87237112D01*
X148999353Y-87086198D01*
X148873975Y-86960820D01*
X148723061Y-86867735D01*
X148671867Y-86850772D01*
X148613497Y-86810359D01*
X148586240Y-86744803D01*
X148585500Y-86731167D01*
X148585500Y-83066962D01*
X148605502Y-82998841D01*
X148659158Y-82952348D01*
X148667467Y-82948907D01*
X148787758Y-82904040D01*
X148787762Y-82904038D01*
X148796204Y-82900889D01*
X148804010Y-82895046D01*
X148906050Y-82818659D01*
X148913261Y-82813261D01*
X149000889Y-82696204D01*
X149051989Y-82559201D01*
X149058500Y-82498638D01*
X149058500Y-82472140D01*
X149078502Y-82404019D01*
X149132158Y-82357526D01*
X149202432Y-82347422D01*
X149267012Y-82376916D01*
X149290209Y-82403572D01*
X149348616Y-82493616D01*
X149360834Y-82501006D01*
X149360835Y-82501007D01*
X149695489Y-82703418D01*
X150020787Y-82900171D01*
X150035861Y-82901176D01*
X150078776Y-82904037D01*
X150752585Y-82948958D01*
X150860353Y-82900889D01*
X151492418Y-82618960D01*
X151506067Y-82612872D01*
X151515453Y-82601242D01*
X151515454Y-82601241D01*
X151622503Y-82468593D01*
X151680850Y-82428143D01*
X151751803Y-82425659D01*
X151812835Y-82461929D01*
X151844570Y-82525439D01*
X151845834Y-82534252D01*
X151847663Y-82551258D01*
X151851259Y-82566478D01*
X151896405Y-82687520D01*
X151904954Y-82703176D01*
X151981698Y-82805693D01*
X151994307Y-82818302D01*
X152096824Y-82895046D01*
X152112480Y-82903595D01*
X152233522Y-82948741D01*
X152248743Y-82952338D01*
X152298062Y-82957640D01*
X152304777Y-82958000D01*
X152777885Y-82958000D01*
X152793124Y-82953525D01*
X152794329Y-82952135D01*
X152796000Y-82944452D01*
X152796000Y-82939885D01*
X153304000Y-82939885D01*
X153308475Y-82955124D01*
X153309865Y-82956329D01*
X153317548Y-82958000D01*
X153795223Y-82958000D01*
X153801938Y-82957640D01*
X153851257Y-82952338D01*
X153866478Y-82948741D01*
X153987520Y-82903595D01*
X154003176Y-82895046D01*
X154105693Y-82818302D01*
X154118302Y-82805693D01*
X154195046Y-82703176D01*
X154203595Y-82687520D01*
X154248741Y-82566478D01*
X154252338Y-82551257D01*
X154257640Y-82501938D01*
X154258000Y-82495223D01*
X154258000Y-81422115D01*
X154253525Y-81406876D01*
X154252135Y-81405671D01*
X154244452Y-81404000D01*
X153322115Y-81404000D01*
X153306876Y-81408475D01*
X153305671Y-81409865D01*
X153304000Y-81417548D01*
X153304000Y-82939885D01*
X152796000Y-82939885D01*
X152796000Y-80877885D01*
X153304000Y-80877885D01*
X153308475Y-80893124D01*
X153309865Y-80894329D01*
X153317548Y-80896000D01*
X154239885Y-80896000D01*
X154255124Y-80891525D01*
X154256329Y-80890135D01*
X154258000Y-80882452D01*
X154258000Y-79804777D01*
X154257640Y-79798062D01*
X154252338Y-79748743D01*
X154248741Y-79733522D01*
X154203595Y-79612480D01*
X154195046Y-79596824D01*
X154118302Y-79494307D01*
X154105693Y-79481698D01*
X154003176Y-79404954D01*
X153987520Y-79396405D01*
X153866478Y-79351259D01*
X153851257Y-79347662D01*
X153801938Y-79342360D01*
X153795223Y-79342000D01*
X153322115Y-79342000D01*
X153306876Y-79346475D01*
X153305671Y-79347865D01*
X153304000Y-79355548D01*
X153304000Y-80877885D01*
X152796000Y-80877885D01*
X152796000Y-79360115D01*
X152791525Y-79344876D01*
X152790135Y-79343671D01*
X152782452Y-79342000D01*
X152304777Y-79342000D01*
X152298062Y-79342360D01*
X152248743Y-79347662D01*
X152233522Y-79351259D01*
X152112480Y-79396405D01*
X152096824Y-79404954D01*
X151994307Y-79481698D01*
X151981698Y-79494307D01*
X151904954Y-79596824D01*
X151896405Y-79612480D01*
X151851259Y-79733522D01*
X151847662Y-79748743D01*
X151842360Y-79798062D01*
X151842000Y-79804777D01*
X151842000Y-80255630D01*
X151821998Y-80323751D01*
X151768342Y-80370244D01*
X151698068Y-80380348D01*
X151634347Y-80351593D01*
X151144410Y-79934717D01*
X151132037Y-79924189D01*
X151116091Y-79921088D01*
X151116090Y-79921088D01*
X150862627Y-79871804D01*
X150351451Y-79772409D01*
X149738909Y-80097653D01*
X149337774Y-80384951D01*
X149331650Y-80393688D01*
X149331649Y-80393689D01*
X149287678Y-80456421D01*
X149232199Y-80500723D01*
X149161576Y-80507997D01*
X149098231Y-80475935D01*
X149062276Y-80414716D01*
X149058500Y-80384100D01*
X149058500Y-79801362D01*
X149051989Y-79740799D01*
X149000889Y-79603796D01*
X148913261Y-79486739D01*
X148882901Y-79464012D01*
X148803418Y-79404511D01*
X148803416Y-79404510D01*
X148796204Y-79399111D01*
X148659201Y-79348011D01*
X148618832Y-79343671D01*
X148601988Y-79341860D01*
X148601985Y-79341860D01*
X148598638Y-79341500D01*
X147101362Y-79341500D01*
X147098015Y-79341860D01*
X147098012Y-79341860D01*
X147081168Y-79343671D01*
X147040799Y-79348011D01*
X146903796Y-79399111D01*
X146896584Y-79404510D01*
X146896582Y-79404511D01*
X146817099Y-79464012D01*
X146786739Y-79486739D01*
X146699111Y-79603796D01*
X146648011Y-79740799D01*
X146641500Y-79801362D01*
X146641500Y-82498638D01*
X140765814Y-82498638D01*
X150466223Y-75841913D01*
X150533708Y-75819862D01*
X150602402Y-75837796D01*
G37*
G04 #@! TD.AperFunction*
M02*
