G04 #@! TF.GenerationSoftware,KiCad,Pcbnew,(6.99.0-2452-gdb4f2d9dd8)*
G04 #@! TF.CreationDate,2022-07-21T17:42:46-08:00*
G04 #@! TF.ProjectId,B2,42322e6b-6963-4616-945f-706362585858,rev?*
G04 #@! TF.SameCoordinates,Original*
G04 #@! TF.FileFunction,Copper,L1,Top*
G04 #@! TF.FilePolarity,Positive*
%FSLAX46Y46*%
G04 Gerber Fmt 4.6, Leading zero omitted, Abs format (unit mm)*
G04 Created by KiCad (PCBNEW (6.99.0-2452-gdb4f2d9dd8)) date 2022-07-21 17:42:46*
%MOMM*%
%LPD*%
G01*
G04 APERTURE LIST*
G04 #@! TA.AperFunction,NonConductor*
%ADD10C,0.100000*%
G04 #@! TD*
G04 APERTURE END LIST*
D10*
G36*
X160830000Y-101190000D02*
G01*
X160830000Y-105700000D01*
X162580000Y-106850000D01*
X161480000Y-107630000D01*
X158000000Y-105780000D01*
X155370000Y-107420000D01*
X153910000Y-106730000D01*
X155310000Y-105810000D01*
X155320000Y-101180000D01*
X158120000Y-99230000D01*
X160830000Y-101190000D01*
G37*
X160830000Y-101190000D02*
X160830000Y-105700000D01*
X162580000Y-106850000D01*
X161480000Y-107630000D01*
X158000000Y-105780000D01*
X155370000Y-107420000D01*
X153910000Y-106730000D01*
X155310000Y-105810000D01*
X155320000Y-101180000D01*
X158120000Y-99230000D01*
X160830000Y-101190000D01*
G36*
X145310000Y-101050000D02*
G01*
X145310000Y-105660000D01*
X146730000Y-106610000D01*
X145280000Y-107350000D01*
X142710000Y-105690000D01*
X139210000Y-107640000D01*
X138060000Y-106720000D01*
X139780000Y-105600000D01*
X139810000Y-101050000D01*
X142490000Y-99150000D01*
X145310000Y-101050000D01*
G37*
X145310000Y-101050000D02*
X145310000Y-105660000D01*
X146730000Y-106610000D01*
X145280000Y-107350000D01*
X142710000Y-105690000D01*
X139210000Y-107640000D01*
X138060000Y-106720000D01*
X139780000Y-105600000D01*
X139810000Y-101050000D01*
X142490000Y-99150000D01*
X145310000Y-101050000D01*
M02*
