G04 #@! TF.GenerationSoftware,KiCad,Pcbnew,(6.99.0-2452-gdb4f2d9dd8)*
G04 #@! TF.CreationDate,2022-07-25T19:23:05-05:00*
G04 #@! TF.ProjectId,B2,42322e6b-6963-4616-945f-706362585858,rev?*
G04 #@! TF.SameCoordinates,Original*
G04 #@! TF.FileFunction,Copper,L1,Top*
G04 #@! TF.FilePolarity,Positive*
%FSLAX46Y46*%
G04 Gerber Fmt 4.6, Leading zero omitted, Abs format (unit mm)*
G04 Created by KiCad (PCBNEW (6.99.0-2452-gdb4f2d9dd8)) date 2022-07-25 19:23:05*
%MOMM*%
%LPD*%
G01*
G04 APERTURE LIST*
G04 #@! TA.AperFunction,NonConductor*
%ADD10C,0.090000*%
G04 #@! TD*
G04 APERTURE END LIST*
D10*
G36*
X160537216Y-108178288D02*
G01*
X160524585Y-108187294D01*
X160142259Y-107916231D01*
X160537216Y-108178288D01*
G37*
X160537216Y-108178288D02*
X160524585Y-108187294D01*
X160142259Y-107916231D01*
X160537216Y-108178288D01*
G36*
X111844625Y-112107639D02*
G01*
X104911936Y-107102089D01*
X140056450Y-82984819D01*
X147567385Y-82984819D01*
X148337218Y-82975999D01*
X148415198Y-82513104D01*
X148485919Y-82125491D01*
X148521409Y-81948354D01*
X148554013Y-81803552D01*
X148571106Y-81740660D01*
X148591558Y-81675861D01*
X148614754Y-81609976D01*
X148640078Y-81543831D01*
X148694647Y-81414048D01*
X148750339Y-81293096D01*
X148802230Y-81187560D01*
X148845393Y-81104024D01*
X148885834Y-81029294D01*
X152177530Y-81029294D01*
X152217972Y-81104024D01*
X152261135Y-81187560D01*
X152313027Y-81293096D01*
X152368720Y-81414048D01*
X152423291Y-81543831D01*
X152448615Y-81609976D01*
X152471812Y-81675861D01*
X152492265Y-81740660D01*
X152509358Y-81803552D01*
X152541962Y-81948354D01*
X152577452Y-82125491D01*
X152648172Y-82513104D01*
X152726150Y-82975999D01*
X153495979Y-82984819D01*
X153488164Y-82833743D01*
X153463711Y-82470237D01*
X153444772Y-82250879D01*
X153421104Y-82028883D01*
X153392520Y-81821070D01*
X153376324Y-81727740D01*
X153358828Y-81644264D01*
X153338233Y-81564371D01*
X153312695Y-81478671D01*
X153283082Y-81388674D01*
X153250257Y-81295895D01*
X153215086Y-81201845D01*
X153178434Y-81108038D01*
X153104150Y-80927201D01*
X153034324Y-80765485D01*
X152975879Y-80634991D01*
X152920817Y-80516074D01*
X152177530Y-81029294D01*
X148885834Y-81029294D01*
X148142547Y-80516074D01*
X148087485Y-80634991D01*
X148029041Y-80765485D01*
X147959215Y-80927201D01*
X147884931Y-81108038D01*
X147848280Y-81201845D01*
X147813110Y-81295895D01*
X147780286Y-81388674D01*
X147750673Y-81478671D01*
X147725137Y-81564371D01*
X147704543Y-81644264D01*
X147687046Y-81727740D01*
X147670850Y-81821070D01*
X147642264Y-82028883D01*
X147618596Y-82250879D01*
X147599655Y-82470237D01*
X147575200Y-82833743D01*
X147567385Y-82984819D01*
X140056450Y-82984819D01*
X144040863Y-80250590D01*
X148231035Y-80250590D01*
X149027413Y-80790355D01*
X149081771Y-80732964D01*
X149144785Y-80669578D01*
X149183811Y-80631648D01*
X149227303Y-80590488D01*
X149274848Y-80546795D01*
X149326037Y-80501264D01*
X149380456Y-80454592D01*
X149437697Y-80407474D01*
X149497347Y-80360606D01*
X149558995Y-80314685D01*
X149622230Y-80270406D01*
X149654314Y-80249100D01*
X149686641Y-80228466D01*
X149763206Y-80182955D01*
X149836289Y-80143895D01*
X149905691Y-80110801D01*
X149971210Y-80083189D01*
X150032644Y-80060572D01*
X150089792Y-80042467D01*
X150142453Y-80028388D01*
X150190425Y-80017850D01*
X150233508Y-80010368D01*
X150271499Y-80005457D01*
X150331403Y-80001410D01*
X150381259Y-80002827D01*
X150398775Y-78268491D01*
X150646716Y-78268491D01*
X150664411Y-80020526D01*
X150714266Y-80019108D01*
X150774170Y-80023156D01*
X150812162Y-80028066D01*
X150855244Y-80035548D01*
X150903216Y-80046086D01*
X150955877Y-80060165D01*
X151013025Y-80078270D01*
X151074459Y-80100887D01*
X151139978Y-80128499D01*
X151209380Y-80161593D01*
X151282464Y-80200653D01*
X151359028Y-80246164D01*
X151391355Y-80266799D01*
X151423439Y-80288104D01*
X151486675Y-80332383D01*
X151548323Y-80378304D01*
X151607973Y-80425172D01*
X151665213Y-80472290D01*
X151719633Y-80518962D01*
X151770821Y-80564493D01*
X151818366Y-80608187D01*
X151861858Y-80649346D01*
X151900885Y-80687276D01*
X151963898Y-80750662D01*
X152018256Y-80808053D01*
X152814634Y-80268288D01*
X152814627Y-80268285D01*
X152757052Y-80135473D01*
X152687075Y-79988777D01*
X152591410Y-79805725D01*
X152534359Y-79704591D01*
X152471385Y-79599197D01*
X152402652Y-79491153D01*
X152328328Y-79382069D01*
X152248578Y-79273556D01*
X152163568Y-79167222D01*
X152073465Y-79064679D01*
X151978434Y-78967534D01*
X151912325Y-78905498D01*
X151846808Y-78847244D01*
X151781983Y-78792651D01*
X151717947Y-78741602D01*
X151654800Y-78693977D01*
X151592640Y-78649658D01*
X151531567Y-78608526D01*
X151471678Y-78570462D01*
X151413074Y-78535348D01*
X151355852Y-78503064D01*
X151300111Y-78473492D01*
X151245951Y-78446513D01*
X151193469Y-78422008D01*
X151142765Y-78399858D01*
X151047086Y-78362149D01*
X150959704Y-78332436D01*
X150881408Y-78309769D01*
X150812990Y-78293196D01*
X150755239Y-78281768D01*
X150708945Y-78274534D01*
X150674900Y-78270543D01*
X150646716Y-78268491D01*
X150398775Y-78268491D01*
X150398953Y-78250793D01*
X150370769Y-78252845D01*
X150336724Y-78256836D01*
X150290431Y-78264070D01*
X150232680Y-78275498D01*
X150164261Y-78292071D01*
X150085965Y-78314738D01*
X149998583Y-78344451D01*
X149902903Y-78382160D01*
X149852199Y-78404309D01*
X149799718Y-78428814D01*
X149745557Y-78455794D01*
X149689816Y-78485366D01*
X149632594Y-78517650D01*
X149573990Y-78552764D01*
X149514101Y-78590828D01*
X149453027Y-78631960D01*
X149390867Y-78676279D01*
X149327720Y-78723903D01*
X149263684Y-78774953D01*
X149198858Y-78829545D01*
X149133341Y-78887800D01*
X149067232Y-78949836D01*
X148972202Y-79046980D01*
X148882099Y-79149524D01*
X148797089Y-79255858D01*
X148717339Y-79364371D01*
X148643015Y-79473455D01*
X148574283Y-79581498D01*
X148511308Y-79686892D01*
X148454258Y-79788027D01*
X148358592Y-79971079D01*
X148288615Y-80117775D01*
X148231039Y-80250586D01*
X148231037Y-80250586D01*
X148231037Y-80250587D01*
X148231036Y-80250587D01*
X148231036Y-80250588D01*
X148231035Y-80250588D01*
X148231035Y-80250590D01*
X144040863Y-80250590D01*
X150537546Y-75792362D01*
X196088064Y-107077061D01*
X189255488Y-112082610D01*
X174113698Y-101520897D01*
X162951314Y-109780061D01*
X160537216Y-108178288D01*
X161542180Y-107461709D01*
X160055606Y-106497206D01*
X160020237Y-102338336D01*
X157666506Y-100621698D01*
X155224272Y-102329489D01*
X155224272Y-106523751D01*
X154073945Y-107320130D01*
X155233116Y-107939532D01*
X157666499Y-106160955D01*
X160142259Y-107916231D01*
X157670457Y-106276171D01*
X150537546Y-111231671D01*
X143404631Y-106301199D01*
X138198859Y-109830111D01*
X135025101Y-107486737D01*
X139532809Y-107486737D01*
X140550404Y-108212323D01*
X143408514Y-106185984D01*
X145841897Y-107964560D01*
X147001071Y-107345158D01*
X145850744Y-106548780D01*
X145850744Y-102354517D01*
X143408514Y-100646727D01*
X141054776Y-102363365D01*
X141019383Y-106522234D01*
X139532809Y-107486737D01*
X135025101Y-107486737D01*
X126911341Y-101495869D01*
X111844625Y-112107639D01*
G37*
X111844625Y-112107639D02*
X104911936Y-107102089D01*
X140056450Y-82984819D01*
X147567385Y-82984819D01*
X148337218Y-82975999D01*
X148415198Y-82513104D01*
X148485919Y-82125491D01*
X148521409Y-81948354D01*
X148554013Y-81803552D01*
X148571106Y-81740660D01*
X148591558Y-81675861D01*
X148614754Y-81609976D01*
X148640078Y-81543831D01*
X148694647Y-81414048D01*
X148750339Y-81293096D01*
X148802230Y-81187560D01*
X148845393Y-81104024D01*
X148885834Y-81029294D01*
X152177530Y-81029294D01*
X152217972Y-81104024D01*
X152261135Y-81187560D01*
X152313027Y-81293096D01*
X152368720Y-81414048D01*
X152423291Y-81543831D01*
X152448615Y-81609976D01*
X152471812Y-81675861D01*
X152492265Y-81740660D01*
X152509358Y-81803552D01*
X152541962Y-81948354D01*
X152577452Y-82125491D01*
X152648172Y-82513104D01*
X152726150Y-82975999D01*
X153495979Y-82984819D01*
X153488164Y-82833743D01*
X153463711Y-82470237D01*
X153444772Y-82250879D01*
X153421104Y-82028883D01*
X153392520Y-81821070D01*
X153376324Y-81727740D01*
X153358828Y-81644264D01*
X153338233Y-81564371D01*
X153312695Y-81478671D01*
X153283082Y-81388674D01*
X153250257Y-81295895D01*
X153215086Y-81201845D01*
X153178434Y-81108038D01*
X153104150Y-80927201D01*
X153034324Y-80765485D01*
X152975879Y-80634991D01*
X152920817Y-80516074D01*
X152177530Y-81029294D01*
X148885834Y-81029294D01*
X148142547Y-80516074D01*
X148087485Y-80634991D01*
X148029041Y-80765485D01*
X147959215Y-80927201D01*
X147884931Y-81108038D01*
X147848280Y-81201845D01*
X147813110Y-81295895D01*
X147780286Y-81388674D01*
X147750673Y-81478671D01*
X147725137Y-81564371D01*
X147704543Y-81644264D01*
X147687046Y-81727740D01*
X147670850Y-81821070D01*
X147642264Y-82028883D01*
X147618596Y-82250879D01*
X147599655Y-82470237D01*
X147575200Y-82833743D01*
X147567385Y-82984819D01*
X140056450Y-82984819D01*
X144040863Y-80250590D01*
X148231035Y-80250590D01*
X149027413Y-80790355D01*
X149081771Y-80732964D01*
X149144785Y-80669578D01*
X149183811Y-80631648D01*
X149227303Y-80590488D01*
X149274848Y-80546795D01*
X149326037Y-80501264D01*
X149380456Y-80454592D01*
X149437697Y-80407474D01*
X149497347Y-80360606D01*
X149558995Y-80314685D01*
X149622230Y-80270406D01*
X149654314Y-80249100D01*
X149686641Y-80228466D01*
X149763206Y-80182955D01*
X149836289Y-80143895D01*
X149905691Y-80110801D01*
X149971210Y-80083189D01*
X150032644Y-80060572D01*
X150089792Y-80042467D01*
X150142453Y-80028388D01*
X150190425Y-80017850D01*
X150233508Y-80010368D01*
X150271499Y-80005457D01*
X150331403Y-80001410D01*
X150381259Y-80002827D01*
X150398775Y-78268491D01*
X150646716Y-78268491D01*
X150664411Y-80020526D01*
X150714266Y-80019108D01*
X150774170Y-80023156D01*
X150812162Y-80028066D01*
X150855244Y-80035548D01*
X150903216Y-80046086D01*
X150955877Y-80060165D01*
X151013025Y-80078270D01*
X151074459Y-80100887D01*
X151139978Y-80128499D01*
X151209380Y-80161593D01*
X151282464Y-80200653D01*
X151359028Y-80246164D01*
X151391355Y-80266799D01*
X151423439Y-80288104D01*
X151486675Y-80332383D01*
X151548323Y-80378304D01*
X151607973Y-80425172D01*
X151665213Y-80472290D01*
X151719633Y-80518962D01*
X151770821Y-80564493D01*
X151818366Y-80608187D01*
X151861858Y-80649346D01*
X151900885Y-80687276D01*
X151963898Y-80750662D01*
X152018256Y-80808053D01*
X152814634Y-80268288D01*
X152814627Y-80268285D01*
X152757052Y-80135473D01*
X152687075Y-79988777D01*
X152591410Y-79805725D01*
X152534359Y-79704591D01*
X152471385Y-79599197D01*
X152402652Y-79491153D01*
X152328328Y-79382069D01*
X152248578Y-79273556D01*
X152163568Y-79167222D01*
X152073465Y-79064679D01*
X151978434Y-78967534D01*
X151912325Y-78905498D01*
X151846808Y-78847244D01*
X151781983Y-78792651D01*
X151717947Y-78741602D01*
X151654800Y-78693977D01*
X151592640Y-78649658D01*
X151531567Y-78608526D01*
X151471678Y-78570462D01*
X151413074Y-78535348D01*
X151355852Y-78503064D01*
X151300111Y-78473492D01*
X151245951Y-78446513D01*
X151193469Y-78422008D01*
X151142765Y-78399858D01*
X151047086Y-78362149D01*
X150959704Y-78332436D01*
X150881408Y-78309769D01*
X150812990Y-78293196D01*
X150755239Y-78281768D01*
X150708945Y-78274534D01*
X150674900Y-78270543D01*
X150646716Y-78268491D01*
X150398775Y-78268491D01*
X150398953Y-78250793D01*
X150370769Y-78252845D01*
X150336724Y-78256836D01*
X150290431Y-78264070D01*
X150232680Y-78275498D01*
X150164261Y-78292071D01*
X150085965Y-78314738D01*
X149998583Y-78344451D01*
X149902903Y-78382160D01*
X149852199Y-78404309D01*
X149799718Y-78428814D01*
X149745557Y-78455794D01*
X149689816Y-78485366D01*
X149632594Y-78517650D01*
X149573990Y-78552764D01*
X149514101Y-78590828D01*
X149453027Y-78631960D01*
X149390867Y-78676279D01*
X149327720Y-78723903D01*
X149263684Y-78774953D01*
X149198858Y-78829545D01*
X149133341Y-78887800D01*
X149067232Y-78949836D01*
X148972202Y-79046980D01*
X148882099Y-79149524D01*
X148797089Y-79255858D01*
X148717339Y-79364371D01*
X148643015Y-79473455D01*
X148574283Y-79581498D01*
X148511308Y-79686892D01*
X148454258Y-79788027D01*
X148358592Y-79971079D01*
X148288615Y-80117775D01*
X148231039Y-80250586D01*
X148231037Y-80250586D01*
X148231037Y-80250587D01*
X148231036Y-80250587D01*
X148231036Y-80250588D01*
X148231035Y-80250588D01*
X148231035Y-80250590D01*
X144040863Y-80250590D01*
X150537546Y-75792362D01*
X196088064Y-107077061D01*
X189255488Y-112082610D01*
X174113698Y-101520897D01*
X162951314Y-109780061D01*
X160537216Y-108178288D01*
X161542180Y-107461709D01*
X160055606Y-106497206D01*
X160020237Y-102338336D01*
X157666506Y-100621698D01*
X155224272Y-102329489D01*
X155224272Y-106523751D01*
X154073945Y-107320130D01*
X155233116Y-107939532D01*
X157666499Y-106160955D01*
X160142259Y-107916231D01*
X157670457Y-106276171D01*
X150537546Y-111231671D01*
X143404631Y-106301199D01*
X138198859Y-109830111D01*
X135025101Y-107486737D01*
X139532809Y-107486737D01*
X140550404Y-108212323D01*
X143408514Y-106185984D01*
X145841897Y-107964560D01*
X147001071Y-107345158D01*
X145850744Y-106548780D01*
X145850744Y-102354517D01*
X143408514Y-100646727D01*
X141054776Y-102363365D01*
X141019383Y-106522234D01*
X139532809Y-107486737D01*
X135025101Y-107486737D01*
X126911341Y-101495869D01*
X111844625Y-112107639D01*
M02*
