%TF.GenerationSoftware,KiCad,Pcbnew,(6.99.0-2452-gdb4f2d9dd8)*%
%TF.CreationDate,2022-07-25T19:23:13-05:00*%
%TF.ProjectId,B2,42322e6b-6963-4616-945f-706362585858,rev?*%
%TF.SameCoordinates,Original*%
%TF.FileFunction,Drillmap*%
%TF.FilePolarity,Positive*%
%FSLAX45Y45*%
G04 Gerber Fmt 4.5, Leading zero omitted, Abs format (unit mm)*
G04 Created by KiCad (PCBNEW (6.99.0-2452-gdb4f2d9dd8)) date 2022-07-25 19:23:13*
%MOMM*%
%LPD*%
G01*
G04 APERTURE LIST*
%ADD10C,0.180000*%
%ADD11C,0.200000*%
G04 APERTURE END LIST*
D10*
X17411370Y-10152090D02*
X16295131Y-10978006D01*
X14340463Y-10630120D02*
X13819886Y-10983011D01*
X13819886Y-10983011D02*
X13819886Y-10983011D01*
X19608806Y-10707706D02*
X19608806Y-10707706D01*
X15053755Y-7579236D02*
X19608806Y-10707706D01*
X15767046Y-10627617D02*
X15767046Y-10627617D01*
X15767046Y-10627617D02*
X15053755Y-11123167D01*
X10491194Y-10710209D02*
X15053755Y-7579236D01*
X16295131Y-10978006D02*
X16295131Y-10978006D01*
X15053755Y-11123167D02*
X14340463Y-10630120D01*
X18925549Y-11208261D02*
X17411370Y-10152090D01*
X12691134Y-10149587D02*
X11184463Y-11210764D01*
X18925549Y-11208261D02*
X18925549Y-11208261D01*
X19608806Y-10707706D02*
X18925549Y-11208261D01*
X14340463Y-10630120D02*
X14340463Y-10630120D01*
X13819886Y-10983011D02*
X12691134Y-10149587D01*
X16295131Y-10978006D02*
X15767046Y-10627617D01*
X12691134Y-10149587D02*
X12691134Y-10149587D01*
X11184463Y-11210764D02*
X11184463Y-11210764D01*
X17411370Y-10152090D02*
X17411370Y-10152090D01*
X15053755Y-7579236D02*
X15053755Y-7579236D01*
X11184463Y-11210764D02*
X10491194Y-10710209D01*
X15053755Y-11123167D02*
X15053755Y-11123167D01*
D11*
X10729813Y-11513240D02*
X10729813Y-11313240D01*
X10729813Y-11313240D02*
X10777432Y-11313240D01*
X10777432Y-11313240D02*
X10806003Y-11322764D01*
X10806003Y-11322764D02*
X10825051Y-11341811D01*
X10825051Y-11341811D02*
X10834575Y-11360859D01*
X10834575Y-11360859D02*
X10844098Y-11398954D01*
X10844098Y-11398954D02*
X10844098Y-11427526D01*
X10844098Y-11427526D02*
X10834575Y-11465621D01*
X10834575Y-11465621D02*
X10825051Y-11484668D01*
X10825051Y-11484668D02*
X10806003Y-11503716D01*
X10806003Y-11503716D02*
X10777432Y-11513240D01*
X10777432Y-11513240D02*
X10729813Y-11513240D01*
X10929813Y-11513240D02*
X10929813Y-11379907D01*
X10929813Y-11418002D02*
X10939336Y-11398954D01*
X10939336Y-11398954D02*
X10948860Y-11389430D01*
X10948860Y-11389430D02*
X10967908Y-11379907D01*
X10967908Y-11379907D02*
X10986956Y-11379907D01*
X11053622Y-11513240D02*
X11053622Y-11379907D01*
X11053622Y-11313240D02*
X11044098Y-11322764D01*
X11044098Y-11322764D02*
X11053622Y-11332288D01*
X11053622Y-11332288D02*
X11063146Y-11322764D01*
X11063146Y-11322764D02*
X11053622Y-11313240D01*
X11053622Y-11313240D02*
X11053622Y-11332288D01*
X11177432Y-11513240D02*
X11158384Y-11503716D01*
X11158384Y-11503716D02*
X11148860Y-11484668D01*
X11148860Y-11484668D02*
X11148860Y-11313240D01*
X11282193Y-11513240D02*
X11263146Y-11503716D01*
X11263146Y-11503716D02*
X11253622Y-11484668D01*
X11253622Y-11484668D02*
X11253622Y-11313240D01*
X11478384Y-11513240D02*
X11478384Y-11313240D01*
X11478384Y-11313240D02*
X11545051Y-11456097D01*
X11545051Y-11456097D02*
X11611717Y-11313240D01*
X11611717Y-11313240D02*
X11611717Y-11513240D01*
X11792670Y-11513240D02*
X11792670Y-11408478D01*
X11792670Y-11408478D02*
X11783146Y-11389430D01*
X11783146Y-11389430D02*
X11764098Y-11379907D01*
X11764098Y-11379907D02*
X11726003Y-11379907D01*
X11726003Y-11379907D02*
X11706955Y-11389430D01*
X11792670Y-11503716D02*
X11773622Y-11513240D01*
X11773622Y-11513240D02*
X11726003Y-11513240D01*
X11726003Y-11513240D02*
X11706955Y-11503716D01*
X11706955Y-11503716D02*
X11697432Y-11484668D01*
X11697432Y-11484668D02*
X11697432Y-11465621D01*
X11697432Y-11465621D02*
X11706955Y-11446573D01*
X11706955Y-11446573D02*
X11726003Y-11437049D01*
X11726003Y-11437049D02*
X11773622Y-11437049D01*
X11773622Y-11437049D02*
X11792670Y-11427526D01*
X11887908Y-11379907D02*
X11887908Y-11579907D01*
X11887908Y-11389430D02*
X11906955Y-11379907D01*
X11906955Y-11379907D02*
X11945051Y-11379907D01*
X11945051Y-11379907D02*
X11964098Y-11389430D01*
X11964098Y-11389430D02*
X11973622Y-11398954D01*
X11973622Y-11398954D02*
X11983146Y-11418002D01*
X11983146Y-11418002D02*
X11983146Y-11475145D01*
X11983146Y-11475145D02*
X11973622Y-11494192D01*
X11973622Y-11494192D02*
X11964098Y-11503716D01*
X11964098Y-11503716D02*
X11945051Y-11513240D01*
X11945051Y-11513240D02*
X11906955Y-11513240D01*
X11906955Y-11513240D02*
X11887908Y-11503716D01*
X12068860Y-11494192D02*
X12078384Y-11503716D01*
X12078384Y-11503716D02*
X12068860Y-11513240D01*
X12068860Y-11513240D02*
X12059336Y-11503716D01*
X12059336Y-11503716D02*
X12068860Y-11494192D01*
X12068860Y-11494192D02*
X12068860Y-11513240D01*
X12068860Y-11389430D02*
X12078384Y-11398954D01*
X12078384Y-11398954D02*
X12068860Y-11408478D01*
X12068860Y-11408478D02*
X12059336Y-11398954D01*
X12059336Y-11398954D02*
X12068860Y-11389430D01*
X12068860Y-11389430D02*
X12068860Y-11408478D01*
M02*
