%TF.GenerationSoftware,KiCad,Pcbnew,(6.99.0-2452-gdb4f2d9dd8)*%
%TF.CreationDate,2022-07-29T14:25:37-05:00*%
%TF.ProjectId,787,3738372e-6b69-4636-9164-5f7063625858,rev?*%
%TF.SameCoordinates,Original*%
%TF.FileFunction,Drillmap*%
%TF.FilePolarity,Positive*%
%FSLAX45Y45*%
G04 Gerber Fmt 4.5, Leading zero omitted, Abs format (unit mm)*
G04 Created by KiCad (PCBNEW (6.99.0-2452-gdb4f2d9dd8)) date 2022-07-29 14:25:37*
%MOMM*%
%LPD*%
G01*
G04 APERTURE LIST*
%ADD10C,0.078000*%
%ADD11C,0.200000*%
G04 APERTURE END LIST*
D10*
X10684163Y-6585400D02*
X10709793Y-6586046D01*
X10731118Y-6587142D01*
X10748144Y-6588691D01*
X10755047Y-6589636D01*
X10760879Y-6590695D01*
X10765639Y-6591867D01*
X10769330Y-6593154D01*
X10771951Y-6594555D01*
X10773504Y-6596070D01*
X10773880Y-6596871D01*
X10773989Y-6597700D01*
X10773408Y-6599445D01*
X10768107Y-6606586D01*
X10756367Y-6621468D01*
X10716536Y-6670801D01*
X10659860Y-6740136D01*
X10592282Y-6822165D01*
X10557296Y-6864875D01*
X10523910Y-6906383D01*
X10492908Y-6945660D01*
X10465074Y-6981679D01*
X10441192Y-7013413D01*
X10422047Y-7039835D01*
X10408421Y-7059917D01*
X10403924Y-7067260D01*
X10401101Y-7072632D01*
X10351690Y-7187257D01*
X10259496Y-7403686D01*
X9715802Y-8674316D01*
X9294756Y-9656039D01*
X9294756Y-11001507D01*
X11358769Y-11001507D01*
X11664761Y-11064144D01*
X11786568Y-11088574D01*
X11892022Y-11108785D01*
X11969837Y-11122679D01*
X11994853Y-11126600D01*
X12008727Y-11128154D01*
X12015558Y-11128329D01*
X12022171Y-11128260D01*
X12028695Y-11127817D01*
X12035255Y-11126868D01*
X12041979Y-11125282D01*
X12048993Y-11122927D01*
X12056425Y-11119673D01*
X12064400Y-11115386D01*
X12073046Y-11109937D01*
X12082490Y-11103194D01*
X12092859Y-11095025D01*
X12104278Y-11085300D01*
X12116876Y-11073885D01*
X12130779Y-11060651D01*
X12146113Y-11045466D01*
X12163006Y-11028198D01*
X12181585Y-11008717D01*
X12201976Y-10986890D01*
X12224306Y-10962586D01*
X12248701Y-10935674D01*
X12275290Y-10906022D01*
X12304198Y-10873500D01*
X12369480Y-10799317D01*
X12445562Y-10712073D01*
X12533459Y-10610718D01*
X12748755Y-10361469D01*
X12978062Y-10095239D01*
X13095594Y-9957866D01*
X13101605Y-9950894D01*
X13107661Y-9944455D01*
X13110751Y-9941414D01*
X13113907Y-9938481D01*
X13117148Y-9935646D01*
X13120492Y-9932901D01*
X13123957Y-9930237D01*
X13127563Y-9927647D01*
X13131327Y-9925120D01*
X13135268Y-9922649D01*
X13139404Y-9920225D01*
X13143753Y-9917839D01*
X13148335Y-9915482D01*
X13153167Y-9913147D01*
X13163657Y-9908503D01*
X13175370Y-9903840D01*
X13188455Y-9899087D01*
X13203057Y-9894176D01*
X13219325Y-9889037D01*
X13237406Y-9883602D01*
X13257448Y-9877800D01*
X13279598Y-9871563D01*
X13309079Y-9863528D01*
X13336851Y-9856301D01*
X13362285Y-9850019D01*
X13384757Y-9844823D01*
X13403637Y-9840851D01*
X13418300Y-9838242D01*
X13428118Y-9837135D01*
X13431014Y-9837189D01*
X13432464Y-9837670D01*
X13432413Y-9842439D01*
X13429755Y-9854498D01*
X13416238Y-9901653D01*
X13391148Y-9981458D01*
X13353717Y-10096237D01*
X13238773Y-10440010D01*
X13065278Y-10951562D01*
X13016744Y-11095435D01*
X12977630Y-11213886D01*
X12951927Y-11294647D01*
X12945353Y-11317060D01*
X12943629Y-11325449D01*
X12962083Y-11330374D01*
X13008454Y-11340954D01*
X13148377Y-11371301D01*
X13290254Y-11400923D01*
X13339068Y-11410599D01*
X13360942Y-11414256D01*
X13361264Y-11414343D01*
X13361582Y-11414602D01*
X13361895Y-11415028D01*
X13362203Y-11415618D01*
X13362803Y-11417268D01*
X13363380Y-11419519D01*
X13363928Y-11422337D01*
X13364446Y-11425687D01*
X13364930Y-11429536D01*
X13365376Y-11433849D01*
X13365782Y-11438591D01*
X13366145Y-11443730D01*
X13366460Y-11449230D01*
X13366726Y-11455057D01*
X13366938Y-11461177D01*
X13367093Y-11467556D01*
X13367189Y-11474160D01*
X13367222Y-11480954D01*
X13367222Y-11547652D01*
X13158142Y-11591432D01*
X13076611Y-11608780D01*
X13009180Y-11623651D01*
X12962854Y-11634463D01*
X12949795Y-11637853D01*
X12944639Y-11639635D01*
X12944478Y-11640049D01*
X12944447Y-11640828D01*
X12944769Y-11643444D01*
X12945580Y-11647407D01*
X12946859Y-11652641D01*
X12950723Y-11666624D01*
X12956174Y-11684785D01*
X12963026Y-11706521D01*
X12971092Y-11731226D01*
X12980185Y-11758296D01*
X12990120Y-11787126D01*
X13258673Y-12576758D01*
X13383376Y-12950687D01*
X13435938Y-13114847D01*
X13435775Y-13115669D01*
X13435282Y-13116375D01*
X13434463Y-13116966D01*
X13433321Y-13117443D01*
X13431860Y-13117805D01*
X13430086Y-13118055D01*
X13428001Y-13118193D01*
X13425610Y-13118219D01*
X13419924Y-13117940D01*
X13413061Y-13117224D01*
X13405053Y-13116077D01*
X13395931Y-13114505D01*
X13385729Y-13112513D01*
X13374477Y-13110108D01*
X13362208Y-13107296D01*
X13348954Y-13104083D01*
X13334747Y-13100473D01*
X13319619Y-13096474D01*
X13303602Y-13092092D01*
X13286728Y-13087331D01*
X13286728Y-13087332D01*
X13137443Y-13044620D01*
X12782130Y-12631870D01*
X12418542Y-12210666D01*
X12299495Y-12074477D01*
X12213281Y-11978022D01*
X12153151Y-11913895D01*
X12112355Y-11874690D01*
X12084145Y-11853002D01*
X12061770Y-11841425D01*
X12058801Y-11840303D01*
X12055604Y-11839315D01*
X12052147Y-11838465D01*
X12048398Y-11837759D01*
X12044324Y-11837201D01*
X12039893Y-11836796D01*
X12029830Y-11836462D01*
X12017952Y-11836795D01*
X12004000Y-11837834D01*
X11987715Y-11839617D01*
X11968840Y-11842180D01*
X11947115Y-11845562D01*
X11922283Y-11849801D01*
X11894086Y-11854935D01*
X11862264Y-11861001D01*
X11786714Y-11876082D01*
X11693568Y-11895346D01*
X11362359Y-11964591D01*
X9294755Y-11964591D01*
X9294755Y-13293802D01*
X9342092Y-13409982D01*
X9526615Y-13844125D01*
X9903782Y-14724771D01*
X9946641Y-14817732D01*
X9987071Y-14910638D01*
X10062789Y-15095829D01*
X10208678Y-15460548D01*
X10247124Y-15549885D01*
X10287432Y-15638258D01*
X10330139Y-15725553D01*
X10375781Y-15811656D01*
X10424895Y-15896454D01*
X10478017Y-15979833D01*
X10535684Y-16061679D01*
X10598431Y-16141880D01*
X10778726Y-16360378D01*
X10520848Y-16368235D01*
X10268656Y-16203265D01*
X10016463Y-16038296D01*
X9575338Y-15401354D01*
X8600627Y-13993945D01*
X8218484Y-13443740D01*
X8049004Y-13202841D01*
X8047765Y-13201496D01*
X8046451Y-13200210D01*
X8045058Y-13198982D01*
X8043585Y-13197812D01*
X8042029Y-13196700D01*
X8040389Y-13195644D01*
X8038662Y-13194645D01*
X8036846Y-13193702D01*
X8034940Y-13192815D01*
X8032940Y-13191984D01*
X8030845Y-13191208D01*
X8028654Y-13190486D01*
X8026362Y-13189819D01*
X8023970Y-13189206D01*
X8018873Y-13188140D01*
X8013345Y-13187286D01*
X8007370Y-13186640D01*
X8000931Y-13186199D01*
X7994010Y-13185961D01*
X7986592Y-13185922D01*
X7978660Y-13186079D01*
X7970197Y-13186430D01*
X7961185Y-13186971D01*
X7891406Y-13191738D01*
X7891211Y-13269521D01*
X7890962Y-13285459D01*
X7890331Y-13300933D01*
X7889360Y-13315562D01*
X7888092Y-13328962D01*
X7886569Y-13340753D01*
X7884833Y-13350553D01*
X7883899Y-13354586D01*
X7882927Y-13357978D01*
X7881923Y-13360682D01*
X7880892Y-13362649D01*
X7877276Y-13366738D01*
X7871848Y-13370862D01*
X7855916Y-13379164D01*
X7833817Y-13387448D01*
X7806271Y-13395608D01*
X7774001Y-13403540D01*
X7737726Y-13411137D01*
X7698170Y-13418296D01*
X7656052Y-13424909D01*
X7612095Y-13430872D01*
X7567019Y-13436080D01*
X7521546Y-13440427D01*
X7476397Y-13443807D01*
X7432294Y-13446116D01*
X7389957Y-13447248D01*
X7350108Y-13447097D01*
X7313468Y-13445558D01*
X7227890Y-13438878D01*
X7152668Y-13430668D01*
X7118936Y-13425987D01*
X7087786Y-13420923D01*
X7059217Y-13415473D01*
X7033227Y-13409639D01*
X7009813Y-13403419D01*
X6988973Y-13396812D01*
X6970705Y-13389819D01*
X6955007Y-13382438D01*
X6941876Y-13374669D01*
X6931312Y-13366512D01*
X6923310Y-13357967D01*
X6917870Y-13349031D01*
X6916373Y-13344599D01*
X6914902Y-13338005D01*
X6913464Y-13329377D01*
X6912067Y-13318843D01*
X6909432Y-13292573D01*
X6907062Y-13260224D01*
X6905021Y-13222823D01*
X6903375Y-13181398D01*
X6902187Y-13136977D01*
X6901525Y-13090589D01*
X6901133Y-12995861D01*
X6901672Y-12957381D01*
X6903039Y-12924207D01*
X6905486Y-12895877D01*
X6909267Y-12871928D01*
X6911736Y-12861453D01*
X6914634Y-12851899D01*
X6917992Y-12843210D01*
X6921841Y-12835328D01*
X6926214Y-12828194D01*
X6931141Y-12821752D01*
X6936655Y-12815942D01*
X6942786Y-12810709D01*
X6949568Y-12805992D01*
X6957031Y-12801736D01*
X6965207Y-12797882D01*
X6974127Y-12794373D01*
X6994328Y-12788155D01*
X7017888Y-12782623D01*
X7076093Y-12771761D01*
X7162088Y-12758247D01*
X7203979Y-12752932D01*
X7245215Y-12748580D01*
X7285859Y-12745190D01*
X7325974Y-12742761D01*
X7365622Y-12741294D01*
X7404866Y-12740789D01*
X7443769Y-12741246D01*
X7482394Y-12742664D01*
X7520803Y-12745044D01*
X7559059Y-12748385D01*
X7597224Y-12752688D01*
X7635362Y-12757953D01*
X7673535Y-12764179D01*
X7711806Y-12771366D01*
X7757157Y-12780436D01*
X7638948Y-12609845D01*
X7507859Y-12419712D01*
X7358682Y-12202136D01*
X7196626Y-11965018D01*
X6396660Y-11964803D01*
X5882805Y-11962717D01*
X5701134Y-11959475D01*
X5556399Y-11954090D01*
X5438672Y-11946054D01*
X5338024Y-11934860D01*
X5244529Y-11920000D01*
X5148259Y-11900967D01*
X5050794Y-11879295D01*
X4956359Y-11856091D01*
X4865404Y-11831555D01*
X4778379Y-11805886D01*
X4695733Y-11779284D01*
X4617915Y-11751947D01*
X4545375Y-11724075D01*
X4478562Y-11695868D01*
X4417926Y-11667525D01*
X4363917Y-11639246D01*
X4316984Y-11611230D01*
X4277576Y-11583676D01*
X4246143Y-11556784D01*
X4223134Y-11530754D01*
X4208999Y-11505784D01*
X4205400Y-11493760D01*
X4204188Y-11482075D01*
X4205590Y-11469294D01*
X4209749Y-11456158D01*
X4216597Y-11442697D01*
X4226062Y-11428940D01*
X4238075Y-11414915D01*
X4252566Y-11400652D01*
X4269466Y-11386179D01*
X4288704Y-11371525D01*
X4310211Y-11356719D01*
X4333917Y-11341791D01*
X4387646Y-11311680D01*
X4449334Y-11281423D01*
X4518420Y-11251253D01*
X4594348Y-11221400D01*
X4676557Y-11192095D01*
X4764490Y-11163570D01*
X4857588Y-11136056D01*
X4955292Y-11109783D01*
X5057045Y-11084984D01*
X5162286Y-11061889D01*
X5270459Y-11040730D01*
X5326121Y-11031131D01*
X5353556Y-11027171D01*
X5382466Y-11023710D01*
X5414157Y-11020706D01*
X5449934Y-11018113D01*
X5491101Y-11015887D01*
X5538965Y-11013984D01*
X5594829Y-11012359D01*
X5660000Y-11010967D01*
X5823479Y-11008708D01*
X6039843Y-11006852D01*
X6319531Y-11005043D01*
X6663196Y-11002024D01*
X6944223Y-10997759D01*
X7133898Y-10992811D01*
X7185504Y-10990256D01*
X7203504Y-10987741D01*
X7205704Y-10982516D01*
X7212173Y-10971322D01*
X7237124Y-10932183D01*
X7276773Y-10872642D01*
X7329534Y-10795011D01*
X7468061Y-10594745D01*
X7640029Y-10349903D01*
X7684357Y-10286082D01*
X7703407Y-10257830D01*
X7719781Y-10232941D01*
X7733031Y-10212109D01*
X7742708Y-10196027D01*
X7748362Y-10185389D01*
X7749541Y-10182327D01*
X7749545Y-10180886D01*
X7749167Y-10180605D01*
X7748637Y-10180365D01*
X7747961Y-10180163D01*
X7747142Y-10180001D01*
X7745092Y-10179791D01*
X7742522Y-10179731D01*
X7739465Y-10179816D01*
X7735956Y-10180042D01*
X7732027Y-10180404D01*
X7727714Y-10180899D01*
X7723050Y-10181523D01*
X7718069Y-10182271D01*
X7712805Y-10183138D01*
X7707291Y-10184121D01*
X7701562Y-10185216D01*
X7695652Y-10186417D01*
X7689594Y-10187722D01*
X7683422Y-10189125D01*
X7637585Y-10198116D01*
X7587006Y-10205002D01*
X7532647Y-10209862D01*
X7475473Y-10212778D01*
X7416448Y-10213829D01*
X7356535Y-10213097D01*
X7296700Y-10210662D01*
X7237905Y-10206604D01*
X7181115Y-10201004D01*
X7127293Y-10193943D01*
X7077405Y-10185501D01*
X7032413Y-10175759D01*
X6993282Y-10164797D01*
X6960976Y-10152695D01*
X6936458Y-10139535D01*
X6927421Y-10132583D01*
X6920693Y-10125397D01*
X6919371Y-10123484D01*
X6918105Y-10121300D01*
X6916894Y-10118831D01*
X6915737Y-10116064D01*
X6913581Y-10109585D01*
X6911628Y-10101757D01*
X6909872Y-10092476D01*
X6908303Y-10081637D01*
X6906915Y-10069135D01*
X6905700Y-10054866D01*
X6904650Y-10038725D01*
X6903757Y-10020607D01*
X6903013Y-10000408D01*
X6902410Y-9978023D01*
X6901598Y-9926276D01*
X6901258Y-9864528D01*
X6901303Y-9795163D01*
X6901846Y-9739953D01*
X6903057Y-9696982D01*
X6905111Y-9664334D01*
X6906507Y-9651282D01*
X6908178Y-9640091D01*
X6910146Y-9630523D01*
X6912431Y-9622338D01*
X6915056Y-9615296D01*
X6918043Y-9609157D01*
X6921412Y-9603683D01*
X6925185Y-9598632D01*
X6933362Y-9590373D01*
X6944094Y-9582534D01*
X6957252Y-9575120D01*
X6972705Y-9568135D01*
X7009980Y-9555472D01*
X7054885Y-9544584D01*
X7106383Y-9535509D01*
X7163438Y-9528285D01*
X7225015Y-9522950D01*
X7290076Y-9519541D01*
X7357587Y-9518096D01*
X7426511Y-9518654D01*
X7495812Y-9521252D01*
X7564455Y-9525928D01*
X7631403Y-9532721D01*
X7695621Y-9541668D01*
X7756071Y-9552807D01*
X7811719Y-9566175D01*
X7890239Y-9587692D01*
X7894269Y-9678913D01*
X7898300Y-9770135D01*
X7967092Y-9774081D01*
X8035883Y-9778027D01*
X8311050Y-9377724D01*
X8517834Y-9078070D01*
X8628592Y-8919753D01*
X8795285Y-8680991D01*
X9136551Y-8187926D01*
X9728202Y-7334910D01*
X9841150Y-7173718D01*
X9935676Y-7037336D01*
X9962929Y-6998067D01*
X9975022Y-6981463D01*
X9986730Y-6966337D01*
X9998533Y-6952281D01*
X10010910Y-6938890D01*
X10024340Y-6925755D01*
X10039301Y-6912471D01*
X10056273Y-6898631D01*
X10075735Y-6883827D01*
X10098166Y-6867653D01*
X10124044Y-6849702D01*
X10153849Y-6829567D01*
X10188060Y-6806841D01*
X10271613Y-6751991D01*
X10526142Y-6585361D01*
X10654219Y-6585205D01*
X10684163Y-6585400D01*
D11*
X4447907Y-16665611D02*
X4447907Y-16465611D01*
X4447907Y-16465611D02*
X4495526Y-16465611D01*
X4495526Y-16465611D02*
X4524097Y-16475135D01*
X4524097Y-16475135D02*
X4543145Y-16494182D01*
X4543145Y-16494182D02*
X4552669Y-16513230D01*
X4552669Y-16513230D02*
X4562192Y-16551325D01*
X4562192Y-16551325D02*
X4562192Y-16579896D01*
X4562192Y-16579896D02*
X4552669Y-16617992D01*
X4552669Y-16617992D02*
X4543145Y-16637039D01*
X4543145Y-16637039D02*
X4524097Y-16656087D01*
X4524097Y-16656087D02*
X4495526Y-16665611D01*
X4495526Y-16665611D02*
X4447907Y-16665611D01*
X4647907Y-16665611D02*
X4647907Y-16532277D01*
X4647907Y-16570373D02*
X4657431Y-16551325D01*
X4657431Y-16551325D02*
X4666954Y-16541801D01*
X4666954Y-16541801D02*
X4686002Y-16532277D01*
X4686002Y-16532277D02*
X4705050Y-16532277D01*
X4771716Y-16665611D02*
X4771716Y-16532277D01*
X4771716Y-16465611D02*
X4762192Y-16475135D01*
X4762192Y-16475135D02*
X4771716Y-16484658D01*
X4771716Y-16484658D02*
X4781240Y-16475135D01*
X4781240Y-16475135D02*
X4771716Y-16465611D01*
X4771716Y-16465611D02*
X4771716Y-16484658D01*
X4895526Y-16665611D02*
X4876478Y-16656087D01*
X4876478Y-16656087D02*
X4866954Y-16637039D01*
X4866954Y-16637039D02*
X4866954Y-16465611D01*
X5000288Y-16665611D02*
X4981240Y-16656087D01*
X4981240Y-16656087D02*
X4971716Y-16637039D01*
X4971716Y-16637039D02*
X4971716Y-16465611D01*
X5196478Y-16665611D02*
X5196478Y-16465611D01*
X5196478Y-16465611D02*
X5263145Y-16608468D01*
X5263145Y-16608468D02*
X5329811Y-16465611D01*
X5329811Y-16465611D02*
X5329811Y-16665611D01*
X5510764Y-16665611D02*
X5510764Y-16560849D01*
X5510764Y-16560849D02*
X5501240Y-16541801D01*
X5501240Y-16541801D02*
X5482192Y-16532277D01*
X5482192Y-16532277D02*
X5444097Y-16532277D01*
X5444097Y-16532277D02*
X5425050Y-16541801D01*
X5510764Y-16656087D02*
X5491716Y-16665611D01*
X5491716Y-16665611D02*
X5444097Y-16665611D01*
X5444097Y-16665611D02*
X5425050Y-16656087D01*
X5425050Y-16656087D02*
X5415526Y-16637039D01*
X5415526Y-16637039D02*
X5415526Y-16617992D01*
X5415526Y-16617992D02*
X5425050Y-16598944D01*
X5425050Y-16598944D02*
X5444097Y-16589420D01*
X5444097Y-16589420D02*
X5491716Y-16589420D01*
X5491716Y-16589420D02*
X5510764Y-16579896D01*
X5606002Y-16532277D02*
X5606002Y-16732277D01*
X5606002Y-16541801D02*
X5625049Y-16532277D01*
X5625049Y-16532277D02*
X5663145Y-16532277D01*
X5663145Y-16532277D02*
X5682192Y-16541801D01*
X5682192Y-16541801D02*
X5691716Y-16551325D01*
X5691716Y-16551325D02*
X5701240Y-16570373D01*
X5701240Y-16570373D02*
X5701240Y-16627515D01*
X5701240Y-16627515D02*
X5691716Y-16646563D01*
X5691716Y-16646563D02*
X5682192Y-16656087D01*
X5682192Y-16656087D02*
X5663145Y-16665611D01*
X5663145Y-16665611D02*
X5625049Y-16665611D01*
X5625049Y-16665611D02*
X5606002Y-16656087D01*
X5786954Y-16646563D02*
X5796478Y-16656087D01*
X5796478Y-16656087D02*
X5786954Y-16665611D01*
X5786954Y-16665611D02*
X5777430Y-16656087D01*
X5777430Y-16656087D02*
X5786954Y-16646563D01*
X5786954Y-16646563D02*
X5786954Y-16665611D01*
X5786954Y-16541801D02*
X5796478Y-16551325D01*
X5796478Y-16551325D02*
X5786954Y-16560849D01*
X5786954Y-16560849D02*
X5777430Y-16551325D01*
X5777430Y-16551325D02*
X5786954Y-16541801D01*
X5786954Y-16541801D02*
X5786954Y-16560849D01*
M02*
