<?xml version="1.0" encoding="UTF-8" standalone="no"?>
<!-- Created with Inkscape (http://www.inkscape.org/) -->

<svg
   width="207.007mm"
   height="149.19701mm"
   viewBox="0 0 207.007 149.19701"
   version="1.1"
   id="svg11100"
   xml:space="preserve"
   sodipodi:docname="james_webb_telescope.svg"
   inkscape:version="1.2 (dc2aeda, 2022-05-15)"
   inkscape:export-filename="jw-copper.png"
   inkscape:export-xdpi="1600"
   inkscape:export-ydpi="1600"
   xmlns:inkscape="http://www.inkscape.org/namespaces/inkscape"
   xmlns:sodipodi="http://sodipodi.sourceforge.net/DTD/sodipodi-0.dtd"
   xmlns="http://www.w3.org/2000/svg"
   xmlns:svg="http://www.w3.org/2000/svg"><sodipodi:namedview
     id="namedview11102"
     pagecolor="#ffffff"
     bordercolor="#000000"
     borderopacity="0.25"
     inkscape:pageshadow="2"
     inkscape:pageopacity="0.0"
     inkscape:pagecheckerboard="0"
     inkscape:deskcolor="#d1d1d1"
     inkscape:document-units="mm"
     showgrid="false"
     inkscape:zoom="1.3706484"
     inkscape:cx="351.65838"
     inkscape:cy="279.065"
     inkscape:window-width="1800"
     inkscape:window-height="1097"
     inkscape:window-x="0"
     inkscape:window-y="44"
     inkscape:window-maximized="0"
     inkscape:current-layer="layer2"
     inkscape:showpageshadow="2" /><defs
     id="defs11097"><inkscape:perspective
       sodipodi:type="inkscape:persp3d"
       inkscape:vp_x="0 : 74.598527 : 1"
       inkscape:vp_y="0 : 1000 : 0"
       inkscape:vp_z="207.0074 : 74.59848 : 1"
       inkscape:persp3d-origin="103.5037 : 49.73232 : 1"
       id="perspective1051" /></defs><g
     inkscape:groupmode="layer"
     id="layer3"
     inkscape:label="substrate"
     style="display:inline"><rect
       style="fill:#ffcc00;stroke:none;stroke-width:0.535075;paint-order:stroke markers fill;fill-opacity:1"
       id="rect335"
       width="207.58452"
       height="149.01118"
       x="0"
       y="0"
       inkscape:label="yellow" /></g><g
     inkscape:groupmode="layer"
     id="layer2"
     inkscape:label="copper"
     style="display:inline"><path
       id="path911"
       style="display:inline;fill:#e6e6e6;fill-opacity:1;stroke:none;stroke-width:0.264999;stroke-dasharray:none;stroke-opacity:1"
       inkscape:label="silver"
       d="m 211.68515,112.852 -51.76532,8.06928 -0.92449,3.28972 -4.23282,-0.22738 -0.70331,-2.14871 -0.83974,0.13075 0.8754,2.81171 -1.95751,6.96392 -4.23281,-0.22738 -2.45825,-7.51014 0.22789,-0.86196 -0.53795,0.0837 -0.12557,0.44752 -2.04019,-0.10956 -1.73013,0.26975 -1.09347,0.54881 -1.90479,6.77684 -4.23282,-0.22789 -0.97565,-2.98018 -103.750258,52.05729 3.68763,2.07584 -3.878833,1.94613 4.138249,2.32958 -3.755326,1.88412 3.68763,2.07533 -3.87935,1.94665 3.688147,2.07584 -3.496427,1.75442 17.979264,10.12031 156.538244,-33.69769 31.59911,-32.83055 -2.70061,-1.2237 2.50941,-2.60708 -2.56212,-1.16116 2.75332,-2.86081 -3.09077,-1.40043 2.70785,-2.81327 -2.56212,-1.16117 2.75384,-2.86081 z m -71.07318,11.57862 4.30309,0.13488 2.51044,7.7096 -1.03094,3.58583 -6.49934,-0.80667 -1.21027,-3.49642 z m 0,13.4922 5.02036,0.58291 -0.31367,0.98599 -4.12378,-0.35864 z"
       transform="translate(-28.810006,-57.159276)" /></g><g
     inkscape:groupmode="layer"
     id="layer4"
     inkscape:label="solder mask"
     style="display:inline"><path
       style="display:inline;fill:#ffffff;fill-opacity:1;stroke:none;stroke-width:0.672247;stroke-dasharray:none;stroke-opacity:1"
       d="m 663.19894,543.49588 c -2.08251,-5.81418 -7.49664,-20.99067 -12.03141,-33.72553 -5.28442,-14.84008 -8.59267,-23.21487 -9.21319,-23.32301 -0.53248,-0.0928 -1.40267,0.11048 -1.93375,0.45171 -0.82873,0.53247 -0.51587,4.77662 2.20749,29.94505 2.94491,27.21606 3.09625,29.4419 2.10467,30.95523 -2.22335,3.39326 -3.29526,3.32938 -13.79066,-0.82192 -5.33037,-2.10836 -10.3473,-4.47154 -11.14871,-5.25152 -1.31348,-1.27836 -1.73486,-3.734 -4.27449,-24.9098 -1.54955,-12.9204 -2.94227,-23.62717 -3.09492,-23.79282 -0.15266,-0.16564 -1.16162,0.58945 -2.24212,1.67798 -1.85585,1.86963 -2.10885,2.84341 -4.57189,17.59716 -2.92364,17.51267 -3.1941,18.12765 -8.64346,19.65337 -2.81302,0.7876 -4.32614,0.60292 -19.75253,-2.41084 l -16.70614,-3.26377 v -1.87799 c 0,-1.03533 -0.37646,-1.89447 -0.83899,-1.91473 -0.46144,-0.0202 -74.23359,-8.27501 -163.93809,-18.34402 -108.35298,-12.16223 -163.74542,-18.1282 -165.0246,-17.77377 -1.30701,0.36214 -2.54665,0.21229 -3.85934,-0.46652 -1.06362,-0.55002 -1.95934,-1.06779 -1.99049,-1.1506 -0.31614,-0.84032 -7.11261,-68.68849 -6.90275,-68.90916 0.15547,-0.16349 2.76655,-0.47372 5.8024,-0.6894 l 5.51973,-0.39214 145.71634,-93.78537 145.71635,-93.78536 1.28502,-4.73612 c 0.70676,-2.60486 1.50956,-4.7639 1.78399,-4.79786 0.27445,-0.034 6.85186,0.32804 14.6165,0.80446 l 14.11751,0.86623 3.49481,4.91445 c 2.36785,3.32968 4.03592,5.01972 5.1728,5.24092 0.92288,0.17956 5.8728,0.52773 10.99981,0.77372 l 9.32185,0.44724 38.40793,26.46078 38.40793,26.46077 1.50611,12.89788 c 21.87996,187.37402 20.70219,176.53241 19.38449,178.43761 -0.67309,0.97318 -2.43584,2.25439 -3.91721,2.84712 l -2.69342,1.07769 v 36.78663 c 0,27.71691 -0.19858,36.98521 -0.80543,37.59206 -0.44298,0.44299 -1.6155,0.80543 -2.60559,0.80543 -1.7163,0 -1.97658,-0.49253 -5.58655,-10.57124 z m 1.61448,-39.4324 c 0,-12.36667 -0.19837,-22.48485 -0.44082,-22.48485 -0.24246,0 -3.83792,0.63309 -7.98992,1.40687 l -7.54909,1.40688 1.88222,5.47282 c 2.04917,5.95822 10.82188,30.97878 12.09701,34.50177 0.43425,1.19975 1.06203,2.18137 1.39508,2.18137 0.34785,0 0.60552,-9.5678 0.60552,-22.48486 z m -101.341,5.56215 1.84815,-6.23334 h 8.74173 8.74173 l 2.85504,-11.07463 c 1.57028,-6.09104 3.28103,-12.54265 3.80168,-14.33689 l 0.94664,-3.26227 9.16059,0.24192 9.16059,0.24191 4.09951,-15.77296 4.09951,-15.77296 -3.31506,-9.39666 c -1.82328,-5.16816 -4.1966,-11.98613 -5.27405,-15.15105 l -1.959,-5.75438 4.04736,-13.53819 c 2.22605,-7.446 4.05545,-13.91758 4.06536,-14.3813 0.01,-0.46371 -2.15712,-7.71026 -4.81559,-16.10344 l -4.8336,-15.26033 3.82648,-13.93642 c 2.10457,-7.66504 3.81853,-14.42097 3.80881,-15.01318 -0.0185,-1.1305 -10.52292,-30.7947 -11.11398,-31.38577 -0.18786,-0.18786 -4.01905,-0.81356 -8.51375,-1.39045 l -8.17219,-1.0489 -4.9792,-14.43058 c -2.73855,-7.93682 -5.0833,-14.54417 -5.21054,-14.68301 -0.12725,-0.13883 -3.99859,-0.56909 -8.60297,-0.95613 l -8.3716,-0.7037 -5.23012,-14.89182 -5.23011,-14.89183 -9.74936,-0.641 -9.74936,-0.641 -142.2309,91.9978 c -78.227,50.59879 -142.49607,92.17346 -142.82015,92.38817 -0.32609,0.21603 0.0212,4.31758 0.77767,9.18404 0.7518,4.83652 1.36691,8.9256 1.36691,9.08685 0,0.16126 1.36694,0.67591 3.03765,1.14368 1.6707,0.46777 3.14859,1.03558 3.2842,1.26181 0.13561,0.22623 0.5878,3.73371 1.00487,7.79441 0.41707,4.0607 0.93277,8.64054 1.14601,10.17743 0.35561,2.56305 0.1667,3.03528 -2.2822,5.70511 l -2.66991,2.91077 0.53944,3.92179 c 0.29669,2.15698 0.63718,3.99654 0.75665,4.08791 0.11947,0.0914 9.73133,1.26522 21.35969,2.60854 68.96417,7.96681 246.37463,28.68834 248.40276,29.01342 2.33483,0.37424 2.46205,0.54705 3.99051,5.42072 0.86834,2.76879 1.89434,5.22919 2.28001,5.46755 0.75358,0.46574 35.44611,4.7442 35.87111,4.4238 0.14016,-0.10566 1.0865,-2.9971 2.10298,-6.42544 z m -59.48818,-1.97781 c 0.23329,-1.16642 0.34655,-2.19042 0.2517,-2.27553 -0.37757,-0.33883 -253.77104,-29.83364 -254.03517,-29.5695 -0.15581,0.15581 -0.0753,1.67013 0.17886,3.36516 0.32904,2.1942 0.77851,3.09208 1.56052,3.11733 1.02319,0.033 250.27989,27.22275 251.20045,27.40175 0.23072,0.0448 0.61036,-0.87279 0.84364,-2.03921 z"
       id="path17122"
       inkscape:label="main black fill"
       transform="matrix(0.26458333,0,0,0.26458333,-28.810006,-57.159276)" /><path
       style="display:inline;fill:#ffffff;fill-opacity:1;stroke:#000000;stroke-width:0.264583;stroke-opacity:1"
       d="m 116.74062,110.64925 -0.57167,2.22952 -5.54521,1.77218 -0.68601,1.94368 -0.343,1.65785 0.343,1.60068 0.85751,2.00085 5.54521,1.31485 0.91468,2.05801 4.23037,0.1715 1.88651,-6.91722 -2.40102,-7.54606 z"
       id="path11190"
       inkscape:label="black part of mirror"
       transform="translate(-6.0056186,-74.626076)" /><path
       style="display:inline;fill:none;stroke:#ffffff;stroke-width:0.264999;stroke-dasharray:none;stroke-opacity:1;paint-order:stroke markers fill"
       d="m 4.1158059,137.18777 -3.40678052,1.76391 17.92592862,10.11056 156.563316,-33.67376 31.57769,-32.879769 -2.689,-1.166551"
       id="path1063"
       inkscape:label="5th sail" /><path
       style="display:inline;fill:none;stroke:#ffffff;stroke-width:0.264999;stroke-dasharray:none;stroke-opacity:1;paint-order:stroke markers fill"
       d="m 4.4043041,133.16401 -3.89889215,1.94945 17.95415705,10.1323 156.505871,-33.72222 31.60147,-32.835844 -2.56733,-1.180597"
       id="path1060"
       inkscape:label="4th sail" /><path
       style="display:inline;fill:none;stroke:#ffffff;stroke-width:0.264999;stroke-dasharray:none;stroke-opacity:1;paint-order:stroke markers fill"
       d="M 4.3621406,129.21443 0.69906099,131.05995 18.626673,141.21475 175.20335,107.4887 206.73139,74.626641 203.74903,73.304918"
       id="path1057"
       inkscape:label="3rd sail" /><path
       style="display:inline;fill:none;stroke:#ffffff;stroke-width:0.264999;stroke-dasharray:none;stroke-opacity:1;paint-order:stroke markers fill"
       d="m 203.7683,69.327466 2.6478,1.118788 L 174.80844,103.29373 18.242889,136.98414 0.33059457,126.86566 4.1048823,124.93719"
       id="path1054"
       inkscape:label="2nd sail" /><path
       style="display:inline;fill:none;fill-opacity:1;stroke:#ffffff;stroke-width:0.264999;stroke-dasharray:none;stroke-opacity:1;paint-order:stroke markers fill"
       d="M 104.115,70.816099 0.51134319,122.80759 18.452949,132.98374 175.0044,99.278396 206.58115,66.430617 182.87562,55.665121 150.25754,60.779879"
       id="path1228"
       inkscape:label="1st sail" /><path
       style="display:inline;fill:none;fill-opacity:1;stroke:#ffffff;stroke-width:1.3;stroke-dasharray:none;stroke-opacity:1"
       d="m 137.96331,61.303698 -1.91949,7.55799 -4.67875,-0.11997 -1.91949,7.318055 -4.55879,-0.119968 -2.2794,7.917894 2.75927,7.917895 -2.27939,7.797927 2.87923,7.917889 -2.27939,7.79793 2.87923,8.03786 4.43882,0.23994 2.75927,7.67796 4.19888,0.23993 3.11917,7.9179 6.11837,0.83977 1.67956,-7.07811 4.67875,-0.23994 2.15943,-7.67796 4.91869,-0.11997 2.03946,-7.79792 -2.87924,-7.9179 2.15943,-7.55799 -2.39936,-8.157828 2.03946,-7.797924 -2.99921,-7.917897 -4.43882,-0.719807 -2.63929,-7.677959 -4.43882,-0.479872 -2.75927,-7.55799 z"
       id="path3632"
       inkscape:label="mirror sides"
       transform="translate(-28.810006,-57.159276)" /><path
       style="fill:none;fill-opacity:1;stroke:#ffffff;stroke-width:1.3;stroke-dasharray:none;stroke-opacity:1;paint-order:stroke markers fill"
       d="m 109.30476,77.944976 12.72571,1.590715"
       id="path4372" /><path
       style="fill:none;fill-opacity:1;stroke:#ffffff;stroke-width:1.3;stroke-dasharray:none;stroke-opacity:1;paint-order:stroke markers fill"
       d="m 111.50146,80.217424 8.71106,1.211975"
       id="path4374" /><path
       style="fill:none;fill-opacity:1;stroke:#ffffff;stroke-width:1.3;stroke-dasharray:none;stroke-opacity:1;paint-order:stroke markers fill"
       d="m 124.53017,78.929705 1.96945,-6.968842"
       id="path4376" /><path
       style="fill:none;fill-opacity:1;stroke:#ffffff;stroke-width:1.3;stroke-dasharray:none;stroke-opacity:1;paint-order:stroke markers fill"
       d="m 116.70476,82.722632 2.19483,-7.871137 -2.57325,-7.871138 -4.69241,-0.302736 -2.04347,7.871137 2.42189,7.871137 z"
       id="path4378" /><path
       style="fill:none;fill-opacity:1;stroke:#ffffff;stroke-width:1.3;stroke-dasharray:none;stroke-opacity:1;paint-order:stroke markers fill"
       d="m 119.05096,74.851495 4.54104,0.227052 2.19484,-7.871137 -2.64894,-7.568404 -4.76809,-0.302736 -1.96779,7.568403 z"
       id="path4380" /><path
       style="fill:none;fill-opacity:1;stroke:#ffffff;stroke-width:1.3;stroke-dasharray:none;stroke-opacity:1;paint-order:stroke markers fill"
       d="m 118.44549,59.33627 -2.72463,-8.173873 2.11916,-7.417033 4.69241,0.37842 2.64894,7.795453 -2.11915,7.644085 z"
       id="path4382" /><path
       style="fill:none;fill-opacity:1;stroke:#ffffff;stroke-width:1.3;stroke-dasharray:none;stroke-opacity:1;paint-order:stroke markers fill"
       d="m 122.53243,43.972416 2.11915,-7.87114 4.76809,0.37842 2.72463,8.400926 -2.11916,7.265667 -4.84377,-0.227052 z"
       id="path4384" /><path
       style="fill:none;fill-opacity:1;stroke:#ffffff;stroke-width:1.3;stroke-dasharray:none;stroke-opacity:1;paint-order:stroke markers fill"
       d="m 125.18137,51.919237 4.91946,0.37842 2.57326,7.644085 -2.11916,7.49272 -4.91946,0.07568 -2.49757,-7.946824 z"
       id="path4386" /><path
       style="fill:none;fill-opacity:1;stroke:#ffffff;stroke-width:1.3;stroke-dasharray:none;stroke-opacity:1;paint-order:stroke markers fill"
       d="m 115.87223,51.389449 -4.84378,-0.151368 -1.96778,7.417032 2.72463,8.24956 4.6924,0.302737 1.96779,-7.719772 z"
       id="path4388" /><path
       style="fill:none;fill-opacity:1;stroke:#ffffff;stroke-width:1.3;stroke-dasharray:none;stroke-opacity:1;paint-order:stroke markers fill"
       d="m 102.40048,66.299201 -4.768096,-0.302736 -2.573256,-7.795453 2.194836,-8.098192 4.389676,0.227052 2.87599,8.173873 z"
       id="path4390" /><path
       style="fill:none;fill-opacity:1;stroke:#ffffff;stroke-width:1.3;stroke-dasharray:none;stroke-opacity:1;paint-order:stroke markers fill"
       d="m 104.59531,58.579429 4.38968,0.227052 2.11915,-7.644084 -2.57326,-7.492717 -4.84377,-0.302737 -1.96779,6.811561 z"
       id="path4392" /><path
       style="fill:none;fill-opacity:1;stroke:#ffffff;stroke-width:1.3;stroke-dasharray:none;stroke-opacity:1;paint-order:stroke markers fill"
       d="m 96.799859,50.10282 4.919461,0.302736 2.19484,-7.871137 -2.49758,-7.719769 -5.070825,-0.227052 -2.043467,7.5684 z"
       id="path4394" /><path
       style="fill:none;fill-opacity:1;stroke:#ffffff;stroke-width:1.3;stroke-dasharray:none;stroke-opacity:1;paint-order:stroke markers fill"
       d="m 96.497123,34.587598 4.768097,0.151368 1.96778,-7.189983 -2.57326,-8.47661 -4.465353,-0.151368 -2.421888,7.644085 z"
       id="path4396" /><path
       style="fill:none;fill-opacity:1;stroke:#ffffff;stroke-width:1.3;stroke-dasharray:none;stroke-opacity:1;paint-order:stroke markers fill"
       d="m 102.47616,11.806707 -2.04347,7.34135 2.95168,8.173873 4.54104,0.227053 2.04347,-7.644086 -2.64894,-8.09819 z"
       id="path4398" /><path
       style="fill:none;fill-opacity:1;stroke:#ffffff;stroke-width:1.3;stroke-dasharray:none;stroke-opacity:1;paint-order:stroke markers fill"
       d="m 107.16857,11.806707 2.04347,-7.644086 5.37356,0.302736 2.57326,7.71977 -2.49757,7.871138 -4.46536,-0.227052 z"
       id="path4400" /><path
       style="fill:none;fill-opacity:1;stroke:#ffffff;stroke-width:1.3;stroke-dasharray:none;stroke-opacity:1;paint-order:stroke markers fill"
       d="m 109.89319,19.677845 -1.96778,8.09819 2.64894,7.644085 4.69241,0.227052 2.11915,-7.492717 -2.72462,-7.946822 z"
       id="path4402" /><path
       style="fill:none;fill-opacity:1;stroke:#ffffff;stroke-width:1.3;stroke-dasharray:none;stroke-opacity:1;paint-order:stroke markers fill"
       d="m 107.69836,27.548983 2.95167,8.098189 -1.89209,7.417035 -4.7681,-0.151368 -2.72462,-8.173873 2.11915,-7.49272 z"
       id="path4404" /><path
       style="fill:none;fill-opacity:1;stroke:#ffffff;stroke-width:1.3;stroke-dasharray:none;stroke-opacity:1;paint-order:stroke markers fill"
       d="m 114.73697,35.647172 3.10305,8.173876 4.76809,0.227052 2.11915,-7.87114 -2.64894,-7.719769 -4.54104,-0.227052 z"
       id="path4406" /><path
       style="fill:none;fill-opacity:1;stroke:#ffffff;stroke-width:1.3;stroke-dasharray:none;stroke-opacity:1;paint-order:stroke markers fill"
       d="m 114.5856,20.207633 2.19484,-7.644086 4.38967,0.227052 2.80031,8.173874 -2.11915,7.417034 -4.46536,-0.227052 z"
       id="path4408" /><path
       style="fill:none;fill-opacity:1;stroke:#ffffff;stroke-width:1.3;stroke-dasharray:none;stroke-opacity:1;paint-order:stroke markers fill"
       d="m 123.81905,20.888789 4.91946,0.302736 2.49758,7.644087 -2.27052,7.871137 -4.46536,-0.454105 -2.57326,-7.795453 z"
       id="path4410" /><path
       style="fill:none;fill-opacity:1;stroke:#ffffff;stroke-width:1.3;stroke-dasharray:none;stroke-opacity:1;paint-order:stroke markers fill"
       d="m 117.64589,82.594782 1.79749,-7.100096"
       id="path4425" /><path
       style="fill:none;fill-opacity:1;stroke:#ffffff;stroke-width:1.3;stroke-dasharray:none;stroke-opacity:1;paint-order:stroke markers fill"
       d="m 130.94733,68.304716 1.25825,-3.864607"
       id="path4427" /><path
       style="fill:none;fill-opacity:1;stroke:#ffffff;stroke-width:1.3;stroke-dasharray:none;stroke-opacity:1;paint-order:stroke markers fill"
       d="m 123.93711,74.865565 2.15699,-6.740596"
       id="path4429" /><path
       style="fill:none;fill-opacity:1;stroke:#ffffff;stroke-width:1.3;stroke-dasharray:none;stroke-opacity:1;paint-order:stroke markers fill"
       d="m 131.93595,50.150042 2.15699,-5.931725"
       id="path4431" /><path
       style="fill:none;fill-opacity:1;stroke:#ffffff;stroke-width:1.3;stroke-dasharray:none;stroke-opacity:1;paint-order:stroke markers fill"
       d="m 129.95871,36.219474 2.15699,-7.459594 -1.70762,-4.403856"
       id="path4433" /><path
       style="fill:none;fill-opacity:1;stroke:#ffffff;stroke-width:1.3;stroke-dasharray:none;stroke-opacity:1;paint-order:stroke markers fill"
       d="m 124.74598,20.850913 -2.87599,-7.998841"
       id="path4435" /><path
       style="fill:none;fill-opacity:1;stroke:#ffffff;stroke-width:1.3;stroke-dasharray:none;stroke-opacity:1;paint-order:stroke markers fill"
       d="M 131.48658,37.927092 129.68909,35.94985"
       id="path4437" /><path
       id="path4547"
       style="display:inline;fill:#000000;fill-opacity:1;stroke:none;stroke-width:0.535075;paint-order:stroke markers fill"
       inkscape:label="white"
       d="M 0,0 V 149.01106 H 18.562691 L 0.66507568,138.93674 4.1615031,137.18232 0.47335612,135.10648 4.3527059,133.15983 0.66507568,131.08451 4.420402,129.20038 0.28215332,126.87081 4.1609863,124.92467 0.47335612,122.84883 104.22361,70.791545 l -1.48259,-4.529956 1.86655,-7.055384 4.41472,0.227893 2.36729,7.601087 -0.0527,0.187585 1.09348,-0.548804 1.73012,-0.269751 -2.19314,-0.117822 -2.45774,-7.510136 1.86604,-7.055383 4.41524,0.227376 2.36678,7.601604 -1.83142,6.516398 0.53795,-0.08372 1.63866,-6.193421 4.41524,0.227377 1.49138,4.789888 0.83974,-0.130741 -1.75441,-5.361947 1.86603,-7.054866 4.41524,0.227376 2.36678,7.601603 -1.03301,3.674195 51.76531,-8.069275 23.71535,10.747664 -2.75384,2.860807 2.56212,1.16117 -2.70784,2.813265 3.09076,1.400431 -2.75332,2.860807 2.56212,1.16117 -2.50941,2.607076 2.70061,1.223698 -31.5991,32.830561 -156.324826,33.65169 H 207.58475 V 0 Z m 109.76229,4.7454468 4.41472,0.227893 2.3673,7.6010862 -1.95751,6.964433 -4.23281,-0.227893 -2.45825,-7.510136 z m -6.85849,7.5752482 4.41523,0.227376 2.3673,7.601603 -1.95751,6.963916 -4.23281,-0.227376 -2.45825,-7.510136 z m 13.98519,0.806669 4.41523,0.227893 2.36678,7.601087 -1.95698,6.964432 -4.23334,-0.227893 -2.45773,-7.510136 z m -20.708297,6.409945 4.414717,0.227893 2.3673,7.601086 -1.95751,6.964433 -4.232812,-0.227893 -2.458248,-7.510136 z m 13.984677,0.941544 4.41523,0.227377 2.36678,7.601603 -1.95698,6.963916 -4.23334,-0.227376 -2.45773,-7.510653 z m 14.07459,0.582394 4.41524,0.227893 2.36729,7.601086 -1.9575,6.964433 -4.23333,-0.227893 -2.45773,-7.510136 z m -20.68556,6.765478 4.2137,0.179317 2.42052,7.440373 -0.80667,2.869076 -4.886,1.523938 -0.62735,1.793172 -2.24121,-6.63422 z m 13.78314,0.854728 4.41472,0.227377 2.3673,7.601603 -1.95751,6.963916 -4.23281,-0.227376 -2.45825,-7.510136 z m -20.529496,6.27507 4.415236,0.227893 2.36678,7.601086 -1.95699,6.964433 -4.23333,-0.227893 -2.457732,-7.510136 z m 28.059786,2.017448 4.41523,0.227376 2.36679,7.601603 -1.95751,6.963916 -4.23281,-0.227376 -2.45825,-7.510653 z m -6.90294,7.395931 4.41524,0.227376 2.36678,7.601603 -1.95751,6.963916 -4.23281,-0.227376 -2.45773,-7.510653 z m -14.36553,0.399975 0.98599,2.554883 5.19968,1.300179 0.89659,2.599841 -1.88258,7.082255 -4.16873,-0.314192 -2.59985,-7.53029 z m -6.163964,5.920052 4.415234,0.227377 2.36678,7.601603 -1.95699,6.963916 -4.233329,-0.227377 -2.457731,-7.510136 z" /></g><g
     inkscape:groupmode="layer"
     id="layer8"
     inkscape:label="silkscreen"
     style="display:inline"><path
       id="rect1123-5"
       style="display:inline;fill:#ffffff;fill-opacity:1;stroke:none;stroke-width:0.535075;paint-order:stroke markers fill"
       inkscape:label="white"
       d="M 0,0 V 149.01106 H 18.562691 L 0.66507568,138.93674 4.1615031,137.18232 0.47335612,135.10648 4.3527059,133.15983 0.66507568,131.08451 4.420402,129.20038 0.28215332,126.87081 4.1609863,124.92467 0.47335612,122.84883 104.22361,70.791545 l -1.48259,-4.529956 1.86655,-7.055384 4.41472,0.227893 2.36729,7.601087 -0.0527,0.187585 1.09348,-0.548804 1.73012,-0.269751 -2.19314,-0.117822 -2.45774,-7.510136 1.86604,-7.055383 4.41524,0.227376 2.36678,7.601604 -1.83142,6.516398 0.53795,-0.08372 1.63866,-6.193421 4.41524,0.227377 1.49138,4.789888 0.83974,-0.130741 -1.75441,-5.361947 1.86603,-7.054866 4.41524,0.227376 2.36678,7.601603 -1.03301,3.674195 51.76531,-8.069275 23.71535,10.747664 -2.75384,2.860807 2.56212,1.16117 -2.70784,2.813265 3.09076,1.400431 -2.75332,2.860807 2.56212,1.16117 -2.50941,2.607076 2.70061,1.223698 -31.5991,32.830561 -156.324826,33.65169 H 207.58475 V 0 Z m 109.76229,4.7454468 4.41472,0.227893 2.3673,7.6010862 -1.95751,6.964433 -4.23281,-0.227893 -2.45825,-7.510136 z m -6.85849,7.5752482 4.41523,0.227376 2.3673,7.601603 -1.95751,6.963916 -4.23281,-0.227376 -2.45825,-7.510136 z m 13.98519,0.806669 4.41523,0.227893 2.36678,7.601087 -1.95698,6.964432 -4.23334,-0.227893 -2.45773,-7.510136 z m -20.708297,6.409945 4.414717,0.227893 2.3673,7.601086 -1.95751,6.964433 -4.232812,-0.227893 -2.458248,-7.510136 z m 13.984677,0.941544 4.41523,0.227377 2.36678,7.601603 -1.95698,6.963916 -4.23334,-0.227376 -2.45773,-7.510653 z m 14.07459,0.582394 4.41524,0.227893 2.36729,7.601086 -1.9575,6.964433 -4.23333,-0.227893 -2.45773,-7.510136 z m -20.68556,6.765478 4.2137,0.179317 2.42052,7.440373 -0.80667,2.869076 -4.886,1.523938 -0.62735,1.793172 -2.24121,-6.63422 z m 13.78314,0.854728 4.41472,0.227377 2.3673,7.601603 -1.95751,6.963916 -4.23281,-0.227376 -2.45825,-7.510136 z m -20.529496,6.27507 4.415236,0.227893 2.36678,7.601086 -1.95699,6.964433 -4.23333,-0.227893 -2.457732,-7.510136 z m 28.059786,2.017448 4.41523,0.227376 2.36679,7.601603 -1.95751,6.963916 -4.23281,-0.227376 -2.45825,-7.510653 z m -6.90294,7.395931 4.41524,0.227376 2.36678,7.601603 -1.95751,6.963916 -4.23281,-0.227376 -2.45773,-7.510653 z m -14.36553,0.399975 0.98599,2.554883 5.19968,1.300179 0.89659,2.599841 -1.88258,7.082255 -4.16873,-0.314192 -2.59985,-7.53029 z m -6.163964,5.920052 4.415234,0.227377 2.36678,7.601603 -1.95699,6.963916 -4.233329,-0.227377 -2.457731,-7.510136 z" /><path
       style="display:inline;fill:#000000;fill-opacity:1;stroke:none;stroke-width:0.672247;stroke-dasharray:none;stroke-opacity:1"
       d="m 663.19894,543.49588 c -2.08251,-5.81418 -7.49664,-20.99067 -12.03141,-33.72553 -5.28442,-14.84008 -8.59267,-23.21487 -9.21319,-23.32301 -0.53248,-0.0928 -1.40267,0.11048 -1.93375,0.45171 -0.82873,0.53247 -0.51587,4.77662 2.20749,29.94505 2.94491,27.21606 3.09625,29.4419 2.10467,30.95523 -2.22335,3.39326 -3.29526,3.32938 -13.79066,-0.82192 -5.33037,-2.10836 -10.3473,-4.47154 -11.14871,-5.25152 -1.31348,-1.27836 -1.73486,-3.734 -4.27449,-24.9098 -1.54955,-12.9204 -2.94227,-23.62717 -3.09492,-23.79282 -0.15266,-0.16564 -1.16162,0.58945 -2.24212,1.67798 -1.85585,1.86963 -2.10885,2.84341 -4.57189,17.59716 -2.92364,17.51267 -3.1941,18.12765 -8.64346,19.65337 -2.81302,0.7876 -4.32614,0.60292 -19.75253,-2.41084 l -16.70614,-3.26377 v -1.87799 c 0,-1.03533 -0.37646,-1.89447 -0.83899,-1.91473 -0.46144,-0.0202 -74.23359,-8.27501 -163.93809,-18.34402 -108.35298,-12.16223 -163.74542,-18.1282 -165.0246,-17.77377 -1.30701,0.36214 -2.54665,0.21229 -3.85934,-0.46652 -1.06362,-0.55002 -1.95934,-1.06779 -1.99049,-1.1506 -0.31614,-0.84032 -7.11261,-68.68849 -6.90275,-68.90916 0.15547,-0.16349 2.76655,-0.47372 5.8024,-0.6894 l 5.51973,-0.39214 145.71634,-93.78537 145.71635,-93.78536 1.28502,-4.73612 c 0.70676,-2.60486 1.50956,-4.7639 1.78399,-4.79786 0.27445,-0.034 6.85186,0.32804 14.6165,0.80446 l 14.11751,0.86623 3.49481,4.91445 c 2.36785,3.32968 4.03592,5.01972 5.1728,5.24092 0.92288,0.17956 5.8728,0.52773 10.99981,0.77372 l 9.32185,0.44724 38.40793,26.46078 38.40793,26.46077 1.50611,12.89788 c 21.87996,187.37402 20.70219,176.53241 19.38449,178.43761 -0.67309,0.97318 -2.43584,2.25439 -3.91721,2.84712 l -2.69342,1.07769 v 36.78663 c 0,27.71691 -0.19858,36.98521 -0.80543,37.59206 -0.44298,0.44299 -1.6155,0.80543 -2.60559,0.80543 -1.7163,0 -1.97658,-0.49253 -5.58655,-10.57124 z m 1.61448,-39.4324 c 0,-12.36667 -0.19837,-22.48485 -0.44082,-22.48485 -0.24246,0 -3.83792,0.63309 -7.98992,1.40687 l -7.54909,1.40688 1.88222,5.47282 c 2.04917,5.95822 10.82188,30.97878 12.09701,34.50177 0.43425,1.19975 1.06203,2.18137 1.39508,2.18137 0.34785,0 0.60552,-9.5678 0.60552,-22.48486 z m -101.341,5.56215 1.84815,-6.23334 h 8.74173 8.74173 l 2.85504,-11.07463 c 1.57028,-6.09104 3.28103,-12.54265 3.80168,-14.33689 l 0.94664,-3.26227 9.16059,0.24192 9.16059,0.24191 4.09951,-15.77296 4.09951,-15.77296 -3.31506,-9.39666 c -1.82328,-5.16816 -4.1966,-11.98613 -5.27405,-15.15105 l -1.959,-5.75438 4.04736,-13.53819 c 2.22605,-7.446 4.05545,-13.91758 4.06536,-14.3813 0.01,-0.46371 -2.15712,-7.71026 -4.81559,-16.10344 l -4.8336,-15.26033 3.82648,-13.93642 c 2.10457,-7.66504 3.81853,-14.42097 3.80881,-15.01318 -0.0185,-1.1305 -10.52292,-30.7947 -11.11398,-31.38577 -0.18786,-0.18786 -4.01905,-0.81356 -8.51375,-1.39045 l -8.17219,-1.0489 -4.9792,-14.43058 c -2.73855,-7.93682 -5.0833,-14.54417 -5.21054,-14.68301 -0.12725,-0.13883 -3.99859,-0.56909 -8.60297,-0.95613 l -8.3716,-0.7037 -5.23012,-14.89182 -5.23011,-14.89183 -9.74936,-0.641 -9.74936,-0.641 -142.2309,91.9978 c -78.227,50.59879 -142.49607,92.17346 -142.82015,92.38817 -0.32609,0.21603 0.0212,4.31758 0.77767,9.18404 0.7518,4.83652 1.36691,8.9256 1.36691,9.08685 0,0.16126 1.36694,0.67591 3.03765,1.14368 1.6707,0.46777 3.14859,1.03558 3.2842,1.26181 0.13561,0.22623 0.5878,3.73371 1.00487,7.79441 0.41707,4.0607 0.93277,8.64054 1.14601,10.17743 0.35561,2.56305 0.1667,3.03528 -2.2822,5.70511 l -2.66991,2.91077 0.53944,3.92179 c 0.29669,2.15698 0.63718,3.99654 0.75665,4.08791 0.11947,0.0914 9.73133,1.26522 21.35969,2.60854 68.96417,7.96681 246.37463,28.68834 248.40276,29.01342 2.33483,0.37424 2.46205,0.54705 3.99051,5.42072 0.86834,2.76879 1.89434,5.22919 2.28001,5.46755 0.75358,0.46574 35.44611,4.7442 35.87111,4.4238 0.14016,-0.10566 1.0865,-2.9971 2.10298,-6.42544 z m -59.48818,-1.97781 c 0.23329,-1.16642 0.34655,-2.19042 0.2517,-2.27553 -0.37757,-0.33883 -253.77104,-29.83364 -254.03517,-29.5695 -0.15581,0.15581 -0.0753,1.67013 0.17886,3.36516 0.32904,2.1942 0.77851,3.09208 1.56052,3.11733 1.02319,0.033 250.27989,27.22275 251.20045,27.40175 0.23072,0.0448 0.61036,-0.87279 0.84364,-2.03921 z"
       id="path4439"
       inkscape:label="main black fill"
       transform="matrix(0.26458333,0,0,0.26458333,-28.810006,-57.159276)" /><path
       style="display:inline;fill:#000000;fill-opacity:1;stroke:#000000;stroke-width:0.264583;stroke-opacity:1"
       d="m 116.74062,110.64925 -0.57167,2.22952 -5.54521,1.77218 -0.68601,1.94368 -0.343,1.65785 0.343,1.60068 0.85751,2.00085 5.54521,1.31485 0.91468,2.05801 4.23037,0.1715 1.88651,-6.91722 -2.40102,-7.54606 z"
       id="path4441"
       inkscape:label="black part of mirror"
       transform="translate(-6.0056186,-74.626076)" /><path
       style="display:inline;fill:none;stroke:#000000;stroke-width:0.264999;stroke-dasharray:none;stroke-opacity:1;paint-order:stroke markers fill"
       d="m 4.1158059,137.18777 -3.40678052,1.76391 17.92592862,10.11056 156.563316,-33.67376 31.57769,-32.879769 -2.689,-1.166551"
       id="path4443"
       inkscape:label="5th sail" /><path
       style="display:inline;fill:none;stroke:#000000;stroke-width:0.264999;stroke-dasharray:none;stroke-opacity:1;paint-order:stroke markers fill"
       d="m 4.4043041,133.16401 -3.89889215,1.94945 17.95415705,10.1323 156.505871,-33.72222 31.60147,-32.835844 -2.56733,-1.180597"
       id="path4445"
       inkscape:label="4th sail" /><path
       style="display:inline;fill:none;stroke:#000000;stroke-width:0.264999;stroke-dasharray:none;stroke-opacity:1;paint-order:stroke markers fill"
       d="M 4.3621406,129.21443 0.69906099,131.05995 18.626673,141.21475 175.20335,107.4887 206.73139,74.626641 203.74903,73.304918"
       id="path4447"
       inkscape:label="3rd sail" /><path
       style="display:inline;fill:none;stroke:#000000;stroke-width:0.264999;stroke-dasharray:none;stroke-opacity:1;paint-order:stroke markers fill"
       d="m 203.7683,69.327466 2.6478,1.118788 L 174.80844,103.29373 18.242889,136.98414 0.33059457,126.86566 4.1048823,124.93719"
       id="path4449"
       inkscape:label="2nd sail" /><path
       style="display:inline;fill:none;fill-opacity:1;stroke:#000000;stroke-width:0.264999;stroke-dasharray:none;stroke-opacity:1;paint-order:stroke markers fill"
       d="M 104.115,70.816099 0.51134319,122.80759 18.452949,132.98374 175.0044,99.278396 206.58115,66.430617 182.87562,55.665121 150.25754,60.779879"
       id="path4451"
       inkscape:label="1st sail" /><path
       style="display:inline;fill:none;fill-opacity:1;stroke:#000000;stroke-width:1.3;stroke-dasharray:none;stroke-opacity:1"
       d="m 137.96331,61.303698 -1.91949,7.55799 -4.67875,-0.11997 -1.91949,7.318055 -4.55879,-0.119968 -2.2794,7.917894 2.75927,7.917895 -2.27939,7.797927 2.87923,7.917889 -2.27939,7.79793 2.87923,8.03786 4.43882,0.23994 2.75927,7.67796 4.19888,0.23993 3.11917,7.9179 6.11837,0.83977 1.67956,-7.07811 4.67875,-0.23994 2.15943,-7.67796 4.91869,-0.11997 2.03946,-7.79792 -2.87924,-7.9179 2.15943,-7.55799 -2.39936,-8.157828 2.03946,-7.797924 -2.99921,-7.917897 -4.43882,-0.719807 -2.63929,-7.677959 -4.43882,-0.479872 -2.75927,-7.55799 z"
       id="path4453"
       inkscape:label="mirror sides"
       transform="translate(-28.810006,-57.159276)" /><path
       style="display:inline;fill:none;fill-opacity:1;stroke:#000000;stroke-width:1.3;stroke-dasharray:none;stroke-opacity:1;paint-order:stroke markers fill"
       d="m 109.30476,77.944976 12.72571,1.590715"
       id="path4455" /><path
       style="display:inline;fill:none;fill-opacity:1;stroke:#000000;stroke-width:1.3;stroke-dasharray:none;stroke-opacity:1;paint-order:stroke markers fill"
       d="m 111.50146,80.217424 8.71106,1.211975"
       id="path4457" /><path
       style="display:inline;fill:none;fill-opacity:1;stroke:#000000;stroke-width:1.3;stroke-dasharray:none;stroke-opacity:1;paint-order:stroke markers fill"
       d="m 124.53017,78.929705 1.96945,-6.968842"
       id="path4459" /><path
       style="display:inline;fill:none;fill-opacity:1;stroke:#000000;stroke-width:1.3;stroke-dasharray:none;stroke-opacity:1;paint-order:stroke markers fill"
       d="m 116.70476,82.722632 2.19483,-7.871137 -2.57325,-7.871138 -4.69241,-0.302736 -2.04347,7.871137 2.42189,7.871137 z"
       id="path4461" /><path
       style="display:inline;fill:none;fill-opacity:1;stroke:#000000;stroke-width:1.3;stroke-dasharray:none;stroke-opacity:1;paint-order:stroke markers fill"
       d="m 119.05096,74.851495 4.54104,0.227052 2.19484,-7.871137 -2.64894,-7.568404 -4.76809,-0.302736 -1.96779,7.568403 z"
       id="path4463" /><path
       style="display:inline;fill:none;fill-opacity:1;stroke:#000000;stroke-width:1.3;stroke-dasharray:none;stroke-opacity:1;paint-order:stroke markers fill"
       d="m 118.44549,59.33627 -2.72463,-8.173873 2.11916,-7.417033 4.69241,0.37842 2.64894,7.795453 -2.11915,7.644085 z"
       id="path4465" /><path
       style="display:inline;fill:none;fill-opacity:1;stroke:#000000;stroke-width:1.3;stroke-dasharray:none;stroke-opacity:1;paint-order:stroke markers fill"
       d="m 122.53243,43.972416 2.11915,-7.87114 4.76809,0.37842 2.72463,8.400926 -2.11916,7.265667 -4.84377,-0.227052 z"
       id="path4467" /><path
       style="display:inline;fill:none;fill-opacity:1;stroke:#000000;stroke-width:1.3;stroke-dasharray:none;stroke-opacity:1;paint-order:stroke markers fill"
       d="m 125.18137,51.919237 4.91946,0.37842 2.57326,7.644085 -2.11916,7.49272 -4.91946,0.07568 -2.49757,-7.946824 z"
       id="path4469" /><path
       style="display:inline;fill:none;fill-opacity:1;stroke:#000000;stroke-width:1.3;stroke-dasharray:none;stroke-opacity:1;paint-order:stroke markers fill"
       d="m 115.87223,51.389449 -4.84378,-0.151368 -1.96778,7.417032 2.72463,8.24956 4.6924,0.302737 1.96779,-7.719772 z"
       id="path4471" /><path
       style="display:inline;fill:none;fill-opacity:1;stroke:#000000;stroke-width:1.3;stroke-dasharray:none;stroke-opacity:1;paint-order:stroke markers fill"
       d="m 102.40048,66.299201 -4.768096,-0.302736 -2.573256,-7.795453 2.194836,-8.098192 4.389676,0.227052 2.87599,8.173873 z"
       id="path4473" /><path
       style="display:inline;fill:none;fill-opacity:1;stroke:#000000;stroke-width:1.3;stroke-dasharray:none;stroke-opacity:1;paint-order:stroke markers fill"
       d="m 104.59531,58.579429 4.38968,0.227052 2.11915,-7.644084 -2.57326,-7.492717 -4.84377,-0.302737 -1.96779,6.811561 z"
       id="path4475" /><path
       style="display:inline;fill:none;fill-opacity:1;stroke:#000000;stroke-width:1.3;stroke-dasharray:none;stroke-opacity:1;paint-order:stroke markers fill"
       d="m 96.799859,50.10282 4.919461,0.302736 2.19484,-7.871137 -2.49758,-7.719769 -5.070825,-0.227052 -2.043467,7.5684 z"
       id="path4477" /><path
       style="display:inline;fill:none;fill-opacity:1;stroke:#000000;stroke-width:1.3;stroke-dasharray:none;stroke-opacity:1;paint-order:stroke markers fill"
       d="m 96.497123,34.587598 4.768097,0.151368 1.96778,-7.189983 -2.57326,-8.47661 -4.465353,-0.151368 -2.421888,7.644085 z"
       id="path4479" /><path
       style="display:inline;fill:none;fill-opacity:1;stroke:#000000;stroke-width:1.3;stroke-dasharray:none;stroke-opacity:1;paint-order:stroke markers fill"
       d="m 102.47616,11.806707 -2.04347,7.34135 2.95168,8.173873 4.54104,0.227053 2.04347,-7.644086 -2.64894,-8.09819 z"
       id="path4481" /><path
       style="display:inline;fill:none;fill-opacity:1;stroke:#000000;stroke-width:1.3;stroke-dasharray:none;stroke-opacity:1;paint-order:stroke markers fill"
       d="m 107.16857,11.806707 2.04347,-7.644086 5.37356,0.302736 2.57326,7.71977 -2.49757,7.871138 -4.46536,-0.227052 z"
       id="path4483" /><path
       style="display:inline;fill:none;fill-opacity:1;stroke:#000000;stroke-width:1.3;stroke-dasharray:none;stroke-opacity:1;paint-order:stroke markers fill"
       d="m 109.89319,19.677845 -1.96778,8.09819 2.64894,7.644085 4.69241,0.227052 2.11915,-7.492717 -2.72462,-7.946822 z"
       id="path4485" /><path
       style="display:inline;fill:none;fill-opacity:1;stroke:#000000;stroke-width:1.3;stroke-dasharray:none;stroke-opacity:1;paint-order:stroke markers fill"
       d="m 107.69836,27.548983 2.95167,8.098189 -1.89209,7.417035 -4.7681,-0.151368 -2.72462,-8.173873 2.11915,-7.49272 z"
       id="path4487" /><path
       style="display:inline;fill:none;fill-opacity:1;stroke:#000000;stroke-width:1.3;stroke-dasharray:none;stroke-opacity:1;paint-order:stroke markers fill"
       d="m 114.73697,35.647172 3.10305,8.173876 4.76809,0.227052 2.11915,-7.87114 -2.64894,-7.719769 -4.54104,-0.227052 z"
       id="path4489" /><path
       style="display:inline;fill:none;fill-opacity:1;stroke:#000000;stroke-width:1.3;stroke-dasharray:none;stroke-opacity:1;paint-order:stroke markers fill"
       d="m 114.5856,20.207633 2.19484,-7.644086 4.38967,0.227052 2.80031,8.173874 -2.11915,7.417034 -4.46536,-0.227052 z"
       id="path4491" /><path
       style="display:inline;fill:none;fill-opacity:1;stroke:#000000;stroke-width:1.3;stroke-dasharray:none;stroke-opacity:1;paint-order:stroke markers fill"
       d="m 123.81905,20.888789 4.91946,0.302736 2.49758,7.644087 -2.27052,7.871137 -4.46536,-0.454105 -2.57326,-7.795453 z"
       id="path4493" /><path
       style="display:inline;fill:none;fill-opacity:1;stroke:#000000;stroke-width:1.3;stroke-dasharray:none;stroke-opacity:1;paint-order:stroke markers fill"
       d="m 117.64589,82.594782 1.79749,-7.100096"
       id="path4495" /><path
       style="display:inline;fill:none;fill-opacity:1;stroke:#000000;stroke-width:1.3;stroke-dasharray:none;stroke-opacity:1;paint-order:stroke markers fill"
       d="m 130.94733,68.304716 1.25825,-3.864607"
       id="path4497" /><path
       style="display:inline;fill:none;fill-opacity:1;stroke:#000000;stroke-width:1.3;stroke-dasharray:none;stroke-opacity:1;paint-order:stroke markers fill"
       d="m 123.93711,74.865565 2.15699,-6.740596"
       id="path4499" /><path
       style="display:inline;fill:none;fill-opacity:1;stroke:#000000;stroke-width:1.3;stroke-dasharray:none;stroke-opacity:1;paint-order:stroke markers fill"
       d="m 131.93595,50.150042 2.15699,-5.931725"
       id="path4501" /><path
       style="display:inline;fill:none;fill-opacity:1;stroke:#000000;stroke-width:1.3;stroke-dasharray:none;stroke-opacity:1;paint-order:stroke markers fill"
       d="m 129.95871,36.219474 2.15699,-7.459594 -1.70762,-4.403856"
       id="path4503" /><path
       style="display:inline;fill:none;fill-opacity:1;stroke:#000000;stroke-width:1.3;stroke-dasharray:none;stroke-opacity:1;paint-order:stroke markers fill"
       d="m 124.74598,20.850913 -2.87599,-7.998841"
       id="path4505" /><path
       style="display:inline;fill:none;fill-opacity:1;stroke:#000000;stroke-width:1.3;stroke-dasharray:none;stroke-opacity:1;paint-order:stroke markers fill"
       d="M 131.48658,37.927092 129.68909,35.94985"
       id="path4507" /></g><g
     inkscape:groupmode="layer"
     id="layer6"
     inkscape:label="sail layer"
     style="display:none"
     transform="translate(-28.810005,-57.159277)"><path
       style="display:inline;fill:#e6e6e6;fill-opacity:1;stroke:#000000;stroke-width:0.264999;stroke-dasharray:none;stroke-opacity:1"
       d="M 203.9924,172.51847 47.454381,206.21614 29.475116,196.09607 141.43173,139.92155 211.8766,128.94009 235.59187,139.6879 Z"
       id="path992"
       sodipodi:nodetypes="ccccccc"
       inkscape:label="bottom sail" /><path
       style="display:inline;fill:#e6e6e6;fill-opacity:1;stroke:#000000;stroke-width:0.264999;stroke-dasharray:none;stroke-opacity:1"
       d="M 203.80087,168.68797 47.262856,202.38564 29.283591,192.26557 141.2402,136.09105 l 70.44487,-10.98146 23.71527,10.74781 z"
       id="path994"
       sodipodi:nodetypes="ccccccc"
       inkscape:label="sail 4" /><path
       style="display:inline;fill:#e6e6e6;fill-opacity:1;stroke:#000000;stroke-width:0.264999;stroke-dasharray:none;stroke-opacity:1"
       d="M 203.9924,164.66594 47.454381,198.36361 29.475116,188.24354 141.43173,132.06902 l 70.44487,-10.98146 23.71527,10.74781 z"
       id="path996"
       sodipodi:nodetypes="ccccccc"
       inkscape:label="middle sail" /><path
       style="display:inline;fill:#e6e6e6;fill-opacity:1;stroke:#000000;stroke-width:0.264999;stroke-dasharray:none;stroke-opacity:1"
       d="M 203.60935,160.45239 47.071331,194.15006 29.092066,184.02999 141.04868,127.85547 l 70.44487,-10.98146 23.71527,10.74781 z"
       id="path998"
       sodipodi:nodetypes="ccccccc"
       inkscape:label="sail 2" /><path
       style="fill:#e6e6e6;fill-opacity:1;stroke:#000000;stroke-width:0.264999;stroke-dasharray:none;stroke-opacity:1"
       d="M 203.80088,156.43036 47.262856,190.12803 29.283591,180.00796 141.24021,123.83344 l 70.44487,-10.98146 23.71527,10.74781 z"
       id="path1000"
       sodipodi:nodetypes="ccccccc"
       inkscape:label="top sail" /></g><g
     inkscape:groupmode="layer"
     id="layer7"
     inkscape:label="mirror sides"
     transform="translate(-28.810005,-57.159277)"
     style="display:none"><path
       style="display:inline;fill:#e6e6e6;fill-opacity:1;stroke:#000000;stroke-width:0.264999;stroke-dasharray:none;stroke-opacity:1"
       d="m 137.96331,61.303698 -1.91949,7.55799 -4.67875,-0.11997 -1.91949,7.318055 -4.55879,-0.119968 -2.2794,7.917894 2.75927,7.917895 -2.27939,7.797927 2.87923,7.917889 -2.27939,7.79793 2.87923,8.03786 4.43882,0.23994 2.75927,7.67796 4.19888,0.23993 3.11917,7.9179 6.11837,0.83977 1.67956,-7.07811 4.67875,-0.23994 2.15943,-7.67796 4.91869,-0.11997 2.03946,-7.79792 -2.87924,-7.9179 2.15943,-7.55799 -2.39936,-8.157828 2.03946,-7.797924 -2.99921,-7.917897 -4.43882,-0.719807 -2.63929,-7.677959 -4.43882,-0.479872 -2.75927,-7.55799 z"
       id="path19593"
       inkscape:label="mirror sides" /></g><g
     inkscape:label="black layer"
     inkscape:groupmode="layer"
     id="layer1"
     transform="translate(-6.0056186,-74.626076)"
     style="display:none"><path
       style="fill:none;stroke:#000000;stroke-width:0.264583;stroke-opacity:1"
       d="m 34.42593,127.22076 3.137776,-0.20463 77.080164,-49.590515 0.75034,-2.660288 8.04908,0.545701 1.90995,2.660287 5.72985,0.341064 20.39555,14.051783 5.86627,50.409058 -0.68212,1.02319 -1.36425,0.5457 -0.0682,19.50878 -0.81856,0.5457 -0.95497,-0.20463 -6.34377,-17.80347 -0.61391,0.0682 1.70532,15.68888 -0.75034,0.88677 -0.75034,0.47748 -5.59343,-2.25101 -0.61391,-0.68213 -1.50068,-12.34646 -0.75034,0.68212 -1.43246,8.45835 -1.02319,0.88677 -1.56889,0.40927 -9.07226,-1.77352 0.0682,-0.95498 -86.493491,-9.68618 -1.227825,0.27285 -1.159613,-0.61391 z"
       id="path893" /><path
       style="fill:none;stroke:#000000;stroke-width:0.264583;stroke-opacity:1"
       d="m 110.22357,152.03827 -66.485394,-7.20306 -0.171503,-1.31485 66.828397,7.8319 z"
       id="path895" /><path
       style="display:inline;fill:none;fill-opacity:1;stroke:#000000;stroke-width:0.264583;stroke-opacity:1"
       d="m 41.451488,127.17056 75.346302,-48.763582 4.97354,0.343003 2.74403,7.8319 4.5162,0.400172 2.68686,7.77473 4.45904,0.571672 2.91552,8.174905 -2.11519,7.66039 2.62969,8.23208 -2.22951,7.48889 2.80118,7.94624 -2.11518,8.1749 -4.85921,-0.1715 -2.00085,7.60323 -4.57337,-0.1715 -1.02901,3.54436 -9.26108,-1.08618 -0.97184,-2.91552 -72.030606,-8.40357 -0.228669,-1.88652 1.372013,-1.48634 -0.628838,-5.77389 -1.715016,-0.62883 z"
       id="path897" /><path
       style="display:inline;fill:none;stroke:#000000;stroke-width:0.265;stroke-dasharray:none;stroke-opacity:1"
       d="m 149.16453,145.79925 3.77954,10.82322 v -11.51041 z"
       id="path899" /><path
       style="display:inline;fill:#000000;fill-opacity:1;stroke:none;stroke-width:0.672247;stroke-dasharray:none;stroke-opacity:1"
       d="m 663.19894,543.49588 c -2.08251,-5.81418 -7.49664,-20.99067 -12.03141,-33.72553 -5.28442,-14.84008 -8.59267,-23.21487 -9.21319,-23.32301 -0.53248,-0.0928 -1.40267,0.11048 -1.93375,0.45171 -0.82873,0.53247 -0.51587,4.77662 2.20749,29.94505 2.94491,27.21606 3.09625,29.4419 2.10467,30.95523 -2.22335,3.39326 -3.29526,3.32938 -13.79066,-0.82192 -5.33037,-2.10836 -10.3473,-4.47154 -11.14871,-5.25152 -1.31348,-1.27836 -1.73486,-3.734 -4.27449,-24.9098 -1.54955,-12.9204 -2.94227,-23.62717 -3.09492,-23.79282 -0.15266,-0.16564 -1.16162,0.58945 -2.24212,1.67798 -1.85585,1.86963 -2.10885,2.84341 -4.57189,17.59716 -2.92364,17.51267 -3.1941,18.12765 -8.64346,19.65337 -2.81302,0.7876 -4.32614,0.60292 -19.75253,-2.41084 l -16.70614,-3.26377 v -1.87799 c 0,-1.03533 -0.37646,-1.89447 -0.83899,-1.91473 -0.46144,-0.0202 -74.23359,-8.27501 -163.93809,-18.34402 -108.35298,-12.16223 -163.74542,-18.1282 -165.0246,-17.77377 -1.30701,0.36214 -2.54665,0.21229 -3.85934,-0.46652 -1.06362,-0.55002 -1.95934,-1.06779 -1.99049,-1.1506 -0.31614,-0.84032 -7.11261,-68.68849 -6.90275,-68.90916 0.15547,-0.16349 2.76655,-0.47372 5.8024,-0.6894 l 5.51973,-0.39214 145.71634,-93.78537 145.71635,-93.78536 1.28502,-4.73612 c 0.70676,-2.60486 1.50956,-4.7639 1.78399,-4.79786 0.27445,-0.034 6.85186,0.32804 14.6165,0.80446 l 14.11751,0.86623 3.49481,4.91445 c 2.36785,3.32968 4.03592,5.01972 5.1728,5.24092 0.92288,0.17956 5.8728,0.52773 10.99981,0.77372 l 9.32185,0.44724 38.40793,26.46078 38.40793,26.46077 1.50611,12.89788 c 21.87996,187.37402 20.70219,176.53241 19.38449,178.43761 -0.67309,0.97318 -2.43584,2.25439 -3.91721,2.84712 l -2.69342,1.07769 v 36.78663 c 0,27.71691 -0.19858,36.98521 -0.80543,37.59206 -0.44298,0.44299 -1.6155,0.80543 -2.60559,0.80543 -1.7163,0 -1.97658,-0.49253 -5.58655,-10.57124 z m 1.61448,-39.4324 c 0,-12.36667 -0.19837,-22.48485 -0.44082,-22.48485 -0.24246,0 -3.83792,0.63309 -7.98992,1.40687 l -7.54909,1.40688 1.88222,5.47282 c 2.04917,5.95822 10.82188,30.97878 12.09701,34.50177 0.43425,1.19975 1.06203,2.18137 1.39508,2.18137 0.34785,0 0.60552,-9.5678 0.60552,-22.48486 z m -101.341,5.56215 1.84815,-6.23334 h 8.74173 8.74173 l 2.85504,-11.07463 c 1.57028,-6.09104 3.28103,-12.54265 3.80168,-14.33689 l 0.94664,-3.26227 9.16059,0.24192 9.16059,0.24191 4.09951,-15.77296 4.09951,-15.77296 -3.31506,-9.39666 c -1.82328,-5.16816 -4.1966,-11.98613 -5.27405,-15.15105 l -1.959,-5.75438 4.04736,-13.53819 c 2.22605,-7.446 4.05545,-13.91758 4.06536,-14.3813 0.01,-0.46371 -2.15712,-7.71026 -4.81559,-16.10344 l -4.8336,-15.26033 3.82648,-13.93642 c 2.10457,-7.66504 3.81853,-14.42097 3.80881,-15.01318 -0.0185,-1.1305 -10.52292,-30.7947 -11.11398,-31.38577 -0.18786,-0.18786 -4.01905,-0.81356 -8.51375,-1.39045 l -8.17219,-1.0489 -4.9792,-14.43058 c -2.73855,-7.93682 -5.0833,-14.54417 -5.21054,-14.68301 -0.12725,-0.13883 -3.99859,-0.56909 -8.60297,-0.95613 l -8.3716,-0.7037 -5.23012,-14.89182 -5.23011,-14.89183 -9.74936,-0.641 -9.74936,-0.641 -142.2309,91.9978 c -78.227,50.59879 -142.49607,92.17346 -142.82015,92.38817 -0.32609,0.21603 0.0212,4.31758 0.77767,9.18404 0.7518,4.83652 1.36691,8.9256 1.36691,9.08685 0,0.16126 1.36694,0.67591 3.03765,1.14368 1.6707,0.46777 3.14859,1.03558 3.2842,1.26181 0.13561,0.22623 0.5878,3.73371 1.00487,7.79441 0.41707,4.0607 0.93277,8.64054 1.14601,10.17743 0.35561,2.56305 0.1667,3.03528 -2.2822,5.70511 l -2.66991,2.91077 0.53944,3.92179 c 0.29669,2.15698 0.63718,3.99654 0.75665,4.08791 0.11947,0.0914 9.73133,1.26522 21.35969,2.60854 68.96417,7.96681 246.37463,28.68834 248.40276,29.01342 2.33483,0.37424 2.46205,0.54705 3.99051,5.42072 0.86834,2.76879 1.89434,5.22919 2.28001,5.46755 0.75358,0.46574 35.44611,4.7442 35.87111,4.4238 0.14016,-0.10566 1.0865,-2.9971 2.10298,-6.42544 z m -59.48818,-1.97781 c 0.23329,-1.16642 0.34655,-2.19042 0.2517,-2.27553 -0.37757,-0.33883 -253.77104,-29.83364 -254.03517,-29.5695 -0.15581,0.15581 -0.0753,1.67013 0.17886,3.36516 0.32904,2.1942 0.77851,3.09208 1.56052,3.11733 1.02319,0.033 250.27989,27.22275 251.20045,27.40175 0.23072,0.0448 0.61036,-0.87279 0.84364,-2.03921 z"
       id="path901"
       inkscape:label="main black fill"
       transform="matrix(0.26458333,0,0,0.26458333,-22.804386,17.466799)" /><path
       style="display:inline;fill:#000000;fill-opacity:1;stroke:#000000;stroke-width:0.264583;stroke-opacity:1"
       d="m 116.74062,110.64925 -0.57167,2.22952 -5.54521,1.77218 -0.68601,1.94368 -0.343,1.65785 0.343,1.60068 0.85751,2.00085 5.54521,1.31485 0.91468,2.05801 4.23037,0.1715 1.88651,-6.91722 -2.40102,-7.54606 z"
       id="path903"
       inkscape:label="black part of mirror" /></g><g
     inkscape:groupmode="layer"
     id="layer5"
     inkscape:label="mirror layer"
     transform="translate(-28.810005,-57.159277)"
     style="display:none"><path
       style="fill:#ffcc00;fill-opacity:1;stroke:none;stroke-width:0.264999;stroke-dasharray:none;stroke-opacity:1"
       d="m 124.99048,76.696635 -1.86621,7.055181 2.45793,7.510354 4.23311,0.227584 1.95725,-6.964146 -2.3669,-7.601386 z"
       id="path915" /><path
       style="fill:#ffcc00;fill-opacity:1;stroke:none;stroke-width:0.264999;stroke-dasharray:none;stroke-opacity:1"
       d="m 131.71405,69.480005 -1.86621,7.055181 2.45793,7.510354 4.23311,0.227584 1.95725,-6.964146 -2.3669,-7.601386 z"
       id="path917" /><path
       style="fill:#ffcc00;fill-opacity:1;stroke:none;stroke-width:0.264999;stroke-dasharray:none;stroke-opacity:1"
       d="m 138.57209,61.904785 -1.86621,7.055181 2.45793,7.510354 4.23311,0.227584 1.95725,-6.964146 -2.3669,-7.601386 z"
       id="path919" /><path
       style="fill:#ffcc00;fill-opacity:1;stroke:none;stroke-width:0.264999;stroke-dasharray:none;stroke-opacity:1"
       d="m 145.69907,70.286833 -1.86621,7.055181 2.45793,7.510354 4.23311,0.227584 1.95725,-6.964146 -2.3669,-7.601386 z"
       id="path921" /><path
       style="fill:#ffcc00;fill-opacity:1;stroke:none;stroke-width:0.264999;stroke-dasharray:none;stroke-opacity:1"
       d="m 138.9755,77.637934 -1.86621,7.055181 2.45793,7.510354 4.23311,0.227584 1.95725,-6.964146 -2.3669,-7.601386 z"
       id="path923" /><path
       style="fill:#ffcc00;fill-opacity:1;stroke:none;stroke-width:0.264999;stroke-dasharray:none;stroke-opacity:1"
       d="m 146.14731,85.840687 -1.86621,7.055181 2.45793,7.510352 4.23311,0.22759 1.95725,-6.96415 -2.3669,-7.601386 z"
       id="path925" /><path
       style="fill:#ffcc00;fill-opacity:1;stroke:none;stroke-width:0.264999;stroke-dasharray:none;stroke-opacity:1"
       d="m 153.05017,78.220643 -1.86621,7.055181 2.45793,7.510352 4.23311,0.22759 1.95725,-6.96415 -2.3669,-7.601386 z"
       id="path927" /><path
       style="fill:#ffcc00;fill-opacity:1;stroke:none;stroke-width:0.264999;stroke-dasharray:none;stroke-opacity:1"
       d="m 153.6777,94.133088 -1.86621,7.055182 2.45793,7.51035 4.23311,0.22759 1.95725,-6.96415 -2.3669,-7.601385 z"
       id="path929" /><path
       style="fill:#ffcc00;fill-opacity:1;stroke:none;stroke-width:0.264999;stroke-dasharray:none;stroke-opacity:1"
       d="m 146.77483,101.52901 -1.86621,7.05518 2.45793,7.51035 4.23311,0.22759 1.95725,-6.96415 -2.3669,-7.60138 z"
       id="path931" /><path
       style="fill:#ffcc00;fill-opacity:1;stroke:none;stroke-width:0.264999;stroke-dasharray:none;stroke-opacity:1"
       d="m 125.61801,92.116014 -1.86621,7.055181 2.45793,7.510355 4.23311,0.22759 1.95725,-6.964155 -2.3669,-7.601381 z"
       id="path933" /><path
       style="fill:#ffcc00;fill-opacity:1;stroke:none;stroke-width:0.264999;stroke-dasharray:none;stroke-opacity:1"
       d="m 126.24554,107.84916 -1.86621,7.05518 2.45793,7.51036 4.23311,0.22759 1.95725,-6.96416 -2.3669,-7.60138 z"
       id="path935" /><path
       style="fill:#ffcc00;fill-opacity:1;stroke:none;stroke-width:0.264999;stroke-dasharray:none;stroke-opacity:1"
       d="m 133.41735,116.36568 -1.86621,7.05518 2.45793,7.51036 4.23311,0.22759 1.95725,-6.96416 -2.3669,-7.60138 z"
       id="path937" /><path
       style="fill:#ffcc00;fill-opacity:1;stroke:none;stroke-width:0.264999;stroke-dasharray:none;stroke-opacity:1"
       d="m 140.18574,108.88011 -1.86621,7.05518 2.45793,7.51036 4.23311,0.22759 1.95725,-6.96416 -2.3669,-7.60138 z"
       id="path939" /><path
       style="fill:#ffcc00;fill-opacity:1;stroke:none;stroke-width:0.264999;stroke-dasharray:none;stroke-opacity:1"
       d="m 147.31272,116.94839 -1.86621,7.05518 2.45793,7.51036 4.23311,0.22759 1.95725,-6.96416 -2.3669,-7.60138 z"
       id="path941" /><path
       style="fill:#ffcc00;fill-opacity:1;stroke:none;stroke-width:0.264999;stroke-dasharray:none;stroke-opacity:1"
       d="m 154.17076,109.41799 -1.86621,7.05518 2.45793,7.51036 4.23311,0.22759 1.95725,-6.96416 -2.3669,-7.60138 z"
       id="path943" /><path
       style="display:inline;fill:#ffcc00;fill-opacity:1;stroke:none;stroke-width:0.264999;stroke-dasharray:none;stroke-opacity:1"
       d="m 140.61222,137.92279 0.58271,1.21025 4.12379,0.35859 0.31377,-0.98613 z"
       id="path945"
       inkscape:label="partial 3 - bottom" /><path
       style="display:inline;fill:#ffcc00;fill-opacity:1;stroke:none;stroke-width:0.264999;stroke-dasharray:none;stroke-opacity:1"
       d="m 140.61222,124.43083 -1.92742,7.12699 1.21024,3.49625 6.49945,0.80683 1.03095,-3.5859 -2.51013,-7.70969 z"
       id="path947"
       inkscape:label="partial 3 - top" /><path
       style="display:inline;fill:#ffcc00;fill-opacity:1;stroke:none;stroke-width:0.264999;stroke-dasharray:none;stroke-opacity:1"
       d="m 132.40947,101.92929 -1.56883,5.69262 2.59977,7.5304 4.16862,0.31377 1.8826,-7.08216 -0.89648,-2.59978 -5.19956,-1.29989 z"
       id="path949"
       inkscape:label="partial 2" /><path
       style="display:inline;fill:#ffcc00;fill-opacity:1;stroke:none;stroke-width:0.264999;stroke-dasharray:none;stroke-opacity:1"
       d="m 132.36465,84.985901 4.21343,0.179295 2.42048,7.44075 -0.80682,2.868721 -4.88579,1.524008 -0.62754,1.792952 -2.24119,-6.633919 z"
       id="path951"
       inkscape:label="partial 1" /><path
       style="fill:none;fill-opacity:1;stroke:#000000;stroke-width:1.3;stroke-dasharray:none;stroke-opacity:1;paint-order:stroke markers fill"
       d="m 146.27614,139.84393 1.97724,-7.27984"
       id="path4415" /><path
       style="fill:none;fill-opacity:1;stroke:#000000;stroke-width:1.3;stroke-dasharray:none;stroke-opacity:1;paint-order:stroke markers fill"
       d="m 160.02696,125.28425 0.98862,-4.49374"
       id="path4417" /><path
       style="fill:none;fill-opacity:1;stroke:#000000;stroke-width:1.3;stroke-dasharray:none;stroke-opacity:1;paint-order:stroke markers fill"
       d="m 161.01558,106.6802 1.52787,-5.03298"
       id="path4419" /><path
       style="fill:none;fill-opacity:1;stroke:#000000;stroke-width:1.3;stroke-dasharray:none;stroke-opacity:1;paint-order:stroke markers fill"
       d="m 158.58897,93.288877 2.15699,-7.279844 -1.70762,-4.943105"
       id="path4421" /><path
       style="fill:none;fill-opacity:1;stroke:#000000;stroke-width:1.3;stroke-dasharray:none;stroke-opacity:1;paint-order:stroke markers fill"
       d="m 153.37624,77.560817 -2.60637,-7.639343"
       id="path4423" /></g></svg>
