<?xml version="1.0" encoding="UTF-8" standalone="no"?>
<!-- Created with Inkscape (http://www.inkscape.org/) -->

<svg
   width="207.007mm"
   height="149.19701mm"
   viewBox="0 0 207.007 149.19701"
   version="1.1"
   id="svg11100"
   xml:space="preserve"
   sodipodi:docname="jw-mask-front.svg"
   inkscape:version="1.2 (dc2aeda, 2022-05-15)"
   inkscape:export-filename="jw-mask-front.png"
   inkscape:export-xdpi="1600"
   inkscape:export-ydpi="1600"
   xmlns:inkscape="http://www.inkscape.org/namespaces/inkscape"
   xmlns:sodipodi="http://sodipodi.sourceforge.net/DTD/sodipodi-0.dtd"
   xmlns="http://www.w3.org/2000/svg"
   xmlns:svg="http://www.w3.org/2000/svg"><sodipodi:namedview
     id="namedview11102"
     pagecolor="#ffffff"
     bordercolor="#000000"
     borderopacity="0.25"
     inkscape:pageshadow="2"
     inkscape:pageopacity="0.0"
     inkscape:pagecheckerboard="0"
     inkscape:deskcolor="#d1d1d1"
     inkscape:document-units="mm"
     showgrid="false"
     inkscape:zoom="1.3610599"
     inkscape:cx="398.58643"
     inkscape:cy="329.52261"
     inkscape:window-width="1800"
     inkscape:window-height="1097"
     inkscape:window-x="0"
     inkscape:window-y="44"
     inkscape:window-maximized="0"
     inkscape:current-layer="layer8"
     inkscape:showpageshadow="2" /><defs
     id="defs11097"><inkscape:perspective
       sodipodi:type="inkscape:persp3d"
       inkscape:vp_x="0 : 74.598527 : 1"
       inkscape:vp_y="0 : 1000 : 0"
       inkscape:vp_z="207.0074 : 74.59848 : 1"
       inkscape:persp3d-origin="103.5037 : 49.73232 : 1"
       id="perspective1051" /></defs><g
     inkscape:groupmode="layer"
     id="layer8"
     inkscape:label="silkscreen"
     style="display:inline"><path
       id="rect1123-5"
       style="display:inline;fill:#000000;fill-opacity:1;stroke:none;stroke-width:0.535075;paint-order:stroke markers fill"
       inkscape:label="white"
       d="M 0,0 V 149.01106 H 18.562691 L 0.66507568,138.93674 4.1615031,137.18232 0.47335612,135.10648 4.3527059,133.15983 0.66507568,131.08451 4.420402,129.20038 0.28215332,126.87081 4.1609863,124.92467 0.47335612,122.84883 90.179508,77.838143 c 12.873642,1.442379 28.902182,3.239641 28.983762,3.243213 0.12238,0.0054 0.22169,0.232498 0.22169,0.506429 v 0.497127 l 4.4204,0.863513 c 4.08156,0.79739 4.48176,0.846073 5.22604,0.637687 1.44181,-0.403679 1.51365,-0.566126 2.2872,-5.199682 0.65168,-3.903593 0.71872,-4.161374 1.20974,-4.656047 0.28589,-0.288006 0.55286,-0.487726 0.59325,-0.4439 0.0404,0.04383 0.40857,2.876704 0.81855,6.295223 0.67195,5.602758 0.78368,6.252579 1.1312,6.590812 0.21204,0.206369 1.53937,0.831226 2.94969,1.389062 2.77691,1.098364 3.06061,1.115357 3.64888,0.217558 0.26235,-0.400401 0.2221,-0.989289 -0.55708,-8.190198 -0.72055,-6.65914 -0.80321,-7.782148 -0.58394,-7.92303 0.14051,-0.09028 0.37071,-0.143926 0.5116,-0.119373 0.16418,0.02861 1.03941,2.244249 2.43757,6.170683 1.19983,3.369428 2.63228,7.385153 3.18327,8.923486 0.95514,2.666656 1.02384,2.796729 1.47795,2.796729 0.26196,0 0.57216,-0.0957 0.68936,-0.212907 0.16056,-0.160562 0.21343,-2.612738 0.21343,-9.946163 v -9.733256 l 0.71261,-0.285254 c 0.39195,-0.156826 0.85803,-0.495439 1.03612,-0.752925 0.18478,-0.267176 0.18437,-1.042936 -0.55449,-7.726144 l 32.63883,-5.088061 23.71535,10.747664 -2.75384,2.860807 2.56212,1.16117 -2.70784,2.813265 3.09076,1.400431 -2.75332,2.860807 2.56212,1.16117 -2.50941,2.607076 2.70061,1.223698 -31.5991,32.830557 -156.324826,33.65169 H 207.58475 V 0 Z m 109.76229,4.7454468 4.41472,0.227893 2.3673,7.6010862 -1.95751,6.964433 -4.23281,-0.227893 -2.45825,-7.510136 z m -6.85849,7.5752482 4.41523,0.227376 2.3673,7.601603 -1.95751,6.963916 -4.23281,-0.227376 -2.45825,-7.510136 z m 13.98519,0.806669 4.41523,0.227893 2.36678,7.601087 -1.95698,6.964432 -4.23334,-0.227893 -2.45773,-7.510136 z m -20.708297,6.409945 4.414717,0.227893 2.3673,7.601086 -1.95751,6.964433 -4.232812,-0.227893 -2.458248,-7.510136 z m 13.984677,0.941544 4.41523,0.227377 2.36678,7.601603 -1.95698,6.963916 -4.23334,-0.227376 -2.45773,-7.510653 z m 14.07459,0.582394 4.41524,0.227893 2.36729,7.601086 -1.9575,6.964433 -4.23333,-0.227893 -2.45773,-7.510136 z m -20.68556,6.765478 4.2137,0.179317 2.42052,7.440373 -0.80667,2.869076 -4.886,1.523938 -0.62735,1.793172 -2.24121,-6.63422 z m 13.78314,0.854728 4.41472,0.227377 2.3673,7.601603 -1.95751,6.963916 -4.23281,-0.227376 -2.45825,-7.510136 z m -20.529496,6.27507 4.415236,0.227893 2.36678,7.601086 -1.95699,6.964433 -4.23333,-0.227893 -2.457732,-7.510136 z m 28.059786,2.017448 4.41523,0.227376 2.36679,7.601603 -1.95751,6.963916 -4.23281,-0.227376 -2.45825,-7.510653 z m -6.90294,7.395931 4.41524,0.227376 2.36678,7.601603 -1.95751,6.963916 -4.23281,-0.227376 -2.45773,-7.510653 z m -14.36553,0.399975 0.98599,2.554883 5.19968,1.300179 0.89659,2.599841 -1.88258,7.082255 -4.16873,-0.314192 -2.59985,-7.53029 z m -6.163964,5.920052 4.415234,0.227377 2.36678,7.601603 -1.95699,6.963916 -4.233329,-0.227377 -2.457731,-7.510136 z m 13.940234,1.030945 4.41524,0.227376 2.36678,7.601604 -1.83142,6.516398 0.53795,-0.08372 1.63866,-6.193421 4.41524,0.227377 1.49138,4.789888 0.83974,-0.130741 -1.75441,-5.361947 1.86603,-7.054866 4.41524,0.227376 2.36678,7.601603 -1.03301,3.674195 2.49028,-0.38809 -0.26613,1.024226 -1.08469,4.173389 -2.42362,-0.06408 -2.42363,-0.06408 -0.25063,0.862996 c -0.13775,0.474725 -0.59015,2.181981 -1.00562,3.793567 l -0.75551,2.930054 h -2.31304 -2.31304 l -0.48885,1.648994 c -0.26895,0.907081 -0.51948,1.672199 -0.55656,1.700155 -0.11245,0.08477 -9.29151,-1.047244 -9.49089,-1.170471 -0.10204,-0.06307 -0.37332,-0.713848 -0.60307,-1.446423 -0.4044,-1.289491 -0.43799,-1.335521 -1.05575,-1.434538 -0.0887,-0.01421 -8.575409,-0.998863 -10.858765,-1.26814 l 6.513295,-3.268017 -1.48259,-4.529956 1.86655,-7.055384 4.41472,0.227893 2.36729,7.601087 -0.0527,0.187585 1.09348,-0.548804 1.73012,-0.269751 -2.19314,-0.117822 -2.45774,-7.510136 z m 35.59628,18.53737 c 0.0641,0 0.11679,2.677496 0.11679,5.949507 0,3.417636 -0.0682,5.948991 -0.1602,5.948991 -0.0881,0 -0.25459,-0.259792 -0.36949,-0.577225 -0.33737,-0.932124 -2.65814,-7.552198 -3.20032,-9.128642 l -0.49816,-1.447974 1.99729,-0.37207 c 1.09855,-0.204729 2.04994,-0.372587 2.11409,-0.372587 z m -51.972024,5.161442 c 2.355036,0.282084 9.588244,1.121494 9.602514,1.134298 0.0251,0.02252 -0.005,0.293415 -0.0667,0.60203 -0.0617,0.308615 -0.1622,0.551355 -0.22324,0.539502 -0.0417,-0.0081 -8.143015,-0.885797 -11.375537,-1.240751 z" /><path
       style="display:inline;fill:#000000;fill-opacity:1;stroke:#000000;stroke-width:0.264583;stroke-opacity:1"
       d="m 116.74062,110.64925 -0.57167,2.22952 -5.54521,1.77218 -0.68601,1.94368 -0.343,1.65785 0.343,1.60068 0.85751,2.00085 5.54521,1.31485 0.91468,2.05801 4.23037,0.1715 1.88651,-6.91722 -2.40102,-7.54606 z"
       id="path4441"
       inkscape:label="black part of mirror"
       transform="translate(-6.0056186,-74.626076)" /><path
       style="display:inline;fill:none;stroke:#000000;stroke-width:0.5;stroke-dasharray:none;stroke-opacity:1;paint-order:stroke markers fill"
       d="m 4.1158059,137.18777 -3.40678052,1.76391 17.92592862,10.11056 156.563316,-33.67376 31.57769,-32.879769 -2.689,-1.166551"
       id="path4443"
       inkscape:label="5th sail" /><path
       style="display:inline;fill:none;stroke:#000000;stroke-width:0.5;stroke-dasharray:none;stroke-opacity:1;paint-order:stroke markers fill"
       d="m 4.4043041,133.16401 -3.89889215,1.94945 17.95415705,10.1323 156.505871,-33.72222 31.60147,-32.835844 -2.56733,-1.180597"
       id="path4445"
       inkscape:label="4th sail" /><path
       style="display:inline;fill:none;stroke:#000000;stroke-width:0.5;stroke-dasharray:none;stroke-opacity:1;paint-order:stroke markers fill"
       d="M 4.3621406,129.21443 0.69906099,131.05995 18.626673,141.21475 175.20335,107.4887 206.73139,74.626641 203.74903,73.304918"
       id="path4447"
       inkscape:label="3rd sail" /><path
       style="display:inline;fill:none;stroke:#000000;stroke-width:0.5;stroke-dasharray:none;stroke-opacity:1;paint-order:stroke markers fill"
       d="m 203.7683,69.327466 2.6478,1.118788 L 174.80844,103.29373 18.242889,136.98414 0.33059457,126.86566 4.1048823,124.93719"
       id="path4449"
       inkscape:label="2nd sail" /><path
       style="display:inline;fill:none;fill-opacity:1;stroke:#000000;stroke-width:0.5;stroke-dasharray:none;stroke-opacity:1;paint-order:stroke markers fill"
       d="M 104.115,70.816099 0.51134319,122.80759 18.452949,132.98374 175.0044,99.278396 206.58115,66.430617 182.87562,55.665121 150.25754,60.779879"
       id="path4451"
       inkscape:label="1st sail" /><path
       style="display:inline;fill:none;fill-opacity:1;stroke:#000000;stroke-width:1.3;stroke-dasharray:none;stroke-opacity:1"
       d="m 137.96331,61.303698 -1.91949,7.55799 -4.67875,-0.11997 -1.91949,7.318055 -4.55879,-0.119968 -2.2794,7.917894 2.75927,7.917895 -2.27939,7.797927 2.87923,7.917889 -2.27939,7.79793 2.87923,8.03786 4.43882,0.23994 2.75927,7.67796 4.19888,0.23993 3.11917,7.9179 6.11837,0.83977 1.67956,-7.07811 4.67875,-0.23994 2.15943,-7.67796 4.91869,-0.11997 2.03946,-7.79792 -2.87924,-7.9179 2.15943,-7.55799 -2.39936,-8.157828 2.03946,-7.797924 -2.99921,-7.917897 -4.43882,-0.719807 -2.63929,-7.677959 -4.43882,-0.479872 -2.75927,-7.55799 z"
       id="path4453"
       inkscape:label="mirror sides"
       transform="translate(-28.810006,-57.159276)" /><path
       style="display:inline;fill:none;fill-opacity:1;stroke:#000000;stroke-width:1.3;stroke-dasharray:none;stroke-opacity:1;paint-order:stroke markers fill"
       d="m 109.30476,77.944976 12.72571,1.590715"
       id="path4455" /><path
       style="display:inline;fill:none;fill-opacity:1;stroke:#000000;stroke-width:1.3;stroke-dasharray:none;stroke-opacity:1;paint-order:stroke markers fill"
       d="m 111.50146,80.217424 8.71106,1.211975"
       id="path4457" /><path
       style="display:inline;fill:none;fill-opacity:1;stroke:#000000;stroke-width:1.3;stroke-dasharray:none;stroke-opacity:1;paint-order:stroke markers fill"
       d="m 124.53017,78.929705 1.96945,-6.968842"
       id="path4459" /><path
       style="display:inline;fill:none;fill-opacity:1;stroke:#000000;stroke-width:1.3;stroke-dasharray:none;stroke-opacity:1;paint-order:stroke markers fill"
       d="m 116.70476,82.722632 2.19483,-7.871137 -2.57325,-7.871138 -4.69241,-0.302736 -2.04347,7.871137 2.42189,7.871137 z"
       id="path4461" /><path
       style="display:inline;fill:none;fill-opacity:1;stroke:#000000;stroke-width:1.3;stroke-dasharray:none;stroke-opacity:1;paint-order:stroke markers fill"
       d="m 119.05096,74.851495 4.54104,0.227052 2.19484,-7.871137 -2.64894,-7.568404 -4.76809,-0.302736 -1.96779,7.568403 z"
       id="path4463" /><path
       style="display:inline;fill:none;fill-opacity:1;stroke:#000000;stroke-width:1.3;stroke-dasharray:none;stroke-opacity:1;paint-order:stroke markers fill"
       d="m 118.44549,59.33627 -2.72463,-8.173873 2.11916,-7.417033 4.69241,0.37842 2.64894,7.795453 -2.11915,7.644085 z"
       id="path4465" /><path
       style="display:inline;fill:none;fill-opacity:1;stroke:#000000;stroke-width:1.3;stroke-dasharray:none;stroke-opacity:1;paint-order:stroke markers fill"
       d="m 122.53243,43.972416 2.11915,-7.87114 4.76809,0.37842 2.72463,8.400926 -2.11916,7.265667 -4.84377,-0.227052 z"
       id="path4467" /><path
       style="display:inline;fill:none;fill-opacity:1;stroke:#000000;stroke-width:1.3;stroke-dasharray:none;stroke-opacity:1;paint-order:stroke markers fill"
       d="m 125.18137,51.919237 4.91946,0.37842 2.57326,7.644085 -2.11916,7.49272 -4.91946,0.07568 -2.49757,-7.946824 z"
       id="path4469" /><path
       style="display:inline;fill:none;fill-opacity:1;stroke:#000000;stroke-width:1.3;stroke-dasharray:none;stroke-opacity:1;paint-order:stroke markers fill"
       d="m 115.87223,51.389449 -4.84378,-0.151368 -1.96778,7.417032 2.72463,8.24956 4.6924,0.302737 1.96779,-7.719772 z"
       id="path4471" /><path
       style="display:inline;fill:none;fill-opacity:1;stroke:#000000;stroke-width:1.3;stroke-dasharray:none;stroke-opacity:1;paint-order:stroke markers fill"
       d="m 102.40048,66.299201 -4.768096,-0.302736 -2.573256,-7.795453 2.194836,-8.098192 4.389676,0.227052 2.87599,8.173873 z"
       id="path4473" /><path
       style="display:inline;fill:none;fill-opacity:1;stroke:#000000;stroke-width:1.3;stroke-dasharray:none;stroke-opacity:1;paint-order:stroke markers fill"
       d="m 104.59531,58.579429 4.38968,0.227052 2.11915,-7.644084 -2.57326,-7.492717 -4.84377,-0.302737 -1.96779,6.811561 z"
       id="path4475" /><path
       style="display:inline;fill:none;fill-opacity:1;stroke:#000000;stroke-width:1.3;stroke-dasharray:none;stroke-opacity:1;paint-order:stroke markers fill"
       d="m 96.799859,50.10282 4.919461,0.302736 2.19484,-7.871137 -2.49758,-7.719769 -5.070825,-0.227052 -2.043467,7.5684 z"
       id="path4477" /><path
       style="display:inline;fill:none;fill-opacity:1;stroke:#000000;stroke-width:1.3;stroke-dasharray:none;stroke-opacity:1;paint-order:stroke markers fill"
       d="m 96.497123,34.587598 4.768097,0.151368 1.96778,-7.189983 -2.57326,-8.47661 -4.465353,-0.151368 -2.421888,7.644085 z"
       id="path4479" /><path
       style="display:inline;fill:none;fill-opacity:1;stroke:#000000;stroke-width:1.3;stroke-dasharray:none;stroke-opacity:1;paint-order:stroke markers fill"
       d="m 102.47616,11.806707 -2.04347,7.34135 2.95168,8.173873 4.54104,0.227053 2.04347,-7.644086 -2.64894,-8.09819 z"
       id="path4481" /><path
       style="display:inline;fill:none;fill-opacity:1;stroke:#000000;stroke-width:1.3;stroke-dasharray:none;stroke-opacity:1;paint-order:stroke markers fill"
       d="m 107.16857,11.806707 2.04347,-7.644086 5.37356,0.302736 2.57326,7.71977 -2.49757,7.871138 -4.46536,-0.227052 z"
       id="path4483" /><path
       style="display:inline;fill:none;fill-opacity:1;stroke:#000000;stroke-width:1.3;stroke-dasharray:none;stroke-opacity:1;paint-order:stroke markers fill"
       d="m 109.89319,19.677845 -1.96778,8.09819 2.64894,7.644085 4.69241,0.227052 2.11915,-7.492717 -2.72462,-7.946822 z"
       id="path4485" /><path
       style="display:inline;fill:none;fill-opacity:1;stroke:#000000;stroke-width:1.3;stroke-dasharray:none;stroke-opacity:1;paint-order:stroke markers fill"
       d="m 107.69836,27.548983 2.95167,8.098189 -1.89209,7.417035 -4.7681,-0.151368 -2.72462,-8.173873 2.11915,-7.49272 z"
       id="path4487" /><path
       style="display:inline;fill:none;fill-opacity:1;stroke:#000000;stroke-width:1.3;stroke-dasharray:none;stroke-opacity:1;paint-order:stroke markers fill"
       d="m 114.73697,35.647172 3.10305,8.173876 4.76809,0.227052 2.11915,-7.87114 -2.64894,-7.719769 -4.54104,-0.227052 z"
       id="path4489" /><path
       style="display:inline;fill:none;fill-opacity:1;stroke:#000000;stroke-width:1.3;stroke-dasharray:none;stroke-opacity:1;paint-order:stroke markers fill"
       d="m 114.5856,20.207633 2.19484,-7.644086 4.38967,0.227052 2.80031,8.173874 -2.11915,7.417034 -4.46536,-0.227052 z"
       id="path4491" /><path
       style="display:inline;fill:none;fill-opacity:1;stroke:#000000;stroke-width:1.3;stroke-dasharray:none;stroke-opacity:1;paint-order:stroke markers fill"
       d="m 123.81905,20.888789 4.91946,0.302736 2.49758,7.644087 -2.27052,7.871137 -4.46536,-0.454105 -2.57326,-7.795453 z"
       id="path4493" /><path
       style="display:inline;fill:none;fill-opacity:1;stroke:#000000;stroke-width:1.3;stroke-dasharray:none;stroke-opacity:1;paint-order:stroke markers fill"
       d="m 117.64589,82.594782 1.79749,-7.100096"
       id="path4495" /><path
       style="display:inline;fill:none;fill-opacity:1;stroke:#000000;stroke-width:1.3;stroke-dasharray:none;stroke-opacity:1;paint-order:stroke markers fill"
       d="m 130.94733,68.304716 1.25825,-3.864607"
       id="path4497" /><path
       style="display:inline;fill:none;fill-opacity:1;stroke:#000000;stroke-width:1.3;stroke-dasharray:none;stroke-opacity:1;paint-order:stroke markers fill"
       d="m 123.93711,74.865565 2.15699,-6.740596"
       id="path4499" /><path
       style="display:inline;fill:none;fill-opacity:1;stroke:#000000;stroke-width:1.3;stroke-dasharray:none;stroke-opacity:1;paint-order:stroke markers fill"
       d="m 131.93595,50.150042 2.15699,-5.931725"
       id="path4501" /><path
       style="display:inline;fill:none;fill-opacity:1;stroke:#000000;stroke-width:1.3;stroke-dasharray:none;stroke-opacity:1;paint-order:stroke markers fill"
       d="m 129.95871,36.219474 2.15699,-7.459594 -1.70762,-4.403856"
       id="path4503" /><path
       style="display:inline;fill:none;fill-opacity:1;stroke:#000000;stroke-width:1.3;stroke-dasharray:none;stroke-opacity:1;paint-order:stroke markers fill"
       d="m 124.74598,20.850913 -2.87599,-7.998841"
       id="path4505" /><path
       style="display:inline;fill:none;fill-opacity:1;stroke:#000000;stroke-width:1.3;stroke-dasharray:none;stroke-opacity:1;paint-order:stroke markers fill"
       d="M 131.48658,37.927092 129.68909,35.94985"
       id="path4507" /></g></svg>
