<?xml version="1.0" encoding="UTF-8" standalone="no"?>
<!-- Created with Inkscape (http://www.inkscape.org/) -->

<svg
   width="207.007mm"
   height="149.19701mm"
   viewBox="0 0 207.007 149.19701"
   version="1.1"
   id="svg11100"
   xml:space="preserve"
   sodipodi:docname="jw-silkscreen.svg"
   inkscape:version="1.2 (dc2aeda, 2022-05-15)"
   inkscape:export-filename="jw-copper.png"
   inkscape:export-xdpi="1600"
   inkscape:export-ydpi="1600"
   xmlns:inkscape="http://www.inkscape.org/namespaces/inkscape"
   xmlns:sodipodi="http://sodipodi.sourceforge.net/DTD/sodipodi-0.dtd"
   xmlns="http://www.w3.org/2000/svg"
   xmlns:svg="http://www.w3.org/2000/svg"><sodipodi:namedview
     id="namedview11102"
     pagecolor="#ffffff"
     bordercolor="#000000"
     borderopacity="0.25"
     inkscape:pageshadow="2"
     inkscape:pageopacity="0.0"
     inkscape:pagecheckerboard="0"
     inkscape:deskcolor="#d1d1d1"
     inkscape:document-units="mm"
     showgrid="false"
     inkscape:zoom="1.3706484"
     inkscape:cx="360.77815"
     inkscape:cy="273.95793"
     inkscape:window-width="1800"
     inkscape:window-height="1097"
     inkscape:window-x="0"
     inkscape:window-y="44"
     inkscape:window-maximized="0"
     inkscape:current-layer="layer8"
     inkscape:showpageshadow="2" /><defs
     id="defs11097"><inkscape:perspective
       sodipodi:type="inkscape:persp3d"
       inkscape:vp_x="0 : 74.598527 : 1"
       inkscape:vp_y="0 : 1000 : 0"
       inkscape:vp_z="207.0074 : 74.59848 : 1"
       inkscape:persp3d-origin="103.5037 : 49.73232 : 1"
       id="perspective1051" /></defs><g
     inkscape:groupmode="layer"
     id="layer8"
     inkscape:label="silkscreen"
     style="display:inline"><path
       style="display:inline;fill:#000000;fill-opacity:1;stroke:none;stroke-width:0.672247;stroke-dasharray:none;stroke-opacity:1"
       d="m 663.19894,543.49588 c -2.08251,-5.81418 -7.49664,-20.99067 -12.03141,-33.72553 -5.28442,-14.84008 -8.59267,-23.21487 -9.21319,-23.32301 -0.53248,-0.0928 -1.40267,0.11048 -1.93375,0.45171 -0.82873,0.53247 -0.51587,4.77662 2.20749,29.94505 2.94491,27.21606 3.09625,29.4419 2.10467,30.95523 -2.22335,3.39326 -3.29526,3.32938 -13.79066,-0.82192 -5.33037,-2.10836 -10.3473,-4.47154 -11.14871,-5.25152 -1.31348,-1.27836 -1.73486,-3.734 -4.27449,-24.9098 -1.54955,-12.9204 -2.94227,-23.62717 -3.09492,-23.79282 -0.15266,-0.16564 -1.16162,0.58945 -2.24212,1.67798 -1.85585,1.86963 -2.10885,2.84341 -4.57189,17.59716 -2.92364,17.51267 -3.1941,18.12765 -8.64346,19.65337 -2.81302,0.7876 -4.32614,0.60292 -19.75253,-2.41084 l -16.70614,-3.26377 v -1.87799 c 0,-1.03533 -0.37646,-1.89447 -0.83899,-1.91473 -0.46144,-0.0202 -74.23359,-8.27501 -163.93809,-18.34402 -108.35298,-12.16223 -163.74542,-18.1282 -165.0246,-17.77377 -1.30701,0.36214 -2.54665,0.21229 -3.85934,-0.46652 -1.06362,-0.55002 -1.95934,-1.06779 -1.99049,-1.1506 -0.31614,-0.84032 -7.11261,-68.68849 -6.90275,-68.90916 0.15547,-0.16349 2.76655,-0.47372 5.8024,-0.6894 l 5.51973,-0.39214 145.71634,-93.78537 145.71635,-93.78536 1.28502,-4.73612 c 0.70676,-2.60486 1.50956,-4.7639 1.78399,-4.79786 0.27445,-0.034 6.85186,0.32804 14.6165,0.80446 l 14.11751,0.86623 3.49481,4.91445 c 2.36785,3.32968 4.03592,5.01972 5.1728,5.24092 0.92288,0.17956 5.8728,0.52773 10.99981,0.77372 l 9.32185,0.44724 38.40793,26.46078 38.40793,26.46077 1.50611,12.89788 c 21.87996,187.37402 20.70219,176.53241 19.38449,178.43761 -0.67309,0.97318 -2.43584,2.25439 -3.91721,2.84712 l -2.69342,1.07769 v 36.78663 c 0,27.71691 -0.19858,36.98521 -0.80543,37.59206 -0.44298,0.44299 -1.6155,0.80543 -2.60559,0.80543 -1.7163,0 -1.97658,-0.49253 -5.58655,-10.57124 z m 1.61448,-39.4324 c 0,-12.36667 -0.19837,-22.48485 -0.44082,-22.48485 -0.24246,0 -3.83792,0.63309 -7.98992,1.40687 l -7.54909,1.40688 1.88222,5.47282 c 2.04917,5.95822 10.82188,30.97878 12.09701,34.50177 0.43425,1.19975 1.06203,2.18137 1.39508,2.18137 0.34785,0 0.60552,-9.5678 0.60552,-22.48486 z m -101.341,5.56215 1.84815,-6.23334 h 8.74173 8.74173 l 2.85504,-11.07463 c 1.57028,-6.09104 3.28103,-12.54265 3.80168,-14.33689 l 0.94664,-3.26227 9.16059,0.24192 9.16059,0.24191 4.09951,-15.77296 4.09951,-15.77296 -3.31506,-9.39666 c -1.82328,-5.16816 -4.1966,-11.98613 -5.27405,-15.15105 l -1.959,-5.75438 4.04736,-13.53819 c 2.22605,-7.446 4.05545,-13.91758 4.06536,-14.3813 0.01,-0.46371 -2.15712,-7.71026 -4.81559,-16.10344 l -4.8336,-15.26033 3.82648,-13.93642 c 2.10457,-7.66504 3.81853,-14.42097 3.80881,-15.01318 -0.0185,-1.1305 -10.52292,-30.7947 -11.11398,-31.38577 -0.18786,-0.18786 -4.01905,-0.81356 -8.51375,-1.39045 l -8.17219,-1.0489 -4.9792,-14.43058 c -2.73855,-7.93682 -5.0833,-14.54417 -5.21054,-14.68301 -0.12725,-0.13883 -3.99859,-0.56909 -8.60297,-0.95613 l -8.3716,-0.7037 -5.23012,-14.89182 -5.23011,-14.89183 -9.74936,-0.641 -9.74936,-0.641 -142.2309,91.9978 c -78.227,50.59879 -142.49607,92.17346 -142.82015,92.38817 -0.32609,0.21603 0.0212,4.31758 0.77767,9.18404 0.7518,4.83652 1.36691,8.9256 1.36691,9.08685 0,0.16126 1.36694,0.67591 3.03765,1.14368 1.6707,0.46777 3.14859,1.03558 3.2842,1.26181 0.13561,0.22623 0.5878,3.73371 1.00487,7.79441 0.41707,4.0607 0.93277,8.64054 1.14601,10.17743 0.35561,2.56305 0.1667,3.03528 -2.2822,5.70511 l -2.66991,2.91077 0.53944,3.92179 c 0.29669,2.15698 0.63718,3.99654 0.75665,4.08791 0.11947,0.0914 9.73133,1.26522 21.35969,2.60854 68.96417,7.96681 246.37463,28.68834 248.40276,29.01342 2.33483,0.37424 2.46205,0.54705 3.99051,5.42072 0.86834,2.76879 1.89434,5.22919 2.28001,5.46755 0.75358,0.46574 35.44611,4.7442 35.87111,4.4238 0.14016,-0.10566 1.0865,-2.9971 2.10298,-6.42544 z m -59.48818,-1.97781 c 0.23329,-1.16642 0.34655,-2.19042 0.2517,-2.27553 -0.37757,-0.33883 -253.77104,-29.83364 -254.03517,-29.5695 -0.15581,0.15581 -0.0753,1.67013 0.17886,3.36516 0.32904,2.1942 0.77851,3.09208 1.56052,3.11733 1.02319,0.033 250.27989,27.22275 251.20045,27.40175 0.23072,0.0448 0.61036,-0.87279 0.84364,-2.03921 z"
       id="path4439"
       inkscape:label="main black fill"
       transform="matrix(0.26458333,0,0,0.26458333,-28.810006,-57.159276)" /><path
       style="display:inline;fill:#000000;fill-opacity:1;stroke:#000000;stroke-width:0.264583;stroke-opacity:1"
       d="m 116.74062,110.64925 -0.57167,2.22952 -5.54521,1.77218 -0.68601,1.94368 -0.343,1.65785 0.343,1.60068 0.85751,2.00085 5.54521,1.31485 0.91468,2.05801 4.23037,0.1715 1.88651,-6.91722 -2.40102,-7.54606 z"
       id="path4441"
       inkscape:label="black part of mirror"
       transform="translate(-6.0056186,-74.626076)" /><path
       style="display:inline;fill:none;stroke:#000000;stroke-width:0.264999;stroke-dasharray:none;stroke-opacity:1;paint-order:stroke markers fill"
       d="m 4.1158059,137.18777 -3.40678052,1.76391 17.92592862,10.11056 156.563316,-33.67376 31.57769,-32.879769 -2.689,-1.166551"
       id="path4443"
       inkscape:label="5th sail" /><path
       style="display:inline;fill:none;stroke:#000000;stroke-width:0.264999;stroke-dasharray:none;stroke-opacity:1;paint-order:stroke markers fill"
       d="m 4.4043041,133.16401 -3.89889215,1.94945 17.95415705,10.1323 156.505871,-33.72222 31.60147,-32.835844 -2.56733,-1.180597"
       id="path4445"
       inkscape:label="4th sail" /><path
       style="display:inline;fill:none;stroke:#000000;stroke-width:0.264999;stroke-dasharray:none;stroke-opacity:1;paint-order:stroke markers fill"
       d="M 4.3621406,129.21443 0.69906099,131.05995 18.626673,141.21475 175.20335,107.4887 206.73139,74.626641 203.74903,73.304918"
       id="path4447"
       inkscape:label="3rd sail" /><path
       style="display:inline;fill:none;stroke:#000000;stroke-width:0.264999;stroke-dasharray:none;stroke-opacity:1;paint-order:stroke markers fill"
       d="m 203.7683,69.327466 2.6478,1.118788 L 174.80844,103.29373 18.242889,136.98414 0.33059457,126.86566 4.1048823,124.93719"
       id="path4449"
       inkscape:label="2nd sail" /><path
       style="display:inline;fill:none;fill-opacity:1;stroke:#000000;stroke-width:0.264999;stroke-dasharray:none;stroke-opacity:1;paint-order:stroke markers fill"
       d="M 104.115,70.816099 0.51134319,122.80759 18.452949,132.98374 175.0044,99.278396 206.58115,66.430617 182.87562,55.665121 150.25754,60.779879"
       id="path4451"
       inkscape:label="1st sail" /><path
       style="display:inline;fill:none;fill-opacity:1;stroke:#000000;stroke-width:1.3;stroke-dasharray:none;stroke-opacity:1"
       d="m 137.96331,61.303698 -1.91949,7.55799 -4.67875,-0.11997 -1.91949,7.318055 -4.55879,-0.119968 -2.2794,7.917894 2.75927,7.917895 -2.27939,7.797927 2.87923,7.917889 -2.27939,7.79793 2.87923,8.03786 4.43882,0.23994 2.75927,7.67796 4.19888,0.23993 3.11917,7.9179 6.11837,0.83977 1.67956,-7.07811 4.67875,-0.23994 2.15943,-7.67796 4.91869,-0.11997 2.03946,-7.79792 -2.87924,-7.9179 2.15943,-7.55799 -2.39936,-8.157828 2.03946,-7.797924 -2.99921,-7.917897 -4.43882,-0.719807 -2.63929,-7.677959 -4.43882,-0.479872 -2.75927,-7.55799 z"
       id="path4453"
       inkscape:label="mirror sides"
       transform="translate(-28.810006,-57.159276)" /><path
       style="display:inline;fill:none;fill-opacity:1;stroke:#000000;stroke-width:1.3;stroke-dasharray:none;stroke-opacity:1;paint-order:stroke markers fill"
       d="m 109.30476,77.944976 12.72571,1.590715"
       id="path4455" /><path
       style="display:inline;fill:none;fill-opacity:1;stroke:#000000;stroke-width:1.3;stroke-dasharray:none;stroke-opacity:1;paint-order:stroke markers fill"
       d="m 111.50146,80.217424 8.71106,1.211975"
       id="path4457" /><path
       style="display:inline;fill:none;fill-opacity:1;stroke:#000000;stroke-width:1.3;stroke-dasharray:none;stroke-opacity:1;paint-order:stroke markers fill"
       d="m 124.53017,78.929705 1.96945,-6.968842"
       id="path4459" /><path
       style="display:inline;fill:none;fill-opacity:1;stroke:#000000;stroke-width:1.3;stroke-dasharray:none;stroke-opacity:1;paint-order:stroke markers fill"
       d="m 116.70476,82.722632 2.19483,-7.871137 -2.57325,-7.871138 -4.69241,-0.302736 -2.04347,7.871137 2.42189,7.871137 z"
       id="path4461" /><path
       style="display:inline;fill:none;fill-opacity:1;stroke:#000000;stroke-width:1.3;stroke-dasharray:none;stroke-opacity:1;paint-order:stroke markers fill"
       d="m 119.05096,74.851495 4.54104,0.227052 2.19484,-7.871137 -2.64894,-7.568404 -4.76809,-0.302736 -1.96779,7.568403 z"
       id="path4463" /><path
       style="display:inline;fill:none;fill-opacity:1;stroke:#000000;stroke-width:1.3;stroke-dasharray:none;stroke-opacity:1;paint-order:stroke markers fill"
       d="m 118.44549,59.33627 -2.72463,-8.173873 2.11916,-7.417033 4.69241,0.37842 2.64894,7.795453 -2.11915,7.644085 z"
       id="path4465" /><path
       style="display:inline;fill:none;fill-opacity:1;stroke:#000000;stroke-width:1.3;stroke-dasharray:none;stroke-opacity:1;paint-order:stroke markers fill"
       d="m 122.53243,43.972416 2.11915,-7.87114 4.76809,0.37842 2.72463,8.400926 -2.11916,7.265667 -4.84377,-0.227052 z"
       id="path4467" /><path
       style="display:inline;fill:none;fill-opacity:1;stroke:#000000;stroke-width:1.3;stroke-dasharray:none;stroke-opacity:1;paint-order:stroke markers fill"
       d="m 125.18137,51.919237 4.91946,0.37842 2.57326,7.644085 -2.11916,7.49272 -4.91946,0.07568 -2.49757,-7.946824 z"
       id="path4469" /><path
       style="display:inline;fill:none;fill-opacity:1;stroke:#000000;stroke-width:1.3;stroke-dasharray:none;stroke-opacity:1;paint-order:stroke markers fill"
       d="m 115.87223,51.389449 -4.84378,-0.151368 -1.96778,7.417032 2.72463,8.24956 4.6924,0.302737 1.96779,-7.719772 z"
       id="path4471" /><path
       style="display:inline;fill:none;fill-opacity:1;stroke:#000000;stroke-width:1.3;stroke-dasharray:none;stroke-opacity:1;paint-order:stroke markers fill"
       d="m 102.40048,66.299201 -4.768096,-0.302736 -2.573256,-7.795453 2.194836,-8.098192 4.389676,0.227052 2.87599,8.173873 z"
       id="path4473" /><path
       style="display:inline;fill:none;fill-opacity:1;stroke:#000000;stroke-width:1.3;stroke-dasharray:none;stroke-opacity:1;paint-order:stroke markers fill"
       d="m 104.59531,58.579429 4.38968,0.227052 2.11915,-7.644084 -2.57326,-7.492717 -4.84377,-0.302737 -1.96779,6.811561 z"
       id="path4475" /><path
       style="display:inline;fill:none;fill-opacity:1;stroke:#000000;stroke-width:1.3;stroke-dasharray:none;stroke-opacity:1;paint-order:stroke markers fill"
       d="m 96.799859,50.10282 4.919461,0.302736 2.19484,-7.871137 -2.49758,-7.719769 -5.070825,-0.227052 -2.043467,7.5684 z"
       id="path4477" /><path
       style="display:inline;fill:none;fill-opacity:1;stroke:#000000;stroke-width:1.3;stroke-dasharray:none;stroke-opacity:1;paint-order:stroke markers fill"
       d="m 96.497123,34.587598 4.768097,0.151368 1.96778,-7.189983 -2.57326,-8.47661 -4.465353,-0.151368 -2.421888,7.644085 z"
       id="path4479" /><path
       style="display:inline;fill:none;fill-opacity:1;stroke:#000000;stroke-width:1.3;stroke-dasharray:none;stroke-opacity:1;paint-order:stroke markers fill"
       d="m 102.47616,11.806707 -2.04347,7.34135 2.95168,8.173873 4.54104,0.227053 2.04347,-7.644086 -2.64894,-8.09819 z"
       id="path4481" /><path
       style="display:inline;fill:none;fill-opacity:1;stroke:#000000;stroke-width:1.3;stroke-dasharray:none;stroke-opacity:1;paint-order:stroke markers fill"
       d="m 107.16857,11.806707 2.04347,-7.644086 5.37356,0.302736 2.57326,7.71977 -2.49757,7.871138 -4.46536,-0.227052 z"
       id="path4483" /><path
       style="display:inline;fill:none;fill-opacity:1;stroke:#000000;stroke-width:1.3;stroke-dasharray:none;stroke-opacity:1;paint-order:stroke markers fill"
       d="m 109.89319,19.677845 -1.96778,8.09819 2.64894,7.644085 4.69241,0.227052 2.11915,-7.492717 -2.72462,-7.946822 z"
       id="path4485" /><path
       style="display:inline;fill:none;fill-opacity:1;stroke:#000000;stroke-width:1.3;stroke-dasharray:none;stroke-opacity:1;paint-order:stroke markers fill"
       d="m 107.69836,27.548983 2.95167,8.098189 -1.89209,7.417035 -4.7681,-0.151368 -2.72462,-8.173873 2.11915,-7.49272 z"
       id="path4487" /><path
       style="display:inline;fill:none;fill-opacity:1;stroke:#000000;stroke-width:1.3;stroke-dasharray:none;stroke-opacity:1;paint-order:stroke markers fill"
       d="m 114.73697,35.647172 3.10305,8.173876 4.76809,0.227052 2.11915,-7.87114 -2.64894,-7.719769 -4.54104,-0.227052 z"
       id="path4489" /><path
       style="display:inline;fill:none;fill-opacity:1;stroke:#000000;stroke-width:1.3;stroke-dasharray:none;stroke-opacity:1;paint-order:stroke markers fill"
       d="m 114.5856,20.207633 2.19484,-7.644086 4.38967,0.227052 2.80031,8.173874 -2.11915,7.417034 -4.46536,-0.227052 z"
       id="path4491" /><path
       style="display:inline;fill:none;fill-opacity:1;stroke:#000000;stroke-width:1.3;stroke-dasharray:none;stroke-opacity:1;paint-order:stroke markers fill"
       d="m 123.81905,20.888789 4.91946,0.302736 2.49758,7.644087 -2.27052,7.871137 -4.46536,-0.454105 -2.57326,-7.795453 z"
       id="path4493" /><path
       style="display:inline;fill:none;fill-opacity:1;stroke:#000000;stroke-width:1.3;stroke-dasharray:none;stroke-opacity:1;paint-order:stroke markers fill"
       d="m 117.64589,82.594782 1.79749,-7.100096"
       id="path4495" /><path
       style="display:inline;fill:none;fill-opacity:1;stroke:#000000;stroke-width:1.3;stroke-dasharray:none;stroke-opacity:1;paint-order:stroke markers fill"
       d="m 130.94733,68.304716 1.25825,-3.864607"
       id="path4497" /><path
       style="display:inline;fill:none;fill-opacity:1;stroke:#000000;stroke-width:1.3;stroke-dasharray:none;stroke-opacity:1;paint-order:stroke markers fill"
       d="m 123.93711,74.865565 2.15699,-6.740596"
       id="path4499" /><path
       style="display:inline;fill:none;fill-opacity:1;stroke:#000000;stroke-width:1.3;stroke-dasharray:none;stroke-opacity:1;paint-order:stroke markers fill"
       d="m 131.93595,50.150042 2.15699,-5.931725"
       id="path4501" /><path
       style="display:inline;fill:none;fill-opacity:1;stroke:#000000;stroke-width:1.3;stroke-dasharray:none;stroke-opacity:1;paint-order:stroke markers fill"
       d="m 129.95871,36.219474 2.15699,-7.459594 -1.70762,-4.403856"
       id="path4503" /><path
       style="display:inline;fill:none;fill-opacity:1;stroke:#000000;stroke-width:1.3;stroke-dasharray:none;stroke-opacity:1;paint-order:stroke markers fill"
       d="m 124.74598,20.850913 -2.87599,-7.998841"
       id="path4505" /><path
       style="display:inline;fill:none;fill-opacity:1;stroke:#000000;stroke-width:1.3;stroke-dasharray:none;stroke-opacity:1;paint-order:stroke markers fill"
       d="M 131.48658,37.927092 129.68909,35.94985"
       id="path4507" /></g></svg>
