%TF.GenerationSoftware,KiCad,Pcbnew,(6.0.4-0)*%
%TF.CreationDate,2022-05-11T16:52:41-04:00*%
%TF.ProjectId,BaseBadge,42617365-4261-4646-9765-2e6b69636164,v02*%
%TF.SameCoordinates,Original*%
%TF.FileFunction,Legend,Bot*%
%TF.FilePolarity,Positive*%
%FSLAX46Y46*%
G04 Gerber Fmt 4.6, Leading zero omitted, Abs format (unit mm)*
G04 Created by KiCad (PCBNEW (6.0.4-0)) date 2022-05-11 16:52:41*
%MOMM*%
%LPD*%
G01*
G04 APERTURE LIST*
%ADD10C,0.000000*%
%ADD11C,0.150000*%
%ADD12C,0.250000*%
%ADD13C,0.120000*%
G04 APERTURE END LIST*
D10*
G36*
X193881117Y-103669948D02*
G01*
X192950880Y-103669948D01*
X192950880Y-104135067D01*
X193415991Y-104135067D01*
X193415991Y-104600109D01*
X192485770Y-104600109D01*
X192485770Y-103669872D01*
X192020651Y-103669872D01*
X192020651Y-103204845D01*
X193881117Y-103204845D01*
X193881117Y-103669948D01*
G37*
G36*
X189695059Y-100414180D02*
G01*
X189113669Y-100414180D01*
X189113669Y-99949062D01*
X189695059Y-99949062D01*
X189695059Y-100414180D01*
G37*
G36*
X193416006Y-104600185D02*
G01*
X193415991Y-104600185D01*
X193415991Y-104600109D01*
X193416006Y-104600109D01*
X193416006Y-104600185D01*
G37*
G36*
X205509016Y-116693096D02*
G01*
X205043898Y-116693096D01*
X205043898Y-116227977D01*
X205509016Y-116227977D01*
X205509016Y-116693096D01*
G37*
G36*
X200857848Y-101809475D02*
G01*
X200392737Y-101809475D01*
X200392737Y-100879253D01*
X200857848Y-100879253D01*
X200857848Y-101809475D01*
G37*
G36*
X190160178Y-108786129D02*
G01*
X190625288Y-108786129D01*
X190625288Y-109251247D01*
X191090407Y-109251247D01*
X191090407Y-109716335D01*
X192020644Y-109716335D01*
X192020644Y-110181453D01*
X191090407Y-110181453D01*
X191090407Y-109716350D01*
X190625296Y-109716350D01*
X190625296Y-109251308D01*
X190160178Y-109251308D01*
X190160178Y-108786190D01*
X189695059Y-108786190D01*
X189695059Y-108321087D01*
X189113669Y-108321087D01*
X189113669Y-107855968D01*
X189695059Y-107855968D01*
X189695059Y-107390850D01*
X190160178Y-107390850D01*
X190160178Y-108786129D01*
G37*
G36*
X190625296Y-101344402D02*
G01*
X190625288Y-101344402D01*
X190625288Y-101344234D01*
X190625296Y-101344234D01*
X190625296Y-101344402D01*
G37*
G36*
X196206702Y-116227977D02*
G01*
X196206694Y-116227977D01*
X196206694Y-116227947D01*
X196206702Y-116227947D01*
X196206702Y-116227977D01*
G37*
G36*
X206904364Y-114367519D02*
G01*
X206439253Y-114367519D01*
X206439253Y-113902401D01*
X206904364Y-113902401D01*
X206904364Y-114367519D01*
G37*
G36*
X198997389Y-115762859D02*
G01*
X198532271Y-115762859D01*
X198532271Y-115297741D01*
X198997389Y-115297741D01*
X198997389Y-115762859D01*
G37*
G36*
X200857855Y-106925640D02*
G01*
X200857855Y-111111675D01*
X196671812Y-111111675D01*
X196671812Y-110646572D01*
X197136923Y-110646572D01*
X200392737Y-110646572D01*
X200392737Y-107390743D01*
X197136923Y-107390743D01*
X197136923Y-110646572D01*
X196671812Y-110646572D01*
X196671812Y-106925640D01*
X200857855Y-106925640D01*
G37*
G36*
X206439253Y-118669811D02*
G01*
X205974135Y-118669811D01*
X205974135Y-118088421D01*
X206439253Y-118088421D01*
X206439253Y-118669811D01*
G37*
G36*
X201322966Y-100413997D02*
G01*
X200857848Y-100413997D01*
X200857848Y-99483776D01*
X201322966Y-99483776D01*
X201322966Y-100413997D01*
G37*
G36*
X192485762Y-101809520D02*
G01*
X192020644Y-101809520D01*
X192020644Y-101344402D01*
X192485762Y-101344402D01*
X192485762Y-101809520D01*
G37*
G36*
X202253241Y-118088436D02*
G01*
X201788123Y-118088436D01*
X201788123Y-117158199D01*
X202253241Y-117158199D01*
X202253241Y-118088436D01*
G37*
G36*
X204578787Y-116693096D02*
G01*
X204113669Y-116693096D01*
X204113669Y-116227977D01*
X204578787Y-116227977D01*
X204578787Y-116693096D01*
G37*
G36*
X207369482Y-107390773D02*
G01*
X207834601Y-107390773D01*
X207834601Y-106925670D01*
X208299719Y-106925670D01*
X208299719Y-107855892D01*
X207369482Y-107855892D01*
X207369482Y-108321010D01*
X206904364Y-108321010D01*
X206904364Y-106925670D01*
X207369482Y-106925670D01*
X207369482Y-107390773D01*
G37*
G36*
X203183440Y-100414028D02*
G01*
X202718321Y-100414028D01*
X202718321Y-99949016D01*
X203183440Y-99949016D01*
X203183440Y-100414028D01*
G37*
G36*
X207369482Y-113902401D02*
G01*
X206904364Y-113902401D01*
X206904364Y-113437282D01*
X207369482Y-113437282D01*
X207369482Y-113902401D01*
G37*
G36*
X205974135Y-116227977D02*
G01*
X205509016Y-116227977D01*
X205509016Y-115762874D01*
X205974135Y-115762874D01*
X205974135Y-116227977D01*
G37*
G36*
X194346220Y-100879284D02*
G01*
X194346220Y-100414165D01*
X195276457Y-100414165D01*
X195276457Y-100879131D01*
X194811339Y-100879131D01*
X194811339Y-101344234D01*
X194346220Y-101344234D01*
X194346220Y-101809353D01*
X194811339Y-101809353D01*
X194811339Y-101344234D01*
X195276457Y-101344234D01*
X195276457Y-100879131D01*
X195741576Y-100879131D01*
X195741576Y-101344234D01*
X196206694Y-101344234D01*
X196206694Y-100879284D01*
X197136931Y-100879284D01*
X197136931Y-101809505D01*
X196671812Y-101809505D01*
X196671812Y-101344387D01*
X196206694Y-101344387D01*
X196206694Y-101809505D01*
X195741576Y-101809505D01*
X195741576Y-101344387D01*
X195276457Y-101344387D01*
X195276457Y-101809505D01*
X194811339Y-101809505D01*
X194811339Y-102274608D01*
X192950880Y-102274608D01*
X192950880Y-101344402D01*
X192485762Y-101344402D01*
X192485762Y-99949047D01*
X192950880Y-99949047D01*
X192950880Y-100413997D01*
X193415999Y-100413997D01*
X193415999Y-99949047D01*
X193881110Y-99949047D01*
X193881110Y-100414165D01*
X193415991Y-100414165D01*
X193415991Y-101809505D01*
X193881110Y-101809505D01*
X193881110Y-100879284D01*
X194346220Y-100879284D01*
G37*
G36*
X201788084Y-113902370D02*
G01*
X201788084Y-113437252D01*
X202253203Y-113437252D01*
X202253203Y-112972149D01*
X203183440Y-112972149D01*
X203183440Y-112507030D01*
X202718321Y-112507030D01*
X202718321Y-111576809D01*
X203183432Y-111576809D01*
X203183432Y-112041927D01*
X203648550Y-112041927D01*
X203648550Y-110646587D01*
X204578787Y-110646587D01*
X204578787Y-111111690D01*
X204113669Y-111111690D01*
X204113669Y-112041927D01*
X204578802Y-112041927D01*
X204578802Y-112507030D01*
X203648566Y-112507030D01*
X203648566Y-114367504D01*
X203183447Y-114367504D01*
X203183447Y-114832607D01*
X202718329Y-114832607D01*
X202718329Y-114367504D01*
X202253210Y-114367504D01*
X202253210Y-115297725D01*
X202020651Y-115297725D01*
X201788084Y-115297710D01*
X201788084Y-114832592D01*
X201322966Y-114832592D01*
X201322966Y-114367489D01*
X202253203Y-114367489D01*
X202718321Y-114367489D01*
X203183440Y-114367489D01*
X203183440Y-113437252D01*
X202718321Y-113437252D01*
X202718321Y-114367489D01*
X202253203Y-114367489D01*
X202253203Y-113902370D01*
X201788084Y-113902370D01*
G37*
G36*
X189695059Y-101809520D02*
G01*
X189113669Y-101809520D01*
X189113669Y-101344402D01*
X189695059Y-101344402D01*
X189695059Y-101809520D01*
G37*
G36*
X196206709Y-105065288D02*
G01*
X196206694Y-105065288D01*
X196206694Y-105065212D01*
X196206709Y-105065212D01*
X196206709Y-105065288D01*
G37*
G36*
X192020644Y-118088421D02*
G01*
X191555533Y-118088421D01*
X191555533Y-117623302D01*
X191090414Y-117623302D01*
X191090414Y-117158184D01*
X192020644Y-117158184D01*
X192020644Y-118088421D01*
G37*
G36*
X206439253Y-109251232D02*
G01*
X205974135Y-109251232D01*
X205974135Y-108786113D01*
X206439253Y-108786113D01*
X206439253Y-109251232D01*
G37*
G36*
X203183440Y-118669811D02*
G01*
X202718321Y-118669811D01*
X202718321Y-118088421D01*
X203183440Y-118088421D01*
X203183440Y-118669811D01*
G37*
G36*
X192020651Y-103204845D02*
G01*
X192020644Y-103204845D01*
X192020644Y-103204769D01*
X192020651Y-103204769D01*
X192020651Y-103204845D01*
G37*
G36*
X206439261Y-107390728D02*
G01*
X205974142Y-107390728D01*
X205974142Y-106925625D01*
X206439261Y-106925625D01*
X206439261Y-107390728D01*
G37*
G36*
X207369482Y-117623317D02*
G01*
X207369482Y-117623302D01*
X207369490Y-117623302D01*
X207369490Y-117158199D01*
X206439253Y-117158199D01*
X206439253Y-116693096D01*
X206904372Y-116693096D01*
X206904372Y-116227977D01*
X207369490Y-116227977D01*
X207369490Y-116693096D01*
X207834608Y-116693096D01*
X207834608Y-115762874D01*
X206904372Y-115762874D01*
X206904372Y-114367519D01*
X207834601Y-114367519D01*
X207834601Y-114832622D01*
X208299719Y-114832622D01*
X208299719Y-115297741D01*
X207834601Y-115297741D01*
X207834601Y-115762859D01*
X208299719Y-115762859D01*
X208299719Y-117158184D01*
X207834601Y-117158184D01*
X207834601Y-117623302D01*
X207369490Y-117623302D01*
X207369490Y-117623317D01*
X207369482Y-117623317D01*
X207369482Y-118088421D01*
X207834601Y-118088421D01*
X207834601Y-117623302D01*
X208299719Y-117623302D01*
X208299719Y-118669811D01*
X207602042Y-118669811D01*
X206904372Y-118669826D01*
X206904372Y-117623317D01*
X207369482Y-117623317D01*
G37*
G36*
X192020651Y-114832698D02*
G01*
X190625296Y-114832698D01*
X190625296Y-114367595D01*
X192020651Y-114367595D01*
X192020651Y-114832698D01*
G37*
G36*
X191555525Y-102739742D02*
G01*
X191090414Y-102739742D01*
X191090414Y-102274624D01*
X191555525Y-102274624D01*
X191555525Y-102739742D01*
G37*
G36*
X192950880Y-102739727D02*
G01*
X192020644Y-102739727D01*
X192020644Y-102274624D01*
X192950880Y-102274624D01*
X192950880Y-102739727D01*
G37*
G36*
X192485770Y-115762935D02*
G01*
X192485762Y-115762935D01*
X192485762Y-115762859D01*
X192485770Y-115762859D01*
X192485770Y-115762935D01*
G37*
G36*
X206439261Y-108320964D02*
G01*
X205974142Y-108320964D01*
X205974142Y-107855846D01*
X206439261Y-107855846D01*
X206439261Y-108320964D01*
G37*
G36*
X191090414Y-106925670D02*
G01*
X193415991Y-106925670D01*
X193415991Y-107390773D01*
X190160178Y-107390773D01*
X190160178Y-106925747D01*
X190625296Y-106925747D01*
X190625296Y-106460628D01*
X191090414Y-106460628D01*
X191090414Y-106925670D01*
G37*
G36*
X195741591Y-103204845D02*
G01*
X195276472Y-103204845D01*
X195276472Y-102274608D01*
X195741591Y-102274608D01*
X195741591Y-103204845D01*
G37*
G36*
X192485762Y-105530285D02*
G01*
X192020644Y-105530285D01*
X192020644Y-105065212D01*
X192020651Y-105065212D01*
X192020651Y-105065166D01*
X192485762Y-105065166D01*
X192485762Y-105530285D01*
G37*
G36*
X205043921Y-112972149D02*
G01*
X204578802Y-112972149D01*
X204578802Y-112507030D01*
X205043921Y-112507030D01*
X205043921Y-112972149D01*
G37*
G36*
X205974135Y-110646557D02*
G01*
X206439253Y-110646557D01*
X206439253Y-111111660D01*
X205974135Y-111111660D01*
X205974135Y-110646572D01*
X205509016Y-110646572D01*
X205509016Y-110181453D01*
X205974135Y-110181453D01*
X205974135Y-110646557D01*
G37*
G36*
X198067152Y-114367519D02*
G01*
X197602049Y-114367519D01*
X197602049Y-113902401D01*
X198067152Y-113902401D01*
X198067152Y-114367519D01*
G37*
G36*
X192485762Y-117158184D02*
G01*
X192020651Y-117158184D01*
X192020651Y-116227962D01*
X191555533Y-116227962D01*
X191555533Y-115762935D01*
X192485762Y-115762935D01*
X192485762Y-117158184D01*
G37*
G36*
X191555533Y-105530330D02*
G01*
X191090414Y-105530330D01*
X191090414Y-105065288D01*
X191555533Y-105065288D01*
X191555533Y-105530330D01*
G37*
G36*
X200857855Y-117623302D02*
G01*
X200392737Y-117623302D01*
X200392737Y-117158184D01*
X200857855Y-117158184D01*
X200857855Y-117623302D01*
G37*
G36*
X207834601Y-113437282D02*
G01*
X207369482Y-113437282D01*
X207369482Y-112507061D01*
X207834601Y-112507061D01*
X207834601Y-113437282D01*
G37*
G36*
X196671805Y-102739574D02*
G01*
X196206686Y-102739574D01*
X196206686Y-102274456D01*
X196671805Y-102274456D01*
X196671805Y-102739574D01*
G37*
G36*
X205043898Y-99948909D02*
G01*
X204578780Y-99948909D01*
X204578780Y-100414028D01*
X205043898Y-100414028D01*
X205043898Y-100879146D01*
X203183447Y-100879146D01*
X203183447Y-101344234D01*
X203183432Y-101344234D01*
X203183432Y-101344249D01*
X202718329Y-101344249D01*
X202718329Y-101809368D01*
X202253210Y-101809368D01*
X202253210Y-101344249D01*
X201788092Y-101344249D01*
X201788092Y-102274471D01*
X202253210Y-102274471D01*
X202253210Y-102739589D01*
X202718314Y-102739589D01*
X202718314Y-103669811D01*
X202253203Y-103669811D01*
X202253203Y-102739589D01*
X201788092Y-102739589D01*
X201788092Y-102274578D01*
X200857855Y-102274578D01*
X200857855Y-101809475D01*
X201322966Y-101809475D01*
X201322966Y-101344356D01*
X201788084Y-101344356D01*
X201788084Y-100879253D01*
X202253203Y-100879253D01*
X202253203Y-100414135D01*
X202718321Y-100414135D01*
X202718321Y-100879146D01*
X203183440Y-100879146D01*
X203183440Y-100414028D01*
X203648558Y-100414028D01*
X203648558Y-99948909D01*
X203183440Y-99948909D01*
X203183440Y-99483913D01*
X205043898Y-99483913D01*
X205043898Y-99948909D01*
G37*
G36*
X189695059Y-115297817D02*
G01*
X189113669Y-115297817D01*
X189113669Y-114832698D01*
X189695059Y-114832698D01*
X189695059Y-115297817D01*
G37*
G36*
X190160178Y-114832698D02*
G01*
X189695059Y-114832698D01*
X189695059Y-114367595D01*
X190160178Y-114367595D01*
X190160178Y-114832698D01*
G37*
G36*
X195741568Y-118669811D02*
G01*
X195276450Y-118669811D01*
X195276450Y-118088421D01*
X195741568Y-118088421D01*
X195741568Y-118669811D01*
G37*
G36*
X203648550Y-101809353D02*
G01*
X203183432Y-101809353D01*
X203183432Y-101344249D01*
X203183447Y-101344249D01*
X203183447Y-101344234D01*
X203648550Y-101344234D01*
X203648550Y-101809353D01*
G37*
G36*
X194811354Y-115762844D02*
G01*
X195276472Y-115762844D01*
X195276472Y-116693065D01*
X194811354Y-116693065D01*
X194811354Y-117158168D01*
X194346236Y-117158168D01*
X194346236Y-116693065D01*
X194811339Y-116693065D01*
X194811339Y-115762844D01*
X194346236Y-115762844D01*
X194346236Y-115297725D01*
X194811354Y-115297725D01*
X194811354Y-115762844D01*
G37*
G36*
X189695059Y-116693157D02*
G01*
X190160178Y-116693157D01*
X190160178Y-117158184D01*
X190625288Y-117158184D01*
X190625288Y-118088421D01*
X191555525Y-118088421D01*
X191555525Y-118669811D01*
X190857848Y-118669811D01*
X190160178Y-118669902D01*
X190160178Y-117623394D01*
X189113669Y-117623394D01*
X189113669Y-116228038D01*
X189695059Y-116228038D01*
X189695059Y-116693157D01*
G37*
G36*
X189695059Y-104600185D02*
G01*
X189113669Y-104600185D01*
X189113669Y-103204845D01*
X189695059Y-103204845D01*
X189695059Y-104600185D01*
G37*
G36*
X193415991Y-99948879D02*
G01*
X192950880Y-99948879D01*
X192950880Y-99483944D01*
X193415991Y-99483944D01*
X193415991Y-99948879D01*
G37*
G36*
X206439253Y-112972133D02*
G01*
X205509016Y-112972133D01*
X205509016Y-112507015D01*
X206439253Y-112507015D01*
X206439253Y-112972133D01*
G37*
G36*
X190625296Y-104600185D02*
G01*
X190160178Y-104600185D01*
X190160178Y-104135082D01*
X190625296Y-104135082D01*
X190625296Y-104600185D01*
G37*
G36*
X200857855Y-118669811D02*
G01*
X200392737Y-118669811D01*
X200392737Y-118088421D01*
X200857855Y-118088421D01*
X200857855Y-118669811D01*
G37*
G36*
X193415999Y-99949047D02*
G01*
X193415991Y-99949047D01*
X193415991Y-99948879D01*
X193415999Y-99948879D01*
X193415999Y-99949047D01*
G37*
G36*
X201788092Y-103204708D02*
G01*
X201322974Y-103204708D01*
X201322974Y-102739696D01*
X201788092Y-102739696D01*
X201788092Y-103204708D01*
G37*
G36*
X200392737Y-99948879D02*
G01*
X199927618Y-99948879D01*
X199927618Y-99483776D01*
X200392737Y-99483776D01*
X200392737Y-99948879D01*
G37*
G36*
X206439253Y-115762874D02*
G01*
X205974135Y-115762874D01*
X205974135Y-115297756D01*
X206439253Y-115297756D01*
X206439253Y-115762874D01*
G37*
G36*
X205043906Y-110646587D02*
G01*
X204578787Y-110646587D01*
X204578787Y-110181469D01*
X205043906Y-110181469D01*
X205043906Y-110646587D01*
G37*
G36*
X189695059Y-114367595D02*
G01*
X189113669Y-114367595D01*
X189113669Y-113902477D01*
X189695059Y-113902477D01*
X189695059Y-114367595D01*
G37*
G36*
X190160178Y-102274624D02*
G01*
X189695059Y-102274624D01*
X189695059Y-101809520D01*
X190160178Y-101809520D01*
X190160178Y-102274624D01*
G37*
G36*
X204578780Y-101809353D02*
G01*
X204113669Y-101809353D01*
X204113669Y-101344234D01*
X204578780Y-101344234D01*
X204578780Y-101809353D01*
G37*
G36*
X207369490Y-110646572D02*
G01*
X207369482Y-110646572D01*
X207369482Y-110646557D01*
X207369490Y-110646557D01*
X207369490Y-110646572D01*
G37*
G36*
X199927618Y-107855861D02*
G01*
X199927618Y-110181453D01*
X197602042Y-110181453D01*
X197602042Y-109716335D01*
X198067152Y-109716335D01*
X198764830Y-109716335D01*
X199462508Y-109716320D01*
X199462508Y-108320995D01*
X198067152Y-108320995D01*
X198067152Y-109716335D01*
X197602042Y-109716335D01*
X197602042Y-107855861D01*
X199927618Y-107855861D01*
G37*
G36*
X190625288Y-101809353D02*
G01*
X191090407Y-101809353D01*
X191090407Y-101344402D01*
X191555525Y-101344402D01*
X191555525Y-101809520D01*
X191090407Y-101809520D01*
X191090407Y-102274624D01*
X190625296Y-102274624D01*
X190625296Y-101809520D01*
X190160178Y-101809520D01*
X190160178Y-101344402D01*
X190625288Y-101344402D01*
X190625288Y-101809353D01*
G37*
G36*
X203183447Y-111111660D02*
G01*
X202718321Y-111111660D01*
X202718321Y-110646557D01*
X203183447Y-110646557D01*
X203183447Y-111111660D01*
G37*
G36*
X204578787Y-115297756D02*
G01*
X204113669Y-115297756D01*
X204113669Y-116227977D01*
X203648550Y-116227977D01*
X203648550Y-117158199D01*
X204578833Y-117158199D01*
X204578833Y-118088436D01*
X204113715Y-118088436D01*
X204113715Y-117623317D01*
X202718359Y-117623317D01*
X202718359Y-117158199D01*
X202253241Y-117158199D01*
X202253241Y-116227977D01*
X201788123Y-116227977D01*
X201788123Y-116693096D01*
X201323004Y-116693096D01*
X201323004Y-115762874D01*
X200857886Y-115762874D01*
X200857886Y-116693096D01*
X200392767Y-116693096D01*
X200392767Y-116227977D01*
X199927649Y-116227977D01*
X199927649Y-118088451D01*
X199462531Y-118088451D01*
X199462531Y-116227977D01*
X198997412Y-116227977D01*
X198997412Y-116693096D01*
X198532294Y-116693096D01*
X198532294Y-117158199D01*
X198997412Y-117158199D01*
X198997412Y-117623317D01*
X198067175Y-117623317D01*
X198067175Y-116693096D01*
X197602057Y-116693096D01*
X197602057Y-117158199D01*
X197136938Y-117158199D01*
X197136938Y-118088436D01*
X196671820Y-118088436D01*
X196671820Y-117158199D01*
X196206702Y-117158199D01*
X196206702Y-117623317D01*
X195276465Y-117623317D01*
X195276465Y-117158199D01*
X195741583Y-117158199D01*
X195741583Y-116227977D01*
X196206694Y-116227977D01*
X196206694Y-116693065D01*
X196671812Y-116693065D01*
X196671812Y-117158168D01*
X197136931Y-117158168D01*
X197136931Y-116693081D01*
X197602042Y-116693081D01*
X197602042Y-116227962D01*
X198067152Y-116227962D01*
X198067152Y-116693081D01*
X198532271Y-116693081D01*
X198532271Y-116227962D01*
X198997389Y-116227962D01*
X198997389Y-115762859D01*
X199462508Y-115762859D01*
X199462508Y-116227962D01*
X199927626Y-116227962D01*
X199927626Y-115762859D01*
X200857848Y-115762859D01*
X200857848Y-115297741D01*
X201322966Y-115297741D01*
X201322966Y-115762859D01*
X202718321Y-115762859D01*
X202718321Y-117158184D01*
X203183432Y-117158184D01*
X203183432Y-116227962D01*
X203648550Y-116227962D01*
X203648550Y-115762859D01*
X203183432Y-115762859D01*
X203183432Y-115297741D01*
X203648550Y-115297741D01*
X203648550Y-114832622D01*
X204113669Y-114832622D01*
X204113669Y-113902401D01*
X204578787Y-113902401D01*
X204578787Y-115297756D01*
G37*
G36*
X198532271Y-101344356D02*
G01*
X198532263Y-101344356D01*
X198532263Y-101344234D01*
X198532271Y-101344234D01*
X198532271Y-101344356D01*
G37*
G36*
X199927618Y-100413997D02*
G01*
X199462500Y-100413997D01*
X199462500Y-99948879D01*
X199927618Y-99948879D01*
X199927618Y-100413997D01*
G37*
G36*
X191090414Y-105995433D02*
G01*
X191555533Y-105995433D01*
X191555533Y-106460552D01*
X191090414Y-106460552D01*
X191090414Y-105995510D01*
X190625296Y-105995510D01*
X190625296Y-105530407D01*
X191090414Y-105530407D01*
X191090414Y-105995433D01*
G37*
G36*
X196671805Y-112972149D02*
G01*
X196206702Y-112972149D01*
X196206702Y-112507030D01*
X196671805Y-112507030D01*
X196671805Y-112972149D01*
G37*
G36*
X192020644Y-103204769D02*
G01*
X191555533Y-103204769D01*
X191555533Y-102739742D01*
X192020644Y-102739742D01*
X192020644Y-103204769D01*
G37*
G36*
X205509016Y-117623302D02*
G01*
X205043898Y-117623302D01*
X205043898Y-117158184D01*
X205509016Y-117158184D01*
X205509016Y-117623302D01*
G37*
G36*
X191555525Y-108320995D02*
G01*
X191090414Y-108320995D01*
X191090414Y-108786098D01*
X191555525Y-108786098D01*
X191555525Y-109251217D01*
X191090407Y-109251217D01*
X191090407Y-108786098D01*
X190625288Y-108786098D01*
X190625288Y-107855877D01*
X191555525Y-107855877D01*
X191555525Y-108320995D01*
G37*
G36*
X190625296Y-109716411D02*
G01*
X190625288Y-109716411D01*
X190625288Y-109716350D01*
X190625296Y-109716350D01*
X190625296Y-109716411D01*
G37*
G36*
X197136923Y-104134929D02*
G01*
X196671812Y-104134929D01*
X196671812Y-103204708D01*
X197136923Y-103204708D01*
X197136923Y-104134929D01*
G37*
G36*
X194346228Y-99949047D02*
G01*
X193881110Y-99949047D01*
X193881110Y-99483944D01*
X194346228Y-99483944D01*
X194346228Y-99949047D01*
G37*
G36*
X198532271Y-100414135D02*
G01*
X198532263Y-100414135D01*
X198532263Y-100413997D01*
X198532271Y-100413997D01*
X198532271Y-100414135D01*
G37*
G36*
X198997389Y-118669811D02*
G01*
X198532271Y-118669811D01*
X198532271Y-118088421D01*
X198997389Y-118088421D01*
X198997389Y-118669811D01*
G37*
G36*
X206904372Y-100414135D02*
G01*
X206439253Y-100414135D01*
X206439253Y-100879146D01*
X205974135Y-100879146D01*
X205974135Y-100414028D01*
X206439253Y-100414028D01*
X206439253Y-99949016D01*
X206904372Y-99949016D01*
X206904372Y-100414135D01*
G37*
G36*
X191555533Y-115762859D02*
G01*
X191090414Y-115762859D01*
X191090414Y-115297817D01*
X191555533Y-115297817D01*
X191555533Y-115762859D01*
G37*
G36*
X194346220Y-107855877D02*
G01*
X194811339Y-107855877D01*
X194811339Y-108786098D01*
X195276457Y-108786098D01*
X195276457Y-109251217D01*
X195043898Y-109251217D01*
X194811346Y-109251232D01*
X194811346Y-108786113D01*
X194346228Y-108786113D01*
X194346228Y-109251232D01*
X193881110Y-109251232D01*
X193881110Y-107390758D01*
X194346220Y-107390758D01*
X194346220Y-107855877D01*
G37*
G36*
X190625288Y-99949062D02*
G01*
X190625288Y-99483959D01*
X192020644Y-99483959D01*
X192020644Y-100414180D01*
X191555525Y-100414180D01*
X191555525Y-100879299D01*
X191090407Y-100879299D01*
X191090407Y-101344234D01*
X190625296Y-101344234D01*
X190625296Y-100414180D01*
X190160178Y-100414180D01*
X190160178Y-100413997D01*
X191090407Y-100413997D01*
X191555525Y-100413997D01*
X191555525Y-99948879D01*
X191090407Y-99948879D01*
X191090407Y-100413997D01*
X190160178Y-100413997D01*
X190160178Y-99949062D01*
X190625288Y-99949062D01*
G37*
G36*
X205974135Y-100414028D02*
G01*
X205043898Y-100414028D01*
X205043898Y-99949016D01*
X205974135Y-99949016D01*
X205974135Y-100414028D01*
G37*
G36*
X191555525Y-116693065D02*
G01*
X191090407Y-116693065D01*
X191090407Y-116227962D01*
X191090414Y-116227962D01*
X191090414Y-116227947D01*
X191555525Y-116227947D01*
X191555525Y-116693065D01*
G37*
G36*
X198067152Y-118669811D02*
G01*
X197602042Y-118669811D01*
X197602042Y-118088421D01*
X198067152Y-118088421D01*
X198067152Y-118669811D01*
G37*
G36*
X194811339Y-118669811D02*
G01*
X193881102Y-118669811D01*
X193881102Y-118088421D01*
X194811339Y-118088421D01*
X194811339Y-118669811D01*
G37*
G36*
X196206694Y-99949047D02*
G01*
X196671812Y-99949047D01*
X196671812Y-99483944D01*
X197136931Y-99483944D01*
X197136931Y-100414165D01*
X196206694Y-100414165D01*
X196206694Y-100879131D01*
X195741576Y-100879131D01*
X195741576Y-100414013D01*
X195276457Y-100414013D01*
X195276457Y-99949047D01*
X195741576Y-99949047D01*
X195741576Y-99483944D01*
X196206694Y-99483944D01*
X196206694Y-99949047D01*
G37*
G36*
X207834601Y-105065273D02*
G01*
X207369482Y-105065273D01*
X207369482Y-104600170D01*
X207834601Y-104600170D01*
X207834601Y-105065273D01*
G37*
G36*
X190625296Y-103204860D02*
G01*
X191555533Y-103204860D01*
X191555533Y-103669872D01*
X191090414Y-103669872D01*
X191090414Y-104134990D01*
X191555533Y-104134990D01*
X191555533Y-104600109D01*
X192020651Y-104600109D01*
X192020651Y-105065166D01*
X192020644Y-105065166D01*
X192020644Y-105065212D01*
X191555533Y-105065212D01*
X191555533Y-104600185D01*
X191090414Y-104600185D01*
X191090414Y-104135067D01*
X190625296Y-104135067D01*
X190625296Y-103669963D01*
X190160178Y-103669963D01*
X190160178Y-102739742D01*
X190625296Y-102739742D01*
X190625296Y-103204860D01*
G37*
G36*
X206439253Y-114832622D02*
G01*
X205974135Y-114832622D01*
X205974135Y-114367519D01*
X206439253Y-114367519D01*
X206439253Y-114832622D01*
G37*
G36*
X190160178Y-100879299D02*
G01*
X189695059Y-100879299D01*
X189695059Y-100414180D01*
X190160178Y-100414180D01*
X190160178Y-100879299D01*
G37*
G36*
X206439253Y-109716335D02*
G01*
X206439253Y-109251232D01*
X206904364Y-109251232D01*
X206904364Y-108786113D01*
X207369482Y-108786113D01*
X207369482Y-108321010D01*
X208299719Y-108321010D01*
X208299719Y-109251232D01*
X207834601Y-109251232D01*
X207834601Y-110181453D01*
X207369482Y-110181453D01*
X207369482Y-110646557D01*
X206439253Y-110646557D01*
X206439253Y-110181438D01*
X205974135Y-110181438D01*
X205974135Y-110181423D01*
X206904372Y-110181423D01*
X207369490Y-110181423D01*
X207369490Y-109251201D01*
X207834608Y-109251201D01*
X207834608Y-108786083D01*
X207369490Y-108786083D01*
X207369490Y-109251201D01*
X206904372Y-109251201D01*
X206904372Y-110181423D01*
X205974135Y-110181423D01*
X205974135Y-109716335D01*
X206439253Y-109716335D01*
G37*
G36*
X194346220Y-116693065D02*
G01*
X193881117Y-116693065D01*
X193881117Y-117158168D01*
X193415999Y-117158168D01*
X193415999Y-116693065D01*
X193881110Y-116693065D01*
X193881110Y-115762844D01*
X194346220Y-115762844D01*
X194346220Y-116693065D01*
G37*
G36*
X190625296Y-115762935D02*
G01*
X191090414Y-115762935D01*
X191090414Y-116227947D01*
X191090407Y-116227947D01*
X191090407Y-116227962D01*
X190625296Y-116227962D01*
X190625296Y-116693081D01*
X190160178Y-116693081D01*
X190160178Y-115762935D01*
X189695059Y-115762935D01*
X189695059Y-115297817D01*
X190625296Y-115297817D01*
X190625296Y-115762935D01*
G37*
G36*
X206439253Y-99948909D02*
G01*
X205974135Y-99948909D01*
X205974135Y-99483913D01*
X206439253Y-99483913D01*
X206439253Y-99948909D01*
G37*
G36*
X198067160Y-115762844D02*
G01*
X197602042Y-115762844D01*
X197602042Y-115297725D01*
X198067160Y-115297725D01*
X198067160Y-115762844D01*
G37*
G36*
X207834601Y-99948986D02*
G01*
X208299719Y-99948986D01*
X208299719Y-100414104D01*
X207834601Y-100414104D01*
X207834601Y-100879223D01*
X208299727Y-100879223D01*
X208299727Y-102274547D01*
X207834608Y-102274547D01*
X207834608Y-101344326D01*
X207369490Y-101344326D01*
X207369490Y-101809444D01*
X206904372Y-101809444D01*
X206904372Y-101344356D01*
X207369482Y-101344356D01*
X207369482Y-99483883D01*
X207834601Y-99483883D01*
X207834601Y-99948986D01*
G37*
G36*
X199927626Y-113902401D02*
G01*
X200392744Y-113902401D01*
X200392744Y-114367519D01*
X199927626Y-114367519D01*
X199927626Y-114832622D01*
X198067168Y-114832622D01*
X198067168Y-114367519D01*
X199462508Y-114367519D01*
X199462508Y-113902401D01*
X198532271Y-113902401D01*
X198532271Y-113437282D01*
X199927626Y-113437282D01*
X199927626Y-113902401D01*
G37*
G36*
X206904364Y-102739574D02*
G01*
X205974127Y-102739574D01*
X205974127Y-102274456D01*
X206904364Y-102274456D01*
X206904364Y-102739574D01*
G37*
G36*
X196206686Y-112972149D02*
G01*
X196206686Y-113437252D01*
X196671812Y-113437252D01*
X196671812Y-112972149D01*
X197136923Y-112972149D01*
X197602034Y-112972149D01*
X198067152Y-112972149D01*
X198067152Y-112507030D01*
X198997389Y-112507030D01*
X198997389Y-112041927D01*
X198067152Y-112041927D01*
X198067152Y-112507030D01*
X197602034Y-112507030D01*
X197602034Y-112972149D01*
X197136923Y-112972149D01*
X197136923Y-112507030D01*
X196671820Y-112507030D01*
X196671820Y-112041927D01*
X195276465Y-112041927D01*
X195276465Y-111576793D01*
X196206686Y-111576793D01*
X201322974Y-111576793D01*
X201322974Y-108786098D01*
X202253195Y-108786098D01*
X202718314Y-108786098D01*
X202718314Y-109251217D01*
X203183432Y-109251217D01*
X203648550Y-109251217D01*
X204113669Y-109251217D01*
X204113669Y-108786098D01*
X204578780Y-108786098D01*
X204578780Y-109251217D01*
X205043906Y-109251217D01*
X205043906Y-108786098D01*
X204578787Y-108786098D01*
X204578787Y-108320995D01*
X205043906Y-108320995D01*
X205043906Y-107390758D01*
X204578787Y-107390758D01*
X204578787Y-108320995D01*
X203648550Y-108320995D01*
X203648550Y-109251217D01*
X203183432Y-109251217D01*
X203183432Y-108320995D01*
X202253195Y-108320995D01*
X202253195Y-108786098D01*
X201322974Y-108786098D01*
X201322974Y-107855861D01*
X201788084Y-107855861D01*
X202253203Y-107855861D01*
X202253203Y-107390743D01*
X201788084Y-107390743D01*
X201788084Y-107855861D01*
X201322974Y-107855861D01*
X201322974Y-106925640D01*
X201788084Y-106925640D01*
X202253203Y-106925640D01*
X202253203Y-107390743D01*
X202718321Y-107390743D01*
X202718321Y-106460521D01*
X203183440Y-106460521D01*
X203183440Y-105995403D01*
X202253203Y-105995403D01*
X202253203Y-106460521D01*
X201788084Y-106460521D01*
X201788084Y-106925640D01*
X201322974Y-106925640D01*
X201322974Y-106460521D01*
X196206686Y-106460521D01*
X196206686Y-111576793D01*
X195276465Y-111576793D01*
X195276465Y-110181453D01*
X194346228Y-110181453D01*
X194346228Y-110646572D01*
X193415991Y-110646572D01*
X193415991Y-111111675D01*
X194811354Y-111111675D01*
X194811354Y-112041912D01*
X193881117Y-112041912D01*
X193881117Y-111576809D01*
X192485762Y-111576809D01*
X192485762Y-112507030D01*
X192950880Y-112507030D01*
X192950880Y-113437252D01*
X193415984Y-113437252D01*
X193415984Y-113902370D01*
X193881102Y-113902370D01*
X193881102Y-114367489D01*
X194113661Y-114367489D01*
X194346236Y-114367504D01*
X194346236Y-113902385D01*
X193881117Y-113902385D01*
X193881117Y-113437267D01*
X193415999Y-113437267D01*
X193415999Y-112041927D01*
X193881117Y-112041927D01*
X193881117Y-113437252D01*
X194811354Y-113437252D01*
X194811354Y-112972149D01*
X195276472Y-112972149D01*
X195276472Y-114367504D01*
X194811354Y-114367504D01*
X194811354Y-114832607D01*
X194346236Y-114832607D01*
X194346236Y-115297725D01*
X193881117Y-115297725D01*
X193881117Y-114367504D01*
X193415999Y-114367504D01*
X193415999Y-115762859D01*
X192485770Y-115762859D01*
X192485770Y-115297817D01*
X192020651Y-115297817D01*
X192020651Y-115297710D01*
X192485754Y-115297710D01*
X192950873Y-115297710D01*
X192950873Y-114832592D01*
X192485770Y-114832592D01*
X192485770Y-114832698D01*
X192485754Y-114832698D01*
X192485754Y-115297710D01*
X192020651Y-115297710D01*
X192020651Y-114832698D01*
X192485754Y-114832698D01*
X192485754Y-114832592D01*
X192485770Y-114832592D01*
X192485770Y-112972225D01*
X192020651Y-112972225D01*
X192020651Y-112042003D01*
X191090414Y-112042003D01*
X191090414Y-111576885D01*
X191555533Y-111576885D01*
X191555533Y-111111766D01*
X190625296Y-111111766D01*
X190625296Y-110646663D01*
X190160178Y-110646663D01*
X190160178Y-111576885D01*
X190625296Y-111576885D01*
X190625296Y-112507106D01*
X189695059Y-112507106D01*
X189695059Y-113437328D01*
X189113669Y-113437328D01*
X189113669Y-112041988D01*
X189695059Y-112041988D01*
X189695059Y-111576870D01*
X189113669Y-111576870D01*
X189113669Y-110646648D01*
X190160178Y-110646648D01*
X190160178Y-109716411D01*
X190625288Y-109716411D01*
X190625288Y-110646587D01*
X191555525Y-110646587D01*
X191555525Y-111111690D01*
X192253203Y-111111690D01*
X192950880Y-111111705D01*
X192950880Y-110646602D01*
X192485762Y-110646602D01*
X192485762Y-109251247D01*
X192950880Y-109251247D01*
X192950880Y-110181469D01*
X193881133Y-110181469D01*
X193881133Y-109716350D01*
X195741591Y-109716350D01*
X195741591Y-108321010D01*
X195276472Y-108321010D01*
X195276472Y-107855892D01*
X194811354Y-107855892D01*
X194811354Y-107390773D01*
X195741591Y-107390773D01*
X195741591Y-106925670D01*
X195276472Y-106925670D01*
X195276472Y-106460552D01*
X194811354Y-106460552D01*
X194811354Y-106925670D01*
X193415999Y-106925670D01*
X193415999Y-106460552D01*
X194346236Y-106460552D01*
X194811354Y-106460552D01*
X194811354Y-105530330D01*
X195276472Y-105530330D01*
X195276472Y-105065212D01*
X195741591Y-105065212D01*
X195741591Y-104600109D01*
X195276472Y-104600109D01*
X195276472Y-105065212D01*
X194346236Y-105065212D01*
X194346236Y-106460552D01*
X193415999Y-106460552D01*
X192020644Y-106460552D01*
X192020644Y-105995433D01*
X192485762Y-105995433D01*
X192950880Y-105995433D01*
X193415999Y-105995433D01*
X193415999Y-105530330D01*
X192950880Y-105530330D01*
X192950880Y-105995433D01*
X192485762Y-105995433D01*
X192485762Y-105530330D01*
X192950880Y-105530330D01*
X192950880Y-105065212D01*
X193416006Y-105065212D01*
X193416006Y-104600185D01*
X193881110Y-104600185D01*
X193881110Y-105065288D01*
X194346220Y-105065288D01*
X194346220Y-104135067D01*
X194811339Y-104135067D01*
X194811339Y-104600185D01*
X195276457Y-104600185D01*
X195276457Y-104135067D01*
X196206694Y-104135067D01*
X196206694Y-105065212D01*
X195741591Y-105065212D01*
X195741591Y-105995433D01*
X196206709Y-105995433D01*
X196206709Y-105065288D01*
X197602049Y-105065288D01*
X197602049Y-105530407D01*
X196671812Y-105530407D01*
X196671812Y-105995510D01*
X198997397Y-105995510D01*
X198997397Y-105530407D01*
X198532278Y-105530407D01*
X198532278Y-105065288D01*
X199462515Y-105065288D01*
X199462515Y-103669948D01*
X198532278Y-103669948D01*
X198532278Y-103204845D01*
X199927634Y-103204845D01*
X199927634Y-102739727D01*
X198532278Y-102739727D01*
X198532278Y-102274608D01*
X197602042Y-102274608D01*
X197602042Y-102739727D01*
X198067145Y-102739727D01*
X198067145Y-103204845D01*
X197602026Y-103204845D01*
X197602026Y-102739727D01*
X197136908Y-102739727D01*
X197136908Y-102274608D01*
X197602026Y-102274608D01*
X197602026Y-99483913D01*
X198997382Y-99483913D01*
X198997382Y-99949016D01*
X198532263Y-99949016D01*
X198532263Y-100413997D01*
X198067152Y-100413997D01*
X198067152Y-100879116D01*
X198532271Y-100879116D01*
X198532271Y-100414135D01*
X198997382Y-100414135D01*
X198997382Y-100879253D01*
X198532263Y-100879253D01*
X198532263Y-101344234D01*
X198067152Y-101344234D01*
X198067152Y-101809353D01*
X198532271Y-101809353D01*
X198532271Y-101344356D01*
X198997382Y-101344356D01*
X198997382Y-101809475D01*
X198532263Y-101809475D01*
X198532263Y-102274578D01*
X199462500Y-102274578D01*
X199462500Y-101344356D01*
X199927618Y-101344356D01*
X199927618Y-102739696D01*
X200392737Y-102739696D01*
X200392737Y-103204815D01*
X201322974Y-103204815D01*
X201322974Y-103669811D01*
X199927618Y-103669811D01*
X199927618Y-105530285D01*
X199462500Y-105530285D01*
X199462500Y-105995388D01*
X199927618Y-105995388D01*
X199927618Y-105530285D01*
X200392737Y-105530285D01*
X200392737Y-105995388D01*
X200857848Y-105995388D01*
X201322974Y-105995372D01*
X201322974Y-105530269D01*
X200392737Y-105530269D01*
X200392737Y-104134929D01*
X201322966Y-104134929D01*
X201322966Y-104600048D01*
X201788084Y-104600048D01*
X201788084Y-105530269D01*
X202253203Y-105530269D01*
X202253203Y-105065151D01*
X202718321Y-105065151D01*
X202718321Y-104600048D01*
X202253203Y-104600048D01*
X202253203Y-104134929D01*
X204113669Y-104134929D01*
X204113669Y-103669811D01*
X205043898Y-103669811D01*
X205043898Y-102739589D01*
X204578780Y-102739589D01*
X204578780Y-102274471D01*
X205043898Y-102274471D01*
X205043898Y-101344249D01*
X205509016Y-101344249D01*
X205509016Y-100879146D01*
X205974135Y-100879146D01*
X205974135Y-101344249D01*
X206439253Y-101344249D01*
X206439253Y-100879253D01*
X206904364Y-100879253D01*
X206904364Y-101344326D01*
X206439253Y-101344326D01*
X206439253Y-101809444D01*
X205974135Y-101809444D01*
X205974135Y-101344326D01*
X205509016Y-101344326D01*
X205509016Y-104135036D01*
X204578780Y-104135036D01*
X204578780Y-105065258D01*
X206439246Y-105065258D01*
X206439246Y-104600155D01*
X205974127Y-104600155D01*
X205974127Y-104135036D01*
X206439246Y-104135036D01*
X206439246Y-104600048D01*
X206904364Y-104600048D01*
X206904364Y-104134929D01*
X206439246Y-104134929D01*
X206439246Y-103669918D01*
X205974127Y-103669918D01*
X205974127Y-103204815D01*
X206904364Y-103204815D01*
X206904364Y-103669918D01*
X207369482Y-103669918D01*
X207369482Y-102739696D01*
X208299719Y-102739696D01*
X208299719Y-104135051D01*
X207834601Y-104135051D01*
X207834601Y-103669933D01*
X207369482Y-103669933D01*
X207369482Y-104600170D01*
X206904364Y-104600170D01*
X206904364Y-105995495D01*
X207369482Y-105995495D01*
X207369482Y-105530391D01*
X208299719Y-105530391D01*
X208299719Y-105995495D01*
X207834601Y-105995495D01*
X207834601Y-106460613D01*
X205974142Y-106460613D01*
X205974142Y-105995495D01*
X205509024Y-105995495D01*
X205509024Y-105995388D01*
X205974127Y-105995388D01*
X206439246Y-105995388D01*
X206439246Y-105530285D01*
X205974127Y-105530285D01*
X205974127Y-105995388D01*
X205509024Y-105995388D01*
X205509024Y-105530391D01*
X204578787Y-105530391D01*
X204578787Y-106460613D01*
X204113669Y-106460613D01*
X204113669Y-104600139D01*
X203183432Y-104600139D01*
X203183432Y-105065242D01*
X202718314Y-105065242D01*
X202718314Y-105530361D01*
X203648550Y-105530361D01*
X203648550Y-106460582D01*
X203183432Y-106460582D01*
X203183432Y-106925701D01*
X203648550Y-106925701D01*
X203648550Y-107390804D01*
X204113669Y-107390804D01*
X204113669Y-106925701D01*
X205509039Y-106925701D01*
X205509039Y-108321056D01*
X205043921Y-108321056D01*
X205043921Y-108786159D01*
X205509039Y-108786159D01*
X205509039Y-109251278D01*
X205043921Y-109251278D01*
X205043921Y-109716381D01*
X204578802Y-109716381D01*
X204578802Y-109251278D01*
X204113684Y-109251278D01*
X204113684Y-110181499D01*
X203648566Y-110181499D01*
X203648566Y-109716381D01*
X203183447Y-109716381D01*
X203183447Y-110181499D01*
X202253210Y-110181499D01*
X202253210Y-108786144D01*
X201788092Y-108786144D01*
X201788092Y-110646618D01*
X202253210Y-110646618D01*
X202253210Y-111111721D01*
X201788092Y-111111721D01*
X201788092Y-112041958D01*
X201322974Y-112041958D01*
X201322974Y-112507061D01*
X201788092Y-112507061D01*
X201788092Y-112972179D01*
X200857855Y-112972179D01*
X200857855Y-112507061D01*
X198997397Y-112507061D01*
X198997397Y-112972179D01*
X198067160Y-112972179D01*
X198067160Y-113437282D01*
X197602042Y-113437282D01*
X197602042Y-113902401D01*
X196671812Y-113902401D01*
X196671812Y-114367519D01*
X197136931Y-114367519D01*
X197136931Y-114832622D01*
X196671812Y-114832622D01*
X196671812Y-115297741D01*
X197136923Y-115297741D01*
X197136923Y-116693065D01*
X196671812Y-116693065D01*
X196671812Y-116227947D01*
X196206702Y-116227947D01*
X196206702Y-114832622D01*
X195741583Y-114832622D01*
X195741583Y-114832592D01*
X196206686Y-114832592D01*
X196671805Y-114832592D01*
X196671805Y-114367489D01*
X196206686Y-114367489D01*
X196206686Y-114832592D01*
X195741583Y-114832592D01*
X195741583Y-112972149D01*
X196206686Y-112972149D01*
G37*
G36*
X189695059Y-109716411D02*
G01*
X189113669Y-109716411D01*
X189113669Y-108786190D01*
X189695059Y-108786190D01*
X189695059Y-109716411D01*
G37*
G36*
X196206709Y-103669948D02*
G01*
X195741591Y-103669948D01*
X195741591Y-103204845D01*
X196206709Y-103204845D01*
X196206709Y-103669948D01*
G37*
G36*
X204113661Y-103669811D02*
G01*
X203648543Y-103669811D01*
X203648543Y-102274471D01*
X204113661Y-102274471D01*
X204113661Y-103669811D01*
G37*
G36*
X206439253Y-116693096D02*
G01*
X205974135Y-116693096D01*
X205974135Y-116227977D01*
X206439253Y-116227977D01*
X206439253Y-116693096D01*
G37*
G36*
X198997389Y-109251232D02*
G01*
X198532271Y-109251232D01*
X198532271Y-108786113D01*
X198997389Y-108786113D01*
X198997389Y-109251232D01*
G37*
G36*
X191555533Y-112972225D02*
G01*
X191090414Y-112972225D01*
X191090414Y-113437328D01*
X191555533Y-113437328D01*
X191555533Y-113902446D01*
X190160178Y-113902446D01*
X190160178Y-113437328D01*
X190625296Y-113437328D01*
X190625296Y-112507106D01*
X191555533Y-112507106D01*
X191555533Y-112972225D01*
G37*
G36*
X206439253Y-117623317D02*
G01*
X205974135Y-117623317D01*
X205974135Y-117158199D01*
X206439253Y-117158199D01*
X206439253Y-117623317D01*
G37*
G36*
X193415991Y-116693065D02*
G01*
X192950880Y-116693065D01*
X192950880Y-116227947D01*
X193415991Y-116227947D01*
X193415991Y-116693065D01*
G37*
G36*
X197136931Y-116693081D02*
G01*
X197136923Y-116693081D01*
X197136923Y-116693065D01*
X197136931Y-116693065D01*
X197136931Y-116693081D01*
G37*
G36*
X194811354Y-103204845D02*
G01*
X195276472Y-103204845D01*
X195276472Y-103669948D01*
X194346236Y-103669948D01*
X194346236Y-103204845D01*
X193881117Y-103204845D01*
X193881117Y-102739727D01*
X194811354Y-102739727D01*
X194811354Y-103204845D01*
G37*
G36*
X206904372Y-101344356D02*
G01*
X206904364Y-101344356D01*
X206904364Y-101344326D01*
X206904372Y-101344326D01*
X206904372Y-101344356D01*
G37*
G36*
X198997397Y-104600185D02*
G01*
X198532278Y-104600185D01*
X198532278Y-104135067D01*
X198997397Y-104135067D01*
X198997397Y-104600185D01*
G37*
G36*
X206439253Y-113902401D02*
G01*
X205509016Y-113902401D01*
X205509016Y-114832622D01*
X205043898Y-114832622D01*
X205043898Y-113437282D01*
X206439253Y-113437282D01*
X206439253Y-113902401D01*
G37*
G36*
X189695059Y-106460506D02*
G01*
X189113669Y-106460506D01*
X189113669Y-105995388D01*
X189695059Y-105995388D01*
X189695059Y-106460506D01*
G37*
G36*
X193415991Y-118669811D02*
G01*
X192950880Y-118669811D01*
X192950880Y-117623302D01*
X193415991Y-117623302D01*
X193415991Y-118669811D01*
G37*
G36*
X190160178Y-105530407D02*
G01*
X189695059Y-105530407D01*
X189695059Y-104600200D01*
X190160178Y-104600200D01*
X190160178Y-105530407D01*
G37*
G36*
X202253203Y-99948879D02*
G01*
X201788084Y-99948879D01*
X201788084Y-99483776D01*
X202253203Y-99483776D01*
X202253203Y-99948879D01*
G37*
G36*
X208299727Y-111576793D02*
G01*
X207369490Y-111576793D01*
X207369490Y-112041912D01*
X206904372Y-112041912D01*
X206904372Y-112507015D01*
X206439253Y-112507015D01*
X206439253Y-112041912D01*
X205974135Y-112041912D01*
X205974135Y-111576793D01*
X205509016Y-111576793D01*
X205509016Y-111111675D01*
X205974135Y-111111675D01*
X205974135Y-111576778D01*
X206439253Y-111576778D01*
X206439253Y-112041896D01*
X206904372Y-112041896D01*
X206904372Y-111111660D01*
X207369490Y-111111660D01*
X207369490Y-110646572D01*
X208299727Y-110646572D01*
X208299727Y-111576793D01*
G37*
G36*
X198532278Y-104135067D02*
G01*
X198067160Y-104135067D01*
X198067160Y-104600185D01*
X197602042Y-104600185D01*
X197602042Y-103669948D01*
X198532278Y-103669948D01*
X198532278Y-104135067D01*
G37*
G36*
X193415991Y-108320995D02*
G01*
X193415991Y-109251217D01*
X192950880Y-109251217D01*
X192950880Y-108786098D01*
X192485762Y-108786098D01*
X192485762Y-109251217D01*
X192020644Y-109251217D01*
X192020644Y-108786098D01*
X192485762Y-108786098D01*
X192485762Y-108320995D01*
X193415991Y-108320995D01*
G37*
G36*
X192485762Y-108320995D02*
G01*
X192020644Y-108320995D01*
X192020644Y-108786098D01*
X191555533Y-108786098D01*
X191555533Y-108320995D01*
X192020644Y-108320995D01*
X192020644Y-107855877D01*
X192485762Y-107855877D01*
X192485762Y-108320995D01*
G37*
G36*
X195276457Y-99949047D02*
G01*
X194811339Y-99949047D01*
X194811339Y-99483944D01*
X195276457Y-99483944D01*
X195276457Y-99949047D01*
G37*
G36*
X205509024Y-118669811D02*
G01*
X205043906Y-118669811D01*
X205043906Y-118088421D01*
X205509024Y-118088421D01*
X205509024Y-118669811D01*
G37*
G36*
X203183432Y-102739589D02*
G01*
X202718321Y-102739589D01*
X202718321Y-102274471D01*
X203183432Y-102274471D01*
X203183432Y-102739589D01*
G37*
D11*
X150796190Y-111545714D02*
X150796190Y-112402857D01*
X150843809Y-112498095D01*
X150939047Y-112545714D01*
X150986666Y-112545714D01*
X150796190Y-111212380D02*
X150843809Y-111260000D01*
X150796190Y-111307619D01*
X150748571Y-111260000D01*
X150796190Y-111212380D01*
X150796190Y-111307619D01*
X150177142Y-112212380D02*
X150272380Y-112164761D01*
X150320000Y-112069523D01*
X150320000Y-111212380D01*
X149367619Y-112164761D02*
X149462857Y-112212380D01*
X149653333Y-112212380D01*
X149748571Y-112164761D01*
X149796190Y-112117142D01*
X149843809Y-112021904D01*
X149843809Y-111736190D01*
X149796190Y-111640952D01*
X149748571Y-111593333D01*
X149653333Y-111545714D01*
X149462857Y-111545714D01*
X149367619Y-111593333D01*
X148939047Y-111545714D02*
X148939047Y-112402857D01*
X148986666Y-112498095D01*
X149081904Y-112545714D01*
X149129523Y-112545714D01*
X148939047Y-111212380D02*
X148986666Y-111260000D01*
X148939047Y-111307619D01*
X148891428Y-111260000D01*
X148939047Y-111212380D01*
X148939047Y-111307619D01*
X148320000Y-112212380D02*
X148415238Y-112164761D01*
X148462857Y-112069523D01*
X148462857Y-111212380D01*
X147510476Y-112164761D02*
X147605714Y-112212380D01*
X147796190Y-112212380D01*
X147891428Y-112164761D01*
X147939047Y-112117142D01*
X147986666Y-112021904D01*
X147986666Y-111736190D01*
X147939047Y-111640952D01*
X147891428Y-111593333D01*
X147796190Y-111545714D01*
X147605714Y-111545714D01*
X147510476Y-111593333D01*
X147081904Y-111545714D02*
X147081904Y-112402857D01*
X147129523Y-112498095D01*
X147224761Y-112545714D01*
X147272380Y-112545714D01*
X147081904Y-111212380D02*
X147129523Y-111260000D01*
X147081904Y-111307619D01*
X147034285Y-111260000D01*
X147081904Y-111212380D01*
X147081904Y-111307619D01*
X146462857Y-112212380D02*
X146558095Y-112164761D01*
X146605714Y-112069523D01*
X146605714Y-111212380D01*
X145653333Y-112164761D02*
X145748571Y-112212380D01*
X145939047Y-112212380D01*
X146034285Y-112164761D01*
X146081904Y-112117142D01*
X146129523Y-112021904D01*
X146129523Y-111736190D01*
X146081904Y-111640952D01*
X146034285Y-111593333D01*
X145939047Y-111545714D01*
X145748571Y-111545714D01*
X145653333Y-111593333D01*
X145224761Y-111545714D02*
X145224761Y-112402857D01*
X145272380Y-112498095D01*
X145367619Y-112545714D01*
X145415238Y-112545714D01*
X145224761Y-111212380D02*
X145272380Y-111260000D01*
X145224761Y-111307619D01*
X145177142Y-111260000D01*
X145224761Y-111212380D01*
X145224761Y-111307619D01*
X144605714Y-112212380D02*
X144700952Y-112164761D01*
X144748571Y-112069523D01*
X144748571Y-111212380D01*
X143796190Y-112164761D02*
X143891428Y-112212380D01*
X144081904Y-112212380D01*
X144177142Y-112164761D01*
X144224761Y-112117142D01*
X144272380Y-112021904D01*
X144272380Y-111736190D01*
X144224761Y-111640952D01*
X144177142Y-111593333D01*
X144081904Y-111545714D01*
X143891428Y-111545714D01*
X143796190Y-111593333D01*
X210724357Y-122781285D02*
X210724357Y-121781285D01*
X210486261Y-121781285D01*
X210343404Y-121828905D01*
X210248166Y-121924143D01*
X210200547Y-122019381D01*
X210152928Y-122209857D01*
X210152928Y-122352714D01*
X210200547Y-122543190D01*
X210248166Y-122638428D01*
X210343404Y-122733666D01*
X210486261Y-122781285D01*
X210724357Y-122781285D01*
X209343404Y-122733666D02*
X209438642Y-122781285D01*
X209629119Y-122781285D01*
X209724357Y-122733666D01*
X209771976Y-122638428D01*
X209771976Y-122257476D01*
X209724357Y-122162238D01*
X209629119Y-122114619D01*
X209438642Y-122114619D01*
X209343404Y-122162238D01*
X209295785Y-122257476D01*
X209295785Y-122352714D01*
X209771976Y-122447952D01*
X208914833Y-122733666D02*
X208819595Y-122781285D01*
X208629119Y-122781285D01*
X208533881Y-122733666D01*
X208486261Y-122638428D01*
X208486261Y-122590809D01*
X208533881Y-122495571D01*
X208629119Y-122447952D01*
X208771976Y-122447952D01*
X208867214Y-122400333D01*
X208914833Y-122305095D01*
X208914833Y-122257476D01*
X208867214Y-122162238D01*
X208771976Y-122114619D01*
X208629119Y-122114619D01*
X208533881Y-122162238D01*
X208057690Y-122781285D02*
X208057690Y-122114619D01*
X208057690Y-121781285D02*
X208105309Y-121828905D01*
X208057690Y-121876524D01*
X208010071Y-121828905D01*
X208057690Y-121781285D01*
X208057690Y-121876524D01*
X207152928Y-122114619D02*
X207152928Y-122924143D01*
X207200547Y-123019381D01*
X207248166Y-123067000D01*
X207343404Y-123114619D01*
X207486261Y-123114619D01*
X207581500Y-123067000D01*
X207152928Y-122733666D02*
X207248166Y-122781285D01*
X207438642Y-122781285D01*
X207533881Y-122733666D01*
X207581500Y-122686047D01*
X207629119Y-122590809D01*
X207629119Y-122305095D01*
X207581500Y-122209857D01*
X207533881Y-122162238D01*
X207438642Y-122114619D01*
X207248166Y-122114619D01*
X207152928Y-122162238D01*
X206676738Y-122114619D02*
X206676738Y-122781285D01*
X206676738Y-122209857D02*
X206629119Y-122162238D01*
X206533881Y-122114619D01*
X206391023Y-122114619D01*
X206295785Y-122162238D01*
X206248166Y-122257476D01*
X206248166Y-122781285D01*
X205391023Y-122733666D02*
X205486261Y-122781285D01*
X205676738Y-122781285D01*
X205771976Y-122733666D01*
X205819595Y-122638428D01*
X205819595Y-122257476D01*
X205771976Y-122162238D01*
X205676738Y-122114619D01*
X205486261Y-122114619D01*
X205391023Y-122162238D01*
X205343404Y-122257476D01*
X205343404Y-122352714D01*
X205819595Y-122447952D01*
X204486261Y-122781285D02*
X204486261Y-121781285D01*
X204486261Y-122733666D02*
X204581500Y-122781285D01*
X204771976Y-122781285D01*
X204867214Y-122733666D01*
X204914833Y-122686047D01*
X204962452Y-122590809D01*
X204962452Y-122305095D01*
X204914833Y-122209857D01*
X204867214Y-122162238D01*
X204771976Y-122114619D01*
X204581500Y-122114619D01*
X204486261Y-122162238D01*
X203248166Y-122781285D02*
X203248166Y-121781285D01*
X203248166Y-122162238D02*
X203152928Y-122114619D01*
X202962452Y-122114619D01*
X202867214Y-122162238D01*
X202819595Y-122209857D01*
X202771976Y-122305095D01*
X202771976Y-122590809D01*
X202819595Y-122686047D01*
X202867214Y-122733666D01*
X202962452Y-122781285D01*
X203152928Y-122781285D01*
X203248166Y-122733666D01*
X202438642Y-122114619D02*
X202200547Y-122781285D01*
X201962452Y-122114619D02*
X202200547Y-122781285D01*
X202295785Y-123019381D01*
X202343404Y-123067000D01*
X202438642Y-123114619D01*
X201581500Y-122686047D02*
X201533881Y-122733666D01*
X201581500Y-122781285D01*
X201629119Y-122733666D01*
X201581500Y-122686047D01*
X201581500Y-122781285D01*
X201581500Y-122162238D02*
X201533881Y-122209857D01*
X201581500Y-122257476D01*
X201629119Y-122209857D01*
X201581500Y-122162238D01*
X201581500Y-122257476D01*
X199724357Y-122305095D02*
X199771976Y-122257476D01*
X199867214Y-122209857D01*
X199962452Y-122209857D01*
X200057690Y-122257476D01*
X200105309Y-122305095D01*
X200152928Y-122400333D01*
X200152928Y-122495571D01*
X200105309Y-122590809D01*
X200057690Y-122638428D01*
X199962452Y-122686047D01*
X199867214Y-122686047D01*
X199771976Y-122638428D01*
X199724357Y-122590809D01*
X199724357Y-122209857D02*
X199724357Y-122590809D01*
X199676738Y-122638428D01*
X199629119Y-122638428D01*
X199533881Y-122590809D01*
X199486261Y-122495571D01*
X199486261Y-122257476D01*
X199581500Y-122114619D01*
X199724357Y-122019381D01*
X199914833Y-121971762D01*
X200105309Y-122019381D01*
X200248166Y-122114619D01*
X200343404Y-122257476D01*
X200391023Y-122447952D01*
X200343404Y-122638428D01*
X200248166Y-122781285D01*
X200105309Y-122876524D01*
X199914833Y-122924143D01*
X199724357Y-122876524D01*
X199581500Y-122781285D01*
X198629119Y-122733666D02*
X198724357Y-122781285D01*
X198914833Y-122781285D01*
X199010071Y-122733666D01*
X199057690Y-122686047D01*
X199105309Y-122590809D01*
X199105309Y-122305095D01*
X199057690Y-122209857D01*
X199010071Y-122162238D01*
X198914833Y-122114619D01*
X198724357Y-122114619D01*
X198629119Y-122162238D01*
X198295785Y-122114619D02*
X198057690Y-122781285D01*
X197819595Y-122114619D02*
X198057690Y-122781285D01*
X198152928Y-123019381D01*
X198200547Y-123067000D01*
X198295785Y-123114619D01*
X197438642Y-122781285D02*
X197438642Y-121781285D01*
X197438642Y-122162238D02*
X197343404Y-122114619D01*
X197152928Y-122114619D01*
X197057690Y-122162238D01*
X197010071Y-122209857D01*
X196962452Y-122305095D01*
X196962452Y-122590809D01*
X197010071Y-122686047D01*
X197057690Y-122733666D01*
X197152928Y-122781285D01*
X197343404Y-122781285D01*
X197438642Y-122733666D01*
X196152928Y-122733666D02*
X196248166Y-122781285D01*
X196438642Y-122781285D01*
X196533881Y-122733666D01*
X196581500Y-122638428D01*
X196581500Y-122257476D01*
X196533881Y-122162238D01*
X196438642Y-122114619D01*
X196248166Y-122114619D01*
X196152928Y-122162238D01*
X196105309Y-122257476D01*
X196105309Y-122352714D01*
X196581500Y-122447952D01*
X195676738Y-122781285D02*
X195676738Y-122114619D01*
X195676738Y-122305095D02*
X195629119Y-122209857D01*
X195581500Y-122162238D01*
X195486261Y-122114619D01*
X195391023Y-122114619D01*
X195200547Y-122114619D02*
X194819595Y-122114619D01*
X195057690Y-121781285D02*
X195057690Y-122638428D01*
X195010071Y-122733666D01*
X194914833Y-122781285D01*
X194819595Y-122781285D01*
X194105309Y-122733666D02*
X194200547Y-122781285D01*
X194391023Y-122781285D01*
X194486261Y-122733666D01*
X194533881Y-122638428D01*
X194533881Y-122257476D01*
X194486261Y-122162238D01*
X194391023Y-122114619D01*
X194200547Y-122114619D01*
X194105309Y-122162238D01*
X194057690Y-122257476D01*
X194057690Y-122352714D01*
X194533881Y-122447952D01*
X193676738Y-122733666D02*
X193581500Y-122781285D01*
X193391023Y-122781285D01*
X193295785Y-122733666D01*
X193248166Y-122638428D01*
X193248166Y-122590809D01*
X193295785Y-122495571D01*
X193391023Y-122447952D01*
X193533881Y-122447952D01*
X193629119Y-122400333D01*
X193676738Y-122305095D01*
X193676738Y-122257476D01*
X193629119Y-122162238D01*
X193533881Y-122114619D01*
X193391023Y-122114619D01*
X193295785Y-122162238D01*
X192962452Y-122114619D02*
X192581500Y-122114619D01*
X192819595Y-121781285D02*
X192819595Y-122638428D01*
X192771976Y-122733666D01*
X192676738Y-122781285D01*
X192581500Y-122781285D01*
X192248166Y-122114619D02*
X192248166Y-123114619D01*
X192248166Y-122162238D02*
X192152928Y-122114619D01*
X191962452Y-122114619D01*
X191867214Y-122162238D01*
X191819595Y-122209857D01*
X191771976Y-122305095D01*
X191771976Y-122590809D01*
X191819595Y-122686047D01*
X191867214Y-122733666D01*
X191962452Y-122781285D01*
X192152928Y-122781285D01*
X192248166Y-122733666D01*
X191343404Y-122781285D02*
X191343404Y-122114619D01*
X191343404Y-121781285D02*
X191391023Y-121828905D01*
X191343404Y-121876524D01*
X191295785Y-121828905D01*
X191343404Y-121781285D01*
X191343404Y-121876524D01*
X190724357Y-122781285D02*
X190819595Y-122733666D01*
X190867214Y-122638428D01*
X190867214Y-121781285D01*
X190200547Y-122781285D02*
X190295785Y-122733666D01*
X190343404Y-122686047D01*
X190391023Y-122590809D01*
X190391023Y-122305095D01*
X190343404Y-122209857D01*
X190295785Y-122162238D01*
X190200547Y-122114619D01*
X190057690Y-122114619D01*
X189962452Y-122162238D01*
X189914833Y-122209857D01*
X189867214Y-122305095D01*
X189867214Y-122590809D01*
X189914833Y-122686047D01*
X189962452Y-122733666D01*
X190057690Y-122781285D01*
X190200547Y-122781285D01*
X189581500Y-122114619D02*
X189200547Y-122114619D01*
X189438642Y-121781285D02*
X189438642Y-122638428D01*
X189391023Y-122733666D01*
X189295785Y-122781285D01*
X189200547Y-122781285D01*
X210749002Y-124325206D02*
X210272811Y-124325206D01*
X210844240Y-124610920D02*
X210510906Y-123610920D01*
X210177573Y-124610920D01*
X209844240Y-124610920D02*
X209844240Y-123944254D01*
X209844240Y-124134730D02*
X209796621Y-124039492D01*
X209749002Y-123991873D01*
X209653763Y-123944254D01*
X209558525Y-123944254D01*
X209368049Y-123944254D02*
X208987097Y-123944254D01*
X209225192Y-123610920D02*
X209225192Y-124468063D01*
X209177573Y-124563301D01*
X209082335Y-124610920D01*
X208987097Y-124610920D01*
X208034716Y-123944254D02*
X207653763Y-123944254D01*
X207891859Y-124610920D02*
X207891859Y-123753778D01*
X207844240Y-123658540D01*
X207749002Y-123610920D01*
X207653763Y-123610920D01*
X207177573Y-124610920D02*
X207272811Y-124563301D01*
X207320430Y-124468063D01*
X207320430Y-123610920D01*
X206891859Y-123944254D02*
X206653763Y-124610920D01*
X206415668Y-123944254D02*
X206653763Y-124610920D01*
X206749002Y-124849016D01*
X206796621Y-124896635D01*
X206891859Y-124944254D01*
X206082335Y-124563301D02*
X205987097Y-124610920D01*
X205796621Y-124610920D01*
X205701383Y-124563301D01*
X205653763Y-124468063D01*
X205653763Y-124420444D01*
X205701383Y-124325206D01*
X205796621Y-124277587D01*
X205939478Y-124277587D01*
X206034716Y-124229968D01*
X206082335Y-124134730D01*
X206082335Y-124087111D01*
X206034716Y-123991873D01*
X205939478Y-123944254D01*
X205796621Y-123944254D01*
X205701383Y-123991873D01*
X204796621Y-123944254D02*
X204796621Y-124610920D01*
X205225192Y-123944254D02*
X205225192Y-124468063D01*
X205177573Y-124563301D01*
X205082335Y-124610920D01*
X204939478Y-124610920D01*
X204844240Y-124563301D01*
X204796621Y-124515682D01*
X204320430Y-124610920D02*
X204320430Y-123944254D01*
X204320430Y-124134730D02*
X204272811Y-124039492D01*
X204225192Y-123991873D01*
X204129954Y-123944254D01*
X204034716Y-123944254D01*
X203701383Y-124610920D02*
X203701383Y-123944254D01*
X203701383Y-124134730D02*
X203653763Y-124039492D01*
X203606144Y-123991873D01*
X203510906Y-123944254D01*
X203415668Y-123944254D01*
X202701383Y-124563301D02*
X202796621Y-124610920D01*
X202987097Y-124610920D01*
X203082335Y-124563301D01*
X203129954Y-124468063D01*
X203129954Y-124087111D01*
X203082335Y-123991873D01*
X202987097Y-123944254D01*
X202796621Y-123944254D01*
X202701383Y-123991873D01*
X202653763Y-124087111D01*
X202653763Y-124182349D01*
X203129954Y-124277587D01*
X201796621Y-124610920D02*
X201796621Y-124087111D01*
X201844240Y-123991873D01*
X201939478Y-123944254D01*
X202129954Y-123944254D01*
X202225192Y-123991873D01*
X201796621Y-124563301D02*
X201891859Y-124610920D01*
X202129954Y-124610920D01*
X202225192Y-124563301D01*
X202272811Y-124468063D01*
X202272811Y-124372825D01*
X202225192Y-124277587D01*
X202129954Y-124229968D01*
X201891859Y-124229968D01*
X201796621Y-124182349D01*
X201177573Y-124610920D02*
X201272811Y-124563301D01*
X201320430Y-124468063D01*
X201320430Y-123610920D01*
X200796621Y-124515682D02*
X200749002Y-124563301D01*
X200796621Y-124610920D01*
X200844240Y-124563301D01*
X200796621Y-124515682D01*
X200796621Y-124610920D01*
X199891859Y-124563301D02*
X199987097Y-124610920D01*
X200177573Y-124610920D01*
X200272811Y-124563301D01*
X200320430Y-124515682D01*
X200368049Y-124420444D01*
X200368049Y-124134730D01*
X200320430Y-124039492D01*
X200272811Y-123991873D01*
X200177573Y-123944254D01*
X199987097Y-123944254D01*
X199891859Y-123991873D01*
X199320430Y-124610920D02*
X199415668Y-124563301D01*
X199463287Y-124515682D01*
X199510906Y-124420444D01*
X199510906Y-124134730D01*
X199463287Y-124039492D01*
X199415668Y-123991873D01*
X199320430Y-123944254D01*
X199177573Y-123944254D01*
X199082335Y-123991873D01*
X199034716Y-124039492D01*
X198987097Y-124134730D01*
X198987097Y-124420444D01*
X199034716Y-124515682D01*
X199082335Y-124563301D01*
X199177573Y-124610920D01*
X199320430Y-124610920D01*
X198558525Y-124610920D02*
X198558525Y-123944254D01*
X198558525Y-124039492D02*
X198510906Y-123991873D01*
X198415668Y-123944254D01*
X198272811Y-123944254D01*
X198177573Y-123991873D01*
X198129954Y-124087111D01*
X198129954Y-124610920D01*
X198129954Y-124087111D02*
X198082335Y-123991873D01*
X197987097Y-123944254D01*
X197844240Y-123944254D01*
X197749002Y-123991873D01*
X197701383Y-124087111D01*
X197701383Y-124610920D01*
X112296418Y-76244009D02*
X112296418Y-75244009D01*
X112058323Y-75244009D01*
X111915466Y-75291629D01*
X111820228Y-75386867D01*
X111772609Y-75482105D01*
X111724989Y-75672581D01*
X111724989Y-75815438D01*
X111772609Y-76005914D01*
X111820228Y-76101152D01*
X111915466Y-76196390D01*
X112058323Y-76244009D01*
X112296418Y-76244009D01*
X111296418Y-75720200D02*
X110963085Y-75720200D01*
X110820228Y-76244009D02*
X111296418Y-76244009D01*
X111296418Y-75244009D01*
X110820228Y-75244009D01*
X110058323Y-75720200D02*
X110391656Y-75720200D01*
X110391656Y-76244009D02*
X110391656Y-75244009D01*
X109915466Y-75244009D01*
X108963085Y-76148771D02*
X109010704Y-76196390D01*
X109153561Y-76244009D01*
X109248799Y-76244009D01*
X109391656Y-76196390D01*
X109486894Y-76101152D01*
X109534513Y-76005914D01*
X109582132Y-75815438D01*
X109582132Y-75672581D01*
X109534513Y-75482105D01*
X109486894Y-75386867D01*
X109391656Y-75291629D01*
X109248799Y-75244009D01*
X109153561Y-75244009D01*
X109010704Y-75291629D01*
X108963085Y-75339248D01*
X108344037Y-75244009D02*
X108153561Y-75244009D01*
X108058323Y-75291629D01*
X107963085Y-75386867D01*
X107915466Y-75577343D01*
X107915466Y-75910676D01*
X107963085Y-76101152D01*
X108058323Y-76196390D01*
X108153561Y-76244009D01*
X108344037Y-76244009D01*
X108439275Y-76196390D01*
X108534513Y-76101152D01*
X108582132Y-75910676D01*
X108582132Y-75577343D01*
X108534513Y-75386867D01*
X108439275Y-75291629D01*
X108344037Y-75244009D01*
X107486894Y-76244009D02*
X107486894Y-75244009D01*
X106915466Y-76244009D01*
X106915466Y-75244009D01*
X105772609Y-75244009D02*
X105153561Y-75244009D01*
X105486894Y-75624962D01*
X105344037Y-75624962D01*
X105248799Y-75672581D01*
X105201180Y-75720200D01*
X105153561Y-75815438D01*
X105153561Y-76053533D01*
X105201180Y-76148771D01*
X105248799Y-76196390D01*
X105344037Y-76244009D01*
X105629751Y-76244009D01*
X105724989Y-76196390D01*
X105772609Y-76148771D01*
X104534513Y-75244009D02*
X104439275Y-75244009D01*
X104344037Y-75291629D01*
X104296418Y-75339248D01*
X104248799Y-75434486D01*
X104201180Y-75624962D01*
X104201180Y-75863057D01*
X104248799Y-76053533D01*
X104296418Y-76148771D01*
X104344037Y-76196390D01*
X104439275Y-76244009D01*
X104534513Y-76244009D01*
X104629751Y-76196390D01*
X104677370Y-76148771D01*
X104724989Y-76053533D01*
X104772609Y-75863057D01*
X104772609Y-75624962D01*
X104724989Y-75434486D01*
X104677370Y-75339248D01*
X104629751Y-75291629D01*
X104534513Y-75244009D01*
D12*
X113823364Y-70491921D02*
X113109078Y-70491921D01*
X113966221Y-70920492D02*
X113466221Y-69420492D01*
X112966221Y-70920492D01*
X111894792Y-70849063D02*
X112037649Y-70920492D01*
X112323364Y-70920492D01*
X112466221Y-70849063D01*
X112537649Y-70706206D01*
X112537649Y-70134778D01*
X112466221Y-69991921D01*
X112323364Y-69920492D01*
X112037649Y-69920492D01*
X111894792Y-69991921D01*
X111823364Y-70134778D01*
X111823364Y-70277635D01*
X112537649Y-70420492D01*
X111180507Y-70920492D02*
X111180507Y-69920492D01*
X111180507Y-70206206D02*
X111109078Y-70063349D01*
X111037649Y-69991921D01*
X110894792Y-69920492D01*
X110751935Y-69920492D01*
X110037649Y-70920492D02*
X110180507Y-70849063D01*
X110251935Y-70777635D01*
X110323364Y-70634778D01*
X110323364Y-70206206D01*
X110251935Y-70063349D01*
X110180507Y-69991921D01*
X110037649Y-69920492D01*
X109823364Y-69920492D01*
X109680507Y-69991921D01*
X109609078Y-70063349D01*
X109537649Y-70206206D01*
X109537649Y-70634778D01*
X109609078Y-70777635D01*
X109680507Y-70849063D01*
X109823364Y-70920492D01*
X110037649Y-70920492D01*
X108966221Y-70849063D02*
X108823364Y-70920492D01*
X108537649Y-70920492D01*
X108394792Y-70849063D01*
X108323364Y-70706206D01*
X108323364Y-70634778D01*
X108394792Y-70491921D01*
X108537649Y-70420492D01*
X108751935Y-70420492D01*
X108894792Y-70349063D01*
X108966221Y-70206206D01*
X108966221Y-70134778D01*
X108894792Y-69991921D01*
X108751935Y-69920492D01*
X108537649Y-69920492D01*
X108394792Y-69991921D01*
X107680507Y-69920492D02*
X107680507Y-71420492D01*
X107680507Y-69991921D02*
X107537649Y-69920492D01*
X107251935Y-69920492D01*
X107109078Y-69991921D01*
X107037649Y-70063349D01*
X106966221Y-70206206D01*
X106966221Y-70634778D01*
X107037649Y-70777635D01*
X107109078Y-70849063D01*
X107251935Y-70920492D01*
X107537649Y-70920492D01*
X107680507Y-70849063D01*
X105680507Y-70920492D02*
X105680507Y-70134778D01*
X105751935Y-69991921D01*
X105894792Y-69920492D01*
X106180507Y-69920492D01*
X106323364Y-69991921D01*
X105680507Y-70849063D02*
X105823364Y-70920492D01*
X106180507Y-70920492D01*
X106323364Y-70849063D01*
X106394792Y-70706206D01*
X106394792Y-70563349D01*
X106323364Y-70420492D01*
X106180507Y-70349063D01*
X105823364Y-70349063D01*
X105680507Y-70277635D01*
X104323364Y-70849063D02*
X104466221Y-70920492D01*
X104751935Y-70920492D01*
X104894792Y-70849063D01*
X104966221Y-70777635D01*
X105037649Y-70634778D01*
X105037649Y-70206206D01*
X104966221Y-70063349D01*
X104894792Y-69991921D01*
X104751935Y-69920492D01*
X104466221Y-69920492D01*
X104323364Y-69991921D01*
X103109078Y-70849063D02*
X103251935Y-70920492D01*
X103537649Y-70920492D01*
X103680507Y-70849063D01*
X103751935Y-70706206D01*
X103751935Y-70134778D01*
X103680507Y-69991921D01*
X103537649Y-69920492D01*
X103251935Y-69920492D01*
X103109078Y-69991921D01*
X103037649Y-70134778D01*
X103037649Y-70277635D01*
X103751935Y-70420492D01*
X112073364Y-71835492D02*
X111573364Y-73335492D01*
X111073364Y-71835492D01*
X110573364Y-73335492D02*
X110573364Y-72335492D01*
X110573364Y-71835492D02*
X110644792Y-71906921D01*
X110573364Y-71978349D01*
X110501935Y-71906921D01*
X110573364Y-71835492D01*
X110573364Y-71978349D01*
X109644792Y-73335492D02*
X109787649Y-73264063D01*
X109859078Y-73121206D01*
X109859078Y-71835492D01*
X108859078Y-73335492D02*
X109001935Y-73264063D01*
X109073364Y-73121206D01*
X109073364Y-71835492D01*
X107644792Y-73335492D02*
X107644792Y-72549778D01*
X107716221Y-72406921D01*
X107859078Y-72335492D01*
X108144792Y-72335492D01*
X108287649Y-72406921D01*
X107644792Y-73264063D02*
X107787649Y-73335492D01*
X108144792Y-73335492D01*
X108287649Y-73264063D01*
X108359078Y-73121206D01*
X108359078Y-72978349D01*
X108287649Y-72835492D01*
X108144792Y-72764063D01*
X107787649Y-72764063D01*
X107644792Y-72692635D01*
X106287649Y-72335492D02*
X106287649Y-73549778D01*
X106359078Y-73692635D01*
X106430507Y-73764063D01*
X106573364Y-73835492D01*
X106787649Y-73835492D01*
X106930507Y-73764063D01*
X106287649Y-73264063D02*
X106430507Y-73335492D01*
X106716221Y-73335492D01*
X106859078Y-73264063D01*
X106930507Y-73192635D01*
X107001935Y-73049778D01*
X107001935Y-72621206D01*
X106930507Y-72478349D01*
X106859078Y-72406921D01*
X106716221Y-72335492D01*
X106430507Y-72335492D01*
X106287649Y-72406921D01*
X105001935Y-73264063D02*
X105144792Y-73335492D01*
X105430507Y-73335492D01*
X105573364Y-73264063D01*
X105644792Y-73121206D01*
X105644792Y-72549778D01*
X105573364Y-72406921D01*
X105430507Y-72335492D01*
X105144792Y-72335492D01*
X105001935Y-72406921D01*
X104930507Y-72549778D01*
X104930507Y-72692635D01*
X105644792Y-72835492D01*
D11*
%TO.C,BT1*%
X125497031Y-122982624D02*
X125354174Y-123030243D01*
X125306555Y-123077862D01*
X125258936Y-123173100D01*
X125258936Y-123315957D01*
X125306555Y-123411195D01*
X125354174Y-123458814D01*
X125449412Y-123506433D01*
X125830364Y-123506433D01*
X125830364Y-122506433D01*
X125497031Y-122506433D01*
X125401793Y-122554053D01*
X125354174Y-122601672D01*
X125306555Y-122696910D01*
X125306555Y-122792148D01*
X125354174Y-122887386D01*
X125401793Y-122935005D01*
X125497031Y-122982624D01*
X125830364Y-122982624D01*
X124973221Y-122506433D02*
X124401793Y-122506433D01*
X124687507Y-123506433D02*
X124687507Y-122506433D01*
X123544650Y-123506433D02*
X124116078Y-123506433D01*
X123830364Y-123506433D02*
X123830364Y-122506433D01*
X123925602Y-122649291D01*
X124020840Y-122744529D01*
X124116078Y-122792148D01*
X128404381Y-106811133D02*
X128499619Y-106763513D01*
X128642477Y-106763513D01*
X128785334Y-106811133D01*
X128880572Y-106906371D01*
X128928191Y-107001609D01*
X128975810Y-107192085D01*
X128975810Y-107334942D01*
X128928191Y-107525418D01*
X128880572Y-107620656D01*
X128785334Y-107715894D01*
X128642477Y-107763513D01*
X128547238Y-107763513D01*
X128404381Y-107715894D01*
X128356762Y-107668275D01*
X128356762Y-107334942D01*
X128547238Y-107334942D01*
X127928191Y-107763513D02*
X127928191Y-106763513D01*
X127356762Y-107763513D01*
X127356762Y-106763513D01*
X126880572Y-107763513D02*
X126880572Y-106763513D01*
X126642477Y-106763513D01*
X126499619Y-106811133D01*
X126404381Y-106906371D01*
X126356762Y-107001609D01*
X126309143Y-107192085D01*
X126309143Y-107334942D01*
X126356762Y-107525418D01*
X126404381Y-107620656D01*
X126499619Y-107715894D01*
X126642477Y-107763513D01*
X126880572Y-107763513D01*
X128975810Y-119463513D02*
X128642477Y-120463513D01*
X128309143Y-119463513D01*
X127404381Y-120368275D02*
X127452000Y-120415894D01*
X127594857Y-120463513D01*
X127690096Y-120463513D01*
X127832953Y-120415894D01*
X127928191Y-120320656D01*
X127975810Y-120225418D01*
X128023429Y-120034942D01*
X128023429Y-119892085D01*
X127975810Y-119701609D01*
X127928191Y-119606371D01*
X127832953Y-119511133D01*
X127690096Y-119463513D01*
X127594857Y-119463513D01*
X127452000Y-119511133D01*
X127404381Y-119558752D01*
X126404381Y-120368275D02*
X126452000Y-120415894D01*
X126594857Y-120463513D01*
X126690096Y-120463513D01*
X126832953Y-120415894D01*
X126928191Y-120320656D01*
X126975810Y-120225418D01*
X127023429Y-120034942D01*
X127023429Y-119892085D01*
X126975810Y-119701609D01*
X126928191Y-119606371D01*
X126832953Y-119511133D01*
X126690096Y-119463513D01*
X126594857Y-119463513D01*
X126452000Y-119511133D01*
X126404381Y-119558752D01*
%TO.C,SW1*%
X89745813Y-117569169D02*
X89602956Y-117616788D01*
X89364860Y-117616788D01*
X89269622Y-117569169D01*
X89222003Y-117521550D01*
X89174384Y-117426312D01*
X89174384Y-117331074D01*
X89222003Y-117235836D01*
X89269622Y-117188217D01*
X89364860Y-117140598D01*
X89555337Y-117092979D01*
X89650575Y-117045360D01*
X89698194Y-116997741D01*
X89745813Y-116902503D01*
X89745813Y-116807265D01*
X89698194Y-116712027D01*
X89650575Y-116664408D01*
X89555337Y-116616788D01*
X89317241Y-116616788D01*
X89174384Y-116664408D01*
X88841051Y-116616788D02*
X88602956Y-117616788D01*
X88412480Y-116902503D01*
X88222003Y-117616788D01*
X87983908Y-116616788D01*
X87079146Y-117616788D02*
X87650575Y-117616788D01*
X87364860Y-117616788D02*
X87364860Y-116616788D01*
X87460099Y-116759646D01*
X87555337Y-116854884D01*
X87650575Y-116902503D01*
X83069340Y-121777760D02*
X83069340Y-121968236D01*
X83116960Y-122063474D01*
X83212198Y-122158712D01*
X83402674Y-122206331D01*
X83736007Y-122206331D01*
X83926483Y-122158712D01*
X84021721Y-122063474D01*
X84069340Y-121968236D01*
X84069340Y-121777760D01*
X84021721Y-121682522D01*
X83926483Y-121587284D01*
X83736007Y-121539665D01*
X83402674Y-121539665D01*
X83212198Y-121587284D01*
X83116960Y-121682522D01*
X83069340Y-121777760D01*
X84069340Y-122634903D02*
X83069340Y-122634903D01*
X84069340Y-123206331D01*
X83069340Y-123206331D01*
X91801860Y-121421567D02*
X91801860Y-121612043D01*
X91849480Y-121707281D01*
X91944718Y-121802519D01*
X92135194Y-121850138D01*
X92468527Y-121850138D01*
X92659003Y-121802519D01*
X92754241Y-121707281D01*
X92801860Y-121612043D01*
X92801860Y-121421567D01*
X92754241Y-121326328D01*
X92659003Y-121231090D01*
X92468527Y-121183471D01*
X92135194Y-121183471D01*
X91944718Y-121231090D01*
X91849480Y-121326328D01*
X91801860Y-121421567D01*
X92278051Y-122612043D02*
X92278051Y-122278709D01*
X92801860Y-122278709D02*
X91801860Y-122278709D01*
X91801860Y-122754900D01*
X92278051Y-123469186D02*
X92278051Y-123135852D01*
X92801860Y-123135852D02*
X91801860Y-123135852D01*
X91801860Y-123612043D01*
%TO.C,C1*%
X111966186Y-112778938D02*
X112013805Y-112731319D01*
X112061424Y-112588462D01*
X112061424Y-112493224D01*
X112013805Y-112350366D01*
X111918567Y-112255128D01*
X111823329Y-112207509D01*
X111632853Y-112159890D01*
X111489996Y-112159890D01*
X111299520Y-112207509D01*
X111204282Y-112255128D01*
X111109044Y-112350366D01*
X111061424Y-112493224D01*
X111061424Y-112588462D01*
X111109044Y-112731319D01*
X111156663Y-112778938D01*
X112061424Y-113731319D02*
X112061424Y-113159890D01*
X112061424Y-113445605D02*
X111061424Y-113445605D01*
X111204282Y-113350366D01*
X111299520Y-113255128D01*
X111347139Y-113159890D01*
%TO.C,U1*%
X112521904Y-94832380D02*
X112521904Y-95641904D01*
X112474285Y-95737142D01*
X112426666Y-95784761D01*
X112331428Y-95832380D01*
X112140952Y-95832380D01*
X112045714Y-95784761D01*
X111998095Y-95737142D01*
X111950476Y-95641904D01*
X111950476Y-94832380D01*
X110950476Y-95832380D02*
X111521904Y-95832380D01*
X111236190Y-95832380D02*
X111236190Y-94832380D01*
X111331428Y-94975238D01*
X111426666Y-95070476D01*
X111521904Y-95118095D01*
%TO.C,C2*%
X108527403Y-117127076D02*
X108575022Y-117079457D01*
X108622641Y-116936600D01*
X108622641Y-116841362D01*
X108575022Y-116698504D01*
X108479784Y-116603266D01*
X108384546Y-116555647D01*
X108194070Y-116508028D01*
X108051213Y-116508028D01*
X107860737Y-116555647D01*
X107765499Y-116603266D01*
X107670261Y-116698504D01*
X107622641Y-116841362D01*
X107622641Y-116936600D01*
X107670261Y-117079457D01*
X107717880Y-117127076D01*
X107717880Y-117508028D02*
X107670261Y-117555647D01*
X107622641Y-117650885D01*
X107622641Y-117888981D01*
X107670261Y-117984219D01*
X107717880Y-118031838D01*
X107813118Y-118079457D01*
X107908356Y-118079457D01*
X108051213Y-118031838D01*
X108622641Y-117460409D01*
X108622641Y-118079457D01*
%TO.C,VR1*%
X105572044Y-112656569D02*
X105238711Y-113656569D01*
X104905378Y-112656569D01*
X104000616Y-113656569D02*
X104333949Y-113180379D01*
X104572044Y-113656569D02*
X104572044Y-112656569D01*
X104191092Y-112656569D01*
X104095854Y-112704189D01*
X104048235Y-112751808D01*
X104000616Y-112847046D01*
X104000616Y-112989903D01*
X104048235Y-113085141D01*
X104095854Y-113132760D01*
X104191092Y-113180379D01*
X104572044Y-113180379D01*
X103048235Y-113656569D02*
X103619663Y-113656569D01*
X103333949Y-113656569D02*
X103333949Y-112656569D01*
X103429187Y-112799427D01*
X103524425Y-112894665D01*
X103619663Y-112942284D01*
%TO.C,BT1*%
X121242477Y-89596133D02*
X121242477Y-127086133D01*
X121242477Y-127086133D02*
X173872477Y-127086133D01*
X173872477Y-89596133D02*
X121242477Y-89596133D01*
X173872477Y-89596133D02*
X173872477Y-127086133D01*
D13*
%TO.C,C1*%
X109194044Y-113206857D02*
X109194044Y-112684353D01*
X110664044Y-113206857D02*
X110664044Y-112684353D01*
%TO.C,svg2mod*%
G36*
X108725272Y-67103003D02*
G01*
X108659530Y-67108051D01*
X108374939Y-67111051D01*
X108228094Y-67103190D01*
X108089122Y-67095751D01*
X107803079Y-67061684D01*
X107802806Y-67061651D01*
X107516721Y-67008651D01*
X107231602Y-66936551D01*
X106916072Y-66824251D01*
X106560278Y-66663451D01*
X106210688Y-66477011D01*
X105913763Y-66287851D01*
X105628794Y-66055111D01*
X105320235Y-65758131D01*
X105033960Y-65444011D01*
X104815844Y-65159881D01*
X104586518Y-64772461D01*
X104390766Y-64352851D01*
X104233960Y-63914151D01*
X104121473Y-63469501D01*
X104077983Y-63099861D01*
X104073809Y-62966051D01*
X104785862Y-62966051D01*
X104789462Y-63086401D01*
X104827542Y-63289991D01*
X104885182Y-63562501D01*
X104961622Y-63827131D01*
X105056692Y-64083571D01*
X105170238Y-64331531D01*
X105302104Y-64570681D01*
X105452126Y-64800731D01*
X105620149Y-65021361D01*
X105806011Y-65232261D01*
X106143424Y-65545051D01*
X106522049Y-65818041D01*
X106925052Y-66040541D01*
X107335598Y-66201841D01*
X107696363Y-66303501D01*
X107803079Y-66326301D01*
X107790365Y-66309831D01*
X109175386Y-66309831D01*
X109213406Y-66314831D01*
X109479622Y-66243931D01*
X109981724Y-66053531D01*
X110449624Y-65801761D01*
X110865274Y-65499961D01*
X111047864Y-65333841D01*
X111210624Y-65159471D01*
X111365890Y-64977771D01*
X111293540Y-64852061D01*
X110916190Y-64281711D01*
X110611186Y-63837061D01*
X110611166Y-63836751D01*
X110521996Y-64069891D01*
X110325822Y-64513501D01*
X110295799Y-64569069D01*
X110065702Y-64994941D01*
X109756305Y-65489091D01*
X109412301Y-65970821D01*
X109182286Y-66280631D01*
X109175386Y-66309831D01*
X107790365Y-66309831D01*
X107549270Y-65997501D01*
X107258624Y-65603201D01*
X107002409Y-65218121D01*
X106780115Y-64841151D01*
X106591231Y-64471211D01*
X106435246Y-64107221D01*
X106311647Y-63748071D01*
X106219927Y-63392701D01*
X106159567Y-63039991D01*
X106140398Y-62889771D01*
X106629532Y-62889771D01*
X106668952Y-63135891D01*
X106729842Y-63434881D01*
X106817722Y-63737251D01*
X106933792Y-64045381D01*
X107079245Y-64361691D01*
X107255279Y-64688561D01*
X107463094Y-65028371D01*
X107978852Y-65756431D01*
X108228094Y-66066241D01*
X108240594Y-64478001D01*
X108240594Y-62889771D01*
X106629532Y-62889771D01*
X106140398Y-62889771D01*
X106140337Y-62889291D01*
X105459263Y-62889291D01*
X105017995Y-62888831D01*
X105018119Y-62888751D01*
X104850762Y-62907351D01*
X104807632Y-62930351D01*
X104785862Y-62966051D01*
X104073809Y-62966051D01*
X104071369Y-62887821D01*
X108717347Y-62887821D01*
X108717372Y-62888521D01*
X108717372Y-64477471D01*
X108725272Y-66065461D01*
X109059407Y-65626241D01*
X109497276Y-65002151D01*
X109692416Y-64677761D01*
X109867446Y-64343481D01*
X110016383Y-64011591D01*
X110133243Y-63694411D01*
X110249572Y-63334371D01*
X110093345Y-63119971D01*
X109971171Y-62952501D01*
X110781810Y-62952501D01*
X110887290Y-63153361D01*
X111140893Y-63548091D01*
X111611980Y-64266011D01*
X111723982Y-64450851D01*
X111810272Y-64258561D01*
X111929668Y-63965811D01*
X112025318Y-63672861D01*
X112096848Y-63380981D01*
X112143888Y-63091421D01*
X112168158Y-62889771D01*
X112168154Y-62889301D01*
X111474985Y-62889301D01*
X110877410Y-62898301D01*
X110796000Y-62917101D01*
X110781860Y-62952376D01*
X110781810Y-62952501D01*
X109971171Y-62952501D01*
X109937117Y-62905821D01*
X109327109Y-62896821D01*
X108717372Y-62887821D01*
X108717347Y-62887821D01*
X104071369Y-62887821D01*
X104063483Y-62635001D01*
X104073249Y-62321901D01*
X104778516Y-62321901D01*
X104794356Y-62354901D01*
X104877506Y-62372701D01*
X105459431Y-62381701D01*
X106140342Y-62381701D01*
X106140348Y-62381661D01*
X106629694Y-62381661D01*
X108240760Y-62381661D01*
X108240760Y-61358211D01*
X108717372Y-61358211D01*
X108717372Y-62381591D01*
X109114430Y-62381591D01*
X109511488Y-62364791D01*
X109114430Y-61853091D01*
X108717372Y-61358211D01*
X108240760Y-61358211D01*
X108240760Y-60794391D01*
X108216848Y-60766700D01*
X107957867Y-60466791D01*
X107911160Y-60413291D01*
X108717276Y-60413291D01*
X108838893Y-60547651D01*
X109329469Y-61128771D01*
X109922391Y-61872941D01*
X110273209Y-62315071D01*
X110295799Y-62329671D01*
X110302799Y-62315771D01*
X110290639Y-62222371D01*
X110206979Y-61827821D01*
X110073267Y-61412071D01*
X109894175Y-60987641D01*
X109674383Y-60567081D01*
X109252200Y-59914481D01*
X108830033Y-59347781D01*
X108719771Y-59220641D01*
X108719676Y-59220671D01*
X108717276Y-60413291D01*
X107911160Y-60413291D01*
X107710435Y-60183371D01*
X107638465Y-60117871D01*
X107597189Y-60102438D01*
X107586045Y-60098271D01*
X107586044Y-60098331D01*
X107551634Y-60112431D01*
X107517024Y-60150331D01*
X107425974Y-60290381D01*
X107162645Y-60744071D01*
X106940873Y-61220481D01*
X106772916Y-61689881D01*
X106671034Y-62122561D01*
X106629694Y-62381661D01*
X106140348Y-62381661D01*
X106161252Y-62230761D01*
X106242712Y-61785911D01*
X106354011Y-61372711D01*
X106471457Y-61072651D01*
X106644014Y-60703781D01*
X106841196Y-60327541D01*
X107032519Y-60005361D01*
X107224318Y-59671031D01*
X107169088Y-59588831D01*
X107137173Y-59554491D01*
X107946935Y-59554491D01*
X108069994Y-59694131D01*
X108216848Y-59837141D01*
X108233658Y-59745841D01*
X108240658Y-59522271D01*
X108228648Y-59204771D01*
X108228641Y-59204771D01*
X108228626Y-59204781D01*
X108081772Y-59379511D01*
X107946935Y-59554491D01*
X107137173Y-59554491D01*
X107036363Y-59446021D01*
X106848650Y-59260231D01*
X106848645Y-59259841D01*
X106639782Y-59376411D01*
X106363755Y-59550241D01*
X106101506Y-59754091D01*
X105855754Y-59984641D01*
X105629217Y-60238561D01*
X105424614Y-60512511D01*
X105244663Y-60803171D01*
X105092082Y-61107221D01*
X104969589Y-61421311D01*
X104842296Y-61911621D01*
X104778516Y-62321901D01*
X104073249Y-62321901D01*
X104077983Y-62170151D01*
X104121473Y-61800511D01*
X104232608Y-61356241D01*
X104385304Y-60927901D01*
X104579437Y-60515791D01*
X104814882Y-60120221D01*
X105058413Y-59803221D01*
X105374817Y-59461851D01*
X105715056Y-59145261D01*
X105846900Y-59043711D01*
X107446489Y-59043711D01*
X107521959Y-59137011D01*
X107597189Y-59207711D01*
X107703424Y-59073841D01*
X107781550Y-58975161D01*
X109179425Y-58975161D01*
X109209295Y-59028261D01*
X109412112Y-59299581D01*
X109768111Y-59798281D01*
X110083783Y-60303541D01*
X110345309Y-60791611D01*
X110538873Y-61238731D01*
X110702910Y-61807881D01*
X110759850Y-62086401D01*
X110781860Y-62282571D01*
X110781860Y-62380871D01*
X112168200Y-62380871D01*
X112142240Y-62164071D01*
X112056190Y-61704091D01*
X111912134Y-61259731D01*
X111714317Y-60836941D01*
X111466980Y-60441681D01*
X111174366Y-60079901D01*
X110840719Y-59757531D01*
X110470283Y-59480541D01*
X110067298Y-59254881D01*
X109654139Y-59090891D01*
X109246503Y-58967661D01*
X109187863Y-58958661D01*
X109187825Y-58958261D01*
X109179425Y-58975161D01*
X107781550Y-58975161D01*
X107809418Y-58939961D01*
X107809413Y-58939811D01*
X107719523Y-58962411D01*
X107538059Y-59003311D01*
X107446489Y-59043711D01*
X105846900Y-59043711D01*
X106030092Y-58902611D01*
X106312985Y-58715371D01*
X106028410Y-58442581D01*
X105656932Y-58101991D01*
X105295669Y-57799871D01*
X104953255Y-57541491D01*
X104638323Y-57332181D01*
X104359506Y-57177201D01*
X104125438Y-57081901D01*
X103944753Y-57051501D01*
X103877123Y-57062301D01*
X103826083Y-57091301D01*
X103781183Y-57152901D01*
X103752243Y-57241101D01*
X103741883Y-57491951D01*
X103794293Y-57833561D01*
X103908776Y-58255601D01*
X103993136Y-58499501D01*
X104042406Y-58600981D01*
X104255836Y-58373611D01*
X104405516Y-58208821D01*
X104439556Y-58189521D01*
X104452916Y-58206821D01*
X104576455Y-59892631D01*
X103907320Y-59336701D01*
X103242992Y-58775481D01*
X103399221Y-58754581D01*
X103706148Y-58730781D01*
X103812738Y-58721781D01*
X103857088Y-58704781D01*
X103713359Y-58341131D01*
X103599852Y-58049651D01*
X103517262Y-57786171D01*
X103465582Y-57550601D01*
X103444812Y-57342801D01*
X103454952Y-57162661D01*
X103496002Y-57010061D01*
X103567962Y-56884891D01*
X103670825Y-56786991D01*
X103811690Y-56721291D01*
X103985202Y-56699991D01*
X103985148Y-56700511D01*
X104207768Y-56726611D01*
X104464103Y-56802611D01*
X104751762Y-56927371D01*
X105068361Y-57099641D01*
X105411507Y-57318221D01*
X105778815Y-57581931D01*
X106167896Y-57889541D01*
X106576362Y-58239881D01*
X106834017Y-58468931D01*
X107105132Y-58377831D01*
X107434361Y-58279431D01*
X107744692Y-58217031D01*
X108078703Y-58184431D01*
X108478973Y-58175431D01*
X108978419Y-58189831D01*
X109350963Y-58247631D01*
X109666129Y-58327031D01*
X109970587Y-58426531D01*
X110263738Y-58545581D01*
X110544982Y-58683581D01*
X110813721Y-58839941D01*
X111069357Y-59014081D01*
X111311292Y-59205411D01*
X111538925Y-59413351D01*
X111751659Y-59637311D01*
X111948894Y-59876691D01*
X112130032Y-60130921D01*
X112294473Y-60399401D01*
X112441622Y-60681551D01*
X112570876Y-60976781D01*
X112681638Y-61284501D01*
X112773308Y-61604131D01*
X112821678Y-61812971D01*
X112848078Y-62002391D01*
X112861758Y-62635481D01*
X112849368Y-63269371D01*
X112822968Y-63457651D01*
X112774018Y-63666821D01*
X112678908Y-63993541D01*
X112561007Y-64320531D01*
X112427397Y-64629871D01*
X112285149Y-64903661D01*
X112140459Y-65154821D01*
X112273372Y-65396131D01*
X112634429Y-66111381D01*
X112952120Y-66831991D01*
X113092328Y-67210071D01*
X113181578Y-67516731D01*
X113228808Y-67789861D01*
X113242938Y-68067391D01*
X113231358Y-68321291D01*
X113190158Y-68502261D01*
X113111298Y-68630971D01*
X112986722Y-68728071D01*
X112845588Y-68785371D01*
X112645185Y-68787371D01*
X112462538Y-68756671D01*
X112258972Y-68686371D01*
X112035499Y-68577091D01*
X111793127Y-68429511D01*
X111532864Y-68244291D01*
X111255724Y-68022101D01*
X110654846Y-67469491D01*
X110162369Y-66982061D01*
X110464248Y-67216881D01*
X111152355Y-67725821D01*
X111742660Y-68106651D01*
X112228419Y-68355421D01*
X112429984Y-68429021D01*
X112602883Y-68468121D01*
X112730869Y-68471121D01*
X112815109Y-68416321D01*
X112853439Y-68370821D01*
X112872789Y-68317921D01*
X112869489Y-68102701D01*
X112803239Y-67741311D01*
X112649959Y-67295461D01*
X112408577Y-66762381D01*
X112078021Y-66139281D01*
X111789360Y-65624691D01*
X111723982Y-65685943D01*
X111499979Y-65895811D01*
X111277124Y-66091821D01*
X111045002Y-66271211D01*
X110804347Y-66433781D01*
X110555887Y-66579381D01*
X110038478Y-66818901D01*
X109498621Y-66988351D01*
X109213406Y-67038581D01*
X108942160Y-67086351D01*
X108725272Y-67103003D01*
G37*
G36*
X105017995Y-62888831D02*
G01*
X105017980Y-62888841D01*
X105017980Y-62888831D01*
X105017995Y-62888831D01*
G37*
D11*
%TO.C,U1*%
X114510000Y-96305000D02*
X114510000Y-96510000D01*
X114510000Y-96305000D02*
X109010000Y-96305000D01*
X114510000Y-101815000D02*
X114510000Y-101515000D01*
X114510000Y-101815000D02*
X109010000Y-101815000D01*
X109010000Y-96305000D02*
X109010000Y-96605000D01*
X114510000Y-96510000D02*
X116260000Y-96510000D01*
X109010000Y-101815000D02*
X109010000Y-101515000D01*
D13*
%TO.C,C2*%
X110585261Y-117032491D02*
X110585261Y-117554995D01*
X109115261Y-117032491D02*
X109115261Y-117554995D01*
%TO.C,VR1*%
X102902521Y-117754189D02*
X102902521Y-119064189D01*
X105622521Y-114344189D02*
X102902521Y-114344189D01*
X106762521Y-114574189D02*
X105622521Y-114574189D01*
X102902521Y-114344189D02*
X102902521Y-115654189D01*
X102902521Y-119064189D02*
X105622521Y-119064189D01*
X105622521Y-119064189D02*
X105622521Y-118834189D01*
X105622521Y-114344189D02*
X105622521Y-114574189D01*
%TD*%
M02*
