%TF.GenerationSoftware,KiCad,Pcbnew,(6.0.4-0)*%
%TF.CreationDate,2022-04-25T17:15:56-04:00*%
%TF.ProjectId,BaseBadge,42617365-4261-4646-9765-2e6b69636164,rev?*%
%TF.SameCoordinates,Original*%
%TF.FileFunction,Profile,NP*%
%FSLAX46Y46*%
G04 Gerber Fmt 4.6, Leading zero omitted, Abs format (unit mm)*
G04 Created by KiCad (PCBNEW (6.0.4-0)) date 2022-04-25 17:15:56*
%MOMM*%
%LPD*%
G01*
G04 APERTURE LIST*
%TA.AperFunction,Profile*%
%ADD10C,0.100000*%
%TD*%
%TA.AperFunction,Profile*%
%ADD11C,0.132292*%
%TD*%
G04 APERTURE END LIST*
D10*
X149859999Y-51828999D02*
G75*
G03*
X149859999Y-51828999I-2540000J0D01*
G01*
%TO.C,svg2mod*%
D11*
X148535796Y-45384812D02*
X149750730Y-45423672D01*
X150959267Y-45488128D01*
X152161167Y-45577928D01*
X153356188Y-45692820D01*
X154544086Y-45832549D01*
X155724620Y-45996862D01*
X156897548Y-46185508D01*
X158062628Y-46398232D01*
X159219617Y-46634782D01*
X160368274Y-46894905D01*
X161508356Y-47178347D01*
X162639622Y-47484855D01*
X163761829Y-47814177D01*
X164874735Y-48166060D01*
X165978098Y-48540250D01*
X167071676Y-48936494D01*
X168155227Y-49354539D01*
X169228509Y-49794133D01*
X170291279Y-50255022D01*
X171343296Y-50736953D01*
X172384317Y-51239673D01*
X173414101Y-51762929D01*
X174432404Y-52306469D01*
X175438986Y-52870038D01*
X176433605Y-53453384D01*
X177416017Y-54056254D01*
X178385981Y-54678395D01*
X179343254Y-55319553D01*
X180287596Y-55979477D01*
X181218762Y-56657911D01*
X182136513Y-57354605D01*
X183040605Y-58069304D01*
X183930795Y-58801756D01*
X184806844Y-59551707D01*
X185668507Y-60318905D01*
X186515543Y-61103096D01*
X187347710Y-61904028D01*
X188164766Y-62721447D01*
X188966468Y-63555100D01*
X189752576Y-64404734D01*
X190522845Y-65270096D01*
X191277035Y-66150934D01*
X192014903Y-67046994D01*
X192736208Y-67958023D01*
X193440706Y-68883767D01*
X194128157Y-69823975D01*
X194798317Y-70778393D01*
X195450945Y-71746767D01*
X196085799Y-72728845D01*
X196702636Y-73724374D01*
X197301215Y-74733101D01*
X197881293Y-75754772D01*
X198442629Y-76789135D01*
X198984980Y-77835937D01*
X199508104Y-78894924D01*
X200011758Y-79965844D01*
X200495702Y-81048443D01*
X200959693Y-82142468D01*
X201403488Y-83247667D01*
X201826846Y-84363786D01*
X202229524Y-85490573D01*
X202611281Y-86627773D01*
X202971874Y-87775135D01*
X203311061Y-88932405D01*
X203628601Y-90099330D01*
X203924250Y-91275657D01*
X204197767Y-92461133D01*
X204448910Y-93655505D01*
X204677437Y-94858520D01*
X204883106Y-96069924D01*
X205065673Y-97289466D01*
X205224899Y-98516891D01*
X205360539Y-99751947D01*
X205472353Y-100994380D01*
X205560098Y-102243938D01*
X205623532Y-103500368D01*
X205662413Y-104763416D01*
X205676499Y-106032830D01*
X205687079Y-106032830D01*
X205687079Y-119873180D01*
X88952921Y-119873180D01*
X88952921Y-106106910D01*
X88965440Y-104835992D01*
X89002833Y-103571445D01*
X89064859Y-102313522D01*
X89151271Y-101062477D01*
X89261828Y-99818563D01*
X89396286Y-98582033D01*
X89554400Y-97353141D01*
X89735927Y-96132141D01*
X89940624Y-94919285D01*
X90168247Y-93714828D01*
X90418552Y-92519022D01*
X90691296Y-91332121D01*
X90986234Y-90154378D01*
X91303124Y-88986047D01*
X91641722Y-87827381D01*
X92001783Y-86678634D01*
X92383065Y-85540058D01*
X92785323Y-84411908D01*
X93208315Y-83294437D01*
X93651796Y-82187897D01*
X94115523Y-81092544D01*
X94599252Y-80008629D01*
X95102739Y-78936406D01*
X95625742Y-77876129D01*
X96168015Y-76828052D01*
X96729316Y-75792426D01*
X97309401Y-74769507D01*
X97908027Y-73759547D01*
X98524949Y-72762800D01*
X99159923Y-71779519D01*
X99812708Y-70809957D01*
X100483058Y-69854368D01*
X101170730Y-68913006D01*
X101875480Y-67986123D01*
X102597065Y-67073974D01*
X103335242Y-66176811D01*
X104089765Y-65294888D01*
X104860393Y-64428458D01*
X105646881Y-63577775D01*
X106448985Y-62743092D01*
X107266462Y-61924663D01*
X108099069Y-61122740D01*
X108946561Y-60337578D01*
X109808695Y-59569430D01*
X110685227Y-58818549D01*
X111575914Y-58085188D01*
X112480512Y-57369601D01*
X113398778Y-56672041D01*
X114330467Y-55992763D01*
X115275336Y-55332018D01*
X116233142Y-54690061D01*
X117203641Y-54067145D01*
X118186589Y-53463523D01*
X119181742Y-52879449D01*
X120188857Y-52315176D01*
X121207690Y-51770957D01*
X122237998Y-51247047D01*
X123279537Y-50743698D01*
X124332063Y-50261163D01*
X125395333Y-49799697D01*
X126469103Y-49359552D01*
X127553130Y-48940982D01*
X128647169Y-48544240D01*
X129750977Y-48169581D01*
X130864310Y-47817256D01*
X131986925Y-47487520D01*
X133118579Y-47180625D01*
X134259027Y-46896827D01*
X135408026Y-46636376D01*
X136565332Y-46399528D01*
X137730701Y-46186536D01*
X138903891Y-45997652D01*
X140084656Y-45833131D01*
X141272755Y-45693226D01*
X142467942Y-45578189D01*
X143669975Y-45488275D01*
X144878610Y-45423737D01*
X146093602Y-45384829D01*
X147314709Y-45371803D01*
X148535796Y-45384812D01*
%TD*%
M02*
