M48
; DRILL file {KiCad (6.0.4-0)} date Monday, April 25, 2022 at 05:15:59 PM
; FORMAT={-:-/ absolute / inch / decimal}
; #@! TF.CreationDate,2022-04-25T17:15:59-04:00
; #@! TF.GenerationSoftware,Kicad,Pcbnew,(6.0.4-0)
; #@! TF.FileFunction,Plated,1,2,PTH
FMAT,2
INCH
; #@! TA.AperFunction,Plated,PTH,ViaDrill
T1C0.0157
; #@! TA.AperFunction,Plated,PTH,ComponentDrill
T2C0.0394
; #@! TA.AperFunction,Plated,PTH,ComponentDrill
T3C0.0402
%
G90
G05
T1
X7.1Y-4.6
T2
X3.6668Y-4.4351
X3.6668Y-4.5351
X3.7668Y-4.4351
X3.7668Y-4.5351
X3.8668Y-4.4351
X3.8668Y-4.5351
X4.2513Y-4.5478
X4.3513Y-4.5478
X5.1Y-2.1
X5.1Y-2.2
X5.2Y-2.1
X5.2Y-2.2
X5.3Y-2.1
X5.3Y-2.2
X5.7761Y-3.0518
X5.8761Y-3.0518
X6.8757Y-2.4011
X6.8757Y-2.5011
X6.9757Y-2.4011
X6.9757Y-2.5011
X7.0757Y-2.4011
X7.0757Y-2.5011
X7.3009Y-4.5478
X7.4009Y-4.5478
X7.7445Y-4.4241
X7.7445Y-4.5241
X7.8445Y-4.4241
X7.8445Y-4.5241
X7.9445Y-4.4241
X7.9445Y-4.5241
T3
X4.8Y-3.8429
X4.8Y-4.3429
T0
M30
