%TF.GenerationSoftware,KiCad,Pcbnew,(6.0.4-0)*%
%TF.CreationDate,2022-06-02T17:12:03-04:00*%
%TF.ProjectId,BaseBadge,42617365-4261-4646-9765-2e6b69636164,v04*%
%TF.SameCoordinates,Original*%
%TF.FileFunction,Copper,L1,Top*%
%TF.FilePolarity,Positive*%
%FSLAX46Y46*%
G04 Gerber Fmt 4.6, Leading zero omitted, Abs format (unit mm)*
G04 Created by KiCad (PCBNEW (6.0.4-0)) date 2022-06-02 17:12:03*
%MOMM*%
%LPD*%
G01*
G04 APERTURE LIST*
%TA.AperFunction,ComponentPad*%
%ADD10R,1.700000X1.700000*%
%TD*%
%TA.AperFunction,ComponentPad*%
%ADD11O,1.700000X1.700000*%
%TD*%
%TA.AperFunction,ComponentPad*%
%ADD12C,1.700000*%
%TD*%
%TA.AperFunction,ComponentPad*%
%ADD13O,1.600000X1.600000*%
%TD*%
%TA.AperFunction,ComponentPad*%
%ADD14R,1.600000X1.600000*%
%TD*%
%TA.AperFunction,ComponentPad*%
%ADD15C,2.000000*%
%TD*%
%TA.AperFunction,ViaPad*%
%ADD16C,0.800000*%
%TD*%
%TA.AperFunction,Conductor*%
%ADD17C,0.254000*%
%TD*%
%TA.AperFunction,Conductor*%
%ADD18C,0.250000*%
%TD*%
G04 APERTURE END LIST*
D10*
%TO.P,J1,1,Pin_1*%
%TO.N,VCC*%
X107394767Y-124723348D03*
D11*
%TO.P,J1,2,Pin_2*%
%TO.N,GND*%
X109934767Y-124723348D03*
%TO.P,J1,3,Pin_3*%
%TO.N,Net-(J1-Pad3)*%
X146124767Y-86723348D03*
D12*
%TO.P,J1,4,Pin_4*%
%TO.N,Net-(J1-Pad4)*%
X148664767Y-86723348D03*
D11*
%TO.P,J1,5,Pin_5*%
%TO.N,Net-(J1-Pad5)*%
X184854767Y-124723348D03*
%TO.P,J1,6,Pin_6*%
%TO.N,Net-(J1-Pad6)*%
X187394767Y-124723348D03*
%TD*%
D10*
%TO.P,J2,1,Pin_1*%
%TO.N,VCC*%
X126031280Y-55453952D03*
D11*
%TO.P,J2,2,Pin_2*%
%TO.N,GND*%
X126031280Y-57993952D03*
%TO.P,J2,3,Pin_3*%
%TO.N,Net-(J1-Pad3)*%
X128571280Y-55453952D03*
%TO.P,J2,4,Pin_4*%
%TO.N,Net-(J1-Pad4)*%
X128571280Y-57993952D03*
%TO.P,J2,5,Pin_5*%
%TO.N,Net-(J1-Pad5)*%
X131111280Y-55453952D03*
%TO.P,J2,6,Pin_6*%
%TO.N,Net-(J1-Pad6)*%
X131111280Y-57993952D03*
%TD*%
D10*
%TO.P,J3,1,Pin_1*%
%TO.N,VCC*%
X178614007Y-62427788D03*
D11*
%TO.P,J3,2,Pin_2*%
%TO.N,GND*%
X178614007Y-64967788D03*
%TO.P,J3,3,Pin_3*%
%TO.N,Net-(J1-Pad3)*%
X181154007Y-62427788D03*
%TO.P,J3,4,Pin_4*%
%TO.N,Net-(J1-Pad4)*%
X181154007Y-64967788D03*
%TO.P,J3,5,Pin_5*%
%TO.N,Net-(J1-Pad5)*%
X183694007Y-62427788D03*
%TO.P,J3,6,Pin_6*%
%TO.N,Net-(J1-Pad6)*%
X183694007Y-64967788D03*
%TD*%
D13*
%TO.P,J4,1,MISO*%
%TO.N,Net-(J1-Pad5)*%
X117952362Y-105287607D03*
D14*
%TO.P,J4,2,VCC*%
%TO.N,VCC*%
X115412362Y-105287607D03*
D13*
%TO.P,J4,3,SCK*%
%TO.N,Net-(J1-Pad4)*%
X117952362Y-107827607D03*
%TO.P,J4,4,MOSI*%
%TO.N,Net-(J1-Pad3)*%
X115412362Y-107827607D03*
%TO.P,J4,5,~{RST}*%
%TO.N,Net-(U1-Pad1)*%
X117952362Y-110367607D03*
%TO.P,J4,6,GND*%
%TO.N,GND*%
X115412362Y-110367607D03*
%TD*%
D15*
%TO.P,BT1,1,+*%
%TO.N,Net-(BT1-Pad1)*%
X123832477Y-120091133D03*
%TO.P,BT1,2,-*%
%TO.N,GND*%
X123832477Y-107391133D03*
%TD*%
D16*
%TO.N,GND*%
X119380000Y-101600000D03*
%TO.N,Net-(J1-Pad3)*%
X109220000Y-104140000D03*
%TO.N,Net-(J1-Pad4)*%
X121920000Y-96520000D03*
X177800000Y-96520000D03*
%TO.N,Net-(J1-Pad5)*%
X104140000Y-106680000D03*
%TO.N,Net-(J1-Pad6)*%
X149860000Y-83820000D03*
X124460000Y-96520000D03*
%TO.N,VCC*%
X107688730Y-119880793D03*
X172720000Y-55880000D03*
X132080000Y-116840000D03*
%TO.N,Net-(U1-Pad1)*%
X118518903Y-97449822D03*
%TD*%
D17*
%TO.N,Net-(J1-Pad3)*%
X119380000Y-93980000D02*
X142240000Y-93980000D01*
X146124767Y-90095233D02*
X146124767Y-86723348D01*
X112907607Y-107827607D02*
X109220000Y-104140000D01*
X115412362Y-107827607D02*
X112907607Y-107827607D01*
X109220000Y-104140000D02*
X119380000Y-93980000D01*
X142240000Y-93980000D02*
X146124767Y-90095233D01*
D18*
X109157743Y-104202257D02*
X109220000Y-104140000D01*
D17*
%TO.N,Net-(J1-Pad4)*%
X121920000Y-96520000D02*
X122646511Y-97246511D01*
X177073489Y-97246511D02*
X177800000Y-96520000D01*
X122646511Y-97246511D02*
X177073489Y-97246511D01*
%TO.N,Net-(J1-Pad5)*%
X119003896Y-116113489D02*
X113573489Y-116113489D01*
X184854767Y-124723348D02*
X176244908Y-116113489D01*
X176244908Y-116113489D02*
X119003896Y-116113489D01*
X113573489Y-116113489D02*
X104140000Y-106680000D01*
X119078873Y-106414118D02*
X119078873Y-116038512D01*
X117952362Y-105287607D02*
X119078873Y-106414118D01*
X119078873Y-116038512D02*
X119003896Y-116113489D01*
%TO.N,Net-(J1-Pad6)*%
X140531954Y-96520000D02*
X124460000Y-96520000D01*
X149860000Y-83820000D02*
X149860000Y-87191954D01*
X149860000Y-87191954D02*
X140531954Y-96520000D01*
%TO.N,VCC*%
X107688730Y-119880793D02*
X110729523Y-116840000D01*
X110729523Y-116840000D02*
X132080000Y-116840000D01*
X107394767Y-120174756D02*
X107394767Y-124723348D01*
X107688730Y-119880793D02*
X107394767Y-120174756D01*
X172720000Y-55880000D02*
X178614007Y-61774007D01*
X178614007Y-61774007D02*
X178614007Y-62427788D01*
%TO.N,Net-(U1-Pad1)*%
X116825851Y-109241096D02*
X116825851Y-99142874D01*
X116825851Y-99142874D02*
X118518903Y-97449822D01*
X117952362Y-110367607D02*
X116825851Y-109241096D01*
%TD*%
%TA.AperFunction,Conductor*%
%TO.N,GND*%
G36*
X148596598Y-47314233D02*
G01*
X148599019Y-47314280D01*
X149814869Y-47349591D01*
X149817279Y-47349684D01*
X150094790Y-47363123D01*
X151027347Y-47408283D01*
X151029779Y-47408425D01*
X152233658Y-47490085D01*
X152236085Y-47490273D01*
X153433917Y-47594808D01*
X153436338Y-47595043D01*
X154627732Y-47722228D01*
X154630144Y-47722509D01*
X155094914Y-47781206D01*
X155814980Y-47872145D01*
X155817369Y-47872470D01*
X155917860Y-47887131D01*
X156995312Y-48044325D01*
X156997704Y-48044697D01*
X157448859Y-48119396D01*
X158168827Y-48238605D01*
X158171117Y-48239007D01*
X158870778Y-48368683D01*
X159335023Y-48454727D01*
X159337390Y-48455189D01*
X160493897Y-48692516D01*
X160496247Y-48693022D01*
X161645282Y-48951773D01*
X161647541Y-48952305D01*
X162106856Y-49064972D01*
X162788676Y-49232219D01*
X162790996Y-49232811D01*
X163924267Y-49533736D01*
X163926569Y-49534371D01*
X165051595Y-49856052D01*
X165053879Y-49856728D01*
X165614899Y-50028676D01*
X166170679Y-50199018D01*
X166172896Y-50199721D01*
X166582073Y-50333618D01*
X167280997Y-50562330D01*
X167283240Y-50563087D01*
X168382681Y-50945881D01*
X168384904Y-50946678D01*
X169475495Y-51349458D01*
X169477662Y-51350281D01*
X170559086Y-51772798D01*
X170561074Y-51773596D01*
X171053607Y-51976683D01*
X171633165Y-52215653D01*
X171635319Y-52216565D01*
X171713316Y-52250433D01*
X172697757Y-52677902D01*
X172699807Y-52678814D01*
X173752587Y-53159307D01*
X173754680Y-53160286D01*
X174797505Y-53659684D01*
X174799542Y-53660682D01*
X175086460Y-53804631D01*
X175832261Y-54178805D01*
X175834316Y-54179860D01*
X176856659Y-54716460D01*
X176858688Y-54717549D01*
X177157882Y-54881632D01*
X177854786Y-55263826D01*
X177870405Y-55272392D01*
X177872403Y-55273511D01*
X178853685Y-55835160D01*
X178873501Y-55846502D01*
X178875473Y-55847654D01*
X178918676Y-55873435D01*
X179865626Y-56438515D01*
X179867575Y-56439703D01*
X180222048Y-56660033D01*
X180846560Y-57048212D01*
X180848414Y-57049387D01*
X181221918Y-57291006D01*
X181816137Y-57675405D01*
X181818031Y-57676655D01*
X182774176Y-58319898D01*
X182776041Y-58321177D01*
X183705247Y-58970835D01*
X183720412Y-58981438D01*
X183722242Y-58982742D01*
X184224840Y-59347709D01*
X184654740Y-59659886D01*
X184656549Y-59661225D01*
X185576838Y-60354943D01*
X185578619Y-60356310D01*
X185788013Y-60520084D01*
X186486740Y-61066582D01*
X186488381Y-61067890D01*
X187377198Y-61788886D01*
X187383867Y-61794296D01*
X187385588Y-61795717D01*
X188141138Y-62431153D01*
X188268267Y-62538072D01*
X188269961Y-62539522D01*
X189139820Y-63297777D01*
X189141484Y-63299254D01*
X189998070Y-64072977D01*
X189999705Y-64074480D01*
X190843055Y-64863679D01*
X190844643Y-64865191D01*
X191674501Y-65669607D01*
X191676007Y-65671094D01*
X191941305Y-65937455D01*
X192492031Y-66490387D01*
X192493577Y-66491966D01*
X193138845Y-67162948D01*
X193295668Y-67326021D01*
X193297169Y-67327609D01*
X193700243Y-67761709D01*
X194085123Y-68176215D01*
X194086608Y-68177843D01*
X194860223Y-69040791D01*
X194861678Y-69042443D01*
X195620735Y-69919506D01*
X195622159Y-69921181D01*
X195850730Y-70194792D01*
X196366483Y-70812174D01*
X196367810Y-70813791D01*
X197097271Y-71718598D01*
X197098554Y-71720218D01*
X197812837Y-72638492D01*
X197814112Y-72640161D01*
X197952131Y-72824118D01*
X198513058Y-73571744D01*
X198514358Y-73573510D01*
X199197636Y-74518015D01*
X199198906Y-74519802D01*
X199866485Y-75477248D01*
X199867722Y-75479056D01*
X200519349Y-76449164D01*
X200520556Y-76450994D01*
X201156057Y-77433595D01*
X201157231Y-77435445D01*
X201776374Y-78430280D01*
X201777481Y-78432095D01*
X202380088Y-79438995D01*
X202381137Y-79440784D01*
X202700346Y-79995849D01*
X202966989Y-80459509D01*
X202968064Y-80461416D01*
X203287349Y-81039681D01*
X203536938Y-81491716D01*
X203537981Y-81493644D01*
X203860990Y-82103519D01*
X204089726Y-82535398D01*
X204090732Y-82537339D01*
X204553133Y-83448444D01*
X204625108Y-83590263D01*
X204626073Y-83592207D01*
X204694334Y-83732728D01*
X205142880Y-84656095D01*
X205143824Y-84658081D01*
X205249785Y-84886258D01*
X205641704Y-85730218D01*
X205642886Y-85732764D01*
X205643785Y-85734746D01*
X205968809Y-86467918D01*
X206124930Y-86820088D01*
X206125802Y-86822102D01*
X206577564Y-87891239D01*
X206588754Y-87917722D01*
X206589585Y-87919739D01*
X206732204Y-88274451D01*
X207034186Y-89025520D01*
X207034992Y-89027576D01*
X207461059Y-90143359D01*
X207461828Y-90145426D01*
X207830820Y-91165059D01*
X207869109Y-91270864D01*
X207869844Y-91272952D01*
X208258182Y-92407946D01*
X208258881Y-92410048D01*
X208628086Y-93554428D01*
X208628748Y-93556545D01*
X208978584Y-94710000D01*
X208979210Y-94712131D01*
X209309481Y-95874445D01*
X209310070Y-95876589D01*
X209620606Y-97047672D01*
X209621156Y-97049826D01*
X209886930Y-98128688D01*
X209911737Y-98229389D01*
X209912249Y-98231551D01*
X209946629Y-98382566D01*
X210182666Y-99419361D01*
X210183143Y-99421541D01*
X210433248Y-100617626D01*
X210433678Y-100619782D01*
X210636216Y-101682072D01*
X210663186Y-101823528D01*
X210663577Y-101825682D01*
X210851063Y-102913662D01*
X210872354Y-103037213D01*
X210872709Y-103039392D01*
X210919981Y-103346197D01*
X211060523Y-104258339D01*
X211060844Y-104260553D01*
X211210259Y-105359862D01*
X211227508Y-105486774D01*
X211227790Y-105488999D01*
X211373089Y-106722197D01*
X211373332Y-106724430D01*
X211497076Y-107964472D01*
X211497279Y-107966710D01*
X211599269Y-109213410D01*
X211599433Y-109215652D01*
X211620767Y-109549684D01*
X211678509Y-110453744D01*
X211679474Y-110468858D01*
X211679595Y-110471062D01*
X211734221Y-111659726D01*
X211737471Y-111730450D01*
X211737554Y-111732693D01*
X211773063Y-112997730D01*
X211773071Y-112998023D01*
X211773113Y-113000219D01*
X211773308Y-113019313D01*
X211786050Y-114269386D01*
X211786055Y-114271440D01*
X211785626Y-114341654D01*
X211788093Y-114350285D01*
X211793130Y-114367910D01*
X211797981Y-114402535D01*
X211797981Y-129033392D01*
X211777979Y-129101513D01*
X211724323Y-129148006D01*
X211671981Y-129159392D01*
X83087925Y-129159392D01*
X83019804Y-129139390D01*
X82973311Y-129085734D01*
X82961925Y-129033392D01*
X82961925Y-114357602D01*
X82961931Y-114356403D01*
X82962657Y-114280113D01*
X82974838Y-113000102D01*
X82974882Y-112997730D01*
X82976396Y-112944757D01*
X82995262Y-112284409D01*
X83013360Y-111650939D01*
X83013452Y-111648542D01*
X83052840Y-110821660D01*
X83077277Y-110308673D01*
X83077412Y-110306307D01*
X83078771Y-110285944D01*
X83166346Y-108973508D01*
X83166525Y-108971161D01*
X83170357Y-108926536D01*
X83280326Y-107645673D01*
X83280550Y-107643316D01*
X83282431Y-107625405D01*
X83381729Y-106680000D01*
X103226496Y-106680000D01*
X103227186Y-106686565D01*
X103241359Y-106821409D01*
X103246458Y-106869928D01*
X103305473Y-107051556D01*
X103400960Y-107216944D01*
X103528747Y-107358866D01*
X103683248Y-107471118D01*
X103689276Y-107473802D01*
X103689278Y-107473803D01*
X103777849Y-107513237D01*
X103857712Y-107548794D01*
X103951113Y-107568647D01*
X104038056Y-107587128D01*
X104038061Y-107587128D01*
X104044513Y-107588500D01*
X104097578Y-107588500D01*
X104165699Y-107608502D01*
X104186673Y-107625405D01*
X112550672Y-115989405D01*
X112584698Y-116051717D01*
X112579633Y-116122532D01*
X112537086Y-116179368D01*
X112470566Y-116204179D01*
X112461577Y-116204500D01*
X110808555Y-116204500D01*
X110797316Y-116203970D01*
X110789804Y-116202291D01*
X110781879Y-116202540D01*
X110781878Y-116202540D01*
X110721493Y-116204438D01*
X110717535Y-116204500D01*
X110689540Y-116204500D01*
X110685606Y-116204997D01*
X110685604Y-116204997D01*
X110685517Y-116205008D01*
X110673683Y-116205940D01*
X110629318Y-116207335D01*
X110621705Y-116209547D01*
X110621704Y-116209547D01*
X110609775Y-116213013D01*
X110590411Y-116217023D01*
X110578083Y-116218580D01*
X110578081Y-116218580D01*
X110570224Y-116219573D01*
X110562860Y-116222489D01*
X110562855Y-116222490D01*
X110528967Y-116235907D01*
X110517738Y-116239752D01*
X110503764Y-116243812D01*
X110475130Y-116252131D01*
X110468304Y-116256168D01*
X110457614Y-116262490D01*
X110439864Y-116271187D01*
X110420935Y-116278681D01*
X110414521Y-116283341D01*
X110385037Y-116304762D01*
X110375117Y-116311278D01*
X110343752Y-116329827D01*
X110343749Y-116329829D01*
X110336925Y-116333865D01*
X110322537Y-116348253D01*
X110307503Y-116361094D01*
X110291036Y-116373058D01*
X110285983Y-116379166D01*
X110262751Y-116407249D01*
X110254761Y-116416029D01*
X107735402Y-118935388D01*
X107673090Y-118969414D01*
X107646307Y-118972293D01*
X107593243Y-118972293D01*
X107586791Y-118973665D01*
X107586786Y-118973665D01*
X107499842Y-118992146D01*
X107406442Y-119011999D01*
X107400412Y-119014684D01*
X107400411Y-119014684D01*
X107238008Y-119086990D01*
X107238006Y-119086991D01*
X107231978Y-119089675D01*
X107077477Y-119201927D01*
X106949690Y-119343849D01*
X106854203Y-119509237D01*
X106795188Y-119690865D01*
X106775226Y-119880793D01*
X106775916Y-119887357D01*
X106782988Y-119954641D01*
X106779297Y-119995993D01*
X106779650Y-119996049D01*
X106778411Y-120003873D01*
X106778410Y-120003875D01*
X106772707Y-120039883D01*
X106770302Y-120051496D01*
X106759267Y-120094474D01*
X106759267Y-120114821D01*
X106757716Y-120134532D01*
X106754532Y-120154635D01*
X106755278Y-120162527D01*
X106758708Y-120198812D01*
X106759267Y-120210670D01*
X106759267Y-123238848D01*
X106739265Y-123306969D01*
X106685609Y-123353462D01*
X106633267Y-123364848D01*
X106496633Y-123364848D01*
X106434451Y-123371603D01*
X106298062Y-123422733D01*
X106181506Y-123510087D01*
X106094152Y-123626643D01*
X106043022Y-123763032D01*
X106036267Y-123825214D01*
X106036267Y-125621482D01*
X106043022Y-125683664D01*
X106094152Y-125820053D01*
X106181506Y-125936609D01*
X106298062Y-126023963D01*
X106434451Y-126075093D01*
X106496633Y-126081848D01*
X108292901Y-126081848D01*
X108355083Y-126075093D01*
X108491472Y-126023963D01*
X108608028Y-125936609D01*
X108695382Y-125820053D01*
X108713791Y-125770948D01*
X108739565Y-125702196D01*
X108782207Y-125645432D01*
X108848768Y-125620732D01*
X108918117Y-125635940D01*
X108952784Y-125663928D01*
X108977985Y-125693021D01*
X108985347Y-125700231D01*
X109149201Y-125836264D01*
X109157648Y-125842179D01*
X109341523Y-125949627D01*
X109350809Y-125954077D01*
X109549768Y-126030051D01*
X109559666Y-126032927D01*
X109663017Y-126053954D01*
X109677066Y-126052758D01*
X109680767Y-126042413D01*
X109680767Y-126041865D01*
X110188767Y-126041865D01*
X110192831Y-126055707D01*
X110206245Y-126057741D01*
X110212951Y-126056882D01*
X110223029Y-126054740D01*
X110286746Y-126035624D01*
X178615073Y-126035624D01*
X178624641Y-126242345D01*
X178626045Y-126248170D01*
X178626045Y-126248171D01*
X178651195Y-126352526D01*
X178673126Y-126443528D01*
X178758779Y-126631912D01*
X178878510Y-126800701D01*
X178882833Y-126804839D01*
X178882837Y-126804844D01*
X178962899Y-126881486D01*
X179027997Y-126943804D01*
X179033032Y-126947055D01*
X179196811Y-127052806D01*
X179196814Y-127052807D01*
X179201848Y-127056058D01*
X179393789Y-127133413D01*
X179399670Y-127134561D01*
X179399675Y-127134563D01*
X179592449Y-127172209D01*
X179592452Y-127172209D01*
X179596895Y-127173077D01*
X179602334Y-127173343D01*
X179754909Y-127173343D01*
X179909212Y-127158621D01*
X179914966Y-127156933D01*
X180102032Y-127102054D01*
X180102034Y-127102053D01*
X180107785Y-127100366D01*
X180189462Y-127058300D01*
X180286430Y-127008359D01*
X180286433Y-127008357D01*
X180291761Y-127005613D01*
X180454499Y-126877780D01*
X180590129Y-126721480D01*
X180693757Y-126542353D01*
X180761643Y-126346862D01*
X180775953Y-126248171D01*
X180790476Y-126148002D01*
X180790476Y-126147999D01*
X180791337Y-126142062D01*
X180781769Y-125935341D01*
X180750886Y-125807197D01*
X180734690Y-125739991D01*
X180734689Y-125739989D01*
X180733284Y-125734158D01*
X180717859Y-125700231D01*
X180650111Y-125551229D01*
X180647631Y-125545774D01*
X180527900Y-125376985D01*
X180523577Y-125372847D01*
X180523573Y-125372842D01*
X180382743Y-125238027D01*
X180378413Y-125233882D01*
X180343018Y-125211028D01*
X180209599Y-125124880D01*
X180209596Y-125124879D01*
X180204562Y-125121628D01*
X180012621Y-125044273D01*
X180006740Y-125043125D01*
X180006735Y-125043123D01*
X179813961Y-125005477D01*
X179813958Y-125005477D01*
X179809515Y-125004609D01*
X179804076Y-125004343D01*
X179651501Y-125004343D01*
X179497198Y-125019065D01*
X179491444Y-125020753D01*
X179304378Y-125075632D01*
X179304376Y-125075633D01*
X179298625Y-125077320D01*
X179293292Y-125080066D01*
X179293291Y-125080067D01*
X179119980Y-125169327D01*
X179119977Y-125169329D01*
X179114649Y-125172073D01*
X178951911Y-125299906D01*
X178816281Y-125456206D01*
X178712653Y-125635333D01*
X178644767Y-125830824D01*
X178643907Y-125836757D01*
X178643906Y-125836760D01*
X178615934Y-126029684D01*
X178615073Y-126035624D01*
X110286746Y-126035624D01*
X110427022Y-125993539D01*
X110436609Y-125989781D01*
X110627862Y-125896087D01*
X110636712Y-125890812D01*
X110810095Y-125767140D01*
X110817967Y-125760487D01*
X110968819Y-125610160D01*
X110975497Y-125602313D01*
X111099770Y-125429368D01*
X111105080Y-125420531D01*
X111199437Y-125229615D01*
X111203236Y-125220020D01*
X111265144Y-125016258D01*
X111267322Y-125006185D01*
X111268753Y-124995310D01*
X111266542Y-124981126D01*
X111253384Y-124977348D01*
X110206882Y-124977348D01*
X110191643Y-124981823D01*
X110190438Y-124983213D01*
X110188767Y-124990896D01*
X110188767Y-126041865D01*
X109680767Y-126041865D01*
X109680767Y-124859517D01*
X114830986Y-124859517D01*
X114840554Y-125066238D01*
X114841958Y-125072063D01*
X114841958Y-125072064D01*
X114880173Y-125230631D01*
X114889039Y-125267421D01*
X114974692Y-125455805D01*
X115094423Y-125624594D01*
X115098746Y-125628732D01*
X115098750Y-125628737D01*
X115178812Y-125705379D01*
X115243910Y-125767697D01*
X115248945Y-125770948D01*
X115412724Y-125876699D01*
X115412727Y-125876700D01*
X115417761Y-125879951D01*
X115609702Y-125957306D01*
X115615583Y-125958454D01*
X115615588Y-125958456D01*
X115808362Y-125996102D01*
X115808365Y-125996102D01*
X115812808Y-125996970D01*
X115818247Y-125997236D01*
X115970822Y-125997236D01*
X116125125Y-125982514D01*
X116130879Y-125980826D01*
X116317945Y-125925947D01*
X116317947Y-125925946D01*
X116323698Y-125924259D01*
X116329032Y-125921512D01*
X116502343Y-125832252D01*
X116502346Y-125832250D01*
X116507674Y-125829506D01*
X116670412Y-125701673D01*
X116686040Y-125683664D01*
X116802110Y-125549904D01*
X116806042Y-125545373D01*
X116909670Y-125366246D01*
X116977556Y-125170755D01*
X116984208Y-125124880D01*
X117006389Y-124971895D01*
X117006389Y-124971892D01*
X117007250Y-124965955D01*
X116997682Y-124759234D01*
X116949197Y-124558051D01*
X116908107Y-124467677D01*
X116866024Y-124375122D01*
X116863544Y-124369667D01*
X116743813Y-124200878D01*
X116739490Y-124196740D01*
X116739486Y-124196735D01*
X116598656Y-124061920D01*
X116594326Y-124057775D01*
X116494348Y-123993220D01*
X116425512Y-123948773D01*
X116425509Y-123948772D01*
X116420475Y-123945521D01*
X116228534Y-123868166D01*
X116222653Y-123867018D01*
X116222648Y-123867016D01*
X116029874Y-123829370D01*
X116029871Y-123829370D01*
X116025428Y-123828502D01*
X116019989Y-123828236D01*
X115867414Y-123828236D01*
X115713111Y-123842958D01*
X115707357Y-123844646D01*
X115520291Y-123899525D01*
X115520289Y-123899526D01*
X115514538Y-123901213D01*
X115509205Y-123903959D01*
X115509204Y-123903960D01*
X115335893Y-123993220D01*
X115335890Y-123993222D01*
X115330562Y-123995966D01*
X115167824Y-124123799D01*
X115032194Y-124280099D01*
X114928566Y-124459226D01*
X114860680Y-124654717D01*
X114859820Y-124660650D01*
X114859819Y-124660653D01*
X114841560Y-124786588D01*
X114830986Y-124859517D01*
X109680767Y-124859517D01*
X109680767Y-124451233D01*
X110188767Y-124451233D01*
X110193242Y-124466472D01*
X110194632Y-124467677D01*
X110202315Y-124469348D01*
X111253111Y-124469348D01*
X111266642Y-124465375D01*
X111267947Y-124456295D01*
X111225981Y-124289223D01*
X111222661Y-124279472D01*
X111137739Y-124084162D01*
X111132872Y-124075087D01*
X111017193Y-123896274D01*
X111010903Y-123888105D01*
X110867573Y-123730588D01*
X110860040Y-123723563D01*
X110692906Y-123591570D01*
X110684319Y-123585865D01*
X110497884Y-123482947D01*
X110488472Y-123478717D01*
X110287726Y-123407628D01*
X110277755Y-123404994D01*
X110206604Y-123392320D01*
X110193307Y-123393780D01*
X110188767Y-123408337D01*
X110188767Y-124451233D01*
X109680767Y-124451233D01*
X109680767Y-123406450D01*
X109676849Y-123393106D01*
X109662573Y-123391119D01*
X109624091Y-123397008D01*
X109614055Y-123399399D01*
X109411635Y-123465560D01*
X109402126Y-123469557D01*
X109213230Y-123567890D01*
X109204505Y-123573384D01*
X109034200Y-123701253D01*
X109026493Y-123708096D01*
X108949245Y-123788932D01*
X108887721Y-123824362D01*
X108816809Y-123820905D01*
X108759022Y-123779659D01*
X108740169Y-123746111D01*
X108698534Y-123635051D01*
X108695382Y-123626643D01*
X108608028Y-123510087D01*
X108491472Y-123422733D01*
X108355083Y-123371603D01*
X108292901Y-123364848D01*
X108156267Y-123364848D01*
X108088146Y-123344846D01*
X108041653Y-123291190D01*
X108030267Y-123238848D01*
X108030267Y-120805034D01*
X108050269Y-120736913D01*
X108105018Y-120689928D01*
X108139444Y-120674600D01*
X108139449Y-120674597D01*
X108145482Y-120671911D01*
X108299983Y-120559659D01*
X108427770Y-120417737D01*
X108523257Y-120252349D01*
X108575640Y-120091133D01*
X122319312Y-120091133D01*
X122337942Y-120327844D01*
X122339096Y-120332651D01*
X122339097Y-120332657D01*
X122374117Y-120478524D01*
X122393372Y-120558727D01*
X122395265Y-120563298D01*
X122395266Y-120563300D01*
X122467179Y-120736913D01*
X122484237Y-120778096D01*
X122486823Y-120782316D01*
X122605718Y-120976335D01*
X122605722Y-120976341D01*
X122608301Y-120980549D01*
X122762508Y-121161102D01*
X122943061Y-121315309D01*
X122947269Y-121317888D01*
X122947275Y-121317892D01*
X123141294Y-121436787D01*
X123145514Y-121439373D01*
X123150084Y-121441266D01*
X123150088Y-121441268D01*
X123360310Y-121528344D01*
X123364883Y-121530238D01*
X123445086Y-121549493D01*
X123590953Y-121584513D01*
X123590959Y-121584514D01*
X123595766Y-121585668D01*
X123832477Y-121604298D01*
X124069188Y-121585668D01*
X124073995Y-121584514D01*
X124074001Y-121584513D01*
X124219868Y-121549493D01*
X124300071Y-121530238D01*
X124304644Y-121528344D01*
X124514866Y-121441268D01*
X124514870Y-121441266D01*
X124519440Y-121439373D01*
X124523660Y-121436787D01*
X124717679Y-121317892D01*
X124717685Y-121317888D01*
X124721893Y-121315309D01*
X124902446Y-121161102D01*
X125056653Y-120980549D01*
X125059232Y-120976341D01*
X125059236Y-120976335D01*
X125178131Y-120782316D01*
X125180717Y-120778096D01*
X125197776Y-120736913D01*
X125269688Y-120563300D01*
X125269689Y-120563298D01*
X125271582Y-120558727D01*
X125290837Y-120478524D01*
X125325857Y-120332657D01*
X125325858Y-120332651D01*
X125327012Y-120327844D01*
X125345642Y-120091133D01*
X125327012Y-119854422D01*
X125321806Y-119832735D01*
X125289321Y-119697428D01*
X125271582Y-119623539D01*
X125224237Y-119509237D01*
X125182612Y-119408744D01*
X125182610Y-119408740D01*
X125180717Y-119404170D01*
X125143752Y-119343849D01*
X125059236Y-119205931D01*
X125059232Y-119205925D01*
X125056653Y-119201717D01*
X124902446Y-119021164D01*
X124721893Y-118866957D01*
X124717685Y-118864378D01*
X124717679Y-118864374D01*
X124523660Y-118745479D01*
X124519440Y-118742893D01*
X124514870Y-118741000D01*
X124514866Y-118740998D01*
X124304644Y-118653922D01*
X124304642Y-118653921D01*
X124300071Y-118652028D01*
X124219868Y-118632773D01*
X124074001Y-118597753D01*
X124073995Y-118597752D01*
X124069188Y-118596598D01*
X123832477Y-118577968D01*
X123595766Y-118596598D01*
X123590959Y-118597752D01*
X123590953Y-118597753D01*
X123445086Y-118632773D01*
X123364883Y-118652028D01*
X123360312Y-118653921D01*
X123360310Y-118653922D01*
X123150088Y-118740998D01*
X123150084Y-118741000D01*
X123145514Y-118742893D01*
X123141294Y-118745479D01*
X122947275Y-118864374D01*
X122947269Y-118864378D01*
X122943061Y-118866957D01*
X122762508Y-119021164D01*
X122608301Y-119201717D01*
X122605722Y-119205925D01*
X122605718Y-119205931D01*
X122521202Y-119343849D01*
X122484237Y-119404170D01*
X122482344Y-119408740D01*
X122482342Y-119408744D01*
X122440717Y-119509237D01*
X122393372Y-119623539D01*
X122375633Y-119697428D01*
X122343149Y-119832735D01*
X122337942Y-119854422D01*
X122319312Y-120091133D01*
X108575640Y-120091133D01*
X108582272Y-120070721D01*
X108599305Y-119908660D01*
X108626318Y-119843003D01*
X108635520Y-119832735D01*
X110955851Y-117512405D01*
X111018163Y-117478379D01*
X111044946Y-117475500D01*
X131373601Y-117475500D01*
X131441722Y-117495502D01*
X131458908Y-117510109D01*
X131459420Y-117509540D01*
X131464332Y-117513963D01*
X131468747Y-117518866D01*
X131623248Y-117631118D01*
X131629276Y-117633802D01*
X131629278Y-117633803D01*
X131791681Y-117706109D01*
X131797712Y-117708794D01*
X131891113Y-117728647D01*
X131978056Y-117747128D01*
X131978061Y-117747128D01*
X131984513Y-117748500D01*
X132175487Y-117748500D01*
X132181939Y-117747128D01*
X132181944Y-117747128D01*
X132268887Y-117728647D01*
X132362288Y-117708794D01*
X132368319Y-117706109D01*
X132530722Y-117633803D01*
X132530724Y-117633802D01*
X132536752Y-117631118D01*
X132691253Y-117518866D01*
X132819040Y-117376944D01*
X132914527Y-117211556D01*
X132973542Y-117029928D01*
X132991211Y-116861818D01*
X133018224Y-116796162D01*
X133076446Y-116755532D01*
X133116521Y-116748989D01*
X175929486Y-116748989D01*
X175997607Y-116768991D01*
X176018581Y-116785894D01*
X183503931Y-124271244D01*
X183537957Y-124333556D01*
X183536253Y-124394010D01*
X183515756Y-124467918D01*
X183515208Y-124473048D01*
X183515207Y-124473052D01*
X183511700Y-124505870D01*
X183492018Y-124690043D01*
X183492315Y-124695196D01*
X183492315Y-124695199D01*
X183497778Y-124789938D01*
X183504877Y-124913063D01*
X183506014Y-124918109D01*
X183506015Y-124918115D01*
X183525508Y-125004609D01*
X183553989Y-125130987D01*
X183594113Y-125229801D01*
X183621075Y-125296200D01*
X183638033Y-125337964D01*
X183688630Y-125420531D01*
X183752058Y-125524036D01*
X183754754Y-125528436D01*
X183901017Y-125697286D01*
X184038763Y-125811645D01*
X184063585Y-125832252D01*
X184072893Y-125839980D01*
X184265767Y-125952686D01*
X184270592Y-125954528D01*
X184270593Y-125954529D01*
X184280877Y-125958456D01*
X184474459Y-126032378D01*
X184479527Y-126033409D01*
X184479530Y-126033410D01*
X184574629Y-126052758D01*
X184693364Y-126076915D01*
X184698539Y-126077105D01*
X184698541Y-126077105D01*
X184911440Y-126084912D01*
X184911444Y-126084912D01*
X184916604Y-126085101D01*
X184921724Y-126084445D01*
X184921726Y-126084445D01*
X185133055Y-126057373D01*
X185133056Y-126057373D01*
X185138183Y-126056716D01*
X185143133Y-126055231D01*
X185347196Y-125994009D01*
X185347201Y-125994007D01*
X185352151Y-125992522D01*
X185552761Y-125894244D01*
X185734627Y-125764521D01*
X185770578Y-125728696D01*
X185879947Y-125619708D01*
X185892863Y-125606837D01*
X185952361Y-125524037D01*
X186023220Y-125425425D01*
X186024543Y-125426376D01*
X186071412Y-125383205D01*
X186141347Y-125370973D01*
X186206793Y-125398492D01*
X186234642Y-125430342D01*
X186294754Y-125528436D01*
X186441017Y-125697286D01*
X186578763Y-125811645D01*
X186603585Y-125832252D01*
X186612893Y-125839980D01*
X186805767Y-125952686D01*
X186810592Y-125954528D01*
X186810593Y-125954529D01*
X186820877Y-125958456D01*
X187014459Y-126032378D01*
X187019527Y-126033409D01*
X187019530Y-126033410D01*
X187114629Y-126052758D01*
X187233364Y-126076915D01*
X187238539Y-126077105D01*
X187238541Y-126077105D01*
X187451440Y-126084912D01*
X187451444Y-126084912D01*
X187456604Y-126085101D01*
X187461724Y-126084445D01*
X187461726Y-126084445D01*
X187673055Y-126057373D01*
X187673056Y-126057373D01*
X187678183Y-126056716D01*
X187683133Y-126055231D01*
X187887196Y-125994009D01*
X187887201Y-125994007D01*
X187892151Y-125992522D01*
X188092761Y-125894244D01*
X188274627Y-125764521D01*
X188310578Y-125728696D01*
X188419947Y-125619708D01*
X188432863Y-125606837D01*
X188492361Y-125524037D01*
X188560202Y-125429625D01*
X188563220Y-125425425D01*
X188584087Y-125383205D01*
X188659903Y-125229801D01*
X188659904Y-125229799D01*
X188662197Y-125225159D01*
X188694667Y-125118288D01*
X188725632Y-125016371D01*
X188725632Y-125016369D01*
X188727137Y-125011417D01*
X188756296Y-124789938D01*
X188757923Y-124723348D01*
X188739619Y-124500709D01*
X188685198Y-124284050D01*
X188596121Y-124079188D01*
X188556673Y-124018210D01*
X188477589Y-123895965D01*
X188477587Y-123895962D01*
X188474781Y-123891625D01*
X188324437Y-123726399D01*
X188320386Y-123723200D01*
X188320382Y-123723196D01*
X188153181Y-123591148D01*
X188153177Y-123591146D01*
X188149126Y-123587946D01*
X188112795Y-123567890D01*
X188096903Y-123559117D01*
X187953556Y-123479986D01*
X187948687Y-123478262D01*
X187948683Y-123478260D01*
X187747854Y-123407143D01*
X187747850Y-123407142D01*
X187742979Y-123405417D01*
X187737886Y-123404510D01*
X187737883Y-123404509D01*
X187528140Y-123367148D01*
X187528134Y-123367147D01*
X187523051Y-123366242D01*
X187449219Y-123365340D01*
X187304848Y-123363576D01*
X187304846Y-123363576D01*
X187299678Y-123363513D01*
X187078858Y-123397303D01*
X186866523Y-123466705D01*
X186668374Y-123569855D01*
X186664241Y-123572958D01*
X186664238Y-123572960D01*
X186493867Y-123700878D01*
X186489732Y-123703983D01*
X186335396Y-123865486D01*
X186227968Y-124022969D01*
X186173060Y-124067969D01*
X186102535Y-124076140D01*
X186038788Y-124044886D01*
X186018091Y-124020402D01*
X185937589Y-123895965D01*
X185937587Y-123895962D01*
X185934781Y-123891625D01*
X185784437Y-123726399D01*
X185780386Y-123723200D01*
X185780382Y-123723196D01*
X185613181Y-123591148D01*
X185613177Y-123591146D01*
X185609126Y-123587946D01*
X185572795Y-123567890D01*
X185556903Y-123559117D01*
X185413556Y-123479986D01*
X185408687Y-123478262D01*
X185408683Y-123478260D01*
X185207854Y-123407143D01*
X185207850Y-123407142D01*
X185202979Y-123405417D01*
X185197886Y-123404510D01*
X185197883Y-123404509D01*
X184988140Y-123367148D01*
X184988134Y-123367147D01*
X184983051Y-123366242D01*
X184909219Y-123365340D01*
X184764848Y-123363576D01*
X184764846Y-123363576D01*
X184759678Y-123363513D01*
X184612394Y-123386051D01*
X184543967Y-123396521D01*
X184543964Y-123396522D01*
X184538858Y-123397303D01*
X184533951Y-123398907D01*
X184533938Y-123398910D01*
X184528428Y-123400711D01*
X184457464Y-123402860D01*
X184400192Y-123370040D01*
X176750158Y-115720006D01*
X176742582Y-115711680D01*
X176738461Y-115705186D01*
X176688642Y-115658403D01*
X176685801Y-115655649D01*
X176666002Y-115635850D01*
X176662877Y-115633426D01*
X176662868Y-115633418D01*
X176662782Y-115633352D01*
X176653757Y-115625644D01*
X176627193Y-115600699D01*
X176621414Y-115595272D01*
X176603577Y-115585466D01*
X176587061Y-115574616D01*
X176570975Y-115562139D01*
X176530242Y-115544513D01*
X176519594Y-115539296D01*
X176507966Y-115532904D01*
X176480711Y-115517920D01*
X176473036Y-115515949D01*
X176473030Y-115515947D01*
X176460997Y-115512858D01*
X176442295Y-115506455D01*
X176423616Y-115498372D01*
X176389780Y-115493013D01*
X176379781Y-115491429D01*
X176368168Y-115489024D01*
X176325190Y-115477989D01*
X176304843Y-115477989D01*
X176285132Y-115476438D01*
X176272858Y-115474494D01*
X176265029Y-115473254D01*
X176257137Y-115474000D01*
X176220852Y-115477430D01*
X176208994Y-115477989D01*
X119840373Y-115477989D01*
X119772252Y-115457987D01*
X119725759Y-115404331D01*
X119714373Y-115351989D01*
X119714373Y-108623803D01*
X122964637Y-108623803D01*
X122970364Y-108631453D01*
X123141519Y-108736338D01*
X123150314Y-108740820D01*
X123360465Y-108827867D01*
X123369850Y-108830916D01*
X123591031Y-108884018D01*
X123600778Y-108885561D01*
X123827547Y-108903408D01*
X123837407Y-108903408D01*
X124064176Y-108885561D01*
X124073923Y-108884018D01*
X124295104Y-108830916D01*
X124304489Y-108827867D01*
X124514640Y-108740820D01*
X124523435Y-108736338D01*
X124690922Y-108633701D01*
X124700384Y-108623243D01*
X124696601Y-108614467D01*
X123845289Y-107763155D01*
X123831345Y-107755541D01*
X123829512Y-107755672D01*
X123822897Y-107759923D01*
X122971397Y-108611423D01*
X122964637Y-108623803D01*
X119714373Y-108623803D01*
X119714373Y-107396063D01*
X122320202Y-107396063D01*
X122338049Y-107622832D01*
X122339592Y-107632579D01*
X122392694Y-107853760D01*
X122395743Y-107863145D01*
X122482790Y-108073296D01*
X122487272Y-108082091D01*
X122589909Y-108249578D01*
X122600367Y-108259040D01*
X122609143Y-108255257D01*
X123460455Y-107403945D01*
X123466833Y-107392265D01*
X124196885Y-107392265D01*
X124197016Y-107394098D01*
X124201267Y-107400713D01*
X125052767Y-108252213D01*
X125065147Y-108258973D01*
X125072797Y-108253246D01*
X125177682Y-108082091D01*
X125182164Y-108073296D01*
X125269211Y-107863145D01*
X125272260Y-107853760D01*
X125325362Y-107632579D01*
X125326905Y-107622832D01*
X125344752Y-107396063D01*
X125344752Y-107386203D01*
X125326905Y-107159434D01*
X125325362Y-107149687D01*
X125272260Y-106928506D01*
X125269211Y-106919121D01*
X125182164Y-106708970D01*
X125177682Y-106700175D01*
X125075045Y-106532688D01*
X125064587Y-106523226D01*
X125055811Y-106527009D01*
X124204499Y-107378321D01*
X124196885Y-107392265D01*
X123466833Y-107392265D01*
X123468069Y-107390001D01*
X123467938Y-107388168D01*
X123463687Y-107381553D01*
X122612187Y-106530053D01*
X122599807Y-106523293D01*
X122592157Y-106529020D01*
X122487272Y-106700175D01*
X122482790Y-106708970D01*
X122395743Y-106919121D01*
X122392694Y-106928506D01*
X122339592Y-107149687D01*
X122338049Y-107159434D01*
X122320202Y-107386203D01*
X122320202Y-107396063D01*
X119714373Y-107396063D01*
X119714373Y-106493138D01*
X119714903Y-106481904D01*
X119716581Y-106474399D01*
X119714435Y-106406106D01*
X119714373Y-106402149D01*
X119714373Y-106374135D01*
X119713865Y-106370114D01*
X119712931Y-106358262D01*
X119711787Y-106321836D01*
X119711787Y-106321835D01*
X119711538Y-106313913D01*
X119705860Y-106294369D01*
X119701850Y-106275006D01*
X119700293Y-106262678D01*
X119700293Y-106262676D01*
X119699300Y-106254819D01*
X119696384Y-106247455D01*
X119696383Y-106247450D01*
X119682966Y-106213562D01*
X119679121Y-106202333D01*
X119669972Y-106170843D01*
X119666742Y-106159725D01*
X119666327Y-106159023D01*
X122964570Y-106159023D01*
X122968353Y-106167799D01*
X123819665Y-107019111D01*
X123833609Y-107026725D01*
X123835442Y-107026594D01*
X123842057Y-107022343D01*
X124693557Y-106170843D01*
X124700317Y-106158463D01*
X124694590Y-106150813D01*
X124523435Y-106045928D01*
X124514640Y-106041446D01*
X124304489Y-105954399D01*
X124295104Y-105951350D01*
X124073923Y-105898248D01*
X124064176Y-105896705D01*
X123837407Y-105878858D01*
X123827547Y-105878858D01*
X123600778Y-105896705D01*
X123591031Y-105898248D01*
X123369850Y-105951350D01*
X123360465Y-105954399D01*
X123150314Y-106041446D01*
X123141519Y-106045928D01*
X122974032Y-106148565D01*
X122964570Y-106159023D01*
X119666327Y-106159023D01*
X119661352Y-106150612D01*
X119656383Y-106142209D01*
X119647686Y-106124459D01*
X119640192Y-106105530D01*
X119614113Y-106069635D01*
X119607595Y-106059713D01*
X119589043Y-106028342D01*
X119589039Y-106028337D01*
X119585007Y-106021519D01*
X119570620Y-106007132D01*
X119557779Y-105992098D01*
X119550475Y-105982045D01*
X119545815Y-105975631D01*
X119511623Y-105947345D01*
X119502844Y-105939356D01*
X119262112Y-105698624D01*
X119228086Y-105636312D01*
X119229501Y-105576917D01*
X119244480Y-105521016D01*
X119244482Y-105521005D01*
X119245905Y-105515694D01*
X119265860Y-105287607D01*
X119245905Y-105059520D01*
X119242585Y-105047128D01*
X119188069Y-104843674D01*
X119188068Y-104843672D01*
X119186646Y-104838364D01*
X119113664Y-104681852D01*
X119092211Y-104635845D01*
X119092208Y-104635840D01*
X119089885Y-104630858D01*
X118958560Y-104443307D01*
X118796662Y-104281409D01*
X118792154Y-104278252D01*
X118792151Y-104278250D01*
X118713973Y-104223509D01*
X118609111Y-104150084D01*
X118604129Y-104147761D01*
X118604124Y-104147758D01*
X118406587Y-104055646D01*
X118406586Y-104055646D01*
X118401605Y-104053323D01*
X118396297Y-104051901D01*
X118396295Y-104051900D01*
X118185764Y-103995488D01*
X118185762Y-103995488D01*
X118180449Y-103994064D01*
X117952362Y-103974109D01*
X117724275Y-103994064D01*
X117619961Y-104022015D01*
X117548986Y-104020325D01*
X117490190Y-103980531D01*
X117462242Y-103915267D01*
X117461351Y-103900308D01*
X117461351Y-99458296D01*
X117481353Y-99390175D01*
X117498252Y-99369205D01*
X118472233Y-98395225D01*
X118534543Y-98361201D01*
X118561326Y-98358322D01*
X118614390Y-98358322D01*
X118620842Y-98356950D01*
X118620847Y-98356950D01*
X118707791Y-98338469D01*
X118801191Y-98318616D01*
X118807222Y-98315931D01*
X118969625Y-98243625D01*
X118969627Y-98243624D01*
X118975655Y-98240940D01*
X119130156Y-98128688D01*
X119257943Y-97986766D01*
X119319561Y-97880040D01*
X119350126Y-97827101D01*
X119350127Y-97827100D01*
X119353430Y-97821378D01*
X119412445Y-97639750D01*
X119432407Y-97449822D01*
X119412445Y-97259894D01*
X119353430Y-97078266D01*
X119343954Y-97061852D01*
X119261244Y-96918596D01*
X119257943Y-96912878D01*
X119183979Y-96830732D01*
X119134578Y-96775867D01*
X119134577Y-96775866D01*
X119130156Y-96770956D01*
X118975655Y-96658704D01*
X118969627Y-96656020D01*
X118969625Y-96656019D01*
X118807222Y-96583713D01*
X118807221Y-96583713D01*
X118801191Y-96581028D01*
X118691861Y-96557789D01*
X118620847Y-96542694D01*
X118620842Y-96542694D01*
X118614390Y-96541322D01*
X118423416Y-96541322D01*
X118416964Y-96542694D01*
X118416959Y-96542694D01*
X118345945Y-96557789D01*
X118236615Y-96581028D01*
X118230585Y-96583713D01*
X118230584Y-96583713D01*
X118068181Y-96656019D01*
X118068179Y-96656020D01*
X118062151Y-96658704D01*
X117907650Y-96770956D01*
X117903229Y-96775866D01*
X117903228Y-96775867D01*
X117853828Y-96830732D01*
X117779863Y-96912878D01*
X117776562Y-96918596D01*
X117693853Y-97061852D01*
X117684376Y-97078266D01*
X117625361Y-97259894D01*
X117624671Y-97266455D01*
X117624671Y-97266457D01*
X117608328Y-97421955D01*
X117581315Y-97487612D01*
X117572113Y-97497880D01*
X116432368Y-98637624D01*
X116424042Y-98645200D01*
X116417548Y-98649321D01*
X116412125Y-98655096D01*
X116370766Y-98699139D01*
X116368011Y-98701981D01*
X116348212Y-98721780D01*
X116345788Y-98724905D01*
X116345780Y-98724914D01*
X116345714Y-98725000D01*
X116338006Y-98734025D01*
X116307634Y-98766368D01*
X116303816Y-98773312D01*
X116303815Y-98773314D01*
X116297829Y-98784203D01*
X116286978Y-98800721D01*
X116274501Y-98816807D01*
X116256875Y-98857540D01*
X116251658Y-98868188D01*
X116230282Y-98907071D01*
X116228311Y-98914746D01*
X116228309Y-98914752D01*
X116225220Y-98926785D01*
X116218817Y-98945487D01*
X116210734Y-98964166D01*
X116209495Y-98971991D01*
X116203791Y-99008001D01*
X116201386Y-99019614D01*
X116190351Y-99062592D01*
X116190351Y-99082939D01*
X116188800Y-99102650D01*
X116185616Y-99122753D01*
X116186362Y-99130645D01*
X116189792Y-99166930D01*
X116190351Y-99178788D01*
X116190351Y-103853107D01*
X116170349Y-103921228D01*
X116116693Y-103967721D01*
X116064351Y-103979107D01*
X114564228Y-103979107D01*
X114502046Y-103985862D01*
X114365657Y-104036992D01*
X114249101Y-104124346D01*
X114161747Y-104240902D01*
X114110617Y-104377291D01*
X114103862Y-104439473D01*
X114103862Y-106135741D01*
X114110617Y-106197923D01*
X114161747Y-106334312D01*
X114249101Y-106450868D01*
X114365657Y-106538222D01*
X114502046Y-106589352D01*
X114512836Y-106590524D01*
X114514968Y-106591410D01*
X114517584Y-106592032D01*
X114517483Y-106592455D01*
X114578397Y-106617762D01*
X114618825Y-106676124D01*
X114621284Y-106747078D01*
X114584991Y-106808097D01*
X114576331Y-106815096D01*
X114572569Y-106818253D01*
X114568062Y-106821409D01*
X114406164Y-106983307D01*
X114403007Y-106987815D01*
X114403005Y-106987818D01*
X114297582Y-107138378D01*
X114242125Y-107182706D01*
X114194369Y-107192107D01*
X113223029Y-107192107D01*
X113154908Y-107172105D01*
X113133934Y-107155202D01*
X111677356Y-105698624D01*
X110207826Y-104229093D01*
X110173801Y-104166783D01*
X110178866Y-104095968D01*
X110207827Y-104050905D01*
X114889533Y-99369200D01*
X119606328Y-94652405D01*
X119668640Y-94618379D01*
X119695423Y-94615500D01*
X141233531Y-94615500D01*
X141301652Y-94635502D01*
X141348145Y-94689158D01*
X141358249Y-94759432D01*
X141328755Y-94824012D01*
X141322626Y-94830595D01*
X140305626Y-95847595D01*
X140243314Y-95881621D01*
X140216531Y-95884500D01*
X125166399Y-95884500D01*
X125098278Y-95864498D01*
X125081092Y-95849891D01*
X125080580Y-95850460D01*
X125075668Y-95846037D01*
X125071253Y-95841134D01*
X125013594Y-95799242D01*
X124922094Y-95732763D01*
X124922093Y-95732762D01*
X124916752Y-95728882D01*
X124910724Y-95726198D01*
X124910722Y-95726197D01*
X124748319Y-95653891D01*
X124748318Y-95653891D01*
X124742288Y-95651206D01*
X124648888Y-95631353D01*
X124561944Y-95612872D01*
X124561939Y-95612872D01*
X124555487Y-95611500D01*
X124364513Y-95611500D01*
X124358061Y-95612872D01*
X124358056Y-95612872D01*
X124271112Y-95631353D01*
X124177712Y-95651206D01*
X124171682Y-95653891D01*
X124171681Y-95653891D01*
X124009278Y-95726197D01*
X124009276Y-95726198D01*
X124003248Y-95728882D01*
X123848747Y-95841134D01*
X123720960Y-95983056D01*
X123625473Y-96148444D01*
X123566458Y-96330072D01*
X123565769Y-96336631D01*
X123565768Y-96336634D01*
X123548789Y-96498182D01*
X123521776Y-96563838D01*
X123463554Y-96604468D01*
X123423479Y-96611011D01*
X122961934Y-96611011D01*
X122893813Y-96591009D01*
X122872839Y-96574106D01*
X122866790Y-96568057D01*
X122832764Y-96505745D01*
X122830575Y-96492132D01*
X122814232Y-96336635D01*
X122814232Y-96336633D01*
X122813542Y-96330072D01*
X122754527Y-96148444D01*
X122659040Y-95983056D01*
X122531253Y-95841134D01*
X122376752Y-95728882D01*
X122370724Y-95726198D01*
X122370722Y-95726197D01*
X122208319Y-95653891D01*
X122208318Y-95653891D01*
X122202288Y-95651206D01*
X122108888Y-95631353D01*
X122021944Y-95612872D01*
X122021939Y-95612872D01*
X122015487Y-95611500D01*
X121824513Y-95611500D01*
X121818061Y-95612872D01*
X121818056Y-95612872D01*
X121731112Y-95631353D01*
X121637712Y-95651206D01*
X121631682Y-95653891D01*
X121631681Y-95653891D01*
X121469278Y-95726197D01*
X121469276Y-95726198D01*
X121463248Y-95728882D01*
X121308747Y-95841134D01*
X121180960Y-95983056D01*
X121085473Y-96148444D01*
X121026458Y-96330072D01*
X121025768Y-96336633D01*
X121025768Y-96336635D01*
X121018846Y-96402499D01*
X121006496Y-96520000D01*
X121007186Y-96526565D01*
X121016062Y-96611011D01*
X121026458Y-96709928D01*
X121085473Y-96891556D01*
X121088776Y-96897278D01*
X121088777Y-96897279D01*
X121122686Y-96956010D01*
X121180960Y-97056944D01*
X121308747Y-97198866D01*
X121463248Y-97311118D01*
X121469276Y-97313802D01*
X121469278Y-97313803D01*
X121631681Y-97386109D01*
X121637712Y-97388794D01*
X121731112Y-97408647D01*
X121818056Y-97427128D01*
X121818061Y-97427128D01*
X121824513Y-97428500D01*
X121877577Y-97428500D01*
X121945698Y-97448502D01*
X121966672Y-97465405D01*
X122141261Y-97639994D01*
X122148837Y-97648320D01*
X122152958Y-97654814D01*
X122158733Y-97660237D01*
X122202776Y-97701596D01*
X122205618Y-97704351D01*
X122225417Y-97724150D01*
X122228542Y-97726574D01*
X122228551Y-97726582D01*
X122228637Y-97726648D01*
X122237662Y-97734356D01*
X122270005Y-97764728D01*
X122276949Y-97768546D01*
X122276951Y-97768547D01*
X122287840Y-97774533D01*
X122304358Y-97785384D01*
X122320444Y-97797861D01*
X122361177Y-97815487D01*
X122371825Y-97820704D01*
X122383453Y-97827096D01*
X122410708Y-97842080D01*
X122418383Y-97844051D01*
X122418389Y-97844053D01*
X122430422Y-97847142D01*
X122449124Y-97853545D01*
X122467803Y-97861628D01*
X122501329Y-97866938D01*
X122511638Y-97868571D01*
X122523251Y-97870976D01*
X122566229Y-97882011D01*
X122586576Y-97882011D01*
X122606288Y-97883562D01*
X122626390Y-97886746D01*
X122634282Y-97886000D01*
X122670567Y-97882570D01*
X122682425Y-97882011D01*
X176994469Y-97882011D01*
X177005703Y-97882541D01*
X177013208Y-97884219D01*
X177081501Y-97882073D01*
X177085458Y-97882011D01*
X177113472Y-97882011D01*
X177117397Y-97881515D01*
X177117398Y-97881515D01*
X177117493Y-97881503D01*
X177129338Y-97880570D01*
X177159159Y-97879633D01*
X177165771Y-97879425D01*
X177165772Y-97879425D01*
X177173694Y-97879176D01*
X177193238Y-97873498D01*
X177212601Y-97869488D01*
X177224929Y-97867931D01*
X177224931Y-97867931D01*
X177232788Y-97866938D01*
X177240152Y-97864022D01*
X177240157Y-97864021D01*
X177274045Y-97850604D01*
X177285274Y-97846759D01*
X177301954Y-97841913D01*
X177327882Y-97834380D01*
X177334709Y-97830342D01*
X177334712Y-97830341D01*
X177345395Y-97824023D01*
X177363153Y-97815323D01*
X177374704Y-97810750D01*
X177374710Y-97810746D01*
X177382077Y-97807830D01*
X177391466Y-97801009D01*
X177417977Y-97781747D01*
X177427899Y-97775230D01*
X177459257Y-97756685D01*
X177459261Y-97756682D01*
X177466087Y-97752645D01*
X177480471Y-97738261D01*
X177495505Y-97725420D01*
X177505562Y-97718113D01*
X177511976Y-97713453D01*
X177540267Y-97679255D01*
X177548256Y-97670476D01*
X177753327Y-97465405D01*
X177815639Y-97431379D01*
X177842422Y-97428500D01*
X177895487Y-97428500D01*
X177901939Y-97427128D01*
X177901944Y-97427128D01*
X177988888Y-97408647D01*
X178082288Y-97388794D01*
X178088319Y-97386109D01*
X178250722Y-97313803D01*
X178250724Y-97313802D01*
X178256752Y-97311118D01*
X178411253Y-97198866D01*
X178539040Y-97056944D01*
X178597314Y-96956010D01*
X178631223Y-96897279D01*
X178631224Y-96897278D01*
X178634527Y-96891556D01*
X178693542Y-96709928D01*
X178703939Y-96611011D01*
X178712814Y-96526565D01*
X178713504Y-96520000D01*
X178701154Y-96402499D01*
X178694232Y-96336635D01*
X178694232Y-96336633D01*
X178693542Y-96330072D01*
X178634527Y-96148444D01*
X178539040Y-95983056D01*
X178411253Y-95841134D01*
X178256752Y-95728882D01*
X178250724Y-95726198D01*
X178250722Y-95726197D01*
X178088319Y-95653891D01*
X178088318Y-95653891D01*
X178082288Y-95651206D01*
X177988888Y-95631353D01*
X177901944Y-95612872D01*
X177901939Y-95612872D01*
X177895487Y-95611500D01*
X177704513Y-95611500D01*
X177698061Y-95612872D01*
X177698056Y-95612872D01*
X177611112Y-95631353D01*
X177517712Y-95651206D01*
X177511682Y-95653891D01*
X177511681Y-95653891D01*
X177349278Y-95726197D01*
X177349276Y-95726198D01*
X177343248Y-95728882D01*
X177188747Y-95841134D01*
X177060960Y-95983056D01*
X176965473Y-96148444D01*
X176906458Y-96330072D01*
X176905768Y-96336633D01*
X176905768Y-96336635D01*
X176889425Y-96492132D01*
X176862412Y-96557789D01*
X176853210Y-96568057D01*
X176847161Y-96574106D01*
X176784849Y-96608132D01*
X176758066Y-96611011D01*
X141643865Y-96611011D01*
X141575744Y-96591009D01*
X141529251Y-96537353D01*
X141519147Y-96467079D01*
X141548641Y-96402499D01*
X141554770Y-96395916D01*
X150253477Y-87697209D01*
X150261803Y-87689632D01*
X150268303Y-87685507D01*
X150285323Y-87667383D01*
X150315100Y-87635673D01*
X150317855Y-87632831D01*
X150337638Y-87613048D01*
X150340129Y-87609837D01*
X150347838Y-87600810D01*
X150372789Y-87574240D01*
X150378217Y-87568460D01*
X150388022Y-87550625D01*
X150398876Y-87534101D01*
X150406491Y-87524284D01*
X150406492Y-87524283D01*
X150411349Y-87518021D01*
X150428969Y-87477304D01*
X150434192Y-87466643D01*
X150451749Y-87434707D01*
X150451751Y-87434702D01*
X150455569Y-87427757D01*
X150457539Y-87420083D01*
X150457542Y-87420076D01*
X150460632Y-87408041D01*
X150467036Y-87389336D01*
X150471967Y-87377941D01*
X150475117Y-87370662D01*
X150482060Y-87326827D01*
X150484467Y-87315205D01*
X150495500Y-87272236D01*
X150495500Y-87251889D01*
X150497051Y-87232178D01*
X150498995Y-87219904D01*
X150500235Y-87212075D01*
X150496059Y-87167898D01*
X150495500Y-87156040D01*
X150495500Y-84520303D01*
X150515502Y-84452182D01*
X150527864Y-84435993D01*
X150594621Y-84361852D01*
X150594622Y-84361851D01*
X150599040Y-84356944D01*
X150659429Y-84252348D01*
X150691223Y-84197279D01*
X150691224Y-84197278D01*
X150694527Y-84191556D01*
X150753542Y-84009928D01*
X150773504Y-83820000D01*
X150772814Y-83813435D01*
X150754232Y-83636635D01*
X150754232Y-83636633D01*
X150753542Y-83630072D01*
X150694527Y-83448444D01*
X150599040Y-83283056D01*
X150471253Y-83141134D01*
X150316752Y-83028882D01*
X150310724Y-83026198D01*
X150310722Y-83026197D01*
X150148319Y-82953891D01*
X150148318Y-82953891D01*
X150142288Y-82951206D01*
X150048888Y-82931353D01*
X149961944Y-82912872D01*
X149961939Y-82912872D01*
X149955487Y-82911500D01*
X149764513Y-82911500D01*
X149758061Y-82912872D01*
X149758056Y-82912872D01*
X149671112Y-82931353D01*
X149577712Y-82951206D01*
X149571682Y-82953891D01*
X149571681Y-82953891D01*
X149409278Y-83026197D01*
X149409276Y-83026198D01*
X149403248Y-83028882D01*
X149248747Y-83141134D01*
X149120960Y-83283056D01*
X149025473Y-83448444D01*
X148966458Y-83630072D01*
X148965768Y-83636633D01*
X148965768Y-83636635D01*
X148947186Y-83813435D01*
X148946496Y-83820000D01*
X148966458Y-84009928D01*
X149025473Y-84191556D01*
X149028776Y-84197278D01*
X149028777Y-84197279D01*
X149060571Y-84252348D01*
X149120960Y-84356944D01*
X149125378Y-84361851D01*
X149125379Y-84361852D01*
X149192136Y-84435993D01*
X149222854Y-84500000D01*
X149224500Y-84520303D01*
X149224500Y-85302034D01*
X149204498Y-85370155D01*
X149150842Y-85416648D01*
X149080568Y-85426752D01*
X149056441Y-85420807D01*
X149017858Y-85407144D01*
X149017850Y-85407142D01*
X149012979Y-85405417D01*
X149007886Y-85404510D01*
X149007883Y-85404509D01*
X148798140Y-85367148D01*
X148798134Y-85367147D01*
X148793051Y-85366242D01*
X148719219Y-85365340D01*
X148574848Y-85363576D01*
X148574846Y-85363576D01*
X148569678Y-85363513D01*
X148348858Y-85397303D01*
X148136523Y-85466705D01*
X147938374Y-85569855D01*
X147934241Y-85572958D01*
X147934238Y-85572960D01*
X147910014Y-85591148D01*
X147759732Y-85703983D01*
X147605396Y-85865486D01*
X147497968Y-86022969D01*
X147443060Y-86067969D01*
X147372535Y-86076140D01*
X147308788Y-86044886D01*
X147288091Y-86020402D01*
X147207589Y-85895965D01*
X147207587Y-85895962D01*
X147204781Y-85891625D01*
X147054437Y-85726399D01*
X147050386Y-85723200D01*
X147050382Y-85723196D01*
X146883181Y-85591148D01*
X146883177Y-85591146D01*
X146879126Y-85587946D01*
X146683556Y-85479986D01*
X146678687Y-85478262D01*
X146678683Y-85478260D01*
X146477854Y-85407143D01*
X146477850Y-85407142D01*
X146472979Y-85405417D01*
X146467886Y-85404510D01*
X146467883Y-85404509D01*
X146258140Y-85367148D01*
X146258134Y-85367147D01*
X146253051Y-85366242D01*
X146179219Y-85365340D01*
X146034848Y-85363576D01*
X146034846Y-85363576D01*
X146029678Y-85363513D01*
X145808858Y-85397303D01*
X145596523Y-85466705D01*
X145398374Y-85569855D01*
X145394241Y-85572958D01*
X145394238Y-85572960D01*
X145370014Y-85591148D01*
X145219732Y-85703983D01*
X145065396Y-85865486D01*
X144939510Y-86050028D01*
X144845455Y-86252653D01*
X144785756Y-86467918D01*
X144762018Y-86690043D01*
X144762315Y-86695196D01*
X144762315Y-86695199D01*
X144769633Y-86822109D01*
X144774877Y-86913063D01*
X144776014Y-86918109D01*
X144776015Y-86918115D01*
X144800071Y-87024856D01*
X144823989Y-87130987D01*
X144834162Y-87156040D01*
X144898792Y-87315205D01*
X144908033Y-87337964D01*
X144950976Y-87408041D01*
X145022058Y-87524036D01*
X145024754Y-87528436D01*
X145171017Y-87697286D01*
X145342893Y-87839980D01*
X145426839Y-87889034D01*
X145475561Y-87940672D01*
X145489267Y-87997821D01*
X145489267Y-89779810D01*
X145469265Y-89847931D01*
X145452362Y-89868905D01*
X142013672Y-93307595D01*
X141951360Y-93341621D01*
X141924577Y-93344500D01*
X119459032Y-93344500D01*
X119447793Y-93343970D01*
X119440281Y-93342291D01*
X119432356Y-93342540D01*
X119432355Y-93342540D01*
X119371970Y-93344438D01*
X119368012Y-93344500D01*
X119340017Y-93344500D01*
X119336083Y-93344997D01*
X119336081Y-93344997D01*
X119335994Y-93345008D01*
X119324160Y-93345940D01*
X119279795Y-93347335D01*
X119272182Y-93349547D01*
X119272181Y-93349547D01*
X119260252Y-93353013D01*
X119240888Y-93357023D01*
X119228560Y-93358580D01*
X119228558Y-93358580D01*
X119220701Y-93359573D01*
X119213337Y-93362489D01*
X119213332Y-93362490D01*
X119179444Y-93375907D01*
X119168215Y-93379752D01*
X119151535Y-93384598D01*
X119125607Y-93392131D01*
X119118780Y-93396169D01*
X119118777Y-93396170D01*
X119108094Y-93402488D01*
X119090336Y-93411188D01*
X119078785Y-93415761D01*
X119078779Y-93415765D01*
X119071412Y-93418681D01*
X119065001Y-93423339D01*
X119064999Y-93423340D01*
X119035512Y-93444764D01*
X119025590Y-93451281D01*
X118994232Y-93469826D01*
X118994228Y-93469829D01*
X118987402Y-93473866D01*
X118973018Y-93488250D01*
X118957984Y-93501091D01*
X118941513Y-93513058D01*
X118936460Y-93519166D01*
X118913223Y-93547255D01*
X118905233Y-93556035D01*
X109266672Y-103194595D01*
X109204360Y-103228621D01*
X109177577Y-103231500D01*
X109124513Y-103231500D01*
X109118061Y-103232872D01*
X109118056Y-103232872D01*
X109031113Y-103251353D01*
X108937712Y-103271206D01*
X108931682Y-103273891D01*
X108931681Y-103273891D01*
X108769278Y-103346197D01*
X108769276Y-103346198D01*
X108763248Y-103348882D01*
X108608747Y-103461134D01*
X108604326Y-103466044D01*
X108604325Y-103466045D01*
X108492960Y-103589729D01*
X108480960Y-103603056D01*
X108385473Y-103768444D01*
X108326458Y-103950072D01*
X108325768Y-103956633D01*
X108325768Y-103956635D01*
X108315606Y-104053323D01*
X108306496Y-104140000D01*
X108307186Y-104146565D01*
X108321359Y-104281409D01*
X108326458Y-104329928D01*
X108385473Y-104511556D01*
X108480960Y-104676944D01*
X108608747Y-104818866D01*
X108763248Y-104931118D01*
X108769276Y-104933802D01*
X108769278Y-104933803D01*
X108931681Y-105006109D01*
X108937712Y-105008794D01*
X109031113Y-105028647D01*
X109118056Y-105047128D01*
X109118061Y-105047128D01*
X109124513Y-105048500D01*
X109177578Y-105048500D01*
X109245699Y-105068502D01*
X109266673Y-105085405D01*
X110847012Y-106665745D01*
X112402357Y-108221090D01*
X112409933Y-108229416D01*
X112414054Y-108235910D01*
X112419829Y-108241333D01*
X112463872Y-108282692D01*
X112466714Y-108285447D01*
X112486513Y-108305246D01*
X112489638Y-108307670D01*
X112489647Y-108307678D01*
X112489733Y-108307744D01*
X112498758Y-108315452D01*
X112531101Y-108345824D01*
X112538045Y-108349642D01*
X112538047Y-108349643D01*
X112548936Y-108355629D01*
X112565454Y-108366480D01*
X112581540Y-108378957D01*
X112622273Y-108396583D01*
X112632921Y-108401800D01*
X112671804Y-108423176D01*
X112679479Y-108425147D01*
X112679485Y-108425149D01*
X112691518Y-108428238D01*
X112710220Y-108434641D01*
X112728899Y-108442724D01*
X112762735Y-108448083D01*
X112772734Y-108449667D01*
X112784347Y-108452072D01*
X112827325Y-108463107D01*
X112847672Y-108463107D01*
X112867384Y-108464658D01*
X112887486Y-108467842D01*
X112895378Y-108467096D01*
X112931663Y-108463666D01*
X112943521Y-108463107D01*
X114194369Y-108463107D01*
X114262490Y-108483109D01*
X114297582Y-108516836D01*
X114377838Y-108631453D01*
X114406164Y-108671907D01*
X114568062Y-108833805D01*
X114572570Y-108836962D01*
X114572573Y-108836964D01*
X114639773Y-108884018D01*
X114755613Y-108965130D01*
X114760595Y-108967453D01*
X114760600Y-108967456D01*
X114795411Y-108983688D01*
X114848696Y-109030605D01*
X114868157Y-109098882D01*
X114847615Y-109166842D01*
X114795411Y-109212078D01*
X114760851Y-109228193D01*
X114751355Y-109233676D01*
X114572895Y-109358635D01*
X114564487Y-109365691D01*
X114410446Y-109519732D01*
X114403390Y-109528140D01*
X114278431Y-109706600D01*
X114272948Y-109716096D01*
X114180872Y-109913554D01*
X114177126Y-109923846D01*
X114130968Y-110096110D01*
X114131304Y-110110206D01*
X114139246Y-110113607D01*
X115540362Y-110113607D01*
X115608483Y-110133609D01*
X115654976Y-110187265D01*
X115666362Y-110239607D01*
X115666362Y-111635574D01*
X115670335Y-111649105D01*
X115678884Y-111650334D01*
X115856123Y-111602843D01*
X115866415Y-111599097D01*
X116063873Y-111507021D01*
X116073369Y-111501538D01*
X116251829Y-111376579D01*
X116260237Y-111369523D01*
X116414278Y-111215482D01*
X116421334Y-111207074D01*
X116546293Y-111028614D01*
X116551776Y-111019118D01*
X116567891Y-110984558D01*
X116614808Y-110931273D01*
X116683085Y-110911812D01*
X116751045Y-110932354D01*
X116796281Y-110984558D01*
X116812513Y-111019369D01*
X116812516Y-111019374D01*
X116814839Y-111024356D01*
X116946164Y-111211907D01*
X117108062Y-111373805D01*
X117112570Y-111376962D01*
X117112573Y-111376964D01*
X117190751Y-111431705D01*
X117295613Y-111505130D01*
X117300595Y-111507453D01*
X117300600Y-111507456D01*
X117437878Y-111571469D01*
X117503119Y-111601891D01*
X117508427Y-111603313D01*
X117508429Y-111603314D01*
X117718960Y-111659726D01*
X117718962Y-111659726D01*
X117724275Y-111661150D01*
X117952362Y-111681105D01*
X118180449Y-111661150D01*
X118284763Y-111633199D01*
X118355738Y-111634889D01*
X118414534Y-111674683D01*
X118442482Y-111739947D01*
X118443373Y-111754906D01*
X118443373Y-115351989D01*
X118423371Y-115420110D01*
X118369715Y-115466603D01*
X118317373Y-115477989D01*
X113888911Y-115477989D01*
X113820790Y-115457987D01*
X113799816Y-115441084D01*
X108992862Y-110634129D01*
X114129635Y-110634129D01*
X114177126Y-110811368D01*
X114180872Y-110821660D01*
X114272948Y-111019118D01*
X114278431Y-111028614D01*
X114403390Y-111207074D01*
X114410446Y-111215482D01*
X114564487Y-111369523D01*
X114572895Y-111376579D01*
X114751355Y-111501538D01*
X114760851Y-111507021D01*
X114958309Y-111599097D01*
X114968601Y-111602843D01*
X115140865Y-111649001D01*
X115154961Y-111648665D01*
X115158362Y-111640723D01*
X115158362Y-110639722D01*
X115153887Y-110624483D01*
X115152497Y-110623278D01*
X115144814Y-110621607D01*
X114144395Y-110621607D01*
X114130864Y-110625580D01*
X114129635Y-110634129D01*
X108992862Y-110634129D01*
X105086790Y-106728057D01*
X105052764Y-106665745D01*
X105050575Y-106652132D01*
X105034232Y-106496635D01*
X105034232Y-106496633D01*
X105033542Y-106490072D01*
X104974527Y-106308444D01*
X104966402Y-106294370D01*
X104919747Y-106213562D01*
X104879040Y-106143056D01*
X104845252Y-106105530D01*
X104755675Y-106006045D01*
X104755674Y-106006044D01*
X104751253Y-106001134D01*
X104609643Y-105898248D01*
X104602094Y-105892763D01*
X104602093Y-105892762D01*
X104596752Y-105888882D01*
X104590724Y-105886198D01*
X104590722Y-105886197D01*
X104428319Y-105813891D01*
X104428318Y-105813891D01*
X104422288Y-105811206D01*
X104328888Y-105791353D01*
X104241944Y-105772872D01*
X104241939Y-105772872D01*
X104235487Y-105771500D01*
X104044513Y-105771500D01*
X104038061Y-105772872D01*
X104038056Y-105772872D01*
X103951113Y-105791353D01*
X103857712Y-105811206D01*
X103851682Y-105813891D01*
X103851681Y-105813891D01*
X103689278Y-105886197D01*
X103689276Y-105886198D01*
X103683248Y-105888882D01*
X103677907Y-105892762D01*
X103677906Y-105892763D01*
X103670357Y-105898248D01*
X103528747Y-106001134D01*
X103524326Y-106006044D01*
X103524325Y-106006045D01*
X103434749Y-106105530D01*
X103400960Y-106143056D01*
X103360253Y-106213562D01*
X103313599Y-106294370D01*
X103305473Y-106308444D01*
X103246458Y-106490072D01*
X103245768Y-106496633D01*
X103245768Y-106496635D01*
X103239360Y-106557607D01*
X103226496Y-106680000D01*
X83381729Y-106680000D01*
X83418975Y-106325388D01*
X83419242Y-106323060D01*
X83419395Y-106321836D01*
X83582024Y-105013138D01*
X83582339Y-105010782D01*
X83582428Y-105010166D01*
X83654016Y-104511556D01*
X83769276Y-103708780D01*
X83769638Y-103706420D01*
X83980437Y-102412927D01*
X83980842Y-102410578D01*
X84215307Y-101125547D01*
X84215757Y-101123208D01*
X84254312Y-100932403D01*
X84473627Y-99847013D01*
X84474112Y-99844725D01*
X84755146Y-98577600D01*
X84755658Y-98575388D01*
X85059619Y-97317564D01*
X85060197Y-97315267D01*
X85386823Y-96067064D01*
X85387445Y-96064778D01*
X85736492Y-94826446D01*
X85737155Y-94824174D01*
X85771664Y-94710000D01*
X86108405Y-93595885D01*
X86109098Y-93593667D01*
X86121083Y-93556545D01*
X86491543Y-92409013D01*
X86502280Y-92375755D01*
X86503025Y-92373517D01*
X86917922Y-91166150D01*
X86918709Y-91163929D01*
X87355069Y-89967387D01*
X87355896Y-89965184D01*
X87813471Y-88779737D01*
X87814338Y-88777552D01*
X87894295Y-88581379D01*
X140993494Y-88581379D01*
X141003062Y-88788100D01*
X141004466Y-88793925D01*
X141004466Y-88793926D01*
X141029616Y-88898281D01*
X141051547Y-88989283D01*
X141054029Y-88994741D01*
X141054030Y-88994745D01*
X141093903Y-89082440D01*
X141137200Y-89177667D01*
X141256931Y-89346456D01*
X141261254Y-89350594D01*
X141261258Y-89350599D01*
X141341320Y-89427241D01*
X141406418Y-89489559D01*
X141411453Y-89492810D01*
X141575232Y-89598561D01*
X141575235Y-89598562D01*
X141580269Y-89601813D01*
X141772210Y-89679168D01*
X141778091Y-89680316D01*
X141778096Y-89680318D01*
X141970870Y-89717964D01*
X141970873Y-89717964D01*
X141975316Y-89718832D01*
X141980755Y-89719098D01*
X142133330Y-89719098D01*
X142287633Y-89704376D01*
X142293387Y-89702688D01*
X142480453Y-89647809D01*
X142480455Y-89647808D01*
X142486206Y-89646121D01*
X142491540Y-89643374D01*
X142664851Y-89554114D01*
X142664854Y-89554112D01*
X142670182Y-89551368D01*
X142832920Y-89423535D01*
X142968550Y-89267235D01*
X143072178Y-89088108D01*
X143140064Y-88892617D01*
X143154374Y-88793926D01*
X143168897Y-88693757D01*
X143168897Y-88693754D01*
X143169758Y-88687817D01*
X143160190Y-88481096D01*
X143111705Y-88279913D01*
X143026052Y-88091529D01*
X142906321Y-87922740D01*
X142901998Y-87918602D01*
X142901994Y-87918597D01*
X142761164Y-87783782D01*
X142756834Y-87779637D01*
X142629295Y-87697286D01*
X142588020Y-87670635D01*
X142588017Y-87670634D01*
X142582983Y-87667383D01*
X142391042Y-87590028D01*
X142385161Y-87588880D01*
X142385156Y-87588878D01*
X142192382Y-87551232D01*
X142192379Y-87551232D01*
X142187936Y-87550364D01*
X142182497Y-87550098D01*
X142029922Y-87550098D01*
X141875619Y-87564820D01*
X141869865Y-87566508D01*
X141682799Y-87621387D01*
X141682797Y-87621388D01*
X141677046Y-87623075D01*
X141671713Y-87625821D01*
X141671712Y-87625822D01*
X141498401Y-87715082D01*
X141498398Y-87715084D01*
X141493070Y-87717828D01*
X141330332Y-87845661D01*
X141326401Y-87850191D01*
X141326400Y-87850192D01*
X141269030Y-87916305D01*
X141194702Y-88001961D01*
X141091074Y-88181088D01*
X141023188Y-88376579D01*
X141022328Y-88382512D01*
X141022327Y-88382515D01*
X140994355Y-88575439D01*
X140993494Y-88581379D01*
X87894295Y-88581379D01*
X88292865Y-87603495D01*
X88293771Y-87601329D01*
X88687353Y-86684910D01*
X88793084Y-86438727D01*
X88794017Y-86436608D01*
X88802862Y-86417028D01*
X89313813Y-85285862D01*
X89314797Y-85283737D01*
X89854832Y-84145100D01*
X89855855Y-84142995D01*
X90198084Y-83454729D01*
X90415875Y-83016726D01*
X90416915Y-83014681D01*
X90448563Y-82953891D01*
X90909656Y-82068197D01*
X90996748Y-81900907D01*
X90997846Y-81898844D01*
X91597178Y-80797944D01*
X91598314Y-80795904D01*
X92216882Y-79708164D01*
X92218054Y-79706146D01*
X92855696Y-78631678D01*
X92856905Y-78629683D01*
X93513329Y-77568816D01*
X93514574Y-77566845D01*
X94189567Y-76519789D01*
X94190849Y-76517841D01*
X94236943Y-76449164D01*
X94884083Y-75484971D01*
X94885387Y-75483066D01*
X94888188Y-75479056D01*
X95310884Y-74873782D01*
X95596751Y-74464440D01*
X95598104Y-74462540D01*
X96327256Y-73458553D01*
X96328644Y-73456678D01*
X97075413Y-72467480D01*
X97076836Y-72465631D01*
X97840859Y-71491631D01*
X97842318Y-71489807D01*
X98623480Y-70531091D01*
X98624973Y-70529293D01*
X99422957Y-69586203D01*
X99424484Y-69584432D01*
X100239096Y-68657164D01*
X100240658Y-68655419D01*
X101050841Y-67767045D01*
X101061144Y-67756970D01*
X101082145Y-67738664D01*
X101082149Y-67738660D01*
X101088911Y-67732765D01*
X101123413Y-67678862D01*
X101125341Y-67675940D01*
X101156291Y-67630423D01*
X101161340Y-67622998D01*
X101163555Y-67616147D01*
X101167434Y-67610086D01*
X101185416Y-67548678D01*
X101186447Y-67545332D01*
X101203381Y-67492946D01*
X101206143Y-67484402D01*
X101206346Y-67477205D01*
X101208368Y-67470299D01*
X101208392Y-67406278D01*
X101208442Y-67402799D01*
X101209993Y-67347777D01*
X101210246Y-67338803D01*
X101208421Y-67331840D01*
X101208424Y-67324641D01*
X101190483Y-67263201D01*
X101189548Y-67259825D01*
X101175596Y-67206587D01*
X101175596Y-67206586D01*
X101173320Y-67197903D01*
X101152329Y-67162947D01*
X101146273Y-67151585D01*
X100686988Y-66172367D01*
X100681210Y-66157738D01*
X100382149Y-65235754D01*
X177282264Y-65235754D01*
X177312572Y-65370234D01*
X177315652Y-65380063D01*
X177395777Y-65577391D01*
X177400420Y-65586582D01*
X177511701Y-65768176D01*
X177517784Y-65776487D01*
X177657220Y-65937455D01*
X177664587Y-65944671D01*
X177828441Y-66080704D01*
X177836888Y-66086619D01*
X178020763Y-66194067D01*
X178030049Y-66198517D01*
X178229008Y-66274491D01*
X178238906Y-66277367D01*
X178342257Y-66298394D01*
X178356306Y-66297198D01*
X178360007Y-66286853D01*
X178360007Y-65239903D01*
X178355532Y-65224664D01*
X178354142Y-65223459D01*
X178346459Y-65221788D01*
X177297232Y-65221788D01*
X177283701Y-65225761D01*
X177282264Y-65235754D01*
X100382149Y-65235754D01*
X100349595Y-65135392D01*
X100345686Y-65120157D01*
X100187192Y-64290437D01*
X100144027Y-64064467D01*
X100142047Y-64048869D01*
X100137304Y-63974658D01*
X100073243Y-62972461D01*
X100073138Y-62958247D01*
X100114342Y-62118918D01*
X100115553Y-62106615D01*
X100132328Y-61993508D01*
X100190627Y-61600405D01*
X100239518Y-61270741D01*
X100241930Y-61258613D01*
X100447233Y-60438909D01*
X100450822Y-60427076D01*
X100724828Y-59661225D01*
X100735489Y-59631429D01*
X100740219Y-59620010D01*
X100763825Y-59570099D01*
X101041916Y-58982103D01*
X101101490Y-58856140D01*
X101107318Y-58845235D01*
X101456934Y-58261918D01*
X124699537Y-58261918D01*
X124729845Y-58396398D01*
X124732925Y-58406227D01*
X124813050Y-58603555D01*
X124817693Y-58612746D01*
X124928974Y-58794340D01*
X124935057Y-58802651D01*
X125074493Y-58963619D01*
X125081860Y-58970835D01*
X125245714Y-59106868D01*
X125254161Y-59112783D01*
X125438036Y-59220231D01*
X125447322Y-59224681D01*
X125646281Y-59300655D01*
X125656179Y-59303531D01*
X125759530Y-59324558D01*
X125773579Y-59323362D01*
X125777280Y-59313017D01*
X125777280Y-58266067D01*
X125772805Y-58250828D01*
X125771415Y-58249623D01*
X125763732Y-58247952D01*
X124714505Y-58247952D01*
X124700974Y-58251925D01*
X124699537Y-58261918D01*
X101456934Y-58261918D01*
X101541741Y-58120421D01*
X101548611Y-58110139D01*
X101582934Y-58063860D01*
X102051987Y-57431405D01*
X102059829Y-57421850D01*
X102120834Y-57354542D01*
X102314961Y-57140355D01*
X102627306Y-56795735D01*
X102636050Y-56786991D01*
X103036765Y-56423804D01*
X103262170Y-56219510D01*
X103271725Y-56211668D01*
X103324432Y-56172579D01*
X103950461Y-55708291D01*
X103960739Y-55701424D01*
X104144299Y-55591405D01*
X104685532Y-55267010D01*
X104696431Y-55261184D01*
X104888997Y-55170111D01*
X105460347Y-54899895D01*
X105471771Y-54895164D01*
X106267380Y-54610509D01*
X106279214Y-54606919D01*
X107098924Y-54401615D01*
X107111052Y-54399203D01*
X107633290Y-54321752D01*
X107946936Y-54275237D01*
X107959235Y-54274026D01*
X108747880Y-54235310D01*
X108804855Y-54232513D01*
X108816578Y-54232483D01*
X109569997Y-54265671D01*
X109581000Y-54266640D01*
X109972486Y-54318550D01*
X110330269Y-54365991D01*
X110341159Y-54367925D01*
X111078821Y-54532597D01*
X111089499Y-54535478D01*
X111809891Y-54764209D01*
X111820276Y-54768016D01*
X112517814Y-55059032D01*
X112527825Y-55063734D01*
X113197164Y-55414804D01*
X113206723Y-55420366D01*
X113842696Y-55828781D01*
X113851731Y-55835160D01*
X114166644Y-56078895D01*
X114337895Y-56211439D01*
X114446257Y-56295309D01*
X114455742Y-56303433D01*
X114486054Y-56332120D01*
X114494039Y-56336210D01*
X114494043Y-56336213D01*
X114538702Y-56359089D01*
X114543471Y-56361663D01*
X114587130Y-56386453D01*
X114587135Y-56386455D01*
X114594944Y-56390889D01*
X114603423Y-56392891D01*
X114604333Y-56393302D01*
X114606983Y-56394277D01*
X114607944Y-56394555D01*
X114615694Y-56398525D01*
X114624513Y-56400211D01*
X114673827Y-56409639D01*
X114679128Y-56410772D01*
X114727965Y-56422306D01*
X114727967Y-56422306D01*
X114736701Y-56424369D01*
X114745391Y-56423912D01*
X114746387Y-56424051D01*
X114749195Y-56424243D01*
X114750205Y-56424240D01*
X114758760Y-56425876D01*
X114817685Y-56420226D01*
X114823074Y-56419827D01*
X114882157Y-56416719D01*
X114890372Y-56413840D01*
X114891381Y-56413693D01*
X114894122Y-56413090D01*
X114895091Y-56412804D01*
X114903753Y-56411973D01*
X114946802Y-56394775D01*
X114958692Y-56390025D01*
X114963769Y-56388122D01*
X115011150Y-56371519D01*
X115019620Y-56368551D01*
X115026915Y-56363326D01*
X115026919Y-56363324D01*
X115042609Y-56352086D01*
X124672780Y-56352086D01*
X124679535Y-56414268D01*
X124730665Y-56550657D01*
X124818019Y-56667213D01*
X124934575Y-56754567D01*
X124942984Y-56757719D01*
X124942985Y-56757720D01*
X125052240Y-56798678D01*
X125109005Y-56841319D01*
X125133705Y-56907881D01*
X125118498Y-56977230D01*
X125099105Y-57003711D01*
X124975870Y-57132669D01*
X124969384Y-57140679D01*
X124849378Y-57316601D01*
X124844280Y-57325575D01*
X124754618Y-57518735D01*
X124751055Y-57528422D01*
X124695669Y-57728135D01*
X124697192Y-57736559D01*
X124709572Y-57739952D01*
X126159280Y-57739952D01*
X126227401Y-57759954D01*
X126273894Y-57813610D01*
X126285280Y-57865952D01*
X126285280Y-59312469D01*
X126289344Y-59326311D01*
X126302758Y-59328345D01*
X126309464Y-59327486D01*
X126319542Y-59325344D01*
X126523535Y-59264143D01*
X126533122Y-59260385D01*
X126724375Y-59166691D01*
X126733225Y-59161416D01*
X126906608Y-59037744D01*
X126914480Y-59031091D01*
X127065332Y-58880764D01*
X127072010Y-58872917D01*
X127199302Y-58695771D01*
X127200559Y-58696674D01*
X127247653Y-58653314D01*
X127317591Y-58641097D01*
X127383031Y-58668630D01*
X127410859Y-58700463D01*
X127471267Y-58799040D01*
X127617530Y-58967890D01*
X127789406Y-59110584D01*
X127982280Y-59223290D01*
X127987105Y-59225132D01*
X127987106Y-59225133D01*
X128059892Y-59252927D01*
X128190972Y-59302982D01*
X128196040Y-59304013D01*
X128196043Y-59304014D01*
X128291142Y-59323362D01*
X128409877Y-59347519D01*
X128415052Y-59347709D01*
X128415054Y-59347709D01*
X128627953Y-59355516D01*
X128627957Y-59355516D01*
X128633117Y-59355705D01*
X128638237Y-59355049D01*
X128638239Y-59355049D01*
X128849568Y-59327977D01*
X128849569Y-59327977D01*
X128854696Y-59327320D01*
X128859646Y-59325835D01*
X129063709Y-59264613D01*
X129063714Y-59264611D01*
X129068664Y-59263126D01*
X129269274Y-59164848D01*
X129451140Y-59035125D01*
X129609376Y-58877441D01*
X129739733Y-58696029D01*
X129741056Y-58696980D01*
X129787925Y-58653809D01*
X129857860Y-58641577D01*
X129923306Y-58669096D01*
X129951155Y-58700946D01*
X130011267Y-58799040D01*
X130157530Y-58967890D01*
X130329406Y-59110584D01*
X130522280Y-59223290D01*
X130527105Y-59225132D01*
X130527106Y-59225133D01*
X130599892Y-59252927D01*
X130730972Y-59302982D01*
X130736040Y-59304013D01*
X130736043Y-59304014D01*
X130831142Y-59323362D01*
X130949877Y-59347519D01*
X130955052Y-59347709D01*
X130955054Y-59347709D01*
X131167953Y-59355516D01*
X131167957Y-59355516D01*
X131173117Y-59355705D01*
X131178237Y-59355049D01*
X131178239Y-59355049D01*
X131389568Y-59327977D01*
X131389569Y-59327977D01*
X131394696Y-59327320D01*
X131399646Y-59325835D01*
X131603709Y-59264613D01*
X131603714Y-59264611D01*
X131608664Y-59263126D01*
X131809274Y-59164848D01*
X131991140Y-59035125D01*
X132149376Y-58877441D01*
X132279733Y-58696029D01*
X132293275Y-58668630D01*
X132376416Y-58500405D01*
X132376417Y-58500403D01*
X132378710Y-58495763D01*
X132411180Y-58388892D01*
X132442145Y-58286975D01*
X132442145Y-58286973D01*
X132443650Y-58282021D01*
X132472809Y-58060542D01*
X132474436Y-57993952D01*
X132456132Y-57771313D01*
X132401711Y-57554654D01*
X132312634Y-57349792D01*
X132191294Y-57162229D01*
X132040950Y-56997003D01*
X132036899Y-56993804D01*
X132036895Y-56993800D01*
X131869694Y-56861752D01*
X131869690Y-56861750D01*
X131865639Y-56858550D01*
X131824333Y-56835748D01*
X131774364Y-56785316D01*
X131759592Y-56715873D01*
X131784708Y-56649468D01*
X131812060Y-56622861D01*
X131855883Y-56591602D01*
X131991140Y-56495125D01*
X132149376Y-56337441D01*
X132157633Y-56325951D01*
X132276715Y-56160229D01*
X132279733Y-56156029D01*
X132300600Y-56113809D01*
X132376416Y-55960405D01*
X132376417Y-55960403D01*
X132378710Y-55955763D01*
X132401729Y-55880000D01*
X171806496Y-55880000D01*
X171826458Y-56069928D01*
X171885473Y-56251556D01*
X171980960Y-56416944D01*
X171985378Y-56421851D01*
X171985379Y-56421852D01*
X172104325Y-56553955D01*
X172108747Y-56558866D01*
X172263248Y-56671118D01*
X172269276Y-56673802D01*
X172269278Y-56673803D01*
X172411916Y-56737309D01*
X172437712Y-56748794D01*
X172531112Y-56768647D01*
X172618056Y-56787128D01*
X172618061Y-56787128D01*
X172624513Y-56788500D01*
X172677578Y-56788500D01*
X172745699Y-56808502D01*
X172766673Y-56825405D01*
X177244838Y-61303571D01*
X177278864Y-61365883D01*
X177273725Y-61436894D01*
X177262262Y-61467472D01*
X177255507Y-61529654D01*
X177255507Y-63325922D01*
X177262262Y-63388104D01*
X177313392Y-63524493D01*
X177400746Y-63641049D01*
X177517302Y-63728403D01*
X177525711Y-63731555D01*
X177525712Y-63731556D01*
X177634967Y-63772514D01*
X177691732Y-63815155D01*
X177716432Y-63881717D01*
X177701225Y-63951066D01*
X177681832Y-63977547D01*
X177558597Y-64106505D01*
X177552111Y-64114515D01*
X177432105Y-64290437D01*
X177427007Y-64299411D01*
X177337345Y-64492571D01*
X177333782Y-64502258D01*
X177278396Y-64701971D01*
X177279919Y-64710395D01*
X177292299Y-64713788D01*
X178742007Y-64713788D01*
X178810128Y-64733790D01*
X178856621Y-64787446D01*
X178868007Y-64839788D01*
X178868007Y-66286305D01*
X178872071Y-66300147D01*
X178885485Y-66302181D01*
X178892191Y-66301322D01*
X178902269Y-66299180D01*
X179106262Y-66237979D01*
X179115849Y-66234221D01*
X179307102Y-66140527D01*
X179315952Y-66135252D01*
X179489335Y-66011580D01*
X179497207Y-66004927D01*
X179648059Y-65854600D01*
X179654737Y-65846753D01*
X179782029Y-65669607D01*
X179783286Y-65670510D01*
X179830380Y-65627150D01*
X179900318Y-65614933D01*
X179965758Y-65642466D01*
X179993586Y-65674299D01*
X180053994Y-65772876D01*
X180200257Y-65941726D01*
X180372133Y-66084420D01*
X180565007Y-66197126D01*
X180773699Y-66276818D01*
X180778767Y-66277849D01*
X180778770Y-66277850D01*
X180873869Y-66297198D01*
X180992604Y-66321355D01*
X180997779Y-66321545D01*
X180997781Y-66321545D01*
X181210680Y-66329352D01*
X181210684Y-66329352D01*
X181215844Y-66329541D01*
X181220964Y-66328885D01*
X181220966Y-66328885D01*
X181432295Y-66301813D01*
X181432296Y-66301813D01*
X181437423Y-66301156D01*
X181442373Y-66299671D01*
X181646436Y-66238449D01*
X181646441Y-66238447D01*
X181651391Y-66236962D01*
X181852001Y-66138684D01*
X182033867Y-66008961D01*
X182192103Y-65851277D01*
X182322460Y-65669865D01*
X182323783Y-65670816D01*
X182370652Y-65627645D01*
X182440587Y-65615413D01*
X182506033Y-65642932D01*
X182533882Y-65674782D01*
X182593994Y-65772876D01*
X182740257Y-65941726D01*
X182912133Y-66084420D01*
X183105007Y-66197126D01*
X183313699Y-66276818D01*
X183318767Y-66277849D01*
X183318770Y-66277850D01*
X183413869Y-66297198D01*
X183532604Y-66321355D01*
X183537779Y-66321545D01*
X183537781Y-66321545D01*
X183750680Y-66329352D01*
X183750684Y-66329352D01*
X183755844Y-66329541D01*
X183760964Y-66328885D01*
X183760966Y-66328885D01*
X183972295Y-66301813D01*
X183972296Y-66301813D01*
X183977423Y-66301156D01*
X183982373Y-66299671D01*
X184186436Y-66238449D01*
X184186441Y-66238447D01*
X184191391Y-66236962D01*
X184392001Y-66138684D01*
X184573867Y-66008961D01*
X184732103Y-65851277D01*
X184862460Y-65669865D01*
X184876002Y-65642466D01*
X184959143Y-65474241D01*
X184959144Y-65474239D01*
X184961437Y-65469599D01*
X185026377Y-65255857D01*
X185055536Y-65034378D01*
X185057163Y-64967788D01*
X185038859Y-64745149D01*
X184984438Y-64528490D01*
X184895361Y-64323628D01*
X184805731Y-64185081D01*
X184776829Y-64140405D01*
X184776827Y-64140402D01*
X184774021Y-64136065D01*
X184623677Y-63970839D01*
X184619626Y-63967640D01*
X184619622Y-63967636D01*
X184452421Y-63835588D01*
X184452417Y-63835586D01*
X184448366Y-63832386D01*
X184407060Y-63809584D01*
X184357091Y-63759152D01*
X184342319Y-63689709D01*
X184367435Y-63623304D01*
X184394787Y-63596697D01*
X184438610Y-63565438D01*
X184573867Y-63468961D01*
X184732103Y-63311277D01*
X184740743Y-63299254D01*
X184859442Y-63134065D01*
X184862460Y-63129865D01*
X184883327Y-63087645D01*
X184959143Y-62934241D01*
X184959144Y-62934239D01*
X184961437Y-62929599D01*
X185026377Y-62715857D01*
X185055536Y-62494378D01*
X185057163Y-62427788D01*
X185038859Y-62205149D01*
X184984438Y-61988490D01*
X184895361Y-61783628D01*
X184774021Y-61596065D01*
X184623677Y-61430839D01*
X184619626Y-61427640D01*
X184619622Y-61427636D01*
X184452421Y-61295588D01*
X184452417Y-61295586D01*
X184448366Y-61292386D01*
X184252796Y-61184426D01*
X184247927Y-61182702D01*
X184247923Y-61182700D01*
X184047094Y-61111583D01*
X184047090Y-61111582D01*
X184042219Y-61109857D01*
X184037126Y-61108950D01*
X184037123Y-61108949D01*
X183827380Y-61071588D01*
X183827374Y-61071587D01*
X183822291Y-61070682D01*
X183748459Y-61069780D01*
X183604088Y-61068016D01*
X183604086Y-61068016D01*
X183598918Y-61067953D01*
X183378098Y-61101743D01*
X183165763Y-61171145D01*
X182967614Y-61274295D01*
X182963481Y-61277398D01*
X182963478Y-61277400D01*
X182845630Y-61365883D01*
X182788972Y-61408423D01*
X182785400Y-61412161D01*
X182677736Y-61524825D01*
X182634636Y-61569926D01*
X182527208Y-61727409D01*
X182472300Y-61772409D01*
X182401775Y-61780580D01*
X182338028Y-61749326D01*
X182317331Y-61724842D01*
X182236829Y-61600405D01*
X182236827Y-61600402D01*
X182234021Y-61596065D01*
X182083677Y-61430839D01*
X182079626Y-61427640D01*
X182079622Y-61427636D01*
X181912421Y-61295588D01*
X181912417Y-61295586D01*
X181908366Y-61292386D01*
X181712796Y-61184426D01*
X181707927Y-61182702D01*
X181707923Y-61182700D01*
X181507094Y-61111583D01*
X181507090Y-61111582D01*
X181502219Y-61109857D01*
X181497126Y-61108950D01*
X181497123Y-61108949D01*
X181287380Y-61071588D01*
X181287374Y-61071587D01*
X181282291Y-61070682D01*
X181208459Y-61069780D01*
X181064088Y-61068016D01*
X181064086Y-61068016D01*
X181058918Y-61067953D01*
X180838098Y-61101743D01*
X180625763Y-61171145D01*
X180427614Y-61274295D01*
X180423481Y-61277398D01*
X180423478Y-61277400D01*
X180305630Y-61365883D01*
X180248972Y-61408423D01*
X180192544Y-61467472D01*
X180168290Y-61492852D01*
X180106766Y-61528282D01*
X180035853Y-61524825D01*
X179978067Y-61483579D01*
X179959214Y-61450031D01*
X179917774Y-61339491D01*
X179914622Y-61331083D01*
X179827268Y-61214527D01*
X179710712Y-61127173D01*
X179574323Y-61076043D01*
X179512141Y-61069288D01*
X178860211Y-61069288D01*
X178792090Y-61049286D01*
X178771116Y-61032383D01*
X173666790Y-55928057D01*
X173632764Y-55865745D01*
X173630575Y-55852132D01*
X173614232Y-55696635D01*
X173614232Y-55696633D01*
X173613542Y-55690072D01*
X173554527Y-55508444D01*
X173459040Y-55343056D01*
X173385321Y-55261182D01*
X173335675Y-55206045D01*
X173335674Y-55206044D01*
X173331253Y-55201134D01*
X173176752Y-55088882D01*
X173170724Y-55086198D01*
X173170722Y-55086197D01*
X173008319Y-55013891D01*
X173008318Y-55013891D01*
X173002288Y-55011206D01*
X172899328Y-54989321D01*
X172821944Y-54972872D01*
X172821939Y-54972872D01*
X172815487Y-54971500D01*
X172624513Y-54971500D01*
X172618061Y-54972872D01*
X172618056Y-54972872D01*
X172540672Y-54989321D01*
X172437712Y-55011206D01*
X172431682Y-55013891D01*
X172431681Y-55013891D01*
X172269278Y-55086197D01*
X172269276Y-55086198D01*
X172263248Y-55088882D01*
X172108747Y-55201134D01*
X172104326Y-55206044D01*
X172104325Y-55206045D01*
X172054680Y-55261182D01*
X171980960Y-55343056D01*
X171885473Y-55508444D01*
X171826458Y-55690072D01*
X171825768Y-55696633D01*
X171825768Y-55696635D01*
X171823358Y-55719565D01*
X171806496Y-55880000D01*
X132401729Y-55880000D01*
X132443650Y-55742021D01*
X132472809Y-55520542D01*
X132473105Y-55508444D01*
X132474354Y-55457317D01*
X132474354Y-55457313D01*
X132474436Y-55453952D01*
X132456132Y-55231313D01*
X132401711Y-55014654D01*
X132312634Y-54809792D01*
X132191294Y-54622229D01*
X132040950Y-54457003D01*
X132036899Y-54453804D01*
X132036895Y-54453800D01*
X131869694Y-54321752D01*
X131869690Y-54321750D01*
X131865639Y-54318550D01*
X131670069Y-54210590D01*
X131665200Y-54208866D01*
X131665196Y-54208864D01*
X131464367Y-54137747D01*
X131464363Y-54137746D01*
X131459492Y-54136021D01*
X131454399Y-54135114D01*
X131454396Y-54135113D01*
X131244653Y-54097752D01*
X131244647Y-54097751D01*
X131239564Y-54096846D01*
X131165732Y-54095944D01*
X131021361Y-54094180D01*
X131021359Y-54094180D01*
X131016191Y-54094117D01*
X130795371Y-54127907D01*
X130583036Y-54197309D01*
X130552723Y-54213089D01*
X130460599Y-54261046D01*
X130384887Y-54300459D01*
X130380754Y-54303562D01*
X130380751Y-54303564D01*
X130248933Y-54402536D01*
X130206245Y-54434587D01*
X130202673Y-54438325D01*
X130087299Y-54559057D01*
X130051909Y-54596090D01*
X129944481Y-54753573D01*
X129889573Y-54798573D01*
X129819048Y-54806744D01*
X129755301Y-54775490D01*
X129734604Y-54751006D01*
X129654102Y-54626569D01*
X129654100Y-54626566D01*
X129651294Y-54622229D01*
X129500950Y-54457003D01*
X129496899Y-54453804D01*
X129496895Y-54453800D01*
X129329694Y-54321752D01*
X129329690Y-54321750D01*
X129325639Y-54318550D01*
X129130069Y-54210590D01*
X129125200Y-54208866D01*
X129125196Y-54208864D01*
X128924367Y-54137747D01*
X128924363Y-54137746D01*
X128919492Y-54136021D01*
X128914399Y-54135114D01*
X128914396Y-54135113D01*
X128704653Y-54097752D01*
X128704647Y-54097751D01*
X128699564Y-54096846D01*
X128625732Y-54095944D01*
X128481361Y-54094180D01*
X128481359Y-54094180D01*
X128476191Y-54094117D01*
X128255371Y-54127907D01*
X128043036Y-54197309D01*
X128012723Y-54213089D01*
X127920599Y-54261046D01*
X127844887Y-54300459D01*
X127840754Y-54303562D01*
X127840751Y-54303564D01*
X127708933Y-54402536D01*
X127666245Y-54434587D01*
X127609817Y-54493636D01*
X127585563Y-54519016D01*
X127524039Y-54554446D01*
X127453126Y-54550989D01*
X127395340Y-54509743D01*
X127376487Y-54476195D01*
X127335047Y-54365655D01*
X127331895Y-54357247D01*
X127244541Y-54240691D01*
X127127985Y-54153337D01*
X126991596Y-54102207D01*
X126929414Y-54095452D01*
X125133146Y-54095452D01*
X125070964Y-54102207D01*
X124934575Y-54153337D01*
X124818019Y-54240691D01*
X124730665Y-54357247D01*
X124679535Y-54493636D01*
X124672780Y-54555818D01*
X124672780Y-56352086D01*
X115042609Y-56352086D01*
X115056761Y-56341950D01*
X115065938Y-56335963D01*
X115883167Y-55852132D01*
X116107092Y-55719560D01*
X116109198Y-55718340D01*
X116126945Y-55708293D01*
X116663700Y-55404414D01*
X117181773Y-55111112D01*
X117183919Y-55109925D01*
X118268441Y-54523504D01*
X118270616Y-54522355D01*
X119367173Y-53956812D01*
X119369378Y-53955702D01*
X120185709Y-53554733D01*
X120477591Y-53411366D01*
X120479780Y-53410317D01*
X121599394Y-52887445D01*
X121601570Y-52886455D01*
X122732385Y-52385283D01*
X122734674Y-52384296D01*
X123876397Y-51905102D01*
X123878714Y-51904157D01*
X124068249Y-51828999D01*
X124175757Y-51786368D01*
X144266994Y-51786368D01*
X144267141Y-51789878D01*
X144267141Y-51789884D01*
X144267889Y-51807726D01*
X144273709Y-51946582D01*
X144281268Y-52126949D01*
X144281803Y-52130407D01*
X144281804Y-52130414D01*
X144332880Y-52460343D01*
X144333418Y-52463816D01*
X144422793Y-52792771D01*
X144548279Y-53109713D01*
X144708313Y-53410692D01*
X144710298Y-53413591D01*
X144898908Y-53689050D01*
X144898913Y-53689056D01*
X144900899Y-53691957D01*
X145123637Y-53950001D01*
X145126207Y-53952381D01*
X145126211Y-53952385D01*
X145147822Y-53972397D01*
X145373750Y-54181609D01*
X145376572Y-54183690D01*
X145376575Y-54183692D01*
X145451117Y-54238649D01*
X145648123Y-54383894D01*
X145651160Y-54385648D01*
X145651164Y-54385650D01*
X145742400Y-54438325D01*
X145943333Y-54554334D01*
X145946730Y-54555818D01*
X146252481Y-54689398D01*
X146252491Y-54689402D01*
X146255703Y-54690805D01*
X146259060Y-54691844D01*
X146259065Y-54691846D01*
X146577978Y-54790566D01*
X146581338Y-54791606D01*
X146584794Y-54792265D01*
X146584793Y-54792265D01*
X146912729Y-54854822D01*
X146912734Y-54854823D01*
X146916180Y-54855480D01*
X147140196Y-54872717D01*
X147252558Y-54881363D01*
X147252559Y-54881363D01*
X147256055Y-54881632D01*
X147468406Y-54874217D01*
X147593213Y-54869859D01*
X147593218Y-54869859D01*
X147596728Y-54869736D01*
X147765340Y-54844837D01*
X147930472Y-54820453D01*
X147930477Y-54820452D01*
X147933951Y-54819939D01*
X147937343Y-54819043D01*
X147937347Y-54819042D01*
X148260131Y-54733759D01*
X148260132Y-54733759D01*
X148263522Y-54732863D01*
X148581332Y-54609592D01*
X148883421Y-54451664D01*
X149146329Y-54274330D01*
X149163107Y-54263013D01*
X149163109Y-54263012D01*
X149166023Y-54261046D01*
X149192340Y-54238649D01*
X149422943Y-54042390D01*
X149422944Y-54042389D01*
X149425616Y-54040115D01*
X149504113Y-53956524D01*
X149656554Y-53794192D01*
X149656558Y-53794187D01*
X149658965Y-53791624D01*
X149661070Y-53788810D01*
X149661076Y-53788803D01*
X149861051Y-53521490D01*
X149863160Y-53518671D01*
X149890239Y-53472517D01*
X149953660Y-53364417D01*
X150035657Y-53224657D01*
X150040597Y-53213562D01*
X150172873Y-52916465D01*
X150172875Y-52916460D01*
X150174305Y-52913248D01*
X150277377Y-52588325D01*
X150343587Y-52253937D01*
X150358335Y-52078308D01*
X150371929Y-51916434D01*
X150371929Y-51916427D01*
X150372112Y-51914252D01*
X150373302Y-51828999D01*
X150371116Y-51789884D01*
X150354470Y-51492164D01*
X150354274Y-51488651D01*
X150353686Y-51485174D01*
X150298014Y-51156025D01*
X150298013Y-51156021D01*
X150297425Y-51152544D01*
X150284559Y-51107673D01*
X150247119Y-50977107D01*
X150203466Y-50824869D01*
X150157756Y-50713968D01*
X150074905Y-50512955D01*
X150074901Y-50512947D01*
X150073567Y-50509710D01*
X149909347Y-50210995D01*
X149712853Y-49932447D01*
X149486533Y-49677537D01*
X149426441Y-49623430D01*
X149235828Y-49451801D01*
X149235825Y-49451799D01*
X149233210Y-49449444D01*
X149230360Y-49447403D01*
X149230353Y-49447398D01*
X148958895Y-49253053D01*
X148958892Y-49253051D01*
X148956041Y-49251010D01*
X148658479Y-49084708D01*
X148344234Y-48952612D01*
X148340871Y-48951622D01*
X148340862Y-48951619D01*
X148134159Y-48890784D01*
X148017223Y-48856368D01*
X147734042Y-48806435D01*
X147684982Y-48797784D01*
X147684980Y-48797784D01*
X147681522Y-48797174D01*
X147678013Y-48796953D01*
X147678011Y-48796953D01*
X147344833Y-48775991D01*
X147344827Y-48775991D01*
X147341315Y-48775770D01*
X147244890Y-48780486D01*
X147004349Y-48792250D01*
X147004341Y-48792251D01*
X147000842Y-48792422D01*
X146997374Y-48792984D01*
X146997371Y-48792984D01*
X146667822Y-48846360D01*
X146667819Y-48846361D01*
X146664347Y-48846923D01*
X146660964Y-48847868D01*
X146660962Y-48847868D01*
X146597986Y-48865451D01*
X146336024Y-48938592D01*
X146019966Y-49066288D01*
X145720111Y-49228419D01*
X145440198Y-49422963D01*
X145437556Y-49425276D01*
X145437552Y-49425279D01*
X145313663Y-49533736D01*
X145183715Y-49647497D01*
X144953859Y-49899222D01*
X144753494Y-50175000D01*
X144585120Y-50471393D01*
X144583733Y-50474628D01*
X144583731Y-50474633D01*
X144452218Y-50781476D01*
X144450833Y-50784708D01*
X144449816Y-50788077D01*
X144382402Y-51011364D01*
X144352308Y-51111039D01*
X144290772Y-51446319D01*
X144266994Y-51786368D01*
X124175757Y-51786368D01*
X125031058Y-51447208D01*
X125033364Y-51446320D01*
X125290360Y-51350294D01*
X126196313Y-51011787D01*
X126198647Y-51010942D01*
X126382869Y-50946276D01*
X126719106Y-50828249D01*
X127371621Y-50599201D01*
X127373997Y-50598393D01*
X127936501Y-50413532D01*
X128557083Y-50209585D01*
X128559501Y-50208818D01*
X129752173Y-49843288D01*
X129754612Y-49842567D01*
X130838977Y-49534038D01*
X130956846Y-49500501D01*
X130959282Y-49499836D01*
X132170656Y-49181542D01*
X132173138Y-49180916D01*
X133393653Y-48886586D01*
X133396153Y-48886010D01*
X134625349Y-48615951D01*
X134627868Y-48615425D01*
X135865587Y-48369873D01*
X135868121Y-48369397D01*
X136904912Y-48185678D01*
X137114132Y-48148604D01*
X137116661Y-48148183D01*
X138370828Y-47952391D01*
X138373310Y-47952030D01*
X139395352Y-47813931D01*
X139635166Y-47781527D01*
X139637741Y-47781206D01*
X140907163Y-47636232D01*
X140909748Y-47635963D01*
X141663663Y-47565582D01*
X142186645Y-47516759D01*
X142189193Y-47516548D01*
X143473119Y-47423392D01*
X143475719Y-47423231D01*
X144766398Y-47356379D01*
X144769004Y-47356271D01*
X146066329Y-47315969D01*
X146068937Y-47315915D01*
X147097551Y-47305270D01*
X147372927Y-47302420D01*
X147375424Y-47302419D01*
X148596598Y-47314233D01*
G37*
%TD.AperFunction*%
%TD*%
M02*
