%TF.GenerationSoftware,KiCad,Pcbnew,(6.0.4-0)*%
%TF.CreationDate,2022-04-25T17:15:55-04:00*%
%TF.ProjectId,BaseBadge,42617365-4261-4646-9765-2e6b69636164,rev?*%
%TF.SameCoordinates,Original*%
%TF.FileFunction,Copper,L1,Top*%
%TF.FilePolarity,Positive*%
%FSLAX46Y46*%
G04 Gerber Fmt 4.6, Leading zero omitted, Abs format (unit mm)*
G04 Created by KiCad (PCBNEW (6.0.4-0)) date 2022-04-25 17:15:55*
%MOMM*%
%LPD*%
G01*
G04 APERTURE LIST*
%TA.AperFunction,ComponentPad*%
%ADD10R,1.700000X1.700000*%
%TD*%
%TA.AperFunction,ComponentPad*%
%ADD11O,1.700000X1.700000*%
%TD*%
%TA.AperFunction,ComponentPad*%
%ADD12C,1.700000*%
%TD*%
%TA.AperFunction,ComponentPad*%
%ADD13C,2.000000*%
%TD*%
%TA.AperFunction,ViaPad*%
%ADD14C,0.800000*%
%TD*%
%TA.AperFunction,Conductor*%
%ADD15C,0.254000*%
%TD*%
G04 APERTURE END LIST*
D10*
%TO.P,J1,1,Pin_1*%
%TO.N,VCC*%
X107982463Y-115515377D03*
D11*
%TO.P,J1,2,Pin_2*%
%TO.N,GND*%
X110522463Y-115515377D03*
%TO.P,J1,3,Pin_3*%
%TO.N,Net-(J1-Pad3)*%
X146712463Y-77515377D03*
D12*
%TO.P,J1,4,Pin_4*%
%TO.N,Net-(J1-Pad4)*%
X149252463Y-77515377D03*
D11*
%TO.P,J1,5,Pin_5*%
%TO.N,Net-(J1-Pad5)*%
X185442463Y-115515377D03*
%TO.P,J1,6,Pin_6*%
%TO.N,Net-(J1-Pad6)*%
X187982463Y-115515377D03*
%TD*%
D10*
%TO.P,J4,1,Pin_1*%
%TO.N,VCC*%
X129540000Y-53340000D03*
D11*
%TO.P,J4,2,Pin_2*%
%TO.N,GND*%
X129540000Y-55880000D03*
%TO.P,J4,3,Pin_3*%
%TO.N,Net-(J1-Pad3)*%
X132080000Y-53340000D03*
%TO.P,J4,4,Pin_4*%
%TO.N,Net-(J1-Pad4)*%
X132080000Y-55880000D03*
%TO.P,J4,5,Pin_5*%
%TO.N,Net-(J1-Pad5)*%
X134620000Y-53340000D03*
%TO.P,J4,6,Pin_6*%
%TO.N,Net-(J1-Pad6)*%
X134620000Y-55880000D03*
%TD*%
D10*
%TO.P,J5,1,Pin_1*%
%TO.N,VCC*%
X196711225Y-112371450D03*
D11*
%TO.P,J5,2,Pin_2*%
%TO.N,GND*%
X196711225Y-114911450D03*
%TO.P,J5,3,Pin_3*%
%TO.N,Net-(J1-Pad3)*%
X199251225Y-112371450D03*
%TO.P,J5,4,Pin_4*%
%TO.N,Net-(J1-Pad4)*%
X199251225Y-114911450D03*
%TO.P,J5,5,Pin_5*%
%TO.N,Net-(J1-Pad5)*%
X201791225Y-112371450D03*
%TO.P,J5,6,Pin_6*%
%TO.N,Net-(J1-Pad6)*%
X201791225Y-114911450D03*
%TD*%
D10*
%TO.P,J2,1,Pin_1*%
%TO.N,VCC*%
X93135721Y-112652317D03*
D11*
%TO.P,J2,2,Pin_2*%
%TO.N,GND*%
X93135721Y-115192317D03*
%TO.P,J2,3,Pin_3*%
%TO.N,Net-(J1-Pad3)*%
X95675721Y-112652317D03*
%TO.P,J2,4,Pin_4*%
%TO.N,Net-(J1-Pad4)*%
X95675721Y-115192317D03*
%TO.P,J2,5,Pin_5*%
%TO.N,Net-(J1-Pad5)*%
X98215721Y-112652317D03*
%TO.P,J2,6,Pin_6*%
%TO.N,Net-(J1-Pad6)*%
X98215721Y-115192317D03*
%TD*%
D10*
%TO.P,J3,1,Pin_1*%
%TO.N,VCC*%
X174641614Y-60988088D03*
D11*
%TO.P,J3,2,Pin_2*%
%TO.N,GND*%
X174641614Y-63528088D03*
%TO.P,J3,3,Pin_3*%
%TO.N,Net-(J1-Pad3)*%
X177181614Y-60988088D03*
%TO.P,J3,4,Pin_4*%
%TO.N,Net-(J1-Pad4)*%
X177181614Y-63528088D03*
%TO.P,J3,5,Pin_5*%
%TO.N,Net-(J1-Pad5)*%
X179721614Y-60988088D03*
%TO.P,J3,6,Pin_6*%
%TO.N,Net-(J1-Pad6)*%
X179721614Y-63528088D03*
%TD*%
D13*
%TO.P,BT1,1,+*%
%TO.N,Net-(BT1-Pad1)*%
X121920000Y-110310000D03*
%TO.P,BT1,2,-*%
%TO.N,GND*%
X121920000Y-97610000D03*
%TD*%
D14*
%TO.N,Net-(J1-Pad6)*%
X180340000Y-116840000D03*
%TD*%
D15*
%TO.N,VCC*%
X129540000Y-53340000D02*
X130903489Y-54703489D01*
X175818125Y-62164599D02*
X174641614Y-60988088D01*
X94499210Y-114015806D02*
X93135721Y-112652317D01*
X175818125Y-91478350D02*
X175818125Y-62164599D01*
X107982463Y-115515377D02*
X106482892Y-114015806D01*
X196711225Y-112371450D02*
X175818125Y-91478350D01*
X134648088Y-60988088D02*
X174641614Y-60988088D01*
X130903489Y-54703489D02*
X130903489Y-57243489D01*
X106482892Y-114015806D02*
X94499210Y-114015806D01*
X130903489Y-57243489D02*
X134648088Y-60988088D01*
%TO.N,Net-(J1-Pad5)*%
X98215721Y-112652317D02*
X182579403Y-112652317D01*
X182579403Y-112652317D02*
X185442463Y-115515377D01*
%TO.N,Net-(J1-Pad6)*%
X200337298Y-116365377D02*
X201791225Y-114911450D01*
X187982463Y-115515377D02*
X188832463Y-116365377D01*
X98215721Y-115192317D02*
X99863404Y-116840000D01*
X188832463Y-116365377D02*
X200337298Y-116365377D01*
X99863404Y-116840000D02*
X180340000Y-116840000D01*
%TD*%
%TA.AperFunction,Conductor*%
%TO.N,GND*%
G36*
X147826004Y-45885779D02*
G01*
X148523583Y-45893211D01*
X148526269Y-45893268D01*
X149727708Y-45931695D01*
X149730389Y-45931810D01*
X150925468Y-45995548D01*
X150928058Y-45995713D01*
X152016877Y-46077064D01*
X152116544Y-46084511D01*
X152119214Y-46084739D01*
X152120535Y-46084866D01*
X153300857Y-46198344D01*
X153303491Y-46198626D01*
X153632606Y-46237339D01*
X154477995Y-46336781D01*
X154480645Y-46337121D01*
X155010813Y-46410912D01*
X155647874Y-46499581D01*
X155650470Y-46499971D01*
X156810202Y-46686494D01*
X156812777Y-46686936D01*
X157964792Y-46897275D01*
X157967315Y-46897764D01*
X159111214Y-47131638D01*
X159113801Y-47132195D01*
X159262165Y-47165794D01*
X160249465Y-47389376D01*
X160252036Y-47389986D01*
X160802726Y-47526896D01*
X161379278Y-47670236D01*
X161381785Y-47670887D01*
X161482267Y-47698112D01*
X162500214Y-47973917D01*
X162502732Y-47974627D01*
X162511783Y-47977283D01*
X163612355Y-48300257D01*
X163614861Y-48301021D01*
X164715184Y-48648926D01*
X164717665Y-48649739D01*
X165808578Y-49019706D01*
X165811035Y-49020568D01*
X166892329Y-49412361D01*
X166894759Y-49413270D01*
X167298323Y-49568969D01*
X167966132Y-49826617D01*
X167968435Y-49827532D01*
X168897649Y-50208118D01*
X169029765Y-50262230D01*
X169032139Y-50263231D01*
X169464218Y-50450610D01*
X170083081Y-50718991D01*
X170085355Y-50720005D01*
X170745008Y-51022193D01*
X171125641Y-51196562D01*
X171127956Y-51197651D01*
X172157384Y-51694772D01*
X172159670Y-51695904D01*
X172846251Y-52044771D01*
X173155882Y-52202101D01*
X173178083Y-52213382D01*
X173180329Y-52214553D01*
X173504414Y-52387540D01*
X174187296Y-52752042D01*
X174189518Y-52753257D01*
X174265925Y-52796036D01*
X175185052Y-53310640D01*
X175187175Y-53311856D01*
X175539799Y-53518671D01*
X176170899Y-53888813D01*
X176173056Y-53890108D01*
X177144696Y-54486368D01*
X177146821Y-54487701D01*
X178106146Y-55103018D01*
X178108236Y-55104388D01*
X178299948Y-55232792D01*
X178926354Y-55652342D01*
X179055091Y-55738567D01*
X179057136Y-55739967D01*
X179620991Y-56134000D01*
X179991198Y-56392708D01*
X179993221Y-56394151D01*
X180914320Y-57065251D01*
X180916308Y-57066730D01*
X181824049Y-57755825D01*
X181826003Y-57757338D01*
X182720361Y-58464342D01*
X182722279Y-58465889D01*
X183570023Y-59163415D01*
X183602915Y-59190479D01*
X183604781Y-59192045D01*
X184471539Y-59934042D01*
X184473304Y-59935583D01*
X184928505Y-60340880D01*
X185325773Y-60694596D01*
X185327584Y-60696241D01*
X186165608Y-61472089D01*
X186167356Y-61473739D01*
X186990642Y-62266122D01*
X186992363Y-62267810D01*
X187800822Y-63076628D01*
X187802462Y-63078301D01*
X187973159Y-63255801D01*
X188595698Y-63903152D01*
X188597365Y-63904919D01*
X189375178Y-64745586D01*
X189376803Y-64747378D01*
X189396610Y-64769630D01*
X190138920Y-65603581D01*
X190140514Y-65605406D01*
X190886790Y-66476999D01*
X190888347Y-66478853D01*
X191618491Y-67365534D01*
X191620010Y-67367415D01*
X192333768Y-68268910D01*
X192335241Y-68270809D01*
X192571349Y-68581065D01*
X193032371Y-69186871D01*
X193033802Y-69188788D01*
X193281648Y-69527761D01*
X193714096Y-70119208D01*
X193715502Y-70121171D01*
X194378661Y-71065618D01*
X194380029Y-71067606D01*
X195025882Y-72025928D01*
X195027212Y-72027943D01*
X195655467Y-72999813D01*
X195656749Y-73001838D01*
X195979652Y-73522978D01*
X196267196Y-73987053D01*
X196268437Y-73989100D01*
X196860836Y-74987414D01*
X196861990Y-74989400D01*
X197177913Y-75545826D01*
X197436105Y-76000571D01*
X197437277Y-76002683D01*
X197538145Y-76188550D01*
X197892796Y-76842057D01*
X197992794Y-77026322D01*
X197993917Y-77028440D01*
X198280701Y-77581967D01*
X198530674Y-78064445D01*
X198531766Y-78066603D01*
X198928206Y-78869134D01*
X199049500Y-79114676D01*
X199050534Y-79116821D01*
X199549002Y-80176716D01*
X199550001Y-80178894D01*
X199569008Y-80221413D01*
X200028959Y-81250335D01*
X200029928Y-81252559D01*
X200489179Y-82335409D01*
X200490105Y-82337654D01*
X200929311Y-83431423D01*
X200930196Y-83433688D01*
X201349226Y-84538395D01*
X201350067Y-84540680D01*
X201660219Y-85408555D01*
X201748622Y-85655928D01*
X201749411Y-85658206D01*
X201765526Y-85706208D01*
X202127261Y-86783771D01*
X202128015Y-86786092D01*
X202484917Y-87921708D01*
X202485628Y-87924047D01*
X202821360Y-89069531D01*
X202822025Y-89071886D01*
X202836515Y-89125135D01*
X203089958Y-90056505D01*
X203136321Y-90226885D01*
X203136942Y-90229256D01*
X203429573Y-91393578D01*
X203430148Y-91395964D01*
X203700888Y-92569402D01*
X203701417Y-92571802D01*
X203950028Y-93754135D01*
X203950510Y-93756547D01*
X204176711Y-94947315D01*
X204177147Y-94949740D01*
X204380737Y-96148892D01*
X204381126Y-96151327D01*
X204561852Y-97358568D01*
X204562194Y-97361014D01*
X204719823Y-98576129D01*
X204720117Y-98578583D01*
X204854398Y-99801270D01*
X204854644Y-99803731D01*
X204965342Y-101033758D01*
X204965539Y-101036226D01*
X205050975Y-102252882D01*
X205052406Y-102273266D01*
X205052553Y-102275693D01*
X205108084Y-103375572D01*
X205115366Y-103519807D01*
X205115466Y-103522283D01*
X205153962Y-104772838D01*
X205154013Y-104775287D01*
X205167195Y-105963109D01*
X205167944Y-106030650D01*
X205167950Y-106032772D01*
X205167523Y-106102551D01*
X205169990Y-106111182D01*
X205169990Y-106111184D01*
X205173728Y-106124263D01*
X205178579Y-106158887D01*
X205178579Y-119238680D01*
X205158577Y-119306801D01*
X205104921Y-119353294D01*
X205052579Y-119364680D01*
X89587421Y-119364680D01*
X89519300Y-119344678D01*
X89472807Y-119291022D01*
X89461421Y-119238680D01*
X89461421Y-115460283D01*
X91803978Y-115460283D01*
X91834286Y-115594763D01*
X91837366Y-115604592D01*
X91917491Y-115801920D01*
X91922134Y-115811111D01*
X92033415Y-115992705D01*
X92039498Y-116001016D01*
X92178934Y-116161984D01*
X92186301Y-116169200D01*
X92350155Y-116305233D01*
X92358602Y-116311148D01*
X92542477Y-116418596D01*
X92551763Y-116423046D01*
X92750722Y-116499020D01*
X92760620Y-116501896D01*
X92863971Y-116522923D01*
X92878020Y-116521727D01*
X92881721Y-116511382D01*
X92881721Y-115464432D01*
X92877246Y-115449193D01*
X92875856Y-115447988D01*
X92868173Y-115446317D01*
X91818946Y-115446317D01*
X91805415Y-115450290D01*
X91803978Y-115460283D01*
X89461421Y-115460283D01*
X89461421Y-113550451D01*
X91777221Y-113550451D01*
X91783976Y-113612633D01*
X91835106Y-113749022D01*
X91922460Y-113865578D01*
X92039016Y-113952932D01*
X92047425Y-113956084D01*
X92047426Y-113956085D01*
X92156681Y-113997043D01*
X92213446Y-114039684D01*
X92238146Y-114106246D01*
X92222939Y-114175595D01*
X92203546Y-114202076D01*
X92080311Y-114331034D01*
X92073825Y-114339044D01*
X91953819Y-114514966D01*
X91948721Y-114523940D01*
X91859059Y-114717100D01*
X91855496Y-114726787D01*
X91800110Y-114926500D01*
X91801633Y-114934924D01*
X91814013Y-114938317D01*
X93263721Y-114938317D01*
X93331842Y-114958319D01*
X93378335Y-115011975D01*
X93389721Y-115064317D01*
X93389721Y-116510834D01*
X93393785Y-116524676D01*
X93407199Y-116526710D01*
X93413905Y-116525851D01*
X93423983Y-116523709D01*
X93627976Y-116462508D01*
X93637563Y-116458750D01*
X93828816Y-116365056D01*
X93837666Y-116359781D01*
X94011049Y-116236109D01*
X94018921Y-116229456D01*
X94169773Y-116079129D01*
X94176451Y-116071282D01*
X94303743Y-115894136D01*
X94305000Y-115895039D01*
X94352094Y-115851679D01*
X94422032Y-115839462D01*
X94487472Y-115866995D01*
X94515300Y-115898828D01*
X94533031Y-115927762D01*
X94575708Y-115997405D01*
X94721971Y-116166255D01*
X94893847Y-116308949D01*
X95086721Y-116421655D01*
X95295413Y-116501347D01*
X95300481Y-116502378D01*
X95300484Y-116502379D01*
X95395583Y-116521727D01*
X95514318Y-116545884D01*
X95519493Y-116546074D01*
X95519495Y-116546074D01*
X95732394Y-116553881D01*
X95732398Y-116553881D01*
X95737558Y-116554070D01*
X95742678Y-116553414D01*
X95742680Y-116553414D01*
X95954009Y-116526342D01*
X95954010Y-116526342D01*
X95959137Y-116525685D01*
X95964087Y-116524200D01*
X96168150Y-116462978D01*
X96168155Y-116462976D01*
X96173105Y-116461491D01*
X96373715Y-116363213D01*
X96555581Y-116233490D01*
X96584673Y-116204500D01*
X96710156Y-116079454D01*
X96713817Y-116075806D01*
X96802333Y-115952623D01*
X96844174Y-115894394D01*
X96845497Y-115895345D01*
X96892366Y-115852174D01*
X96962301Y-115839942D01*
X97027747Y-115867461D01*
X97055596Y-115899311D01*
X97115708Y-115997405D01*
X97261971Y-116166255D01*
X97433847Y-116308949D01*
X97626721Y-116421655D01*
X97835413Y-116501347D01*
X97840481Y-116502378D01*
X97840484Y-116502379D01*
X97935583Y-116521727D01*
X98054318Y-116545884D01*
X98059493Y-116546074D01*
X98059495Y-116546074D01*
X98272394Y-116553881D01*
X98272398Y-116553881D01*
X98277558Y-116554070D01*
X98282678Y-116553414D01*
X98282680Y-116553414D01*
X98356135Y-116544004D01*
X98499137Y-116525685D01*
X98504090Y-116524199D01*
X98504095Y-116524198D01*
X98533738Y-116515304D01*
X98543372Y-116512414D01*
X98614367Y-116511996D01*
X98668675Y-116544004D01*
X99358154Y-117233483D01*
X99365730Y-117241809D01*
X99369851Y-117248303D01*
X99375626Y-117253726D01*
X99419669Y-117295085D01*
X99422511Y-117297840D01*
X99442310Y-117317639D01*
X99445441Y-117320068D01*
X99445446Y-117320072D01*
X99445532Y-117320139D01*
X99454557Y-117327847D01*
X99486898Y-117358217D01*
X99493843Y-117362035D01*
X99493847Y-117362038D01*
X99504738Y-117368026D01*
X99521259Y-117378878D01*
X99537338Y-117391350D01*
X99578059Y-117408971D01*
X99588715Y-117414192D01*
X99620649Y-117431748D01*
X99620655Y-117431750D01*
X99627601Y-117435569D01*
X99635276Y-117437540D01*
X99635282Y-117437542D01*
X99647315Y-117440631D01*
X99666017Y-117447034D01*
X99684696Y-117455117D01*
X99692522Y-117456357D01*
X99692527Y-117456358D01*
X99728524Y-117462060D01*
X99740144Y-117464466D01*
X99775441Y-117473528D01*
X99783122Y-117475500D01*
X99803470Y-117475500D01*
X99823182Y-117477051D01*
X99843284Y-117480235D01*
X99887459Y-117476059D01*
X99899318Y-117475500D01*
X179633601Y-117475500D01*
X179701722Y-117495502D01*
X179718908Y-117510109D01*
X179719420Y-117509540D01*
X179724332Y-117513963D01*
X179728747Y-117518866D01*
X179883248Y-117631118D01*
X179889276Y-117633802D01*
X179889278Y-117633803D01*
X180051681Y-117706109D01*
X180057712Y-117708794D01*
X180151113Y-117728647D01*
X180238056Y-117747128D01*
X180238061Y-117747128D01*
X180244513Y-117748500D01*
X180435487Y-117748500D01*
X180441939Y-117747128D01*
X180441944Y-117747128D01*
X180528887Y-117728647D01*
X180622288Y-117708794D01*
X180628319Y-117706109D01*
X180790722Y-117633803D01*
X180790724Y-117633802D01*
X180796752Y-117631118D01*
X180951253Y-117518866D01*
X180972290Y-117495502D01*
X181074621Y-117381852D01*
X181074622Y-117381851D01*
X181079040Y-117376944D01*
X181158246Y-117239756D01*
X181171223Y-117217279D01*
X181171224Y-117217278D01*
X181174527Y-117211556D01*
X181233542Y-117029928D01*
X181236390Y-117002836D01*
X181252814Y-116846565D01*
X181253504Y-116840000D01*
X181250768Y-116813964D01*
X181234232Y-116656635D01*
X181234232Y-116656633D01*
X181233542Y-116650072D01*
X181174527Y-116468444D01*
X181079040Y-116303056D01*
X181043861Y-116263985D01*
X180955675Y-116166045D01*
X180955674Y-116166044D01*
X180951253Y-116161134D01*
X180838831Y-116079454D01*
X180802094Y-116052763D01*
X180802093Y-116052762D01*
X180796752Y-116048882D01*
X180790724Y-116046198D01*
X180790722Y-116046197D01*
X180628319Y-115973891D01*
X180628318Y-115973891D01*
X180622288Y-115971206D01*
X180517719Y-115948979D01*
X180441944Y-115932872D01*
X180441939Y-115932872D01*
X180435487Y-115931500D01*
X180244513Y-115931500D01*
X180238061Y-115932872D01*
X180238056Y-115932872D01*
X180162281Y-115948979D01*
X180057712Y-115971206D01*
X180051682Y-115973891D01*
X180051681Y-115973891D01*
X179889278Y-116046197D01*
X179889276Y-116046198D01*
X179883248Y-116048882D01*
X179877907Y-116052762D01*
X179877906Y-116052763D01*
X179841169Y-116079454D01*
X179728747Y-116161134D01*
X179724332Y-116166037D01*
X179719420Y-116170460D01*
X179717779Y-116168638D01*
X179666790Y-116200050D01*
X179633601Y-116204500D01*
X111899582Y-116204500D01*
X111831461Y-116184498D01*
X111784968Y-116130842D01*
X111774864Y-116060568D01*
X111785429Y-116026524D01*
X111785232Y-116026446D01*
X111786253Y-116023868D01*
X111786622Y-116022678D01*
X111787134Y-116021641D01*
X111790932Y-116012049D01*
X111852840Y-115808287D01*
X111855018Y-115798214D01*
X111856449Y-115787339D01*
X111854238Y-115773155D01*
X111841080Y-115769377D01*
X110394463Y-115769377D01*
X110326342Y-115749375D01*
X110279849Y-115695719D01*
X110268463Y-115643377D01*
X110268463Y-115243262D01*
X110776463Y-115243262D01*
X110780938Y-115258501D01*
X110782328Y-115259706D01*
X110790011Y-115261377D01*
X111840807Y-115261377D01*
X111854338Y-115257404D01*
X111855643Y-115248324D01*
X111813677Y-115081252D01*
X111810357Y-115071501D01*
X111725435Y-114876191D01*
X111720568Y-114867116D01*
X111604889Y-114688303D01*
X111598599Y-114680134D01*
X111455269Y-114522617D01*
X111447736Y-114515592D01*
X111280602Y-114383599D01*
X111272015Y-114377894D01*
X111085580Y-114274976D01*
X111076168Y-114270746D01*
X110875422Y-114199657D01*
X110865451Y-114197023D01*
X110794300Y-114184349D01*
X110781003Y-114185809D01*
X110776463Y-114200366D01*
X110776463Y-115243262D01*
X110268463Y-115243262D01*
X110268463Y-114198479D01*
X110264545Y-114185135D01*
X110250269Y-114183148D01*
X110211787Y-114189037D01*
X110201751Y-114191428D01*
X109999331Y-114257589D01*
X109989822Y-114261586D01*
X109800926Y-114359919D01*
X109792201Y-114365413D01*
X109621896Y-114493282D01*
X109614189Y-114500125D01*
X109536941Y-114580961D01*
X109475417Y-114616391D01*
X109404505Y-114612934D01*
X109346718Y-114571688D01*
X109327865Y-114538140D01*
X109286230Y-114427080D01*
X109283078Y-114418672D01*
X109195724Y-114302116D01*
X109079168Y-114214762D01*
X108942779Y-114163632D01*
X108880597Y-114156877D01*
X107574886Y-114156877D01*
X107506765Y-114136875D01*
X107485791Y-114119972D01*
X106988142Y-113622323D01*
X106980566Y-113613997D01*
X106976445Y-113607503D01*
X106926626Y-113560720D01*
X106923785Y-113557966D01*
X106903986Y-113538167D01*
X106900861Y-113535743D01*
X106900852Y-113535735D01*
X106900766Y-113535669D01*
X106891742Y-113527962D01*
X106868001Y-113505668D01*
X106832035Y-113444455D01*
X106834872Y-113373515D01*
X106875612Y-113315371D01*
X106941320Y-113288482D01*
X106954253Y-113287817D01*
X182263981Y-113287817D01*
X182332102Y-113307819D01*
X182353076Y-113324722D01*
X184091627Y-115063273D01*
X184125653Y-115125585D01*
X184123949Y-115186039D01*
X184103452Y-115259947D01*
X184102904Y-115265077D01*
X184102903Y-115265081D01*
X184096636Y-115323725D01*
X184079714Y-115482072D01*
X184080011Y-115487225D01*
X184080011Y-115487228D01*
X184086511Y-115599956D01*
X184092573Y-115705092D01*
X184093710Y-115710138D01*
X184093711Y-115710144D01*
X184107060Y-115769377D01*
X184141685Y-115923016D01*
X184225729Y-116129993D01*
X184268660Y-116200050D01*
X184339754Y-116316065D01*
X184342450Y-116320465D01*
X184488713Y-116489315D01*
X184660589Y-116632009D01*
X184853463Y-116744715D01*
X185062155Y-116824407D01*
X185067223Y-116825438D01*
X185067226Y-116825439D01*
X185159863Y-116844286D01*
X185281060Y-116868944D01*
X185286235Y-116869134D01*
X185286237Y-116869134D01*
X185499136Y-116876941D01*
X185499140Y-116876941D01*
X185504300Y-116877130D01*
X185509420Y-116876474D01*
X185509422Y-116876474D01*
X185720751Y-116849402D01*
X185720752Y-116849402D01*
X185725879Y-116848745D01*
X185730829Y-116847260D01*
X185934892Y-116786038D01*
X185934897Y-116786036D01*
X185939847Y-116784551D01*
X186140457Y-116686273D01*
X186322323Y-116556550D01*
X186333027Y-116545884D01*
X186476898Y-116402514D01*
X186480559Y-116398866D01*
X186540057Y-116316066D01*
X186610916Y-116217454D01*
X186612239Y-116218405D01*
X186659108Y-116175234D01*
X186729043Y-116163002D01*
X186794489Y-116190521D01*
X186822338Y-116222371D01*
X186882450Y-116320465D01*
X187028713Y-116489315D01*
X187200589Y-116632009D01*
X187393463Y-116744715D01*
X187602155Y-116824407D01*
X187607223Y-116825438D01*
X187607226Y-116825439D01*
X187699863Y-116844286D01*
X187821060Y-116868944D01*
X187826235Y-116869134D01*
X187826237Y-116869134D01*
X188039136Y-116876941D01*
X188039140Y-116876941D01*
X188044300Y-116877130D01*
X188049420Y-116876474D01*
X188049422Y-116876474D01*
X188118616Y-116867610D01*
X188265879Y-116848745D01*
X188312273Y-116834826D01*
X188383266Y-116834410D01*
X188434730Y-116863661D01*
X188443090Y-116871511D01*
X188455957Y-116883594D01*
X188462902Y-116887412D01*
X188462906Y-116887415D01*
X188473797Y-116893403D01*
X188490318Y-116904255D01*
X188506397Y-116916727D01*
X188547125Y-116934351D01*
X188557782Y-116939573D01*
X188589709Y-116957125D01*
X188589712Y-116957126D01*
X188596660Y-116960946D01*
X188616378Y-116966009D01*
X188635074Y-116972410D01*
X188653756Y-116980494D01*
X188661580Y-116981733D01*
X188661586Y-116981735D01*
X188697583Y-116987437D01*
X188709203Y-116989843D01*
X188744500Y-116998905D01*
X188752181Y-117000877D01*
X188772529Y-117000877D01*
X188792241Y-117002428D01*
X188812343Y-117005612D01*
X188856518Y-117001436D01*
X188868377Y-117000877D01*
X200258278Y-117000877D01*
X200269512Y-117001407D01*
X200277017Y-117003085D01*
X200345310Y-117000939D01*
X200349267Y-117000877D01*
X200377281Y-117000877D01*
X200381206Y-117000381D01*
X200381207Y-117000381D01*
X200381302Y-117000369D01*
X200393147Y-116999436D01*
X200422968Y-116998499D01*
X200429580Y-116998291D01*
X200429581Y-116998291D01*
X200437503Y-116998042D01*
X200457047Y-116992364D01*
X200476410Y-116988354D01*
X200488738Y-116986797D01*
X200488740Y-116986797D01*
X200496597Y-116985804D01*
X200503961Y-116982888D01*
X200503966Y-116982887D01*
X200537854Y-116969470D01*
X200549083Y-116965625D01*
X200565763Y-116960779D01*
X200591691Y-116953246D01*
X200598518Y-116949208D01*
X200598521Y-116949207D01*
X200609204Y-116942889D01*
X200626962Y-116934189D01*
X200638513Y-116929616D01*
X200638519Y-116929612D01*
X200645886Y-116926696D01*
X200681789Y-116900611D01*
X200691708Y-116894096D01*
X200723066Y-116875551D01*
X200723070Y-116875548D01*
X200729896Y-116871511D01*
X200744280Y-116857127D01*
X200759314Y-116844286D01*
X200769371Y-116836979D01*
X200775785Y-116832319D01*
X200804076Y-116798121D01*
X200812065Y-116789342D01*
X201338124Y-116263283D01*
X201400436Y-116229257D01*
X201452337Y-116228907D01*
X201629822Y-116265017D01*
X201634997Y-116265207D01*
X201634999Y-116265207D01*
X201847898Y-116273014D01*
X201847902Y-116273014D01*
X201853062Y-116273203D01*
X201858182Y-116272547D01*
X201858184Y-116272547D01*
X202069513Y-116245475D01*
X202069514Y-116245475D01*
X202074641Y-116244818D01*
X202079591Y-116243333D01*
X202283654Y-116182111D01*
X202283659Y-116182109D01*
X202288609Y-116180624D01*
X202489219Y-116082346D01*
X202671085Y-115952623D01*
X202829321Y-115794939D01*
X202959678Y-115613527D01*
X202972322Y-115587945D01*
X203056361Y-115417903D01*
X203056362Y-115417901D01*
X203058655Y-115413261D01*
X203105309Y-115259706D01*
X203122090Y-115204473D01*
X203122090Y-115204471D01*
X203123595Y-115199519D01*
X203152754Y-114978040D01*
X203153725Y-114938317D01*
X203154299Y-114914815D01*
X203154299Y-114914811D01*
X203154381Y-114911450D01*
X203136077Y-114688811D01*
X203081656Y-114472152D01*
X202992579Y-114267290D01*
X202924968Y-114162779D01*
X202874047Y-114084067D01*
X202874045Y-114084064D01*
X202871239Y-114079727D01*
X202720895Y-113914501D01*
X202716844Y-113911302D01*
X202716840Y-113911298D01*
X202549639Y-113779250D01*
X202549635Y-113779248D01*
X202545584Y-113776048D01*
X202504278Y-113753246D01*
X202454309Y-113702814D01*
X202439537Y-113633371D01*
X202464653Y-113566966D01*
X202492005Y-113540359D01*
X202551966Y-113497589D01*
X202671085Y-113412623D01*
X202690960Y-113392818D01*
X202790055Y-113294068D01*
X202829321Y-113254939D01*
X202959678Y-113073527D01*
X202980545Y-113031307D01*
X203056361Y-112877903D01*
X203056362Y-112877901D01*
X203058655Y-112873261D01*
X203123595Y-112659519D01*
X203152754Y-112438040D01*
X203154381Y-112371450D01*
X203136077Y-112148811D01*
X203081656Y-111932152D01*
X202992579Y-111727290D01*
X202886955Y-111564020D01*
X202874047Y-111544067D01*
X202874045Y-111544064D01*
X202871239Y-111539727D01*
X202720895Y-111374501D01*
X202716844Y-111371302D01*
X202716840Y-111371298D01*
X202549639Y-111239250D01*
X202549635Y-111239248D01*
X202545584Y-111236048D01*
X202350014Y-111128088D01*
X202345145Y-111126364D01*
X202345141Y-111126362D01*
X202144312Y-111055245D01*
X202144308Y-111055244D01*
X202139437Y-111053519D01*
X202134344Y-111052612D01*
X202134341Y-111052611D01*
X201924598Y-111015250D01*
X201924592Y-111015249D01*
X201919509Y-111014344D01*
X201845677Y-111013442D01*
X201701306Y-111011678D01*
X201701304Y-111011678D01*
X201696136Y-111011615D01*
X201475316Y-111045405D01*
X201262981Y-111114807D01*
X201064832Y-111217957D01*
X201060699Y-111221060D01*
X201060696Y-111221062D01*
X200907464Y-111336112D01*
X200886190Y-111352085D01*
X200882618Y-111355823D01*
X200742996Y-111501929D01*
X200731854Y-111513588D01*
X200624426Y-111671071D01*
X200569518Y-111716071D01*
X200498993Y-111724242D01*
X200435246Y-111692988D01*
X200414549Y-111668504D01*
X200334047Y-111544067D01*
X200334045Y-111544064D01*
X200331239Y-111539727D01*
X200180895Y-111374501D01*
X200176844Y-111371302D01*
X200176840Y-111371298D01*
X200009639Y-111239250D01*
X200009635Y-111239248D01*
X200005584Y-111236048D01*
X199810014Y-111128088D01*
X199805145Y-111126364D01*
X199805141Y-111126362D01*
X199604312Y-111055245D01*
X199604308Y-111055244D01*
X199599437Y-111053519D01*
X199594344Y-111052612D01*
X199594341Y-111052611D01*
X199384598Y-111015250D01*
X199384592Y-111015249D01*
X199379509Y-111014344D01*
X199305677Y-111013442D01*
X199161306Y-111011678D01*
X199161304Y-111011678D01*
X199156136Y-111011615D01*
X198935316Y-111045405D01*
X198722981Y-111114807D01*
X198524832Y-111217957D01*
X198520699Y-111221060D01*
X198520696Y-111221062D01*
X198367464Y-111336112D01*
X198346190Y-111352085D01*
X198289762Y-111411134D01*
X198265508Y-111436514D01*
X198203984Y-111471944D01*
X198133071Y-111468487D01*
X198075285Y-111427241D01*
X198056432Y-111393693D01*
X198014992Y-111283153D01*
X198011840Y-111274745D01*
X197924486Y-111158189D01*
X197807930Y-111070835D01*
X197671541Y-111019705D01*
X197609359Y-111012950D01*
X196303648Y-111012950D01*
X196235527Y-110992948D01*
X196214553Y-110976045D01*
X176490530Y-91252022D01*
X176456504Y-91189710D01*
X176453625Y-91162927D01*
X176453625Y-64887340D01*
X176473627Y-64819219D01*
X176527283Y-64772726D01*
X176597557Y-64762622D01*
X176624571Y-64769629D01*
X176801306Y-64837118D01*
X176806374Y-64838149D01*
X176806377Y-64838150D01*
X176901476Y-64857498D01*
X177020211Y-64881655D01*
X177025386Y-64881845D01*
X177025388Y-64881845D01*
X177238287Y-64889652D01*
X177238291Y-64889652D01*
X177243451Y-64889841D01*
X177248571Y-64889185D01*
X177248573Y-64889185D01*
X177459902Y-64862113D01*
X177459903Y-64862113D01*
X177465030Y-64861456D01*
X177469980Y-64859971D01*
X177674043Y-64798749D01*
X177674048Y-64798747D01*
X177678998Y-64797262D01*
X177879608Y-64698984D01*
X178061474Y-64569261D01*
X178219710Y-64411577D01*
X178350067Y-64230165D01*
X178351390Y-64231116D01*
X178398259Y-64187945D01*
X178468194Y-64175713D01*
X178533640Y-64203232D01*
X178561489Y-64235082D01*
X178621601Y-64333176D01*
X178767864Y-64502026D01*
X178939740Y-64644720D01*
X179132614Y-64757426D01*
X179137439Y-64759268D01*
X179137440Y-64759269D01*
X179210226Y-64787063D01*
X179341306Y-64837118D01*
X179346374Y-64838149D01*
X179346377Y-64838150D01*
X179441476Y-64857498D01*
X179560211Y-64881655D01*
X179565386Y-64881845D01*
X179565388Y-64881845D01*
X179778287Y-64889652D01*
X179778291Y-64889652D01*
X179783451Y-64889841D01*
X179788571Y-64889185D01*
X179788573Y-64889185D01*
X179999902Y-64862113D01*
X179999903Y-64862113D01*
X180005030Y-64861456D01*
X180009980Y-64859971D01*
X180214043Y-64798749D01*
X180214048Y-64798747D01*
X180218998Y-64797262D01*
X180419608Y-64698984D01*
X180601474Y-64569261D01*
X180759710Y-64411577D01*
X180890067Y-64230165D01*
X180910934Y-64187945D01*
X180986750Y-64034541D01*
X180986751Y-64034539D01*
X180989044Y-64029899D01*
X181053984Y-63816157D01*
X181083143Y-63594678D01*
X181084770Y-63528088D01*
X181066466Y-63305449D01*
X181012045Y-63088790D01*
X180922968Y-62883928D01*
X180801628Y-62696365D01*
X180651284Y-62531139D01*
X180647233Y-62527940D01*
X180647229Y-62527936D01*
X180480028Y-62395888D01*
X180480024Y-62395886D01*
X180475973Y-62392686D01*
X180434667Y-62369884D01*
X180384698Y-62319452D01*
X180369926Y-62250009D01*
X180395042Y-62183604D01*
X180422394Y-62156997D01*
X180466217Y-62125738D01*
X180601474Y-62029261D01*
X180759710Y-61871577D01*
X180847368Y-61749588D01*
X180887049Y-61694365D01*
X180890067Y-61690165D01*
X180910934Y-61647945D01*
X180986750Y-61494541D01*
X180986751Y-61494539D01*
X180989044Y-61489899D01*
X181053984Y-61276157D01*
X181083143Y-61054678D01*
X181084770Y-60988088D01*
X181066466Y-60765449D01*
X181012045Y-60548790D01*
X180922968Y-60343928D01*
X180801628Y-60156365D01*
X180651284Y-59991139D01*
X180647233Y-59987940D01*
X180647229Y-59987936D01*
X180480028Y-59855888D01*
X180480024Y-59855886D01*
X180475973Y-59852686D01*
X180280403Y-59744726D01*
X180275534Y-59743002D01*
X180275530Y-59743000D01*
X180074701Y-59671883D01*
X180074697Y-59671882D01*
X180069826Y-59670157D01*
X180064733Y-59669250D01*
X180064730Y-59669249D01*
X179854987Y-59631888D01*
X179854981Y-59631887D01*
X179849898Y-59630982D01*
X179776066Y-59630080D01*
X179631695Y-59628316D01*
X179631693Y-59628316D01*
X179626525Y-59628253D01*
X179405705Y-59662043D01*
X179193370Y-59731445D01*
X178995221Y-59834595D01*
X178991088Y-59837698D01*
X178991085Y-59837700D01*
X178820714Y-59965618D01*
X178816579Y-59968723D01*
X178813007Y-59972461D01*
X178705343Y-60085125D01*
X178662243Y-60130226D01*
X178554815Y-60287709D01*
X178499907Y-60332709D01*
X178429382Y-60340880D01*
X178365635Y-60309626D01*
X178344938Y-60285142D01*
X178264436Y-60160705D01*
X178264434Y-60160702D01*
X178261628Y-60156365D01*
X178111284Y-59991139D01*
X178107233Y-59987940D01*
X178107229Y-59987936D01*
X177940028Y-59855888D01*
X177940024Y-59855886D01*
X177935973Y-59852686D01*
X177740403Y-59744726D01*
X177735534Y-59743002D01*
X177735530Y-59743000D01*
X177534701Y-59671883D01*
X177534697Y-59671882D01*
X177529826Y-59670157D01*
X177524733Y-59669250D01*
X177524730Y-59669249D01*
X177314987Y-59631888D01*
X177314981Y-59631887D01*
X177309898Y-59630982D01*
X177236066Y-59630080D01*
X177091695Y-59628316D01*
X177091693Y-59628316D01*
X177086525Y-59628253D01*
X176865705Y-59662043D01*
X176653370Y-59731445D01*
X176455221Y-59834595D01*
X176451088Y-59837698D01*
X176451085Y-59837700D01*
X176280714Y-59965618D01*
X176276579Y-59968723D01*
X176220151Y-60027772D01*
X176195897Y-60053152D01*
X176134373Y-60088582D01*
X176063460Y-60085125D01*
X176005674Y-60043879D01*
X175986821Y-60010331D01*
X175945381Y-59899791D01*
X175942229Y-59891383D01*
X175854875Y-59774827D01*
X175738319Y-59687473D01*
X175601930Y-59636343D01*
X175539748Y-59629588D01*
X173743480Y-59629588D01*
X173681298Y-59636343D01*
X173544909Y-59687473D01*
X173428353Y-59774827D01*
X173340999Y-59891383D01*
X173289869Y-60027772D01*
X173283114Y-60089954D01*
X173283114Y-60226588D01*
X173263112Y-60294709D01*
X173209456Y-60341202D01*
X173157114Y-60352588D01*
X134963511Y-60352588D01*
X134895390Y-60332586D01*
X134874416Y-60315683D01*
X132014254Y-57455521D01*
X131980228Y-57393209D01*
X131985293Y-57322394D01*
X132027840Y-57265558D01*
X132094360Y-57240747D01*
X132107966Y-57240511D01*
X132136673Y-57241564D01*
X132136677Y-57241564D01*
X132141837Y-57241753D01*
X132146957Y-57241097D01*
X132146959Y-57241097D01*
X132358288Y-57214025D01*
X132358289Y-57214025D01*
X132363416Y-57213368D01*
X132368366Y-57211883D01*
X132572429Y-57150661D01*
X132572434Y-57150659D01*
X132577384Y-57149174D01*
X132777994Y-57050896D01*
X132959860Y-56921173D01*
X133118096Y-56763489D01*
X133248453Y-56582077D01*
X133249776Y-56583028D01*
X133296645Y-56539857D01*
X133366580Y-56527625D01*
X133432026Y-56555144D01*
X133459875Y-56586994D01*
X133519987Y-56685088D01*
X133666250Y-56853938D01*
X133838126Y-56996632D01*
X134031000Y-57109338D01*
X134239692Y-57189030D01*
X134244760Y-57190061D01*
X134244763Y-57190062D01*
X134339862Y-57209410D01*
X134458597Y-57233567D01*
X134463772Y-57233757D01*
X134463774Y-57233757D01*
X134676673Y-57241564D01*
X134676677Y-57241564D01*
X134681837Y-57241753D01*
X134686957Y-57241097D01*
X134686959Y-57241097D01*
X134898288Y-57214025D01*
X134898289Y-57214025D01*
X134903416Y-57213368D01*
X134908366Y-57211883D01*
X135112429Y-57150661D01*
X135112434Y-57150659D01*
X135117384Y-57149174D01*
X135317994Y-57050896D01*
X135499860Y-56921173D01*
X135658096Y-56763489D01*
X135788453Y-56582077D01*
X135809320Y-56539857D01*
X135885136Y-56386453D01*
X135885137Y-56386451D01*
X135887430Y-56381811D01*
X135952370Y-56168069D01*
X135981529Y-55946590D01*
X135983156Y-55880000D01*
X135964852Y-55657361D01*
X135910431Y-55440702D01*
X135821354Y-55235840D01*
X135743792Y-55115947D01*
X135702822Y-55052617D01*
X135702820Y-55052614D01*
X135700014Y-55048277D01*
X135549670Y-54883051D01*
X135545619Y-54879852D01*
X135545615Y-54879848D01*
X135378414Y-54747800D01*
X135378410Y-54747798D01*
X135374359Y-54744598D01*
X135333053Y-54721796D01*
X135283084Y-54671364D01*
X135268312Y-54601921D01*
X135293428Y-54535516D01*
X135320780Y-54508909D01*
X135364603Y-54477650D01*
X135499860Y-54381173D01*
X135658096Y-54223489D01*
X135788453Y-54042077D01*
X135809320Y-53999857D01*
X135885136Y-53846453D01*
X135885137Y-53846451D01*
X135887430Y-53841811D01*
X135932959Y-53691957D01*
X135950865Y-53633023D01*
X135950865Y-53633021D01*
X135952370Y-53628069D01*
X135981529Y-53406590D01*
X135983156Y-53340000D01*
X135964852Y-53117361D01*
X135910431Y-52900702D01*
X135821354Y-52695840D01*
X135781906Y-52634862D01*
X135702822Y-52512617D01*
X135702820Y-52512614D01*
X135700014Y-52508277D01*
X135549670Y-52343051D01*
X135545619Y-52339852D01*
X135545615Y-52339848D01*
X135378414Y-52207800D01*
X135378410Y-52207798D01*
X135374359Y-52204598D01*
X135178789Y-52096638D01*
X135173920Y-52094914D01*
X135173916Y-52094912D01*
X134973087Y-52023795D01*
X134973083Y-52023794D01*
X134968212Y-52022069D01*
X134963119Y-52021162D01*
X134963116Y-52021161D01*
X134753373Y-51983800D01*
X134753367Y-51983799D01*
X134748284Y-51982894D01*
X134674452Y-51981992D01*
X134530081Y-51980228D01*
X134530079Y-51980228D01*
X134524911Y-51980165D01*
X134304091Y-52013955D01*
X134091756Y-52083357D01*
X133893607Y-52186507D01*
X133889474Y-52189610D01*
X133889471Y-52189612D01*
X133719100Y-52317530D01*
X133714965Y-52320635D01*
X133711393Y-52324373D01*
X133574895Y-52467210D01*
X133560629Y-52482138D01*
X133453201Y-52639621D01*
X133398293Y-52684621D01*
X133327768Y-52692792D01*
X133264021Y-52661538D01*
X133243324Y-52637054D01*
X133162822Y-52512617D01*
X133162820Y-52512614D01*
X133160014Y-52508277D01*
X133009670Y-52343051D01*
X133005619Y-52339852D01*
X133005615Y-52339848D01*
X132838414Y-52207800D01*
X132838410Y-52207798D01*
X132834359Y-52204598D01*
X132638789Y-52096638D01*
X132633920Y-52094914D01*
X132633916Y-52094912D01*
X132433087Y-52023795D01*
X132433083Y-52023794D01*
X132428212Y-52022069D01*
X132423119Y-52021162D01*
X132423116Y-52021161D01*
X132213373Y-51983800D01*
X132213367Y-51983799D01*
X132208284Y-51982894D01*
X132134452Y-51981992D01*
X131990081Y-51980228D01*
X131990079Y-51980228D01*
X131984911Y-51980165D01*
X131764091Y-52013955D01*
X131551756Y-52083357D01*
X131353607Y-52186507D01*
X131349474Y-52189610D01*
X131349471Y-52189612D01*
X131179100Y-52317530D01*
X131174965Y-52320635D01*
X131118537Y-52379684D01*
X131094283Y-52405064D01*
X131032759Y-52440494D01*
X130961846Y-52437037D01*
X130904060Y-52395791D01*
X130885207Y-52362243D01*
X130845899Y-52257389D01*
X130840615Y-52243295D01*
X130753261Y-52126739D01*
X130636705Y-52039385D01*
X130500316Y-51988255D01*
X130438134Y-51981500D01*
X128641866Y-51981500D01*
X128579684Y-51988255D01*
X128443295Y-52039385D01*
X128326739Y-52126739D01*
X128239385Y-52243295D01*
X128188255Y-52379684D01*
X128181500Y-52441866D01*
X128181500Y-54238134D01*
X128188255Y-54300316D01*
X128239385Y-54436705D01*
X128326739Y-54553261D01*
X128443295Y-54640615D01*
X128451704Y-54643767D01*
X128451705Y-54643768D01*
X128560960Y-54684726D01*
X128617725Y-54727367D01*
X128642425Y-54793929D01*
X128627218Y-54863278D01*
X128607825Y-54889759D01*
X128484590Y-55018717D01*
X128478104Y-55026727D01*
X128358098Y-55202649D01*
X128353000Y-55211623D01*
X128263338Y-55404783D01*
X128259775Y-55414470D01*
X128204389Y-55614183D01*
X128205912Y-55622607D01*
X128218292Y-55626000D01*
X129668000Y-55626000D01*
X129736121Y-55646002D01*
X129782614Y-55699658D01*
X129794000Y-55752000D01*
X129794000Y-57198517D01*
X129798064Y-57212359D01*
X129811478Y-57214393D01*
X129818184Y-57213534D01*
X129828262Y-57211392D01*
X130032255Y-57150191D01*
X130041837Y-57146435D01*
X130086007Y-57124797D01*
X130155981Y-57112791D01*
X130221338Y-57140522D01*
X130261328Y-57199185D01*
X130267377Y-57233993D01*
X130267927Y-57251502D01*
X130267989Y-57255458D01*
X130267989Y-57283472D01*
X130268485Y-57287397D01*
X130268485Y-57287398D01*
X130268497Y-57287493D01*
X130269430Y-57299338D01*
X130270824Y-57343694D01*
X130273036Y-57351306D01*
X130276502Y-57363237D01*
X130280512Y-57382601D01*
X130283062Y-57402788D01*
X130285978Y-57410152D01*
X130285979Y-57410157D01*
X130299396Y-57444045D01*
X130303241Y-57455274D01*
X130315620Y-57497882D01*
X130319658Y-57504709D01*
X130319659Y-57504712D01*
X130325977Y-57515395D01*
X130334677Y-57533153D01*
X130339250Y-57544704D01*
X130339254Y-57544710D01*
X130342170Y-57552077D01*
X130346828Y-57558488D01*
X130346829Y-57558490D01*
X130368253Y-57587977D01*
X130374770Y-57597899D01*
X130393315Y-57629257D01*
X130393318Y-57629261D01*
X130397355Y-57636087D01*
X130411739Y-57650471D01*
X130424580Y-57665505D01*
X130436547Y-57681976D01*
X130442655Y-57687029D01*
X130470744Y-57710266D01*
X130479524Y-57718256D01*
X134142838Y-61381571D01*
X134150414Y-61389897D01*
X134154535Y-61396391D01*
X134160310Y-61401814D01*
X134204353Y-61443173D01*
X134207195Y-61445928D01*
X134226994Y-61465727D01*
X134230119Y-61468151D01*
X134230128Y-61468159D01*
X134230214Y-61468225D01*
X134239239Y-61475933D01*
X134271582Y-61506305D01*
X134278526Y-61510123D01*
X134278528Y-61510124D01*
X134289417Y-61516110D01*
X134305935Y-61526961D01*
X134322021Y-61539438D01*
X134362754Y-61557064D01*
X134373402Y-61562281D01*
X134385030Y-61568673D01*
X134412285Y-61583657D01*
X134419960Y-61585628D01*
X134419966Y-61585630D01*
X134431999Y-61588719D01*
X134450701Y-61595122D01*
X134469380Y-61603205D01*
X134503216Y-61608564D01*
X134513215Y-61610148D01*
X134524828Y-61612553D01*
X134567806Y-61623588D01*
X134588153Y-61623588D01*
X134607865Y-61625139D01*
X134627967Y-61628323D01*
X134635859Y-61627577D01*
X134672144Y-61624147D01*
X134684002Y-61623588D01*
X173157114Y-61623588D01*
X173225235Y-61643590D01*
X173271728Y-61697246D01*
X173283114Y-61749588D01*
X173283114Y-61886222D01*
X173289869Y-61948404D01*
X173340999Y-62084793D01*
X173428353Y-62201349D01*
X173544909Y-62288703D01*
X173553318Y-62291855D01*
X173553319Y-62291856D01*
X173662574Y-62332814D01*
X173719339Y-62375455D01*
X173744039Y-62442017D01*
X173728832Y-62511366D01*
X173709439Y-62537847D01*
X173586204Y-62666805D01*
X173579718Y-62674815D01*
X173459712Y-62850737D01*
X173454614Y-62859711D01*
X173364952Y-63052871D01*
X173361389Y-63062558D01*
X173306003Y-63262271D01*
X173307526Y-63270695D01*
X173319906Y-63274088D01*
X174769614Y-63274088D01*
X174837735Y-63294090D01*
X174884228Y-63347746D01*
X174895614Y-63400088D01*
X174895614Y-64846605D01*
X174899678Y-64860447D01*
X174913092Y-64862481D01*
X174919798Y-64861622D01*
X174929876Y-64859480D01*
X175020417Y-64832316D01*
X175091413Y-64831899D01*
X175151363Y-64869932D01*
X175181235Y-64934338D01*
X175182625Y-64953002D01*
X175182625Y-91399330D01*
X175182095Y-91410564D01*
X175180417Y-91418069D01*
X175180666Y-91425988D01*
X175182563Y-91486362D01*
X175182625Y-91490319D01*
X175182625Y-91518333D01*
X175183121Y-91522258D01*
X175183121Y-91522259D01*
X175183133Y-91522354D01*
X175184066Y-91534199D01*
X175185460Y-91578555D01*
X175187672Y-91586167D01*
X175191138Y-91598098D01*
X175195148Y-91617462D01*
X175197698Y-91637649D01*
X175200614Y-91645013D01*
X175200615Y-91645018D01*
X175214032Y-91678906D01*
X175217877Y-91690135D01*
X175230256Y-91732743D01*
X175234294Y-91739570D01*
X175234295Y-91739573D01*
X175240613Y-91750256D01*
X175249313Y-91768014D01*
X175253886Y-91779565D01*
X175253890Y-91779571D01*
X175256806Y-91786938D01*
X175261464Y-91793349D01*
X175261465Y-91793351D01*
X175282889Y-91822838D01*
X175289406Y-91832760D01*
X175307951Y-91864118D01*
X175307954Y-91864122D01*
X175311991Y-91870948D01*
X175326375Y-91885332D01*
X175339216Y-91900366D01*
X175351183Y-91916837D01*
X175357291Y-91921890D01*
X175385380Y-91945127D01*
X175394160Y-91953117D01*
X195315820Y-111874777D01*
X195349846Y-111937089D01*
X195352725Y-111963872D01*
X195352725Y-113269584D01*
X195359480Y-113331766D01*
X195410610Y-113468155D01*
X195497964Y-113584711D01*
X195614520Y-113672065D01*
X195622929Y-113675217D01*
X195622930Y-113675218D01*
X195732185Y-113716176D01*
X195788950Y-113758817D01*
X195813650Y-113825379D01*
X195798443Y-113894728D01*
X195779050Y-113921209D01*
X195655815Y-114050167D01*
X195649329Y-114058177D01*
X195529323Y-114234099D01*
X195524225Y-114243073D01*
X195434563Y-114436233D01*
X195431000Y-114445920D01*
X195375614Y-114645633D01*
X195377137Y-114654057D01*
X195389517Y-114657450D01*
X196839225Y-114657450D01*
X196907346Y-114677452D01*
X196953839Y-114731108D01*
X196965225Y-114783450D01*
X196965225Y-115039450D01*
X196945223Y-115107571D01*
X196891567Y-115154064D01*
X196839225Y-115165450D01*
X195394450Y-115165450D01*
X195380919Y-115169423D01*
X195379482Y-115179416D01*
X195409790Y-115313896D01*
X195412870Y-115323725D01*
X195492995Y-115521053D01*
X195497643Y-115530253D01*
X195502417Y-115538045D01*
X195520954Y-115606579D01*
X195499496Y-115674255D01*
X195444856Y-115719587D01*
X195394983Y-115729877D01*
X189468195Y-115729877D01*
X189400074Y-115709875D01*
X189353581Y-115656219D01*
X189343455Y-115588654D01*
X189343294Y-115588642D01*
X189343348Y-115587945D01*
X189343272Y-115587436D01*
X189343555Y-115585284D01*
X189343992Y-115581967D01*
X189345358Y-115526066D01*
X189345537Y-115518742D01*
X189345537Y-115518738D01*
X189345619Y-115515377D01*
X189327315Y-115292738D01*
X189272894Y-115076079D01*
X189183817Y-114871217D01*
X189097027Y-114737060D01*
X189065285Y-114687994D01*
X189065283Y-114687991D01*
X189062477Y-114683654D01*
X188912133Y-114518428D01*
X188908082Y-114515229D01*
X188908078Y-114515225D01*
X188740877Y-114383177D01*
X188740873Y-114383175D01*
X188736822Y-114379975D01*
X188700491Y-114359919D01*
X188648165Y-114331034D01*
X188541252Y-114272015D01*
X188536383Y-114270291D01*
X188536379Y-114270289D01*
X188335550Y-114199172D01*
X188335546Y-114199171D01*
X188330675Y-114197446D01*
X188325582Y-114196539D01*
X188325579Y-114196538D01*
X188115836Y-114159177D01*
X188115830Y-114159176D01*
X188110747Y-114158271D01*
X188036915Y-114157369D01*
X187892544Y-114155605D01*
X187892542Y-114155605D01*
X187887374Y-114155542D01*
X187666554Y-114189332D01*
X187454219Y-114258734D01*
X187256070Y-114361884D01*
X187251937Y-114364987D01*
X187251934Y-114364989D01*
X187109100Y-114472232D01*
X187077428Y-114496012D01*
X186923092Y-114657515D01*
X186815664Y-114814998D01*
X186760756Y-114859998D01*
X186690231Y-114868169D01*
X186626484Y-114836915D01*
X186605787Y-114812431D01*
X186525285Y-114687994D01*
X186525283Y-114687991D01*
X186522477Y-114683654D01*
X186372133Y-114518428D01*
X186368082Y-114515229D01*
X186368078Y-114515225D01*
X186200877Y-114383177D01*
X186200873Y-114383175D01*
X186196822Y-114379975D01*
X186160491Y-114359919D01*
X186108165Y-114331034D01*
X186001252Y-114272015D01*
X185996383Y-114270291D01*
X185996379Y-114270289D01*
X185795550Y-114199172D01*
X185795546Y-114199171D01*
X185790675Y-114197446D01*
X185785582Y-114196539D01*
X185785579Y-114196538D01*
X185575836Y-114159177D01*
X185575830Y-114159176D01*
X185570747Y-114158271D01*
X185496915Y-114157369D01*
X185352544Y-114155605D01*
X185352542Y-114155605D01*
X185347374Y-114155542D01*
X185200090Y-114178080D01*
X185131663Y-114188550D01*
X185131660Y-114188551D01*
X185126554Y-114189332D01*
X185121647Y-114190936D01*
X185121634Y-114190939D01*
X185116124Y-114192740D01*
X185045160Y-114194889D01*
X184987888Y-114162069D01*
X183084653Y-112258834D01*
X183077077Y-112250508D01*
X183072956Y-112244014D01*
X183023137Y-112197231D01*
X183020296Y-112194477D01*
X183000497Y-112174678D01*
X182997372Y-112172254D01*
X182997363Y-112172246D01*
X182997277Y-112172180D01*
X182988252Y-112164472D01*
X182961688Y-112139527D01*
X182955909Y-112134100D01*
X182938072Y-112124294D01*
X182921556Y-112113444D01*
X182905470Y-112100967D01*
X182864737Y-112083341D01*
X182854089Y-112078124D01*
X182842461Y-112071732D01*
X182815206Y-112056748D01*
X182807531Y-112054777D01*
X182807525Y-112054775D01*
X182795492Y-112051686D01*
X182776790Y-112045283D01*
X182758111Y-112037200D01*
X182724275Y-112031841D01*
X182714276Y-112030257D01*
X182702663Y-112027852D01*
X182659685Y-112016817D01*
X182639338Y-112016817D01*
X182619627Y-112015266D01*
X182607353Y-112013322D01*
X182599524Y-112012082D01*
X182591632Y-112012828D01*
X182555347Y-112016258D01*
X182543489Y-112016817D01*
X122337063Y-112016817D01*
X122268942Y-111996815D01*
X122222449Y-111943159D01*
X122212345Y-111872885D01*
X122241839Y-111808305D01*
X122307649Y-111768298D01*
X122387594Y-111749105D01*
X122428793Y-111732040D01*
X122602389Y-111660135D01*
X122602393Y-111660133D01*
X122606963Y-111658240D01*
X122611650Y-111655368D01*
X122805202Y-111536759D01*
X122805208Y-111536755D01*
X122809416Y-111534176D01*
X122989969Y-111379969D01*
X123144176Y-111199416D01*
X123146755Y-111195208D01*
X123146759Y-111195202D01*
X123265654Y-111001183D01*
X123268240Y-110996963D01*
X123276905Y-110976045D01*
X123357211Y-110782167D01*
X123357212Y-110782165D01*
X123359105Y-110777594D01*
X123414535Y-110546711D01*
X123433165Y-110310000D01*
X123414535Y-110073289D01*
X123359105Y-109842406D01*
X123268240Y-109623037D01*
X123265654Y-109618817D01*
X123146759Y-109424798D01*
X123146755Y-109424792D01*
X123144176Y-109420584D01*
X122989969Y-109240031D01*
X122809416Y-109085824D01*
X122805208Y-109083245D01*
X122805202Y-109083241D01*
X122611183Y-108964346D01*
X122606963Y-108961760D01*
X122602393Y-108959867D01*
X122602389Y-108959865D01*
X122392167Y-108872789D01*
X122392165Y-108872788D01*
X122387594Y-108870895D01*
X122307391Y-108851640D01*
X122161524Y-108816620D01*
X122161518Y-108816619D01*
X122156711Y-108815465D01*
X121920000Y-108796835D01*
X121683289Y-108815465D01*
X121678482Y-108816619D01*
X121678476Y-108816620D01*
X121532609Y-108851640D01*
X121452406Y-108870895D01*
X121447835Y-108872788D01*
X121447833Y-108872789D01*
X121237611Y-108959865D01*
X121237607Y-108959867D01*
X121233037Y-108961760D01*
X121228817Y-108964346D01*
X121034798Y-109083241D01*
X121034792Y-109083245D01*
X121030584Y-109085824D01*
X120850031Y-109240031D01*
X120695824Y-109420584D01*
X120693245Y-109424792D01*
X120693241Y-109424798D01*
X120574346Y-109618817D01*
X120571760Y-109623037D01*
X120480895Y-109842406D01*
X120425465Y-110073289D01*
X120406835Y-110310000D01*
X120425465Y-110546711D01*
X120480895Y-110777594D01*
X120482788Y-110782165D01*
X120482789Y-110782167D01*
X120563096Y-110976045D01*
X120571760Y-110996963D01*
X120574346Y-111001183D01*
X120693241Y-111195202D01*
X120693245Y-111195208D01*
X120695824Y-111199416D01*
X120850031Y-111379969D01*
X121030584Y-111534176D01*
X121034792Y-111536755D01*
X121034798Y-111536759D01*
X121228350Y-111655368D01*
X121233037Y-111658240D01*
X121237607Y-111660133D01*
X121237611Y-111660135D01*
X121411207Y-111732040D01*
X121452406Y-111749105D01*
X121532351Y-111768298D01*
X121593920Y-111803650D01*
X121626603Y-111866677D01*
X121620023Y-111937368D01*
X121576268Y-111993279D01*
X121502937Y-112016817D01*
X99491232Y-112016817D01*
X99423111Y-111996815D01*
X99385440Y-111959257D01*
X99379045Y-111949371D01*
X99357206Y-111915614D01*
X99298543Y-111824934D01*
X99298541Y-111824931D01*
X99295735Y-111820594D01*
X99145391Y-111655368D01*
X99141340Y-111652169D01*
X99141336Y-111652165D01*
X98974135Y-111520117D01*
X98974131Y-111520115D01*
X98970080Y-111516915D01*
X98774510Y-111408955D01*
X98769641Y-111407231D01*
X98769637Y-111407229D01*
X98568808Y-111336112D01*
X98568804Y-111336111D01*
X98563933Y-111334386D01*
X98558840Y-111333479D01*
X98558837Y-111333478D01*
X98349094Y-111296117D01*
X98349088Y-111296116D01*
X98344005Y-111295211D01*
X98270173Y-111294309D01*
X98125802Y-111292545D01*
X98125800Y-111292545D01*
X98120632Y-111292482D01*
X97899812Y-111326272D01*
X97687477Y-111395674D01*
X97489328Y-111498824D01*
X97485195Y-111501927D01*
X97485192Y-111501929D01*
X97314821Y-111629847D01*
X97310686Y-111632952D01*
X97270924Y-111674560D01*
X97199450Y-111749354D01*
X97156350Y-111794455D01*
X97048922Y-111951938D01*
X96994014Y-111996938D01*
X96923489Y-112005109D01*
X96859742Y-111973855D01*
X96839045Y-111949371D01*
X96758543Y-111824934D01*
X96758541Y-111824931D01*
X96755735Y-111820594D01*
X96605391Y-111655368D01*
X96601340Y-111652169D01*
X96601336Y-111652165D01*
X96434135Y-111520117D01*
X96434131Y-111520115D01*
X96430080Y-111516915D01*
X96234510Y-111408955D01*
X96229641Y-111407231D01*
X96229637Y-111407229D01*
X96028808Y-111336112D01*
X96028804Y-111336111D01*
X96023933Y-111334386D01*
X96018840Y-111333479D01*
X96018837Y-111333478D01*
X95809094Y-111296117D01*
X95809088Y-111296116D01*
X95804005Y-111295211D01*
X95730173Y-111294309D01*
X95585802Y-111292545D01*
X95585800Y-111292545D01*
X95580632Y-111292482D01*
X95359812Y-111326272D01*
X95147477Y-111395674D01*
X94949328Y-111498824D01*
X94945195Y-111501927D01*
X94945192Y-111501929D01*
X94774821Y-111629847D01*
X94770686Y-111632952D01*
X94708401Y-111698130D01*
X94690004Y-111717381D01*
X94628480Y-111752811D01*
X94557567Y-111749354D01*
X94499781Y-111708108D01*
X94480928Y-111674560D01*
X94439488Y-111564020D01*
X94436336Y-111555612D01*
X94348982Y-111439056D01*
X94232426Y-111351702D01*
X94096037Y-111300572D01*
X94033855Y-111293817D01*
X92237587Y-111293817D01*
X92175405Y-111300572D01*
X92039016Y-111351702D01*
X91922460Y-111439056D01*
X91835106Y-111555612D01*
X91783976Y-111692001D01*
X91777221Y-111754183D01*
X91777221Y-113550451D01*
X89461421Y-113550451D01*
X89461421Y-106110033D01*
X89461427Y-106108792D01*
X89473854Y-104847254D01*
X89473903Y-104844771D01*
X89510927Y-103592717D01*
X89511025Y-103590236D01*
X89572431Y-102344861D01*
X89572577Y-102342384D01*
X89574126Y-102319969D01*
X89658134Y-101103706D01*
X89658330Y-101101237D01*
X89664221Y-101034956D01*
X89767781Y-99869776D01*
X89768019Y-99867360D01*
X89774805Y-99804960D01*
X89879442Y-98842670D01*
X121052160Y-98842670D01*
X121057887Y-98850320D01*
X121229042Y-98955205D01*
X121237837Y-98959687D01*
X121447988Y-99046734D01*
X121457373Y-99049783D01*
X121678554Y-99102885D01*
X121688301Y-99104428D01*
X121915070Y-99122275D01*
X121924930Y-99122275D01*
X122151699Y-99104428D01*
X122161446Y-99102885D01*
X122382627Y-99049783D01*
X122392012Y-99046734D01*
X122602163Y-98959687D01*
X122610958Y-98955205D01*
X122778445Y-98852568D01*
X122787907Y-98842110D01*
X122784124Y-98833334D01*
X121932812Y-97982022D01*
X121918868Y-97974408D01*
X121917035Y-97974539D01*
X121910420Y-97978790D01*
X121058920Y-98830290D01*
X121052160Y-98842670D01*
X89879442Y-98842670D01*
X89901134Y-98643182D01*
X89901426Y-98640724D01*
X90033409Y-97614930D01*
X120407725Y-97614930D01*
X120425572Y-97841699D01*
X120427115Y-97851446D01*
X120480217Y-98072627D01*
X120483266Y-98082012D01*
X120570313Y-98292163D01*
X120574795Y-98300958D01*
X120677432Y-98468445D01*
X120687890Y-98477907D01*
X120696666Y-98474124D01*
X121547978Y-97622812D01*
X121554356Y-97611132D01*
X122284408Y-97611132D01*
X122284539Y-97612965D01*
X122288790Y-97619580D01*
X123140290Y-98471080D01*
X123152670Y-98477840D01*
X123160320Y-98472113D01*
X123265205Y-98300958D01*
X123269687Y-98292163D01*
X123356734Y-98082012D01*
X123359783Y-98072627D01*
X123412885Y-97851446D01*
X123414428Y-97841699D01*
X123432275Y-97614930D01*
X123432275Y-97605070D01*
X123414428Y-97378301D01*
X123412885Y-97368554D01*
X123359783Y-97147373D01*
X123356734Y-97137988D01*
X123269687Y-96927837D01*
X123265205Y-96919042D01*
X123162568Y-96751555D01*
X123152110Y-96742093D01*
X123143334Y-96745876D01*
X122292022Y-97597188D01*
X122284408Y-97611132D01*
X121554356Y-97611132D01*
X121555592Y-97608868D01*
X121555461Y-97607035D01*
X121551210Y-97600420D01*
X120699710Y-96748920D01*
X120687330Y-96742160D01*
X120679680Y-96747887D01*
X120574795Y-96919042D01*
X120570313Y-96927837D01*
X120483266Y-97137988D01*
X120480217Y-97147373D01*
X120427115Y-97368554D01*
X120425572Y-97378301D01*
X120407725Y-97605070D01*
X120407725Y-97614930D01*
X90033409Y-97614930D01*
X90057951Y-97424185D01*
X90058291Y-97421735D01*
X90213480Y-96377890D01*
X121052093Y-96377890D01*
X121055876Y-96386666D01*
X121907188Y-97237978D01*
X121921132Y-97245592D01*
X121922965Y-97245461D01*
X121929580Y-97241210D01*
X122781080Y-96389710D01*
X122787840Y-96377330D01*
X122782113Y-96369680D01*
X122610958Y-96264795D01*
X122602163Y-96260313D01*
X122392012Y-96173266D01*
X122382627Y-96170217D01*
X122161446Y-96117115D01*
X122151699Y-96115572D01*
X121924930Y-96097725D01*
X121915070Y-96097725D01*
X121688301Y-96115572D01*
X121678554Y-96117115D01*
X121457373Y-96170217D01*
X121447988Y-96173266D01*
X121237837Y-96260313D01*
X121229042Y-96264795D01*
X121061555Y-96367432D01*
X121052093Y-96377890D01*
X90213480Y-96377890D01*
X90237984Y-96213072D01*
X90238371Y-96210632D01*
X90441004Y-95010005D01*
X90441439Y-95007576D01*
X90452600Y-94948518D01*
X90666755Y-93815330D01*
X90667230Y-93812943D01*
X90679295Y-93755307D01*
X90914999Y-92629254D01*
X90915521Y-92626877D01*
X90928729Y-92569402D01*
X91090800Y-91864118D01*
X91185485Y-91452076D01*
X91186058Y-91449686D01*
X91478012Y-90283857D01*
X91478632Y-90281482D01*
X91493113Y-90228092D01*
X91792281Y-89125101D01*
X91792935Y-89122776D01*
X91808159Y-89070683D01*
X92128107Y-87975838D01*
X92128808Y-87973525D01*
X92144317Y-87924047D01*
X92485150Y-86836644D01*
X92485901Y-86834326D01*
X92595040Y-86508416D01*
X92863308Y-85707319D01*
X92864079Y-85705090D01*
X93262216Y-84588495D01*
X93263054Y-84586216D01*
X93681705Y-83480212D01*
X93682588Y-83477944D01*
X93818367Y-83139159D01*
X94121552Y-82382674D01*
X94122439Y-82380524D01*
X94581403Y-81296421D01*
X94582371Y-81294193D01*
X95061131Y-80221413D01*
X95062141Y-80219207D01*
X95560438Y-79158040D01*
X95561490Y-79155856D01*
X95971638Y-78324367D01*
X96079100Y-78106511D01*
X96080180Y-78104373D01*
X96100282Y-78065522D01*
X96402158Y-77482072D01*
X145349714Y-77482072D01*
X145350011Y-77487225D01*
X145350011Y-77487228D01*
X145357416Y-77615652D01*
X145362573Y-77705092D01*
X145363710Y-77710138D01*
X145363711Y-77710144D01*
X145383582Y-77798316D01*
X145411685Y-77923016D01*
X145495729Y-78129993D01*
X145546482Y-78212815D01*
X145609754Y-78316065D01*
X145612450Y-78320465D01*
X145758713Y-78489315D01*
X145930589Y-78632009D01*
X146123463Y-78744715D01*
X146332155Y-78824407D01*
X146337223Y-78825438D01*
X146337226Y-78825439D01*
X146444480Y-78847260D01*
X146551060Y-78868944D01*
X146556235Y-78869134D01*
X146556237Y-78869134D01*
X146769136Y-78876941D01*
X146769140Y-78876941D01*
X146774300Y-78877130D01*
X146779420Y-78876474D01*
X146779422Y-78876474D01*
X146990751Y-78849402D01*
X146990752Y-78849402D01*
X146995879Y-78848745D01*
X147000829Y-78847260D01*
X147204892Y-78786038D01*
X147204897Y-78786036D01*
X147209847Y-78784551D01*
X147410457Y-78686273D01*
X147592323Y-78556550D01*
X147750559Y-78398866D01*
X147810057Y-78316066D01*
X147880916Y-78217454D01*
X147882239Y-78218405D01*
X147929108Y-78175234D01*
X147999043Y-78163002D01*
X148064489Y-78190521D01*
X148092338Y-78222371D01*
X148152450Y-78320465D01*
X148298713Y-78489315D01*
X148470589Y-78632009D01*
X148663463Y-78744715D01*
X148872155Y-78824407D01*
X148877223Y-78825438D01*
X148877226Y-78825439D01*
X148984480Y-78847260D01*
X149091060Y-78868944D01*
X149096235Y-78869134D01*
X149096237Y-78869134D01*
X149309136Y-78876941D01*
X149309140Y-78876941D01*
X149314300Y-78877130D01*
X149319420Y-78876474D01*
X149319422Y-78876474D01*
X149530751Y-78849402D01*
X149530752Y-78849402D01*
X149535879Y-78848745D01*
X149540829Y-78847260D01*
X149744892Y-78786038D01*
X149744897Y-78786036D01*
X149749847Y-78784551D01*
X149950457Y-78686273D01*
X150132323Y-78556550D01*
X150290559Y-78398866D01*
X150350057Y-78316066D01*
X150417898Y-78221654D01*
X150420916Y-78217454D01*
X150441783Y-78175234D01*
X150517599Y-78021830D01*
X150517600Y-78021828D01*
X150519893Y-78017188D01*
X150584833Y-77803446D01*
X150613992Y-77581967D01*
X150615619Y-77515377D01*
X150597315Y-77292738D01*
X150542894Y-77076079D01*
X150453817Y-76871217D01*
X150332477Y-76683654D01*
X150182133Y-76518428D01*
X150178082Y-76515229D01*
X150178078Y-76515225D01*
X150010877Y-76383177D01*
X150010873Y-76383175D01*
X150006822Y-76379975D01*
X149811252Y-76272015D01*
X149806383Y-76270291D01*
X149806379Y-76270289D01*
X149605550Y-76199172D01*
X149605546Y-76199171D01*
X149600675Y-76197446D01*
X149595582Y-76196539D01*
X149595579Y-76196538D01*
X149385836Y-76159177D01*
X149385830Y-76159176D01*
X149380747Y-76158271D01*
X149306915Y-76157369D01*
X149162544Y-76155605D01*
X149162542Y-76155605D01*
X149157374Y-76155542D01*
X148936554Y-76189332D01*
X148724219Y-76258734D01*
X148526070Y-76361884D01*
X148521937Y-76364987D01*
X148521934Y-76364989D01*
X148497710Y-76383177D01*
X148347428Y-76496012D01*
X148193092Y-76657515D01*
X148085664Y-76814998D01*
X148030756Y-76859998D01*
X147960231Y-76868169D01*
X147896484Y-76836915D01*
X147875787Y-76812431D01*
X147795285Y-76687994D01*
X147795283Y-76687991D01*
X147792477Y-76683654D01*
X147642133Y-76518428D01*
X147638082Y-76515229D01*
X147638078Y-76515225D01*
X147470877Y-76383177D01*
X147470873Y-76383175D01*
X147466822Y-76379975D01*
X147271252Y-76272015D01*
X147266383Y-76270291D01*
X147266379Y-76270289D01*
X147065550Y-76199172D01*
X147065546Y-76199171D01*
X147060675Y-76197446D01*
X147055582Y-76196539D01*
X147055579Y-76196538D01*
X146845836Y-76159177D01*
X146845830Y-76159176D01*
X146840747Y-76158271D01*
X146766915Y-76157369D01*
X146622544Y-76155605D01*
X146622542Y-76155605D01*
X146617374Y-76155542D01*
X146396554Y-76189332D01*
X146184219Y-76258734D01*
X145986070Y-76361884D01*
X145981937Y-76364987D01*
X145981934Y-76364989D01*
X145957710Y-76383177D01*
X145807428Y-76496012D01*
X145653092Y-76657515D01*
X145527206Y-76842057D01*
X145433151Y-77044682D01*
X145373452Y-77259947D01*
X145349714Y-77482072D01*
X96402158Y-77482072D01*
X96616836Y-77067155D01*
X96617960Y-77065030D01*
X96628989Y-77044682D01*
X96997377Y-76364989D01*
X97173485Y-76040061D01*
X97174658Y-76037946D01*
X97358399Y-75713939D01*
X97748753Y-75025591D01*
X97749903Y-75023606D01*
X98342396Y-74023994D01*
X98343630Y-74021957D01*
X98954143Y-73035567D01*
X98955434Y-73033526D01*
X99583791Y-72060491D01*
X99585121Y-72058474D01*
X100231121Y-71098988D01*
X100232489Y-71096998D01*
X100253802Y-71066617D01*
X100895834Y-70151395D01*
X100897240Y-70149430D01*
X101577768Y-69217850D01*
X101579212Y-69215913D01*
X102276568Y-68298752D01*
X102278050Y-68296841D01*
X102992100Y-67394218D01*
X102993619Y-67392335D01*
X103015671Y-67365534D01*
X103724093Y-66504534D01*
X103725515Y-66502840D01*
X104472191Y-65630090D01*
X104473783Y-65628265D01*
X105236293Y-64770962D01*
X105237923Y-64769164D01*
X106016111Y-63927460D01*
X106017778Y-63925691D01*
X106142355Y-63796054D01*
X173309871Y-63796054D01*
X173340179Y-63930534D01*
X173343259Y-63940363D01*
X173423384Y-64137691D01*
X173428027Y-64146882D01*
X173539308Y-64328476D01*
X173545391Y-64336787D01*
X173684827Y-64497755D01*
X173692194Y-64504971D01*
X173856048Y-64641004D01*
X173864495Y-64646919D01*
X174048370Y-64754367D01*
X174057656Y-64758817D01*
X174256615Y-64834791D01*
X174266513Y-64837667D01*
X174369864Y-64858694D01*
X174383913Y-64857498D01*
X174387614Y-64847153D01*
X174387614Y-63800203D01*
X174383139Y-63784964D01*
X174381749Y-63783759D01*
X174374066Y-63782088D01*
X173324839Y-63782088D01*
X173311308Y-63786061D01*
X173309871Y-63796054D01*
X106142355Y-63796054D01*
X106811379Y-63099855D01*
X106813083Y-63098116D01*
X107621862Y-62288395D01*
X107623601Y-62286687D01*
X107964741Y-61958119D01*
X108447440Y-61493209D01*
X108449203Y-61491543D01*
X108466231Y-61475768D01*
X108992626Y-60988088D01*
X109287636Y-60714776D01*
X109289448Y-60713130D01*
X110099777Y-59991139D01*
X110142344Y-59953212D01*
X110144183Y-59951606D01*
X111011342Y-59208755D01*
X111013224Y-59207174D01*
X111894340Y-58481693D01*
X111896258Y-58480145D01*
X112791141Y-57772243D01*
X112793062Y-57770754D01*
X113365672Y-57335771D01*
X113701413Y-57080726D01*
X113703348Y-57079285D01*
X114624986Y-56407335D01*
X114627008Y-56405891D01*
X114995842Y-56147966D01*
X128208257Y-56147966D01*
X128238565Y-56282446D01*
X128241645Y-56292275D01*
X128321770Y-56489603D01*
X128326413Y-56498794D01*
X128437694Y-56680388D01*
X128443777Y-56688699D01*
X128583213Y-56849667D01*
X128590580Y-56856883D01*
X128754434Y-56992916D01*
X128762881Y-56998831D01*
X128946756Y-57106279D01*
X128956042Y-57110729D01*
X129155001Y-57186703D01*
X129164899Y-57189579D01*
X129268250Y-57210606D01*
X129282299Y-57209410D01*
X129286000Y-57199065D01*
X129286000Y-56152115D01*
X129281525Y-56136876D01*
X129280135Y-56135671D01*
X129272452Y-56134000D01*
X128223225Y-56134000D01*
X128209694Y-56137973D01*
X128208257Y-56147966D01*
X114995842Y-56147966D01*
X115561567Y-55752356D01*
X115563624Y-55750947D01*
X116332168Y-55235840D01*
X116511070Y-55115933D01*
X116513140Y-55114576D01*
X116530098Y-55103692D01*
X117472980Y-54498502D01*
X117475094Y-54497174D01*
X117536863Y-54459242D01*
X118447370Y-53900106D01*
X118449478Y-53898842D01*
X118928300Y-53617812D01*
X119433664Y-53321205D01*
X119435854Y-53319949D01*
X120431848Y-52761907D01*
X120434070Y-52760691D01*
X120563618Y-52691492D01*
X120989850Y-52463816D01*
X121441612Y-52222503D01*
X121443867Y-52221328D01*
X122299249Y-51786368D01*
X144266994Y-51786368D01*
X144267141Y-51789878D01*
X144267141Y-51789884D01*
X144267889Y-51807726D01*
X144281034Y-52121358D01*
X144281268Y-52126949D01*
X144281803Y-52130407D01*
X144281804Y-52130414D01*
X144330020Y-52441866D01*
X144333418Y-52463816D01*
X144422793Y-52792771D01*
X144548279Y-53109713D01*
X144549925Y-53112809D01*
X144549927Y-53112813D01*
X144564514Y-53140246D01*
X144708313Y-53410692D01*
X144710298Y-53413591D01*
X144898908Y-53689050D01*
X144898913Y-53689056D01*
X144900899Y-53691957D01*
X145123637Y-53950001D01*
X145126207Y-53952381D01*
X145126211Y-53952385D01*
X145164267Y-53987625D01*
X145373750Y-54181609D01*
X145376572Y-54183690D01*
X145376575Y-54183692D01*
X145468911Y-54251767D01*
X145648123Y-54383894D01*
X145651160Y-54385648D01*
X145651164Y-54385650D01*
X145778629Y-54459242D01*
X145943333Y-54554334D01*
X145953194Y-54558642D01*
X146252481Y-54689398D01*
X146252491Y-54689402D01*
X146255703Y-54690805D01*
X146259060Y-54691844D01*
X146259065Y-54691846D01*
X146577978Y-54790566D01*
X146581338Y-54791606D01*
X146584794Y-54792265D01*
X146584793Y-54792265D01*
X146912729Y-54854822D01*
X146912734Y-54854823D01*
X146916180Y-54855480D01*
X147140196Y-54872717D01*
X147252558Y-54881363D01*
X147252559Y-54881363D01*
X147256055Y-54881632D01*
X147468406Y-54874217D01*
X147593213Y-54869859D01*
X147593218Y-54869859D01*
X147596728Y-54869736D01*
X147765340Y-54844837D01*
X147930472Y-54820453D01*
X147930477Y-54820452D01*
X147933951Y-54819939D01*
X147937343Y-54819043D01*
X147937347Y-54819042D01*
X148260131Y-54733759D01*
X148260132Y-54733759D01*
X148263522Y-54732863D01*
X148581332Y-54609592D01*
X148883421Y-54451664D01*
X149130221Y-54285195D01*
X149163107Y-54263013D01*
X149163109Y-54263012D01*
X149166023Y-54261046D01*
X149195939Y-54235586D01*
X149422943Y-54042390D01*
X149422944Y-54042389D01*
X149425616Y-54040115D01*
X149463421Y-53999857D01*
X149656554Y-53794192D01*
X149656558Y-53794187D01*
X149658965Y-53791624D01*
X149661070Y-53788810D01*
X149661076Y-53788803D01*
X149861051Y-53521490D01*
X149863160Y-53518671D01*
X149890239Y-53472517D01*
X149966011Y-53343365D01*
X150035657Y-53224657D01*
X150073239Y-53140246D01*
X150172873Y-52916465D01*
X150172875Y-52916460D01*
X150174305Y-52913248D01*
X150277377Y-52588325D01*
X150292368Y-52512617D01*
X150307049Y-52438469D01*
X150343587Y-52253937D01*
X150363605Y-52015562D01*
X150371929Y-51916434D01*
X150371929Y-51916427D01*
X150372112Y-51914252D01*
X150372978Y-51852198D01*
X150373272Y-51831177D01*
X150373272Y-51831165D01*
X150373302Y-51828999D01*
X150371116Y-51789884D01*
X150354470Y-51492164D01*
X150354274Y-51488651D01*
X150328157Y-51334242D01*
X150298014Y-51156025D01*
X150298013Y-51156021D01*
X150297425Y-51152544D01*
X150284559Y-51107673D01*
X150204435Y-50828249D01*
X150203466Y-50824869D01*
X150090394Y-50550535D01*
X150074905Y-50512955D01*
X150074901Y-50512947D01*
X150073567Y-50509710D01*
X149909347Y-50210995D01*
X149712853Y-49932447D01*
X149486533Y-49677537D01*
X149233210Y-49449444D01*
X149230360Y-49447403D01*
X149230353Y-49447398D01*
X148958895Y-49253053D01*
X148958892Y-49253051D01*
X148956041Y-49251010D01*
X148658479Y-49084708D01*
X148344234Y-48952612D01*
X148340871Y-48951622D01*
X148340862Y-48951619D01*
X148077203Y-48874021D01*
X148017223Y-48856368D01*
X147734042Y-48806435D01*
X147684982Y-48797784D01*
X147684980Y-48797784D01*
X147681522Y-48797174D01*
X147678013Y-48796953D01*
X147678011Y-48796953D01*
X147344833Y-48775991D01*
X147344827Y-48775991D01*
X147341315Y-48775770D01*
X147244890Y-48780486D01*
X147004349Y-48792250D01*
X147004341Y-48792251D01*
X147000842Y-48792422D01*
X146997374Y-48792984D01*
X146997371Y-48792984D01*
X146667822Y-48846360D01*
X146667819Y-48846361D01*
X146664347Y-48846923D01*
X146660964Y-48847868D01*
X146660962Y-48847868D01*
X146626969Y-48857359D01*
X146336024Y-48938592D01*
X146019966Y-49066288D01*
X145720111Y-49228419D01*
X145440198Y-49422963D01*
X145437556Y-49425276D01*
X145437552Y-49425279D01*
X145201342Y-49632066D01*
X145183715Y-49647497D01*
X144953859Y-49899222D01*
X144753494Y-50175000D01*
X144585120Y-50471393D01*
X144583733Y-50474628D01*
X144583731Y-50474633D01*
X144452218Y-50781476D01*
X144450833Y-50784708D01*
X144352308Y-51111039D01*
X144290772Y-51446319D01*
X144266994Y-51786368D01*
X122299249Y-51786368D01*
X122462738Y-51703234D01*
X122465023Y-51702100D01*
X122480186Y-51694772D01*
X123495037Y-51204320D01*
X123497275Y-51203267D01*
X124538123Y-50726086D01*
X124540384Y-50725077D01*
X125408984Y-50348099D01*
X125591839Y-50268739D01*
X125594214Y-50267737D01*
X126655970Y-49832516D01*
X126658373Y-49831560D01*
X127641889Y-49451801D01*
X127730223Y-49417693D01*
X127732618Y-49416797D01*
X128814376Y-49024507D01*
X128816827Y-49023647D01*
X129908205Y-48653208D01*
X129910687Y-48652394D01*
X131011409Y-48304060D01*
X131013916Y-48303295D01*
X132123855Y-47977283D01*
X132126385Y-47976569D01*
X133245303Y-47673127D01*
X133247855Y-47672463D01*
X133256828Y-47670230D01*
X134375392Y-47391878D01*
X134377919Y-47391276D01*
X135513989Y-47133756D01*
X135516518Y-47133212D01*
X136660732Y-46899044D01*
X136663328Y-46898540D01*
X137815537Y-46687954D01*
X137818118Y-46687510D01*
X138978144Y-46500745D01*
X138980729Y-46500357D01*
X139486899Y-46429831D01*
X140148187Y-46337692D01*
X140150840Y-46337351D01*
X141110953Y-46224293D01*
X141325551Y-46199023D01*
X141328198Y-46198740D01*
X142509984Y-46084993D01*
X142512579Y-46084770D01*
X143260555Y-46028821D01*
X143701161Y-45995863D01*
X143703841Y-45995691D01*
X144608714Y-45947373D01*
X144899032Y-45931871D01*
X144901713Y-45931757D01*
X146103071Y-45893287D01*
X146105760Y-45893229D01*
X146237357Y-45891825D01*
X147313425Y-45880346D01*
X147316051Y-45880346D01*
X147826004Y-45885779D01*
G37*
%TD.AperFunction*%
%TD*%
M02*
