%TF.GenerationSoftware,KiCad,Pcbnew,(6.0.4-0)*%
%TF.CreationDate,2022-04-25T17:15:55-04:00*%
%TF.ProjectId,BaseBadge,42617365-4261-4646-9765-2e6b69636164,rev?*%
%TF.SameCoordinates,Original*%
%TF.FileFunction,Copper,L2,Bot*%
%TF.FilePolarity,Positive*%
%FSLAX46Y46*%
G04 Gerber Fmt 4.6, Leading zero omitted, Abs format (unit mm)*
G04 Created by KiCad (PCBNEW (6.0.4-0)) date 2022-04-25 17:15:55*
%MOMM*%
%LPD*%
G01*
G04 APERTURE LIST*
%ADD10C,0.300000*%
%TA.AperFunction,NonConductor*%
%ADD11C,0.300000*%
%TD*%
%TA.AperFunction,ComponentPad*%
%ADD12R,1.700000X1.700000*%
%TD*%
%TA.AperFunction,ComponentPad*%
%ADD13O,1.700000X1.700000*%
%TD*%
%TA.AperFunction,ComponentPad*%
%ADD14C,1.700000*%
%TD*%
%TA.AperFunction,ComponentPad*%
%ADD15C,2.000000*%
%TD*%
%TA.AperFunction,SMDPad,CuDef*%
%ADD16R,1.200000X2.500000*%
%TD*%
%TA.AperFunction,ViaPad*%
%ADD17C,0.800000*%
%TD*%
%TA.AperFunction,Conductor*%
%ADD18C,0.254000*%
%TD*%
G04 APERTURE END LIST*
D10*
D11*
X204381185Y-117832101D02*
X204024042Y-118832101D01*
X203666899Y-117832101D01*
X202809756Y-117332101D02*
X202666899Y-117332101D01*
X202524042Y-117403530D01*
X202452613Y-117474958D01*
X202381185Y-117617815D01*
X202309756Y-117903530D01*
X202309756Y-118260672D01*
X202381185Y-118546387D01*
X202452613Y-118689244D01*
X202524042Y-118760672D01*
X202666899Y-118832101D01*
X202809756Y-118832101D01*
X202952613Y-118760672D01*
X203024042Y-118689244D01*
X203095471Y-118546387D01*
X203166899Y-118260672D01*
X203166899Y-117903530D01*
X203095471Y-117617815D01*
X203024042Y-117474958D01*
X202952613Y-117403530D01*
X202809756Y-117332101D01*
X200881185Y-118832101D02*
X201738328Y-118832101D01*
X201309756Y-118832101D02*
X201309756Y-117332101D01*
X201452613Y-117546387D01*
X201595471Y-117689244D01*
X201738328Y-117760672D01*
D12*
%TO.P,J1,1,Pin_1*%
%TO.N,VCC*%
X107982463Y-115515377D03*
D13*
%TO.P,J1,2,Pin_2*%
%TO.N,GND*%
X110522463Y-115515377D03*
%TO.P,J1,3,Pin_3*%
%TO.N,Net-(J1-Pad3)*%
X146712463Y-77515377D03*
D14*
%TO.P,J1,4,Pin_4*%
%TO.N,Net-(J1-Pad4)*%
X149252463Y-77515377D03*
D13*
%TO.P,J1,5,Pin_5*%
%TO.N,Net-(J1-Pad5)*%
X185442463Y-115515377D03*
%TO.P,J1,6,Pin_6*%
%TO.N,Net-(J1-Pad6)*%
X187982463Y-115515377D03*
%TD*%
D12*
%TO.P,J4,1,Pin_1*%
%TO.N,VCC*%
X129540000Y-53340000D03*
D13*
%TO.P,J4,2,Pin_2*%
%TO.N,GND*%
X129540000Y-55880000D03*
%TO.P,J4,3,Pin_3*%
%TO.N,Net-(J1-Pad3)*%
X132080000Y-53340000D03*
%TO.P,J4,4,Pin_4*%
%TO.N,Net-(J1-Pad4)*%
X132080000Y-55880000D03*
%TO.P,J4,5,Pin_5*%
%TO.N,Net-(J1-Pad5)*%
X134620000Y-53340000D03*
%TO.P,J4,6,Pin_6*%
%TO.N,Net-(J1-Pad6)*%
X134620000Y-55880000D03*
%TD*%
D12*
%TO.P,J5,1,Pin_1*%
%TO.N,VCC*%
X196711225Y-112371450D03*
D13*
%TO.P,J5,2,Pin_2*%
%TO.N,GND*%
X196711225Y-114911450D03*
%TO.P,J5,3,Pin_3*%
%TO.N,Net-(J1-Pad3)*%
X199251225Y-112371450D03*
%TO.P,J5,4,Pin_4*%
%TO.N,Net-(J1-Pad4)*%
X199251225Y-114911450D03*
%TO.P,J5,5,Pin_5*%
%TO.N,Net-(J1-Pad5)*%
X201791225Y-112371450D03*
%TO.P,J5,6,Pin_6*%
%TO.N,Net-(J1-Pad6)*%
X201791225Y-114911450D03*
%TD*%
D12*
%TO.P,J2,1,Pin_1*%
%TO.N,VCC*%
X93135721Y-112652317D03*
D13*
%TO.P,J2,2,Pin_2*%
%TO.N,GND*%
X93135721Y-115192317D03*
%TO.P,J2,3,Pin_3*%
%TO.N,Net-(J1-Pad3)*%
X95675721Y-112652317D03*
%TO.P,J2,4,Pin_4*%
%TO.N,Net-(J1-Pad4)*%
X95675721Y-115192317D03*
%TO.P,J2,5,Pin_5*%
%TO.N,Net-(J1-Pad5)*%
X98215721Y-112652317D03*
%TO.P,J2,6,Pin_6*%
%TO.N,Net-(J1-Pad6)*%
X98215721Y-115192317D03*
%TD*%
D12*
%TO.P,J3,1,Pin_1*%
%TO.N,VCC*%
X174641614Y-60988088D03*
D13*
%TO.P,J3,2,Pin_2*%
%TO.N,GND*%
X174641614Y-63528088D03*
%TO.P,J3,3,Pin_3*%
%TO.N,Net-(J1-Pad3)*%
X177181614Y-60988088D03*
%TO.P,J3,4,Pin_4*%
%TO.N,Net-(J1-Pad4)*%
X177181614Y-63528088D03*
%TO.P,J3,5,Pin_5*%
%TO.N,Net-(J1-Pad5)*%
X179721614Y-60988088D03*
%TO.P,J3,6,Pin_6*%
%TO.N,Net-(J1-Pad6)*%
X179721614Y-63528088D03*
%TD*%
D15*
%TO.P,BT1,1,+*%
%TO.N,Net-(BT1-Pad1)*%
X121920000Y-110310000D03*
%TO.P,BT1,2,-*%
%TO.N,GND*%
X121920000Y-97610000D03*
%TD*%
D16*
%TO.P,SW1,1,A*%
%TO.N,VCC*%
X95548661Y-97065620D03*
X95548661Y-91565620D03*
%TO.P,SW1,2,B*%
%TO.N,Net-(BT1-Pad1)*%
X98048661Y-97065620D03*
X98048661Y-91565620D03*
%TO.P,SW1,3,C*%
%TO.N,unconnected-(SW1-Pad3)*%
X100548661Y-91565620D03*
X100548661Y-97065620D03*
%TD*%
D17*
%TO.N,Net-(J1-Pad6)*%
X180340000Y-116840000D03*
%TD*%
D18*
%TO.N,VCC*%
X129540000Y-53340000D02*
X95548661Y-87331339D01*
X95548661Y-87331339D02*
X95548661Y-91565620D01*
X95548661Y-91565620D02*
X95548661Y-97065620D01*
X95548661Y-97065620D02*
X95548661Y-110239377D01*
X95548661Y-110239377D02*
X93135721Y-112652317D01*
%TO.N,Net-(BT1-Pad1)*%
X98048661Y-91565620D02*
X98048661Y-97065620D01*
X116793041Y-110310000D02*
X98048661Y-91565620D01*
X121920000Y-110310000D02*
X116793041Y-110310000D01*
%TO.N,Net-(J1-Pad3)*%
X95675721Y-112652317D02*
X96852232Y-113828828D01*
X133256511Y-56180350D02*
X134168489Y-57092328D01*
X132080000Y-53340000D02*
X133256511Y-54516511D01*
X146712463Y-89507537D02*
X146712463Y-77515377D01*
X96520000Y-111808038D02*
X96520000Y-88900000D01*
X96520000Y-88900000D02*
X98183839Y-88900000D01*
X130903489Y-54516511D02*
X132080000Y-53340000D01*
X180340000Y-66040000D02*
X183490778Y-66040000D01*
X186862556Y-99982781D02*
X199251225Y-112371450D01*
X98183839Y-88900000D02*
X130903489Y-56180350D01*
X183490778Y-66040000D02*
X186862556Y-69411778D01*
X186862556Y-69411778D02*
X186862556Y-99982781D01*
X177181614Y-60988088D02*
X177181614Y-61864249D01*
X178358125Y-63040760D02*
X178358125Y-64058125D01*
X177181614Y-61864249D02*
X178358125Y-63040760D01*
X133256511Y-54516511D02*
X133256511Y-56180350D01*
X95675721Y-112652317D02*
X96520000Y-111808038D01*
X178358125Y-64058125D02*
X180340000Y-66040000D01*
X173684866Y-57092328D02*
X173684866Y-57491340D01*
X134168489Y-57092328D02*
X173684866Y-57092328D01*
X173684866Y-57491340D02*
X177181614Y-60988088D01*
X122391172Y-113828828D02*
X146712463Y-89507537D01*
X96852232Y-113828828D02*
X122391172Y-113828828D01*
X130903489Y-56180350D02*
X130903489Y-54516511D01*
%TO.N,Net-(J1-Pad4)*%
X138551577Y-62351577D02*
X176005103Y-62351577D01*
X183253158Y-69599632D02*
X177181614Y-63528088D01*
X186409036Y-104422283D02*
X186409036Y-69599632D01*
X197887736Y-113547961D02*
X195534714Y-113547961D01*
X149252463Y-77515377D02*
X163194325Y-77515377D01*
X132080000Y-55880000D02*
X138551577Y-62351577D01*
X176005103Y-62351577D02*
X177181614Y-63528088D01*
X163194325Y-77515377D02*
X177181614Y-63528088D01*
X97175292Y-116691888D02*
X120169486Y-116691888D01*
X186409036Y-69599632D02*
X183253158Y-69599632D01*
X120169486Y-116691888D02*
X149252463Y-87608911D01*
X95675721Y-115192317D02*
X97175292Y-116691888D01*
X149252463Y-87608911D02*
X149252463Y-77515377D01*
X195534714Y-113547961D02*
X186409036Y-104422283D01*
X199251225Y-114911450D02*
X197887736Y-113547961D01*
%TO.N,Net-(J1-Pad5)*%
X187960000Y-98540225D02*
X201791225Y-112371450D01*
X202278553Y-116087961D02*
X203200000Y-115166514D01*
X187960000Y-69226474D02*
X187960000Y-98540225D01*
X203200000Y-113780225D02*
X201791225Y-112371450D01*
X137160000Y-55880000D02*
X174613526Y-55880000D01*
X174613526Y-55880000D02*
X179721614Y-60988088D01*
X194435936Y-114300000D02*
X196223897Y-116087961D01*
X134620000Y-53340000D02*
X137160000Y-55880000D01*
X185442463Y-115515377D02*
X186657840Y-114300000D01*
X179721614Y-60988088D02*
X187960000Y-69226474D01*
X196223897Y-116087961D02*
X202278553Y-116087961D01*
X186657840Y-114300000D02*
X194435936Y-114300000D01*
X203200000Y-115166514D02*
X203200000Y-113780225D01*
%TO.N,Net-(J1-Pad6)*%
X135073520Y-56333520D02*
X174425672Y-56333520D01*
X180340000Y-116840000D02*
X186657840Y-116840000D01*
X178545103Y-60452951D02*
X178545103Y-62351577D01*
X187316076Y-98537675D02*
X200614714Y-111836313D01*
X187316076Y-69223924D02*
X187316076Y-98537675D01*
X179721614Y-63528088D02*
X181620240Y-63528088D01*
X200614714Y-113734939D02*
X201791225Y-114911450D01*
X178545103Y-62351577D02*
X179721614Y-63528088D01*
X134620000Y-55880000D02*
X135073520Y-56333520D01*
X200614714Y-111836313D02*
X200614714Y-113734939D01*
X181620240Y-63528088D02*
X187316076Y-69223924D01*
X174425672Y-56333520D02*
X178545103Y-60452951D01*
X186657840Y-116840000D02*
X187982463Y-115515377D01*
%TD*%
%TA.AperFunction,Conductor*%
%TO.N,GND*%
G36*
X147826004Y-45885779D02*
G01*
X148523583Y-45893211D01*
X148526269Y-45893268D01*
X149727708Y-45931695D01*
X149730389Y-45931810D01*
X150925468Y-45995548D01*
X150928058Y-45995713D01*
X152016877Y-46077064D01*
X152116544Y-46084511D01*
X152119214Y-46084739D01*
X152120535Y-46084866D01*
X153300857Y-46198344D01*
X153303491Y-46198626D01*
X153632606Y-46237339D01*
X154477995Y-46336781D01*
X154480645Y-46337121D01*
X155010813Y-46410912D01*
X155647874Y-46499581D01*
X155650470Y-46499971D01*
X156810202Y-46686494D01*
X156812777Y-46686936D01*
X157964792Y-46897275D01*
X157967315Y-46897764D01*
X159111214Y-47131638D01*
X159113801Y-47132195D01*
X159262165Y-47165794D01*
X160249465Y-47389376D01*
X160252036Y-47389986D01*
X160802726Y-47526896D01*
X161379278Y-47670236D01*
X161381785Y-47670887D01*
X161482267Y-47698112D01*
X162500214Y-47973917D01*
X162502732Y-47974627D01*
X162511783Y-47977283D01*
X163612355Y-48300257D01*
X163614861Y-48301021D01*
X164715184Y-48648926D01*
X164717665Y-48649739D01*
X165808578Y-49019706D01*
X165811035Y-49020568D01*
X166892329Y-49412361D01*
X166894759Y-49413270D01*
X167298323Y-49568969D01*
X167966132Y-49826617D01*
X167968435Y-49827532D01*
X168897649Y-50208118D01*
X169029765Y-50262230D01*
X169032139Y-50263231D01*
X169464218Y-50450610D01*
X170083081Y-50718991D01*
X170085355Y-50720005D01*
X170745008Y-51022193D01*
X171125641Y-51196562D01*
X171127956Y-51197651D01*
X172157384Y-51694772D01*
X172159670Y-51695904D01*
X172846251Y-52044771D01*
X173155882Y-52202101D01*
X173178083Y-52213382D01*
X173180329Y-52214553D01*
X173504414Y-52387540D01*
X174187296Y-52752042D01*
X174189518Y-52753257D01*
X174265925Y-52796036D01*
X175185052Y-53310640D01*
X175187175Y-53311856D01*
X175539799Y-53518671D01*
X176170899Y-53888813D01*
X176173056Y-53890108D01*
X177144696Y-54486368D01*
X177146821Y-54487701D01*
X178106146Y-55103018D01*
X178108236Y-55104388D01*
X178994553Y-55698020D01*
X179055091Y-55738567D01*
X179057136Y-55739967D01*
X179074865Y-55752356D01*
X179991198Y-56392708D01*
X179993221Y-56394151D01*
X180914320Y-57065251D01*
X180916308Y-57066730D01*
X181824049Y-57755825D01*
X181826003Y-57757338D01*
X182720361Y-58464342D01*
X182722279Y-58465889D01*
X183570023Y-59163415D01*
X183602915Y-59190479D01*
X183604781Y-59192045D01*
X184471539Y-59934042D01*
X184473304Y-59935583D01*
X184931928Y-60343928D01*
X185325773Y-60694596D01*
X185327584Y-60696241D01*
X186165608Y-61472089D01*
X186167356Y-61473739D01*
X186990642Y-62266122D01*
X186992363Y-62267810D01*
X187800822Y-63076628D01*
X187802462Y-63078301D01*
X187973159Y-63255801D01*
X188595698Y-63903152D01*
X188597365Y-63904919D01*
X189375178Y-64745586D01*
X189376803Y-64747378D01*
X189396976Y-64770041D01*
X190138920Y-65603581D01*
X190140514Y-65605406D01*
X190886790Y-66476999D01*
X190888347Y-66478853D01*
X191618491Y-67365534D01*
X191620010Y-67367415D01*
X192333768Y-68268910D01*
X192335241Y-68270809D01*
X192980460Y-69118657D01*
X193032371Y-69186871D01*
X193033802Y-69188788D01*
X193281648Y-69527761D01*
X193714096Y-70119208D01*
X193715502Y-70121171D01*
X194378661Y-71065618D01*
X194380029Y-71067606D01*
X195025882Y-72025928D01*
X195027212Y-72027943D01*
X195655467Y-72999813D01*
X195656749Y-73001838D01*
X195979652Y-73522978D01*
X196267196Y-73987053D01*
X196268437Y-73989100D01*
X196860836Y-74987414D01*
X196861990Y-74989400D01*
X197177913Y-75545826D01*
X197436105Y-76000571D01*
X197437277Y-76002683D01*
X197538145Y-76188550D01*
X197911758Y-76876998D01*
X197992794Y-77026322D01*
X197993917Y-77028440D01*
X198013983Y-77067169D01*
X198530674Y-78064445D01*
X198531766Y-78066603D01*
X198891393Y-78794612D01*
X199049500Y-79114676D01*
X199050534Y-79116821D01*
X199549002Y-80176716D01*
X199550001Y-80178894D01*
X199569008Y-80221413D01*
X200028959Y-81250335D01*
X200029928Y-81252559D01*
X200489179Y-82335409D01*
X200490105Y-82337654D01*
X200929311Y-83431423D01*
X200930196Y-83433688D01*
X201349226Y-84538395D01*
X201350067Y-84540680D01*
X201660219Y-85408555D01*
X201748622Y-85655928D01*
X201749411Y-85658206D01*
X201765526Y-85706208D01*
X202127261Y-86783771D01*
X202128015Y-86786092D01*
X202484917Y-87921708D01*
X202485628Y-87924047D01*
X202821360Y-89069531D01*
X202822025Y-89071886D01*
X202948048Y-89535004D01*
X203093335Y-90068915D01*
X203136321Y-90226885D01*
X203136931Y-90229214D01*
X203146550Y-90267486D01*
X203429573Y-91393578D01*
X203430148Y-91395964D01*
X203700888Y-92569402D01*
X203701417Y-92571802D01*
X203950028Y-93754135D01*
X203950510Y-93756547D01*
X204176711Y-94947315D01*
X204177147Y-94949740D01*
X204380737Y-96148892D01*
X204381126Y-96151327D01*
X204561852Y-97358568D01*
X204562194Y-97361014D01*
X204719823Y-98576129D01*
X204720117Y-98578583D01*
X204854398Y-99801270D01*
X204854644Y-99803731D01*
X204965342Y-101033758D01*
X204965539Y-101036226D01*
X205050975Y-102252882D01*
X205052406Y-102273266D01*
X205052553Y-102275693D01*
X205108084Y-103375572D01*
X205115366Y-103519807D01*
X205115466Y-103522283D01*
X205152868Y-104737284D01*
X205153962Y-104772838D01*
X205154013Y-104775287D01*
X205167195Y-105963109D01*
X205167944Y-106030650D01*
X205167950Y-106032772D01*
X205167523Y-106102551D01*
X205169990Y-106111182D01*
X205169990Y-106111184D01*
X205173728Y-106124263D01*
X205178579Y-106158887D01*
X205178579Y-116086530D01*
X205158577Y-116154651D01*
X205104921Y-116201144D01*
X205052579Y-116212530D01*
X203356907Y-116212530D01*
X203288786Y-116192528D01*
X203242293Y-116138872D01*
X203232189Y-116068598D01*
X203261683Y-116004018D01*
X203267812Y-115997434D01*
X203332375Y-115932872D01*
X203593488Y-115671759D01*
X203601807Y-115664189D01*
X203608303Y-115660067D01*
X203655086Y-115610248D01*
X203657840Y-115607407D01*
X203677639Y-115587608D01*
X203680063Y-115584483D01*
X203680071Y-115584474D01*
X203680137Y-115584388D01*
X203687845Y-115575363D01*
X203712790Y-115548799D01*
X203718217Y-115543020D01*
X203728023Y-115525183D01*
X203738873Y-115508667D01*
X203751350Y-115492581D01*
X203768976Y-115451848D01*
X203774193Y-115441200D01*
X203791749Y-115409265D01*
X203795569Y-115402317D01*
X203797540Y-115394642D01*
X203797542Y-115394636D01*
X203800631Y-115382603D01*
X203807034Y-115363901D01*
X203815117Y-115345222D01*
X203822060Y-115301387D01*
X203824467Y-115289765D01*
X203835500Y-115246796D01*
X203835500Y-115226449D01*
X203837051Y-115206738D01*
X203838995Y-115194464D01*
X203840235Y-115186635D01*
X203836059Y-115142458D01*
X203835500Y-115130600D01*
X203835500Y-113859257D01*
X203836030Y-113848018D01*
X203837709Y-113840506D01*
X203837329Y-113828398D01*
X203835562Y-113772186D01*
X203835500Y-113768228D01*
X203835500Y-113740242D01*
X203834992Y-113736219D01*
X203834059Y-113724377D01*
X203832914Y-113687945D01*
X203832665Y-113680020D01*
X203826987Y-113660476D01*
X203822977Y-113641113D01*
X203821420Y-113628785D01*
X203821420Y-113628783D01*
X203820427Y-113620926D01*
X203817511Y-113613562D01*
X203817510Y-113613557D01*
X203804093Y-113579669D01*
X203800248Y-113568440D01*
X203794029Y-113547034D01*
X203787869Y-113525832D01*
X203777510Y-113508316D01*
X203768813Y-113490566D01*
X203761319Y-113471637D01*
X203735238Y-113435739D01*
X203728722Y-113425819D01*
X203710173Y-113394454D01*
X203710171Y-113394451D01*
X203706135Y-113387627D01*
X203691747Y-113373239D01*
X203678906Y-113358205D01*
X203671602Y-113348152D01*
X203666942Y-113341738D01*
X203632750Y-113313452D01*
X203623971Y-113305463D01*
X203143102Y-112824594D01*
X203109076Y-112762282D01*
X203111639Y-112698870D01*
X203122090Y-112664472D01*
X203123595Y-112659519D01*
X203152754Y-112438040D01*
X203154381Y-112371450D01*
X203136077Y-112148811D01*
X203081656Y-111932152D01*
X202992579Y-111727290D01*
X202886955Y-111564020D01*
X202874047Y-111544067D01*
X202874045Y-111544064D01*
X202871239Y-111539727D01*
X202720895Y-111374501D01*
X202716844Y-111371302D01*
X202716840Y-111371298D01*
X202549639Y-111239250D01*
X202549635Y-111239248D01*
X202545584Y-111236048D01*
X202350014Y-111128088D01*
X202345145Y-111126364D01*
X202345141Y-111126362D01*
X202144312Y-111055245D01*
X202144308Y-111055244D01*
X202139437Y-111053519D01*
X202134344Y-111052612D01*
X202134341Y-111052611D01*
X201924598Y-111015250D01*
X201924592Y-111015249D01*
X201919509Y-111014344D01*
X201845677Y-111013442D01*
X201701306Y-111011678D01*
X201701304Y-111011678D01*
X201696136Y-111011615D01*
X201569774Y-111030951D01*
X201480425Y-111044623D01*
X201480422Y-111044624D01*
X201475316Y-111045405D01*
X201470410Y-111047009D01*
X201470404Y-111047010D01*
X201466338Y-111048340D01*
X201464895Y-111048811D01*
X201393932Y-111050966D01*
X201336650Y-111018143D01*
X194987569Y-104669061D01*
X188632405Y-98313897D01*
X188598379Y-98251585D01*
X188595500Y-98224802D01*
X188595500Y-69305494D01*
X188596030Y-69294260D01*
X188597708Y-69286755D01*
X188595562Y-69218462D01*
X188595500Y-69214505D01*
X188595500Y-69186491D01*
X188594992Y-69182470D01*
X188594058Y-69170618D01*
X188592914Y-69134192D01*
X188592914Y-69134191D01*
X188592665Y-69126269D01*
X188586987Y-69106725D01*
X188582977Y-69087362D01*
X188581420Y-69075034D01*
X188581420Y-69075032D01*
X188580427Y-69067175D01*
X188577511Y-69059811D01*
X188577510Y-69059806D01*
X188564093Y-69025918D01*
X188560248Y-69014689D01*
X188550080Y-68979693D01*
X188547869Y-68972081D01*
X188537510Y-68954565D01*
X188528813Y-68936815D01*
X188521319Y-68917886D01*
X188495240Y-68881991D01*
X188488722Y-68872069D01*
X188470170Y-68840698D01*
X188470166Y-68840693D01*
X188466134Y-68833875D01*
X188451747Y-68819488D01*
X188438906Y-68804454D01*
X188431602Y-68794401D01*
X188426942Y-68787987D01*
X188392750Y-68759701D01*
X188383971Y-68751712D01*
X181073491Y-61441232D01*
X181039465Y-61378920D01*
X181042028Y-61315508D01*
X181052479Y-61281110D01*
X181053984Y-61276157D01*
X181083143Y-61054678D01*
X181084770Y-60988088D01*
X181066466Y-60765449D01*
X181012045Y-60548790D01*
X180922968Y-60343928D01*
X180801628Y-60156365D01*
X180651284Y-59991139D01*
X180647233Y-59987940D01*
X180647229Y-59987936D01*
X180480028Y-59855888D01*
X180480024Y-59855886D01*
X180475973Y-59852686D01*
X180280403Y-59744726D01*
X180275534Y-59743002D01*
X180275530Y-59743000D01*
X180074701Y-59671883D01*
X180074697Y-59671882D01*
X180069826Y-59670157D01*
X180064733Y-59669250D01*
X180064730Y-59669249D01*
X179854987Y-59631888D01*
X179854981Y-59631887D01*
X179849898Y-59630982D01*
X179776066Y-59630080D01*
X179631695Y-59628316D01*
X179631693Y-59628316D01*
X179626525Y-59628253D01*
X179479241Y-59650791D01*
X179410814Y-59661261D01*
X179410811Y-59661262D01*
X179405705Y-59662043D01*
X179400798Y-59663647D01*
X179400785Y-59663650D01*
X179395275Y-59665451D01*
X179324311Y-59667600D01*
X179267039Y-59634780D01*
X175118776Y-55486517D01*
X175111200Y-55478191D01*
X175107079Y-55471697D01*
X175057260Y-55424914D01*
X175054419Y-55422160D01*
X175034620Y-55402361D01*
X175031495Y-55399937D01*
X175031486Y-55399929D01*
X175031400Y-55399863D01*
X175022375Y-55392155D01*
X174995811Y-55367210D01*
X174990032Y-55361783D01*
X174972195Y-55351977D01*
X174955679Y-55341127D01*
X174939593Y-55328650D01*
X174898860Y-55311024D01*
X174888212Y-55305807D01*
X174876584Y-55299415D01*
X174849329Y-55284431D01*
X174841654Y-55282460D01*
X174841648Y-55282458D01*
X174829615Y-55279369D01*
X174810913Y-55272966D01*
X174792234Y-55264883D01*
X174758398Y-55259524D01*
X174748399Y-55257940D01*
X174736786Y-55255535D01*
X174693808Y-55244500D01*
X174673461Y-55244500D01*
X174653750Y-55242949D01*
X174641476Y-55241005D01*
X174633647Y-55239765D01*
X174625755Y-55240511D01*
X174589470Y-55243941D01*
X174577612Y-55244500D01*
X137475423Y-55244500D01*
X137407302Y-55224498D01*
X137386328Y-55207595D01*
X135971877Y-53793144D01*
X135937851Y-53730832D01*
X135940414Y-53667420D01*
X135947660Y-53643573D01*
X135952370Y-53628069D01*
X135981529Y-53406590D01*
X135983156Y-53340000D01*
X135964852Y-53117361D01*
X135910431Y-52900702D01*
X135821354Y-52695840D01*
X135781906Y-52634862D01*
X135702822Y-52512617D01*
X135702820Y-52512614D01*
X135700014Y-52508277D01*
X135549670Y-52343051D01*
X135545619Y-52339852D01*
X135545615Y-52339848D01*
X135378414Y-52207800D01*
X135378410Y-52207798D01*
X135374359Y-52204598D01*
X135178789Y-52096638D01*
X135173920Y-52094914D01*
X135173916Y-52094912D01*
X134973087Y-52023795D01*
X134973083Y-52023794D01*
X134968212Y-52022069D01*
X134963119Y-52021162D01*
X134963116Y-52021161D01*
X134753373Y-51983800D01*
X134753367Y-51983799D01*
X134748284Y-51982894D01*
X134674452Y-51981992D01*
X134530081Y-51980228D01*
X134530079Y-51980228D01*
X134524911Y-51980165D01*
X134304091Y-52013955D01*
X134091756Y-52083357D01*
X133893607Y-52186507D01*
X133889474Y-52189610D01*
X133889471Y-52189612D01*
X133719100Y-52317530D01*
X133714965Y-52320635D01*
X133711393Y-52324373D01*
X133574895Y-52467210D01*
X133560629Y-52482138D01*
X133453201Y-52639621D01*
X133398293Y-52684621D01*
X133327768Y-52692792D01*
X133264021Y-52661538D01*
X133243324Y-52637054D01*
X133162822Y-52512617D01*
X133162820Y-52512614D01*
X133160014Y-52508277D01*
X133009670Y-52343051D01*
X133005619Y-52339852D01*
X133005615Y-52339848D01*
X132838414Y-52207800D01*
X132838410Y-52207798D01*
X132834359Y-52204598D01*
X132638789Y-52096638D01*
X132633920Y-52094914D01*
X132633916Y-52094912D01*
X132433087Y-52023795D01*
X132433083Y-52023794D01*
X132428212Y-52022069D01*
X132423119Y-52021162D01*
X132423116Y-52021161D01*
X132213373Y-51983800D01*
X132213367Y-51983799D01*
X132208284Y-51982894D01*
X132134452Y-51981992D01*
X131990081Y-51980228D01*
X131990079Y-51980228D01*
X131984911Y-51980165D01*
X131764091Y-52013955D01*
X131551756Y-52083357D01*
X131353607Y-52186507D01*
X131349474Y-52189610D01*
X131349471Y-52189612D01*
X131179100Y-52317530D01*
X131174965Y-52320635D01*
X131118537Y-52379684D01*
X131094283Y-52405064D01*
X131032759Y-52440494D01*
X130961846Y-52437037D01*
X130904060Y-52395791D01*
X130885207Y-52362243D01*
X130845899Y-52257389D01*
X130840615Y-52243295D01*
X130753261Y-52126739D01*
X130636705Y-52039385D01*
X130500316Y-51988255D01*
X130438134Y-51981500D01*
X128641866Y-51981500D01*
X128579684Y-51988255D01*
X128443295Y-52039385D01*
X128326739Y-52126739D01*
X128239385Y-52243295D01*
X128188255Y-52379684D01*
X128181500Y-52441866D01*
X128181500Y-53747577D01*
X128161498Y-53815698D01*
X128144595Y-53836672D01*
X95155178Y-86826089D01*
X95146852Y-86833665D01*
X95140358Y-86837786D01*
X95134935Y-86843561D01*
X95093576Y-86887604D01*
X95090821Y-86890446D01*
X95071022Y-86910245D01*
X95068598Y-86913370D01*
X95068590Y-86913379D01*
X95068524Y-86913465D01*
X95060816Y-86922490D01*
X95030444Y-86954833D01*
X95026626Y-86961777D01*
X95026625Y-86961779D01*
X95020639Y-86972668D01*
X95009788Y-86989186D01*
X94997311Y-87005272D01*
X94979685Y-87046005D01*
X94974468Y-87056653D01*
X94953092Y-87095536D01*
X94951121Y-87103211D01*
X94951119Y-87103217D01*
X94948030Y-87115250D01*
X94941627Y-87133952D01*
X94933544Y-87152631D01*
X94932305Y-87160456D01*
X94926601Y-87196466D01*
X94924196Y-87208079D01*
X94913161Y-87251057D01*
X94913161Y-87271404D01*
X94911610Y-87291115D01*
X94908426Y-87311218D01*
X94909172Y-87319110D01*
X94912602Y-87355395D01*
X94913161Y-87367253D01*
X94913161Y-89698500D01*
X94893159Y-89766621D01*
X94839503Y-89813114D01*
X94831390Y-89816482D01*
X94710366Y-89861852D01*
X94710365Y-89861853D01*
X94701956Y-89865005D01*
X94585400Y-89952359D01*
X94498046Y-90068915D01*
X94446916Y-90205304D01*
X94440161Y-90267486D01*
X94440161Y-92863754D01*
X94446916Y-92925936D01*
X94498046Y-93062325D01*
X94585400Y-93178881D01*
X94701956Y-93266235D01*
X94710365Y-93269387D01*
X94710366Y-93269388D01*
X94831390Y-93314758D01*
X94888155Y-93357399D01*
X94912855Y-93423961D01*
X94913161Y-93432740D01*
X94913161Y-95198500D01*
X94893159Y-95266621D01*
X94839503Y-95313114D01*
X94831390Y-95316482D01*
X94710366Y-95361852D01*
X94710365Y-95361853D01*
X94701956Y-95365005D01*
X94585400Y-95452359D01*
X94498046Y-95568915D01*
X94446916Y-95705304D01*
X94440161Y-95767486D01*
X94440161Y-98363754D01*
X94446916Y-98425936D01*
X94498046Y-98562325D01*
X94585400Y-98678881D01*
X94701956Y-98766235D01*
X94710365Y-98769387D01*
X94710366Y-98769388D01*
X94831390Y-98814758D01*
X94888155Y-98857399D01*
X94912855Y-98923961D01*
X94913161Y-98932740D01*
X94913161Y-109923954D01*
X94893159Y-109992075D01*
X94876256Y-110013049D01*
X93632393Y-111256912D01*
X93570081Y-111290938D01*
X93543298Y-111293817D01*
X92237587Y-111293817D01*
X92175405Y-111300572D01*
X92039016Y-111351702D01*
X91922460Y-111439056D01*
X91835106Y-111555612D01*
X91783976Y-111692001D01*
X91777221Y-111754183D01*
X91777221Y-113550451D01*
X91783976Y-113612633D01*
X91835106Y-113749022D01*
X91922460Y-113865578D01*
X92039016Y-113952932D01*
X92047425Y-113956084D01*
X92047426Y-113956085D01*
X92156681Y-113997043D01*
X92213446Y-114039684D01*
X92238146Y-114106246D01*
X92222939Y-114175595D01*
X92203546Y-114202076D01*
X92080311Y-114331034D01*
X92073825Y-114339044D01*
X91953819Y-114514966D01*
X91948721Y-114523940D01*
X91859059Y-114717100D01*
X91855496Y-114726787D01*
X91800110Y-114926500D01*
X91801633Y-114934924D01*
X91814013Y-114938317D01*
X93263721Y-114938317D01*
X93331842Y-114958319D01*
X93378335Y-115011975D01*
X93389721Y-115064317D01*
X93389721Y-116510834D01*
X93393785Y-116524676D01*
X93407199Y-116526710D01*
X93413905Y-116525851D01*
X93423983Y-116523709D01*
X93627976Y-116462508D01*
X93637563Y-116458750D01*
X93828816Y-116365056D01*
X93837666Y-116359781D01*
X94011049Y-116236109D01*
X94018921Y-116229456D01*
X94169773Y-116079129D01*
X94176451Y-116071282D01*
X94303743Y-115894136D01*
X94305000Y-115895039D01*
X94352094Y-115851679D01*
X94422032Y-115839462D01*
X94487472Y-115866995D01*
X94515300Y-115898828D01*
X94533031Y-115927762D01*
X94575708Y-115997405D01*
X94721971Y-116166255D01*
X94893847Y-116308949D01*
X95086721Y-116421655D01*
X95295413Y-116501347D01*
X95300481Y-116502378D01*
X95300484Y-116502379D01*
X95395583Y-116521727D01*
X95514318Y-116545884D01*
X95519493Y-116546074D01*
X95519495Y-116546074D01*
X95732394Y-116553881D01*
X95732398Y-116553881D01*
X95737558Y-116554070D01*
X95742678Y-116553414D01*
X95742680Y-116553414D01*
X95816135Y-116544004D01*
X95959137Y-116525685D01*
X95964090Y-116524199D01*
X95964095Y-116524198D01*
X95993738Y-116515304D01*
X96003372Y-116512414D01*
X96074367Y-116511996D01*
X96128675Y-116544004D01*
X96670042Y-117085371D01*
X96677618Y-117093697D01*
X96681739Y-117100191D01*
X96687514Y-117105614D01*
X96731557Y-117146973D01*
X96734399Y-117149728D01*
X96754198Y-117169527D01*
X96757329Y-117171956D01*
X96757334Y-117171960D01*
X96757420Y-117172027D01*
X96766445Y-117179735D01*
X96798786Y-117210105D01*
X96805731Y-117213923D01*
X96805735Y-117213926D01*
X96816626Y-117219914D01*
X96833147Y-117230766D01*
X96849226Y-117243238D01*
X96889947Y-117260859D01*
X96900603Y-117266080D01*
X96932537Y-117283636D01*
X96932543Y-117283638D01*
X96939489Y-117287457D01*
X96947164Y-117289428D01*
X96947170Y-117289430D01*
X96959203Y-117292519D01*
X96977905Y-117298922D01*
X96996584Y-117307005D01*
X97004410Y-117308245D01*
X97004415Y-117308246D01*
X97040412Y-117313948D01*
X97052032Y-117316354D01*
X97087329Y-117325416D01*
X97095010Y-117327388D01*
X97115358Y-117327388D01*
X97135070Y-117328939D01*
X97155172Y-117332123D01*
X97199347Y-117327947D01*
X97211206Y-117327388D01*
X120090466Y-117327388D01*
X120101700Y-117327918D01*
X120109205Y-117329596D01*
X120177498Y-117327450D01*
X120181455Y-117327388D01*
X120209469Y-117327388D01*
X120213394Y-117326892D01*
X120213395Y-117326892D01*
X120213490Y-117326880D01*
X120225335Y-117325947D01*
X120255156Y-117325010D01*
X120261768Y-117324802D01*
X120261769Y-117324802D01*
X120269691Y-117324553D01*
X120289235Y-117318875D01*
X120308598Y-117314865D01*
X120320926Y-117313308D01*
X120320928Y-117313308D01*
X120328785Y-117312315D01*
X120336149Y-117309399D01*
X120336154Y-117309398D01*
X120370042Y-117295981D01*
X120381271Y-117292136D01*
X120397951Y-117287290D01*
X120423879Y-117279757D01*
X120430706Y-117275719D01*
X120430709Y-117275718D01*
X120441392Y-117269400D01*
X120459150Y-117260700D01*
X120470701Y-117256127D01*
X120470707Y-117256123D01*
X120478074Y-117253207D01*
X120513977Y-117227122D01*
X120523896Y-117220607D01*
X120555254Y-117202062D01*
X120555258Y-117202059D01*
X120562084Y-117198022D01*
X120576468Y-117183638D01*
X120591502Y-117170797D01*
X120601559Y-117163490D01*
X120607973Y-117158830D01*
X120636264Y-117124632D01*
X120644253Y-117115853D01*
X149645946Y-88114161D01*
X149654272Y-88106585D01*
X149660766Y-88102464D01*
X149707549Y-88052645D01*
X149710303Y-88049804D01*
X149730102Y-88030005D01*
X149732531Y-88026874D01*
X149732535Y-88026869D01*
X149732602Y-88026783D01*
X149740310Y-88017758D01*
X149765255Y-87991194D01*
X149770680Y-87985417D01*
X149774498Y-87978472D01*
X149774501Y-87978468D01*
X149780489Y-87967577D01*
X149791341Y-87951056D01*
X149798955Y-87941240D01*
X149798955Y-87941239D01*
X149803813Y-87934977D01*
X149821437Y-87894249D01*
X149826659Y-87883592D01*
X149844211Y-87851665D01*
X149844212Y-87851662D01*
X149848032Y-87844714D01*
X149853095Y-87824996D01*
X149859497Y-87806297D01*
X149867580Y-87787618D01*
X149868819Y-87779794D01*
X149868821Y-87779788D01*
X149874523Y-87743791D01*
X149876929Y-87732171D01*
X149885991Y-87696874D01*
X149885991Y-87696873D01*
X149887963Y-87689193D01*
X149887963Y-87668845D01*
X149889514Y-87649134D01*
X149891458Y-87636860D01*
X149892698Y-87629031D01*
X149888522Y-87584855D01*
X149887963Y-87572997D01*
X149887963Y-78794612D01*
X149907965Y-78726491D01*
X149948634Y-78687166D01*
X149950457Y-78686273D01*
X150132323Y-78556550D01*
X150290559Y-78398866D01*
X150350057Y-78316066D01*
X150417901Y-78221650D01*
X150417902Y-78221649D01*
X150420916Y-78217454D01*
X150423205Y-78212822D01*
X150423710Y-78211982D01*
X150475940Y-78163893D01*
X150531713Y-78150877D01*
X163115305Y-78150877D01*
X163126539Y-78151407D01*
X163134044Y-78153085D01*
X163202337Y-78150939D01*
X163206294Y-78150877D01*
X163234308Y-78150877D01*
X163238233Y-78150381D01*
X163238234Y-78150381D01*
X163238329Y-78150369D01*
X163250174Y-78149436D01*
X163279995Y-78148499D01*
X163286607Y-78148291D01*
X163286608Y-78148291D01*
X163294530Y-78148042D01*
X163314074Y-78142364D01*
X163333437Y-78138354D01*
X163345765Y-78136797D01*
X163345767Y-78136797D01*
X163353624Y-78135804D01*
X163360988Y-78132888D01*
X163360993Y-78132887D01*
X163394881Y-78119470D01*
X163406110Y-78115625D01*
X163422790Y-78110779D01*
X163448718Y-78103246D01*
X163455545Y-78099208D01*
X163455548Y-78099207D01*
X163466231Y-78092889D01*
X163483989Y-78084189D01*
X163495540Y-78079616D01*
X163495546Y-78079612D01*
X163502913Y-78076696D01*
X163538816Y-78050611D01*
X163548735Y-78044096D01*
X163580093Y-78025551D01*
X163580097Y-78025548D01*
X163586923Y-78021511D01*
X163601307Y-78007127D01*
X163616341Y-77994286D01*
X163626398Y-77986979D01*
X163632812Y-77982319D01*
X163661103Y-77948121D01*
X163669092Y-77939342D01*
X176728514Y-64879921D01*
X176790826Y-64845895D01*
X176842726Y-64845545D01*
X177020211Y-64881655D01*
X177025386Y-64881845D01*
X177025388Y-64881845D01*
X177238287Y-64889652D01*
X177238291Y-64889652D01*
X177243451Y-64889841D01*
X177248571Y-64889185D01*
X177248573Y-64889185D01*
X177317767Y-64880321D01*
X177465030Y-64861456D01*
X177469983Y-64859970D01*
X177469988Y-64859969D01*
X177507461Y-64848726D01*
X177509265Y-64848185D01*
X177580260Y-64847767D01*
X177634568Y-64879775D01*
X182747908Y-69993115D01*
X182755484Y-70001441D01*
X182759605Y-70007935D01*
X182765380Y-70013358D01*
X182809423Y-70054717D01*
X182812265Y-70057472D01*
X182832064Y-70077271D01*
X182835189Y-70079695D01*
X182835198Y-70079703D01*
X182835284Y-70079769D01*
X182844309Y-70087477D01*
X182876652Y-70117849D01*
X182883596Y-70121667D01*
X182883598Y-70121668D01*
X182894487Y-70127654D01*
X182911005Y-70138505D01*
X182927091Y-70150982D01*
X182967824Y-70168608D01*
X182978472Y-70173825D01*
X183017355Y-70195201D01*
X183025030Y-70197172D01*
X183025036Y-70197174D01*
X183037069Y-70200263D01*
X183055771Y-70206666D01*
X183074450Y-70214749D01*
X183108286Y-70220108D01*
X183118285Y-70221692D01*
X183129898Y-70224097D01*
X183172876Y-70235132D01*
X183193223Y-70235132D01*
X183212935Y-70236683D01*
X183233037Y-70239867D01*
X183240929Y-70239121D01*
X183277214Y-70235691D01*
X183289072Y-70235132D01*
X185647536Y-70235132D01*
X185715657Y-70255134D01*
X185762150Y-70308790D01*
X185773536Y-70361132D01*
X185773536Y-104343263D01*
X185773006Y-104354497D01*
X185771328Y-104362002D01*
X185771577Y-104369921D01*
X185773474Y-104430295D01*
X185773536Y-104434252D01*
X185773536Y-104462266D01*
X185774032Y-104466191D01*
X185774032Y-104466192D01*
X185774044Y-104466287D01*
X185774977Y-104478132D01*
X185776371Y-104522488D01*
X185778583Y-104530100D01*
X185782049Y-104542031D01*
X185786059Y-104561395D01*
X185788609Y-104581582D01*
X185791525Y-104588946D01*
X185791526Y-104588951D01*
X185804943Y-104622839D01*
X185808788Y-104634068D01*
X185821167Y-104676676D01*
X185825205Y-104683503D01*
X185825206Y-104683506D01*
X185831524Y-104694189D01*
X185840224Y-104711947D01*
X185844797Y-104723498D01*
X185844801Y-104723504D01*
X185847717Y-104730871D01*
X185852375Y-104737282D01*
X185852376Y-104737284D01*
X185873800Y-104766771D01*
X185880317Y-104776693D01*
X185898862Y-104808051D01*
X185898865Y-104808055D01*
X185902902Y-104814881D01*
X185917286Y-104829265D01*
X185930127Y-104844299D01*
X185942094Y-104860770D01*
X185948202Y-104865823D01*
X185976291Y-104889060D01*
X185985071Y-104897050D01*
X194533253Y-113445233D01*
X194567279Y-113507545D01*
X194562214Y-113578360D01*
X194519667Y-113635196D01*
X194456015Y-113659769D01*
X194411879Y-113663941D01*
X194400022Y-113664500D01*
X186736872Y-113664500D01*
X186725633Y-113663970D01*
X186718121Y-113662291D01*
X186710196Y-113662540D01*
X186710195Y-113662540D01*
X186649810Y-113664438D01*
X186645852Y-113664500D01*
X186617857Y-113664500D01*
X186613923Y-113664997D01*
X186613921Y-113664997D01*
X186613834Y-113665008D01*
X186602000Y-113665940D01*
X186557635Y-113667335D01*
X186550022Y-113669547D01*
X186550021Y-113669547D01*
X186538092Y-113673013D01*
X186518728Y-113677023D01*
X186506400Y-113678580D01*
X186506398Y-113678580D01*
X186498541Y-113679573D01*
X186491177Y-113682489D01*
X186491172Y-113682490D01*
X186457284Y-113695907D01*
X186446055Y-113699752D01*
X186432081Y-113703812D01*
X186403447Y-113712131D01*
X186396621Y-113716168D01*
X186385931Y-113722490D01*
X186368181Y-113731187D01*
X186349252Y-113738681D01*
X186342838Y-113743341D01*
X186313354Y-113764762D01*
X186303434Y-113771278D01*
X186272069Y-113789827D01*
X186272066Y-113789829D01*
X186265242Y-113793865D01*
X186250854Y-113808253D01*
X186235820Y-113821094D01*
X186219353Y-113833058D01*
X186214300Y-113839166D01*
X186191068Y-113867249D01*
X186183078Y-113876029D01*
X185897407Y-114161700D01*
X185835095Y-114195726D01*
X185786217Y-114196652D01*
X185711771Y-114183391D01*
X185575836Y-114159177D01*
X185575830Y-114159176D01*
X185570747Y-114158271D01*
X185496915Y-114157369D01*
X185352544Y-114155605D01*
X185352542Y-114155605D01*
X185347374Y-114155542D01*
X185126554Y-114189332D01*
X184914219Y-114258734D01*
X184909627Y-114261124D01*
X184909628Y-114261124D01*
X184768761Y-114334455D01*
X184716070Y-114361884D01*
X184711937Y-114364987D01*
X184711934Y-114364989D01*
X184552987Y-114484330D01*
X184537428Y-114496012D01*
X184533856Y-114499750D01*
X184424814Y-114613856D01*
X184383092Y-114657515D01*
X184257206Y-114842057D01*
X184255027Y-114846752D01*
X184197967Y-114969678D01*
X184163151Y-115044682D01*
X184103452Y-115259947D01*
X184079714Y-115482072D01*
X184080011Y-115487225D01*
X184080011Y-115487228D01*
X184087022Y-115608821D01*
X184092573Y-115705092D01*
X184093710Y-115710138D01*
X184093711Y-115710144D01*
X184107060Y-115769377D01*
X184141685Y-115923016D01*
X184145130Y-115931500D01*
X184185571Y-116031096D01*
X184192667Y-116101738D01*
X184160445Y-116165001D01*
X184099135Y-116200801D01*
X184068828Y-116204500D01*
X181046399Y-116204500D01*
X180978278Y-116184498D01*
X180961092Y-116169891D01*
X180960580Y-116170460D01*
X180955668Y-116166037D01*
X180951253Y-116161134D01*
X180807083Y-116056388D01*
X180802094Y-116052763D01*
X180802093Y-116052762D01*
X180796752Y-116048882D01*
X180790724Y-116046198D01*
X180790722Y-116046197D01*
X180628319Y-115973891D01*
X180628318Y-115973891D01*
X180622288Y-115971206D01*
X180528888Y-115951353D01*
X180441944Y-115932872D01*
X180441939Y-115932872D01*
X180435487Y-115931500D01*
X180244513Y-115931500D01*
X180238061Y-115932872D01*
X180238056Y-115932872D01*
X180151112Y-115951353D01*
X180057712Y-115971206D01*
X180051682Y-115973891D01*
X180051681Y-115973891D01*
X179889278Y-116046197D01*
X179889276Y-116046198D01*
X179883248Y-116048882D01*
X179877907Y-116052762D01*
X179877906Y-116052763D01*
X179872917Y-116056388D01*
X179728747Y-116161134D01*
X179724326Y-116166044D01*
X179724325Y-116166045D01*
X179674255Y-116221654D01*
X179600960Y-116303056D01*
X179505473Y-116468444D01*
X179446458Y-116650072D01*
X179445768Y-116656633D01*
X179445768Y-116656635D01*
X179438377Y-116726956D01*
X179426496Y-116840000D01*
X179427186Y-116846565D01*
X179430330Y-116876474D01*
X179446458Y-117029928D01*
X179505473Y-117211556D01*
X179508776Y-117217278D01*
X179508777Y-117217279D01*
X179538160Y-117268171D01*
X179600960Y-117376944D01*
X179605378Y-117381851D01*
X179605379Y-117381852D01*
X179689700Y-117475500D01*
X179728747Y-117518866D01*
X179883248Y-117631118D01*
X179889276Y-117633802D01*
X179889278Y-117633803D01*
X180051681Y-117706109D01*
X180057712Y-117708794D01*
X180151113Y-117728647D01*
X180238056Y-117747128D01*
X180238061Y-117747128D01*
X180244513Y-117748500D01*
X180435487Y-117748500D01*
X180441939Y-117747128D01*
X180441944Y-117747128D01*
X180528887Y-117728647D01*
X180622288Y-117708794D01*
X180628319Y-117706109D01*
X180790722Y-117633803D01*
X180790724Y-117633802D01*
X180796752Y-117631118D01*
X180951253Y-117518866D01*
X180955668Y-117513963D01*
X180960580Y-117509540D01*
X180962221Y-117511362D01*
X181013210Y-117479950D01*
X181046399Y-117475500D01*
X186578820Y-117475500D01*
X186590054Y-117476030D01*
X186597559Y-117477708D01*
X186665852Y-117475562D01*
X186669809Y-117475500D01*
X186697823Y-117475500D01*
X186701748Y-117475004D01*
X186701749Y-117475004D01*
X186701844Y-117474992D01*
X186713689Y-117474059D01*
X186743510Y-117473122D01*
X186750122Y-117472914D01*
X186750123Y-117472914D01*
X186758045Y-117472665D01*
X186777589Y-117466987D01*
X186796952Y-117462977D01*
X186809280Y-117461420D01*
X186809282Y-117461420D01*
X186817139Y-117460427D01*
X186824503Y-117457511D01*
X186824508Y-117457510D01*
X186858396Y-117444093D01*
X186869625Y-117440248D01*
X186886305Y-117435402D01*
X186912233Y-117427869D01*
X186919060Y-117423831D01*
X186919063Y-117423830D01*
X186929746Y-117417512D01*
X186947504Y-117408812D01*
X186959055Y-117404239D01*
X186959061Y-117404235D01*
X186966428Y-117401319D01*
X187002331Y-117375234D01*
X187012250Y-117368719D01*
X187043608Y-117350174D01*
X187043612Y-117350171D01*
X187050438Y-117346134D01*
X187064822Y-117331750D01*
X187079856Y-117318909D01*
X187089913Y-117311602D01*
X187096327Y-117306942D01*
X187124613Y-117272750D01*
X187132603Y-117263969D01*
X187529364Y-116867209D01*
X187591676Y-116833184D01*
X187643580Y-116832835D01*
X187821060Y-116868944D01*
X187826235Y-116869134D01*
X187826237Y-116869134D01*
X188039136Y-116876941D01*
X188039140Y-116876941D01*
X188044300Y-116877130D01*
X188049420Y-116876474D01*
X188049422Y-116876474D01*
X188260751Y-116849402D01*
X188260752Y-116849402D01*
X188265879Y-116848745D01*
X188270829Y-116847260D01*
X188474892Y-116786038D01*
X188474897Y-116786036D01*
X188479847Y-116784551D01*
X188680457Y-116686273D01*
X188862323Y-116556550D01*
X188873027Y-116545884D01*
X189016898Y-116402514D01*
X189020559Y-116398866D01*
X189150916Y-116217454D01*
X189159147Y-116200801D01*
X189247599Y-116021830D01*
X189247600Y-116021828D01*
X189249893Y-116017188D01*
X189300179Y-115851679D01*
X189313328Y-115808400D01*
X189313328Y-115808398D01*
X189314833Y-115803446D01*
X189343992Y-115581967D01*
X189344074Y-115578617D01*
X189345537Y-115518742D01*
X189345537Y-115518738D01*
X189345619Y-115515377D01*
X189327315Y-115292738D01*
X189276942Y-115092195D01*
X189279746Y-115021254D01*
X189320459Y-114963091D01*
X189386154Y-114936172D01*
X189399146Y-114935500D01*
X194120514Y-114935500D01*
X194188635Y-114955502D01*
X194209609Y-114972405D01*
X195718647Y-116481444D01*
X195726223Y-116489770D01*
X195730344Y-116496264D01*
X195736856Y-116502379D01*
X195780162Y-116543046D01*
X195783004Y-116545801D01*
X195802803Y-116565600D01*
X195805928Y-116568024D01*
X195805937Y-116568032D01*
X195806023Y-116568098D01*
X195815048Y-116575806D01*
X195847391Y-116606178D01*
X195854335Y-116609996D01*
X195854337Y-116609997D01*
X195865226Y-116615983D01*
X195881744Y-116626834D01*
X195897830Y-116639311D01*
X195938563Y-116656937D01*
X195949211Y-116662154D01*
X195988094Y-116683530D01*
X195995769Y-116685501D01*
X195995775Y-116685503D01*
X196007808Y-116688592D01*
X196026510Y-116694995D01*
X196045189Y-116703078D01*
X196079025Y-116708437D01*
X196089024Y-116710021D01*
X196100637Y-116712426D01*
X196143615Y-116723461D01*
X196163962Y-116723461D01*
X196183674Y-116725012D01*
X196203776Y-116728196D01*
X196211668Y-116727450D01*
X196247953Y-116724020D01*
X196259811Y-116723461D01*
X199810971Y-116723461D01*
X199879092Y-116743463D01*
X199925585Y-116797119D01*
X199936971Y-116849461D01*
X199936971Y-119238680D01*
X199916969Y-119306801D01*
X199863313Y-119353294D01*
X199810971Y-119364680D01*
X89587421Y-119364680D01*
X89519300Y-119344678D01*
X89472807Y-119291022D01*
X89461421Y-119238680D01*
X89461421Y-115460283D01*
X91803978Y-115460283D01*
X91834286Y-115594763D01*
X91837366Y-115604592D01*
X91917491Y-115801920D01*
X91922134Y-115811111D01*
X92033415Y-115992705D01*
X92039498Y-116001016D01*
X92178934Y-116161984D01*
X92186301Y-116169200D01*
X92350155Y-116305233D01*
X92358602Y-116311148D01*
X92542477Y-116418596D01*
X92551763Y-116423046D01*
X92750722Y-116499020D01*
X92760620Y-116501896D01*
X92863971Y-116522923D01*
X92878020Y-116521727D01*
X92881721Y-116511382D01*
X92881721Y-115464432D01*
X92877246Y-115449193D01*
X92875856Y-115447988D01*
X92868173Y-115446317D01*
X91818946Y-115446317D01*
X91805415Y-115450290D01*
X91803978Y-115460283D01*
X89461421Y-115460283D01*
X89461421Y-106110033D01*
X89461427Y-106108792D01*
X89473854Y-104847254D01*
X89473903Y-104844771D01*
X89510927Y-103592717D01*
X89511025Y-103590236D01*
X89572431Y-102344861D01*
X89572577Y-102342384D01*
X89574126Y-102319969D01*
X89658134Y-101103706D01*
X89658330Y-101101237D01*
X89664221Y-101034956D01*
X89767781Y-99869776D01*
X89768019Y-99867360D01*
X89774805Y-99804960D01*
X89869879Y-98930618D01*
X89901134Y-98643182D01*
X89901426Y-98640724D01*
X90057951Y-97424185D01*
X90058291Y-97421735D01*
X90237984Y-96213072D01*
X90238371Y-96210632D01*
X90441004Y-95010005D01*
X90441439Y-95007576D01*
X90452600Y-94948518D01*
X90666755Y-93815330D01*
X90667230Y-93812943D01*
X90679295Y-93755307D01*
X90914999Y-92629254D01*
X90915521Y-92626877D01*
X90928729Y-92569402D01*
X91102709Y-91812292D01*
X91185485Y-91452076D01*
X91186058Y-91449686D01*
X91478012Y-90283857D01*
X91478632Y-90281482D01*
X91493113Y-90228092D01*
X91792281Y-89125101D01*
X91792935Y-89122776D01*
X91808159Y-89070683D01*
X92128107Y-87975838D01*
X92128808Y-87973525D01*
X92130673Y-87967577D01*
X92485150Y-86836644D01*
X92485901Y-86834326D01*
X92595040Y-86508416D01*
X92863308Y-85707319D01*
X92864079Y-85705090D01*
X93262216Y-84588495D01*
X93263054Y-84586216D01*
X93681705Y-83480212D01*
X93682588Y-83477944D01*
X93818367Y-83139159D01*
X94121552Y-82382674D01*
X94122439Y-82380524D01*
X94581403Y-81296421D01*
X94582371Y-81294193D01*
X95061131Y-80221413D01*
X95062141Y-80219207D01*
X95560438Y-79158040D01*
X95561490Y-79155856D01*
X95971638Y-78324367D01*
X96079100Y-78106511D01*
X96080180Y-78104373D01*
X96092990Y-78079616D01*
X96616836Y-77067155D01*
X96617960Y-77065030D01*
X96628989Y-77044682D01*
X96997377Y-76364989D01*
X97173485Y-76040061D01*
X97174658Y-76037946D01*
X97358399Y-75713939D01*
X97748753Y-75025591D01*
X97749903Y-75023606D01*
X98342396Y-74023994D01*
X98343630Y-74021957D01*
X98954143Y-73035567D01*
X98955434Y-73033526D01*
X99583791Y-72060491D01*
X99585121Y-72058474D01*
X100231121Y-71098988D01*
X100232489Y-71096998D01*
X100253802Y-71066617D01*
X100895834Y-70151395D01*
X100897240Y-70149430D01*
X101577768Y-69217850D01*
X101579212Y-69215913D01*
X101609135Y-69176559D01*
X102276568Y-68298752D01*
X102278050Y-68296841D01*
X102992100Y-67394218D01*
X102993619Y-67392335D01*
X103015671Y-67365534D01*
X103724093Y-66504534D01*
X103725515Y-66502840D01*
X104472191Y-65630090D01*
X104473783Y-65628265D01*
X105236293Y-64770962D01*
X105237923Y-64769164D01*
X106016111Y-63927460D01*
X106017778Y-63925691D01*
X106811379Y-63099855D01*
X106813083Y-63098116D01*
X107621862Y-62288395D01*
X107623601Y-62286687D01*
X108218495Y-61713716D01*
X108447440Y-61493209D01*
X108449203Y-61491543D01*
X108468393Y-61473765D01*
X108992626Y-60988088D01*
X109287636Y-60714776D01*
X109289448Y-60713130D01*
X110099777Y-59991139D01*
X110142344Y-59953212D01*
X110144183Y-59951606D01*
X111011342Y-59208755D01*
X111013224Y-59207174D01*
X111894340Y-58481693D01*
X111896258Y-58480145D01*
X112791141Y-57772243D01*
X112793062Y-57770754D01*
X113141428Y-57506118D01*
X113701413Y-57080726D01*
X113703348Y-57079285D01*
X114624986Y-56407335D01*
X114627008Y-56405891D01*
X115561567Y-55752356D01*
X115563624Y-55750947D01*
X116276780Y-55272963D01*
X116511070Y-55115933D01*
X116513140Y-55114576D01*
X116530098Y-55103692D01*
X117472980Y-54498502D01*
X117475094Y-54497174D01*
X117546546Y-54453296D01*
X118447370Y-53900106D01*
X118449478Y-53898842D01*
X118928300Y-53617812D01*
X119433664Y-53321205D01*
X119435854Y-53319949D01*
X120431848Y-52761907D01*
X120434070Y-52760691D01*
X120563618Y-52691492D01*
X120989850Y-52463816D01*
X121441612Y-52222503D01*
X121443867Y-52221328D01*
X122299249Y-51786368D01*
X144266994Y-51786368D01*
X144267141Y-51789878D01*
X144267141Y-51789884D01*
X144267889Y-51807726D01*
X144281034Y-52121358D01*
X144281268Y-52126949D01*
X144281803Y-52130407D01*
X144281804Y-52130414D01*
X144330020Y-52441866D01*
X144333418Y-52463816D01*
X144422793Y-52792771D01*
X144548279Y-53109713D01*
X144549925Y-53112809D01*
X144549927Y-53112813D01*
X144564514Y-53140246D01*
X144708313Y-53410692D01*
X144710298Y-53413591D01*
X144898908Y-53689050D01*
X144898913Y-53689056D01*
X144900899Y-53691957D01*
X145123637Y-53950001D01*
X145373750Y-54181609D01*
X145376572Y-54183690D01*
X145376575Y-54183692D01*
X145468911Y-54251767D01*
X145648123Y-54383894D01*
X145943333Y-54554334D01*
X146017356Y-54586674D01*
X146252481Y-54689398D01*
X146252491Y-54689402D01*
X146255703Y-54690805D01*
X146259060Y-54691844D01*
X146259065Y-54691846D01*
X146577978Y-54790566D01*
X146581338Y-54791606D01*
X146584794Y-54792265D01*
X146584793Y-54792265D01*
X146912729Y-54854822D01*
X146912734Y-54854823D01*
X146916180Y-54855480D01*
X147140196Y-54872717D01*
X147252558Y-54881363D01*
X147252559Y-54881363D01*
X147256055Y-54881632D01*
X147468406Y-54874217D01*
X147593213Y-54869859D01*
X147593218Y-54869859D01*
X147596728Y-54869736D01*
X147765340Y-54844837D01*
X147930472Y-54820453D01*
X147930477Y-54820452D01*
X147933951Y-54819939D01*
X147937343Y-54819043D01*
X147937347Y-54819042D01*
X148260131Y-54733759D01*
X148260132Y-54733759D01*
X148263522Y-54732863D01*
X148581332Y-54609592D01*
X148883421Y-54451664D01*
X149130221Y-54285195D01*
X149163107Y-54263013D01*
X149163109Y-54263012D01*
X149166023Y-54261046D01*
X149195939Y-54235586D01*
X149422943Y-54042390D01*
X149422944Y-54042389D01*
X149425616Y-54040115D01*
X149512737Y-53947341D01*
X149656554Y-53794192D01*
X149656558Y-53794187D01*
X149658965Y-53791624D01*
X149661070Y-53788810D01*
X149661076Y-53788803D01*
X149861051Y-53521490D01*
X149863160Y-53518671D01*
X149890239Y-53472517D01*
X149966011Y-53343365D01*
X150035657Y-53224657D01*
X150073239Y-53140246D01*
X150172873Y-52916465D01*
X150172875Y-52916460D01*
X150174305Y-52913248D01*
X150277377Y-52588325D01*
X150292368Y-52512617D01*
X150307049Y-52438469D01*
X150343587Y-52253937D01*
X150363605Y-52015562D01*
X150371929Y-51916434D01*
X150371929Y-51916427D01*
X150372112Y-51914252D01*
X150372978Y-51852198D01*
X150373272Y-51831177D01*
X150373272Y-51831165D01*
X150373302Y-51828999D01*
X150371116Y-51789884D01*
X150354470Y-51492164D01*
X150354274Y-51488651D01*
X150328157Y-51334242D01*
X150298014Y-51156025D01*
X150298013Y-51156021D01*
X150297425Y-51152544D01*
X150284559Y-51107673D01*
X150204435Y-50828249D01*
X150203466Y-50824869D01*
X150090394Y-50550535D01*
X150074905Y-50512955D01*
X150074901Y-50512947D01*
X150073567Y-50509710D01*
X149909347Y-50210995D01*
X149712853Y-49932447D01*
X149486533Y-49677537D01*
X149233210Y-49449444D01*
X149230360Y-49447403D01*
X149230353Y-49447398D01*
X148958895Y-49253053D01*
X148958892Y-49253051D01*
X148956041Y-49251010D01*
X148658479Y-49084708D01*
X148344234Y-48952612D01*
X148340871Y-48951622D01*
X148340862Y-48951619D01*
X148077203Y-48874021D01*
X148017223Y-48856368D01*
X147734042Y-48806435D01*
X147684982Y-48797784D01*
X147684980Y-48797784D01*
X147681522Y-48797174D01*
X147678013Y-48796953D01*
X147678011Y-48796953D01*
X147344833Y-48775991D01*
X147344827Y-48775991D01*
X147341315Y-48775770D01*
X147244890Y-48780486D01*
X147004349Y-48792250D01*
X147004341Y-48792251D01*
X147000842Y-48792422D01*
X146997374Y-48792984D01*
X146997371Y-48792984D01*
X146667822Y-48846360D01*
X146667819Y-48846361D01*
X146664347Y-48846923D01*
X146660964Y-48847868D01*
X146660962Y-48847868D01*
X146626969Y-48857359D01*
X146336024Y-48938592D01*
X146019966Y-49066288D01*
X145720111Y-49228419D01*
X145440198Y-49422963D01*
X145437556Y-49425276D01*
X145437552Y-49425279D01*
X145201342Y-49632066D01*
X145183715Y-49647497D01*
X144953859Y-49899222D01*
X144753494Y-50175000D01*
X144585120Y-50471393D01*
X144583733Y-50474628D01*
X144583731Y-50474633D01*
X144452218Y-50781476D01*
X144450833Y-50784708D01*
X144352308Y-51111039D01*
X144290772Y-51446319D01*
X144266994Y-51786368D01*
X122299249Y-51786368D01*
X122462738Y-51703234D01*
X122465023Y-51702100D01*
X122480186Y-51694772D01*
X123495037Y-51204320D01*
X123497275Y-51203267D01*
X124538123Y-50726086D01*
X124540384Y-50725077D01*
X125408984Y-50348099D01*
X125591839Y-50268739D01*
X125594214Y-50267737D01*
X126655970Y-49832516D01*
X126658373Y-49831560D01*
X127641889Y-49451801D01*
X127730223Y-49417693D01*
X127732618Y-49416797D01*
X128814376Y-49024507D01*
X128816827Y-49023647D01*
X129908205Y-48653208D01*
X129910687Y-48652394D01*
X131011409Y-48304060D01*
X131013916Y-48303295D01*
X132123855Y-47977283D01*
X132126385Y-47976569D01*
X133245303Y-47673127D01*
X133247855Y-47672463D01*
X133256828Y-47670230D01*
X134375392Y-47391878D01*
X134377919Y-47391276D01*
X135513989Y-47133756D01*
X135516518Y-47133212D01*
X136660732Y-46899044D01*
X136663328Y-46898540D01*
X137815537Y-46687954D01*
X137818118Y-46687510D01*
X138978144Y-46500745D01*
X138980729Y-46500357D01*
X139486899Y-46429831D01*
X140148187Y-46337692D01*
X140150840Y-46337351D01*
X141110953Y-46224293D01*
X141325551Y-46199023D01*
X141328198Y-46198740D01*
X142509984Y-46084993D01*
X142512579Y-46084770D01*
X143260555Y-46028821D01*
X143701161Y-45995863D01*
X143703841Y-45995691D01*
X144608714Y-45947373D01*
X144899032Y-45931871D01*
X144901713Y-45931757D01*
X146103071Y-45893287D01*
X146105760Y-45893229D01*
X146237357Y-45891825D01*
X147313425Y-45880346D01*
X147316051Y-45880346D01*
X147826004Y-45885779D01*
G37*
%TD.AperFunction*%
%TA.AperFunction,Conductor*%
G36*
X121262244Y-114484330D02*
G01*
X121308737Y-114537986D01*
X121318841Y-114608260D01*
X121289347Y-114672840D01*
X121283218Y-114679423D01*
X119943158Y-116019483D01*
X119880846Y-116053509D01*
X119854063Y-116056388D01*
X111947430Y-116056388D01*
X111879309Y-116036386D01*
X111832816Y-115982730D01*
X111822712Y-115912456D01*
X111826871Y-115893760D01*
X111852842Y-115808280D01*
X111855018Y-115798214D01*
X111856449Y-115787339D01*
X111854238Y-115773155D01*
X111841080Y-115769377D01*
X110394463Y-115769377D01*
X110326342Y-115749375D01*
X110279849Y-115695719D01*
X110268463Y-115643377D01*
X110268463Y-115387377D01*
X110288465Y-115319256D01*
X110342121Y-115272763D01*
X110394463Y-115261377D01*
X111840807Y-115261377D01*
X111854338Y-115257404D01*
X111855643Y-115248324D01*
X111813677Y-115081252D01*
X111810357Y-115071501D01*
X111725435Y-114876191D01*
X111720568Y-114867116D01*
X111604889Y-114688303D01*
X111598599Y-114680134D01*
X111594045Y-114675130D01*
X111562991Y-114611286D01*
X111571384Y-114540787D01*
X111616559Y-114486017D01*
X111687236Y-114464328D01*
X121194123Y-114464328D01*
X121262244Y-114484330D01*
G37*
%TD.AperFunction*%
%TA.AperFunction,Conductor*%
G36*
X131179467Y-56907271D02*
G01*
X131215920Y-56928383D01*
X131298126Y-56996632D01*
X131491000Y-57109338D01*
X131699692Y-57189030D01*
X131704760Y-57190061D01*
X131704763Y-57190062D01*
X131812008Y-57211881D01*
X131918597Y-57233567D01*
X131923772Y-57233757D01*
X131923774Y-57233757D01*
X132136673Y-57241564D01*
X132136677Y-57241564D01*
X132141837Y-57241753D01*
X132146957Y-57241097D01*
X132146959Y-57241097D01*
X132248360Y-57228107D01*
X132363416Y-57213368D01*
X132368369Y-57211882D01*
X132368374Y-57211881D01*
X132398017Y-57202987D01*
X132407651Y-57200097D01*
X132478646Y-57199679D01*
X132532954Y-57231687D01*
X138046327Y-62745060D01*
X138053903Y-62753386D01*
X138058024Y-62759880D01*
X138063799Y-62765303D01*
X138107842Y-62806662D01*
X138110684Y-62809417D01*
X138130483Y-62829216D01*
X138133608Y-62831640D01*
X138133617Y-62831648D01*
X138133703Y-62831714D01*
X138142728Y-62839422D01*
X138175071Y-62869794D01*
X138182015Y-62873612D01*
X138182017Y-62873613D01*
X138192906Y-62879599D01*
X138209424Y-62890450D01*
X138225510Y-62902927D01*
X138266243Y-62920553D01*
X138276891Y-62925770D01*
X138315774Y-62947146D01*
X138323449Y-62949117D01*
X138323455Y-62949119D01*
X138335488Y-62952208D01*
X138354190Y-62958611D01*
X138372869Y-62966694D01*
X138406705Y-62972053D01*
X138416704Y-62973637D01*
X138428317Y-62976042D01*
X138471295Y-62987077D01*
X138491642Y-62987077D01*
X138511354Y-62988628D01*
X138531456Y-62991812D01*
X138539348Y-62991066D01*
X138575633Y-62987636D01*
X138587491Y-62987077D01*
X173216623Y-62987077D01*
X173284744Y-63007079D01*
X173331237Y-63060735D01*
X173341341Y-63131009D01*
X173338040Y-63146749D01*
X173306003Y-63262271D01*
X173307526Y-63270695D01*
X173319906Y-63274088D01*
X174769614Y-63274088D01*
X174837735Y-63294090D01*
X174884228Y-63347746D01*
X174895614Y-63400088D01*
X174895614Y-64863166D01*
X174875612Y-64931287D01*
X174858709Y-64952261D01*
X168745351Y-71065618D01*
X162967997Y-76842972D01*
X162905685Y-76876998D01*
X162878902Y-76879877D01*
X150527974Y-76879877D01*
X150459853Y-76859875D01*
X150422182Y-76822317D01*
X150415787Y-76812431D01*
X150332477Y-76683654D01*
X150182133Y-76518428D01*
X150178082Y-76515229D01*
X150178078Y-76515225D01*
X150010877Y-76383177D01*
X150010873Y-76383175D01*
X150006822Y-76379975D01*
X149811252Y-76272015D01*
X149806383Y-76270291D01*
X149806379Y-76270289D01*
X149605550Y-76199172D01*
X149605546Y-76199171D01*
X149600675Y-76197446D01*
X149595582Y-76196539D01*
X149595579Y-76196538D01*
X149385836Y-76159177D01*
X149385830Y-76159176D01*
X149380747Y-76158271D01*
X149306915Y-76157369D01*
X149162544Y-76155605D01*
X149162542Y-76155605D01*
X149157374Y-76155542D01*
X148936554Y-76189332D01*
X148724219Y-76258734D01*
X148526070Y-76361884D01*
X148521937Y-76364987D01*
X148521934Y-76364989D01*
X148497710Y-76383177D01*
X148347428Y-76496012D01*
X148193092Y-76657515D01*
X148085664Y-76814998D01*
X148030756Y-76859998D01*
X147960231Y-76868169D01*
X147896484Y-76836915D01*
X147875787Y-76812431D01*
X147795285Y-76687994D01*
X147795283Y-76687991D01*
X147792477Y-76683654D01*
X147642133Y-76518428D01*
X147638082Y-76515229D01*
X147638078Y-76515225D01*
X147470877Y-76383177D01*
X147470873Y-76383175D01*
X147466822Y-76379975D01*
X147271252Y-76272015D01*
X147266383Y-76270291D01*
X147266379Y-76270289D01*
X147065550Y-76199172D01*
X147065546Y-76199171D01*
X147060675Y-76197446D01*
X147055582Y-76196539D01*
X147055579Y-76196538D01*
X146845836Y-76159177D01*
X146845830Y-76159176D01*
X146840747Y-76158271D01*
X146766915Y-76157369D01*
X146622544Y-76155605D01*
X146622542Y-76155605D01*
X146617374Y-76155542D01*
X146396554Y-76189332D01*
X146184219Y-76258734D01*
X145986070Y-76361884D01*
X145981937Y-76364987D01*
X145981934Y-76364989D01*
X145957710Y-76383177D01*
X145807428Y-76496012D01*
X145653092Y-76657515D01*
X145527206Y-76842057D01*
X145433151Y-77044682D01*
X145373452Y-77259947D01*
X145349714Y-77482072D01*
X145350011Y-77487225D01*
X145350011Y-77487228D01*
X145357416Y-77615652D01*
X145362573Y-77705092D01*
X145363710Y-77710138D01*
X145363711Y-77710144D01*
X145387767Y-77816885D01*
X145411685Y-77923016D01*
X145495729Y-78129993D01*
X145545972Y-78211982D01*
X145609754Y-78316065D01*
X145612450Y-78320465D01*
X145758713Y-78489315D01*
X145930589Y-78632009D01*
X146014535Y-78681063D01*
X146063257Y-78732701D01*
X146076963Y-78789850D01*
X146076963Y-89192114D01*
X146056961Y-89260235D01*
X146040058Y-89281209D01*
X122164844Y-113156423D01*
X122102532Y-113190449D01*
X122075749Y-113193328D01*
X99641210Y-113193328D01*
X99573089Y-113173326D01*
X99526596Y-113119670D01*
X99516492Y-113049396D01*
X99520651Y-113030700D01*
X99546588Y-112945332D01*
X99548091Y-112940386D01*
X99577250Y-112718907D01*
X99578877Y-112652317D01*
X99560573Y-112429678D01*
X99506152Y-112213019D01*
X99417075Y-112008157D01*
X99295735Y-111820594D01*
X99145391Y-111655368D01*
X99141340Y-111652169D01*
X99141336Y-111652165D01*
X98974135Y-111520117D01*
X98974131Y-111520115D01*
X98970080Y-111516915D01*
X98774510Y-111408955D01*
X98769641Y-111407231D01*
X98769637Y-111407229D01*
X98568808Y-111336112D01*
X98568804Y-111336111D01*
X98563933Y-111334386D01*
X98558840Y-111333479D01*
X98558837Y-111333478D01*
X98349094Y-111296117D01*
X98349088Y-111296116D01*
X98344005Y-111295211D01*
X98270173Y-111294309D01*
X98125802Y-111292545D01*
X98125800Y-111292545D01*
X98120632Y-111292482D01*
X97899812Y-111326272D01*
X97687477Y-111395674D01*
X97489328Y-111498824D01*
X97485195Y-111501927D01*
X97485192Y-111501929D01*
X97357153Y-111598064D01*
X97290668Y-111622970D01*
X97221273Y-111607978D01*
X97170999Y-111557847D01*
X97155500Y-111497304D01*
X97155500Y-98930618D01*
X97175502Y-98862497D01*
X97229158Y-98816004D01*
X97299432Y-98805900D01*
X97325728Y-98812636D01*
X97330940Y-98814590D01*
X97330947Y-98814592D01*
X97338345Y-98817365D01*
X97400527Y-98824120D01*
X98696795Y-98824120D01*
X98758977Y-98817365D01*
X98895366Y-98766235D01*
X99011922Y-98678881D01*
X99099276Y-98562325D01*
X99150406Y-98425936D01*
X99157161Y-98363754D01*
X99157161Y-95767486D01*
X99150406Y-95705304D01*
X99099276Y-95568915D01*
X99011922Y-95452359D01*
X98895366Y-95365005D01*
X98886957Y-95361853D01*
X98886956Y-95361852D01*
X98765932Y-95316482D01*
X98709167Y-95273841D01*
X98684467Y-95207279D01*
X98684161Y-95198500D01*
X98684161Y-93432740D01*
X98704163Y-93364619D01*
X98757819Y-93318126D01*
X98765931Y-93314758D01*
X98766377Y-93314591D01*
X98786804Y-93306933D01*
X98857611Y-93301750D01*
X98920129Y-93335820D01*
X100676334Y-95092025D01*
X100710360Y-95154337D01*
X100705295Y-95225152D01*
X100662748Y-95281988D01*
X100596228Y-95306799D01*
X100587239Y-95307120D01*
X99900527Y-95307120D01*
X99838345Y-95313875D01*
X99701956Y-95365005D01*
X99585400Y-95452359D01*
X99498046Y-95568915D01*
X99446916Y-95705304D01*
X99440161Y-95767486D01*
X99440161Y-98363754D01*
X99446916Y-98425936D01*
X99498046Y-98562325D01*
X99585400Y-98678881D01*
X99701956Y-98766235D01*
X99838345Y-98817365D01*
X99900527Y-98824120D01*
X101196795Y-98824120D01*
X101258977Y-98817365D01*
X101395366Y-98766235D01*
X101511922Y-98678881D01*
X101599276Y-98562325D01*
X101650406Y-98425936D01*
X101657161Y-98363754D01*
X101657161Y-96377042D01*
X101677163Y-96308921D01*
X101730819Y-96262428D01*
X101801093Y-96252324D01*
X101865673Y-96281818D01*
X101872256Y-96287947D01*
X116287786Y-110703477D01*
X116295363Y-110711803D01*
X116299488Y-110718303D01*
X116305266Y-110723729D01*
X116305267Y-110723730D01*
X116349322Y-110765100D01*
X116352164Y-110767855D01*
X116371947Y-110787638D01*
X116375155Y-110790126D01*
X116384184Y-110797837D01*
X116416535Y-110828217D01*
X116423484Y-110832037D01*
X116434370Y-110838022D01*
X116450894Y-110848876D01*
X116466974Y-110861349D01*
X116474251Y-110864498D01*
X116507691Y-110878969D01*
X116518352Y-110884192D01*
X116550288Y-110901749D01*
X116550293Y-110901751D01*
X116557238Y-110905569D01*
X116564912Y-110907539D01*
X116564919Y-110907542D01*
X116576954Y-110910632D01*
X116595659Y-110917036D01*
X116607054Y-110921967D01*
X116614333Y-110925117D01*
X116641383Y-110929401D01*
X116658168Y-110932060D01*
X116669781Y-110934465D01*
X116712759Y-110945500D01*
X116733106Y-110945500D01*
X116752818Y-110947051D01*
X116772920Y-110950235D01*
X116780812Y-110949489D01*
X116817097Y-110946059D01*
X116828955Y-110945500D01*
X120469660Y-110945500D01*
X120537781Y-110965502D01*
X120577092Y-111005664D01*
X120695824Y-111199416D01*
X120850031Y-111379969D01*
X121030584Y-111534176D01*
X121034792Y-111536755D01*
X121034798Y-111536759D01*
X121228350Y-111655368D01*
X121233037Y-111658240D01*
X121237607Y-111660133D01*
X121237611Y-111660135D01*
X121411207Y-111732040D01*
X121452406Y-111749105D01*
X121532609Y-111768360D01*
X121678476Y-111803380D01*
X121678482Y-111803381D01*
X121683289Y-111804535D01*
X121920000Y-111823165D01*
X122156711Y-111804535D01*
X122161518Y-111803381D01*
X122161524Y-111803380D01*
X122307391Y-111768360D01*
X122387594Y-111749105D01*
X122428793Y-111732040D01*
X122602389Y-111660135D01*
X122602393Y-111660133D01*
X122606963Y-111658240D01*
X122611650Y-111655368D01*
X122805202Y-111536759D01*
X122805208Y-111536755D01*
X122809416Y-111534176D01*
X122989969Y-111379969D01*
X123144176Y-111199416D01*
X123146755Y-111195208D01*
X123146759Y-111195202D01*
X123265654Y-111001183D01*
X123268240Y-110996963D01*
X123271786Y-110988404D01*
X123357211Y-110782167D01*
X123357212Y-110782165D01*
X123359105Y-110777594D01*
X123414535Y-110546711D01*
X123433165Y-110310000D01*
X123414535Y-110073289D01*
X123395038Y-109992075D01*
X123360260Y-109847218D01*
X123359105Y-109842406D01*
X123284365Y-109661966D01*
X123270135Y-109627611D01*
X123270133Y-109627607D01*
X123268240Y-109623037D01*
X123262907Y-109614335D01*
X123146759Y-109424798D01*
X123146755Y-109424792D01*
X123144176Y-109420584D01*
X122989969Y-109240031D01*
X122809416Y-109085824D01*
X122805208Y-109083245D01*
X122805202Y-109083241D01*
X122611183Y-108964346D01*
X122606963Y-108961760D01*
X122602393Y-108959867D01*
X122602389Y-108959865D01*
X122392167Y-108872789D01*
X122392165Y-108872788D01*
X122387594Y-108870895D01*
X122307391Y-108851640D01*
X122161524Y-108816620D01*
X122161518Y-108816619D01*
X122156711Y-108815465D01*
X121920000Y-108796835D01*
X121683289Y-108815465D01*
X121678482Y-108816619D01*
X121678476Y-108816620D01*
X121532609Y-108851640D01*
X121452406Y-108870895D01*
X121447835Y-108872788D01*
X121447833Y-108872789D01*
X121237611Y-108959865D01*
X121237607Y-108959867D01*
X121233037Y-108961760D01*
X121228817Y-108964346D01*
X121034798Y-109083241D01*
X121034792Y-109083245D01*
X121030584Y-109085824D01*
X120850031Y-109240031D01*
X120695824Y-109420584D01*
X120693242Y-109424798D01*
X120577093Y-109614335D01*
X120524445Y-109661966D01*
X120469660Y-109674500D01*
X117108464Y-109674500D01*
X117040343Y-109654498D01*
X117019369Y-109637595D01*
X106224444Y-98842670D01*
X121052160Y-98842670D01*
X121057887Y-98850320D01*
X121229042Y-98955205D01*
X121237837Y-98959687D01*
X121447988Y-99046734D01*
X121457373Y-99049783D01*
X121678554Y-99102885D01*
X121688301Y-99104428D01*
X121915070Y-99122275D01*
X121924930Y-99122275D01*
X122151699Y-99104428D01*
X122161446Y-99102885D01*
X122382627Y-99049783D01*
X122392012Y-99046734D01*
X122602163Y-98959687D01*
X122610958Y-98955205D01*
X122778445Y-98852568D01*
X122787907Y-98842110D01*
X122784124Y-98833334D01*
X121932812Y-97982022D01*
X121918868Y-97974408D01*
X121917035Y-97974539D01*
X121910420Y-97978790D01*
X121058920Y-98830290D01*
X121052160Y-98842670D01*
X106224444Y-98842670D01*
X104996704Y-97614930D01*
X120407725Y-97614930D01*
X120425572Y-97841699D01*
X120427115Y-97851446D01*
X120480217Y-98072627D01*
X120483266Y-98082012D01*
X120570313Y-98292163D01*
X120574795Y-98300958D01*
X120677432Y-98468445D01*
X120687890Y-98477907D01*
X120696666Y-98474124D01*
X121547978Y-97622812D01*
X121554356Y-97611132D01*
X122284408Y-97611132D01*
X122284539Y-97612965D01*
X122288790Y-97619580D01*
X123140290Y-98471080D01*
X123152670Y-98477840D01*
X123160320Y-98472113D01*
X123265205Y-98300958D01*
X123269687Y-98292163D01*
X123356734Y-98082012D01*
X123359783Y-98072627D01*
X123412885Y-97851446D01*
X123414428Y-97841699D01*
X123432275Y-97614930D01*
X123432275Y-97605070D01*
X123414428Y-97378301D01*
X123412885Y-97368554D01*
X123359783Y-97147373D01*
X123356734Y-97137988D01*
X123269687Y-96927837D01*
X123265205Y-96919042D01*
X123162568Y-96751555D01*
X123152110Y-96742093D01*
X123143334Y-96745876D01*
X122292022Y-97597188D01*
X122284408Y-97611132D01*
X121554356Y-97611132D01*
X121555592Y-97608868D01*
X121555461Y-97607035D01*
X121551210Y-97600420D01*
X120699710Y-96748920D01*
X120687330Y-96742160D01*
X120679680Y-96747887D01*
X120574795Y-96919042D01*
X120570313Y-96927837D01*
X120483266Y-97137988D01*
X120480217Y-97147373D01*
X120427115Y-97368554D01*
X120425572Y-97378301D01*
X120407725Y-97605070D01*
X120407725Y-97614930D01*
X104996704Y-97614930D01*
X103759664Y-96377890D01*
X121052093Y-96377890D01*
X121055876Y-96386666D01*
X121907188Y-97237978D01*
X121921132Y-97245592D01*
X121922965Y-97245461D01*
X121929580Y-97241210D01*
X122781080Y-96389710D01*
X122787840Y-96377330D01*
X122782113Y-96369680D01*
X122610958Y-96264795D01*
X122602163Y-96260313D01*
X122392012Y-96173266D01*
X122382627Y-96170217D01*
X122161446Y-96117115D01*
X122151699Y-96115572D01*
X121924930Y-96097725D01*
X121915070Y-96097725D01*
X121688301Y-96115572D01*
X121678554Y-96117115D01*
X121457373Y-96170217D01*
X121447988Y-96173266D01*
X121237837Y-96260313D01*
X121229042Y-96264795D01*
X121061555Y-96367432D01*
X121052093Y-96377890D01*
X103759664Y-96377890D01*
X100920989Y-93539215D01*
X100886963Y-93476903D01*
X100892028Y-93406088D01*
X100934575Y-93349252D01*
X101001095Y-93324441D01*
X101010084Y-93324120D01*
X101196795Y-93324120D01*
X101258977Y-93317365D01*
X101395366Y-93266235D01*
X101511922Y-93178881D01*
X101599276Y-93062325D01*
X101650406Y-92925936D01*
X101657161Y-92863754D01*
X101657161Y-90267486D01*
X101650406Y-90205304D01*
X101599276Y-90068915D01*
X101511922Y-89952359D01*
X101395366Y-89865005D01*
X101258977Y-89813875D01*
X101196795Y-89807120D01*
X99900527Y-89807120D01*
X99838345Y-89813875D01*
X99701956Y-89865005D01*
X99585400Y-89952359D01*
X99498046Y-90068915D01*
X99446916Y-90205304D01*
X99440161Y-90267486D01*
X99440161Y-91754197D01*
X99420159Y-91822318D01*
X99366503Y-91868811D01*
X99296229Y-91878915D01*
X99231649Y-91849421D01*
X99225066Y-91843292D01*
X99194066Y-91812292D01*
X99160040Y-91749980D01*
X99157161Y-91723197D01*
X99157161Y-90267486D01*
X99150406Y-90205304D01*
X99099276Y-90068915D01*
X99011922Y-89952359D01*
X98895366Y-89865005D01*
X98758977Y-89813875D01*
X98696795Y-89807120D01*
X97400527Y-89807120D01*
X97338345Y-89813875D01*
X97330947Y-89816648D01*
X97330940Y-89816650D01*
X97325728Y-89818604D01*
X97254921Y-89823787D01*
X97192552Y-89789865D01*
X97158424Y-89727609D01*
X97155500Y-89700622D01*
X97155500Y-89661500D01*
X97175502Y-89593379D01*
X97229158Y-89546886D01*
X97281500Y-89535500D01*
X98104819Y-89535500D01*
X98116053Y-89536030D01*
X98123558Y-89537708D01*
X98191851Y-89535562D01*
X98195808Y-89535500D01*
X98223822Y-89535500D01*
X98227747Y-89535004D01*
X98227748Y-89535004D01*
X98227843Y-89534992D01*
X98239688Y-89534059D01*
X98269509Y-89533122D01*
X98276121Y-89532914D01*
X98276122Y-89532914D01*
X98284044Y-89532665D01*
X98303588Y-89526987D01*
X98322951Y-89522977D01*
X98335279Y-89521420D01*
X98335281Y-89521420D01*
X98343138Y-89520427D01*
X98350502Y-89517511D01*
X98350507Y-89517510D01*
X98384395Y-89504093D01*
X98395624Y-89500248D01*
X98412304Y-89495402D01*
X98438232Y-89487869D01*
X98445059Y-89483831D01*
X98445062Y-89483830D01*
X98455745Y-89477512D01*
X98473503Y-89468812D01*
X98485054Y-89464239D01*
X98485060Y-89464235D01*
X98492427Y-89461319D01*
X98528330Y-89435234D01*
X98538249Y-89428719D01*
X98569607Y-89410174D01*
X98569611Y-89410171D01*
X98576437Y-89406134D01*
X98590821Y-89391750D01*
X98605855Y-89378909D01*
X98615912Y-89371602D01*
X98622326Y-89366942D01*
X98650617Y-89332744D01*
X98658606Y-89323965D01*
X124186518Y-63796054D01*
X173309871Y-63796054D01*
X173340179Y-63930534D01*
X173343259Y-63940363D01*
X173423384Y-64137691D01*
X173428027Y-64146882D01*
X173539308Y-64328476D01*
X173545391Y-64336787D01*
X173684827Y-64497755D01*
X173692194Y-64504971D01*
X173856048Y-64641004D01*
X173864495Y-64646919D01*
X174048370Y-64754367D01*
X174057656Y-64758817D01*
X174256615Y-64834791D01*
X174266513Y-64837667D01*
X174369864Y-64858694D01*
X174383913Y-64857498D01*
X174387614Y-64847153D01*
X174387614Y-63800203D01*
X174383139Y-63784964D01*
X174381749Y-63783759D01*
X174374066Y-63782088D01*
X173324839Y-63782088D01*
X173311308Y-63786061D01*
X173309871Y-63796054D01*
X124186518Y-63796054D01*
X131046340Y-56936232D01*
X131108652Y-56902206D01*
X131179467Y-56907271D01*
G37*
%TD.AperFunction*%
%TA.AperFunction,Conductor*%
G36*
X129736121Y-55646002D02*
G01*
X129782614Y-55699658D01*
X129794000Y-55752000D01*
X129794000Y-56008000D01*
X129773998Y-56076121D01*
X129720342Y-56122614D01*
X129668000Y-56134000D01*
X128223225Y-56134000D01*
X128209694Y-56137973D01*
X128208257Y-56147966D01*
X128238565Y-56282446D01*
X128241645Y-56292275D01*
X128321770Y-56489603D01*
X128326413Y-56498794D01*
X128437694Y-56680388D01*
X128443777Y-56688699D01*
X128583213Y-56849667D01*
X128590580Y-56856883D01*
X128754434Y-56992916D01*
X128762876Y-56998828D01*
X128889108Y-57072592D01*
X128937831Y-57124231D01*
X128950902Y-57194014D01*
X128924170Y-57259786D01*
X128914632Y-57270475D01*
X113185293Y-72999813D01*
X97957511Y-88227595D01*
X97895199Y-88261621D01*
X97868416Y-88264500D01*
X96591983Y-88264500D01*
X96568374Y-88262268D01*
X96568009Y-88262198D01*
X96568004Y-88262198D01*
X96560221Y-88260713D01*
X96503987Y-88264251D01*
X96496075Y-88264500D01*
X96480017Y-88264500D01*
X96476083Y-88264997D01*
X96476082Y-88264997D01*
X96464077Y-88266513D01*
X96456201Y-88267257D01*
X96407884Y-88270297D01*
X96407882Y-88270297D01*
X96399973Y-88270795D01*
X96392435Y-88273244D01*
X96392431Y-88273245D01*
X96392080Y-88273359D01*
X96368944Y-88278531D01*
X96368565Y-88278579D01*
X96368560Y-88278580D01*
X96360701Y-88279573D01*
X96353335Y-88282489D01*
X96345652Y-88284462D01*
X96345089Y-88282270D01*
X96285832Y-88287695D01*
X96222855Y-88254916D01*
X96187598Y-88193293D01*
X96184161Y-88164066D01*
X96184161Y-87646761D01*
X96204163Y-87578640D01*
X96221066Y-87557666D01*
X128115828Y-55662905D01*
X128178140Y-55628879D01*
X128204923Y-55626000D01*
X129668000Y-55626000D01*
X129736121Y-55646002D01*
G37*
%TD.AperFunction*%
%TD*%
M02*
