%TF.GenerationSoftware,KiCad,Pcbnew,(6.0.4-0)*%
%TF.CreationDate,2022-06-02T17:12:03-04:00*%
%TF.ProjectId,BaseBadge,42617365-4261-4646-9765-2e6b69636164,v04*%
%TF.SameCoordinates,Original*%
%TF.FileFunction,Profile,NP*%
%FSLAX46Y46*%
G04 Gerber Fmt 4.6, Leading zero omitted, Abs format (unit mm)*
G04 Created by KiCad (PCBNEW (6.0.4-0)) date 2022-06-02 17:12:03*
%MOMM*%
%LPD*%
G01*
G04 APERTURE LIST*
%TA.AperFunction,Profile*%
%ADD10C,0.100000*%
%TD*%
%TA.AperFunction,Profile*%
%ADD11C,0.147159*%
%TD*%
G04 APERTURE END LIST*
D10*
X149859999Y-51828999D02*
G75*
G03*
X149859999Y-51828999I-2540000J0D01*
G01*
%TO.C,svg2mod*%
D11*
X148607703Y-46805817D02*
X149835772Y-46841484D01*
X151058017Y-46900672D01*
X152274234Y-46983169D01*
X153484223Y-47088765D01*
X154687781Y-47217249D01*
X155884708Y-47368411D01*
X157074801Y-47542039D01*
X158257859Y-47737923D01*
X159433681Y-47955852D01*
X160602064Y-48195616D01*
X161762806Y-48457004D01*
X162915707Y-48739804D01*
X164060565Y-49043806D01*
X165197178Y-49368800D01*
X166325344Y-49714575D01*
X167444862Y-50080919D01*
X168555530Y-50467622D01*
X169657147Y-50874474D01*
X170749511Y-51301264D01*
X171832419Y-51747780D01*
X172905671Y-52213813D01*
X173969066Y-52699151D01*
X175022400Y-53203583D01*
X176065473Y-53726900D01*
X177098083Y-54268889D01*
X178120029Y-54829341D01*
X179131108Y-55408045D01*
X180131120Y-56004789D01*
X181119862Y-56619364D01*
X182097132Y-57251557D01*
X183062730Y-57901160D01*
X184016454Y-58567960D01*
X184958101Y-59251748D01*
X185887471Y-59952311D01*
X186804361Y-60669441D01*
X187708571Y-61402925D01*
X188599898Y-62152553D01*
X189478140Y-62918115D01*
X190343097Y-63699399D01*
X191194566Y-64496195D01*
X192032346Y-65308292D01*
X192856235Y-66135480D01*
X193666031Y-66977547D01*
X194461534Y-67834283D01*
X195242541Y-68705476D01*
X196008850Y-69590918D01*
X196760261Y-70490396D01*
X197496571Y-71403699D01*
X198217578Y-72330618D01*
X198923082Y-73270941D01*
X199612880Y-74224457D01*
X200286771Y-75190957D01*
X200944553Y-76170228D01*
X201586025Y-77162061D01*
X202210985Y-78166244D01*
X202819231Y-79182567D01*
X203410561Y-80210819D01*
X203984775Y-81250790D01*
X204541670Y-82302268D01*
X205081044Y-83365043D01*
X205602697Y-84438903D01*
X206106426Y-85523639D01*
X206592030Y-86619040D01*
X207059307Y-87724894D01*
X207508056Y-88840992D01*
X207938074Y-89967121D01*
X208349161Y-91103073D01*
X208741114Y-92248634D01*
X209113733Y-93403596D01*
X209466814Y-94567748D01*
X209800158Y-95740877D01*
X210113561Y-96922775D01*
X210406823Y-98113229D01*
X210679742Y-99312030D01*
X210932116Y-100518966D01*
X211163743Y-101733827D01*
X211374423Y-102956402D01*
X211563952Y-104186481D01*
X211732131Y-105423851D01*
X211878756Y-106668304D01*
X212003626Y-107919627D01*
X212106540Y-109177611D01*
X212187297Y-110442044D01*
X212245693Y-111712716D01*
X212281529Y-112989416D01*
X212294602Y-114271933D01*
X212306481Y-114271933D01*
X212306481Y-129667892D01*
X82453425Y-129667892D01*
X82453425Y-114354616D01*
X82466419Y-112989208D01*
X82505239Y-111630409D01*
X82569639Y-110278474D01*
X82659375Y-108933654D01*
X82774202Y-107596203D01*
X82913876Y-106266376D01*
X83078152Y-104944425D01*
X83266785Y-103630603D01*
X83479531Y-102325165D01*
X83716145Y-101028363D01*
X83976383Y-99740451D01*
X84259999Y-98461683D01*
X84566750Y-97192311D01*
X84896390Y-95932590D01*
X85248675Y-94682772D01*
X85623361Y-93443112D01*
X86020202Y-92213862D01*
X86438955Y-90995276D01*
X86879373Y-89787607D01*
X87341214Y-88591109D01*
X87824231Y-87406035D01*
X88328181Y-86232639D01*
X88852819Y-85071173D01*
X89397901Y-83921893D01*
X89963180Y-82785050D01*
X90548414Y-81660898D01*
X91153357Y-80549691D01*
X91777765Y-79451682D01*
X92421393Y-78367125D01*
X93083996Y-77296273D01*
X93765330Y-76239379D01*
X94465150Y-75196697D01*
X95183212Y-74168480D01*
X95919270Y-73154982D01*
X96673081Y-72156456D01*
X97444400Y-71173155D01*
X98232981Y-70205334D01*
X99038581Y-69253244D01*
X99860954Y-68317141D01*
X100699856Y-67397276D01*
X100209759Y-66352369D01*
X99853662Y-65254543D01*
X99637115Y-64120906D01*
X99563492Y-62969122D01*
X99607982Y-62062850D01*
X99741093Y-61165304D01*
X99961542Y-60285127D01*
X100267205Y-59430798D01*
X100655140Y-58610545D01*
X101121608Y-57832268D01*
X101662119Y-57103463D01*
X102271466Y-56431149D01*
X102943779Y-55821803D01*
X103672584Y-55281292D01*
X104450861Y-54814823D01*
X105271114Y-54426889D01*
X106125443Y-54121225D01*
X107005620Y-53900777D01*
X107903167Y-53767666D01*
X108809439Y-53723176D01*
X109620221Y-53758890D01*
X110424748Y-53865568D01*
X111216820Y-54042387D01*
X111990335Y-54287985D01*
X112739332Y-54600470D01*
X113458041Y-54977434D01*
X114140923Y-55415973D01*
X114782717Y-55912706D01*
X115853370Y-55278838D01*
X116936566Y-54665597D01*
X118032059Y-54073243D01*
X119139605Y-53502033D01*
X120258956Y-52952225D01*
X121389868Y-52424078D01*
X122532093Y-51917849D01*
X123685387Y-51433798D01*
X124849504Y-50972182D01*
X126024197Y-50533260D01*
X127209221Y-50117289D01*
X128404331Y-49724528D01*
X129609279Y-49355235D01*
X130823821Y-49009668D01*
X132047711Y-48688086D01*
X133280702Y-48390747D01*
X134522549Y-48117908D01*
X135773006Y-47869829D01*
X137031827Y-47646767D01*
X138298767Y-47448981D01*
X139573579Y-47276728D01*
X140856018Y-47130267D01*
X142145838Y-47009857D01*
X143442793Y-46915755D01*
X144746637Y-46848220D01*
X146057124Y-46807509D01*
X147374009Y-46793881D01*
X148607703Y-46805817D01*
%TD*%
M02*
