%TF.GenerationSoftware,KiCad,Pcbnew,(6.0.4-0)*%
%TF.CreationDate,2022-05-26T17:50:35-04:00*%
%TF.ProjectId,BaseBadge,42617365-4261-4646-9765-2e6b69636164,v03*%
%TF.SameCoordinates,Original*%
%TF.FileFunction,Legend,Top*%
%TF.FilePolarity,Positive*%
%FSLAX46Y46*%
G04 Gerber Fmt 4.6, Leading zero omitted, Abs format (unit mm)*
G04 Created by KiCad (PCBNEW (6.0.4-0)) date 2022-05-26 17:50:35*
%MOMM*%
%LPD*%
G01*
G04 APERTURE LIST*
%ADD10C,0.000000*%
%ADD11C,0.150000*%
%ADD12C,0.120000*%
G04 APERTURE END LIST*
D10*
G36*
X147307873Y-89220004D02*
G01*
X150053644Y-89271844D01*
X152764259Y-89425494D01*
X155436409Y-89678503D01*
X158066783Y-90028420D01*
X160652072Y-90472794D01*
X163188967Y-91009174D01*
X165674158Y-91635110D01*
X168104337Y-92348150D01*
X170476192Y-93145843D01*
X172786416Y-94025739D01*
X175031697Y-94985387D01*
X177208728Y-96022335D01*
X179314198Y-97134133D01*
X181344798Y-98318329D01*
X183297219Y-99572474D01*
X185168150Y-100894116D01*
X186954283Y-102280803D01*
X188652308Y-103730085D01*
X190258916Y-105239512D01*
X191770796Y-106806632D01*
X193184640Y-108428994D01*
X194497138Y-110104148D01*
X195704981Y-111829642D01*
X196804859Y-113603025D01*
X197793462Y-115421847D01*
X198667481Y-117283657D01*
X199423607Y-119186004D01*
X200058530Y-121126436D01*
X200568941Y-123102503D01*
X200951530Y-125111754D01*
X201202987Y-127151738D01*
X201320004Y-129220004D01*
X93319996Y-129185107D01*
X93439201Y-127118797D01*
X93692580Y-125080780D01*
X94076833Y-123073499D01*
X94588656Y-121099400D01*
X95224748Y-119160927D01*
X95981808Y-117260523D01*
X96856532Y-115400634D01*
X97845620Y-113583703D01*
X98945770Y-111812174D01*
X100153679Y-110088493D01*
X101466045Y-108415103D01*
X102879568Y-106794448D01*
X104390944Y-105228973D01*
X105996873Y-103721122D01*
X109479178Y-100888070D01*
X113300068Y-98314845D01*
X117433128Y-96021002D01*
X121851943Y-94026095D01*
X126530098Y-92349679D01*
X131441178Y-91011306D01*
X136558767Y-90030532D01*
X141856450Y-89426911D01*
X147307812Y-89219996D01*
X147307873Y-89220004D01*
G37*
D11*
%TO.C,*%
%TO.C,svg2mod*%
G36*
X107281516Y-78658563D02*
G01*
X107407111Y-78658563D01*
X107511869Y-78719335D01*
X107563380Y-78796891D01*
X107570326Y-78812508D01*
X107573231Y-78828717D01*
X107573231Y-78928845D01*
X107576135Y-78901079D01*
X107576135Y-78934852D01*
X107590024Y-78948750D01*
X107590616Y-79009519D01*
X107398463Y-79263604D01*
X107379364Y-79268820D01*
X107315120Y-79268820D01*
X107347531Y-79265353D01*
X107241615Y-79265353D01*
X107228882Y-79262389D01*
X107216726Y-79257174D01*
X107077820Y-79118268D01*
X107072032Y-79104962D01*
X107069128Y-79091064D01*
X107069128Y-78986882D01*
X107066224Y-79016981D01*
X107066224Y-78905263D01*
X107139729Y-78725264D01*
X107142040Y-78722301D01*
X107144944Y-78719930D01*
X107256069Y-78657422D01*
X107275168Y-78652206D01*
X107324346Y-78652192D01*
X107281516Y-78658563D01*
G37*
G36*
X112669939Y-108598669D02*
G01*
X112646209Y-108594609D01*
X112427431Y-108337635D01*
X112427436Y-108337629D01*
X112616113Y-108337629D01*
X112646209Y-108372353D01*
X112693669Y-108372353D01*
X112723765Y-108337629D01*
X112693669Y-108302324D01*
X112646209Y-108302324D01*
X112616113Y-108337629D01*
X112427436Y-108337629D01*
X112646209Y-108080080D01*
X112669939Y-108076020D01*
X112693669Y-108080074D01*
X112912446Y-108337629D01*
X112693669Y-108594603D01*
X112669939Y-108598669D01*
G37*
G36*
X182178557Y-77638768D02*
G01*
X178050726Y-82880744D01*
X177818057Y-82697272D01*
X181945888Y-77455297D01*
X182178557Y-77638768D01*
G37*
G36*
X107205715Y-100568157D02*
G01*
X107181406Y-100564097D01*
X106963208Y-100306539D01*
X106963216Y-100306530D01*
X107151889Y-100306530D01*
X107181406Y-100341839D01*
X107229445Y-100341839D01*
X107259541Y-100306530D01*
X107229445Y-100271806D01*
X107181406Y-100271806D01*
X107151889Y-100306530D01*
X106963216Y-100306530D01*
X107181406Y-100049565D01*
X107205715Y-100045505D01*
X107229445Y-100049565D01*
X107448222Y-100306539D01*
X107229445Y-100564097D01*
X107205715Y-100568157D01*
G37*
G36*
X117728372Y-84570190D02*
G01*
X117432039Y-84581184D01*
X117319755Y-81567498D01*
X117615511Y-81556504D01*
X117728372Y-84570190D01*
G37*
G36*
X93037856Y-85840014D02*
G01*
X93014126Y-85836547D01*
X92795353Y-85578998D01*
X92984030Y-85578998D01*
X93014126Y-85614303D01*
X93061586Y-85614303D01*
X93091682Y-85578998D01*
X93061586Y-85543693D01*
X93014126Y-85543693D01*
X92984030Y-85578998D01*
X92795353Y-85578998D01*
X92795348Y-85578992D01*
X93014126Y-85321437D01*
X93037856Y-85317970D01*
X93061586Y-85321437D01*
X93280364Y-85578992D01*
X93061586Y-85836547D01*
X93037856Y-85840014D01*
G37*
G36*
X164885886Y-60718830D02*
G01*
X164656690Y-60906932D01*
X158632210Y-53542586D01*
X158861406Y-53355062D01*
X164885886Y-60718830D01*
G37*
G36*
X143598580Y-73787593D02*
G01*
X143574844Y-73791066D01*
X143550545Y-73787593D01*
X143331765Y-73530038D01*
X143331766Y-73530037D01*
X143521030Y-73530037D01*
X143550545Y-73565343D01*
X143598583Y-73565343D01*
X143628098Y-73530037D01*
X143598583Y-73494732D01*
X143550545Y-73494732D01*
X143521030Y-73530037D01*
X143331766Y-73530037D01*
X143550545Y-73272483D01*
X143574844Y-73269010D01*
X143598580Y-73272483D01*
X143817357Y-73530038D01*
X143598583Y-73787590D01*
X143598580Y-73787593D01*
G37*
G36*
X153873515Y-62616636D02*
G01*
X153203869Y-67526972D01*
X152910431Y-67487037D01*
X153580073Y-62576701D01*
X153873515Y-62616636D01*
G37*
G36*
X134097316Y-66911734D02*
G01*
X134086322Y-67207488D01*
X128171811Y-66985238D01*
X128182805Y-66689484D01*
X134097316Y-66911734D01*
G37*
G36*
X95935788Y-93867637D02*
G01*
X95912057Y-93864170D01*
X95693284Y-93606620D01*
X95882540Y-93606620D01*
X95912057Y-93641926D01*
X95960096Y-93641926D01*
X95989613Y-93606620D01*
X95960096Y-93571315D01*
X95912057Y-93571315D01*
X95882540Y-93606620D01*
X95693284Y-93606620D01*
X95693280Y-93606615D01*
X95912057Y-93349059D01*
X95935788Y-93345592D01*
X95960096Y-93349059D01*
X96178873Y-93606615D01*
X95960096Y-93864170D01*
X95935788Y-93867637D01*
G37*
G36*
X187313445Y-83201385D02*
G01*
X187295517Y-83497141D01*
X177925709Y-82936884D01*
X177943074Y-82641129D01*
X187313445Y-83201385D01*
G37*
G36*
X131003759Y-88714800D02*
G01*
X130446397Y-96188534D01*
X130151220Y-96166546D01*
X130708003Y-88692812D01*
X131003759Y-88714800D01*
G37*
G36*
X128177085Y-67096942D02*
G01*
X128153349Y-67093469D01*
X127934572Y-66835914D01*
X128123254Y-66835914D01*
X128153349Y-66871219D01*
X128200810Y-66871219D01*
X128230906Y-66835914D01*
X128200810Y-66800609D01*
X128153349Y-66800609D01*
X128123254Y-66835914D01*
X127934572Y-66835914D01*
X128153349Y-66578359D01*
X128177085Y-66574886D01*
X128200822Y-66578359D01*
X128419599Y-66835914D01*
X128200822Y-67093469D01*
X128200810Y-67093471D01*
X128177085Y-67096942D01*
G37*
G36*
X139543611Y-82825255D02*
G01*
X139426118Y-82799208D01*
X139330622Y-82751747D01*
X139325406Y-82748784D01*
X139323754Y-82494701D01*
X139479408Y-82494701D01*
X139525710Y-82517845D01*
X139554661Y-82524216D01*
X139679676Y-82238302D01*
X139676208Y-82233679D01*
X139673245Y-82229619D01*
X139578335Y-82164804D01*
X139495617Y-82179258D01*
X139488090Y-82185629D01*
X139479408Y-82190844D01*
X139479408Y-82494701D01*
X139323754Y-82494701D01*
X139320191Y-81946597D01*
X139648937Y-81876568D01*
X139648949Y-81876630D01*
X139912291Y-82057207D01*
X139563288Y-82824663D01*
X139554661Y-82824922D01*
X139543611Y-82825255D01*
G37*
G36*
X104447199Y-112536648D02*
G01*
X104161862Y-112615941D01*
X100481425Y-99339977D01*
X100766762Y-99261262D01*
X104447199Y-112536648D01*
G37*
G36*
X164899776Y-60887254D02*
G01*
X162575992Y-64899329D01*
X162319592Y-64751162D01*
X164642801Y-60738508D01*
X164899776Y-60887254D01*
G37*
G36*
X153356736Y-62596958D02*
G01*
X153449340Y-62345769D01*
X153727153Y-62226541D01*
X154004387Y-62345769D01*
X154097569Y-62596958D01*
X154004387Y-62848147D01*
X153727153Y-62967375D01*
X153449340Y-62848147D01*
X153356736Y-62596959D01*
X153653054Y-62596959D01*
X153671012Y-62651364D01*
X153727153Y-62671044D01*
X153782715Y-62651364D01*
X153801236Y-62596959D01*
X153782715Y-62542554D01*
X153727153Y-62522875D01*
X153671012Y-62542554D01*
X153653054Y-62596959D01*
X153356736Y-62596959D01*
X153356736Y-62596958D01*
G37*
G36*
X177961017Y-82643446D02*
G01*
X177907769Y-82934570D01*
X173667076Y-82155536D01*
X173720902Y-81863834D01*
X177961017Y-82643446D01*
G37*
G36*
X176998002Y-88828246D02*
G01*
X177294335Y-88828246D01*
X177367840Y-89035448D01*
X177590668Y-89124579D01*
X177813496Y-89035448D01*
X177887002Y-88828246D01*
X177813496Y-88621043D01*
X177590668Y-88531912D01*
X177367840Y-88621043D01*
X177294335Y-88828246D01*
X176998002Y-88828246D01*
X177146746Y-88424260D01*
X177590668Y-88235579D01*
X178034590Y-88424260D01*
X178183335Y-88828246D01*
X178034590Y-89232231D01*
X177590668Y-89420912D01*
X177146746Y-89232231D01*
X176998002Y-88828246D01*
G37*
G36*
X173242317Y-82007977D02*
G01*
X173242342Y-82007950D01*
X173538657Y-82007950D01*
X173693769Y-82178689D01*
X173848882Y-82007950D01*
X173693769Y-81837209D01*
X173538657Y-82007950D01*
X173242342Y-82007950D01*
X173679871Y-81527013D01*
X173693769Y-81525828D01*
X173707667Y-81527013D01*
X174145224Y-82007977D01*
X173707667Y-82488938D01*
X173693769Y-82490123D01*
X173679871Y-82488938D01*
X173242317Y-82007977D01*
G37*
G36*
X195822624Y-86615006D02*
G01*
X190245536Y-88176543D01*
X190165665Y-87891207D01*
X195742750Y-86329670D01*
X195822624Y-86615006D01*
G37*
G36*
X105943404Y-92831641D02*
G01*
X106239736Y-92831641D01*
X106257679Y-92886045D01*
X106313821Y-92905721D01*
X106369383Y-92886045D01*
X106387904Y-92831641D01*
X106369383Y-92777234D01*
X106313821Y-92757557D01*
X106257679Y-92777234D01*
X106239736Y-92831641D01*
X105943404Y-92831641D01*
X106036008Y-92580451D01*
X106313821Y-92461224D01*
X106591054Y-92580451D01*
X106684237Y-92831641D01*
X106591054Y-93082828D01*
X106313821Y-93202057D01*
X106036008Y-93082828D01*
X105943404Y-92831641D01*
G37*
G36*
X159072132Y-93297029D02*
G01*
X159075599Y-93297029D01*
X159048988Y-93301089D01*
X159151431Y-93301089D01*
X159156646Y-93304052D01*
X159162424Y-93304052D01*
X159151431Y-93301089D01*
X159171700Y-93301089D01*
X159275301Y-93361280D01*
X159275893Y-93361873D01*
X159326827Y-93438848D01*
X159333761Y-93453902D01*
X159336725Y-93470675D01*
X159336725Y-93570803D01*
X159339688Y-93543036D01*
X159339688Y-93732873D01*
X159310736Y-93738652D01*
X159270222Y-93792478D01*
X159261539Y-93801160D01*
X159149836Y-93863669D01*
X159130752Y-93868884D01*
X159127789Y-93868884D01*
X159116202Y-93871848D01*
X159067005Y-93871848D01*
X159097104Y-93868884D01*
X158992356Y-93868884D01*
X158963997Y-93863106D01*
X158891069Y-93813912D01*
X158879482Y-93802325D01*
X158827393Y-93724188D01*
X158821022Y-93708571D01*
X158817555Y-93692362D01*
X158817555Y-93592234D01*
X158815184Y-93620000D01*
X158815184Y-93549363D01*
X158848175Y-93424349D01*
X158852798Y-93415103D01*
X158887525Y-93369379D01*
X158900830Y-93358385D01*
X159005587Y-93302823D01*
X159025264Y-93297044D01*
X159030479Y-93297044D01*
X159040317Y-93294081D01*
X159090653Y-93294066D01*
X159072132Y-93297029D01*
G37*
G36*
X144572068Y-84129771D02*
G01*
X144572095Y-84129741D01*
X144868407Y-84129741D01*
X145023520Y-84300480D01*
X145178632Y-84129741D01*
X145023520Y-83959003D01*
X144868407Y-84129741D01*
X144572095Y-84129741D01*
X145009622Y-83648807D01*
X145023520Y-83647622D01*
X145037418Y-83648807D01*
X145474975Y-84129771D01*
X145037418Y-84610735D01*
X145023520Y-84611920D01*
X145009622Y-84610735D01*
X144572068Y-84129771D01*
G37*
G36*
X195027446Y-81373619D02*
G01*
X195003147Y-81377679D01*
X194979410Y-81373619D01*
X194760633Y-81116064D01*
X194760641Y-81116055D01*
X194949312Y-81116055D01*
X194979410Y-81151360D01*
X195027449Y-81151360D01*
X195056964Y-81116055D01*
X195027449Y-81081328D01*
X194979410Y-81081328D01*
X194949312Y-81116055D01*
X194760641Y-81116055D01*
X194979410Y-80859087D01*
X195003147Y-80855027D01*
X195027446Y-80859087D01*
X195245642Y-81116064D01*
X195027449Y-81373616D01*
X195027446Y-81373619D01*
G37*
G36*
X140047713Y-99049431D02*
G01*
X139959737Y-99332453D01*
X130254821Y-96318764D01*
X130342796Y-96035745D01*
X140047713Y-99049431D01*
G37*
G36*
X119500662Y-68097645D02*
G01*
X119476926Y-68101696D01*
X119452626Y-68097645D01*
X119234431Y-67840669D01*
X119423111Y-67840669D01*
X119452626Y-67875396D01*
X119500665Y-67875396D01*
X119530763Y-67840669D01*
X119500665Y-67805364D01*
X119452626Y-67805364D01*
X119423111Y-67840669D01*
X119234431Y-67840669D01*
X119234430Y-67840668D01*
X119452626Y-67583113D01*
X119476926Y-67579062D01*
X119500662Y-67583113D01*
X119719439Y-67840668D01*
X119500665Y-68097642D01*
X119500662Y-68097645D01*
G37*
G36*
X164682794Y-75126880D02*
G01*
X164658495Y-75130931D01*
X164634759Y-75126880D01*
X164415983Y-74869325D01*
X164604660Y-74869325D01*
X164634759Y-74904631D01*
X164682797Y-74904631D01*
X164712312Y-74869325D01*
X164682797Y-74834599D01*
X164634759Y-74834599D01*
X164604660Y-74869325D01*
X164415983Y-74869325D01*
X164415982Y-74869324D01*
X164634759Y-74612348D01*
X164658495Y-74608297D01*
X164682794Y-74612348D01*
X164900991Y-74869324D01*
X164682797Y-75126876D01*
X164682794Y-75126880D01*
G37*
G36*
X94934505Y-95645637D02*
G01*
X94910197Y-95642170D01*
X94692002Y-95384620D01*
X94880679Y-95384620D01*
X94910197Y-95419926D01*
X94958235Y-95419926D01*
X94988332Y-95384620D01*
X94958235Y-95349315D01*
X94910197Y-95349315D01*
X94880679Y-95384620D01*
X94692002Y-95384620D01*
X94691998Y-95384615D01*
X94910197Y-95127059D01*
X94934505Y-95123592D01*
X94958235Y-95127059D01*
X95177013Y-95384615D01*
X94958235Y-95642170D01*
X94934505Y-95645637D01*
G37*
G36*
X195044749Y-81260171D02*
G01*
X187345870Y-83491350D01*
X187263104Y-83206595D01*
X194961983Y-80975412D01*
X195044749Y-81260171D01*
G37*
G36*
X187328567Y-83604802D02*
G01*
X187304267Y-83608861D01*
X187280531Y-83604802D01*
X187061754Y-83347824D01*
X187061762Y-83347815D01*
X187250435Y-83347815D01*
X187280531Y-83382543D01*
X187328570Y-83382543D01*
X187358084Y-83347815D01*
X187328570Y-83312510D01*
X187280531Y-83312510D01*
X187250435Y-83347815D01*
X187061762Y-83347815D01*
X187280531Y-83090269D01*
X187304267Y-83086209D01*
X187328567Y-83090269D01*
X187546766Y-83347824D01*
X187328570Y-83604798D01*
X187328567Y-83604802D01*
G37*
G36*
X163008413Y-70329407D02*
G01*
X162984677Y-70332880D01*
X162960378Y-70329407D01*
X162741598Y-70071851D01*
X162930863Y-70071851D01*
X162960378Y-70107156D01*
X163008416Y-70107156D01*
X163037931Y-70071851D01*
X163008416Y-70036545D01*
X162960378Y-70036545D01*
X162930863Y-70071851D01*
X162741598Y-70071851D01*
X162960378Y-69814296D01*
X162984677Y-69810823D01*
X163008413Y-69814296D01*
X163227190Y-70071851D01*
X163008416Y-70329403D01*
X163008413Y-70329407D01*
G37*
G36*
X182062291Y-77809506D02*
G01*
X182038554Y-77805455D01*
X181819775Y-77548479D01*
X182008456Y-77548479D01*
X182038554Y-77583206D01*
X182086012Y-77583206D01*
X182116108Y-77548479D01*
X182086012Y-77513174D01*
X182038554Y-77513174D01*
X182008456Y-77548479D01*
X181819775Y-77548479D01*
X182038554Y-77290923D01*
X182062291Y-77286873D01*
X182086027Y-77290923D01*
X182304804Y-77548479D01*
X182086027Y-77805455D01*
X182086012Y-77805458D01*
X182062291Y-77809506D01*
G37*
G36*
X125752522Y-65335726D02*
G01*
X125475290Y-65440485D01*
X121681992Y-55398142D01*
X121959224Y-55293383D01*
X125752522Y-65335726D01*
G37*
G36*
X196141588Y-73230231D02*
G01*
X196117289Y-73234282D01*
X196093552Y-73230231D01*
X195874775Y-72972676D01*
X196063457Y-72972676D01*
X196093552Y-73007981D01*
X196141591Y-73007981D01*
X196171106Y-72972676D01*
X196141591Y-72937949D01*
X196093552Y-72937949D01*
X196063457Y-72972676D01*
X195874775Y-72972676D01*
X196093552Y-72715699D01*
X196117289Y-72711648D01*
X196141588Y-72715699D01*
X196359787Y-72972676D01*
X196141591Y-73230227D01*
X196141588Y-73230231D01*
G37*
G36*
X120695756Y-78543396D02*
G01*
X117572104Y-81667048D01*
X117362587Y-81457532D01*
X120486240Y-78333879D01*
X120695756Y-78543396D01*
G37*
G36*
X134115914Y-67318613D02*
G01*
X134092177Y-67322086D01*
X134067878Y-67318613D01*
X133849098Y-67061058D01*
X134038363Y-67061058D01*
X134067878Y-67096363D01*
X134115917Y-67096363D01*
X134145431Y-67061058D01*
X134115917Y-67025752D01*
X134067878Y-67025752D01*
X134038363Y-67061058D01*
X133849098Y-67061058D01*
X134067878Y-66803503D01*
X134092177Y-66800030D01*
X134115914Y-66803503D01*
X134334691Y-67061058D01*
X134115917Y-67318610D01*
X134115914Y-67318613D01*
G37*
G36*
X131066335Y-83164361D02*
G01*
X131042599Y-83160302D01*
X130823822Y-82903324D01*
X130823830Y-82903315D01*
X131012504Y-82903315D01*
X131042599Y-82938043D01*
X131090060Y-82938043D01*
X131120155Y-82903315D01*
X131090060Y-82868010D01*
X131042599Y-82868010D01*
X131012504Y-82903315D01*
X130823830Y-82903315D01*
X131042599Y-82645769D01*
X131066335Y-82641709D01*
X131090072Y-82645769D01*
X131308849Y-82903324D01*
X131090072Y-83160302D01*
X131090060Y-83160304D01*
X131066335Y-83164361D01*
G37*
G36*
X128177085Y-74795819D02*
G01*
X128153349Y-74791768D01*
X127934573Y-74534793D01*
X128123254Y-74534793D01*
X128153349Y-74569519D01*
X128200810Y-74569519D01*
X128230906Y-74534793D01*
X128200810Y-74499487D01*
X128153349Y-74499487D01*
X128123254Y-74534793D01*
X127934573Y-74534793D01*
X127934572Y-74534792D01*
X128153349Y-74277237D01*
X128177085Y-74273186D01*
X128200822Y-74277237D01*
X128419599Y-74534792D01*
X128200822Y-74791768D01*
X128200810Y-74791770D01*
X128177085Y-74795819D01*
G37*
G36*
X129288335Y-78811376D02*
G01*
X129264599Y-78807316D01*
X129045822Y-78549761D01*
X129234504Y-78549761D01*
X129264599Y-78585066D01*
X129312060Y-78585066D01*
X129342156Y-78549761D01*
X129312060Y-78515037D01*
X129264599Y-78515037D01*
X129234504Y-78549761D01*
X129045822Y-78549761D01*
X129264599Y-78292785D01*
X129288335Y-78288734D01*
X129312072Y-78292785D01*
X129530849Y-78549761D01*
X129312072Y-78807316D01*
X129312060Y-78807318D01*
X129288335Y-78811376D01*
G37*
G36*
X140238131Y-103625813D02*
G01*
X136444833Y-109092932D01*
X136201745Y-108923927D01*
X139994465Y-103456809D01*
X140238131Y-103625813D01*
G37*
G36*
X159997619Y-80703959D02*
G01*
X159973883Y-80707426D01*
X159949584Y-80703959D01*
X159730812Y-80446410D01*
X159920069Y-80446410D01*
X159949584Y-80481715D01*
X159997622Y-80481715D01*
X160027137Y-80446410D01*
X159997622Y-80411105D01*
X159949584Y-80411105D01*
X159920069Y-80446410D01*
X159730812Y-80446410D01*
X159730807Y-80446404D01*
X159949584Y-80188849D01*
X159973883Y-80185382D01*
X159997619Y-80188849D01*
X160216396Y-80446404D01*
X159997622Y-80703956D01*
X159997619Y-80703959D01*
G37*
G36*
X164288078Y-74980450D02*
G01*
X164381263Y-74729261D01*
X164658495Y-74610033D01*
X164936308Y-74729261D01*
X165028912Y-74980450D01*
X164936308Y-75231639D01*
X164658495Y-75350867D01*
X164381263Y-75231639D01*
X164288078Y-74980451D01*
X164584412Y-74980451D01*
X164602933Y-75034856D01*
X164658495Y-75054536D01*
X164714638Y-75034856D01*
X164732567Y-74980451D01*
X164714638Y-74926046D01*
X164658495Y-74906367D01*
X164602933Y-74926046D01*
X164584412Y-74980451D01*
X164288078Y-74980451D01*
X164288078Y-74980450D01*
G37*
G36*
X181691874Y-77659604D02*
G01*
X181785059Y-77408416D01*
X182062291Y-77289188D01*
X182339525Y-77408416D01*
X182432707Y-77659604D01*
X182339525Y-77910793D01*
X182062291Y-78030021D01*
X181785059Y-77910793D01*
X181691875Y-77659606D01*
X181988193Y-77659606D01*
X182006150Y-77714011D01*
X182062291Y-77733690D01*
X182118434Y-77714011D01*
X182136362Y-77659606D01*
X182118434Y-77605201D01*
X182062291Y-77585521D01*
X182006150Y-77605201D01*
X181988193Y-77659606D01*
X181691875Y-77659606D01*
X181691874Y-77659604D01*
G37*
G36*
X139745660Y-103541311D02*
G01*
X139745661Y-103541308D01*
X140041993Y-103541308D01*
X140060514Y-103595712D01*
X140116077Y-103615388D01*
X140172220Y-103595712D01*
X140190148Y-103541308D01*
X140172220Y-103486904D01*
X140116077Y-103467228D01*
X140060514Y-103486904D01*
X140041993Y-103541308D01*
X139745661Y-103541308D01*
X139838845Y-103290121D01*
X140116077Y-103170894D01*
X140393889Y-103290121D01*
X140486493Y-103541311D01*
X140393889Y-103792501D01*
X140116077Y-103911728D01*
X139838845Y-103792501D01*
X139745660Y-103541311D01*
G37*
G36*
X127421773Y-115066488D02*
G01*
X127397474Y-115070547D01*
X127373738Y-115066488D01*
X127154961Y-114809510D01*
X127154969Y-114809501D01*
X127344223Y-114809501D01*
X127373738Y-114844229D01*
X127421776Y-114844229D01*
X127451291Y-114809501D01*
X127421776Y-114774196D01*
X127373738Y-114774196D01*
X127344223Y-114809501D01*
X127154969Y-114809501D01*
X127373738Y-114551955D01*
X127397474Y-114547895D01*
X127421773Y-114551955D01*
X127640550Y-114809510D01*
X127421776Y-115066484D01*
X127421773Y-115066488D01*
G37*
G36*
X123663141Y-77125973D02*
G01*
X121319100Y-78130728D01*
X121202187Y-77858125D01*
X123546228Y-76853369D01*
X123663141Y-77125973D01*
G37*
G36*
X195114778Y-77896903D02*
G01*
X194891373Y-78091950D01*
X187193071Y-69278927D01*
X187415902Y-69083880D01*
X195114778Y-77896903D01*
G37*
G36*
X140860383Y-68846582D02*
G01*
X141156702Y-68846582D01*
X141174659Y-68900987D01*
X141230800Y-68920667D01*
X141286362Y-68900987D01*
X141304883Y-68846582D01*
X141286362Y-68792178D01*
X141230800Y-68772498D01*
X141174659Y-68792178D01*
X141156702Y-68846582D01*
X140860383Y-68846582D01*
X140952987Y-68595393D01*
X141230800Y-68476165D01*
X141508034Y-68595393D01*
X141601216Y-68846582D01*
X141508034Y-69097771D01*
X141230800Y-69216998D01*
X140952987Y-69097771D01*
X140860383Y-68846582D01*
G37*
G36*
X168301821Y-76748032D02*
G01*
X168157128Y-77006166D01*
X164586080Y-75000128D01*
X164731352Y-74741994D01*
X168301821Y-76748032D01*
G37*
G36*
X194632730Y-77994137D02*
G01*
X194725912Y-77742948D01*
X195003147Y-77623720D01*
X195280378Y-77742948D01*
X195373563Y-77994137D01*
X195280378Y-78245326D01*
X195003147Y-78364553D01*
X194725912Y-78245326D01*
X194632730Y-77994138D01*
X194929075Y-77994138D01*
X194947003Y-78048543D01*
X195003147Y-78068223D01*
X195059287Y-78048543D01*
X195077215Y-77994138D01*
X195059287Y-77939733D01*
X195003147Y-77920054D01*
X194947003Y-77939733D01*
X194929075Y-77994138D01*
X194632730Y-77994138D01*
X194632730Y-77994137D01*
G37*
G36*
X162139594Y-65247752D02*
G01*
X162045253Y-65529037D01*
X153680205Y-62737601D01*
X153773964Y-62456315D01*
X162139594Y-65247752D01*
G37*
G36*
X142361071Y-83149506D02*
G01*
X142122532Y-83680936D01*
X142042258Y-83663224D01*
X141968717Y-83626487D01*
X141968717Y-83068634D01*
X142361071Y-83149506D01*
G37*
G36*
X110773290Y-74239038D02*
G01*
X110749560Y-74234987D01*
X110530782Y-73977432D01*
X110530783Y-73977431D01*
X110719463Y-73977431D01*
X110749560Y-74012737D01*
X110797598Y-74012737D01*
X110827116Y-73977431D01*
X110797598Y-73942126D01*
X110749560Y-73942126D01*
X110719463Y-73977431D01*
X110530783Y-73977431D01*
X110749560Y-73719876D01*
X110773290Y-73716403D01*
X110797598Y-73719876D01*
X111015797Y-73977432D01*
X110797598Y-74234987D01*
X110773290Y-74239038D01*
G37*
G36*
X125637986Y-65644213D02*
G01*
X125613687Y-65648264D01*
X125589950Y-65644213D01*
X125371173Y-65386658D01*
X125559855Y-65386658D01*
X125589950Y-65421964D01*
X125637989Y-65421964D01*
X125667504Y-65386658D01*
X125637989Y-65351932D01*
X125589950Y-65351932D01*
X125559855Y-65386658D01*
X125371173Y-65386658D01*
X125589950Y-65129681D01*
X125613687Y-65125631D01*
X125637986Y-65129681D01*
X125856185Y-65386658D01*
X125637989Y-65644210D01*
X125637986Y-65644213D01*
G37*
G36*
X153789593Y-62731234D02*
G01*
X148991539Y-64962416D01*
X148867102Y-64693864D01*
X153664576Y-62462682D01*
X153789593Y-62731234D01*
G37*
G36*
X142109905Y-83829932D02*
G01*
X141992415Y-83803884D01*
X141896916Y-83756427D01*
X141891700Y-83752959D01*
X141890051Y-83499476D01*
X142045725Y-83499476D01*
X142092027Y-83522620D01*
X142120950Y-83528991D01*
X142245967Y-83242496D01*
X142242500Y-83238436D01*
X142239536Y-83234376D01*
X142144642Y-83168989D01*
X142061935Y-83184032D01*
X142054408Y-83190403D01*
X142045725Y-83195619D01*
X142045725Y-83499476D01*
X141890051Y-83499476D01*
X141886485Y-82951354D01*
X142215228Y-82881322D01*
X142215240Y-82881289D01*
X142478582Y-83061869D01*
X142129582Y-83828747D01*
X142120950Y-83829267D01*
X142109905Y-83829932D01*
G37*
G36*
X195603998Y-87050927D02*
G01*
X195586633Y-87041682D01*
X195584855Y-87041089D01*
X195583077Y-87050927D01*
X195474266Y-87005206D01*
X195408285Y-86983781D01*
X195243334Y-86835036D01*
X195135682Y-86631307D01*
X195135682Y-86376037D01*
X195425096Y-86376037D01*
X195478922Y-86387031D01*
X195474862Y-86420599D01*
X195474862Y-86506258D01*
X195480077Y-86525371D01*
X195480077Y-86545640D01*
X195505532Y-86626667D01*
X195509592Y-86633038D01*
X195513059Y-86639409D01*
X195577304Y-86708864D01*
X195591202Y-86717546D01*
X195602196Y-86728540D01*
X195668756Y-86763845D01*
X195675690Y-86763845D01*
X195693618Y-86769624D01*
X195781016Y-86769624D01*
X195861464Y-86736055D01*
X195963907Y-86633035D01*
X195994583Y-86561266D01*
X195995176Y-86560673D01*
X195995176Y-86410729D01*
X195991709Y-86387585D01*
X196049008Y-86375998D01*
X196049008Y-86375406D01*
X196048415Y-86374813D01*
X195969122Y-86235907D01*
X195905458Y-86186132D01*
X195833689Y-86154300D01*
X195647322Y-86154300D01*
X195569211Y-86187356D01*
X195504966Y-86237708D01*
X195425096Y-86376037D01*
X195135682Y-86376037D01*
X195135682Y-86303720D01*
X195136274Y-86302534D01*
X195136274Y-86301349D01*
X195293701Y-86028743D01*
X195302947Y-86019497D01*
X195410021Y-85936154D01*
X195422763Y-85926908D01*
X195562248Y-85868453D01*
X195574397Y-85865490D01*
X195574391Y-85865626D01*
X195907766Y-85865626D01*
X195921664Y-85869094D01*
X196053627Y-85927551D01*
X196065214Y-85935641D01*
X196170552Y-86017248D01*
X196174611Y-86020715D01*
X196178671Y-86024775D01*
X196333784Y-86296800D01*
X196333784Y-86629017D01*
X196337844Y-86563616D01*
X196345963Y-86612813D01*
X196337844Y-86644067D01*
X196186785Y-86906251D01*
X196179851Y-86913185D01*
X196076250Y-86992478D01*
X196069315Y-86996538D01*
X195907260Y-87041682D01*
X195884116Y-87050927D01*
X195883523Y-87047964D01*
X195877745Y-87050334D01*
X195871374Y-87052705D01*
X195866158Y-87052705D01*
X195866751Y-87060795D01*
X195803084Y-87070041D01*
X195781016Y-87076190D01*
X195767778Y-87079879D01*
X195756784Y-87079879D01*
X195744042Y-87078101D01*
X195744042Y-87079879D01*
X195726114Y-87079879D01*
X195725521Y-87075256D01*
X195722054Y-87074663D01*
X195722054Y-87078131D01*
X195609234Y-87061618D01*
X195603405Y-87060765D01*
X195603900Y-87052560D01*
X195604493Y-87052560D01*
X195609234Y-87053153D01*
X195607456Y-87052560D01*
X195604493Y-87052560D01*
X195603900Y-87052560D01*
X195603998Y-87050927D01*
G37*
G36*
X118472169Y-93538920D02*
G01*
X118448433Y-93534860D01*
X118229656Y-93277883D01*
X118229664Y-93277874D01*
X118418337Y-93277874D01*
X118448433Y-93312602D01*
X118495893Y-93312602D01*
X118525989Y-93277874D01*
X118495893Y-93242569D01*
X118448433Y-93242569D01*
X118418337Y-93277874D01*
X118229664Y-93277874D01*
X118448433Y-93020328D01*
X118472169Y-93016268D01*
X118495905Y-93020328D01*
X118714682Y-93277883D01*
X118495905Y-93534860D01*
X118495893Y-93534862D01*
X118472169Y-93538920D01*
G37*
G36*
X152940589Y-78105260D02*
G01*
X153378143Y-77624297D01*
X153392041Y-77623142D01*
X153405939Y-77624297D01*
X153843493Y-78105260D01*
X153405939Y-78586222D01*
X153392041Y-78587407D01*
X153378143Y-78586222D01*
X152940591Y-78105262D01*
X153236931Y-78105262D01*
X153392041Y-78276001D01*
X153547154Y-78105262D01*
X153392041Y-77934523D01*
X153236931Y-78105262D01*
X152940591Y-78105262D01*
X152940589Y-78105260D01*
G37*
G36*
X129651738Y-74611770D02*
G01*
X129606592Y-74904631D01*
X128154443Y-74682381D01*
X128199589Y-74389520D01*
X129651738Y-74611770D01*
G37*
G36*
X133224004Y-89184776D02*
G01*
X133199704Y-89188836D01*
X133175968Y-89184776D01*
X132957191Y-88927802D01*
X132957196Y-88927796D01*
X133146453Y-88927796D01*
X133175968Y-88962520D01*
X133224007Y-88962520D01*
X133253521Y-88927796D01*
X133224007Y-88892491D01*
X133175968Y-88892491D01*
X133146453Y-88927796D01*
X132957196Y-88927796D01*
X133175968Y-88670247D01*
X133199704Y-88666187D01*
X133224004Y-88670247D01*
X133442781Y-88927802D01*
X133224007Y-89184773D01*
X133224004Y-89184776D01*
G37*
G36*
X141378317Y-68839636D02*
G01*
X141082565Y-68853526D01*
X140412920Y-54573384D01*
X140708675Y-54559495D01*
X141378317Y-68839636D01*
G37*
G36*
X101145351Y-91826884D02*
G01*
X101238534Y-91575694D01*
X101515767Y-91456467D01*
X101793580Y-91575694D01*
X101886184Y-91826884D01*
X101793580Y-92078652D01*
X101515767Y-92197301D01*
X101238534Y-92078652D01*
X101145355Y-91826896D01*
X101441684Y-91826896D01*
X101460205Y-91881300D01*
X101515767Y-91900976D01*
X101571909Y-91881300D01*
X101589852Y-91826896D01*
X101571909Y-91773070D01*
X101515767Y-91752801D01*
X101460205Y-91773070D01*
X101441684Y-91826896D01*
X101145355Y-91826896D01*
X101145351Y-91826884D01*
G37*
G36*
X117604010Y-84831805D02*
G01*
X117580274Y-84835865D01*
X117555974Y-84831805D01*
X117337778Y-84574250D01*
X117337786Y-84574241D01*
X117526460Y-84574241D01*
X117555974Y-84609546D01*
X117604013Y-84609546D01*
X117634112Y-84574241D01*
X117604013Y-84539514D01*
X117555974Y-84539514D01*
X117526460Y-84574241D01*
X117337786Y-84574241D01*
X117555974Y-84317273D01*
X117580274Y-84313213D01*
X117604010Y-84317273D01*
X117822787Y-84574250D01*
X117604013Y-84831802D01*
X117604010Y-84831805D01*
G37*
G36*
X123628490Y-77245780D02*
G01*
X123604754Y-77249253D01*
X123580455Y-77245780D01*
X123362256Y-76988225D01*
X123362257Y-76988224D01*
X123550940Y-76988224D01*
X123580455Y-77023529D01*
X123628493Y-77023529D01*
X123658589Y-76988224D01*
X123628493Y-76952919D01*
X123580455Y-76952919D01*
X123550940Y-76988224D01*
X123362257Y-76988224D01*
X123580455Y-76730669D01*
X123604754Y-76727196D01*
X123628490Y-76730669D01*
X123847267Y-76988225D01*
X123628493Y-77245776D01*
X123628490Y-77245780D01*
G37*
G36*
X115760603Y-110682829D02*
G01*
X115760604Y-110682826D01*
X116056936Y-110682826D01*
X116075457Y-110737230D01*
X116131020Y-110756906D01*
X116187161Y-110737230D01*
X116205104Y-110682826D01*
X116187161Y-110628422D01*
X116131020Y-110608745D01*
X116075457Y-110628422D01*
X116056936Y-110682826D01*
X115760604Y-110682826D01*
X115853786Y-110431639D01*
X116131020Y-110312412D01*
X116408833Y-110431639D01*
X116501437Y-110682829D01*
X116408833Y-110934019D01*
X116131020Y-111053245D01*
X115853786Y-110934019D01*
X115760603Y-110682829D01*
G37*
G36*
X159167625Y-93462899D02*
G01*
X159191332Y-93498459D01*
X159191332Y-93611065D01*
X159176515Y-93614029D01*
X159176515Y-93670332D01*
X159158735Y-93694039D01*
X159111322Y-93720709D01*
X159101773Y-93720709D01*
X159096505Y-93723672D01*
X159022422Y-93723672D01*
X158986862Y-93699965D01*
X158963155Y-93664405D01*
X158963155Y-93551799D01*
X158977972Y-93495495D01*
X158995752Y-93471789D01*
X159046128Y-93445119D01*
X159055346Y-93445119D01*
X159060945Y-93442155D01*
X159132065Y-93442155D01*
X159167625Y-93462899D01*
G37*
G36*
X121844703Y-55604185D02*
G01*
X121820967Y-55608236D01*
X121796667Y-55604185D01*
X121577890Y-55347209D01*
X121767153Y-55347209D01*
X121796667Y-55381936D01*
X121844706Y-55381936D01*
X121874221Y-55347209D01*
X121844706Y-55311904D01*
X121796667Y-55311904D01*
X121767153Y-55347209D01*
X121577890Y-55347209D01*
X121796667Y-55089653D01*
X121820967Y-55085603D01*
X121844703Y-55089653D01*
X122063480Y-55347209D01*
X121844706Y-55604182D01*
X121844703Y-55604185D01*
G37*
G36*
X179048605Y-61742106D02*
G01*
X179024868Y-61738633D01*
X178806091Y-61481078D01*
X178994779Y-61481078D01*
X179024874Y-61516383D01*
X179072335Y-61516383D01*
X179102431Y-61481078D01*
X179072335Y-61445773D01*
X179024874Y-61445773D01*
X178994779Y-61481078D01*
X178806091Y-61481078D01*
X179024868Y-61223523D01*
X179048605Y-61220050D01*
X179072341Y-61223523D01*
X179291118Y-61481078D01*
X179072341Y-61738633D01*
X179072335Y-61738634D01*
X179048605Y-61742106D01*
G37*
G36*
X152076490Y-103127484D02*
G01*
X152052754Y-103131544D01*
X152028454Y-103127484D01*
X151810258Y-102869932D01*
X151998940Y-102869932D01*
X152028454Y-102905237D01*
X152076493Y-102905237D01*
X152106589Y-102869932D01*
X152076493Y-102834624D01*
X152028454Y-102834624D01*
X151998940Y-102869932D01*
X151810258Y-102869932D01*
X151810255Y-102869929D01*
X152028454Y-102612371D01*
X152052754Y-102608904D01*
X152076490Y-102612371D01*
X152295267Y-102869929D01*
X152076493Y-103127481D01*
X152076490Y-103127484D01*
G37*
G36*
X153464320Y-77974459D02*
G01*
X153319626Y-78233172D01*
X142162561Y-71986442D01*
X142307254Y-71727729D01*
X153464320Y-77974459D01*
G37*
G36*
X171367668Y-74126176D02*
G01*
X171343932Y-74122125D01*
X171125156Y-73865149D01*
X171313836Y-73865149D01*
X171343932Y-73899875D01*
X171391393Y-73899875D01*
X171421488Y-73865149D01*
X171391393Y-73829843D01*
X171343932Y-73829843D01*
X171313836Y-73865149D01*
X171125156Y-73865149D01*
X171125155Y-73865148D01*
X171343932Y-73607593D01*
X171367668Y-73603542D01*
X171391405Y-73607593D01*
X171610182Y-73865148D01*
X171391405Y-74122125D01*
X171391393Y-74122127D01*
X171367668Y-74126176D01*
G37*
G36*
X128249942Y-66708583D02*
G01*
X128104090Y-66966138D01*
X125540691Y-65517462D01*
X125686543Y-65259328D01*
X128249942Y-66708583D01*
G37*
G36*
X140140376Y-103797138D02*
G01*
X140116077Y-103801198D01*
X140092340Y-103797138D01*
X139873564Y-103539583D01*
X139873572Y-103539574D01*
X140062826Y-103539574D01*
X140092340Y-103574880D01*
X140140379Y-103574880D01*
X140169894Y-103539574D01*
X140140379Y-103504847D01*
X140092340Y-103504847D01*
X140062826Y-103539574D01*
X139873572Y-103539574D01*
X140092340Y-103282606D01*
X140116077Y-103278546D01*
X140140376Y-103282606D01*
X140359153Y-103539583D01*
X140140379Y-103797135D01*
X140140376Y-103797138D01*
G37*
G36*
X106980571Y-107929030D02*
G01*
X106956262Y-107924970D01*
X106738064Y-107667415D01*
X106738072Y-107667406D01*
X106926745Y-107667406D01*
X106956262Y-107702711D01*
X107004301Y-107702711D01*
X107034397Y-107667406D01*
X107004301Y-107632679D01*
X106956262Y-107632679D01*
X106926745Y-107667406D01*
X106738072Y-107667406D01*
X106956262Y-107410437D01*
X106980571Y-107406378D01*
X107004301Y-107410437D01*
X107223078Y-107667415D01*
X107004301Y-107924970D01*
X106980571Y-107929030D01*
G37*
G36*
X131994120Y-95319214D02*
G01*
X131970383Y-95322681D01*
X131946084Y-95319214D01*
X131727312Y-95061665D01*
X131916569Y-95061665D01*
X131946084Y-95096970D01*
X131994122Y-95096970D01*
X132023637Y-95061665D01*
X131994122Y-95026359D01*
X131946084Y-95026359D01*
X131916569Y-95061665D01*
X131727312Y-95061665D01*
X131727307Y-95061659D01*
X131946084Y-94804103D01*
X131970383Y-94800636D01*
X131994120Y-94804103D01*
X132212897Y-95061659D01*
X131994122Y-95319210D01*
X131994120Y-95319214D01*
G37*
G36*
X178081980Y-82799708D02*
G01*
X177634585Y-88824189D01*
X177339410Y-88802201D01*
X177786802Y-82777721D01*
X178081980Y-82799708D01*
G37*
G36*
X127038075Y-74863537D02*
G01*
X126916531Y-74788297D01*
X126839555Y-74667911D01*
X126812031Y-74538831D01*
X127101321Y-74538831D01*
X127108848Y-74551564D01*
X127114064Y-74570085D01*
X127114656Y-74571241D01*
X127122746Y-74578765D01*
X127129680Y-74585711D01*
X127145297Y-74590343D01*
X127160914Y-74599025D01*
X127171345Y-74601337D01*
X127201482Y-74601337D01*
X127225781Y-74587447D01*
X127240242Y-74566031D01*
X127249488Y-74535935D01*
X127249488Y-74420761D01*
X127246525Y-74407449D01*
X127240746Y-74396452D01*
X127236686Y-74384878D01*
X127228597Y-74372144D01*
X127226226Y-74369833D01*
X127224448Y-74367521D01*
X127211706Y-74359420D01*
X127203616Y-74357108D01*
X127196089Y-74353057D01*
X127177568Y-74349584D01*
X127144100Y-74349584D01*
X127126776Y-74359398D01*
X127109411Y-74381392D01*
X127101321Y-74411488D01*
X127101321Y-74538831D01*
X126812031Y-74538831D01*
X126805987Y-74510484D01*
X126804801Y-74527268D01*
X126804801Y-74417301D01*
X126855154Y-74226884D01*
X126860370Y-74217623D01*
X126907250Y-74159746D01*
X126911893Y-74154536D01*
X127080317Y-74057302D01*
X127098245Y-74053251D01*
X127173553Y-74053244D01*
X127311881Y-74082761D01*
X127438054Y-74163790D01*
X127510401Y-74279545D01*
X127545706Y-74425975D01*
X127545706Y-74537691D01*
X127490143Y-74725215D01*
X127488958Y-74727526D01*
X127444392Y-74791770D01*
X127431650Y-74803345D01*
X127280591Y-74890161D01*
X127258011Y-74897685D01*
X127179876Y-74897685D01*
X127038075Y-74863537D01*
G37*
G36*
X157597058Y-80412379D02*
G01*
X157614838Y-80433122D01*
X157614838Y-80510592D01*
X157620765Y-80516096D01*
X157620765Y-80628702D01*
X157591132Y-80658336D01*
X157552608Y-80679079D01*
X157478525Y-80679079D01*
X157419258Y-80643519D01*
X157392588Y-80607959D01*
X157377772Y-80566472D01*
X157377772Y-80477572D01*
X157395552Y-80439049D01*
X157400738Y-80433122D01*
X157484452Y-80433122D01*
X157493342Y-80477572D01*
X157579278Y-80477572D01*
X157582242Y-80480324D01*
X157582242Y-80471646D01*
X157564462Y-80450902D01*
X157540755Y-80433122D01*
X157484452Y-80433122D01*
X157400738Y-80433122D01*
X157416295Y-80415342D01*
X157478525Y-80382746D01*
X157546682Y-80382746D01*
X157597058Y-80412379D01*
G37*
G36*
X96606010Y-74126176D02*
G01*
X96581702Y-74122125D01*
X96362926Y-73865149D01*
X96552184Y-73865149D01*
X96581702Y-73899875D01*
X96629741Y-73899875D01*
X96659258Y-73865149D01*
X96629741Y-73829843D01*
X96581702Y-73829843D01*
X96552184Y-73865149D01*
X96362926Y-73865149D01*
X96362925Y-73865148D01*
X96581702Y-73607593D01*
X96606010Y-73603542D01*
X96629741Y-73607593D01*
X96848518Y-73865148D01*
X96629741Y-74122125D01*
X96606010Y-74126176D01*
G37*
G36*
X140226046Y-92421883D02*
G01*
X140202310Y-92417823D01*
X139983533Y-92160268D01*
X139983541Y-92160259D01*
X140172214Y-92160259D01*
X140202310Y-92195564D01*
X140249768Y-92195564D01*
X140279866Y-92160259D01*
X140249768Y-92125532D01*
X140202310Y-92125532D01*
X140172214Y-92160259D01*
X139983541Y-92160259D01*
X140202310Y-91903291D01*
X140226046Y-91899231D01*
X140249782Y-91903291D01*
X140468562Y-92160268D01*
X140249782Y-92417823D01*
X140249768Y-92417826D01*
X140226046Y-92421883D01*
G37*
G36*
X170381942Y-63403193D02*
G01*
X169937442Y-66079454D01*
X169645163Y-66030836D01*
X170089663Y-63354576D01*
X170381942Y-63403193D01*
G37*
G36*
X116261176Y-110608745D02*
G01*
X116001306Y-110751125D01*
X106183527Y-92902829D01*
X106443397Y-92760450D01*
X116261176Y-110608745D01*
G37*
G36*
X158876454Y-53520013D02*
G01*
X153856730Y-62668147D01*
X153596861Y-62525769D01*
X158617162Y-53377635D01*
X158876454Y-53520013D01*
G37*
G36*
X133668504Y-54934542D02*
G01*
X133644204Y-54938592D01*
X133620468Y-54934542D01*
X133401691Y-54677565D01*
X133590953Y-54677565D01*
X133620468Y-54712292D01*
X133668507Y-54712292D01*
X133698021Y-54677565D01*
X133668507Y-54642260D01*
X133620468Y-54642260D01*
X133590953Y-54677565D01*
X133401691Y-54677565D01*
X133620468Y-54420010D01*
X133644204Y-54415959D01*
X133668504Y-54420010D01*
X133887281Y-54677565D01*
X133668507Y-54934538D01*
X133668504Y-54934542D01*
G37*
G36*
X177741730Y-68399188D02*
G01*
X177830858Y-68399188D01*
X177856906Y-68466904D01*
X177934462Y-68502789D01*
X178012016Y-68466904D01*
X178038063Y-68399188D01*
X178012016Y-68330892D01*
X177934462Y-68295587D01*
X177856906Y-68330892D01*
X177830858Y-68399188D01*
X177741730Y-68399188D01*
X177790347Y-68270121D01*
X177934462Y-68206455D01*
X178078575Y-68270121D01*
X178127195Y-68399188D01*
X178078575Y-68528255D01*
X177934462Y-68591920D01*
X177790347Y-68528255D01*
X177741730Y-68399188D01*
G37*
G36*
X139794825Y-82144936D02*
G01*
X139556285Y-82676366D01*
X139476012Y-82658654D01*
X139402471Y-82621917D01*
X139402471Y-82064064D01*
X139794825Y-82144936D01*
G37*
G36*
X178740702Y-68545039D02*
G01*
X178716966Y-68549090D01*
X178692667Y-68545039D01*
X178473891Y-68288063D01*
X178663152Y-68288063D01*
X178692667Y-68322789D01*
X178740705Y-68322789D01*
X178770220Y-68288063D01*
X178740705Y-68252757D01*
X178692667Y-68252757D01*
X178663152Y-68288063D01*
X178473891Y-68288063D01*
X178473890Y-68288062D01*
X178692667Y-68030507D01*
X178716966Y-68026456D01*
X178740702Y-68030507D01*
X178959479Y-68288062D01*
X178740705Y-68545035D01*
X178740702Y-68545039D01*
G37*
G36*
X140011326Y-99658864D02*
G01*
X139819749Y-99614299D01*
X139564509Y-99363109D01*
X139528476Y-99190139D01*
X139819705Y-99190139D01*
X139829543Y-99237597D01*
X139834166Y-99245716D01*
X139837129Y-99254399D01*
X139926260Y-99341796D01*
X139937847Y-99345856D01*
X139948278Y-99352227D01*
X139996317Y-99363221D01*
X140062870Y-99363221D01*
X140132903Y-99322129D01*
X140164157Y-99280455D01*
X140190205Y-99188432D01*
X140190205Y-99076726D01*
X140190797Y-99074948D01*
X140177492Y-99019967D01*
X140172869Y-99010721D01*
X140169906Y-99001475D01*
X140080775Y-98912344D01*
X140072092Y-98909381D01*
X140063409Y-98905321D01*
X140006110Y-98891423D01*
X140004913Y-98892078D01*
X139945300Y-98892078D01*
X139874112Y-98933748D01*
X139844597Y-98973685D01*
X139819705Y-99066867D01*
X139819705Y-99190139D01*
X139528476Y-99190139D01*
X139523997Y-99168640D01*
X139523404Y-99179071D01*
X139523404Y-99066195D01*
X139587071Y-98824843D01*
X139591694Y-98816753D01*
X139654781Y-98731673D01*
X139663463Y-98722990D01*
X139873558Y-98601449D01*
X139893827Y-98595671D01*
X140001479Y-98595531D01*
X140186109Y-98638360D01*
X140443087Y-98895338D01*
X140486493Y-99081702D01*
X140486493Y-99196424D01*
X140419934Y-99430830D01*
X140415311Y-99438357D01*
X140353961Y-99521700D01*
X140346434Y-99529227D01*
X140130550Y-99654241D01*
X140112029Y-99659457D01*
X140003799Y-99659457D01*
X140011326Y-99658864D01*
G37*
G36*
X148953400Y-65086852D02*
G01*
X148929101Y-65090903D01*
X148905365Y-65086852D01*
X148686589Y-64829876D01*
X148875269Y-64829876D01*
X148905365Y-64864602D01*
X148953403Y-64864602D01*
X148982918Y-64829876D01*
X148953403Y-64794571D01*
X148905365Y-64794571D01*
X148875269Y-64829876D01*
X148686589Y-64829876D01*
X148686588Y-64829875D01*
X148905365Y-64572320D01*
X148929101Y-64568269D01*
X148953400Y-64572320D01*
X149171600Y-64829875D01*
X148953403Y-65086848D01*
X148953400Y-65086852D01*
G37*
G36*
X140203981Y-103660538D02*
G01*
X133844970Y-108345731D01*
X133669022Y-108106696D01*
X140028614Y-103422084D01*
X140203981Y-103660538D01*
G37*
G36*
X156847335Y-68884201D02*
G01*
X156823599Y-68880150D01*
X156604822Y-68622595D01*
X156793503Y-68622595D01*
X156823599Y-68657901D01*
X156871060Y-68657901D01*
X156901155Y-68622595D01*
X156871060Y-68587869D01*
X156823599Y-68587869D01*
X156793503Y-68622595D01*
X156604822Y-68622595D01*
X156823599Y-68365618D01*
X156847335Y-68361567D01*
X156871071Y-68365618D01*
X157089848Y-68622595D01*
X156871071Y-68880150D01*
X156871060Y-68880152D01*
X156847335Y-68884201D01*
G37*
G36*
X96048650Y-75912859D02*
G01*
X96024919Y-75909386D01*
X95806142Y-75651830D01*
X95994823Y-75651830D01*
X96024919Y-75687136D01*
X96072379Y-75687136D01*
X96102475Y-75651830D01*
X96072379Y-75616525D01*
X96024919Y-75616525D01*
X95994823Y-75651830D01*
X95806142Y-75651830D01*
X96024919Y-75394275D01*
X96048649Y-75390802D01*
X96072380Y-75394275D01*
X96291157Y-75651830D01*
X96072380Y-75909386D01*
X96072379Y-75909386D01*
X96048650Y-75912859D01*
G37*
G36*
X177116650Y-88813198D02*
G01*
X177412999Y-88813198D01*
X177430927Y-88867602D01*
X177487067Y-88887278D01*
X177542630Y-88867602D01*
X177561150Y-88813198D01*
X177542630Y-88758791D01*
X177487067Y-88739114D01*
X177430927Y-88758791D01*
X177412999Y-88813198D01*
X177116650Y-88813198D01*
X177209255Y-88562008D01*
X177487067Y-88442781D01*
X177764302Y-88562008D01*
X177857484Y-88813198D01*
X177764302Y-89064385D01*
X177487067Y-89183614D01*
X177209255Y-89064385D01*
X177116650Y-88813198D01*
G37*
G36*
X195151242Y-81117792D02*
G01*
X194854909Y-81117792D01*
X194854909Y-77994137D01*
X195151242Y-77994137D01*
X195151242Y-81117792D01*
G37*
G36*
X143598580Y-80594008D02*
G01*
X143574844Y-80598067D01*
X143550545Y-80594008D01*
X143331765Y-80337030D01*
X143331773Y-80337021D01*
X143521030Y-80337021D01*
X143550545Y-80371749D01*
X143598583Y-80371749D01*
X143628098Y-80337021D01*
X143598583Y-80301716D01*
X143550545Y-80301716D01*
X143521030Y-80337021D01*
X143331773Y-80337021D01*
X143550545Y-80079475D01*
X143574844Y-80075415D01*
X143598580Y-80079475D01*
X143817357Y-80337030D01*
X143598583Y-80594004D01*
X143598580Y-80594008D01*
G37*
G36*
X158376463Y-53448824D02*
G01*
X158469645Y-53197635D01*
X158746879Y-53078407D01*
X159024111Y-53197635D01*
X159117296Y-53448824D01*
X159024111Y-53700013D01*
X158746879Y-53819241D01*
X158469645Y-53700013D01*
X158376463Y-53448825D01*
X158672808Y-53448825D01*
X158690736Y-53503230D01*
X158746879Y-53522910D01*
X158803020Y-53503230D01*
X158820948Y-53448825D01*
X158803020Y-53394420D01*
X158746879Y-53374741D01*
X158690736Y-53394420D01*
X158672808Y-53448825D01*
X158376463Y-53448825D01*
X158376463Y-53448824D01*
G37*
G36*
X164798492Y-74821865D02*
G01*
X164518943Y-74919679D01*
X162844544Y-70122204D01*
X163124093Y-70024391D01*
X164798492Y-74821865D01*
G37*
G36*
X121583669Y-65200871D02*
G01*
X121559933Y-65196820D01*
X121341156Y-64939265D01*
X121529837Y-64939265D01*
X121559933Y-64974570D01*
X121607393Y-64974570D01*
X121637489Y-64939265D01*
X121607393Y-64903959D01*
X121559933Y-64903959D01*
X121529837Y-64939265D01*
X121341156Y-64939265D01*
X121559933Y-64681710D01*
X121583669Y-64678237D01*
X121607405Y-64681710D01*
X121826182Y-64939265D01*
X121607405Y-65196820D01*
X121607393Y-65196822D01*
X121583669Y-65200871D01*
G37*
G36*
X130298880Y-75018069D02*
G01*
X130275143Y-75014018D01*
X130056367Y-74757043D01*
X130245048Y-74757043D01*
X130275143Y-74791769D01*
X130322601Y-74791769D01*
X130352700Y-74757043D01*
X130322601Y-74721737D01*
X130275143Y-74721737D01*
X130245048Y-74757043D01*
X130056367Y-74757043D01*
X130056366Y-74757042D01*
X130275143Y-74499487D01*
X130298880Y-74495436D01*
X130322616Y-74499487D01*
X130541396Y-74757042D01*
X130322616Y-75014018D01*
X130322601Y-75014021D01*
X130298880Y-75018069D01*
G37*
G36*
X129847428Y-96178729D02*
G01*
X129847453Y-96178702D01*
X130143767Y-96178702D01*
X130298880Y-96349440D01*
X130453989Y-96178702D01*
X130298880Y-96007964D01*
X130143767Y-96178702D01*
X129847453Y-96178702D01*
X130284981Y-95697765D01*
X130298880Y-95696579D01*
X130312778Y-95697765D01*
X130750331Y-96178729D01*
X130312778Y-96659689D01*
X130298880Y-96660875D01*
X130284981Y-96659689D01*
X129847428Y-96178729D01*
G37*
G36*
X157096780Y-59954266D02*
G01*
X157072480Y-59958317D01*
X157048744Y-59954266D01*
X156829968Y-59697290D01*
X157018645Y-59697290D01*
X157048744Y-59732017D01*
X157096783Y-59732017D01*
X157126297Y-59697290D01*
X157096783Y-59661985D01*
X157048744Y-59661985D01*
X157018645Y-59697290D01*
X156829968Y-59697290D01*
X156829967Y-59697289D01*
X157048744Y-59439734D01*
X157072480Y-59435683D01*
X157096780Y-59439734D01*
X157314976Y-59697289D01*
X157096783Y-59954263D01*
X157096780Y-59954266D01*
G37*
G36*
X97239770Y-72191907D02*
G01*
X97332953Y-71940718D01*
X97610187Y-71821491D01*
X97887999Y-71940718D01*
X97980603Y-72191907D01*
X97887999Y-72443096D01*
X97610187Y-72562324D01*
X97332953Y-72443096D01*
X97239770Y-72191908D01*
X97536103Y-72191908D01*
X97554624Y-72246313D01*
X97610187Y-72265993D01*
X97666328Y-72246313D01*
X97684271Y-72191908D01*
X97666328Y-72137503D01*
X97610187Y-72117824D01*
X97554624Y-72137503D01*
X97536103Y-72191908D01*
X97239770Y-72191908D01*
X97239770Y-72191907D01*
G37*
G36*
X137126690Y-93979360D02*
G01*
X137102391Y-93983420D01*
X137078654Y-93979360D01*
X136859877Y-93722383D01*
X136859885Y-93722374D01*
X137049139Y-93722374D01*
X137078654Y-93757102D01*
X137126693Y-93757102D01*
X137156208Y-93722374D01*
X137126693Y-93687069D01*
X137078654Y-93687069D01*
X137049139Y-93722374D01*
X136859885Y-93722374D01*
X137078654Y-93464828D01*
X137102391Y-93460768D01*
X137126690Y-93464828D01*
X137345467Y-93722383D01*
X137126693Y-93979357D01*
X137126690Y-93979360D01*
G37*
G36*
X153139627Y-78897028D02*
G01*
X145105637Y-84251863D01*
X144941264Y-84005305D01*
X152975254Y-78650470D01*
X153139627Y-78897028D01*
G37*
G36*
X162116503Y-96436266D02*
G01*
X162092204Y-96440326D01*
X162068468Y-96436266D01*
X161849691Y-96178711D01*
X161849699Y-96178702D01*
X162038953Y-96178702D01*
X162068468Y-96214007D01*
X162116506Y-96214007D01*
X162146021Y-96178702D01*
X162116506Y-96143975D01*
X162068468Y-96143975D01*
X162038953Y-96178702D01*
X161849699Y-96178702D01*
X162068468Y-95921734D01*
X162092204Y-95917674D01*
X162116503Y-95921734D01*
X162335280Y-96178711D01*
X162116506Y-96436262D01*
X162116503Y-96436266D01*
G37*
G36*
X137208300Y-71968498D02*
G01*
X137645854Y-71487535D01*
X137659752Y-71486379D01*
X137673650Y-71487535D01*
X138111207Y-71968498D01*
X137673650Y-72449461D01*
X137659752Y-72450617D01*
X137645854Y-72449461D01*
X137208302Y-71968500D01*
X137504639Y-71968500D01*
X137659752Y-72139239D01*
X137814865Y-71968500D01*
X137659752Y-71797761D01*
X137504639Y-71968500D01*
X137208302Y-71968500D01*
X137208300Y-71968498D01*
G37*
G36*
X142378442Y-71893838D02*
G01*
X139699868Y-82381259D01*
X139412795Y-82307754D01*
X142091370Y-71820333D01*
X142378442Y-71893838D01*
G37*
G36*
X136347093Y-109273503D02*
G01*
X136323357Y-109276970D01*
X136299058Y-109273503D01*
X136080863Y-109015954D01*
X136269543Y-109015954D01*
X136299058Y-109051259D01*
X136347096Y-109051259D01*
X136377192Y-109015954D01*
X136347096Y-108980649D01*
X136299058Y-108980649D01*
X136269543Y-109015954D01*
X136080863Y-109015954D01*
X136080858Y-109015948D01*
X136299058Y-108758393D01*
X136323357Y-108754925D01*
X136347093Y-108758393D01*
X136565870Y-109015948D01*
X136347096Y-109273499D01*
X136347093Y-109273503D01*
G37*
G36*
X107656002Y-77697225D02*
G01*
X107632272Y-77693173D01*
X107413496Y-77435618D01*
X107602175Y-77435618D01*
X107632272Y-77470923D01*
X107679732Y-77470923D01*
X107709828Y-77435618D01*
X107679732Y-77400892D01*
X107632272Y-77400892D01*
X107602175Y-77435618D01*
X107413496Y-77435618D01*
X107413495Y-77435617D01*
X107632272Y-77178641D01*
X107656002Y-77174590D01*
X107679733Y-77178642D01*
X107898510Y-77435619D01*
X107679733Y-77693174D01*
X107679732Y-77693174D01*
X107656002Y-77697225D01*
G37*
G36*
X127039720Y-74876271D02*
G01*
X124251179Y-76995169D01*
X124072335Y-76759029D01*
X126860879Y-74640130D01*
X127039720Y-74876271D01*
G37*
G36*
X121583669Y-100820855D02*
G01*
X121583669Y-100974949D01*
X121551072Y-101051995D01*
X121503659Y-101081629D01*
X121429576Y-101081629D01*
X121394016Y-101057922D01*
X121370309Y-101022362D01*
X121370309Y-100868269D01*
X121402906Y-100791222D01*
X121453282Y-100761589D01*
X121524402Y-100761589D01*
X121583669Y-100820855D01*
G37*
G36*
X149486463Y-78254006D02*
G01*
X149462726Y-78249955D01*
X149243949Y-77992979D01*
X149432631Y-77992979D01*
X149462726Y-78027706D01*
X149510184Y-78027706D01*
X149540283Y-77992979D01*
X149510184Y-77957674D01*
X149462726Y-77957674D01*
X149432631Y-77992979D01*
X149243949Y-77992979D01*
X149462726Y-77735423D01*
X149486463Y-77731373D01*
X149510199Y-77735423D01*
X149728979Y-77992979D01*
X149510199Y-78249955D01*
X149510184Y-78249958D01*
X149486463Y-78254006D01*
G37*
G36*
X139556493Y-82344620D02*
G01*
X139643887Y-82463850D01*
X130943728Y-88823442D01*
X130856333Y-88703634D01*
X130768935Y-88583827D01*
X139469098Y-82224816D01*
X139556493Y-82344620D01*
G37*
G36*
X113674694Y-86844798D02*
G01*
X113650386Y-86840738D01*
X113432187Y-86583761D01*
X113432195Y-86583752D01*
X113620868Y-86583752D01*
X113650386Y-86618479D01*
X113698424Y-86618479D01*
X113728521Y-86583752D01*
X113698424Y-86548447D01*
X113650386Y-86548447D01*
X113620868Y-86583752D01*
X113432195Y-86583752D01*
X113650386Y-86326205D01*
X113674694Y-86322146D01*
X113698425Y-86326205D01*
X113917202Y-86583761D01*
X113698425Y-86840738D01*
X113698424Y-86840738D01*
X113674694Y-86844798D01*
G37*
G36*
X117491715Y-81821014D02*
G01*
X117467415Y-81825074D01*
X117443679Y-81821014D01*
X117224902Y-81563459D01*
X117224910Y-81563450D01*
X117413580Y-81563450D01*
X117443679Y-81598755D01*
X117491717Y-81598755D01*
X117521232Y-81563450D01*
X117491717Y-81528723D01*
X117443679Y-81528723D01*
X117413580Y-81563450D01*
X117224910Y-81563450D01*
X117443679Y-81306482D01*
X117467415Y-81302422D01*
X117491715Y-81306482D01*
X117709911Y-81563459D01*
X117491717Y-81821011D01*
X117491715Y-81821014D01*
G37*
G36*
X103933894Y-112576582D02*
G01*
X103933895Y-112576579D01*
X104230227Y-112576579D01*
X104248748Y-112630986D01*
X104304310Y-112650663D01*
X104360452Y-112630986D01*
X104378395Y-112576579D01*
X104360452Y-112522176D01*
X104304310Y-112502499D01*
X104248748Y-112522176D01*
X104230227Y-112576579D01*
X103933895Y-112576579D01*
X104027077Y-112325395D01*
X104304310Y-112206166D01*
X104582123Y-112325395D01*
X104674727Y-112576582D01*
X104582123Y-112827772D01*
X104304310Y-112946999D01*
X104027077Y-112827772D01*
X103933894Y-112576582D01*
G37*
G36*
X133793458Y-108370039D02*
G01*
X124980437Y-110601221D01*
X124907509Y-110314148D01*
X133720534Y-108082388D01*
X133793458Y-108370039D01*
G37*
G36*
X104825788Y-90600458D02*
G01*
X105122121Y-90600458D01*
X105140642Y-90654862D01*
X105196204Y-90674539D01*
X105252346Y-90654862D01*
X105270289Y-90600458D01*
X105252346Y-90546051D01*
X105196204Y-90526375D01*
X105140642Y-90546051D01*
X105122121Y-90600458D01*
X104825788Y-90600458D01*
X104918971Y-90349268D01*
X105196204Y-90230041D01*
X105474017Y-90349268D01*
X105566621Y-90600458D01*
X105474017Y-90851645D01*
X105196204Y-90970875D01*
X104918971Y-90851645D01*
X104825788Y-90600458D01*
G37*
G36*
X133757072Y-108485790D02*
G01*
X133733335Y-108482323D01*
X133514558Y-108224767D01*
X133703240Y-108224767D01*
X133733335Y-108260073D01*
X133780796Y-108260073D01*
X133810892Y-108224767D01*
X133780796Y-108189462D01*
X133733335Y-108189462D01*
X133703240Y-108224767D01*
X133514558Y-108224767D01*
X133733335Y-107967212D01*
X133757066Y-107963739D01*
X133780808Y-107967212D01*
X133999585Y-108224767D01*
X133780808Y-108482323D01*
X133780796Y-108482324D01*
X133757072Y-108485790D01*
G37*
G36*
X165574690Y-108594609D02*
G01*
X165550390Y-108598669D01*
X165526654Y-108594609D01*
X165307877Y-108337635D01*
X165307882Y-108337629D01*
X165497139Y-108337629D01*
X165526654Y-108372353D01*
X165574692Y-108372353D01*
X165604207Y-108337629D01*
X165574692Y-108302324D01*
X165526654Y-108302324D01*
X165497139Y-108337629D01*
X165307882Y-108337629D01*
X165526654Y-108080080D01*
X165550390Y-108076020D01*
X165574690Y-108080080D01*
X165793467Y-108337635D01*
X165574692Y-108594606D01*
X165574690Y-108594609D01*
G37*
G36*
X195412338Y-86472627D02*
G01*
X195412339Y-86472624D01*
X195708687Y-86472624D01*
X195726615Y-86527031D01*
X195782755Y-86546707D01*
X195838318Y-86527031D01*
X195856838Y-86472624D01*
X195838318Y-86418220D01*
X195782755Y-86398543D01*
X195726615Y-86418220D01*
X195708687Y-86472624D01*
X195412339Y-86472624D01*
X195504943Y-86221440D01*
X195782755Y-86102210D01*
X196059990Y-86221440D01*
X196153172Y-86472627D01*
X196059990Y-86723817D01*
X195782755Y-86843043D01*
X195504943Y-86723817D01*
X195412338Y-86472627D01*
G37*
G36*
X100810818Y-79443393D02*
G01*
X101107150Y-79443393D01*
X101125093Y-79497797D01*
X101181235Y-79517473D01*
X101236797Y-79497797D01*
X101255318Y-79443393D01*
X101236797Y-79388986D01*
X101181235Y-79369309D01*
X101125093Y-79388986D01*
X101107150Y-79443393D01*
X100810818Y-79443393D01*
X100903422Y-79192203D01*
X101181235Y-79072976D01*
X101458468Y-79192203D01*
X101551652Y-79443393D01*
X101458468Y-79694580D01*
X101181235Y-79813809D01*
X100903422Y-79694580D01*
X100810818Y-79443393D01*
G37*
G36*
X162504291Y-70182976D02*
G01*
X162597476Y-69931787D01*
X162874708Y-69812559D01*
X163151942Y-69931787D01*
X163245124Y-70182976D01*
X163151942Y-70434164D01*
X162874708Y-70553392D01*
X162597476Y-70434164D01*
X162504291Y-70182977D01*
X162800610Y-70182977D01*
X162818567Y-70237382D01*
X162874708Y-70257061D01*
X162930851Y-70237382D01*
X162948779Y-70182977D01*
X162930851Y-70128572D01*
X162874708Y-70108892D01*
X162818567Y-70128572D01*
X162800610Y-70182977D01*
X162504291Y-70182977D01*
X162504291Y-70182976D01*
G37*
G36*
X119166113Y-61294133D02*
G01*
X119141814Y-61297606D01*
X119118078Y-61294133D01*
X118899301Y-61036578D01*
X119087982Y-61036578D01*
X119118078Y-61071883D01*
X119166116Y-61071883D01*
X119195631Y-61036578D01*
X119166116Y-61001273D01*
X119118078Y-61001273D01*
X119087982Y-61036578D01*
X118899301Y-61036578D01*
X119118078Y-60779023D01*
X119141814Y-60775550D01*
X119166113Y-60779023D01*
X119384313Y-61036578D01*
X119166116Y-61294130D01*
X119166113Y-61294133D01*
G37*
G36*
X195981115Y-86057529D02*
G01*
X196072978Y-86128649D01*
X196191511Y-86336082D01*
X196191511Y-86587966D01*
X196194475Y-86605746D01*
X196081868Y-86801326D01*
X195992968Y-86869482D01*
X195832102Y-86913932D01*
X195844801Y-86913932D01*
X195817021Y-86918099D01*
X195767755Y-86931712D01*
X195747011Y-86928600D01*
X195817021Y-86918099D01*
X195832102Y-86913932D01*
X195827021Y-86913932D01*
X195933701Y-86869482D01*
X196025565Y-86798362D01*
X196093721Y-86709462D01*
X196138171Y-86602782D01*
X196155951Y-86484249D01*
X196138171Y-86365716D01*
X196138171Y-86602782D01*
X196093721Y-86706499D01*
X195933701Y-86866519D01*
X195827021Y-86910969D01*
X195649221Y-86910969D01*
X195634975Y-86906390D01*
X195498091Y-86833922D01*
X195382521Y-86709462D01*
X195332145Y-86546479D01*
X195332145Y-86368679D01*
X195317328Y-86487212D01*
X195332145Y-86605746D01*
X195376595Y-86709462D01*
X195444751Y-86801326D01*
X195533651Y-86869482D01*
X195579215Y-86888467D01*
X195634975Y-86906390D01*
X195649221Y-86913932D01*
X195747011Y-86928600D01*
X195735158Y-86930378D01*
X195744048Y-86931712D01*
X195726268Y-86931712D01*
X195735158Y-86930378D01*
X195625515Y-86913932D01*
X195640331Y-86913932D01*
X195579215Y-86888467D01*
X195483275Y-86857629D01*
X195358815Y-86745022D01*
X195278805Y-86593892D01*
X195278805Y-86342009D01*
X195400301Y-86131612D01*
X195495128Y-86057529D01*
X195607735Y-86010116D01*
X195874435Y-86010116D01*
X195981115Y-86057529D01*
G37*
G36*
X153081247Y-67763113D02*
G01*
X153057510Y-67766586D01*
X153033211Y-67763113D01*
X152814431Y-67505558D01*
X153003696Y-67505558D01*
X153033211Y-67540863D01*
X153081250Y-67540863D01*
X153110764Y-67505558D01*
X153081250Y-67470252D01*
X153033211Y-67470252D01*
X153003696Y-67505558D01*
X152814431Y-67505558D01*
X153033211Y-67248003D01*
X153057510Y-67244529D01*
X153081247Y-67248003D01*
X153300024Y-67505558D01*
X153081250Y-67763110D01*
X153081247Y-67763113D01*
G37*
G36*
X133979316Y-82716966D02*
G01*
X133955579Y-82712906D01*
X133736803Y-82455351D01*
X133736811Y-82455342D01*
X133925490Y-82455342D01*
X133955585Y-82490648D01*
X134003040Y-82490648D01*
X134033136Y-82455342D01*
X134003040Y-82420615D01*
X133955585Y-82420615D01*
X133925490Y-82455342D01*
X133736811Y-82455342D01*
X133955579Y-82198374D01*
X133979316Y-82194314D01*
X134003052Y-82198374D01*
X134221829Y-82455351D01*
X134003052Y-82712906D01*
X134003040Y-82712909D01*
X133979316Y-82716966D01*
G37*
G36*
X180746740Y-71668693D02*
G01*
X180723003Y-71672744D01*
X180698704Y-71668693D01*
X180480505Y-71411138D01*
X180669189Y-71411138D01*
X180698704Y-71446444D01*
X180746743Y-71446444D01*
X180776838Y-71411138D01*
X180746743Y-71376412D01*
X180698704Y-71376412D01*
X180669189Y-71411138D01*
X180480505Y-71411138D01*
X180698704Y-71154161D01*
X180723003Y-71150110D01*
X180746740Y-71154161D01*
X180965517Y-71411138D01*
X180746743Y-71668690D01*
X180746740Y-71668693D01*
G37*
G36*
X145495211Y-82490656D02*
G01*
X145470912Y-82494716D01*
X145447176Y-82490656D01*
X145228399Y-82233101D01*
X145228407Y-82233092D01*
X145417077Y-82233092D01*
X145447176Y-82268398D01*
X145495214Y-82268398D01*
X145524729Y-82233092D01*
X145495214Y-82198365D01*
X145447176Y-82198365D01*
X145417077Y-82233092D01*
X145228407Y-82233092D01*
X145447176Y-81976124D01*
X145470912Y-81972064D01*
X145495211Y-81976124D01*
X145713407Y-82233101D01*
X145495214Y-82490653D01*
X145495211Y-82490656D01*
G37*
G36*
X111706276Y-91458786D02*
G01*
X111653608Y-91541121D01*
X111613093Y-91604457D01*
X111487456Y-91800863D01*
X111487456Y-91468614D01*
X111613093Y-91468614D01*
X111651871Y-91462243D01*
X111631036Y-91462243D01*
X111613093Y-91468614D01*
X111487456Y-91468614D01*
X111487456Y-91449545D01*
X111470318Y-91443129D01*
X111706276Y-91443129D01*
X111718432Y-91436195D01*
X111714959Y-91436195D01*
X111706276Y-91443129D01*
X111470318Y-91443129D01*
X111459674Y-91439144D01*
X111188229Y-91439144D01*
X111195234Y-91433884D01*
X111722483Y-91433884D01*
X111741004Y-91422890D01*
X111725956Y-91428105D01*
X111722483Y-91433884D01*
X111195234Y-91433884D01*
X111285423Y-91366160D01*
X111802933Y-91366160D01*
X111806984Y-91360381D01*
X111806993Y-91360352D01*
X111805244Y-91361537D01*
X111802933Y-91366160D01*
X111285423Y-91366160D01*
X111346235Y-91320495D01*
X111351444Y-91330926D01*
X111347971Y-91318776D01*
X111348564Y-91318776D01*
X111347408Y-91316998D01*
X111339884Y-91288046D01*
X111143679Y-91288046D01*
X111226421Y-91226130D01*
X111653608Y-91226130D01*
X111660554Y-91224945D01*
X111653608Y-91205269D01*
X111653608Y-91226130D01*
X111226421Y-91226130D01*
X111275169Y-91189652D01*
X111312709Y-91189652D01*
X111313865Y-91206454D01*
X111313865Y-91193712D01*
X111312709Y-91189652D01*
X111275169Y-91189652D01*
X111313839Y-91160715D01*
X111313839Y-91135260D01*
X111314432Y-91160152D01*
X111315024Y-91159559D01*
X111315024Y-91097051D01*
X111319656Y-91069847D01*
X111333545Y-91045548D01*
X111372902Y-90991722D01*
X111382163Y-90981291D01*
X111474767Y-90908366D01*
X111561506Y-90908357D01*
X111647165Y-90908357D01*
X111664527Y-90912417D01*
X111797646Y-90985345D01*
X111803433Y-90991123D01*
X111809220Y-90997494D01*
X111875201Y-91119616D01*
X111878105Y-91130047D01*
X111879853Y-91141041D01*
X111879853Y-91244642D01*
X111881602Y-91222654D01*
X111881602Y-91295579D01*
X111855557Y-91333199D01*
X111802933Y-91382383D01*
X111767004Y-91415964D01*
X111732277Y-91436234D01*
X111720703Y-91436234D01*
X111706276Y-91458786D01*
G37*
G36*
X150959453Y-97437544D02*
G01*
X150935716Y-97441603D01*
X150911417Y-97437544D01*
X150692640Y-97180569D01*
X150692645Y-97180563D01*
X150881902Y-97180563D01*
X150911417Y-97215288D01*
X150959456Y-97215288D01*
X150988970Y-97180563D01*
X150959456Y-97145258D01*
X150911417Y-97145258D01*
X150881902Y-97180563D01*
X150692645Y-97180563D01*
X150911417Y-96923014D01*
X150935716Y-96918954D01*
X150959453Y-96923014D01*
X151178230Y-97180569D01*
X150959456Y-97437540D01*
X150959453Y-97437544D01*
G37*
G36*
X140549002Y-54825733D02*
G01*
X140525266Y-54822260D01*
X140306489Y-54564705D01*
X140306490Y-54564704D01*
X140495170Y-54564704D01*
X140525266Y-54600010D01*
X140572726Y-54600010D01*
X140602822Y-54564704D01*
X140572726Y-54529399D01*
X140525266Y-54529399D01*
X140495170Y-54564704D01*
X140306490Y-54564704D01*
X140525266Y-54307149D01*
X140549002Y-54303676D01*
X140572738Y-54307149D01*
X140791515Y-54564705D01*
X140572738Y-54822260D01*
X140572726Y-54822262D01*
X140549002Y-54825733D01*
G37*
G36*
X124944041Y-110717574D02*
G01*
X124920305Y-110713514D01*
X124701525Y-110455956D01*
X124701533Y-110455947D01*
X124890207Y-110455947D01*
X124920305Y-110491255D01*
X124967763Y-110491255D01*
X124997859Y-110455947D01*
X124967763Y-110421223D01*
X124920305Y-110421223D01*
X124890207Y-110455947D01*
X124701533Y-110455947D01*
X124920305Y-110198982D01*
X124944041Y-110194922D01*
X124967778Y-110198982D01*
X125186555Y-110455956D01*
X124967778Y-110713514D01*
X124967763Y-110713516D01*
X124944041Y-110717574D01*
G37*
G36*
X168229546Y-77139862D02*
G01*
X168205809Y-77135812D01*
X167987032Y-76878835D01*
X168175714Y-76878835D01*
X168205809Y-76913562D01*
X168253267Y-76913562D01*
X168283366Y-76878835D01*
X168253267Y-76843530D01*
X168205809Y-76843530D01*
X168175714Y-76878835D01*
X167987032Y-76878835D01*
X168205809Y-76621280D01*
X168229546Y-76617229D01*
X168253282Y-76621280D01*
X168472062Y-76878835D01*
X168253282Y-77135812D01*
X168253267Y-77135814D01*
X168229546Y-77139862D01*
G37*
G36*
X189722392Y-88034164D02*
G01*
X189722393Y-88034161D01*
X190018725Y-88034161D01*
X190037246Y-88088568D01*
X190092808Y-88108244D01*
X190148952Y-88088568D01*
X190166880Y-88034161D01*
X190148952Y-87979757D01*
X190092808Y-87960081D01*
X190037246Y-87979757D01*
X190018725Y-88034161D01*
X189722393Y-88034161D01*
X189815577Y-87782977D01*
X190092808Y-87663747D01*
X190370621Y-87782977D01*
X190463225Y-88034164D01*
X190370621Y-88285354D01*
X190092808Y-88404581D01*
X189815577Y-88285354D01*
X189722392Y-88034164D01*
G37*
G36*
X103110805Y-89011717D02*
G01*
X102819102Y-89065543D01*
X101035314Y-79470596D01*
X101327017Y-79416189D01*
X103110805Y-89011717D01*
G37*
G36*
X190214862Y-88181753D02*
G01*
X177496259Y-88961364D01*
X177477739Y-88665609D01*
X190196341Y-87885997D01*
X190214862Y-88181753D01*
G37*
G36*
X140080772Y-54566440D02*
G01*
X140173954Y-54314673D01*
X140451188Y-54196024D01*
X140728423Y-54314673D01*
X140821605Y-54566440D01*
X140728423Y-54817630D01*
X140451188Y-54936857D01*
X140173954Y-54817630D01*
X140080772Y-54566441D01*
X140377090Y-54566441D01*
X140395048Y-54620268D01*
X140451188Y-54640525D01*
X140507329Y-54620268D01*
X140525257Y-54566441D01*
X140507329Y-54512037D01*
X140451188Y-54492357D01*
X140395048Y-54512037D01*
X140377090Y-54566441D01*
X140080772Y-54566441D01*
X140080772Y-54566440D01*
G37*
G36*
X111695026Y-91092232D02*
G01*
X111733549Y-91163352D01*
X111733549Y-91249289D01*
X111692062Y-91287812D01*
X111672307Y-91287812D01*
X111650576Y-91305592D01*
X111609089Y-91320409D01*
X111564639Y-91320409D01*
X111526116Y-91305592D01*
X111499446Y-91284849D01*
X111478702Y-91255216D01*
X111469812Y-91222619D01*
X111529079Y-91222619D01*
X111529079Y-91249289D01*
X111546859Y-91272996D01*
X111570566Y-91290776D01*
X111632796Y-91290776D01*
X111635759Y-91288554D01*
X111635759Y-91287812D01*
X111579456Y-91287812D01*
X111549822Y-91258179D01*
X111529079Y-91222619D01*
X111469812Y-91222619D01*
X111460922Y-91190022D01*
X111460922Y-91121866D01*
X111484629Y-91089269D01*
X111526116Y-91056672D01*
X111629832Y-91056672D01*
X111695026Y-91092232D01*
G37*
G36*
X101663286Y-91844827D02*
G01*
X100771392Y-99317983D01*
X100476795Y-99283256D01*
X101368689Y-91809522D01*
X101663286Y-91844827D01*
G37*
G36*
X196261914Y-73006245D02*
G01*
X195147769Y-78026548D01*
X194858382Y-77962304D01*
X195972527Y-72942580D01*
X196261914Y-73006245D01*
G37*
G36*
X190229406Y-88289989D02*
G01*
X190205670Y-88294048D01*
X190181371Y-88289989D01*
X189963172Y-88032433D01*
X189963176Y-88032428D01*
X190151856Y-88032428D01*
X190181371Y-88067733D01*
X190229409Y-88067733D01*
X190259505Y-88032428D01*
X190229409Y-87997703D01*
X190181371Y-87997703D01*
X190151856Y-88032428D01*
X189963176Y-88032428D01*
X190181371Y-87775459D01*
X190205670Y-87771399D01*
X190229406Y-87775459D01*
X190448183Y-88032433D01*
X190229409Y-88289985D01*
X190229406Y-88289989D01*
G37*
G36*
X110693419Y-80560430D02*
G01*
X110782551Y-80560430D01*
X110808595Y-80628148D01*
X110886152Y-80664031D01*
X110963707Y-80628148D01*
X110989752Y-80560430D01*
X110963707Y-80492712D01*
X110886152Y-80456829D01*
X110808595Y-80492712D01*
X110782551Y-80560430D01*
X110693419Y-80560430D01*
X110742036Y-80431362D01*
X110886152Y-80367698D01*
X111030267Y-80431362D01*
X111078884Y-80560430D01*
X111030267Y-80689498D01*
X110886152Y-80753162D01*
X110742036Y-80689498D01*
X110693419Y-80560430D01*
G37*
G36*
X120392554Y-100338952D02*
G01*
X120368818Y-100343012D01*
X120344518Y-100338952D01*
X120126319Y-100081397D01*
X120126327Y-100081388D01*
X120315004Y-100081388D01*
X120344518Y-100116693D01*
X120392557Y-100116693D01*
X120422653Y-100081388D01*
X120392557Y-100046661D01*
X120344518Y-100046661D01*
X120315004Y-100081388D01*
X120126327Y-100081388D01*
X120344518Y-99824420D01*
X120368818Y-99820360D01*
X120392554Y-99824420D01*
X120611331Y-100081397D01*
X120392557Y-100338949D01*
X120392554Y-100338952D01*
G37*
G36*
X131771870Y-81263653D02*
G01*
X131748133Y-81267713D01*
X131723834Y-81263653D01*
X131505057Y-81006675D01*
X131505064Y-81006667D01*
X131694319Y-81006667D01*
X131723834Y-81041394D01*
X131771872Y-81041394D01*
X131801387Y-81006667D01*
X131771872Y-80971361D01*
X131723834Y-80971361D01*
X131694319Y-81006667D01*
X131505064Y-81006667D01*
X131723834Y-80749120D01*
X131748133Y-80745061D01*
X131771870Y-80749120D01*
X131990647Y-81006675D01*
X131771872Y-81263649D01*
X131771870Y-81263653D01*
G37*
G36*
X94673477Y-111014467D02*
G01*
X94766660Y-110763277D01*
X95043894Y-110644050D01*
X95321706Y-110763277D01*
X95414310Y-111014467D01*
X95321706Y-111266235D01*
X95043894Y-111384884D01*
X94766660Y-111266235D01*
X94673481Y-111014479D01*
X94969810Y-111014479D01*
X94988331Y-111068883D01*
X95043894Y-111088559D01*
X95100035Y-111068883D01*
X95117978Y-111014479D01*
X95100035Y-110960653D01*
X95043894Y-110940384D01*
X94988331Y-110960653D01*
X94969810Y-111014479D01*
X94673481Y-111014479D01*
X94673477Y-111014467D01*
G37*
G36*
X107404119Y-78821069D02*
G01*
X107427826Y-78856629D01*
X107427826Y-78995906D01*
X107442642Y-79010722D01*
X107359669Y-79120366D01*
X107273732Y-79120366D01*
X107214466Y-79061099D01*
X107214466Y-78907006D01*
X107247062Y-78826996D01*
X107294476Y-78800326D01*
X107368559Y-78800326D01*
X107404119Y-78821069D01*
G37*
G36*
X162596202Y-64608922D02*
G01*
X162640652Y-64644482D01*
X162679175Y-64694859D01*
X162702882Y-64754126D01*
X162702882Y-64881549D01*
X162643615Y-64979339D01*
X162599165Y-65014899D01*
X162528460Y-65033505D01*
X162492485Y-65047496D01*
X162403585Y-65047496D01*
X162385146Y-65041569D01*
X162497818Y-65041569D01*
X162504338Y-65041569D01*
X162513802Y-65037362D01*
X162497818Y-65041569D01*
X162385146Y-65041569D01*
X162320612Y-65020826D01*
X162258382Y-64964522D01*
X162216895Y-64887476D01*
X162216895Y-64857842D01*
X162270235Y-64857842D01*
X162270235Y-64887476D01*
X162290978Y-64940816D01*
X162326538Y-64985266D01*
X162370988Y-65017862D01*
X162413048Y-65036556D01*
X162384233Y-65020420D01*
X162551922Y-65020420D01*
X162557678Y-65017862D01*
X162602128Y-64982302D01*
X162637688Y-64937852D01*
X162661395Y-64884512D01*
X162661395Y-64765979D01*
X162646578Y-64774869D01*
X162646578Y-64893402D01*
X162622872Y-64946742D01*
X162551922Y-65020420D01*
X162384233Y-65020420D01*
X162353208Y-65003046D01*
X162296905Y-64940816D01*
X162270235Y-64857842D01*
X162216895Y-64857842D01*
X162216895Y-64757089D01*
X162282088Y-64647446D01*
X162329502Y-64608922D01*
X162394695Y-64582252D01*
X162531008Y-64582252D01*
X162596202Y-64608922D01*
G37*
G36*
X111475924Y-78773748D02*
G01*
X111564478Y-78773748D01*
X111591101Y-78841466D01*
X111668078Y-78877349D01*
X111745634Y-78841466D01*
X111772256Y-78773748D01*
X111745634Y-78706032D01*
X111668078Y-78670146D01*
X111591101Y-78706032D01*
X111564478Y-78773748D01*
X111475924Y-78773748D01*
X111524541Y-78644683D01*
X111668078Y-78581015D01*
X111812193Y-78644683D01*
X111860810Y-78773748D01*
X111812193Y-78902816D01*
X111668078Y-78966480D01*
X111524541Y-78902816D01*
X111475924Y-78773748D01*
G37*
G36*
X141783524Y-71858530D02*
G01*
X142221078Y-71377567D01*
X142234976Y-71376412D01*
X142248874Y-71377567D01*
X142686428Y-71858530D01*
X142248874Y-72339493D01*
X142234976Y-72340649D01*
X142221078Y-72339493D01*
X141783526Y-71858532D01*
X142079866Y-71858532D01*
X142234976Y-72029271D01*
X142390088Y-71858532D01*
X142234976Y-71687793D01*
X142079866Y-71858532D01*
X141783526Y-71858532D01*
X141783524Y-71858530D01*
G37*
G36*
X157693106Y-80761412D02*
G01*
X157577927Y-80823343D01*
X157443653Y-80823343D01*
X157440689Y-80822750D01*
X157437726Y-80821565D01*
X157312709Y-80746323D01*
X157307968Y-80741582D01*
X157267453Y-80687175D01*
X157263393Y-80681396D01*
X157260430Y-80675025D01*
X157253332Y-80655346D01*
X157705659Y-80655346D01*
X157714341Y-80644352D01*
X157709126Y-80648974D01*
X157705659Y-80655346D01*
X157253332Y-80655346D01*
X157232663Y-80598047D01*
X157229196Y-80582430D01*
X157229196Y-80522236D01*
X157230382Y-80536697D01*
X157230382Y-80463191D01*
X157231567Y-80452197D01*
X157233938Y-80441766D01*
X157275030Y-80352635D01*
X157279090Y-80346857D01*
X157309766Y-80312707D01*
X157303988Y-80284941D01*
X157356655Y-80284941D01*
X157445208Y-80238639D01*
X157461418Y-80234579D01*
X157566175Y-80234579D01*
X157585537Y-80239966D01*
X157703608Y-80309418D01*
X157707075Y-80312885D01*
X157751063Y-80363819D01*
X157759153Y-80399124D01*
X157759153Y-80458737D01*
X157768991Y-80474947D01*
X157768991Y-80542662D01*
X157766028Y-80513710D01*
X157766028Y-80616730D01*
X157761968Y-80543228D01*
X157761968Y-80674029D01*
X157756189Y-80691958D01*
X157746351Y-80708167D01*
X157705659Y-80748860D01*
X157693106Y-80761412D01*
G37*
G36*
X144934972Y-53930365D02*
G01*
X144911236Y-53933838D01*
X144886937Y-53930365D01*
X144668738Y-53672810D01*
X144857422Y-53672810D01*
X144886937Y-53708116D01*
X144934975Y-53708116D01*
X144965071Y-53672810D01*
X144934975Y-53637505D01*
X144886937Y-53637505D01*
X144857422Y-53672810D01*
X144668738Y-53672810D01*
X144886937Y-53415255D01*
X144911236Y-53411204D01*
X144934972Y-53415255D01*
X145153749Y-53672810D01*
X144934975Y-53930362D01*
X144934972Y-53930365D01*
G37*
G36*
X105281215Y-90478914D02*
G01*
X105111633Y-90721421D01*
X102879873Y-89159884D01*
X103050033Y-88917377D01*
X105281215Y-90478914D01*
G37*
G36*
X100623873Y-99563400D02*
G01*
X100600143Y-99559341D01*
X100381366Y-99302363D01*
X100381373Y-99302355D01*
X100570047Y-99302355D01*
X100600143Y-99337082D01*
X100648181Y-99337082D01*
X100677699Y-99302355D01*
X100648181Y-99267049D01*
X100600143Y-99267049D01*
X100570047Y-99302355D01*
X100381373Y-99302355D01*
X100600143Y-99044808D01*
X100623873Y-99040749D01*
X100648182Y-99044808D01*
X100866381Y-99302363D01*
X100648182Y-99559341D01*
X100648181Y-99559341D01*
X100623873Y-99563400D01*
G37*
G36*
X127258452Y-74219012D02*
G01*
X127332535Y-74266426D01*
X127376985Y-74337546D01*
X127397729Y-74423482D01*
X127397729Y-74536089D01*
X127365132Y-74645732D01*
X127332535Y-74693146D01*
X127234745Y-74749449D01*
X127175479Y-74749449D01*
X127089542Y-74728706D01*
X127018422Y-74684256D01*
X126971009Y-74610172D01*
X126953229Y-74527199D01*
X126953229Y-74414592D01*
X126982862Y-74301986D01*
X127018422Y-74257536D01*
X127116212Y-74201232D01*
X127175479Y-74201232D01*
X127258452Y-74219012D01*
G37*
G36*
X180637336Y-64304927D02*
G01*
X180613037Y-64308400D01*
X180589301Y-64304927D01*
X180370524Y-64047371D01*
X180559786Y-64047371D01*
X180589301Y-64082676D01*
X180637339Y-64082676D01*
X180666854Y-64047371D01*
X180637339Y-64012065D01*
X180589301Y-64012065D01*
X180559786Y-64047371D01*
X180370524Y-64047371D01*
X180589301Y-63789816D01*
X180613037Y-63786343D01*
X180637336Y-63789816D01*
X180856113Y-64047371D01*
X180637339Y-64304923D01*
X180637336Y-64304927D01*
G37*
G36*
X137779488Y-71882841D02*
G01*
X137539876Y-72057052D01*
X133972302Y-67146716D01*
X134211914Y-66972505D01*
X137779488Y-71882841D01*
G37*
G36*
X145162936Y-85070253D02*
G01*
X140143209Y-99128143D01*
X139864241Y-99028593D01*
X144883964Y-84970703D01*
X145162936Y-85070253D01*
G37*
G36*
X170298598Y-63245187D02*
G01*
X170172426Y-63513161D01*
X164708202Y-60946867D01*
X164834375Y-60678894D01*
X170298598Y-63245187D01*
G37*
G36*
X140131172Y-98773192D02*
G01*
X140308972Y-98950992D01*
X140338605Y-99078415D01*
X140338605Y-99191022D01*
X140291192Y-99356969D01*
X140240815Y-99425125D01*
X140092649Y-99511062D01*
X140003749Y-99511062D01*
X139876325Y-99481429D01*
X139698525Y-99306592D01*
X139671855Y-99179169D01*
X139671855Y-99066562D01*
X139716305Y-98897652D01*
X139766682Y-98829495D01*
X139914849Y-98743559D01*
X140003749Y-98743559D01*
X140131172Y-98773192D01*
G37*
G36*
X133273788Y-108113642D02*
G01*
X133570121Y-108113642D01*
X133588642Y-108168046D01*
X133644204Y-108187723D01*
X133700345Y-108168046D01*
X133718302Y-108113642D01*
X133700345Y-108059236D01*
X133644204Y-108039559D01*
X133588642Y-108059236D01*
X133570121Y-108113642D01*
X133273788Y-108113642D01*
X133366970Y-107862452D01*
X133644204Y-107743226D01*
X133922017Y-107862452D01*
X134014621Y-108113642D01*
X133922017Y-108364829D01*
X133644204Y-108484059D01*
X133366970Y-108364829D01*
X133273788Y-108113642D01*
G37*
G36*
X186323825Y-103574888D02*
G01*
X186300089Y-103578948D01*
X186275789Y-103574888D01*
X186057593Y-103317333D01*
X186057601Y-103317324D01*
X186246274Y-103317324D01*
X186275789Y-103352630D01*
X186323828Y-103352630D01*
X186353926Y-103317324D01*
X186323828Y-103282597D01*
X186275789Y-103282597D01*
X186246274Y-103317324D01*
X186057601Y-103317324D01*
X186275789Y-103060356D01*
X186300089Y-103056296D01*
X186323825Y-103060356D01*
X186542602Y-103317333D01*
X186323828Y-103574885D01*
X186323825Y-103574888D01*
G37*
G36*
X135952940Y-109008430D02*
G01*
X135952941Y-109008427D01*
X136249259Y-109008427D01*
X136267217Y-109062831D01*
X136323357Y-109082507D01*
X136379500Y-109062831D01*
X136397428Y-109008427D01*
X136379500Y-108954023D01*
X136323357Y-108934346D01*
X136267217Y-108954023D01*
X136249259Y-109008427D01*
X135952941Y-109008427D01*
X136046125Y-108757240D01*
X136323357Y-108638013D01*
X136600592Y-108757240D01*
X136693774Y-109008430D01*
X136600592Y-109259620D01*
X136323357Y-109378846D01*
X136046125Y-109259620D01*
X135952940Y-109008430D01*
G37*
G36*
X120809261Y-77992978D02*
G01*
X121246815Y-77512015D01*
X121260713Y-77510859D01*
X121274611Y-77512015D01*
X121712165Y-77992978D01*
X121274611Y-78473938D01*
X121260713Y-78475124D01*
X121246815Y-78473938D01*
X120809262Y-77992979D01*
X121105600Y-77992979D01*
X121260713Y-78163718D01*
X121415823Y-77992979D01*
X121260713Y-77822240D01*
X121105600Y-77992979D01*
X120809262Y-77992979D01*
X120809261Y-77992978D01*
G37*
G36*
X146387106Y-77245780D02*
G01*
X146362807Y-77249253D01*
X146339071Y-77245780D01*
X146120294Y-76988225D01*
X146120295Y-76988224D01*
X146309556Y-76988224D01*
X146339071Y-77023529D01*
X146387109Y-77023529D01*
X146416624Y-76988224D01*
X146387109Y-76952919D01*
X146339071Y-76952919D01*
X146309556Y-76988224D01*
X146120295Y-76988224D01*
X146339071Y-76730669D01*
X146362807Y-76727196D01*
X146387106Y-76730669D01*
X146605883Y-76988225D01*
X146387109Y-77245776D01*
X146387106Y-77245780D01*
G37*
G36*
X103096335Y-89107217D02*
G01*
X101647659Y-91895180D01*
X101384316Y-91758588D01*
X102833571Y-88970047D01*
X103096335Y-89107217D01*
G37*
G36*
X130966136Y-88604837D02*
G01*
X130745623Y-88802779D01*
X121150095Y-78093107D01*
X121371189Y-77895166D01*
X130966136Y-88604837D01*
G37*
G36*
X169804901Y-65907557D02*
G01*
X169777698Y-66202733D01*
X162526214Y-65535983D01*
X162553417Y-65240807D01*
X169804901Y-65907557D01*
G37*
G36*
X106648353Y-85730650D02*
G01*
X106624623Y-85726590D01*
X106405846Y-85469035D01*
X106405851Y-85469029D01*
X106594527Y-85469029D01*
X106624623Y-85504334D01*
X106672661Y-85504334D01*
X106702179Y-85469029D01*
X106672661Y-85434304D01*
X106624623Y-85434304D01*
X106594527Y-85469029D01*
X106405851Y-85469029D01*
X106624623Y-85212060D01*
X106648353Y-85208001D01*
X106672661Y-85212060D01*
X106890860Y-85469035D01*
X106672661Y-85726590D01*
X106648353Y-85730650D01*
G37*
G36*
X141327965Y-68958286D02*
G01*
X137757495Y-72081361D01*
X137562448Y-71858532D01*
X141132918Y-68734878D01*
X141327965Y-68958286D01*
G37*
G36*
X105878002Y-87292187D02*
G01*
X105854272Y-87288127D01*
X105635495Y-87031153D01*
X105635500Y-87031147D01*
X105824176Y-87031147D01*
X105854272Y-87065871D01*
X105901732Y-87065871D01*
X105931828Y-87031147D01*
X105901732Y-86995842D01*
X105854272Y-86995842D01*
X105824176Y-87031147D01*
X105635500Y-87031147D01*
X105854272Y-86773598D01*
X105878002Y-86769538D01*
X105901733Y-86773598D01*
X106120510Y-87031153D01*
X105901733Y-87288127D01*
X105901732Y-87288127D01*
X105878002Y-87292187D01*
G37*
G36*
X144490472Y-80037209D02*
G01*
X144466736Y-80040676D01*
X144442437Y-80037209D01*
X144224243Y-79779660D01*
X144412922Y-79779660D01*
X144442437Y-79814965D01*
X144490475Y-79814965D01*
X144520571Y-79779660D01*
X144490475Y-79744355D01*
X144442437Y-79744355D01*
X144412922Y-79779660D01*
X144224243Y-79779660D01*
X144224238Y-79779654D01*
X144442437Y-79522099D01*
X144466736Y-79518632D01*
X144490472Y-79522099D01*
X144709249Y-79779654D01*
X144490475Y-80037206D01*
X144490472Y-80037209D01*
G37*
G36*
X177934462Y-83051470D02*
G01*
X177910726Y-83048003D01*
X177691954Y-82790454D01*
X177880630Y-82790454D01*
X177910726Y-82825759D01*
X177958184Y-82825759D01*
X177988282Y-82790454D01*
X177958184Y-82755149D01*
X177910726Y-82755149D01*
X177880630Y-82790454D01*
X177691954Y-82790454D01*
X177691949Y-82790448D01*
X177910726Y-82532893D01*
X177934462Y-82529426D01*
X177958199Y-82532893D01*
X178176979Y-82790448D01*
X177958199Y-83048003D01*
X177958184Y-83048005D01*
X177934462Y-83051470D01*
G37*
G36*
X136403737Y-109132866D02*
G01*
X127478432Y-114932201D01*
X127316954Y-114683329D01*
X136242840Y-108884571D01*
X136403737Y-109132866D01*
G37*
G36*
X109715448Y-53767870D02*
G01*
X110612948Y-53901002D01*
X111493077Y-54121463D01*
X112347359Y-54427130D01*
X113167567Y-54815059D01*
X113945801Y-55281515D01*
X114674567Y-55822005D01*
X115346847Y-56431324D01*
X115956166Y-57103604D01*
X116496656Y-57832370D01*
X116963112Y-58610604D01*
X117351041Y-59430812D01*
X117656708Y-60285094D01*
X117877169Y-61165223D01*
X118010301Y-62062723D01*
X118054821Y-62968950D01*
X118010301Y-63875177D01*
X117877169Y-64772677D01*
X117656708Y-65652806D01*
X117351041Y-66507088D01*
X116963112Y-67327296D01*
X116496656Y-68105530D01*
X115956166Y-68834296D01*
X115346847Y-69506576D01*
X114674567Y-70115895D01*
X113945801Y-70656385D01*
X113167567Y-71122841D01*
X112347359Y-71510770D01*
X111493077Y-71816437D01*
X110612948Y-72036898D01*
X109715448Y-72170030D01*
X108809221Y-72214550D01*
X107902994Y-72170030D01*
X107005494Y-72036898D01*
X106125365Y-71816437D01*
X105271083Y-71510770D01*
X104450875Y-71122841D01*
X103672641Y-70656385D01*
X102943875Y-70115895D01*
X102271595Y-69506576D01*
X101662276Y-68834296D01*
X101121786Y-68105530D01*
X100655330Y-67327296D01*
X100267401Y-66507088D01*
X99961734Y-65652806D01*
X99741273Y-64772677D01*
X99608141Y-63875177D01*
X99563621Y-62968950D01*
X99608141Y-62062723D01*
X99741273Y-61165223D01*
X99961734Y-60285094D01*
X100267401Y-59430812D01*
X100655330Y-58610604D01*
X101121786Y-57832370D01*
X101662276Y-57103604D01*
X102271595Y-56431324D01*
X102943875Y-55822005D01*
X103672641Y-55281515D01*
X104450875Y-54815059D01*
X105271083Y-54427130D01*
X106125365Y-54121463D01*
X107005494Y-53901002D01*
X107902994Y-53767870D01*
X108809221Y-53723350D01*
X109715448Y-53767870D01*
G37*
G36*
X132998858Y-84496694D02*
G01*
X132974559Y-84500754D01*
X132950823Y-84496694D01*
X132732046Y-84239720D01*
X132732054Y-84239711D01*
X132920727Y-84239711D01*
X132950823Y-84274435D01*
X132998861Y-84274435D01*
X133028376Y-84239711D01*
X132998861Y-84204403D01*
X132950823Y-84204403D01*
X132920727Y-84239711D01*
X132732054Y-84239711D01*
X132950823Y-83982161D01*
X132974559Y-83978102D01*
X132998858Y-83982161D01*
X133217058Y-84239720D01*
X132998861Y-84496690D01*
X132998858Y-84496694D01*
G37*
G36*
X186933851Y-83458940D02*
G01*
X186933852Y-83458937D01*
X187230184Y-83458937D01*
X187248705Y-83512763D01*
X187304267Y-83533033D01*
X187360408Y-83512763D01*
X187378336Y-83458937D01*
X187360408Y-83404534D01*
X187304267Y-83384857D01*
X187248705Y-83404534D01*
X187230184Y-83458937D01*
X186933852Y-83458937D01*
X187027033Y-83207173D01*
X187304267Y-83088524D01*
X187582080Y-83207173D01*
X187674684Y-83458940D01*
X187582080Y-83710130D01*
X187304267Y-83829357D01*
X187027033Y-83710130D01*
X186933851Y-83458940D01*
G37*
G36*
X130404205Y-88702117D02*
G01*
X130404245Y-88702073D01*
X130700547Y-88702073D01*
X130855660Y-88872811D01*
X131011351Y-88702073D01*
X130855660Y-88531912D01*
X130700547Y-88702073D01*
X130404245Y-88702073D01*
X130841762Y-88221731D01*
X130855660Y-88219953D01*
X130870121Y-88221731D01*
X131307675Y-88702117D01*
X130870121Y-89183081D01*
X130855660Y-89184859D01*
X130841762Y-89183081D01*
X130404205Y-88702117D01*
G37*
G36*
X164400940Y-60813170D02*
G01*
X164494125Y-60561403D01*
X164771357Y-60442754D01*
X165048591Y-60561403D01*
X165141773Y-60813170D01*
X165048591Y-61064359D01*
X164771357Y-61183587D01*
X164494125Y-61064359D01*
X164400940Y-60813171D01*
X164697288Y-60813171D01*
X164715216Y-60866997D01*
X164771357Y-60887255D01*
X164827500Y-60866997D01*
X164845428Y-60813171D01*
X164827500Y-60758766D01*
X164771357Y-60739087D01*
X164715216Y-60758766D01*
X164697288Y-60813171D01*
X164400940Y-60813171D01*
X164400940Y-60813170D01*
G37*
G36*
X121450544Y-100616702D02*
G01*
X121557040Y-100616702D01*
X121569190Y-100619666D01*
X121581340Y-100624881D01*
X121720246Y-100764368D01*
X121725461Y-100775955D01*
X121728425Y-100788697D01*
X121728425Y-100894613D01*
X121731892Y-100862200D01*
X121731892Y-100975061D01*
X121654335Y-101157377D01*
X121549579Y-101222778D01*
X121526998Y-101229712D01*
X121474331Y-101229712D01*
X121529893Y-101219282D01*
X121382304Y-101219282D01*
X121289122Y-101157354D01*
X121228350Y-101065327D01*
X121225980Y-101054897D01*
X121225980Y-100948400D01*
X121221920Y-100980813D01*
X121221920Y-100868530D01*
X121299476Y-100686213D01*
X121414652Y-100618498D01*
X121433766Y-100613283D01*
X121482957Y-100613235D01*
X121450544Y-100616702D01*
G37*
G36*
X170259882Y-63638177D02*
G01*
X170235583Y-63641650D01*
X170211847Y-63638177D01*
X169993070Y-63380621D01*
X170181751Y-63380621D01*
X170211847Y-63415926D01*
X170259885Y-63415926D01*
X170289400Y-63380621D01*
X170259885Y-63345315D01*
X170211847Y-63345315D01*
X170181751Y-63380621D01*
X169993070Y-63380621D01*
X170211847Y-63123066D01*
X170235583Y-63119593D01*
X170259882Y-63123066D01*
X170478082Y-63380621D01*
X170259885Y-63638173D01*
X170259882Y-63638177D01*
G37*
G36*
X162395024Y-65189318D02*
G01*
X162373036Y-65189318D01*
X162249758Y-65149961D01*
X162142106Y-65052727D01*
X162074388Y-64926554D01*
X162071425Y-64917293D01*
X162070240Y-64907455D01*
X162070240Y-64799803D01*
X162069054Y-64829899D01*
X162069054Y-64763881D01*
X162378142Y-64763881D01*
X162418657Y-64769091D01*
X162418657Y-64855907D01*
X162425591Y-64866326D01*
X162430214Y-64876164D01*
X162442363Y-64883688D01*
X162449890Y-64890634D01*
X162456261Y-64893539D01*
X162473034Y-64893539D01*
X162477094Y-64891790D01*
X162492710Y-64875006D01*
X162504860Y-64847802D01*
X162504860Y-64818285D01*
X162477657Y-64730311D01*
X162472441Y-64730311D01*
X162462040Y-64730903D01*
X162452202Y-64729748D01*
X162420369Y-64729748D01*
X162420399Y-64729732D01*
X162411153Y-64733205D01*
X162382202Y-64756935D01*
X162378142Y-64763881D01*
X162069054Y-64763881D01*
X162069054Y-64746555D01*
X162070240Y-64732666D01*
X162073707Y-64719355D01*
X162180781Y-64539356D01*
X162184248Y-64535883D01*
X162243861Y-64487844D01*
X162251951Y-64482635D01*
X162361918Y-64438069D01*
X162372912Y-64435165D01*
X162383906Y-64434572D01*
X162384030Y-64434539D01*
X162540301Y-64434539D01*
X162552451Y-64435131D01*
X162564038Y-64438035D01*
X162674004Y-64482601D01*
X162681531Y-64487233D01*
X162741144Y-64535271D01*
X162747515Y-64541636D01*
X162809443Y-64504016D01*
X162809443Y-64624980D01*
X162846485Y-64717584D01*
X162849952Y-64730318D01*
X162850545Y-64743051D01*
X162850545Y-64830446D01*
X162851137Y-64819450D01*
X162851137Y-64901057D01*
X162845922Y-64920155D01*
X162744635Y-65088001D01*
X162740575Y-65091474D01*
X162684435Y-65136618D01*
X162675752Y-65141828D01*
X162615558Y-65157454D01*
X162612091Y-65159765D01*
X162541481Y-65187546D01*
X162536265Y-65189295D01*
X162535673Y-65189887D01*
X162493421Y-65189887D01*
X162482428Y-65192791D01*
X162406611Y-65192791D01*
X162395024Y-65189318D01*
G37*
G36*
X187328567Y-69436933D02*
G01*
X187304267Y-69440984D01*
X187280531Y-69436933D01*
X187061755Y-69179957D01*
X187250435Y-69179957D01*
X187280531Y-69214683D01*
X187328570Y-69214683D01*
X187358084Y-69179957D01*
X187328570Y-69144651D01*
X187280531Y-69144651D01*
X187250435Y-69179957D01*
X187061755Y-69179957D01*
X187061754Y-69179956D01*
X187280531Y-68922401D01*
X187304267Y-68918350D01*
X187328567Y-68922401D01*
X187546766Y-69179956D01*
X187328570Y-69436929D01*
X187328567Y-69436933D01*
G37*
G36*
X101850879Y-93204378D02*
G01*
X101827148Y-93200318D01*
X101608374Y-92942766D01*
X101797052Y-92942766D01*
X101827148Y-92978071D01*
X101874608Y-92978071D01*
X101904704Y-92942766D01*
X101874608Y-92907458D01*
X101827148Y-92907458D01*
X101797052Y-92942766D01*
X101608374Y-92942766D01*
X101608371Y-92942763D01*
X101827148Y-92685205D01*
X101850879Y-92681738D01*
X101874609Y-92685205D01*
X102093387Y-92942763D01*
X101874609Y-93200318D01*
X101874608Y-93200318D01*
X101850879Y-93204378D01*
G37*
G36*
X102594606Y-89050496D02*
G01*
X102594607Y-89050493D01*
X102890938Y-89050493D01*
X102908881Y-89104896D01*
X102965023Y-89124573D01*
X103021164Y-89104896D01*
X103039107Y-89050493D01*
X103021164Y-88996089D01*
X102965023Y-88976412D01*
X102908881Y-88996089D01*
X102890938Y-89050493D01*
X102594607Y-89050493D01*
X102687789Y-88799306D01*
X102965023Y-88680079D01*
X103242256Y-88799306D01*
X103335439Y-89050496D01*
X103242256Y-89301685D01*
X102965023Y-89420912D01*
X102687789Y-89301685D01*
X102594606Y-89050496D01*
G37*
G36*
X141589633Y-74457237D02*
G01*
X141565333Y-74461288D01*
X141541597Y-74457237D01*
X141322820Y-74199682D01*
X141322821Y-74199681D01*
X141511502Y-74199681D01*
X141541597Y-74234987D01*
X141589636Y-74234987D01*
X141619151Y-74199681D01*
X141589636Y-74164376D01*
X141541597Y-74164376D01*
X141511502Y-74199681D01*
X141322821Y-74199681D01*
X141541597Y-73942126D01*
X141565333Y-73938653D01*
X141589633Y-73942126D01*
X141807832Y-74199682D01*
X141589636Y-74457233D01*
X141589633Y-74457237D01*
G37*
G36*
X101314284Y-79377992D02*
G01*
X101048047Y-79508793D01*
X97477577Y-72257309D01*
X97743236Y-72126506D01*
X101314284Y-79377992D01*
G37*
G36*
X110323002Y-78589126D02*
G01*
X110299272Y-78585066D01*
X110080495Y-78327511D01*
X110269175Y-78327511D01*
X110299272Y-78362816D01*
X110346732Y-78362816D01*
X110376828Y-78327511D01*
X110346732Y-78292785D01*
X110299272Y-78292785D01*
X110269175Y-78327511D01*
X110080495Y-78327511D01*
X110299272Y-78070535D01*
X110323002Y-78066484D01*
X110346733Y-78070535D01*
X110565510Y-78327511D01*
X110346733Y-78585066D01*
X110346732Y-78585066D01*
X110323002Y-78589126D01*
G37*
G36*
X140264753Y-103537260D02*
G01*
X139968420Y-103544787D01*
X139855558Y-99194706D01*
X140151892Y-99187179D01*
X140264753Y-103537260D01*
G37*
G36*
X163129880Y-70045806D02*
G01*
X162838757Y-70100789D01*
X161946861Y-65416176D01*
X162237985Y-65360614D01*
X163129880Y-70045806D01*
G37*
G36*
X169815382Y-66305177D02*
G01*
X169791083Y-66308650D01*
X169767347Y-66305177D01*
X169548570Y-66047621D01*
X169737251Y-66047621D01*
X169767347Y-66082926D01*
X169815385Y-66082926D01*
X169844900Y-66047621D01*
X169815385Y-66012315D01*
X169767347Y-66012315D01*
X169737251Y-66047621D01*
X169548570Y-66047621D01*
X169767347Y-65790066D01*
X169791083Y-65786593D01*
X169815382Y-65790066D01*
X170033582Y-66047621D01*
X169815385Y-66305173D01*
X169815382Y-66305177D01*
G37*
G36*
X110441652Y-84948149D02*
G01*
X110417343Y-84944089D01*
X110199145Y-84687112D01*
X110199153Y-84687103D01*
X110387826Y-84687103D01*
X110417343Y-84721830D01*
X110465382Y-84721830D01*
X110495478Y-84687103D01*
X110465382Y-84651798D01*
X110417343Y-84651798D01*
X110387826Y-84687103D01*
X110199153Y-84687103D01*
X110417343Y-84429557D01*
X110441652Y-84425497D01*
X110465382Y-84429557D01*
X110684159Y-84687112D01*
X110465382Y-84944089D01*
X110441652Y-84948149D01*
G37*
G36*
X195929117Y-86451214D02*
G01*
X195635679Y-86493462D01*
X194856645Y-81139205D01*
X195150083Y-81096376D01*
X195929117Y-86451214D01*
G37*
D12*
%TO.C,J2*%
X132441280Y-59323952D02*
X132441280Y-54123952D01*
X127301280Y-56723952D02*
X127301280Y-54123952D01*
X124701280Y-55453952D02*
X124701280Y-54123952D01*
X124701280Y-56723952D02*
X127301280Y-56723952D01*
X124701280Y-54123952D02*
X126031280Y-54123952D01*
X124701280Y-59323952D02*
X124701280Y-56723952D01*
X127301280Y-54123952D02*
X132441280Y-54123952D01*
X124701280Y-59323952D02*
X132441280Y-59323952D01*
%TO.C,J3*%
X177284007Y-63697788D02*
X179884007Y-63697788D01*
X179884007Y-61097788D02*
X185024007Y-61097788D01*
X179884007Y-63697788D02*
X179884007Y-61097788D01*
X185024007Y-66297788D02*
X185024007Y-61097788D01*
X177284007Y-66297788D02*
X185024007Y-66297788D01*
X177284007Y-61097788D02*
X178614007Y-61097788D01*
X177284007Y-66297788D02*
X177284007Y-63697788D01*
X177284007Y-62427788D02*
X177284007Y-61097788D01*
%TD*%
M02*
