M48
; DRILL file {KiCad (6.0.4-0)} date Thursday, May 26, 2022 at 05:50:37 PM
; FORMAT={-:-/ absolute / inch / decimal}
; #@! TF.CreationDate,2022-05-26T17:50:37-04:00
; #@! TF.GenerationSoftware,Kicad,Pcbnew,(6.0.4-0)
; #@! TF.FileFunction,Plated,1,2,PTH
FMAT,2
INCH
; #@! TA.AperFunction,Plated,PTH,ViaDrill
T1C0.0157
; #@! TA.AperFunction,Plated,PTH,ComponentDrill
T2C0.0354
; #@! TA.AperFunction,Plated,PTH,ComponentDrill
T3C0.0394
; #@! TA.AperFunction,Plated,PTH,ComponentDrill
T4C0.0402
%
G90
G05
T1
X4.1Y-4.2
X4.2397Y-4.7197
X4.3Y-4.1
X4.6661Y-3.8366
X4.7Y-4.0
X4.8Y-3.8
X4.9Y-3.8
X5.2Y-4.6
X5.9Y-3.3
X6.8Y-2.2
X7.0Y-3.8
T2
X4.5438Y-4.1452
X4.5438Y-4.2452
X4.5438Y-4.3452
X4.6438Y-4.1452
X4.6438Y-4.2452
X4.6438Y-4.3452
T3
X4.2281Y-4.9104
X4.3281Y-4.9104
X4.9619Y-2.1832
X4.9619Y-2.2832
X5.0619Y-2.1832
X5.0619Y-2.2832
X5.1619Y-2.1832
X5.1619Y-2.2832
X5.7529Y-3.4143
X5.8529Y-3.4143
X7.032Y-2.4578
X7.032Y-2.5578
X7.132Y-2.4578
X7.132Y-2.5578
X7.232Y-2.4578
X7.232Y-2.5578
X7.2777Y-4.9104
X7.3777Y-4.9104
T4
X4.8753Y-4.228
X4.8753Y-4.728
T0
M30
