%TF.GenerationSoftware,KiCad,Pcbnew,(6.0.4-0)*%
%TF.CreationDate,2022-05-11T16:52:41-04:00*%
%TF.ProjectId,BaseBadge,42617365-4261-4646-9765-2e6b69636164,v02*%
%TF.SameCoordinates,Original*%
%TF.FileFunction,Copper,L2,Bot*%
%TF.FilePolarity,Positive*%
%FSLAX46Y46*%
G04 Gerber Fmt 4.6, Leading zero omitted, Abs format (unit mm)*
G04 Created by KiCad (PCBNEW (6.0.4-0)) date 2022-05-11 16:52:41*
%MOMM*%
%LPD*%
G01*
G04 APERTURE LIST*
G04 Aperture macros list*
%AMRoundRect*
0 Rectangle with rounded corners*
0 $1 Rounding radius*
0 $2 $3 $4 $5 $6 $7 $8 $9 X,Y pos of 4 corners*
0 Add a 4 corners polygon primitive as box body*
4,1,4,$2,$3,$4,$5,$6,$7,$8,$9,$2,$3,0*
0 Add four circle primitives for the rounded corners*
1,1,$1+$1,$2,$3*
1,1,$1+$1,$4,$5*
1,1,$1+$1,$6,$7*
1,1,$1+$1,$8,$9*
0 Add four rect primitives between the rounded corners*
20,1,$1+$1,$2,$3,$4,$5,0*
20,1,$1+$1,$4,$5,$6,$7,0*
20,1,$1+$1,$6,$7,$8,$9,0*
20,1,$1+$1,$8,$9,$2,$3,0*%
%AMFreePoly0*
4,1,9,3.862500,-0.866500,0.737500,-0.866500,0.737500,-0.450000,-0.737500,-0.450000,-0.737500,0.450000,0.737500,0.450000,0.737500,0.866500,3.862500,0.866500,3.862500,-0.866500,3.862500,-0.866500,$1*%
G04 Aperture macros list end*
%ADD10C,0.300000*%
%TA.AperFunction,NonConductor*%
%ADD11C,0.300000*%
%TD*%
%TA.AperFunction,ComponentPad*%
%ADD12R,1.700000X1.700000*%
%TD*%
%TA.AperFunction,ComponentPad*%
%ADD13O,1.700000X1.700000*%
%TD*%
%TA.AperFunction,ComponentPad*%
%ADD14C,1.700000*%
%TD*%
%TA.AperFunction,ComponentPad*%
%ADD15C,2.000000*%
%TD*%
%TA.AperFunction,SMDPad,CuDef*%
%ADD16R,1.200000X2.500000*%
%TD*%
%TA.AperFunction,SMDPad,CuDef*%
%ADD17RoundRect,0.250000X0.475000X-0.250000X0.475000X0.250000X-0.475000X0.250000X-0.475000X-0.250000X0*%
%TD*%
%TA.AperFunction,SMDPad,CuDef*%
%ADD18R,1.700000X0.650000*%
%TD*%
%TA.AperFunction,SMDPad,CuDef*%
%ADD19RoundRect,0.250000X-0.475000X0.250000X-0.475000X-0.250000X0.475000X-0.250000X0.475000X0.250000X0*%
%TD*%
%TA.AperFunction,SMDPad,CuDef*%
%ADD20R,1.300000X0.900000*%
%TD*%
%TA.AperFunction,SMDPad,CuDef*%
%ADD21FreePoly0,180.000000*%
%TD*%
%TA.AperFunction,ViaPad*%
%ADD22C,0.800000*%
%TD*%
%TA.AperFunction,Conductor*%
%ADD23C,0.254000*%
%TD*%
G04 APERTURE END LIST*
D10*
D11*
X210662832Y-127699675D02*
X210305689Y-128699675D01*
X209948546Y-127699675D01*
X209091403Y-127199675D02*
X208948546Y-127199675D01*
X208805689Y-127271104D01*
X208734260Y-127342532D01*
X208662832Y-127485389D01*
X208591403Y-127771104D01*
X208591403Y-128128246D01*
X208662832Y-128413961D01*
X208734260Y-128556818D01*
X208805689Y-128628246D01*
X208948546Y-128699675D01*
X209091403Y-128699675D01*
X209234260Y-128628246D01*
X209305689Y-128556818D01*
X209377118Y-128413961D01*
X209448546Y-128128246D01*
X209448546Y-127771104D01*
X209377118Y-127485389D01*
X209305689Y-127342532D01*
X209234260Y-127271104D01*
X209091403Y-127199675D01*
X208019975Y-127342532D02*
X207948546Y-127271104D01*
X207805689Y-127199675D01*
X207448546Y-127199675D01*
X207305689Y-127271104D01*
X207234260Y-127342532D01*
X207162832Y-127485389D01*
X207162832Y-127628246D01*
X207234260Y-127842532D01*
X208091403Y-128699675D01*
X207162832Y-128699675D01*
D12*
%TO.P,J1,1,Pin_1*%
%TO.N,VCC*%
X107394767Y-124723348D03*
D13*
%TO.P,J1,2,Pin_2*%
%TO.N,GND*%
X109934767Y-124723348D03*
%TO.P,J1,3,Pin_3*%
%TO.N,Net-(J1-Pad3)*%
X146124767Y-86723348D03*
D14*
%TO.P,J1,4,Pin_4*%
%TO.N,Net-(J1-Pad4)*%
X148664767Y-86723348D03*
D13*
%TO.P,J1,5,Pin_5*%
%TO.N,Net-(J1-Pad5)*%
X184854767Y-124723348D03*
%TO.P,J1,6,Pin_6*%
%TO.N,Net-(J1-Pad6)*%
X187394767Y-124723348D03*
%TD*%
D12*
%TO.P,J2,1,Pin_1*%
%TO.N,VCC*%
X126031280Y-55453952D03*
D13*
%TO.P,J2,2,Pin_2*%
%TO.N,GND*%
X126031280Y-57993952D03*
%TO.P,J2,3,Pin_3*%
%TO.N,Net-(J1-Pad3)*%
X128571280Y-55453952D03*
%TO.P,J2,4,Pin_4*%
%TO.N,Net-(J1-Pad4)*%
X128571280Y-57993952D03*
%TO.P,J2,5,Pin_5*%
%TO.N,Net-(J1-Pad5)*%
X131111280Y-55453952D03*
%TO.P,J2,6,Pin_6*%
%TO.N,Net-(J1-Pad6)*%
X131111280Y-57993952D03*
%TD*%
D12*
%TO.P,J3,1,Pin_1*%
%TO.N,VCC*%
X178614007Y-62427788D03*
D13*
%TO.P,J3,2,Pin_2*%
%TO.N,GND*%
X178614007Y-64967788D03*
%TO.P,J3,3,Pin_3*%
%TO.N,Net-(J1-Pad3)*%
X181154007Y-62427788D03*
%TO.P,J3,4,Pin_4*%
%TO.N,Net-(J1-Pad4)*%
X181154007Y-64967788D03*
%TO.P,J3,5,Pin_5*%
%TO.N,Net-(J1-Pad5)*%
X183694007Y-62427788D03*
%TO.P,J3,6,Pin_6*%
%TO.N,Net-(J1-Pad6)*%
X183694007Y-64967788D03*
%TD*%
D15*
%TO.P,BT1,1,+*%
%TO.N,Net-(BT1-Pad1)*%
X123832477Y-120091133D03*
%TO.P,BT1,2,-*%
%TO.N,GND*%
X123832477Y-107391133D03*
%TD*%
D16*
%TO.P,SW1,1,A*%
%TO.N,Net-(C1-Pad1)*%
X85470520Y-124963928D03*
X85470520Y-119463928D03*
%TO.P,SW1,2,B*%
%TO.N,Net-(BT1-Pad1)*%
X87970520Y-124963928D03*
X87970520Y-119463928D03*
%TO.P,SW1,3,C*%
%TO.N,unconnected-(SW1-Pad3)*%
X90470520Y-119463928D03*
X90470520Y-124963928D03*
%TD*%
D17*
%TO.P,C1,1*%
%TO.N,Net-(C1-Pad1)*%
X109929044Y-113895605D03*
%TO.P,C1,2*%
%TO.N,GND*%
X109929044Y-111995605D03*
%TD*%
D18*
%TO.P,U1,1,~{RESET}/PB5*%
%TO.N,unconnected-(U1-Pad1)*%
X115410000Y-97155000D03*
%TO.P,U1,2,XTAL1/PB3*%
%TO.N,Net-(J1-Pad6)*%
X115410000Y-98425000D03*
%TO.P,U1,3,XTAL2/PB4*%
%TO.N,unconnected-(U1-Pad3)*%
X115410000Y-99695000D03*
%TO.P,U1,4,GND*%
%TO.N,GND*%
X115410000Y-100965000D03*
%TO.P,U1,5,AREF/PB0*%
%TO.N,Net-(J1-Pad3)*%
X108110000Y-100965000D03*
%TO.P,U1,6,PB1*%
%TO.N,Net-(J1-Pad5)*%
X108110000Y-99695000D03*
%TO.P,U1,7,PB2*%
%TO.N,Net-(J1-Pad4)*%
X108110000Y-98425000D03*
%TO.P,U1,8,VCC*%
%TO.N,VCC*%
X108110000Y-97155000D03*
%TD*%
D19*
%TO.P,C2,1*%
%TO.N,VCC*%
X109850261Y-116343743D03*
%TO.P,C2,2*%
%TO.N,GND*%
X109850261Y-118243743D03*
%TD*%
D20*
%TO.P,VR1,1,GND*%
%TO.N,GND*%
X106212521Y-115204189D03*
D21*
%TO.P,VR1,2,Vin*%
%TO.N,Net-(C1-Pad1)*%
X106125021Y-116704189D03*
D20*
%TO.P,VR1,3,Vout*%
%TO.N,VCC*%
X106212521Y-118204189D03*
%TD*%
D22*
%TO.N,Net-(J1-Pad3)*%
X109220000Y-104140000D03*
%TO.N,Net-(J1-Pad4)*%
X121920000Y-96520000D03*
X177800000Y-96520000D03*
%TO.N,Net-(J1-Pad5)*%
X104140000Y-106680000D03*
%TO.N,Net-(J1-Pad6)*%
X149860000Y-83820000D03*
X124460000Y-96520000D03*
%TO.N,VCC*%
X107688730Y-119880793D03*
X172720000Y-55880000D03*
X132080000Y-116840000D03*
%TD*%
D23*
%TO.N,Net-(BT1-Pad1)*%
X87970520Y-124963928D02*
X87970520Y-119463928D01*
X122883171Y-121040439D02*
X123832477Y-120091133D01*
X89547031Y-121040439D02*
X122883171Y-121040439D01*
X87970520Y-119463928D02*
X89547031Y-121040439D01*
%TO.N,GND*%
X109810707Y-118204189D02*
X109850261Y-118243743D01*
%TO.N,Net-(J1-Pad3)*%
X129747791Y-70346372D02*
X146124767Y-86723348D01*
X129747791Y-56630463D02*
X129747791Y-70346372D01*
X149860000Y-86254742D02*
X149860000Y-86269828D01*
X128571280Y-55453952D02*
X129747791Y-56630463D01*
X160110172Y-86269828D02*
X179977496Y-66402504D01*
X146124767Y-86723348D02*
X147301278Y-85546837D01*
X181154007Y-62427788D02*
X179977496Y-63604299D01*
X108110000Y-100965000D02*
X108110000Y-103030000D01*
X147301278Y-85546837D02*
X149152095Y-85546837D01*
X149152095Y-85546837D02*
X149860000Y-86254742D01*
X149860000Y-86269828D02*
X160110172Y-86269828D01*
X179977496Y-63604299D02*
X179977496Y-66402504D01*
X108110000Y-103030000D02*
X109220000Y-104140000D01*
%TO.N,Net-(J1-Pad4)*%
X148664767Y-86723348D02*
X160600528Y-86723348D01*
X147488256Y-87899859D02*
X148664767Y-86723348D01*
X145637439Y-87899859D02*
X147488256Y-87899859D01*
X121903489Y-96503489D02*
X121920000Y-96520000D01*
X181154007Y-93165993D02*
X181154007Y-64967788D01*
X108110000Y-98425000D02*
X107585000Y-98425000D01*
X160600528Y-86723348D02*
X181154007Y-66169869D01*
X106933489Y-96503489D02*
X121903489Y-96503489D01*
X128571280Y-70151280D02*
X144780000Y-86360000D01*
X144780000Y-86360000D02*
X144780000Y-87042420D01*
X106933489Y-97773489D02*
X106933489Y-96503489D01*
X107585000Y-98425000D02*
X106933489Y-97773489D01*
X144780000Y-87042420D02*
X145637439Y-87899859D01*
X128571280Y-57993952D02*
X128571280Y-70151280D01*
X181154007Y-66169869D02*
X181154007Y-64967788D01*
X177800000Y-96520000D02*
X181154007Y-93165993D01*
%TO.N,Net-(J1-Pad5)*%
X107585000Y-99695000D02*
X108110000Y-99695000D01*
X185704767Y-64438548D02*
X185704767Y-123873348D01*
X178138388Y-58081612D02*
X179347831Y-58081612D01*
X104140000Y-106680000D02*
X104140000Y-103140000D01*
X185704767Y-123873348D02*
X184854767Y-124723348D01*
X179347831Y-58081612D02*
X183694007Y-62427788D01*
X131111280Y-55453952D02*
X133197760Y-57540432D01*
X183694007Y-62427788D02*
X185704767Y-64438548D01*
X104140000Y-103140000D02*
X107585000Y-99695000D01*
X177597208Y-57540432D02*
X178138388Y-58081612D01*
X133197760Y-57540432D02*
X177597208Y-57540432D01*
%TO.N,Net-(J1-Pad6)*%
X122555000Y-98425000D02*
X115410000Y-98425000D01*
X182330518Y-63604299D02*
X183694007Y-64967788D01*
X183694007Y-64967788D02*
X182844007Y-65817788D01*
X182844007Y-65817788D02*
X182844007Y-126964007D01*
X124460000Y-96520000D02*
X122555000Y-98425000D01*
X180666679Y-61251277D02*
X181641335Y-61251277D01*
X182330518Y-61940460D02*
X182330518Y-63604299D01*
X131111280Y-57993952D02*
X131111280Y-65071280D01*
X181641335Y-61251277D02*
X182330518Y-61940460D01*
X185118115Y-127000000D02*
X187394767Y-124723348D01*
X131111280Y-57993952D02*
X177409354Y-57993952D01*
X177409354Y-57993952D02*
X180666679Y-61251277D01*
X131111280Y-65071280D02*
X149860000Y-83820000D01*
X182880000Y-127000000D02*
X185118115Y-127000000D01*
X182844007Y-126964007D02*
X182880000Y-127000000D01*
%TO.N,VCC*%
X127207791Y-56630463D02*
X126031280Y-55453952D01*
X106212521Y-118404584D02*
X107688730Y-119880793D01*
X131598608Y-54277441D02*
X127207791Y-54277441D01*
X132080000Y-116840000D02*
X128117760Y-112877760D01*
X128117760Y-112877760D02*
X128117760Y-62077760D01*
X106212521Y-118204189D02*
X106212521Y-118404584D01*
X127207791Y-61167791D02*
X127207791Y-56630463D01*
X128117760Y-62077760D02*
X127207791Y-61167791D01*
X110980564Y-98717573D02*
X109417991Y-97155000D01*
X109850261Y-116343743D02*
X110980564Y-115213440D01*
X172720000Y-55880000D02*
X133201167Y-55880000D01*
X106212521Y-118204189D02*
X107989815Y-118204189D01*
X127207791Y-54277441D02*
X126031280Y-55453952D01*
X107989815Y-118204189D02*
X109850261Y-116343743D01*
X133201167Y-55880000D02*
X131598608Y-54277441D01*
X110980564Y-115213440D02*
X110980564Y-98717573D01*
X109417991Y-97155000D02*
X108110000Y-97155000D01*
%TO.N,Net-(C1-Pad1)*%
X85470520Y-119463928D02*
X88230259Y-116704189D01*
X106125021Y-116704189D02*
X107120460Y-116704189D01*
X85470520Y-119463928D02*
X85470520Y-124963928D01*
X88230259Y-116704189D02*
X106125021Y-116704189D01*
X107120460Y-116704189D02*
X109929044Y-113895605D01*
%TD*%
%TA.AperFunction,Conductor*%
%TO.N,GND*%
G36*
X148596598Y-47314233D02*
G01*
X148599019Y-47314280D01*
X149814869Y-47349591D01*
X149817279Y-47349684D01*
X150094790Y-47363123D01*
X151027347Y-47408283D01*
X151029779Y-47408425D01*
X152233658Y-47490085D01*
X152236085Y-47490273D01*
X153433917Y-47594808D01*
X153436338Y-47595043D01*
X154627732Y-47722228D01*
X154630144Y-47722509D01*
X155094914Y-47781206D01*
X155814980Y-47872145D01*
X155817369Y-47872470D01*
X155917860Y-47887131D01*
X156995312Y-48044325D01*
X156997704Y-48044697D01*
X157448859Y-48119396D01*
X158168827Y-48238605D01*
X158171117Y-48239007D01*
X158870778Y-48368683D01*
X159335023Y-48454727D01*
X159337390Y-48455189D01*
X160493897Y-48692516D01*
X160496247Y-48693022D01*
X161645282Y-48951773D01*
X161647541Y-48952305D01*
X162106856Y-49064972D01*
X162788676Y-49232219D01*
X162790996Y-49232811D01*
X163924267Y-49533736D01*
X163926569Y-49534371D01*
X165051595Y-49856052D01*
X165053879Y-49856728D01*
X165614899Y-50028676D01*
X166170679Y-50199018D01*
X166172896Y-50199721D01*
X166582073Y-50333618D01*
X167280997Y-50562330D01*
X167283240Y-50563087D01*
X168382681Y-50945881D01*
X168384904Y-50946678D01*
X169475495Y-51349458D01*
X169477662Y-51350281D01*
X170559086Y-51772798D01*
X170561074Y-51773596D01*
X171053607Y-51976683D01*
X171633165Y-52215653D01*
X171635319Y-52216565D01*
X171713316Y-52250433D01*
X172697757Y-52677902D01*
X172699807Y-52678814D01*
X173752587Y-53159307D01*
X173754680Y-53160286D01*
X174797505Y-53659684D01*
X174799542Y-53660682D01*
X175121789Y-53822356D01*
X175832261Y-54178805D01*
X175834316Y-54179860D01*
X176856659Y-54716460D01*
X176858688Y-54717549D01*
X177157882Y-54881632D01*
X177854786Y-55263826D01*
X177870405Y-55272392D01*
X177872403Y-55273511D01*
X178853685Y-55835160D01*
X178873501Y-55846502D01*
X178875478Y-55847657D01*
X179865626Y-56438515D01*
X179867575Y-56439703D01*
X180032554Y-56542249D01*
X180846560Y-57048212D01*
X180848414Y-57049387D01*
X180901928Y-57084005D01*
X181816137Y-57675405D01*
X181818031Y-57676655D01*
X182774176Y-58319898D01*
X182776041Y-58321177D01*
X183705247Y-58970835D01*
X183720412Y-58981438D01*
X183722242Y-58982742D01*
X184176311Y-59312469D01*
X184654740Y-59659886D01*
X184656549Y-59661225D01*
X185576838Y-60354943D01*
X185578619Y-60356310D01*
X185788013Y-60520084D01*
X186486740Y-61066582D01*
X186488381Y-61067890D01*
X187377198Y-61788886D01*
X187383867Y-61794296D01*
X187385588Y-61795717D01*
X188141138Y-62431153D01*
X188268267Y-62538072D01*
X188269961Y-62539522D01*
X189139820Y-63297777D01*
X189141484Y-63299254D01*
X189998070Y-64072977D01*
X189999705Y-64074480D01*
X190843055Y-64863679D01*
X190844643Y-64865191D01*
X191674505Y-65669612D01*
X191676007Y-65671094D01*
X191941305Y-65937455D01*
X192492031Y-66490387D01*
X192493577Y-66491966D01*
X193138845Y-67162948D01*
X193295668Y-67326021D01*
X193297169Y-67327609D01*
X193700243Y-67761709D01*
X194085123Y-68176215D01*
X194086608Y-68177843D01*
X194860223Y-69040791D01*
X194861678Y-69042443D01*
X195620735Y-69919506D01*
X195622159Y-69921181D01*
X195850730Y-70194792D01*
X196366483Y-70812174D01*
X196367810Y-70813791D01*
X197097271Y-71718598D01*
X197098554Y-71720218D01*
X197812837Y-72638492D01*
X197814112Y-72640161D01*
X197952131Y-72824118D01*
X198513058Y-73571744D01*
X198514358Y-73573510D01*
X199197636Y-74518015D01*
X199198906Y-74519802D01*
X199866485Y-75477248D01*
X199867722Y-75479056D01*
X200519349Y-76449164D01*
X200520556Y-76450994D01*
X201156057Y-77433595D01*
X201157231Y-77435445D01*
X201776374Y-78430280D01*
X201777481Y-78432095D01*
X202380088Y-79438995D01*
X202381137Y-79440784D01*
X202700346Y-79995849D01*
X202966989Y-80459509D01*
X202968064Y-80461416D01*
X203287349Y-81039681D01*
X203536938Y-81491716D01*
X203537981Y-81493644D01*
X203860990Y-82103519D01*
X204089726Y-82535398D01*
X204090732Y-82537339D01*
X204553133Y-83448444D01*
X204625108Y-83590263D01*
X204626073Y-83592207D01*
X204694334Y-83732728D01*
X205142880Y-84656095D01*
X205143824Y-84658081D01*
X205642886Y-85732764D01*
X205643785Y-85734746D01*
X206037662Y-86623233D01*
X206124930Y-86820088D01*
X206125802Y-86822102D01*
X206579796Y-87896521D01*
X206588754Y-87917722D01*
X206589585Y-87919739D01*
X206766879Y-88360692D01*
X207034186Y-89025520D01*
X207034992Y-89027576D01*
X207461059Y-90143359D01*
X207461828Y-90145426D01*
X207830820Y-91165059D01*
X207869109Y-91270864D01*
X207869844Y-91272952D01*
X208258182Y-92407946D01*
X208258881Y-92410048D01*
X208628086Y-93554428D01*
X208628748Y-93556545D01*
X208978584Y-94710000D01*
X208979210Y-94712131D01*
X209309481Y-95874445D01*
X209310070Y-95876589D01*
X209620606Y-97047672D01*
X209621156Y-97049826D01*
X209885476Y-98122785D01*
X209911737Y-98229389D01*
X209912249Y-98231551D01*
X209946629Y-98382566D01*
X210182666Y-99419361D01*
X210183142Y-99421539D01*
X210427862Y-100591866D01*
X210433248Y-100617626D01*
X210433678Y-100619782D01*
X210662228Y-101818502D01*
X210663186Y-101823528D01*
X210663577Y-101825682D01*
X210872354Y-103037213D01*
X210872709Y-103039392D01*
X210945906Y-103514456D01*
X211060523Y-104258339D01*
X211060844Y-104260553D01*
X211210259Y-105359862D01*
X211227508Y-105486774D01*
X211227790Y-105488999D01*
X211373089Y-106722197D01*
X211373332Y-106724430D01*
X211497076Y-107964472D01*
X211497279Y-107966710D01*
X211599269Y-109213410D01*
X211599433Y-109215652D01*
X211678509Y-110453744D01*
X211679474Y-110468858D01*
X211679595Y-110471062D01*
X211734323Y-111661950D01*
X211737471Y-111730450D01*
X211737554Y-111732693D01*
X211773063Y-112997730D01*
X211773071Y-112998023D01*
X211773113Y-113000219D01*
X211779178Y-113595205D01*
X211786050Y-114269386D01*
X211786055Y-114271440D01*
X211785626Y-114341654D01*
X211788093Y-114350285D01*
X211793130Y-114367910D01*
X211797981Y-114402535D01*
X211797981Y-129033392D01*
X211777979Y-129101513D01*
X211724323Y-129148006D01*
X211671981Y-129159392D01*
X211661618Y-129159392D01*
X211593497Y-129139390D01*
X211547004Y-129085734D01*
X211535618Y-129033392D01*
X211535618Y-126080104D01*
X206218618Y-126080104D01*
X206218618Y-129033392D01*
X206198616Y-129101513D01*
X206144960Y-129148006D01*
X206092618Y-129159392D01*
X83087925Y-129159392D01*
X83019804Y-129139390D01*
X82973311Y-129085734D01*
X82961925Y-129033392D01*
X82961925Y-126262062D01*
X84362020Y-126262062D01*
X84368775Y-126324244D01*
X84419905Y-126460633D01*
X84507259Y-126577189D01*
X84623815Y-126664543D01*
X84760204Y-126715673D01*
X84822386Y-126722428D01*
X86118654Y-126722428D01*
X86180836Y-126715673D01*
X86317225Y-126664543D01*
X86433781Y-126577189D01*
X86521135Y-126460633D01*
X86572265Y-126324244D01*
X86579020Y-126262062D01*
X86579020Y-123665794D01*
X86572265Y-123603612D01*
X86521135Y-123467223D01*
X86433781Y-123350667D01*
X86317225Y-123263313D01*
X86308816Y-123260161D01*
X86308815Y-123260160D01*
X86187791Y-123214790D01*
X86131026Y-123172149D01*
X86106326Y-123105587D01*
X86106020Y-123096808D01*
X86106020Y-121331048D01*
X86126022Y-121262927D01*
X86179678Y-121216434D01*
X86187791Y-121213066D01*
X86308815Y-121167696D01*
X86308816Y-121167695D01*
X86317225Y-121164543D01*
X86433781Y-121077189D01*
X86521135Y-120960633D01*
X86572265Y-120824244D01*
X86579020Y-120762062D01*
X86579020Y-119306350D01*
X86599022Y-119238229D01*
X86615925Y-119217255D01*
X86646925Y-119186255D01*
X86709237Y-119152229D01*
X86780052Y-119157294D01*
X86836888Y-119199841D01*
X86861699Y-119266361D01*
X86862020Y-119275350D01*
X86862020Y-120762062D01*
X86868775Y-120824244D01*
X86919905Y-120960633D01*
X87007259Y-121077189D01*
X87123815Y-121164543D01*
X87132224Y-121167695D01*
X87132225Y-121167696D01*
X87253249Y-121213066D01*
X87310014Y-121255707D01*
X87334714Y-121322269D01*
X87335020Y-121331048D01*
X87335020Y-123096808D01*
X87315018Y-123164929D01*
X87261362Y-123211422D01*
X87253249Y-123214790D01*
X87132225Y-123260160D01*
X87132224Y-123260161D01*
X87123815Y-123263313D01*
X87007259Y-123350667D01*
X86919905Y-123467223D01*
X86868775Y-123603612D01*
X86862020Y-123665794D01*
X86862020Y-126262062D01*
X86868775Y-126324244D01*
X86919905Y-126460633D01*
X87007259Y-126577189D01*
X87123815Y-126664543D01*
X87260204Y-126715673D01*
X87322386Y-126722428D01*
X88618654Y-126722428D01*
X88680836Y-126715673D01*
X88817225Y-126664543D01*
X88933781Y-126577189D01*
X89021135Y-126460633D01*
X89072265Y-126324244D01*
X89079020Y-126262062D01*
X89362020Y-126262062D01*
X89368775Y-126324244D01*
X89419905Y-126460633D01*
X89507259Y-126577189D01*
X89623815Y-126664543D01*
X89760204Y-126715673D01*
X89822386Y-126722428D01*
X91118654Y-126722428D01*
X91180836Y-126715673D01*
X91317225Y-126664543D01*
X91433781Y-126577189D01*
X91521135Y-126460633D01*
X91572265Y-126324244D01*
X91579020Y-126262062D01*
X91579020Y-125621482D01*
X106036267Y-125621482D01*
X106043022Y-125683664D01*
X106094152Y-125820053D01*
X106181506Y-125936609D01*
X106298062Y-126023963D01*
X106434451Y-126075093D01*
X106496633Y-126081848D01*
X108292901Y-126081848D01*
X108355083Y-126075093D01*
X108491472Y-126023963D01*
X108608028Y-125936609D01*
X108695382Y-125820053D01*
X108713791Y-125770948D01*
X108739565Y-125702196D01*
X108782207Y-125645432D01*
X108848768Y-125620732D01*
X108918117Y-125635940D01*
X108952784Y-125663928D01*
X108977985Y-125693021D01*
X108985347Y-125700231D01*
X109149201Y-125836264D01*
X109157648Y-125842179D01*
X109341523Y-125949627D01*
X109350809Y-125954077D01*
X109549768Y-126030051D01*
X109559666Y-126032927D01*
X109663017Y-126053954D01*
X109677066Y-126052758D01*
X109680767Y-126042413D01*
X109680767Y-126041865D01*
X110188767Y-126041865D01*
X110192831Y-126055707D01*
X110206245Y-126057741D01*
X110212951Y-126056882D01*
X110223029Y-126054740D01*
X110286746Y-126035624D01*
X178615073Y-126035624D01*
X178624641Y-126242345D01*
X178626045Y-126248170D01*
X178626045Y-126248171D01*
X178651195Y-126352526D01*
X178673126Y-126443528D01*
X178758779Y-126631912D01*
X178878510Y-126800701D01*
X178882833Y-126804839D01*
X178882837Y-126804844D01*
X178962899Y-126881486D01*
X179027997Y-126943804D01*
X179033032Y-126947055D01*
X179196811Y-127052806D01*
X179196814Y-127052807D01*
X179201848Y-127056058D01*
X179207411Y-127058300D01*
X179240968Y-127071824D01*
X179393789Y-127133413D01*
X179399670Y-127134561D01*
X179399675Y-127134563D01*
X179592449Y-127172209D01*
X179592452Y-127172209D01*
X179596895Y-127173077D01*
X179602334Y-127173343D01*
X179754909Y-127173343D01*
X179909212Y-127158621D01*
X179914966Y-127156933D01*
X180102032Y-127102054D01*
X180102034Y-127102053D01*
X180107785Y-127100366D01*
X180113119Y-127097619D01*
X180286430Y-127008359D01*
X180286433Y-127008357D01*
X180291761Y-127005613D01*
X180454499Y-126877780D01*
X180590129Y-126721480D01*
X180693757Y-126542353D01*
X180761643Y-126346862D01*
X180764923Y-126324244D01*
X180790476Y-126148002D01*
X180790476Y-126147999D01*
X180791337Y-126142062D01*
X180781769Y-125935341D01*
X180750886Y-125807197D01*
X180734690Y-125739991D01*
X180734689Y-125739989D01*
X180733284Y-125734158D01*
X180717859Y-125700231D01*
X180650111Y-125551229D01*
X180647631Y-125545774D01*
X180527900Y-125376985D01*
X180523577Y-125372847D01*
X180523573Y-125372842D01*
X180382743Y-125238027D01*
X180378413Y-125233882D01*
X180351404Y-125216443D01*
X180209599Y-125124880D01*
X180209596Y-125124879D01*
X180204562Y-125121628D01*
X180012621Y-125044273D01*
X180006740Y-125043125D01*
X180006735Y-125043123D01*
X179813961Y-125005477D01*
X179813958Y-125005477D01*
X179809515Y-125004609D01*
X179804076Y-125004343D01*
X179651501Y-125004343D01*
X179497198Y-125019065D01*
X179491444Y-125020753D01*
X179304378Y-125075632D01*
X179304376Y-125075633D01*
X179298625Y-125077320D01*
X179293292Y-125080066D01*
X179293291Y-125080067D01*
X179119980Y-125169327D01*
X179119977Y-125169329D01*
X179114649Y-125172073D01*
X178951911Y-125299906D01*
X178816281Y-125456206D01*
X178712653Y-125635333D01*
X178644767Y-125830824D01*
X178643907Y-125836757D01*
X178643906Y-125836760D01*
X178615934Y-126029684D01*
X178615073Y-126035624D01*
X110286746Y-126035624D01*
X110427022Y-125993539D01*
X110436609Y-125989781D01*
X110627862Y-125896087D01*
X110636712Y-125890812D01*
X110810095Y-125767140D01*
X110817967Y-125760487D01*
X110968819Y-125610160D01*
X110975497Y-125602313D01*
X111099770Y-125429368D01*
X111105080Y-125420531D01*
X111199437Y-125229615D01*
X111203236Y-125220020D01*
X111265144Y-125016258D01*
X111267322Y-125006185D01*
X111268753Y-124995310D01*
X111266542Y-124981126D01*
X111253384Y-124977348D01*
X110206882Y-124977348D01*
X110191643Y-124981823D01*
X110190438Y-124983213D01*
X110188767Y-124990896D01*
X110188767Y-126041865D01*
X109680767Y-126041865D01*
X109680767Y-124859517D01*
X114830986Y-124859517D01*
X114840554Y-125066238D01*
X114841958Y-125072063D01*
X114841958Y-125072064D01*
X114880173Y-125230631D01*
X114889039Y-125267421D01*
X114974692Y-125455805D01*
X115094423Y-125624594D01*
X115098746Y-125628732D01*
X115098750Y-125628737D01*
X115178812Y-125705379D01*
X115243910Y-125767697D01*
X115248945Y-125770948D01*
X115412724Y-125876699D01*
X115412727Y-125876700D01*
X115417761Y-125879951D01*
X115609702Y-125957306D01*
X115615583Y-125958454D01*
X115615588Y-125958456D01*
X115808362Y-125996102D01*
X115808365Y-125996102D01*
X115812808Y-125996970D01*
X115818247Y-125997236D01*
X115970822Y-125997236D01*
X116125125Y-125982514D01*
X116130879Y-125980826D01*
X116317945Y-125925947D01*
X116317947Y-125925946D01*
X116323698Y-125924259D01*
X116329032Y-125921512D01*
X116502343Y-125832252D01*
X116502346Y-125832250D01*
X116507674Y-125829506D01*
X116670412Y-125701673D01*
X116686040Y-125683664D01*
X116802110Y-125549904D01*
X116806042Y-125545373D01*
X116909670Y-125366246D01*
X116977556Y-125170755D01*
X116984208Y-125124880D01*
X117006389Y-124971895D01*
X117006389Y-124971892D01*
X117007250Y-124965955D01*
X116997682Y-124759234D01*
X116949197Y-124558051D01*
X116908107Y-124467677D01*
X116866024Y-124375122D01*
X116863544Y-124369667D01*
X116743813Y-124200878D01*
X116739490Y-124196740D01*
X116739486Y-124196735D01*
X116598656Y-124061920D01*
X116594326Y-124057775D01*
X116431174Y-123952429D01*
X116425512Y-123948773D01*
X116425509Y-123948772D01*
X116420475Y-123945521D01*
X116228534Y-123868166D01*
X116222653Y-123867018D01*
X116222648Y-123867016D01*
X116029874Y-123829370D01*
X116029871Y-123829370D01*
X116025428Y-123828502D01*
X116019989Y-123828236D01*
X115867414Y-123828236D01*
X115713111Y-123842958D01*
X115707357Y-123844646D01*
X115520291Y-123899525D01*
X115520289Y-123899526D01*
X115514538Y-123901213D01*
X115509205Y-123903959D01*
X115509204Y-123903960D01*
X115335893Y-123993220D01*
X115335890Y-123993222D01*
X115330562Y-123995966D01*
X115167824Y-124123799D01*
X115032194Y-124280099D01*
X114928566Y-124459226D01*
X114860680Y-124654717D01*
X114859820Y-124660650D01*
X114859819Y-124660653D01*
X114841560Y-124786588D01*
X114830986Y-124859517D01*
X109680767Y-124859517D01*
X109680767Y-124451233D01*
X110188767Y-124451233D01*
X110193242Y-124466472D01*
X110194632Y-124467677D01*
X110202315Y-124469348D01*
X111253111Y-124469348D01*
X111266642Y-124465375D01*
X111267947Y-124456295D01*
X111225981Y-124289223D01*
X111222661Y-124279472D01*
X111137739Y-124084162D01*
X111132872Y-124075087D01*
X111017193Y-123896274D01*
X111010903Y-123888105D01*
X110867573Y-123730588D01*
X110860040Y-123723563D01*
X110692906Y-123591570D01*
X110684319Y-123585865D01*
X110497884Y-123482947D01*
X110488472Y-123478717D01*
X110287726Y-123407628D01*
X110277755Y-123404994D01*
X110206604Y-123392320D01*
X110193307Y-123393780D01*
X110188767Y-123408337D01*
X110188767Y-124451233D01*
X109680767Y-124451233D01*
X109680767Y-123406450D01*
X109676849Y-123393106D01*
X109662573Y-123391119D01*
X109624091Y-123397008D01*
X109614055Y-123399399D01*
X109411635Y-123465560D01*
X109402126Y-123469557D01*
X109213230Y-123567890D01*
X109204505Y-123573384D01*
X109034200Y-123701253D01*
X109026493Y-123708096D01*
X108949245Y-123788932D01*
X108887721Y-123824362D01*
X108816809Y-123820905D01*
X108759022Y-123779659D01*
X108740169Y-123746111D01*
X108698534Y-123635051D01*
X108695382Y-123626643D01*
X108608028Y-123510087D01*
X108491472Y-123422733D01*
X108355083Y-123371603D01*
X108292901Y-123364848D01*
X106496633Y-123364848D01*
X106434451Y-123371603D01*
X106298062Y-123422733D01*
X106181506Y-123510087D01*
X106094152Y-123626643D01*
X106043022Y-123763032D01*
X106036267Y-123825214D01*
X106036267Y-125621482D01*
X91579020Y-125621482D01*
X91579020Y-123665794D01*
X91572265Y-123603612D01*
X91521135Y-123467223D01*
X91433781Y-123350667D01*
X91317225Y-123263313D01*
X91180836Y-123212183D01*
X91118654Y-123205428D01*
X89822386Y-123205428D01*
X89760204Y-123212183D01*
X89623815Y-123263313D01*
X89507259Y-123350667D01*
X89419905Y-123467223D01*
X89368775Y-123603612D01*
X89362020Y-123665794D01*
X89362020Y-126262062D01*
X89079020Y-126262062D01*
X89079020Y-123665794D01*
X89072265Y-123603612D01*
X89021135Y-123467223D01*
X88933781Y-123350667D01*
X88817225Y-123263313D01*
X88808816Y-123260161D01*
X88808815Y-123260160D01*
X88687791Y-123214790D01*
X88631026Y-123172149D01*
X88606326Y-123105587D01*
X88606020Y-123096808D01*
X88606020Y-121331048D01*
X88626022Y-121262927D01*
X88679678Y-121216434D01*
X88687790Y-121213066D01*
X88708663Y-121205241D01*
X88779470Y-121200058D01*
X88841988Y-121234128D01*
X89041776Y-121433916D01*
X89049353Y-121442242D01*
X89053478Y-121448742D01*
X89059256Y-121454168D01*
X89059257Y-121454169D01*
X89103312Y-121495539D01*
X89106154Y-121498294D01*
X89125937Y-121518077D01*
X89129145Y-121520565D01*
X89138174Y-121528276D01*
X89170525Y-121558656D01*
X89177474Y-121562476D01*
X89188360Y-121568461D01*
X89204884Y-121579315D01*
X89214701Y-121586930D01*
X89220964Y-121591788D01*
X89228241Y-121594937D01*
X89261681Y-121609408D01*
X89272342Y-121614631D01*
X89304278Y-121632188D01*
X89304283Y-121632190D01*
X89311228Y-121636008D01*
X89318902Y-121637978D01*
X89318909Y-121637981D01*
X89330944Y-121641071D01*
X89349649Y-121647475D01*
X89361044Y-121652406D01*
X89368323Y-121655556D01*
X89383432Y-121657949D01*
X89412158Y-121662499D01*
X89423771Y-121664904D01*
X89466749Y-121675939D01*
X89487096Y-121675939D01*
X89506808Y-121677490D01*
X89526910Y-121680674D01*
X89534802Y-121679928D01*
X89571087Y-121676498D01*
X89582945Y-121675939D01*
X122804151Y-121675939D01*
X122815385Y-121676469D01*
X122822890Y-121678147D01*
X122891183Y-121676001D01*
X122895140Y-121675939D01*
X122923154Y-121675939D01*
X122927079Y-121675443D01*
X122927080Y-121675443D01*
X122927175Y-121675431D01*
X122939020Y-121674498D01*
X122968841Y-121673561D01*
X122975453Y-121673353D01*
X122975454Y-121673353D01*
X122983376Y-121673104D01*
X123002920Y-121667426D01*
X123022283Y-121663416D01*
X123034611Y-121661859D01*
X123034613Y-121661859D01*
X123042470Y-121660866D01*
X123049834Y-121657950D01*
X123049839Y-121657949D01*
X123083727Y-121644532D01*
X123094956Y-121640687D01*
X123111636Y-121635841D01*
X123137564Y-121628308D01*
X123144391Y-121624270D01*
X123144394Y-121624269D01*
X123155077Y-121617951D01*
X123172835Y-121609251D01*
X123184386Y-121604678D01*
X123184392Y-121604674D01*
X123191759Y-121601758D01*
X123201148Y-121594937D01*
X123227659Y-121575675D01*
X123237581Y-121569158D01*
X123275770Y-121546573D01*
X123277358Y-121549258D01*
X123329913Y-121528604D01*
X123370506Y-121531588D01*
X123432923Y-121546573D01*
X123590953Y-121584513D01*
X123590959Y-121584514D01*
X123595766Y-121585668D01*
X123832477Y-121604298D01*
X124069188Y-121585668D01*
X124073995Y-121584514D01*
X124074001Y-121584513D01*
X124232031Y-121546573D01*
X124300071Y-121530238D01*
X124304644Y-121528344D01*
X124514866Y-121441268D01*
X124514870Y-121441266D01*
X124519440Y-121439373D01*
X124528345Y-121433916D01*
X124717679Y-121317892D01*
X124717685Y-121317888D01*
X124721893Y-121315309D01*
X124902446Y-121161102D01*
X125056653Y-120980549D01*
X125059232Y-120976341D01*
X125059236Y-120976335D01*
X125178131Y-120782316D01*
X125180717Y-120778096D01*
X125185952Y-120765459D01*
X125269688Y-120563300D01*
X125269689Y-120563298D01*
X125271582Y-120558727D01*
X125308503Y-120404939D01*
X125325857Y-120332657D01*
X125325858Y-120332651D01*
X125327012Y-120327844D01*
X125345642Y-120091133D01*
X125327012Y-119854422D01*
X125306053Y-119767119D01*
X125289321Y-119697428D01*
X125271582Y-119623539D01*
X125224237Y-119509237D01*
X125182612Y-119408744D01*
X125182610Y-119408740D01*
X125180717Y-119404170D01*
X125143752Y-119343849D01*
X125059236Y-119205931D01*
X125059232Y-119205925D01*
X125056653Y-119201717D01*
X124902446Y-119021164D01*
X124898098Y-119017450D01*
X124822874Y-118953203D01*
X124721893Y-118866957D01*
X124717685Y-118864378D01*
X124717679Y-118864374D01*
X124523660Y-118745479D01*
X124519440Y-118742893D01*
X124514870Y-118741000D01*
X124514866Y-118740998D01*
X124304644Y-118653922D01*
X124304642Y-118653921D01*
X124300071Y-118652028D01*
X124218148Y-118632360D01*
X124074001Y-118597753D01*
X124073995Y-118597752D01*
X124069188Y-118596598D01*
X123832477Y-118577968D01*
X123595766Y-118596598D01*
X123590959Y-118597752D01*
X123590953Y-118597753D01*
X123446806Y-118632360D01*
X123364883Y-118652028D01*
X123360312Y-118653921D01*
X123360310Y-118653922D01*
X123150088Y-118740998D01*
X123150084Y-118741000D01*
X123145514Y-118742893D01*
X123141294Y-118745479D01*
X122947275Y-118864374D01*
X122947269Y-118864378D01*
X122943061Y-118866957D01*
X122842080Y-118953203D01*
X122766857Y-119017450D01*
X122762508Y-119021164D01*
X122608301Y-119201717D01*
X122605722Y-119205925D01*
X122605718Y-119205931D01*
X122521202Y-119343849D01*
X122484237Y-119404170D01*
X122482344Y-119408740D01*
X122482342Y-119408744D01*
X122440717Y-119509237D01*
X122393372Y-119623539D01*
X122375633Y-119697428D01*
X122358902Y-119767119D01*
X122337942Y-119854422D01*
X122319312Y-120091133D01*
X122319700Y-120096063D01*
X122333315Y-120269053D01*
X122318719Y-120338533D01*
X122268877Y-120389092D01*
X122207703Y-120404939D01*
X108647101Y-120404939D01*
X108578980Y-120384937D01*
X108532487Y-120331281D01*
X108522383Y-120261007D01*
X108527266Y-120240011D01*
X108582272Y-120070721D01*
X108594257Y-119956695D01*
X108601544Y-119887358D01*
X108602234Y-119880793D01*
X108597183Y-119832737D01*
X108582962Y-119697428D01*
X108582962Y-119697426D01*
X108582272Y-119690865D01*
X108523257Y-119509237D01*
X108427770Y-119343849D01*
X108344838Y-119251743D01*
X108304405Y-119206838D01*
X108304404Y-119206837D01*
X108299983Y-119201927D01*
X108145482Y-119089675D01*
X108139454Y-119086991D01*
X108139452Y-119086990D01*
X108094803Y-119067111D01*
X108040707Y-119021130D01*
X108020058Y-118953203D01*
X108039411Y-118884895D01*
X108092621Y-118837894D01*
X108130265Y-118826997D01*
X108141253Y-118825609D01*
X108149114Y-118824616D01*
X108156478Y-118821700D01*
X108156483Y-118821699D01*
X108190371Y-118808282D01*
X108201600Y-118804437D01*
X108218280Y-118799591D01*
X108244208Y-118792058D01*
X108251035Y-118788020D01*
X108251038Y-118788019D01*
X108261721Y-118781701D01*
X108279479Y-118773001D01*
X108291030Y-118768428D01*
X108291036Y-118768424D01*
X108298403Y-118765508D01*
X108310597Y-118756649D01*
X108334303Y-118739425D01*
X108344225Y-118732908D01*
X108375583Y-118714363D01*
X108375587Y-118714360D01*
X108382413Y-118710323D01*
X108396797Y-118695939D01*
X108411831Y-118683098D01*
X108421888Y-118675791D01*
X108428302Y-118671131D01*
X108433355Y-118665022D01*
X108439134Y-118659596D01*
X108440702Y-118661265D01*
X108489928Y-118628014D01*
X108560906Y-118626389D01*
X108621495Y-118663397D01*
X108647707Y-118708190D01*
X108681849Y-118810527D01*
X108688022Y-118823705D01*
X108773324Y-118961550D01*
X108782360Y-118972951D01*
X108897090Y-119087482D01*
X108908501Y-119096494D01*
X109046504Y-119181559D01*
X109059685Y-119187706D01*
X109213971Y-119238881D01*
X109227347Y-119241748D01*
X109321699Y-119251415D01*
X109328115Y-119251743D01*
X109578146Y-119251743D01*
X109593385Y-119247268D01*
X109594590Y-119245878D01*
X109596261Y-119238195D01*
X109596261Y-119233627D01*
X110104261Y-119233627D01*
X110108736Y-119248866D01*
X110110126Y-119250071D01*
X110117809Y-119251742D01*
X110372356Y-119251742D01*
X110378875Y-119251405D01*
X110474467Y-119241486D01*
X110487861Y-119238594D01*
X110642045Y-119187155D01*
X110655223Y-119180982D01*
X110793068Y-119095680D01*
X110804469Y-119086644D01*
X110919000Y-118971914D01*
X110928012Y-118960503D01*
X111013077Y-118822500D01*
X111019224Y-118809319D01*
X111070399Y-118655033D01*
X111073266Y-118641657D01*
X111082933Y-118547305D01*
X111083261Y-118540889D01*
X111083261Y-118515858D01*
X111078786Y-118500619D01*
X111077396Y-118499414D01*
X111069713Y-118497743D01*
X110122376Y-118497743D01*
X110107137Y-118502218D01*
X110105932Y-118503608D01*
X110104261Y-118511291D01*
X110104261Y-119233627D01*
X109596261Y-119233627D01*
X109596261Y-118115743D01*
X109616263Y-118047622D01*
X109669919Y-118001129D01*
X109722261Y-117989743D01*
X111065145Y-117989743D01*
X111080384Y-117985268D01*
X111081589Y-117983878D01*
X111083260Y-117976195D01*
X111083260Y-117946648D01*
X111082923Y-117940129D01*
X111073004Y-117844537D01*
X111070112Y-117831143D01*
X111018673Y-117676959D01*
X111012500Y-117663781D01*
X110927198Y-117525936D01*
X110918162Y-117514535D01*
X110803433Y-117400005D01*
X110794499Y-117392949D01*
X110753438Y-117335031D01*
X110750208Y-117264108D01*
X110785835Y-117202697D01*
X110793668Y-117195897D01*
X110799609Y-117192221D01*
X110924566Y-117067046D01*
X110947446Y-117029928D01*
X111013536Y-116922711D01*
X111013537Y-116922709D01*
X111017376Y-116916481D01*
X111073058Y-116748604D01*
X111076459Y-116715416D01*
X111078170Y-116698712D01*
X111083761Y-116644143D01*
X111083761Y-116061166D01*
X111103763Y-115993045D01*
X111120666Y-115972070D01*
X111374052Y-115718685D01*
X111382371Y-115711115D01*
X111388867Y-115706993D01*
X111435650Y-115657174D01*
X111438404Y-115654333D01*
X111458203Y-115634534D01*
X111460627Y-115631409D01*
X111460635Y-115631400D01*
X111460701Y-115631314D01*
X111468409Y-115622289D01*
X111493354Y-115595725D01*
X111498781Y-115589946D01*
X111508587Y-115572109D01*
X111519437Y-115555593D01*
X111531914Y-115539507D01*
X111549540Y-115498774D01*
X111554757Y-115488126D01*
X111572313Y-115456191D01*
X111576133Y-115449243D01*
X111578104Y-115441568D01*
X111578106Y-115441562D01*
X111581195Y-115429529D01*
X111587598Y-115410827D01*
X111595681Y-115392148D01*
X111602624Y-115348313D01*
X111605031Y-115336691D01*
X111606142Y-115332364D01*
X111616064Y-115293722D01*
X111616064Y-115273375D01*
X111617615Y-115253664D01*
X111619559Y-115241390D01*
X111620799Y-115233561D01*
X111616623Y-115189384D01*
X111616064Y-115177526D01*
X111616064Y-108623803D01*
X122964637Y-108623803D01*
X122970364Y-108631453D01*
X123141519Y-108736338D01*
X123150314Y-108740820D01*
X123360465Y-108827867D01*
X123369850Y-108830916D01*
X123591031Y-108884018D01*
X123600778Y-108885561D01*
X123827547Y-108903408D01*
X123837407Y-108903408D01*
X124064176Y-108885561D01*
X124073923Y-108884018D01*
X124295104Y-108830916D01*
X124304489Y-108827867D01*
X124514640Y-108740820D01*
X124523435Y-108736338D01*
X124690922Y-108633701D01*
X124700384Y-108623243D01*
X124696601Y-108614467D01*
X123845289Y-107763155D01*
X123831345Y-107755541D01*
X123829512Y-107755672D01*
X123822897Y-107759923D01*
X122971397Y-108611423D01*
X122964637Y-108623803D01*
X111616064Y-108623803D01*
X111616064Y-107396063D01*
X122320202Y-107396063D01*
X122338049Y-107622832D01*
X122339592Y-107632579D01*
X122392694Y-107853760D01*
X122395743Y-107863145D01*
X122482790Y-108073296D01*
X122487272Y-108082091D01*
X122589909Y-108249578D01*
X122600367Y-108259040D01*
X122609143Y-108255257D01*
X123460455Y-107403945D01*
X123466833Y-107392265D01*
X124196885Y-107392265D01*
X124197016Y-107394098D01*
X124201267Y-107400713D01*
X125052767Y-108252213D01*
X125065147Y-108258973D01*
X125072797Y-108253246D01*
X125177682Y-108082091D01*
X125182164Y-108073296D01*
X125269211Y-107863145D01*
X125272260Y-107853760D01*
X125325362Y-107632579D01*
X125326905Y-107622832D01*
X125344752Y-107396063D01*
X125344752Y-107386203D01*
X125326905Y-107159434D01*
X125325362Y-107149687D01*
X125272260Y-106928506D01*
X125269211Y-106919121D01*
X125182164Y-106708970D01*
X125177682Y-106700175D01*
X125075045Y-106532688D01*
X125064587Y-106523226D01*
X125055811Y-106527009D01*
X124204499Y-107378321D01*
X124196885Y-107392265D01*
X123466833Y-107392265D01*
X123468069Y-107390001D01*
X123467938Y-107388168D01*
X123463687Y-107381553D01*
X122612187Y-106530053D01*
X122599807Y-106523293D01*
X122592157Y-106529020D01*
X122487272Y-106700175D01*
X122482790Y-106708970D01*
X122395743Y-106919121D01*
X122392694Y-106928506D01*
X122339592Y-107149687D01*
X122338049Y-107159434D01*
X122320202Y-107386203D01*
X122320202Y-107396063D01*
X111616064Y-107396063D01*
X111616064Y-106159023D01*
X122964570Y-106159023D01*
X122968353Y-106167799D01*
X123819665Y-107019111D01*
X123833609Y-107026725D01*
X123835442Y-107026594D01*
X123842057Y-107022343D01*
X124693557Y-106170843D01*
X124700317Y-106158463D01*
X124694590Y-106150813D01*
X124523435Y-106045928D01*
X124514640Y-106041446D01*
X124304489Y-105954399D01*
X124295104Y-105951350D01*
X124073923Y-105898248D01*
X124064176Y-105896705D01*
X123837407Y-105878858D01*
X123827547Y-105878858D01*
X123600778Y-105896705D01*
X123591031Y-105898248D01*
X123369850Y-105951350D01*
X123360465Y-105954399D01*
X123150314Y-106041446D01*
X123141519Y-106045928D01*
X122974032Y-106148565D01*
X122964570Y-106159023D01*
X111616064Y-106159023D01*
X111616064Y-101334669D01*
X114052001Y-101334669D01*
X114052371Y-101341490D01*
X114057895Y-101392352D01*
X114061521Y-101407604D01*
X114106676Y-101528054D01*
X114115214Y-101543649D01*
X114191715Y-101645724D01*
X114204276Y-101658285D01*
X114306351Y-101734786D01*
X114321946Y-101743324D01*
X114442394Y-101788478D01*
X114457649Y-101792105D01*
X114508514Y-101797631D01*
X114515328Y-101798000D01*
X115137885Y-101798000D01*
X115153124Y-101793525D01*
X115154329Y-101792135D01*
X115156000Y-101784452D01*
X115156000Y-101779884D01*
X115664000Y-101779884D01*
X115668475Y-101795123D01*
X115669865Y-101796328D01*
X115677548Y-101797999D01*
X116304669Y-101797999D01*
X116311490Y-101797629D01*
X116362352Y-101792105D01*
X116377604Y-101788479D01*
X116498054Y-101743324D01*
X116513649Y-101734786D01*
X116615724Y-101658285D01*
X116628285Y-101645724D01*
X116704786Y-101543649D01*
X116713324Y-101528054D01*
X116758478Y-101407606D01*
X116762105Y-101392351D01*
X116767631Y-101341486D01*
X116768000Y-101334672D01*
X116768000Y-101237115D01*
X116763525Y-101221876D01*
X116762135Y-101220671D01*
X116754452Y-101219000D01*
X115682115Y-101219000D01*
X115666876Y-101223475D01*
X115665671Y-101224865D01*
X115664000Y-101232548D01*
X115664000Y-101779884D01*
X115156000Y-101779884D01*
X115156000Y-101237115D01*
X115151525Y-101221876D01*
X115150135Y-101220671D01*
X115142452Y-101219000D01*
X114070116Y-101219000D01*
X114054877Y-101223475D01*
X114053672Y-101224865D01*
X114052001Y-101232548D01*
X114052001Y-101334669D01*
X111616064Y-101334669D01*
X111616064Y-98796605D01*
X111616594Y-98785366D01*
X111618273Y-98777854D01*
X111616126Y-98709542D01*
X111616064Y-98705585D01*
X111616064Y-98677590D01*
X111615556Y-98673567D01*
X111614623Y-98661725D01*
X111613478Y-98625293D01*
X111613229Y-98617368D01*
X111607551Y-98597824D01*
X111603541Y-98578461D01*
X111601984Y-98566133D01*
X111601984Y-98566131D01*
X111600991Y-98558274D01*
X111598075Y-98550910D01*
X111598074Y-98550905D01*
X111584657Y-98517017D01*
X111580812Y-98505788D01*
X111570645Y-98470795D01*
X111568433Y-98463180D01*
X111562606Y-98453327D01*
X111558076Y-98445667D01*
X111549376Y-98427909D01*
X111544803Y-98416358D01*
X111544799Y-98416352D01*
X111541883Y-98408985D01*
X111515798Y-98373082D01*
X111509283Y-98363163D01*
X111490738Y-98331805D01*
X111490735Y-98331801D01*
X111486698Y-98324975D01*
X111472314Y-98310591D01*
X111459473Y-98295557D01*
X111452166Y-98285500D01*
X111447506Y-98279086D01*
X111413308Y-98250795D01*
X111404539Y-98242816D01*
X110515806Y-97354082D01*
X110481782Y-97291772D01*
X110486847Y-97220956D01*
X110529394Y-97164121D01*
X110595914Y-97139310D01*
X110604903Y-97138989D01*
X113925500Y-97138989D01*
X113993621Y-97158991D01*
X114040114Y-97212647D01*
X114051500Y-97264989D01*
X114051500Y-97528134D01*
X114058255Y-97590316D01*
X114061029Y-97597715D01*
X114105313Y-97715842D01*
X114109385Y-97726705D01*
X114112727Y-97731164D01*
X114127530Y-97798848D01*
X114112933Y-97848561D01*
X114109385Y-97853295D01*
X114106236Y-97861696D01*
X114106234Y-97861699D01*
X114079584Y-97932788D01*
X114058255Y-97989684D01*
X114051500Y-98051866D01*
X114051500Y-98798134D01*
X114058255Y-98860316D01*
X114061029Y-98867715D01*
X114103745Y-98981660D01*
X114109385Y-98996705D01*
X114112727Y-99001164D01*
X114127530Y-99068848D01*
X114112933Y-99118561D01*
X114109385Y-99123295D01*
X114106236Y-99131696D01*
X114106234Y-99131699D01*
X114091047Y-99172212D01*
X114058255Y-99259684D01*
X114051500Y-99321866D01*
X114051500Y-100068134D01*
X114058255Y-100130316D01*
X114109385Y-100266705D01*
X114112971Y-100271490D01*
X114127818Y-100339374D01*
X114112649Y-100391035D01*
X114106677Y-100401942D01*
X114061522Y-100522394D01*
X114057895Y-100537649D01*
X114052369Y-100588514D01*
X114052000Y-100595328D01*
X114052000Y-100692885D01*
X114056475Y-100708124D01*
X114057865Y-100709329D01*
X114065548Y-100711000D01*
X116749884Y-100711000D01*
X116765123Y-100706525D01*
X116766328Y-100705135D01*
X116767999Y-100697452D01*
X116767999Y-100595331D01*
X116767629Y-100588510D01*
X116762105Y-100537648D01*
X116758479Y-100522396D01*
X116713323Y-100401942D01*
X116707351Y-100391035D01*
X116692182Y-100321678D01*
X116706847Y-100271732D01*
X116710615Y-100266705D01*
X116761745Y-100130316D01*
X116768500Y-100068134D01*
X116768500Y-99321866D01*
X116761745Y-99259684D01*
X116758971Y-99252285D01*
X116758970Y-99252279D01*
X116750891Y-99230728D01*
X116745708Y-99159921D01*
X116779630Y-99097552D01*
X116841886Y-99063424D01*
X116868873Y-99060500D01*
X122475980Y-99060500D01*
X122487214Y-99061030D01*
X122494719Y-99062708D01*
X122563012Y-99060562D01*
X122566969Y-99060500D01*
X122594983Y-99060500D01*
X122598908Y-99060004D01*
X122598909Y-99060004D01*
X122599004Y-99059992D01*
X122610849Y-99059059D01*
X122640670Y-99058122D01*
X122647282Y-99057914D01*
X122647283Y-99057914D01*
X122655205Y-99057665D01*
X122674749Y-99051987D01*
X122694112Y-99047977D01*
X122706440Y-99046420D01*
X122706442Y-99046420D01*
X122714299Y-99045427D01*
X122721663Y-99042511D01*
X122721668Y-99042510D01*
X122755556Y-99029093D01*
X122766785Y-99025248D01*
X122783465Y-99020402D01*
X122809393Y-99012869D01*
X122816220Y-99008831D01*
X122816223Y-99008830D01*
X122826906Y-99002512D01*
X122844664Y-98993812D01*
X122856215Y-98989239D01*
X122856221Y-98989235D01*
X122863588Y-98986319D01*
X122899491Y-98960234D01*
X122909410Y-98953719D01*
X122940768Y-98935174D01*
X122940772Y-98935171D01*
X122947598Y-98931134D01*
X122961982Y-98916750D01*
X122977016Y-98903909D01*
X122987073Y-98896602D01*
X122993487Y-98891942D01*
X123021778Y-98857744D01*
X123029767Y-98848965D01*
X124413328Y-97465405D01*
X124475640Y-97431379D01*
X124502423Y-97428500D01*
X124555487Y-97428500D01*
X124561939Y-97427128D01*
X124561944Y-97427128D01*
X124648888Y-97408647D01*
X124742288Y-97388794D01*
X124748319Y-97386109D01*
X124910722Y-97313803D01*
X124910724Y-97313802D01*
X124916752Y-97311118D01*
X124943380Y-97291772D01*
X124980243Y-97264989D01*
X125071253Y-97198866D01*
X125107157Y-97158991D01*
X125194621Y-97061852D01*
X125194625Y-97061847D01*
X125199040Y-97056944D01*
X125294527Y-96891556D01*
X125353542Y-96709928D01*
X125373504Y-96520000D01*
X125353542Y-96330072D01*
X125294527Y-96148444D01*
X125282137Y-96126983D01*
X125229923Y-96036547D01*
X125199040Y-95983056D01*
X125159476Y-95939115D01*
X125075675Y-95846045D01*
X125075674Y-95846044D01*
X125071253Y-95841134D01*
X124916752Y-95728882D01*
X124910724Y-95726198D01*
X124910722Y-95726197D01*
X124748319Y-95653891D01*
X124748318Y-95653891D01*
X124742288Y-95651206D01*
X124648888Y-95631353D01*
X124561944Y-95612872D01*
X124561939Y-95612872D01*
X124555487Y-95611500D01*
X124364513Y-95611500D01*
X124358061Y-95612872D01*
X124358056Y-95612872D01*
X124271112Y-95631353D01*
X124177712Y-95651206D01*
X124171682Y-95653891D01*
X124171681Y-95653891D01*
X124009278Y-95726197D01*
X124009276Y-95726198D01*
X124003248Y-95728882D01*
X123848747Y-95841134D01*
X123844326Y-95846044D01*
X123844325Y-95846045D01*
X123760525Y-95939115D01*
X123720960Y-95983056D01*
X123690077Y-96036547D01*
X123637864Y-96126983D01*
X123625473Y-96148444D01*
X123566458Y-96330072D01*
X123565768Y-96336633D01*
X123565768Y-96336635D01*
X123549425Y-96492133D01*
X123522412Y-96557790D01*
X123513219Y-96568049D01*
X122759073Y-97322195D01*
X122707867Y-97350155D01*
X122693982Y-97385818D01*
X122683309Y-97397958D01*
X122328670Y-97752597D01*
X122266360Y-97786621D01*
X122239577Y-97789500D01*
X116868873Y-97789500D01*
X116800752Y-97769498D01*
X116754259Y-97715842D01*
X116744155Y-97645568D01*
X116750891Y-97619272D01*
X116758970Y-97597721D01*
X116758972Y-97597714D01*
X116761745Y-97590316D01*
X116768500Y-97528134D01*
X116768500Y-97264989D01*
X116788502Y-97196868D01*
X116842158Y-97150375D01*
X116894500Y-97138989D01*
X121198735Y-97138989D01*
X121266856Y-97158991D01*
X121292370Y-97180678D01*
X121308747Y-97198866D01*
X121314089Y-97202747D01*
X121314091Y-97202749D01*
X121457906Y-97307237D01*
X121463248Y-97311118D01*
X121469276Y-97313802D01*
X121469278Y-97313803D01*
X121631681Y-97386109D01*
X121637712Y-97388794D01*
X121731112Y-97408647D01*
X121818056Y-97427128D01*
X121818061Y-97427128D01*
X121824513Y-97428500D01*
X122015487Y-97428500D01*
X122021939Y-97427128D01*
X122021944Y-97427128D01*
X122108888Y-97408647D01*
X122202288Y-97388794D01*
X122208319Y-97386109D01*
X122370722Y-97313803D01*
X122370724Y-97313802D01*
X122376752Y-97311118D01*
X122382094Y-97307237D01*
X122520141Y-97206940D01*
X122554622Y-97194637D01*
X122559391Y-97172713D01*
X122576338Y-97148794D01*
X122659040Y-97056944D01*
X122754527Y-96891556D01*
X122813542Y-96709928D01*
X122833504Y-96520000D01*
X122813542Y-96330072D01*
X122754527Y-96148444D01*
X122742137Y-96126983D01*
X122689923Y-96036547D01*
X122659040Y-95983056D01*
X122619476Y-95939115D01*
X122535675Y-95846045D01*
X122535674Y-95846044D01*
X122531253Y-95841134D01*
X122376752Y-95728882D01*
X122370724Y-95726198D01*
X122370722Y-95726197D01*
X122208319Y-95653891D01*
X122208318Y-95653891D01*
X122202288Y-95651206D01*
X122108888Y-95631353D01*
X122021944Y-95612872D01*
X122021939Y-95612872D01*
X122015487Y-95611500D01*
X121824513Y-95611500D01*
X121818061Y-95612872D01*
X121818056Y-95612872D01*
X121731112Y-95631353D01*
X121637712Y-95651206D01*
X121631682Y-95653891D01*
X121631681Y-95653891D01*
X121469278Y-95726197D01*
X121469276Y-95726198D01*
X121463248Y-95728882D01*
X121457907Y-95732762D01*
X121457906Y-95732763D01*
X121366406Y-95799242D01*
X121308747Y-95841134D01*
X121307628Y-95839594D01*
X121251883Y-95866343D01*
X121231586Y-95867989D01*
X107005472Y-95867989D01*
X106981863Y-95865757D01*
X106981498Y-95865687D01*
X106981493Y-95865687D01*
X106973710Y-95864202D01*
X106917476Y-95867740D01*
X106909564Y-95867989D01*
X106893506Y-95867989D01*
X106889572Y-95868486D01*
X106889571Y-95868486D01*
X106877566Y-95870002D01*
X106869690Y-95870746D01*
X106821373Y-95873786D01*
X106821371Y-95873786D01*
X106813462Y-95874284D01*
X106805924Y-95876733D01*
X106805920Y-95876734D01*
X106805569Y-95876848D01*
X106782433Y-95882020D01*
X106782054Y-95882068D01*
X106782049Y-95882069D01*
X106774190Y-95883062D01*
X106766825Y-95885978D01*
X106766821Y-95885979D01*
X106721789Y-95903809D01*
X106714339Y-95906491D01*
X106668295Y-95921451D01*
X106668292Y-95921452D01*
X106660756Y-95923901D01*
X106654069Y-95928144D01*
X106654066Y-95928146D01*
X106653747Y-95928349D01*
X106632617Y-95939115D01*
X106624901Y-95942170D01*
X106618487Y-95946830D01*
X106579312Y-95975292D01*
X106572766Y-95979740D01*
X106531885Y-96005684D01*
X106531882Y-96005687D01*
X106525186Y-96009936D01*
X106519508Y-96015983D01*
X106501713Y-96031671D01*
X106495002Y-96036547D01*
X106469756Y-96067064D01*
X106459085Y-96079963D01*
X106453853Y-96085897D01*
X106428008Y-96113420D01*
X106415272Y-96126983D01*
X106411454Y-96133927D01*
X106411453Y-96133929D01*
X106411273Y-96134257D01*
X106397945Y-96153868D01*
X106397711Y-96154151D01*
X106397708Y-96154155D01*
X106392654Y-96160265D01*
X106389278Y-96167440D01*
X106368661Y-96211253D01*
X106365079Y-96218285D01*
X106337920Y-96267686D01*
X106335950Y-96275360D01*
X106335949Y-96275362D01*
X106335857Y-96275722D01*
X106327823Y-96298037D01*
X106327665Y-96298373D01*
X106324289Y-96305548D01*
X106322804Y-96313333D01*
X106322803Y-96313336D01*
X106313730Y-96360901D01*
X106312003Y-96368626D01*
X106297989Y-96423207D01*
X106297989Y-96431506D01*
X106295757Y-96455115D01*
X106295687Y-96455480D01*
X106295687Y-96455485D01*
X106294202Y-96463268D01*
X106294700Y-96471179D01*
X106297740Y-96519502D01*
X106297989Y-96527414D01*
X106297989Y-97694469D01*
X106297459Y-97705703D01*
X106295781Y-97713208D01*
X106296030Y-97721127D01*
X106297927Y-97781501D01*
X106297989Y-97785458D01*
X106297989Y-97813472D01*
X106298485Y-97817397D01*
X106298485Y-97817398D01*
X106298497Y-97817493D01*
X106299430Y-97829338D01*
X106300824Y-97873694D01*
X106303036Y-97881306D01*
X106306502Y-97893237D01*
X106310512Y-97912601D01*
X106313062Y-97932788D01*
X106315978Y-97940152D01*
X106315979Y-97940157D01*
X106329396Y-97974045D01*
X106333241Y-97985274D01*
X106336336Y-97995926D01*
X106345620Y-98027882D01*
X106349658Y-98034709D01*
X106349659Y-98034712D01*
X106355977Y-98045395D01*
X106364677Y-98063153D01*
X106369250Y-98074704D01*
X106369254Y-98074710D01*
X106372170Y-98082077D01*
X106376828Y-98088488D01*
X106376829Y-98088490D01*
X106398253Y-98117977D01*
X106404770Y-98127899D01*
X106423315Y-98159257D01*
X106423318Y-98159261D01*
X106427355Y-98166087D01*
X106441739Y-98180471D01*
X106454580Y-98195505D01*
X106466547Y-98211976D01*
X106472655Y-98217029D01*
X106500744Y-98240266D01*
X106509524Y-98248256D01*
X106714595Y-98453327D01*
X106748621Y-98515639D01*
X106751500Y-98542422D01*
X106751500Y-98798134D01*
X106758255Y-98860316D01*
X106761029Y-98867715D01*
X106803745Y-98981660D01*
X106809385Y-98996705D01*
X106812727Y-99001164D01*
X106827530Y-99068848D01*
X106812933Y-99118561D01*
X106809385Y-99123295D01*
X106806236Y-99131696D01*
X106806234Y-99131699D01*
X106791047Y-99172212D01*
X106758255Y-99259684D01*
X106751500Y-99321866D01*
X106751500Y-99577577D01*
X106731498Y-99645698D01*
X106714595Y-99666672D01*
X103746517Y-102634750D01*
X103738191Y-102642326D01*
X103731697Y-102646447D01*
X103726274Y-102652222D01*
X103684915Y-102696265D01*
X103682160Y-102699107D01*
X103662361Y-102718906D01*
X103659937Y-102722031D01*
X103659929Y-102722040D01*
X103659863Y-102722126D01*
X103652155Y-102731151D01*
X103621783Y-102763494D01*
X103617965Y-102770438D01*
X103617964Y-102770440D01*
X103611978Y-102781329D01*
X103601127Y-102797847D01*
X103588650Y-102813933D01*
X103571024Y-102854666D01*
X103565807Y-102865314D01*
X103544431Y-102904197D01*
X103542460Y-102911872D01*
X103542458Y-102911878D01*
X103539369Y-102923911D01*
X103532966Y-102942613D01*
X103524883Y-102961292D01*
X103522294Y-102977638D01*
X103517940Y-103005127D01*
X103515535Y-103016740D01*
X103504500Y-103059718D01*
X103504500Y-103080065D01*
X103502949Y-103099776D01*
X103499765Y-103119879D01*
X103500511Y-103127771D01*
X103503941Y-103164056D01*
X103504500Y-103175914D01*
X103504500Y-105979697D01*
X103484498Y-106047818D01*
X103472136Y-106064006D01*
X103400960Y-106143056D01*
X103305473Y-106308444D01*
X103246458Y-106490072D01*
X103226496Y-106680000D01*
X103227186Y-106686565D01*
X103231049Y-106723315D01*
X103246458Y-106869928D01*
X103305473Y-107051556D01*
X103400960Y-107216944D01*
X103528747Y-107358866D01*
X103683248Y-107471118D01*
X103689276Y-107473802D01*
X103689278Y-107473803D01*
X103777849Y-107513237D01*
X103857712Y-107548794D01*
X103951113Y-107568647D01*
X104038056Y-107587128D01*
X104038061Y-107587128D01*
X104044513Y-107588500D01*
X104235487Y-107588500D01*
X104241939Y-107587128D01*
X104241944Y-107587128D01*
X104328888Y-107568647D01*
X104422288Y-107548794D01*
X104502151Y-107513237D01*
X104590722Y-107473803D01*
X104590724Y-107473802D01*
X104596752Y-107471118D01*
X104751253Y-107358866D01*
X104879040Y-107216944D01*
X104974527Y-107051556D01*
X105033542Y-106869928D01*
X105048952Y-106723315D01*
X105052814Y-106686565D01*
X105053504Y-106680000D01*
X105033542Y-106490072D01*
X104974527Y-106308444D01*
X104879040Y-106143056D01*
X104807864Y-106064007D01*
X104777146Y-106000000D01*
X104775500Y-105979697D01*
X104775500Y-103455422D01*
X104795502Y-103387301D01*
X104812405Y-103366327D01*
X106634926Y-101543806D01*
X106697238Y-101509780D01*
X106768053Y-101514845D01*
X106824847Y-101557336D01*
X106896739Y-101653261D01*
X107013295Y-101740615D01*
X107149684Y-101791745D01*
X107211866Y-101798500D01*
X107348500Y-101798500D01*
X107416621Y-101818502D01*
X107463114Y-101872158D01*
X107474500Y-101924500D01*
X107474500Y-102950980D01*
X107473970Y-102962214D01*
X107472292Y-102969719D01*
X107472541Y-102977638D01*
X107474438Y-103038012D01*
X107474500Y-103041969D01*
X107474500Y-103069983D01*
X107474996Y-103073908D01*
X107474996Y-103073909D01*
X107475008Y-103074004D01*
X107475941Y-103085849D01*
X107477335Y-103130205D01*
X107479547Y-103137817D01*
X107483013Y-103149748D01*
X107487023Y-103169112D01*
X107489573Y-103189299D01*
X107492489Y-103196663D01*
X107492490Y-103196668D01*
X107505907Y-103230556D01*
X107509752Y-103241785D01*
X107522131Y-103284393D01*
X107526169Y-103291220D01*
X107526170Y-103291223D01*
X107532488Y-103301906D01*
X107541188Y-103319664D01*
X107545761Y-103331215D01*
X107545765Y-103331221D01*
X107548681Y-103338588D01*
X107568835Y-103366327D01*
X107574764Y-103374488D01*
X107581281Y-103384410D01*
X107599826Y-103415768D01*
X107599829Y-103415772D01*
X107603866Y-103422598D01*
X107618250Y-103436982D01*
X107631091Y-103452016D01*
X107643058Y-103468487D01*
X107649166Y-103473540D01*
X107677255Y-103496777D01*
X107686035Y-103504767D01*
X108273210Y-104091942D01*
X108307236Y-104154254D01*
X108309425Y-104167865D01*
X108326458Y-104329928D01*
X108385473Y-104511556D01*
X108480960Y-104676944D01*
X108608747Y-104818866D01*
X108763248Y-104931118D01*
X108769276Y-104933802D01*
X108769278Y-104933803D01*
X108931681Y-105006109D01*
X108937712Y-105008794D01*
X109031113Y-105028647D01*
X109118056Y-105047128D01*
X109118061Y-105047128D01*
X109124513Y-105048500D01*
X109315487Y-105048500D01*
X109321939Y-105047128D01*
X109321944Y-105047128D01*
X109408888Y-105028647D01*
X109502288Y-105008794D01*
X109508319Y-105006109D01*
X109670722Y-104933803D01*
X109670724Y-104933802D01*
X109676752Y-104931118D01*
X109831253Y-104818866D01*
X109959040Y-104676944D01*
X110054527Y-104511556D01*
X110099231Y-104373972D01*
X110139305Y-104315366D01*
X110204701Y-104287729D01*
X110274658Y-104299836D01*
X110326964Y-104347842D01*
X110345064Y-104412908D01*
X110345064Y-110861605D01*
X110325062Y-110929726D01*
X110271406Y-110976219D01*
X110219064Y-110987605D01*
X110201159Y-110987605D01*
X110185920Y-110992080D01*
X110184715Y-110993470D01*
X110183044Y-111001153D01*
X110183044Y-112123605D01*
X110163042Y-112191726D01*
X110109386Y-112238219D01*
X110057044Y-112249605D01*
X108714160Y-112249605D01*
X108698921Y-112254080D01*
X108697716Y-112255470D01*
X108696045Y-112263153D01*
X108696045Y-112292700D01*
X108696382Y-112299219D01*
X108706301Y-112394811D01*
X108709193Y-112408205D01*
X108760632Y-112562389D01*
X108766805Y-112575567D01*
X108852107Y-112713412D01*
X108861143Y-112724813D01*
X108975872Y-112839343D01*
X108984806Y-112846399D01*
X109025867Y-112904317D01*
X109029097Y-112975240D01*
X108993470Y-113036651D01*
X108985637Y-113043451D01*
X108979696Y-113047127D01*
X108854739Y-113172302D01*
X108850899Y-113178532D01*
X108850898Y-113178533D01*
X108766010Y-113316247D01*
X108761929Y-113322867D01*
X108706247Y-113490744D01*
X108695544Y-113595205D01*
X108695544Y-114178182D01*
X108675542Y-114246303D01*
X108658639Y-114267277D01*
X107496589Y-115429327D01*
X107434277Y-115463353D01*
X107380711Y-115463352D01*
X107356977Y-115458189D01*
X105773051Y-115458189D01*
X105704930Y-115438187D01*
X105690539Y-115427414D01*
X105665264Y-115405513D01*
X105532255Y-115344770D01*
X105387521Y-115323960D01*
X102262521Y-115323960D01*
X102253545Y-115324602D01*
X102196148Y-115328707D01*
X102196147Y-115328707D01*
X102189410Y-115329189D01*
X102109903Y-115352534D01*
X102057756Y-115367846D01*
X102057754Y-115367847D01*
X102049110Y-115370385D01*
X102041531Y-115375256D01*
X101933680Y-115444567D01*
X101933677Y-115444569D01*
X101926100Y-115449439D01*
X101920199Y-115456249D01*
X101836247Y-115553134D01*
X101836245Y-115553137D01*
X101830345Y-115559946D01*
X101769602Y-115692955D01*
X101748792Y-115837689D01*
X101748792Y-115942689D01*
X101728790Y-116010810D01*
X101675134Y-116057303D01*
X101622792Y-116068689D01*
X88309279Y-116068689D01*
X88298050Y-116068160D01*
X88290540Y-116066481D01*
X88282614Y-116066730D01*
X88282613Y-116066730D01*
X88222261Y-116068627D01*
X88218303Y-116068689D01*
X88190276Y-116068689D01*
X88186230Y-116069200D01*
X88174402Y-116070131D01*
X88130054Y-116071525D01*
X88122436Y-116073738D01*
X88122437Y-116073738D01*
X88110513Y-116077202D01*
X88091153Y-116081211D01*
X88078825Y-116082768D01*
X88078822Y-116082769D01*
X88070960Y-116083762D01*
X88063594Y-116086679D01*
X88063588Y-116086680D01*
X88029698Y-116100098D01*
X88018471Y-116103942D01*
X87975866Y-116116320D01*
X87969047Y-116120353D01*
X87969042Y-116120355D01*
X87958350Y-116126679D01*
X87940600Y-116135376D01*
X87921671Y-116142870D01*
X87889774Y-116166045D01*
X87885778Y-116168948D01*
X87875854Y-116175467D01*
X87844483Y-116194019D01*
X87844478Y-116194023D01*
X87837660Y-116198055D01*
X87823273Y-116212442D01*
X87808239Y-116225283D01*
X87791772Y-116237247D01*
X87786719Y-116243355D01*
X87763487Y-116271438D01*
X87755497Y-116280218D01*
X86341987Y-117693728D01*
X86279675Y-117727754D01*
X86208664Y-117722615D01*
X86180836Y-117712183D01*
X86172988Y-117711330D01*
X86172986Y-117711330D01*
X86122051Y-117705797D01*
X86118654Y-117705428D01*
X84822386Y-117705428D01*
X84760204Y-117712183D01*
X84623815Y-117763313D01*
X84507259Y-117850667D01*
X84419905Y-117967223D01*
X84368775Y-118103612D01*
X84362020Y-118165794D01*
X84362020Y-120762062D01*
X84368775Y-120824244D01*
X84419905Y-120960633D01*
X84507259Y-121077189D01*
X84623815Y-121164543D01*
X84632224Y-121167695D01*
X84632225Y-121167696D01*
X84753249Y-121213066D01*
X84810014Y-121255707D01*
X84834714Y-121322269D01*
X84835020Y-121331048D01*
X84835020Y-123096808D01*
X84815018Y-123164929D01*
X84761362Y-123211422D01*
X84753249Y-123214790D01*
X84632225Y-123260160D01*
X84632224Y-123260161D01*
X84623815Y-123263313D01*
X84507259Y-123350667D01*
X84419905Y-123467223D01*
X84368775Y-123603612D01*
X84362020Y-123665794D01*
X84362020Y-126262062D01*
X82961925Y-126262062D01*
X82961925Y-114932074D01*
X105054521Y-114932074D01*
X105058996Y-114947313D01*
X105060386Y-114948518D01*
X105068069Y-114950189D01*
X105940406Y-114950189D01*
X105955645Y-114945714D01*
X105956850Y-114944324D01*
X105958521Y-114936641D01*
X105958521Y-114932074D01*
X106466521Y-114932074D01*
X106470996Y-114947313D01*
X106472386Y-114948518D01*
X106480069Y-114950189D01*
X107352405Y-114950189D01*
X107367644Y-114945714D01*
X107368849Y-114944324D01*
X107370520Y-114936641D01*
X107370520Y-114709520D01*
X107370150Y-114702699D01*
X107364626Y-114651837D01*
X107361000Y-114636585D01*
X107315845Y-114516135D01*
X107307307Y-114500540D01*
X107230806Y-114398465D01*
X107218245Y-114385904D01*
X107116170Y-114309403D01*
X107100575Y-114300865D01*
X106980127Y-114255711D01*
X106964872Y-114252084D01*
X106914007Y-114246558D01*
X106907193Y-114246189D01*
X106484636Y-114246189D01*
X106469397Y-114250664D01*
X106468192Y-114252054D01*
X106466521Y-114259737D01*
X106466521Y-114932074D01*
X105958521Y-114932074D01*
X105958521Y-114264305D01*
X105954046Y-114249066D01*
X105952656Y-114247861D01*
X105944973Y-114246190D01*
X105517852Y-114246190D01*
X105511031Y-114246560D01*
X105460169Y-114252084D01*
X105444917Y-114255710D01*
X105324467Y-114300865D01*
X105308872Y-114309403D01*
X105206797Y-114385904D01*
X105194236Y-114398465D01*
X105117735Y-114500540D01*
X105109197Y-114516135D01*
X105064043Y-114636583D01*
X105060416Y-114651838D01*
X105054890Y-114702703D01*
X105054521Y-114709517D01*
X105054521Y-114932074D01*
X82961925Y-114932074D01*
X82961925Y-114357602D01*
X82961931Y-114356403D01*
X82962378Y-114309403D01*
X82974838Y-113000102D01*
X82974882Y-112997730D01*
X82974889Y-112997508D01*
X82999856Y-112123605D01*
X83011287Y-111723490D01*
X108696044Y-111723490D01*
X108700519Y-111738729D01*
X108701909Y-111739934D01*
X108709592Y-111741605D01*
X109656929Y-111741605D01*
X109672168Y-111737130D01*
X109673373Y-111735740D01*
X109675044Y-111728057D01*
X109675044Y-111005721D01*
X109670569Y-110990482D01*
X109669179Y-110989277D01*
X109661496Y-110987606D01*
X109406949Y-110987606D01*
X109400430Y-110987943D01*
X109304838Y-110997862D01*
X109291444Y-111000754D01*
X109137260Y-111052193D01*
X109124082Y-111058366D01*
X108986237Y-111143668D01*
X108974836Y-111152704D01*
X108860305Y-111267434D01*
X108851293Y-111278845D01*
X108766228Y-111416848D01*
X108760081Y-111430029D01*
X108708906Y-111584315D01*
X108706039Y-111597691D01*
X108696372Y-111692043D01*
X108696044Y-111698460D01*
X108696044Y-111723490D01*
X83011287Y-111723490D01*
X83013360Y-111650939D01*
X83013452Y-111648542D01*
X83069539Y-110471105D01*
X83077277Y-110308673D01*
X83077412Y-110306307D01*
X83078771Y-110285944D01*
X83166346Y-108973508D01*
X83166525Y-108971161D01*
X83170357Y-108926536D01*
X83280326Y-107645673D01*
X83280550Y-107643316D01*
X83281678Y-107632579D01*
X83418975Y-106325388D01*
X83419242Y-106323060D01*
X83420278Y-106314729D01*
X83582024Y-105013138D01*
X83582339Y-105010782D01*
X83582428Y-105010166D01*
X83654016Y-104511556D01*
X83769276Y-103708780D01*
X83769638Y-103706420D01*
X83980437Y-102412927D01*
X83980842Y-102410578D01*
X84127437Y-101607137D01*
X84215316Y-101125502D01*
X84215757Y-101123208D01*
X84254312Y-100932403D01*
X84473627Y-99847013D01*
X84474112Y-99844725D01*
X84755146Y-98577600D01*
X84755658Y-98575388D01*
X85059619Y-97317564D01*
X85060197Y-97315267D01*
X85386823Y-96067064D01*
X85387445Y-96064778D01*
X85736492Y-94826446D01*
X85737155Y-94824174D01*
X85813797Y-94570603D01*
X86108405Y-93595885D01*
X86109098Y-93593667D01*
X86111223Y-93587087D01*
X86491543Y-92409013D01*
X86502280Y-92375755D01*
X86503025Y-92373517D01*
X86917922Y-91166150D01*
X86918709Y-91163929D01*
X87355069Y-89967387D01*
X87355896Y-89965184D01*
X87813471Y-88779737D01*
X87814338Y-88777552D01*
X88292865Y-87603495D01*
X88293771Y-87601329D01*
X88691428Y-86675423D01*
X88793084Y-86438727D01*
X88794017Y-86436608D01*
X88802862Y-86417028D01*
X89313813Y-85285862D01*
X89314797Y-85283737D01*
X89854832Y-84145100D01*
X89855855Y-84142995D01*
X90198084Y-83454729D01*
X90415875Y-83016726D01*
X90416915Y-83014681D01*
X90448563Y-82953891D01*
X90909656Y-82068197D01*
X90996748Y-81900907D01*
X90997846Y-81898844D01*
X91597178Y-80797944D01*
X91598314Y-80795904D01*
X92216882Y-79708164D01*
X92218054Y-79706146D01*
X92855696Y-78631678D01*
X92856905Y-78629683D01*
X93513329Y-77568816D01*
X93514574Y-77566845D01*
X94189567Y-76519789D01*
X94190849Y-76517841D01*
X94236943Y-76449164D01*
X94884083Y-75484971D01*
X94885387Y-75483066D01*
X94888188Y-75479056D01*
X95310884Y-74873782D01*
X95596751Y-74464440D01*
X95598104Y-74462540D01*
X96327256Y-73458553D01*
X96328644Y-73456678D01*
X97075413Y-72467480D01*
X97076836Y-72465631D01*
X97840859Y-71491631D01*
X97842318Y-71489807D01*
X98623480Y-70531091D01*
X98624973Y-70529293D01*
X99422957Y-69586203D01*
X99424484Y-69584432D01*
X100239096Y-68657164D01*
X100240658Y-68655419D01*
X101050841Y-67767045D01*
X101061144Y-67756970D01*
X101082145Y-67738664D01*
X101082149Y-67738660D01*
X101088911Y-67732765D01*
X101123413Y-67678862D01*
X101125341Y-67675940D01*
X101156291Y-67630423D01*
X101161340Y-67622998D01*
X101163555Y-67616147D01*
X101167434Y-67610086D01*
X101185416Y-67548678D01*
X101186447Y-67545332D01*
X101203381Y-67492946D01*
X101206143Y-67484402D01*
X101206346Y-67477205D01*
X101208368Y-67470299D01*
X101208392Y-67406278D01*
X101208442Y-67402799D01*
X101209993Y-67347777D01*
X101210246Y-67338803D01*
X101208421Y-67331840D01*
X101208424Y-67324641D01*
X101190483Y-67263201D01*
X101189548Y-67259825D01*
X101175596Y-67206587D01*
X101175596Y-67206586D01*
X101173320Y-67197903D01*
X101152329Y-67162947D01*
X101146273Y-67151585D01*
X100686988Y-66172367D01*
X100681210Y-66157738D01*
X100349595Y-65135392D01*
X100345686Y-65120157D01*
X100213198Y-64426579D01*
X100144027Y-64064467D01*
X100142047Y-64048869D01*
X100141861Y-64045950D01*
X100073243Y-62972461D01*
X100073138Y-62958247D01*
X100076934Y-62880932D01*
X100114342Y-62118918D01*
X100115553Y-62106615D01*
X100132328Y-61993508D01*
X100185561Y-61634564D01*
X100239518Y-61270741D01*
X100241930Y-61258613D01*
X100447233Y-60438909D01*
X100450822Y-60427076D01*
X100724828Y-59661225D01*
X100735489Y-59631429D01*
X100740219Y-59620010D01*
X100763825Y-59570099D01*
X101041916Y-58982103D01*
X101101490Y-58856140D01*
X101107318Y-58845235D01*
X101456934Y-58261918D01*
X124699537Y-58261918D01*
X124729845Y-58396398D01*
X124732925Y-58406227D01*
X124813050Y-58603555D01*
X124817693Y-58612746D01*
X124928974Y-58794340D01*
X124935057Y-58802651D01*
X125074493Y-58963619D01*
X125081860Y-58970835D01*
X125245714Y-59106868D01*
X125254161Y-59112783D01*
X125438036Y-59220231D01*
X125447322Y-59224681D01*
X125646281Y-59300655D01*
X125656179Y-59303531D01*
X125759530Y-59324558D01*
X125773579Y-59323362D01*
X125777280Y-59313017D01*
X125777280Y-58266067D01*
X125772805Y-58250828D01*
X125771415Y-58249623D01*
X125763732Y-58247952D01*
X124714505Y-58247952D01*
X124700974Y-58251925D01*
X124699537Y-58261918D01*
X101456934Y-58261918D01*
X101541741Y-58120421D01*
X101548611Y-58110139D01*
X101823157Y-57739952D01*
X102051987Y-57431405D01*
X102059829Y-57421850D01*
X102147088Y-57325575D01*
X102364818Y-57085346D01*
X102627306Y-56795735D01*
X102636050Y-56786991D01*
X103036765Y-56423804D01*
X103262170Y-56219510D01*
X103271725Y-56211668D01*
X103324432Y-56172579D01*
X103950461Y-55708291D01*
X103960739Y-55701424D01*
X104144299Y-55591405D01*
X104685532Y-55267010D01*
X104696431Y-55261184D01*
X104888997Y-55170111D01*
X105460347Y-54899895D01*
X105471771Y-54895164D01*
X106267380Y-54610509D01*
X106279214Y-54606919D01*
X107098924Y-54401615D01*
X107111052Y-54399203D01*
X107568108Y-54331419D01*
X107946936Y-54275237D01*
X107959235Y-54274026D01*
X108747880Y-54235310D01*
X108804855Y-54232513D01*
X108816578Y-54232483D01*
X109569997Y-54265671D01*
X109581000Y-54266640D01*
X110065673Y-54330906D01*
X110330269Y-54365991D01*
X110341159Y-54367925D01*
X111078821Y-54532597D01*
X111089499Y-54535478D01*
X111809891Y-54764209D01*
X111820276Y-54768016D01*
X112517814Y-55059032D01*
X112527825Y-55063734D01*
X113197164Y-55414804D01*
X113206723Y-55420366D01*
X113842696Y-55828781D01*
X113851731Y-55835160D01*
X114166644Y-56078895D01*
X114337895Y-56211439D01*
X114446257Y-56295309D01*
X114455742Y-56303433D01*
X114486054Y-56332120D01*
X114494039Y-56336210D01*
X114494043Y-56336213D01*
X114538702Y-56359089D01*
X114543471Y-56361663D01*
X114587130Y-56386453D01*
X114587135Y-56386455D01*
X114594944Y-56390889D01*
X114603423Y-56392891D01*
X114604333Y-56393302D01*
X114606983Y-56394277D01*
X114607944Y-56394555D01*
X114615694Y-56398525D01*
X114624513Y-56400211D01*
X114673827Y-56409639D01*
X114679128Y-56410772D01*
X114727965Y-56422306D01*
X114727967Y-56422306D01*
X114736701Y-56424369D01*
X114745391Y-56423912D01*
X114746387Y-56424051D01*
X114749195Y-56424243D01*
X114750205Y-56424240D01*
X114758760Y-56425876D01*
X114817685Y-56420226D01*
X114823074Y-56419827D01*
X114882157Y-56416719D01*
X114890372Y-56413840D01*
X114891381Y-56413693D01*
X114894122Y-56413090D01*
X114895091Y-56412804D01*
X114903753Y-56411973D01*
X114946802Y-56394775D01*
X114958692Y-56390025D01*
X114963769Y-56388122D01*
X115011150Y-56371519D01*
X115019620Y-56368551D01*
X115026915Y-56363326D01*
X115026919Y-56363324D01*
X115042609Y-56352086D01*
X124672780Y-56352086D01*
X124679535Y-56414268D01*
X124730665Y-56550657D01*
X124818019Y-56667213D01*
X124934575Y-56754567D01*
X124942984Y-56757719D01*
X124942985Y-56757720D01*
X125052240Y-56798678D01*
X125109005Y-56841319D01*
X125133705Y-56907881D01*
X125118498Y-56977230D01*
X125099105Y-57003711D01*
X124975870Y-57132669D01*
X124969384Y-57140679D01*
X124849378Y-57316601D01*
X124844280Y-57325575D01*
X124754618Y-57518735D01*
X124751055Y-57528422D01*
X124695669Y-57728135D01*
X124697192Y-57736559D01*
X124709572Y-57739952D01*
X126159280Y-57739952D01*
X126227401Y-57759954D01*
X126273894Y-57813610D01*
X126285280Y-57865952D01*
X126285280Y-59312469D01*
X126289344Y-59326311D01*
X126302758Y-59328345D01*
X126309464Y-59327486D01*
X126319542Y-59325344D01*
X126410083Y-59298180D01*
X126481079Y-59297763D01*
X126541029Y-59335796D01*
X126570901Y-59400202D01*
X126572291Y-59418866D01*
X126572291Y-61088771D01*
X126571761Y-61100005D01*
X126570083Y-61107510D01*
X126570332Y-61115429D01*
X126572229Y-61175803D01*
X126572291Y-61179760D01*
X126572291Y-61207774D01*
X126572787Y-61211699D01*
X126572787Y-61211700D01*
X126572799Y-61211795D01*
X126573732Y-61223640D01*
X126575126Y-61267996D01*
X126577338Y-61275608D01*
X126580804Y-61287539D01*
X126584814Y-61306903D01*
X126587364Y-61327090D01*
X126590280Y-61334454D01*
X126590281Y-61334459D01*
X126603698Y-61368347D01*
X126607543Y-61379576D01*
X126619922Y-61422184D01*
X126623960Y-61429011D01*
X126623961Y-61429014D01*
X126630279Y-61439697D01*
X126638979Y-61457455D01*
X126643552Y-61469006D01*
X126643556Y-61469012D01*
X126646472Y-61476379D01*
X126651130Y-61482790D01*
X126651131Y-61482792D01*
X126672555Y-61512279D01*
X126679072Y-61522201D01*
X126697617Y-61553559D01*
X126697620Y-61553563D01*
X126701657Y-61560389D01*
X126716041Y-61574773D01*
X126728882Y-61589807D01*
X126740849Y-61606278D01*
X126773055Y-61632921D01*
X126775041Y-61634564D01*
X126783822Y-61642554D01*
X127445356Y-62304089D01*
X127479381Y-62366401D01*
X127482260Y-62393184D01*
X127482260Y-112798740D01*
X127481730Y-112809974D01*
X127480052Y-112817479D01*
X127480301Y-112825398D01*
X127482198Y-112885772D01*
X127482260Y-112889729D01*
X127482260Y-112917743D01*
X127482756Y-112921668D01*
X127482756Y-112921669D01*
X127482768Y-112921764D01*
X127483701Y-112933609D01*
X127485095Y-112977965D01*
X127487307Y-112985577D01*
X127490773Y-112997508D01*
X127494783Y-113016872D01*
X127497333Y-113037059D01*
X127500249Y-113044423D01*
X127500250Y-113044428D01*
X127513667Y-113078316D01*
X127517512Y-113089545D01*
X127529891Y-113132153D01*
X127533929Y-113138980D01*
X127533930Y-113138983D01*
X127540248Y-113149666D01*
X127548948Y-113167424D01*
X127553521Y-113178975D01*
X127553525Y-113178981D01*
X127556441Y-113186348D01*
X127561099Y-113192759D01*
X127561100Y-113192761D01*
X127582524Y-113222248D01*
X127589041Y-113232170D01*
X127607586Y-113263528D01*
X127607589Y-113263532D01*
X127611626Y-113270358D01*
X127626010Y-113284742D01*
X127638851Y-113299776D01*
X127650818Y-113316247D01*
X127656926Y-113321300D01*
X127685015Y-113344537D01*
X127693795Y-113352527D01*
X131133210Y-116791943D01*
X131167236Y-116854255D01*
X131169425Y-116867868D01*
X131186458Y-117029928D01*
X131245473Y-117211556D01*
X131248776Y-117217278D01*
X131248777Y-117217279D01*
X131261563Y-117239425D01*
X131340960Y-117376944D01*
X131345378Y-117381851D01*
X131345379Y-117381852D01*
X131464325Y-117513955D01*
X131468747Y-117518866D01*
X131623248Y-117631118D01*
X131629276Y-117633802D01*
X131629278Y-117633803D01*
X131791681Y-117706109D01*
X131797712Y-117708794D01*
X131886911Y-117727754D01*
X131978056Y-117747128D01*
X131978061Y-117747128D01*
X131984513Y-117748500D01*
X132175487Y-117748500D01*
X132181939Y-117747128D01*
X132181944Y-117747128D01*
X132273089Y-117727754D01*
X132362288Y-117708794D01*
X132368319Y-117706109D01*
X132530722Y-117633803D01*
X132530724Y-117633802D01*
X132536752Y-117631118D01*
X132691253Y-117518866D01*
X132695675Y-117513955D01*
X132814621Y-117381852D01*
X132814622Y-117381851D01*
X132819040Y-117376944D01*
X132898437Y-117239425D01*
X132911223Y-117217279D01*
X132911224Y-117217278D01*
X132914527Y-117211556D01*
X132973542Y-117029928D01*
X132993504Y-116840000D01*
X132978205Y-116694441D01*
X132974232Y-116656635D01*
X132974232Y-116656633D01*
X132973542Y-116650072D01*
X132914527Y-116468444D01*
X132819040Y-116303056D01*
X132759786Y-116237247D01*
X132695675Y-116166045D01*
X132695674Y-116166044D01*
X132691253Y-116161134D01*
X132563929Y-116068627D01*
X132542094Y-116052763D01*
X132542093Y-116052762D01*
X132536752Y-116048882D01*
X132530724Y-116046198D01*
X132530722Y-116046197D01*
X132368319Y-115973891D01*
X132368318Y-115973891D01*
X132362288Y-115971206D01*
X132268888Y-115951353D01*
X132181944Y-115932872D01*
X132181939Y-115932872D01*
X132175487Y-115931500D01*
X132122423Y-115931500D01*
X132054302Y-115911498D01*
X132033328Y-115894595D01*
X128790165Y-112651432D01*
X128756139Y-112589120D01*
X128753260Y-112562337D01*
X128753260Y-88581379D01*
X140993494Y-88581379D01*
X141003062Y-88788100D01*
X141004466Y-88793925D01*
X141004466Y-88793926D01*
X141029616Y-88898281D01*
X141051547Y-88989283D01*
X141054029Y-88994741D01*
X141054030Y-88994745D01*
X141093903Y-89082440D01*
X141137200Y-89177667D01*
X141256931Y-89346456D01*
X141261254Y-89350594D01*
X141261258Y-89350599D01*
X141341320Y-89427241D01*
X141406418Y-89489559D01*
X141411453Y-89492810D01*
X141575232Y-89598561D01*
X141575235Y-89598562D01*
X141580269Y-89601813D01*
X141772210Y-89679168D01*
X141778091Y-89680316D01*
X141778096Y-89680318D01*
X141970870Y-89717964D01*
X141970873Y-89717964D01*
X141975316Y-89718832D01*
X141980755Y-89719098D01*
X142133330Y-89719098D01*
X142287633Y-89704376D01*
X142293387Y-89702688D01*
X142480453Y-89647809D01*
X142480455Y-89647808D01*
X142486206Y-89646121D01*
X142491540Y-89643374D01*
X142664851Y-89554114D01*
X142664854Y-89554112D01*
X142670182Y-89551368D01*
X142832920Y-89423535D01*
X142968550Y-89267235D01*
X143072178Y-89088108D01*
X143140064Y-88892617D01*
X143154374Y-88793926D01*
X143168897Y-88693757D01*
X143168897Y-88693754D01*
X143169758Y-88687817D01*
X143160190Y-88481096D01*
X143123301Y-88328030D01*
X143113111Y-88285746D01*
X143113110Y-88285744D01*
X143111705Y-88279913D01*
X143026052Y-88091529D01*
X142906321Y-87922740D01*
X142901998Y-87918602D01*
X142901994Y-87918597D01*
X142761164Y-87783782D01*
X142756834Y-87779637D01*
X142656856Y-87715082D01*
X142588020Y-87670635D01*
X142588017Y-87670634D01*
X142582983Y-87667383D01*
X142391042Y-87590028D01*
X142385161Y-87588880D01*
X142385156Y-87588878D01*
X142192382Y-87551232D01*
X142192379Y-87551232D01*
X142187936Y-87550364D01*
X142182497Y-87550098D01*
X142029922Y-87550098D01*
X141875619Y-87564820D01*
X141869865Y-87566508D01*
X141682799Y-87621387D01*
X141682797Y-87621388D01*
X141677046Y-87623075D01*
X141671713Y-87625821D01*
X141671712Y-87625822D01*
X141498401Y-87715082D01*
X141498398Y-87715084D01*
X141493070Y-87717828D01*
X141330332Y-87845661D01*
X141194702Y-88001961D01*
X141091074Y-88181088D01*
X141023188Y-88376579D01*
X141022328Y-88382512D01*
X141022327Y-88382515D01*
X140999588Y-88539348D01*
X140993494Y-88581379D01*
X128753260Y-88581379D01*
X128753260Y-71536182D01*
X128773262Y-71468061D01*
X128826918Y-71421568D01*
X128897192Y-71411464D01*
X128961772Y-71440958D01*
X128968355Y-71447087D01*
X136683406Y-79162139D01*
X144107595Y-86586328D01*
X144141621Y-86648640D01*
X144144500Y-86675423D01*
X144144500Y-86963400D01*
X144143970Y-86974634D01*
X144142292Y-86982139D01*
X144142541Y-86990058D01*
X144144438Y-87050432D01*
X144144500Y-87054389D01*
X144144500Y-87082403D01*
X144144996Y-87086328D01*
X144144996Y-87086329D01*
X144145008Y-87086424D01*
X144145941Y-87098269D01*
X144147335Y-87142625D01*
X144149547Y-87150237D01*
X144153013Y-87162168D01*
X144157023Y-87181532D01*
X144159573Y-87201719D01*
X144162489Y-87209083D01*
X144162490Y-87209088D01*
X144175907Y-87242976D01*
X144179752Y-87254205D01*
X144184598Y-87270885D01*
X144192131Y-87296813D01*
X144196169Y-87303640D01*
X144196170Y-87303643D01*
X144202488Y-87314326D01*
X144211188Y-87332084D01*
X144215761Y-87343635D01*
X144215765Y-87343641D01*
X144218681Y-87351008D01*
X144223339Y-87357419D01*
X144223340Y-87357421D01*
X144244764Y-87386908D01*
X144251281Y-87396830D01*
X144269826Y-87428188D01*
X144269829Y-87428192D01*
X144273866Y-87435018D01*
X144288250Y-87449402D01*
X144301091Y-87464436D01*
X144313058Y-87480907D01*
X144333014Y-87497416D01*
X144347250Y-87509193D01*
X144356031Y-87517183D01*
X145132194Y-88293347D01*
X145139764Y-88301666D01*
X145143886Y-88308162D01*
X145149664Y-88313588D01*
X145149665Y-88313589D01*
X145193704Y-88354944D01*
X145196546Y-88357699D01*
X145216345Y-88377498D01*
X145219470Y-88379922D01*
X145219479Y-88379930D01*
X145219565Y-88379996D01*
X145228590Y-88387704D01*
X145260933Y-88418076D01*
X145267877Y-88421894D01*
X145267879Y-88421895D01*
X145278768Y-88427881D01*
X145295286Y-88438732D01*
X145311372Y-88451209D01*
X145352105Y-88468835D01*
X145362753Y-88474052D01*
X145374381Y-88480444D01*
X145401636Y-88495428D01*
X145409311Y-88497399D01*
X145409317Y-88497401D01*
X145421350Y-88500490D01*
X145440052Y-88506893D01*
X145458731Y-88514976D01*
X145492257Y-88520286D01*
X145502566Y-88521919D01*
X145514179Y-88524324D01*
X145557157Y-88535359D01*
X145577504Y-88535359D01*
X145597216Y-88536910D01*
X145617318Y-88540094D01*
X145625210Y-88539348D01*
X145661495Y-88535918D01*
X145673353Y-88535359D01*
X147409236Y-88535359D01*
X147420470Y-88535889D01*
X147427975Y-88537567D01*
X147496268Y-88535421D01*
X147500225Y-88535359D01*
X147528239Y-88535359D01*
X147532164Y-88534863D01*
X147532165Y-88534863D01*
X147532260Y-88534851D01*
X147544105Y-88533918D01*
X147573926Y-88532981D01*
X147580538Y-88532773D01*
X147580539Y-88532773D01*
X147588461Y-88532524D01*
X147608005Y-88526846D01*
X147627368Y-88522836D01*
X147639696Y-88521279D01*
X147639698Y-88521279D01*
X147647555Y-88520286D01*
X147654919Y-88517370D01*
X147654924Y-88517369D01*
X147688812Y-88503952D01*
X147700041Y-88500107D01*
X147716721Y-88495261D01*
X147742649Y-88487728D01*
X147749476Y-88483690D01*
X147749479Y-88483689D01*
X147760162Y-88477371D01*
X147777920Y-88468671D01*
X147789471Y-88464098D01*
X147789477Y-88464094D01*
X147796844Y-88461178D01*
X147806233Y-88454357D01*
X147832744Y-88435095D01*
X147842666Y-88428578D01*
X147874024Y-88410033D01*
X147874028Y-88410030D01*
X147880854Y-88405993D01*
X147895238Y-88391609D01*
X147910272Y-88378768D01*
X147920329Y-88371461D01*
X147926743Y-88366801D01*
X147955029Y-88332609D01*
X147963019Y-88323828D01*
X148211668Y-88075180D01*
X148273980Y-88041155D01*
X148325884Y-88040806D01*
X148503364Y-88076915D01*
X148508539Y-88077105D01*
X148508541Y-88077105D01*
X148721440Y-88084912D01*
X148721444Y-88084912D01*
X148726604Y-88085101D01*
X148731724Y-88084445D01*
X148731726Y-88084445D01*
X148943055Y-88057373D01*
X148943056Y-88057373D01*
X148948183Y-88056716D01*
X148953133Y-88055231D01*
X149157196Y-87994009D01*
X149157201Y-87994007D01*
X149162151Y-87992522D01*
X149362761Y-87894244D01*
X149544627Y-87764521D01*
X149587767Y-87721532D01*
X149644355Y-87665141D01*
X149702863Y-87606837D01*
X149713331Y-87592270D01*
X149830205Y-87429621D01*
X149830206Y-87429620D01*
X149833220Y-87425425D01*
X149835509Y-87420793D01*
X149836014Y-87419953D01*
X149888244Y-87371864D01*
X149944017Y-87358848D01*
X160521508Y-87358848D01*
X160532742Y-87359378D01*
X160540247Y-87361056D01*
X160608540Y-87358910D01*
X160612497Y-87358848D01*
X160640511Y-87358848D01*
X160644436Y-87358352D01*
X160644437Y-87358352D01*
X160644532Y-87358340D01*
X160656377Y-87357407D01*
X160686198Y-87356470D01*
X160692810Y-87356262D01*
X160692811Y-87356262D01*
X160700733Y-87356013D01*
X160720277Y-87350335D01*
X160739640Y-87346325D01*
X160751968Y-87344768D01*
X160751970Y-87344768D01*
X160759827Y-87343775D01*
X160767191Y-87340859D01*
X160767196Y-87340858D01*
X160801084Y-87327441D01*
X160812313Y-87323596D01*
X160828993Y-87318750D01*
X160854921Y-87311217D01*
X160861748Y-87307179D01*
X160861751Y-87307178D01*
X160872434Y-87300860D01*
X160890192Y-87292160D01*
X160901743Y-87287587D01*
X160901749Y-87287583D01*
X160909116Y-87284667D01*
X160945019Y-87258582D01*
X160954938Y-87252067D01*
X160986296Y-87233522D01*
X160986300Y-87233519D01*
X160993126Y-87229482D01*
X161007510Y-87215098D01*
X161022544Y-87202257D01*
X161032601Y-87194950D01*
X161039015Y-87190290D01*
X161067306Y-87156092D01*
X161075295Y-87147313D01*
X180303412Y-67919197D01*
X180365724Y-67885171D01*
X180436539Y-67890236D01*
X180493375Y-67932783D01*
X180518186Y-67999303D01*
X180518507Y-68008292D01*
X180518507Y-92850570D01*
X180498505Y-92918691D01*
X180481602Y-92939665D01*
X177846672Y-95574595D01*
X177784360Y-95608621D01*
X177757577Y-95611500D01*
X177704513Y-95611500D01*
X177698061Y-95612872D01*
X177698056Y-95612872D01*
X177611112Y-95631353D01*
X177517712Y-95651206D01*
X177511682Y-95653891D01*
X177511681Y-95653891D01*
X177349278Y-95726197D01*
X177349276Y-95726198D01*
X177343248Y-95728882D01*
X177188747Y-95841134D01*
X177184326Y-95846044D01*
X177184325Y-95846045D01*
X177100525Y-95939115D01*
X177060960Y-95983056D01*
X177030077Y-96036547D01*
X176977864Y-96126983D01*
X176965473Y-96148444D01*
X176906458Y-96330072D01*
X176886496Y-96520000D01*
X176906458Y-96709928D01*
X176965473Y-96891556D01*
X177060960Y-97056944D01*
X177065375Y-97061847D01*
X177065379Y-97061852D01*
X177152843Y-97158991D01*
X177188747Y-97198866D01*
X177279757Y-97264989D01*
X177316621Y-97291772D01*
X177343248Y-97311118D01*
X177349276Y-97313802D01*
X177349278Y-97313803D01*
X177511681Y-97386109D01*
X177517712Y-97388794D01*
X177611112Y-97408647D01*
X177698056Y-97427128D01*
X177698061Y-97427128D01*
X177704513Y-97428500D01*
X177895487Y-97428500D01*
X177901939Y-97427128D01*
X177901944Y-97427128D01*
X177988888Y-97408647D01*
X178082288Y-97388794D01*
X178088319Y-97386109D01*
X178250722Y-97313803D01*
X178250724Y-97313802D01*
X178256752Y-97311118D01*
X178283380Y-97291772D01*
X178320243Y-97264989D01*
X178411253Y-97198866D01*
X178447157Y-97158991D01*
X178534621Y-97061852D01*
X178534625Y-97061847D01*
X178539040Y-97056944D01*
X178634527Y-96891556D01*
X178693542Y-96709928D01*
X178710575Y-96547867D01*
X178737588Y-96482210D01*
X178746790Y-96471942D01*
X181547484Y-93671248D01*
X181555810Y-93663671D01*
X181562310Y-93659546D01*
X181609108Y-93609711D01*
X181611862Y-93606870D01*
X181631645Y-93587087D01*
X181634136Y-93583876D01*
X181641845Y-93574849D01*
X181666796Y-93548279D01*
X181672224Y-93542499D01*
X181682029Y-93524664D01*
X181692883Y-93508140D01*
X181700498Y-93498323D01*
X181700499Y-93498322D01*
X181705356Y-93492060D01*
X181722976Y-93451343D01*
X181728199Y-93440682D01*
X181745756Y-93408746D01*
X181745758Y-93408741D01*
X181749576Y-93401796D01*
X181751546Y-93394122D01*
X181751549Y-93394115D01*
X181754639Y-93382080D01*
X181761043Y-93363375D01*
X181765974Y-93351980D01*
X181769124Y-93344701D01*
X181776067Y-93300866D01*
X181778474Y-93289244D01*
X181779521Y-93285166D01*
X181789507Y-93246275D01*
X181789507Y-93225928D01*
X181791058Y-93206217D01*
X181793002Y-93193943D01*
X181794242Y-93186114D01*
X181790066Y-93141937D01*
X181789507Y-93130079D01*
X181789507Y-66247023D01*
X181809509Y-66178902D01*
X181850178Y-66139577D01*
X181852001Y-66138684D01*
X181924994Y-66086619D01*
X182009339Y-66026457D01*
X182076412Y-66003183D01*
X182145421Y-66019867D01*
X182194455Y-66071211D01*
X182208507Y-66129036D01*
X182208507Y-126884987D01*
X182207977Y-126896221D01*
X182206299Y-126903726D01*
X182206548Y-126911645D01*
X182208445Y-126972019D01*
X182208507Y-126975976D01*
X182208507Y-127003990D01*
X182209003Y-127007915D01*
X182209003Y-127007916D01*
X182209015Y-127008011D01*
X182209948Y-127019856D01*
X182211342Y-127064212D01*
X182213554Y-127071824D01*
X182217020Y-127083755D01*
X182221030Y-127103119D01*
X182223580Y-127123306D01*
X182226496Y-127130670D01*
X182226497Y-127130675D01*
X182239914Y-127164563D01*
X182243759Y-127175792D01*
X182256138Y-127218400D01*
X182260176Y-127225227D01*
X182260177Y-127225230D01*
X182266495Y-127235913D01*
X182275195Y-127253671D01*
X182279768Y-127265222D01*
X182279772Y-127265228D01*
X182282688Y-127272595D01*
X182287346Y-127279006D01*
X182287347Y-127279008D01*
X182308771Y-127308495D01*
X182315288Y-127318417D01*
X182333834Y-127349777D01*
X182333838Y-127349782D01*
X182337873Y-127356605D01*
X182343480Y-127362212D01*
X182352262Y-127370995D01*
X182365097Y-127386023D01*
X182372405Y-127396081D01*
X182377065Y-127402494D01*
X182400881Y-127422196D01*
X182406797Y-127427413D01*
X182436269Y-127455089D01*
X182439111Y-127457844D01*
X182458906Y-127477639D01*
X182462031Y-127480063D01*
X182462040Y-127480071D01*
X182462126Y-127480137D01*
X182471151Y-127487845D01*
X182503494Y-127518217D01*
X182510438Y-127522035D01*
X182510440Y-127522036D01*
X182521329Y-127528022D01*
X182537847Y-127538873D01*
X182553933Y-127551350D01*
X182594666Y-127568976D01*
X182605314Y-127574193D01*
X182616942Y-127580585D01*
X182644197Y-127595569D01*
X182651872Y-127597540D01*
X182651878Y-127597542D01*
X182663911Y-127600631D01*
X182682613Y-127607034D01*
X182701292Y-127615117D01*
X182734818Y-127620427D01*
X182745127Y-127622060D01*
X182756740Y-127624465D01*
X182799718Y-127635500D01*
X182820065Y-127635500D01*
X182839777Y-127637051D01*
X182859879Y-127640235D01*
X182867771Y-127639489D01*
X182904056Y-127636059D01*
X182915914Y-127635500D01*
X185039095Y-127635500D01*
X185050329Y-127636030D01*
X185057834Y-127637708D01*
X185126127Y-127635562D01*
X185130084Y-127635500D01*
X185158098Y-127635500D01*
X185162023Y-127635004D01*
X185162024Y-127635004D01*
X185162119Y-127634992D01*
X185173964Y-127634059D01*
X185203785Y-127633122D01*
X185210397Y-127632914D01*
X185210398Y-127632914D01*
X185218320Y-127632665D01*
X185237864Y-127626987D01*
X185257227Y-127622977D01*
X185269555Y-127621420D01*
X185269557Y-127621420D01*
X185277414Y-127620427D01*
X185284778Y-127617511D01*
X185284783Y-127617510D01*
X185318671Y-127604093D01*
X185329900Y-127600248D01*
X185346580Y-127595402D01*
X185372508Y-127587869D01*
X185379335Y-127583831D01*
X185379338Y-127583830D01*
X185390021Y-127577512D01*
X185407779Y-127568812D01*
X185419330Y-127564239D01*
X185419336Y-127564235D01*
X185426703Y-127561319D01*
X185436092Y-127554498D01*
X185462603Y-127535236D01*
X185472525Y-127528719D01*
X185503883Y-127510174D01*
X185503887Y-127510171D01*
X185510713Y-127506134D01*
X185525097Y-127491750D01*
X185540131Y-127478909D01*
X185550188Y-127471602D01*
X185556602Y-127466942D01*
X185564129Y-127457844D01*
X185584892Y-127432745D01*
X185592882Y-127423965D01*
X186941667Y-126075181D01*
X187003979Y-126041155D01*
X187055879Y-126040805D01*
X187233364Y-126076915D01*
X187238539Y-126077105D01*
X187238541Y-126077105D01*
X187451440Y-126084912D01*
X187451444Y-126084912D01*
X187456604Y-126085101D01*
X187461724Y-126084445D01*
X187461726Y-126084445D01*
X187673055Y-126057373D01*
X187673056Y-126057373D01*
X187678183Y-126056716D01*
X187683133Y-126055231D01*
X187887196Y-125994009D01*
X187887201Y-125994007D01*
X187892151Y-125992522D01*
X188092761Y-125894244D01*
X188274627Y-125764521D01*
X188310578Y-125728696D01*
X188419947Y-125619708D01*
X188432863Y-125606837D01*
X188563220Y-125425425D01*
X188587161Y-125376985D01*
X188659903Y-125229801D01*
X188659904Y-125229799D01*
X188662197Y-125225159D01*
X188694667Y-125118288D01*
X188725632Y-125016371D01*
X188725632Y-125016369D01*
X188727137Y-125011417D01*
X188756296Y-124789938D01*
X188757923Y-124723348D01*
X188739619Y-124500709D01*
X188685198Y-124284050D01*
X188596121Y-124079188D01*
X188553422Y-124013186D01*
X188477589Y-123895965D01*
X188477587Y-123895962D01*
X188474781Y-123891625D01*
X188324437Y-123726399D01*
X188320386Y-123723200D01*
X188320382Y-123723196D01*
X188153181Y-123591148D01*
X188153177Y-123591146D01*
X188149126Y-123587946D01*
X188112795Y-123567890D01*
X188096903Y-123559117D01*
X187953556Y-123479986D01*
X187948687Y-123478262D01*
X187948683Y-123478260D01*
X187747854Y-123407143D01*
X187747850Y-123407142D01*
X187742979Y-123405417D01*
X187737886Y-123404510D01*
X187737883Y-123404509D01*
X187528140Y-123367148D01*
X187528134Y-123367147D01*
X187523051Y-123366242D01*
X187449219Y-123365340D01*
X187304848Y-123363576D01*
X187304846Y-123363576D01*
X187299678Y-123363513D01*
X187078858Y-123397303D01*
X186866523Y-123466705D01*
X186668374Y-123569855D01*
X186664241Y-123572958D01*
X186664238Y-123572960D01*
X186541920Y-123664799D01*
X186475435Y-123689705D01*
X186406039Y-123674713D01*
X186355766Y-123624582D01*
X186340267Y-123564039D01*
X186340267Y-64517568D01*
X186340797Y-64506334D01*
X186342475Y-64498829D01*
X186340329Y-64430536D01*
X186340267Y-64426579D01*
X186340267Y-64398565D01*
X186339759Y-64394544D01*
X186338825Y-64382692D01*
X186337681Y-64346266D01*
X186337681Y-64346265D01*
X186337432Y-64338343D01*
X186331754Y-64318799D01*
X186327744Y-64299436D01*
X186326187Y-64287108D01*
X186326187Y-64287106D01*
X186325194Y-64279249D01*
X186322278Y-64271885D01*
X186322277Y-64271880D01*
X186308860Y-64237992D01*
X186305015Y-64226763D01*
X186294848Y-64191770D01*
X186292636Y-64184155D01*
X186288597Y-64177325D01*
X186282279Y-64166642D01*
X186273579Y-64148884D01*
X186269006Y-64137333D01*
X186269002Y-64137327D01*
X186266086Y-64129960D01*
X186240001Y-64094057D01*
X186233486Y-64084138D01*
X186214941Y-64052780D01*
X186214938Y-64052776D01*
X186210901Y-64045950D01*
X186196517Y-64031566D01*
X186183676Y-64016532D01*
X186176369Y-64006475D01*
X186171709Y-64000061D01*
X186137511Y-63971770D01*
X186128732Y-63963781D01*
X185045884Y-62880932D01*
X185011858Y-62818620D01*
X185014421Y-62755208D01*
X185024872Y-62720810D01*
X185026377Y-62715857D01*
X185055536Y-62494378D01*
X185057163Y-62427788D01*
X185038859Y-62205149D01*
X184984438Y-61988490D01*
X184895361Y-61783628D01*
X184774021Y-61596065D01*
X184623677Y-61430839D01*
X184619626Y-61427640D01*
X184619622Y-61427636D01*
X184452421Y-61295588D01*
X184452417Y-61295586D01*
X184448366Y-61292386D01*
X184252796Y-61184426D01*
X184247927Y-61182702D01*
X184247923Y-61182700D01*
X184047094Y-61111583D01*
X184047090Y-61111582D01*
X184042219Y-61109857D01*
X184037126Y-61108950D01*
X184037123Y-61108949D01*
X183827380Y-61071588D01*
X183827374Y-61071587D01*
X183822291Y-61070682D01*
X183748459Y-61069780D01*
X183604088Y-61068016D01*
X183604086Y-61068016D01*
X183598918Y-61067953D01*
X183473974Y-61087072D01*
X183383207Y-61100961D01*
X183383204Y-61100962D01*
X183378098Y-61101743D01*
X183373192Y-61103347D01*
X183373186Y-61103348D01*
X183369120Y-61104678D01*
X183367677Y-61105149D01*
X183296714Y-61107304D01*
X183239432Y-61074481D01*
X181565154Y-59400202D01*
X179853081Y-57688129D01*
X179845505Y-57679803D01*
X179841384Y-57673309D01*
X179791565Y-57626526D01*
X179788724Y-57623772D01*
X179768925Y-57603973D01*
X179765800Y-57601549D01*
X179765791Y-57601541D01*
X179765705Y-57601475D01*
X179756680Y-57593767D01*
X179724337Y-57563395D01*
X179706500Y-57553589D01*
X179689984Y-57542739D01*
X179673898Y-57530262D01*
X179633165Y-57512636D01*
X179622517Y-57507419D01*
X179610889Y-57501027D01*
X179583634Y-57486043D01*
X179575959Y-57484072D01*
X179575953Y-57484070D01*
X179563920Y-57480981D01*
X179545218Y-57474578D01*
X179526539Y-57466495D01*
X179492703Y-57461136D01*
X179482704Y-57459552D01*
X179471091Y-57457147D01*
X179428113Y-57446112D01*
X179407766Y-57446112D01*
X179388055Y-57444561D01*
X179375781Y-57442617D01*
X179367952Y-57441377D01*
X179360060Y-57442123D01*
X179323775Y-57445553D01*
X179311917Y-57446112D01*
X178453810Y-57446112D01*
X178385689Y-57426110D01*
X178364715Y-57409207D01*
X178102458Y-57146950D01*
X178094886Y-57138629D01*
X178090761Y-57132129D01*
X178040941Y-57085345D01*
X178038100Y-57082591D01*
X178018302Y-57062793D01*
X178015177Y-57060369D01*
X178015168Y-57060361D01*
X178015082Y-57060295D01*
X178006057Y-57052587D01*
X177979493Y-57027642D01*
X177973714Y-57022215D01*
X177955877Y-57012409D01*
X177939361Y-57001559D01*
X177923275Y-56989082D01*
X177882542Y-56971456D01*
X177871894Y-56966239D01*
X177860266Y-56959847D01*
X177833011Y-56944863D01*
X177825336Y-56942892D01*
X177825330Y-56942890D01*
X177813297Y-56939801D01*
X177794595Y-56933398D01*
X177775916Y-56925315D01*
X177742080Y-56919956D01*
X177732081Y-56918372D01*
X177720468Y-56915967D01*
X177677490Y-56904932D01*
X177657143Y-56904932D01*
X177637432Y-56903381D01*
X177625158Y-56901437D01*
X177617329Y-56900197D01*
X177609437Y-56900943D01*
X177573152Y-56904373D01*
X177561294Y-56904932D01*
X173240632Y-56904932D01*
X173172511Y-56884930D01*
X173126018Y-56831274D01*
X173115914Y-56761000D01*
X173145408Y-56696420D01*
X173175232Y-56671795D01*
X173176752Y-56671118D01*
X173331253Y-56558866D01*
X173335675Y-56553955D01*
X173454621Y-56421852D01*
X173454622Y-56421851D01*
X173459040Y-56416944D01*
X173554527Y-56251556D01*
X173613542Y-56069928D01*
X173633504Y-55880000D01*
X173616642Y-55719565D01*
X173614232Y-55696635D01*
X173614232Y-55696633D01*
X173613542Y-55690072D01*
X173554527Y-55508444D01*
X173459040Y-55343056D01*
X173385321Y-55261182D01*
X173335675Y-55206045D01*
X173335674Y-55206044D01*
X173331253Y-55201134D01*
X173176752Y-55088882D01*
X173170724Y-55086198D01*
X173170722Y-55086197D01*
X173008319Y-55013891D01*
X173008318Y-55013891D01*
X173002288Y-55011206D01*
X172899328Y-54989321D01*
X172821944Y-54972872D01*
X172821939Y-54972872D01*
X172815487Y-54971500D01*
X172624513Y-54971500D01*
X172618061Y-54972872D01*
X172618056Y-54972872D01*
X172540672Y-54989321D01*
X172437712Y-55011206D01*
X172431682Y-55013891D01*
X172431681Y-55013891D01*
X172269278Y-55086197D01*
X172269276Y-55086198D01*
X172263248Y-55088882D01*
X172108747Y-55201134D01*
X172104332Y-55206037D01*
X172099420Y-55210460D01*
X172097779Y-55208638D01*
X172046790Y-55240050D01*
X172013601Y-55244500D01*
X133516590Y-55244500D01*
X133448469Y-55224498D01*
X133427495Y-55207595D01*
X132103858Y-53883958D01*
X132096282Y-53875632D01*
X132092161Y-53869138D01*
X132042342Y-53822355D01*
X132039501Y-53819601D01*
X132019702Y-53799802D01*
X132016577Y-53797378D01*
X132016568Y-53797370D01*
X132016482Y-53797304D01*
X132007457Y-53789596D01*
X131980893Y-53764651D01*
X131975114Y-53759224D01*
X131957277Y-53749418D01*
X131940761Y-53738568D01*
X131924675Y-53726091D01*
X131883942Y-53708465D01*
X131873294Y-53703248D01*
X131861666Y-53696856D01*
X131834411Y-53681872D01*
X131826736Y-53679901D01*
X131826730Y-53679899D01*
X131814697Y-53676810D01*
X131795995Y-53670407D01*
X131777316Y-53662324D01*
X131737521Y-53656021D01*
X131733481Y-53655381D01*
X131721868Y-53652976D01*
X131678890Y-53641941D01*
X131658543Y-53641941D01*
X131638832Y-53640390D01*
X131626558Y-53638446D01*
X131618729Y-53637206D01*
X131610837Y-53637952D01*
X131574552Y-53641382D01*
X131562694Y-53641941D01*
X127286823Y-53641941D01*
X127275584Y-53641411D01*
X127268072Y-53639732D01*
X127260147Y-53639981D01*
X127260146Y-53639981D01*
X127199761Y-53641879D01*
X127195803Y-53641941D01*
X127167808Y-53641941D01*
X127163874Y-53642438D01*
X127163872Y-53642438D01*
X127163785Y-53642449D01*
X127151951Y-53643381D01*
X127107586Y-53644776D01*
X127099973Y-53646988D01*
X127099972Y-53646988D01*
X127088043Y-53650454D01*
X127068679Y-53654464D01*
X127056351Y-53656021D01*
X127056349Y-53656021D01*
X127048492Y-53657014D01*
X127041128Y-53659930D01*
X127041123Y-53659931D01*
X127007235Y-53673348D01*
X126996006Y-53677193D01*
X126979902Y-53681872D01*
X126953398Y-53689572D01*
X126946571Y-53693610D01*
X126946568Y-53693611D01*
X126935885Y-53699929D01*
X126918127Y-53708629D01*
X126906576Y-53713202D01*
X126906570Y-53713206D01*
X126899203Y-53716122D01*
X126892792Y-53720780D01*
X126892790Y-53720781D01*
X126863303Y-53742205D01*
X126853381Y-53748722D01*
X126822023Y-53767267D01*
X126822019Y-53767270D01*
X126815193Y-53771307D01*
X126800809Y-53785691D01*
X126785775Y-53798532D01*
X126769304Y-53810499D01*
X126764251Y-53816607D01*
X126741014Y-53844696D01*
X126733024Y-53853476D01*
X126527953Y-54058547D01*
X126465641Y-54092573D01*
X126438858Y-54095452D01*
X125133146Y-54095452D01*
X125070964Y-54102207D01*
X124934575Y-54153337D01*
X124818019Y-54240691D01*
X124730665Y-54357247D01*
X124679535Y-54493636D01*
X124672780Y-54555818D01*
X124672780Y-56352086D01*
X115042609Y-56352086D01*
X115056761Y-56341950D01*
X115065938Y-56335963D01*
X115847184Y-55873435D01*
X116107092Y-55719560D01*
X116109198Y-55718340D01*
X116126945Y-55708293D01*
X116663700Y-55404414D01*
X117181773Y-55111112D01*
X117183919Y-55109925D01*
X118268441Y-54523504D01*
X118270616Y-54522355D01*
X119367173Y-53956812D01*
X119369378Y-53955702D01*
X120005610Y-53643195D01*
X120477591Y-53411366D01*
X120479780Y-53410317D01*
X121599394Y-52887445D01*
X121601570Y-52886455D01*
X122732385Y-52385283D01*
X122734674Y-52384296D01*
X123876397Y-51905102D01*
X123878714Y-51904157D01*
X124068249Y-51828999D01*
X124175757Y-51786368D01*
X144266994Y-51786368D01*
X144267141Y-51789878D01*
X144267141Y-51789884D01*
X144267889Y-51807726D01*
X144273709Y-51946582D01*
X144281268Y-52126949D01*
X144281803Y-52130407D01*
X144281804Y-52130414D01*
X144332880Y-52460343D01*
X144333418Y-52463816D01*
X144422793Y-52792771D01*
X144548279Y-53109713D01*
X144708313Y-53410692D01*
X144710298Y-53413591D01*
X144898908Y-53689050D01*
X144898913Y-53689056D01*
X144900899Y-53691957D01*
X145123637Y-53950001D01*
X145126207Y-53952381D01*
X145126211Y-53952385D01*
X145147822Y-53972397D01*
X145373750Y-54181609D01*
X145376572Y-54183690D01*
X145376575Y-54183692D01*
X145451117Y-54238649D01*
X145648123Y-54383894D01*
X145651160Y-54385648D01*
X145651164Y-54385650D01*
X145685369Y-54405398D01*
X145943333Y-54554334D01*
X145946730Y-54555818D01*
X146252481Y-54689398D01*
X146252491Y-54689402D01*
X146255703Y-54690805D01*
X146259060Y-54691844D01*
X146259065Y-54691846D01*
X146505131Y-54768016D01*
X146581338Y-54791606D01*
X146584794Y-54792265D01*
X146584793Y-54792265D01*
X146912729Y-54854822D01*
X146912734Y-54854823D01*
X146916180Y-54855480D01*
X147140196Y-54872717D01*
X147252558Y-54881363D01*
X147252559Y-54881363D01*
X147256055Y-54881632D01*
X147468406Y-54874217D01*
X147593213Y-54869859D01*
X147593218Y-54869859D01*
X147596728Y-54869736D01*
X147765340Y-54844837D01*
X147930472Y-54820453D01*
X147930477Y-54820452D01*
X147933951Y-54819939D01*
X147937343Y-54819043D01*
X147937347Y-54819042D01*
X148260131Y-54733759D01*
X148260132Y-54733759D01*
X148263522Y-54732863D01*
X148581332Y-54609592D01*
X148883421Y-54451664D01*
X149146329Y-54274330D01*
X149163107Y-54263013D01*
X149163109Y-54263012D01*
X149166023Y-54261046D01*
X149192340Y-54238649D01*
X149422943Y-54042390D01*
X149422944Y-54042389D01*
X149425616Y-54040115D01*
X149504113Y-53956524D01*
X149656554Y-53794192D01*
X149656558Y-53794187D01*
X149658965Y-53791624D01*
X149661070Y-53788810D01*
X149661076Y-53788803D01*
X149861051Y-53521490D01*
X149863160Y-53518671D01*
X149890239Y-53472517D01*
X149953660Y-53364417D01*
X150035657Y-53224657D01*
X150040597Y-53213562D01*
X150172873Y-52916465D01*
X150172875Y-52916460D01*
X150174305Y-52913248D01*
X150277377Y-52588325D01*
X150343587Y-52253937D01*
X150358335Y-52078308D01*
X150371929Y-51916434D01*
X150371929Y-51916427D01*
X150372112Y-51914252D01*
X150373302Y-51828999D01*
X150371116Y-51789884D01*
X150354470Y-51492164D01*
X150354274Y-51488651D01*
X150353686Y-51485174D01*
X150298014Y-51156025D01*
X150298013Y-51156021D01*
X150297425Y-51152544D01*
X150284559Y-51107673D01*
X150247119Y-50977107D01*
X150203466Y-50824869D01*
X150157756Y-50713968D01*
X150074905Y-50512955D01*
X150074901Y-50512947D01*
X150073567Y-50509710D01*
X149909347Y-50210995D01*
X149712853Y-49932447D01*
X149486533Y-49677537D01*
X149426441Y-49623430D01*
X149235828Y-49451801D01*
X149235825Y-49451799D01*
X149233210Y-49449444D01*
X149230360Y-49447403D01*
X149230353Y-49447398D01*
X148958895Y-49253053D01*
X148958892Y-49253051D01*
X148956041Y-49251010D01*
X148658479Y-49084708D01*
X148344234Y-48952612D01*
X148340871Y-48951622D01*
X148340862Y-48951619D01*
X148134159Y-48890784D01*
X148017223Y-48856368D01*
X147734042Y-48806435D01*
X147684982Y-48797784D01*
X147684980Y-48797784D01*
X147681522Y-48797174D01*
X147678013Y-48796953D01*
X147678011Y-48796953D01*
X147344833Y-48775991D01*
X147344827Y-48775991D01*
X147341315Y-48775770D01*
X147244890Y-48780486D01*
X147004349Y-48792250D01*
X147004341Y-48792251D01*
X147000842Y-48792422D01*
X146997374Y-48792984D01*
X146997371Y-48792984D01*
X146667822Y-48846360D01*
X146667819Y-48846361D01*
X146664347Y-48846923D01*
X146660964Y-48847868D01*
X146660962Y-48847868D01*
X146597986Y-48865451D01*
X146336024Y-48938592D01*
X146019966Y-49066288D01*
X145720111Y-49228419D01*
X145440198Y-49422963D01*
X145437556Y-49425276D01*
X145437552Y-49425279D01*
X145313663Y-49533736D01*
X145183715Y-49647497D01*
X144953859Y-49899222D01*
X144753494Y-50175000D01*
X144585120Y-50471393D01*
X144583733Y-50474628D01*
X144583731Y-50474633D01*
X144452218Y-50781476D01*
X144450833Y-50784708D01*
X144449816Y-50788077D01*
X144382402Y-51011364D01*
X144352308Y-51111039D01*
X144290772Y-51446319D01*
X144266994Y-51786368D01*
X124175757Y-51786368D01*
X125031058Y-51447208D01*
X125033364Y-51446320D01*
X125290360Y-51350294D01*
X126196313Y-51011787D01*
X126198647Y-51010942D01*
X126382869Y-50946276D01*
X126719106Y-50828249D01*
X127371621Y-50599201D01*
X127373997Y-50598393D01*
X127936501Y-50413532D01*
X128557083Y-50209585D01*
X128559501Y-50208818D01*
X129752173Y-49843288D01*
X129754612Y-49842567D01*
X130838977Y-49534038D01*
X130956846Y-49500501D01*
X130959282Y-49499836D01*
X132170656Y-49181542D01*
X132173138Y-49180916D01*
X133393653Y-48886586D01*
X133396153Y-48886010D01*
X134625349Y-48615951D01*
X134627868Y-48615425D01*
X135865587Y-48369873D01*
X135868121Y-48369397D01*
X136904912Y-48185678D01*
X137114132Y-48148604D01*
X137116661Y-48148183D01*
X138370828Y-47952391D01*
X138373310Y-47952030D01*
X139395352Y-47813931D01*
X139635166Y-47781527D01*
X139637741Y-47781206D01*
X140907163Y-47636232D01*
X140909748Y-47635963D01*
X141663663Y-47565582D01*
X142186645Y-47516759D01*
X142189193Y-47516548D01*
X143473119Y-47423392D01*
X143475719Y-47423231D01*
X144766398Y-47356379D01*
X144769004Y-47356271D01*
X146066329Y-47315969D01*
X146068937Y-47315915D01*
X147097551Y-47305270D01*
X147372927Y-47302420D01*
X147375424Y-47302419D01*
X148596598Y-47314233D01*
G37*
%TD.AperFunction*%
%TA.AperFunction,Conductor*%
G36*
X177162053Y-58649454D02*
G01*
X177183027Y-58666357D01*
X179370863Y-60854193D01*
X179404889Y-60916505D01*
X179399824Y-60987320D01*
X179357277Y-61044156D01*
X179290757Y-61068967D01*
X179281768Y-61069288D01*
X177715873Y-61069288D01*
X177653691Y-61076043D01*
X177517302Y-61127173D01*
X177400746Y-61214527D01*
X177313392Y-61331083D01*
X177262262Y-61467472D01*
X177255507Y-61529654D01*
X177255507Y-63325922D01*
X177262262Y-63388104D01*
X177313392Y-63524493D01*
X177400746Y-63641049D01*
X177517302Y-63728403D01*
X177525711Y-63731555D01*
X177525712Y-63731556D01*
X177634967Y-63772514D01*
X177691732Y-63815155D01*
X177716432Y-63881717D01*
X177701225Y-63951066D01*
X177681832Y-63977547D01*
X177558597Y-64106505D01*
X177552111Y-64114515D01*
X177432105Y-64290437D01*
X177427007Y-64299411D01*
X177337345Y-64492571D01*
X177333782Y-64502258D01*
X177278396Y-64701971D01*
X177279919Y-64710395D01*
X177292299Y-64713788D01*
X178742007Y-64713788D01*
X178810128Y-64733790D01*
X178856621Y-64787446D01*
X178868007Y-64839788D01*
X178868007Y-66286305D01*
X178872071Y-66300147D01*
X178893931Y-66303462D01*
X178958283Y-66333452D01*
X178996206Y-66393472D01*
X178995659Y-66464466D01*
X178964135Y-66517133D01*
X169032103Y-76449164D01*
X159883844Y-85597423D01*
X159821532Y-85631449D01*
X159794749Y-85634328D01*
X150190509Y-85634328D01*
X150122388Y-85614326D01*
X150101413Y-85597423D01*
X149657340Y-85153349D01*
X149649770Y-85145030D01*
X149645648Y-85138534D01*
X149595829Y-85091751D01*
X149592988Y-85088997D01*
X149573189Y-85069198D01*
X149570064Y-85066774D01*
X149570055Y-85066766D01*
X149569969Y-85066700D01*
X149560944Y-85058992D01*
X149534380Y-85034047D01*
X149528601Y-85028620D01*
X149510764Y-85018814D01*
X149494248Y-85007964D01*
X149478162Y-84995487D01*
X149437429Y-84977861D01*
X149426781Y-84972644D01*
X149401904Y-84958968D01*
X149387898Y-84951268D01*
X149380223Y-84949297D01*
X149380217Y-84949295D01*
X149368184Y-84946206D01*
X149349482Y-84939803D01*
X149330803Y-84931720D01*
X149291008Y-84925417D01*
X149286968Y-84924777D01*
X149275355Y-84922372D01*
X149232377Y-84911337D01*
X149212030Y-84911337D01*
X149192319Y-84909786D01*
X149180045Y-84907842D01*
X149172216Y-84906602D01*
X149164324Y-84907348D01*
X149128039Y-84910778D01*
X149116181Y-84911337D01*
X147380310Y-84911337D01*
X147369071Y-84910807D01*
X147361559Y-84909128D01*
X147353634Y-84909377D01*
X147353633Y-84909377D01*
X147293248Y-84911275D01*
X147289290Y-84911337D01*
X147261295Y-84911337D01*
X147257361Y-84911834D01*
X147257359Y-84911834D01*
X147257272Y-84911845D01*
X147245438Y-84912777D01*
X147201073Y-84914172D01*
X147193460Y-84916384D01*
X147193459Y-84916384D01*
X147181530Y-84919850D01*
X147162166Y-84923860D01*
X147149838Y-84925417D01*
X147149836Y-84925417D01*
X147141979Y-84926410D01*
X147134615Y-84929326D01*
X147134610Y-84929327D01*
X147100722Y-84942744D01*
X147089493Y-84946589D01*
X147073389Y-84951268D01*
X147046885Y-84958968D01*
X147040058Y-84963006D01*
X147040055Y-84963007D01*
X147029372Y-84969325D01*
X147011614Y-84978025D01*
X147000063Y-84982598D01*
X147000057Y-84982602D01*
X146992690Y-84985518D01*
X146986279Y-84990176D01*
X146986277Y-84990177D01*
X146956790Y-85011601D01*
X146946868Y-85018118D01*
X146915510Y-85036663D01*
X146915506Y-85036666D01*
X146908680Y-85040703D01*
X146894296Y-85055087D01*
X146879262Y-85067928D01*
X146862791Y-85079895D01*
X146857738Y-85086003D01*
X146834501Y-85114092D01*
X146826511Y-85122872D01*
X146579712Y-85369671D01*
X146517400Y-85403697D01*
X146468521Y-85404623D01*
X146446560Y-85400711D01*
X146423037Y-85396521D01*
X146258140Y-85367148D01*
X146258134Y-85367147D01*
X146253051Y-85366242D01*
X146179219Y-85365340D01*
X146034848Y-85363576D01*
X146034846Y-85363576D01*
X146029678Y-85363513D01*
X145882394Y-85386051D01*
X145813967Y-85396521D01*
X145813964Y-85396522D01*
X145808858Y-85397303D01*
X145803951Y-85398907D01*
X145803938Y-85398910D01*
X145798428Y-85400711D01*
X145727464Y-85402860D01*
X145670192Y-85370040D01*
X130420196Y-70120044D01*
X130386170Y-70057732D01*
X130383291Y-70030949D01*
X130383291Y-65544258D01*
X130403293Y-65476137D01*
X130456949Y-65429644D01*
X130527223Y-65419540D01*
X130591803Y-65449034D01*
X130603953Y-65461862D01*
X130605146Y-65463878D01*
X130619530Y-65478262D01*
X130632371Y-65493296D01*
X130644338Y-65509767D01*
X130650446Y-65514820D01*
X130678535Y-65538057D01*
X130687315Y-65546047D01*
X148913210Y-83771943D01*
X148947236Y-83834255D01*
X148949425Y-83847868D01*
X148966458Y-84009928D01*
X149025473Y-84191556D01*
X149028776Y-84197278D01*
X149028777Y-84197279D01*
X149060571Y-84252348D01*
X149120960Y-84356944D01*
X149248747Y-84498866D01*
X149403248Y-84611118D01*
X149409276Y-84613802D01*
X149409278Y-84613803D01*
X149504268Y-84656095D01*
X149577712Y-84688794D01*
X149671113Y-84708647D01*
X149758056Y-84727128D01*
X149758061Y-84727128D01*
X149764513Y-84728500D01*
X149955487Y-84728500D01*
X149961939Y-84727128D01*
X149961944Y-84727128D01*
X150048887Y-84708647D01*
X150142288Y-84688794D01*
X150215732Y-84656095D01*
X150310722Y-84613803D01*
X150310724Y-84613802D01*
X150316752Y-84611118D01*
X150471253Y-84498866D01*
X150599040Y-84356944D01*
X150659429Y-84252348D01*
X150691223Y-84197279D01*
X150691224Y-84197278D01*
X150694527Y-84191556D01*
X150753542Y-84009928D01*
X150773504Y-83820000D01*
X150768453Y-83771943D01*
X150754232Y-83636635D01*
X150754232Y-83636633D01*
X150753542Y-83630072D01*
X150694527Y-83448444D01*
X150599040Y-83283056D01*
X150471253Y-83141134D01*
X150316752Y-83028882D01*
X150310724Y-83026198D01*
X150310722Y-83026197D01*
X150148319Y-82953891D01*
X150148318Y-82953891D01*
X150142288Y-82951206D01*
X150048888Y-82931353D01*
X149961944Y-82912872D01*
X149961939Y-82912872D01*
X149955487Y-82911500D01*
X149902422Y-82911500D01*
X149834301Y-82891498D01*
X149813327Y-82874595D01*
X132174487Y-65235754D01*
X177282264Y-65235754D01*
X177312572Y-65370234D01*
X177315652Y-65380063D01*
X177395777Y-65577391D01*
X177400420Y-65586582D01*
X177511701Y-65768176D01*
X177517784Y-65776487D01*
X177657220Y-65937455D01*
X177664587Y-65944671D01*
X177828441Y-66080704D01*
X177836888Y-66086619D01*
X178020763Y-66194067D01*
X178030049Y-66198517D01*
X178229008Y-66274491D01*
X178238906Y-66277367D01*
X178342257Y-66298394D01*
X178356306Y-66297198D01*
X178360007Y-66286853D01*
X178360007Y-65239903D01*
X178355532Y-65224664D01*
X178354142Y-65223459D01*
X178346459Y-65221788D01*
X177297232Y-65221788D01*
X177283701Y-65225761D01*
X177282264Y-65235754D01*
X132174487Y-65235754D01*
X131783685Y-64844952D01*
X131749659Y-64782640D01*
X131746780Y-64755857D01*
X131746780Y-59273187D01*
X131766782Y-59205066D01*
X131807451Y-59165741D01*
X131809274Y-59164848D01*
X131991140Y-59035125D01*
X132149376Y-58877441D01*
X132264584Y-58717112D01*
X132276718Y-58700225D01*
X132276719Y-58700224D01*
X132279733Y-58696029D01*
X132282022Y-58691397D01*
X132282527Y-58690557D01*
X132334757Y-58642468D01*
X132390530Y-58629452D01*
X177093932Y-58629452D01*
X177162053Y-58649454D01*
G37*
%TD.AperFunction*%
%TD*%
M02*
