G04 #@! TF.GenerationSoftware,KiCad,Pcbnew,(6.99.0-2452-gdb4f2d9dd8)*
G04 #@! TF.CreationDate,2022-07-21T16:30:43-08:00*
G04 #@! TF.ProjectId,speaker-SAO,73706561-6b65-4722-9d53-414f2e6b6963,rev?*
G04 #@! TF.SameCoordinates,Original*
G04 #@! TF.FileFunction,Copper,L2,Bot*
G04 #@! TF.FilePolarity,Positive*
%FSLAX46Y46*%
G04 Gerber Fmt 4.6, Leading zero omitted, Abs format (unit mm)*
G04 Created by KiCad (PCBNEW (6.99.0-2452-gdb4f2d9dd8)) date 2022-07-21 16:30:43*
%MOMM*%
%LPD*%
G01*
G04 APERTURE LIST*
G04 Aperture macros list*
%AMRoundRect*
0 Rectangle with rounded corners*
0 $1 Rounding radius*
0 $2 $3 $4 $5 $6 $7 $8 $9 X,Y pos of 4 corners*
0 Add a 4 corners polygon primitive as box body*
4,1,4,$2,$3,$4,$5,$6,$7,$8,$9,$2,$3,0*
0 Add four circle primitives for the rounded corners*
1,1,$1+$1,$2,$3*
1,1,$1+$1,$4,$5*
1,1,$1+$1,$6,$7*
1,1,$1+$1,$8,$9*
0 Add four rect primitives between the rounded corners*
20,1,$1+$1,$2,$3,$4,$5,0*
20,1,$1+$1,$4,$5,$6,$7,0*
20,1,$1+$1,$6,$7,$8,$9,0*
20,1,$1+$1,$8,$9,$2,$3,0*%
G04 Aperture macros list end*
%ADD10C,0.300000*%
G04 #@! TA.AperFunction,NonConductor*
%ADD11C,0.300000*%
G04 #@! TD*
G04 #@! TA.AperFunction,ComponentPad*
%ADD12R,1.800000X1.800000*%
G04 #@! TD*
G04 #@! TA.AperFunction,ComponentPad*
%ADD13C,1.800000*%
G04 #@! TD*
G04 #@! TA.AperFunction,SMDPad,CuDef*
%ADD14RoundRect,0.250000X0.400000X0.625000X-0.400000X0.625000X-0.400000X-0.625000X0.400000X-0.625000X0*%
G04 #@! TD*
G04 #@! TA.AperFunction,ComponentPad*
%ADD15R,1.700000X1.700000*%
G04 #@! TD*
G04 #@! TA.AperFunction,ComponentPad*
%ADD16O,1.700000X1.700000*%
G04 #@! TD*
G04 #@! TA.AperFunction,Conductor*
%ADD17C,0.250000*%
G04 #@! TD*
G04 #@! TA.AperFunction,Conductor*
%ADD18C,0.200000*%
G04 #@! TD*
G04 APERTURE END LIST*
D10*
D11*
X94714285Y-124529285D02*
X94785714Y-124457857D01*
X94785714Y-124457857D02*
X94928571Y-124386428D01*
X94928571Y-124386428D02*
X95071428Y-124386428D01*
X95071428Y-124386428D02*
X95214285Y-124457857D01*
X95214285Y-124457857D02*
X95285714Y-124529285D01*
X95285714Y-124529285D02*
X95357142Y-124672142D01*
X95357142Y-124672142D02*
X95357142Y-124815000D01*
X95357142Y-124815000D02*
X95285714Y-124957857D01*
X95285714Y-124957857D02*
X95214285Y-125029285D01*
X95214285Y-125029285D02*
X95071428Y-125100714D01*
X95071428Y-125100714D02*
X94928571Y-125100714D01*
X94928571Y-125100714D02*
X94785714Y-125029285D01*
X94785714Y-125029285D02*
X94714285Y-124957857D01*
X94714285Y-124386428D02*
X94714285Y-124957857D01*
X94714285Y-124957857D02*
X94642857Y-125029285D01*
X94642857Y-125029285D02*
X94571428Y-125029285D01*
X94571428Y-125029285D02*
X94428571Y-124957857D01*
X94428571Y-124957857D02*
X94357142Y-124815000D01*
X94357142Y-124815000D02*
X94357142Y-124457857D01*
X94357142Y-124457857D02*
X94500000Y-124243571D01*
X94500000Y-124243571D02*
X94714285Y-124100714D01*
X94714285Y-124100714D02*
X95000000Y-124029285D01*
X95000000Y-124029285D02*
X95285714Y-124100714D01*
X95285714Y-124100714D02*
X95500000Y-124243571D01*
X95500000Y-124243571D02*
X95642857Y-124457857D01*
X95642857Y-124457857D02*
X95714285Y-124743571D01*
X95714285Y-124743571D02*
X95642857Y-125029285D01*
X95642857Y-125029285D02*
X95500000Y-125243571D01*
X95500000Y-125243571D02*
X95285714Y-125386428D01*
X95285714Y-125386428D02*
X95000000Y-125457857D01*
X95000000Y-125457857D02*
X94714285Y-125386428D01*
X94714285Y-125386428D02*
X94500000Y-125243571D01*
X93071429Y-125243571D02*
X93071429Y-124457857D01*
X93071429Y-124457857D02*
X93142857Y-124315000D01*
X93142857Y-124315000D02*
X93285714Y-124243571D01*
X93285714Y-124243571D02*
X93571429Y-124243571D01*
X93571429Y-124243571D02*
X93714286Y-124315000D01*
X93071429Y-125172142D02*
X93214286Y-125243571D01*
X93214286Y-125243571D02*
X93571429Y-125243571D01*
X93571429Y-125243571D02*
X93714286Y-125172142D01*
X93714286Y-125172142D02*
X93785714Y-125029285D01*
X93785714Y-125029285D02*
X93785714Y-124886428D01*
X93785714Y-124886428D02*
X93714286Y-124743571D01*
X93714286Y-124743571D02*
X93571429Y-124672142D01*
X93571429Y-124672142D02*
X93214286Y-124672142D01*
X93214286Y-124672142D02*
X93071429Y-124600714D01*
X92500000Y-124243571D02*
X92142857Y-125243571D01*
X92142857Y-125243571D02*
X91785714Y-124243571D01*
X91571429Y-125386428D02*
X90428571Y-125386428D01*
X90071429Y-124243571D02*
X90071429Y-125743571D01*
X90071429Y-124315000D02*
X89928572Y-124243571D01*
X89928572Y-124243571D02*
X89642857Y-124243571D01*
X89642857Y-124243571D02*
X89500000Y-124315000D01*
X89500000Y-124315000D02*
X89428572Y-124386428D01*
X89428572Y-124386428D02*
X89357143Y-124529285D01*
X89357143Y-124529285D02*
X89357143Y-124957857D01*
X89357143Y-124957857D02*
X89428572Y-125100714D01*
X89428572Y-125100714D02*
X89500000Y-125172142D01*
X89500000Y-125172142D02*
X89642857Y-125243571D01*
X89642857Y-125243571D02*
X89928572Y-125243571D01*
X89928572Y-125243571D02*
X90071429Y-125172142D01*
X88071429Y-124243571D02*
X88071429Y-125243571D01*
X88714286Y-124243571D02*
X88714286Y-125029285D01*
X88714286Y-125029285D02*
X88642857Y-125172142D01*
X88642857Y-125172142D02*
X88500000Y-125243571D01*
X88500000Y-125243571D02*
X88285714Y-125243571D01*
X88285714Y-125243571D02*
X88142857Y-125172142D01*
X88142857Y-125172142D02*
X88071429Y-125100714D01*
X87357143Y-125243571D02*
X87357143Y-123743571D01*
X87357143Y-124315000D02*
X87214286Y-124243571D01*
X87214286Y-124243571D02*
X86928571Y-124243571D01*
X86928571Y-124243571D02*
X86785714Y-124315000D01*
X86785714Y-124315000D02*
X86714286Y-124386428D01*
X86714286Y-124386428D02*
X86642857Y-124529285D01*
X86642857Y-124529285D02*
X86642857Y-124957857D01*
X86642857Y-124957857D02*
X86714286Y-125100714D01*
X86714286Y-125100714D02*
X86785714Y-125172142D01*
X86785714Y-125172142D02*
X86928571Y-125243571D01*
X86928571Y-125243571D02*
X87214286Y-125243571D01*
X87214286Y-125243571D02*
X87357143Y-125172142D01*
X86071428Y-125172142D02*
X85928571Y-125243571D01*
X85928571Y-125243571D02*
X85642857Y-125243571D01*
X85642857Y-125243571D02*
X85500000Y-125172142D01*
X85500000Y-125172142D02*
X85428571Y-125029285D01*
X85428571Y-125029285D02*
X85428571Y-124957857D01*
X85428571Y-124957857D02*
X85500000Y-124815000D01*
X85500000Y-124815000D02*
X85642857Y-124743571D01*
X85642857Y-124743571D02*
X85857143Y-124743571D01*
X85857143Y-124743571D02*
X86000000Y-124672142D01*
X86000000Y-124672142D02*
X86071428Y-124529285D01*
X86071428Y-124529285D02*
X86071428Y-124457857D01*
X86071428Y-124457857D02*
X86000000Y-124315000D01*
X86000000Y-124315000D02*
X85857143Y-124243571D01*
X85857143Y-124243571D02*
X85642857Y-124243571D01*
X85642857Y-124243571D02*
X85500000Y-124315000D01*
X95785714Y-126673571D02*
X95428571Y-127673571D01*
X95428571Y-127673571D02*
X95071428Y-126673571D01*
X94571428Y-126316428D02*
X94500000Y-126245000D01*
X94500000Y-126245000D02*
X94357143Y-126173571D01*
X94357143Y-126173571D02*
X94000000Y-126173571D01*
X94000000Y-126173571D02*
X93857143Y-126245000D01*
X93857143Y-126245000D02*
X93785714Y-126316428D01*
X93785714Y-126316428D02*
X93714285Y-126459285D01*
X93714285Y-126459285D02*
X93714285Y-126602142D01*
X93714285Y-126602142D02*
X93785714Y-126816428D01*
X93785714Y-126816428D02*
X94642857Y-127673571D01*
X94642857Y-127673571D02*
X93714285Y-127673571D01*
D12*
X157499999Y-131499999D03*
D13*
X157500000Y-134040000D03*
D14*
X156940000Y-137280000D03*
X153840000Y-137280000D03*
D15*
X154839999Y-124939999D03*
D16*
X154839999Y-127479999D03*
X157379999Y-124939999D03*
X157379999Y-127479999D03*
X159919999Y-124939999D03*
X159919999Y-127479999D03*
D17*
X157500000Y-134040000D02*
X157500000Y-136720000D01*
X157500000Y-136720000D02*
X156940000Y-137280000D01*
D18*
X154840000Y-127480000D02*
X154840000Y-128840000D01*
X154840000Y-128840000D02*
X157500000Y-131500000D01*
X152000000Y-126500000D02*
X152000000Y-136000000D01*
X154840000Y-124940000D02*
X153560000Y-124940000D01*
X153560000Y-124940000D02*
X152000000Y-126500000D01*
X152000000Y-136000000D02*
X153280000Y-137280000D01*
X153280000Y-137280000D02*
X153840000Y-137280000D01*
G04 #@! TA.AperFunction,NonConductor*
G36*
X158733226Y-125615670D02*
G01*
X158755483Y-125641357D01*
X158844278Y-125777268D01*
X158847803Y-125781097D01*
X158847806Y-125781101D01*
X158935755Y-125876638D01*
X158996760Y-125942906D01*
X159000879Y-125946112D01*
X159163339Y-126072561D01*
X159174424Y-126081189D01*
X159179005Y-126083668D01*
X159207680Y-126099186D01*
X159258071Y-126149199D01*
X159273423Y-126218516D01*
X159248863Y-126285129D01*
X159207681Y-126320813D01*
X159174424Y-126338811D01*
X159170313Y-126342010D01*
X159170311Y-126342012D01*
X159018574Y-126460115D01*
X158996760Y-126477094D01*
X158993228Y-126480931D01*
X158847806Y-126638899D01*
X158847803Y-126638903D01*
X158844278Y-126642732D01*
X158841427Y-126647096D01*
X158755483Y-126778643D01*
X158701479Y-126824732D01*
X158631132Y-126834307D01*
X158566774Y-126804330D01*
X158544517Y-126778643D01*
X158458573Y-126647096D01*
X158455722Y-126642732D01*
X158452197Y-126638903D01*
X158452194Y-126638899D01*
X158306772Y-126480931D01*
X158303240Y-126477094D01*
X158281426Y-126460115D01*
X158129689Y-126342012D01*
X158129687Y-126342010D01*
X158125576Y-126338811D01*
X158092320Y-126320814D01*
X158041929Y-126270801D01*
X158026577Y-126201484D01*
X158051137Y-126134871D01*
X158092320Y-126099186D01*
X158120995Y-126083668D01*
X158125576Y-126081189D01*
X158136662Y-126072561D01*
X158299121Y-125946112D01*
X158303240Y-125942906D01*
X158364245Y-125876638D01*
X158452194Y-125781101D01*
X158452197Y-125781097D01*
X158455722Y-125777268D01*
X158544517Y-125641357D01*
X158598521Y-125595268D01*
X158668868Y-125585693D01*
X158733226Y-125615670D01*
G37*
G04 #@! TD.AperFunction*
G04 #@! TA.AperFunction,NonConductor*
G36*
X156363439Y-125851388D02*
G01*
X156395755Y-125876638D01*
X156456760Y-125942906D01*
X156460879Y-125946112D01*
X156623339Y-126072561D01*
X156634424Y-126081189D01*
X156639005Y-126083668D01*
X156667680Y-126099186D01*
X156718071Y-126149199D01*
X156733423Y-126218516D01*
X156708863Y-126285129D01*
X156667681Y-126320813D01*
X156634424Y-126338811D01*
X156630313Y-126342010D01*
X156630311Y-126342012D01*
X156478574Y-126460115D01*
X156456760Y-126477094D01*
X156453228Y-126480931D01*
X156307806Y-126638899D01*
X156307803Y-126638903D01*
X156304278Y-126642732D01*
X156301427Y-126647096D01*
X156215483Y-126778643D01*
X156161479Y-126824732D01*
X156091132Y-126834307D01*
X156026774Y-126804330D01*
X156004517Y-126778643D01*
X155918573Y-126647096D01*
X155915722Y-126642732D01*
X155912197Y-126638903D01*
X155912194Y-126638899D01*
X155772525Y-126487180D01*
X155741104Y-126423515D01*
X155749091Y-126352969D01*
X155793949Y-126297940D01*
X155821191Y-126283787D01*
X155936204Y-126240889D01*
X155948536Y-126231658D01*
X156046050Y-126158659D01*
X156053261Y-126153261D01*
X156109610Y-126077988D01*
X156135489Y-126043418D01*
X156135490Y-126043416D01*
X156140889Y-126036204D01*
X156184998Y-125917944D01*
X156227545Y-125861108D01*
X156294065Y-125836297D01*
X156363439Y-125851388D01*
G37*
G04 #@! TD.AperFunction*
G04 #@! TA.AperFunction,NonConductor*
G36*
X162821621Y-122750502D02*
G01*
X162868114Y-122804158D01*
X162879500Y-122856500D01*
X162879500Y-139093500D01*
X162859498Y-139161621D01*
X162805842Y-139208114D01*
X162753500Y-139219500D01*
X84246500Y-139219500D01*
X84178379Y-139199498D01*
X84131886Y-139145842D01*
X84120500Y-139093500D01*
X84120500Y-136000000D01*
X151386250Y-136000000D01*
X151389236Y-136022678D01*
X151391499Y-136039870D01*
X151391503Y-136039911D01*
X151393617Y-136055964D01*
X151393618Y-136055970D01*
X151407162Y-136158851D01*
X151468476Y-136306876D01*
X151473503Y-136313427D01*
X151473504Y-136313429D01*
X151541520Y-136402069D01*
X151541526Y-136402075D01*
X151566013Y-136433987D01*
X151572568Y-136439017D01*
X151591379Y-136453452D01*
X151603770Y-136464319D01*
X152644596Y-137505145D01*
X152678622Y-137567457D01*
X152681501Y-137594240D01*
X152681501Y-137955544D01*
X152692113Y-138059426D01*
X152747885Y-138227738D01*
X152840970Y-138378652D01*
X152966348Y-138504030D01*
X153117262Y-138597115D01*
X153180807Y-138618171D01*
X153279048Y-138650725D01*
X153279052Y-138650726D01*
X153285574Y-138652887D01*
X153292408Y-138653585D01*
X153292412Y-138653586D01*
X153386271Y-138663175D01*
X153386277Y-138663175D01*
X153389455Y-138663500D01*
X153839929Y-138663500D01*
X154290544Y-138663499D01*
X154293721Y-138663174D01*
X154293730Y-138663174D01*
X154342467Y-138658195D01*
X154394426Y-138652887D01*
X154562738Y-138597115D01*
X154713652Y-138504030D01*
X154839030Y-138378652D01*
X154932115Y-138227738D01*
X154987887Y-138059426D01*
X154998500Y-137955545D01*
X154998499Y-136604456D01*
X154987887Y-136500574D01*
X154932115Y-136332262D01*
X154839030Y-136181348D01*
X154713652Y-136055970D01*
X154687617Y-136039911D01*
X154568981Y-135966736D01*
X154562738Y-135962885D01*
X154499193Y-135941829D01*
X154400952Y-135909275D01*
X154400948Y-135909274D01*
X154394426Y-135907113D01*
X154387592Y-135906415D01*
X154387588Y-135906414D01*
X154293729Y-135896825D01*
X154293723Y-135896825D01*
X154290545Y-135896500D01*
X153840071Y-135896500D01*
X153389456Y-135896501D01*
X153386279Y-135896826D01*
X153386270Y-135896826D01*
X153337533Y-135901805D01*
X153285574Y-135907113D01*
X153117262Y-135962885D01*
X153020323Y-136022678D01*
X152951844Y-136041415D01*
X152884105Y-136020156D01*
X152865081Y-136004532D01*
X152645405Y-135784856D01*
X152611379Y-135722544D01*
X152608500Y-135695761D01*
X152608500Y-126804239D01*
X152628502Y-126736118D01*
X152645405Y-126715144D01*
X153345186Y-126015363D01*
X153407498Y-125981337D01*
X153478313Y-125986402D01*
X153535149Y-126028949D01*
X153538142Y-126033606D01*
X153539111Y-126036204D01*
X153544065Y-126042822D01*
X153544069Y-126042828D01*
X153570390Y-126077988D01*
X153626739Y-126153261D01*
X153633950Y-126158659D01*
X153731465Y-126231658D01*
X153743796Y-126240889D01*
X153858808Y-126283787D01*
X153915642Y-126326333D01*
X153940453Y-126392853D01*
X153925361Y-126462227D01*
X153907475Y-126487180D01*
X153767806Y-126638899D01*
X153767803Y-126638903D01*
X153764278Y-126642732D01*
X153761427Y-126647096D01*
X153645372Y-126824732D01*
X153641140Y-126831209D01*
X153550704Y-127037384D01*
X153495436Y-127255632D01*
X153476844Y-127480000D01*
X153495436Y-127704368D01*
X153550704Y-127922616D01*
X153641140Y-128128791D01*
X153643990Y-128133153D01*
X153643992Y-128133157D01*
X153658701Y-128155670D01*
X153764278Y-128317268D01*
X153767803Y-128321097D01*
X153767806Y-128321101D01*
X153869360Y-128431417D01*
X153916760Y-128482906D01*
X154094424Y-128621189D01*
X154099005Y-128623668D01*
X154099010Y-128623671D01*
X154165470Y-128659638D01*
X154215860Y-128709651D01*
X154231500Y-128770451D01*
X154231500Y-128791864D01*
X154230422Y-128808307D01*
X154226250Y-128840000D01*
X154231500Y-128879880D01*
X154231500Y-128879885D01*
X154244609Y-128979457D01*
X154247162Y-128998851D01*
X154308476Y-129146876D01*
X154313503Y-129153427D01*
X154313504Y-129153429D01*
X154381520Y-129242069D01*
X154381526Y-129242075D01*
X154406013Y-129273987D01*
X154412568Y-129279017D01*
X154431379Y-129293452D01*
X154443770Y-129304319D01*
X156054595Y-130915144D01*
X156088621Y-130977456D01*
X156091500Y-131004239D01*
X156091500Y-132448638D01*
X156098011Y-132509201D01*
X156149111Y-132646204D01*
X156236739Y-132763261D01*
X156353796Y-132850889D01*
X156362238Y-132854038D01*
X156362242Y-132854040D01*
X156421174Y-132876021D01*
X156478009Y-132918567D01*
X156502820Y-132985088D01*
X156487728Y-133054462D01*
X156469844Y-133079411D01*
X156428349Y-133124487D01*
X156388214Y-133168084D01*
X156388211Y-133168088D01*
X156384686Y-133171917D01*
X156257016Y-133367331D01*
X156163251Y-133581093D01*
X156105949Y-133807374D01*
X156086673Y-134040000D01*
X156105949Y-134272626D01*
X156163251Y-134498907D01*
X156257016Y-134712669D01*
X156384686Y-134908083D01*
X156388211Y-134911912D01*
X156388214Y-134911916D01*
X156494975Y-135027889D01*
X156542780Y-135079818D01*
X156546892Y-135083019D01*
X156546898Y-135083024D01*
X156722870Y-135219989D01*
X156726983Y-135223190D01*
X156731567Y-135225671D01*
X156731569Y-135225672D01*
X156800470Y-135262960D01*
X156850860Y-135312973D01*
X156866500Y-135373773D01*
X156866500Y-135770501D01*
X156846498Y-135838622D01*
X156792842Y-135885115D01*
X156740500Y-135896501D01*
X156489456Y-135896501D01*
X156486279Y-135896826D01*
X156486270Y-135896826D01*
X156437533Y-135901805D01*
X156385574Y-135907113D01*
X156217262Y-135962885D01*
X156211019Y-135966736D01*
X156092384Y-136039911D01*
X156066348Y-136055970D01*
X155940970Y-136181348D01*
X155847885Y-136332262D01*
X155845578Y-136339225D01*
X155812511Y-136439017D01*
X155792113Y-136500574D01*
X155781500Y-136604455D01*
X155781501Y-137955544D01*
X155792113Y-138059426D01*
X155847885Y-138227738D01*
X155940970Y-138378652D01*
X156066348Y-138504030D01*
X156217262Y-138597115D01*
X156280807Y-138618171D01*
X156379048Y-138650725D01*
X156379052Y-138650726D01*
X156385574Y-138652887D01*
X156392408Y-138653585D01*
X156392412Y-138653586D01*
X156486271Y-138663175D01*
X156486277Y-138663175D01*
X156489455Y-138663500D01*
X156939929Y-138663500D01*
X157390544Y-138663499D01*
X157393721Y-138663174D01*
X157393730Y-138663174D01*
X157442467Y-138658195D01*
X157494426Y-138652887D01*
X157662738Y-138597115D01*
X157813652Y-138504030D01*
X157939030Y-138378652D01*
X158032115Y-138227738D01*
X158087887Y-138059426D01*
X158098500Y-137955545D01*
X158098499Y-136958166D01*
X158107845Y-136913036D01*
X158107822Y-136913029D01*
X158107905Y-136912743D01*
X158108861Y-136908127D01*
X158110034Y-136905417D01*
X158113181Y-136898145D01*
X158114420Y-136890322D01*
X158114423Y-136890312D01*
X158120099Y-136854476D01*
X158122505Y-136842856D01*
X158131528Y-136807711D01*
X158131528Y-136807710D01*
X158133500Y-136800030D01*
X158133500Y-136779776D01*
X158135051Y-136760065D01*
X158136980Y-136747886D01*
X158138220Y-136740057D01*
X158134059Y-136696038D01*
X158133500Y-136684181D01*
X158133500Y-135373773D01*
X158153502Y-135305652D01*
X158199530Y-135262960D01*
X158268431Y-135225672D01*
X158268433Y-135225671D01*
X158273017Y-135223190D01*
X158277130Y-135219989D01*
X158453102Y-135083024D01*
X158453108Y-135083019D01*
X158457220Y-135079818D01*
X158505025Y-135027889D01*
X158611786Y-134911916D01*
X158611789Y-134911912D01*
X158615314Y-134908083D01*
X158742984Y-134712669D01*
X158836749Y-134498907D01*
X158894051Y-134272626D01*
X158913327Y-134040000D01*
X158894051Y-133807374D01*
X158836749Y-133581093D01*
X158742984Y-133367331D01*
X158615314Y-133171917D01*
X158611789Y-133168088D01*
X158611786Y-133168084D01*
X158571651Y-133124487D01*
X158530157Y-133079413D01*
X158498737Y-133015749D01*
X158506724Y-132945203D01*
X158551582Y-132890174D01*
X158578826Y-132876021D01*
X158637758Y-132854040D01*
X158637762Y-132854038D01*
X158646204Y-132850889D01*
X158763261Y-132763261D01*
X158850889Y-132646204D01*
X158901989Y-132509201D01*
X158908500Y-132448638D01*
X158908500Y-130551362D01*
X158901989Y-130490799D01*
X158850889Y-130353796D01*
X158763261Y-130236739D01*
X158646204Y-130149111D01*
X158509201Y-130098011D01*
X158472295Y-130094043D01*
X158451988Y-130091860D01*
X158451985Y-130091860D01*
X158448638Y-130091500D01*
X157004239Y-130091500D01*
X156936118Y-130071498D01*
X156915144Y-130054595D01*
X155628075Y-128767526D01*
X155594049Y-128705214D01*
X155599114Y-128634399D01*
X155639776Y-128579003D01*
X155763240Y-128482906D01*
X155810640Y-128431417D01*
X155912194Y-128321101D01*
X155912197Y-128321097D01*
X155915722Y-128317268D01*
X156004517Y-128181357D01*
X156058521Y-128135268D01*
X156128868Y-128125693D01*
X156193226Y-128155670D01*
X156215483Y-128181357D01*
X156304278Y-128317268D01*
X156307803Y-128321097D01*
X156307806Y-128321101D01*
X156409360Y-128431417D01*
X156456760Y-128482906D01*
X156634424Y-128621189D01*
X156658834Y-128634399D01*
X156771501Y-128695371D01*
X156832426Y-128728342D01*
X157045365Y-128801444D01*
X157050499Y-128802301D01*
X157050504Y-128802302D01*
X157262294Y-128837643D01*
X157262296Y-128837643D01*
X157267431Y-128838500D01*
X157492569Y-128838500D01*
X157497704Y-128837643D01*
X157497706Y-128837643D01*
X157709496Y-128802302D01*
X157709501Y-128802301D01*
X157714635Y-128801444D01*
X157927574Y-128728342D01*
X157988500Y-128695371D01*
X158101166Y-128634399D01*
X158125576Y-128621189D01*
X158303240Y-128482906D01*
X158350640Y-128431417D01*
X158452194Y-128321101D01*
X158452197Y-128321097D01*
X158455722Y-128317268D01*
X158544517Y-128181357D01*
X158598521Y-128135268D01*
X158668868Y-128125693D01*
X158733226Y-128155670D01*
X158755483Y-128181357D01*
X158844278Y-128317268D01*
X158847803Y-128321097D01*
X158847806Y-128321101D01*
X158949360Y-128431417D01*
X158996760Y-128482906D01*
X159174424Y-128621189D01*
X159198834Y-128634399D01*
X159311501Y-128695371D01*
X159372426Y-128728342D01*
X159585365Y-128801444D01*
X159590499Y-128802301D01*
X159590504Y-128802302D01*
X159802294Y-128837643D01*
X159802296Y-128837643D01*
X159807431Y-128838500D01*
X160032569Y-128838500D01*
X160037704Y-128837643D01*
X160037706Y-128837643D01*
X160249496Y-128802302D01*
X160249501Y-128802301D01*
X160254635Y-128801444D01*
X160467574Y-128728342D01*
X160528500Y-128695371D01*
X160641166Y-128634399D01*
X160665576Y-128621189D01*
X160843240Y-128482906D01*
X160890640Y-128431417D01*
X160992194Y-128321101D01*
X160992197Y-128321097D01*
X160995722Y-128317268D01*
X161101299Y-128155670D01*
X161116008Y-128133157D01*
X161116010Y-128133153D01*
X161118860Y-128128791D01*
X161209296Y-127922616D01*
X161264564Y-127704368D01*
X161283156Y-127480000D01*
X161264564Y-127255632D01*
X161209296Y-127037384D01*
X161118860Y-126831209D01*
X161114629Y-126824732D01*
X160998573Y-126647096D01*
X160995722Y-126642732D01*
X160992197Y-126638903D01*
X160992194Y-126638899D01*
X160846772Y-126480931D01*
X160843240Y-126477094D01*
X160821426Y-126460115D01*
X160669689Y-126342012D01*
X160669687Y-126342010D01*
X160665576Y-126338811D01*
X160632320Y-126320814D01*
X160581929Y-126270801D01*
X160566577Y-126201484D01*
X160591137Y-126134871D01*
X160632320Y-126099186D01*
X160660995Y-126083668D01*
X160665576Y-126081189D01*
X160676662Y-126072561D01*
X160839121Y-125946112D01*
X160843240Y-125942906D01*
X160904245Y-125876638D01*
X160992194Y-125781101D01*
X160992197Y-125781097D01*
X160995722Y-125777268D01*
X161101299Y-125615670D01*
X161116008Y-125593157D01*
X161116010Y-125593153D01*
X161118860Y-125588791D01*
X161209296Y-125382616D01*
X161264564Y-125164368D01*
X161283156Y-124940000D01*
X161264564Y-124715632D01*
X161209296Y-124497384D01*
X161138763Y-124336584D01*
X161120954Y-124295982D01*
X161120952Y-124295978D01*
X161118860Y-124291209D01*
X161114629Y-124284732D01*
X160998573Y-124107096D01*
X160995722Y-124102732D01*
X160992197Y-124098903D01*
X160992194Y-124098899D01*
X160846772Y-123940931D01*
X160843240Y-123937094D01*
X160665576Y-123798811D01*
X160467574Y-123691658D01*
X160254635Y-123618556D01*
X160249501Y-123617699D01*
X160249496Y-123617698D01*
X160037706Y-123582357D01*
X160037704Y-123582357D01*
X160032569Y-123581500D01*
X159807431Y-123581500D01*
X159802296Y-123582357D01*
X159802294Y-123582357D01*
X159590504Y-123617698D01*
X159590499Y-123617699D01*
X159585365Y-123618556D01*
X159372426Y-123691658D01*
X159174424Y-123798811D01*
X158996760Y-123937094D01*
X158993228Y-123940931D01*
X158847806Y-124098899D01*
X158847803Y-124098903D01*
X158844278Y-124102732D01*
X158841427Y-124107096D01*
X158755483Y-124238643D01*
X158701479Y-124284732D01*
X158631132Y-124294307D01*
X158566774Y-124264330D01*
X158544517Y-124238643D01*
X158458573Y-124107096D01*
X158455722Y-124102732D01*
X158452197Y-124098903D01*
X158452194Y-124098899D01*
X158306772Y-123940931D01*
X158303240Y-123937094D01*
X158125576Y-123798811D01*
X157927574Y-123691658D01*
X157714635Y-123618556D01*
X157709501Y-123617699D01*
X157709496Y-123617698D01*
X157497706Y-123582357D01*
X157497704Y-123582357D01*
X157492569Y-123581500D01*
X157267431Y-123581500D01*
X157262296Y-123582357D01*
X157262294Y-123582357D01*
X157050504Y-123617698D01*
X157050499Y-123617699D01*
X157045365Y-123618556D01*
X156832426Y-123691658D01*
X156634424Y-123798811D01*
X156456760Y-123937094D01*
X156453228Y-123940931D01*
X156395755Y-124003362D01*
X156334901Y-124039933D01*
X156263937Y-124037798D01*
X156205392Y-123997636D01*
X156184998Y-123962056D01*
X156144038Y-123852239D01*
X156144037Y-123852237D01*
X156140889Y-123843796D01*
X156053261Y-123726739D01*
X155936204Y-123639111D01*
X155799201Y-123588011D01*
X155762295Y-123584043D01*
X155741988Y-123581860D01*
X155741985Y-123581860D01*
X155738638Y-123581500D01*
X153941362Y-123581500D01*
X153938015Y-123581860D01*
X153938012Y-123581860D01*
X153917705Y-123584043D01*
X153880799Y-123588011D01*
X153743796Y-123639111D01*
X153626739Y-123726739D01*
X153539111Y-123843796D01*
X153488011Y-123980799D01*
X153481500Y-124041362D01*
X153481500Y-124230065D01*
X153461498Y-124298186D01*
X153407842Y-124344679D01*
X153401121Y-124347094D01*
X153401149Y-124347162D01*
X153253124Y-124408476D01*
X153157928Y-124481523D01*
X153157925Y-124481526D01*
X153126013Y-124506013D01*
X153120983Y-124512568D01*
X153106548Y-124531379D01*
X153095681Y-124543770D01*
X151603766Y-126035685D01*
X151591375Y-126046552D01*
X151566013Y-126066013D01*
X151541526Y-126097925D01*
X151541523Y-126097928D01*
X151468476Y-126193124D01*
X151407162Y-126341149D01*
X151407162Y-126341150D01*
X151405414Y-126354426D01*
X151391500Y-126460115D01*
X151391500Y-126460120D01*
X151389688Y-126473888D01*
X151386250Y-126500000D01*
X151387328Y-126508188D01*
X151390422Y-126531690D01*
X151391500Y-126548136D01*
X151391500Y-135951864D01*
X151390422Y-135968307D01*
X151386250Y-136000000D01*
X84120500Y-136000000D01*
X84120500Y-129009500D01*
X84140502Y-128941379D01*
X84194158Y-128894886D01*
X84246500Y-128883500D01*
X96883500Y-128883500D01*
X96883500Y-122856500D01*
X96903502Y-122788379D01*
X96957158Y-122741886D01*
X97009500Y-122730500D01*
X162753500Y-122730500D01*
X162821621Y-122750502D01*
G37*
G04 #@! TD.AperFunction*
M02*
