%TF.GenerationSoftware,KiCad,Pcbnew,(6.99.0-2452-gdb4f2d9dd8)*%
%TF.CreationDate,2022-07-29T17:24:59-05:00*%
%TF.ProjectId,speaker-SAO,73706561-6b65-4722-9d53-414f2e6b6963,rev?*%
%TF.SameCoordinates,Original*%
%TF.FileFunction,Drillmap*%
%TF.FilePolarity,Positive*%
%FSLAX45Y45*%
G04 Gerber Fmt 4.5, Leading zero omitted, Abs format (unit mm)*
G04 Created by KiCad (PCBNEW (6.99.0-2452-gdb4f2d9dd8)) date 2022-07-29 17:24:59*
%MOMM*%
%LPD*%
G01*
G04 APERTURE LIST*
%ADD10C,0.100000*%
%ADD11C,0.200000*%
G04 APERTURE END LIST*
D10*
X8412000Y-12273000D02*
X16288000Y-12273000D01*
X16288000Y-12273000D02*
X16288000Y-13922000D01*
X16288000Y-13922000D02*
X8412000Y-13922000D01*
X8412000Y-13922000D02*
X8412000Y-12273000D01*
D11*
X8654619Y-14220476D02*
X8654619Y-14020476D01*
X8654619Y-14020476D02*
X8702238Y-14020476D01*
X8702238Y-14020476D02*
X8730810Y-14030000D01*
X8730810Y-14030000D02*
X8749857Y-14049048D01*
X8749857Y-14049048D02*
X8759381Y-14068095D01*
X8759381Y-14068095D02*
X8768905Y-14106190D01*
X8768905Y-14106190D02*
X8768905Y-14134762D01*
X8768905Y-14134762D02*
X8759381Y-14172857D01*
X8759381Y-14172857D02*
X8749857Y-14191905D01*
X8749857Y-14191905D02*
X8730810Y-14210952D01*
X8730810Y-14210952D02*
X8702238Y-14220476D01*
X8702238Y-14220476D02*
X8654619Y-14220476D01*
X8854619Y-14220476D02*
X8854619Y-14087143D01*
X8854619Y-14125238D02*
X8864143Y-14106190D01*
X8864143Y-14106190D02*
X8873667Y-14096667D01*
X8873667Y-14096667D02*
X8892714Y-14087143D01*
X8892714Y-14087143D02*
X8911762Y-14087143D01*
X8978429Y-14220476D02*
X8978429Y-14087143D01*
X8978429Y-14020476D02*
X8968905Y-14030000D01*
X8968905Y-14030000D02*
X8978429Y-14039524D01*
X8978429Y-14039524D02*
X8987952Y-14030000D01*
X8987952Y-14030000D02*
X8978429Y-14020476D01*
X8978429Y-14020476D02*
X8978429Y-14039524D01*
X9102238Y-14220476D02*
X9083190Y-14210952D01*
X9083190Y-14210952D02*
X9073667Y-14191905D01*
X9073667Y-14191905D02*
X9073667Y-14020476D01*
X9207000Y-14220476D02*
X9187952Y-14210952D01*
X9187952Y-14210952D02*
X9178429Y-14191905D01*
X9178429Y-14191905D02*
X9178429Y-14020476D01*
X9403190Y-14220476D02*
X9403190Y-14020476D01*
X9403190Y-14020476D02*
X9469857Y-14163333D01*
X9469857Y-14163333D02*
X9536524Y-14020476D01*
X9536524Y-14020476D02*
X9536524Y-14220476D01*
X9717476Y-14220476D02*
X9717476Y-14115714D01*
X9717476Y-14115714D02*
X9707952Y-14096667D01*
X9707952Y-14096667D02*
X9688905Y-14087143D01*
X9688905Y-14087143D02*
X9650809Y-14087143D01*
X9650809Y-14087143D02*
X9631762Y-14096667D01*
X9717476Y-14210952D02*
X9698429Y-14220476D01*
X9698429Y-14220476D02*
X9650809Y-14220476D01*
X9650809Y-14220476D02*
X9631762Y-14210952D01*
X9631762Y-14210952D02*
X9622238Y-14191905D01*
X9622238Y-14191905D02*
X9622238Y-14172857D01*
X9622238Y-14172857D02*
X9631762Y-14153809D01*
X9631762Y-14153809D02*
X9650809Y-14144286D01*
X9650809Y-14144286D02*
X9698429Y-14144286D01*
X9698429Y-14144286D02*
X9717476Y-14134762D01*
X9812714Y-14087143D02*
X9812714Y-14287143D01*
X9812714Y-14096667D02*
X9831762Y-14087143D01*
X9831762Y-14087143D02*
X9869857Y-14087143D01*
X9869857Y-14087143D02*
X9888905Y-14096667D01*
X9888905Y-14096667D02*
X9898429Y-14106190D01*
X9898429Y-14106190D02*
X9907952Y-14125238D01*
X9907952Y-14125238D02*
X9907952Y-14182381D01*
X9907952Y-14182381D02*
X9898429Y-14201428D01*
X9898429Y-14201428D02*
X9888905Y-14210952D01*
X9888905Y-14210952D02*
X9869857Y-14220476D01*
X9869857Y-14220476D02*
X9831762Y-14220476D01*
X9831762Y-14220476D02*
X9812714Y-14210952D01*
X9993667Y-14201428D02*
X10003190Y-14210952D01*
X10003190Y-14210952D02*
X9993667Y-14220476D01*
X9993667Y-14220476D02*
X9984143Y-14210952D01*
X9984143Y-14210952D02*
X9993667Y-14201428D01*
X9993667Y-14201428D02*
X9993667Y-14220476D01*
X9993667Y-14096667D02*
X10003190Y-14106190D01*
X10003190Y-14106190D02*
X9993667Y-14115714D01*
X9993667Y-14115714D02*
X9984143Y-14106190D01*
X9984143Y-14106190D02*
X9993667Y-14096667D01*
X9993667Y-14096667D02*
X9993667Y-14115714D01*
M02*
