G04 #@! TF.GenerationSoftware,KiCad,Pcbnew,(6.99.0-2452-gdb4f2d9dd8)*
G04 #@! TF.CreationDate,2022-07-21T16:30:43-08:00*
G04 #@! TF.ProjectId,speaker-SAO,73706561-6b65-4722-9d53-414f2e6b6963,rev?*
G04 #@! TF.SameCoordinates,Original*
G04 #@! TF.FileFunction,Legend,Bot*
G04 #@! TF.FilePolarity,Positive*
%FSLAX46Y46*%
G04 Gerber Fmt 4.6, Leading zero omitted, Abs format (unit mm)*
G04 Created by KiCad (PCBNEW (6.99.0-2452-gdb4f2d9dd8)) date 2022-07-21 16:30:43*
%MOMM*%
%LPD*%
G01*
G04 APERTURE LIST*
G04 Aperture macros list*
%AMRoundRect*
0 Rectangle with rounded corners*
0 $1 Rounding radius*
0 $2 $3 $4 $5 $6 $7 $8 $9 X,Y pos of 4 corners*
0 Add a 4 corners polygon primitive as box body*
4,1,4,$2,$3,$4,$5,$6,$7,$8,$9,$2,$3,0*
0 Add four circle primitives for the rounded corners*
1,1,$1+$1,$2,$3*
1,1,$1+$1,$4,$5*
1,1,$1+$1,$6,$7*
1,1,$1+$1,$8,$9*
0 Add four rect primitives between the rounded corners*
20,1,$1+$1,$2,$3,$4,$5,0*
20,1,$1+$1,$4,$5,$6,$7,0*
20,1,$1+$1,$6,$7,$8,$9,0*
20,1,$1+$1,$8,$9,$2,$3,0*%
G04 Aperture macros list end*
%ADD10C,0.300000*%
%ADD11C,0.120000*%
%ADD12R,1.800000X1.800000*%
%ADD13C,1.800000*%
%ADD14RoundRect,0.250000X0.400000X0.625000X-0.400000X0.625000X-0.400000X-0.625000X0.400000X-0.625000X0*%
%ADD15R,1.700000X1.700000*%
%ADD16O,1.700000X1.700000*%
G04 APERTURE END LIST*
D10*
X96214285Y-137051071D02*
X96214285Y-138336785D01*
X96214285Y-138336785D02*
X96285713Y-138479642D01*
X96285713Y-138479642D02*
X96428570Y-138551071D01*
X96428570Y-138551071D02*
X96499999Y-138551071D01*
X96214285Y-136551071D02*
X96285713Y-136622500D01*
X96285713Y-136622500D02*
X96214285Y-136693928D01*
X96214285Y-136693928D02*
X96142856Y-136622500D01*
X96142856Y-136622500D02*
X96214285Y-136551071D01*
X96214285Y-136551071D02*
X96214285Y-136693928D01*
X95285713Y-138051071D02*
X95428570Y-137979642D01*
X95428570Y-137979642D02*
X95499999Y-137836785D01*
X95499999Y-137836785D02*
X95499999Y-136551071D01*
X94071428Y-137979642D02*
X94214285Y-138051071D01*
X94214285Y-138051071D02*
X94499999Y-138051071D01*
X94499999Y-138051071D02*
X94642856Y-137979642D01*
X94642856Y-137979642D02*
X94714285Y-137908214D01*
X94714285Y-137908214D02*
X94785713Y-137765357D01*
X94785713Y-137765357D02*
X94785713Y-137336785D01*
X94785713Y-137336785D02*
X94714285Y-137193928D01*
X94714285Y-137193928D02*
X94642856Y-137122500D01*
X94642856Y-137122500D02*
X94499999Y-137051071D01*
X94499999Y-137051071D02*
X94214285Y-137051071D01*
X94214285Y-137051071D02*
X94071428Y-137122500D01*
X93428571Y-137051071D02*
X93428571Y-138336785D01*
X93428571Y-138336785D02*
X93499999Y-138479642D01*
X93499999Y-138479642D02*
X93642856Y-138551071D01*
X93642856Y-138551071D02*
X93714285Y-138551071D01*
X93428571Y-136551071D02*
X93499999Y-136622500D01*
X93499999Y-136622500D02*
X93428571Y-136693928D01*
X93428571Y-136693928D02*
X93357142Y-136622500D01*
X93357142Y-136622500D02*
X93428571Y-136551071D01*
X93428571Y-136551071D02*
X93428571Y-136693928D01*
X92499999Y-138051071D02*
X92642856Y-137979642D01*
X92642856Y-137979642D02*
X92714285Y-137836785D01*
X92714285Y-137836785D02*
X92714285Y-136551071D01*
X91285714Y-137979642D02*
X91428571Y-138051071D01*
X91428571Y-138051071D02*
X91714285Y-138051071D01*
X91714285Y-138051071D02*
X91857142Y-137979642D01*
X91857142Y-137979642D02*
X91928571Y-137908214D01*
X91928571Y-137908214D02*
X91999999Y-137765357D01*
X91999999Y-137765357D02*
X91999999Y-137336785D01*
X91999999Y-137336785D02*
X91928571Y-137193928D01*
X91928571Y-137193928D02*
X91857142Y-137122500D01*
X91857142Y-137122500D02*
X91714285Y-137051071D01*
X91714285Y-137051071D02*
X91428571Y-137051071D01*
X91428571Y-137051071D02*
X91285714Y-137122500D01*
X90642857Y-137051071D02*
X90642857Y-138336785D01*
X90642857Y-138336785D02*
X90714285Y-138479642D01*
X90714285Y-138479642D02*
X90857142Y-138551071D01*
X90857142Y-138551071D02*
X90928571Y-138551071D01*
X90642857Y-136551071D02*
X90714285Y-136622500D01*
X90714285Y-136622500D02*
X90642857Y-136693928D01*
X90642857Y-136693928D02*
X90571428Y-136622500D01*
X90571428Y-136622500D02*
X90642857Y-136551071D01*
X90642857Y-136551071D02*
X90642857Y-136693928D01*
X89714285Y-138051071D02*
X89857142Y-137979642D01*
X89857142Y-137979642D02*
X89928571Y-137836785D01*
X89928571Y-137836785D02*
X89928571Y-136551071D01*
X88500000Y-137979642D02*
X88642857Y-138051071D01*
X88642857Y-138051071D02*
X88928571Y-138051071D01*
X88928571Y-138051071D02*
X89071428Y-137979642D01*
X89071428Y-137979642D02*
X89142857Y-137908214D01*
X89142857Y-137908214D02*
X89214285Y-137765357D01*
X89214285Y-137765357D02*
X89214285Y-137336785D01*
X89214285Y-137336785D02*
X89142857Y-137193928D01*
X89142857Y-137193928D02*
X89071428Y-137122500D01*
X89071428Y-137122500D02*
X88928571Y-137051071D01*
X88928571Y-137051071D02*
X88642857Y-137051071D01*
X88642857Y-137051071D02*
X88500000Y-137122500D01*
X87857143Y-137051071D02*
X87857143Y-138336785D01*
X87857143Y-138336785D02*
X87928571Y-138479642D01*
X87928571Y-138479642D02*
X88071428Y-138551071D01*
X88071428Y-138551071D02*
X88142857Y-138551071D01*
X87857143Y-136551071D02*
X87928571Y-136622500D01*
X87928571Y-136622500D02*
X87857143Y-136693928D01*
X87857143Y-136693928D02*
X87785714Y-136622500D01*
X87785714Y-136622500D02*
X87857143Y-136551071D01*
X87857143Y-136551071D02*
X87857143Y-136693928D01*
X86928571Y-138051071D02*
X87071428Y-137979642D01*
X87071428Y-137979642D02*
X87142857Y-137836785D01*
X87142857Y-137836785D02*
X87142857Y-136551071D01*
X85714286Y-137979642D02*
X85857143Y-138051071D01*
X85857143Y-138051071D02*
X86142857Y-138051071D01*
X86142857Y-138051071D02*
X86285714Y-137979642D01*
X86285714Y-137979642D02*
X86357143Y-137908214D01*
X86357143Y-137908214D02*
X86428571Y-137765357D01*
X86428571Y-137765357D02*
X86428571Y-137336785D01*
X86428571Y-137336785D02*
X86357143Y-137193928D01*
X86357143Y-137193928D02*
X86285714Y-137122500D01*
X86285714Y-137122500D02*
X86142857Y-137051071D01*
X86142857Y-137051071D02*
X85857143Y-137051071D01*
X85857143Y-137051071D02*
X85714286Y-137122500D01*
D11*
X156117064Y-136370000D02*
X154662936Y-136370000D01*
X156117064Y-138190000D02*
X154662936Y-138190000D01*
X161250000Y-123610000D02*
X161250000Y-128810000D01*
X156110000Y-123610000D02*
X161250000Y-123610000D01*
X156110000Y-123610000D02*
X156110000Y-126210000D01*
X154840000Y-123610000D02*
X153510000Y-123610000D01*
X153510000Y-123610000D02*
X153510000Y-124940000D01*
X156110000Y-126210000D02*
X153510000Y-126210000D01*
X153510000Y-126210000D02*
X153510000Y-128810000D01*
X153510000Y-128810000D02*
X161250000Y-128810000D01*
%LPC*%
D12*
X157499999Y-131499999D03*
D13*
X157500000Y-134040000D03*
D14*
X156940000Y-137280000D03*
X153840000Y-137280000D03*
D15*
X154839999Y-124939999D03*
D16*
X154839999Y-127479999D03*
X157379999Y-124939999D03*
X157379999Y-127479999D03*
X159919999Y-124939999D03*
X159919999Y-127479999D03*
M02*
