G04 #@! TF.GenerationSoftware,KiCad,Pcbnew,(6.0.4-0)*
G04 #@! TF.CreationDate,2022-05-03T21:35:22-05:00*
G04 #@! TF.ProjectId,gold_star,676f6c64-5f73-4746-9172-2e6b69636164,rev?*
G04 #@! TF.SameCoordinates,Original*
G04 #@! TF.FileFunction,Legend,Bot*
G04 #@! TF.FilePolarity,Positive*
%FSLAX46Y46*%
G04 Gerber Fmt 4.6, Leading zero omitted, Abs format (unit mm)*
G04 Created by KiCad (PCBNEW (6.0.4-0)) date 2022-05-03 21:35:22*
%MOMM*%
%LPD*%
G01*
G04 APERTURE LIST*
%ADD10C,0.150000*%
%ADD11C,0.120000*%
%ADD12O,1.700000X1.700000*%
%ADD13R,1.700000X1.700000*%
G04 APERTURE END LIST*
D10*
X128547619Y-63476190D02*
X128595238Y-63428571D01*
X128690476Y-63380952D01*
X128785714Y-63380952D01*
X128880952Y-63428571D01*
X128928571Y-63476190D01*
X128976190Y-63571428D01*
X128976190Y-63666666D01*
X128928571Y-63761904D01*
X128880952Y-63809523D01*
X128785714Y-63857142D01*
X128690476Y-63857142D01*
X128595238Y-63809523D01*
X128547619Y-63761904D01*
X128547619Y-63380952D02*
X128547619Y-63761904D01*
X128500000Y-63809523D01*
X128452380Y-63809523D01*
X128357142Y-63761904D01*
X128309523Y-63666666D01*
X128309523Y-63428571D01*
X128404761Y-63285714D01*
X128547619Y-63190476D01*
X128738095Y-63142857D01*
X128928571Y-63190476D01*
X129071428Y-63285714D01*
X129166666Y-63428571D01*
X129214285Y-63619047D01*
X129166666Y-63809523D01*
X129071428Y-63952380D01*
X128928571Y-64047619D01*
X128738095Y-64095238D01*
X128547619Y-64047619D01*
X128404761Y-63952380D01*
X127880952Y-63285714D02*
X127880952Y-64285714D01*
X127880952Y-63333333D02*
X127785714Y-63285714D01*
X127595238Y-63285714D01*
X127500000Y-63333333D01*
X127452380Y-63380952D01*
X127404761Y-63476190D01*
X127404761Y-63761904D01*
X127452380Y-63857142D01*
X127500000Y-63904761D01*
X127595238Y-63952380D01*
X127785714Y-63952380D01*
X127880952Y-63904761D01*
X126547619Y-63285714D02*
X126547619Y-63952380D01*
X126976190Y-63285714D02*
X126976190Y-63809523D01*
X126928571Y-63904761D01*
X126833333Y-63952380D01*
X126690476Y-63952380D01*
X126595238Y-63904761D01*
X126547619Y-63857142D01*
X126071428Y-63952380D02*
X126071428Y-62952380D01*
X126071428Y-63333333D02*
X125976190Y-63285714D01*
X125785714Y-63285714D01*
X125690476Y-63333333D01*
X125642857Y-63380952D01*
X125595238Y-63476190D01*
X125595238Y-63761904D01*
X125642857Y-63857142D01*
X125690476Y-63904761D01*
X125785714Y-63952380D01*
X125976190Y-63952380D01*
X126071428Y-63904761D01*
X125214285Y-63904761D02*
X125119047Y-63952380D01*
X124928571Y-63952380D01*
X124833333Y-63904761D01*
X124785714Y-63809523D01*
X124785714Y-63761904D01*
X124833333Y-63666666D01*
X124928571Y-63619047D01*
X125071428Y-63619047D01*
X125166666Y-63571428D01*
X125214285Y-63476190D01*
X125214285Y-63428571D01*
X125166666Y-63333333D01*
X125071428Y-63285714D01*
X124928571Y-63285714D01*
X124833333Y-63333333D01*
X130476190Y-65825714D02*
X130476190Y-66682857D01*
X130523809Y-66778095D01*
X130619047Y-66825714D01*
X130666666Y-66825714D01*
X130476190Y-65492380D02*
X130523809Y-65540000D01*
X130476190Y-65587619D01*
X130428571Y-65540000D01*
X130476190Y-65492380D01*
X130476190Y-65587619D01*
X129857142Y-66492380D02*
X129952380Y-66444761D01*
X130000000Y-66349523D01*
X130000000Y-65492380D01*
X129047619Y-66444761D02*
X129142857Y-66492380D01*
X129333333Y-66492380D01*
X129428571Y-66444761D01*
X129476190Y-66397142D01*
X129523809Y-66301904D01*
X129523809Y-66016190D01*
X129476190Y-65920952D01*
X129428571Y-65873333D01*
X129333333Y-65825714D01*
X129142857Y-65825714D01*
X129047619Y-65873333D01*
X128619047Y-65825714D02*
X128619047Y-66682857D01*
X128666666Y-66778095D01*
X128761904Y-66825714D01*
X128809523Y-66825714D01*
X128619047Y-65492380D02*
X128666666Y-65540000D01*
X128619047Y-65587619D01*
X128571428Y-65540000D01*
X128619047Y-65492380D01*
X128619047Y-65587619D01*
X128000000Y-66492380D02*
X128095238Y-66444761D01*
X128142857Y-66349523D01*
X128142857Y-65492380D01*
X127190476Y-66444761D02*
X127285714Y-66492380D01*
X127476190Y-66492380D01*
X127571428Y-66444761D01*
X127619047Y-66397142D01*
X127666666Y-66301904D01*
X127666666Y-66016190D01*
X127619047Y-65920952D01*
X127571428Y-65873333D01*
X127476190Y-65825714D01*
X127285714Y-65825714D01*
X127190476Y-65873333D01*
X126761904Y-65825714D02*
X126761904Y-66682857D01*
X126809523Y-66778095D01*
X126904761Y-66825714D01*
X126952380Y-66825714D01*
X126761904Y-65492380D02*
X126809523Y-65540000D01*
X126761904Y-65587619D01*
X126714285Y-65540000D01*
X126761904Y-65492380D01*
X126761904Y-65587619D01*
X126142857Y-66492380D02*
X126238095Y-66444761D01*
X126285714Y-66349523D01*
X126285714Y-65492380D01*
X125333333Y-66444761D02*
X125428571Y-66492380D01*
X125619047Y-66492380D01*
X125714285Y-66444761D01*
X125761904Y-66397142D01*
X125809523Y-66301904D01*
X125809523Y-66016190D01*
X125761904Y-65920952D01*
X125714285Y-65873333D01*
X125619047Y-65825714D01*
X125428571Y-65825714D01*
X125333333Y-65873333D01*
X124904761Y-65825714D02*
X124904761Y-66682857D01*
X124952380Y-66778095D01*
X125047619Y-66825714D01*
X125095238Y-66825714D01*
X124904761Y-65492380D02*
X124952380Y-65540000D01*
X124904761Y-65587619D01*
X124857142Y-65540000D01*
X124904761Y-65492380D01*
X124904761Y-65587619D01*
X124285714Y-66492380D02*
X124380952Y-66444761D01*
X124428571Y-66349523D01*
X124428571Y-65492380D01*
X123476190Y-66444761D02*
X123571428Y-66492380D01*
X123761904Y-66492380D01*
X123857142Y-66444761D01*
X123904761Y-66397142D01*
X123952380Y-66301904D01*
X123952380Y-66016190D01*
X123904761Y-65920952D01*
X123857142Y-65873333D01*
X123761904Y-65825714D01*
X123571428Y-65825714D01*
X123476190Y-65873333D01*
X121582380Y-77736666D02*
X122296666Y-77736666D01*
X122439523Y-77689047D01*
X122534761Y-77593809D01*
X122582380Y-77450952D01*
X122582380Y-77355714D01*
X122582380Y-78736666D02*
X122582380Y-78165238D01*
X122582380Y-78450952D02*
X121582380Y-78450952D01*
X121725238Y-78355714D01*
X121820476Y-78260476D01*
X121868095Y-78165238D01*
D11*
X123130000Y-78070000D02*
X123130000Y-80670000D01*
X124460000Y-75470000D02*
X123130000Y-75470000D01*
X125730000Y-75470000D02*
X125730000Y-78070000D01*
X125730000Y-75470000D02*
X130870000Y-75470000D01*
X123130000Y-75470000D02*
X123130000Y-76800000D01*
X123130000Y-80670000D02*
X130870000Y-80670000D01*
X130870000Y-75470000D02*
X130870000Y-80670000D01*
X125730000Y-78070000D02*
X123130000Y-78070000D01*
%LPC*%
D12*
X129540000Y-79340000D03*
X129540000Y-76800000D03*
X127000000Y-79340000D03*
X127000000Y-76800000D03*
X124460000Y-79340000D03*
D13*
X124460000Y-76800000D03*
M02*
