%TF.GenerationSoftware,KiCad,Pcbnew,(6.0.4-0)*%
%TF.CreationDate,2022-04-25T17:13:00-04:00*%
%TF.ProjectId,sky_base,736b795f-6261-4736-952e-6b696361645f,rev?*%
%TF.SameCoordinates,Original*%
%TF.FileFunction,Legend,Bot*%
%TF.FilePolarity,Positive*%
%FSLAX46Y46*%
G04 Gerber Fmt 4.6, Leading zero omitted, Abs format (unit mm)*
G04 Created by KiCad (PCBNEW (6.0.4-0)) date 2022-04-25 17:13:00*
%MOMM*%
%LPD*%
G01*
G04 APERTURE LIST*
%ADD10C,0.150000*%
%ADD11C,0.250000*%
%ADD12C,0.120000*%
G04 APERTURE END LIST*
D10*
X152066190Y-107735714D02*
X152066190Y-108592857D01*
X152113809Y-108688095D01*
X152209047Y-108735714D01*
X152256666Y-108735714D01*
X152066190Y-107402380D02*
X152113809Y-107450000D01*
X152066190Y-107497619D01*
X152018571Y-107450000D01*
X152066190Y-107402380D01*
X152066190Y-107497619D01*
X151447142Y-108402380D02*
X151542380Y-108354761D01*
X151590000Y-108259523D01*
X151590000Y-107402380D01*
X150637619Y-108354761D02*
X150732857Y-108402380D01*
X150923333Y-108402380D01*
X151018571Y-108354761D01*
X151066190Y-108307142D01*
X151113809Y-108211904D01*
X151113809Y-107926190D01*
X151066190Y-107830952D01*
X151018571Y-107783333D01*
X150923333Y-107735714D01*
X150732857Y-107735714D01*
X150637619Y-107783333D01*
X150209047Y-107735714D02*
X150209047Y-108592857D01*
X150256666Y-108688095D01*
X150351904Y-108735714D01*
X150399523Y-108735714D01*
X150209047Y-107402380D02*
X150256666Y-107450000D01*
X150209047Y-107497619D01*
X150161428Y-107450000D01*
X150209047Y-107402380D01*
X150209047Y-107497619D01*
X149590000Y-108402380D02*
X149685238Y-108354761D01*
X149732857Y-108259523D01*
X149732857Y-107402380D01*
X148780476Y-108354761D02*
X148875714Y-108402380D01*
X149066190Y-108402380D01*
X149161428Y-108354761D01*
X149209047Y-108307142D01*
X149256666Y-108211904D01*
X149256666Y-107926190D01*
X149209047Y-107830952D01*
X149161428Y-107783333D01*
X149066190Y-107735714D01*
X148875714Y-107735714D01*
X148780476Y-107783333D01*
X148351904Y-107735714D02*
X148351904Y-108592857D01*
X148399523Y-108688095D01*
X148494761Y-108735714D01*
X148542380Y-108735714D01*
X148351904Y-107402380D02*
X148399523Y-107450000D01*
X148351904Y-107497619D01*
X148304285Y-107450000D01*
X148351904Y-107402380D01*
X148351904Y-107497619D01*
X147732857Y-108402380D02*
X147828095Y-108354761D01*
X147875714Y-108259523D01*
X147875714Y-107402380D01*
X146923333Y-108354761D02*
X147018571Y-108402380D01*
X147209047Y-108402380D01*
X147304285Y-108354761D01*
X147351904Y-108307142D01*
X147399523Y-108211904D01*
X147399523Y-107926190D01*
X147351904Y-107830952D01*
X147304285Y-107783333D01*
X147209047Y-107735714D01*
X147018571Y-107735714D01*
X146923333Y-107783333D01*
X146494761Y-107735714D02*
X146494761Y-108592857D01*
X146542380Y-108688095D01*
X146637619Y-108735714D01*
X146685238Y-108735714D01*
X146494761Y-107402380D02*
X146542380Y-107450000D01*
X146494761Y-107497619D01*
X146447142Y-107450000D01*
X146494761Y-107402380D01*
X146494761Y-107497619D01*
X145875714Y-108402380D02*
X145970952Y-108354761D01*
X146018571Y-108259523D01*
X146018571Y-107402380D01*
X145066190Y-108354761D02*
X145161428Y-108402380D01*
X145351904Y-108402380D01*
X145447142Y-108354761D01*
X145494761Y-108307142D01*
X145542380Y-108211904D01*
X145542380Y-107926190D01*
X145494761Y-107830952D01*
X145447142Y-107783333D01*
X145351904Y-107735714D01*
X145161428Y-107735714D01*
X145066190Y-107783333D01*
%TO.C,D3*%
X139150004Y-79341332D02*
X139150004Y-78341332D01*
X138911909Y-78341332D01*
X138769051Y-78388952D01*
X138673813Y-78484190D01*
X138626194Y-78579428D01*
X138578575Y-78769904D01*
X138578575Y-78912761D01*
X138626194Y-79103237D01*
X138673813Y-79198475D01*
X138769051Y-79293713D01*
X138911909Y-79341332D01*
X139150004Y-79341332D01*
X138245242Y-78341332D02*
X137626194Y-78341332D01*
X137959528Y-78722285D01*
X137816670Y-78722285D01*
X137721432Y-78769904D01*
X137673813Y-78817523D01*
X137626194Y-78912761D01*
X137626194Y-79150856D01*
X137673813Y-79246094D01*
X137721432Y-79293713D01*
X137816670Y-79341332D01*
X138102385Y-79341332D01*
X138197623Y-79293713D01*
X138245242Y-79246094D01*
D11*
X142432380Y-78454285D02*
X142432380Y-79025714D01*
X143432380Y-78740000D02*
X142432380Y-78740000D01*
D10*
%TO.C,D5*%
X181818095Y-86812380D02*
X181818095Y-85812380D01*
X181580000Y-85812380D01*
X181437142Y-85860000D01*
X181341904Y-85955238D01*
X181294285Y-86050476D01*
X181246666Y-86240952D01*
X181246666Y-86383809D01*
X181294285Y-86574285D01*
X181341904Y-86669523D01*
X181437142Y-86764761D01*
X181580000Y-86812380D01*
X181818095Y-86812380D01*
X180341904Y-85812380D02*
X180818095Y-85812380D01*
X180865714Y-86288571D01*
X180818095Y-86240952D01*
X180722857Y-86193333D01*
X180484761Y-86193333D01*
X180389523Y-86240952D01*
X180341904Y-86288571D01*
X180294285Y-86383809D01*
X180294285Y-86621904D01*
X180341904Y-86717142D01*
X180389523Y-86764761D01*
X180484761Y-86812380D01*
X180722857Y-86812380D01*
X180818095Y-86764761D01*
X180865714Y-86717142D01*
D11*
X180532380Y-88614285D02*
X180532380Y-89185714D01*
X181532380Y-88900000D02*
X180532380Y-88900000D01*
D10*
%TO.C,D4*%
X196318095Y-104592380D02*
X196318095Y-103592380D01*
X196080000Y-103592380D01*
X195937142Y-103640000D01*
X195841904Y-103735238D01*
X195794285Y-103830476D01*
X195746666Y-104020952D01*
X195746666Y-104163809D01*
X195794285Y-104354285D01*
X195841904Y-104449523D01*
X195937142Y-104544761D01*
X196080000Y-104592380D01*
X196318095Y-104592380D01*
X194889523Y-103925714D02*
X194889523Y-104592380D01*
X195127619Y-103544761D02*
X195365714Y-104259047D01*
X194746666Y-104259047D01*
D11*
X195032380Y-106394285D02*
X195032380Y-106965714D01*
X196032380Y-106680000D02*
X195032380Y-106680000D01*
D10*
%TO.C,R5*%
X159001528Y-114201574D02*
X158525338Y-113868241D01*
X159001528Y-113630145D02*
X158001528Y-113630145D01*
X158001528Y-114011098D01*
X158049148Y-114106336D01*
X158096767Y-114153955D01*
X158192005Y-114201574D01*
X158334862Y-114201574D01*
X158430100Y-114153955D01*
X158477719Y-114106336D01*
X158525338Y-114011098D01*
X158525338Y-113630145D01*
X158001528Y-115106336D02*
X158001528Y-114630145D01*
X158477719Y-114582526D01*
X158430100Y-114630145D01*
X158382481Y-114725383D01*
X158382481Y-114963479D01*
X158430100Y-115058717D01*
X158477719Y-115106336D01*
X158572957Y-115153955D01*
X158811052Y-115153955D01*
X158906290Y-115106336D01*
X158953909Y-115058717D01*
X159001528Y-114963479D01*
X159001528Y-114725383D01*
X158953909Y-114630145D01*
X158906290Y-114582526D01*
%TO.C,D2*%
X119378095Y-86812380D02*
X119378095Y-85812380D01*
X119140000Y-85812380D01*
X118997142Y-85860000D01*
X118901904Y-85955238D01*
X118854285Y-86050476D01*
X118806666Y-86240952D01*
X118806666Y-86383809D01*
X118854285Y-86574285D01*
X118901904Y-86669523D01*
X118997142Y-86764761D01*
X119140000Y-86812380D01*
X119378095Y-86812380D01*
X118425714Y-85907619D02*
X118378095Y-85860000D01*
X118282857Y-85812380D01*
X118044761Y-85812380D01*
X117949523Y-85860000D01*
X117901904Y-85907619D01*
X117854285Y-86002857D01*
X117854285Y-86098095D01*
X117901904Y-86240952D01*
X118473333Y-86812380D01*
X117854285Y-86812380D01*
D11*
X118092380Y-88614285D02*
X118092380Y-89185714D01*
X119092380Y-88900000D02*
X118092380Y-88900000D01*
D10*
%TO.C,R3*%
X148492380Y-114133333D02*
X148016190Y-113800000D01*
X148492380Y-113561904D02*
X147492380Y-113561904D01*
X147492380Y-113942857D01*
X147540000Y-114038095D01*
X147587619Y-114085714D01*
X147682857Y-114133333D01*
X147825714Y-114133333D01*
X147920952Y-114085714D01*
X147968571Y-114038095D01*
X148016190Y-113942857D01*
X148016190Y-113561904D01*
X147492380Y-114466666D02*
X147492380Y-115085714D01*
X147873333Y-114752380D01*
X147873333Y-114895238D01*
X147920952Y-114990476D01*
X147968571Y-115038095D01*
X148063809Y-115085714D01*
X148301904Y-115085714D01*
X148397142Y-115038095D01*
X148444761Y-114990476D01*
X148492380Y-114895238D01*
X148492380Y-114609523D01*
X148444761Y-114514285D01*
X148397142Y-114466666D01*
%TO.C,R1*%
X137964591Y-114186499D02*
X137488401Y-113853166D01*
X137964591Y-113615070D02*
X136964591Y-113615070D01*
X136964591Y-113996023D01*
X137012211Y-114091261D01*
X137059830Y-114138880D01*
X137155068Y-114186499D01*
X137297925Y-114186499D01*
X137393163Y-114138880D01*
X137440782Y-114091261D01*
X137488401Y-113996023D01*
X137488401Y-113615070D01*
X137964591Y-115138880D02*
X137964591Y-114567451D01*
X137964591Y-114853166D02*
X136964591Y-114853166D01*
X137107449Y-114757927D01*
X137202687Y-114662689D01*
X137250306Y-114567451D01*
%TO.C,D1*%
X103078095Y-104592380D02*
X103078095Y-103592380D01*
X102840000Y-103592380D01*
X102697142Y-103640000D01*
X102601904Y-103735238D01*
X102554285Y-103830476D01*
X102506666Y-104020952D01*
X102506666Y-104163809D01*
X102554285Y-104354285D01*
X102601904Y-104449523D01*
X102697142Y-104544761D01*
X102840000Y-104592380D01*
X103078095Y-104592380D01*
X101554285Y-104592380D02*
X102125714Y-104592380D01*
X101840000Y-104592380D02*
X101840000Y-103592380D01*
X101935238Y-103735238D01*
X102030476Y-103830476D01*
X102125714Y-103878095D01*
D11*
X101792380Y-106394285D02*
X101792380Y-106965714D01*
X102792380Y-106680000D02*
X101792380Y-106680000D01*
D10*
%TO.C,R4*%
X153746954Y-114269816D02*
X153270764Y-113936483D01*
X153746954Y-113698387D02*
X152746954Y-113698387D01*
X152746954Y-114079340D01*
X152794574Y-114174578D01*
X152842193Y-114222197D01*
X152937431Y-114269816D01*
X153080288Y-114269816D01*
X153175526Y-114222197D01*
X153223145Y-114174578D01*
X153270764Y-114079340D01*
X153270764Y-113698387D01*
X153080288Y-115126959D02*
X153746954Y-115126959D01*
X152699335Y-114888863D02*
X153413621Y-114650768D01*
X153413621Y-115269816D01*
%TO.C,R2*%
X143101323Y-114182026D02*
X142625133Y-113848693D01*
X143101323Y-113610597D02*
X142101323Y-113610597D01*
X142101323Y-113991550D01*
X142148943Y-114086788D01*
X142196562Y-114134407D01*
X142291800Y-114182026D01*
X142434657Y-114182026D01*
X142529895Y-114134407D01*
X142577514Y-114086788D01*
X142625133Y-113991550D01*
X142625133Y-113610597D01*
X142196562Y-114562978D02*
X142148943Y-114610597D01*
X142101323Y-114705835D01*
X142101323Y-114943931D01*
X142148943Y-115039169D01*
X142196562Y-115086788D01*
X142291800Y-115134407D01*
X142387038Y-115134407D01*
X142529895Y-115086788D01*
X143101323Y-114515359D01*
X143101323Y-115134407D01*
D12*
%TO.C,R5*%
X161279148Y-113641177D02*
X161279148Y-115095305D01*
X159459148Y-113641177D02*
X159459148Y-115095305D01*
%TO.C,R3*%
X148950000Y-113572936D02*
X148950000Y-115027064D01*
X150770000Y-113572936D02*
X150770000Y-115027064D01*
%TO.C,R1*%
X138422211Y-113626102D02*
X138422211Y-115080230D01*
X140242211Y-113626102D02*
X140242211Y-115080230D01*
%TO.C,R4*%
X156024574Y-113709419D02*
X156024574Y-115163547D01*
X154204574Y-113709419D02*
X154204574Y-115163547D01*
%TO.C,R2*%
X145378943Y-113621629D02*
X145378943Y-115075757D01*
X143558943Y-113621629D02*
X143558943Y-115075757D01*
%TD*%
M02*
