%TF.GenerationSoftware,KiCad,Pcbnew,(6.0.4-0)*%
%TF.CreationDate,2022-04-25T17:13:00-04:00*%
%TF.ProjectId,sky_base,736b795f-6261-4736-952e-6b696361645f,rev?*%
%TF.SameCoordinates,Original*%
%TF.FileFunction,Copper,L2,Bot*%
%TF.FilePolarity,Positive*%
%FSLAX46Y46*%
G04 Gerber Fmt 4.6, Leading zero omitted, Abs format (unit mm)*
G04 Created by KiCad (PCBNEW (6.0.4-0)) date 2022-04-25 17:13:00*
%MOMM*%
%LPD*%
G01*
G04 APERTURE LIST*
G04 Aperture macros list*
%AMRoundRect*
0 Rectangle with rounded corners*
0 $1 Rounding radius*
0 $2 $3 $4 $5 $6 $7 $8 $9 X,Y pos of 4 corners*
0 Add a 4 corners polygon primitive as box body*
4,1,4,$2,$3,$4,$5,$6,$7,$8,$9,$2,$3,0*
0 Add four circle primitives for the rounded corners*
1,1,$1+$1,$2,$3*
1,1,$1+$1,$4,$5*
1,1,$1+$1,$6,$7*
1,1,$1+$1,$8,$9*
0 Add four rect primitives between the rounded corners*
20,1,$1+$1,$2,$3,$4,$5,0*
20,1,$1+$1,$4,$5,$6,$7,0*
20,1,$1+$1,$6,$7,$8,$9,0*
20,1,$1+$1,$8,$9,$2,$3,0*%
G04 Aperture macros list end*
%ADD10C,0.300000*%
%TA.AperFunction,NonConductor*%
%ADD11C,0.300000*%
%TD*%
%TA.AperFunction,ComponentPad*%
%ADD12R,1.700000X1.700000*%
%TD*%
%TA.AperFunction,ComponentPad*%
%ADD13O,1.700000X1.700000*%
%TD*%
%TA.AperFunction,ComponentPad*%
%ADD14C,1.700000*%
%TD*%
%TA.AperFunction,SMDPad,CuDef*%
%ADD15R,1.500000X1.600000*%
%TD*%
%TA.AperFunction,SMDPad,CuDef*%
%ADD16RoundRect,0.250000X-0.625000X0.400000X-0.625000X-0.400000X0.625000X-0.400000X0.625000X0.400000X0*%
%TD*%
%TA.AperFunction,Conductor*%
%ADD17C,0.254000*%
%TD*%
G04 APERTURE END LIST*
D10*
D11*
X201279168Y-117001346D02*
X200922025Y-118001346D01*
X200564882Y-117001346D01*
X199707739Y-116501346D02*
X199564882Y-116501346D01*
X199422025Y-116572775D01*
X199350596Y-116644203D01*
X199279168Y-116787060D01*
X199207739Y-117072775D01*
X199207739Y-117429917D01*
X199279168Y-117715632D01*
X199350596Y-117858489D01*
X199422025Y-117929917D01*
X199564882Y-118001346D01*
X199707739Y-118001346D01*
X199850596Y-117929917D01*
X199922025Y-117858489D01*
X199993454Y-117715632D01*
X200064882Y-117429917D01*
X200064882Y-117072775D01*
X199993454Y-116787060D01*
X199922025Y-116644203D01*
X199850596Y-116572775D01*
X199707739Y-116501346D01*
X197779168Y-118001346D02*
X198636311Y-118001346D01*
X198207739Y-118001346D02*
X198207739Y-116501346D01*
X198350596Y-116715632D01*
X198493454Y-116858489D01*
X198636311Y-116929917D01*
D12*
%TO.P,J1,1,Pin_1*%
%TO.N,VCC*%
X109140692Y-115642067D03*
D13*
%TO.P,J1,2,Pin_2*%
%TO.N,GND*%
X111680692Y-115642067D03*
%TO.P,J1,3,Pin_3*%
%TO.N,Net-(J1-Pad3)*%
X147870692Y-77642067D03*
D14*
%TO.P,J1,4,Pin_4*%
%TO.N,Net-(J1-Pad4)*%
X150410692Y-77642067D03*
D13*
%TO.P,J1,5,Pin_5*%
%TO.N,Net-(J1-Pad5)*%
X186600692Y-115642067D03*
%TO.P,J1,6,Pin_6*%
%TO.N,Net-(J1-Pad6)*%
X189140692Y-115642067D03*
%TD*%
D12*
%TO.P,J2,1,Pin_1*%
%TO.N,VCC*%
X124140692Y-115642067D03*
D13*
%TO.P,J2,2,Pin_2*%
%TO.N,GND*%
X126680692Y-115642067D03*
%TO.P,J2,3,Pin_3*%
%TO.N,Net-(J1-Pad3)*%
X147870692Y-103642067D03*
D14*
%TO.P,J2,4,Pin_4*%
%TO.N,Net-(J1-Pad4)*%
X150410692Y-103642067D03*
D13*
%TO.P,J2,5,Pin_5*%
%TO.N,Net-(J1-Pad5)*%
X171600692Y-115642067D03*
%TO.P,J2,6,Pin_6*%
%TO.N,Net-(J1-Pad6)*%
X174140692Y-115642067D03*
%TD*%
D15*
%TO.P,D3,1,K*%
%TO.N,GND*%
X144780000Y-78740000D03*
%TO.P,D3,2,A*%
%TO.N,Net-(D3-Pad2)*%
X141180000Y-78740000D03*
%TD*%
%TO.P,D5,1,K*%
%TO.N,GND*%
X182880000Y-88900000D03*
%TO.P,D5,2,A*%
%TO.N,Net-(D5-Pad2)*%
X179280000Y-88900000D03*
%TD*%
%TO.P,D4,1,K*%
%TO.N,GND*%
X197380000Y-106680000D03*
%TO.P,D4,2,A*%
%TO.N,Net-(D4-Pad2)*%
X193780000Y-106680000D03*
%TD*%
D16*
%TO.P,R5,1*%
%TO.N,Net-(D5-Pad2)*%
X160369148Y-112818241D03*
%TO.P,R5,2*%
%TO.N,VCC*%
X160369148Y-115918241D03*
%TD*%
D15*
%TO.P,D2,1,K*%
%TO.N,GND*%
X120440000Y-88900000D03*
%TO.P,D2,2,A*%
%TO.N,Net-(D2-Pad2)*%
X116840000Y-88900000D03*
%TD*%
D16*
%TO.P,R3,1*%
%TO.N,Net-(D3-Pad2)*%
X149860000Y-112750000D03*
%TO.P,R3,2*%
%TO.N,VCC*%
X149860000Y-115850000D03*
%TD*%
%TO.P,R1,1*%
%TO.N,Net-(D1-Pad2)*%
X139332211Y-112803166D03*
%TO.P,R1,2*%
%TO.N,VCC*%
X139332211Y-115903166D03*
%TD*%
D15*
%TO.P,D1,1,K*%
%TO.N,GND*%
X104140000Y-106680000D03*
%TO.P,D1,2,A*%
%TO.N,Net-(D1-Pad2)*%
X100540000Y-106680000D03*
%TD*%
D16*
%TO.P,R4,1*%
%TO.N,Net-(D4-Pad2)*%
X155114574Y-112886483D03*
%TO.P,R4,2*%
%TO.N,VCC*%
X155114574Y-115986483D03*
%TD*%
%TO.P,R2,1*%
%TO.N,Net-(D2-Pad2)*%
X144468943Y-112798693D03*
%TO.P,R2,2*%
%TO.N,VCC*%
X144468943Y-115898693D03*
%TD*%
D17*
%TO.N,VCC*%
X110317203Y-116818578D02*
X122964181Y-116818578D01*
X139336684Y-115898693D02*
X144468943Y-115898693D01*
X155114574Y-115986483D02*
X155182816Y-115918241D01*
X125317203Y-116818578D02*
X138416799Y-116818578D01*
X124140692Y-115642067D02*
X125317203Y-116818578D01*
X144468943Y-115898693D02*
X144517636Y-115850000D01*
X149996483Y-115986483D02*
X155114574Y-115986483D01*
X155182816Y-115918241D02*
X160369148Y-115918241D01*
X149860000Y-115850000D02*
X149996483Y-115986483D01*
X138416799Y-116818578D02*
X139332211Y-115903166D01*
X109140692Y-115642067D02*
X110317203Y-116818578D01*
X139332211Y-115903166D02*
X139336684Y-115898693D01*
X144517636Y-115850000D02*
X149860000Y-115850000D01*
X122964181Y-116818578D02*
X124140692Y-115642067D01*
%TO.N,Net-(J1-Pad3)*%
X147870692Y-77642067D02*
X147870692Y-103642067D01*
%TO.N,Net-(J1-Pad4)*%
X150410692Y-77642067D02*
X150410692Y-103642067D01*
%TO.N,Net-(J1-Pad5)*%
X185258625Y-114300000D02*
X186600692Y-115642067D01*
X171600692Y-115642067D02*
X172942759Y-114300000D01*
X172942759Y-114300000D02*
X185258625Y-114300000D01*
%TO.N,Net-(J1-Pad6)*%
X187964181Y-116818578D02*
X189140692Y-115642067D01*
X175317203Y-116818578D02*
X187964181Y-116818578D01*
X174140692Y-115642067D02*
X175317203Y-116818578D01*
%TO.N,Net-(D1-Pad2)*%
X106663166Y-112803166D02*
X139332211Y-112803166D01*
X100540000Y-106680000D02*
X106663166Y-112803166D01*
%TO.N,Net-(D2-Pad2)*%
X117844000Y-88900000D02*
X141742693Y-112798693D01*
X116840000Y-88900000D02*
X117844000Y-88900000D01*
X141742693Y-112798693D02*
X144468943Y-112798693D01*
%TO.N,Net-(D3-Pad2)*%
X141180000Y-78740000D02*
X141180000Y-98615214D01*
X141180000Y-98615214D02*
X149860000Y-107295214D01*
X149860000Y-107295214D02*
X149860000Y-112750000D01*
%TO.N,Net-(D4-Pad2)*%
X156528091Y-114300000D02*
X155114574Y-112886483D01*
X193780000Y-111020000D02*
X190500000Y-114300000D01*
X190500000Y-114300000D02*
X190500000Y-115946598D01*
X189174500Y-117272098D02*
X163563327Y-117272098D01*
X163563327Y-117272098D02*
X160591229Y-114300000D01*
X193780000Y-106680000D02*
X193780000Y-111020000D01*
X160591229Y-114300000D02*
X156528091Y-114300000D01*
X190500000Y-115946598D02*
X189174500Y-117272098D01*
%TO.N,Net-(D5-Pad2)*%
X179280000Y-88900000D02*
X179280000Y-93907389D01*
X179280000Y-93907389D02*
X160369148Y-112818241D01*
%TD*%
%TA.AperFunction,Conductor*%
%TO.N,GND*%
G36*
X149302112Y-75680158D02*
G01*
X149339566Y-75682941D01*
X149339568Y-75682941D01*
X149348520Y-75683606D01*
X149357298Y-75681732D01*
X149366252Y-75681122D01*
X149366278Y-75681497D01*
X149378927Y-75680224D01*
X150058688Y-75686931D01*
X150639805Y-75692665D01*
X150642293Y-75692714D01*
X151959115Y-75731719D01*
X151961599Y-75731817D01*
X153269911Y-75796433D01*
X153272330Y-75796576D01*
X154571757Y-75886478D01*
X154574135Y-75886666D01*
X155434455Y-75963265D01*
X155864285Y-76001535D01*
X155866758Y-76001780D01*
X157147113Y-76141272D01*
X157149580Y-76141566D01*
X158419905Y-76305373D01*
X158422366Y-76305715D01*
X158886420Y-76374883D01*
X159682354Y-76493519D01*
X159684705Y-76493893D01*
X160600592Y-76648937D01*
X160933985Y-76705375D01*
X160936433Y-76705815D01*
X162174480Y-76940626D01*
X162176921Y-76941114D01*
X163403427Y-77198937D01*
X163405860Y-77199474D01*
X164620471Y-77479989D01*
X164622897Y-77480574D01*
X165825352Y-77783481D01*
X165827769Y-77784116D01*
X166343642Y-77925006D01*
X166982781Y-78099561D01*
X167017426Y-78109023D01*
X167019828Y-78109704D01*
X167119019Y-78138924D01*
X168196681Y-78456386D01*
X168199081Y-78457119D01*
X168753235Y-78632430D01*
X169362519Y-78825182D01*
X169364879Y-78825955D01*
X170514543Y-79215077D01*
X170516871Y-79215892D01*
X171048726Y-79407859D01*
X171595314Y-79605145D01*
X171609313Y-79611931D01*
X171616667Y-79615164D01*
X171624289Y-79619905D01*
X171672216Y-79633271D01*
X171681130Y-79636118D01*
X171692765Y-79640318D01*
X171706887Y-79643242D01*
X171715186Y-79645256D01*
X171749386Y-79654794D01*
X171764592Y-79659035D01*
X171773569Y-79658923D01*
X171782016Y-79660025D01*
X171790490Y-79660550D01*
X171799279Y-79662370D01*
X171808224Y-79661650D01*
X171808228Y-79661650D01*
X171850429Y-79658252D01*
X171858958Y-79657855D01*
X171868759Y-79657733D01*
X171871635Y-79657697D01*
X171871636Y-79657697D01*
X171876502Y-79657636D01*
X171887990Y-79655700D01*
X171898810Y-79654356D01*
X171935518Y-79651400D01*
X171935521Y-79651399D01*
X171944466Y-79650679D01*
X171953861Y-79647091D01*
X171977869Y-79640552D01*
X172147693Y-79611931D01*
X172684432Y-79521472D01*
X172698508Y-79519907D01*
X173081991Y-79498986D01*
X173485298Y-79476983D01*
X173503826Y-79477338D01*
X174610233Y-79580303D01*
X174838321Y-79601529D01*
X174863391Y-79606464D01*
X175454570Y-79786705D01*
X175935351Y-79933288D01*
X175965646Y-79947127D01*
X176268842Y-80137669D01*
X176663102Y-80385441D01*
X176701209Y-80422702D01*
X177047974Y-80947945D01*
X177059582Y-80970003D01*
X177059954Y-80970919D01*
X177063329Y-80979238D01*
X177091822Y-81015212D01*
X177098188Y-81024005D01*
X177102952Y-81031220D01*
X177115037Y-81044840D01*
X177119561Y-81050235D01*
X177153765Y-81093420D01*
X177161093Y-81098612D01*
X177165060Y-81102373D01*
X177169188Y-81105870D01*
X177175144Y-81112582D01*
X177182744Y-81117353D01*
X177182748Y-81117356D01*
X177221813Y-81141878D01*
X177227670Y-81145786D01*
X177272612Y-81177630D01*
X177281093Y-81180553D01*
X177285912Y-81183027D01*
X177290905Y-81185246D01*
X177298511Y-81190021D01*
X177341632Y-81202237D01*
X177351521Y-81205039D01*
X177358229Y-81207143D01*
X177410318Y-81225099D01*
X177419285Y-81225525D01*
X177424627Y-81226551D01*
X177430016Y-81227277D01*
X177438653Y-81229723D01*
X177470438Y-81229455D01*
X177493743Y-81229259D01*
X177500783Y-81229397D01*
X177515425Y-81230092D01*
X177522110Y-81230410D01*
X177526939Y-81229891D01*
X177526954Y-81229891D01*
X177529978Y-81229566D01*
X177542362Y-81228850D01*
X177575331Y-81228572D01*
X177575333Y-81228572D01*
X177584306Y-81228496D01*
X177597612Y-81224483D01*
X177620529Y-81219840D01*
X178013523Y-81177630D01*
X178183859Y-81159335D01*
X178219324Y-81160552D01*
X179076230Y-81312606D01*
X179132912Y-81338267D01*
X179573264Y-81690465D01*
X179590703Y-81707419D01*
X179598143Y-81716201D01*
X179605633Y-81721145D01*
X179605636Y-81721148D01*
X179635145Y-81740627D01*
X179644433Y-81747386D01*
X179646489Y-81749031D01*
X179646495Y-81749035D01*
X179649993Y-81751833D01*
X179666996Y-81761850D01*
X179672452Y-81765255D01*
X179719703Y-81796447D01*
X179728284Y-81799091D01*
X179732111Y-81800899D01*
X179735978Y-81802489D01*
X179743711Y-81807045D01*
X179752412Y-81809247D01*
X179752414Y-81809248D01*
X179786255Y-81817812D01*
X179798630Y-81820944D01*
X179804818Y-81822680D01*
X179858899Y-81839349D01*
X179867872Y-81839479D01*
X179872044Y-81840139D01*
X179876216Y-81840581D01*
X179884916Y-81842783D01*
X179893884Y-81842455D01*
X179893887Y-81842455D01*
X179941496Y-81840712D01*
X179947928Y-81840641D01*
X179965938Y-81840902D01*
X179965944Y-81840902D01*
X179970805Y-81840972D01*
X179977148Y-81840079D01*
X179990101Y-81838932D01*
X180000086Y-81838566D01*
X180030476Y-81837453D01*
X180038990Y-81834621D01*
X180038992Y-81834621D01*
X180045120Y-81832583D01*
X180067305Y-81827376D01*
X180853024Y-81716674D01*
X180891073Y-81717116D01*
X181747555Y-81858133D01*
X181801371Y-81880688D01*
X182081442Y-82085136D01*
X182318044Y-82257853D01*
X182322449Y-82261220D01*
X182362123Y-82292949D01*
X182362130Y-82292953D01*
X182369137Y-82298557D01*
X182377439Y-82301970D01*
X182377440Y-82301971D01*
X182407640Y-82314388D01*
X182418839Y-82319649D01*
X182447690Y-82334976D01*
X182455617Y-82339187D01*
X182515515Y-82351568D01*
X182518309Y-82352146D01*
X182522218Y-82353019D01*
X182759481Y-82409984D01*
X183163142Y-82506900D01*
X183224709Y-82542251D01*
X183257391Y-82605278D01*
X183250810Y-82675969D01*
X183225672Y-82715567D01*
X183120945Y-82827341D01*
X183111247Y-82836643D01*
X183088264Y-82856447D01*
X183081461Y-82862309D01*
X183076578Y-82869843D01*
X183076575Y-82869846D01*
X183047977Y-82913966D01*
X183045478Y-82917676D01*
X183010185Y-82968107D01*
X183007421Y-82976281D01*
X183006930Y-82977296D01*
X183002236Y-82984537D01*
X182996864Y-83002501D01*
X182984593Y-83043534D01*
X182983233Y-83047801D01*
X182977247Y-83065501D01*
X182963520Y-83106087D01*
X182963161Y-83114704D01*
X182962972Y-83115828D01*
X182960502Y-83124088D01*
X182960447Y-83133064D01*
X182960447Y-83133065D01*
X182960126Y-83185652D01*
X182960020Y-83190105D01*
X182957457Y-83251618D01*
X182959530Y-83259987D01*
X182959665Y-83261117D01*
X182959612Y-83269743D01*
X182962077Y-83278367D01*
X182976524Y-83328914D01*
X182977678Y-83333243D01*
X182992482Y-83393002D01*
X182996826Y-83400461D01*
X182997269Y-83401501D01*
X182999639Y-83409793D01*
X183004429Y-83417384D01*
X183004430Y-83417387D01*
X183032469Y-83461825D01*
X183034791Y-83465653D01*
X183065783Y-83518872D01*
X183072041Y-83524807D01*
X183072761Y-83525684D01*
X183077364Y-83532980D01*
X183084088Y-83538918D01*
X183084091Y-83538922D01*
X183123494Y-83573721D01*
X183126796Y-83576743D01*
X183148694Y-83597513D01*
X183184354Y-83658904D01*
X183181162Y-83729829D01*
X183140132Y-83787769D01*
X183074291Y-83814330D01*
X183058855Y-83814893D01*
X182957575Y-83812374D01*
X182946249Y-83812092D01*
X182934872Y-83811293D01*
X182918759Y-83809425D01*
X182267106Y-83733877D01*
X182263191Y-83733360D01*
X182208667Y-83725288D01*
X182208663Y-83725288D01*
X182199780Y-83723973D01*
X182162457Y-83729138D01*
X182148579Y-83730281D01*
X182119878Y-83731051D01*
X182119876Y-83731051D01*
X182110906Y-83731292D01*
X182102360Y-83734042D01*
X182094201Y-83736667D01*
X182072883Y-83741533D01*
X182064395Y-83742708D01*
X182064391Y-83742709D01*
X182055497Y-83743940D01*
X182021116Y-83759376D01*
X182008133Y-83764363D01*
X181972250Y-83775909D01*
X181964820Y-83780946D01*
X181964817Y-83780948D01*
X181957730Y-83785753D01*
X181938631Y-83796409D01*
X181930808Y-83799921D01*
X181930805Y-83799923D01*
X181922617Y-83803599D01*
X181893945Y-83828068D01*
X181882868Y-83836509D01*
X181851690Y-83857648D01*
X181840510Y-83871180D01*
X181825177Y-83886759D01*
X181811824Y-83898156D01*
X181792425Y-83927778D01*
X181791182Y-83929675D01*
X181782911Y-83940896D01*
X181758916Y-83969939D01*
X181751983Y-83986067D01*
X181741633Y-84005334D01*
X181736940Y-84012499D01*
X181736938Y-84012503D01*
X181732023Y-84020008D01*
X181729411Y-84028594D01*
X181721059Y-84056047D01*
X181716271Y-84069137D01*
X181701389Y-84103755D01*
X181700301Y-84112667D01*
X181699262Y-84121173D01*
X181694735Y-84142575D01*
X181692241Y-84150772D01*
X181692240Y-84150777D01*
X181689629Y-84159360D01*
X181689532Y-84168330D01*
X181689221Y-84197029D01*
X181688300Y-84210931D01*
X181683731Y-84248339D01*
X181685187Y-84257194D01*
X181685187Y-84257196D01*
X181686578Y-84265656D01*
X181688240Y-84287462D01*
X181688050Y-84305009D01*
X181690475Y-84313649D01*
X181690476Y-84313656D01*
X181698234Y-84341295D01*
X181701252Y-84354898D01*
X181707364Y-84392067D01*
X181711249Y-84400162D01*
X181714956Y-84407888D01*
X181722671Y-84428351D01*
X181727414Y-84445247D01*
X181732168Y-84452861D01*
X181747364Y-84477200D01*
X181754082Y-84489415D01*
X181766501Y-84515293D01*
X181766503Y-84515296D01*
X181770385Y-84523385D01*
X181776380Y-84530058D01*
X181776385Y-84530065D01*
X181782115Y-84536442D01*
X181795267Y-84553922D01*
X181804556Y-84568800D01*
X181827379Y-84589149D01*
X181832672Y-84593868D01*
X181842550Y-84603709D01*
X181861731Y-84625060D01*
X181861736Y-84625064D01*
X181867730Y-84631736D01*
X181926290Y-84667992D01*
X181928211Y-84669208D01*
X182998860Y-85361073D01*
X183001790Y-85363025D01*
X184048469Y-86082274D01*
X184051370Y-86084328D01*
X185074305Y-86830640D01*
X185077102Y-86832741D01*
X185137634Y-86879569D01*
X186075722Y-87605277D01*
X186078486Y-87607478D01*
X187052254Y-88405422D01*
X187054949Y-88407694D01*
X187323463Y-88640578D01*
X187973541Y-89204394D01*
X188003349Y-89230247D01*
X188005956Y-89232573D01*
X188928440Y-90078909D01*
X188930946Y-90081274D01*
X189368830Y-90506098D01*
X189826975Y-90950580D01*
X189829461Y-90953060D01*
X189952443Y-91079215D01*
X190698468Y-91844488D01*
X190700841Y-91846991D01*
X191060356Y-92236960D01*
X191542260Y-92759687D01*
X191544607Y-92762305D01*
X191731089Y-92976267D01*
X192345364Y-93681061D01*
X192357935Y-93695485D01*
X192360198Y-93698155D01*
X192853030Y-94296589D01*
X193144895Y-94650993D01*
X193147101Y-94653750D01*
X193902619Y-95625412D01*
X193904754Y-95628240D01*
X194630485Y-96617802D01*
X194632549Y-96620700D01*
X194921005Y-97038249D01*
X195288414Y-97570085D01*
X195328106Y-97627541D01*
X195330096Y-97630511D01*
X195994811Y-98653615D01*
X195996727Y-98656659D01*
X196630111Y-99695264D01*
X196631951Y-99698381D01*
X197233477Y-100751666D01*
X197235240Y-100754859D01*
X197804372Y-101821996D01*
X197806054Y-101825264D01*
X198342235Y-102905367D01*
X198343835Y-102908712D01*
X198713536Y-103711975D01*
X198846586Y-104001059D01*
X198848097Y-104004475D01*
X199285240Y-105033720D01*
X199316822Y-105108080D01*
X199318238Y-105111559D01*
X199577836Y-105777648D01*
X199752478Y-106225756D01*
X199753812Y-106229337D01*
X200153016Y-107353237D01*
X200154252Y-107356895D01*
X200357011Y-107988500D01*
X200517872Y-108489594D01*
X200519008Y-108493330D01*
X200762980Y-109343025D01*
X200846563Y-109634126D01*
X200847594Y-109637944D01*
X201138536Y-110785922D01*
X201139458Y-110789819D01*
X201393273Y-111944166D01*
X201394080Y-111948138D01*
X201610275Y-113108140D01*
X201610961Y-113112186D01*
X201781464Y-114227645D01*
X201788992Y-114276897D01*
X201789552Y-114281011D01*
X201803886Y-114401204D01*
X201904015Y-115240855D01*
X201892220Y-115310865D01*
X201844447Y-115363384D01*
X201778901Y-115381775D01*
X196834954Y-115381775D01*
X196834954Y-118349878D01*
X196814952Y-118417999D01*
X196761296Y-118464492D01*
X196708909Y-118475878D01*
X136135635Y-118454444D01*
X96654714Y-118440474D01*
X96586602Y-118420448D01*
X96540128Y-118366776D01*
X96528782Y-118316841D01*
X96516937Y-117686429D01*
X96516936Y-117681762D01*
X96537779Y-116540201D01*
X107782192Y-116540201D01*
X107788947Y-116602383D01*
X107840077Y-116738772D01*
X107927431Y-116855328D01*
X108043987Y-116942682D01*
X108180376Y-116993812D01*
X108242558Y-117000567D01*
X109548269Y-117000567D01*
X109616390Y-117020569D01*
X109637364Y-117037472D01*
X109811953Y-117212061D01*
X109819529Y-117220387D01*
X109823650Y-117226881D01*
X109829425Y-117232304D01*
X109873468Y-117273663D01*
X109876310Y-117276418D01*
X109896109Y-117296217D01*
X109899234Y-117298641D01*
X109899243Y-117298649D01*
X109899329Y-117298715D01*
X109908354Y-117306423D01*
X109940697Y-117336795D01*
X109947641Y-117340613D01*
X109947643Y-117340614D01*
X109958532Y-117346600D01*
X109975050Y-117357451D01*
X109991136Y-117369928D01*
X110031869Y-117387554D01*
X110042517Y-117392771D01*
X110054145Y-117399163D01*
X110081400Y-117414147D01*
X110089075Y-117416118D01*
X110089081Y-117416120D01*
X110101114Y-117419209D01*
X110119816Y-117425612D01*
X110138495Y-117433695D01*
X110172021Y-117439005D01*
X110182330Y-117440638D01*
X110193943Y-117443043D01*
X110236921Y-117454078D01*
X110257268Y-117454078D01*
X110276980Y-117455629D01*
X110297082Y-117458813D01*
X110304974Y-117458067D01*
X110341259Y-117454637D01*
X110353117Y-117454078D01*
X122885161Y-117454078D01*
X122896395Y-117454608D01*
X122903900Y-117456286D01*
X122972193Y-117454140D01*
X122976150Y-117454078D01*
X123004164Y-117454078D01*
X123008089Y-117453582D01*
X123008090Y-117453582D01*
X123008185Y-117453570D01*
X123020030Y-117452637D01*
X123049851Y-117451700D01*
X123056463Y-117451492D01*
X123056464Y-117451492D01*
X123064386Y-117451243D01*
X123083930Y-117445565D01*
X123103293Y-117441555D01*
X123115621Y-117439998D01*
X123115623Y-117439998D01*
X123123480Y-117439005D01*
X123130844Y-117436089D01*
X123130849Y-117436088D01*
X123164737Y-117422671D01*
X123175966Y-117418826D01*
X123192646Y-117413980D01*
X123218574Y-117406447D01*
X123225401Y-117402409D01*
X123225404Y-117402408D01*
X123236087Y-117396090D01*
X123253845Y-117387390D01*
X123265396Y-117382817D01*
X123265402Y-117382813D01*
X123272769Y-117379897D01*
X123282158Y-117373076D01*
X123308669Y-117353814D01*
X123318591Y-117347297D01*
X123349949Y-117328752D01*
X123349953Y-117328749D01*
X123356779Y-117324712D01*
X123371163Y-117310328D01*
X123386197Y-117297487D01*
X123396254Y-117290180D01*
X123402668Y-117285520D01*
X123430959Y-117251322D01*
X123438948Y-117242543D01*
X123644019Y-117037472D01*
X123706331Y-117003446D01*
X123733114Y-117000567D01*
X124548269Y-117000567D01*
X124616390Y-117020569D01*
X124637364Y-117037472D01*
X124811953Y-117212061D01*
X124819529Y-117220387D01*
X124823650Y-117226881D01*
X124829425Y-117232304D01*
X124873468Y-117273663D01*
X124876310Y-117276418D01*
X124896109Y-117296217D01*
X124899234Y-117298641D01*
X124899243Y-117298649D01*
X124899329Y-117298715D01*
X124908354Y-117306423D01*
X124940697Y-117336795D01*
X124947641Y-117340613D01*
X124947643Y-117340614D01*
X124958532Y-117346600D01*
X124975050Y-117357451D01*
X124991136Y-117369928D01*
X125031869Y-117387554D01*
X125042517Y-117392771D01*
X125054145Y-117399163D01*
X125081400Y-117414147D01*
X125089075Y-117416118D01*
X125089081Y-117416120D01*
X125101114Y-117419209D01*
X125119816Y-117425612D01*
X125138495Y-117433695D01*
X125172021Y-117439005D01*
X125182330Y-117440638D01*
X125193943Y-117443043D01*
X125236921Y-117454078D01*
X125257268Y-117454078D01*
X125276980Y-117455629D01*
X125297082Y-117458813D01*
X125304974Y-117458067D01*
X125341259Y-117454637D01*
X125353117Y-117454078D01*
X138337779Y-117454078D01*
X138349013Y-117454608D01*
X138356518Y-117456286D01*
X138424811Y-117454140D01*
X138428768Y-117454078D01*
X138456782Y-117454078D01*
X138460707Y-117453582D01*
X138460708Y-117453582D01*
X138460803Y-117453570D01*
X138472648Y-117452637D01*
X138502469Y-117451700D01*
X138509081Y-117451492D01*
X138509082Y-117451492D01*
X138517004Y-117451243D01*
X138536548Y-117445565D01*
X138555911Y-117441555D01*
X138568239Y-117439998D01*
X138568241Y-117439998D01*
X138576098Y-117439005D01*
X138583462Y-117436089D01*
X138583467Y-117436088D01*
X138617355Y-117422671D01*
X138628584Y-117418826D01*
X138645264Y-117413980D01*
X138671192Y-117406447D01*
X138678019Y-117402409D01*
X138678022Y-117402408D01*
X138688705Y-117396090D01*
X138706463Y-117387390D01*
X138718014Y-117382817D01*
X138718020Y-117382813D01*
X138725387Y-117379897D01*
X138734776Y-117373076D01*
X138761287Y-117353814D01*
X138771209Y-117347297D01*
X138802567Y-117328752D01*
X138802571Y-117328749D01*
X138809397Y-117324712D01*
X138823781Y-117310328D01*
X138838815Y-117297487D01*
X138848872Y-117290180D01*
X138855286Y-117285520D01*
X138883577Y-117251322D01*
X138891566Y-117242543D01*
X139035538Y-117098571D01*
X139097850Y-117064545D01*
X139124633Y-117061666D01*
X140007611Y-117061666D01*
X140010857Y-117061329D01*
X140010861Y-117061329D01*
X140106519Y-117051404D01*
X140106523Y-117051403D01*
X140113377Y-117050692D01*
X140119913Y-117048511D01*
X140119915Y-117048511D01*
X140274209Y-116997034D01*
X140281157Y-116994716D01*
X140431559Y-116901644D01*
X140556516Y-116776469D01*
X140597224Y-116710429D01*
X140645486Y-116632134D01*
X140645487Y-116632132D01*
X140649326Y-116625904D01*
X140651630Y-116618957D01*
X140654724Y-116612322D01*
X140656287Y-116613051D01*
X140691544Y-116562163D01*
X140757109Y-116534928D01*
X140770703Y-116534193D01*
X143032094Y-116534193D01*
X143100215Y-116554195D01*
X143146708Y-116607851D01*
X143148325Y-116611954D01*
X143150073Y-116615686D01*
X143152393Y-116622639D01*
X143245465Y-116773041D01*
X143370640Y-116897998D01*
X143376870Y-116901838D01*
X143376871Y-116901839D01*
X143514033Y-116986387D01*
X143521205Y-116990808D01*
X143573529Y-117008163D01*
X143682554Y-117044325D01*
X143682556Y-117044325D01*
X143689082Y-117046490D01*
X143695918Y-117047190D01*
X143695921Y-117047191D01*
X143738974Y-117051602D01*
X143793543Y-117057193D01*
X145144343Y-117057193D01*
X145147589Y-117056856D01*
X145147593Y-117056856D01*
X145243251Y-117046931D01*
X145243255Y-117046930D01*
X145250109Y-117046219D01*
X145256645Y-117044038D01*
X145256647Y-117044038D01*
X145407191Y-116993812D01*
X145417889Y-116990243D01*
X145568291Y-116897171D01*
X145604690Y-116860709D01*
X145688077Y-116777176D01*
X145693248Y-116771996D01*
X145713728Y-116738772D01*
X145782218Y-116627661D01*
X145782219Y-116627659D01*
X145786058Y-116621431D01*
X145802509Y-116571833D01*
X145842940Y-116513473D01*
X145908504Y-116486236D01*
X145922102Y-116485500D01*
X148423151Y-116485500D01*
X148491272Y-116505502D01*
X148537765Y-116559158D01*
X148539382Y-116563261D01*
X148541130Y-116566993D01*
X148543450Y-116573946D01*
X148636522Y-116724348D01*
X148761697Y-116849305D01*
X148767927Y-116853145D01*
X148767928Y-116853146D01*
X148905090Y-116937694D01*
X148912262Y-116942115D01*
X148923475Y-116945834D01*
X149073611Y-116995632D01*
X149073613Y-116995632D01*
X149080139Y-116997797D01*
X149086975Y-116998497D01*
X149086978Y-116998498D01*
X149130031Y-117002909D01*
X149184600Y-117008500D01*
X150535400Y-117008500D01*
X150538646Y-117008163D01*
X150538650Y-117008163D01*
X150634308Y-116998238D01*
X150634312Y-116998237D01*
X150641166Y-116997526D01*
X150647702Y-116995345D01*
X150647704Y-116995345D01*
X150796105Y-116945834D01*
X150808946Y-116941550D01*
X150959348Y-116848478D01*
X151084305Y-116723303D01*
X151088148Y-116717069D01*
X151109848Y-116681866D01*
X151162620Y-116634373D01*
X151217107Y-116621983D01*
X153677725Y-116621983D01*
X153745846Y-116641985D01*
X153792339Y-116695641D01*
X153793956Y-116699744D01*
X153795704Y-116703476D01*
X153798024Y-116710429D01*
X153891096Y-116860831D01*
X153896278Y-116866004D01*
X153947910Y-116917546D01*
X154016271Y-116985788D01*
X154022501Y-116989628D01*
X154022502Y-116989629D01*
X154159664Y-117074177D01*
X154166836Y-117078598D01*
X154227053Y-117098571D01*
X154328185Y-117132115D01*
X154328187Y-117132115D01*
X154334713Y-117134280D01*
X154341549Y-117134980D01*
X154341552Y-117134981D01*
X154384605Y-117139392D01*
X154439174Y-117144983D01*
X155789974Y-117144983D01*
X155793220Y-117144646D01*
X155793224Y-117144646D01*
X155888882Y-117134721D01*
X155888886Y-117134720D01*
X155895740Y-117134009D01*
X155902276Y-117131828D01*
X155902278Y-117131828D01*
X156034380Y-117087755D01*
X156063520Y-117078033D01*
X156213922Y-116984961D01*
X156338879Y-116859786D01*
X156345340Y-116849305D01*
X156427849Y-116715451D01*
X156427850Y-116715449D01*
X156431689Y-116709221D01*
X156454624Y-116640074D01*
X156495055Y-116581714D01*
X156560619Y-116554477D01*
X156574217Y-116553741D01*
X158932299Y-116553741D01*
X159000420Y-116573743D01*
X159046913Y-116627399D01*
X159048530Y-116631502D01*
X159050278Y-116635234D01*
X159052598Y-116642187D01*
X159145670Y-116792589D01*
X159150852Y-116797762D01*
X159202485Y-116849305D01*
X159270845Y-116917546D01*
X159277075Y-116921386D01*
X159277076Y-116921387D01*
X159414238Y-117005935D01*
X159421410Y-117010356D01*
X159501153Y-117036805D01*
X159582759Y-117063873D01*
X159582761Y-117063873D01*
X159589287Y-117066038D01*
X159596123Y-117066738D01*
X159596126Y-117066739D01*
X159639179Y-117071150D01*
X159693748Y-117076741D01*
X161044548Y-117076741D01*
X161047794Y-117076404D01*
X161047798Y-117076404D01*
X161143456Y-117066479D01*
X161143460Y-117066478D01*
X161150314Y-117065767D01*
X161156850Y-117063586D01*
X161156852Y-117063586D01*
X161288954Y-117019513D01*
X161318094Y-117009791D01*
X161468496Y-116916719D01*
X161593453Y-116791544D01*
X161597294Y-116785313D01*
X161682423Y-116647209D01*
X161682424Y-116647207D01*
X161686263Y-116640979D01*
X161691130Y-116626307D01*
X161695890Y-116611954D01*
X161708455Y-116574073D01*
X161748884Y-116515714D01*
X161814448Y-116488476D01*
X161884329Y-116501009D01*
X161917142Y-116524645D01*
X163058072Y-117665575D01*
X163065649Y-117673901D01*
X163069774Y-117680401D01*
X163075552Y-117685827D01*
X163075553Y-117685828D01*
X163119608Y-117727198D01*
X163122450Y-117729953D01*
X163142233Y-117749736D01*
X163145441Y-117752224D01*
X163154470Y-117759935D01*
X163186821Y-117790315D01*
X163193770Y-117794135D01*
X163204656Y-117800120D01*
X163221180Y-117810974D01*
X163237260Y-117823447D01*
X163244537Y-117826596D01*
X163277977Y-117841067D01*
X163288638Y-117846290D01*
X163320574Y-117863847D01*
X163320579Y-117863849D01*
X163327524Y-117867667D01*
X163335198Y-117869637D01*
X163335205Y-117869640D01*
X163347240Y-117872730D01*
X163365945Y-117879134D01*
X163377340Y-117884065D01*
X163384619Y-117887215D01*
X163399728Y-117889608D01*
X163428454Y-117894158D01*
X163440067Y-117896563D01*
X163483045Y-117907598D01*
X163503392Y-117907598D01*
X163523104Y-117909149D01*
X163543206Y-117912333D01*
X163551098Y-117911587D01*
X163587383Y-117908157D01*
X163599241Y-117907598D01*
X189095480Y-117907598D01*
X189106714Y-117908128D01*
X189114219Y-117909806D01*
X189182512Y-117907660D01*
X189186469Y-117907598D01*
X189214483Y-117907598D01*
X189218408Y-117907102D01*
X189218409Y-117907102D01*
X189218504Y-117907090D01*
X189230349Y-117906157D01*
X189260170Y-117905220D01*
X189266782Y-117905012D01*
X189266783Y-117905012D01*
X189274705Y-117904763D01*
X189294249Y-117899085D01*
X189313612Y-117895075D01*
X189325940Y-117893518D01*
X189325942Y-117893518D01*
X189333799Y-117892525D01*
X189341163Y-117889609D01*
X189341168Y-117889608D01*
X189375056Y-117876191D01*
X189386285Y-117872346D01*
X189402965Y-117867500D01*
X189428893Y-117859967D01*
X189435720Y-117855929D01*
X189435723Y-117855928D01*
X189446406Y-117849610D01*
X189464164Y-117840910D01*
X189475715Y-117836337D01*
X189475721Y-117836333D01*
X189483088Y-117833417D01*
X189492477Y-117826596D01*
X189518988Y-117807334D01*
X189528910Y-117800817D01*
X189560268Y-117782272D01*
X189560272Y-117782269D01*
X189567098Y-117778232D01*
X189581482Y-117763848D01*
X189596516Y-117751007D01*
X189606573Y-117743700D01*
X189612987Y-117739040D01*
X189641278Y-117704842D01*
X189649267Y-117696063D01*
X190893483Y-116451848D01*
X190901809Y-116444272D01*
X190908303Y-116440151D01*
X190955086Y-116390332D01*
X190957840Y-116387491D01*
X190977639Y-116367692D01*
X190980068Y-116364561D01*
X190980072Y-116364556D01*
X190980139Y-116364470D01*
X190987847Y-116355445D01*
X191012791Y-116328883D01*
X191012794Y-116328879D01*
X191018217Y-116323104D01*
X191022036Y-116316158D01*
X191022039Y-116316153D01*
X191028022Y-116305270D01*
X191038878Y-116288742D01*
X191046492Y-116278927D01*
X191046494Y-116278924D01*
X191051349Y-116272665D01*
X191054495Y-116265395D01*
X191054498Y-116265390D01*
X191068969Y-116231948D01*
X191074192Y-116221287D01*
X191091749Y-116189351D01*
X191091751Y-116189346D01*
X191095569Y-116182401D01*
X191097539Y-116174727D01*
X191097542Y-116174720D01*
X191100632Y-116162685D01*
X191107036Y-116143980D01*
X191111967Y-116132585D01*
X191115117Y-116125306D01*
X191122060Y-116081471D01*
X191124467Y-116069849D01*
X191130934Y-116044663D01*
X191135500Y-116026880D01*
X191135500Y-116006533D01*
X191137051Y-115986822D01*
X191138995Y-115974548D01*
X191140235Y-115966719D01*
X191136059Y-115922542D01*
X191135500Y-115910684D01*
X191135500Y-114615422D01*
X191155502Y-114547301D01*
X191172405Y-114526327D01*
X194173477Y-111525255D01*
X194181803Y-111517678D01*
X194188303Y-111513553D01*
X194235101Y-111463718D01*
X194237855Y-111460877D01*
X194257638Y-111441094D01*
X194260129Y-111437883D01*
X194267838Y-111428856D01*
X194292789Y-111402286D01*
X194298217Y-111396506D01*
X194308022Y-111378671D01*
X194318876Y-111362147D01*
X194326491Y-111352330D01*
X194326492Y-111352329D01*
X194331349Y-111346067D01*
X194348969Y-111305350D01*
X194354192Y-111294689D01*
X194371749Y-111262753D01*
X194371751Y-111262748D01*
X194375569Y-111255803D01*
X194377539Y-111248129D01*
X194377542Y-111248122D01*
X194380632Y-111236087D01*
X194387036Y-111217382D01*
X194391967Y-111205987D01*
X194395117Y-111198708D01*
X194402060Y-111154873D01*
X194404467Y-111143251D01*
X194415500Y-111100282D01*
X194415500Y-111079935D01*
X194417051Y-111060224D01*
X194418995Y-111047950D01*
X194420235Y-111040121D01*
X194416059Y-110995944D01*
X194415500Y-110984086D01*
X194415500Y-108114500D01*
X194435502Y-108046379D01*
X194489158Y-107999886D01*
X194541500Y-107988500D01*
X194578134Y-107988500D01*
X194640316Y-107981745D01*
X194776705Y-107930615D01*
X194893261Y-107843261D01*
X194980615Y-107726705D01*
X195031745Y-107590316D01*
X195038500Y-107528134D01*
X195038500Y-107524669D01*
X196122001Y-107524669D01*
X196122371Y-107531490D01*
X196127895Y-107582352D01*
X196131521Y-107597604D01*
X196176676Y-107718054D01*
X196185214Y-107733649D01*
X196261715Y-107835724D01*
X196274276Y-107848285D01*
X196376351Y-107924786D01*
X196391946Y-107933324D01*
X196512394Y-107978478D01*
X196527649Y-107982105D01*
X196578514Y-107987631D01*
X196585328Y-107988000D01*
X197107885Y-107988000D01*
X197123124Y-107983525D01*
X197124329Y-107982135D01*
X197126000Y-107974452D01*
X197126000Y-107969884D01*
X197634000Y-107969884D01*
X197638475Y-107985123D01*
X197639865Y-107986328D01*
X197647548Y-107987999D01*
X198174669Y-107987999D01*
X198181490Y-107987629D01*
X198232352Y-107982105D01*
X198247604Y-107978479D01*
X198368054Y-107933324D01*
X198383649Y-107924786D01*
X198485724Y-107848285D01*
X198498285Y-107835724D01*
X198574786Y-107733649D01*
X198583324Y-107718054D01*
X198628478Y-107597606D01*
X198632105Y-107582351D01*
X198637631Y-107531486D01*
X198638000Y-107524672D01*
X198638000Y-106952115D01*
X198633525Y-106936876D01*
X198632135Y-106935671D01*
X198624452Y-106934000D01*
X197652115Y-106934000D01*
X197636876Y-106938475D01*
X197635671Y-106939865D01*
X197634000Y-106947548D01*
X197634000Y-107969884D01*
X197126000Y-107969884D01*
X197126000Y-106952115D01*
X197121525Y-106936876D01*
X197120135Y-106935671D01*
X197112452Y-106934000D01*
X196140116Y-106934000D01*
X196124877Y-106938475D01*
X196123672Y-106939865D01*
X196122001Y-106947548D01*
X196122001Y-107524669D01*
X195038500Y-107524669D01*
X195038500Y-106407885D01*
X196122000Y-106407885D01*
X196126475Y-106423124D01*
X196127865Y-106424329D01*
X196135548Y-106426000D01*
X197107885Y-106426000D01*
X197123124Y-106421525D01*
X197124329Y-106420135D01*
X197126000Y-106412452D01*
X197126000Y-106407885D01*
X197634000Y-106407885D01*
X197638475Y-106423124D01*
X197639865Y-106424329D01*
X197647548Y-106426000D01*
X198619884Y-106426000D01*
X198635123Y-106421525D01*
X198636328Y-106420135D01*
X198637999Y-106412452D01*
X198637999Y-105835331D01*
X198637629Y-105828510D01*
X198632105Y-105777648D01*
X198628479Y-105762396D01*
X198583324Y-105641946D01*
X198574786Y-105626351D01*
X198498285Y-105524276D01*
X198485724Y-105511715D01*
X198383649Y-105435214D01*
X198368054Y-105426676D01*
X198247606Y-105381522D01*
X198232351Y-105377895D01*
X198181486Y-105372369D01*
X198174672Y-105372000D01*
X197652115Y-105372000D01*
X197636876Y-105376475D01*
X197635671Y-105377865D01*
X197634000Y-105385548D01*
X197634000Y-106407885D01*
X197126000Y-106407885D01*
X197126000Y-105390116D01*
X197121525Y-105374877D01*
X197120135Y-105373672D01*
X197112452Y-105372001D01*
X196585331Y-105372001D01*
X196578510Y-105372371D01*
X196527648Y-105377895D01*
X196512396Y-105381521D01*
X196391946Y-105426676D01*
X196376351Y-105435214D01*
X196274276Y-105511715D01*
X196261715Y-105524276D01*
X196185214Y-105626351D01*
X196176676Y-105641946D01*
X196131522Y-105762394D01*
X196127895Y-105777649D01*
X196122369Y-105828514D01*
X196122000Y-105835328D01*
X196122000Y-106407885D01*
X195038500Y-106407885D01*
X195038500Y-105831866D01*
X195031745Y-105769684D01*
X194980615Y-105633295D01*
X194893261Y-105516739D01*
X194776705Y-105429385D01*
X194640316Y-105378255D01*
X194578134Y-105371500D01*
X192981866Y-105371500D01*
X192919684Y-105378255D01*
X192783295Y-105429385D01*
X192666739Y-105516739D01*
X192579385Y-105633295D01*
X192528255Y-105769684D01*
X192521500Y-105831866D01*
X192521500Y-107528134D01*
X192528255Y-107590316D01*
X192579385Y-107726705D01*
X192666739Y-107843261D01*
X192783295Y-107930615D01*
X192919684Y-107981745D01*
X192981866Y-107988500D01*
X193018500Y-107988500D01*
X193086621Y-108008502D01*
X193133114Y-108062158D01*
X193144500Y-108114500D01*
X193144500Y-110704577D01*
X193124498Y-110772698D01*
X193107595Y-110793672D01*
X190106517Y-113794750D01*
X190098191Y-113802326D01*
X190091697Y-113806447D01*
X190056039Y-113844419D01*
X190044915Y-113856265D01*
X190042160Y-113859107D01*
X190022361Y-113878906D01*
X190019937Y-113882031D01*
X190019929Y-113882040D01*
X190019863Y-113882126D01*
X190012155Y-113891151D01*
X189981783Y-113923494D01*
X189977965Y-113930438D01*
X189977964Y-113930440D01*
X189971978Y-113941329D01*
X189961127Y-113957847D01*
X189948650Y-113973933D01*
X189931024Y-114014666D01*
X189925807Y-114025314D01*
X189904431Y-114064197D01*
X189902460Y-114071872D01*
X189902458Y-114071878D01*
X189899369Y-114083911D01*
X189892966Y-114102613D01*
X189884883Y-114121292D01*
X189883644Y-114129117D01*
X189877940Y-114165127D01*
X189875535Y-114176740D01*
X189864500Y-114219718D01*
X189864500Y-114240065D01*
X189862949Y-114259776D01*
X189859765Y-114279879D01*
X189860094Y-114283364D01*
X189838575Y-114348952D01*
X189783485Y-114393736D01*
X189712928Y-114401626D01*
X189692711Y-114396307D01*
X189493783Y-114325863D01*
X189493775Y-114325861D01*
X189488904Y-114324136D01*
X189483811Y-114323229D01*
X189483808Y-114323228D01*
X189274065Y-114285867D01*
X189274059Y-114285866D01*
X189268976Y-114284961D01*
X189195144Y-114284059D01*
X189050773Y-114282295D01*
X189050771Y-114282295D01*
X189045603Y-114282232D01*
X188824783Y-114316022D01*
X188612448Y-114385424D01*
X188414299Y-114488574D01*
X188410166Y-114491677D01*
X188410163Y-114491679D01*
X188245353Y-114615422D01*
X188235657Y-114622702D01*
X188232085Y-114626440D01*
X188087596Y-114777639D01*
X188081321Y-114784205D01*
X187973893Y-114941688D01*
X187918985Y-114986688D01*
X187848460Y-114994859D01*
X187784713Y-114963605D01*
X187764016Y-114939121D01*
X187683514Y-114814684D01*
X187683512Y-114814681D01*
X187680706Y-114810344D01*
X187530362Y-114645118D01*
X187526311Y-114641919D01*
X187526307Y-114641915D01*
X187359106Y-114509867D01*
X187359102Y-114509865D01*
X187355051Y-114506665D01*
X187318720Y-114486609D01*
X187302828Y-114477836D01*
X187159481Y-114398705D01*
X187154612Y-114396981D01*
X187154608Y-114396979D01*
X186953779Y-114325862D01*
X186953775Y-114325861D01*
X186948904Y-114324136D01*
X186943811Y-114323229D01*
X186943808Y-114323228D01*
X186734065Y-114285867D01*
X186734059Y-114285866D01*
X186728976Y-114284961D01*
X186655144Y-114284059D01*
X186510773Y-114282295D01*
X186510771Y-114282295D01*
X186505603Y-114282232D01*
X186358319Y-114304770D01*
X186289892Y-114315240D01*
X186289889Y-114315241D01*
X186284783Y-114316022D01*
X186279876Y-114317626D01*
X186279863Y-114317629D01*
X186274353Y-114319430D01*
X186203389Y-114321579D01*
X186146117Y-114288759D01*
X185763875Y-113906517D01*
X185756299Y-113898191D01*
X185752178Y-113891697D01*
X185702359Y-113844914D01*
X185699518Y-113842160D01*
X185679719Y-113822361D01*
X185676594Y-113819937D01*
X185676585Y-113819929D01*
X185676499Y-113819863D01*
X185667474Y-113812155D01*
X185657448Y-113802740D01*
X185635131Y-113781783D01*
X185617294Y-113771977D01*
X185600778Y-113761127D01*
X185584692Y-113748650D01*
X185543959Y-113731024D01*
X185533311Y-113725807D01*
X185504414Y-113709921D01*
X185494428Y-113704431D01*
X185486753Y-113702460D01*
X185486747Y-113702458D01*
X185474714Y-113699369D01*
X185456012Y-113692966D01*
X185437333Y-113684883D01*
X185397532Y-113678579D01*
X185393498Y-113677940D01*
X185381885Y-113675535D01*
X185338907Y-113664500D01*
X185318560Y-113664500D01*
X185298849Y-113662949D01*
X185286575Y-113661005D01*
X185278746Y-113659765D01*
X185270854Y-113660511D01*
X185234569Y-113663941D01*
X185222711Y-113664500D01*
X173021779Y-113664500D01*
X173010550Y-113663971D01*
X173003040Y-113662292D01*
X172995114Y-113662541D01*
X172995113Y-113662541D01*
X172934761Y-113664438D01*
X172930803Y-113664500D01*
X172902776Y-113664500D01*
X172898730Y-113665011D01*
X172886902Y-113665942D01*
X172842554Y-113667336D01*
X172834936Y-113669549D01*
X172834937Y-113669549D01*
X172823013Y-113673013D01*
X172803653Y-113677022D01*
X172791325Y-113678579D01*
X172791322Y-113678580D01*
X172783460Y-113679573D01*
X172776094Y-113682490D01*
X172776088Y-113682491D01*
X172742198Y-113695909D01*
X172730971Y-113699753D01*
X172688366Y-113712131D01*
X172681547Y-113716164D01*
X172681542Y-113716166D01*
X172670850Y-113722490D01*
X172653100Y-113731187D01*
X172634171Y-113738681D01*
X172627755Y-113743342D01*
X172627754Y-113743343D01*
X172598278Y-113764759D01*
X172588354Y-113771278D01*
X172556983Y-113789830D01*
X172556978Y-113789834D01*
X172550160Y-113793866D01*
X172535773Y-113808253D01*
X172520739Y-113821094D01*
X172504272Y-113833058D01*
X172499219Y-113839166D01*
X172475987Y-113867249D01*
X172467997Y-113876029D01*
X172055636Y-114288390D01*
X171993324Y-114322416D01*
X171944446Y-114323342D01*
X171868635Y-114309838D01*
X171734065Y-114285867D01*
X171734059Y-114285866D01*
X171728976Y-114284961D01*
X171655144Y-114284059D01*
X171510773Y-114282295D01*
X171510771Y-114282295D01*
X171505603Y-114282232D01*
X171284783Y-114316022D01*
X171072448Y-114385424D01*
X170874299Y-114488574D01*
X170870166Y-114491677D01*
X170870163Y-114491679D01*
X170705353Y-114615422D01*
X170695657Y-114622702D01*
X170692085Y-114626440D01*
X170547596Y-114777639D01*
X170541321Y-114784205D01*
X170538412Y-114788470D01*
X170538406Y-114788478D01*
X170481886Y-114871333D01*
X170415435Y-114968747D01*
X170373378Y-115059351D01*
X170326783Y-115159733D01*
X170321380Y-115171372D01*
X170261681Y-115386637D01*
X170237943Y-115608762D01*
X170238240Y-115613915D01*
X170238240Y-115613918D01*
X170243703Y-115708657D01*
X170250802Y-115831782D01*
X170251939Y-115836828D01*
X170251940Y-115836834D01*
X170269337Y-115914029D01*
X170299914Y-116049706D01*
X170383958Y-116256683D01*
X170424661Y-116323104D01*
X170499213Y-116444763D01*
X170517751Y-116513297D01*
X170496294Y-116580974D01*
X170441655Y-116626307D01*
X170391780Y-116636598D01*
X163878750Y-116636598D01*
X163810629Y-116616596D01*
X163789655Y-116599693D01*
X161295728Y-114105766D01*
X161261702Y-114043454D01*
X161266767Y-113972639D01*
X161309314Y-113915803D01*
X161318514Y-113909531D01*
X161468496Y-113816719D01*
X161593453Y-113691544D01*
X161598913Y-113682687D01*
X161682423Y-113547209D01*
X161682424Y-113547207D01*
X161686263Y-113540979D01*
X161730318Y-113408156D01*
X161739780Y-113379630D01*
X161739780Y-113379628D01*
X161741945Y-113373102D01*
X161743850Y-113354515D01*
X161749506Y-113299308D01*
X161752648Y-113268641D01*
X161752648Y-112385663D01*
X161772650Y-112317542D01*
X161789553Y-112296568D01*
X179673477Y-94412644D01*
X179681803Y-94405067D01*
X179688303Y-94400942D01*
X179735101Y-94351107D01*
X179737855Y-94348266D01*
X179757638Y-94328483D01*
X179760129Y-94325272D01*
X179767838Y-94316245D01*
X179784817Y-94298164D01*
X179798217Y-94283895D01*
X179808022Y-94266060D01*
X179818876Y-94249536D01*
X179826491Y-94239719D01*
X179826492Y-94239718D01*
X179831349Y-94233456D01*
X179848969Y-94192739D01*
X179854192Y-94182078D01*
X179871749Y-94150142D01*
X179871751Y-94150137D01*
X179875569Y-94143192D01*
X179877539Y-94135518D01*
X179877542Y-94135511D01*
X179880632Y-94123476D01*
X179887036Y-94104771D01*
X179891967Y-94093376D01*
X179895117Y-94086097D01*
X179902060Y-94042262D01*
X179904467Y-94030640D01*
X179904937Y-94028810D01*
X179915500Y-93987671D01*
X179915500Y-93967324D01*
X179917051Y-93947613D01*
X179918995Y-93935339D01*
X179920235Y-93927510D01*
X179916986Y-93893140D01*
X179916059Y-93883333D01*
X179915500Y-93871475D01*
X179915500Y-90334500D01*
X179935502Y-90266379D01*
X179989158Y-90219886D01*
X180041500Y-90208500D01*
X180078134Y-90208500D01*
X180140316Y-90201745D01*
X180276705Y-90150615D01*
X180393261Y-90063261D01*
X180480615Y-89946705D01*
X180531745Y-89810316D01*
X180538500Y-89748134D01*
X180538500Y-89744669D01*
X181622001Y-89744669D01*
X181622371Y-89751490D01*
X181627895Y-89802352D01*
X181631521Y-89817604D01*
X181676676Y-89938054D01*
X181685214Y-89953649D01*
X181761715Y-90055724D01*
X181774276Y-90068285D01*
X181876351Y-90144786D01*
X181891946Y-90153324D01*
X182012394Y-90198478D01*
X182027649Y-90202105D01*
X182078514Y-90207631D01*
X182085328Y-90208000D01*
X182607885Y-90208000D01*
X182623124Y-90203525D01*
X182624329Y-90202135D01*
X182626000Y-90194452D01*
X182626000Y-90189884D01*
X183134000Y-90189884D01*
X183138475Y-90205123D01*
X183139865Y-90206328D01*
X183147548Y-90207999D01*
X183674669Y-90207999D01*
X183681490Y-90207629D01*
X183732352Y-90202105D01*
X183747604Y-90198479D01*
X183868054Y-90153324D01*
X183883649Y-90144786D01*
X183985724Y-90068285D01*
X183998285Y-90055724D01*
X184074786Y-89953649D01*
X184083324Y-89938054D01*
X184128478Y-89817606D01*
X184132105Y-89802351D01*
X184137631Y-89751486D01*
X184138000Y-89744672D01*
X184138000Y-89172115D01*
X184133525Y-89156876D01*
X184132135Y-89155671D01*
X184124452Y-89154000D01*
X183152115Y-89154000D01*
X183136876Y-89158475D01*
X183135671Y-89159865D01*
X183134000Y-89167548D01*
X183134000Y-90189884D01*
X182626000Y-90189884D01*
X182626000Y-89172115D01*
X182621525Y-89156876D01*
X182620135Y-89155671D01*
X182612452Y-89154000D01*
X181640116Y-89154000D01*
X181624877Y-89158475D01*
X181623672Y-89159865D01*
X181622001Y-89167548D01*
X181622001Y-89744669D01*
X180538500Y-89744669D01*
X180538500Y-88627885D01*
X181622000Y-88627885D01*
X181626475Y-88643124D01*
X181627865Y-88644329D01*
X181635548Y-88646000D01*
X182607885Y-88646000D01*
X182623124Y-88641525D01*
X182624329Y-88640135D01*
X182626000Y-88632452D01*
X182626000Y-88627885D01*
X183134000Y-88627885D01*
X183138475Y-88643124D01*
X183139865Y-88644329D01*
X183147548Y-88646000D01*
X184119884Y-88646000D01*
X184135123Y-88641525D01*
X184136328Y-88640135D01*
X184137999Y-88632452D01*
X184137999Y-88055331D01*
X184137629Y-88048510D01*
X184132105Y-87997648D01*
X184128479Y-87982396D01*
X184083324Y-87861946D01*
X184074786Y-87846351D01*
X183998285Y-87744276D01*
X183985724Y-87731715D01*
X183883649Y-87655214D01*
X183868054Y-87646676D01*
X183747606Y-87601522D01*
X183732351Y-87597895D01*
X183681486Y-87592369D01*
X183674672Y-87592000D01*
X183152115Y-87592000D01*
X183136876Y-87596475D01*
X183135671Y-87597865D01*
X183134000Y-87605548D01*
X183134000Y-88627885D01*
X182626000Y-88627885D01*
X182626000Y-87610116D01*
X182621525Y-87594877D01*
X182620135Y-87593672D01*
X182612452Y-87592001D01*
X182085331Y-87592001D01*
X182078510Y-87592371D01*
X182027648Y-87597895D01*
X182012396Y-87601521D01*
X181891946Y-87646676D01*
X181876351Y-87655214D01*
X181774276Y-87731715D01*
X181761715Y-87744276D01*
X181685214Y-87846351D01*
X181676676Y-87861946D01*
X181631522Y-87982394D01*
X181627895Y-87997649D01*
X181622369Y-88048514D01*
X181622000Y-88055328D01*
X181622000Y-88627885D01*
X180538500Y-88627885D01*
X180538500Y-88051866D01*
X180531745Y-87989684D01*
X180480615Y-87853295D01*
X180393261Y-87736739D01*
X180276705Y-87649385D01*
X180140316Y-87598255D01*
X180078134Y-87591500D01*
X178481866Y-87591500D01*
X178419684Y-87598255D01*
X178283295Y-87649385D01*
X178166739Y-87736739D01*
X178079385Y-87853295D01*
X178028255Y-87989684D01*
X178021500Y-88051866D01*
X178021500Y-89748134D01*
X178028255Y-89810316D01*
X178079385Y-89946705D01*
X178166739Y-90063261D01*
X178283295Y-90150615D01*
X178419684Y-90201745D01*
X178481866Y-90208500D01*
X178518500Y-90208500D01*
X178586621Y-90228502D01*
X178633114Y-90282158D01*
X178644500Y-90334500D01*
X178644500Y-93591966D01*
X178624498Y-93660087D01*
X178607595Y-93681061D01*
X160665820Y-111622836D01*
X160603508Y-111656862D01*
X160576725Y-111659741D01*
X159693748Y-111659741D01*
X159690502Y-111660078D01*
X159690498Y-111660078D01*
X159594840Y-111670003D01*
X159594836Y-111670004D01*
X159587982Y-111670715D01*
X159581446Y-111672896D01*
X159581444Y-111672896D01*
X159465387Y-111711616D01*
X159420202Y-111726691D01*
X159269800Y-111819763D01*
X159144843Y-111944938D01*
X159141003Y-111951168D01*
X159141002Y-111951169D01*
X159064083Y-112075955D01*
X159052033Y-112095503D01*
X159049729Y-112102450D01*
X159003268Y-112242527D01*
X158996351Y-112263380D01*
X158995651Y-112270216D01*
X158995650Y-112270219D01*
X158992640Y-112299600D01*
X158985648Y-112367841D01*
X158985648Y-113268641D01*
X158985985Y-113271887D01*
X158985985Y-113271891D01*
X158995600Y-113364555D01*
X158996622Y-113374407D01*
X158998803Y-113380943D01*
X158998803Y-113380945D01*
X159038064Y-113498624D01*
X159040648Y-113569573D01*
X159004465Y-113630657D01*
X158941000Y-113662482D01*
X158918540Y-113664500D01*
X156843513Y-113664500D01*
X156775392Y-113644498D01*
X156754418Y-113627595D01*
X156534979Y-113408156D01*
X156500953Y-113345844D01*
X156498074Y-113319061D01*
X156498074Y-112436083D01*
X156492843Y-112385663D01*
X156487812Y-112337175D01*
X156487811Y-112337171D01*
X156487100Y-112330317D01*
X156475841Y-112296568D01*
X156433442Y-112169485D01*
X156431124Y-112162537D01*
X156338052Y-112012135D01*
X156212877Y-111887178D01*
X156195874Y-111876697D01*
X156068542Y-111798208D01*
X156068540Y-111798207D01*
X156062312Y-111794368D01*
X155948758Y-111756704D01*
X155900963Y-111740851D01*
X155900961Y-111740851D01*
X155894435Y-111738686D01*
X155887599Y-111737986D01*
X155887596Y-111737985D01*
X155844543Y-111733574D01*
X155789974Y-111727983D01*
X154439174Y-111727983D01*
X154435928Y-111728320D01*
X154435924Y-111728320D01*
X154340266Y-111738245D01*
X154340262Y-111738246D01*
X154333408Y-111738957D01*
X154326872Y-111741138D01*
X154326870Y-111741138D01*
X154227032Y-111774447D01*
X154165628Y-111794933D01*
X154015226Y-111888005D01*
X153890269Y-112013180D01*
X153886429Y-112019410D01*
X153886428Y-112019411D01*
X153807372Y-112147664D01*
X153797459Y-112163745D01*
X153741777Y-112331622D01*
X153731074Y-112436083D01*
X153731074Y-113336883D01*
X153731411Y-113340129D01*
X153731411Y-113340133D01*
X153741332Y-113435744D01*
X153742048Y-113442649D01*
X153744229Y-113449185D01*
X153744229Y-113449187D01*
X153754165Y-113478968D01*
X153798024Y-113610429D01*
X153891096Y-113760831D01*
X153896278Y-113766004D01*
X153950231Y-113819863D01*
X154016271Y-113885788D01*
X154022501Y-113889628D01*
X154022502Y-113889629D01*
X154157169Y-113972639D01*
X154166836Y-113978598D01*
X154246579Y-114005047D01*
X154328185Y-114032115D01*
X154328187Y-114032115D01*
X154334713Y-114034280D01*
X154341549Y-114034980D01*
X154341552Y-114034981D01*
X154384605Y-114039392D01*
X154439174Y-114044983D01*
X155322151Y-114044983D01*
X155390272Y-114064985D01*
X155411246Y-114081888D01*
X155948723Y-114619365D01*
X155982749Y-114681677D01*
X155977684Y-114752492D01*
X155935137Y-114809328D01*
X155868617Y-114834139D01*
X155846787Y-114833804D01*
X155789974Y-114827983D01*
X154439174Y-114827983D01*
X154435928Y-114828320D01*
X154435924Y-114828320D01*
X154340266Y-114838245D01*
X154340262Y-114838246D01*
X154333408Y-114838957D01*
X154326872Y-114841138D01*
X154326870Y-114841138D01*
X154194768Y-114885211D01*
X154165628Y-114894933D01*
X154015226Y-114988005D01*
X153890269Y-115113180D01*
X153886429Y-115119410D01*
X153886428Y-115119411D01*
X153810129Y-115243191D01*
X153797459Y-115263745D01*
X153795155Y-115270692D01*
X153792061Y-115277327D01*
X153789273Y-115276027D01*
X153756745Y-115322996D01*
X153691186Y-115350245D01*
X153677566Y-115350983D01*
X151342383Y-115350983D01*
X151274262Y-115330981D01*
X151227769Y-115277325D01*
X151222859Y-115264859D01*
X151208909Y-115223044D01*
X151176550Y-115126054D01*
X151083478Y-114975652D01*
X151072275Y-114964468D01*
X150963483Y-114855866D01*
X150958303Y-114850695D01*
X150938821Y-114838686D01*
X150813968Y-114761725D01*
X150813966Y-114761724D01*
X150807738Y-114757885D01*
X150727995Y-114731436D01*
X150646389Y-114704368D01*
X150646387Y-114704368D01*
X150639861Y-114702203D01*
X150633025Y-114701503D01*
X150633022Y-114701502D01*
X150589969Y-114697091D01*
X150535400Y-114691500D01*
X149184600Y-114691500D01*
X149181354Y-114691837D01*
X149181350Y-114691837D01*
X149085692Y-114701762D01*
X149085688Y-114701763D01*
X149078834Y-114702474D01*
X149072298Y-114704655D01*
X149072296Y-114704655D01*
X148951386Y-114744994D01*
X148911054Y-114758450D01*
X148760652Y-114851522D01*
X148755479Y-114856704D01*
X148719631Y-114892615D01*
X148635695Y-114976697D01*
X148631855Y-114982927D01*
X148631854Y-114982928D01*
X148552452Y-115111742D01*
X148542885Y-115127262D01*
X148540581Y-115134209D01*
X148537487Y-115140844D01*
X148534699Y-115139544D01*
X148502171Y-115186513D01*
X148436612Y-115213762D01*
X148422992Y-115214500D01*
X145880295Y-115214500D01*
X145812174Y-115194498D01*
X145773151Y-115154803D01*
X145763709Y-115139544D01*
X145692421Y-115024345D01*
X145567246Y-114899388D01*
X145496641Y-114855866D01*
X145422911Y-114810418D01*
X145422909Y-114810417D01*
X145416681Y-114806578D01*
X145329432Y-114777639D01*
X145255332Y-114753061D01*
X145255330Y-114753061D01*
X145248804Y-114750896D01*
X145241968Y-114750196D01*
X145241965Y-114750195D01*
X145191288Y-114745003D01*
X145144343Y-114740193D01*
X143793543Y-114740193D01*
X143790297Y-114740530D01*
X143790293Y-114740530D01*
X143694635Y-114750455D01*
X143694631Y-114750456D01*
X143687777Y-114751167D01*
X143681241Y-114753348D01*
X143681239Y-114753348D01*
X143549137Y-114797421D01*
X143519997Y-114807143D01*
X143369595Y-114900215D01*
X143244638Y-115025390D01*
X143240798Y-115031620D01*
X143240797Y-115031621D01*
X143156039Y-115169124D01*
X143151828Y-115175955D01*
X143149524Y-115182902D01*
X143146430Y-115189537D01*
X143143642Y-115188237D01*
X143111114Y-115235206D01*
X143045555Y-115262455D01*
X143031935Y-115263193D01*
X140767277Y-115263193D01*
X140699156Y-115243191D01*
X140653176Y-115190643D01*
X140651077Y-115186163D01*
X140648761Y-115179220D01*
X140643905Y-115171372D01*
X140559543Y-115035046D01*
X140555689Y-115028818D01*
X140513486Y-114986688D01*
X140435694Y-114909032D01*
X140430514Y-114903861D01*
X140424283Y-114900020D01*
X140286179Y-114814891D01*
X140286177Y-114814890D01*
X140279949Y-114811051D01*
X140187744Y-114780468D01*
X140118600Y-114757534D01*
X140118598Y-114757534D01*
X140112072Y-114755369D01*
X140105236Y-114754669D01*
X140105233Y-114754668D01*
X140061574Y-114750195D01*
X140007611Y-114744666D01*
X138656811Y-114744666D01*
X138653565Y-114745003D01*
X138653561Y-114745003D01*
X138557903Y-114754928D01*
X138557899Y-114754929D01*
X138551045Y-114755640D01*
X138544509Y-114757821D01*
X138544507Y-114757821D01*
X138452642Y-114788470D01*
X138383265Y-114811616D01*
X138232863Y-114904688D01*
X138107906Y-115029863D01*
X138104066Y-115036093D01*
X138104065Y-115036094D01*
X138027853Y-115159733D01*
X138015096Y-115180428D01*
X137994279Y-115243191D01*
X137967809Y-115322996D01*
X137959414Y-115348305D01*
X137958714Y-115355141D01*
X137958713Y-115355144D01*
X137954960Y-115391774D01*
X137948711Y-115452766D01*
X137948711Y-116057078D01*
X137928709Y-116125199D01*
X137875053Y-116171692D01*
X137822711Y-116183078D01*
X128105659Y-116183078D01*
X128037538Y-116163076D01*
X127991045Y-116109420D01*
X127980941Y-116039146D01*
X127985100Y-116020450D01*
X128011071Y-115934970D01*
X128013247Y-115924904D01*
X128014678Y-115914029D01*
X128012467Y-115899845D01*
X127999309Y-115896067D01*
X126552692Y-115896067D01*
X126484571Y-115876065D01*
X126438078Y-115822409D01*
X126426692Y-115770067D01*
X126426692Y-115369952D01*
X126934692Y-115369952D01*
X126939167Y-115385191D01*
X126940557Y-115386396D01*
X126948240Y-115388067D01*
X127999036Y-115388067D01*
X128012567Y-115384094D01*
X128013872Y-115375014D01*
X127971906Y-115207942D01*
X127968586Y-115198191D01*
X127883664Y-115002881D01*
X127878797Y-114993806D01*
X127763118Y-114814993D01*
X127756828Y-114806824D01*
X127613498Y-114649307D01*
X127605965Y-114642282D01*
X127438831Y-114510289D01*
X127430244Y-114504584D01*
X127243809Y-114401666D01*
X127234397Y-114397436D01*
X127033651Y-114326347D01*
X127023680Y-114323713D01*
X126952529Y-114311039D01*
X126939232Y-114312499D01*
X126934692Y-114327056D01*
X126934692Y-115369952D01*
X126426692Y-115369952D01*
X126426692Y-114325169D01*
X126422774Y-114311825D01*
X126408498Y-114309838D01*
X126370016Y-114315727D01*
X126359980Y-114318118D01*
X126157560Y-114384279D01*
X126148051Y-114388276D01*
X125959155Y-114486609D01*
X125950430Y-114492103D01*
X125780125Y-114619972D01*
X125772418Y-114626815D01*
X125695170Y-114707651D01*
X125633646Y-114743081D01*
X125562734Y-114739624D01*
X125504947Y-114698378D01*
X125486094Y-114664830D01*
X125444459Y-114553770D01*
X125441307Y-114545362D01*
X125353953Y-114428806D01*
X125237397Y-114341452D01*
X125101008Y-114290322D01*
X125038826Y-114283567D01*
X123242558Y-114283567D01*
X123180376Y-114290322D01*
X123043987Y-114341452D01*
X122927431Y-114428806D01*
X122840077Y-114545362D01*
X122788947Y-114681751D01*
X122782192Y-114743933D01*
X122782192Y-116049644D01*
X122762190Y-116117765D01*
X122745287Y-116138739D01*
X122737853Y-116146173D01*
X122675541Y-116180199D01*
X122648758Y-116183078D01*
X113105659Y-116183078D01*
X113037538Y-116163076D01*
X112991045Y-116109420D01*
X112980941Y-116039146D01*
X112985100Y-116020450D01*
X113011071Y-115934970D01*
X113013247Y-115924904D01*
X113014678Y-115914029D01*
X113012467Y-115899845D01*
X112999309Y-115896067D01*
X111552692Y-115896067D01*
X111484571Y-115876065D01*
X111438078Y-115822409D01*
X111426692Y-115770067D01*
X111426692Y-115369952D01*
X111934692Y-115369952D01*
X111939167Y-115385191D01*
X111940557Y-115386396D01*
X111948240Y-115388067D01*
X112999036Y-115388067D01*
X113012567Y-115384094D01*
X113013872Y-115375014D01*
X112971906Y-115207942D01*
X112968586Y-115198191D01*
X112883664Y-115002881D01*
X112878797Y-114993806D01*
X112763118Y-114814993D01*
X112756828Y-114806824D01*
X112613498Y-114649307D01*
X112605965Y-114642282D01*
X112438831Y-114510289D01*
X112430244Y-114504584D01*
X112243809Y-114401666D01*
X112234397Y-114397436D01*
X112033651Y-114326347D01*
X112023680Y-114323713D01*
X111952529Y-114311039D01*
X111939232Y-114312499D01*
X111934692Y-114327056D01*
X111934692Y-115369952D01*
X111426692Y-115369952D01*
X111426692Y-114325169D01*
X111422774Y-114311825D01*
X111408498Y-114309838D01*
X111370016Y-114315727D01*
X111359980Y-114318118D01*
X111157560Y-114384279D01*
X111148051Y-114388276D01*
X110959155Y-114486609D01*
X110950430Y-114492103D01*
X110780125Y-114619972D01*
X110772418Y-114626815D01*
X110695170Y-114707651D01*
X110633646Y-114743081D01*
X110562734Y-114739624D01*
X110504947Y-114698378D01*
X110486094Y-114664830D01*
X110444459Y-114553770D01*
X110441307Y-114545362D01*
X110353953Y-114428806D01*
X110237397Y-114341452D01*
X110101008Y-114290322D01*
X110038826Y-114283567D01*
X108242558Y-114283567D01*
X108180376Y-114290322D01*
X108043987Y-114341452D01*
X107927431Y-114428806D01*
X107840077Y-114545362D01*
X107788947Y-114681751D01*
X107782192Y-114743933D01*
X107782192Y-116540201D01*
X96537779Y-116540201D01*
X96539549Y-116443247D01*
X96539717Y-116438648D01*
X96607138Y-115209087D01*
X96607473Y-115204509D01*
X96719070Y-113984437D01*
X96719569Y-113979890D01*
X96759845Y-113665756D01*
X96874728Y-112769722D01*
X96875380Y-112765275D01*
X97073470Y-111565538D01*
X97074286Y-111561097D01*
X97078173Y-111541878D01*
X97233714Y-110772698D01*
X97314695Y-110372233D01*
X97315663Y-110367850D01*
X97597775Y-109190339D01*
X97598888Y-109186031D01*
X97922101Y-108020307D01*
X97923350Y-108016086D01*
X97935208Y-107978479D01*
X98077209Y-107528134D01*
X99281500Y-107528134D01*
X99288255Y-107590316D01*
X99339385Y-107726705D01*
X99426739Y-107843261D01*
X99543295Y-107930615D01*
X99679684Y-107981745D01*
X99741866Y-107988500D01*
X100897578Y-107988500D01*
X100965699Y-108008502D01*
X100986673Y-108025405D01*
X106157911Y-113196643D01*
X106165488Y-113204969D01*
X106169613Y-113211469D01*
X106217848Y-113256764D01*
X106219447Y-113258266D01*
X106222289Y-113261021D01*
X106242072Y-113280804D01*
X106245280Y-113283292D01*
X106254309Y-113291003D01*
X106286660Y-113321383D01*
X106293609Y-113325203D01*
X106304495Y-113331188D01*
X106321019Y-113342042D01*
X106330836Y-113349657D01*
X106337099Y-113354515D01*
X106360300Y-113364555D01*
X106377816Y-113372135D01*
X106388477Y-113377358D01*
X106420413Y-113394915D01*
X106420418Y-113394917D01*
X106427363Y-113398735D01*
X106435037Y-113400705D01*
X106435044Y-113400708D01*
X106447079Y-113403798D01*
X106465784Y-113410202D01*
X106466852Y-113410664D01*
X106484458Y-113418283D01*
X106500053Y-113420753D01*
X106528293Y-113425226D01*
X106539906Y-113427631D01*
X106582884Y-113438666D01*
X106603231Y-113438666D01*
X106622943Y-113440217D01*
X106643045Y-113443401D01*
X106650937Y-113442655D01*
X106687222Y-113439225D01*
X106699080Y-113438666D01*
X137895362Y-113438666D01*
X137963483Y-113458668D01*
X138009976Y-113512324D01*
X138011593Y-113516427D01*
X138013341Y-113520159D01*
X138015661Y-113527112D01*
X138108733Y-113677514D01*
X138113915Y-113682687D01*
X138128157Y-113696904D01*
X138233908Y-113802471D01*
X138240138Y-113806311D01*
X138240139Y-113806312D01*
X138377301Y-113890860D01*
X138384473Y-113895281D01*
X138427424Y-113909527D01*
X138545822Y-113948798D01*
X138545824Y-113948798D01*
X138552350Y-113950963D01*
X138559186Y-113951663D01*
X138559189Y-113951664D01*
X138602242Y-113956075D01*
X138656811Y-113961666D01*
X140007611Y-113961666D01*
X140010857Y-113961329D01*
X140010861Y-113961329D01*
X140106519Y-113951404D01*
X140106523Y-113951403D01*
X140113377Y-113950692D01*
X140119913Y-113948511D01*
X140119915Y-113948511D01*
X140272105Y-113897736D01*
X140281157Y-113894716D01*
X140431559Y-113801644D01*
X140556516Y-113676469D01*
X140563120Y-113665756D01*
X140645486Y-113532134D01*
X140645487Y-113532132D01*
X140649326Y-113525904D01*
X140678076Y-113439225D01*
X140702843Y-113364555D01*
X140702843Y-113364553D01*
X140705008Y-113358027D01*
X140706257Y-113345844D01*
X140712671Y-113283236D01*
X140715711Y-113253566D01*
X140715711Y-112974634D01*
X140735713Y-112906513D01*
X140789369Y-112860020D01*
X140859643Y-112849916D01*
X140924223Y-112879410D01*
X140930806Y-112885539D01*
X141237443Y-113192176D01*
X141245019Y-113200502D01*
X141249140Y-113206996D01*
X141298732Y-113253566D01*
X141298958Y-113253778D01*
X141301800Y-113256533D01*
X141321599Y-113276332D01*
X141324724Y-113278756D01*
X141324733Y-113278764D01*
X141324819Y-113278830D01*
X141333844Y-113286538D01*
X141366187Y-113316910D01*
X141381272Y-113325203D01*
X141384022Y-113326715D01*
X141400540Y-113337566D01*
X141416626Y-113350043D01*
X141457359Y-113367669D01*
X141468007Y-113372886D01*
X141506890Y-113394262D01*
X141514565Y-113396233D01*
X141514571Y-113396235D01*
X141526604Y-113399324D01*
X141545306Y-113405727D01*
X141563985Y-113413810D01*
X141597821Y-113419169D01*
X141607820Y-113420753D01*
X141619433Y-113423158D01*
X141662411Y-113434193D01*
X141682758Y-113434193D01*
X141702469Y-113435744D01*
X141714743Y-113437688D01*
X141722572Y-113438928D01*
X141730464Y-113438182D01*
X141766749Y-113434752D01*
X141778607Y-113434193D01*
X143032094Y-113434193D01*
X143100215Y-113454195D01*
X143146708Y-113507851D01*
X143148325Y-113511954D01*
X143150073Y-113515686D01*
X143152393Y-113522639D01*
X143245465Y-113673041D01*
X143370640Y-113797998D01*
X143376870Y-113801838D01*
X143376871Y-113801839D01*
X143514734Y-113886819D01*
X143521205Y-113890808D01*
X143578437Y-113909791D01*
X143682554Y-113944325D01*
X143682556Y-113944325D01*
X143689082Y-113946490D01*
X143695918Y-113947190D01*
X143695921Y-113947191D01*
X143738974Y-113951602D01*
X143793543Y-113957193D01*
X145144343Y-113957193D01*
X145147589Y-113956856D01*
X145147593Y-113956856D01*
X145243251Y-113946931D01*
X145243255Y-113946930D01*
X145250109Y-113946219D01*
X145256645Y-113944038D01*
X145256647Y-113944038D01*
X145404482Y-113894716D01*
X145417889Y-113890243D01*
X145568291Y-113797171D01*
X145616728Y-113748650D01*
X145688077Y-113677176D01*
X145693248Y-113671996D01*
X145697089Y-113665765D01*
X145782218Y-113527661D01*
X145782219Y-113527659D01*
X145786058Y-113521431D01*
X145819859Y-113419523D01*
X145839575Y-113360082D01*
X145839575Y-113360080D01*
X145841740Y-113353554D01*
X145845926Y-113312704D01*
X145848149Y-113291004D01*
X145852443Y-113249093D01*
X145852443Y-112348293D01*
X145851423Y-112338461D01*
X145842181Y-112249385D01*
X145842180Y-112249381D01*
X145841469Y-112242527D01*
X145823043Y-112187296D01*
X145787811Y-112081695D01*
X145785493Y-112074747D01*
X145692421Y-111924345D01*
X145567246Y-111799388D01*
X145556258Y-111792615D01*
X145422911Y-111710418D01*
X145422909Y-111710417D01*
X145416681Y-111706578D01*
X145336938Y-111680129D01*
X145255332Y-111653061D01*
X145255330Y-111653061D01*
X145248804Y-111650896D01*
X145241968Y-111650196D01*
X145241965Y-111650195D01*
X145184866Y-111644345D01*
X145144343Y-111640193D01*
X143793543Y-111640193D01*
X143790297Y-111640530D01*
X143790293Y-111640530D01*
X143694635Y-111650455D01*
X143694631Y-111650456D01*
X143687777Y-111651167D01*
X143681241Y-111653348D01*
X143681239Y-111653348D01*
X143622647Y-111672896D01*
X143519997Y-111707143D01*
X143369595Y-111800215D01*
X143244638Y-111925390D01*
X143240798Y-111931620D01*
X143240797Y-111931621D01*
X143177561Y-112034209D01*
X143151828Y-112075955D01*
X143149524Y-112082902D01*
X143146430Y-112089537D01*
X143143642Y-112088237D01*
X143111114Y-112135206D01*
X143045555Y-112162455D01*
X143031935Y-112163193D01*
X142058115Y-112163193D01*
X141989994Y-112143191D01*
X141969020Y-112126288D01*
X120202536Y-90359803D01*
X120168510Y-90297491D01*
X120173575Y-90226676D01*
X120182125Y-90212267D01*
X120186000Y-90194452D01*
X120186000Y-90189884D01*
X120694000Y-90189884D01*
X120698475Y-90205123D01*
X120699865Y-90206328D01*
X120707548Y-90207999D01*
X121234669Y-90207999D01*
X121241490Y-90207629D01*
X121292352Y-90202105D01*
X121307604Y-90198479D01*
X121428054Y-90153324D01*
X121443649Y-90144786D01*
X121545724Y-90068285D01*
X121558285Y-90055724D01*
X121634786Y-89953649D01*
X121643324Y-89938054D01*
X121688478Y-89817606D01*
X121692105Y-89802351D01*
X121697631Y-89751486D01*
X121698000Y-89744672D01*
X121698000Y-89172115D01*
X121693525Y-89156876D01*
X121692135Y-89155671D01*
X121684452Y-89154000D01*
X120712115Y-89154000D01*
X120696876Y-89158475D01*
X120695671Y-89159865D01*
X120694000Y-89167548D01*
X120694000Y-90189884D01*
X120186000Y-90189884D01*
X120186000Y-89172115D01*
X120181525Y-89156876D01*
X120180135Y-89155671D01*
X120172452Y-89154000D01*
X119200116Y-89154000D01*
X119179957Y-89159919D01*
X119128508Y-89192983D01*
X119057511Y-89192983D01*
X119003915Y-89161182D01*
X118470618Y-88627885D01*
X119182000Y-88627885D01*
X119186475Y-88643124D01*
X119187865Y-88644329D01*
X119195548Y-88646000D01*
X120167885Y-88646000D01*
X120183124Y-88641525D01*
X120184329Y-88640135D01*
X120186000Y-88632452D01*
X120186000Y-88627885D01*
X120694000Y-88627885D01*
X120698475Y-88643124D01*
X120699865Y-88644329D01*
X120707548Y-88646000D01*
X121679884Y-88646000D01*
X121695123Y-88641525D01*
X121696328Y-88640135D01*
X121697999Y-88632452D01*
X121697999Y-88055331D01*
X121697629Y-88048510D01*
X121692105Y-87997648D01*
X121688479Y-87982396D01*
X121643324Y-87861946D01*
X121634786Y-87846351D01*
X121558285Y-87744276D01*
X121545724Y-87731715D01*
X121443649Y-87655214D01*
X121428054Y-87646676D01*
X121307606Y-87601522D01*
X121292351Y-87597895D01*
X121241486Y-87592369D01*
X121234672Y-87592000D01*
X120712115Y-87592000D01*
X120696876Y-87596475D01*
X120695671Y-87597865D01*
X120694000Y-87605548D01*
X120694000Y-88627885D01*
X120186000Y-88627885D01*
X120186000Y-87610116D01*
X120181525Y-87594877D01*
X120180135Y-87593672D01*
X120172452Y-87592001D01*
X119645331Y-87592001D01*
X119638510Y-87592371D01*
X119587648Y-87597895D01*
X119572396Y-87601521D01*
X119451946Y-87646676D01*
X119436351Y-87655214D01*
X119334276Y-87731715D01*
X119321715Y-87744276D01*
X119245214Y-87846351D01*
X119236676Y-87861946D01*
X119191522Y-87982394D01*
X119187895Y-87997649D01*
X119182369Y-88048514D01*
X119182000Y-88055328D01*
X119182000Y-88627885D01*
X118470618Y-88627885D01*
X118349250Y-88506517D01*
X118341674Y-88498191D01*
X118337553Y-88491697D01*
X118287734Y-88444914D01*
X118284893Y-88442160D01*
X118265094Y-88422361D01*
X118261969Y-88419937D01*
X118261960Y-88419929D01*
X118261874Y-88419863D01*
X118252849Y-88412155D01*
X118220506Y-88381783D01*
X118210599Y-88376336D01*
X118207482Y-88374623D01*
X118202669Y-88371977D01*
X118186153Y-88361127D01*
X118170067Y-88348650D01*
X118162787Y-88345500D01*
X118160361Y-88344065D01*
X118111909Y-88292172D01*
X118098500Y-88235611D01*
X118098500Y-88051866D01*
X118091745Y-87989684D01*
X118040615Y-87853295D01*
X117953261Y-87736739D01*
X117836705Y-87649385D01*
X117700316Y-87598255D01*
X117638134Y-87591500D01*
X116041866Y-87591500D01*
X115979684Y-87598255D01*
X115843295Y-87649385D01*
X115726739Y-87736739D01*
X115639385Y-87853295D01*
X115588255Y-87989684D01*
X115581500Y-88051866D01*
X115581500Y-89748134D01*
X115588255Y-89810316D01*
X115639385Y-89946705D01*
X115726739Y-90063261D01*
X115843295Y-90150615D01*
X115979684Y-90201745D01*
X116041866Y-90208500D01*
X117638134Y-90208500D01*
X117700316Y-90201745D01*
X117836705Y-90150615D01*
X117953261Y-90063261D01*
X117955288Y-90065966D01*
X118003212Y-90039797D01*
X118074027Y-90044862D01*
X118119090Y-90073823D01*
X139474838Y-111429571D01*
X139508864Y-111491883D01*
X139503799Y-111562698D01*
X139461252Y-111619534D01*
X139394732Y-111644345D01*
X139385743Y-111644666D01*
X138656811Y-111644666D01*
X138653565Y-111645003D01*
X138653561Y-111645003D01*
X138557903Y-111654928D01*
X138557899Y-111654929D01*
X138551045Y-111655640D01*
X138544509Y-111657821D01*
X138544507Y-111657821D01*
X138412405Y-111701894D01*
X138383265Y-111711616D01*
X138232863Y-111804688D01*
X138107906Y-111929863D01*
X138104066Y-111936093D01*
X138104065Y-111936094D01*
X138052708Y-112019411D01*
X138015096Y-112080428D01*
X138012792Y-112087375D01*
X138009698Y-112094010D01*
X138006910Y-112092710D01*
X137974382Y-112139679D01*
X137908823Y-112166928D01*
X137895203Y-112167666D01*
X106978589Y-112167666D01*
X106910468Y-112147664D01*
X106889494Y-112130761D01*
X102283402Y-107524669D01*
X102882001Y-107524669D01*
X102882371Y-107531490D01*
X102887895Y-107582352D01*
X102891521Y-107597604D01*
X102936676Y-107718054D01*
X102945214Y-107733649D01*
X103021715Y-107835724D01*
X103034276Y-107848285D01*
X103136351Y-107924786D01*
X103151946Y-107933324D01*
X103272394Y-107978478D01*
X103287649Y-107982105D01*
X103338514Y-107987631D01*
X103345328Y-107988000D01*
X103867885Y-107988000D01*
X103883124Y-107983525D01*
X103884329Y-107982135D01*
X103886000Y-107974452D01*
X103886000Y-107969884D01*
X104394000Y-107969884D01*
X104398475Y-107985123D01*
X104399865Y-107986328D01*
X104407548Y-107987999D01*
X104934669Y-107987999D01*
X104941490Y-107987629D01*
X104992352Y-107982105D01*
X105007604Y-107978479D01*
X105128054Y-107933324D01*
X105143649Y-107924786D01*
X105245724Y-107848285D01*
X105258285Y-107835724D01*
X105334786Y-107733649D01*
X105343324Y-107718054D01*
X105388478Y-107597606D01*
X105392105Y-107582351D01*
X105397631Y-107531486D01*
X105398000Y-107524672D01*
X105398000Y-106952115D01*
X105393525Y-106936876D01*
X105392135Y-106935671D01*
X105384452Y-106934000D01*
X104412115Y-106934000D01*
X104396876Y-106938475D01*
X104395671Y-106939865D01*
X104394000Y-106947548D01*
X104394000Y-107969884D01*
X103886000Y-107969884D01*
X103886000Y-106952115D01*
X103881525Y-106936876D01*
X103880135Y-106935671D01*
X103872452Y-106934000D01*
X102900116Y-106934000D01*
X102884877Y-106938475D01*
X102883672Y-106939865D01*
X102882001Y-106947548D01*
X102882001Y-107524669D01*
X102283402Y-107524669D01*
X101835405Y-107076672D01*
X101801379Y-107014360D01*
X101798500Y-106987577D01*
X101798500Y-106407885D01*
X102882000Y-106407885D01*
X102886475Y-106423124D01*
X102887865Y-106424329D01*
X102895548Y-106426000D01*
X103867885Y-106426000D01*
X103883124Y-106421525D01*
X103884329Y-106420135D01*
X103886000Y-106412452D01*
X103886000Y-106407885D01*
X104394000Y-106407885D01*
X104398475Y-106423124D01*
X104399865Y-106424329D01*
X104407548Y-106426000D01*
X105379884Y-106426000D01*
X105395123Y-106421525D01*
X105396328Y-106420135D01*
X105397999Y-106412452D01*
X105397999Y-105835331D01*
X105397629Y-105828510D01*
X105392105Y-105777648D01*
X105388479Y-105762396D01*
X105343324Y-105641946D01*
X105334786Y-105626351D01*
X105258285Y-105524276D01*
X105245724Y-105511715D01*
X105143649Y-105435214D01*
X105128054Y-105426676D01*
X105007606Y-105381522D01*
X104992351Y-105377895D01*
X104941486Y-105372369D01*
X104934672Y-105372000D01*
X104412115Y-105372000D01*
X104396876Y-105376475D01*
X104395671Y-105377865D01*
X104394000Y-105385548D01*
X104394000Y-106407885D01*
X103886000Y-106407885D01*
X103886000Y-105390116D01*
X103881525Y-105374877D01*
X103880135Y-105373672D01*
X103872452Y-105372001D01*
X103345331Y-105372001D01*
X103338510Y-105372371D01*
X103287648Y-105377895D01*
X103272396Y-105381521D01*
X103151946Y-105426676D01*
X103136351Y-105435214D01*
X103034276Y-105511715D01*
X103021715Y-105524276D01*
X102945214Y-105626351D01*
X102936676Y-105641946D01*
X102891522Y-105762394D01*
X102887895Y-105777649D01*
X102882369Y-105828514D01*
X102882000Y-105835328D01*
X102882000Y-106407885D01*
X101798500Y-106407885D01*
X101798500Y-105831866D01*
X101791745Y-105769684D01*
X101740615Y-105633295D01*
X101653261Y-105516739D01*
X101536705Y-105429385D01*
X101400316Y-105378255D01*
X101338134Y-105371500D01*
X99741866Y-105371500D01*
X99679684Y-105378255D01*
X99543295Y-105429385D01*
X99426739Y-105516739D01*
X99339385Y-105633295D01*
X99288255Y-105769684D01*
X99281500Y-105831866D01*
X99281500Y-107528134D01*
X98077209Y-107528134D01*
X98287078Y-106862554D01*
X98288460Y-106858425D01*
X98692054Y-105717709D01*
X98693561Y-105713670D01*
X99094607Y-104692669D01*
X99136469Y-104586095D01*
X99138091Y-104582163D01*
X99162566Y-104525556D01*
X99619699Y-103468268D01*
X99621408Y-103464488D01*
X100141113Y-102364761D01*
X100142945Y-102361045D01*
X100700110Y-101276049D01*
X100702038Y-101272439D01*
X101243867Y-100296661D01*
X101296123Y-100202552D01*
X101298131Y-100199069D01*
X101928490Y-99144873D01*
X101930585Y-99141493D01*
X102596590Y-98103518D01*
X102598757Y-98100253D01*
X103299882Y-97078892D01*
X103302116Y-97075742D01*
X103333613Y-97032745D01*
X104037717Y-96071560D01*
X104040001Y-96068540D01*
X104050126Y-96055560D01*
X104809423Y-95082103D01*
X104811761Y-95079195D01*
X104844724Y-95039434D01*
X105574374Y-94159291D01*
X105582714Y-94151272D01*
X105582266Y-94150832D01*
X105588548Y-94144427D01*
X105595681Y-94138973D01*
X105628196Y-94094705D01*
X105632708Y-94088925D01*
X105643707Y-94075657D01*
X105646044Y-94071844D01*
X105646050Y-94071836D01*
X105648635Y-94067619D01*
X105654500Y-94058892D01*
X105681906Y-94021579D01*
X105684977Y-94013141D01*
X105685102Y-94012907D01*
X105695757Y-93990823D01*
X105695864Y-93990575D01*
X105700555Y-93982923D01*
X105712701Y-93938244D01*
X105715885Y-93928209D01*
X105728648Y-93893140D01*
X105728649Y-93893137D01*
X105731718Y-93884703D01*
X105732297Y-93875743D01*
X105732350Y-93875491D01*
X105736379Y-93851292D01*
X105736411Y-93851034D01*
X105738767Y-93842367D01*
X105737885Y-93796068D01*
X105738124Y-93785552D01*
X105740531Y-93748305D01*
X105741110Y-93739349D01*
X105739152Y-93730593D01*
X105739131Y-93730317D01*
X105736207Y-93705973D01*
X105736165Y-93705716D01*
X105735994Y-93696736D01*
X105731085Y-93681061D01*
X105722152Y-93652542D01*
X105719428Y-93642373D01*
X105711288Y-93605961D01*
X105711287Y-93605958D01*
X105709329Y-93597201D01*
X105704993Y-93589347D01*
X105704898Y-93589096D01*
X105695256Y-93566540D01*
X105695141Y-93566300D01*
X105692459Y-93557736D01*
X105687479Y-93550267D01*
X105687478Y-93550264D01*
X105666773Y-93519207D01*
X105661305Y-93510213D01*
X105657593Y-93503490D01*
X105657591Y-93503487D01*
X105655237Y-93499223D01*
X105645113Y-93486148D01*
X105639901Y-93478902D01*
X105616638Y-93444009D01*
X105611661Y-93436543D01*
X105604786Y-93430772D01*
X105598797Y-93424084D01*
X105598876Y-93424013D01*
X105589216Y-93413965D01*
X105427424Y-93205028D01*
X105416644Y-93188606D01*
X105409659Y-93175907D01*
X105409658Y-93175906D01*
X105405331Y-93168038D01*
X105391251Y-93154012D01*
X105378374Y-93141184D01*
X105376253Y-93138946D01*
X105374532Y-93136724D01*
X105371326Y-93133618D01*
X105371322Y-93133613D01*
X105351802Y-93114699D01*
X105350597Y-93113515D01*
X105302137Y-93065241D01*
X105298994Y-93063528D01*
X105296417Y-93061031D01*
X105266452Y-93045234D01*
X105235841Y-93029097D01*
X105234305Y-93028274D01*
X105181128Y-92999294D01*
X105181129Y-92999294D01*
X105174240Y-92995540D01*
X105170740Y-92994777D01*
X105167567Y-92993105D01*
X105100500Y-92979464D01*
X105098793Y-92979105D01*
X105085765Y-92976267D01*
X105031920Y-92964537D01*
X105028346Y-92964788D01*
X105024833Y-92964073D01*
X104956515Y-92969812D01*
X104954972Y-92969931D01*
X104920275Y-92972364D01*
X104917518Y-92972993D01*
X104914544Y-92973338D01*
X104879686Y-92976267D01*
X104861695Y-92983211D01*
X104854125Y-92986132D01*
X104836804Y-92991421D01*
X104152087Y-93147746D01*
X104081223Y-93143408D01*
X104072669Y-93139958D01*
X103570062Y-92915533D01*
X103405441Y-92842026D01*
X103399425Y-92839146D01*
X103381161Y-92829797D01*
X103356912Y-92817383D01*
X103356909Y-92817382D01*
X103348923Y-92813294D01*
X103340111Y-92811612D01*
X103340109Y-92811611D01*
X103305171Y-92804941D01*
X103294258Y-92802349D01*
X103260043Y-92792596D01*
X103251410Y-92790135D01*
X103241943Y-92790199D01*
X103240776Y-92790207D01*
X103216298Y-92787975D01*
X103214667Y-92787664D01*
X103214664Y-92787664D01*
X103205849Y-92785981D01*
X103168628Y-92789560D01*
X103161501Y-92790245D01*
X103150296Y-92790820D01*
X103114729Y-92791061D01*
X103114728Y-92791061D01*
X103105756Y-92791122D01*
X103095564Y-92794177D01*
X103071448Y-92798904D01*
X103069800Y-92799062D01*
X103069797Y-92799063D01*
X103060861Y-92799922D01*
X103052527Y-92803254D01*
X103052523Y-92803255D01*
X103019498Y-92816459D01*
X103008913Y-92820154D01*
X102966234Y-92832949D01*
X102958705Y-92837836D01*
X102915208Y-92866070D01*
X102910826Y-92868788D01*
X102455730Y-93138383D01*
X102413674Y-93154012D01*
X101748864Y-93272804D01*
X101713843Y-93274111D01*
X101417115Y-93243673D01*
X101043920Y-93205390D01*
X101000957Y-93193008D01*
X100522640Y-92956612D01*
X100519301Y-92954899D01*
X100462183Y-92924512D01*
X100425820Y-92916973D01*
X100412147Y-92913328D01*
X100385365Y-92904548D01*
X100385363Y-92904548D01*
X100376838Y-92901753D01*
X100367870Y-92901464D01*
X100367867Y-92901463D01*
X100359905Y-92901206D01*
X100358774Y-92901170D01*
X100337259Y-92898612D01*
X100332986Y-92897726D01*
X100328351Y-92896765D01*
X100328350Y-92896765D01*
X100319558Y-92894942D01*
X100310607Y-92895660D01*
X100310604Y-92895660D01*
X100282527Y-92897913D01*
X100268383Y-92898251D01*
X100250504Y-92897674D01*
X100231256Y-92897052D01*
X100222564Y-92899292D01*
X100222562Y-92899292D01*
X100163978Y-92914388D01*
X100161817Y-92914925D01*
X100027813Y-92946941D01*
X99619721Y-93044441D01*
X99564712Y-93045234D01*
X99006299Y-92928729D01*
X98863007Y-92898833D01*
X98860157Y-92898204D01*
X98820022Y-92888856D01*
X98794695Y-92882956D01*
X98785734Y-92883455D01*
X98785733Y-92883455D01*
X98780741Y-92883733D01*
X98759738Y-92884903D01*
X98744758Y-92884844D01*
X98724797Y-92883576D01*
X98718774Y-92883193D01*
X98718773Y-92883193D01*
X98709815Y-92882624D01*
X98701059Y-92884592D01*
X98701055Y-92884592D01*
X98638473Y-92898656D01*
X98637125Y-92898951D01*
X97499707Y-93141499D01*
X97461146Y-93143670D01*
X97165397Y-93114699D01*
X96601627Y-93059473D01*
X96561642Y-93048720D01*
X96083416Y-92830689D01*
X96029730Y-92784230D01*
X96025988Y-92778029D01*
X96003453Y-92738120D01*
X95987378Y-92668970D01*
X96001010Y-92618763D01*
X96013367Y-92594621D01*
X96032238Y-92557751D01*
X96083611Y-92504793D01*
X96551432Y-92247124D01*
X96590643Y-92233352D01*
X97476514Y-92079391D01*
X97498089Y-92077530D01*
X97743484Y-92077530D01*
X97753368Y-92077918D01*
X97801635Y-92081716D01*
X97810417Y-92079881D01*
X97810422Y-92079881D01*
X97853131Y-92070958D01*
X97861035Y-92069568D01*
X97877534Y-92067205D01*
X97913110Y-92062110D01*
X97921278Y-92058396D01*
X97928417Y-92056309D01*
X97935429Y-92053764D01*
X97944214Y-92051928D01*
X97990627Y-92027145D01*
X97997799Y-92023604D01*
X98045705Y-92001822D01*
X98052506Y-91995962D01*
X98058773Y-91991954D01*
X98064781Y-91987549D01*
X98072701Y-91983320D01*
X98079116Y-91977038D01*
X98110281Y-91946518D01*
X98116192Y-91941087D01*
X98149246Y-91912606D01*
X98149247Y-91912605D01*
X98156050Y-91906743D01*
X98160933Y-91899208D01*
X98165826Y-91893600D01*
X98170354Y-91887688D01*
X98176768Y-91881407D01*
X98202516Y-91835524D01*
X98206654Y-91828671D01*
X98230391Y-91792051D01*
X98230393Y-91792047D01*
X98235275Y-91784515D01*
X98250289Y-91734310D01*
X98252947Y-91726390D01*
X98486640Y-91099656D01*
X98519497Y-91050853D01*
X98900536Y-90701098D01*
X98951968Y-90672532D01*
X99533807Y-90510661D01*
X99567578Y-90506051D01*
X99573632Y-90506051D01*
X99577080Y-90506098D01*
X99642686Y-90507894D01*
X99651367Y-90505611D01*
X99651370Y-90505611D01*
X99677838Y-90498651D01*
X99692017Y-90495782D01*
X99727985Y-90490631D01*
X99741376Y-90484543D01*
X99745185Y-90482811D01*
X99765289Y-90475656D01*
X99774872Y-90473136D01*
X99783554Y-90470853D01*
X99791245Y-90466226D01*
X99791247Y-90466225D01*
X99814684Y-90452124D01*
X99827489Y-90445389D01*
X99852410Y-90434058D01*
X99852412Y-90434057D01*
X99860580Y-90430343D01*
X99874889Y-90418013D01*
X99892185Y-90405497D01*
X99900674Y-90400390D01*
X99908365Y-90395763D01*
X99914447Y-90389165D01*
X99914449Y-90389163D01*
X99932990Y-90369047D01*
X99943391Y-90358989D01*
X99964124Y-90341125D01*
X99964128Y-90341121D01*
X99970925Y-90335264D01*
X100009388Y-90275924D01*
X100010403Y-90274383D01*
X100391249Y-89705866D01*
X100429555Y-89668893D01*
X101004398Y-89312630D01*
X101045547Y-89296280D01*
X101854488Y-89130970D01*
X101891923Y-89129012D01*
X102541706Y-89192264D01*
X102552597Y-89193806D01*
X102561023Y-89195377D01*
X102569527Y-89198258D01*
X102625636Y-89200624D01*
X102632513Y-89201103D01*
X102650789Y-89202882D01*
X102655276Y-89202679D01*
X102658992Y-89202511D01*
X102669994Y-89202494D01*
X102706085Y-89204016D01*
X102706087Y-89204016D01*
X102715055Y-89204394D01*
X102724839Y-89201975D01*
X102749376Y-89198423D01*
X102759451Y-89197967D01*
X102802137Y-89183361D01*
X102812672Y-89180263D01*
X102815795Y-89179491D01*
X102818977Y-89178705D01*
X102818982Y-89178703D01*
X102823704Y-89177536D01*
X102840070Y-89170678D01*
X102847944Y-89167686D01*
X102888766Y-89153717D01*
X102888768Y-89153716D01*
X102897263Y-89150809D01*
X102904601Y-89145634D01*
X102912594Y-89141554D01*
X102912714Y-89141789D01*
X102924262Y-89135398D01*
X103403659Y-88934512D01*
X103986925Y-88690100D01*
X104000987Y-88685165D01*
X104006004Y-88683731D01*
X104026535Y-88677864D01*
X104026540Y-88677862D01*
X104035171Y-88675395D01*
X104090352Y-88640578D01*
X104092910Y-88639006D01*
X104141244Y-88610096D01*
X104148948Y-88605488D01*
X104153142Y-88600961D01*
X104158358Y-88597670D01*
X104201604Y-88548704D01*
X104203554Y-88546548D01*
X104247940Y-88498639D01*
X104250694Y-88493120D01*
X104254778Y-88488495D01*
X104282520Y-88429407D01*
X104283827Y-88426706D01*
X104308957Y-88376336D01*
X104308957Y-88376335D01*
X104312965Y-88368302D01*
X104314059Y-88362231D01*
X104316681Y-88356646D01*
X104326722Y-88292159D01*
X104327219Y-88289200D01*
X104337204Y-88233785D01*
X104338796Y-88224953D01*
X104337845Y-88216031D01*
X104337845Y-88216024D01*
X104337171Y-88209703D01*
X104337445Y-88180633D01*
X104470455Y-87122564D01*
X104480665Y-87086361D01*
X104801560Y-86376780D01*
X104890726Y-86179610D01*
X104910529Y-86148762D01*
X104967581Y-86083278D01*
X105559115Y-85404315D01*
X105586955Y-85380476D01*
X106152328Y-85024345D01*
X106428991Y-84850073D01*
X106463454Y-84835000D01*
X107458268Y-84567726D01*
X107495945Y-84563510D01*
X107979301Y-84582645D01*
X108525230Y-84604258D01*
X108562167Y-84611337D01*
X109500626Y-84942483D01*
X109533054Y-84959581D01*
X110330156Y-85542231D01*
X110356290Y-85567940D01*
X110461547Y-85707089D01*
X110830121Y-86194338D01*
X110956652Y-86361611D01*
X110974611Y-86394659D01*
X111133123Y-86831677D01*
X111350328Y-87430514D01*
X111353260Y-87439673D01*
X111366440Y-87486998D01*
X111393840Y-87531082D01*
X111397985Y-87538270D01*
X111422432Y-87584080D01*
X111428711Y-87590495D01*
X111433439Y-87596947D01*
X111438593Y-87603086D01*
X111443330Y-87610708D01*
X111450015Y-87616693D01*
X111450020Y-87616699D01*
X111482000Y-87645330D01*
X111487999Y-87651067D01*
X111524318Y-87688172D01*
X111532144Y-87692566D01*
X111538486Y-87697426D01*
X111545161Y-87701875D01*
X111551851Y-87707865D01*
X111598707Y-87730253D01*
X111606023Y-87734049D01*
X111651324Y-87759485D01*
X111660074Y-87761508D01*
X111667543Y-87764399D01*
X111675180Y-87766791D01*
X111683277Y-87770659D01*
X111692133Y-87772099D01*
X111692135Y-87772100D01*
X111734502Y-87778990D01*
X111742648Y-87780592D01*
X111793241Y-87792285D01*
X111802200Y-87791771D01*
X111810156Y-87792448D01*
X111818188Y-87792601D01*
X111827046Y-87794041D01*
X111835950Y-87792938D01*
X111835952Y-87792938D01*
X111857534Y-87790264D01*
X111878563Y-87787659D01*
X111886812Y-87786912D01*
X111903702Y-87785942D01*
X111929699Y-87784449D01*
X111929702Y-87784448D01*
X111938660Y-87783934D01*
X111947114Y-87780926D01*
X111947118Y-87780925D01*
X111988697Y-87766130D01*
X111996391Y-87763667D01*
X112132086Y-87724982D01*
X112307927Y-87674852D01*
X112316384Y-87672755D01*
X112366648Y-87662135D01*
X112374552Y-87657892D01*
X112374559Y-87657889D01*
X112410463Y-87638613D01*
X112418686Y-87634576D01*
X112455913Y-87617952D01*
X112455915Y-87617951D01*
X112464113Y-87614290D01*
X112470951Y-87608479D01*
X112470953Y-87608477D01*
X112506306Y-87578429D01*
X112511936Y-87573916D01*
X113157056Y-87086361D01*
X113430695Y-86879556D01*
X113433022Y-86877839D01*
X113491391Y-86835811D01*
X114128891Y-86376780D01*
X114382266Y-86194338D01*
X114384626Y-86192679D01*
X115092646Y-85707089D01*
X115354786Y-85527303D01*
X115357145Y-85525724D01*
X115361913Y-85522611D01*
X115800915Y-85235943D01*
X116347622Y-84878944D01*
X116350011Y-84877422D01*
X117190897Y-84354898D01*
X117360593Y-84249449D01*
X117362980Y-84248003D01*
X118393121Y-83639266D01*
X118395458Y-83637920D01*
X119444768Y-83048752D01*
X119447193Y-83047425D01*
X120515152Y-82478227D01*
X120517587Y-82476963D01*
X120763781Y-82352553D01*
X121603913Y-81928007D01*
X121606316Y-81926825D01*
X122710490Y-81398514D01*
X122712945Y-81397372D01*
X123083216Y-81229891D01*
X123834502Y-80890070D01*
X123836896Y-80889017D01*
X124975531Y-80403021D01*
X124977938Y-80402024D01*
X125713514Y-80106379D01*
X126133068Y-79937751D01*
X126135550Y-79936783D01*
X127058960Y-79588134D01*
X139921500Y-79588134D01*
X139928255Y-79650316D01*
X139979385Y-79786705D01*
X140066739Y-79903261D01*
X140183295Y-79990615D01*
X140319684Y-80041745D01*
X140381866Y-80048500D01*
X140418500Y-80048500D01*
X140486621Y-80068502D01*
X140533114Y-80122158D01*
X140544500Y-80174500D01*
X140544500Y-98536194D01*
X140543970Y-98547428D01*
X140542292Y-98554933D01*
X140542541Y-98562852D01*
X140544438Y-98623226D01*
X140544500Y-98627183D01*
X140544500Y-98655197D01*
X140544996Y-98659122D01*
X140544996Y-98659123D01*
X140545008Y-98659218D01*
X140545941Y-98671063D01*
X140547335Y-98715419D01*
X140549547Y-98723031D01*
X140553013Y-98734962D01*
X140557023Y-98754326D01*
X140559573Y-98774513D01*
X140562489Y-98781877D01*
X140562490Y-98781882D01*
X140575907Y-98815770D01*
X140579752Y-98826999D01*
X140592131Y-98869607D01*
X140596169Y-98876434D01*
X140596170Y-98876437D01*
X140602488Y-98887120D01*
X140611188Y-98904878D01*
X140615761Y-98916429D01*
X140615765Y-98916435D01*
X140618681Y-98923802D01*
X140623339Y-98930213D01*
X140623340Y-98930215D01*
X140644764Y-98959702D01*
X140651281Y-98969624D01*
X140669826Y-99000982D01*
X140669829Y-99000986D01*
X140673866Y-99007812D01*
X140688250Y-99022196D01*
X140701091Y-99037230D01*
X140713058Y-99053701D01*
X140719166Y-99058754D01*
X140747255Y-99081991D01*
X140756035Y-99089981D01*
X149187595Y-107521542D01*
X149221621Y-107583854D01*
X149224500Y-107610637D01*
X149224500Y-111473757D01*
X149204498Y-111541878D01*
X149150842Y-111588371D01*
X149111505Y-111599084D01*
X149105406Y-111599717D01*
X149078834Y-111602474D01*
X149072298Y-111604655D01*
X149072296Y-111604655D01*
X148951359Y-111645003D01*
X148911054Y-111658450D01*
X148760652Y-111751522D01*
X148635695Y-111876697D01*
X148631855Y-111882927D01*
X148631854Y-111882928D01*
X148589790Y-111951169D01*
X148542885Y-112027262D01*
X148522661Y-112088237D01*
X148495312Y-112170692D01*
X148487203Y-112195139D01*
X148486503Y-112201975D01*
X148486502Y-112201978D01*
X148482348Y-112242527D01*
X148476500Y-112299600D01*
X148476500Y-113200400D01*
X148476837Y-113203646D01*
X148476837Y-113203650D01*
X148485901Y-113291004D01*
X148487474Y-113306166D01*
X148489655Y-113312702D01*
X148489655Y-113312704D01*
X148518554Y-113399324D01*
X148543450Y-113473946D01*
X148636522Y-113624348D01*
X148761697Y-113749305D01*
X148767927Y-113753145D01*
X148767928Y-113753146D01*
X148905090Y-113837694D01*
X148912262Y-113842115D01*
X148963492Y-113859107D01*
X149073611Y-113895632D01*
X149073613Y-113895632D01*
X149080139Y-113897797D01*
X149086975Y-113898497D01*
X149086978Y-113898498D01*
X149130031Y-113902909D01*
X149184600Y-113908500D01*
X150535400Y-113908500D01*
X150538646Y-113908163D01*
X150538650Y-113908163D01*
X150634308Y-113898238D01*
X150634312Y-113898237D01*
X150641166Y-113897526D01*
X150647702Y-113895345D01*
X150647704Y-113895345D01*
X150798860Y-113844915D01*
X150808946Y-113841550D01*
X150959348Y-113748478D01*
X150979125Y-113728667D01*
X151047162Y-113660511D01*
X151084305Y-113623303D01*
X151088146Y-113617072D01*
X151173275Y-113478968D01*
X151173276Y-113478966D01*
X151177115Y-113472738D01*
X151211967Y-113367662D01*
X151230632Y-113311389D01*
X151230632Y-113311387D01*
X151232797Y-113304861D01*
X151234634Y-113286937D01*
X151241810Y-113216896D01*
X151243500Y-113200400D01*
X151243500Y-112299600D01*
X151238290Y-112249385D01*
X151233238Y-112200692D01*
X151233237Y-112200688D01*
X151232526Y-112193834D01*
X151223550Y-112166928D01*
X151178868Y-112033002D01*
X151176550Y-112026054D01*
X151083478Y-111875652D01*
X151027492Y-111819763D01*
X150963483Y-111755866D01*
X150958303Y-111750695D01*
X150938821Y-111738686D01*
X150813968Y-111661725D01*
X150813966Y-111661724D01*
X150807738Y-111657885D01*
X150647254Y-111604655D01*
X150646389Y-111604368D01*
X150646387Y-111604368D01*
X150639861Y-111602203D01*
X150633023Y-111601502D01*
X150633021Y-111601502D01*
X150612866Y-111599437D01*
X150608658Y-111599006D01*
X150542931Y-111572165D01*
X150502148Y-111514050D01*
X150495500Y-111473662D01*
X150495500Y-107374246D01*
X150496030Y-107363007D01*
X150497709Y-107355495D01*
X150495562Y-107287183D01*
X150495500Y-107283226D01*
X150495500Y-107255231D01*
X150494992Y-107251208D01*
X150494059Y-107239366D01*
X150492914Y-107202934D01*
X150492665Y-107195009D01*
X150486987Y-107175465D01*
X150482977Y-107156102D01*
X150481420Y-107143774D01*
X150481420Y-107143772D01*
X150480427Y-107135915D01*
X150477511Y-107128551D01*
X150477510Y-107128546D01*
X150464093Y-107094658D01*
X150460248Y-107083429D01*
X150450080Y-107048433D01*
X150447869Y-107040821D01*
X150437510Y-107023305D01*
X150428813Y-107005555D01*
X150421319Y-106986626D01*
X150395238Y-106950728D01*
X150388722Y-106940808D01*
X150370173Y-106909443D01*
X150370171Y-106909440D01*
X150366135Y-106902616D01*
X150351747Y-106888228D01*
X150338906Y-106873194D01*
X150331602Y-106863141D01*
X150326942Y-106856727D01*
X150292750Y-106828441D01*
X150283971Y-106820452D01*
X148497239Y-105033720D01*
X148463213Y-104971408D01*
X148468278Y-104900593D01*
X148510825Y-104843757D01*
X148530902Y-104831473D01*
X148564051Y-104815234D01*
X148564054Y-104815232D01*
X148568686Y-104812963D01*
X148750552Y-104683240D01*
X148908788Y-104525556D01*
X149039145Y-104344144D01*
X149040468Y-104345095D01*
X149087337Y-104301924D01*
X149157272Y-104289692D01*
X149222718Y-104317211D01*
X149250567Y-104349061D01*
X149310679Y-104447155D01*
X149456942Y-104616005D01*
X149628818Y-104758699D01*
X149821692Y-104871405D01*
X150030384Y-104951097D01*
X150035452Y-104952128D01*
X150035455Y-104952129D01*
X150130215Y-104971408D01*
X150249289Y-104995634D01*
X150254464Y-104995824D01*
X150254466Y-104995824D01*
X150467365Y-105003631D01*
X150467369Y-105003631D01*
X150472529Y-105003820D01*
X150477649Y-105003164D01*
X150477651Y-105003164D01*
X150688980Y-104976092D01*
X150688981Y-104976092D01*
X150694108Y-104975435D01*
X150707531Y-104971408D01*
X150903121Y-104912728D01*
X150903126Y-104912726D01*
X150908076Y-104911241D01*
X151108686Y-104812963D01*
X151290552Y-104683240D01*
X151448788Y-104525556D01*
X151579145Y-104344144D01*
X151600012Y-104301924D01*
X151675828Y-104148520D01*
X151675829Y-104148518D01*
X151678122Y-104143878D01*
X151743062Y-103930136D01*
X151772221Y-103708657D01*
X151773848Y-103642067D01*
X151755544Y-103419428D01*
X151701123Y-103202769D01*
X151612046Y-102997907D01*
X151490706Y-102810344D01*
X151340362Y-102645118D01*
X151336311Y-102641919D01*
X151336307Y-102641915D01*
X151169106Y-102509867D01*
X151169102Y-102509865D01*
X151165051Y-102506665D01*
X151160527Y-102504168D01*
X151160523Y-102504165D01*
X151111300Y-102476993D01*
X151061328Y-102426561D01*
X151046192Y-102366684D01*
X151046192Y-78921302D01*
X151066194Y-78853181D01*
X151106863Y-78813856D01*
X151108686Y-78812963D01*
X151290552Y-78683240D01*
X151298409Y-78675411D01*
X151425033Y-78549228D01*
X151448788Y-78525556D01*
X151478413Y-78484329D01*
X151576127Y-78348344D01*
X151579145Y-78344144D01*
X151600012Y-78301924D01*
X151675828Y-78148520D01*
X151675829Y-78148518D01*
X151678122Y-78143878D01*
X151743062Y-77930136D01*
X151772221Y-77708657D01*
X151772561Y-77694759D01*
X151773766Y-77645432D01*
X151773766Y-77645428D01*
X151773848Y-77642067D01*
X151755544Y-77419428D01*
X151701123Y-77202769D01*
X151612046Y-76997907D01*
X151490706Y-76810344D01*
X151340362Y-76645118D01*
X151336311Y-76641919D01*
X151336307Y-76641915D01*
X151169106Y-76509867D01*
X151169102Y-76509865D01*
X151165051Y-76506665D01*
X151151902Y-76499406D01*
X151112828Y-76477836D01*
X150969481Y-76398705D01*
X150964612Y-76396981D01*
X150964608Y-76396979D01*
X150763779Y-76325862D01*
X150763775Y-76325861D01*
X150758904Y-76324136D01*
X150753811Y-76323229D01*
X150753808Y-76323228D01*
X150544065Y-76285867D01*
X150544059Y-76285866D01*
X150538976Y-76284961D01*
X150465144Y-76284059D01*
X150320773Y-76282295D01*
X150320771Y-76282295D01*
X150315603Y-76282232D01*
X150094783Y-76316022D01*
X149882448Y-76385424D01*
X149684299Y-76488574D01*
X149680166Y-76491677D01*
X149680163Y-76491679D01*
X149509792Y-76619597D01*
X149505657Y-76622702D01*
X149351321Y-76784205D01*
X149243893Y-76941688D01*
X149188985Y-76986688D01*
X149118460Y-76994859D01*
X149054713Y-76963605D01*
X149034016Y-76939121D01*
X148953514Y-76814684D01*
X148953512Y-76814681D01*
X148950706Y-76810344D01*
X148800362Y-76645118D01*
X148796311Y-76641919D01*
X148796307Y-76641915D01*
X148629106Y-76509867D01*
X148629102Y-76509865D01*
X148625051Y-76506665D01*
X148611902Y-76499406D01*
X148572828Y-76477836D01*
X148429481Y-76398705D01*
X148424612Y-76396981D01*
X148424608Y-76396979D01*
X148223779Y-76325862D01*
X148223775Y-76325861D01*
X148218904Y-76324136D01*
X148213811Y-76323229D01*
X148213808Y-76323228D01*
X148004065Y-76285867D01*
X148004059Y-76285866D01*
X147998976Y-76284961D01*
X147925144Y-76284059D01*
X147780773Y-76282295D01*
X147780771Y-76282295D01*
X147775603Y-76282232D01*
X147554783Y-76316022D01*
X147342448Y-76385424D01*
X147144299Y-76488574D01*
X147140166Y-76491677D01*
X147140163Y-76491679D01*
X146969792Y-76619597D01*
X146965657Y-76622702D01*
X146811321Y-76784205D01*
X146808412Y-76788470D01*
X146808406Y-76788478D01*
X146790530Y-76814684D01*
X146685435Y-76968747D01*
X146669695Y-77002657D01*
X146604940Y-77142160D01*
X146591380Y-77171372D01*
X146531681Y-77386637D01*
X146507943Y-77608762D01*
X146508240Y-77613915D01*
X146508240Y-77613918D01*
X146513703Y-77708657D01*
X146520802Y-77831782D01*
X146521939Y-77836828D01*
X146521940Y-77836834D01*
X146541811Y-77925006D01*
X146569914Y-78049706D01*
X146653958Y-78256683D01*
X146704711Y-78339505D01*
X146767983Y-78442755D01*
X146770679Y-78447155D01*
X146916942Y-78616005D01*
X147088818Y-78758699D01*
X147172764Y-78807753D01*
X147221486Y-78859391D01*
X147235192Y-78916540D01*
X147235192Y-102364800D01*
X147215190Y-102432921D01*
X147167372Y-102476563D01*
X147144299Y-102488574D01*
X147140166Y-102491677D01*
X147140163Y-102491679D01*
X147115939Y-102509867D01*
X146965657Y-102622702D01*
X146811321Y-102784205D01*
X146685435Y-102968747D01*
X146683258Y-102973437D01*
X146683254Y-102973444D01*
X146681080Y-102978129D01*
X146634258Y-103031497D01*
X146566015Y-103051080D01*
X146498019Y-103030659D01*
X146477696Y-103014177D01*
X141852405Y-98388886D01*
X141818379Y-98326574D01*
X141815500Y-98299791D01*
X141815500Y-80174500D01*
X141835502Y-80106379D01*
X141889158Y-80059886D01*
X141941500Y-80048500D01*
X141978134Y-80048500D01*
X142040316Y-80041745D01*
X142176705Y-79990615D01*
X142293261Y-79903261D01*
X142380615Y-79786705D01*
X142431745Y-79650316D01*
X142438500Y-79588134D01*
X142438500Y-79584669D01*
X143522001Y-79584669D01*
X143522371Y-79591490D01*
X143527895Y-79642352D01*
X143531521Y-79657604D01*
X143576676Y-79778054D01*
X143585214Y-79793649D01*
X143661715Y-79895724D01*
X143674276Y-79908285D01*
X143776351Y-79984786D01*
X143791946Y-79993324D01*
X143912394Y-80038478D01*
X143927649Y-80042105D01*
X143978514Y-80047631D01*
X143985328Y-80048000D01*
X144507885Y-80048000D01*
X144523124Y-80043525D01*
X144524329Y-80042135D01*
X144526000Y-80034452D01*
X144526000Y-80029884D01*
X145034000Y-80029884D01*
X145038475Y-80045123D01*
X145039865Y-80046328D01*
X145047548Y-80047999D01*
X145574669Y-80047999D01*
X145581490Y-80047629D01*
X145632352Y-80042105D01*
X145647604Y-80038479D01*
X145768054Y-79993324D01*
X145783649Y-79984786D01*
X145885724Y-79908285D01*
X145898285Y-79895724D01*
X145974786Y-79793649D01*
X145983324Y-79778054D01*
X146028478Y-79657606D01*
X146032105Y-79642351D01*
X146037631Y-79591486D01*
X146038000Y-79584672D01*
X146038000Y-79012115D01*
X146033525Y-78996876D01*
X146032135Y-78995671D01*
X146024452Y-78994000D01*
X145052115Y-78994000D01*
X145036876Y-78998475D01*
X145035671Y-78999865D01*
X145034000Y-79007548D01*
X145034000Y-80029884D01*
X144526000Y-80029884D01*
X144526000Y-79012115D01*
X144521525Y-78996876D01*
X144520135Y-78995671D01*
X144512452Y-78994000D01*
X143540116Y-78994000D01*
X143524877Y-78998475D01*
X143523672Y-78999865D01*
X143522001Y-79007548D01*
X143522001Y-79584669D01*
X142438500Y-79584669D01*
X142438500Y-78467885D01*
X143522000Y-78467885D01*
X143526475Y-78483124D01*
X143527865Y-78484329D01*
X143535548Y-78486000D01*
X144507885Y-78486000D01*
X144523124Y-78481525D01*
X144524329Y-78480135D01*
X144526000Y-78472452D01*
X144526000Y-78467885D01*
X145034000Y-78467885D01*
X145038475Y-78483124D01*
X145039865Y-78484329D01*
X145047548Y-78486000D01*
X146019884Y-78486000D01*
X146035123Y-78481525D01*
X146036328Y-78480135D01*
X146037999Y-78472452D01*
X146037999Y-77895331D01*
X146037629Y-77888510D01*
X146032105Y-77837648D01*
X146028479Y-77822396D01*
X145983324Y-77701946D01*
X145974786Y-77686351D01*
X145898285Y-77584276D01*
X145885724Y-77571715D01*
X145783649Y-77495214D01*
X145768054Y-77486676D01*
X145647606Y-77441522D01*
X145632351Y-77437895D01*
X145581486Y-77432369D01*
X145574672Y-77432000D01*
X145052115Y-77432000D01*
X145036876Y-77436475D01*
X145035671Y-77437865D01*
X145034000Y-77445548D01*
X145034000Y-78467885D01*
X144526000Y-78467885D01*
X144526000Y-77450116D01*
X144521525Y-77434877D01*
X144520135Y-77433672D01*
X144512452Y-77432001D01*
X143985331Y-77432001D01*
X143978510Y-77432371D01*
X143927648Y-77437895D01*
X143912396Y-77441521D01*
X143791946Y-77486676D01*
X143776351Y-77495214D01*
X143674276Y-77571715D01*
X143661715Y-77584276D01*
X143585214Y-77686351D01*
X143576676Y-77701946D01*
X143531522Y-77822394D01*
X143527895Y-77837649D01*
X143522369Y-77888514D01*
X143522000Y-77895328D01*
X143522000Y-78467885D01*
X142438500Y-78467885D01*
X142438500Y-77891866D01*
X142431745Y-77829684D01*
X142380615Y-77693295D01*
X142293261Y-77576739D01*
X142176705Y-77489385D01*
X142040316Y-77438255D01*
X141978134Y-77431500D01*
X140381866Y-77431500D01*
X140319684Y-77438255D01*
X140183295Y-77489385D01*
X140066739Y-77576739D01*
X139979385Y-77693295D01*
X139928255Y-77829684D01*
X139921500Y-77891866D01*
X139921500Y-79588134D01*
X127058960Y-79588134D01*
X127306934Y-79494507D01*
X127309425Y-79493597D01*
X128496319Y-79073787D01*
X128498818Y-79072932D01*
X129701137Y-78675812D01*
X129703555Y-78675041D01*
X130920658Y-78301036D01*
X130923169Y-78300293D01*
X132154694Y-77949727D01*
X132157216Y-77949038D01*
X133086202Y-77705307D01*
X133402678Y-77622276D01*
X133405172Y-77621648D01*
X134664257Y-77319009D01*
X134666769Y-77318434D01*
X135938895Y-77040302D01*
X135941337Y-77039794D01*
X136831971Y-76864211D01*
X137226221Y-76786488D01*
X137228768Y-76786013D01*
X138525851Y-76557902D01*
X138528404Y-76557480D01*
X139837324Y-76354905D01*
X139839850Y-76354540D01*
X141160159Y-76177848D01*
X141162703Y-76177534D01*
X142288387Y-76050308D01*
X142493942Y-76027076D01*
X142496509Y-76026813D01*
X143838256Y-75902935D01*
X143840826Y-75902724D01*
X145192681Y-75805768D01*
X145195255Y-75805610D01*
X145750153Y-75777210D01*
X146556779Y-75735927D01*
X146559276Y-75735825D01*
X147930228Y-75693754D01*
X147932711Y-75693704D01*
X149291497Y-75679818D01*
X149302112Y-75680158D01*
G37*
%TD.AperFunction*%
%TD*%
M02*
