%TF.GenerationSoftware,KiCad,Pcbnew,(6.0.4-0)*%
%TF.CreationDate,2022-04-25T17:13:00-04:00*%
%TF.ProjectId,sky_base,736b795f-6261-4736-952e-6b696361645f,rev?*%
%TF.SameCoordinates,Original*%
%TF.FileFunction,Profile,NP*%
%FSLAX46Y46*%
G04 Gerber Fmt 4.6, Leading zero omitted, Abs format (unit mm)*
G04 Created by KiCad (PCBNEW (6.0.4-0)) date 2022-04-25 17:13:00*
%MOMM*%
%LPD*%
G01*
G04 APERTURE LIST*
%TA.AperFunction,Profile*%
%ADD10C,0.000010*%
%TD*%
G04 APERTURE END LIST*
%TO.C,svg2mod*%
D10*
X150651107Y-75184252D02*
X151980448Y-75223628D01*
X153301220Y-75288859D01*
X154613049Y-75379620D01*
X155915563Y-75495588D01*
X157208390Y-75636439D01*
X158491156Y-75801850D01*
X159763490Y-75991495D01*
X161025018Y-76205051D01*
X162275369Y-76442195D01*
X163514169Y-76702603D01*
X164741046Y-76985950D01*
X165955627Y-77291912D01*
X167157540Y-77620167D01*
X168346412Y-77970389D01*
X169521871Y-78342255D01*
X170683543Y-78735441D01*
X171831057Y-79149624D01*
X172635147Y-79014107D01*
X173504340Y-78966688D01*
X174949828Y-79101208D01*
X176164579Y-79471567D01*
X177049924Y-80027960D01*
X177507195Y-80720587D01*
X178219297Y-80644104D01*
X179324263Y-80840175D01*
X179939089Y-81331918D01*
X180878050Y-81199626D01*
X181979194Y-81380926D01*
X182629880Y-81855917D01*
X183617409Y-82093015D01*
X184021528Y-82609876D01*
X183468588Y-83200022D01*
X183624653Y-83200022D01*
X184924959Y-83284034D01*
X185852419Y-83487879D01*
X186206923Y-83771045D01*
X186206923Y-83771574D01*
X185852207Y-84056930D01*
X184922766Y-84260054D01*
X183616900Y-84337431D01*
X182904866Y-84319720D01*
X182197350Y-84237696D01*
X183282373Y-84938849D01*
X184343835Y-85668255D01*
X185381192Y-86425089D01*
X186393902Y-87208524D01*
X187381421Y-88017735D01*
X188343205Y-88851897D01*
X189278712Y-89710183D01*
X190187399Y-90591769D01*
X191068721Y-91495829D01*
X191922136Y-92421537D01*
X192747100Y-93368068D01*
X193543070Y-94334595D01*
X194309503Y-95320294D01*
X195045856Y-96324339D01*
X195751585Y-97345905D01*
X196426147Y-98384165D01*
X197068999Y-99438294D01*
X197679597Y-100507466D01*
X198257398Y-101590857D01*
X198801859Y-102687640D01*
X199312436Y-103796989D01*
X199788587Y-104918080D01*
X200229768Y-106050086D01*
X200635435Y-107192183D01*
X201005046Y-108343544D01*
X201338057Y-109503343D01*
X201633925Y-110670756D01*
X201892106Y-111844957D01*
X202112058Y-113025120D01*
X202293237Y-114210419D01*
X202435100Y-115400030D01*
X202537103Y-116593125D01*
X202598703Y-117788880D01*
X202619357Y-118986470D01*
X96032066Y-118948754D01*
X96008306Y-117684231D01*
X96031345Y-116422393D01*
X96100034Y-115169690D01*
X96213735Y-113926629D01*
X96371810Y-112693719D01*
X96573618Y-111471467D01*
X96818521Y-110260380D01*
X97105880Y-109060967D01*
X97435055Y-107873735D01*
X97805409Y-106699192D01*
X98216302Y-105537845D01*
X98667094Y-104390203D01*
X99157147Y-103256773D01*
X99685823Y-102138063D01*
X100252481Y-101034581D01*
X100856483Y-99946834D01*
X101497190Y-98875331D01*
X102173962Y-97820578D01*
X102886162Y-96783084D01*
X103633150Y-95763357D01*
X104414286Y-94761904D01*
X105228932Y-93779233D01*
X104994837Y-93476925D01*
X104058759Y-93690638D01*
X103182028Y-93299157D01*
X102616131Y-93634391D01*
X101750593Y-93789049D01*
X100878221Y-93699562D01*
X100287632Y-93407678D01*
X99599819Y-93572008D01*
X98750257Y-93394759D01*
X97509507Y-93659342D01*
X96446862Y-93555246D01*
X95684666Y-93207747D01*
X95392841Y-92690925D01*
X95668105Y-92153119D01*
X96399041Y-91750530D01*
X97443361Y-91569030D01*
X97768923Y-91569030D01*
X98063410Y-90779256D01*
X98668910Y-90223469D01*
X99480963Y-89997551D01*
X99583798Y-89997551D01*
X100045109Y-89308917D01*
X100832784Y-88820750D01*
X101846192Y-88613656D01*
X102663715Y-88693237D01*
X103825400Y-88206446D01*
X103825400Y-88176990D01*
X103977873Y-86964106D01*
X104465844Y-85885074D01*
X105236997Y-84999944D01*
X106239014Y-84368766D01*
X107419579Y-84051588D01*
X108641053Y-84099945D01*
X109757809Y-84494004D01*
X110705550Y-85186766D01*
X111419979Y-86131232D01*
X111836798Y-87280405D01*
X112190265Y-87179635D01*
X113129964Y-86469450D01*
X114091037Y-85777431D01*
X115073051Y-85103924D01*
X116075575Y-84449277D01*
X117098174Y-83813837D01*
X118140415Y-83197950D01*
X119201866Y-82601964D01*
X120282093Y-82026227D01*
X121380663Y-81471084D01*
X122497144Y-80936884D01*
X123631102Y-80423973D01*
X124782104Y-79932699D01*
X125949717Y-79463408D01*
X127133509Y-79016448D01*
X128333045Y-78592166D01*
X129547893Y-78190908D01*
X130777621Y-77813023D01*
X132021794Y-77458857D01*
X133279980Y-77128757D01*
X134551745Y-76823070D01*
X135836658Y-76542143D01*
X137134284Y-76286325D01*
X138444190Y-76055960D01*
X139765945Y-75851398D01*
X141099113Y-75672984D01*
X142443263Y-75521067D01*
X143797962Y-75395992D01*
X145162776Y-75298107D01*
X146537272Y-75227760D01*
X147921017Y-75185297D01*
X149313579Y-75171066D01*
X149313568Y-75171055D01*
X150651107Y-75184252D01*
%TD*%
M02*
