%TF.GenerationSoftware,KiCad,Pcbnew,(6.0.4-0)*%
%TF.CreationDate,2022-05-11T16:30:09-04:00*%
%TF.ProjectId,sky_base,736b795f-6261-4736-952e-6b696361645f,v02*%
%TF.SameCoordinates,Original*%
%TF.FileFunction,Copper,L1,Top*%
%TF.FilePolarity,Positive*%
%FSLAX46Y46*%
G04 Gerber Fmt 4.6, Leading zero omitted, Abs format (unit mm)*
G04 Created by KiCad (PCBNEW (6.0.4-0)) date 2022-05-11 16:30:09*
%MOMM*%
%LPD*%
G01*
G04 APERTURE LIST*
%TA.AperFunction,ComponentPad*%
%ADD10R,1.700000X1.700000*%
%TD*%
%TA.AperFunction,ComponentPad*%
%ADD11O,1.700000X1.700000*%
%TD*%
%TA.AperFunction,ComponentPad*%
%ADD12C,1.700000*%
%TD*%
%TA.AperFunction,ViaPad*%
%ADD13C,0.800000*%
%TD*%
%TA.AperFunction,Conductor*%
%ADD14C,0.254000*%
%TD*%
G04 APERTURE END LIST*
D10*
%TO.P,J2,1,Pin_1*%
%TO.N,VCC*%
X109140692Y-115642067D03*
D11*
%TO.P,J2,2,Pin_2*%
%TO.N,GND*%
X111680692Y-115642067D03*
%TO.P,J2,3,Pin_3*%
%TO.N,Net-(J2-Pad3)*%
X147870692Y-77642067D03*
D12*
%TO.P,J2,4,Pin_4*%
%TO.N,Net-(J1-Pad4)*%
X150410692Y-77642067D03*
D11*
%TO.P,J2,5,Pin_5*%
%TO.N,Net-(J1-Pad5)*%
X186600692Y-115642067D03*
%TO.P,J2,6,Pin_6*%
%TO.N,Net-(J1-Pad6)*%
X189140692Y-115642067D03*
%TD*%
D10*
%TO.P,J4,1,Pin_1*%
%TO.N,VCC*%
X124008147Y-115628821D03*
D11*
%TO.P,J4,2,Pin_2*%
%TO.N,GND*%
X126548147Y-115628821D03*
%TO.P,J4,3,Pin_3*%
%TO.N,Net-(J2-Pad3)*%
X147738147Y-103628821D03*
D12*
%TO.P,J4,4,Pin_4*%
%TO.N,Net-(J1-Pad4)*%
X150278147Y-103628821D03*
D11*
%TO.P,J4,5,Pin_5*%
%TO.N,Net-(J1-Pad5)*%
X171468147Y-115628821D03*
%TO.P,J4,6,Pin_6*%
%TO.N,Net-(J1-Pad6)*%
X174008147Y-115628821D03*
%TD*%
D10*
%TO.P,J3,1,Pin_1*%
%TO.N,VCC*%
X95701555Y-110962504D03*
D11*
%TO.P,J3,2,Pin_2*%
%TO.N,GND*%
X95701555Y-113502504D03*
%TO.P,J3,3,Pin_3*%
%TO.N,Net-(J2-Pad3)*%
X98241555Y-110962504D03*
%TO.P,J3,4,Pin_4*%
%TO.N,Net-(J1-Pad4)*%
X98241555Y-113502504D03*
%TO.P,J3,5,Pin_5*%
%TO.N,Net-(J1-Pad5)*%
X100781555Y-110962504D03*
%TO.P,J3,6,Pin_6*%
%TO.N,Net-(J1-Pad6)*%
X100781555Y-113502504D03*
%TD*%
D10*
%TO.P,J1,1,Pin_1*%
%TO.N,VCC*%
X195939062Y-106023449D03*
D11*
%TO.P,J1,2,Pin_2*%
%TO.N,GND*%
X195939062Y-108563449D03*
%TO.P,J1,3,Pin_3*%
%TO.N,Net-(J2-Pad3)*%
X198479062Y-106023449D03*
%TO.P,J1,4,Pin_4*%
%TO.N,Net-(J1-Pad4)*%
X198479062Y-108563449D03*
%TO.P,J1,5,Pin_5*%
%TO.N,Net-(J1-Pad5)*%
X201019062Y-106023449D03*
%TO.P,J1,6,Pin_6*%
%TO.N,Net-(J1-Pad6)*%
X201019062Y-108563449D03*
%TD*%
D13*
%TO.N,VCC*%
X182880000Y-111760000D03*
X164836168Y-115832515D03*
%TO.N,Net-(J1-Pad4)*%
X170180000Y-109220000D03*
%TO.N,Net-(J2-Pad3)*%
X170180000Y-106680000D03*
%TD*%
D14*
%TO.N,VCC*%
X164836168Y-115832515D02*
X168908683Y-111760000D01*
X168908683Y-111760000D02*
X182880000Y-111760000D01*
%TO.N,Net-(J1-Pad4)*%
X150696294Y-109220000D02*
X150278147Y-108801853D01*
X150278147Y-108801853D02*
X150278147Y-103628821D01*
X99418066Y-114679015D02*
X106300985Y-114679015D01*
X146487465Y-112592535D02*
X150278147Y-108801853D01*
X98241555Y-113502504D02*
X99418066Y-114679015D01*
X108387465Y-112592535D02*
X146487465Y-112592535D01*
X170180000Y-109220000D02*
X150696294Y-109220000D01*
X106300985Y-114679015D02*
X108387465Y-112592535D01*
%TO.N,Net-(J1-Pad5)*%
X171468147Y-106940704D02*
X171468147Y-111306480D01*
X137234505Y-111685495D02*
X139700000Y-109220000D01*
X101504546Y-111685495D02*
X137234505Y-111685495D01*
X171468147Y-111306480D02*
X168334760Y-111306480D01*
X164109657Y-116133447D02*
X164816210Y-116840000D01*
X144780000Y-109220000D02*
X144780000Y-104923129D01*
X168334760Y-111306480D02*
X164109657Y-115531583D01*
X170256968Y-116840000D02*
X171468147Y-115628821D01*
X100781555Y-110962504D02*
X101504546Y-111685495D01*
X166526233Y-101998790D02*
X171468147Y-106940704D01*
X147704339Y-101998790D02*
X166526233Y-101998790D01*
X139700000Y-109220000D02*
X144780000Y-109220000D01*
X164816210Y-116840000D02*
X170256968Y-116840000D01*
X164109657Y-115531583D02*
X164109657Y-116133447D01*
X144780000Y-104923129D02*
X147704339Y-101998790D01*
%TO.N,Net-(J2-Pad3)*%
X147738147Y-108801853D02*
X147738147Y-103628821D01*
X165952310Y-102452310D02*
X148914658Y-102452310D01*
X99418066Y-112139015D02*
X144400985Y-112139015D01*
X148914658Y-102452310D02*
X147738147Y-103628821D01*
X144400985Y-112139015D02*
X147738147Y-108801853D01*
X98241555Y-110962504D02*
X99418066Y-112139015D01*
X170180000Y-106680000D02*
X165952310Y-102452310D01*
%TD*%
%TA.AperFunction,Conductor*%
%TO.N,GND*%
G36*
X149478299Y-72614197D02*
G01*
X149526808Y-72616302D01*
X149526809Y-72616302D01*
X149535774Y-72616691D01*
X149542735Y-72614979D01*
X149551545Y-72614583D01*
X150389315Y-72622022D01*
X150823558Y-72625878D01*
X150825758Y-72625918D01*
X152155727Y-72661373D01*
X152157874Y-72661448D01*
X153236241Y-72709378D01*
X153480289Y-72720225D01*
X153482523Y-72720344D01*
X153794530Y-72739768D01*
X154796812Y-72802164D01*
X154798982Y-72802319D01*
X155253511Y-72838725D01*
X156105042Y-72906931D01*
X156107270Y-72907130D01*
X157404584Y-73034251D01*
X157406807Y-73034488D01*
X158364386Y-73145509D01*
X158695356Y-73183881D01*
X158697561Y-73184157D01*
X158887631Y-73209620D01*
X159976768Y-73355527D01*
X159978982Y-73355843D01*
X160196605Y-73388939D01*
X161248827Y-73548961D01*
X161250926Y-73549299D01*
X162511022Y-73763895D01*
X162513136Y-73764275D01*
X163763050Y-74000058D01*
X163765135Y-74000471D01*
X165004638Y-74257193D01*
X165006734Y-74257647D01*
X165789580Y-74434371D01*
X166235598Y-74535058D01*
X166237783Y-74535572D01*
X167455401Y-74833338D01*
X167457579Y-74833891D01*
X167839483Y-74934537D01*
X168663966Y-75151820D01*
X168666060Y-75152391D01*
X169076402Y-75268411D01*
X169860865Y-75490210D01*
X169863030Y-75490843D01*
X171045831Y-75848248D01*
X171047988Y-75848921D01*
X172218599Y-76225686D01*
X172220747Y-76226399D01*
X173371078Y-76619597D01*
X173378775Y-76622228D01*
X173380902Y-76622977D01*
X174468754Y-77016859D01*
X174483843Y-77024183D01*
X174490255Y-77027002D01*
X174497880Y-77031745D01*
X174506529Y-77034157D01*
X174506531Y-77034158D01*
X174545482Y-77045021D01*
X174554530Y-77047916D01*
X174561636Y-77050489D01*
X174561643Y-77050491D01*
X174565858Y-77052017D01*
X174570257Y-77052932D01*
X174570256Y-77052932D01*
X174580293Y-77055021D01*
X174588462Y-77057007D01*
X174638184Y-77070874D01*
X174647162Y-77070762D01*
X174655334Y-77071828D01*
X174663561Y-77072346D01*
X174672350Y-77074175D01*
X174681297Y-77073464D01*
X174681304Y-77073464D01*
X174723805Y-77070084D01*
X174732215Y-77069697D01*
X174739655Y-77069604D01*
X174745223Y-77069535D01*
X174745225Y-77069535D01*
X174750093Y-77069474D01*
X174761267Y-77067590D01*
X174772218Y-77066234D01*
X174817549Y-77062630D01*
X174825933Y-77059437D01*
X174825935Y-77059437D01*
X174827242Y-77058939D01*
X174851139Y-77052443D01*
X175654520Y-76917034D01*
X175668588Y-76915471D01*
X176565590Y-76866544D01*
X176581787Y-76866704D01*
X177803420Y-76957575D01*
X177822989Y-76960592D01*
X178134942Y-77034158D01*
X178878156Y-77209427D01*
X178900184Y-77216823D01*
X179727029Y-77582385D01*
X179753863Y-77598500D01*
X180262162Y-77997356D01*
X180284782Y-78015106D01*
X180315855Y-78050777D01*
X180333672Y-78081343D01*
X180599688Y-78537699D01*
X180607588Y-78553782D01*
X180614692Y-78571292D01*
X180614694Y-78571296D01*
X180618069Y-78579614D01*
X180623642Y-78586650D01*
X180623644Y-78586653D01*
X180640977Y-78608534D01*
X180640987Y-78608548D01*
X180640998Y-78608567D01*
X180641037Y-78608616D01*
X180641039Y-78608619D01*
X180646891Y-78616005D01*
X180666690Y-78640995D01*
X180708510Y-78693792D01*
X180708528Y-78693805D01*
X180708544Y-78693825D01*
X180772084Y-78738832D01*
X180772093Y-78738843D01*
X180772095Y-78738840D01*
X180827362Y-78777996D01*
X180827383Y-78778003D01*
X180827404Y-78778018D01*
X180836011Y-78780984D01*
X180836012Y-78780984D01*
X180899457Y-78802844D01*
X180899469Y-78802848D01*
X180956461Y-78822491D01*
X180956462Y-78822491D01*
X180965070Y-78825458D01*
X180965093Y-78825459D01*
X180965116Y-78825467D01*
X181037773Y-78828909D01*
X181037782Y-78828910D01*
X181076797Y-78830761D01*
X181076799Y-78830761D01*
X181076862Y-78830764D01*
X181076886Y-78830761D01*
X181110611Y-78832359D01*
X181141523Y-78824887D01*
X181157657Y-78822082D01*
X181824044Y-78750476D01*
X181859516Y-78751693D01*
X182849002Y-78927271D01*
X182905684Y-78952932D01*
X183116789Y-79121775D01*
X183419817Y-79364139D01*
X183437256Y-79381093D01*
X183438894Y-79383026D01*
X183444697Y-79389876D01*
X183452184Y-79394819D01*
X183452186Y-79394820D01*
X183481692Y-79414297D01*
X183490980Y-79421056D01*
X183496545Y-79425507D01*
X183513579Y-79435542D01*
X183519009Y-79438931D01*
X183566257Y-79470121D01*
X183574838Y-79472766D01*
X183578649Y-79474566D01*
X183582528Y-79476161D01*
X183590264Y-79480718D01*
X183645163Y-79494612D01*
X183651332Y-79496343D01*
X183705453Y-79513024D01*
X183714426Y-79513154D01*
X183718573Y-79513810D01*
X183722771Y-79514255D01*
X183731469Y-79516456D01*
X183740436Y-79516128D01*
X183740438Y-79516128D01*
X183788035Y-79514386D01*
X183794465Y-79514315D01*
X183812495Y-79514576D01*
X183812500Y-79514576D01*
X183817359Y-79514646D01*
X183822167Y-79513968D01*
X183822175Y-79513968D01*
X183823690Y-79513754D01*
X183836664Y-79512605D01*
X183877029Y-79511127D01*
X183891669Y-79506258D01*
X183913854Y-79501050D01*
X184812256Y-79374471D01*
X184850305Y-79374913D01*
X185838919Y-79537687D01*
X185892735Y-79560242D01*
X186091096Y-79705042D01*
X186487503Y-79994413D01*
X186491908Y-79997779D01*
X186538590Y-80035112D01*
X186546889Y-80038524D01*
X186546892Y-80038526D01*
X186577097Y-80050946D01*
X186588293Y-80056206D01*
X186617136Y-80071529D01*
X186617144Y-80071532D01*
X186625069Y-80075742D01*
X186687763Y-80088700D01*
X186691635Y-80089565D01*
X187538124Y-80292800D01*
X187599692Y-80328152D01*
X187632374Y-80391179D01*
X187625793Y-80461870D01*
X187600655Y-80501467D01*
X187391041Y-80725189D01*
X187381341Y-80734494D01*
X187358353Y-80754301D01*
X187358351Y-80754303D01*
X187351555Y-80760159D01*
X187346673Y-80767691D01*
X187346672Y-80767692D01*
X187318068Y-80811822D01*
X187315595Y-80815494D01*
X187280277Y-80865960D01*
X187277512Y-80874138D01*
X187277024Y-80875145D01*
X187272330Y-80882387D01*
X187269756Y-80890994D01*
X187254689Y-80941375D01*
X187253341Y-80945608D01*
X187233614Y-81003941D01*
X187233255Y-81012557D01*
X187233068Y-81013671D01*
X187230596Y-81021938D01*
X187230541Y-81030908D01*
X187230541Y-81030909D01*
X187230220Y-81083506D01*
X187230114Y-81087960D01*
X187227551Y-81149472D01*
X187229624Y-81157839D01*
X187229759Y-81158971D01*
X187229706Y-81167593D01*
X187232174Y-81176228D01*
X187246615Y-81226758D01*
X187247768Y-81231082D01*
X187260418Y-81282142D01*
X187260421Y-81282149D01*
X187262578Y-81290856D01*
X187266921Y-81298313D01*
X187267364Y-81299353D01*
X187269733Y-81307643D01*
X187292422Y-81343603D01*
X187302563Y-81359675D01*
X187304885Y-81363503D01*
X187327666Y-81402621D01*
X187335879Y-81416725D01*
X187342137Y-81422660D01*
X187342857Y-81423537D01*
X187347458Y-81430830D01*
X187354181Y-81436768D01*
X187354184Y-81436771D01*
X187393603Y-81471584D01*
X187396878Y-81474581D01*
X187441561Y-81516962D01*
X187449235Y-81520903D01*
X187450168Y-81521540D01*
X187456633Y-81527250D01*
X187501004Y-81548082D01*
X187512344Y-81553406D01*
X187516360Y-81555380D01*
X187563141Y-81579407D01*
X187563145Y-81579408D01*
X187571129Y-81583509D01*
X187579595Y-81585138D01*
X187580679Y-81585490D01*
X187588482Y-81589153D01*
X187597345Y-81590533D01*
X187597348Y-81590534D01*
X187649329Y-81598628D01*
X187653735Y-81599395D01*
X187696217Y-81607564D01*
X187715752Y-81617625D01*
X187725522Y-81611684D01*
X187746113Y-81607987D01*
X187746558Y-81607945D01*
X187757224Y-81606934D01*
X187769112Y-81606372D01*
X187893002Y-81606372D01*
X187901122Y-81606634D01*
X187913688Y-81607446D01*
X187937341Y-81608974D01*
X188004030Y-81633327D01*
X188046966Y-81689869D01*
X188052518Y-81760648D01*
X188018922Y-81823193D01*
X187956845Y-81857645D01*
X187936681Y-81860490D01*
X187901337Y-81862584D01*
X187890766Y-81862765D01*
X187789803Y-81860255D01*
X187754872Y-81859386D01*
X187712067Y-81845653D01*
X187684454Y-81856721D01*
X187669298Y-81857258D01*
X187225391Y-81846218D01*
X187148701Y-81844311D01*
X187137322Y-81843512D01*
X186384262Y-81756199D01*
X186380509Y-81755706D01*
X186325434Y-81747637D01*
X186316554Y-81746336D01*
X186279710Y-81751491D01*
X186265641Y-81752660D01*
X186251864Y-81753029D01*
X186237429Y-81753416D01*
X186237427Y-81753416D01*
X186228454Y-81753657D01*
X186219908Y-81756407D01*
X186219906Y-81756407D01*
X186211289Y-81759180D01*
X186190166Y-81764019D01*
X186172302Y-81766518D01*
X186164120Y-81770206D01*
X186164114Y-81770208D01*
X186138390Y-81781804D01*
X186125209Y-81786878D01*
X186089798Y-81798272D01*
X186082367Y-81803310D01*
X186074876Y-81808388D01*
X186055951Y-81818965D01*
X186047698Y-81822685D01*
X186047693Y-81822688D01*
X186039512Y-81826376D01*
X186016994Y-81845653D01*
X186011258Y-81850563D01*
X186000025Y-81859137D01*
X185969237Y-81880010D01*
X185957750Y-81893913D01*
X185942560Y-81909370D01*
X185935681Y-81915258D01*
X185935678Y-81915262D01*
X185928860Y-81921098D01*
X185908519Y-81952260D01*
X185900161Y-81963617D01*
X185876462Y-81992300D01*
X185869340Y-82008866D01*
X185859100Y-82027964D01*
X185849240Y-82043069D01*
X185846640Y-82051662D01*
X185846639Y-82051664D01*
X185838469Y-82078666D01*
X185833625Y-82091940D01*
X185824170Y-82113934D01*
X185818933Y-82126115D01*
X185817845Y-82135025D01*
X185816747Y-82144014D01*
X185812275Y-82165233D01*
X185807055Y-82182484D01*
X185806971Y-82191463D01*
X185806707Y-82219667D01*
X185805784Y-82233763D01*
X185801273Y-82270699D01*
X185802729Y-82279554D01*
X185802729Y-82279561D01*
X185804197Y-82288490D01*
X185805861Y-82310102D01*
X185805693Y-82328136D01*
X185808131Y-82336773D01*
X185808132Y-82336779D01*
X185815799Y-82363939D01*
X185818868Y-82377725D01*
X185823446Y-82405565D01*
X185823448Y-82405571D01*
X185824904Y-82414427D01*
X185832233Y-82429698D01*
X185832703Y-82430678D01*
X185840365Y-82450954D01*
X185845266Y-82468314D01*
X185857401Y-82487685D01*
X185865017Y-82499843D01*
X185871832Y-82512215D01*
X185887924Y-82545746D01*
X185893923Y-82552423D01*
X185893924Y-82552425D01*
X185899972Y-82559157D01*
X185913017Y-82576469D01*
X185917822Y-82584140D01*
X185917828Y-82584147D01*
X185922592Y-82591752D01*
X185929301Y-82597716D01*
X185950397Y-82616469D01*
X185960413Y-82626433D01*
X185985267Y-82654098D01*
X186019552Y-82675326D01*
X186044273Y-82690632D01*
X186046172Y-82691831D01*
X186543435Y-83012115D01*
X187121351Y-83384349D01*
X187123974Y-83386085D01*
X188069685Y-84029752D01*
X188178154Y-84103578D01*
X188180763Y-84105403D01*
X189165667Y-84812831D01*
X189213718Y-84847345D01*
X189216263Y-84849222D01*
X190227576Y-85614977D01*
X190230023Y-85616877D01*
X190649323Y-85951266D01*
X191219229Y-86405762D01*
X191221673Y-86407762D01*
X192188314Y-87219098D01*
X192190702Y-87221153D01*
X192942635Y-87885024D01*
X193134384Y-88054317D01*
X193136706Y-88056420D01*
X193745295Y-88621394D01*
X194056972Y-88910734D01*
X194059247Y-88912899D01*
X194529561Y-89371875D01*
X194955645Y-89787688D01*
X194957858Y-89789902D01*
X195809931Y-90663959D01*
X195830032Y-90684579D01*
X195832188Y-90686847D01*
X196103766Y-90979702D01*
X196679577Y-91600624D01*
X196681680Y-91602950D01*
X197421140Y-92441376D01*
X197503947Y-92535266D01*
X197506001Y-92537654D01*
X198302736Y-93487881D01*
X198304733Y-93490324D01*
X199075381Y-94457649D01*
X199077322Y-94460149D01*
X199821523Y-95443999D01*
X199823406Y-95446555D01*
X200540733Y-96446270D01*
X200542559Y-96448884D01*
X201232570Y-97463789D01*
X201234294Y-97466395D01*
X201896600Y-98495891D01*
X201898263Y-98498550D01*
X202532357Y-99541854D01*
X202533987Y-99544615D01*
X203124932Y-100575735D01*
X203139455Y-100601076D01*
X203141035Y-100603917D01*
X203613756Y-101480573D01*
X203717505Y-101672975D01*
X203719024Y-101675883D01*
X204040373Y-102310890D01*
X204265969Y-102756684D01*
X204267412Y-102759632D01*
X204463407Y-103173564D01*
X204784485Y-103851666D01*
X204785873Y-103854699D01*
X205272624Y-104957246D01*
X205273942Y-104960342D01*
X205509453Y-105534855D01*
X205590107Y-105731605D01*
X205729986Y-106072832D01*
X205731228Y-106075984D01*
X206154846Y-107194345D01*
X206156057Y-107197543D01*
X206157220Y-107200745D01*
X206277398Y-107546109D01*
X206550495Y-108330930D01*
X206551588Y-108334216D01*
X206742852Y-108936726D01*
X206903484Y-109442741D01*
X206912832Y-109472190D01*
X206913841Y-109475526D01*
X207242685Y-110620804D01*
X207243593Y-110624144D01*
X207478573Y-111538532D01*
X207539582Y-111775939D01*
X207540423Y-111779415D01*
X207803150Y-112937109D01*
X207803899Y-112940645D01*
X208032937Y-114103536D01*
X208033591Y-114107133D01*
X208105958Y-114540524D01*
X208224671Y-115251476D01*
X208228526Y-115274565D01*
X208229080Y-115278204D01*
X208389520Y-116449693D01*
X208389965Y-116453341D01*
X208498632Y-117470453D01*
X208515471Y-117628066D01*
X208515816Y-117631830D01*
X208605973Y-118809103D01*
X208606207Y-118812918D01*
X208657569Y-119926332D01*
X208660607Y-119992197D01*
X208660726Y-119996058D01*
X208669153Y-120542019D01*
X208650205Y-120610441D01*
X208597273Y-120657756D01*
X208543124Y-120669964D01*
X118938744Y-120638289D01*
X90423645Y-120628209D01*
X90355532Y-120608183D01*
X90309058Y-120554511D01*
X90297759Y-120506364D01*
X90295002Y-120422810D01*
X90294934Y-120419243D01*
X90291690Y-119724572D01*
X90291707Y-119721884D01*
X90312936Y-118448511D01*
X90313076Y-118444311D01*
X90376215Y-117183150D01*
X90376494Y-117178965D01*
X90429831Y-116540201D01*
X107782192Y-116540201D01*
X107788947Y-116602383D01*
X107840077Y-116738772D01*
X107927431Y-116855328D01*
X108043987Y-116942682D01*
X108180376Y-116993812D01*
X108242558Y-117000567D01*
X110038826Y-117000567D01*
X110101008Y-116993812D01*
X110237397Y-116942682D01*
X110353953Y-116855328D01*
X110441307Y-116738772D01*
X110485490Y-116620915D01*
X110528132Y-116564151D01*
X110594693Y-116539451D01*
X110664042Y-116554659D01*
X110698709Y-116582647D01*
X110723910Y-116611740D01*
X110731272Y-116618950D01*
X110895126Y-116754983D01*
X110903573Y-116760898D01*
X111087448Y-116868346D01*
X111096734Y-116872796D01*
X111295693Y-116948770D01*
X111305591Y-116951646D01*
X111408942Y-116972673D01*
X111422991Y-116971477D01*
X111426692Y-116961132D01*
X111426692Y-116960584D01*
X111934692Y-116960584D01*
X111938756Y-116974426D01*
X111952170Y-116976460D01*
X111958876Y-116975601D01*
X111968954Y-116973459D01*
X112172947Y-116912258D01*
X112182534Y-116908500D01*
X112373787Y-116814806D01*
X112382637Y-116809531D01*
X112556020Y-116685859D01*
X112563892Y-116679206D01*
X112714744Y-116528879D01*
X112716381Y-116526955D01*
X122649647Y-116526955D01*
X122656402Y-116589137D01*
X122707532Y-116725526D01*
X122794886Y-116842082D01*
X122911442Y-116929436D01*
X123047831Y-116980566D01*
X123110013Y-116987321D01*
X124906281Y-116987321D01*
X124968463Y-116980566D01*
X125104852Y-116929436D01*
X125221408Y-116842082D01*
X125308762Y-116725526D01*
X125314319Y-116710704D01*
X125352945Y-116607669D01*
X125395587Y-116550905D01*
X125462148Y-116526205D01*
X125531497Y-116541413D01*
X125566164Y-116569401D01*
X125591365Y-116598494D01*
X125598727Y-116605704D01*
X125762581Y-116741737D01*
X125771028Y-116747652D01*
X125954903Y-116855100D01*
X125964189Y-116859550D01*
X126163148Y-116935524D01*
X126173046Y-116938400D01*
X126276397Y-116959427D01*
X126290446Y-116958231D01*
X126294147Y-116947886D01*
X126294147Y-116947338D01*
X126802147Y-116947338D01*
X126806211Y-116961180D01*
X126819625Y-116963214D01*
X126826331Y-116962355D01*
X126836409Y-116960213D01*
X127040402Y-116899012D01*
X127049989Y-116895254D01*
X127241242Y-116801560D01*
X127250092Y-116796285D01*
X127423475Y-116672613D01*
X127431347Y-116665960D01*
X127582199Y-116515633D01*
X127588877Y-116507786D01*
X127713150Y-116334841D01*
X127718460Y-116326004D01*
X127812817Y-116135088D01*
X127816616Y-116125493D01*
X127878524Y-115921731D01*
X127880702Y-115911658D01*
X127882133Y-115900783D01*
X127879922Y-115886599D01*
X127866764Y-115882821D01*
X126820262Y-115882821D01*
X126805023Y-115887296D01*
X126803818Y-115888686D01*
X126802147Y-115896369D01*
X126802147Y-116947338D01*
X126294147Y-116947338D01*
X126294147Y-115356706D01*
X126802147Y-115356706D01*
X126806622Y-115371945D01*
X126808012Y-115373150D01*
X126815695Y-115374821D01*
X127866491Y-115374821D01*
X127880022Y-115370848D01*
X127881327Y-115361768D01*
X127839361Y-115194696D01*
X127836041Y-115184945D01*
X127751119Y-114989635D01*
X127746252Y-114980560D01*
X127630573Y-114801747D01*
X127624283Y-114793578D01*
X127480953Y-114636061D01*
X127473420Y-114629036D01*
X127306286Y-114497043D01*
X127297699Y-114491338D01*
X127111264Y-114388420D01*
X127101852Y-114384190D01*
X126901106Y-114313101D01*
X126891135Y-114310467D01*
X126819984Y-114297793D01*
X126806687Y-114299253D01*
X126802147Y-114313810D01*
X126802147Y-115356706D01*
X126294147Y-115356706D01*
X126294147Y-114311923D01*
X126290229Y-114298579D01*
X126275953Y-114296592D01*
X126237471Y-114302481D01*
X126227435Y-114304872D01*
X126025015Y-114371033D01*
X126015506Y-114375030D01*
X125826610Y-114473363D01*
X125817885Y-114478857D01*
X125647580Y-114606726D01*
X125639873Y-114613569D01*
X125562625Y-114694405D01*
X125501101Y-114729835D01*
X125430189Y-114726378D01*
X125372402Y-114685132D01*
X125353549Y-114651584D01*
X125311914Y-114540524D01*
X125308762Y-114532116D01*
X125221408Y-114415560D01*
X125104852Y-114328206D01*
X124968463Y-114277076D01*
X124906281Y-114270321D01*
X123110013Y-114270321D01*
X123047831Y-114277076D01*
X122911442Y-114328206D01*
X122794886Y-114415560D01*
X122707532Y-114532116D01*
X122656402Y-114668505D01*
X122649647Y-114730687D01*
X122649647Y-116526955D01*
X112716381Y-116526955D01*
X112721422Y-116521032D01*
X112845695Y-116348087D01*
X112851005Y-116339250D01*
X112945362Y-116148334D01*
X112949161Y-116138739D01*
X113011069Y-115934977D01*
X113013247Y-115924904D01*
X113014678Y-115914029D01*
X113012467Y-115899845D01*
X112999309Y-115896067D01*
X111952807Y-115896067D01*
X111937568Y-115900542D01*
X111936363Y-115901932D01*
X111934692Y-115909615D01*
X111934692Y-116960584D01*
X111426692Y-116960584D01*
X111426692Y-115369952D01*
X111934692Y-115369952D01*
X111939167Y-115385191D01*
X111940557Y-115386396D01*
X111948240Y-115388067D01*
X112999036Y-115388067D01*
X113012567Y-115384094D01*
X113013872Y-115375014D01*
X112971906Y-115207942D01*
X112968586Y-115198191D01*
X112883664Y-115002881D01*
X112878797Y-114993806D01*
X112763118Y-114814993D01*
X112756828Y-114806824D01*
X112613498Y-114649307D01*
X112605965Y-114642282D01*
X112438831Y-114510289D01*
X112430244Y-114504584D01*
X112243809Y-114401666D01*
X112234397Y-114397436D01*
X112033651Y-114326347D01*
X112023680Y-114323713D01*
X111952529Y-114311039D01*
X111939232Y-114312499D01*
X111934692Y-114327056D01*
X111934692Y-115369952D01*
X111426692Y-115369952D01*
X111426692Y-114325169D01*
X111422774Y-114311825D01*
X111408498Y-114309838D01*
X111370016Y-114315727D01*
X111359980Y-114318118D01*
X111157560Y-114384279D01*
X111148051Y-114388276D01*
X110959155Y-114486609D01*
X110950430Y-114492103D01*
X110780125Y-114619972D01*
X110772418Y-114626815D01*
X110695170Y-114707651D01*
X110633646Y-114743081D01*
X110562734Y-114739624D01*
X110504947Y-114698378D01*
X110486094Y-114664830D01*
X110444459Y-114553770D01*
X110441307Y-114545362D01*
X110353953Y-114428806D01*
X110237397Y-114341452D01*
X110101008Y-114290322D01*
X110038826Y-114283567D01*
X108242558Y-114283567D01*
X108180376Y-114290322D01*
X108043987Y-114341452D01*
X107927431Y-114428806D01*
X107840077Y-114545362D01*
X107788947Y-114681751D01*
X107782192Y-114743933D01*
X107782192Y-116540201D01*
X90429831Y-116540201D01*
X90444859Y-116360225D01*
X90481067Y-115926602D01*
X90481482Y-115922467D01*
X90481569Y-115921731D01*
X90626954Y-114679304D01*
X90627504Y-114675195D01*
X90628292Y-114669968D01*
X90763806Y-113770470D01*
X94369812Y-113770470D01*
X94400120Y-113904950D01*
X94403200Y-113914779D01*
X94483325Y-114112107D01*
X94487968Y-114121298D01*
X94599249Y-114302892D01*
X94605332Y-114311203D01*
X94744768Y-114472171D01*
X94752135Y-114479387D01*
X94915989Y-114615420D01*
X94924436Y-114621335D01*
X95108311Y-114728783D01*
X95117597Y-114733233D01*
X95316556Y-114809207D01*
X95326454Y-114812083D01*
X95429805Y-114833110D01*
X95443854Y-114831914D01*
X95447555Y-114821569D01*
X95447555Y-113774619D01*
X95443080Y-113759380D01*
X95441690Y-113758175D01*
X95434007Y-113756504D01*
X94384780Y-113756504D01*
X94371249Y-113760477D01*
X94369812Y-113770470D01*
X90763806Y-113770470D01*
X90813339Y-113441682D01*
X90814021Y-113437607D01*
X90844042Y-113274846D01*
X91015248Y-112346622D01*
X91039703Y-112214035D01*
X91040515Y-112210002D01*
X91116827Y-111860638D01*
X94343055Y-111860638D01*
X94349810Y-111922820D01*
X94400940Y-112059209D01*
X94488294Y-112175765D01*
X94604850Y-112263119D01*
X94613259Y-112266271D01*
X94613260Y-112266272D01*
X94722515Y-112307230D01*
X94779280Y-112349871D01*
X94803980Y-112416433D01*
X94788773Y-112485782D01*
X94769380Y-112512263D01*
X94646145Y-112641221D01*
X94639659Y-112649231D01*
X94519653Y-112825153D01*
X94514555Y-112834127D01*
X94424893Y-113027287D01*
X94421330Y-113036974D01*
X94365944Y-113236687D01*
X94367467Y-113245111D01*
X94379847Y-113248504D01*
X95829555Y-113248504D01*
X95897676Y-113268506D01*
X95944169Y-113322162D01*
X95955555Y-113374504D01*
X95955555Y-114821021D01*
X95959619Y-114834863D01*
X95973033Y-114836897D01*
X95979739Y-114836038D01*
X95989817Y-114833896D01*
X96193810Y-114772695D01*
X96203397Y-114768937D01*
X96394650Y-114675243D01*
X96403500Y-114669968D01*
X96576883Y-114546296D01*
X96584755Y-114539643D01*
X96735607Y-114389316D01*
X96742285Y-114381469D01*
X96869577Y-114204323D01*
X96870834Y-114205226D01*
X96917928Y-114161866D01*
X96987866Y-114149649D01*
X97053306Y-114177182D01*
X97081134Y-114209015D01*
X97141542Y-114307592D01*
X97287805Y-114476442D01*
X97367245Y-114542394D01*
X97452976Y-114613569D01*
X97459681Y-114619136D01*
X97652555Y-114731842D01*
X97657380Y-114733684D01*
X97657381Y-114733685D01*
X97672934Y-114739624D01*
X97861247Y-114811534D01*
X97866315Y-114812565D01*
X97866318Y-114812566D01*
X97961417Y-114831914D01*
X98080152Y-114856071D01*
X98085327Y-114856261D01*
X98085329Y-114856261D01*
X98298228Y-114864068D01*
X98298232Y-114864068D01*
X98303392Y-114864257D01*
X98308512Y-114863601D01*
X98308514Y-114863601D01*
X98381969Y-114854191D01*
X98524971Y-114835872D01*
X98529924Y-114834386D01*
X98529929Y-114834385D01*
X98559572Y-114825491D01*
X98569206Y-114822601D01*
X98640201Y-114822183D01*
X98694509Y-114854191D01*
X98912816Y-115072498D01*
X98920392Y-115080824D01*
X98924513Y-115087318D01*
X98930288Y-115092741D01*
X98974331Y-115134100D01*
X98977173Y-115136855D01*
X98996972Y-115156654D01*
X99000097Y-115159078D01*
X99000106Y-115159086D01*
X99000192Y-115159152D01*
X99009217Y-115166860D01*
X99041560Y-115197232D01*
X99048504Y-115201050D01*
X99048506Y-115201051D01*
X99059395Y-115207037D01*
X99075913Y-115217888D01*
X99091999Y-115230365D01*
X99132732Y-115247991D01*
X99143380Y-115253208D01*
X99155008Y-115259600D01*
X99182263Y-115274584D01*
X99189938Y-115276555D01*
X99189944Y-115276557D01*
X99201977Y-115279646D01*
X99220679Y-115286049D01*
X99239358Y-115294132D01*
X99272884Y-115299442D01*
X99283193Y-115301075D01*
X99294806Y-115303480D01*
X99337784Y-115314515D01*
X99358131Y-115314515D01*
X99377843Y-115316066D01*
X99397945Y-115319250D01*
X99405837Y-115318504D01*
X99442122Y-115315074D01*
X99453980Y-115314515D01*
X106221965Y-115314515D01*
X106233199Y-115315045D01*
X106240704Y-115316723D01*
X106308997Y-115314577D01*
X106312954Y-115314515D01*
X106340968Y-115314515D01*
X106344893Y-115314019D01*
X106344894Y-115314019D01*
X106344989Y-115314007D01*
X106356834Y-115313074D01*
X106386655Y-115312137D01*
X106393267Y-115311929D01*
X106393268Y-115311929D01*
X106401190Y-115311680D01*
X106420734Y-115306002D01*
X106440097Y-115301992D01*
X106452425Y-115300435D01*
X106452427Y-115300435D01*
X106460284Y-115299442D01*
X106467648Y-115296526D01*
X106467653Y-115296525D01*
X106501541Y-115283108D01*
X106512770Y-115279263D01*
X106529450Y-115274417D01*
X106555378Y-115266884D01*
X106562205Y-115262846D01*
X106562208Y-115262845D01*
X106572891Y-115256527D01*
X106590649Y-115247827D01*
X106602200Y-115243254D01*
X106602206Y-115243250D01*
X106609573Y-115240334D01*
X106618962Y-115233513D01*
X106645473Y-115214251D01*
X106655395Y-115207734D01*
X106686753Y-115189189D01*
X106686757Y-115189186D01*
X106693583Y-115185149D01*
X106707967Y-115170765D01*
X106723001Y-115157924D01*
X106733058Y-115150617D01*
X106739472Y-115145957D01*
X106767763Y-115111759D01*
X106775752Y-115102980D01*
X108613792Y-113264940D01*
X108676104Y-113230914D01*
X108702887Y-113228035D01*
X146408445Y-113228035D01*
X146419679Y-113228565D01*
X146427184Y-113230243D01*
X146495477Y-113228097D01*
X146499434Y-113228035D01*
X146527448Y-113228035D01*
X146531373Y-113227539D01*
X146531374Y-113227539D01*
X146531469Y-113227527D01*
X146543314Y-113226594D01*
X146573135Y-113225657D01*
X146579747Y-113225449D01*
X146579748Y-113225449D01*
X146587670Y-113225200D01*
X146607214Y-113219522D01*
X146626577Y-113215512D01*
X146638905Y-113213955D01*
X146638907Y-113213955D01*
X146646764Y-113212962D01*
X146654128Y-113210046D01*
X146654133Y-113210045D01*
X146688021Y-113196628D01*
X146699250Y-113192783D01*
X146715930Y-113187937D01*
X146741858Y-113180404D01*
X146748685Y-113176366D01*
X146748688Y-113176365D01*
X146759371Y-113170047D01*
X146777129Y-113161347D01*
X146788680Y-113156774D01*
X146788686Y-113156770D01*
X146796053Y-113153854D01*
X146831956Y-113127769D01*
X146841875Y-113121254D01*
X146873233Y-113102709D01*
X146873237Y-113102706D01*
X146880063Y-113098669D01*
X146894447Y-113084285D01*
X146909481Y-113071444D01*
X146919538Y-113064137D01*
X146925952Y-113059477D01*
X146954243Y-113025279D01*
X146962232Y-113016500D01*
X150199971Y-109778762D01*
X150262283Y-109744736D01*
X150333099Y-109749801D01*
X150356810Y-109763012D01*
X150357140Y-109762455D01*
X150363963Y-109766490D01*
X150370227Y-109771349D01*
X150377504Y-109774498D01*
X150410944Y-109788969D01*
X150421605Y-109794192D01*
X150453541Y-109811749D01*
X150453546Y-109811751D01*
X150460491Y-109815569D01*
X150468165Y-109817539D01*
X150468172Y-109817542D01*
X150480207Y-109820632D01*
X150498912Y-109827036D01*
X150510307Y-109831967D01*
X150517586Y-109835117D01*
X150532695Y-109837510D01*
X150561421Y-109842060D01*
X150573034Y-109844465D01*
X150616012Y-109855500D01*
X150636359Y-109855500D01*
X150656070Y-109857051D01*
X150668344Y-109858995D01*
X150676173Y-109860235D01*
X150684065Y-109859489D01*
X150720350Y-109856059D01*
X150732208Y-109855500D01*
X169473601Y-109855500D01*
X169541722Y-109875502D01*
X169558908Y-109890109D01*
X169559420Y-109889540D01*
X169564332Y-109893963D01*
X169568747Y-109898866D01*
X169574086Y-109902745D01*
X169686952Y-109984747D01*
X169723248Y-110011118D01*
X169729276Y-110013802D01*
X169729278Y-110013803D01*
X169891681Y-110086109D01*
X169897712Y-110088794D01*
X169972271Y-110104642D01*
X170078056Y-110127128D01*
X170078061Y-110127128D01*
X170084513Y-110128500D01*
X170275487Y-110128500D01*
X170281939Y-110127128D01*
X170281944Y-110127128D01*
X170387729Y-110104642D01*
X170462288Y-110088794D01*
X170468319Y-110086109D01*
X170630724Y-110013802D01*
X170630725Y-110013801D01*
X170636752Y-110011118D01*
X170642094Y-110007237D01*
X170643644Y-110006342D01*
X170712639Y-109989602D01*
X170779731Y-110012820D01*
X170823620Y-110068626D01*
X170832647Y-110115459D01*
X170832647Y-110544980D01*
X170812645Y-110613101D01*
X170758989Y-110659594D01*
X170706647Y-110670980D01*
X168413792Y-110670980D01*
X168402553Y-110670450D01*
X168395041Y-110668771D01*
X168387116Y-110669020D01*
X168387115Y-110669020D01*
X168326730Y-110670918D01*
X168322772Y-110670980D01*
X168294777Y-110670980D01*
X168290843Y-110671477D01*
X168290841Y-110671477D01*
X168290754Y-110671488D01*
X168278920Y-110672420D01*
X168234555Y-110673815D01*
X168226942Y-110676027D01*
X168226941Y-110676027D01*
X168215012Y-110679493D01*
X168195648Y-110683503D01*
X168183320Y-110685060D01*
X168183318Y-110685060D01*
X168175461Y-110686053D01*
X168168097Y-110688969D01*
X168168092Y-110688970D01*
X168134204Y-110702387D01*
X168122975Y-110706232D01*
X168106295Y-110711078D01*
X168080367Y-110718611D01*
X168073540Y-110722649D01*
X168073537Y-110722650D01*
X168062854Y-110728968D01*
X168045096Y-110737668D01*
X168033545Y-110742241D01*
X168033539Y-110742245D01*
X168026172Y-110745161D01*
X168019761Y-110749819D01*
X168019759Y-110749820D01*
X167990272Y-110771244D01*
X167980350Y-110777761D01*
X167948992Y-110796306D01*
X167948988Y-110796309D01*
X167942162Y-110800346D01*
X167927778Y-110814730D01*
X167912744Y-110827571D01*
X167896273Y-110839538D01*
X167891220Y-110845646D01*
X167867983Y-110873735D01*
X167859993Y-110882515D01*
X163716174Y-115026333D01*
X163707848Y-115033909D01*
X163701354Y-115038030D01*
X163695931Y-115043805D01*
X163654572Y-115087848D01*
X163651817Y-115090690D01*
X163632018Y-115110489D01*
X163629594Y-115113614D01*
X163629586Y-115113623D01*
X163629520Y-115113709D01*
X163621812Y-115122734D01*
X163591440Y-115155077D01*
X163582482Y-115171372D01*
X163581635Y-115172912D01*
X163570784Y-115189430D01*
X163558307Y-115205516D01*
X163540681Y-115246249D01*
X163535464Y-115256897D01*
X163514088Y-115295780D01*
X163512117Y-115303455D01*
X163512115Y-115303461D01*
X163509026Y-115315494D01*
X163502623Y-115334196D01*
X163494540Y-115352875D01*
X163490477Y-115378528D01*
X163487597Y-115396710D01*
X163485192Y-115408323D01*
X163474157Y-115451301D01*
X163474157Y-115471648D01*
X163472606Y-115491359D01*
X163469422Y-115511462D01*
X163470168Y-115519354D01*
X163473598Y-115555639D01*
X163474157Y-115567497D01*
X163474157Y-116054427D01*
X163473627Y-116065661D01*
X163471949Y-116073166D01*
X163472198Y-116081085D01*
X163474095Y-116141459D01*
X163474157Y-116145416D01*
X163474157Y-116173430D01*
X163474653Y-116177355D01*
X163474653Y-116177356D01*
X163474665Y-116177451D01*
X163475598Y-116189296D01*
X163476992Y-116233652D01*
X163479204Y-116241264D01*
X163482670Y-116253195D01*
X163486680Y-116272559D01*
X163489230Y-116292746D01*
X163492146Y-116300110D01*
X163492147Y-116300115D01*
X163505564Y-116334003D01*
X163509409Y-116345232D01*
X163513765Y-116360225D01*
X163521788Y-116387840D01*
X163525826Y-116394667D01*
X163525827Y-116394670D01*
X163532145Y-116405353D01*
X163540845Y-116423111D01*
X163545418Y-116434662D01*
X163545422Y-116434668D01*
X163548338Y-116442035D01*
X163552996Y-116448446D01*
X163552997Y-116448448D01*
X163574421Y-116477935D01*
X163580938Y-116487857D01*
X163599483Y-116519215D01*
X163599486Y-116519219D01*
X163603523Y-116526045D01*
X163617907Y-116540429D01*
X163630748Y-116555463D01*
X163642715Y-116571934D01*
X163672454Y-116596536D01*
X163676907Y-116600220D01*
X163685688Y-116608210D01*
X164310965Y-117233488D01*
X164318535Y-117241807D01*
X164322657Y-117248303D01*
X164328435Y-117253729D01*
X164328436Y-117253730D01*
X164372475Y-117295085D01*
X164375317Y-117297840D01*
X164395116Y-117317639D01*
X164398241Y-117320063D01*
X164398250Y-117320071D01*
X164398336Y-117320137D01*
X164407361Y-117327845D01*
X164439704Y-117358217D01*
X164446648Y-117362035D01*
X164446650Y-117362036D01*
X164457539Y-117368022D01*
X164474057Y-117378873D01*
X164490143Y-117391350D01*
X164530876Y-117408976D01*
X164541524Y-117414193D01*
X164553152Y-117420585D01*
X164580407Y-117435569D01*
X164588082Y-117437540D01*
X164588088Y-117437542D01*
X164600121Y-117440631D01*
X164618823Y-117447034D01*
X164637502Y-117455117D01*
X164671028Y-117460427D01*
X164681337Y-117462060D01*
X164692950Y-117464465D01*
X164735928Y-117475500D01*
X164756275Y-117475500D01*
X164775987Y-117477051D01*
X164796089Y-117480235D01*
X164803981Y-117479489D01*
X164840266Y-117476059D01*
X164852124Y-117475500D01*
X170177948Y-117475500D01*
X170189182Y-117476030D01*
X170196687Y-117477708D01*
X170264980Y-117475562D01*
X170268937Y-117475500D01*
X170296951Y-117475500D01*
X170300876Y-117475004D01*
X170300877Y-117475004D01*
X170300972Y-117474992D01*
X170312817Y-117474059D01*
X170342638Y-117473122D01*
X170349250Y-117472914D01*
X170349251Y-117472914D01*
X170357173Y-117472665D01*
X170376717Y-117466987D01*
X170396080Y-117462977D01*
X170408408Y-117461420D01*
X170408410Y-117461420D01*
X170416267Y-117460427D01*
X170423631Y-117457511D01*
X170423636Y-117457510D01*
X170457524Y-117444093D01*
X170468753Y-117440248D01*
X170485433Y-117435402D01*
X170511361Y-117427869D01*
X170518188Y-117423831D01*
X170518191Y-117423830D01*
X170528874Y-117417512D01*
X170546632Y-117408812D01*
X170558183Y-117404239D01*
X170558189Y-117404235D01*
X170565556Y-117401319D01*
X170574945Y-117394498D01*
X170601456Y-117375236D01*
X170611378Y-117368719D01*
X170642736Y-117350174D01*
X170642740Y-117350171D01*
X170649566Y-117346134D01*
X170663950Y-117331750D01*
X170678984Y-117318909D01*
X170689041Y-117311602D01*
X170695455Y-117306942D01*
X170723741Y-117272750D01*
X170731731Y-117263969D01*
X171015048Y-116980653D01*
X171077360Y-116946628D01*
X171129264Y-116946279D01*
X171306744Y-116982388D01*
X171311919Y-116982578D01*
X171311921Y-116982578D01*
X171524820Y-116990385D01*
X171524824Y-116990385D01*
X171529984Y-116990574D01*
X171535104Y-116989918D01*
X171535106Y-116989918D01*
X171746435Y-116962846D01*
X171746436Y-116962846D01*
X171751563Y-116962189D01*
X171756913Y-116960584D01*
X171960576Y-116899482D01*
X171960581Y-116899480D01*
X171965531Y-116897995D01*
X172166141Y-116799717D01*
X172348007Y-116669994D01*
X172398872Y-116619307D01*
X172452847Y-116565520D01*
X172506243Y-116512310D01*
X172549939Y-116451501D01*
X172636600Y-116330898D01*
X172637923Y-116331849D01*
X172684792Y-116288678D01*
X172754727Y-116276446D01*
X172820173Y-116303965D01*
X172848022Y-116335815D01*
X172908134Y-116433909D01*
X173054397Y-116602759D01*
X173226273Y-116745453D01*
X173419147Y-116858159D01*
X173423972Y-116860001D01*
X173423973Y-116860002D01*
X173453835Y-116871405D01*
X173627839Y-116937851D01*
X173632907Y-116938882D01*
X173632910Y-116938883D01*
X173695643Y-116951646D01*
X173846744Y-116982388D01*
X173851919Y-116982578D01*
X173851921Y-116982578D01*
X174064820Y-116990385D01*
X174064824Y-116990385D01*
X174069984Y-116990574D01*
X174075104Y-116989918D01*
X174075106Y-116989918D01*
X174286435Y-116962846D01*
X174286436Y-116962846D01*
X174291563Y-116962189D01*
X174296913Y-116960584D01*
X174500576Y-116899482D01*
X174500581Y-116899480D01*
X174505531Y-116897995D01*
X174706141Y-116799717D01*
X174888007Y-116669994D01*
X174938872Y-116619307D01*
X174992847Y-116565520D01*
X175046243Y-116512310D01*
X175089939Y-116451501D01*
X175173582Y-116335098D01*
X175176600Y-116330898D01*
X175183365Y-116317211D01*
X175273283Y-116135274D01*
X175273284Y-116135272D01*
X175275577Y-116130632D01*
X175326149Y-115964181D01*
X175339012Y-115921844D01*
X175339012Y-115921842D01*
X175340517Y-115916890D01*
X175369676Y-115695411D01*
X175370897Y-115645432D01*
X175371221Y-115632186D01*
X175371221Y-115632182D01*
X175371303Y-115628821D01*
X175369654Y-115608762D01*
X185237943Y-115608762D01*
X185238240Y-115613915D01*
X185238240Y-115613918D01*
X185248073Y-115784457D01*
X185250802Y-115831782D01*
X185251939Y-115836828D01*
X185251940Y-115836834D01*
X185266141Y-115899845D01*
X185299914Y-116049706D01*
X185383958Y-116256683D01*
X185426438Y-116326004D01*
X185497983Y-116442755D01*
X185500679Y-116447155D01*
X185646942Y-116616005D01*
X185818818Y-116758699D01*
X186011692Y-116871405D01*
X186220384Y-116951097D01*
X186225452Y-116952128D01*
X186225455Y-116952129D01*
X186320554Y-116971477D01*
X186439289Y-116995634D01*
X186444464Y-116995824D01*
X186444466Y-116995824D01*
X186657365Y-117003631D01*
X186657369Y-117003631D01*
X186662529Y-117003820D01*
X186667649Y-117003164D01*
X186667651Y-117003164D01*
X186878980Y-116976092D01*
X186878981Y-116976092D01*
X186884108Y-116975435D01*
X186889058Y-116973950D01*
X187093121Y-116912728D01*
X187093126Y-116912726D01*
X187098076Y-116911241D01*
X187298686Y-116812963D01*
X187480552Y-116683240D01*
X187493845Y-116669994D01*
X187592248Y-116571934D01*
X187638788Y-116525556D01*
X187643345Y-116519215D01*
X187769145Y-116344144D01*
X187770468Y-116345095D01*
X187817337Y-116301924D01*
X187887272Y-116289692D01*
X187952718Y-116317211D01*
X187980567Y-116349061D01*
X188040679Y-116447155D01*
X188186942Y-116616005D01*
X188358818Y-116758699D01*
X188551692Y-116871405D01*
X188760384Y-116951097D01*
X188765452Y-116952128D01*
X188765455Y-116952129D01*
X188860554Y-116971477D01*
X188979289Y-116995634D01*
X188984464Y-116995824D01*
X188984466Y-116995824D01*
X189197365Y-117003631D01*
X189197369Y-117003631D01*
X189202529Y-117003820D01*
X189207649Y-117003164D01*
X189207651Y-117003164D01*
X189418980Y-116976092D01*
X189418981Y-116976092D01*
X189424108Y-116975435D01*
X189429058Y-116973950D01*
X189633121Y-116912728D01*
X189633126Y-116912726D01*
X189638076Y-116911241D01*
X189838686Y-116812963D01*
X190020552Y-116683240D01*
X190033845Y-116669994D01*
X190132248Y-116571934D01*
X190178788Y-116525556D01*
X190183345Y-116519215D01*
X190306127Y-116348344D01*
X190309145Y-116344144D01*
X190313262Y-116335815D01*
X190405828Y-116148520D01*
X190405829Y-116148518D01*
X190408122Y-116143878D01*
X190473062Y-115930136D01*
X190502221Y-115708657D01*
X190502545Y-115695411D01*
X190503766Y-115645432D01*
X190503766Y-115645428D01*
X190503848Y-115642067D01*
X190485544Y-115419428D01*
X190431123Y-115202769D01*
X190342046Y-114997907D01*
X190236259Y-114834385D01*
X190223514Y-114814684D01*
X190223512Y-114814681D01*
X190220706Y-114810344D01*
X190070362Y-114645118D01*
X190066311Y-114641919D01*
X190066307Y-114641915D01*
X189899106Y-114509867D01*
X189899102Y-114509865D01*
X189895051Y-114506665D01*
X189866533Y-114490922D01*
X189832565Y-114472171D01*
X189699481Y-114398705D01*
X189694612Y-114396981D01*
X189694608Y-114396979D01*
X189493779Y-114325862D01*
X189493775Y-114325861D01*
X189488904Y-114324136D01*
X189483811Y-114323229D01*
X189483808Y-114323228D01*
X189274065Y-114285867D01*
X189274059Y-114285866D01*
X189268976Y-114284961D01*
X189195144Y-114284059D01*
X189050773Y-114282295D01*
X189050771Y-114282295D01*
X189045603Y-114282232D01*
X188824783Y-114316022D01*
X188612448Y-114385424D01*
X188564894Y-114410179D01*
X188433780Y-114478433D01*
X188414299Y-114488574D01*
X188410166Y-114491677D01*
X188410163Y-114491679D01*
X188244808Y-114615831D01*
X188235657Y-114622702D01*
X188185448Y-114675243D01*
X188134284Y-114728783D01*
X188081321Y-114784205D01*
X187973893Y-114941688D01*
X187918985Y-114986688D01*
X187848460Y-114994859D01*
X187784713Y-114963605D01*
X187764016Y-114939121D01*
X187683514Y-114814684D01*
X187683512Y-114814681D01*
X187680706Y-114810344D01*
X187530362Y-114645118D01*
X187526311Y-114641919D01*
X187526307Y-114641915D01*
X187359106Y-114509867D01*
X187359102Y-114509865D01*
X187355051Y-114506665D01*
X187326533Y-114490922D01*
X187292565Y-114472171D01*
X187159481Y-114398705D01*
X187154612Y-114396981D01*
X187154608Y-114396979D01*
X186953779Y-114325862D01*
X186953775Y-114325861D01*
X186948904Y-114324136D01*
X186943811Y-114323229D01*
X186943808Y-114323228D01*
X186734065Y-114285867D01*
X186734059Y-114285866D01*
X186728976Y-114284961D01*
X186655144Y-114284059D01*
X186510773Y-114282295D01*
X186510771Y-114282295D01*
X186505603Y-114282232D01*
X186284783Y-114316022D01*
X186072448Y-114385424D01*
X186024894Y-114410179D01*
X185893780Y-114478433D01*
X185874299Y-114488574D01*
X185870166Y-114491677D01*
X185870163Y-114491679D01*
X185704808Y-114615831D01*
X185695657Y-114622702D01*
X185645448Y-114675243D01*
X185594284Y-114728783D01*
X185541321Y-114784205D01*
X185538412Y-114788470D01*
X185538406Y-114788478D01*
X185506764Y-114834863D01*
X185415435Y-114968747D01*
X185399695Y-115002657D01*
X185325311Y-115162904D01*
X185321380Y-115171372D01*
X185261681Y-115386637D01*
X185237943Y-115608762D01*
X175369654Y-115608762D01*
X175352999Y-115406182D01*
X175298578Y-115189523D01*
X175209501Y-114984661D01*
X175126435Y-114856261D01*
X175090969Y-114801438D01*
X175090967Y-114801435D01*
X175088161Y-114797098D01*
X174937817Y-114631872D01*
X174933766Y-114628673D01*
X174933762Y-114628669D01*
X174766561Y-114496621D01*
X174766557Y-114496619D01*
X174762506Y-114493419D01*
X174753730Y-114488574D01*
X174645459Y-114428806D01*
X174566936Y-114385459D01*
X174562067Y-114383735D01*
X174562063Y-114383733D01*
X174361234Y-114312616D01*
X174361230Y-114312615D01*
X174356359Y-114310890D01*
X174351266Y-114309983D01*
X174351263Y-114309982D01*
X174141520Y-114272621D01*
X174141514Y-114272620D01*
X174136431Y-114271715D01*
X174062599Y-114270813D01*
X173918228Y-114269049D01*
X173918226Y-114269049D01*
X173913058Y-114268986D01*
X173692238Y-114302776D01*
X173479903Y-114372178D01*
X173446981Y-114389316D01*
X173287819Y-114472171D01*
X173281754Y-114475328D01*
X173277621Y-114478431D01*
X173277618Y-114478433D01*
X173155429Y-114570175D01*
X173103112Y-114609456D01*
X172948776Y-114770959D01*
X172841348Y-114928442D01*
X172786440Y-114973442D01*
X172715915Y-114981613D01*
X172652168Y-114950359D01*
X172631471Y-114925875D01*
X172550969Y-114801438D01*
X172550967Y-114801435D01*
X172548161Y-114797098D01*
X172397817Y-114631872D01*
X172393766Y-114628673D01*
X172393762Y-114628669D01*
X172226561Y-114496621D01*
X172226557Y-114496619D01*
X172222506Y-114493419D01*
X172213730Y-114488574D01*
X172105459Y-114428806D01*
X172026936Y-114385459D01*
X172022067Y-114383735D01*
X172022063Y-114383733D01*
X171821234Y-114312616D01*
X171821230Y-114312615D01*
X171816359Y-114310890D01*
X171811266Y-114309983D01*
X171811263Y-114309982D01*
X171601520Y-114272621D01*
X171601514Y-114272620D01*
X171596431Y-114271715D01*
X171522599Y-114270813D01*
X171378228Y-114269049D01*
X171378226Y-114269049D01*
X171373058Y-114268986D01*
X171152238Y-114302776D01*
X170939903Y-114372178D01*
X170906981Y-114389316D01*
X170747819Y-114472171D01*
X170741754Y-114475328D01*
X170737621Y-114478431D01*
X170737618Y-114478433D01*
X170615429Y-114570175D01*
X170563112Y-114609456D01*
X170408776Y-114770959D01*
X170405867Y-114775224D01*
X170405861Y-114775232D01*
X170350587Y-114856261D01*
X170282890Y-114955501D01*
X170241901Y-115043805D01*
X170192321Y-115150617D01*
X170188835Y-115158126D01*
X170129136Y-115373391D01*
X170105398Y-115595516D01*
X170105695Y-115600669D01*
X170105695Y-115600672D01*
X170112113Y-115711975D01*
X170118257Y-115818536D01*
X170119394Y-115823582D01*
X170119395Y-115823588D01*
X170151080Y-115964181D01*
X170146544Y-116035033D01*
X170117258Y-116080977D01*
X170030640Y-116167595D01*
X169968328Y-116201621D01*
X169941545Y-116204500D01*
X165843980Y-116204500D01*
X165775859Y-116184498D01*
X165729366Y-116130842D01*
X165719262Y-116060568D01*
X165724147Y-116039564D01*
X165727670Y-116028721D01*
X165729710Y-116022443D01*
X165746743Y-115860382D01*
X165773756Y-115794725D01*
X165782958Y-115784457D01*
X169135011Y-112432405D01*
X169197323Y-112398379D01*
X169224106Y-112395500D01*
X182173601Y-112395500D01*
X182241722Y-112415502D01*
X182258908Y-112430109D01*
X182259420Y-112429540D01*
X182264332Y-112433963D01*
X182268747Y-112438866D01*
X182423248Y-112551118D01*
X182429276Y-112553802D01*
X182429278Y-112553803D01*
X182591681Y-112626109D01*
X182597712Y-112628794D01*
X182672271Y-112644642D01*
X182778056Y-112667128D01*
X182778061Y-112667128D01*
X182784513Y-112668500D01*
X182975487Y-112668500D01*
X182981939Y-112667128D01*
X182981944Y-112667128D01*
X183087729Y-112644642D01*
X183162288Y-112628794D01*
X183168319Y-112626109D01*
X183330722Y-112553803D01*
X183330724Y-112553802D01*
X183336752Y-112551118D01*
X183491253Y-112438866D01*
X183569363Y-112352116D01*
X183614621Y-112301852D01*
X183614622Y-112301851D01*
X183619040Y-112296944D01*
X183689003Y-112175765D01*
X183711223Y-112137279D01*
X183711224Y-112137278D01*
X183714527Y-112131556D01*
X183773542Y-111949928D01*
X183793504Y-111760000D01*
X183773542Y-111570072D01*
X183714527Y-111388444D01*
X183619040Y-111223056D01*
X183491253Y-111081134D01*
X183336752Y-110968882D01*
X183330724Y-110966198D01*
X183330722Y-110966197D01*
X183168319Y-110893891D01*
X183168318Y-110893891D01*
X183162288Y-110891206D01*
X183068887Y-110871353D01*
X182981944Y-110852872D01*
X182981939Y-110852872D01*
X182975487Y-110851500D01*
X182784513Y-110851500D01*
X182778061Y-110852872D01*
X182778056Y-110852872D01*
X182691113Y-110871353D01*
X182597712Y-110891206D01*
X182591682Y-110893891D01*
X182591681Y-110893891D01*
X182429278Y-110966197D01*
X182429276Y-110966198D01*
X182423248Y-110968882D01*
X182268747Y-111081134D01*
X182264332Y-111086037D01*
X182259420Y-111090460D01*
X182257779Y-111088638D01*
X182206790Y-111120050D01*
X182173601Y-111124500D01*
X172229647Y-111124500D01*
X172161526Y-111104498D01*
X172115033Y-111050842D01*
X172103647Y-110998500D01*
X172103647Y-108831415D01*
X194607319Y-108831415D01*
X194637627Y-108965895D01*
X194640707Y-108975724D01*
X194720832Y-109173052D01*
X194725475Y-109182243D01*
X194836756Y-109363837D01*
X194842839Y-109372148D01*
X194982275Y-109533116D01*
X194989642Y-109540332D01*
X195153496Y-109676365D01*
X195161943Y-109682280D01*
X195345818Y-109789728D01*
X195355104Y-109794178D01*
X195554063Y-109870152D01*
X195563961Y-109873028D01*
X195667312Y-109894055D01*
X195681361Y-109892859D01*
X195685062Y-109882514D01*
X195685062Y-108835564D01*
X195680587Y-108820325D01*
X195679197Y-108819120D01*
X195671514Y-108817449D01*
X194622287Y-108817449D01*
X194608756Y-108821422D01*
X194607319Y-108831415D01*
X172103647Y-108831415D01*
X172103647Y-107019736D01*
X172104177Y-107008497D01*
X172105856Y-107000985D01*
X172103709Y-106932673D01*
X172103647Y-106928716D01*
X172103647Y-106921583D01*
X194580562Y-106921583D01*
X194587317Y-106983765D01*
X194638447Y-107120154D01*
X194725801Y-107236710D01*
X194842357Y-107324064D01*
X194850766Y-107327216D01*
X194850767Y-107327217D01*
X194960022Y-107368175D01*
X195016787Y-107410816D01*
X195041487Y-107477378D01*
X195026280Y-107546727D01*
X195006887Y-107573208D01*
X194883652Y-107702166D01*
X194877166Y-107710176D01*
X194757160Y-107886098D01*
X194752062Y-107895072D01*
X194662400Y-108088232D01*
X194658837Y-108097919D01*
X194603451Y-108297632D01*
X194604974Y-108306056D01*
X194617354Y-108309449D01*
X196067062Y-108309449D01*
X196135183Y-108329451D01*
X196181676Y-108383107D01*
X196193062Y-108435449D01*
X196193062Y-109881966D01*
X196197126Y-109895808D01*
X196210540Y-109897842D01*
X196217246Y-109896983D01*
X196227324Y-109894841D01*
X196431317Y-109833640D01*
X196440904Y-109829882D01*
X196632157Y-109736188D01*
X196641007Y-109730913D01*
X196814390Y-109607241D01*
X196822262Y-109600588D01*
X196973114Y-109450261D01*
X196979792Y-109442414D01*
X197107084Y-109265268D01*
X197108341Y-109266171D01*
X197155435Y-109222811D01*
X197225373Y-109210594D01*
X197290813Y-109238127D01*
X197318641Y-109269960D01*
X197332137Y-109291983D01*
X197379049Y-109368537D01*
X197525312Y-109537387D01*
X197697188Y-109680081D01*
X197890062Y-109792787D01*
X198098754Y-109872479D01*
X198103822Y-109873510D01*
X198103825Y-109873511D01*
X198196693Y-109892405D01*
X198317659Y-109917016D01*
X198322834Y-109917206D01*
X198322836Y-109917206D01*
X198535735Y-109925013D01*
X198535739Y-109925013D01*
X198540899Y-109925202D01*
X198546019Y-109924546D01*
X198546021Y-109924546D01*
X198757350Y-109897474D01*
X198757351Y-109897474D01*
X198762478Y-109896817D01*
X198767428Y-109895332D01*
X198971491Y-109834110D01*
X198971496Y-109834108D01*
X198976446Y-109832623D01*
X199177056Y-109734345D01*
X199358922Y-109604622D01*
X199367067Y-109596506D01*
X199490126Y-109473876D01*
X199517158Y-109446938D01*
X199647515Y-109265526D01*
X199648838Y-109266477D01*
X199695707Y-109223306D01*
X199765642Y-109211074D01*
X199831088Y-109238593D01*
X199858937Y-109270443D01*
X199872137Y-109291983D01*
X199919049Y-109368537D01*
X200065312Y-109537387D01*
X200237188Y-109680081D01*
X200430062Y-109792787D01*
X200638754Y-109872479D01*
X200643822Y-109873510D01*
X200643825Y-109873511D01*
X200736693Y-109892405D01*
X200857659Y-109917016D01*
X200862834Y-109917206D01*
X200862836Y-109917206D01*
X201075735Y-109925013D01*
X201075739Y-109925013D01*
X201080899Y-109925202D01*
X201086019Y-109924546D01*
X201086021Y-109924546D01*
X201297350Y-109897474D01*
X201297351Y-109897474D01*
X201302478Y-109896817D01*
X201307428Y-109895332D01*
X201511491Y-109834110D01*
X201511496Y-109834108D01*
X201516446Y-109832623D01*
X201717056Y-109734345D01*
X201898922Y-109604622D01*
X201907067Y-109596506D01*
X202030126Y-109473876D01*
X202057158Y-109446938D01*
X202187515Y-109265526D01*
X202201057Y-109238127D01*
X202284198Y-109069902D01*
X202284199Y-109069900D01*
X202286492Y-109065260D01*
X202351432Y-108851518D01*
X202380591Y-108630039D01*
X202381264Y-108602490D01*
X202382136Y-108566814D01*
X202382136Y-108566810D01*
X202382218Y-108563449D01*
X202363914Y-108340810D01*
X202309493Y-108124151D01*
X202220416Y-107919289D01*
X202099076Y-107731726D01*
X201948732Y-107566500D01*
X201944681Y-107563301D01*
X201944677Y-107563297D01*
X201777476Y-107431249D01*
X201777472Y-107431247D01*
X201773421Y-107428047D01*
X201732115Y-107405245D01*
X201682146Y-107354813D01*
X201667374Y-107285370D01*
X201692490Y-107218965D01*
X201719842Y-107192358D01*
X201763665Y-107161099D01*
X201898922Y-107064622D01*
X201917964Y-107045647D01*
X202042678Y-106921367D01*
X202057158Y-106906938D01*
X202061626Y-106900721D01*
X202184497Y-106729726D01*
X202187515Y-106725526D01*
X202208382Y-106683306D01*
X202284198Y-106529902D01*
X202284199Y-106529900D01*
X202286492Y-106525260D01*
X202351432Y-106311518D01*
X202380591Y-106090039D01*
X202380974Y-106074374D01*
X202382136Y-106026814D01*
X202382136Y-106026810D01*
X202382218Y-106023449D01*
X202363914Y-105800810D01*
X202309493Y-105584151D01*
X202220416Y-105379289D01*
X202180968Y-105318311D01*
X202101884Y-105196066D01*
X202101882Y-105196063D01*
X202099076Y-105191726D01*
X201948732Y-105026500D01*
X201944681Y-105023301D01*
X201944677Y-105023297D01*
X201777476Y-104891249D01*
X201777472Y-104891247D01*
X201773421Y-104888047D01*
X201764107Y-104882905D01*
X201686266Y-104839935D01*
X201577851Y-104780087D01*
X201572982Y-104778363D01*
X201572978Y-104778361D01*
X201372149Y-104707244D01*
X201372145Y-104707243D01*
X201367274Y-104705518D01*
X201362181Y-104704611D01*
X201362178Y-104704610D01*
X201152435Y-104667249D01*
X201152429Y-104667248D01*
X201147346Y-104666343D01*
X201073514Y-104665441D01*
X200929143Y-104663677D01*
X200929141Y-104663677D01*
X200923973Y-104663614D01*
X200703153Y-104697404D01*
X200490818Y-104766806D01*
X200460505Y-104782586D01*
X200305659Y-104863194D01*
X200292669Y-104869956D01*
X200288536Y-104873059D01*
X200288533Y-104873061D01*
X200118162Y-105000979D01*
X200114027Y-105004084D01*
X200110455Y-105007822D01*
X200002791Y-105120486D01*
X199959691Y-105165587D01*
X199852263Y-105323070D01*
X199797355Y-105368070D01*
X199726830Y-105376241D01*
X199663083Y-105344987D01*
X199642386Y-105320503D01*
X199561884Y-105196066D01*
X199561882Y-105196063D01*
X199559076Y-105191726D01*
X199408732Y-105026500D01*
X199404681Y-105023301D01*
X199404677Y-105023297D01*
X199237476Y-104891249D01*
X199237472Y-104891247D01*
X199233421Y-104888047D01*
X199224107Y-104882905D01*
X199146266Y-104839935D01*
X199037851Y-104780087D01*
X199032982Y-104778363D01*
X199032978Y-104778361D01*
X198832149Y-104707244D01*
X198832145Y-104707243D01*
X198827274Y-104705518D01*
X198822181Y-104704611D01*
X198822178Y-104704610D01*
X198612435Y-104667249D01*
X198612429Y-104667248D01*
X198607346Y-104666343D01*
X198533514Y-104665441D01*
X198389143Y-104663677D01*
X198389141Y-104663677D01*
X198383973Y-104663614D01*
X198163153Y-104697404D01*
X197950818Y-104766806D01*
X197920505Y-104782586D01*
X197765659Y-104863194D01*
X197752669Y-104869956D01*
X197748536Y-104873059D01*
X197748533Y-104873061D01*
X197578162Y-105000979D01*
X197574027Y-105004084D01*
X197500030Y-105081518D01*
X197493345Y-105088513D01*
X197431821Y-105123943D01*
X197360908Y-105120486D01*
X197303122Y-105079240D01*
X197284269Y-105045692D01*
X197242829Y-104935152D01*
X197239677Y-104926744D01*
X197152323Y-104810188D01*
X197035767Y-104722834D01*
X196899378Y-104671704D01*
X196837196Y-104664949D01*
X195040928Y-104664949D01*
X194978746Y-104671704D01*
X194842357Y-104722834D01*
X194725801Y-104810188D01*
X194638447Y-104926744D01*
X194587317Y-105063133D01*
X194580562Y-105125315D01*
X194580562Y-106921583D01*
X172103647Y-106921583D01*
X172103647Y-106900721D01*
X172103139Y-106896698D01*
X172102206Y-106884856D01*
X172101061Y-106848424D01*
X172100812Y-106840499D01*
X172095134Y-106820955D01*
X172091124Y-106801592D01*
X172089567Y-106789264D01*
X172089567Y-106789262D01*
X172088574Y-106781405D01*
X172085658Y-106774041D01*
X172085657Y-106774036D01*
X172072240Y-106740148D01*
X172068395Y-106728919D01*
X172059584Y-106698593D01*
X172056016Y-106686311D01*
X172051977Y-106679481D01*
X172045659Y-106668798D01*
X172036959Y-106651040D01*
X172032386Y-106639489D01*
X172032382Y-106639483D01*
X172029466Y-106632116D01*
X172003381Y-106596213D01*
X171996866Y-106586294D01*
X171978321Y-106554936D01*
X171978318Y-106554932D01*
X171974281Y-106548106D01*
X171959897Y-106533722D01*
X171947056Y-106518688D01*
X171939749Y-106508631D01*
X171935089Y-106502217D01*
X171900891Y-106473926D01*
X171892112Y-106465937D01*
X167031483Y-101605307D01*
X167023907Y-101596981D01*
X167019786Y-101590487D01*
X166969967Y-101543704D01*
X166967126Y-101540950D01*
X166947327Y-101521151D01*
X166944202Y-101518727D01*
X166944193Y-101518719D01*
X166944107Y-101518653D01*
X166935082Y-101510945D01*
X166908518Y-101486000D01*
X166902739Y-101480573D01*
X166884902Y-101470767D01*
X166868386Y-101459917D01*
X166852300Y-101447440D01*
X166811567Y-101429814D01*
X166800919Y-101424597D01*
X166776042Y-101410921D01*
X166762036Y-101403221D01*
X166754361Y-101401250D01*
X166754355Y-101401248D01*
X166742322Y-101398159D01*
X166723620Y-101391756D01*
X166704941Y-101383673D01*
X166665146Y-101377370D01*
X166661106Y-101376730D01*
X166649493Y-101374325D01*
X166606515Y-101363290D01*
X166586168Y-101363290D01*
X166566457Y-101361739D01*
X166554183Y-101359795D01*
X166546354Y-101358555D01*
X166538462Y-101359301D01*
X166502177Y-101362731D01*
X166490319Y-101363290D01*
X147783371Y-101363290D01*
X147772132Y-101362760D01*
X147764620Y-101361081D01*
X147756695Y-101361330D01*
X147756694Y-101361330D01*
X147696309Y-101363228D01*
X147692351Y-101363290D01*
X147664356Y-101363290D01*
X147660422Y-101363787D01*
X147660420Y-101363787D01*
X147660333Y-101363798D01*
X147648499Y-101364730D01*
X147604134Y-101366125D01*
X147596521Y-101368337D01*
X147596520Y-101368337D01*
X147584591Y-101371803D01*
X147565227Y-101375813D01*
X147552899Y-101377370D01*
X147552897Y-101377370D01*
X147545040Y-101378363D01*
X147537676Y-101381279D01*
X147537671Y-101381280D01*
X147503783Y-101394697D01*
X147492554Y-101398542D01*
X147476450Y-101403221D01*
X147449946Y-101410921D01*
X147443119Y-101414959D01*
X147443116Y-101414960D01*
X147432433Y-101421278D01*
X147414675Y-101429978D01*
X147403124Y-101434551D01*
X147403118Y-101434555D01*
X147395751Y-101437471D01*
X147389340Y-101442129D01*
X147389338Y-101442130D01*
X147359851Y-101463554D01*
X147349929Y-101470071D01*
X147318571Y-101488616D01*
X147318567Y-101488619D01*
X147311741Y-101492656D01*
X147297357Y-101507040D01*
X147282323Y-101519881D01*
X147265852Y-101531848D01*
X147260799Y-101537956D01*
X147237562Y-101566045D01*
X147229572Y-101574825D01*
X144386517Y-104417879D01*
X144378191Y-104425455D01*
X144371697Y-104429576D01*
X144366274Y-104435351D01*
X144324915Y-104479394D01*
X144322160Y-104482236D01*
X144302361Y-104502035D01*
X144299937Y-104505160D01*
X144299929Y-104505169D01*
X144299863Y-104505255D01*
X144292155Y-104514280D01*
X144261783Y-104546623D01*
X144257965Y-104553567D01*
X144257964Y-104553569D01*
X144251978Y-104564458D01*
X144241127Y-104580976D01*
X144228650Y-104597062D01*
X144211024Y-104637795D01*
X144205807Y-104648443D01*
X144184431Y-104687326D01*
X144182460Y-104695001D01*
X144182458Y-104695007D01*
X144179369Y-104707040D01*
X144172966Y-104725742D01*
X144164883Y-104744421D01*
X144163644Y-104752246D01*
X144157940Y-104788256D01*
X144155535Y-104799869D01*
X144144500Y-104842847D01*
X144144500Y-104863194D01*
X144142949Y-104882905D01*
X144139765Y-104903008D01*
X144140511Y-104910900D01*
X144143941Y-104947185D01*
X144144500Y-104959043D01*
X144144500Y-108458500D01*
X144124498Y-108526621D01*
X144070842Y-108573114D01*
X144018500Y-108584500D01*
X139779020Y-108584500D01*
X139767791Y-108583971D01*
X139760281Y-108582292D01*
X139752355Y-108582541D01*
X139752354Y-108582541D01*
X139692002Y-108584438D01*
X139688044Y-108584500D01*
X139660017Y-108584500D01*
X139655971Y-108585011D01*
X139644143Y-108585942D01*
X139599795Y-108587336D01*
X139592178Y-108589549D01*
X139580253Y-108593013D01*
X139560894Y-108597022D01*
X139559633Y-108597181D01*
X139540701Y-108599573D01*
X139533337Y-108602489D01*
X139533332Y-108602490D01*
X139511421Y-108611166D01*
X139499428Y-108615914D01*
X139488224Y-108619751D01*
X139445607Y-108632132D01*
X139428094Y-108642489D01*
X139410343Y-108651185D01*
X139398785Y-108655761D01*
X139398780Y-108655764D01*
X139391412Y-108658681D01*
X139384997Y-108663342D01*
X139355507Y-108684767D01*
X139345585Y-108691284D01*
X139314228Y-108709828D01*
X139314225Y-108709830D01*
X139307401Y-108713866D01*
X139293014Y-108728253D01*
X139277980Y-108741094D01*
X139261513Y-108753058D01*
X139256460Y-108759166D01*
X139233228Y-108787249D01*
X139225238Y-108796029D01*
X137008177Y-111013090D01*
X136945865Y-111047116D01*
X136919082Y-111049995D01*
X102267970Y-111049995D01*
X102199849Y-111029993D01*
X102153356Y-110976337D01*
X102142394Y-110934319D01*
X102131379Y-110800346D01*
X102126407Y-110739865D01*
X102071986Y-110523206D01*
X101982909Y-110318344D01*
X101861569Y-110130781D01*
X101711225Y-109965555D01*
X101707174Y-109962356D01*
X101707170Y-109962352D01*
X101539969Y-109830304D01*
X101539965Y-109830302D01*
X101535914Y-109827102D01*
X101519832Y-109818224D01*
X101444536Y-109776659D01*
X101340344Y-109719142D01*
X101335475Y-109717418D01*
X101335471Y-109717416D01*
X101134642Y-109646299D01*
X101134638Y-109646298D01*
X101129767Y-109644573D01*
X101124674Y-109643666D01*
X101124671Y-109643665D01*
X100914928Y-109606304D01*
X100914922Y-109606303D01*
X100909839Y-109605398D01*
X100836007Y-109604496D01*
X100691636Y-109602732D01*
X100691634Y-109602732D01*
X100686466Y-109602669D01*
X100465646Y-109636459D01*
X100253311Y-109705861D01*
X100194220Y-109736622D01*
X100082788Y-109794630D01*
X100055162Y-109809011D01*
X100051029Y-109812114D01*
X100051026Y-109812116D01*
X99880655Y-109940034D01*
X99876520Y-109943139D01*
X99872948Y-109946877D01*
X99736018Y-110090166D01*
X99722184Y-110104642D01*
X99614756Y-110262125D01*
X99559848Y-110307125D01*
X99489323Y-110315296D01*
X99425576Y-110284042D01*
X99404879Y-110259558D01*
X99324377Y-110135121D01*
X99324375Y-110135118D01*
X99321569Y-110130781D01*
X99171225Y-109965555D01*
X99167174Y-109962356D01*
X99167170Y-109962352D01*
X98999969Y-109830304D01*
X98999965Y-109830302D01*
X98995914Y-109827102D01*
X98979832Y-109818224D01*
X98904536Y-109776659D01*
X98800344Y-109719142D01*
X98795475Y-109717418D01*
X98795471Y-109717416D01*
X98594642Y-109646299D01*
X98594638Y-109646298D01*
X98589767Y-109644573D01*
X98584674Y-109643666D01*
X98584671Y-109643665D01*
X98374928Y-109606304D01*
X98374922Y-109606303D01*
X98369839Y-109605398D01*
X98296007Y-109604496D01*
X98151636Y-109602732D01*
X98151634Y-109602732D01*
X98146466Y-109602669D01*
X97925646Y-109636459D01*
X97713311Y-109705861D01*
X97654220Y-109736622D01*
X97542788Y-109794630D01*
X97515162Y-109809011D01*
X97511029Y-109812114D01*
X97511026Y-109812116D01*
X97340655Y-109940034D01*
X97336520Y-109943139D01*
X97275267Y-110007237D01*
X97255838Y-110027568D01*
X97194314Y-110062998D01*
X97123401Y-110059541D01*
X97065615Y-110018295D01*
X97046762Y-109984747D01*
X97005322Y-109874207D01*
X97002170Y-109865799D01*
X96914816Y-109749243D01*
X96798260Y-109661889D01*
X96661871Y-109610759D01*
X96599689Y-109604004D01*
X94803421Y-109604004D01*
X94741239Y-109610759D01*
X94604850Y-109661889D01*
X94488294Y-109749243D01*
X94400940Y-109865799D01*
X94349810Y-110002188D01*
X94343055Y-110064370D01*
X94343055Y-111860638D01*
X91116827Y-111860638D01*
X91305522Y-110996777D01*
X91306459Y-110992801D01*
X91457769Y-110393916D01*
X91610238Y-109790447D01*
X91611285Y-109786564D01*
X91611954Y-109784237D01*
X91878367Y-108856472D01*
X91953357Y-108595324D01*
X91954527Y-108591483D01*
X92178757Y-107895072D01*
X92334350Y-107411833D01*
X92335624Y-107408080D01*
X92336636Y-107405246D01*
X92752690Y-106240414D01*
X92754045Y-106236800D01*
X93207853Y-105081487D01*
X93209319Y-105077919D01*
X93232747Y-105023297D01*
X93699311Y-103935480D01*
X93700877Y-103931976D01*
X93809462Y-103698729D01*
X94226577Y-102802739D01*
X94228228Y-102799329D01*
X94249669Y-102756684D01*
X94789080Y-101683791D01*
X94790815Y-101680464D01*
X95386347Y-100578968D01*
X95388157Y-100575735D01*
X96017834Y-99488737D01*
X96019713Y-99485600D01*
X96683003Y-98413557D01*
X96684945Y-98410516D01*
X97381343Y-97353830D01*
X97383344Y-97350886D01*
X98112306Y-96310030D01*
X98114360Y-96307181D01*
X98875422Y-95282502D01*
X98877526Y-95279749D01*
X99196447Y-94874156D01*
X99670158Y-94271704D01*
X99672298Y-94269059D01*
X100011345Y-93861150D01*
X100455479Y-93326809D01*
X100464009Y-93318619D01*
X100463601Y-93318219D01*
X100469885Y-93311813D01*
X100477017Y-93306359D01*
X100492759Y-93284927D01*
X100509262Y-93262457D01*
X100513916Y-93256504D01*
X100521794Y-93247025D01*
X100521795Y-93247023D01*
X100524658Y-93243579D01*
X100529800Y-93235214D01*
X100535587Y-93226615D01*
X100557926Y-93196201D01*
X100557927Y-93196198D01*
X100563241Y-93188964D01*
X100566310Y-93180531D01*
X100566919Y-93179392D01*
X100576417Y-93159736D01*
X100576924Y-93158565D01*
X100581626Y-93150918D01*
X100593941Y-93105846D01*
X100597082Y-93095968D01*
X100607346Y-93067764D01*
X100613051Y-93052088D01*
X100613630Y-93043125D01*
X100613894Y-93041867D01*
X100617491Y-93020357D01*
X100617652Y-93019069D01*
X100620018Y-93010411D01*
X100619189Y-92963709D01*
X100619431Y-92953352D01*
X100621864Y-92915694D01*
X100622443Y-92906734D01*
X100620484Y-92897972D01*
X100620384Y-92896689D01*
X100617797Y-92875027D01*
X100617591Y-92873753D01*
X100617432Y-92864777D01*
X100614760Y-92856206D01*
X100603528Y-92820181D01*
X100600853Y-92810170D01*
X100592619Y-92773342D01*
X100592618Y-92773340D01*
X100590661Y-92764586D01*
X100586324Y-92756730D01*
X100585870Y-92755532D01*
X100577291Y-92735431D01*
X100576748Y-92734292D01*
X100574076Y-92725721D01*
X100569109Y-92718249D01*
X100569106Y-92718244D01*
X100548213Y-92686818D01*
X100542837Y-92677964D01*
X100538921Y-92670872D01*
X100536567Y-92666608D01*
X100526681Y-92653842D01*
X100521376Y-92646455D01*
X100508102Y-92626488D01*
X100493433Y-92604424D01*
X100486561Y-92598640D01*
X100480584Y-92591948D01*
X100480625Y-92591911D01*
X100470805Y-92581683D01*
X100280661Y-92336138D01*
X100269879Y-92319712D01*
X100262898Y-92307019D01*
X100262897Y-92307018D01*
X100258572Y-92299154D01*
X100231613Y-92272298D01*
X100229492Y-92270060D01*
X100227771Y-92267838D01*
X100205034Y-92245807D01*
X100203938Y-92244730D01*
X100155378Y-92196357D01*
X100152229Y-92194641D01*
X100149654Y-92192146D01*
X100142695Y-92188477D01*
X100142693Y-92188476D01*
X100089069Y-92160208D01*
X100087533Y-92159384D01*
X100027480Y-92126657D01*
X100023978Y-92125894D01*
X100020804Y-92124221D01*
X99953730Y-92110578D01*
X99952028Y-92110220D01*
X99935562Y-92106633D01*
X99885160Y-92095653D01*
X99881584Y-92095904D01*
X99878070Y-92095189D01*
X99834454Y-92098854D01*
X99809778Y-92100927D01*
X99808042Y-92101060D01*
X99799086Y-92101688D01*
X99773516Y-92103481D01*
X99770761Y-92104110D01*
X99767766Y-92104457D01*
X99741867Y-92106633D01*
X99741864Y-92106634D01*
X99732923Y-92107385D01*
X99724549Y-92110617D01*
X99724548Y-92110617D01*
X99707363Y-92117249D01*
X99690045Y-92122538D01*
X99379162Y-92193515D01*
X98892998Y-92304510D01*
X98822134Y-92300172D01*
X98813580Y-92296722D01*
X98387873Y-92106633D01*
X98041139Y-91951807D01*
X98035144Y-91948937D01*
X97984635Y-91923081D01*
X97975821Y-91921398D01*
X97975820Y-91921398D01*
X97959087Y-91918204D01*
X97940873Y-91914726D01*
X97929965Y-91912136D01*
X97887116Y-91899920D01*
X97877835Y-91899983D01*
X97876484Y-91899992D01*
X97852009Y-91897761D01*
X97841562Y-91895766D01*
X97815693Y-91898253D01*
X97797208Y-91900030D01*
X97786004Y-91900605D01*
X97750442Y-91900846D01*
X97750441Y-91900846D01*
X97741462Y-91900907D01*
X97731279Y-91903960D01*
X97707153Y-91908688D01*
X97705506Y-91908846D01*
X97705504Y-91908847D01*
X97696573Y-91909705D01*
X97688240Y-91913037D01*
X97688238Y-91913037D01*
X97655196Y-91926247D01*
X97644625Y-91929937D01*
X97601939Y-91942733D01*
X97594409Y-91947620D01*
X97594406Y-91947622D01*
X97550917Y-91975851D01*
X97546545Y-91978564D01*
X97335574Y-92103538D01*
X97023528Y-92288387D01*
X96981475Y-92304015D01*
X96212791Y-92441376D01*
X96177768Y-92442683D01*
X95403172Y-92363225D01*
X95360203Y-92350840D01*
X94811042Y-92079429D01*
X94807690Y-92077710D01*
X94758484Y-92051532D01*
X94758483Y-92051532D01*
X94750559Y-92047316D01*
X94741772Y-92045494D01*
X94741769Y-92045493D01*
X94714189Y-92039775D01*
X94700521Y-92036130D01*
X94673746Y-92027353D01*
X94665217Y-92024557D01*
X94656248Y-92024268D01*
X94656245Y-92024267D01*
X94648847Y-92024029D01*
X94647150Y-92023974D01*
X94625639Y-92021417D01*
X94607935Y-92017746D01*
X94598994Y-92018463D01*
X94598991Y-92018463D01*
X94570893Y-92020717D01*
X94556755Y-92021054D01*
X94544012Y-92020643D01*
X94519635Y-92019856D01*
X94452329Y-92037200D01*
X94450218Y-92037724D01*
X93825565Y-92186964D01*
X93770552Y-92187757D01*
X93026849Y-92032593D01*
X93014823Y-92028665D01*
X93014716Y-92029033D01*
X93006102Y-92026522D01*
X92997923Y-92022812D01*
X92959974Y-92017410D01*
X92945414Y-92015337D01*
X92937440Y-92013939D01*
X92926663Y-92011691D01*
X92926657Y-92011690D01*
X92922261Y-92010773D01*
X92911068Y-92010062D01*
X92901299Y-92009057D01*
X92878734Y-92005845D01*
X92862607Y-92003549D01*
X92862605Y-92003549D01*
X92853719Y-92002284D01*
X92844834Y-92003564D01*
X92839778Y-92003568D01*
X92827686Y-92004049D01*
X92822663Y-92004446D01*
X92813708Y-92003877D01*
X92804952Y-92005845D01*
X92804948Y-92005845D01*
X92766801Y-92014418D01*
X92757140Y-92016197D01*
X92754101Y-92016635D01*
X92742944Y-92018242D01*
X92738299Y-92019666D01*
X92738292Y-92019668D01*
X92728784Y-92022584D01*
X92719466Y-92025055D01*
X92671594Y-92035813D01*
X92663734Y-92040164D01*
X92658196Y-92042269D01*
X92641572Y-92049327D01*
X92076407Y-92222632D01*
X92054893Y-92227219D01*
X91471939Y-92299086D01*
X91444246Y-92299433D01*
X90847361Y-92240962D01*
X90429112Y-92199990D01*
X90389127Y-92189237D01*
X89819437Y-91929506D01*
X89765751Y-91883047D01*
X89761989Y-91876811D01*
X89740349Y-91838486D01*
X89704457Y-91774920D01*
X89688380Y-91705770D01*
X89702012Y-91655562D01*
X89766273Y-91530011D01*
X89817646Y-91477053D01*
X90373179Y-91171072D01*
X90412389Y-91157301D01*
X91414248Y-90983184D01*
X91423575Y-90981563D01*
X91445150Y-90979702D01*
X91729612Y-90979702D01*
X91739496Y-90980090D01*
X91787767Y-90983888D01*
X91839277Y-90973127D01*
X91847124Y-90971746D01*
X91899242Y-90964282D01*
X91907415Y-90960566D01*
X91914545Y-90958481D01*
X91921553Y-90955937D01*
X91930347Y-90954100D01*
X91976773Y-90929309D01*
X91983947Y-90925768D01*
X91997551Y-90919583D01*
X92031837Y-90903994D01*
X92038639Y-90898133D01*
X92044912Y-90894121D01*
X92050915Y-90889719D01*
X92058834Y-90885491D01*
X92096413Y-90848690D01*
X92102324Y-90843259D01*
X92135378Y-90814778D01*
X92135379Y-90814777D01*
X92142182Y-90808915D01*
X92147065Y-90801380D01*
X92151958Y-90795772D01*
X92156486Y-90789860D01*
X92162900Y-90783579D01*
X92172896Y-90765766D01*
X92188638Y-90737714D01*
X92192787Y-90730842D01*
X92216526Y-90694218D01*
X92216527Y-90694216D01*
X92221407Y-90686687D01*
X92236422Y-90636480D01*
X92239079Y-90628562D01*
X92401273Y-90193577D01*
X92508112Y-89907048D01*
X92540968Y-89858247D01*
X92994667Y-89441797D01*
X93046099Y-89413231D01*
X93725384Y-89224252D01*
X93759155Y-89219642D01*
X93777547Y-89219642D01*
X93780995Y-89219689D01*
X93846600Y-89221485D01*
X93855282Y-89219202D01*
X93855283Y-89219202D01*
X93881744Y-89212244D01*
X93895925Y-89209374D01*
X93923016Y-89205495D01*
X93923019Y-89205494D01*
X93931902Y-89204222D01*
X93949099Y-89196403D01*
X93969199Y-89189249D01*
X93987469Y-89184445D01*
X94018607Y-89165712D01*
X94031406Y-89158980D01*
X94056331Y-89147647D01*
X94064497Y-89143934D01*
X94071292Y-89138079D01*
X94071295Y-89138077D01*
X94078804Y-89131606D01*
X94096100Y-89119090D01*
X94104593Y-89113981D01*
X94104595Y-89113980D01*
X94112280Y-89109356D01*
X94118358Y-89102762D01*
X94118363Y-89102758D01*
X94136912Y-89082634D01*
X94147306Y-89072582D01*
X94174842Y-89048855D01*
X94213349Y-88989448D01*
X94214365Y-88987907D01*
X94540764Y-88500672D01*
X94650518Y-88336836D01*
X94688826Y-88299862D01*
X94845498Y-88202766D01*
X95358199Y-87885024D01*
X95399342Y-87868677D01*
X96329906Y-87678495D01*
X96367333Y-87676535D01*
X96913947Y-87729726D01*
X97151538Y-87752846D01*
X97165745Y-87755053D01*
X97201842Y-87762791D01*
X97265609Y-87758108D01*
X97269102Y-87757901D01*
X97307739Y-87756152D01*
X97324010Y-87755415D01*
X97324011Y-87755415D01*
X97332975Y-87755009D01*
X97339858Y-87752654D01*
X97347108Y-87752121D01*
X97407045Y-87729710D01*
X97410271Y-87728555D01*
X97470786Y-87707846D01*
X97504167Y-87684306D01*
X97515022Y-87677451D01*
X98041256Y-87381526D01*
X98068031Y-87370306D01*
X98665802Y-87197536D01*
X98666162Y-87197433D01*
X98748080Y-87174021D01*
X98772237Y-87158779D01*
X98787679Y-87150478D01*
X98791772Y-87148632D01*
X98813734Y-87138730D01*
X98833998Y-87121379D01*
X98848710Y-87110528D01*
X98854605Y-87106808D01*
X98863676Y-87101086D01*
X98863679Y-87101084D01*
X98871267Y-87096296D01*
X98890183Y-87074878D01*
X98902667Y-87062584D01*
X98924376Y-87043996D01*
X98929280Y-87036481D01*
X98929284Y-87036477D01*
X98938956Y-87021656D01*
X98950027Y-87007117D01*
X98967687Y-86987121D01*
X98979831Y-86961256D01*
X98988366Y-86945947D01*
X98999076Y-86929536D01*
X99003983Y-86922017D01*
X99011708Y-86896478D01*
X99018257Y-86879409D01*
X99029590Y-86855272D01*
X99033985Y-86827043D01*
X99037882Y-86809946D01*
X99046155Y-86782598D01*
X99046476Y-86747886D01*
X99046539Y-86746420D01*
X99046809Y-86744686D01*
X99046809Y-86712402D01*
X99046814Y-86711235D01*
X99046901Y-86701840D01*
X99047528Y-86690408D01*
X99049622Y-86669576D01*
X99150893Y-85661891D01*
X99157942Y-85631171D01*
X99170533Y-85596784D01*
X99485973Y-84735249D01*
X99499993Y-84707876D01*
X99668360Y-84459480D01*
X100029097Y-83927277D01*
X100049075Y-83904347D01*
X100749843Y-83273296D01*
X100775035Y-83255662D01*
X101617577Y-82807998D01*
X101647043Y-82796806D01*
X102605271Y-82564774D01*
X102636774Y-82561249D01*
X103622587Y-82575718D01*
X103653798Y-82580119D01*
X104574448Y-82830454D01*
X104602921Y-82842085D01*
X105349721Y-83260007D01*
X105425853Y-83302612D01*
X105450411Y-83320564D01*
X106138983Y-83964889D01*
X106158708Y-83988487D01*
X106676669Y-84789723D01*
X106690336Y-84818125D01*
X106962538Y-85631171D01*
X107023452Y-85813118D01*
X107025348Y-85819309D01*
X107040721Y-85874504D01*
X107045462Y-85882131D01*
X107045462Y-85882132D01*
X107063945Y-85911869D01*
X107069531Y-85921838D01*
X107089278Y-85961169D01*
X107095396Y-85967739D01*
X107095397Y-85967740D01*
X107096904Y-85969358D01*
X107111709Y-85988714D01*
X107112311Y-85989682D01*
X107117613Y-85998212D01*
X107124303Y-86004201D01*
X107150387Y-86027553D01*
X107158553Y-86035560D01*
X107188543Y-86067765D01*
X107196259Y-86072353D01*
X107196262Y-86072356D01*
X107198164Y-86073487D01*
X107217796Y-86087901D01*
X107226135Y-86095367D01*
X107234238Y-86099238D01*
X107234239Y-86099239D01*
X107265838Y-86114336D01*
X107275911Y-86119723D01*
X107313735Y-86142216D01*
X107324576Y-86145008D01*
X107347463Y-86153333D01*
X107357563Y-86158158D01*
X107366418Y-86159598D01*
X107366421Y-86159599D01*
X107400975Y-86165218D01*
X107412169Y-86167564D01*
X107454791Y-86178539D01*
X107463762Y-86178247D01*
X107463767Y-86178248D01*
X107465974Y-86178176D01*
X107490301Y-86179744D01*
X107501332Y-86181538D01*
X107510234Y-86180435D01*
X107510237Y-86180435D01*
X107534297Y-86177453D01*
X107544994Y-86176128D01*
X107556393Y-86175238D01*
X107600372Y-86173810D01*
X107608901Y-86171012D01*
X107608903Y-86171012D01*
X107658743Y-86154664D01*
X107663466Y-86153217D01*
X108025000Y-86050141D01*
X108033336Y-86048068D01*
X108043701Y-86045864D01*
X108083982Y-86037297D01*
X108102074Y-86027553D01*
X108127404Y-86013910D01*
X108135777Y-86009793D01*
X108172616Y-85993343D01*
X108172617Y-85993342D01*
X108180814Y-85989682D01*
X108187653Y-85983869D01*
X108187658Y-85983866D01*
X108223334Y-85953542D01*
X108228803Y-85949150D01*
X109139889Y-85258686D01*
X109141904Y-85257191D01*
X109517998Y-84984124D01*
X110081302Y-84575132D01*
X110083312Y-84573704D01*
X110891604Y-84011561D01*
X111041038Y-83907634D01*
X111043137Y-83906205D01*
X112018983Y-83256310D01*
X112021093Y-83254935D01*
X113014647Y-82621542D01*
X113016767Y-82620220D01*
X114027776Y-82003551D01*
X114029906Y-82002280D01*
X115058021Y-81402621D01*
X115060161Y-81401401D01*
X115746807Y-81018695D01*
X116105038Y-80819033D01*
X116107166Y-80817874D01*
X116111562Y-80815535D01*
X116635122Y-80536908D01*
X117168450Y-80253083D01*
X117170607Y-80251962D01*
X118247922Y-79705042D01*
X118250086Y-79703969D01*
X119018566Y-79332191D01*
X119343252Y-79175114D01*
X119345370Y-79174114D01*
X120453982Y-78663636D01*
X120456153Y-78662662D01*
X121579746Y-78170894D01*
X121581875Y-78169985D01*
X122720270Y-77697129D01*
X122722463Y-77696243D01*
X122944770Y-77608762D01*
X146507943Y-77608762D01*
X146508240Y-77613915D01*
X146508240Y-77613918D01*
X146520504Y-77826614D01*
X146520802Y-77831782D01*
X146521939Y-77836828D01*
X146521940Y-77836834D01*
X146541811Y-77925006D01*
X146569914Y-78049706D01*
X146608153Y-78143878D01*
X146646498Y-78238310D01*
X146653958Y-78256683D01*
X146704711Y-78339505D01*
X146767983Y-78442755D01*
X146770679Y-78447155D01*
X146916942Y-78616005D01*
X147088818Y-78758699D01*
X147281692Y-78871405D01*
X147490384Y-78951097D01*
X147495452Y-78952128D01*
X147495455Y-78952129D01*
X147602709Y-78973950D01*
X147709289Y-78995634D01*
X147714464Y-78995824D01*
X147714466Y-78995824D01*
X147927365Y-79003631D01*
X147927369Y-79003631D01*
X147932529Y-79003820D01*
X147937649Y-79003164D01*
X147937651Y-79003164D01*
X148148980Y-78976092D01*
X148148981Y-78976092D01*
X148154108Y-78975435D01*
X148159058Y-78973950D01*
X148363121Y-78912728D01*
X148363126Y-78912726D01*
X148368076Y-78911241D01*
X148568686Y-78812963D01*
X148750552Y-78683240D01*
X148825510Y-78608544D01*
X148905127Y-78529204D01*
X148908788Y-78525556D01*
X148968286Y-78442756D01*
X149039145Y-78344144D01*
X149040468Y-78345095D01*
X149087337Y-78301924D01*
X149157272Y-78289692D01*
X149222718Y-78317211D01*
X149250567Y-78349061D01*
X149258094Y-78361344D01*
X149310679Y-78447155D01*
X149456942Y-78616005D01*
X149628818Y-78758699D01*
X149821692Y-78871405D01*
X150030384Y-78951097D01*
X150035452Y-78952128D01*
X150035455Y-78952129D01*
X150142709Y-78973950D01*
X150249289Y-78995634D01*
X150254464Y-78995824D01*
X150254466Y-78995824D01*
X150467365Y-79003631D01*
X150467369Y-79003631D01*
X150472529Y-79003820D01*
X150477649Y-79003164D01*
X150477651Y-79003164D01*
X150688980Y-78976092D01*
X150688981Y-78976092D01*
X150694108Y-78975435D01*
X150699058Y-78973950D01*
X150903121Y-78912728D01*
X150903126Y-78912726D01*
X150908076Y-78911241D01*
X151108686Y-78812963D01*
X151290552Y-78683240D01*
X151365510Y-78608544D01*
X151445127Y-78529204D01*
X151448788Y-78525556D01*
X151508286Y-78442756D01*
X151576127Y-78348344D01*
X151579145Y-78344144D01*
X151600012Y-78301924D01*
X151675828Y-78148520D01*
X151675829Y-78148518D01*
X151678122Y-78143878D01*
X151738648Y-77944665D01*
X151741557Y-77935090D01*
X151741557Y-77935088D01*
X151743062Y-77930136D01*
X151772221Y-77708657D01*
X151773848Y-77642067D01*
X151755544Y-77419428D01*
X151701123Y-77202769D01*
X151612046Y-76997907D01*
X151559728Y-76917035D01*
X151493514Y-76814684D01*
X151493512Y-76814681D01*
X151490706Y-76810344D01*
X151340362Y-76645118D01*
X151336311Y-76641919D01*
X151336307Y-76641915D01*
X151169106Y-76509867D01*
X151169102Y-76509865D01*
X151165051Y-76506665D01*
X150969481Y-76398705D01*
X150964612Y-76396981D01*
X150964608Y-76396979D01*
X150763779Y-76325862D01*
X150763775Y-76325861D01*
X150758904Y-76324136D01*
X150753811Y-76323229D01*
X150753808Y-76323228D01*
X150544065Y-76285867D01*
X150544059Y-76285866D01*
X150538976Y-76284961D01*
X150465144Y-76284059D01*
X150320773Y-76282295D01*
X150320771Y-76282295D01*
X150315603Y-76282232D01*
X150094783Y-76316022D01*
X149882448Y-76385424D01*
X149684299Y-76488574D01*
X149680166Y-76491677D01*
X149680163Y-76491679D01*
X149655939Y-76509867D01*
X149505657Y-76622702D01*
X149502085Y-76626440D01*
X149366966Y-76767834D01*
X149351321Y-76784205D01*
X149243893Y-76941688D01*
X149188985Y-76986688D01*
X149118460Y-76994859D01*
X149054713Y-76963605D01*
X149034016Y-76939121D01*
X148953514Y-76814684D01*
X148953512Y-76814681D01*
X148950706Y-76810344D01*
X148800362Y-76645118D01*
X148796311Y-76641919D01*
X148796307Y-76641915D01*
X148629106Y-76509867D01*
X148629102Y-76509865D01*
X148625051Y-76506665D01*
X148429481Y-76398705D01*
X148424612Y-76396981D01*
X148424608Y-76396979D01*
X148223779Y-76325862D01*
X148223775Y-76325861D01*
X148218904Y-76324136D01*
X148213811Y-76323229D01*
X148213808Y-76323228D01*
X148004065Y-76285867D01*
X148004059Y-76285866D01*
X147998976Y-76284961D01*
X147925144Y-76284059D01*
X147780773Y-76282295D01*
X147780771Y-76282295D01*
X147775603Y-76282232D01*
X147554783Y-76316022D01*
X147342448Y-76385424D01*
X147144299Y-76488574D01*
X147140166Y-76491677D01*
X147140163Y-76491679D01*
X147115939Y-76509867D01*
X146965657Y-76622702D01*
X146962085Y-76626440D01*
X146826966Y-76767834D01*
X146811321Y-76784205D01*
X146685435Y-76968747D01*
X146591380Y-77171372D01*
X146531681Y-77386637D01*
X146507943Y-77608762D01*
X122944770Y-77608762D01*
X123875168Y-77242637D01*
X123877369Y-77241794D01*
X125044239Y-76807634D01*
X125046446Y-76806836D01*
X125959958Y-76486185D01*
X126227024Y-76392442D01*
X126229233Y-76391690D01*
X127423230Y-75997319D01*
X127425449Y-75996609D01*
X128632526Y-75622533D01*
X128634752Y-75621866D01*
X129854391Y-75268411D01*
X129856622Y-75267786D01*
X131088842Y-74935119D01*
X131091079Y-74934537D01*
X131984491Y-74710838D01*
X132335351Y-74622988D01*
X132337558Y-74622457D01*
X133593467Y-74332315D01*
X133595672Y-74331827D01*
X133970785Y-74252356D01*
X134863003Y-74063334D01*
X134865255Y-74062878D01*
X136143672Y-73816305D01*
X136145929Y-73815891D01*
X137435032Y-73591523D01*
X137437293Y-73591151D01*
X138736672Y-73389270D01*
X138738937Y-73388939D01*
X140048477Y-73209779D01*
X140050746Y-73209489D01*
X140318010Y-73177855D01*
X141369933Y-73053348D01*
X141372183Y-73053102D01*
X142036086Y-72986710D01*
X142700825Y-72920234D01*
X142703100Y-72920028D01*
X144040685Y-72810719D01*
X144042963Y-72810553D01*
X144884876Y-72757092D01*
X145389296Y-72725062D01*
X145391532Y-72724940D01*
X146290643Y-72684190D01*
X146746228Y-72663541D01*
X146748510Y-72663459D01*
X148111167Y-72626422D01*
X148113449Y-72626380D01*
X149471696Y-72614084D01*
X149478299Y-72614197D01*
G37*
%TD.AperFunction*%
%TD*%
M02*
