%TF.GenerationSoftware,KiCad,Pcbnew,(6.0.4-0)*%
%TF.CreationDate,2022-04-25T17:13:00-04:00*%
%TF.ProjectId,sky_base,736b795f-6261-4736-952e-6b696361645f,rev?*%
%TF.SameCoordinates,Original*%
%TF.FileFunction,Copper,L1,Top*%
%TF.FilePolarity,Positive*%
%FSLAX46Y46*%
G04 Gerber Fmt 4.6, Leading zero omitted, Abs format (unit mm)*
G04 Created by KiCad (PCBNEW (6.0.4-0)) date 2022-04-25 17:13:00*
%MOMM*%
%LPD*%
G01*
G04 APERTURE LIST*
%TA.AperFunction,ComponentPad*%
%ADD10R,1.700000X1.700000*%
%TD*%
%TA.AperFunction,ComponentPad*%
%ADD11O,1.700000X1.700000*%
%TD*%
%TA.AperFunction,ComponentPad*%
%ADD12C,1.700000*%
%TD*%
G04 APERTURE END LIST*
D10*
%TO.P,J1,1,Pin_1*%
%TO.N,VCC*%
X109140692Y-115642067D03*
D11*
%TO.P,J1,2,Pin_2*%
%TO.N,GND*%
X111680692Y-115642067D03*
%TO.P,J1,3,Pin_3*%
%TO.N,Net-(J1-Pad3)*%
X147870692Y-77642067D03*
D12*
%TO.P,J1,4,Pin_4*%
%TO.N,Net-(J1-Pad4)*%
X150410692Y-77642067D03*
D11*
%TO.P,J1,5,Pin_5*%
%TO.N,Net-(J1-Pad5)*%
X186600692Y-115642067D03*
%TO.P,J1,6,Pin_6*%
%TO.N,Net-(J1-Pad6)*%
X189140692Y-115642067D03*
%TD*%
D10*
%TO.P,J2,1,Pin_1*%
%TO.N,VCC*%
X124140692Y-115642067D03*
D11*
%TO.P,J2,2,Pin_2*%
%TO.N,GND*%
X126680692Y-115642067D03*
%TO.P,J2,3,Pin_3*%
%TO.N,Net-(J1-Pad3)*%
X147870692Y-103642067D03*
D12*
%TO.P,J2,4,Pin_4*%
%TO.N,Net-(J1-Pad4)*%
X150410692Y-103642067D03*
D11*
%TO.P,J2,5,Pin_5*%
%TO.N,Net-(J1-Pad5)*%
X171600692Y-115642067D03*
%TO.P,J2,6,Pin_6*%
%TO.N,Net-(J1-Pad6)*%
X174140692Y-115642067D03*
%TD*%
%TA.AperFunction,Conductor*%
%TO.N,GND*%
G36*
X149302112Y-75680158D02*
G01*
X149339566Y-75682941D01*
X149339568Y-75682941D01*
X149348520Y-75683606D01*
X149357298Y-75681732D01*
X149366252Y-75681122D01*
X149366278Y-75681497D01*
X149378927Y-75680224D01*
X150058688Y-75686931D01*
X150639805Y-75692665D01*
X150642293Y-75692714D01*
X151959115Y-75731719D01*
X151961599Y-75731817D01*
X153269911Y-75796433D01*
X153272330Y-75796576D01*
X154571757Y-75886478D01*
X154574135Y-75886666D01*
X155434455Y-75963265D01*
X155864285Y-76001535D01*
X155866758Y-76001780D01*
X157147113Y-76141272D01*
X157149580Y-76141566D01*
X158419905Y-76305373D01*
X158422366Y-76305715D01*
X158886420Y-76374883D01*
X159682354Y-76493519D01*
X159684705Y-76493893D01*
X160600592Y-76648937D01*
X160933985Y-76705375D01*
X160936433Y-76705815D01*
X162174480Y-76940626D01*
X162176921Y-76941114D01*
X163403427Y-77198937D01*
X163405860Y-77199474D01*
X164620471Y-77479989D01*
X164622897Y-77480574D01*
X165825352Y-77783481D01*
X165827769Y-77784116D01*
X166343642Y-77925006D01*
X166982781Y-78099561D01*
X167017426Y-78109023D01*
X167019828Y-78109704D01*
X167119019Y-78138924D01*
X168196681Y-78456386D01*
X168199081Y-78457119D01*
X168753235Y-78632430D01*
X169362519Y-78825182D01*
X169364879Y-78825955D01*
X170514543Y-79215077D01*
X170516871Y-79215892D01*
X171048726Y-79407859D01*
X171595314Y-79605145D01*
X171609313Y-79611931D01*
X171616667Y-79615164D01*
X171624289Y-79619905D01*
X171672216Y-79633271D01*
X171681130Y-79636118D01*
X171692765Y-79640318D01*
X171706887Y-79643242D01*
X171715186Y-79645256D01*
X171749386Y-79654794D01*
X171764592Y-79659035D01*
X171773569Y-79658923D01*
X171782016Y-79660025D01*
X171790490Y-79660550D01*
X171799279Y-79662370D01*
X171808224Y-79661650D01*
X171808228Y-79661650D01*
X171850429Y-79658252D01*
X171858958Y-79657855D01*
X171868759Y-79657733D01*
X171871635Y-79657697D01*
X171871636Y-79657697D01*
X171876502Y-79657636D01*
X171887990Y-79655700D01*
X171898810Y-79654356D01*
X171935518Y-79651400D01*
X171935521Y-79651399D01*
X171944466Y-79650679D01*
X171953861Y-79647091D01*
X171977869Y-79640552D01*
X172147693Y-79611931D01*
X172684432Y-79521472D01*
X172698508Y-79519907D01*
X173081991Y-79498986D01*
X173485298Y-79476983D01*
X173503826Y-79477338D01*
X174610233Y-79580303D01*
X174838321Y-79601529D01*
X174863391Y-79606464D01*
X175143685Y-79691921D01*
X175935351Y-79933288D01*
X175965646Y-79947127D01*
X176268842Y-80137669D01*
X176663102Y-80385441D01*
X176701209Y-80422702D01*
X177047974Y-80947945D01*
X177059582Y-80970003D01*
X177059954Y-80970919D01*
X177063329Y-80979238D01*
X177091822Y-81015212D01*
X177098188Y-81024005D01*
X177102952Y-81031220D01*
X177115037Y-81044840D01*
X177119561Y-81050235D01*
X177153765Y-81093420D01*
X177161093Y-81098612D01*
X177165060Y-81102373D01*
X177169188Y-81105870D01*
X177175144Y-81112582D01*
X177182744Y-81117353D01*
X177182748Y-81117356D01*
X177221813Y-81141878D01*
X177227670Y-81145786D01*
X177272612Y-81177630D01*
X177281093Y-81180553D01*
X177285912Y-81183027D01*
X177290905Y-81185246D01*
X177298511Y-81190021D01*
X177341632Y-81202237D01*
X177351521Y-81205039D01*
X177358229Y-81207143D01*
X177410318Y-81225099D01*
X177419285Y-81225525D01*
X177424627Y-81226551D01*
X177430016Y-81227277D01*
X177438653Y-81229723D01*
X177470438Y-81229455D01*
X177493743Y-81229259D01*
X177500783Y-81229397D01*
X177515425Y-81230092D01*
X177522110Y-81230410D01*
X177526939Y-81229891D01*
X177526954Y-81229891D01*
X177529978Y-81229566D01*
X177542362Y-81228850D01*
X177575331Y-81228572D01*
X177575333Y-81228572D01*
X177584306Y-81228496D01*
X177597612Y-81224483D01*
X177620529Y-81219840D01*
X178013523Y-81177630D01*
X178183859Y-81159335D01*
X178219324Y-81160552D01*
X179076230Y-81312606D01*
X179132912Y-81338267D01*
X179573264Y-81690465D01*
X179590703Y-81707419D01*
X179598143Y-81716201D01*
X179605633Y-81721145D01*
X179605636Y-81721148D01*
X179635145Y-81740627D01*
X179644433Y-81747386D01*
X179646489Y-81749031D01*
X179646495Y-81749035D01*
X179649993Y-81751833D01*
X179666996Y-81761850D01*
X179672452Y-81765255D01*
X179719703Y-81796447D01*
X179728284Y-81799091D01*
X179732111Y-81800899D01*
X179735978Y-81802489D01*
X179743711Y-81807045D01*
X179752412Y-81809247D01*
X179752414Y-81809248D01*
X179786255Y-81817812D01*
X179798630Y-81820944D01*
X179804818Y-81822680D01*
X179858899Y-81839349D01*
X179867872Y-81839479D01*
X179872044Y-81840139D01*
X179876216Y-81840581D01*
X179884916Y-81842783D01*
X179893884Y-81842455D01*
X179893887Y-81842455D01*
X179941496Y-81840712D01*
X179947928Y-81840641D01*
X179965938Y-81840902D01*
X179965944Y-81840902D01*
X179970805Y-81840972D01*
X179977148Y-81840079D01*
X179990101Y-81838932D01*
X180000086Y-81838566D01*
X180030476Y-81837453D01*
X180038990Y-81834621D01*
X180038992Y-81834621D01*
X180045120Y-81832583D01*
X180067305Y-81827376D01*
X180853024Y-81716674D01*
X180891073Y-81717116D01*
X181747555Y-81858133D01*
X181801371Y-81880688D01*
X182081442Y-82085136D01*
X182318044Y-82257853D01*
X182322449Y-82261220D01*
X182362123Y-82292949D01*
X182362130Y-82292953D01*
X182369137Y-82298557D01*
X182377439Y-82301970D01*
X182377440Y-82301971D01*
X182407640Y-82314388D01*
X182418839Y-82319649D01*
X182447690Y-82334976D01*
X182455617Y-82339187D01*
X182515515Y-82351568D01*
X182518309Y-82352146D01*
X182522218Y-82353019D01*
X182759481Y-82409984D01*
X183163142Y-82506900D01*
X183224709Y-82542251D01*
X183257391Y-82605278D01*
X183250810Y-82675969D01*
X183225672Y-82715567D01*
X183120945Y-82827341D01*
X183111247Y-82836643D01*
X183088264Y-82856447D01*
X183081461Y-82862309D01*
X183076578Y-82869843D01*
X183076575Y-82869846D01*
X183047977Y-82913966D01*
X183045478Y-82917676D01*
X183010185Y-82968107D01*
X183007421Y-82976281D01*
X183006930Y-82977296D01*
X183002236Y-82984537D01*
X182996864Y-83002501D01*
X182984593Y-83043534D01*
X182983233Y-83047801D01*
X182977247Y-83065501D01*
X182963520Y-83106087D01*
X182963161Y-83114704D01*
X182962972Y-83115828D01*
X182960502Y-83124088D01*
X182960447Y-83133064D01*
X182960447Y-83133065D01*
X182960126Y-83185652D01*
X182960020Y-83190105D01*
X182957457Y-83251618D01*
X182959530Y-83259987D01*
X182959665Y-83261117D01*
X182959612Y-83269743D01*
X182962077Y-83278367D01*
X182976524Y-83328914D01*
X182977678Y-83333243D01*
X182992482Y-83393002D01*
X182996826Y-83400461D01*
X182997269Y-83401501D01*
X182999639Y-83409793D01*
X183004429Y-83417384D01*
X183004430Y-83417387D01*
X183032469Y-83461825D01*
X183034791Y-83465653D01*
X183065783Y-83518872D01*
X183072041Y-83524807D01*
X183072761Y-83525684D01*
X183077364Y-83532980D01*
X183084088Y-83538918D01*
X183084091Y-83538922D01*
X183123494Y-83573721D01*
X183126796Y-83576743D01*
X183148694Y-83597513D01*
X183184354Y-83658904D01*
X183181162Y-83729829D01*
X183140132Y-83787769D01*
X183074291Y-83814330D01*
X183058855Y-83814893D01*
X182957575Y-83812374D01*
X182946249Y-83812092D01*
X182934872Y-83811293D01*
X182918759Y-83809425D01*
X182267106Y-83733877D01*
X182263191Y-83733360D01*
X182208667Y-83725288D01*
X182208663Y-83725288D01*
X182199780Y-83723973D01*
X182162457Y-83729138D01*
X182148579Y-83730281D01*
X182119878Y-83731051D01*
X182119876Y-83731051D01*
X182110906Y-83731292D01*
X182102360Y-83734042D01*
X182094201Y-83736667D01*
X182072883Y-83741533D01*
X182064395Y-83742708D01*
X182064391Y-83742709D01*
X182055497Y-83743940D01*
X182021116Y-83759376D01*
X182008133Y-83764363D01*
X181972250Y-83775909D01*
X181964820Y-83780946D01*
X181964817Y-83780948D01*
X181957730Y-83785753D01*
X181938631Y-83796409D01*
X181930808Y-83799921D01*
X181930805Y-83799923D01*
X181922617Y-83803599D01*
X181893945Y-83828068D01*
X181882868Y-83836509D01*
X181851690Y-83857648D01*
X181840510Y-83871180D01*
X181825177Y-83886759D01*
X181811824Y-83898156D01*
X181792425Y-83927778D01*
X181791182Y-83929675D01*
X181782911Y-83940896D01*
X181758916Y-83969939D01*
X181751983Y-83986067D01*
X181741633Y-84005334D01*
X181736940Y-84012499D01*
X181736938Y-84012503D01*
X181732023Y-84020008D01*
X181729411Y-84028594D01*
X181721059Y-84056047D01*
X181716271Y-84069137D01*
X181701389Y-84103755D01*
X181700301Y-84112667D01*
X181699262Y-84121173D01*
X181694735Y-84142575D01*
X181692241Y-84150772D01*
X181692240Y-84150777D01*
X181689629Y-84159360D01*
X181689532Y-84168330D01*
X181689221Y-84197029D01*
X181688300Y-84210931D01*
X181683731Y-84248339D01*
X181685187Y-84257194D01*
X181685187Y-84257196D01*
X181686578Y-84265656D01*
X181688240Y-84287462D01*
X181688050Y-84305009D01*
X181690475Y-84313649D01*
X181690476Y-84313656D01*
X181698234Y-84341295D01*
X181701252Y-84354898D01*
X181707364Y-84392067D01*
X181711249Y-84400162D01*
X181714956Y-84407888D01*
X181722671Y-84428351D01*
X181727414Y-84445247D01*
X181732168Y-84452861D01*
X181747364Y-84477200D01*
X181754082Y-84489415D01*
X181766501Y-84515293D01*
X181766503Y-84515296D01*
X181770385Y-84523385D01*
X181776380Y-84530058D01*
X181776385Y-84530065D01*
X181782115Y-84536442D01*
X181795267Y-84553922D01*
X181804556Y-84568800D01*
X181827379Y-84589149D01*
X181832672Y-84593868D01*
X181842550Y-84603709D01*
X181861731Y-84625060D01*
X181861736Y-84625064D01*
X181867730Y-84631736D01*
X181926290Y-84667992D01*
X181928211Y-84669208D01*
X182998860Y-85361073D01*
X183001790Y-85363025D01*
X184048469Y-86082274D01*
X184051370Y-86084328D01*
X185074305Y-86830640D01*
X185077102Y-86832741D01*
X185137634Y-86879569D01*
X186075722Y-87605277D01*
X186078486Y-87607478D01*
X187052254Y-88405422D01*
X187054949Y-88407694D01*
X187288318Y-88610096D01*
X187973541Y-89204394D01*
X188003349Y-89230247D01*
X188005956Y-89232573D01*
X188928440Y-90078909D01*
X188930946Y-90081274D01*
X189368830Y-90506098D01*
X189826975Y-90950580D01*
X189829461Y-90953060D01*
X189952443Y-91079215D01*
X190698468Y-91844488D01*
X190700841Y-91846991D01*
X191060356Y-92236960D01*
X191542260Y-92759687D01*
X191544607Y-92762305D01*
X191731089Y-92976267D01*
X192316127Y-93647516D01*
X192357935Y-93695485D01*
X192360198Y-93698155D01*
X192853030Y-94296589D01*
X193144895Y-94650993D01*
X193147101Y-94653750D01*
X193902619Y-95625412D01*
X193904754Y-95628240D01*
X194630485Y-96617802D01*
X194632549Y-96620700D01*
X194921005Y-97038249D01*
X195288414Y-97570085D01*
X195328106Y-97627541D01*
X195330096Y-97630511D01*
X195994811Y-98653615D01*
X195996727Y-98656659D01*
X196630111Y-99695264D01*
X196631951Y-99698381D01*
X197233477Y-100751666D01*
X197235240Y-100754859D01*
X197804372Y-101821996D01*
X197806054Y-101825264D01*
X198342235Y-102905367D01*
X198343835Y-102908712D01*
X198768677Y-103831782D01*
X198846586Y-104001059D01*
X198848097Y-104004475D01*
X199272262Y-105003164D01*
X199316822Y-105108080D01*
X199318248Y-105111582D01*
X199752478Y-106225756D01*
X199753812Y-106229337D01*
X200153016Y-107353237D01*
X200154253Y-107356897D01*
X200517872Y-108489594D01*
X200519008Y-108493330D01*
X200762980Y-109343025D01*
X200846563Y-109634126D01*
X200847594Y-109637944D01*
X201138536Y-110785922D01*
X201139458Y-110789819D01*
X201393273Y-111944166D01*
X201394080Y-111948138D01*
X201610275Y-113108140D01*
X201610961Y-113112187D01*
X201788992Y-114276897D01*
X201789552Y-114281011D01*
X201925311Y-115419428D01*
X201928926Y-115449745D01*
X201929351Y-115453906D01*
X202027540Y-116602383D01*
X202029536Y-116625732D01*
X202029826Y-116629973D01*
X202046858Y-116960584D01*
X202090318Y-117804211D01*
X202090466Y-117808520D01*
X202099234Y-118316841D01*
X202099798Y-118349569D01*
X202080974Y-118418025D01*
X202028128Y-118465436D01*
X201973774Y-118477742D01*
X96654714Y-118440474D01*
X96586602Y-118420448D01*
X96540128Y-118366776D01*
X96528782Y-118316841D01*
X96516937Y-117686429D01*
X96516936Y-117681762D01*
X96537779Y-116540201D01*
X107782192Y-116540201D01*
X107788947Y-116602383D01*
X107840077Y-116738772D01*
X107927431Y-116855328D01*
X108043987Y-116942682D01*
X108180376Y-116993812D01*
X108242558Y-117000567D01*
X110038826Y-117000567D01*
X110101008Y-116993812D01*
X110237397Y-116942682D01*
X110353953Y-116855328D01*
X110441307Y-116738772D01*
X110463637Y-116679206D01*
X110485490Y-116620915D01*
X110528132Y-116564151D01*
X110594693Y-116539451D01*
X110664042Y-116554659D01*
X110698709Y-116582647D01*
X110723910Y-116611740D01*
X110731272Y-116618950D01*
X110895126Y-116754983D01*
X110903573Y-116760898D01*
X111087448Y-116868346D01*
X111096734Y-116872796D01*
X111295693Y-116948770D01*
X111305591Y-116951646D01*
X111408942Y-116972673D01*
X111422991Y-116971477D01*
X111426692Y-116961132D01*
X111426692Y-116960584D01*
X111934692Y-116960584D01*
X111938756Y-116974426D01*
X111952170Y-116976460D01*
X111958876Y-116975601D01*
X111968954Y-116973459D01*
X112172947Y-116912258D01*
X112182534Y-116908500D01*
X112373787Y-116814806D01*
X112382637Y-116809531D01*
X112556020Y-116685859D01*
X112563892Y-116679206D01*
X112703382Y-116540201D01*
X122782192Y-116540201D01*
X122788947Y-116602383D01*
X122840077Y-116738772D01*
X122927431Y-116855328D01*
X123043987Y-116942682D01*
X123180376Y-116993812D01*
X123242558Y-117000567D01*
X125038826Y-117000567D01*
X125101008Y-116993812D01*
X125237397Y-116942682D01*
X125353953Y-116855328D01*
X125441307Y-116738772D01*
X125463637Y-116679206D01*
X125485490Y-116620915D01*
X125528132Y-116564151D01*
X125594693Y-116539451D01*
X125664042Y-116554659D01*
X125698709Y-116582647D01*
X125723910Y-116611740D01*
X125731272Y-116618950D01*
X125895126Y-116754983D01*
X125903573Y-116760898D01*
X126087448Y-116868346D01*
X126096734Y-116872796D01*
X126295693Y-116948770D01*
X126305591Y-116951646D01*
X126408942Y-116972673D01*
X126422991Y-116971477D01*
X126426692Y-116961132D01*
X126426692Y-116960584D01*
X126934692Y-116960584D01*
X126938756Y-116974426D01*
X126952170Y-116976460D01*
X126958876Y-116975601D01*
X126968954Y-116973459D01*
X127172947Y-116912258D01*
X127182534Y-116908500D01*
X127373787Y-116814806D01*
X127382637Y-116809531D01*
X127556020Y-116685859D01*
X127563892Y-116679206D01*
X127714744Y-116528879D01*
X127721422Y-116521032D01*
X127845695Y-116348087D01*
X127851005Y-116339250D01*
X127945362Y-116148334D01*
X127949161Y-116138739D01*
X128011069Y-115934977D01*
X128013247Y-115924904D01*
X128014678Y-115914029D01*
X128012467Y-115899845D01*
X127999309Y-115896067D01*
X126952807Y-115896067D01*
X126937568Y-115900542D01*
X126936363Y-115901932D01*
X126934692Y-115909615D01*
X126934692Y-116960584D01*
X126426692Y-116960584D01*
X126426692Y-115608762D01*
X170237943Y-115608762D01*
X170238240Y-115613915D01*
X170238240Y-115613918D01*
X170243703Y-115708657D01*
X170250802Y-115831782D01*
X170251939Y-115836828D01*
X170251940Y-115836834D01*
X170265289Y-115896067D01*
X170299914Y-116049706D01*
X170383958Y-116256683D01*
X170434555Y-116339250D01*
X170497983Y-116442755D01*
X170500679Y-116447155D01*
X170646942Y-116616005D01*
X170818818Y-116758699D01*
X171011692Y-116871405D01*
X171220384Y-116951097D01*
X171225452Y-116952128D01*
X171225455Y-116952129D01*
X171320554Y-116971477D01*
X171439289Y-116995634D01*
X171444464Y-116995824D01*
X171444466Y-116995824D01*
X171657365Y-117003631D01*
X171657369Y-117003631D01*
X171662529Y-117003820D01*
X171667649Y-117003164D01*
X171667651Y-117003164D01*
X171878980Y-116976092D01*
X171878981Y-116976092D01*
X171884108Y-116975435D01*
X171889058Y-116973950D01*
X172093121Y-116912728D01*
X172093126Y-116912726D01*
X172098076Y-116911241D01*
X172298686Y-116812963D01*
X172480552Y-116683240D01*
X172533996Y-116629983D01*
X172561901Y-116602174D01*
X172638788Y-116525556D01*
X172698286Y-116442756D01*
X172769145Y-116344144D01*
X172770468Y-116345095D01*
X172817337Y-116301924D01*
X172887272Y-116289692D01*
X172952718Y-116317211D01*
X172980567Y-116349061D01*
X173040679Y-116447155D01*
X173186942Y-116616005D01*
X173358818Y-116758699D01*
X173551692Y-116871405D01*
X173760384Y-116951097D01*
X173765452Y-116952128D01*
X173765455Y-116952129D01*
X173860554Y-116971477D01*
X173979289Y-116995634D01*
X173984464Y-116995824D01*
X173984466Y-116995824D01*
X174197365Y-117003631D01*
X174197369Y-117003631D01*
X174202529Y-117003820D01*
X174207649Y-117003164D01*
X174207651Y-117003164D01*
X174418980Y-116976092D01*
X174418981Y-116976092D01*
X174424108Y-116975435D01*
X174429058Y-116973950D01*
X174633121Y-116912728D01*
X174633126Y-116912726D01*
X174638076Y-116911241D01*
X174838686Y-116812963D01*
X175020552Y-116683240D01*
X175073996Y-116629983D01*
X175101901Y-116602174D01*
X175178788Y-116525556D01*
X175238286Y-116442756D01*
X175306127Y-116348344D01*
X175309145Y-116344144D01*
X175330012Y-116301924D01*
X175405828Y-116148520D01*
X175405829Y-116148518D01*
X175408122Y-116143878D01*
X175473062Y-115930136D01*
X175502221Y-115708657D01*
X175503848Y-115642067D01*
X175501110Y-115608762D01*
X185237943Y-115608762D01*
X185238240Y-115613915D01*
X185238240Y-115613918D01*
X185243703Y-115708657D01*
X185250802Y-115831782D01*
X185251939Y-115836828D01*
X185251940Y-115836834D01*
X185265289Y-115896067D01*
X185299914Y-116049706D01*
X185383958Y-116256683D01*
X185434555Y-116339250D01*
X185497983Y-116442755D01*
X185500679Y-116447155D01*
X185646942Y-116616005D01*
X185818818Y-116758699D01*
X186011692Y-116871405D01*
X186220384Y-116951097D01*
X186225452Y-116952128D01*
X186225455Y-116952129D01*
X186320554Y-116971477D01*
X186439289Y-116995634D01*
X186444464Y-116995824D01*
X186444466Y-116995824D01*
X186657365Y-117003631D01*
X186657369Y-117003631D01*
X186662529Y-117003820D01*
X186667649Y-117003164D01*
X186667651Y-117003164D01*
X186878980Y-116976092D01*
X186878981Y-116976092D01*
X186884108Y-116975435D01*
X186889058Y-116973950D01*
X187093121Y-116912728D01*
X187093126Y-116912726D01*
X187098076Y-116911241D01*
X187298686Y-116812963D01*
X187480552Y-116683240D01*
X187533996Y-116629983D01*
X187561901Y-116602174D01*
X187638788Y-116525556D01*
X187698286Y-116442756D01*
X187769145Y-116344144D01*
X187770468Y-116345095D01*
X187817337Y-116301924D01*
X187887272Y-116289692D01*
X187952718Y-116317211D01*
X187980567Y-116349061D01*
X188040679Y-116447155D01*
X188186942Y-116616005D01*
X188358818Y-116758699D01*
X188551692Y-116871405D01*
X188760384Y-116951097D01*
X188765452Y-116952128D01*
X188765455Y-116952129D01*
X188860554Y-116971477D01*
X188979289Y-116995634D01*
X188984464Y-116995824D01*
X188984466Y-116995824D01*
X189197365Y-117003631D01*
X189197369Y-117003631D01*
X189202529Y-117003820D01*
X189207649Y-117003164D01*
X189207651Y-117003164D01*
X189418980Y-116976092D01*
X189418981Y-116976092D01*
X189424108Y-116975435D01*
X189429058Y-116973950D01*
X189633121Y-116912728D01*
X189633126Y-116912726D01*
X189638076Y-116911241D01*
X189838686Y-116812963D01*
X190020552Y-116683240D01*
X190073996Y-116629983D01*
X190101901Y-116602174D01*
X190178788Y-116525556D01*
X190238286Y-116442756D01*
X190306127Y-116348344D01*
X190309145Y-116344144D01*
X190330012Y-116301924D01*
X190405828Y-116148520D01*
X190405829Y-116148518D01*
X190408122Y-116143878D01*
X190473062Y-115930136D01*
X190502221Y-115708657D01*
X190503848Y-115642067D01*
X190485544Y-115419428D01*
X190431123Y-115202769D01*
X190342046Y-114997907D01*
X190220706Y-114810344D01*
X190070362Y-114645118D01*
X190066311Y-114641919D01*
X190066307Y-114641915D01*
X189899106Y-114509867D01*
X189899102Y-114509865D01*
X189895051Y-114506665D01*
X189858720Y-114486609D01*
X189842828Y-114477836D01*
X189699481Y-114398705D01*
X189694612Y-114396981D01*
X189694608Y-114396979D01*
X189493779Y-114325862D01*
X189493775Y-114325861D01*
X189488904Y-114324136D01*
X189483811Y-114323229D01*
X189483808Y-114323228D01*
X189274065Y-114285867D01*
X189274059Y-114285866D01*
X189268976Y-114284961D01*
X189195144Y-114284059D01*
X189050773Y-114282295D01*
X189050771Y-114282295D01*
X189045603Y-114282232D01*
X188824783Y-114316022D01*
X188612448Y-114385424D01*
X188414299Y-114488574D01*
X188410166Y-114491677D01*
X188410163Y-114491679D01*
X188239792Y-114619597D01*
X188235657Y-114622702D01*
X188081321Y-114784205D01*
X187973893Y-114941688D01*
X187918985Y-114986688D01*
X187848460Y-114994859D01*
X187784713Y-114963605D01*
X187764016Y-114939121D01*
X187683514Y-114814684D01*
X187683512Y-114814681D01*
X187680706Y-114810344D01*
X187530362Y-114645118D01*
X187526311Y-114641919D01*
X187526307Y-114641915D01*
X187359106Y-114509867D01*
X187359102Y-114509865D01*
X187355051Y-114506665D01*
X187318720Y-114486609D01*
X187302828Y-114477836D01*
X187159481Y-114398705D01*
X187154612Y-114396981D01*
X187154608Y-114396979D01*
X186953779Y-114325862D01*
X186953775Y-114325861D01*
X186948904Y-114324136D01*
X186943811Y-114323229D01*
X186943808Y-114323228D01*
X186734065Y-114285867D01*
X186734059Y-114285866D01*
X186728976Y-114284961D01*
X186655144Y-114284059D01*
X186510773Y-114282295D01*
X186510771Y-114282295D01*
X186505603Y-114282232D01*
X186284783Y-114316022D01*
X186072448Y-114385424D01*
X185874299Y-114488574D01*
X185870166Y-114491677D01*
X185870163Y-114491679D01*
X185699792Y-114619597D01*
X185695657Y-114622702D01*
X185541321Y-114784205D01*
X185415435Y-114968747D01*
X185399695Y-115002657D01*
X185326783Y-115159733D01*
X185321380Y-115171372D01*
X185261681Y-115386637D01*
X185237943Y-115608762D01*
X175501110Y-115608762D01*
X175485544Y-115419428D01*
X175431123Y-115202769D01*
X175342046Y-114997907D01*
X175220706Y-114810344D01*
X175070362Y-114645118D01*
X175066311Y-114641919D01*
X175066307Y-114641915D01*
X174899106Y-114509867D01*
X174899102Y-114509865D01*
X174895051Y-114506665D01*
X174858720Y-114486609D01*
X174842828Y-114477836D01*
X174699481Y-114398705D01*
X174694612Y-114396981D01*
X174694608Y-114396979D01*
X174493779Y-114325862D01*
X174493775Y-114325861D01*
X174488904Y-114324136D01*
X174483811Y-114323229D01*
X174483808Y-114323228D01*
X174274065Y-114285867D01*
X174274059Y-114285866D01*
X174268976Y-114284961D01*
X174195144Y-114284059D01*
X174050773Y-114282295D01*
X174050771Y-114282295D01*
X174045603Y-114282232D01*
X173824783Y-114316022D01*
X173612448Y-114385424D01*
X173414299Y-114488574D01*
X173410166Y-114491677D01*
X173410163Y-114491679D01*
X173239792Y-114619597D01*
X173235657Y-114622702D01*
X173081321Y-114784205D01*
X172973893Y-114941688D01*
X172918985Y-114986688D01*
X172848460Y-114994859D01*
X172784713Y-114963605D01*
X172764016Y-114939121D01*
X172683514Y-114814684D01*
X172683512Y-114814681D01*
X172680706Y-114810344D01*
X172530362Y-114645118D01*
X172526311Y-114641919D01*
X172526307Y-114641915D01*
X172359106Y-114509867D01*
X172359102Y-114509865D01*
X172355051Y-114506665D01*
X172318720Y-114486609D01*
X172302828Y-114477836D01*
X172159481Y-114398705D01*
X172154612Y-114396981D01*
X172154608Y-114396979D01*
X171953779Y-114325862D01*
X171953775Y-114325861D01*
X171948904Y-114324136D01*
X171943811Y-114323229D01*
X171943808Y-114323228D01*
X171734065Y-114285867D01*
X171734059Y-114285866D01*
X171728976Y-114284961D01*
X171655144Y-114284059D01*
X171510773Y-114282295D01*
X171510771Y-114282295D01*
X171505603Y-114282232D01*
X171284783Y-114316022D01*
X171072448Y-114385424D01*
X170874299Y-114488574D01*
X170870166Y-114491677D01*
X170870163Y-114491679D01*
X170699792Y-114619597D01*
X170695657Y-114622702D01*
X170541321Y-114784205D01*
X170415435Y-114968747D01*
X170399695Y-115002657D01*
X170326783Y-115159733D01*
X170321380Y-115171372D01*
X170261681Y-115386637D01*
X170237943Y-115608762D01*
X126426692Y-115608762D01*
X126426692Y-115369952D01*
X126934692Y-115369952D01*
X126939167Y-115385191D01*
X126940557Y-115386396D01*
X126948240Y-115388067D01*
X127999036Y-115388067D01*
X128012567Y-115384094D01*
X128013872Y-115375014D01*
X127971906Y-115207942D01*
X127968586Y-115198191D01*
X127883664Y-115002881D01*
X127878797Y-114993806D01*
X127763118Y-114814993D01*
X127756828Y-114806824D01*
X127613498Y-114649307D01*
X127605965Y-114642282D01*
X127438831Y-114510289D01*
X127430244Y-114504584D01*
X127243809Y-114401666D01*
X127234397Y-114397436D01*
X127033651Y-114326347D01*
X127023680Y-114323713D01*
X126952529Y-114311039D01*
X126939232Y-114312499D01*
X126934692Y-114327056D01*
X126934692Y-115369952D01*
X126426692Y-115369952D01*
X126426692Y-114325169D01*
X126422774Y-114311825D01*
X126408498Y-114309838D01*
X126370016Y-114315727D01*
X126359980Y-114318118D01*
X126157560Y-114384279D01*
X126148051Y-114388276D01*
X125959155Y-114486609D01*
X125950430Y-114492103D01*
X125780125Y-114619972D01*
X125772418Y-114626815D01*
X125695170Y-114707651D01*
X125633646Y-114743081D01*
X125562734Y-114739624D01*
X125504947Y-114698378D01*
X125486094Y-114664830D01*
X125444459Y-114553770D01*
X125441307Y-114545362D01*
X125353953Y-114428806D01*
X125237397Y-114341452D01*
X125101008Y-114290322D01*
X125038826Y-114283567D01*
X123242558Y-114283567D01*
X123180376Y-114290322D01*
X123043987Y-114341452D01*
X122927431Y-114428806D01*
X122840077Y-114545362D01*
X122788947Y-114681751D01*
X122782192Y-114743933D01*
X122782192Y-116540201D01*
X112703382Y-116540201D01*
X112714744Y-116528879D01*
X112721422Y-116521032D01*
X112845695Y-116348087D01*
X112851005Y-116339250D01*
X112945362Y-116148334D01*
X112949161Y-116138739D01*
X113011069Y-115934977D01*
X113013247Y-115924904D01*
X113014678Y-115914029D01*
X113012467Y-115899845D01*
X112999309Y-115896067D01*
X111952807Y-115896067D01*
X111937568Y-115900542D01*
X111936363Y-115901932D01*
X111934692Y-115909615D01*
X111934692Y-116960584D01*
X111426692Y-116960584D01*
X111426692Y-115369952D01*
X111934692Y-115369952D01*
X111939167Y-115385191D01*
X111940557Y-115386396D01*
X111948240Y-115388067D01*
X112999036Y-115388067D01*
X113012567Y-115384094D01*
X113013872Y-115375014D01*
X112971906Y-115207942D01*
X112968586Y-115198191D01*
X112883664Y-115002881D01*
X112878797Y-114993806D01*
X112763118Y-114814993D01*
X112756828Y-114806824D01*
X112613498Y-114649307D01*
X112605965Y-114642282D01*
X112438831Y-114510289D01*
X112430244Y-114504584D01*
X112243809Y-114401666D01*
X112234397Y-114397436D01*
X112033651Y-114326347D01*
X112023680Y-114323713D01*
X111952529Y-114311039D01*
X111939232Y-114312499D01*
X111934692Y-114327056D01*
X111934692Y-115369952D01*
X111426692Y-115369952D01*
X111426692Y-114325169D01*
X111422774Y-114311825D01*
X111408498Y-114309838D01*
X111370016Y-114315727D01*
X111359980Y-114318118D01*
X111157560Y-114384279D01*
X111148051Y-114388276D01*
X110959155Y-114486609D01*
X110950430Y-114492103D01*
X110780125Y-114619972D01*
X110772418Y-114626815D01*
X110695170Y-114707651D01*
X110633646Y-114743081D01*
X110562734Y-114739624D01*
X110504947Y-114698378D01*
X110486094Y-114664830D01*
X110444459Y-114553770D01*
X110441307Y-114545362D01*
X110353953Y-114428806D01*
X110237397Y-114341452D01*
X110101008Y-114290322D01*
X110038826Y-114283567D01*
X108242558Y-114283567D01*
X108180376Y-114290322D01*
X108043987Y-114341452D01*
X107927431Y-114428806D01*
X107840077Y-114545362D01*
X107788947Y-114681751D01*
X107782192Y-114743933D01*
X107782192Y-116540201D01*
X96537779Y-116540201D01*
X96539549Y-116443247D01*
X96539717Y-116438648D01*
X96607138Y-115209087D01*
X96607473Y-115204509D01*
X96719070Y-113984437D01*
X96719569Y-113979890D01*
X96747924Y-113758737D01*
X96874728Y-112769722D01*
X96875380Y-112765275D01*
X97073470Y-111565538D01*
X97074286Y-111561097D01*
X97117066Y-111349545D01*
X97231040Y-110785922D01*
X97314695Y-110372233D01*
X97315663Y-110367850D01*
X97597775Y-109190339D01*
X97598888Y-109186031D01*
X97922101Y-108020307D01*
X97923350Y-108016086D01*
X98025701Y-107691488D01*
X98287078Y-106862554D01*
X98288460Y-106858425D01*
X98692054Y-105717709D01*
X98693561Y-105713670D01*
X99094607Y-104692669D01*
X99136469Y-104586095D01*
X99138091Y-104582163D01*
X99162566Y-104525556D01*
X99558954Y-103608762D01*
X146507943Y-103608762D01*
X146508240Y-103613915D01*
X146508240Y-103613918D01*
X146513703Y-103708657D01*
X146520802Y-103831782D01*
X146521939Y-103836828D01*
X146521940Y-103836834D01*
X146541811Y-103925006D01*
X146569914Y-104049706D01*
X146653958Y-104256683D01*
X146704711Y-104339505D01*
X146767983Y-104442755D01*
X146770679Y-104447155D01*
X146916942Y-104616005D01*
X147088818Y-104758699D01*
X147281692Y-104871405D01*
X147490384Y-104951097D01*
X147495452Y-104952128D01*
X147495455Y-104952129D01*
X147602709Y-104973950D01*
X147709289Y-104995634D01*
X147714464Y-104995824D01*
X147714466Y-104995824D01*
X147927365Y-105003631D01*
X147927369Y-105003631D01*
X147932529Y-105003820D01*
X147937649Y-105003164D01*
X147937651Y-105003164D01*
X148148980Y-104976092D01*
X148148981Y-104976092D01*
X148154108Y-104975435D01*
X148159058Y-104973950D01*
X148363121Y-104912728D01*
X148363126Y-104912726D01*
X148368076Y-104911241D01*
X148568686Y-104812963D01*
X148750552Y-104683240D01*
X148908788Y-104525556D01*
X148968286Y-104442756D01*
X149039145Y-104344144D01*
X149040468Y-104345095D01*
X149087337Y-104301924D01*
X149157272Y-104289692D01*
X149222718Y-104317211D01*
X149250567Y-104349061D01*
X149310679Y-104447155D01*
X149456942Y-104616005D01*
X149628818Y-104758699D01*
X149821692Y-104871405D01*
X150030384Y-104951097D01*
X150035452Y-104952128D01*
X150035455Y-104952129D01*
X150142709Y-104973950D01*
X150249289Y-104995634D01*
X150254464Y-104995824D01*
X150254466Y-104995824D01*
X150467365Y-105003631D01*
X150467369Y-105003631D01*
X150472529Y-105003820D01*
X150477649Y-105003164D01*
X150477651Y-105003164D01*
X150688980Y-104976092D01*
X150688981Y-104976092D01*
X150694108Y-104975435D01*
X150699058Y-104973950D01*
X150903121Y-104912728D01*
X150903126Y-104912726D01*
X150908076Y-104911241D01*
X151108686Y-104812963D01*
X151290552Y-104683240D01*
X151448788Y-104525556D01*
X151508286Y-104442756D01*
X151576127Y-104348344D01*
X151579145Y-104344144D01*
X151600012Y-104301924D01*
X151675828Y-104148520D01*
X151675829Y-104148518D01*
X151678122Y-104143878D01*
X151743062Y-103930136D01*
X151772221Y-103708657D01*
X151773848Y-103642067D01*
X151755544Y-103419428D01*
X151701123Y-103202769D01*
X151612046Y-102997907D01*
X151490706Y-102810344D01*
X151340362Y-102645118D01*
X151336311Y-102641919D01*
X151336307Y-102641915D01*
X151169106Y-102509867D01*
X151169102Y-102509865D01*
X151165051Y-102506665D01*
X150969481Y-102398705D01*
X150964612Y-102396981D01*
X150964608Y-102396979D01*
X150763779Y-102325862D01*
X150763775Y-102325861D01*
X150758904Y-102324136D01*
X150753811Y-102323229D01*
X150753808Y-102323228D01*
X150544065Y-102285867D01*
X150544059Y-102285866D01*
X150538976Y-102284961D01*
X150465144Y-102284059D01*
X150320773Y-102282295D01*
X150320771Y-102282295D01*
X150315603Y-102282232D01*
X150094783Y-102316022D01*
X149882448Y-102385424D01*
X149852135Y-102401204D01*
X149723326Y-102468258D01*
X149684299Y-102488574D01*
X149680166Y-102491677D01*
X149680163Y-102491679D01*
X149655939Y-102509867D01*
X149505657Y-102622702D01*
X149351321Y-102784205D01*
X149243893Y-102941688D01*
X149188985Y-102986688D01*
X149118460Y-102994859D01*
X149054713Y-102963605D01*
X149034016Y-102939121D01*
X148953514Y-102814684D01*
X148953512Y-102814681D01*
X148950706Y-102810344D01*
X148800362Y-102645118D01*
X148796311Y-102641919D01*
X148796307Y-102641915D01*
X148629106Y-102509867D01*
X148629102Y-102509865D01*
X148625051Y-102506665D01*
X148429481Y-102398705D01*
X148424612Y-102396981D01*
X148424608Y-102396979D01*
X148223779Y-102325862D01*
X148223775Y-102325861D01*
X148218904Y-102324136D01*
X148213811Y-102323229D01*
X148213808Y-102323228D01*
X148004065Y-102285867D01*
X148004059Y-102285866D01*
X147998976Y-102284961D01*
X147925144Y-102284059D01*
X147780773Y-102282295D01*
X147780771Y-102282295D01*
X147775603Y-102282232D01*
X147554783Y-102316022D01*
X147342448Y-102385424D01*
X147312135Y-102401204D01*
X147183326Y-102468258D01*
X147144299Y-102488574D01*
X147140166Y-102491677D01*
X147140163Y-102491679D01*
X147115939Y-102509867D01*
X146965657Y-102622702D01*
X146811321Y-102784205D01*
X146685435Y-102968747D01*
X146591380Y-103171372D01*
X146531681Y-103386637D01*
X146507943Y-103608762D01*
X99558954Y-103608762D01*
X99619699Y-103468268D01*
X99621408Y-103464488D01*
X100141113Y-102364761D01*
X100142945Y-102361045D01*
X100161899Y-102324136D01*
X100639735Y-101393620D01*
X100700110Y-101276049D01*
X100702038Y-101272439D01*
X101243867Y-100296661D01*
X101296123Y-100202552D01*
X101298131Y-100199069D01*
X101928490Y-99144873D01*
X101930585Y-99141493D01*
X102596590Y-98103518D01*
X102598757Y-98100253D01*
X103299882Y-97078892D01*
X103302116Y-97075742D01*
X103333613Y-97032745D01*
X104037717Y-96071560D01*
X104040001Y-96068540D01*
X104050126Y-96055560D01*
X104809423Y-95082103D01*
X104811761Y-95079195D01*
X104844724Y-95039434D01*
X105574374Y-94159291D01*
X105582714Y-94151272D01*
X105582266Y-94150832D01*
X105588548Y-94144427D01*
X105595681Y-94138973D01*
X105628196Y-94094705D01*
X105632708Y-94088925D01*
X105643707Y-94075657D01*
X105646044Y-94071844D01*
X105646050Y-94071836D01*
X105648635Y-94067619D01*
X105654500Y-94058892D01*
X105681906Y-94021579D01*
X105684977Y-94013141D01*
X105685102Y-94012907D01*
X105695757Y-93990823D01*
X105695864Y-93990575D01*
X105700555Y-93982923D01*
X105712701Y-93938244D01*
X105715885Y-93928209D01*
X105728648Y-93893140D01*
X105728649Y-93893137D01*
X105731718Y-93884703D01*
X105732297Y-93875743D01*
X105732350Y-93875491D01*
X105736379Y-93851292D01*
X105736411Y-93851034D01*
X105738767Y-93842367D01*
X105737885Y-93796068D01*
X105738124Y-93785552D01*
X105740531Y-93748305D01*
X105741110Y-93739349D01*
X105739152Y-93730593D01*
X105739131Y-93730317D01*
X105736207Y-93705973D01*
X105736165Y-93705716D01*
X105735994Y-93696736D01*
X105722151Y-93652538D01*
X105719428Y-93642373D01*
X105711288Y-93605961D01*
X105711287Y-93605958D01*
X105709329Y-93597201D01*
X105704993Y-93589347D01*
X105704898Y-93589096D01*
X105695256Y-93566540D01*
X105695141Y-93566300D01*
X105692459Y-93557736D01*
X105687479Y-93550267D01*
X105687478Y-93550264D01*
X105666773Y-93519207D01*
X105661305Y-93510213D01*
X105657593Y-93503490D01*
X105657591Y-93503487D01*
X105655237Y-93499223D01*
X105645113Y-93486148D01*
X105639901Y-93478902D01*
X105616638Y-93444009D01*
X105611661Y-93436543D01*
X105604786Y-93430772D01*
X105598797Y-93424084D01*
X105598876Y-93424013D01*
X105589216Y-93413965D01*
X105427424Y-93205028D01*
X105416644Y-93188606D01*
X105409659Y-93175907D01*
X105409658Y-93175906D01*
X105405331Y-93168038D01*
X105391251Y-93154012D01*
X105378374Y-93141184D01*
X105376253Y-93138946D01*
X105374532Y-93136724D01*
X105371326Y-93133618D01*
X105371322Y-93133613D01*
X105351802Y-93114699D01*
X105350597Y-93113515D01*
X105302137Y-93065241D01*
X105298994Y-93063528D01*
X105296417Y-93061031D01*
X105266452Y-93045234D01*
X105235841Y-93029097D01*
X105234305Y-93028274D01*
X105181128Y-92999294D01*
X105181129Y-92999294D01*
X105174240Y-92995540D01*
X105170740Y-92994777D01*
X105167567Y-92993105D01*
X105100500Y-92979464D01*
X105098793Y-92979105D01*
X105085765Y-92976267D01*
X105031920Y-92964537D01*
X105028346Y-92964788D01*
X105024833Y-92964073D01*
X104956515Y-92969812D01*
X104954972Y-92969931D01*
X104920275Y-92972364D01*
X104917518Y-92972993D01*
X104914544Y-92973338D01*
X104879686Y-92976267D01*
X104861695Y-92983211D01*
X104854125Y-92986132D01*
X104836804Y-92991421D01*
X104152087Y-93147746D01*
X104081223Y-93143408D01*
X104072669Y-93139958D01*
X103570062Y-92915533D01*
X103405441Y-92842026D01*
X103399425Y-92839146D01*
X103381161Y-92829797D01*
X103356912Y-92817383D01*
X103356909Y-92817382D01*
X103348923Y-92813294D01*
X103340111Y-92811612D01*
X103340109Y-92811611D01*
X103305171Y-92804941D01*
X103294258Y-92802349D01*
X103260043Y-92792596D01*
X103251410Y-92790135D01*
X103241943Y-92790199D01*
X103240776Y-92790207D01*
X103216298Y-92787975D01*
X103214667Y-92787664D01*
X103214664Y-92787664D01*
X103205849Y-92785981D01*
X103168628Y-92789560D01*
X103161501Y-92790245D01*
X103150296Y-92790820D01*
X103114729Y-92791061D01*
X103114728Y-92791061D01*
X103105756Y-92791122D01*
X103095564Y-92794177D01*
X103071448Y-92798904D01*
X103069800Y-92799062D01*
X103069797Y-92799063D01*
X103060861Y-92799922D01*
X103052527Y-92803254D01*
X103052523Y-92803255D01*
X103019498Y-92816459D01*
X103008913Y-92820154D01*
X102966234Y-92832949D01*
X102958705Y-92837836D01*
X102915208Y-92866070D01*
X102910826Y-92868788D01*
X102455730Y-93138383D01*
X102413674Y-93154012D01*
X101748864Y-93272804D01*
X101713843Y-93274111D01*
X101417115Y-93243673D01*
X101043920Y-93205390D01*
X101000957Y-93193008D01*
X100522640Y-92956612D01*
X100519301Y-92954899D01*
X100462183Y-92924512D01*
X100425820Y-92916973D01*
X100412147Y-92913328D01*
X100385365Y-92904548D01*
X100385363Y-92904548D01*
X100376838Y-92901753D01*
X100367870Y-92901464D01*
X100367867Y-92901463D01*
X100359905Y-92901206D01*
X100358774Y-92901170D01*
X100337259Y-92898612D01*
X100332986Y-92897726D01*
X100328351Y-92896765D01*
X100328350Y-92896765D01*
X100319558Y-92894942D01*
X100310607Y-92895660D01*
X100310604Y-92895660D01*
X100282527Y-92897913D01*
X100268383Y-92898251D01*
X100250504Y-92897674D01*
X100231256Y-92897052D01*
X100222564Y-92899292D01*
X100222562Y-92899292D01*
X100163978Y-92914388D01*
X100161817Y-92914925D01*
X100027813Y-92946941D01*
X99619721Y-93044441D01*
X99564712Y-93045234D01*
X99006299Y-92928729D01*
X98863007Y-92898833D01*
X98860157Y-92898204D01*
X98820022Y-92888856D01*
X98794695Y-92882956D01*
X98785734Y-92883455D01*
X98785733Y-92883455D01*
X98780741Y-92883733D01*
X98759738Y-92884903D01*
X98744758Y-92884844D01*
X98724797Y-92883576D01*
X98718774Y-92883193D01*
X98718773Y-92883193D01*
X98709815Y-92882624D01*
X98701059Y-92884592D01*
X98701055Y-92884592D01*
X98638473Y-92898656D01*
X98637125Y-92898951D01*
X97499707Y-93141499D01*
X97461146Y-93143670D01*
X97165397Y-93114699D01*
X96601627Y-93059473D01*
X96561642Y-93048720D01*
X96083416Y-92830689D01*
X96029730Y-92784230D01*
X96025988Y-92778029D01*
X96003453Y-92738120D01*
X95987378Y-92668970D01*
X96001010Y-92618763D01*
X96013367Y-92594621D01*
X96032238Y-92557751D01*
X96083611Y-92504793D01*
X96551432Y-92247124D01*
X96590643Y-92233352D01*
X97476514Y-92079391D01*
X97498089Y-92077530D01*
X97743484Y-92077530D01*
X97753368Y-92077918D01*
X97801635Y-92081716D01*
X97810417Y-92079881D01*
X97810422Y-92079881D01*
X97853131Y-92070958D01*
X97861035Y-92069568D01*
X97877534Y-92067205D01*
X97913110Y-92062110D01*
X97921278Y-92058396D01*
X97928417Y-92056309D01*
X97935429Y-92053764D01*
X97944214Y-92051928D01*
X97990627Y-92027145D01*
X97997799Y-92023604D01*
X98045705Y-92001822D01*
X98052506Y-91995962D01*
X98058773Y-91991954D01*
X98064781Y-91987549D01*
X98072701Y-91983320D01*
X98079116Y-91977038D01*
X98110281Y-91946518D01*
X98116192Y-91941087D01*
X98149246Y-91912606D01*
X98149247Y-91912605D01*
X98156050Y-91906743D01*
X98160933Y-91899208D01*
X98165826Y-91893600D01*
X98170354Y-91887688D01*
X98176768Y-91881407D01*
X98202516Y-91835524D01*
X98206654Y-91828671D01*
X98230391Y-91792051D01*
X98230393Y-91792047D01*
X98235275Y-91784515D01*
X98250289Y-91734310D01*
X98252947Y-91726390D01*
X98486640Y-91099656D01*
X98519497Y-91050853D01*
X98900536Y-90701098D01*
X98951968Y-90672532D01*
X99533807Y-90510661D01*
X99567578Y-90506051D01*
X99573632Y-90506051D01*
X99577080Y-90506098D01*
X99642686Y-90507894D01*
X99651367Y-90505611D01*
X99651370Y-90505611D01*
X99677838Y-90498651D01*
X99692017Y-90495782D01*
X99727985Y-90490631D01*
X99741376Y-90484543D01*
X99745185Y-90482811D01*
X99765289Y-90475656D01*
X99774872Y-90473136D01*
X99783554Y-90470853D01*
X99791245Y-90466226D01*
X99791247Y-90466225D01*
X99814684Y-90452124D01*
X99827489Y-90445389D01*
X99852410Y-90434058D01*
X99852412Y-90434057D01*
X99860580Y-90430343D01*
X99874889Y-90418013D01*
X99892185Y-90405497D01*
X99900674Y-90400390D01*
X99908365Y-90395763D01*
X99914447Y-90389165D01*
X99914449Y-90389163D01*
X99932990Y-90369047D01*
X99943391Y-90358989D01*
X99964124Y-90341125D01*
X99964128Y-90341121D01*
X99970925Y-90335264D01*
X100009388Y-90275924D01*
X100010403Y-90274383D01*
X100391249Y-89705866D01*
X100429555Y-89668893D01*
X101004398Y-89312630D01*
X101045547Y-89296280D01*
X101854488Y-89130970D01*
X101891923Y-89129012D01*
X102541706Y-89192264D01*
X102552597Y-89193806D01*
X102561023Y-89195377D01*
X102569527Y-89198258D01*
X102625636Y-89200624D01*
X102632513Y-89201103D01*
X102650789Y-89202882D01*
X102655276Y-89202679D01*
X102658992Y-89202511D01*
X102669994Y-89202494D01*
X102706085Y-89204016D01*
X102706087Y-89204016D01*
X102715055Y-89204394D01*
X102724839Y-89201975D01*
X102749376Y-89198423D01*
X102759451Y-89197967D01*
X102802137Y-89183361D01*
X102812672Y-89180263D01*
X102815795Y-89179491D01*
X102818977Y-89178705D01*
X102818982Y-89178703D01*
X102823704Y-89177536D01*
X102840070Y-89170678D01*
X102847944Y-89167686D01*
X102888766Y-89153717D01*
X102888768Y-89153716D01*
X102897263Y-89150809D01*
X102904601Y-89145634D01*
X102912594Y-89141554D01*
X102912714Y-89141789D01*
X102924262Y-89135398D01*
X103403659Y-88934512D01*
X103986925Y-88690100D01*
X104000987Y-88685165D01*
X104006004Y-88683731D01*
X104026535Y-88677864D01*
X104026540Y-88677862D01*
X104035171Y-88675395D01*
X104090352Y-88640578D01*
X104092910Y-88639006D01*
X104141244Y-88610096D01*
X104148948Y-88605488D01*
X104153142Y-88600961D01*
X104158358Y-88597670D01*
X104201604Y-88548704D01*
X104203554Y-88546548D01*
X104247940Y-88498639D01*
X104250694Y-88493120D01*
X104254778Y-88488495D01*
X104282520Y-88429407D01*
X104283827Y-88426706D01*
X104308957Y-88376336D01*
X104308957Y-88376335D01*
X104312965Y-88368302D01*
X104314059Y-88362231D01*
X104316681Y-88356646D01*
X104326722Y-88292159D01*
X104327219Y-88289200D01*
X104337204Y-88233785D01*
X104338796Y-88224953D01*
X104337845Y-88216031D01*
X104337845Y-88216024D01*
X104337171Y-88209703D01*
X104337445Y-88180633D01*
X104470455Y-87122564D01*
X104480665Y-87086361D01*
X104801560Y-86376780D01*
X104890726Y-86179610D01*
X104910529Y-86148762D01*
X104967581Y-86083278D01*
X105559115Y-85404315D01*
X105586955Y-85380476D01*
X106152328Y-85024345D01*
X106428991Y-84850073D01*
X106463454Y-84835000D01*
X107458268Y-84567726D01*
X107495945Y-84563510D01*
X107979301Y-84582645D01*
X108525230Y-84604258D01*
X108562167Y-84611337D01*
X109500626Y-84942483D01*
X109533054Y-84959581D01*
X110330156Y-85542231D01*
X110356290Y-85567940D01*
X110461547Y-85707089D01*
X110830121Y-86194338D01*
X110956652Y-86361611D01*
X110974611Y-86394659D01*
X111133123Y-86831677D01*
X111350328Y-87430514D01*
X111353260Y-87439673D01*
X111366440Y-87486998D01*
X111393840Y-87531082D01*
X111397985Y-87538270D01*
X111422432Y-87584080D01*
X111428711Y-87590495D01*
X111433439Y-87596947D01*
X111438593Y-87603086D01*
X111443330Y-87610708D01*
X111450015Y-87616693D01*
X111450020Y-87616699D01*
X111482000Y-87645330D01*
X111487999Y-87651067D01*
X111524318Y-87688172D01*
X111532144Y-87692566D01*
X111538486Y-87697426D01*
X111545161Y-87701875D01*
X111551851Y-87707865D01*
X111598707Y-87730253D01*
X111606023Y-87734049D01*
X111651324Y-87759485D01*
X111660074Y-87761508D01*
X111667543Y-87764399D01*
X111675180Y-87766791D01*
X111683277Y-87770659D01*
X111692133Y-87772099D01*
X111692135Y-87772100D01*
X111734502Y-87778990D01*
X111742648Y-87780592D01*
X111793241Y-87792285D01*
X111802200Y-87791771D01*
X111810156Y-87792448D01*
X111818188Y-87792601D01*
X111827046Y-87794041D01*
X111835950Y-87792938D01*
X111835952Y-87792938D01*
X111857534Y-87790264D01*
X111878563Y-87787659D01*
X111886812Y-87786912D01*
X111903702Y-87785942D01*
X111929699Y-87784449D01*
X111929702Y-87784448D01*
X111938660Y-87783934D01*
X111947114Y-87780926D01*
X111947118Y-87780925D01*
X111988697Y-87766130D01*
X111996391Y-87763667D01*
X112132086Y-87724982D01*
X112307927Y-87674852D01*
X112316384Y-87672755D01*
X112366648Y-87662135D01*
X112374552Y-87657892D01*
X112374559Y-87657889D01*
X112410463Y-87638613D01*
X112418686Y-87634576D01*
X112455913Y-87617952D01*
X112455915Y-87617951D01*
X112464113Y-87614290D01*
X112470951Y-87608479D01*
X112470953Y-87608477D01*
X112506306Y-87578429D01*
X112511936Y-87573916D01*
X113157056Y-87086361D01*
X113430695Y-86879556D01*
X113433022Y-86877839D01*
X113491391Y-86835811D01*
X114128891Y-86376780D01*
X114382266Y-86194338D01*
X114384626Y-86192679D01*
X115092646Y-85707089D01*
X115354786Y-85527303D01*
X115357145Y-85525724D01*
X115361913Y-85522611D01*
X115800915Y-85235943D01*
X116347622Y-84878944D01*
X116350011Y-84877422D01*
X117190897Y-84354898D01*
X117360593Y-84249449D01*
X117362980Y-84248003D01*
X118393121Y-83639266D01*
X118395458Y-83637920D01*
X119444768Y-83048752D01*
X119447193Y-83047425D01*
X120515152Y-82478227D01*
X120517587Y-82476963D01*
X120763781Y-82352553D01*
X121603913Y-81928007D01*
X121606316Y-81926825D01*
X122710490Y-81398514D01*
X122712945Y-81397372D01*
X123083216Y-81229891D01*
X123834502Y-80890070D01*
X123836896Y-80889017D01*
X124975531Y-80403021D01*
X124977938Y-80402024D01*
X125646245Y-80133416D01*
X126133068Y-79937751D01*
X126135550Y-79936783D01*
X127306934Y-79494507D01*
X127309425Y-79493597D01*
X128496319Y-79073787D01*
X128498818Y-79072932D01*
X129701137Y-78675812D01*
X129703555Y-78675041D01*
X130920658Y-78301036D01*
X130923169Y-78300293D01*
X132154694Y-77949727D01*
X132157216Y-77949038D01*
X133314417Y-77645432D01*
X133402678Y-77622276D01*
X133405172Y-77621648D01*
X133458782Y-77608762D01*
X146507943Y-77608762D01*
X146508240Y-77613915D01*
X146508240Y-77613918D01*
X146513703Y-77708657D01*
X146520802Y-77831782D01*
X146521939Y-77836828D01*
X146521940Y-77836834D01*
X146541811Y-77925006D01*
X146569914Y-78049706D01*
X146653958Y-78256683D01*
X146704711Y-78339505D01*
X146767983Y-78442755D01*
X146770679Y-78447155D01*
X146916942Y-78616005D01*
X147088818Y-78758699D01*
X147281692Y-78871405D01*
X147490384Y-78951097D01*
X147495452Y-78952128D01*
X147495455Y-78952129D01*
X147598482Y-78973090D01*
X147709289Y-78995634D01*
X147714464Y-78995824D01*
X147714466Y-78995824D01*
X147927365Y-79003631D01*
X147927369Y-79003631D01*
X147932529Y-79003820D01*
X147937649Y-79003164D01*
X147937651Y-79003164D01*
X148148980Y-78976092D01*
X148148981Y-78976092D01*
X148154108Y-78975435D01*
X148159058Y-78973950D01*
X148363121Y-78912728D01*
X148363126Y-78912726D01*
X148368076Y-78911241D01*
X148568686Y-78812963D01*
X148750552Y-78683240D01*
X148758409Y-78675411D01*
X148885033Y-78549228D01*
X148908788Y-78525556D01*
X148957021Y-78458433D01*
X149039145Y-78344144D01*
X149040468Y-78345095D01*
X149087337Y-78301924D01*
X149157272Y-78289692D01*
X149222718Y-78317211D01*
X149250567Y-78349061D01*
X149310679Y-78447155D01*
X149456942Y-78616005D01*
X149628818Y-78758699D01*
X149821692Y-78871405D01*
X150030384Y-78951097D01*
X150035452Y-78952128D01*
X150035455Y-78952129D01*
X150138482Y-78973090D01*
X150249289Y-78995634D01*
X150254464Y-78995824D01*
X150254466Y-78995824D01*
X150467365Y-79003631D01*
X150467369Y-79003631D01*
X150472529Y-79003820D01*
X150477649Y-79003164D01*
X150477651Y-79003164D01*
X150688980Y-78976092D01*
X150688981Y-78976092D01*
X150694108Y-78975435D01*
X150699058Y-78973950D01*
X150903121Y-78912728D01*
X150903126Y-78912726D01*
X150908076Y-78911241D01*
X151108686Y-78812963D01*
X151290552Y-78683240D01*
X151298409Y-78675411D01*
X151425033Y-78549228D01*
X151448788Y-78525556D01*
X151497021Y-78458433D01*
X151576127Y-78348344D01*
X151579145Y-78344144D01*
X151600012Y-78301924D01*
X151675828Y-78148520D01*
X151675829Y-78148518D01*
X151678122Y-78143878D01*
X151743062Y-77930136D01*
X151772221Y-77708657D01*
X151773848Y-77642067D01*
X151755544Y-77419428D01*
X151701123Y-77202769D01*
X151612046Y-76997907D01*
X151490706Y-76810344D01*
X151340362Y-76645118D01*
X151336311Y-76641919D01*
X151336307Y-76641915D01*
X151169106Y-76509867D01*
X151169102Y-76509865D01*
X151165051Y-76506665D01*
X151151902Y-76499406D01*
X151112828Y-76477836D01*
X150969481Y-76398705D01*
X150964612Y-76396981D01*
X150964608Y-76396979D01*
X150763779Y-76325862D01*
X150763775Y-76325861D01*
X150758904Y-76324136D01*
X150753811Y-76323229D01*
X150753808Y-76323228D01*
X150544065Y-76285867D01*
X150544059Y-76285866D01*
X150538976Y-76284961D01*
X150465144Y-76284059D01*
X150320773Y-76282295D01*
X150320771Y-76282295D01*
X150315603Y-76282232D01*
X150094783Y-76316022D01*
X149882448Y-76385424D01*
X149684299Y-76488574D01*
X149680166Y-76491677D01*
X149680163Y-76491679D01*
X149509792Y-76619597D01*
X149505657Y-76622702D01*
X149351321Y-76784205D01*
X149243893Y-76941688D01*
X149188985Y-76986688D01*
X149118460Y-76994859D01*
X149054713Y-76963605D01*
X149034016Y-76939121D01*
X148953514Y-76814684D01*
X148953512Y-76814681D01*
X148950706Y-76810344D01*
X148800362Y-76645118D01*
X148796311Y-76641919D01*
X148796307Y-76641915D01*
X148629106Y-76509867D01*
X148629102Y-76509865D01*
X148625051Y-76506665D01*
X148611902Y-76499406D01*
X148572828Y-76477836D01*
X148429481Y-76398705D01*
X148424612Y-76396981D01*
X148424608Y-76396979D01*
X148223779Y-76325862D01*
X148223775Y-76325861D01*
X148218904Y-76324136D01*
X148213811Y-76323229D01*
X148213808Y-76323228D01*
X148004065Y-76285867D01*
X148004059Y-76285866D01*
X147998976Y-76284961D01*
X147925144Y-76284059D01*
X147780773Y-76282295D01*
X147780771Y-76282295D01*
X147775603Y-76282232D01*
X147554783Y-76316022D01*
X147342448Y-76385424D01*
X147144299Y-76488574D01*
X147140166Y-76491677D01*
X147140163Y-76491679D01*
X146969792Y-76619597D01*
X146965657Y-76622702D01*
X146811321Y-76784205D01*
X146808412Y-76788470D01*
X146808406Y-76788478D01*
X146790530Y-76814684D01*
X146685435Y-76968747D01*
X146669695Y-77002657D01*
X146604940Y-77142160D01*
X146591380Y-77171372D01*
X146531681Y-77386637D01*
X146507943Y-77608762D01*
X133458782Y-77608762D01*
X134664257Y-77319009D01*
X134666769Y-77318434D01*
X135938895Y-77040302D01*
X135941337Y-77039794D01*
X136831971Y-76864211D01*
X137226221Y-76786488D01*
X137228768Y-76786013D01*
X138525851Y-76557902D01*
X138528404Y-76557480D01*
X139837324Y-76354905D01*
X139839850Y-76354540D01*
X141160159Y-76177848D01*
X141162703Y-76177534D01*
X142288387Y-76050308D01*
X142493942Y-76027076D01*
X142496509Y-76026813D01*
X143838256Y-75902935D01*
X143840826Y-75902724D01*
X145192681Y-75805768D01*
X145195255Y-75805610D01*
X145750153Y-75777210D01*
X146556779Y-75735927D01*
X146559276Y-75735825D01*
X147930228Y-75693754D01*
X147932711Y-75693704D01*
X149291497Y-75679818D01*
X149302112Y-75680158D01*
G37*
%TD.AperFunction*%
%TD*%
M02*
