M48
; DRILL file {KiCad (6.0.4-0)} date Wednesday, May 11, 2022 at 04:30:11 PM
; FORMAT={-:-/ absolute / inch / decimal}
; #@! TF.CreationDate,2022-05-11T16:30:11-04:00
; #@! TF.GenerationSoftware,Kicad,Pcbnew,(6.0.4-0)
; #@! TF.FileFunction,Plated,1,2,PTH
FMAT,2
INCH
; #@! TA.AperFunction,Plated,PTH,ViaDrill
T1C0.0157
; #@! TA.AperFunction,Plated,PTH,ComponentDrill
T2C0.0394
%
G90
G05
T1
X6.4896Y-4.5603
X6.7Y-4.2
X6.7Y-4.3
X7.2Y-4.4
T2
X3.7678Y-4.3686
X3.7678Y-4.4686
X3.8678Y-4.3686
X3.8678Y-4.4686
X3.9678Y-4.3686
X3.9678Y-4.4686
X4.2969Y-4.5528
X4.3969Y-4.5528
X4.8822Y-4.5523
X4.9822Y-4.5523
X5.8165Y-4.0799
X5.8217Y-3.0568
X5.9165Y-4.0799
X5.9217Y-3.0568
X6.7507Y-4.5523
X6.8507Y-4.5523
X7.3465Y-4.5528
X7.4465Y-4.5528
X7.7141Y-4.1742
X7.7141Y-4.2742
X7.8141Y-4.1742
X7.8141Y-4.2742
X7.9141Y-4.1742
X7.9141Y-4.2742
T0
M30
