%TF.GenerationSoftware,KiCad,Pcbnew,(6.0.4-0)*%
%TF.CreationDate,2022-05-11T16:30:09-04:00*%
%TF.ProjectId,sky_base,736b795f-6261-4736-952e-6b696361645f,v02*%
%TF.SameCoordinates,Original*%
%TF.FileFunction,Soldermask,Bot*%
%TF.FilePolarity,Negative*%
%FSLAX46Y46*%
G04 Gerber Fmt 4.6, Leading zero omitted, Abs format (unit mm)*
G04 Created by KiCad (PCBNEW (6.0.4-0)) date 2022-05-11 16:30:09*
%MOMM*%
%LPD*%
G01*
G04 APERTURE LIST*
G04 Aperture macros list*
%AMRoundRect*
0 Rectangle with rounded corners*
0 $1 Rounding radius*
0 $2 $3 $4 $5 $6 $7 $8 $9 X,Y pos of 4 corners*
0 Add a 4 corners polygon primitive as box body*
4,1,4,$2,$3,$4,$5,$6,$7,$8,$9,$2,$3,0*
0 Add four circle primitives for the rounded corners*
1,1,$1+$1,$2,$3*
1,1,$1+$1,$4,$5*
1,1,$1+$1,$6,$7*
1,1,$1+$1,$8,$9*
0 Add four rect primitives between the rounded corners*
20,1,$1+$1,$2,$3,$4,$5,0*
20,1,$1+$1,$4,$5,$6,$7,0*
20,1,$1+$1,$6,$7,$8,$9,0*
20,1,$1+$1,$8,$9,$2,$3,0*%
G04 Aperture macros list end*
%ADD10R,1.700000X1.700000*%
%ADD11O,1.700000X1.700000*%
%ADD12C,1.700000*%
%ADD13R,1.500000X1.600000*%
%ADD14RoundRect,0.250000X-0.625000X0.400000X-0.625000X-0.400000X0.625000X-0.400000X0.625000X0.400000X0*%
G04 APERTURE END LIST*
D10*
%TO.C,J2*%
X109140692Y-115642067D03*
D11*
X111680692Y-115642067D03*
X147870692Y-77642067D03*
D12*
X150410692Y-77642067D03*
D11*
X186600692Y-115642067D03*
X189140692Y-115642067D03*
%TD*%
D10*
%TO.C,J4*%
X124008147Y-115628821D03*
D11*
X126548147Y-115628821D03*
X147738147Y-103628821D03*
D12*
X150278147Y-103628821D03*
D11*
X171468147Y-115628821D03*
X174008147Y-115628821D03*
%TD*%
D13*
%TO.C,D3*%
X143895333Y-75705791D03*
X140295333Y-75705791D03*
%TD*%
D10*
%TO.C,J3*%
X95701555Y-110962504D03*
D11*
X95701555Y-113502504D03*
X98241555Y-110962504D03*
X98241555Y-113502504D03*
X100781555Y-110962504D03*
X100781555Y-113502504D03*
%TD*%
D10*
%TO.C,J1*%
X195939062Y-106023449D03*
D11*
X195939062Y-108563449D03*
X198479062Y-106023449D03*
X198479062Y-108563449D03*
X201019062Y-106023449D03*
X201019062Y-108563449D03*
%TD*%
D13*
%TO.C,D6*%
X197652715Y-96423747D03*
X194052715Y-96423747D03*
%TD*%
%TO.C,D5*%
X184534712Y-84457717D03*
X180934712Y-84457717D03*
%TD*%
D14*
%TO.C,R6*%
X161142246Y-112721293D03*
X161142246Y-115821293D03*
%TD*%
D13*
%TO.C,D4*%
X161094770Y-75857999D03*
X157494770Y-75857999D03*
%TD*%
D14*
%TO.C,R5*%
X156293726Y-112750000D03*
X156293726Y-115850000D03*
%TD*%
D13*
%TO.C,D2*%
X118754621Y-83696680D03*
X115154621Y-83696680D03*
%TD*%
D14*
%TO.C,R3*%
X145784578Y-112750000D03*
X145784578Y-115850000D03*
%TD*%
%TO.C,R1*%
X135256789Y-112803166D03*
X135256789Y-115903166D03*
%TD*%
D13*
%TO.C,D1*%
X103788680Y-95492755D03*
X100188680Y-95492755D03*
%TD*%
D14*
%TO.C,R4*%
X151039152Y-112886483D03*
X151039152Y-115986483D03*
%TD*%
%TO.C,R2*%
X140393521Y-112798693D03*
X140393521Y-115898693D03*
%TD*%
M02*
