%TF.GenerationSoftware,KiCad,Pcbnew,(6.0.4-0)*%
%TF.CreationDate,2022-05-11T16:30:09-04:00*%
%TF.ProjectId,sky_base,736b795f-6261-4736-952e-6b696361645f,v02*%
%TF.SameCoordinates,Original*%
%TF.FileFunction,Copper,L2,Bot*%
%TF.FilePolarity,Positive*%
%FSLAX46Y46*%
G04 Gerber Fmt 4.6, Leading zero omitted, Abs format (unit mm)*
G04 Created by KiCad (PCBNEW (6.0.4-0)) date 2022-05-11 16:30:09*
%MOMM*%
%LPD*%
G01*
G04 APERTURE LIST*
G04 Aperture macros list*
%AMRoundRect*
0 Rectangle with rounded corners*
0 $1 Rounding radius*
0 $2 $3 $4 $5 $6 $7 $8 $9 X,Y pos of 4 corners*
0 Add a 4 corners polygon primitive as box body*
4,1,4,$2,$3,$4,$5,$6,$7,$8,$9,$2,$3,0*
0 Add four circle primitives for the rounded corners*
1,1,$1+$1,$2,$3*
1,1,$1+$1,$4,$5*
1,1,$1+$1,$6,$7*
1,1,$1+$1,$8,$9*
0 Add four rect primitives between the rounded corners*
20,1,$1+$1,$2,$3,$4,$5,0*
20,1,$1+$1,$4,$5,$6,$7,0*
20,1,$1+$1,$6,$7,$8,$9,0*
20,1,$1+$1,$8,$9,$2,$3,0*%
G04 Aperture macros list end*
%ADD10C,0.300000*%
%TA.AperFunction,NonConductor*%
%ADD11C,0.300000*%
%TD*%
%TA.AperFunction,ComponentPad*%
%ADD12R,1.700000X1.700000*%
%TD*%
%TA.AperFunction,ComponentPad*%
%ADD13O,1.700000X1.700000*%
%TD*%
%TA.AperFunction,ComponentPad*%
%ADD14C,1.700000*%
%TD*%
%TA.AperFunction,SMDPad,CuDef*%
%ADD15R,1.500000X1.600000*%
%TD*%
%TA.AperFunction,SMDPad,CuDef*%
%ADD16RoundRect,0.250000X-0.625000X0.400000X-0.625000X-0.400000X0.625000X-0.400000X0.625000X0.400000X0*%
%TD*%
%TA.AperFunction,ViaPad*%
%ADD17C,0.800000*%
%TD*%
%TA.AperFunction,Conductor*%
%ADD18C,0.254000*%
%TD*%
G04 APERTURE END LIST*
D10*
D11*
X208304328Y-119321584D02*
X207947185Y-120321584D01*
X207590042Y-119321584D01*
X206732899Y-118821584D02*
X206590042Y-118821584D01*
X206447185Y-118893013D01*
X206375756Y-118964441D01*
X206304328Y-119107298D01*
X206232899Y-119393013D01*
X206232899Y-119750155D01*
X206304328Y-120035870D01*
X206375756Y-120178727D01*
X206447185Y-120250155D01*
X206590042Y-120321584D01*
X206732899Y-120321584D01*
X206875756Y-120250155D01*
X206947185Y-120178727D01*
X207018614Y-120035870D01*
X207090042Y-119750155D01*
X207090042Y-119393013D01*
X207018614Y-119107298D01*
X206947185Y-118964441D01*
X206875756Y-118893013D01*
X206732899Y-118821584D01*
X205661471Y-118964441D02*
X205590042Y-118893013D01*
X205447185Y-118821584D01*
X205090042Y-118821584D01*
X204947185Y-118893013D01*
X204875756Y-118964441D01*
X204804328Y-119107298D01*
X204804328Y-119250155D01*
X204875756Y-119464441D01*
X205732899Y-120321584D01*
X204804328Y-120321584D01*
D12*
%TO.P,J2,1,Pin_1*%
%TO.N,VCC*%
X109140692Y-115642067D03*
D13*
%TO.P,J2,2,Pin_2*%
%TO.N,GND*%
X111680692Y-115642067D03*
%TO.P,J2,3,Pin_3*%
%TO.N,Net-(J2-Pad3)*%
X147870692Y-77642067D03*
D14*
%TO.P,J2,4,Pin_4*%
%TO.N,Net-(J1-Pad4)*%
X150410692Y-77642067D03*
D13*
%TO.P,J2,5,Pin_5*%
%TO.N,Net-(J1-Pad5)*%
X186600692Y-115642067D03*
%TO.P,J2,6,Pin_6*%
%TO.N,Net-(J1-Pad6)*%
X189140692Y-115642067D03*
%TD*%
D12*
%TO.P,J4,1,Pin_1*%
%TO.N,VCC*%
X124008147Y-115628821D03*
D13*
%TO.P,J4,2,Pin_2*%
%TO.N,GND*%
X126548147Y-115628821D03*
%TO.P,J4,3,Pin_3*%
%TO.N,Net-(J2-Pad3)*%
X147738147Y-103628821D03*
D14*
%TO.P,J4,4,Pin_4*%
%TO.N,Net-(J1-Pad4)*%
X150278147Y-103628821D03*
D13*
%TO.P,J4,5,Pin_5*%
%TO.N,Net-(J1-Pad5)*%
X171468147Y-115628821D03*
%TO.P,J4,6,Pin_6*%
%TO.N,Net-(J1-Pad6)*%
X174008147Y-115628821D03*
%TD*%
D15*
%TO.P,D3,1,K*%
%TO.N,GND*%
X143895333Y-75705791D03*
%TO.P,D3,2,A*%
%TO.N,Net-(D3-Pad2)*%
X140295333Y-75705791D03*
%TD*%
D12*
%TO.P,J3,1,Pin_1*%
%TO.N,VCC*%
X95701555Y-110962504D03*
D13*
%TO.P,J3,2,Pin_2*%
%TO.N,GND*%
X95701555Y-113502504D03*
%TO.P,J3,3,Pin_3*%
%TO.N,Net-(J2-Pad3)*%
X98241555Y-110962504D03*
%TO.P,J3,4,Pin_4*%
%TO.N,Net-(J1-Pad4)*%
X98241555Y-113502504D03*
%TO.P,J3,5,Pin_5*%
%TO.N,Net-(J1-Pad5)*%
X100781555Y-110962504D03*
%TO.P,J3,6,Pin_6*%
%TO.N,Net-(J1-Pad6)*%
X100781555Y-113502504D03*
%TD*%
D12*
%TO.P,J1,1,Pin_1*%
%TO.N,VCC*%
X195939062Y-106023449D03*
D13*
%TO.P,J1,2,Pin_2*%
%TO.N,GND*%
X195939062Y-108563449D03*
%TO.P,J1,3,Pin_3*%
%TO.N,Net-(J2-Pad3)*%
X198479062Y-106023449D03*
%TO.P,J1,4,Pin_4*%
%TO.N,Net-(J1-Pad4)*%
X198479062Y-108563449D03*
%TO.P,J1,5,Pin_5*%
%TO.N,Net-(J1-Pad5)*%
X201019062Y-106023449D03*
%TO.P,J1,6,Pin_6*%
%TO.N,Net-(J1-Pad6)*%
X201019062Y-108563449D03*
%TD*%
D15*
%TO.P,D6,1,K*%
%TO.N,GND*%
X197652715Y-96423747D03*
%TO.P,D6,2,A*%
%TO.N,Net-(D6-Pad2)*%
X194052715Y-96423747D03*
%TD*%
%TO.P,D5,1,K*%
%TO.N,GND*%
X184534712Y-84457717D03*
%TO.P,D5,2,A*%
%TO.N,Net-(D5-Pad2)*%
X180934712Y-84457717D03*
%TD*%
D16*
%TO.P,R6,1*%
%TO.N,Net-(D6-Pad2)*%
X161142246Y-112721293D03*
%TO.P,R6,2*%
%TO.N,VCC*%
X161142246Y-115821293D03*
%TD*%
D15*
%TO.P,D4,1,K*%
%TO.N,GND*%
X161094770Y-75857999D03*
%TO.P,D4,2,A*%
%TO.N,Net-(D4-Pad2)*%
X157494770Y-75857999D03*
%TD*%
D16*
%TO.P,R5,1*%
%TO.N,Net-(D5-Pad2)*%
X156293726Y-112750000D03*
%TO.P,R5,2*%
%TO.N,VCC*%
X156293726Y-115850000D03*
%TD*%
D15*
%TO.P,D2,1,K*%
%TO.N,GND*%
X118754621Y-83696680D03*
%TO.P,D2,2,A*%
%TO.N,Net-(D2-Pad2)*%
X115154621Y-83696680D03*
%TD*%
D16*
%TO.P,R3,1*%
%TO.N,Net-(D3-Pad2)*%
X145784578Y-112750000D03*
%TO.P,R3,2*%
%TO.N,VCC*%
X145784578Y-115850000D03*
%TD*%
%TO.P,R1,1*%
%TO.N,Net-(D1-Pad2)*%
X135256789Y-112803166D03*
%TO.P,R1,2*%
%TO.N,VCC*%
X135256789Y-115903166D03*
%TD*%
D15*
%TO.P,D1,1,K*%
%TO.N,GND*%
X103788680Y-95492755D03*
%TO.P,D1,2,A*%
%TO.N,Net-(D1-Pad2)*%
X100188680Y-95492755D03*
%TD*%
D16*
%TO.P,R4,1*%
%TO.N,Net-(D4-Pad2)*%
X151039152Y-112886483D03*
%TO.P,R4,2*%
%TO.N,VCC*%
X151039152Y-115986483D03*
%TD*%
%TO.P,R2,1*%
%TO.N,Net-(D2-Pad2)*%
X140393521Y-112798693D03*
%TO.P,R2,2*%
%TO.N,VCC*%
X140393521Y-115898693D03*
%TD*%
D17*
%TO.N,VCC*%
X182880000Y-111760000D03*
X164836168Y-115832515D03*
%TO.N,Net-(J1-Pad4)*%
X170180000Y-109220000D03*
%TO.N,Net-(J2-Pad3)*%
X170180000Y-106680000D03*
%TD*%
D18*
%TO.N,VCC*%
X161153468Y-115832515D02*
X164836168Y-115832515D01*
X156322433Y-115821293D02*
X161142246Y-115821293D01*
X140393521Y-115898693D02*
X140442214Y-115850000D01*
X145784578Y-115850000D02*
X145921061Y-115986483D01*
X96878066Y-112139015D02*
X95701555Y-110962504D01*
X133805933Y-114452310D02*
X135256789Y-115903166D01*
X110317203Y-114465556D02*
X122844882Y-114465556D01*
X135261262Y-115898693D02*
X140393521Y-115898693D01*
X182880000Y-111760000D02*
X188616551Y-106023449D01*
X125184658Y-114452310D02*
X133805933Y-114452310D01*
X98717279Y-115642067D02*
X96878066Y-113802854D01*
X140442214Y-115850000D02*
X145784578Y-115850000D01*
X96878066Y-113802854D02*
X96878066Y-112139015D01*
X109140692Y-115642067D02*
X110317203Y-114465556D01*
X151175635Y-115850000D02*
X156293726Y-115850000D01*
X122844882Y-114465556D02*
X124008147Y-115628821D01*
X145921061Y-115986483D02*
X151039152Y-115986483D01*
X109140692Y-115642067D02*
X98717279Y-115642067D01*
X151039152Y-115986483D02*
X151175635Y-115850000D01*
X156293726Y-115850000D02*
X156322433Y-115821293D01*
X188616551Y-106023449D02*
X195939062Y-106023449D01*
X124008147Y-115628821D02*
X125184658Y-114452310D01*
X135256789Y-115903166D02*
X135261262Y-115898693D01*
%TO.N,GND*%
X112843957Y-116805332D02*
X125371636Y-116805332D01*
X111680692Y-115642067D02*
X112843957Y-116805332D01*
X125371636Y-116805332D02*
X126548147Y-115628821D01*
%TO.N,Net-(D6-Pad2)*%
X194052715Y-96423747D02*
X177439792Y-96423747D01*
X177439792Y-96423747D02*
X161142246Y-112721293D01*
%TO.N,Net-(J1-Pad4)*%
X150410692Y-77642067D02*
X150410692Y-103496276D01*
X150410692Y-103496276D02*
X150278147Y-103628821D01*
X198479062Y-108563449D02*
X194556000Y-112486511D01*
X194556000Y-112486511D02*
X173446511Y-112486511D01*
X173446511Y-112486511D02*
X170180000Y-109220000D01*
%TO.N,Net-(J1-Pad5)*%
X203200000Y-109220000D02*
X203200000Y-108204387D01*
X171468147Y-115628821D02*
X172644658Y-116805332D01*
X185437427Y-116805332D02*
X186600692Y-115642067D01*
X172644658Y-116805332D02*
X185437427Y-116805332D01*
X195601422Y-116818578D02*
X203200000Y-109220000D01*
X203200000Y-108204387D02*
X201019062Y-106023449D01*
X186600692Y-115642067D02*
X187777203Y-116818578D01*
X187777203Y-116818578D02*
X195601422Y-116818578D01*
%TO.N,Net-(J1-Pad6)*%
X189140692Y-115642067D02*
X193940444Y-115642067D01*
X187964181Y-114465556D02*
X189140692Y-115642067D01*
X175171412Y-114465556D02*
X187964181Y-114465556D01*
X174008147Y-115628821D02*
X175171412Y-114465556D01*
X100781555Y-113502504D02*
X101142054Y-113863003D01*
X193940444Y-115642067D02*
X201019062Y-108563449D01*
X172242329Y-113863003D02*
X174008147Y-115628821D01*
X101142054Y-113863003D02*
X172242329Y-113863003D01*
%TO.N,Net-(D1-Pad2)*%
X100188680Y-95492755D02*
X117499091Y-112803166D01*
X117499091Y-112803166D02*
X135256789Y-112803166D01*
%TO.N,Net-(D2-Pad2)*%
X115154621Y-83696680D02*
X115154621Y-87559793D01*
X115154621Y-87559793D02*
X140393521Y-112798693D01*
%TO.N,Net-(D3-Pad2)*%
X140295333Y-107260755D02*
X145784578Y-112750000D01*
X140295333Y-75705791D02*
X140295333Y-107260755D01*
%TO.N,Net-(D4-Pad2)*%
X157494770Y-106430865D02*
X151039152Y-112886483D01*
X157494770Y-75857999D02*
X157494770Y-106430865D01*
%TO.N,Net-(D5-Pad2)*%
X180934712Y-88109014D02*
X156293726Y-112750000D01*
X180934712Y-84457717D02*
X180934712Y-88109014D01*
%TO.N,Net-(J2-Pad3)*%
X147870692Y-77642067D02*
X147870692Y-103496276D01*
X198479062Y-106023449D02*
X197302551Y-104846938D01*
X147870692Y-103496276D02*
X147738147Y-103628821D01*
X197302551Y-104846938D02*
X172013062Y-104846938D01*
X172013062Y-104846938D02*
X170180000Y-106680000D01*
%TD*%
%TA.AperFunction,Conductor*%
%TO.N,GND*%
G36*
X149478299Y-72614197D02*
G01*
X149526808Y-72616302D01*
X149526809Y-72616302D01*
X149535774Y-72616691D01*
X149542735Y-72614979D01*
X149551545Y-72614583D01*
X150389315Y-72622022D01*
X150823558Y-72625878D01*
X150825758Y-72625918D01*
X152155727Y-72661373D01*
X152157874Y-72661448D01*
X153236241Y-72709378D01*
X153480289Y-72720225D01*
X153482523Y-72720344D01*
X153794530Y-72739768D01*
X154796812Y-72802164D01*
X154798982Y-72802319D01*
X155253511Y-72838725D01*
X156105042Y-72906931D01*
X156107270Y-72907130D01*
X157404584Y-73034251D01*
X157406807Y-73034488D01*
X158364386Y-73145509D01*
X158695356Y-73183881D01*
X158697561Y-73184157D01*
X158887631Y-73209620D01*
X159976768Y-73355527D01*
X159978982Y-73355843D01*
X160196605Y-73388939D01*
X161248827Y-73548961D01*
X161250926Y-73549299D01*
X162511022Y-73763895D01*
X162513136Y-73764275D01*
X163763050Y-74000058D01*
X163765135Y-74000471D01*
X165004638Y-74257193D01*
X165006734Y-74257647D01*
X165687554Y-74411339D01*
X166235598Y-74535058D01*
X166237783Y-74535572D01*
X167455401Y-74833338D01*
X167457579Y-74833891D01*
X167839483Y-74934537D01*
X168663966Y-75151820D01*
X168666060Y-75152391D01*
X169076402Y-75268411D01*
X169860865Y-75490210D01*
X169863030Y-75490843D01*
X171045831Y-75848248D01*
X171047988Y-75848921D01*
X172218599Y-76225686D01*
X172220747Y-76226399D01*
X173371078Y-76619597D01*
X173378775Y-76622228D01*
X173380902Y-76622977D01*
X174468754Y-77016859D01*
X174483843Y-77024183D01*
X174490255Y-77027002D01*
X174497880Y-77031745D01*
X174506529Y-77034157D01*
X174506531Y-77034158D01*
X174545482Y-77045021D01*
X174554530Y-77047916D01*
X174561636Y-77050489D01*
X174561643Y-77050491D01*
X174565858Y-77052017D01*
X174570257Y-77052932D01*
X174570256Y-77052932D01*
X174580293Y-77055021D01*
X174588462Y-77057007D01*
X174638184Y-77070874D01*
X174647162Y-77070762D01*
X174655334Y-77071828D01*
X174663561Y-77072346D01*
X174672350Y-77074175D01*
X174681297Y-77073464D01*
X174681304Y-77073464D01*
X174723805Y-77070084D01*
X174732215Y-77069697D01*
X174739655Y-77069604D01*
X174745223Y-77069535D01*
X174745225Y-77069535D01*
X174750093Y-77069474D01*
X174761267Y-77067590D01*
X174772218Y-77066234D01*
X174817549Y-77062630D01*
X174825933Y-77059437D01*
X174825935Y-77059437D01*
X174827242Y-77058939D01*
X174851139Y-77052443D01*
X175654520Y-76917034D01*
X175668588Y-76915471D01*
X176565590Y-76866544D01*
X176581787Y-76866704D01*
X177803420Y-76957575D01*
X177822989Y-76960592D01*
X178134942Y-77034158D01*
X178878156Y-77209427D01*
X178900184Y-77216823D01*
X179727029Y-77582385D01*
X179753863Y-77598500D01*
X180262162Y-77997356D01*
X180284782Y-78015106D01*
X180315855Y-78050777D01*
X180333672Y-78081343D01*
X180599688Y-78537699D01*
X180607588Y-78553782D01*
X180614692Y-78571292D01*
X180614694Y-78571296D01*
X180618069Y-78579614D01*
X180623642Y-78586650D01*
X180623644Y-78586653D01*
X180640977Y-78608534D01*
X180640987Y-78608548D01*
X180640998Y-78608567D01*
X180641037Y-78608616D01*
X180641039Y-78608619D01*
X180646891Y-78616005D01*
X180666690Y-78640995D01*
X180708510Y-78693792D01*
X180708528Y-78693805D01*
X180708544Y-78693825D01*
X180772084Y-78738832D01*
X180772093Y-78738843D01*
X180772095Y-78738840D01*
X180827362Y-78777996D01*
X180827383Y-78778003D01*
X180827404Y-78778018D01*
X180836011Y-78780984D01*
X180836012Y-78780984D01*
X180899457Y-78802844D01*
X180899469Y-78802848D01*
X180956461Y-78822491D01*
X180956462Y-78822491D01*
X180965070Y-78825458D01*
X180965093Y-78825459D01*
X180965116Y-78825467D01*
X181037773Y-78828909D01*
X181037782Y-78828910D01*
X181076797Y-78830761D01*
X181076799Y-78830761D01*
X181076862Y-78830764D01*
X181076886Y-78830761D01*
X181110611Y-78832359D01*
X181141523Y-78824887D01*
X181157657Y-78822082D01*
X181824044Y-78750476D01*
X181859516Y-78751693D01*
X182849002Y-78927271D01*
X182905684Y-78952932D01*
X183116789Y-79121775D01*
X183419817Y-79364139D01*
X183437256Y-79381093D01*
X183438894Y-79383026D01*
X183444697Y-79389876D01*
X183452184Y-79394819D01*
X183452186Y-79394820D01*
X183481692Y-79414297D01*
X183490980Y-79421056D01*
X183496545Y-79425507D01*
X183513579Y-79435542D01*
X183519009Y-79438931D01*
X183566257Y-79470121D01*
X183574838Y-79472766D01*
X183578649Y-79474566D01*
X183582528Y-79476161D01*
X183590264Y-79480718D01*
X183645163Y-79494612D01*
X183651332Y-79496343D01*
X183705453Y-79513024D01*
X183714426Y-79513154D01*
X183718573Y-79513810D01*
X183722771Y-79514255D01*
X183731469Y-79516456D01*
X183740436Y-79516128D01*
X183740438Y-79516128D01*
X183788035Y-79514386D01*
X183794465Y-79514315D01*
X183812495Y-79514576D01*
X183812500Y-79514576D01*
X183817359Y-79514646D01*
X183822167Y-79513968D01*
X183822175Y-79513968D01*
X183823690Y-79513754D01*
X183836664Y-79512605D01*
X183877029Y-79511127D01*
X183891669Y-79506258D01*
X183913854Y-79501050D01*
X184812256Y-79374471D01*
X184850305Y-79374913D01*
X185838919Y-79537687D01*
X185892735Y-79560242D01*
X186091096Y-79705042D01*
X186487503Y-79994413D01*
X186491908Y-79997779D01*
X186538590Y-80035112D01*
X186546889Y-80038524D01*
X186546892Y-80038526D01*
X186577097Y-80050946D01*
X186588293Y-80056206D01*
X186617136Y-80071529D01*
X186617144Y-80071532D01*
X186625069Y-80075742D01*
X186687763Y-80088700D01*
X186691635Y-80089565D01*
X187538124Y-80292800D01*
X187599692Y-80328152D01*
X187632374Y-80391179D01*
X187625793Y-80461870D01*
X187600655Y-80501467D01*
X187391041Y-80725189D01*
X187381341Y-80734494D01*
X187358353Y-80754301D01*
X187358351Y-80754303D01*
X187351555Y-80760159D01*
X187346673Y-80767691D01*
X187346672Y-80767692D01*
X187318068Y-80811822D01*
X187315595Y-80815494D01*
X187280277Y-80865960D01*
X187277512Y-80874138D01*
X187277024Y-80875145D01*
X187272330Y-80882387D01*
X187269756Y-80890994D01*
X187254689Y-80941375D01*
X187253341Y-80945608D01*
X187233614Y-81003941D01*
X187233255Y-81012557D01*
X187233068Y-81013671D01*
X187230596Y-81021938D01*
X187230541Y-81030908D01*
X187230541Y-81030909D01*
X187230220Y-81083506D01*
X187230114Y-81087960D01*
X187227551Y-81149472D01*
X187229624Y-81157839D01*
X187229759Y-81158971D01*
X187229706Y-81167593D01*
X187232174Y-81176228D01*
X187246615Y-81226758D01*
X187247768Y-81231082D01*
X187260418Y-81282142D01*
X187260421Y-81282149D01*
X187262578Y-81290856D01*
X187266921Y-81298313D01*
X187267364Y-81299353D01*
X187269733Y-81307643D01*
X187292422Y-81343603D01*
X187302563Y-81359675D01*
X187304885Y-81363503D01*
X187327666Y-81402621D01*
X187335879Y-81416725D01*
X187342137Y-81422660D01*
X187342857Y-81423537D01*
X187347458Y-81430830D01*
X187354181Y-81436768D01*
X187354184Y-81436771D01*
X187393603Y-81471584D01*
X187396878Y-81474581D01*
X187441561Y-81516962D01*
X187449235Y-81520903D01*
X187450168Y-81521540D01*
X187456633Y-81527250D01*
X187501004Y-81548082D01*
X187512344Y-81553406D01*
X187516360Y-81555380D01*
X187563141Y-81579407D01*
X187563145Y-81579408D01*
X187571129Y-81583509D01*
X187579595Y-81585138D01*
X187580679Y-81585490D01*
X187588482Y-81589153D01*
X187597345Y-81590533D01*
X187597348Y-81590534D01*
X187649329Y-81598628D01*
X187653735Y-81599395D01*
X187696217Y-81607564D01*
X187715752Y-81617625D01*
X187725522Y-81611684D01*
X187746113Y-81607987D01*
X187746558Y-81607945D01*
X187757224Y-81606934D01*
X187769112Y-81606372D01*
X187893002Y-81606372D01*
X187901122Y-81606634D01*
X187913688Y-81607446D01*
X187937341Y-81608974D01*
X188004030Y-81633327D01*
X188046966Y-81689869D01*
X188052518Y-81760648D01*
X188018922Y-81823193D01*
X187956845Y-81857645D01*
X187936681Y-81860490D01*
X187901337Y-81862584D01*
X187890766Y-81862765D01*
X187789803Y-81860255D01*
X187754872Y-81859386D01*
X187712067Y-81845653D01*
X187684454Y-81856721D01*
X187669298Y-81857258D01*
X187225391Y-81846218D01*
X187148701Y-81844311D01*
X187137322Y-81843512D01*
X186384262Y-81756199D01*
X186380509Y-81755706D01*
X186325434Y-81747637D01*
X186316554Y-81746336D01*
X186279710Y-81751491D01*
X186265641Y-81752660D01*
X186251864Y-81753029D01*
X186237429Y-81753416D01*
X186237427Y-81753416D01*
X186228454Y-81753657D01*
X186219908Y-81756407D01*
X186219906Y-81756407D01*
X186211289Y-81759180D01*
X186190166Y-81764019D01*
X186172302Y-81766518D01*
X186164120Y-81770206D01*
X186164114Y-81770208D01*
X186138390Y-81781804D01*
X186125209Y-81786878D01*
X186089798Y-81798272D01*
X186082367Y-81803310D01*
X186074876Y-81808388D01*
X186055951Y-81818965D01*
X186047698Y-81822685D01*
X186047693Y-81822688D01*
X186039512Y-81826376D01*
X186016994Y-81845653D01*
X186011258Y-81850563D01*
X186000025Y-81859137D01*
X185969237Y-81880010D01*
X185957750Y-81893913D01*
X185942560Y-81909370D01*
X185935681Y-81915258D01*
X185935678Y-81915262D01*
X185928860Y-81921098D01*
X185908519Y-81952260D01*
X185900161Y-81963617D01*
X185876462Y-81992300D01*
X185869340Y-82008866D01*
X185859100Y-82027964D01*
X185849240Y-82043069D01*
X185846640Y-82051662D01*
X185846639Y-82051664D01*
X185838469Y-82078666D01*
X185833625Y-82091940D01*
X185824170Y-82113934D01*
X185818933Y-82126115D01*
X185817845Y-82135025D01*
X185816747Y-82144014D01*
X185812275Y-82165233D01*
X185807055Y-82182484D01*
X185806971Y-82191463D01*
X185806707Y-82219667D01*
X185805784Y-82233763D01*
X185801273Y-82270699D01*
X185802729Y-82279554D01*
X185802729Y-82279561D01*
X185804197Y-82288490D01*
X185805861Y-82310102D01*
X185805693Y-82328136D01*
X185808131Y-82336773D01*
X185808132Y-82336779D01*
X185815799Y-82363939D01*
X185818868Y-82377725D01*
X185823446Y-82405565D01*
X185823448Y-82405571D01*
X185824904Y-82414427D01*
X185832233Y-82429698D01*
X185832703Y-82430678D01*
X185840365Y-82450954D01*
X185845266Y-82468314D01*
X185857401Y-82487685D01*
X185865017Y-82499843D01*
X185871832Y-82512215D01*
X185887924Y-82545746D01*
X185893923Y-82552423D01*
X185893924Y-82552425D01*
X185899972Y-82559157D01*
X185913017Y-82576469D01*
X185917822Y-82584140D01*
X185917828Y-82584147D01*
X185922592Y-82591752D01*
X185929301Y-82597716D01*
X185950397Y-82616469D01*
X185960414Y-82626434D01*
X185975325Y-82643031D01*
X185985267Y-82654098D01*
X186019552Y-82675326D01*
X186044273Y-82690632D01*
X186046172Y-82691831D01*
X186543435Y-83012115D01*
X187121351Y-83384349D01*
X187123974Y-83386085D01*
X188069685Y-84029752D01*
X188178154Y-84103578D01*
X188180763Y-84105403D01*
X189165667Y-84812831D01*
X189213718Y-84847345D01*
X189216263Y-84849222D01*
X190227576Y-85614977D01*
X190230023Y-85616877D01*
X190649323Y-85951266D01*
X191219229Y-86405762D01*
X191221673Y-86407762D01*
X192188314Y-87219098D01*
X192190702Y-87221153D01*
X192254160Y-87277179D01*
X193035230Y-87966775D01*
X193134384Y-88054317D01*
X193136706Y-88056420D01*
X193718794Y-88596792D01*
X194056972Y-88910734D01*
X194059247Y-88912899D01*
X194529561Y-89371875D01*
X194955645Y-89787688D01*
X194957858Y-89789902D01*
X195809931Y-90663959D01*
X195830032Y-90684579D01*
X195832188Y-90686847D01*
X196103766Y-90979702D01*
X196679577Y-91600624D01*
X196681680Y-91602950D01*
X197421140Y-92441376D01*
X197503947Y-92535266D01*
X197506001Y-92537654D01*
X198302736Y-93487881D01*
X198304733Y-93490324D01*
X199075381Y-94457649D01*
X199077322Y-94460149D01*
X199573228Y-95115747D01*
X199777236Y-95385450D01*
X199821523Y-95443999D01*
X199823403Y-95446551D01*
X200105654Y-95839915D01*
X200540733Y-96446270D01*
X200542559Y-96448884D01*
X201232570Y-97463789D01*
X201234294Y-97466395D01*
X201896600Y-98495891D01*
X201898263Y-98498550D01*
X202532357Y-99541854D01*
X202533987Y-99544615D01*
X203124932Y-100575735D01*
X203139455Y-100601076D01*
X203141035Y-100603917D01*
X203453355Y-101183111D01*
X203717505Y-101672975D01*
X203719024Y-101675883D01*
X204125159Y-102478433D01*
X204265969Y-102756684D01*
X204267412Y-102759632D01*
X204376212Y-102989411D01*
X204784485Y-103851666D01*
X204785873Y-103854699D01*
X205272624Y-104957246D01*
X205273942Y-104960342D01*
X205487965Y-105482438D01*
X205653479Y-105886197D01*
X205729986Y-106072832D01*
X205731228Y-106075984D01*
X206154846Y-107194345D01*
X206156057Y-107197543D01*
X206157220Y-107200745D01*
X206324953Y-107682771D01*
X206550495Y-108330930D01*
X206551588Y-108334216D01*
X206664141Y-108688774D01*
X206898324Y-109426486D01*
X206912832Y-109472190D01*
X206913841Y-109475526D01*
X207242685Y-110620804D01*
X207243593Y-110624144D01*
X207522744Y-111710418D01*
X207539582Y-111775939D01*
X207540421Y-111779407D01*
X207620157Y-112130761D01*
X207803150Y-112937109D01*
X207803899Y-112940645D01*
X208032937Y-114103536D01*
X208033591Y-114107133D01*
X208110582Y-114568220D01*
X208226216Y-115260728D01*
X208228526Y-115274565D01*
X208229080Y-115278204D01*
X208389520Y-116449693D01*
X208389964Y-116453332D01*
X208508480Y-117562627D01*
X208495828Y-117632488D01*
X208447415Y-117684418D01*
X208383193Y-117702013D01*
X203860114Y-117702013D01*
X203860114Y-120542264D01*
X203840112Y-120610385D01*
X203786456Y-120656878D01*
X203734069Y-120668264D01*
X90423645Y-120628209D01*
X90355532Y-120608183D01*
X90309058Y-120554511D01*
X90297759Y-120506364D01*
X90295002Y-120422810D01*
X90294934Y-120419243D01*
X90291690Y-119724572D01*
X90291707Y-119721884D01*
X90312936Y-118448511D01*
X90313076Y-118444311D01*
X90376215Y-117183150D01*
X90376494Y-117178965D01*
X90447717Y-116326004D01*
X90481067Y-115926602D01*
X90481482Y-115922467D01*
X90481569Y-115921731D01*
X90626954Y-114679304D01*
X90627504Y-114675195D01*
X90627775Y-114673400D01*
X90763806Y-113770470D01*
X94369812Y-113770470D01*
X94400120Y-113904950D01*
X94403200Y-113914779D01*
X94483325Y-114112107D01*
X94487968Y-114121298D01*
X94599249Y-114302892D01*
X94605332Y-114311203D01*
X94744768Y-114472171D01*
X94752135Y-114479387D01*
X94915989Y-114615420D01*
X94924436Y-114621335D01*
X95108311Y-114728783D01*
X95117597Y-114733233D01*
X95316556Y-114809207D01*
X95326454Y-114812083D01*
X95429805Y-114833110D01*
X95443854Y-114831914D01*
X95447555Y-114821569D01*
X95447555Y-113774619D01*
X95443080Y-113759380D01*
X95441690Y-113758175D01*
X95434007Y-113756504D01*
X94384780Y-113756504D01*
X94371249Y-113760477D01*
X94369812Y-113770470D01*
X90763806Y-113770470D01*
X90813339Y-113441682D01*
X90814021Y-113437607D01*
X90823140Y-113388170D01*
X91010880Y-112370304D01*
X91039703Y-112214035D01*
X91040515Y-112210002D01*
X91305522Y-110996777D01*
X91306459Y-110992801D01*
X91457769Y-110393916D01*
X91610238Y-109790447D01*
X91611285Y-109786564D01*
X91618382Y-109761852D01*
X91885562Y-108831415D01*
X91953357Y-108595324D01*
X91954527Y-108591483D01*
X92178757Y-107895072D01*
X92334350Y-107411833D01*
X92335624Y-107408080D01*
X92336636Y-107405246D01*
X92752690Y-106240414D01*
X92754045Y-106236800D01*
X93207853Y-105081487D01*
X93209319Y-105077919D01*
X93232747Y-105023297D01*
X93699311Y-103935480D01*
X93700877Y-103931976D01*
X93738264Y-103851666D01*
X94226577Y-102802739D01*
X94228228Y-102799329D01*
X94242492Y-102770959D01*
X94789080Y-101683791D01*
X94790815Y-101680464D01*
X95386347Y-100578968D01*
X95388157Y-100575735D01*
X96017834Y-99488737D01*
X96019713Y-99485600D01*
X96683003Y-98413557D01*
X96684945Y-98410516D01*
X97381343Y-97353830D01*
X97383344Y-97350886D01*
X98112306Y-96310030D01*
X98114360Y-96307181D01*
X98660242Y-95572216D01*
X98703028Y-95514610D01*
X98759703Y-95471850D01*
X98830499Y-95466519D01*
X98892939Y-95500309D01*
X98927199Y-95562492D01*
X98930180Y-95589739D01*
X98930180Y-96340889D01*
X98936935Y-96403071D01*
X98988065Y-96539460D01*
X99075419Y-96656016D01*
X99191975Y-96743370D01*
X99328364Y-96794500D01*
X99390546Y-96801255D01*
X100546258Y-96801255D01*
X100614379Y-96821257D01*
X100635353Y-96838160D01*
X116809600Y-113012408D01*
X116843626Y-113074720D01*
X116838561Y-113145535D01*
X116796014Y-113202371D01*
X116729494Y-113227182D01*
X116720505Y-113227503D01*
X102211520Y-113227503D01*
X102143399Y-113207501D01*
X102096906Y-113153845D01*
X102089316Y-113132199D01*
X102087635Y-113125506D01*
X102071986Y-113063206D01*
X101982909Y-112858344D01*
X101898579Y-112727989D01*
X101864377Y-112675121D01*
X101864375Y-112675118D01*
X101861569Y-112670781D01*
X101711225Y-112505555D01*
X101707174Y-112502356D01*
X101707170Y-112502352D01*
X101539969Y-112370304D01*
X101539965Y-112370302D01*
X101535914Y-112367102D01*
X101494608Y-112344300D01*
X101444639Y-112293868D01*
X101429867Y-112224425D01*
X101454983Y-112158020D01*
X101482335Y-112131413D01*
X101545766Y-112086168D01*
X101661415Y-112003677D01*
X101684757Y-111980417D01*
X101783638Y-111881880D01*
X101819651Y-111845993D01*
X101849332Y-111804688D01*
X101946990Y-111668781D01*
X101950008Y-111664581D01*
X101953318Y-111657885D01*
X102046691Y-111468957D01*
X102046692Y-111468955D01*
X102048985Y-111464315D01*
X102113925Y-111250573D01*
X102143084Y-111029094D01*
X102143971Y-110992801D01*
X102144629Y-110965869D01*
X102144629Y-110965865D01*
X102144711Y-110962504D01*
X102126407Y-110739865D01*
X102071986Y-110523206D01*
X101982909Y-110318344D01*
X101943461Y-110257366D01*
X101864377Y-110135121D01*
X101864375Y-110135118D01*
X101861569Y-110130781D01*
X101711225Y-109965555D01*
X101707174Y-109962356D01*
X101707170Y-109962352D01*
X101539969Y-109830304D01*
X101539965Y-109830302D01*
X101535914Y-109827102D01*
X101340344Y-109719142D01*
X101335475Y-109717418D01*
X101335471Y-109717416D01*
X101134642Y-109646299D01*
X101134638Y-109646298D01*
X101129767Y-109644573D01*
X101124674Y-109643666D01*
X101124671Y-109643665D01*
X100914928Y-109606304D01*
X100914922Y-109606303D01*
X100909839Y-109605398D01*
X100836007Y-109604496D01*
X100691636Y-109602732D01*
X100691634Y-109602732D01*
X100686466Y-109602669D01*
X100465646Y-109636459D01*
X100253311Y-109705861D01*
X100055162Y-109809011D01*
X100051029Y-109812114D01*
X100051026Y-109812116D01*
X99880655Y-109940034D01*
X99876520Y-109943139D01*
X99872948Y-109946877D01*
X99736018Y-110090166D01*
X99722184Y-110104642D01*
X99614756Y-110262125D01*
X99559848Y-110307125D01*
X99489323Y-110315296D01*
X99425576Y-110284042D01*
X99404879Y-110259558D01*
X99324377Y-110135121D01*
X99324375Y-110135118D01*
X99321569Y-110130781D01*
X99171225Y-109965555D01*
X99167174Y-109962356D01*
X99167170Y-109962352D01*
X98999969Y-109830304D01*
X98999965Y-109830302D01*
X98995914Y-109827102D01*
X98800344Y-109719142D01*
X98795475Y-109717418D01*
X98795471Y-109717416D01*
X98594642Y-109646299D01*
X98594638Y-109646298D01*
X98589767Y-109644573D01*
X98584674Y-109643666D01*
X98584671Y-109643665D01*
X98374928Y-109606304D01*
X98374922Y-109606303D01*
X98369839Y-109605398D01*
X98296007Y-109604496D01*
X98151636Y-109602732D01*
X98151634Y-109602732D01*
X98146466Y-109602669D01*
X97925646Y-109636459D01*
X97713311Y-109705861D01*
X97515162Y-109809011D01*
X97511029Y-109812114D01*
X97511026Y-109812116D01*
X97340655Y-109940034D01*
X97336520Y-109943139D01*
X97275267Y-110007237D01*
X97255838Y-110027568D01*
X97194314Y-110062998D01*
X97123401Y-110059541D01*
X97065615Y-110018295D01*
X97046762Y-109984747D01*
X97005322Y-109874207D01*
X97002170Y-109865799D01*
X96914816Y-109749243D01*
X96798260Y-109661889D01*
X96661871Y-109610759D01*
X96599689Y-109604004D01*
X94803421Y-109604004D01*
X94741239Y-109610759D01*
X94604850Y-109661889D01*
X94488294Y-109749243D01*
X94400940Y-109865799D01*
X94349810Y-110002188D01*
X94343055Y-110064370D01*
X94343055Y-111860638D01*
X94349810Y-111922820D01*
X94400940Y-112059209D01*
X94488294Y-112175765D01*
X94604850Y-112263119D01*
X94613259Y-112266271D01*
X94613260Y-112266272D01*
X94722515Y-112307230D01*
X94779280Y-112349871D01*
X94803980Y-112416433D01*
X94788773Y-112485782D01*
X94769380Y-112512263D01*
X94646145Y-112641221D01*
X94639659Y-112649231D01*
X94519653Y-112825153D01*
X94514555Y-112834127D01*
X94424893Y-113027287D01*
X94421330Y-113036974D01*
X94365944Y-113236687D01*
X94367467Y-113245111D01*
X94379847Y-113248504D01*
X95829555Y-113248504D01*
X95897676Y-113268506D01*
X95944169Y-113322162D01*
X95955555Y-113374504D01*
X95955555Y-114821021D01*
X95959619Y-114834863D01*
X95973033Y-114836897D01*
X95979739Y-114836038D01*
X95989817Y-114833896D01*
X96193810Y-114772695D01*
X96203397Y-114768937D01*
X96394650Y-114675243D01*
X96403500Y-114669968D01*
X96575198Y-114547497D01*
X96642271Y-114524223D01*
X96711280Y-114540907D01*
X96737460Y-114560980D01*
X97477768Y-115301289D01*
X98212029Y-116035550D01*
X98219605Y-116043876D01*
X98223726Y-116050370D01*
X98229501Y-116055793D01*
X98273544Y-116097152D01*
X98276386Y-116099907D01*
X98296185Y-116119706D01*
X98299310Y-116122130D01*
X98299319Y-116122138D01*
X98299405Y-116122204D01*
X98308430Y-116129912D01*
X98340773Y-116160284D01*
X98347717Y-116164102D01*
X98347719Y-116164103D01*
X98358608Y-116170089D01*
X98375126Y-116180940D01*
X98391212Y-116193417D01*
X98431945Y-116211043D01*
X98442593Y-116216260D01*
X98481476Y-116237636D01*
X98489151Y-116239607D01*
X98489157Y-116239609D01*
X98501190Y-116242698D01*
X98519892Y-116249101D01*
X98538571Y-116257184D01*
X98572407Y-116262543D01*
X98582406Y-116264127D01*
X98594019Y-116266532D01*
X98636997Y-116277567D01*
X98657344Y-116277567D01*
X98677056Y-116279118D01*
X98697158Y-116282302D01*
X98705050Y-116281556D01*
X98741335Y-116278126D01*
X98753193Y-116277567D01*
X107656192Y-116277567D01*
X107724313Y-116297569D01*
X107770806Y-116351225D01*
X107782192Y-116403567D01*
X107782192Y-116540201D01*
X107788947Y-116602383D01*
X107840077Y-116738772D01*
X107927431Y-116855328D01*
X108043987Y-116942682D01*
X108180376Y-116993812D01*
X108242558Y-117000567D01*
X110038826Y-117000567D01*
X110101008Y-116993812D01*
X110237397Y-116942682D01*
X110353953Y-116855328D01*
X110441307Y-116738772D01*
X110477591Y-116641985D01*
X110485490Y-116620915D01*
X110528132Y-116564151D01*
X110594693Y-116539451D01*
X110664042Y-116554659D01*
X110698709Y-116582647D01*
X110723910Y-116611740D01*
X110731272Y-116618950D01*
X110895126Y-116754983D01*
X110903573Y-116760898D01*
X111087448Y-116868346D01*
X111096734Y-116872796D01*
X111295693Y-116948770D01*
X111305591Y-116951646D01*
X111408942Y-116972673D01*
X111422991Y-116971477D01*
X111426692Y-116961132D01*
X111426692Y-116960584D01*
X111934692Y-116960584D01*
X111938756Y-116974426D01*
X111952170Y-116976460D01*
X111958876Y-116975601D01*
X111968954Y-116973459D01*
X112172947Y-116912258D01*
X112182534Y-116908500D01*
X112373787Y-116814806D01*
X112382637Y-116809531D01*
X112556020Y-116685859D01*
X112563892Y-116679206D01*
X112714744Y-116528879D01*
X112721422Y-116521032D01*
X112845695Y-116348087D01*
X112851005Y-116339250D01*
X112945362Y-116148334D01*
X112949161Y-116138739D01*
X113011069Y-115934977D01*
X113013247Y-115924904D01*
X113014678Y-115914029D01*
X113012467Y-115899845D01*
X112999309Y-115896067D01*
X111952807Y-115896067D01*
X111937568Y-115900542D01*
X111936363Y-115901932D01*
X111934692Y-115909615D01*
X111934692Y-116960584D01*
X111426692Y-116960584D01*
X111426692Y-115514067D01*
X111446694Y-115445946D01*
X111500350Y-115399453D01*
X111552692Y-115388067D01*
X112999036Y-115388067D01*
X113012567Y-115384094D01*
X113013872Y-115375014D01*
X112984418Y-115257752D01*
X112987222Y-115186810D01*
X113027935Y-115128647D01*
X113093630Y-115101728D01*
X113106622Y-115101056D01*
X122523647Y-115101056D01*
X122591768Y-115121058D01*
X122638261Y-115174714D01*
X122649647Y-115227056D01*
X122649647Y-116526955D01*
X122656402Y-116589137D01*
X122707532Y-116725526D01*
X122794886Y-116842082D01*
X122911442Y-116929436D01*
X123047831Y-116980566D01*
X123110013Y-116987321D01*
X124906281Y-116987321D01*
X124968463Y-116980566D01*
X125104852Y-116929436D01*
X125221408Y-116842082D01*
X125308762Y-116725526D01*
X125323633Y-116685859D01*
X125352945Y-116607669D01*
X125395587Y-116550905D01*
X125462148Y-116526205D01*
X125531497Y-116541413D01*
X125566164Y-116569401D01*
X125591365Y-116598494D01*
X125598727Y-116605704D01*
X125762581Y-116741737D01*
X125771028Y-116747652D01*
X125954903Y-116855100D01*
X125964189Y-116859550D01*
X126163148Y-116935524D01*
X126173046Y-116938400D01*
X126276397Y-116959427D01*
X126290446Y-116958231D01*
X126294147Y-116947886D01*
X126294147Y-116947338D01*
X126802147Y-116947338D01*
X126806211Y-116961180D01*
X126819625Y-116963214D01*
X126826331Y-116962355D01*
X126836409Y-116960213D01*
X127040402Y-116899012D01*
X127049989Y-116895254D01*
X127241242Y-116801560D01*
X127250092Y-116796285D01*
X127423475Y-116672613D01*
X127431347Y-116665960D01*
X127582199Y-116515633D01*
X127588877Y-116507786D01*
X127713150Y-116334841D01*
X127718460Y-116326004D01*
X127812817Y-116135088D01*
X127816616Y-116125493D01*
X127878524Y-115921731D01*
X127880702Y-115911658D01*
X127882133Y-115900783D01*
X127879922Y-115886599D01*
X127866764Y-115882821D01*
X126820262Y-115882821D01*
X126805023Y-115887296D01*
X126803818Y-115888686D01*
X126802147Y-115896369D01*
X126802147Y-116947338D01*
X126294147Y-116947338D01*
X126294147Y-115500821D01*
X126314149Y-115432700D01*
X126367805Y-115386207D01*
X126420147Y-115374821D01*
X127866491Y-115374821D01*
X127880022Y-115370848D01*
X127881327Y-115361768D01*
X127851873Y-115244506D01*
X127854677Y-115173564D01*
X127895390Y-115115401D01*
X127961085Y-115088482D01*
X127974077Y-115087810D01*
X133490511Y-115087810D01*
X133558632Y-115107812D01*
X133579606Y-115124715D01*
X133836384Y-115381493D01*
X133870410Y-115443805D01*
X133873289Y-115470588D01*
X133873289Y-116353566D01*
X133873626Y-116356812D01*
X133873626Y-116356816D01*
X133881169Y-116429510D01*
X133884263Y-116459332D01*
X133886444Y-116465868D01*
X133886444Y-116465870D01*
X133929368Y-116594527D01*
X133940239Y-116627112D01*
X134033311Y-116777514D01*
X134158486Y-116902471D01*
X134164716Y-116906311D01*
X134164717Y-116906312D01*
X134302168Y-116991038D01*
X134309051Y-116995281D01*
X134388794Y-117021730D01*
X134470400Y-117048798D01*
X134470402Y-117048798D01*
X134476928Y-117050963D01*
X134483764Y-117051663D01*
X134483767Y-117051664D01*
X134526820Y-117056075D01*
X134581389Y-117061666D01*
X135932189Y-117061666D01*
X135935435Y-117061329D01*
X135935439Y-117061329D01*
X136031097Y-117051404D01*
X136031101Y-117051403D01*
X136037955Y-117050692D01*
X136044491Y-117048511D01*
X136044493Y-117048511D01*
X136196500Y-116997797D01*
X136205735Y-116994716D01*
X136356137Y-116901644D01*
X136481094Y-116776469D01*
X136521802Y-116710429D01*
X136570064Y-116632134D01*
X136570065Y-116632132D01*
X136573904Y-116625904D01*
X136576211Y-116618950D01*
X136579302Y-116612322D01*
X136580865Y-116613051D01*
X136616122Y-116562163D01*
X136681687Y-116534928D01*
X136695281Y-116534193D01*
X138956672Y-116534193D01*
X139024793Y-116554195D01*
X139071286Y-116607851D01*
X139072903Y-116611954D01*
X139074651Y-116615686D01*
X139076971Y-116622639D01*
X139170043Y-116773041D01*
X139295218Y-116897998D01*
X139301448Y-116901838D01*
X139301449Y-116901839D01*
X139438611Y-116986387D01*
X139445783Y-116990808D01*
X139498107Y-117008163D01*
X139607132Y-117044325D01*
X139607134Y-117044325D01*
X139613660Y-117046490D01*
X139620496Y-117047190D01*
X139620499Y-117047191D01*
X139663552Y-117051602D01*
X139718121Y-117057193D01*
X141068921Y-117057193D01*
X141072167Y-117056856D01*
X141072171Y-117056856D01*
X141167829Y-117046931D01*
X141167833Y-117046930D01*
X141174687Y-117046219D01*
X141181223Y-117044038D01*
X141181225Y-117044038D01*
X141329213Y-116994665D01*
X141342467Y-116990243D01*
X141492869Y-116897171D01*
X141529268Y-116860709D01*
X141612655Y-116777176D01*
X141617826Y-116771996D01*
X141633876Y-116745958D01*
X141706796Y-116627661D01*
X141706797Y-116627659D01*
X141710636Y-116621431D01*
X141713658Y-116612322D01*
X141727087Y-116571833D01*
X141767518Y-116513473D01*
X141833082Y-116486236D01*
X141846680Y-116485500D01*
X144347729Y-116485500D01*
X144415850Y-116505502D01*
X144462343Y-116559158D01*
X144463960Y-116563261D01*
X144465708Y-116566993D01*
X144468028Y-116573946D01*
X144561100Y-116724348D01*
X144686275Y-116849305D01*
X144692505Y-116853145D01*
X144692506Y-116853146D01*
X144829923Y-116937851D01*
X144836840Y-116942115D01*
X144900452Y-116963214D01*
X144998189Y-116995632D01*
X144998191Y-116995632D01*
X145004717Y-116997797D01*
X145011553Y-116998497D01*
X145011556Y-116998498D01*
X145054609Y-117002909D01*
X145109178Y-117008500D01*
X146459978Y-117008500D01*
X146463224Y-117008163D01*
X146463228Y-117008163D01*
X146558886Y-116998238D01*
X146558890Y-116998237D01*
X146565744Y-116997526D01*
X146572280Y-116995345D01*
X146572282Y-116995345D01*
X146720683Y-116945834D01*
X146733524Y-116941550D01*
X146883926Y-116848478D01*
X147008883Y-116723303D01*
X147012726Y-116717069D01*
X147034426Y-116681866D01*
X147087198Y-116634373D01*
X147141685Y-116621983D01*
X149602303Y-116621983D01*
X149670424Y-116641985D01*
X149716917Y-116695641D01*
X149718534Y-116699744D01*
X149720282Y-116703476D01*
X149722602Y-116710429D01*
X149815674Y-116860831D01*
X149940849Y-116985788D01*
X149947079Y-116989628D01*
X149947080Y-116989629D01*
X150084242Y-117074177D01*
X150091414Y-117078598D01*
X150102247Y-117082191D01*
X150252763Y-117132115D01*
X150252765Y-117132115D01*
X150259291Y-117134280D01*
X150266127Y-117134980D01*
X150266130Y-117134981D01*
X150309183Y-117139392D01*
X150363752Y-117144983D01*
X151714552Y-117144983D01*
X151717798Y-117144646D01*
X151717802Y-117144646D01*
X151813460Y-117134721D01*
X151813464Y-117134720D01*
X151820318Y-117134009D01*
X151826854Y-117131828D01*
X151826856Y-117131828D01*
X151975635Y-117082191D01*
X151988098Y-117078033D01*
X152138500Y-116984961D01*
X152160577Y-116962846D01*
X152258286Y-116864966D01*
X152263457Y-116859786D01*
X152269918Y-116849305D01*
X152352427Y-116715451D01*
X152352428Y-116715449D01*
X152356267Y-116709221D01*
X152401837Y-116571832D01*
X152442266Y-116513473D01*
X152507830Y-116486236D01*
X152521429Y-116485500D01*
X154856877Y-116485500D01*
X154924998Y-116505502D01*
X154971491Y-116559158D01*
X154973108Y-116563261D01*
X154974856Y-116566993D01*
X154977176Y-116573946D01*
X155070248Y-116724348D01*
X155195423Y-116849305D01*
X155201653Y-116853145D01*
X155201654Y-116853146D01*
X155339071Y-116937851D01*
X155345988Y-116942115D01*
X155409600Y-116963214D01*
X155507337Y-116995632D01*
X155507339Y-116995632D01*
X155513865Y-116997797D01*
X155520701Y-116998497D01*
X155520704Y-116998498D01*
X155563757Y-117002909D01*
X155618326Y-117008500D01*
X156969126Y-117008500D01*
X156972372Y-117008163D01*
X156972376Y-117008163D01*
X157068034Y-116998238D01*
X157068038Y-116998237D01*
X157074892Y-116997526D01*
X157081428Y-116995345D01*
X157081430Y-116995345D01*
X157229831Y-116945834D01*
X157242672Y-116941550D01*
X157393074Y-116848478D01*
X157518031Y-116723303D01*
X157521874Y-116717069D01*
X157607001Y-116578968D01*
X157607002Y-116578966D01*
X157610841Y-116572738D01*
X157620663Y-116543125D01*
X157661094Y-116484766D01*
X157726658Y-116457529D01*
X157740256Y-116456793D01*
X159705397Y-116456793D01*
X159773518Y-116476795D01*
X159820011Y-116530451D01*
X159821628Y-116534554D01*
X159823376Y-116538286D01*
X159825696Y-116545239D01*
X159918768Y-116695641D01*
X160043943Y-116820598D01*
X160050173Y-116824438D01*
X160050174Y-116824439D01*
X160187336Y-116908987D01*
X160194508Y-116913408D01*
X160268202Y-116937851D01*
X160355857Y-116966925D01*
X160355859Y-116966925D01*
X160362385Y-116969090D01*
X160369221Y-116969790D01*
X160369224Y-116969791D01*
X160405026Y-116973459D01*
X160466846Y-116979793D01*
X161817646Y-116979793D01*
X161820892Y-116979456D01*
X161820896Y-116979456D01*
X161916554Y-116969531D01*
X161916558Y-116969530D01*
X161923412Y-116968819D01*
X161929948Y-116966638D01*
X161929950Y-116966638D01*
X162062052Y-116922565D01*
X162091192Y-116912843D01*
X162241594Y-116819771D01*
X162366551Y-116694596D01*
X162459361Y-116544031D01*
X162460743Y-116539864D01*
X162506863Y-116487482D01*
X162574143Y-116468015D01*
X164129769Y-116468015D01*
X164197890Y-116488017D01*
X164215076Y-116502624D01*
X164215588Y-116502055D01*
X164220500Y-116506478D01*
X164224915Y-116511381D01*
X164230767Y-116515633D01*
X164363047Y-116611740D01*
X164379416Y-116623633D01*
X164385444Y-116626317D01*
X164385446Y-116626318D01*
X164524807Y-116688365D01*
X164553880Y-116701309D01*
X164632969Y-116718120D01*
X164734224Y-116739643D01*
X164734229Y-116739643D01*
X164740681Y-116741015D01*
X164931655Y-116741015D01*
X164938107Y-116739643D01*
X164938112Y-116739643D01*
X165039367Y-116718120D01*
X165118456Y-116701309D01*
X165147529Y-116688365D01*
X165286890Y-116626318D01*
X165286892Y-116626317D01*
X165292920Y-116623633D01*
X165314893Y-116607669D01*
X165367564Y-116569401D01*
X165447421Y-116511381D01*
X165451843Y-116506470D01*
X165570789Y-116374367D01*
X165570790Y-116374366D01*
X165575208Y-116369459D01*
X165640030Y-116257184D01*
X165667391Y-116209794D01*
X165667392Y-116209793D01*
X165670695Y-116204071D01*
X165729710Y-116022443D01*
X165742993Y-115896067D01*
X165748982Y-115839080D01*
X165749672Y-115832515D01*
X165729710Y-115642587D01*
X165670695Y-115460959D01*
X165575208Y-115295571D01*
X165502212Y-115214500D01*
X165451843Y-115158560D01*
X165451842Y-115158559D01*
X165447421Y-115153649D01*
X165292920Y-115041397D01*
X165286892Y-115038713D01*
X165286890Y-115038712D01*
X165124487Y-114966406D01*
X165124486Y-114966406D01*
X165118456Y-114963721D01*
X165020078Y-114942810D01*
X164938112Y-114925387D01*
X164938107Y-114925387D01*
X164931655Y-114924015D01*
X164740681Y-114924015D01*
X164734229Y-114925387D01*
X164734224Y-114925387D01*
X164652258Y-114942810D01*
X164553880Y-114963721D01*
X164547850Y-114966406D01*
X164547849Y-114966406D01*
X164385446Y-115038712D01*
X164385444Y-115038713D01*
X164379416Y-115041397D01*
X164374075Y-115045277D01*
X164374074Y-115045278D01*
X164265129Y-115124432D01*
X164224915Y-115153649D01*
X164220500Y-115158552D01*
X164215588Y-115162975D01*
X164213947Y-115161153D01*
X164162958Y-115192565D01*
X164129769Y-115197015D01*
X162582839Y-115197015D01*
X162514718Y-115177013D01*
X162468225Y-115123357D01*
X162463316Y-115110894D01*
X162461115Y-115104296D01*
X162461113Y-115104291D01*
X162458796Y-115097347D01*
X162365724Y-114946945D01*
X162240549Y-114821988D01*
X162221659Y-114810344D01*
X162094178Y-114731763D01*
X162046684Y-114678990D01*
X162035261Y-114608919D01*
X162063535Y-114543795D01*
X162122529Y-114504296D01*
X162160294Y-114498503D01*
X170374451Y-114498503D01*
X170442572Y-114518505D01*
X170489065Y-114572161D01*
X170499169Y-114642435D01*
X170465545Y-114711554D01*
X170446233Y-114731763D01*
X170423472Y-114755581D01*
X170408776Y-114770959D01*
X170405862Y-114775231D01*
X170405861Y-114775232D01*
X170326164Y-114892064D01*
X170282890Y-114955501D01*
X170245967Y-115035046D01*
X170192714Y-115149770D01*
X170188835Y-115158126D01*
X170129136Y-115373391D01*
X170105398Y-115595516D01*
X170105695Y-115600669D01*
X170105695Y-115600672D01*
X170111158Y-115695411D01*
X170118257Y-115818536D01*
X170119394Y-115823582D01*
X170119395Y-115823588D01*
X170135798Y-115896369D01*
X170167369Y-116036460D01*
X170251413Y-116243437D01*
X170281311Y-116292226D01*
X170322981Y-116360225D01*
X170368134Y-116433909D01*
X170514397Y-116602759D01*
X170626274Y-116695641D01*
X170665833Y-116728483D01*
X170686273Y-116745453D01*
X170879147Y-116858159D01*
X170883972Y-116860001D01*
X170883973Y-116860002D01*
X170899691Y-116866004D01*
X171087839Y-116937851D01*
X171092907Y-116938882D01*
X171092910Y-116938883D01*
X171155643Y-116951646D01*
X171306744Y-116982388D01*
X171311919Y-116982578D01*
X171311921Y-116982578D01*
X171524820Y-116990385D01*
X171524824Y-116990385D01*
X171529984Y-116990574D01*
X171535104Y-116989918D01*
X171535106Y-116989918D01*
X171608561Y-116980508D01*
X171751563Y-116962189D01*
X171756516Y-116960703D01*
X171756521Y-116960702D01*
X171786705Y-116951646D01*
X171795798Y-116948918D01*
X171866793Y-116948500D01*
X171921101Y-116980508D01*
X172139408Y-117198815D01*
X172146984Y-117207141D01*
X172151105Y-117213635D01*
X172156880Y-117219058D01*
X172200923Y-117260417D01*
X172203765Y-117263172D01*
X172223564Y-117282971D01*
X172226689Y-117285395D01*
X172226698Y-117285403D01*
X172226784Y-117285469D01*
X172235809Y-117293177D01*
X172268152Y-117323549D01*
X172275096Y-117327367D01*
X172275098Y-117327368D01*
X172285987Y-117333354D01*
X172302505Y-117344205D01*
X172318591Y-117356682D01*
X172359324Y-117374308D01*
X172369972Y-117379525D01*
X172381600Y-117385917D01*
X172408855Y-117400901D01*
X172416530Y-117402872D01*
X172416536Y-117402874D01*
X172428569Y-117405963D01*
X172447271Y-117412366D01*
X172465950Y-117420449D01*
X172499476Y-117425759D01*
X172509785Y-117427392D01*
X172521398Y-117429797D01*
X172564376Y-117440832D01*
X172584723Y-117440832D01*
X172604434Y-117442383D01*
X172608582Y-117443040D01*
X172624537Y-117445567D01*
X172632429Y-117444821D01*
X172668714Y-117441391D01*
X172680572Y-117440832D01*
X185358407Y-117440832D01*
X185369641Y-117441362D01*
X185377146Y-117443040D01*
X185445439Y-117440894D01*
X185449396Y-117440832D01*
X185477410Y-117440832D01*
X185481335Y-117440336D01*
X185481336Y-117440336D01*
X185481431Y-117440324D01*
X185493276Y-117439391D01*
X185523097Y-117438454D01*
X185529709Y-117438246D01*
X185529710Y-117438246D01*
X185537632Y-117437997D01*
X185557176Y-117432319D01*
X185576539Y-117428309D01*
X185588867Y-117426752D01*
X185588869Y-117426752D01*
X185596726Y-117425759D01*
X185604090Y-117422843D01*
X185604095Y-117422842D01*
X185637983Y-117409425D01*
X185649212Y-117405580D01*
X185665892Y-117400734D01*
X185691820Y-117393201D01*
X185698647Y-117389163D01*
X185698650Y-117389162D01*
X185709333Y-117382844D01*
X185727091Y-117374144D01*
X185738642Y-117369571D01*
X185738648Y-117369567D01*
X185746015Y-117366651D01*
X185755404Y-117359830D01*
X185781915Y-117340568D01*
X185791837Y-117334051D01*
X185823195Y-117315506D01*
X185823199Y-117315503D01*
X185830025Y-117311466D01*
X185844409Y-117297082D01*
X185859443Y-117284241D01*
X185869500Y-117276934D01*
X185875914Y-117272274D01*
X185904200Y-117238082D01*
X185912190Y-117229301D01*
X186147593Y-116993899D01*
X186209905Y-116959874D01*
X186261809Y-116959525D01*
X186439289Y-116995634D01*
X186444464Y-116995824D01*
X186444466Y-116995824D01*
X186657365Y-117003631D01*
X186657369Y-117003631D01*
X186662529Y-117003820D01*
X186667649Y-117003164D01*
X186667651Y-117003164D01*
X186759162Y-116991441D01*
X186884108Y-116975435D01*
X186889061Y-116973949D01*
X186889066Y-116973948D01*
X186918709Y-116965054D01*
X186928343Y-116962164D01*
X186999338Y-116961746D01*
X187053646Y-116993754D01*
X187271953Y-117212061D01*
X187279529Y-117220387D01*
X187283650Y-117226881D01*
X187289425Y-117232304D01*
X187333468Y-117273663D01*
X187336310Y-117276418D01*
X187356109Y-117296217D01*
X187359234Y-117298641D01*
X187359243Y-117298649D01*
X187359329Y-117298715D01*
X187368354Y-117306423D01*
X187400697Y-117336795D01*
X187407641Y-117340613D01*
X187407643Y-117340614D01*
X187418532Y-117346600D01*
X187435050Y-117357451D01*
X187451136Y-117369928D01*
X187491869Y-117387554D01*
X187502517Y-117392771D01*
X187510357Y-117397081D01*
X187541400Y-117414147D01*
X187549075Y-117416118D01*
X187549081Y-117416120D01*
X187561114Y-117419209D01*
X187579816Y-117425612D01*
X187598495Y-117433695D01*
X187632021Y-117439005D01*
X187642330Y-117440638D01*
X187653943Y-117443043D01*
X187696921Y-117454078D01*
X187717268Y-117454078D01*
X187736980Y-117455629D01*
X187757082Y-117458813D01*
X187764974Y-117458067D01*
X187801259Y-117454637D01*
X187813117Y-117454078D01*
X195522402Y-117454078D01*
X195533636Y-117454608D01*
X195541141Y-117456286D01*
X195609434Y-117454140D01*
X195613391Y-117454078D01*
X195641405Y-117454078D01*
X195645330Y-117453582D01*
X195645331Y-117453582D01*
X195645426Y-117453570D01*
X195657271Y-117452637D01*
X195687092Y-117451700D01*
X195693704Y-117451492D01*
X195693705Y-117451492D01*
X195701627Y-117451243D01*
X195721171Y-117445565D01*
X195740534Y-117441555D01*
X195752862Y-117439998D01*
X195752864Y-117439998D01*
X195760721Y-117439005D01*
X195768085Y-117436089D01*
X195768090Y-117436088D01*
X195801978Y-117422671D01*
X195813207Y-117418826D01*
X195835431Y-117412369D01*
X195855815Y-117406447D01*
X195862642Y-117402409D01*
X195862645Y-117402408D01*
X195873328Y-117396090D01*
X195891086Y-117387390D01*
X195902637Y-117382817D01*
X195902643Y-117382813D01*
X195910010Y-117379897D01*
X195917713Y-117374301D01*
X195945910Y-117353814D01*
X195955832Y-117347297D01*
X195987190Y-117328752D01*
X195987194Y-117328749D01*
X195994020Y-117324712D01*
X196008404Y-117310328D01*
X196023438Y-117297487D01*
X196033495Y-117290180D01*
X196039909Y-117285520D01*
X196068200Y-117251322D01*
X196076189Y-117242543D01*
X203593483Y-109725250D01*
X203601809Y-109717674D01*
X203608303Y-109713553D01*
X203655086Y-109663734D01*
X203657840Y-109660893D01*
X203677639Y-109641094D01*
X203680068Y-109637963D01*
X203680072Y-109637958D01*
X203680139Y-109637872D01*
X203687847Y-109628847D01*
X203712791Y-109602285D01*
X203712794Y-109602281D01*
X203718217Y-109596506D01*
X203722036Y-109589560D01*
X203722039Y-109589555D01*
X203728022Y-109578672D01*
X203738878Y-109562144D01*
X203746492Y-109552329D01*
X203746494Y-109552326D01*
X203751349Y-109546067D01*
X203754495Y-109538797D01*
X203754498Y-109538792D01*
X203768969Y-109505350D01*
X203774192Y-109494689D01*
X203791749Y-109462753D01*
X203791751Y-109462748D01*
X203795569Y-109455803D01*
X203797539Y-109448129D01*
X203797542Y-109448122D01*
X203800632Y-109436087D01*
X203807036Y-109417382D01*
X203811967Y-109405987D01*
X203815117Y-109398708D01*
X203822060Y-109354873D01*
X203824467Y-109343251D01*
X203835500Y-109300282D01*
X203835500Y-109279935D01*
X203837051Y-109260224D01*
X203838995Y-109247950D01*
X203840235Y-109240121D01*
X203836059Y-109195944D01*
X203835500Y-109184086D01*
X203835500Y-108283407D01*
X203836030Y-108272173D01*
X203837708Y-108264668D01*
X203835562Y-108196375D01*
X203835500Y-108192418D01*
X203835500Y-108164404D01*
X203834992Y-108160383D01*
X203834058Y-108148531D01*
X203832914Y-108112105D01*
X203832914Y-108112104D01*
X203832665Y-108104182D01*
X203826987Y-108084638D01*
X203822977Y-108065275D01*
X203821420Y-108052947D01*
X203821420Y-108052945D01*
X203820427Y-108045088D01*
X203817511Y-108037724D01*
X203817510Y-108037719D01*
X203804093Y-108003831D01*
X203800248Y-107992602D01*
X203790081Y-107957609D01*
X203787869Y-107949994D01*
X203783830Y-107943164D01*
X203777512Y-107932481D01*
X203768812Y-107914723D01*
X203764239Y-107903172D01*
X203764235Y-107903166D01*
X203761319Y-107895799D01*
X203735234Y-107859896D01*
X203728719Y-107849977D01*
X203710174Y-107818619D01*
X203710171Y-107818615D01*
X203706134Y-107811789D01*
X203691750Y-107797405D01*
X203678909Y-107782371D01*
X203671602Y-107772314D01*
X203666942Y-107765900D01*
X203632744Y-107737609D01*
X203623965Y-107729620D01*
X202370939Y-106476593D01*
X202336913Y-106414281D01*
X202339476Y-106350869D01*
X202349927Y-106316471D01*
X202351432Y-106311518D01*
X202380591Y-106090039D01*
X202380974Y-106074374D01*
X202382136Y-106026814D01*
X202382136Y-106026810D01*
X202382218Y-106023449D01*
X202363914Y-105800810D01*
X202309493Y-105584151D01*
X202220416Y-105379289D01*
X202099076Y-105191726D01*
X201948732Y-105026500D01*
X201944681Y-105023301D01*
X201944677Y-105023297D01*
X201777476Y-104891249D01*
X201777472Y-104891247D01*
X201773421Y-104888047D01*
X201577851Y-104780087D01*
X201572982Y-104778363D01*
X201572978Y-104778361D01*
X201372149Y-104707244D01*
X201372145Y-104707243D01*
X201367274Y-104705518D01*
X201362181Y-104704611D01*
X201362178Y-104704610D01*
X201152435Y-104667249D01*
X201152429Y-104667248D01*
X201147346Y-104666343D01*
X201073514Y-104665441D01*
X200929143Y-104663677D01*
X200929141Y-104663677D01*
X200923973Y-104663614D01*
X200703153Y-104697404D01*
X200490818Y-104766806D01*
X200292669Y-104869956D01*
X200288536Y-104873059D01*
X200288533Y-104873061D01*
X200118162Y-105000979D01*
X200114027Y-105004084D01*
X199959691Y-105165587D01*
X199852263Y-105323070D01*
X199797355Y-105368070D01*
X199726830Y-105376241D01*
X199663083Y-105344987D01*
X199642386Y-105320503D01*
X199561884Y-105196066D01*
X199561882Y-105196063D01*
X199559076Y-105191726D01*
X199408732Y-105026500D01*
X199404681Y-105023301D01*
X199404677Y-105023297D01*
X199237476Y-104891249D01*
X199237472Y-104891247D01*
X199233421Y-104888047D01*
X199037851Y-104780087D01*
X199032982Y-104778363D01*
X199032978Y-104778361D01*
X198832149Y-104707244D01*
X198832145Y-104707243D01*
X198827274Y-104705518D01*
X198822181Y-104704611D01*
X198822178Y-104704610D01*
X198612435Y-104667249D01*
X198612429Y-104667248D01*
X198607346Y-104666343D01*
X198533514Y-104665441D01*
X198389143Y-104663677D01*
X198389141Y-104663677D01*
X198383973Y-104663614D01*
X198236689Y-104686152D01*
X198168262Y-104696622D01*
X198168259Y-104696623D01*
X198163153Y-104697404D01*
X198158246Y-104699008D01*
X198158233Y-104699011D01*
X198152723Y-104700812D01*
X198081759Y-104702961D01*
X198024486Y-104670141D01*
X197807796Y-104453450D01*
X197800226Y-104445131D01*
X197796104Y-104438635D01*
X197770070Y-104414187D01*
X197746286Y-104391853D01*
X197743444Y-104389098D01*
X197723645Y-104369299D01*
X197720520Y-104366875D01*
X197720511Y-104366867D01*
X197720425Y-104366801D01*
X197711400Y-104359093D01*
X197684836Y-104334148D01*
X197679057Y-104328721D01*
X197661220Y-104318915D01*
X197644704Y-104308065D01*
X197628618Y-104295588D01*
X197587885Y-104277962D01*
X197577237Y-104272745D01*
X197548338Y-104256858D01*
X197538354Y-104251369D01*
X197530679Y-104249398D01*
X197530673Y-104249396D01*
X197518640Y-104246307D01*
X197499938Y-104239904D01*
X197481259Y-104231821D01*
X197441464Y-104225518D01*
X197437424Y-104224878D01*
X197425811Y-104222473D01*
X197382833Y-104211438D01*
X197362486Y-104211438D01*
X197342775Y-104209887D01*
X197330501Y-104207943D01*
X197322672Y-104206703D01*
X197314780Y-104207449D01*
X197278495Y-104210879D01*
X197266637Y-104211438D01*
X172092082Y-104211438D01*
X172080848Y-104210908D01*
X172073343Y-104209230D01*
X172005633Y-104211358D01*
X172005050Y-104211376D01*
X172001093Y-104211438D01*
X171973079Y-104211438D01*
X171969154Y-104211934D01*
X171969153Y-104211934D01*
X171969058Y-104211946D01*
X171957213Y-104212879D01*
X171927392Y-104213816D01*
X171920780Y-104214024D01*
X171920779Y-104214024D01*
X171912857Y-104214273D01*
X171893314Y-104219951D01*
X171873950Y-104223961D01*
X171861622Y-104225518D01*
X171861620Y-104225518D01*
X171853763Y-104226511D01*
X171846399Y-104229427D01*
X171846394Y-104229428D01*
X171812506Y-104242845D01*
X171801277Y-104246690D01*
X171797316Y-104247841D01*
X171758669Y-104259069D01*
X171751843Y-104263106D01*
X171741153Y-104269428D01*
X171723403Y-104278125D01*
X171704474Y-104285619D01*
X171698058Y-104290280D01*
X171698057Y-104290281D01*
X171668581Y-104311697D01*
X171658657Y-104318216D01*
X171627286Y-104336768D01*
X171627281Y-104336772D01*
X171620463Y-104340804D01*
X171606076Y-104355191D01*
X171591042Y-104368032D01*
X171574575Y-104379996D01*
X171569522Y-104386104D01*
X171546290Y-104414187D01*
X171538300Y-104422967D01*
X170226672Y-105734595D01*
X170164360Y-105768621D01*
X170137577Y-105771500D01*
X170084513Y-105771500D01*
X170078061Y-105772872D01*
X170078056Y-105772872D01*
X169991113Y-105791353D01*
X169897712Y-105811206D01*
X169891682Y-105813891D01*
X169891681Y-105813891D01*
X169729278Y-105886197D01*
X169729276Y-105886198D01*
X169723248Y-105888882D01*
X169568747Y-106001134D01*
X169564326Y-106006044D01*
X169564325Y-106006045D01*
X169501345Y-106075992D01*
X169440960Y-106143056D01*
X169345473Y-106308444D01*
X169286458Y-106490072D01*
X169285768Y-106496633D01*
X169285768Y-106496635D01*
X169274721Y-106601742D01*
X169266496Y-106680000D01*
X169267186Y-106686565D01*
X169281621Y-106823902D01*
X169286458Y-106869928D01*
X169345473Y-107051556D01*
X169348776Y-107057278D01*
X169348777Y-107057279D01*
X169363623Y-107082993D01*
X169440960Y-107216944D01*
X169445378Y-107221851D01*
X169445379Y-107221852D01*
X169564325Y-107353955D01*
X169568747Y-107358866D01*
X169723248Y-107471118D01*
X169729276Y-107473802D01*
X169729278Y-107473803D01*
X169887133Y-107544084D01*
X169897712Y-107548794D01*
X169981012Y-107566500D01*
X170078056Y-107587128D01*
X170078061Y-107587128D01*
X170084513Y-107588500D01*
X170275487Y-107588500D01*
X170281939Y-107587128D01*
X170281944Y-107587128D01*
X170378988Y-107566500D01*
X170462288Y-107548794D01*
X170472867Y-107544084D01*
X170630722Y-107473803D01*
X170630724Y-107473802D01*
X170636752Y-107471118D01*
X170791253Y-107358866D01*
X170795675Y-107353955D01*
X170914621Y-107221852D01*
X170914622Y-107221851D01*
X170919040Y-107216944D01*
X170996377Y-107082993D01*
X171011223Y-107057279D01*
X171011224Y-107057278D01*
X171014527Y-107051556D01*
X171073542Y-106869928D01*
X171078380Y-106823902D01*
X171088719Y-106725526D01*
X171090575Y-106707867D01*
X171117588Y-106642210D01*
X171126790Y-106631942D01*
X172239390Y-105519343D01*
X172301702Y-105485317D01*
X172328485Y-105482438D01*
X187954639Y-105482438D01*
X188022760Y-105502440D01*
X188069253Y-105556096D01*
X188079357Y-105626370D01*
X188049863Y-105690950D01*
X188043734Y-105697533D01*
X182926672Y-110814595D01*
X182864360Y-110848621D01*
X182837577Y-110851500D01*
X182784513Y-110851500D01*
X182778061Y-110852872D01*
X182778056Y-110852872D01*
X182691113Y-110871353D01*
X182597712Y-110891206D01*
X182591682Y-110893891D01*
X182591681Y-110893891D01*
X182429278Y-110966197D01*
X182429276Y-110966198D01*
X182423248Y-110968882D01*
X182268747Y-111081134D01*
X182140960Y-111223056D01*
X182045473Y-111388444D01*
X181986458Y-111570072D01*
X181985769Y-111576631D01*
X181985768Y-111576634D01*
X181968789Y-111738182D01*
X181941776Y-111803838D01*
X181883554Y-111844468D01*
X181843479Y-111851011D01*
X173761934Y-111851011D01*
X173693813Y-111831009D01*
X173672839Y-111814106D01*
X171126790Y-109268057D01*
X171092764Y-109205745D01*
X171090575Y-109192132D01*
X171074232Y-109036635D01*
X171074232Y-109036633D01*
X171073542Y-109030072D01*
X171014527Y-108848444D01*
X170998293Y-108820325D01*
X170922341Y-108688774D01*
X170919040Y-108683056D01*
X170836588Y-108591483D01*
X170795675Y-108546045D01*
X170795674Y-108546044D01*
X170791253Y-108541134D01*
X170636752Y-108428882D01*
X170630724Y-108426198D01*
X170630722Y-108426197D01*
X170468319Y-108353891D01*
X170468318Y-108353891D01*
X170462288Y-108351206D01*
X170368888Y-108331353D01*
X170281944Y-108312872D01*
X170281939Y-108312872D01*
X170275487Y-108311500D01*
X170084513Y-108311500D01*
X170078061Y-108312872D01*
X170078056Y-108312872D01*
X169991112Y-108331353D01*
X169897712Y-108351206D01*
X169891682Y-108353891D01*
X169891681Y-108353891D01*
X169729278Y-108426197D01*
X169729276Y-108426198D01*
X169723248Y-108428882D01*
X169568747Y-108541134D01*
X169564326Y-108546044D01*
X169564325Y-108546045D01*
X169523413Y-108591483D01*
X169440960Y-108683056D01*
X169437659Y-108688774D01*
X169361708Y-108820325D01*
X169345473Y-108848444D01*
X169286458Y-109030072D01*
X169285768Y-109036633D01*
X169285768Y-109036635D01*
X169274401Y-109144790D01*
X169266496Y-109220000D01*
X169267186Y-109226565D01*
X169280672Y-109354873D01*
X169286458Y-109409928D01*
X169345473Y-109591556D01*
X169440960Y-109756944D01*
X169445378Y-109761851D01*
X169445379Y-109761852D01*
X169557453Y-109886323D01*
X169568747Y-109898866D01*
X169633646Y-109946018D01*
X169686952Y-109984747D01*
X169723248Y-110011118D01*
X169729276Y-110013802D01*
X169729278Y-110013803D01*
X169850529Y-110067787D01*
X169897712Y-110088794D01*
X169972271Y-110104642D01*
X170078056Y-110127128D01*
X170078061Y-110127128D01*
X170084513Y-110128500D01*
X170137578Y-110128500D01*
X170205699Y-110148502D01*
X170226673Y-110165405D01*
X172941256Y-112879988D01*
X172948833Y-112888314D01*
X172952958Y-112894814D01*
X172958736Y-112900240D01*
X172958737Y-112900241D01*
X173002792Y-112941611D01*
X173005634Y-112944366D01*
X173025417Y-112964149D01*
X173028625Y-112966637D01*
X173037654Y-112974348D01*
X173070005Y-113004728D01*
X173076954Y-113008548D01*
X173087840Y-113014533D01*
X173104364Y-113025387D01*
X173114181Y-113033002D01*
X173120444Y-113037860D01*
X173127721Y-113041009D01*
X173161161Y-113055480D01*
X173171822Y-113060703D01*
X173203758Y-113078260D01*
X173203763Y-113078262D01*
X173210708Y-113082080D01*
X173218382Y-113084050D01*
X173218389Y-113084053D01*
X173230424Y-113087143D01*
X173249129Y-113093547D01*
X173260524Y-113098478D01*
X173267803Y-113101628D01*
X173282912Y-113104021D01*
X173311638Y-113108571D01*
X173323251Y-113110976D01*
X173366229Y-113122011D01*
X173386576Y-113122011D01*
X173406288Y-113123562D01*
X173426390Y-113126746D01*
X173434282Y-113126000D01*
X173470567Y-113122570D01*
X173482425Y-113122011D01*
X194476980Y-113122011D01*
X194488214Y-113122541D01*
X194495719Y-113124219D01*
X194564012Y-113122073D01*
X194567969Y-113122011D01*
X194595983Y-113122011D01*
X194599908Y-113121515D01*
X194599909Y-113121515D01*
X194600004Y-113121503D01*
X194611849Y-113120570D01*
X194641670Y-113119633D01*
X194648282Y-113119425D01*
X194648283Y-113119425D01*
X194656205Y-113119176D01*
X194675749Y-113113498D01*
X194695112Y-113109488D01*
X194707440Y-113107931D01*
X194707442Y-113107931D01*
X194715299Y-113106938D01*
X194722663Y-113104022D01*
X194722668Y-113104021D01*
X194756556Y-113090604D01*
X194767785Y-113086759D01*
X194784465Y-113081913D01*
X194810393Y-113074380D01*
X194817220Y-113070342D01*
X194817223Y-113070341D01*
X194827906Y-113064023D01*
X194845664Y-113055323D01*
X194857215Y-113050750D01*
X194857221Y-113050746D01*
X194864588Y-113047830D01*
X194873977Y-113041009D01*
X194900488Y-113021747D01*
X194910410Y-113015230D01*
X194941768Y-112996685D01*
X194941772Y-112996682D01*
X194948598Y-112992645D01*
X194962982Y-112978261D01*
X194978016Y-112965420D01*
X194988073Y-112958113D01*
X194994487Y-112953453D01*
X195022778Y-112919255D01*
X195030767Y-112910476D01*
X198025961Y-109915282D01*
X198088273Y-109881256D01*
X198140174Y-109880906D01*
X198317659Y-109917016D01*
X198322834Y-109917206D01*
X198322836Y-109917206D01*
X198387705Y-109919585D01*
X198461983Y-109922308D01*
X198529324Y-109944792D01*
X198573820Y-110000116D01*
X198581342Y-110070713D01*
X198546460Y-110137318D01*
X193714116Y-114969662D01*
X193651804Y-115003688D01*
X193625021Y-115006567D01*
X190416203Y-115006567D01*
X190348082Y-114986565D01*
X190310411Y-114949007D01*
X190305731Y-114941772D01*
X190244852Y-114847668D01*
X190223514Y-114814684D01*
X190223512Y-114814681D01*
X190220706Y-114810344D01*
X190070362Y-114645118D01*
X190066311Y-114641919D01*
X190066307Y-114641915D01*
X189899106Y-114509867D01*
X189899102Y-114509865D01*
X189895051Y-114506665D01*
X189885400Y-114501337D01*
X189832565Y-114472171D01*
X189699481Y-114398705D01*
X189694612Y-114396981D01*
X189694608Y-114396979D01*
X189493779Y-114325862D01*
X189493775Y-114325861D01*
X189488904Y-114324136D01*
X189483811Y-114323229D01*
X189483808Y-114323228D01*
X189274065Y-114285867D01*
X189274059Y-114285866D01*
X189268976Y-114284961D01*
X189195144Y-114284059D01*
X189050773Y-114282295D01*
X189050771Y-114282295D01*
X189045603Y-114282232D01*
X188908628Y-114303192D01*
X188829892Y-114315240D01*
X188829889Y-114315241D01*
X188824783Y-114316022D01*
X188819876Y-114317626D01*
X188819863Y-114317629D01*
X188814353Y-114319430D01*
X188743389Y-114321579D01*
X188686116Y-114288759D01*
X188601939Y-114204581D01*
X188469426Y-114072068D01*
X188461856Y-114063749D01*
X188457734Y-114057253D01*
X188431700Y-114032805D01*
X188407916Y-114010471D01*
X188405074Y-114007716D01*
X188385275Y-113987917D01*
X188382150Y-113985493D01*
X188382141Y-113985485D01*
X188382055Y-113985419D01*
X188373030Y-113977711D01*
X188346466Y-113952766D01*
X188340687Y-113947339D01*
X188322850Y-113937533D01*
X188306334Y-113926683D01*
X188290248Y-113914206D01*
X188249515Y-113896580D01*
X188238867Y-113891363D01*
X188209968Y-113875476D01*
X188199984Y-113869987D01*
X188192309Y-113868016D01*
X188192303Y-113868014D01*
X188180270Y-113864925D01*
X188161568Y-113858522D01*
X188142889Y-113850439D01*
X188103094Y-113844136D01*
X188099054Y-113843496D01*
X188087441Y-113841091D01*
X188044463Y-113830056D01*
X188024116Y-113830056D01*
X188004405Y-113828505D01*
X187992131Y-113826561D01*
X187984302Y-113825321D01*
X187976410Y-113826067D01*
X187940125Y-113829497D01*
X187928267Y-113830056D01*
X175250432Y-113830056D01*
X175239198Y-113829526D01*
X175231693Y-113827848D01*
X175163983Y-113829976D01*
X175163400Y-113829994D01*
X175159443Y-113830056D01*
X175131429Y-113830056D01*
X175127504Y-113830552D01*
X175127503Y-113830552D01*
X175127408Y-113830564D01*
X175115563Y-113831497D01*
X175085742Y-113832434D01*
X175079130Y-113832642D01*
X175079129Y-113832642D01*
X175071207Y-113832891D01*
X175051664Y-113838569D01*
X175032300Y-113842579D01*
X175019972Y-113844136D01*
X175019970Y-113844136D01*
X175012113Y-113845129D01*
X175004749Y-113848045D01*
X175004744Y-113848046D01*
X174970856Y-113861463D01*
X174959627Y-113865308D01*
X174950314Y-113868014D01*
X174917019Y-113877687D01*
X174910193Y-113881724D01*
X174899503Y-113888046D01*
X174881753Y-113896743D01*
X174862824Y-113904237D01*
X174856408Y-113908898D01*
X174856407Y-113908899D01*
X174826931Y-113930315D01*
X174817007Y-113936834D01*
X174785636Y-113955386D01*
X174785631Y-113955390D01*
X174778813Y-113959422D01*
X174764426Y-113973809D01*
X174749392Y-113986650D01*
X174732925Y-113998614D01*
X174727872Y-114004722D01*
X174704640Y-114032805D01*
X174696650Y-114041585D01*
X174463091Y-114275144D01*
X174400779Y-114309170D01*
X174351901Y-114310096D01*
X174277455Y-114296835D01*
X174141520Y-114272621D01*
X174141514Y-114272620D01*
X174136431Y-114271715D01*
X174062599Y-114270813D01*
X173918228Y-114269049D01*
X173918226Y-114269049D01*
X173913058Y-114268986D01*
X173783840Y-114288759D01*
X173697347Y-114301994D01*
X173697344Y-114301995D01*
X173692238Y-114302776D01*
X173687331Y-114304380D01*
X173687318Y-114304383D01*
X173681808Y-114306184D01*
X173610844Y-114308333D01*
X173553571Y-114275513D01*
X173174646Y-113896587D01*
X172747574Y-113469515D01*
X172740004Y-113461196D01*
X172735882Y-113454700D01*
X172686063Y-113407917D01*
X172683222Y-113405163D01*
X172663423Y-113385364D01*
X172660298Y-113382940D01*
X172660289Y-113382932D01*
X172660203Y-113382866D01*
X172651178Y-113375158D01*
X172624614Y-113350213D01*
X172618835Y-113344786D01*
X172600998Y-113334980D01*
X172584482Y-113324130D01*
X172568396Y-113311653D01*
X172527663Y-113294027D01*
X172517015Y-113288810D01*
X172505387Y-113282418D01*
X172478132Y-113267434D01*
X172470457Y-113265463D01*
X172470451Y-113265461D01*
X172458418Y-113262372D01*
X172439716Y-113255969D01*
X172421037Y-113247886D01*
X172387201Y-113242527D01*
X172377202Y-113240943D01*
X172365589Y-113238538D01*
X172322611Y-113227503D01*
X172302264Y-113227503D01*
X172282553Y-113225952D01*
X172270279Y-113224008D01*
X172262450Y-113222768D01*
X172254558Y-113223514D01*
X172218273Y-113226944D01*
X172206415Y-113227503D01*
X162651746Y-113227503D01*
X162583625Y-113207501D01*
X162537132Y-113153845D01*
X162525746Y-113101503D01*
X162525746Y-112288715D01*
X162545748Y-112220594D01*
X162562651Y-112199620D01*
X177666120Y-97096152D01*
X177728432Y-97062126D01*
X177755215Y-97059247D01*
X192668215Y-97059247D01*
X192736336Y-97079249D01*
X192782829Y-97132905D01*
X192794215Y-97185247D01*
X192794215Y-97271881D01*
X192800970Y-97334063D01*
X192852100Y-97470452D01*
X192939454Y-97587008D01*
X193056010Y-97674362D01*
X193192399Y-97725492D01*
X193254581Y-97732247D01*
X194850849Y-97732247D01*
X194913031Y-97725492D01*
X195049420Y-97674362D01*
X195165976Y-97587008D01*
X195253330Y-97470452D01*
X195304460Y-97334063D01*
X195311215Y-97271881D01*
X195311215Y-97268416D01*
X196394716Y-97268416D01*
X196395086Y-97275237D01*
X196400610Y-97326099D01*
X196404236Y-97341351D01*
X196449391Y-97461801D01*
X196457929Y-97477396D01*
X196534430Y-97579471D01*
X196546991Y-97592032D01*
X196649066Y-97668533D01*
X196664661Y-97677071D01*
X196785109Y-97722225D01*
X196800364Y-97725852D01*
X196851229Y-97731378D01*
X196858043Y-97731747D01*
X197380600Y-97731747D01*
X197395839Y-97727272D01*
X197397044Y-97725882D01*
X197398715Y-97718199D01*
X197398715Y-97713631D01*
X197906715Y-97713631D01*
X197911190Y-97728870D01*
X197912580Y-97730075D01*
X197920263Y-97731746D01*
X198447384Y-97731746D01*
X198454205Y-97731376D01*
X198505067Y-97725852D01*
X198520319Y-97722226D01*
X198640769Y-97677071D01*
X198656364Y-97668533D01*
X198758439Y-97592032D01*
X198771000Y-97579471D01*
X198847501Y-97477396D01*
X198856039Y-97461801D01*
X198901193Y-97341353D01*
X198904820Y-97326098D01*
X198910346Y-97275233D01*
X198910715Y-97268419D01*
X198910715Y-96695862D01*
X198906240Y-96680623D01*
X198904850Y-96679418D01*
X198897167Y-96677747D01*
X197924830Y-96677747D01*
X197909591Y-96682222D01*
X197908386Y-96683612D01*
X197906715Y-96691295D01*
X197906715Y-97713631D01*
X197398715Y-97713631D01*
X197398715Y-96695862D01*
X197394240Y-96680623D01*
X197392850Y-96679418D01*
X197385167Y-96677747D01*
X196412831Y-96677747D01*
X196397592Y-96682222D01*
X196396387Y-96683612D01*
X196394716Y-96691295D01*
X196394716Y-97268416D01*
X195311215Y-97268416D01*
X195311215Y-96151632D01*
X196394715Y-96151632D01*
X196399190Y-96166871D01*
X196400580Y-96168076D01*
X196408263Y-96169747D01*
X197380600Y-96169747D01*
X197395839Y-96165272D01*
X197397044Y-96163882D01*
X197398715Y-96156199D01*
X197398715Y-96151632D01*
X197906715Y-96151632D01*
X197911190Y-96166871D01*
X197912580Y-96168076D01*
X197920263Y-96169747D01*
X198892599Y-96169747D01*
X198907838Y-96165272D01*
X198909043Y-96163882D01*
X198910714Y-96156199D01*
X198910714Y-95579078D01*
X198910344Y-95572257D01*
X198904820Y-95521395D01*
X198901194Y-95506143D01*
X198856039Y-95385693D01*
X198847501Y-95370098D01*
X198771000Y-95268023D01*
X198758439Y-95255462D01*
X198656364Y-95178961D01*
X198640769Y-95170423D01*
X198520321Y-95125269D01*
X198505066Y-95121642D01*
X198454201Y-95116116D01*
X198447387Y-95115747D01*
X197924830Y-95115747D01*
X197909591Y-95120222D01*
X197908386Y-95121612D01*
X197906715Y-95129295D01*
X197906715Y-96151632D01*
X197398715Y-96151632D01*
X197398715Y-95133863D01*
X197394240Y-95118624D01*
X197392850Y-95117419D01*
X197385167Y-95115748D01*
X196858046Y-95115748D01*
X196851225Y-95116118D01*
X196800363Y-95121642D01*
X196785111Y-95125268D01*
X196664661Y-95170423D01*
X196649066Y-95178961D01*
X196546991Y-95255462D01*
X196534430Y-95268023D01*
X196457929Y-95370098D01*
X196449391Y-95385693D01*
X196404237Y-95506141D01*
X196400610Y-95521396D01*
X196395084Y-95572261D01*
X196394715Y-95579075D01*
X196394715Y-96151632D01*
X195311215Y-96151632D01*
X195311215Y-95575613D01*
X195304460Y-95513431D01*
X195253330Y-95377042D01*
X195165976Y-95260486D01*
X195049420Y-95173132D01*
X194913031Y-95122002D01*
X194850849Y-95115247D01*
X193254581Y-95115247D01*
X193192399Y-95122002D01*
X193056010Y-95173132D01*
X192939454Y-95260486D01*
X192852100Y-95377042D01*
X192800970Y-95513431D01*
X192794215Y-95575613D01*
X192794215Y-95662247D01*
X192774213Y-95730368D01*
X192720557Y-95776861D01*
X192668215Y-95788247D01*
X177518824Y-95788247D01*
X177507585Y-95787717D01*
X177500073Y-95786038D01*
X177492148Y-95786287D01*
X177492147Y-95786287D01*
X177431762Y-95788185D01*
X177427804Y-95788247D01*
X177399809Y-95788247D01*
X177395875Y-95788744D01*
X177395873Y-95788744D01*
X177395786Y-95788755D01*
X177383952Y-95789687D01*
X177339587Y-95791082D01*
X177331974Y-95793294D01*
X177331973Y-95793294D01*
X177320044Y-95796760D01*
X177300680Y-95800770D01*
X177288352Y-95802327D01*
X177288350Y-95802327D01*
X177280493Y-95803320D01*
X177273129Y-95806236D01*
X177273124Y-95806237D01*
X177239236Y-95819654D01*
X177228007Y-95823499D01*
X177215562Y-95827115D01*
X177185399Y-95835878D01*
X177178573Y-95839915D01*
X177167883Y-95846237D01*
X177150133Y-95854934D01*
X177131204Y-95862428D01*
X177124790Y-95867088D01*
X177095306Y-95888509D01*
X177085386Y-95895025D01*
X177054021Y-95913574D01*
X177054018Y-95913576D01*
X177047194Y-95917612D01*
X177032806Y-95932000D01*
X177017772Y-95944841D01*
X177001305Y-95956805D01*
X176996252Y-95962913D01*
X176973020Y-95990996D01*
X176965030Y-95999776D01*
X161438918Y-111525888D01*
X161376606Y-111559914D01*
X161349823Y-111562793D01*
X160466846Y-111562793D01*
X160463600Y-111563130D01*
X160463596Y-111563130D01*
X160367938Y-111573055D01*
X160367934Y-111573056D01*
X160361080Y-111573767D01*
X160354544Y-111575948D01*
X160354542Y-111575948D01*
X160252090Y-111610129D01*
X160193300Y-111629743D01*
X160042898Y-111722815D01*
X159917941Y-111847990D01*
X159914101Y-111854220D01*
X159914100Y-111854221D01*
X159863633Y-111936094D01*
X159825131Y-111998555D01*
X159813706Y-112033002D01*
X159772407Y-112157515D01*
X159769449Y-112166432D01*
X159768749Y-112173268D01*
X159768748Y-112173271D01*
X159765939Y-112200692D01*
X159758746Y-112270893D01*
X159758746Y-113101503D01*
X159738744Y-113169624D01*
X159685088Y-113216117D01*
X159632746Y-113227503D01*
X157803226Y-113227503D01*
X157735105Y-113207501D01*
X157688612Y-113153845D01*
X157677226Y-113101503D01*
X157677226Y-112317422D01*
X157697228Y-112249301D01*
X157714131Y-112228327D01*
X181328195Y-88614264D01*
X181336521Y-88606688D01*
X181343015Y-88602567D01*
X181389798Y-88552748D01*
X181392552Y-88549907D01*
X181412351Y-88530108D01*
X181414780Y-88526977D01*
X181414784Y-88526972D01*
X181414851Y-88526886D01*
X181422559Y-88517861D01*
X181447504Y-88491297D01*
X181452929Y-88485520D01*
X181456747Y-88478575D01*
X181456750Y-88478571D01*
X181462738Y-88467680D01*
X181473590Y-88451159D01*
X181475559Y-88448620D01*
X181486062Y-88435080D01*
X181503683Y-88394359D01*
X181508904Y-88383703D01*
X181526460Y-88351769D01*
X181526462Y-88351763D01*
X181530281Y-88344817D01*
X181532252Y-88337142D01*
X181532254Y-88337136D01*
X181535343Y-88325103D01*
X181541746Y-88306401D01*
X181549829Y-88287722D01*
X181551069Y-88279896D01*
X181551070Y-88279891D01*
X181556772Y-88243894D01*
X181559178Y-88232274D01*
X181568240Y-88196977D01*
X181568240Y-88196976D01*
X181570212Y-88189296D01*
X181570212Y-88168948D01*
X181571763Y-88149237D01*
X181573707Y-88136963D01*
X181574947Y-88129134D01*
X181570771Y-88084958D01*
X181570212Y-88073100D01*
X181570212Y-85892217D01*
X181590214Y-85824096D01*
X181643870Y-85777603D01*
X181696212Y-85766217D01*
X181732846Y-85766217D01*
X181795028Y-85759462D01*
X181931417Y-85708332D01*
X182047973Y-85620978D01*
X182135327Y-85504422D01*
X182186457Y-85368033D01*
X182193212Y-85305851D01*
X182193212Y-85302386D01*
X183276713Y-85302386D01*
X183277083Y-85309207D01*
X183282607Y-85360069D01*
X183286233Y-85375321D01*
X183331388Y-85495771D01*
X183339926Y-85511366D01*
X183416427Y-85613441D01*
X183428988Y-85626002D01*
X183531063Y-85702503D01*
X183546658Y-85711041D01*
X183667106Y-85756195D01*
X183682361Y-85759822D01*
X183733226Y-85765348D01*
X183740040Y-85765717D01*
X184262597Y-85765717D01*
X184277836Y-85761242D01*
X184279041Y-85759852D01*
X184280712Y-85752169D01*
X184280712Y-85747601D01*
X184788712Y-85747601D01*
X184793187Y-85762840D01*
X184794577Y-85764045D01*
X184802260Y-85765716D01*
X185329381Y-85765716D01*
X185336202Y-85765346D01*
X185387064Y-85759822D01*
X185402316Y-85756196D01*
X185522766Y-85711041D01*
X185538361Y-85702503D01*
X185640436Y-85626002D01*
X185652997Y-85613441D01*
X185729498Y-85511366D01*
X185738036Y-85495771D01*
X185783190Y-85375323D01*
X185786817Y-85360068D01*
X185792343Y-85309203D01*
X185792712Y-85302389D01*
X185792712Y-84729832D01*
X185788237Y-84714593D01*
X185786847Y-84713388D01*
X185779164Y-84711717D01*
X184806827Y-84711717D01*
X184791588Y-84716192D01*
X184790383Y-84717582D01*
X184788712Y-84725265D01*
X184788712Y-85747601D01*
X184280712Y-85747601D01*
X184280712Y-84729832D01*
X184276237Y-84714593D01*
X184274847Y-84713388D01*
X184267164Y-84711717D01*
X183294828Y-84711717D01*
X183279589Y-84716192D01*
X183278384Y-84717582D01*
X183276713Y-84725265D01*
X183276713Y-85302386D01*
X182193212Y-85302386D01*
X182193212Y-84185602D01*
X183276712Y-84185602D01*
X183281187Y-84200841D01*
X183282577Y-84202046D01*
X183290260Y-84203717D01*
X184262597Y-84203717D01*
X184277836Y-84199242D01*
X184279041Y-84197852D01*
X184280712Y-84190169D01*
X184280712Y-84185602D01*
X184788712Y-84185602D01*
X184793187Y-84200841D01*
X184794577Y-84202046D01*
X184802260Y-84203717D01*
X185774596Y-84203717D01*
X185789835Y-84199242D01*
X185791040Y-84197852D01*
X185792711Y-84190169D01*
X185792711Y-83613048D01*
X185792341Y-83606227D01*
X185786817Y-83555365D01*
X185783191Y-83540113D01*
X185738036Y-83419663D01*
X185729498Y-83404068D01*
X185652997Y-83301993D01*
X185640436Y-83289432D01*
X185538361Y-83212931D01*
X185522766Y-83204393D01*
X185402318Y-83159239D01*
X185387063Y-83155612D01*
X185336198Y-83150086D01*
X185329384Y-83149717D01*
X184806827Y-83149717D01*
X184791588Y-83154192D01*
X184790383Y-83155582D01*
X184788712Y-83163265D01*
X184788712Y-84185602D01*
X184280712Y-84185602D01*
X184280712Y-83167833D01*
X184276237Y-83152594D01*
X184274847Y-83151389D01*
X184267164Y-83149718D01*
X183740043Y-83149718D01*
X183733222Y-83150088D01*
X183682360Y-83155612D01*
X183667108Y-83159238D01*
X183546658Y-83204393D01*
X183531063Y-83212931D01*
X183428988Y-83289432D01*
X183416427Y-83301993D01*
X183339926Y-83404068D01*
X183331388Y-83419663D01*
X183286234Y-83540111D01*
X183282607Y-83555366D01*
X183277081Y-83606231D01*
X183276712Y-83613045D01*
X183276712Y-84185602D01*
X182193212Y-84185602D01*
X182193212Y-83609583D01*
X182186457Y-83547401D01*
X182135327Y-83411012D01*
X182047973Y-83294456D01*
X181931417Y-83207102D01*
X181795028Y-83155972D01*
X181732846Y-83149217D01*
X180136578Y-83149217D01*
X180074396Y-83155972D01*
X179938007Y-83207102D01*
X179821451Y-83294456D01*
X179734097Y-83411012D01*
X179682967Y-83547401D01*
X179676212Y-83609583D01*
X179676212Y-85305851D01*
X179682967Y-85368033D01*
X179734097Y-85504422D01*
X179821451Y-85620978D01*
X179938007Y-85708332D01*
X180074396Y-85759462D01*
X180136578Y-85766217D01*
X180173212Y-85766217D01*
X180241333Y-85786219D01*
X180287826Y-85839875D01*
X180299212Y-85892217D01*
X180299212Y-87793591D01*
X180279210Y-87861712D01*
X180262307Y-87882686D01*
X156590398Y-111554595D01*
X156528086Y-111588621D01*
X156501303Y-111591500D01*
X155618326Y-111591500D01*
X155615080Y-111591837D01*
X155615076Y-111591837D01*
X155519418Y-111601762D01*
X155519414Y-111601763D01*
X155512560Y-111602474D01*
X155506024Y-111604655D01*
X155506022Y-111604655D01*
X155385112Y-111644994D01*
X155344780Y-111658450D01*
X155194378Y-111751522D01*
X155069421Y-111876697D01*
X155065581Y-111882927D01*
X155065580Y-111882928D01*
X154998147Y-111992325D01*
X154976611Y-112027262D01*
X154958540Y-112081746D01*
X154929038Y-112170692D01*
X154920929Y-112195139D01*
X154920229Y-112201975D01*
X154920228Y-112201978D01*
X154916358Y-112239756D01*
X154910226Y-112299600D01*
X154910226Y-113101503D01*
X154890224Y-113169624D01*
X154836568Y-113216117D01*
X154784226Y-113227503D01*
X152548652Y-113227503D01*
X152480531Y-113207501D01*
X152434038Y-113153845D01*
X152422652Y-113101503D01*
X152422652Y-112453905D01*
X152442654Y-112385784D01*
X152459557Y-112364810D01*
X155157093Y-109667275D01*
X157888253Y-106936115D01*
X157896579Y-106928539D01*
X157903073Y-106924418D01*
X157949856Y-106874599D01*
X157952610Y-106871758D01*
X157972409Y-106851959D01*
X157974838Y-106848828D01*
X157974842Y-106848823D01*
X157974909Y-106848737D01*
X157982617Y-106839712D01*
X158007562Y-106813148D01*
X158012987Y-106807371D01*
X158016805Y-106800426D01*
X158016808Y-106800422D01*
X158022796Y-106789531D01*
X158033648Y-106773010D01*
X158041262Y-106763194D01*
X158041262Y-106763193D01*
X158046120Y-106756931D01*
X158063744Y-106716203D01*
X158068966Y-106705546D01*
X158086518Y-106673619D01*
X158086519Y-106673616D01*
X158090339Y-106666668D01*
X158095402Y-106646950D01*
X158101804Y-106628251D01*
X158109887Y-106609572D01*
X158111126Y-106601748D01*
X158111128Y-106601742D01*
X158116830Y-106565745D01*
X158119236Y-106554125D01*
X158128298Y-106518828D01*
X158128298Y-106518827D01*
X158130270Y-106511147D01*
X158130270Y-106490799D01*
X158131821Y-106471088D01*
X158133765Y-106458814D01*
X158135005Y-106450985D01*
X158130829Y-106406809D01*
X158130270Y-106394951D01*
X158130270Y-77292499D01*
X158150272Y-77224378D01*
X158203928Y-77177885D01*
X158256270Y-77166499D01*
X158292904Y-77166499D01*
X158355086Y-77159744D01*
X158491475Y-77108614D01*
X158608031Y-77021260D01*
X158695385Y-76904704D01*
X158746515Y-76768315D01*
X158753270Y-76706133D01*
X158753270Y-76702668D01*
X159836771Y-76702668D01*
X159837141Y-76709489D01*
X159842665Y-76760351D01*
X159846291Y-76775603D01*
X159891446Y-76896053D01*
X159899984Y-76911648D01*
X159976485Y-77013723D01*
X159989046Y-77026284D01*
X160091121Y-77102785D01*
X160106716Y-77111323D01*
X160227164Y-77156477D01*
X160242419Y-77160104D01*
X160293284Y-77165630D01*
X160300098Y-77165999D01*
X160822655Y-77165999D01*
X160837894Y-77161524D01*
X160839099Y-77160134D01*
X160840770Y-77152451D01*
X160840770Y-77147883D01*
X161348770Y-77147883D01*
X161353245Y-77163122D01*
X161354635Y-77164327D01*
X161362318Y-77165998D01*
X161889439Y-77165998D01*
X161896260Y-77165628D01*
X161947122Y-77160104D01*
X161962374Y-77156478D01*
X162082824Y-77111323D01*
X162098419Y-77102785D01*
X162200494Y-77026284D01*
X162213055Y-77013723D01*
X162289556Y-76911648D01*
X162298094Y-76896053D01*
X162343248Y-76775605D01*
X162346875Y-76760350D01*
X162352401Y-76709485D01*
X162352770Y-76702671D01*
X162352770Y-76130114D01*
X162348295Y-76114875D01*
X162346905Y-76113670D01*
X162339222Y-76111999D01*
X161366885Y-76111999D01*
X161351646Y-76116474D01*
X161350441Y-76117864D01*
X161348770Y-76125547D01*
X161348770Y-77147883D01*
X160840770Y-77147883D01*
X160840770Y-76130114D01*
X160836295Y-76114875D01*
X160834905Y-76113670D01*
X160827222Y-76111999D01*
X159854886Y-76111999D01*
X159839647Y-76116474D01*
X159838442Y-76117864D01*
X159836771Y-76125547D01*
X159836771Y-76702668D01*
X158753270Y-76702668D01*
X158753270Y-75585884D01*
X159836770Y-75585884D01*
X159841245Y-75601123D01*
X159842635Y-75602328D01*
X159850318Y-75603999D01*
X160822655Y-75603999D01*
X160837894Y-75599524D01*
X160839099Y-75598134D01*
X160840770Y-75590451D01*
X160840770Y-75585884D01*
X161348770Y-75585884D01*
X161353245Y-75601123D01*
X161354635Y-75602328D01*
X161362318Y-75603999D01*
X162334654Y-75603999D01*
X162349893Y-75599524D01*
X162351098Y-75598134D01*
X162352769Y-75590451D01*
X162352769Y-75013330D01*
X162352399Y-75006509D01*
X162346875Y-74955647D01*
X162343249Y-74940395D01*
X162298094Y-74819945D01*
X162289556Y-74804350D01*
X162213055Y-74702275D01*
X162200494Y-74689714D01*
X162098419Y-74613213D01*
X162082824Y-74604675D01*
X161962376Y-74559521D01*
X161947121Y-74555894D01*
X161896256Y-74550368D01*
X161889442Y-74549999D01*
X161366885Y-74549999D01*
X161351646Y-74554474D01*
X161350441Y-74555864D01*
X161348770Y-74563547D01*
X161348770Y-75585884D01*
X160840770Y-75585884D01*
X160840770Y-74568115D01*
X160836295Y-74552876D01*
X160834905Y-74551671D01*
X160827222Y-74550000D01*
X160300101Y-74550000D01*
X160293280Y-74550370D01*
X160242418Y-74555894D01*
X160227166Y-74559520D01*
X160106716Y-74604675D01*
X160091121Y-74613213D01*
X159989046Y-74689714D01*
X159976485Y-74702275D01*
X159899984Y-74804350D01*
X159891446Y-74819945D01*
X159846292Y-74940393D01*
X159842665Y-74955648D01*
X159837139Y-75006513D01*
X159836770Y-75013327D01*
X159836770Y-75585884D01*
X158753270Y-75585884D01*
X158753270Y-75009865D01*
X158746515Y-74947683D01*
X158695385Y-74811294D01*
X158608031Y-74694738D01*
X158491475Y-74607384D01*
X158355086Y-74556254D01*
X158292904Y-74549499D01*
X156696636Y-74549499D01*
X156634454Y-74556254D01*
X156498065Y-74607384D01*
X156381509Y-74694738D01*
X156294155Y-74811294D01*
X156243025Y-74947683D01*
X156236270Y-75009865D01*
X156236270Y-76706133D01*
X156243025Y-76768315D01*
X156294155Y-76904704D01*
X156381509Y-77021260D01*
X156498065Y-77108614D01*
X156634454Y-77159744D01*
X156696636Y-77166499D01*
X156733270Y-77166499D01*
X156801391Y-77186501D01*
X156847884Y-77240157D01*
X156859270Y-77292499D01*
X156859270Y-106115442D01*
X156839268Y-106183563D01*
X156822365Y-106204537D01*
X151335824Y-111691078D01*
X151273512Y-111725104D01*
X151246729Y-111727983D01*
X150363752Y-111727983D01*
X150360506Y-111728320D01*
X150360502Y-111728320D01*
X150264844Y-111738245D01*
X150264840Y-111738246D01*
X150257986Y-111738957D01*
X150251450Y-111741138D01*
X150251448Y-111741138D01*
X150141934Y-111777675D01*
X150090206Y-111794933D01*
X149939804Y-111888005D01*
X149814847Y-112013180D01*
X149811007Y-112019410D01*
X149811006Y-112019411D01*
X149731950Y-112147664D01*
X149722037Y-112163745D01*
X149700616Y-112228327D01*
X149671065Y-112317423D01*
X149666355Y-112331622D01*
X149665655Y-112338458D01*
X149665654Y-112338461D01*
X149662821Y-112366116D01*
X149655652Y-112436083D01*
X149655652Y-113101503D01*
X149635650Y-113169624D01*
X149581994Y-113216117D01*
X149529652Y-113227503D01*
X147294078Y-113227503D01*
X147225957Y-113207501D01*
X147179464Y-113153845D01*
X147168078Y-113101503D01*
X147168078Y-112299600D01*
X147167483Y-112293868D01*
X147157816Y-112200692D01*
X147157815Y-112200688D01*
X147157104Y-112193834D01*
X147150360Y-112173618D01*
X147103446Y-112033002D01*
X147101128Y-112026054D01*
X147008056Y-111875652D01*
X146882881Y-111750695D01*
X146863839Y-111738957D01*
X146738546Y-111661725D01*
X146738544Y-111661724D01*
X146732316Y-111657885D01*
X146647470Y-111629743D01*
X146570967Y-111604368D01*
X146570965Y-111604368D01*
X146564439Y-111602203D01*
X146557603Y-111601503D01*
X146557600Y-111601502D01*
X146514547Y-111597091D01*
X146459978Y-111591500D01*
X145577000Y-111591500D01*
X145508879Y-111571498D01*
X145487905Y-111554595D01*
X140967738Y-107034427D01*
X140933712Y-106972115D01*
X140930833Y-106945332D01*
X140930833Y-103595516D01*
X146375398Y-103595516D01*
X146375695Y-103600669D01*
X146375695Y-103600672D01*
X146381158Y-103695411D01*
X146388257Y-103818536D01*
X146389394Y-103823582D01*
X146389395Y-103823588D01*
X146409266Y-103911760D01*
X146437369Y-104036460D01*
X146475608Y-104130632D01*
X146515725Y-104229428D01*
X146521413Y-104243437D01*
X146567666Y-104318916D01*
X146635438Y-104429509D01*
X146638134Y-104433909D01*
X146641514Y-104437811D01*
X146649631Y-104447182D01*
X146784397Y-104602759D01*
X146956273Y-104745453D01*
X147149147Y-104858159D01*
X147357839Y-104937851D01*
X147362907Y-104938882D01*
X147362910Y-104938883D01*
X147453168Y-104957246D01*
X147576744Y-104982388D01*
X147581919Y-104982578D01*
X147581921Y-104982578D01*
X147794820Y-104990385D01*
X147794824Y-104990385D01*
X147799984Y-104990574D01*
X147805104Y-104989918D01*
X147805106Y-104989918D01*
X148016435Y-104962846D01*
X148016436Y-104962846D01*
X148021563Y-104962189D01*
X148026513Y-104960704D01*
X148230576Y-104899482D01*
X148230581Y-104899480D01*
X148235531Y-104897995D01*
X148436141Y-104799717D01*
X148618007Y-104669994D01*
X148624410Y-104663614D01*
X148727875Y-104560509D01*
X148776243Y-104512310D01*
X148835741Y-104429510D01*
X148906600Y-104330898D01*
X148907923Y-104331849D01*
X148954792Y-104288678D01*
X149024727Y-104276446D01*
X149090173Y-104303965D01*
X149118022Y-104335815D01*
X149178134Y-104433909D01*
X149181514Y-104437811D01*
X149189631Y-104447182D01*
X149324397Y-104602759D01*
X149496273Y-104745453D01*
X149689147Y-104858159D01*
X149897839Y-104937851D01*
X149902907Y-104938882D01*
X149902910Y-104938883D01*
X149993168Y-104957246D01*
X150116744Y-104982388D01*
X150121919Y-104982578D01*
X150121921Y-104982578D01*
X150334820Y-104990385D01*
X150334824Y-104990385D01*
X150339984Y-104990574D01*
X150345104Y-104989918D01*
X150345106Y-104989918D01*
X150556435Y-104962846D01*
X150556436Y-104962846D01*
X150561563Y-104962189D01*
X150566513Y-104960704D01*
X150770576Y-104899482D01*
X150770581Y-104899480D01*
X150775531Y-104897995D01*
X150976141Y-104799717D01*
X151158007Y-104669994D01*
X151164410Y-104663614D01*
X151267875Y-104560509D01*
X151316243Y-104512310D01*
X151375741Y-104429510D01*
X151443582Y-104335098D01*
X151446600Y-104330898D01*
X151449564Y-104324902D01*
X151543283Y-104135274D01*
X151543284Y-104135272D01*
X151545577Y-104130632D01*
X151610517Y-103916890D01*
X151639676Y-103695411D01*
X151641303Y-103628821D01*
X151622999Y-103406182D01*
X151568578Y-103189523D01*
X151479501Y-102984661D01*
X151440053Y-102923683D01*
X151360969Y-102801438D01*
X151360967Y-102801435D01*
X151358161Y-102797098D01*
X151207817Y-102631872D01*
X151094099Y-102542063D01*
X151053037Y-102484147D01*
X151046192Y-102443182D01*
X151046192Y-78921302D01*
X151066194Y-78853181D01*
X151106863Y-78813856D01*
X151108686Y-78812963D01*
X151113163Y-78809770D01*
X151157708Y-78777996D01*
X151290552Y-78683240D01*
X151365510Y-78608544D01*
X151445127Y-78529204D01*
X151448788Y-78525556D01*
X151508286Y-78442756D01*
X151576127Y-78348344D01*
X151579145Y-78344144D01*
X151600012Y-78301924D01*
X151675828Y-78148520D01*
X151675829Y-78148518D01*
X151678122Y-78143878D01*
X151738648Y-77944665D01*
X151741557Y-77935090D01*
X151741557Y-77935088D01*
X151743062Y-77930136D01*
X151772221Y-77708657D01*
X151773848Y-77642067D01*
X151755544Y-77419428D01*
X151701123Y-77202769D01*
X151612046Y-76997907D01*
X151559728Y-76917035D01*
X151493514Y-76814684D01*
X151493512Y-76814681D01*
X151490706Y-76810344D01*
X151340362Y-76645118D01*
X151336311Y-76641919D01*
X151336307Y-76641915D01*
X151169106Y-76509867D01*
X151169102Y-76509865D01*
X151165051Y-76506665D01*
X150969481Y-76398705D01*
X150964612Y-76396981D01*
X150964608Y-76396979D01*
X150763779Y-76325862D01*
X150763775Y-76325861D01*
X150758904Y-76324136D01*
X150753811Y-76323229D01*
X150753808Y-76323228D01*
X150544065Y-76285867D01*
X150544059Y-76285866D01*
X150538976Y-76284961D01*
X150465144Y-76284059D01*
X150320773Y-76282295D01*
X150320771Y-76282295D01*
X150315603Y-76282232D01*
X150094783Y-76316022D01*
X149882448Y-76385424D01*
X149684299Y-76488574D01*
X149680166Y-76491677D01*
X149680163Y-76491679D01*
X149509792Y-76619597D01*
X149505657Y-76622702D01*
X149502085Y-76626440D01*
X149366966Y-76767834D01*
X149351321Y-76784205D01*
X149243893Y-76941688D01*
X149188985Y-76986688D01*
X149118460Y-76994859D01*
X149054713Y-76963605D01*
X149034016Y-76939121D01*
X148953514Y-76814684D01*
X148953512Y-76814681D01*
X148950706Y-76810344D01*
X148800362Y-76645118D01*
X148796311Y-76641919D01*
X148796307Y-76641915D01*
X148629106Y-76509867D01*
X148629102Y-76509865D01*
X148625051Y-76506665D01*
X148429481Y-76398705D01*
X148424612Y-76396981D01*
X148424608Y-76396979D01*
X148223779Y-76325862D01*
X148223775Y-76325861D01*
X148218904Y-76324136D01*
X148213811Y-76323229D01*
X148213808Y-76323228D01*
X148004065Y-76285867D01*
X148004059Y-76285866D01*
X147998976Y-76284961D01*
X147925144Y-76284059D01*
X147780773Y-76282295D01*
X147780771Y-76282295D01*
X147775603Y-76282232D01*
X147554783Y-76316022D01*
X147342448Y-76385424D01*
X147144299Y-76488574D01*
X147140166Y-76491677D01*
X147140163Y-76491679D01*
X146969792Y-76619597D01*
X146965657Y-76622702D01*
X146962085Y-76626440D01*
X146826966Y-76767834D01*
X146811321Y-76784205D01*
X146685435Y-76968747D01*
X146655072Y-77034158D01*
X146593875Y-77165998D01*
X146591380Y-77171372D01*
X146531681Y-77386637D01*
X146507943Y-77608762D01*
X146508240Y-77613915D01*
X146508240Y-77613918D01*
X146520504Y-77826614D01*
X146520802Y-77831782D01*
X146521939Y-77836828D01*
X146521940Y-77836834D01*
X146541811Y-77925006D01*
X146569914Y-78049706D01*
X146608153Y-78143878D01*
X146646498Y-78238310D01*
X146653958Y-78256683D01*
X146704711Y-78339505D01*
X146767983Y-78442755D01*
X146770679Y-78447155D01*
X146916942Y-78616005D01*
X147088818Y-78758699D01*
X147172764Y-78807753D01*
X147221486Y-78859391D01*
X147235192Y-78916540D01*
X147235192Y-102282555D01*
X147215190Y-102350676D01*
X147167374Y-102394317D01*
X147011754Y-102475328D01*
X147007621Y-102478431D01*
X147007618Y-102478433D01*
X146837247Y-102606351D01*
X146833112Y-102609456D01*
X146829540Y-102613194D01*
X146691016Y-102758151D01*
X146678776Y-102770959D01*
X146675867Y-102775224D01*
X146675861Y-102775232D01*
X146657985Y-102801438D01*
X146552890Y-102955501D01*
X146458835Y-103158126D01*
X146399136Y-103373391D01*
X146375398Y-103595516D01*
X140930833Y-103595516D01*
X140930833Y-77140291D01*
X140950835Y-77072170D01*
X141004491Y-77025677D01*
X141056833Y-77014291D01*
X141093467Y-77014291D01*
X141155649Y-77007536D01*
X141292038Y-76956406D01*
X141408594Y-76869052D01*
X141495948Y-76752496D01*
X141547078Y-76616107D01*
X141553833Y-76553925D01*
X141553833Y-76550460D01*
X142637334Y-76550460D01*
X142637704Y-76557281D01*
X142643228Y-76608143D01*
X142646854Y-76623395D01*
X142692009Y-76743845D01*
X142700547Y-76759440D01*
X142777048Y-76861515D01*
X142789609Y-76874076D01*
X142891684Y-76950577D01*
X142907279Y-76959115D01*
X143027727Y-77004269D01*
X143042982Y-77007896D01*
X143093847Y-77013422D01*
X143100661Y-77013791D01*
X143623218Y-77013791D01*
X143638457Y-77009316D01*
X143639662Y-77007926D01*
X143641333Y-77000243D01*
X143641333Y-76995675D01*
X144149333Y-76995675D01*
X144153808Y-77010914D01*
X144155198Y-77012119D01*
X144162881Y-77013790D01*
X144690002Y-77013790D01*
X144696823Y-77013420D01*
X144747685Y-77007896D01*
X144762937Y-77004270D01*
X144883387Y-76959115D01*
X144898982Y-76950577D01*
X145001057Y-76874076D01*
X145013618Y-76861515D01*
X145090119Y-76759440D01*
X145098657Y-76743845D01*
X145143811Y-76623397D01*
X145147438Y-76608142D01*
X145152964Y-76557277D01*
X145153333Y-76550463D01*
X145153333Y-75977906D01*
X145148858Y-75962667D01*
X145147468Y-75961462D01*
X145139785Y-75959791D01*
X144167448Y-75959791D01*
X144152209Y-75964266D01*
X144151004Y-75965656D01*
X144149333Y-75973339D01*
X144149333Y-76995675D01*
X143641333Y-76995675D01*
X143641333Y-75977906D01*
X143636858Y-75962667D01*
X143635468Y-75961462D01*
X143627785Y-75959791D01*
X142655449Y-75959791D01*
X142640210Y-75964266D01*
X142639005Y-75965656D01*
X142637334Y-75973339D01*
X142637334Y-76550460D01*
X141553833Y-76550460D01*
X141553833Y-75433676D01*
X142637333Y-75433676D01*
X142641808Y-75448915D01*
X142643198Y-75450120D01*
X142650881Y-75451791D01*
X143623218Y-75451791D01*
X143638457Y-75447316D01*
X143639662Y-75445926D01*
X143641333Y-75438243D01*
X143641333Y-75433676D01*
X144149333Y-75433676D01*
X144153808Y-75448915D01*
X144155198Y-75450120D01*
X144162881Y-75451791D01*
X145135217Y-75451791D01*
X145150456Y-75447316D01*
X145151661Y-75445926D01*
X145153332Y-75438243D01*
X145153332Y-74861122D01*
X145152962Y-74854301D01*
X145147438Y-74803439D01*
X145143812Y-74788187D01*
X145098657Y-74667737D01*
X145090119Y-74652142D01*
X145013618Y-74550067D01*
X145001057Y-74537506D01*
X144898982Y-74461005D01*
X144883387Y-74452467D01*
X144762939Y-74407313D01*
X144747684Y-74403686D01*
X144696819Y-74398160D01*
X144690005Y-74397791D01*
X144167448Y-74397791D01*
X144152209Y-74402266D01*
X144151004Y-74403656D01*
X144149333Y-74411339D01*
X144149333Y-75433676D01*
X143641333Y-75433676D01*
X143641333Y-74415907D01*
X143636858Y-74400668D01*
X143635468Y-74399463D01*
X143627785Y-74397792D01*
X143100664Y-74397792D01*
X143093843Y-74398162D01*
X143042981Y-74403686D01*
X143027729Y-74407312D01*
X142907279Y-74452467D01*
X142891684Y-74461005D01*
X142789609Y-74537506D01*
X142777048Y-74550067D01*
X142700547Y-74652142D01*
X142692009Y-74667737D01*
X142646855Y-74788185D01*
X142643228Y-74803440D01*
X142637702Y-74854305D01*
X142637333Y-74861119D01*
X142637333Y-75433676D01*
X141553833Y-75433676D01*
X141553833Y-74857657D01*
X141547078Y-74795475D01*
X141495948Y-74659086D01*
X141408594Y-74542530D01*
X141292038Y-74455176D01*
X141155649Y-74404046D01*
X141093467Y-74397291D01*
X139497199Y-74397291D01*
X139435017Y-74404046D01*
X139298628Y-74455176D01*
X139182072Y-74542530D01*
X139094718Y-74659086D01*
X139043588Y-74795475D01*
X139036833Y-74857657D01*
X139036833Y-76553925D01*
X139043588Y-76616107D01*
X139094718Y-76752496D01*
X139182072Y-76869052D01*
X139298628Y-76956406D01*
X139435017Y-77007536D01*
X139497199Y-77014291D01*
X139533833Y-77014291D01*
X139601954Y-77034293D01*
X139648447Y-77087949D01*
X139659833Y-77140291D01*
X139659833Y-107181735D01*
X139659303Y-107192969D01*
X139657625Y-107200474D01*
X139657874Y-107208393D01*
X139659771Y-107268767D01*
X139659833Y-107272724D01*
X139659833Y-107300738D01*
X139660329Y-107304663D01*
X139660329Y-107304664D01*
X139660341Y-107304759D01*
X139661274Y-107316604D01*
X139662668Y-107360960D01*
X139668346Y-107380503D01*
X139672356Y-107399867D01*
X139673329Y-107407567D01*
X139674906Y-107420054D01*
X139677822Y-107427418D01*
X139677823Y-107427423D01*
X139691240Y-107461311D01*
X139695085Y-107472540D01*
X139707464Y-107515148D01*
X139711502Y-107521975D01*
X139711503Y-107521978D01*
X139717821Y-107532661D01*
X139726521Y-107550419D01*
X139731094Y-107561970D01*
X139731098Y-107561976D01*
X139734014Y-107569343D01*
X139738672Y-107575754D01*
X139738673Y-107575756D01*
X139760097Y-107605243D01*
X139766614Y-107615165D01*
X139785159Y-107646523D01*
X139785162Y-107646527D01*
X139789199Y-107653353D01*
X139803583Y-107667737D01*
X139816424Y-107682771D01*
X139828391Y-107699242D01*
X139834499Y-107704295D01*
X139862588Y-107727532D01*
X139871368Y-107735522D01*
X144364173Y-112228328D01*
X144398199Y-112290640D01*
X144401078Y-112317423D01*
X144401078Y-113101503D01*
X144381076Y-113169624D01*
X144327420Y-113216117D01*
X144275078Y-113227503D01*
X141903021Y-113227503D01*
X141834900Y-113207501D01*
X141788407Y-113153845D01*
X141777021Y-113101503D01*
X141777021Y-112348293D01*
X141776423Y-112342531D01*
X141766759Y-112249385D01*
X141766758Y-112249381D01*
X141766047Y-112242527D01*
X141762428Y-112231678D01*
X141712389Y-112081695D01*
X141710071Y-112074747D01*
X141616999Y-111924345D01*
X141491824Y-111799388D01*
X141440242Y-111767592D01*
X141347489Y-111710418D01*
X141347487Y-111710417D01*
X141341259Y-111706578D01*
X141227304Y-111668781D01*
X141179910Y-111653061D01*
X141179908Y-111653061D01*
X141173382Y-111650896D01*
X141166546Y-111650196D01*
X141166543Y-111650195D01*
X141115866Y-111645003D01*
X141068921Y-111640193D01*
X140185944Y-111640193D01*
X140117823Y-111620191D01*
X140096849Y-111603288D01*
X115827026Y-87333465D01*
X115793000Y-87271153D01*
X115790121Y-87244370D01*
X115790121Y-85131180D01*
X115810123Y-85063059D01*
X115863779Y-85016566D01*
X115916121Y-85005180D01*
X115952755Y-85005180D01*
X116014937Y-84998425D01*
X116151326Y-84947295D01*
X116267882Y-84859941D01*
X116355236Y-84743385D01*
X116406366Y-84606996D01*
X116413121Y-84544814D01*
X116413121Y-84541349D01*
X117496622Y-84541349D01*
X117496992Y-84548170D01*
X117502516Y-84599032D01*
X117506142Y-84614284D01*
X117551297Y-84734734D01*
X117559835Y-84750329D01*
X117636336Y-84852404D01*
X117648897Y-84864965D01*
X117750972Y-84941466D01*
X117766567Y-84950004D01*
X117887015Y-84995158D01*
X117902270Y-84998785D01*
X117953135Y-85004311D01*
X117959949Y-85004680D01*
X118482506Y-85004680D01*
X118497745Y-85000205D01*
X118498950Y-84998815D01*
X118500621Y-84991132D01*
X118500621Y-84986564D01*
X119008621Y-84986564D01*
X119013096Y-85001803D01*
X119014486Y-85003008D01*
X119022169Y-85004679D01*
X119549290Y-85004679D01*
X119556111Y-85004309D01*
X119606973Y-84998785D01*
X119622225Y-84995159D01*
X119742675Y-84950004D01*
X119758270Y-84941466D01*
X119860345Y-84864965D01*
X119872906Y-84852404D01*
X119949407Y-84750329D01*
X119957945Y-84734734D01*
X120003099Y-84614286D01*
X120006726Y-84599031D01*
X120012252Y-84548166D01*
X120012621Y-84541352D01*
X120012621Y-83968795D01*
X120008146Y-83953556D01*
X120006756Y-83952351D01*
X119999073Y-83950680D01*
X119026736Y-83950680D01*
X119011497Y-83955155D01*
X119010292Y-83956545D01*
X119008621Y-83964228D01*
X119008621Y-84986564D01*
X118500621Y-84986564D01*
X118500621Y-83968795D01*
X118496146Y-83953556D01*
X118494756Y-83952351D01*
X118487073Y-83950680D01*
X117514737Y-83950680D01*
X117499498Y-83955155D01*
X117498293Y-83956545D01*
X117496622Y-83964228D01*
X117496622Y-84541349D01*
X116413121Y-84541349D01*
X116413121Y-83424565D01*
X117496621Y-83424565D01*
X117501096Y-83439804D01*
X117502486Y-83441009D01*
X117510169Y-83442680D01*
X118482506Y-83442680D01*
X118497745Y-83438205D01*
X118498950Y-83436815D01*
X118500621Y-83429132D01*
X118500621Y-83424565D01*
X119008621Y-83424565D01*
X119013096Y-83439804D01*
X119014486Y-83441009D01*
X119022169Y-83442680D01*
X119994505Y-83442680D01*
X120009744Y-83438205D01*
X120010949Y-83436815D01*
X120012620Y-83429132D01*
X120012620Y-82852011D01*
X120012250Y-82845190D01*
X120006726Y-82794328D01*
X120003100Y-82779076D01*
X119957945Y-82658626D01*
X119949407Y-82643031D01*
X119872906Y-82540956D01*
X119860345Y-82528395D01*
X119758270Y-82451894D01*
X119742675Y-82443356D01*
X119622227Y-82398202D01*
X119606972Y-82394575D01*
X119556107Y-82389049D01*
X119549293Y-82388680D01*
X119026736Y-82388680D01*
X119011497Y-82393155D01*
X119010292Y-82394545D01*
X119008621Y-82402228D01*
X119008621Y-83424565D01*
X118500621Y-83424565D01*
X118500621Y-82406796D01*
X118496146Y-82391557D01*
X118494756Y-82390352D01*
X118487073Y-82388681D01*
X117959952Y-82388681D01*
X117953131Y-82389051D01*
X117902269Y-82394575D01*
X117887017Y-82398201D01*
X117766567Y-82443356D01*
X117750972Y-82451894D01*
X117648897Y-82528395D01*
X117636336Y-82540956D01*
X117559835Y-82643031D01*
X117551297Y-82658626D01*
X117506143Y-82779074D01*
X117502516Y-82794329D01*
X117496990Y-82845194D01*
X117496621Y-82852008D01*
X117496621Y-83424565D01*
X116413121Y-83424565D01*
X116413121Y-82848546D01*
X116406366Y-82786364D01*
X116355236Y-82649975D01*
X116267882Y-82533419D01*
X116151326Y-82446065D01*
X116014937Y-82394935D01*
X115952755Y-82388180D01*
X114356487Y-82388180D01*
X114294305Y-82394935D01*
X114157916Y-82446065D01*
X114041360Y-82533419D01*
X113954006Y-82649975D01*
X113902876Y-82786364D01*
X113896121Y-82848546D01*
X113896121Y-84544814D01*
X113902876Y-84606996D01*
X113954006Y-84743385D01*
X114041360Y-84859941D01*
X114157916Y-84947295D01*
X114294305Y-84998425D01*
X114356487Y-85005180D01*
X114393121Y-85005180D01*
X114461242Y-85025182D01*
X114507735Y-85078838D01*
X114519121Y-85131180D01*
X114519121Y-87480773D01*
X114518591Y-87492007D01*
X114516913Y-87499512D01*
X114517162Y-87507431D01*
X114519059Y-87567805D01*
X114519121Y-87571762D01*
X114519121Y-87599776D01*
X114519617Y-87603701D01*
X114519617Y-87603702D01*
X114519629Y-87603797D01*
X114520562Y-87615642D01*
X114521956Y-87659998D01*
X114526761Y-87676535D01*
X114527634Y-87679541D01*
X114531644Y-87698905D01*
X114534194Y-87719092D01*
X114537110Y-87726456D01*
X114537111Y-87726461D01*
X114550528Y-87760349D01*
X114554373Y-87771578D01*
X114566752Y-87814186D01*
X114570790Y-87821013D01*
X114570791Y-87821016D01*
X114577109Y-87831699D01*
X114585809Y-87849457D01*
X114590382Y-87861008D01*
X114590386Y-87861014D01*
X114593302Y-87868381D01*
X114597960Y-87874792D01*
X114597961Y-87874794D01*
X114619385Y-87904281D01*
X114625902Y-87914203D01*
X114644447Y-87945561D01*
X114644450Y-87945565D01*
X114648487Y-87952391D01*
X114662871Y-87966775D01*
X114675712Y-87981809D01*
X114687679Y-87998280D01*
X114693787Y-88003333D01*
X114721876Y-88026570D01*
X114730656Y-88034560D01*
X138973116Y-112277021D01*
X139007142Y-112339333D01*
X139010021Y-112366116D01*
X139010021Y-113101503D01*
X138990019Y-113169624D01*
X138936363Y-113216117D01*
X138884021Y-113227503D01*
X136766289Y-113227503D01*
X136698168Y-113207501D01*
X136651675Y-113153845D01*
X136640289Y-113101503D01*
X136640289Y-112352766D01*
X136639952Y-112349516D01*
X136630027Y-112253858D01*
X136630026Y-112253854D01*
X136629315Y-112247000D01*
X136625642Y-112235989D01*
X136575657Y-112086168D01*
X136573339Y-112079220D01*
X136480267Y-111928818D01*
X136355092Y-111803861D01*
X136348861Y-111800020D01*
X136210757Y-111714891D01*
X136210755Y-111714890D01*
X136204527Y-111711051D01*
X136079248Y-111669498D01*
X136043178Y-111657534D01*
X136043176Y-111657534D01*
X136036650Y-111655369D01*
X136029814Y-111654669D01*
X136029811Y-111654668D01*
X135986152Y-111650195D01*
X135932189Y-111644666D01*
X134581389Y-111644666D01*
X134578143Y-111645003D01*
X134578139Y-111645003D01*
X134482481Y-111654928D01*
X134482477Y-111654929D01*
X134475623Y-111655640D01*
X134469087Y-111657821D01*
X134469085Y-111657821D01*
X134369403Y-111691078D01*
X134307843Y-111711616D01*
X134157441Y-111804688D01*
X134032484Y-111929863D01*
X134028644Y-111936093D01*
X134028643Y-111936094D01*
X133952754Y-112059209D01*
X133939674Y-112080428D01*
X133937370Y-112087375D01*
X133934276Y-112094010D01*
X133931488Y-112092710D01*
X133898960Y-112139679D01*
X133833401Y-112166928D01*
X133819781Y-112167666D01*
X117814513Y-112167666D01*
X117746392Y-112147664D01*
X117725418Y-112130761D01*
X101932082Y-96337424D01*
X102530681Y-96337424D01*
X102531051Y-96344245D01*
X102536575Y-96395107D01*
X102540201Y-96410359D01*
X102585356Y-96530809D01*
X102593894Y-96546404D01*
X102670395Y-96648479D01*
X102682956Y-96661040D01*
X102785031Y-96737541D01*
X102800626Y-96746079D01*
X102921074Y-96791233D01*
X102936329Y-96794860D01*
X102987194Y-96800386D01*
X102994008Y-96800755D01*
X103516565Y-96800755D01*
X103531804Y-96796280D01*
X103533009Y-96794890D01*
X103534680Y-96787207D01*
X103534680Y-96782639D01*
X104042680Y-96782639D01*
X104047155Y-96797878D01*
X104048545Y-96799083D01*
X104056228Y-96800754D01*
X104583349Y-96800754D01*
X104590170Y-96800384D01*
X104641032Y-96794860D01*
X104656284Y-96791234D01*
X104776734Y-96746079D01*
X104792329Y-96737541D01*
X104894404Y-96661040D01*
X104906965Y-96648479D01*
X104983466Y-96546404D01*
X104992004Y-96530809D01*
X105037158Y-96410361D01*
X105040785Y-96395106D01*
X105046311Y-96344241D01*
X105046680Y-96337427D01*
X105046680Y-95764870D01*
X105042205Y-95749631D01*
X105040815Y-95748426D01*
X105033132Y-95746755D01*
X104060795Y-95746755D01*
X104045556Y-95751230D01*
X104044351Y-95752620D01*
X104042680Y-95760303D01*
X104042680Y-96782639D01*
X103534680Y-96782639D01*
X103534680Y-95764870D01*
X103530205Y-95749631D01*
X103528815Y-95748426D01*
X103521132Y-95746755D01*
X102548796Y-95746755D01*
X102533557Y-95751230D01*
X102532352Y-95752620D01*
X102530681Y-95760303D01*
X102530681Y-96337424D01*
X101932082Y-96337424D01*
X101484085Y-95889427D01*
X101450059Y-95827115D01*
X101447180Y-95800332D01*
X101447180Y-95220640D01*
X102530680Y-95220640D01*
X102535155Y-95235879D01*
X102536545Y-95237084D01*
X102544228Y-95238755D01*
X103516565Y-95238755D01*
X103531804Y-95234280D01*
X103533009Y-95232890D01*
X103534680Y-95225207D01*
X103534680Y-95220640D01*
X104042680Y-95220640D01*
X104047155Y-95235879D01*
X104048545Y-95237084D01*
X104056228Y-95238755D01*
X105028564Y-95238755D01*
X105043803Y-95234280D01*
X105045008Y-95232890D01*
X105046679Y-95225207D01*
X105046679Y-94648086D01*
X105046309Y-94641265D01*
X105040785Y-94590403D01*
X105037159Y-94575151D01*
X104992004Y-94454701D01*
X104983466Y-94439106D01*
X104906965Y-94337031D01*
X104894404Y-94324470D01*
X104792329Y-94247969D01*
X104776734Y-94239431D01*
X104656286Y-94194277D01*
X104641031Y-94190650D01*
X104590166Y-94185124D01*
X104583352Y-94184755D01*
X104060795Y-94184755D01*
X104045556Y-94189230D01*
X104044351Y-94190620D01*
X104042680Y-94198303D01*
X104042680Y-95220640D01*
X103534680Y-95220640D01*
X103534680Y-94202871D01*
X103530205Y-94187632D01*
X103528815Y-94186427D01*
X103521132Y-94184756D01*
X102994011Y-94184756D01*
X102987190Y-94185126D01*
X102936328Y-94190650D01*
X102921076Y-94194276D01*
X102800626Y-94239431D01*
X102785031Y-94247969D01*
X102682956Y-94324470D01*
X102670395Y-94337031D01*
X102593894Y-94439106D01*
X102585356Y-94454701D01*
X102540202Y-94575149D01*
X102536575Y-94590404D01*
X102531049Y-94641269D01*
X102530680Y-94648083D01*
X102530680Y-95220640D01*
X101447180Y-95220640D01*
X101447180Y-94644621D01*
X101440425Y-94582439D01*
X101389295Y-94446050D01*
X101301941Y-94329494D01*
X101185385Y-94242140D01*
X101048996Y-94191010D01*
X100986814Y-94184255D01*
X100011356Y-94184255D01*
X99943235Y-94164253D01*
X99896742Y-94110597D01*
X99886638Y-94040323D01*
X99914458Y-93977715D01*
X100011345Y-93861150D01*
X100455479Y-93326809D01*
X100464009Y-93318619D01*
X100463601Y-93318219D01*
X100469885Y-93311813D01*
X100477017Y-93306359D01*
X100492759Y-93284927D01*
X100509262Y-93262457D01*
X100513916Y-93256504D01*
X100521794Y-93247025D01*
X100521795Y-93247023D01*
X100524658Y-93243579D01*
X100529800Y-93235214D01*
X100535587Y-93226615D01*
X100557926Y-93196201D01*
X100557927Y-93196198D01*
X100563241Y-93188964D01*
X100566310Y-93180531D01*
X100566919Y-93179392D01*
X100576417Y-93159736D01*
X100576924Y-93158565D01*
X100581626Y-93150918D01*
X100593941Y-93105846D01*
X100597082Y-93095968D01*
X100607346Y-93067764D01*
X100613051Y-93052088D01*
X100613630Y-93043125D01*
X100613894Y-93041867D01*
X100617491Y-93020357D01*
X100617652Y-93019069D01*
X100620018Y-93010411D01*
X100619189Y-92963709D01*
X100619431Y-92953352D01*
X100621864Y-92915694D01*
X100622443Y-92906734D01*
X100620484Y-92897972D01*
X100620384Y-92896689D01*
X100617797Y-92875027D01*
X100617591Y-92873753D01*
X100617432Y-92864777D01*
X100614760Y-92856206D01*
X100603528Y-92820181D01*
X100600853Y-92810170D01*
X100592619Y-92773342D01*
X100592618Y-92773340D01*
X100590661Y-92764586D01*
X100586324Y-92756730D01*
X100585870Y-92755532D01*
X100577291Y-92735431D01*
X100576748Y-92734292D01*
X100574076Y-92725721D01*
X100569109Y-92718249D01*
X100569106Y-92718244D01*
X100548213Y-92686818D01*
X100542837Y-92677964D01*
X100538921Y-92670872D01*
X100536567Y-92666608D01*
X100526681Y-92653842D01*
X100521376Y-92646455D01*
X100508102Y-92626488D01*
X100493433Y-92604424D01*
X100486561Y-92598640D01*
X100480584Y-92591948D01*
X100480625Y-92591911D01*
X100470805Y-92581683D01*
X100280661Y-92336138D01*
X100269879Y-92319712D01*
X100262898Y-92307019D01*
X100262897Y-92307018D01*
X100258572Y-92299154D01*
X100231613Y-92272298D01*
X100229492Y-92270060D01*
X100227771Y-92267838D01*
X100205034Y-92245807D01*
X100203938Y-92244730D01*
X100155378Y-92196357D01*
X100152229Y-92194641D01*
X100149654Y-92192146D01*
X100142695Y-92188477D01*
X100142693Y-92188476D01*
X100089069Y-92160208D01*
X100087533Y-92159384D01*
X100027480Y-92126657D01*
X100023978Y-92125894D01*
X100020804Y-92124221D01*
X99953730Y-92110578D01*
X99952028Y-92110220D01*
X99935562Y-92106633D01*
X99885160Y-92095653D01*
X99881584Y-92095904D01*
X99878070Y-92095189D01*
X99834454Y-92098854D01*
X99809778Y-92100927D01*
X99808042Y-92101060D01*
X99799086Y-92101688D01*
X99773516Y-92103481D01*
X99770761Y-92104110D01*
X99767766Y-92104457D01*
X99741867Y-92106633D01*
X99741864Y-92106634D01*
X99732923Y-92107385D01*
X99724549Y-92110617D01*
X99724548Y-92110617D01*
X99707363Y-92117249D01*
X99690045Y-92122538D01*
X99379162Y-92193515D01*
X98892998Y-92304510D01*
X98822134Y-92300172D01*
X98813580Y-92296722D01*
X98387873Y-92106633D01*
X98041139Y-91951807D01*
X98035144Y-91948937D01*
X97984635Y-91923081D01*
X97975821Y-91921398D01*
X97975820Y-91921398D01*
X97959087Y-91918204D01*
X97940873Y-91914726D01*
X97929965Y-91912136D01*
X97887116Y-91899920D01*
X97877835Y-91899983D01*
X97876484Y-91899992D01*
X97852009Y-91897761D01*
X97841562Y-91895766D01*
X97815693Y-91898253D01*
X97797208Y-91900030D01*
X97786004Y-91900605D01*
X97750442Y-91900846D01*
X97750441Y-91900846D01*
X97741462Y-91900907D01*
X97731279Y-91903960D01*
X97707153Y-91908688D01*
X97705506Y-91908846D01*
X97705504Y-91908847D01*
X97696573Y-91909705D01*
X97688240Y-91913037D01*
X97688238Y-91913037D01*
X97655196Y-91926247D01*
X97644625Y-91929937D01*
X97601939Y-91942733D01*
X97594409Y-91947620D01*
X97594406Y-91947622D01*
X97550917Y-91975851D01*
X97546545Y-91978564D01*
X97335574Y-92103538D01*
X97023528Y-92288387D01*
X96981475Y-92304015D01*
X96212791Y-92441376D01*
X96177768Y-92442683D01*
X95403172Y-92363225D01*
X95360203Y-92350840D01*
X94811042Y-92079429D01*
X94807690Y-92077710D01*
X94758484Y-92051532D01*
X94758483Y-92051532D01*
X94750559Y-92047316D01*
X94741772Y-92045494D01*
X94741769Y-92045493D01*
X94714189Y-92039775D01*
X94700521Y-92036130D01*
X94673746Y-92027353D01*
X94665217Y-92024557D01*
X94656248Y-92024268D01*
X94656245Y-92024267D01*
X94648847Y-92024029D01*
X94647150Y-92023974D01*
X94625639Y-92021417D01*
X94607935Y-92017746D01*
X94598994Y-92018463D01*
X94598991Y-92018463D01*
X94570893Y-92020717D01*
X94556755Y-92021054D01*
X94544012Y-92020643D01*
X94519635Y-92019856D01*
X94452329Y-92037200D01*
X94450218Y-92037724D01*
X93825565Y-92186964D01*
X93770552Y-92187757D01*
X93026849Y-92032593D01*
X93014823Y-92028665D01*
X93014716Y-92029033D01*
X93006102Y-92026522D01*
X92997923Y-92022812D01*
X92959974Y-92017410D01*
X92945414Y-92015337D01*
X92937440Y-92013939D01*
X92926663Y-92011691D01*
X92926657Y-92011690D01*
X92922261Y-92010773D01*
X92911068Y-92010062D01*
X92901299Y-92009057D01*
X92878734Y-92005845D01*
X92862607Y-92003549D01*
X92862605Y-92003549D01*
X92853719Y-92002284D01*
X92844834Y-92003564D01*
X92839778Y-92003568D01*
X92827686Y-92004049D01*
X92822663Y-92004446D01*
X92813708Y-92003877D01*
X92804952Y-92005845D01*
X92804948Y-92005845D01*
X92766801Y-92014418D01*
X92757140Y-92016197D01*
X92754101Y-92016635D01*
X92742944Y-92018242D01*
X92738299Y-92019666D01*
X92738292Y-92019668D01*
X92728784Y-92022584D01*
X92719466Y-92025055D01*
X92671594Y-92035813D01*
X92663734Y-92040164D01*
X92658196Y-92042269D01*
X92641572Y-92049327D01*
X92076407Y-92222632D01*
X92054893Y-92227219D01*
X91471939Y-92299086D01*
X91444246Y-92299433D01*
X90847361Y-92240962D01*
X90429112Y-92199990D01*
X90389127Y-92189237D01*
X89819437Y-91929506D01*
X89765751Y-91883047D01*
X89761989Y-91876811D01*
X89740349Y-91838486D01*
X89704457Y-91774920D01*
X89688380Y-91705770D01*
X89702012Y-91655562D01*
X89766273Y-91530011D01*
X89817646Y-91477053D01*
X90373179Y-91171072D01*
X90412389Y-91157301D01*
X91414248Y-90983184D01*
X91423575Y-90981563D01*
X91445150Y-90979702D01*
X91729612Y-90979702D01*
X91739496Y-90980090D01*
X91787767Y-90983888D01*
X91839277Y-90973127D01*
X91847124Y-90971746D01*
X91899242Y-90964282D01*
X91907415Y-90960566D01*
X91914545Y-90958481D01*
X91921553Y-90955937D01*
X91930347Y-90954100D01*
X91976773Y-90929309D01*
X91983947Y-90925768D01*
X91997551Y-90919583D01*
X92031837Y-90903994D01*
X92038639Y-90898133D01*
X92044912Y-90894121D01*
X92050915Y-90889719D01*
X92058834Y-90885491D01*
X92096413Y-90848690D01*
X92102324Y-90843259D01*
X92135378Y-90814778D01*
X92135379Y-90814777D01*
X92142182Y-90808915D01*
X92147065Y-90801380D01*
X92151958Y-90795772D01*
X92156486Y-90789860D01*
X92162900Y-90783579D01*
X92172896Y-90765766D01*
X92188638Y-90737714D01*
X92192787Y-90730842D01*
X92216526Y-90694218D01*
X92216527Y-90694216D01*
X92221407Y-90686687D01*
X92236422Y-90636480D01*
X92239079Y-90628562D01*
X92401273Y-90193577D01*
X92508112Y-89907048D01*
X92540968Y-89858247D01*
X92994667Y-89441797D01*
X93046099Y-89413231D01*
X93725384Y-89224252D01*
X93759155Y-89219642D01*
X93777547Y-89219642D01*
X93780995Y-89219689D01*
X93846600Y-89221485D01*
X93855282Y-89219202D01*
X93855283Y-89219202D01*
X93881744Y-89212244D01*
X93895925Y-89209374D01*
X93923016Y-89205495D01*
X93923019Y-89205494D01*
X93931902Y-89204222D01*
X93949099Y-89196403D01*
X93969199Y-89189249D01*
X93987469Y-89184445D01*
X94018607Y-89165712D01*
X94031406Y-89158980D01*
X94056331Y-89147647D01*
X94064497Y-89143934D01*
X94071292Y-89138079D01*
X94071295Y-89138077D01*
X94078804Y-89131606D01*
X94096100Y-89119090D01*
X94104593Y-89113981D01*
X94104595Y-89113980D01*
X94112280Y-89109356D01*
X94118358Y-89102762D01*
X94118363Y-89102758D01*
X94136912Y-89082634D01*
X94147306Y-89072582D01*
X94174842Y-89048855D01*
X94213349Y-88989448D01*
X94214365Y-88987907D01*
X94540764Y-88500672D01*
X94650518Y-88336836D01*
X94688826Y-88299862D01*
X94845498Y-88202766D01*
X95358199Y-87885024D01*
X95399342Y-87868677D01*
X96329906Y-87678495D01*
X96367333Y-87676535D01*
X96913947Y-87729726D01*
X97151538Y-87752846D01*
X97165745Y-87755053D01*
X97201842Y-87762791D01*
X97265609Y-87758108D01*
X97269102Y-87757901D01*
X97307739Y-87756152D01*
X97324010Y-87755415D01*
X97324011Y-87755415D01*
X97332975Y-87755009D01*
X97339858Y-87752654D01*
X97347108Y-87752121D01*
X97407045Y-87729710D01*
X97410271Y-87728555D01*
X97470786Y-87707846D01*
X97493900Y-87691546D01*
X97504167Y-87684306D01*
X97515022Y-87677451D01*
X98041256Y-87381526D01*
X98068031Y-87370306D01*
X98665802Y-87197536D01*
X98666162Y-87197433D01*
X98748080Y-87174021D01*
X98772237Y-87158779D01*
X98787679Y-87150478D01*
X98791772Y-87148632D01*
X98813734Y-87138730D01*
X98833998Y-87121379D01*
X98848710Y-87110528D01*
X98854605Y-87106808D01*
X98863676Y-87101086D01*
X98863679Y-87101084D01*
X98871267Y-87096296D01*
X98890183Y-87074878D01*
X98902667Y-87062584D01*
X98924376Y-87043996D01*
X98929280Y-87036481D01*
X98929284Y-87036477D01*
X98938956Y-87021656D01*
X98950027Y-87007117D01*
X98967687Y-86987121D01*
X98979831Y-86961256D01*
X98988366Y-86945947D01*
X98999076Y-86929536D01*
X99003983Y-86922017D01*
X99011708Y-86896478D01*
X99018257Y-86879409D01*
X99029590Y-86855272D01*
X99033985Y-86827043D01*
X99037882Y-86809946D01*
X99046155Y-86782598D01*
X99046476Y-86747886D01*
X99046539Y-86746420D01*
X99046809Y-86744686D01*
X99046809Y-86712402D01*
X99046814Y-86711235D01*
X99046901Y-86701840D01*
X99047528Y-86690408D01*
X99049622Y-86669576D01*
X99150893Y-85661891D01*
X99157942Y-85631171D01*
X99170533Y-85596784D01*
X99485973Y-84735249D01*
X99499993Y-84707876D01*
X99573696Y-84599140D01*
X100029097Y-83927277D01*
X100049075Y-83904347D01*
X100749843Y-83273296D01*
X100775035Y-83255662D01*
X101617577Y-82807998D01*
X101647043Y-82796806D01*
X102605271Y-82564774D01*
X102636774Y-82561249D01*
X103622587Y-82575718D01*
X103653798Y-82580119D01*
X104574448Y-82830454D01*
X104602920Y-82842085D01*
X104620652Y-82852008D01*
X105349721Y-83260007D01*
X105425853Y-83302612D01*
X105450411Y-83320564D01*
X106138983Y-83964889D01*
X106158708Y-83988487D01*
X106676669Y-84789723D01*
X106690336Y-84818125D01*
X107007583Y-85765717D01*
X107023452Y-85813118D01*
X107025348Y-85819309D01*
X107040721Y-85874504D01*
X107045462Y-85882131D01*
X107045462Y-85882132D01*
X107063945Y-85911869D01*
X107069531Y-85921838D01*
X107089278Y-85961169D01*
X107095396Y-85967739D01*
X107095397Y-85967740D01*
X107096904Y-85969358D01*
X107111709Y-85988714D01*
X107112311Y-85989682D01*
X107117613Y-85998212D01*
X107124303Y-86004201D01*
X107150387Y-86027553D01*
X107158553Y-86035560D01*
X107188543Y-86067765D01*
X107196259Y-86072353D01*
X107196262Y-86072356D01*
X107198164Y-86073487D01*
X107217796Y-86087901D01*
X107226135Y-86095367D01*
X107234238Y-86099238D01*
X107234239Y-86099239D01*
X107265838Y-86114336D01*
X107275911Y-86119723D01*
X107313735Y-86142216D01*
X107324576Y-86145008D01*
X107347463Y-86153333D01*
X107357563Y-86158158D01*
X107366418Y-86159598D01*
X107366421Y-86159599D01*
X107400975Y-86165218D01*
X107412169Y-86167564D01*
X107454791Y-86178539D01*
X107463762Y-86178247D01*
X107463767Y-86178248D01*
X107465974Y-86178176D01*
X107490301Y-86179744D01*
X107501332Y-86181538D01*
X107510234Y-86180435D01*
X107510237Y-86180435D01*
X107534297Y-86177453D01*
X107544994Y-86176128D01*
X107556393Y-86175238D01*
X107600372Y-86173810D01*
X107608901Y-86171012D01*
X107608903Y-86171012D01*
X107658743Y-86154664D01*
X107663466Y-86153217D01*
X108025000Y-86050141D01*
X108033336Y-86048068D01*
X108043701Y-86045864D01*
X108083982Y-86037297D01*
X108102074Y-86027553D01*
X108127404Y-86013910D01*
X108135777Y-86009793D01*
X108172616Y-85993343D01*
X108172617Y-85993342D01*
X108180814Y-85989682D01*
X108187653Y-85983869D01*
X108187658Y-85983866D01*
X108223334Y-85953542D01*
X108228803Y-85949150D01*
X109139889Y-85258686D01*
X109141904Y-85257191D01*
X109227544Y-85195011D01*
X110081302Y-84575132D01*
X110083312Y-84573704D01*
X110891604Y-84011561D01*
X111041038Y-83907634D01*
X111043137Y-83906205D01*
X112018983Y-83256310D01*
X112021093Y-83254935D01*
X113014647Y-82621542D01*
X113016767Y-82620220D01*
X114027776Y-82003551D01*
X114029906Y-82002280D01*
X115058021Y-81402621D01*
X115060161Y-81401401D01*
X115746807Y-81018695D01*
X116105038Y-80819033D01*
X116107166Y-80817874D01*
X116111562Y-80815535D01*
X116635122Y-80536908D01*
X117168450Y-80253083D01*
X117170607Y-80251962D01*
X118247922Y-79705042D01*
X118250086Y-79703969D01*
X119018566Y-79332191D01*
X119343252Y-79175114D01*
X119345370Y-79174114D01*
X120453982Y-78663636D01*
X120456153Y-78662662D01*
X121579746Y-78170894D01*
X121581875Y-78169985D01*
X122720270Y-77697129D01*
X122722463Y-77696243D01*
X123875168Y-77242637D01*
X123877369Y-77241794D01*
X125044239Y-76807634D01*
X125046446Y-76806836D01*
X125959958Y-76486185D01*
X126227024Y-76392442D01*
X126229233Y-76391690D01*
X127423230Y-75997319D01*
X127425449Y-75996609D01*
X128632526Y-75622533D01*
X128634752Y-75621866D01*
X129854391Y-75268411D01*
X129856622Y-75267786D01*
X131088842Y-74935119D01*
X131091079Y-74934537D01*
X132070284Y-74689357D01*
X132335351Y-74622988D01*
X132337558Y-74622457D01*
X133593467Y-74332315D01*
X133595672Y-74331827D01*
X133970785Y-74252356D01*
X134863003Y-74063334D01*
X134865255Y-74062878D01*
X136143672Y-73816305D01*
X136145929Y-73815891D01*
X137435032Y-73591523D01*
X137437293Y-73591151D01*
X138736672Y-73389270D01*
X138738937Y-73388939D01*
X140048477Y-73209779D01*
X140050746Y-73209489D01*
X140318010Y-73177855D01*
X141369933Y-73053348D01*
X141372183Y-73053102D01*
X142036086Y-72986710D01*
X142700825Y-72920234D01*
X142703100Y-72920028D01*
X144040685Y-72810719D01*
X144042963Y-72810553D01*
X144884876Y-72757092D01*
X145389296Y-72725062D01*
X145391532Y-72724940D01*
X146290643Y-72684190D01*
X146746228Y-72663541D01*
X146748510Y-72663459D01*
X148111167Y-72626422D01*
X148113449Y-72626380D01*
X149471696Y-72614084D01*
X149478299Y-72614197D01*
G37*
%TD.AperFunction*%
%TA.AperFunction,Conductor*%
G36*
X194522683Y-106678951D02*
G01*
X194569176Y-106732607D01*
X194580562Y-106784949D01*
X194580562Y-106921583D01*
X194587317Y-106983765D01*
X194638447Y-107120154D01*
X194725801Y-107236710D01*
X194842357Y-107324064D01*
X194850766Y-107327216D01*
X194850767Y-107327217D01*
X194960022Y-107368175D01*
X195016787Y-107410816D01*
X195041487Y-107477378D01*
X195026280Y-107546727D01*
X195006887Y-107573208D01*
X194883652Y-107702166D01*
X194877166Y-107710176D01*
X194757160Y-107886098D01*
X194752062Y-107895072D01*
X194662400Y-108088232D01*
X194658837Y-108097919D01*
X194603451Y-108297632D01*
X194604974Y-108306056D01*
X194617354Y-108309449D01*
X196067062Y-108309449D01*
X196135183Y-108329451D01*
X196181676Y-108383107D01*
X196193062Y-108435449D01*
X196193062Y-109898526D01*
X196173060Y-109966647D01*
X196156157Y-109987621D01*
X194329672Y-111814106D01*
X194267360Y-111848132D01*
X194240577Y-111851011D01*
X183991911Y-111851011D01*
X183923790Y-111831009D01*
X183877297Y-111777353D01*
X183867193Y-111707079D01*
X183896687Y-111642499D01*
X183902816Y-111635916D01*
X186707317Y-108831415D01*
X194607319Y-108831415D01*
X194637627Y-108965895D01*
X194640707Y-108975724D01*
X194720832Y-109173052D01*
X194725475Y-109182243D01*
X194836756Y-109363837D01*
X194842839Y-109372148D01*
X194982275Y-109533116D01*
X194989642Y-109540332D01*
X195153496Y-109676365D01*
X195161943Y-109682280D01*
X195345818Y-109789728D01*
X195355104Y-109794178D01*
X195554063Y-109870152D01*
X195563961Y-109873028D01*
X195667312Y-109894055D01*
X195681361Y-109892859D01*
X195685062Y-109882514D01*
X195685062Y-108835564D01*
X195680587Y-108820325D01*
X195679197Y-108819120D01*
X195671514Y-108817449D01*
X194622287Y-108817449D01*
X194608756Y-108821422D01*
X194607319Y-108831415D01*
X186707317Y-108831415D01*
X188842878Y-106695854D01*
X188905190Y-106661828D01*
X188931973Y-106658949D01*
X194454562Y-106658949D01*
X194522683Y-106678951D01*
G37*
%TD.AperFunction*%
%TD*%
M02*
