%TF.GenerationSoftware,KiCad,Pcbnew,(6.0.4-0)*%
%TF.CreationDate,2022-04-25T17:13:00-04:00*%
%TF.ProjectId,sky_base,736b795f-6261-4736-952e-6b696361645f,rev?*%
%TF.SameCoordinates,Original*%
%TF.FileFunction,Legend,Top*%
%TF.FilePolarity,Positive*%
%FSLAX46Y46*%
G04 Gerber Fmt 4.6, Leading zero omitted, Abs format (unit mm)*
G04 Created by KiCad (PCBNEW (6.0.4-0)) date 2022-04-25 17:13:00*
%MOMM*%
%LPD*%
G01*
G04 APERTURE LIST*
G04 APERTURE END LIST*
%TO.C,svg2mod*%
G36*
X162210715Y-87081685D02*
G01*
X162848360Y-87701470D01*
X163187030Y-87664470D01*
X164004590Y-88005780D01*
X164449090Y-87939680D01*
X165282530Y-88265120D01*
X165943990Y-88638180D01*
X165679400Y-88931870D01*
X165753500Y-88931870D01*
X166614386Y-89012102D01*
X166973131Y-89209625D01*
X166613083Y-89407337D01*
X165742930Y-89490020D01*
X164748100Y-89373600D01*
X164438540Y-89394800D01*
X163867040Y-89312800D01*
X163089160Y-89490070D01*
X162165770Y-89130230D01*
X161800640Y-89206930D01*
X161059810Y-89408020D01*
X160575620Y-89333920D01*
X159493470Y-89191060D01*
X159141580Y-89238660D01*
X158636220Y-89130180D01*
X157946985Y-89238668D01*
X157257750Y-89130180D01*
X156929660Y-89164580D01*
X156530140Y-89111680D01*
X155934830Y-89164580D01*
X154940000Y-88900000D01*
X155934830Y-88635410D01*
X156090930Y-88635410D01*
X156929660Y-88257060D01*
X156977260Y-88257060D01*
X158077920Y-87931620D01*
X158464220Y-87958120D01*
X159022490Y-87846990D01*
X159586383Y-87128649D01*
X160946010Y-86830990D01*
X162210715Y-87081685D01*
G37*
G36*
X166973230Y-89209680D02*
G01*
X166973131Y-89209625D01*
X166973250Y-89209560D01*
X166973230Y-89209680D01*
G37*
G36*
X108908949Y-84161015D02*
G01*
X109612935Y-84420202D01*
X110256962Y-84804915D01*
X110818883Y-85301927D01*
X111279375Y-85894145D01*
X111622603Y-86561205D01*
X111836764Y-87280170D01*
X112584252Y-87102135D01*
X113336648Y-87258131D01*
X113951739Y-87718672D01*
X114313264Y-88396710D01*
X114756741Y-88183150D01*
X115241951Y-88100380D01*
X116344687Y-88418915D01*
X117038472Y-89333330D01*
X117871761Y-89617546D01*
X118399793Y-90322054D01*
X118438759Y-91201617D01*
X117975097Y-91950060D01*
X118131201Y-91950060D01*
X119443338Y-92053648D01*
X120387411Y-92418869D01*
X120761150Y-92968696D01*
X120428665Y-93542043D01*
X119514089Y-93976647D01*
X118213222Y-94177830D01*
X117130426Y-94118717D01*
X116096555Y-93791530D01*
X115152900Y-93895236D01*
X114244472Y-93619560D01*
X113524482Y-94179324D01*
X112635805Y-94384200D01*
X111682913Y-94224942D01*
X110972850Y-93738218D01*
X110640847Y-93021600D01*
X109873555Y-93365560D01*
X109855035Y-93365560D01*
X109192692Y-93983550D01*
X108320451Y-94228100D01*
X107788219Y-94169293D01*
X107293868Y-93963510D01*
X106029894Y-94260198D01*
X104994639Y-93476680D01*
X104058860Y-93690478D01*
X103182243Y-93299410D01*
X102616365Y-93634439D01*
X101750847Y-93788890D01*
X100878384Y-93699588D01*
X100287701Y-93407890D01*
X99951645Y-93523049D01*
X99599785Y-93571930D01*
X99164461Y-93534406D01*
X98750472Y-93394660D01*
X98141622Y-93581344D01*
X97509576Y-93659240D01*
X96446931Y-93555157D01*
X95684735Y-93207680D01*
X95392910Y-92690870D01*
X95668175Y-92153081D01*
X96399110Y-91750523D01*
X97443431Y-91569040D01*
X97768868Y-91569040D01*
X98333643Y-90466096D01*
X99480722Y-89997410D01*
X99583910Y-89997410D01*
X100045167Y-89308808D01*
X100832743Y-88820702D01*
X101846097Y-88613640D01*
X102257655Y-88624746D01*
X102663660Y-88693040D01*
X103216194Y-88382279D01*
X103825181Y-88206210D01*
X103825181Y-88177110D01*
X103875049Y-87428586D01*
X104062266Y-86702139D01*
X104380395Y-86022750D01*
X104818495Y-85413781D01*
X105361502Y-84896173D01*
X105990743Y-84487724D01*
X106684581Y-84202480D01*
X107419157Y-84050250D01*
X108169210Y-84036268D01*
X108908949Y-84161015D01*
G37*
G36*
X120761159Y-92968710D02*
G01*
X120761150Y-92968696D01*
X120761159Y-92968680D01*
X120761159Y-92968710D01*
G37*
G36*
X174949853Y-79101075D02*
G01*
X176164701Y-79471534D01*
X177050144Y-80028028D01*
X177507460Y-80720700D01*
X178219190Y-80644000D01*
X179324155Y-80840119D01*
X179938980Y-81331910D01*
X180878250Y-81199620D01*
X181979249Y-81380859D01*
X182629790Y-81855790D01*
X183617350Y-82092938D01*
X184021500Y-82609850D01*
X183468520Y-83199870D01*
X183624630Y-83199870D01*
X184925594Y-83283957D01*
X185853203Y-83487977D01*
X186206901Y-83771323D01*
X185852879Y-84056848D01*
X184923211Y-84260085D01*
X183616660Y-84337500D01*
X182559650Y-84290440D01*
X181518510Y-84102020D01*
X180870290Y-84147020D01*
X179663790Y-83980340D01*
X178869138Y-84263818D01*
X178028660Y-84337520D01*
X176697475Y-84126518D01*
X176086620Y-83609920D01*
X175314040Y-83766020D01*
X175295540Y-83766020D01*
X174543681Y-84084808D01*
X173731860Y-84173480D01*
X172713210Y-84025320D01*
X171813630Y-84173480D01*
X171082998Y-84083783D01*
X170435150Y-83734270D01*
X169506643Y-83817295D01*
X168638630Y-83609920D01*
X167677889Y-83806267D01*
X166702181Y-83806267D01*
X165741440Y-83609920D01*
X165048230Y-83678720D01*
X164206860Y-83572890D01*
X162955380Y-83678720D01*
X161475364Y-83523280D01*
X160862520Y-83149560D01*
X161475364Y-82775835D01*
X162955380Y-82620390D01*
X163280820Y-82620390D01*
X163878775Y-82075345D01*
X165048230Y-81855740D01*
X165151420Y-81855740D01*
X166009994Y-81385779D01*
X167463880Y-81199580D01*
X168276150Y-81255180D01*
X169456190Y-81030280D01*
X169456190Y-81014380D01*
X169662565Y-80367570D01*
X170237242Y-79805469D01*
X171113543Y-79361986D01*
X172224794Y-79071031D01*
X173504320Y-78966510D01*
X174949853Y-79101075D01*
G37*
G36*
X186206960Y-83771370D02*
G01*
X186206901Y-83771323D01*
X186206930Y-83771300D01*
X186206960Y-83771370D01*
G37*
%TD*%
M02*
