%TF.GenerationSoftware,KiCad,Pcbnew,(6.0.4-0)*%
%TF.CreationDate,2022-05-11T16:30:09-04:00*%
%TF.ProjectId,sky_base,736b795f-6261-4736-952e-6b696361645f,v02*%
%TF.SameCoordinates,Original*%
%TF.FileFunction,Legend,Top*%
%TF.FilePolarity,Positive*%
%FSLAX46Y46*%
G04 Gerber Fmt 4.6, Leading zero omitted, Abs format (unit mm)*
G04 Created by KiCad (PCBNEW (6.0.4-0)) date 2022-05-11 16:30:09*
%MOMM*%
%LPD*%
G01*
G04 APERTURE LIST*
G04 APERTURE END LIST*
%TO.C,svg2mod*%
G36*
X156369219Y-84839350D02*
G01*
X157121135Y-85186281D01*
X157498352Y-85684012D01*
X157877662Y-85642612D01*
X158793332Y-86024872D01*
X159291172Y-85950872D01*
X160224622Y-86315362D01*
X160965462Y-86733192D01*
X160669122Y-87062122D01*
X160752122Y-87062122D01*
X161716317Y-87152121D01*
X162118077Y-87373192D01*
X161714855Y-87594608D01*
X160740282Y-87687212D01*
X159626072Y-87556822D01*
X159279362Y-87580522D01*
X158639282Y-87488722D01*
X157768062Y-87687272D01*
X156733862Y-87284252D01*
X156324922Y-87370152D01*
X155495192Y-87595372D01*
X154952892Y-87512372D01*
X153740892Y-87352372D01*
X153346772Y-87405672D01*
X152780772Y-87284172D01*
X152008823Y-87405680D01*
X151236882Y-87284172D01*
X150869422Y-87322672D01*
X150421962Y-87263372D01*
X149755212Y-87322672D01*
X148641002Y-87026342D01*
X149755212Y-86730002D01*
X149930042Y-86730002D01*
X150869422Y-86306252D01*
X150922722Y-86306252D01*
X151380182Y-86045098D01*
X152155462Y-85941752D01*
X152588122Y-85971452D01*
X153213382Y-85846992D01*
X153507848Y-85272767D01*
X154281056Y-84864484D01*
X155367722Y-84709072D01*
X156369219Y-84839350D01*
G37*
G36*
X162118222Y-87373272D02*
G01*
X162118077Y-87373192D01*
X162118242Y-87373102D01*
X162118222Y-87373272D01*
G37*
G36*
X177890728Y-76453900D02*
G01*
X179051855Y-76727783D01*
X180005170Y-77149311D01*
X180694063Y-77689894D01*
X181061922Y-78320942D01*
X181859052Y-78235042D01*
X183096614Y-78454695D01*
X183785222Y-79005502D01*
X184837202Y-78857332D01*
X186070321Y-79060320D01*
X186798922Y-79592242D01*
X187904993Y-79857857D01*
X188357642Y-80436792D01*
X187738302Y-81097612D01*
X187913152Y-81097612D01*
X189370229Y-81191803D01*
X190409152Y-81420301D01*
X190805232Y-81737588D01*
X190408765Y-82057350D01*
X189367539Y-82284977D01*
X187904202Y-82371682D01*
X186720350Y-82318952D01*
X185554272Y-82107942D01*
X184828262Y-82158342D01*
X184145640Y-82115770D01*
X183476982Y-81971662D01*
X182586973Y-82289155D01*
X181645642Y-82371702D01*
X180154713Y-82135378D01*
X179470552Y-81556792D01*
X178605262Y-81731622D01*
X178584562Y-81731622D01*
X177742483Y-82088667D01*
X176833242Y-82187982D01*
X175692362Y-82022042D01*
X174684832Y-82187982D01*
X173866521Y-82087503D01*
X173140932Y-81696062D01*
X172101004Y-81789053D01*
X171128832Y-81556792D01*
X170052799Y-81776699D01*
X168960005Y-81776699D01*
X167883972Y-81556792D01*
X167107582Y-81633892D01*
X166165242Y-81515362D01*
X165467128Y-81606693D01*
X164763592Y-81633892D01*
X163580339Y-81552675D01*
X162739515Y-81339756D01*
X162419582Y-81041232D01*
X162739515Y-80742701D01*
X163580339Y-80529779D01*
X164763592Y-80448562D01*
X165128082Y-80448562D01*
X165797788Y-79838111D01*
X167107582Y-79592152D01*
X167223152Y-79592152D01*
X167771481Y-79213289D01*
X168672116Y-78953615D01*
X169813112Y-78857252D01*
X170722852Y-78919552D01*
X171375384Y-78750137D01*
X172044492Y-78667662D01*
X172044492Y-78649862D01*
X172275633Y-77925436D01*
X172919271Y-77295884D01*
X173900729Y-76799185D01*
X175145332Y-76473315D01*
X176578402Y-76356252D01*
X177890728Y-76453900D01*
G37*
G36*
X190805362Y-81737692D02*
G01*
X190805232Y-81737588D01*
X190805302Y-81737532D01*
X190805362Y-81737692D01*
G37*
G36*
X104232102Y-82174452D02*
G01*
X105020567Y-82464740D01*
X105741877Y-82895619D01*
X106371229Y-83452271D01*
X106886980Y-84115555D01*
X107271396Y-84862662D01*
X107511258Y-85667902D01*
X108348446Y-85468504D01*
X109191130Y-85643221D01*
X109880032Y-86159028D01*
X110284938Y-86918432D01*
X110781632Y-86679245D01*
X111325068Y-86586542D01*
X112560132Y-86943299D01*
X113337171Y-87967442D01*
X114270457Y-88285763D01*
X114861853Y-89074814D01*
X114905495Y-90059926D01*
X114386191Y-90898182D01*
X114561028Y-90898182D01*
X116030622Y-91014222D01*
X117087983Y-91423259D01*
X117506581Y-92039072D01*
X117506579Y-92039082D01*
X117134187Y-92681246D01*
X116109861Y-93167998D01*
X114652889Y-93393322D01*
X113440158Y-93327118D01*
X112282222Y-92960672D01*
X111225328Y-93076821D01*
X110207889Y-92768062D01*
X109401501Y-93395000D01*
X108406182Y-93624462D01*
X107338944Y-93446075D01*
X106543673Y-92900952D01*
X106171829Y-92098352D01*
X105312462Y-92483582D01*
X105291722Y-92483582D01*
X104549899Y-93175734D01*
X103572988Y-93449632D01*
X102976888Y-93383768D01*
X102423215Y-93153292D01*
X101752474Y-93477427D01*
X101007564Y-93485583D01*
X100329886Y-93176213D01*
X99848078Y-92608042D01*
X98800005Y-92847492D01*
X97818195Y-92409492D01*
X97184412Y-92784725D01*
X96215031Y-92957712D01*
X95237872Y-92857711D01*
X94576308Y-92530992D01*
X94199926Y-92659973D01*
X93805842Y-92714722D01*
X93318278Y-92672691D01*
X92854611Y-92516172D01*
X92172699Y-92725258D01*
X91464808Y-92812502D01*
X90274646Y-92695939D01*
X89420986Y-92306761D01*
X89094142Y-91727932D01*
X89402438Y-91125606D01*
X90221086Y-90674742D01*
X91390726Y-90471482D01*
X91755215Y-90471482D01*
X91960744Y-89797124D01*
X92387761Y-89236182D01*
X92983066Y-88858541D01*
X93672491Y-88711252D01*
X93788062Y-88711252D01*
X94304670Y-87940018D01*
X95186755Y-87393339D01*
X96321711Y-87161432D01*
X96782656Y-87173857D01*
X97237382Y-87250332D01*
X97856220Y-86902279D01*
X98538286Y-86705082D01*
X98538286Y-86672482D01*
X98594138Y-85834135D01*
X98803821Y-85020515D01*
X99160124Y-84259599D01*
X99650796Y-83577553D01*
X100258963Y-82997832D01*
X100963713Y-82540368D01*
X101740811Y-82220895D01*
X102563535Y-82050396D01*
X103403595Y-82034736D01*
X104232102Y-82174452D01*
G37*
%TD*%
M02*
