%TF.GenerationSoftware,KiCad,Pcbnew,(6.0.4-0)*%
%TF.CreationDate,2022-05-11T16:30:09-04:00*%
%TF.ProjectId,sky_base,736b795f-6261-4736-952e-6b696361645f,v02*%
%TF.SameCoordinates,Original*%
%TF.FileFunction,Profile,NP*%
%FSLAX46Y46*%
G04 Gerber Fmt 4.6, Leading zero omitted, Abs format (unit mm)*
G04 Created by KiCad (PCBNEW (6.0.4-0)) date 2022-05-11 16:30:09*
%MOMM*%
%LPD*%
G01*
G04 APERTURE LIST*
%TA.AperFunction,Profile*%
%ADD10C,0.000010*%
%TD*%
G04 APERTURE END LIST*
%TO.C,svg2mod*%
D10*
X149485062Y-72105472D02*
X150833706Y-72117449D01*
X152174948Y-72153205D01*
X153508483Y-72212476D01*
X154834006Y-72294995D01*
X156151215Y-72400500D01*
X157459804Y-72528726D01*
X158759470Y-72679408D01*
X160049907Y-72852282D01*
X161330813Y-73047083D01*
X162601882Y-73263547D01*
X163862810Y-73501409D01*
X165113294Y-73760406D01*
X166353029Y-74040271D01*
X167581710Y-74340742D01*
X168799034Y-74661554D01*
X170004696Y-75002441D01*
X171198392Y-75363140D01*
X172379818Y-75743386D01*
X173548669Y-76142915D01*
X174704642Y-76561462D01*
X175605225Y-76409671D01*
X176578722Y-76356572D01*
X177891015Y-76454186D01*
X179052062Y-76727990D01*
X180005283Y-77149424D01*
X180694096Y-77689928D01*
X181061922Y-78320942D01*
X181859472Y-78235242D01*
X183097035Y-78454839D01*
X183785642Y-79005592D01*
X184837282Y-78857422D01*
X186070558Y-79060479D01*
X186799332Y-79592472D01*
X187905360Y-79858019D01*
X188357972Y-80436902D01*
X187738682Y-81097872D01*
X187913472Y-81097872D01*
X189369922Y-81191963D01*
X190408782Y-81420268D01*
X190805612Y-81737412D01*
X190805612Y-81738012D01*
X190408332Y-82057609D01*
X189367359Y-82285108D01*
X187904792Y-82371772D01*
X187107311Y-82351939D01*
X186314892Y-82260062D01*
X187403431Y-82961185D01*
X188470896Y-83687719D01*
X189516851Y-84439000D01*
X190540860Y-85214366D01*
X191542488Y-86013156D01*
X192521299Y-86834706D01*
X193476856Y-87678355D01*
X194408724Y-88543440D01*
X195316467Y-89429299D01*
X196199649Y-90335269D01*
X197057834Y-91260688D01*
X197890587Y-92204894D01*
X198697472Y-93167225D01*
X199478053Y-94147018D01*
X200231893Y-95143611D01*
X200958558Y-96156341D01*
X201657611Y-97184547D01*
X202328616Y-98227565D01*
X202971138Y-99284735D01*
X203584741Y-100355392D01*
X204168989Y-101438876D01*
X204723446Y-102534523D01*
X205247676Y-103641672D01*
X205741243Y-104759659D01*
X206203712Y-105887824D01*
X206634647Y-107025503D01*
X207033611Y-108172034D01*
X207400170Y-109326755D01*
X207733887Y-110489003D01*
X208034326Y-111658116D01*
X208301052Y-112833433D01*
X208533628Y-114014289D01*
X208731619Y-115200025D01*
X208894589Y-116389975D01*
X209022102Y-117583480D01*
X209113723Y-118779876D01*
X209169015Y-119978501D01*
X209187542Y-121178692D01*
X89809774Y-121136492D01*
X89786482Y-120430577D01*
X89783164Y-119720222D01*
X89804683Y-118429458D01*
X89868878Y-117147181D01*
X89975204Y-115873825D01*
X90123115Y-114609822D01*
X90312068Y-113355606D01*
X90541518Y-112111609D01*
X90810919Y-110878264D01*
X91119727Y-109656003D01*
X91467398Y-108445261D01*
X91853386Y-107246468D01*
X92277146Y-106060060D01*
X92738135Y-104886467D01*
X93235807Y-103726124D01*
X93769618Y-102579463D01*
X94339022Y-101446916D01*
X94943476Y-100328918D01*
X95582434Y-99225899D01*
X96255351Y-98138295D01*
X96961683Y-97066536D01*
X97700886Y-96011057D01*
X98472413Y-94972289D01*
X99275721Y-93950667D01*
X100110265Y-92946622D01*
X99848078Y-92608042D01*
X98799671Y-92847402D01*
X97817733Y-92408942D01*
X97183928Y-92784393D01*
X96214525Y-92957622D01*
X95237469Y-92857396D01*
X94576009Y-92530482D01*
X93805658Y-92714532D01*
X92854149Y-92516012D01*
X92172318Y-92725093D01*
X91464509Y-92812352D01*
X90274347Y-92695763D01*
X89420687Y-92306565D01*
X89093843Y-91727722D01*
X89402139Y-91125380D01*
X90220787Y-90674478D01*
X91390426Y-90471202D01*
X91755055Y-90471202D01*
X92084881Y-89586650D01*
X92763040Y-88964167D01*
X93672539Y-88711142D01*
X93787715Y-88711142D01*
X94304382Y-87939883D01*
X95186579Y-87393148D01*
X96321596Y-87161182D01*
X97237222Y-87250282D01*
X97856150Y-86902231D01*
X98538309Y-86705072D01*
X98538309Y-86672072D01*
X98652940Y-85531454D01*
X99035296Y-84487158D01*
X99651469Y-83578104D01*
X100467548Y-82843216D01*
X101449625Y-82321415D01*
X102563790Y-82051622D01*
X103710033Y-82068447D01*
X104783163Y-82360243D01*
X105741506Y-82896548D01*
X106543388Y-83646901D01*
X107147136Y-84580840D01*
X107511075Y-85667902D01*
X107906958Y-85555032D01*
X108837918Y-84849507D01*
X109787702Y-84159907D01*
X110755973Y-83486503D01*
X111742394Y-82829566D01*
X112746627Y-82189364D01*
X113768337Y-81566169D01*
X114807185Y-80960250D01*
X115862835Y-80371878D01*
X116934950Y-79801323D01*
X118023193Y-79248854D01*
X119127227Y-78714742D01*
X120246715Y-78199257D01*
X121381319Y-77702669D01*
X122530703Y-77225249D01*
X123694530Y-76767266D01*
X124872463Y-76328990D01*
X126064165Y-75910692D01*
X127269298Y-75512642D01*
X128487526Y-75135110D01*
X129718512Y-74778366D01*
X130961919Y-74442679D01*
X132217410Y-74128321D01*
X133484647Y-73835562D01*
X134763294Y-73564671D01*
X136053014Y-73315918D01*
X137353470Y-73089574D01*
X138664324Y-72885909D01*
X139985240Y-72705193D01*
X141315881Y-72547696D01*
X142655909Y-72413689D01*
X144004988Y-72303440D01*
X145362781Y-72217221D01*
X146728951Y-72155302D01*
X148103160Y-72117952D01*
X149485072Y-72105442D01*
X149485062Y-72105472D01*
%TD*%
M02*
