<?xml version="1.0" encoding="UTF-8" standalone="no"?>
<!-- Created with Inkscape (http://www.inkscape.org/) -->

<svg
   width="38.26722mm"
   height="37.808746mm"
   viewBox="0 0 38.26722 37.808746"
   version="1.1"
   id="svg5"
   inkscape:version="1.2-beta (1b65182c, 2022-04-05)"
   sodipodi:docname="gold_star.svg"
   xmlns:inkscape="http://www.inkscape.org/namespaces/inkscape"
   xmlns:sodipodi="http://sodipodi.sourceforge.net/DTD/sodipodi-0.dtd"
   xmlns="http://www.w3.org/2000/svg"
   xmlns:svg="http://www.w3.org/2000/svg">
  <sodipodi:namedview
     id="namedview7"
     pagecolor="#ffffff"
     bordercolor="#000000"
     borderopacity="0.25"
     inkscape:pageshadow="2"
     inkscape:pageopacity="0.0"
     inkscape:pagecheckerboard="0"
     inkscape:deskcolor="#d1d1d1"
     inkscape:document-units="mm"
     showgrid="false"
     inkscape:zoom="4.4030213"
     inkscape:cx="59.618154"
     inkscape:cy="77.787496"
     inkscape:window-width="1800"
     inkscape:window-height="1011"
     inkscape:window-x="0"
     inkscape:window-y="44"
     inkscape:window-maximized="0"
     inkscape:current-layer="layer1" />
  <defs
     id="defs2">
    <inkscape:path-effect
       effect="fillet_chamfer"
       id="path-effect3197"
       is_visible="true"
       lpeversion="1"
       nodesatellites_param="F,0,0,1,0,5.2916667,0,1 @ F,0,0,1,0,5.2916667,0,1 @ F,0,0,1,0,5.2916667,0,1 @ F,0,0,1,0,5.2916667,0,1 @ F,0,0,1,0,5.2916667,0,1 @ F,0,0,1,0,5.2916667,0,1 @ F,0,0,1,0,5.2916667,0,1 @ F,0,0,1,0,5.2916667,0,1 @ F,0,0,1,0,5.2916667,0,1 @ F,0,0,1,0,5.2916667,0,1"
       unit="px"
       method="auto"
       mode="F"
       radius="20"
       chamfer_steps="1"
       flexible="false"
       use_knot_distance="true"
       apply_no_radius="true"
       apply_with_radius="true"
       only_selected="false"
       hide_knots="false" />
  </defs>
  <g
     inkscape:label="Layer 1"
     inkscape:groupmode="layer"
     id="layer1"
     transform="translate(-135.24321,-36.902043)">
    <path
       sodipodi:type="star"
       style="fill:#ffd700;fill-opacity:1;stroke-width:0.264583"
       id="path61"
       inkscape:flatsided="false"
       sodipodi:sides="5"
       sodipodi:cx="65.235504"
       sodipodi:cy="57.780022"
       sodipodi:r1="71.083672"
       sodipodi:r2="35.541836"
       sodipodi:arg1="0.89687439"
       sodipodi:arg2="1.5251929"
       inkscape:rounded="0"
       inkscape:randomized="0"
       d="M 104.80444,111.07705 71.646979,95.531252 A 10.065348,10.065348 177.38712 0 0 62.289077,95.9583 L 30.685351,114.45948 A 2.6115936,2.6115936 33.387118 0 1 26.774494,111.882 L 31.313205,75.543468 A 10.065348,10.065348 69.387118 0 0 28.015307,66.77554 L 0.65355567,42.435788 A 2.6115936,2.6115936 105.38712 0 1 1.8963575,37.919858 L 37.858895,31.007205 a 10.065348,10.065348 141.38712 0 0 7.319689,-5.845926 L 59.871818,-8.3826903 a 2.6115936,2.6115936 177.38712 0 1 4.678951,-0.2135241 L 82.238128,23.470064 a 10.065348,10.065348 33.387118 0 0 7.821715,5.154948 l 36.442667,3.608439 a 2.6115936,2.6115936 69.387118 0 1 1.64895,4.383964 l -25.03115,26.730703 a 10.065348,10.065348 105.38712 0 0 -2.4856,9.031859 l 7.82957,35.774103 a 2.6115936,2.6115936 141.38712 0 1 -3.65984,2.92297 z"
       inkscape:transform-center-x="-0.018178595"
       inkscape:transform-center-y="-2.045052"
       transform="matrix(0.2957795,0.01472478,-0.01525633,0.30645691,135.92762,39.0343)"
       inkscape:path-effect="#path-effect3197" />
  </g>
</svg>
