<?xml version="1.0" encoding="UTF-8" standalone="no"?>
<svg
   xmlns:dc="http://purl.org/dc/elements/1.1/"
   xmlns:cc="http://creativecommons.org/ns#"
   xmlns:rdf="http://www.w3.org/1999/02/22-rdf-syntax-ns#"
   xmlns:svg="http://www.w3.org/2000/svg"
   xmlns="http://www.w3.org/2000/svg"
   xmlns:sodipodi="http://sodipodi.sourceforge.net/DTD/sodipodi-0.dtd"
   xmlns:inkscape="http://www.inkscape.org/namespaces/inkscape"
   width="210mm"
   height="297mm"
   viewBox="0 0 210 297"
   version="1.1"
   id="svg8"
   inkscape:version="1.1-dev (f9311a1, 2019-12-25)"
   sodipodi:docname="sr-71.svg">
  <defs
     id="defs2">
    <clipPath
       clipPathUnits="userSpaceOnUse"
       id="clipPath51">
      <rect
         style="fill:#0000ff;fill-rule:evenodd;stroke-width:0.264583"
         id="rect53"
         width="130.69479"
         height="107.70962"
         x="53.453903"
         y="90.069832" />
    </clipPath>
  </defs>
  <sodipodi:namedview
     id="base"
     pagecolor="#ffffff"
     bordercolor="#666666"
     borderopacity="1.0"
     inkscape:pageopacity="0.0"
     inkscape:pageshadow="2"
     inkscape:zoom="0.49497475"
     inkscape:cx="165.42631"
     inkscape:cy="592.00745"
     inkscape:document-units="mm"
     inkscape:current-layer="layer5"
     inkscape:document-rotation="0"
     showgrid="false"
     inkscape:window-width="1280"
     inkscape:window-height="698"
     inkscape:window-x="0"
     inkscape:window-y="23"
     inkscape:window-maximized="0" />
  <metadata
     id="metadata5">
    <rdf:RDF>
      <cc:Work
         rdf:about="">
        <dc:format>image/svg+xml</dc:format>
        <dc:type
           rdf:resource="http://purl.org/dc/dcmitype/StillImage" />
        <dc:title />
      </cc:Work>
    </rdf:RDF>
  </metadata>
  <g
     style="display:inline"
     inkscape:label="rightEngine"
     id="layer2"
     inkscape:groupmode="layer" />
  <g
     style="display:inline"
     inkscape:label="leftEngine"
     id="layer3"
     inkscape:groupmode="layer" />
  <g
     style="display:inline"
     inkscape:label="Layer 1"
     inkscape:groupmode="layer"
     id="layer1">
    <path
       style="fill:#000000;stroke-width:0.264583"
       d="m 78.96479,175.81935 c -0.08446,-0.21106 -0.147156,-0.14837 -0.15985,0.15985 -0.01148,0.27892 0.05104,0.43519 0.138964,0.34727 0.08792,-0.0879 0.09732,-0.31612 0.02088,-0.50712 z"
       id="path2925"
       inkscape:connector-curvature="0" />
    <path
       style="fill:#000000;stroke-width:0.264583"
       d="m 80.901342,199.01037 c 1.407033,-0.70695 1.651563,-1.24032 1.340382,-2.92364 -0.155469,-0.84102 -0.282673,-1.57543 -0.282673,-1.63203 0,-0.0566 -0.316418,0.14599 -0.703152,0.4502 -0.386736,0.3042 -1.344125,0.73943 -2.127535,0.96718 -1.107924,0.32208 -1.395368,0.51207 -1.293786,0.85516 0.07183,0.2426 0.212248,0.79828 0.312049,1.23484 0.412348,1.80373 0.889651,1.98537 2.754715,1.04829 z"
       id="path2923"
       inkscape:connector-curvature="0" />
    <path
       style="fill:#000000;stroke-width:0.264583"
       d="m 77.308663,199.97911 c 0.210873,-0.3412 -0.626952,-2.98316 -0.893736,-2.81827 -0.30629,0.18929 -1.864209,2.55514 -1.864209,2.83098 0,0.29401 2.575718,0.28213 2.757945,-0.0127 z"
       id="path2921"
       inkscape:connector-curvature="0" />
    <path
       style="fill:none;fill-opacity:1;stroke:#000000;stroke-width:0.665;stroke-miterlimit:4;stroke-dasharray:none;stroke-opacity:1"
       d="m 49.415302,225.74461 c 0,-0.0965 0.773906,-1.06277 1.719791,-2.14732 1.685385,-1.93246 1.719822,-2.00218 1.721295,-3.48481 8.2e-4,-0.83209 -0.137644,-2.71586 -0.307714,-4.18615 -0.642185,-5.5518 0.604389,-11.30439 3.853538,-17.78301 2.241661,-4.46975 4.538567,-7.8817 7.783105,-11.56146 5.768212,-4.53087 9.30893,-7.72711 14.598734,-11.31628 6.242476,-4.19349 8.085714,-5.54024 8.397748,-6.13578 0.298704,-0.57009 0.145679,-1.13261 -1.419479,-5.21793 -0.964851,-2.51843 -1.92386,-4.77379 -2.131126,-5.01193 -0.330452,-0.37966 -0.513591,-0.39083 -1.487517,-0.0907 -0.610867,0.18826 -1.798127,0.66102 -2.638356,1.05058 -1.339085,0.62086 -1.747393,0.68958 -3.307292,0.5567 -0.978781,-0.0834 -2.770212,-0.22503 -3.980956,-0.31479 l -2.201353,-0.16319 0.214989,-1.09657 c 0.118244,-0.60311 0.172934,-1.63235 0.121533,-2.28719 -0.117086,-1.49167 -0.115192,-2.56372 0.01098,-6.21771 0.08064,-2.33525 0.212273,-3.11957 0.666088,-3.96875 0.717201,-1.34203 2.462794,-3.11076 4.24901,-4.30533 1.024691,-0.68528 1.389062,-1.09372 1.389062,-1.55703 0,-0.34544 -0.730988,-2.08476 -1.624415,-3.86515 -1.524256,-3.03748 -1.645037,-3.41521 -1.958863,-6.12619 -0.183947,-1.58901 -0.273659,-3.04753 -0.199361,-3.24115 0.08561,-0.22309 0.585047,-0.35195 1.363551,-0.35182 1.601121,2.6e-4 2.90775,0.63152 11.52222,5.5665 l 6.979792,3.99851 1.2851,-0.43994 c 0.96937,-0.33185 1.9821,-0.41805 4.12196,-0.35084 l 2.836854,0.0891 5.54374,-4.68985 c 3.98473,-3.37099 5.92137,-4.83336 6.88659,-5.20011 0.73856,-0.28063 1.34285,-0.47045 1.34285,-0.42182 0,0.11336 -7.35369,7.35257 -9.93732,9.78262 -1.08303,1.01864 -1.9691,1.9462 -1.96904,2.06123 6e-5,0.11504 0.25374,0.55222 0.56375,0.97152 0.86888,1.17523 0.61344,3.16578 -0.64632,5.03641 -0.53661,0.79682 -0.97566,1.52771 -0.97566,1.62419 0,0.0965 0.92273,0.37838 2.05052,0.62645 5.02454,1.10524 7.01866,1.94208 14.33854,6.01728 2.59604,1.44529 3.46322,1.8072 4.10104,1.71152 0.44488,-0.0667 1.74708,-0.27942 2.89378,-0.47265 l 2.08492,-0.35131 0.62706,0.72899 c 0.54367,0.63206 0.62706,1.00317 0.62706,2.79073 v 2.06173 l 1.12448,0.4699 c 2.57962,1.07797 4.40384,2.08236 6.12884,3.37446 2.21487,1.65904 7.82793,6.74877 7.82793,7.09811 0,0.47716 0.5352,0.24486 2.11464,-0.91785 0.87282,-0.64254 2.12306,-1.37299 2.7783,-1.62323 1.14548,-0.43747 1.21098,-0.52238 1.70127,-2.20519 3.07189,-10.54367 4.1107,-13.79707 4.68508,-14.67292 0.36663,-0.55906 0.70345,-0.97578 0.74849,-0.92605 0.045,0.0497 -0.67826,3.90043 -1.60732,8.5571 -0.92907,4.65666 -1.68921,8.59554 -1.68921,8.75306 0,0.15752 0.44648,0.57424 0.99219,0.92604 1.60341,1.03369 2.18281,2.50942 2.18281,5.55964 0,2.79265 0.0503,2.8716 1.83557,2.8816 0.35473,0.002 2.25973,0.99656 4.23334,2.21015 1.97361,1.2136 3.81168,2.28716 4.08461,2.38569 0.55541,0.20052 2.81578,1.62917 6.35388,4.01592 3.68023,2.48263 4.13678,3.4918 1.92597,4.2572 -2.75562,0.95402 -7.78744,1.04526 -14.4615,0.26222 -1.38416,-0.1624 -2.75954,-0.2605 -3.05639,-0.21801 -0.29685,0.0425 -0.83263,0.55623 -1.19062,1.14164 -1.61483,2.64061 -6.08154,5.05394 -10.72791,5.7962 -1.0453,0.16699 -2.18375,0.59268 -3.16456,1.18329 -1.84832,1.113 -3.04177,1.37177 -4.51251,0.9784 -0.91031,-0.24347 -1.41388,-0.21035 -2.84782,0.18727 -0.95809,0.26567 -1.80569,0.41932 -1.88356,0.34145 -0.0779,-0.0779 -0.0724,-0.86472 0.0121,-1.74855 0.12558,-1.31288 0.0534,-1.79878 -0.39429,-2.65509 -0.60139,-1.15028 -0.72297,-3.08742 -0.26874,-4.28214 0.40098,-1.05465 0.10414,-1.86703 -0.8784,-2.40398 -0.74256,-0.40581 -1.758,-0.47921 -7.65862,-0.55365 l -6.80255,-0.0858 -0.55461,0.61498 c -0.30503,0.33824 -1.16373,1.44841 -1.90823,2.46706 -3.56335,4.87551 -12.96121,14.64636 -16.872674,17.54233 -7.296725,5.40233 -17.485162,10.24138 -27.913553,13.25766 -3.012758,0.8714 -7.105625,1.61147 -8.912044,1.61147 -2.413609,0 -6.078691,0.49892 -6.698372,0.91184 -0.291042,0.19393 -1.273307,1.03059 -2.182813,1.85924 -0.909505,0.82866 -1.653645,1.42771 -1.653645,1.33124 z"
       id="path57"
       inkscape:connector-curvature="0" />
    <path
       style="fill:#000000;fill-opacity:1;stroke:none;stroke-width:0.264583px;stroke-linecap:butt;stroke-linejoin:miter;stroke-opacity:1"
       d="m 75.22549,197.91012 c 0.307392,-0.59224 1.132823,-0.99145 0.224647,-0.93035 -0.56575,0.0381 -0.86247,0.12814 -0.86247,0.12814 -0.535217,0.0693 -0.794855,0.11624 -1.000429,0.57363 -0.04968,0.11053 -0.02012,0.50615 0.0049,0.82888 -0.0034,0.59727 0.05775,0.93167 0.283249,1.24297 0.725024,-1.03449 0.826989,-1.19317 1.350103,-1.84327 z"
       id="path3007"
       inkscape:connector-curvature="0"
       sodipodi:nodetypes="csssccc" />
    <g
       id="g3101"
       transform="translate(-31.696426,-55.931113)">
      <path
         sodipodi:nodetypes="cccccc"
         inkscape:connector-curvature="0"
         id="path3091"
         d="m 135.86081,132.46596 c 0.39391,-0.51644 0.64811,-1.11643 0.56489,-1.3333 -0.12758,-0.33246 -0.31167,-0.30202 -1.17364,0.19406 -1.01779,0.58577 -1.02045,0.59167 -0.59963,1.33163 0.23248,0.40879 0.43833,0.74401 0.45744,0.74493 0.0191,7.9e-4 0.35703,-0.42087 0.75094,-0.93732 z"
         style="fill:#000000;stroke-width:0.264583" />
      <path
         sodipodi:nodetypes="cccccc"
         inkscape:connector-curvature="0"
         id="path3089"
         d="m 137.90007,134.18323 c 0.14571,-1.52792 -0.3668,-1.87144 -1.36513,-0.91499 l -0.77001,0.73772 0.84573,0.60288 c 0.46514,0.33158 0.92251,0.61307 1.01636,0.62554 0.0939,0.0125 0.21673,-0.46056 0.27305,-1.05115 z"
         style="fill:#000000;stroke-width:0.264583" />
      <path
         sodipodi:nodetypes="ssccs"
         inkscape:connector-curvature="0"
         id="path3087"
         d="m 139.84963,133.86797 c 0.14886,-0.60967 0.0922,-0.7276 -0.34934,-0.7276 -0.54733,0 -0.84303,0.642 -0.84968,1.84473 -0.004,0.65022 -5.3e-4,0.65101 0.50888,0.13229 0.28186,-0.287 0.59243,-0.84924 0.69014,-1.24942 z"
         style="fill:#000000;stroke-width:0.264583" />
      <path
         sodipodi:nodetypes="cssccsc"
         inkscape:connector-curvature="0"
         id="path3085"
         d="m 128.4389,139.06519 c 0.23019,-0.0883 0.41852,-0.45335 0.41852,-0.81115 0,-0.3578 0.12871,-0.89104 0.28602,-1.18498 0.15731,-0.29394 0.22482,-0.59563 0.15002,-0.67043 -0.30769,-0.30768 -2.05213,0.53666 -2.54826,1.2334 -0.80707,1.13344 -0.69998,1.59376 0.37079,1.59376 0.49742,0 1.09273,-0.0723 1.32291,-0.1606 z"
         style="fill:#000000;stroke-width:0.264583" />
      <path
         sodipodi:nodetypes="cscccc"
         inkscape:connector-curvature="0"
         id="path3083"
         d="m 127.79582,140.06254 c -0.32363,-0.10787 -2.1134,0.18737 -2.1134,0.34863 0,0.0567 0.1234,0.42764 0.27421,0.82433 l 0.27422,0.72125 0.92734,-0.89882 c 0.51004,-0.49435 0.79697,-0.94227 0.63763,-0.99539 z"
         style="fill:#000000;stroke-width:0.264583" />
      <path
         sodipodi:nodetypes="cscccc"
         inkscape:connector-curvature="0"
         id="path3081"
         d="m 132.88273,141.96471 c 0.93171,-0.64567 0.99868,-0.77543 0.8535,-1.65364 -0.27271,-1.64966 -0.30841,-1.69523 -0.96693,-1.23399 -0.32452,0.22731 -0.83144,0.41511 -1.12648,0.41734 -1.04087,0.008 -1.23929,0.3505 -1.04614,1.80653 0.21618,1.62968 0.69261,1.76801 2.28605,0.66376 z"
         style="fill:#000000;stroke-width:0.264583" />
      <path
         sodipodi:nodetypes="ccccc"
         inkscape:connector-curvature="0"
         id="path3079"
         d="m 129.50119,141.93781 c -0.10033,-0.69122 -0.22668,-1.30637 -0.28079,-1.367 -0.11348,-0.12715 -1.9229,1.87155 -1.93947,2.14235 -0.0116,0.19038 0.77251,0.38538 1.79114,0.44539 0.58181,0.0343 0.60266,-0.025 0.42912,-1.22074 z"
         style="fill:#000000;stroke-width:0.264583" />
      <path
         sodipodi:nodetypes="ccsccccccccccccccccssccccccsccccccsccccccsccccscccccccscccccscccccscccscccscc"
         inkscape:connector-curvature="0"
         id="path3077"
         d="m 107.30239,160.29916 c -0.44671,-0.32665 -0.47545,-0.64461 -0.32886,-3.63802 0.23777,-4.85508 1.2849,-9.36382 3.10204,-13.35677 1.80735,-3.97143 5.83876,-9.49613 9.11307,-12.48867 2.14821,-1.96334 7.50899,-5.44111 14.61317,-9.48021 3.46152,-1.96805 6.31969,-3.60429 6.35149,-3.63609 0.15755,-0.15756 -1.83632,-7.77048 -2.16752,-8.27596 -0.56275,-0.85887 -1.34297,-1.0046 -2.46319,-0.46007 -1.40698,0.68394 -4.48835,0.81065 -5.60986,0.23069 -0.65151,-0.3369 -1.20383,-0.40868 -2.16431,-0.28127 -0.70927,0.0941 -1.39758,0.10432 -1.52958,0.0227 -0.13554,-0.0838 -0.0765,-0.53969 0.13567,-1.04746 0.21665,-0.51853 0.36147,-1.66871 0.34211,-2.71715 -0.0185,-0.99991 0.10297,-2.07315 0.26986,-2.38499 0.16689,-0.31183 0.3046,-1.25941 0.30602,-2.10572 0.005,-2.7411 1.89307,-5.49758 4.97104,-7.25594 0.60925,-0.34805 1.10864,-0.72049 1.10976,-0.82767 0.001,-0.10717 -0.48022,-1.47639 -1.06965,-3.0427 -0.88349,-2.34774 -1.0995,-3.29938 -1.23008,-5.41904 -0.22134,-3.59324 0.19787,-4.0112 2.69166,-2.68365 1.23477,0.65732 7.48197,4.78667 11.69648,7.7313 1.80252,1.2594 1.94984,1.31366 2.87369,1.05858 1.01387,-0.27994 4.194,-0.20473 4.88369,0.1155 0.26676,0.12386 2.0883,-1.03142 5.55625,-3.52395 4.64698,-3.33995 6.6219,-4.44568 7.44832,-4.17021 0.14589,0.0486 -1.32148,1.39102 -3.26081,2.98309 -1.93933,1.59208 -4.12137,3.50146 -4.84897,4.24307 -0.72761,0.7416 -1.59936,1.53674 -1.93722,1.76696 -0.57481,0.39168 -0.59373,0.48725 -0.29431,1.48663 0.26951,0.89956 0.24792,1.29002 -0.13689,2.47533 -0.25128,0.77401 -0.70712,1.81533 -1.01299,2.31403 -0.30586,0.49871 -0.41583,0.82004 -0.24437,0.71408 0.4014,-0.24808 3.49893,0.86217 6.53619,2.34278 2.37394,1.15724 6.30578,3.67287 8.07688,5.16766 0.84029,0.7092 1.02439,0.76138 1.85034,0.5245 1.57142,-0.45068 3.284,-0.3251 4.07739,0.29899 0.65491,0.51515 0.70874,0.69725 0.64531,2.18281 l -0.0692,1.62078 4.08674,3.51739 c 2.2477,1.93457 4.47825,3.83486 4.95677,4.22286 0.47853,0.388 1.1794,1.39479 1.55749,2.23729 0.37809,0.84251 0.74155,1.53183 0.80769,1.53183 0.0661,0 0.60641,-0.41614 1.20062,-0.92475 0.5942,-0.50862 1.67866,-1.14795 2.40991,-1.42073 l 1.32955,-0.49596 2.52694,-6.33013 c 2.35262,-5.89347 3.29392,-7.76176 3.9106,-7.76176 0.13705,0 -0.15287,1.39898 -0.64426,3.10885 -0.4914,1.70987 -1.40515,4.98137 -2.03055,7.26999 l -1.13711,4.16113 0.61017,0.57322 c 1.01932,0.95761 1.51009,2.91389 1.35493,5.40097 l -0.1358,2.17665 1.18557,0.1625 c 1.28089,0.17556 3.24578,1.44125 9.73213,6.26897 2.37048,1.76432 3.62104,2.88378 4.02337,3.60158 1.55616,2.77637 -0.81101,3.34087 -8.66275,2.06582 -2.25053,-0.36546 -4.69089,-0.79529 -5.42301,-0.95518 l -1.33114,-0.2907 -1.64803,1.61259 c -2.39872,2.34715 -4.40081,3.24338 -8.08596,3.61967 -1.0995,0.11227 -2.24482,0.42429 -2.91042,0.79289 -1.51039,0.83645 -2.77754,1.01835 -4.4643,0.64087 -1.01718,-0.22763 -1.78992,-0.24472 -2.66138,-0.0589 -0.67541,0.14405 -1.28305,0.20689 -1.3503,0.13964 -0.0672,-0.0673 0.0411,-0.66516 0.24081,-1.32869 0.31461,-1.04535 0.30991,-1.30924 -0.0352,-1.97661 -0.52861,-1.02222 -0.52253,-3.11013 0.0121,-4.14391 0.31817,-0.61528 0.35919,-0.96395 0.15769,-1.34045 -0.30923,-0.57781 -0.65932,-0.70963 -2.52185,-0.94954 -0.7276,-0.0937 -2.91987,-0.45769 -4.87171,-0.80882 -1.95184,-0.35113 -3.73778,-0.63612 -3.96875,-0.63331 -0.50356,0.006 -3.83231,3.00455 -10.00525,9.0124 -2.50701,2.43997 -5.24545,4.96127 -6.08541,5.60289 -6.07478,4.6403 -15.67316,8.63874 -24.94284,10.39055 -5.9489,1.12424 -14.44094,1.57706 -15.46961,0.82488 z"
         style="fill:none;stroke:#000000;stroke-width:0.264583;stroke-opacity:1" />
    </g>
  </g>
  <g
     style="display:inline"
     inkscape:label="leftEngine_inner"
     id="layer5"
     inkscape:groupmode="layer">
    <g
       transform="matrix(0.31140104,0,0,0.31140104,65.029979,122.55478)"
       id="g1015">
      <path
         style="display:inline;fill:#000000;fill-opacity:1;stroke:#000000;stroke-width:0.264583;stroke-opacity:1"
         d="m 297.85907,428.72651 c -7.07356,-2.3246 -11.83542,-8.71381 -11.82106,-15.8608 0.0151,-7.46734 4.52202,-13.53938 11.90173,-16.0346 2.19099,-0.74082 7.17007,-0.69577 9.66544,0.0874 4.62531,1.45174 8.72339,5.23927 10.55142,9.75184 1.98279,4.89457 1.37187,10.65454 -1.61557,15.23164 -2.11045,3.23347 -5.36583,5.65095 -9.1703,6.80996 -2.45417,0.74764 -7.25852,0.75498 -9.51166,0.0145 z"
         id="path945"
         inkscape:connector-curvature="0"
         inkscape:transform-center-x="13.898015"
         inkscape:transform-center-y="-19.777945" />
      <path
         style="display:inline;fill:#000000;stroke-width:0.264583"
         d="m 104.83403,429.25414 c -5.125183,-0.69507 -10.273133,-4.45952 -12.468633,-9.11771 -1.50098,-3.18463 -2.03987,-6.27774 -1.61336,-9.26042 0.58518,-4.09232 2.0101,-6.88992 5.05357,-9.92187 2.95358,-2.94241 6.210543,-4.39911 10.443513,-4.67093 5.20628,-0.33433 9.92685,1.59755 13.48157,5.51729 3.12235,3.44297 4.75734,8.61599 4.11393,13.01629 -1.38084,9.44363 -9.63131,15.70934 -19.01059,14.43735 z"
         id="path941"
         inkscape:connector-curvature="0" />
      <path
         style="display:inline;fill:#000000;stroke-width:0.264583"
         d="m 210.95854,418.61523 -4.2929,-4.29948 1.7179,-1.76865 c 0.94485,-0.97275 1.94627,-1.84112 2.22538,-1.9297 0.27912,-0.0886 0.93358,-0.45023 1.45436,-0.80364 l 0.94688,-0.64257 0.59448,0.89687 c 0.32696,0.49328 1.45768,2.08973 2.5127,3.54768 1.74401,2.41005 1.91823,2.76566 1.91823,3.91552 0,2.02674 -1.53628,5.38344 -2.46387,5.38344 -0.17615,0 -2.25207,-1.93476 -4.61316,-4.29947 z"
         id="path955"
         inkscape:connector-curvature="0" />
      <path
         style="display:inline;fill:#000000;stroke-width:0.264583"
         d="m 192.82123,422.05481 c -0.95287,-1.29031 -1.50917,-2.9565 -1.50352,-4.50327 0.005,-1.31138 0.11686,-1.53584 2.14406,-4.29413 1.17646,-1.60073 2.29635,-3.13253 2.48866,-3.40399 0.33624,-0.47466 0.40996,-0.46345 1.92265,0.29245 0.97267,0.48605 2.18716,1.43174 3.18228,2.47796 l 1.60929,1.69192 -4.28392,4.29948 c -2.35617,2.36471 -4.42805,4.29947 -4.6042,4.29947 -0.17615,0 -0.60604,-0.38695 -0.9553,-0.85989 z"
         id="path953"
         inkscape:connector-curvature="0" />
      <path
         style="display:inline;fill:#000000;stroke-width:0.264583"
         d="m 206.04113,423.53207 c -0.29576,-0.29576 -0.20608,-5.64445 0.0946,-5.64445 0.26547,0 5.8144,5.4291 5.8144,5.68883 0,0.20063 -5.70689,0.15776 -5.90903,-0.0444 z"
         id="path951"
         inkscape:connector-curvature="0" />
      <path
         style="display:inline;fill:#000000;stroke-width:0.264583"
         d="m 197.39808,423.60187 c 0,-0.22824 5.58059,-5.71428 5.81277,-5.71428 0.12603,0 0.20916,1.27992 0.18475,2.84427 l -0.0444,2.84427 -2.97656,0.0748 c -1.63711,0.0412 -2.97656,0.0191 -2.97656,-0.0491 z"
         id="path949"
         inkscape:connector-curvature="0" />
      <path
         style="display:inline;fill:#ffffff;fill-opacity:1;stroke:#000000;stroke-width:0.264583;stroke-opacity:1"
         d="m 305.06182,428.44547 c 2.47827,-0.41259 5.68711,-2.01778 7.44749,-3.72557 1.99147,-1.93195 3.05631,-3.65221 3.86379,-6.24211 0.6092,-1.95395 0.66948,-2.4969 0.54385,-4.89962 -0.15465,-2.95744 -0.63899,-4.57127 -2.10161,-7.00238 -1.79171,-2.97807 -5.67283,-5.71007 -9.13204,-6.4282 -2.09817,-0.43558 -6.17236,-0.17978 -7.95256,0.49931 -3.32337,1.26777 -6.35269,3.8842 -7.93556,6.85394 -2.44523,4.58773 -2.10008,10.48848 0.87116,14.89344 1.26188,1.87077 1.72577,2.33593 3.64996,3.65979 3.3088,2.27652 6.78653,3.05049 10.74552,2.3914 z"
         id="path947"
         inkscape:connector-curvature="0" />
      <g
         id="g957"
         style="display:inline;opacity:1;fill:none;stroke:#000000;stroke-opacity:1">
        <path
           style="color:#000000;font-style:normal;font-variant:normal;font-weight:normal;font-stretch:normal;font-size:medium;line-height:normal;font-family:sans-serif;font-variant-ligatures:normal;font-variant-position:normal;font-variant-caps:normal;font-variant-numeric:normal;font-variant-alternates:normal;font-variant-east-asian:normal;font-feature-settings:normal;font-variation-settings:normal;text-indent:0;text-align:start;text-decoration:none;text-decoration-line:none;text-decoration-style:solid;text-decoration-color:#000000;letter-spacing:normal;word-spacing:normal;text-transform:none;writing-mode:lr-tb;direction:ltr;text-orientation:mixed;dominant-baseline:auto;baseline-shift:baseline;text-anchor:start;white-space:normal;shape-padding:0;shape-margin:0;inline-size:0;clip-rule:nonzero;display:inline;overflow:visible;visibility:visible;isolation:auto;mix-blend-mode:normal;color-interpolation:sRGB;color-interpolation-filters:linearRGB;solid-color:#000000;solid-opacity:1;vector-effect:none;fill:none;fill-opacity:1;fill-rule:nonzero;stroke:#000000;stroke-width:0.264583;stroke-linecap:butt;stroke-linejoin:miter;stroke-miterlimit:4;stroke-dasharray:none;stroke-dashoffset:0;stroke-opacity:1;color-rendering:auto;image-rendering:auto;shape-rendering:auto;text-rendering:auto;enable-background:accumulate;stop-color:#000000;stop-opacity:1"
           d="m 205.33557,470.14736 0.1323,-4.22235 1.05833,-0.59658 c 0.90602,-0.51073 8.47975,-3.57704 15.21354,-6.15938 9.2311,-3.54001 21.17322,-8.48301 24.68017,-10.21544 5.72284,-2.82707 10.06114,-6.48279 11.63375,-9.80331 0.77218,-1.63044 0.86002,-2.05922 0.85987,-4.1972 -2.2e-4,-2.98836 -0.63415,-4.46725 -3.07591,-7.17583 -1.74517,-1.93587 -5.24676,-6.77818 -5.45086,-7.53794 -0.0861,-0.3203 0.19602,-0.50445 1.1348,-0.74084 4.13271,-1.04062 11.47638,-2.24268 20.41681,-3.34193 l 3.23506,-0.39776 2.1889,1.09285 c 1.20388,0.60106 3.87204,2.10707 5.92923,3.34668 2.93095,1.76611 3.85895,2.46485 4.28839,3.22894 1.30371,2.31966 4.18555,4.89982 7.07165,6.33137 5.08574,2.52261 10.92618,2.50834 16.25272,-0.0397 1.83915,-0.87979 2.65877,-1.48928 4.49792,-3.34478 2.61908,-2.64238 3.73168,-4.59767 4.61288,-8.10674 l 0.58981,-2.34873 2.28475,-0.45954 c 4.50485,-0.90606 8.38756,-3.08191 8.38756,-4.70034 0,-0.4056 -0.24678,-1.05117 -0.54838,-1.43459 l -0.54837,-0.69705 h 11.09202 11.09199 l 1.07352,-0.77765 c 2.57469,-1.86508 3.90864,-2.41986 6.78101,-2.82017 2.95698,-0.41211 4.70426,-0.89971 4.85608,-1.35516 0.17656,-0.52968 -12.38879,-1.03267 -32.292,-1.29266 l -13.70769,-0.17907 -0.88868,-1.76468 c -2.6203,-5.20323 -7.3297,-10.57229 -12.04717,-13.73468 -5.19628,-3.48334 -11.026,-5.82456 -16.1068,-6.46852 l -2.48301,-0.3147 -3.83418,-11.64166 c -2.10881,-6.40292 -4.98004,-15.08958 -6.38053,-19.3037 l -2.54635,-7.66202 -1.12612,-0.78978 c -1.61621,-1.13348 -1.84182,-0.78438 -1.29826,2.0089 0.58378,2.99987 1.05518,5.18759 2.15556,10.00389 0.51536,2.25557 1.12686,4.93448 1.35895,5.95312 0.23207,1.01865 0.57727,2.50693 0.76708,3.3073 0.18982,0.80036 0.52226,2.22911 0.73875,3.175 0.2165,0.94588 1.11995,4.80439 2.00768,8.57446 0.88773,3.77007 1.61356,7.04429 1.61293,7.27604 0,0.25752 -0.78558,0.8241 -2.0184,1.45703 -5.35776,2.75067 -8.82838,8.90548 -8.82838,15.65637 v 1.9611 l -1.91823,-0.002 c -1.05503,-8e-4 -2.33495,-0.11685 -2.84427,-0.25785 -4.51572,-1.2502 -18.24655,-2.11711 -33.57788,-2.11997 l -10.42683,-0.002 -3.06691,-3.03893 c -3.66141,-3.628 -5.23655,-4.83115 -8.2263,-6.28357 -2.06399,-1.00269 -2.46141,-1.10201 -4.83223,-1.20761 -2.21488,-0.0987 -2.81859,-0.0289 -4.23333,0.48892 -3.75869,1.37581 -5.62193,2.67859 -9.98443,6.98109 l -3.04271,3.00085 -13.62604,0.1355 c -7.49433,0.0745 -15.53105,0.27214 -17.85938,0.43916 -4.4362,0.31823 -10.72627,1.13387 -12.30138,1.59515 -0.50836,0.14888 -1.84781,0.27069 -2.97656,0.27069 h -2.05227 l -0.002,-1.78594 c -0.008,-7.20764 -3.50281,-13.19631 -9.43471,-16.16754 l -1.63149,-0.81719 0.3711,-1.52873 c 0.34088,-1.40417 3.03876,-12.96997 3.96709,-17.00685 0.21752,-0.94589 0.45563,-1.95792 0.52913,-2.24896 0.65228,-2.5828 3.27063,-14.17167 3.97531,-17.59479 0.65289,-3.17157 0.45185,-3.48467 -1.38368,-2.15502 -0.91473,0.66263 -1.14341,1.0607 -1.86198,3.24115 -6.63149,20.12283 -11.05178,33.46005 -11.48144,34.6426 l -0.53235,1.46519 -2.43614,0.29956 c -3.31187,0.40724 -6.56596,1.40802 -10.20924,3.13979 -7.80931,3.71205 -13.821723,9.331 -17.538183,16.39049 l -1.27894,2.42937 -13.16322,0.17445 c -13.67251,0.18119 -28.80898,0.62901 -31.23005,0.92396 -2.71262,0.33048 -1.27861,1.09653 3.22847,1.72466 2.90228,0.40448 4.09388,0.87939 6.48091,2.58296 l 1.43213,1.02208 h 11.08863 11.08863 l -0.54837,0.69715 c -0.72097,0.91656 -0.70169,2.04795 0.0469,2.75453 1.52618,1.44044 5.04336,2.91996 8.20401,3.45104 l 1.97199,0.33135 0.28018,1.50662 c 1.16397,6.2589 5.68583,11.34979 11.886363,13.38212 2.07646,0.6806 2.68955,0.76253 5.63714,0.75331 3.62207,-0.0113 5.22266,-0.36055 8.06979,-1.76074 2.83493,-1.39419 5.73542,-4.02127 7.14414,-6.47069 0.51647,-0.89801 6.09535,-4.43837 10.1459,-6.43857 l 2.17439,-1.07374 3.23237,0.39554 c 10.35973,1.2677 21.62103,3.30146 21.62103,3.90468 0,0.48706 -3.77437,5.74598 -5.49529,7.65672 -1.0352,1.14939 -2.04388,2.61165 -2.50874,3.63689 -0.69506,1.53292 -0.7675,1.94068 -0.68357,3.84785 0.1215,2.76078 1.09715,4.88257 3.38522,7.36204 2.99077,3.24093 7.77787,6.03614 16.41488,9.58468 2.69214,1.10608 5.13292,2.11992 5.42396,2.253 0.51715,0.23645 8.091,3.21675 13.09688,5.1536 6.94702,2.6879 13.20859,5.24266 14.1552,5.77537 l 1.05834,0.59561 0.0688,3.96073 c 0.0378,2.17839 0.12676,4.11834 0.19764,4.31099 0.0709,0.19267 0.33759,0.3103 0.59269,0.26141 0.41219,-0.079 0.47855,-0.55891 0.59611,-4.31118 z"
           id="path959"
           inkscape:connector-curvature="0" />
        <path
           style="color:#000000;font-style:normal;font-variant:normal;font-weight:normal;font-stretch:normal;font-size:medium;line-height:normal;font-family:sans-serif;font-variant-ligatures:normal;font-variant-position:normal;font-variant-caps:normal;font-variant-numeric:normal;font-variant-alternates:normal;font-variant-east-asian:normal;font-feature-settings:normal;font-variation-settings:normal;text-indent:0;text-align:start;text-decoration:none;text-decoration-line:none;text-decoration-style:solid;text-decoration-color:#000000;letter-spacing:normal;word-spacing:normal;text-transform:none;writing-mode:lr-tb;direction:ltr;text-orientation:mixed;dominant-baseline:auto;baseline-shift:baseline;text-anchor:start;white-space:normal;shape-padding:0;shape-margin:0;inline-size:0;clip-rule:nonzero;display:inline;overflow:visible;visibility:visible;isolation:auto;mix-blend-mode:normal;color-interpolation:sRGB;color-interpolation-filters:linearRGB;solid-color:#000000;solid-opacity:1;vector-effect:none;fill:none;fill-opacity:1;fill-rule:nonzero;stroke:#000000;stroke-width:0.264583;stroke-linecap:butt;stroke-linejoin:miter;stroke-miterlimit:4;stroke-dasharray:none;stroke-dashoffset:0;stroke-opacity:1;color-rendering:auto;image-rendering:auto;shape-rendering:auto;text-rendering:auto;enable-background:accumulate;stop-color:#000000;stop-opacity:1"
           d="m 137.00977,339.7207 c -0.12366,-0.0126 -0.25189,0.0176 -0.39649,0.0762 -0.2892,0.11716 -0.64952,0.35101 -1.11133,0.68554 -0.46331,0.33563 -0.76999,0.62197 -1.04101,1.09375 -0.27103,0.47178 -0.50735,1.12293 -0.86719,2.21485 -3.31573,10.06136 -6.07873,18.42451 -8.06641,24.42187 -1.98767,5.99736 -3.20402,9.6387 -3.41406,10.2168 l -0.50586,1.38867 -2.35547,0.28906 c -3.32751,0.40916 -6.59698,1.41595 -10.25,3.15235 -7.83228,3.72296 -13.867275,9.36133 -17.597653,16.44726 l -1.242188,2.35938 -13.083984,0.17382 c -6.837052,0.0906 -14.041227,0.24843 -19.837891,0.41993 -5.796663,0.17149 -10.172793,0.35535 -11.408203,0.50586 -0.685634,0.0835 -1.105975,0.17835 -1.333984,0.34375 -0.057,0.0413 -0.105819,0.0909 -0.132813,0.15625 -0.02699,0.0654 -0.02309,0.14581 0.0039,0.20898 0.05399,0.12633 0.166966,0.20506 0.324218,0.28906 0.629009,0.33602 2.106313,0.67347 4.365235,0.98828 2.893162,0.40321 4.04428,0.86232 6.423828,2.56055 l 1.464844,1.04688 h 11.130859 10.816406 l -0.378906,0.48242 c -0.754385,0.95904 -0.738481,2.17745 0.06055,2.93164 1.567078,1.47904 5.087055,2.95125 8.271484,3.48633 l 1.88086,0.3164 0.263672,1.41406 c 1.172872,6.30678 5.730031,11.43761 11.974616,13.48438 2.08079,0.68202 2.72959,0.76899 5.67968,0.75977 3.63046,-0.0113 5.27003,-0.36843 8.12696,-1.77344 2.86192,-1.40747 5.7737,-4.04143 7.20117,-6.52344 0.0483,-0.0839 0.18526,-0.23729 0.39062,-0.41992 0.20537,-0.18264 0.47921,-0.40132 0.80665,-0.64453 0.65487,-0.48643 1.52498,-1.07481 2.50585,-1.69727 1.96175,-1.24492 4.36761,-2.62794 6.38672,-3.625 l 2.13867,-1.05664 3.19336,0.39063 c 5.17714,0.63351 10.5803,1.45942 14.6875,2.20117 2.05361,0.37087 3.7831,0.72144 4.9961,1.01562 0.6065,0.14709 1.08612,0.2796 1.40625,0.39258 0.16006,0.0565 0.28096,0.10913 0.35351,0.15039 0.0282,0.0161 0.0411,0.0275 0.0527,0.0371 -0.003,0.0106 -0.004,0.0259 -0.0234,0.0703 -0.0253,0.0593 -0.0652,0.13966 -0.11719,0.23438 -0.10398,0.18944 -0.25593,0.44022 -0.44531,0.73437 -0.37877,0.58832 -0.90399,1.35031 -1.48242,2.15625 -1.15687,1.6119 -2.53251,3.40335 -3.38477,4.34961 -1.04394,1.1591 -2.0562,2.62417 -2.53125,3.67188 -0.69727,1.53781 -0.77942,1.99686 -0.69531,3.9082 0.12274,2.78888 1.12101,4.95197 3.42188,7.44531 3.01277,3.26478 7.81723,6.0659 16.46093,9.61719 1.34593,0.55298 2.62845,1.08392 3.61133,1.49219 0.98288,0.40826 1.67472,0.69855 1.80859,0.75976 0.14477,0.0662 0.70514,0.29174 1.56641,0.63477 0.86127,0.34303 2.01265,0.79823 3.30469,1.30664 2.58407,1.01683 5.72912,2.24628 8.23242,3.21484 3.47283,1.34369 6.77508,2.65446 9.32617,3.69532 1.27555,0.52043 2.362,0.97223 3.18946,1.32812 0.82745,0.35589 1.40133,0.61937 1.62304,0.74414 l 0.99219,0.5586 0.0664,3.88476 c 0.0189,1.09032 0.052,2.11923 0.0879,2.90235 0.0179,0.39155 0.0356,0.72142 0.0547,0.96679 0.01,0.12269 0.0196,0.22572 0.0293,0.30469 0.01,0.079 0.0154,0.12605 0.0352,0.17969 0.102,0.27719 0.42987,0.40518 0.74023,0.3457 0.12672,-0.0243 0.25975,-0.0996 0.3418,-0.24219 0.0821,-0.14258 0.13143,-0.34181 0.17383,-0.64843 0.0847,-0.61291 0.1307,-1.67012 0.18945,-3.54493 3e-5,-10e-4 -3e-5,-9.2e-4 0,-0.002 l 0.12891,-4.14648 0.99414,-0.56055 c 0.20715,-0.11677 0.85724,-0.40941 1.79882,-0.80859 0.94159,-0.39919 2.18367,-0.90991 3.60743,-1.48633 2.84752,-1.15285 6.42303,-2.56463 9.78906,-3.85547 9.23393,-3.54109 21.16712,-8.47971 24.69141,-10.2207 5.73964,-2.83537 10.09849,-6.49361 11.69531,-9.86524 0.77436,-1.63504 0.87124,-2.1123 0.87109,-4.25391 -2.2e-4,-3.00706 -0.6592,-4.54576 -3.10937,-7.26367 -0.86532,-0.95987 -2.17776,-2.6543 -3.29493,-4.19922 -0.55858,-0.77245 -1.06877,-1.50943 -1.45117,-2.09765 -0.1912,-0.29411 -0.35018,-0.55062 -0.46679,-0.75586 -0.11662,-0.20525 -0.1912,-0.36544 -0.20899,-0.43164 -0.016,-0.0595 -0.0116,-0.0956 0.004,-0.13086 0.0155,-0.0353 0.0502,-0.0781 0.125,-0.12695 0.1496,-0.0977 0.44756,-0.20334 0.91211,-0.32032 4.12011,-1.03745 11.46284,-2.24095 20.40039,-3.33984 l 3.19531,-0.39258 2.15234,1.07617 c 1.19476,0.59651 3.86548,2.10384 5.91993,3.3418 2.92831,1.76452 3.83575,2.45653 4.24218,3.17969 1.32398,2.35572 4.21753,4.94067 7.12891,6.38476 5.12204,2.54062 11.00686,2.52514 16.36719,-0.0391 1.8468,-0.88345 2.69237,-1.51192 4.53515,-3.37109 2.62887,-2.65225 3.76171,-4.64465 4.64649,-8.16797 l 0.57031,-2.26758 2.20313,-0.44336 c 2.26529,-0.45562 4.37264,-1.22752 5.92187,-2.0957 0.77462,-0.43409 1.40989,-0.89234 1.85742,-1.35157 0.44754,-0.45922 0.71485,-0.92335 0.71485,-1.38085 0,-0.45926 -0.2536,-1.10501 -0.57813,-1.51758 l -0.37891,-0.48242 h 10.82032 11.13476 l 1.10742,-0.80274 c 2.56721,-1.85966 3.85934,-2.3981 6.72071,-2.79687 1.48202,-0.20655 2.66276,-0.43097 3.49805,-0.66407 0.41764,-0.11654 0.74811,-0.23483 0.99218,-0.35742 0.24407,-0.12258 0.41482,-0.24251 0.47461,-0.42187 0.0122,-0.0366 0.008,-0.0849 -0.006,-0.11914 -0.0143,-0.0342 -0.0345,-0.0569 -0.0547,-0.0742 -0.0404,-0.0347 -0.0816,-0.053 -0.13281,-0.0723 -0.10245,-0.0386 -0.24295,-0.0703 -0.42969,-0.10351 -0.37346,-0.0664 -0.93001,-0.13034 -1.66406,-0.19336 -1.4681,-0.12605 -3.64458,-0.24711 -6.44922,-0.35938 -5.60927,-0.22454 -13.72733,-0.41492 -23.67968,-0.54492 l -13.62696,-0.17969 -0.85351,-1.6914 c -2.6325,-5.22745 -7.35063,-10.60688 -12.0918,-13.78516 -5.21152,-3.49356 -11.0561,-5.84283 -16.16406,-6.49023 l -2.40039,-0.30469 -3.80664,-11.5625 c -2.10885,-6.40304 -4.98028,-15.08834 -6.38086,-19.30274 l -2.56055,-7.70507 -1.16211,-0.81446 c -0.40785,-0.28603 -0.72908,-0.4825 -0.99414,-0.57422 -0.13253,-0.0458 -0.25394,-0.0667 -0.36914,-0.0469 -0.1152,0.0198 -0.21877,0.0897 -0.2832,0.18945 -0.12888,0.19942 -0.14407,0.48821 -0.11328,0.90625 0.0308,0.41804 0.11954,0.96746 0.25586,1.66797 0.58402,3.00114 1.05575,5.19103 2.15624,10.00781 0.51536,2.25555 1.12731,4.93458 1.35938,5.95313 0.23218,1.01914 0.57758,2.50744 0.76758,3.30859 0.18966,0.79971 0.5219,2.22841 0.73828,3.17383 0.2169,0.94763 1.12006,4.80599 2.00781,8.57617 0.44375,1.88455 0.84651,3.64492 1.13867,4.96289 0.14609,0.65899 0.26412,1.2082 0.34571,1.60547 0.0408,0.19864 0.0726,0.3593 0.0937,0.47656 0.0212,0.11727 0.0312,0.2052 0.0312,0.19922 v 0.002 c 0,-0.003 -0.022,0.0671 -0.10547,0.15625 -0.0834,0.0891 -0.21578,0.20085 -0.38672,0.32421 -0.34187,0.24673 -0.84278,0.54307 -1.45508,0.85743 -5.40844,2.77669 -8.90039,8.97916 -8.90039,15.77539 v 1.82812 l -1.78516,-0.002 c -1.04541,-7.9e-4 -2.3362,-0.12313 -2.80859,-0.25391 -2.28351,-0.6322 -6.8426,-1.15766 -12.75976,-1.53125 -5.91717,-0.37358 -13.18537,-0.59036 -20.85352,-0.59179 l -10.37305,-0.004 -3.02734,-3 c -3.6645,-3.63106 -5.26257,-4.85161 -8.26172,-6.30859 -2.06691,-1.00411 -2.51092,-1.11497 -4.88477,-1.22071 -2.21871,-0.0989 -2.86261,-0.0226 -4.28515,0.49805 -3.77075,1.38022 -5.66485,2.70342 -10.03125,7.00977 l -3.00391,2.96289 -13.57226,0.13671 c -7.49572,0.0745 -15.52657,0.27142 -17.86914,0.43946 -2.2217,0.15937 -4.90416,0.44248 -7.23047,0.74414 -2.32631,0.30166 -4.2847,0.61739 -5.09766,0.85547 -0.46689,0.13673 -1.82022,0.26562 -2.93945,0.26562 h -1.91992 l -0.002,-1.65429 c -0.008,-7.25033 -3.53087,-13.29137 -9.50781,-16.28516 l -1.53711,-0.77149 0.3457,-1.42578 c 0.34242,-1.4105 3.03829,-12.97016 3.9668,-17.00781 0.21741,-0.94543 0.45702,-1.95988 0.5293,-2.24609 0.6547,-2.5924 3.27072,-14.17281 3.97656,-17.60157 0.16358,-0.79462 0.2751,-1.41085 0.32031,-1.875 0.0452,-0.46414 0.0382,-0.77676 -0.0977,-0.98828 -0.0679,-0.10575 -0.18299,-0.17489 -0.30664,-0.1875 z m -0.0254,0.26172 c 0.0562,0.006 0.0782,0.0199 0.10937,0.0684 0.0623,0.097 0.1,0.3753 0.0566,0.82031 -0.0433,0.44502 -0.15354,1.0565 -0.31641,1.84766 -0.70352,3.41749 -3.3228,15.01664 -3.97265,17.58984 -0.0747,0.29587 -0.31363,1.30365 -0.53125,2.25 -0.92815,4.03611 -3.62746,15.60803 -3.9668,17.00586 l -0.39453,1.63086 1.72461,0.86524 c 5.88686,2.94867 9.35337,8.88387 9.36133,16.04883 l 0.002,1.91796 h 2.18555 c 1.13827,0 2.46384,-0.11436 3.01367,-0.27539 0.76215,-0.2232 2.73509,-0.54661 5.05664,-0.84765 2.32155,-0.30104 5.00229,-0.58333 7.2168,-0.74219 2.31409,-0.166 10.35861,-0.36497 17.85156,-0.43945 l 13.67969,-0.13672 3.08007,-3.03711 c 4.3586,-4.29865 6.19088,-5.57978 9.9375,-6.95117 1.40694,-0.51497 1.9706,-0.58095 4.18165,-0.48243 2.36779,0.10547 2.72017,0.19404 4.78125,1.19532 2.98034,1.44785 4.53113,2.63287 8.18945,6.25781 l 3.10547,3.07812 10.48242,0.002 c 7.66318,10e-4 14.92593,0.21866 20.83594,0.59179 5.91001,0.37314 10.47482,0.90544 12.70703,1.52344 0.54625,0.15123 1.81425,0.26091 2.8789,0.26172 l 2.05079,0.004 v -2.09375 c 0,-6.70555 3.44877,-12.81441 8.75586,-15.53907 0.62052,-0.31857 1.12915,-0.62168 1.48828,-0.88086 0.17956,-0.12958 0.32144,-0.24808 0.42382,-0.35742 0.10239,-0.10934 0.17774,-0.20429 0.17774,-0.33593 1.7e-4,-0.0639 -0.0114,-0.12718 -0.0332,-0.24805 -0.0219,-0.12088 -0.0547,-0.28456 -0.0957,-0.48438 -0.0821,-0.39964 -0.20139,-0.94762 -0.34765,-1.60742 -0.29253,-1.31959 -0.6947,-3.08127 -1.13868,-4.9668 -0.8877,-3.76995 -1.79171,-7.63009 -2.00781,-8.57421 -0.2166,-0.94636 -0.5483,-2.37477 -0.73828,-3.17579 -0.18962,-0.79958 -0.53562,-2.28848 -0.76758,-3.30664 -0.23211,-1.01873 -0.84401,-3.69753 -1.35937,-5.95312 -1.10027,-4.81582 -1.57077,-7.0014 -2.1543,-10 -0.13546,-0.69613 -0.22267,-1.23716 -0.25195,-1.63477 -0.0293,-0.3976 0.0107,-0.64881 0.0723,-0.74414 0.0308,-0.0477 0.0555,-0.0637 0.10547,-0.0723 0.05,-0.009 0.13087,-0.002 0.23828,0.0351 0.21482,0.0743 0.52748,0.26031 0.92774,0.54102 l 1.09179,0.76562 2.53125,7.61914 c 1.4004,4.21385 4.27209,12.90189 6.38086,19.30469 l 3.86133,11.72071 2.56445,0.32421 c 5.05365,0.64052 10.86975,2.97415 16.05079,6.44727 4.69377,3.1465 9.39385,8.50654 12.00195,13.68555 l 0.92578,1.83593 13.78711,0.17969 c 9.95085,0.12999 18.06681,0.32055 23.67187,0.54492 2.80254,0.11219 4.97729,0.23401 6.4375,0.35938 0.73011,0.0627 1.28298,0.1259 1.64063,0.18945 0.1614,0.0287 0.27043,0.0566 0.3457,0.082 -0.0435,0.0569 -0.0952,0.12632 -0.26757,0.21289 -0.21865,0.10982 -0.53754,0.2241 -0.94532,0.33789 -0.81556,0.2276 -1.98793,0.45265 -3.46289,0.65821 -2.88337,0.40184 -4.25766,0.97324 -6.83984,2.84375 l -1.03906,0.75195 H 341.27344 329.9082 l 0.7168,0.91211 c 0.27867,0.35427 0.51953,1.00158 0.51953,1.35352 0,0.35171 -0.21742,0.76501 -0.63867,1.19726 -0.42125,0.43225 -1.03771,0.8773 -1.79688,1.30274 -1.51833,0.85086 -3.60614,1.61987 -5.8457,2.07031 l -2.36719,0.47461 -0.60937,2.42969 c -0.87762,3.49481 -1.96883,5.41436 -4.57813,8.04687 -1.83551,1.85183 -2.62944,2.44223 -4.46093,3.31836 -5.29276,2.53188 -11.08728,2.54562 -16.13672,0.041 -2.86082,-1.419 -5.73219,-3.99374 -7.01563,-6.27734 -0.45244,-0.80502 -1.40235,-1.50964 -4.33593,-3.27734 -2.05994,-1.24126 -4.7245,-2.7479 -5.9375,-3.35352 l -2.22461,-1.10937 -3.27539,0.40234 c -8.94332,1.09961 -16.2883,2.30191 -20.4336,3.3457 -0.47423,0.11942 -0.7856,0.22188 -0.99023,0.35547 -0.10232,0.0668 -0.18015,0.14547 -0.22266,0.24219 -0.0425,0.0967 -0.0427,0.20405 -0.0156,0.30469 0.0332,0.12373 0.11165,0.28159 0.23242,0.49414 0.12076,0.21255 0.28352,0.47258 0.47656,0.76953 0.38609,0.59389 0.89851,1.33235 1.45898,2.10742 1.12095,1.55015 2.43265,3.24471 3.3125,4.2207 2.43335,2.69925 3.0408,4.11824 3.04102,7.08789 1.5e-4,2.13436 -0.0777,2.51479 -0.84766,4.14063 -1.5484,3.26941 -5.86622,6.92342 -11.57226,9.74219 -3.48962,1.72386 -15.44165,6.67006 -24.66992,10.20898 -3.36776,1.2915 -6.94368,2.70385 -9.79297,3.85742 -1.42465,0.57679 -2.66759,1.09015 -3.61133,1.49024 -0.94374,0.40009 -1.58031,0.68172 -1.82617,0.82031 l -1.12305,0.63281 -0.13477,4.29688 c -0.0588,1.87553 -0.10472,2.935 -0.18554,3.51953 -0.0404,0.29226 -0.0926,0.4639 -0.14258,0.55078 -0.05,0.0869 -0.0808,0.10002 -0.16016,0.11523 -0.19983,0.0383 -0.40356,-0.0696 -0.44336,-0.17773 0.002,0.005 -0.0126,-0.0486 -0.0215,-0.12109 -0.009,-0.0725 -0.018,-0.17071 -0.0273,-0.29102 -0.0187,-0.24062 -0.0368,-0.56917 -0.0547,-0.95898 -0.0358,-0.77962 -0.0671,-1.80841 -0.0859,-2.89649 l -0.0703,-4.03515 -1.125,-0.63282 c -0.25159,-0.14158 -0.81657,-0.39891 -1.64649,-0.75586 -0.82991,-0.35694 -1.91876,-0.81119 -3.19531,-1.33203 -2.5531,-1.04167 -5.85589,-2.35305 -9.33008,-3.69726 -2.50258,-0.96829 -5.64685,-2.19624 -8.23046,-3.21289 -1.29181,-0.50833 -2.44399,-0.96384 -3.30469,-1.30664 -0.86071,-0.34281 -1.44088,-0.57883 -1.55469,-0.63086 -0.15717,-0.0719 -0.8331,-0.35523 -1.81641,-0.76368 -0.9833,-0.40844 -2.26511,-0.93713 -3.61132,-1.49023 -8.63032,-3.54579 -13.40038,-6.33565 -16.36915,-9.55273 -2.27527,-2.4656 -3.22934,-4.54467 -3.3496,-7.27735 -0.0838,-1.903 -0.021,-2.25907 0.67187,-3.78711 0.45468,-1.00277 1.45987,-2.46383 2.48633,-3.60351 0.86866,-0.96448 2.2418,-2.75603 3.40234,-4.37305 0.58027,-0.80851 1.10558,-1.57354 1.48828,-2.16797 0.19136,-0.29721 0.34789,-0.55115 0.45704,-0.75 0.0546,-0.0994 0.0981,-0.18559 0.1289,-0.25781 0.0308,-0.0722 0.0527,-0.12411 0.0527,-0.19727 0,-0.0703 -0.0372,-0.11933 -0.0723,-0.15429 -0.035,-0.035 -0.0743,-0.0621 -0.12305,-0.0898 -0.0975,-0.0554 -0.22838,-0.11059 -0.39648,-0.16992 -0.3362,-0.11865 -0.82052,-0.25218 -1.43164,-0.40039 -1.22224,-0.29642 -2.95503,-0.64615 -5.01172,-1.01758 -4.11338,-0.74286 -9.52053,-1.56894 -14.70313,-2.20312 l -3.27148,-0.40039 -2.20898,1.09179 c -2.03144,1.00315 -4.44071,2.38887 -6.41016,3.63868 -0.98472,0.6249 -1.86043,1.21456 -2.52344,1.70703 -0.3315,0.24623 -0.60981,0.46948 -0.82422,0.66015 -0.2144,0.19068 -0.3625,0.3438 -0.44336,0.48438 -1.38997,2.41683 -4.27995,5.03705 -7.08789,6.41797 -2.83733,1.39537 -4.39803,1.73677 -8.01172,1.74804 -2.94508,0.009 -3.52358,-0.0689 -5.5957,-0.74804 -6.156487,-2.0179 -10.64376,-7.06827 -11.798827,-13.2793 l -0.296875,-1.59766 -2.0625,-0.34765 c -3.136871,-0.52709 -6.649483,-2.01418 -8.134766,-3.41602 -0.698151,-0.65897 -0.722711,-1.70209 -0.03516,-2.57617 l 0.716797,-0.91211 H 68.078125 57.033203 l -1.398437,-0.99805 c -2.394512,-1.70891 -3.627665,-2.19971 -6.539063,-2.60547 -2.248158,-0.31331 -3.740732,-0.67232 -4.277344,-0.95898 -0.134153,-0.0717 -0.199425,-0.14431 -0.207031,-0.16211 0,0 -0.002,-0.002 -0.002,-0.002 0.0012,-0.003 0.01167,-0.0203 0.04297,-0.043 0.125192,-0.0908 0.542215,-0.21517 1.21289,-0.29688 1.185661,-0.14444 5.587846,-0.33245 11.382813,-0.5039 5.794966,-0.17145 12.996573,-0.32739 19.832031,-0.41797 l 13.242188,-0.17578 1.316406,-2.5 c 3.702542,-7.03305 9.690224,-12.6309 17.476554,-16.33203 3.63355,-1.72714 6.8737,-2.72164 10.16993,-3.12696 l 2.51562,-0.31054 0.56055,-1.54102 c 0.21962,-0.60445 1.42826,-4.22506 3.41601,-10.22265 1.98776,-5.9976 4.75065,-14.36237 8.06641,-24.42383 0.35873,-1.08854 0.59602,-1.72799 0.84766,-2.16602 0.25163,-0.43803 0.51538,-0.68276 0.96679,-1.00976 0.45596,-0.3303 0.81036,-0.55532 1.05469,-0.6543 0.12217,-0.0495 0.21528,-0.0663 0.27149,-0.0606 z"
           id="path961"
           inkscape:connector-curvature="0" />
      </g>
      <path
         style="display:inline;fill:#ffffff;fill-opacity:1;stroke-width:0.264583"
         d="m 109.47112,428.45382 c 5.52573,-0.75174 10.23668,-4.84551 11.83401,-10.28364 0.48263,-1.64311 0.55461,-5.60435 0.13496,-7.42646 -1.07563,-4.67036 -5.58121,-9.17737 -10.43947,-10.44279 -3.51758,-0.91621 -8.30041,-0.21053 -11.233793,1.65748 -7.65777,4.87654 -9.10196,15.4239 -3.01252,22.00123 2.6867,2.90195 5.639743,4.25724 10.335563,4.74348 0.17137,0.0178 1.24293,-0.0944 2.38125,-0.2493 z"
         id="path943"
         inkscape:connector-curvature="0" />
    </g>
  </g>
</svg>
