<?xml version="1.0" encoding="UTF-8" standalone="no"?>
<svg
   sodipodi:docname="sr71_symetricView.svg"
   inkscape:version="1.1.1 (c3084ef, 2021-09-22)"
   id="svg102"
   version="1.1"
   viewBox="0 0 210 297"
   height="297mm"
   width="210mm"
   xmlns:inkscape="http://www.inkscape.org/namespaces/inkscape"
   xmlns:sodipodi="http://sodipodi.sourceforge.net/DTD/sodipodi-0.dtd"
   xmlns="http://www.w3.org/2000/svg"
   xmlns:svg="http://www.w3.org/2000/svg"
   xmlns:rdf="http://www.w3.org/1999/02/22-rdf-syntax-ns#"
   xmlns:cc="http://creativecommons.org/ns#"
   xmlns:dc="http://purl.org/dc/elements/1.1/">
  <sodipodi:namedview
     inkscape:window-maximized="1"
     inkscape:window-y="25"
     inkscape:window-x="0"
     inkscape:window-height="1119"
     inkscape:window-width="1920"
     showgrid="false"
     inkscape:document-rotation="0"
     inkscape:current-layer="layer5"
     inkscape:document-units="mm"
     inkscape:cy="684.69047"
     inkscape:cx="249.90565"
     inkscape:zoom="1.176444"
     inkscape:pageshadow="2"
     inkscape:pageopacity="0.0"
     borderopacity="1.0"
     bordercolor="#666666"
     pagecolor="#ffffff"
     id="base"
     inkscape:measure-start="397.857,638.929"
     inkscape:measure-end="399.404,483.658"
     showguides="true"
     inkscape:pagecheckerboard="0" />
  <defs
     id="defs96" />
  <metadata
     id="metadata99">
    <rdf:RDF>
      <cc:Work
         rdf:about="">
        <dc:format>image/svg+xml</dc:format>
        <dc:type
           rdf:resource="http://purl.org/dc/dcmitype/StillImage" />
        <dc:title />
      </cc:Work>
    </rdf:RDF>
  </metadata>
  <g
     style="display:inline"
     inkscape:label="Edge.Cuts"
     id="layer2"
     inkscape:groupmode="layer">
    <path
       style="display:inline;fill:none;stroke:#000000;stroke-width:0.128481;stroke-miterlimit:4;stroke-dasharray:none;stroke-opacity:1"
       d="m 102.28099,160.82336 -20.607046,-0.0395 -0.963036,-0.17612 -1.560596,-0.35241 -1.456352,-0.46623 -1.348352,-0.57768 -1.236589,-0.68678 -1.121072,-0.79352 -1.001794,-0.89789 -0.878757,-0.99991 -0.751961,-1.09956 -0.558544,-1.04338 -0.391208,-1.00412 -0.243897,-1.02895 -0.116614,-1.11791 0.01431,-1.10667 0.15354,-1.08355 0.28995,-1.05467 0.423534,-1.02 0.554297,-0.97957 0.682235,-0.93337 0.807351,-0.88137 0.929643,-0.82363 1.673893,-1.16416 1.807531,-0.87787 2.360454,-0.72955 1.208961,-0.2344 1.116524,-0.1216 0.393455,-0.0223 0.06595,-0.47281 0.171286,-1.28183 0.272868,-1.42922 0.442992,-1.43812 0.602595,-1.4183 0.751681,-1.36973 1.368527,-1.9101 1.633657,-1.73374 1.874486,-1.54368 2.091017,-1.33995 2.283242,-1.12253 2.451166,-0.89147 2.594797,-0.64668 2.714116,-0.38825 3.07698,-0.0541 3.04511,0.20704 2.16331,0.40499 2.08116,0.57069 1.98561,0.72938 1.87679,0.88107 1.75459,1.02576 1.61909,1.16345 1.47021,1.29413 1.30803,1.41781 1.16397,1.60017 0.90314,1.54559 0.23643,0.41354 0.24416,0.0415 2.88671,-0.39987 1.10577,-0.0297 1.17501,0.0627 2.40914,0.35953 2.22942,0.65954 2.01767,0.93414 1.77391,1.18342 1.49811,1.40732 1.19028,1.60586 0.46968,0.86946 0.38072,0.90958 0.28776,0.94654 0.19077,0.98032 0.0627,1.40346 -0.13,1.40323 -0.0615,0.32434 0.70035,0.12667 1.01146,0.23834 0.97355,0.33792 0.92264,0.42878 0.85867,0.51098 0.78169,0.58444 0.69166,0.64923 0.58861,0.70527 0.47251,0.75264 0.37177,0.83561 0.2388,0.84247 0.11094,0.84204 -0.012,0.8343 -0.1292,0.81927 -0.24164,0.79692 -0.34886,0.76727 -0.45096,0.73033 -0.54788,0.68608 -0.63965,0.63452 -0.72631,0.57567 -0.80779,0.50952 -0.88412,0.43606 -0.95531,0.35529 -1.02134,0.26723 -1.08223,0.17185 -9.98384,0.0647 -29.80483,-0.0611 -4e-5,8e-5"
       id="path830"
       inkscape:connector-curvature="0" />
  </g>
  <g
     style="display:inline"
     inkscape:label="F.Cu"
     id="layer5"
     inkscape:groupmode="layer">
    <path
       id="rect2838"
       style="display:inline;fill:#ffbcb4;stroke-width:9.6"
       d="m 396.30664,462.86523 -11.62891,0.20313 -10.25781,1.4668 -9.80664,2.44531 -9.26562,3.36914 -8.62891,4.24219 -7.9043,5.06445 -7.08398,5.83398 -6.17383,6.55274 -5.17383,7.2207 -2.83984,5.17578 -2.27735,5.36133 -1.67578,5.43555 -1.02929,5.40234 -0.64844,4.84375 -0.24805,1.78711 -1.48828,0.084 -4.2207,0.45898 -4.56836,0.88672 -8.92188,2.75781 -6.83203,3.31836 -6.32617,4.39844 -3.51172,3.11328 -3.05273,3.33008 -2.57813,3.52929 -2.0957,3.70313 -1.59961,3.85351 -1.0957,3.98633 -0.58203,4.09571 -0.0527,4.18359 0.43945,4.22461 0.92188,3.88867 1.47851,3.79492 2.11133,3.94336 2.8418,4.15625 3.32227,3.7793 3.78515,3.39453 4.23828,2.99805 4.67383,2.5957 5.0957,2.18359 5.50391,1.76172 5.89844,1.33203 3.63867,0.66407 77.88672,0.15039 v 0.002 l 112.64844,0.22852 37.73437,-0.24219 4.08985,-0.65039 3.85937,-1.00977 3.61133,-1.34375 3.3418,-1.64843 3.05273,-1.92579 2.74414,-2.17578 2.41797,-2.39648 2.07226,-2.59375 1.70313,-2.76172 1.31836,-2.89844 0.91406,-3.01367 0.48828,-3.09375 0.0449,-3.1543 -0.41992,-3.18359 -0.90234,-3.18359 -1.4043,-3.15821 -1.78711,-2.84375 -2.22461,-2.66601 -2.61328,-2.45313 -2.95508,-2.20898 -3.24414,-1.93164 -3.48828,-1.6211 -3.67773,-1.27734 -3.82422,-0.90039 -2.64649,-0.47852 0.23243,-1.22656 0.49218,-5.30273 -0.23828,-5.30469 -0.7207,-3.70508 -1.08789,-3.57812 -1.43945,-3.4375 -1.77344,-3.28516 -4.5,-6.07031 -5.66211,-5.32032 -6.70313,-4.47265 -7.62695,-3.5293 -8.42578,-2.49219 -9.10547,-1.35937 -4.44141,-0.23828 -4.17968,0.11328 -10.91016,1.51172 -0.92383,-0.15625 -0.89258,-1.56446 -3.4121,-5.84179 -4.4004,-6.04688 -4.94336,-5.35937 -5.55664,-4.89063 -6.12109,-4.39843 -6.63086,-3.87696 -7.0918,-3.33008 -7.50585,-2.75586 -7.86524,-2.15625 -8.17578,-1.53125 z m -64.46289,80.1211 1.34961,0.0566 1.31055,0.19336 1.27148,0.33008 1.2207,0.46289 1.16797,0.59765 1.11133,0.72657 1.04883,0.85156 0.98047,0.98047 0.83203,1.0332 0.71875,1.13477 0.59765,1.21289 0.47266,1.26953 0.33984,1.30273 0.20118,1.3125 0.0508,1.30469 -0.10352,1.27148 -0.25586,1.31055 -0.36914,1.24805 -0.48047,1.18359 -0.58398,1.11133 -0.67773,1.03711 -0.76954,0.95508 -0.85351,0.86914 -0.92969,0.78125 -1,0.68554 -1.06445,0.58594 -1.12305,0.48047 -1.17578,0.37109 -1.21875,0.25782 -1.25977,0.13867 -1.29296,0.0156 -1.31836,-0.11523 -1.44922,-0.30078 -1.42578,-0.50196 -1.37305,-0.68164 -1.29688,-0.83789 -1.1914,-0.98047 -1.0625,-1.10156 -0.90625,-1.20312 -0.72266,-1.28711 -0.71484,-1.79297 -0.44141,-1.76367 -0.16992,-1.73828 0.10547,-1.70508 0.46094,-2.15625 0.7539,-1.89649 1.10156,-1.74609 1.50586,-1.70312 0.84766,-0.78126 0.87695,-0.68164 0.91016,-0.57812 0.94922,-0.48047 0.99609,-0.38867 1.04688,-0.29492 2.26953,-0.32618 z m 147.76563,0.041 2.03515,0.125 1.70508,0.33985 1.29101,0.49023 1.23633,0.64453 1.16993,0.78125 1.08593,0.90235 0.98633,1.01172 0.87305,1.10742 0.74023,1.18554 0.5957,1.25 0.47071,1.41602 0.28906,1.45898 0.10938,1.48243 -0.0703,1.49023 -0.24609,1.48047 -0.41797,1.44922 -0.59375,1.40234 -0.76172,1.33594 -0.63867,0.88672 -0.71484,0.82617 -1.63282,1.45117 -1.875,1.1543 -2.07226,0.83008 -1.66797,0.32031 -1.98438,0.10937 -1.95898,-0.10351 -1.58008,-0.3125 v -0.002 l -1.91992,-0.79883 -1.73438,-1.05664 -1.52734,-1.28711 -1.29687,-1.48633 -1.04688,-1.65625 -0.77344,-1.80078 -0.47656,-1.91211 -0.16211,-1.99414 0.16211,-2.06445 0.46289,-1.94727 0.75586,-1.80859 1.0293,-1.65235 1.29101,-1.47461 1.53907,-1.27929 1.76953,-1.06641 1.98828,-0.83008 1.57422,-0.30859 z m -147.04297,2.72657 -1.70508,0.0605 -1.69141,0.28711 -1.58008,0.5 -1.38086,0.70117 -1.02929,0.73829 -0.91992,0.83007 -0.80665,0.90821 -0.68945,0.97851 -0.57617,1.03516 -0.45703,1.08203 -0.33985,1.11719 -0.21874,1.14453 -0.0957,1.1582 0.0254,1.16602 0.15039,1.15625 0.2793,1.14062 0.4043,1.11328 0.5332,1.07422 0.66602,1.02539 0.79687,0.9668 0.77344,0.76758 0.80469,0.66601 0.85156,0.56836 0.9082,0.47657 0.97852,0.38867 1.06445,0.31054 2.43359,0.40821 1.80079,-0.1875 v -0.002 l 1.5332,-0.32812 1.45703,-0.54883 1.35742,-0.74805 1.23828,-0.93164 1.10157,-1.09961 0.93945,-1.24804 0.75976,-1.37891 0.56055,-1.49023 0.21289,-1.20703 0.0937,-1.55079 -0.0352,-1.57421 -0.16992,-1.28321 -0.42187,-1.31445 -0.63867,-1.27539 -0.82422,-1.20899 -0.99024,-1.11523 -1.12109,-0.99414 -1.22852,-0.8457 -1.30859,-0.67188 -1.35938,-0.46875 -1.0371,-0.20312 z m 147.08593,0.0195 -2.0957,0.15625 -1.67187,0.38086 -1.83008,0.89843 -1.66211,1.21094 -1.41797,1.45117 -0.5918,0.79297 -0.49804,0.82813 -0.59375,1.34375 -0.39844,1.41015 -0.20508,1.45703 -0.0117,1.47266 0.18164,1.4668 0.3711,1.43554 0.5625,1.37891 0.74804,1.29688 0.62891,0.88867 0.5625,0.65039 0.6582,0.57031 0.91211,0.65625 0.94336,0.59375 0.95898,0.48633 0.97657,0.38086 0.99804,0.27734 1.01954,0.17188 1.04687,0.0684 1.07422,-0.0352 1.10547,-0.13672 1.48242,-0.38867 1.53711,-0.65234 1.43359,-0.83399 1.17774,-0.9414 1.00586,-1.07813 0.79101,-1.09375 0.62305,-1.18945 0.50195,-1.35742 0.27149,-0.94727 0.14257,-0.77734 -0.004,-1.98047 -0.14063,-1.51172 -0.2832,-1.2832 -0.4668,-1.20899 -0.69921,-1.28906 -0.57813,-0.83399 -0.70313,-0.80078 -0.80859,-0.75 -0.88867,-0.6875 -0.94727,-0.60547 -0.98632,-0.51171 -1,-0.4004 -0.99219,-0.27148 -1.0293,-0.13086 z m -67.82226,6.98242 0.44922,0.67773 1.90039,2.6836 1.21875,1.83789 0.18945,0.54883 0.041,0.57421 -0.19336,1.28126 -0.47657,1.32812 -0.60742,1.03906 -0.30664,0.31055 -0.28125,0.11133 -1.12305,-0.95508 -2.36328,-2.29688 -3.24609,-3.25 1.29883,-1.33789 1.03125,-0.98047 0.65234,-0.47851 1.09766,-0.60742 z m -12.62891,0.27734 0.39063,0.082 0.79297,0.37696 1.19726,0.77929 1.20899,1.09375 1.21679,1.28125 -3.23828,3.25 -2.35937,2.29688 -1.12305,0.95508 -0.31055,-0.19336 -0.41015,-0.45899 -0.48243,-0.77929 -0.35937,-0.84961 -0.2207,-0.88672 -0.0742,-0.88867 0.0391,-0.63086 0.19727,-0.58203 1.38476,-2.03321 1.88086,-2.57422 z m 5.22071,6.3125 0.11132,0.63282 0.0254,1.51757 -0.0332,2.15039 -2.25,0.0566 -2.25,-0.0352 2.13086,-2.22656 z m 2.21093,0 0.77149,0.64453 1.50195,1.43165 1.46289,1.46874 0.66016,0.75586 -0.67774,0.0801 -1.5,0.0156 -1.52734,-0.043 -0.76367,-0.0879 -0.11524,-0.76172 -0.0156,-1.45703 0.0664,-1.41406 z m 101.73242,13.24805 h 32.125 v 22.67773 h -32.125 z"
       transform="scale(0.26458333)" />
  </g>
  <g
     style="display:inline"
     inkscape:label="F.SilkS"
     id="layer4"
     inkscape:groupmode="layer">
    <path
       id="path830-7"
       style="display:inline;fill:#ffc634;fill-opacity:1;stroke:none;stroke-width:0.128481;stroke-miterlimit:4;stroke-dasharray:none;stroke-opacity:1"
       d="m 104.85613,122.46642 -3.07681,0.0537 -2.71405,0.38809 -2.594674,0.64699 -2.451528,0.89141 -2.283066,1.12242 -2.091346,1.33997 -1.874303,1.54357 -1.633493,1.73375 -1.368909,1.91047 -0.751374,1.36943 -0.602549,1.41852 -0.443384,1.43815 -0.272333,1.42937 -0.171566,1.28158 -0.06563,0.47284 -0.393774,0.0222 -1.116727,0.12144 -1.208712,0.23461 -2.36058,0.72967 -1.807642,0.87798 -1.673799,1.16376 -0.929142,0.82372 -0.807702,0.88108 -0.68213,0.93379 -0.554487,0.97979 -0.42323,1.01958 -0.289904,1.05471 -0.153996,1.08366 -0.01394,1.10691 0.116271,1.11776 0.243914,1.02888 0.391189,1.00407 0.558623,1.04335 0.751893,1.09967 0.879017,0.99994 1.001487,0.89814 1.121379,0.79323 1.236617,0.68678 1.348237,0.57774 1.456243,0.46612 1.560629,0.35244 0.962732,0.1757 20.607529,0.0398 v 5.3e-4 l 29.80489,0.0605 9.98389,-0.0641 1.08211,-0.17208 1.02112,-0.26717 0.9555,-0.35553 0.88418,-0.43615 0.8077,-0.50953 0.72606,-0.57568 0.63975,-0.63407 0.54829,-0.68626 0.45062,-0.73071 0.34881,-0.76687 0.24185,-0.79737 0.12919,-0.81856 0.0119,-0.83457 -0.1111,-0.84233 -0.23875,-0.84232 -0.37155,-0.83561 -0.47284,-0.75241 -0.5886,-0.70538 -0.69143,-0.64906 -0.78186,-0.58446 -0.85835,-0.51108 -0.92294,-0.42891 -0.97306,-0.33797 -1.01183,-0.23822 -0.70022,-0.12661 0.0615,-0.32453 0.13022,-1.40301 -0.063,-1.40354 -0.19069,-0.9803 -0.28783,-0.94671 -0.38086,-0.90951 -0.46922,-0.86919 -1.19063,-1.60611 -1.4981,-1.40766 -1.77353,-1.18339 -2.01797,-0.9338 -2.22932,-0.65939 -2.40915,-0.35967 -1.17513,-0.063 -1.10587,0.03 -2.88665,0.39998 -0.24443,-0.0413 -0.23616,-0.41393 -0.90278,-1.54564 -1.16427,-1.59991 -1.30794,-1.418 -1.47019,-1.29398 -1.61954,-1.16375 -1.75441,-1.02578 -1.87638,-0.88108 -1.98592,-0.72916 -2.08101,-0.5705 -2.16317,-0.40515 -3.0453,-0.2067 z m -11.098029,9.91619 -5.29e-4,0.001 0.04857,0.0382 0.01241,0.10594 -0.0677,0.4346 -0.794781,3.51968 -0.105937,0.4501 -0.79375,3.40186 -0.07441,0.30592 0.326594,0.1633 0.421679,0.25063 0.373621,0.30283 0.32298,0.35088 0.26975,0.39481 0.214456,0.43511 0.156064,0.47026 0.0956,0.50126 0.03307,0.52865 5.29e-4,0.35708 h 0.410311 l 0.344681,-0.016 0.251147,-0.0382 0.392743,-0.0796 0.622699,-0.0904 1.44539,-0.14882 1.398881,-0.0512 2.173511,-0.0372 2.72593,-0.0269 0.60874,-0.60048 0.57465,-0.54261 0.46923,-0.37516 0.447,-0.26562 0.50643,-0.21291 0.18965,-0.0615 0.17364,-0.0336 0.48369,-0.003 0.293,0.0186 0.21342,0.0351 0.20154,0.0687 0.2589,0.11937 0.40618,0.21704 0.36587,0.24805 0.39119,0.33021 0.48214,0.46147 0.6134,0.60824 h 2.08566 l 2.2164,0.0315 1.95337,0.0868 1.54823,0.13436 0.57722,0.0816 0.4222,0.0899 0.2434,0.0362 0.32556,0.0155 0.38344,5.3e-4 v -0.39223 l 0.032,-0.49971 0.0935,-0.48214 0.15089,-0.45785 0.20464,-0.42685 0.25529,-0.38912 0.30179,-0.3452 0.34468,-0.29404 0.38344,-0.2372 0.29455,-0.17415 0.0806,-0.0682 0.0284,-0.0491 -0.32246,-1.45573 -0.40153,-1.71514 -0.14831,-0.6351 -0.15296,-0.66146 -0.27182,-1.19114 -0.4315,-2.00143 -0.0506,-0.33021 0.0186,-0.16536 0.0387,-0.0264 0.061,0.008 0.19224,0.11162 0.22531,0.15761 0.50953,1.53272 1.27641,3.86178 0.76687,2.32906 0.49662,0.0631 0.38757,0.0641 0.39842,0.0946 0.81597,0.27544 0.82114,0.38189 0.79891,0.478 0.35296,0.25684 0.34777,0.293 0.3385,0.32298 0.32296,0.34778 0.30386,0.3669 0.27905,0.38034 0.2496,0.38861 0.21549,0.39119 0.17725,0.35243 2.74247,0.0362 2.69389,0.0475 2.04225,0.0615 1.28933,0.0718 0.33021,0.0382 0.10439,0.0393 -0.0816,0.0693 -0.19379,0.0698 -0.69659,0.13229 -0.38189,0.0698 -0.31833,0.10232 -0.30747,0.15762 -0.3483,0.23461 -0.21498,0.15554 h -2.21898 -2.21899 l 0.11007,0.13953 0.077,0.14159 0.0325,0.14521 -0.0357,0.12609 -0.10025,0.13178 -0.15762,0.13436 -0.20774,0.13125 -0.53434,0.23927 -0.64233,0.17777 -0.45734,0.092 -0.11783,0.46974 -0.14469,0.47542 -0.18655,0.40049 -0.25115,0.36794 -0.34055,0.37775 -0.4501,0.40773 -0.20567,0.13488 -0.24392,0.1266 -0.40411,0.16744 -0.4103,0.11988 -0.41444,0.0724 -0.41496,0.0248 -0.41238,-0.0227 -0.40773,-0.0703 -0.39894,-0.11783 -0.38809,-0.16536 -0.4284,-0.25373 -0.39791,-0.31316 -0.33899,-0.34675 -0.2496,-0.35347 -0.0879,-0.11575 -0.15348,-0.13178 -0.6165,-0.39791 -1.18649,-0.66972 -0.43771,-0.21859 -0.64699,0.0796 -2.40295,0.33848 -0.94568,0.16846 -0.73587,0.16175 -0.19017,0.0677 -0.0346,0.0367 -0.001,0.0434 0.13849,0.24546 0.29095,0.42064 0.34881,0.46457 0.31161,0.37724 0.30231,0.36897 0.18862,0.32815 0.0972,0.33848 0.0274,0.39998 -0.0279,0.45785 -0.0517,0.17311 -0.092,0.20878 -0.14366,0.25166 -0.19172,0.25528 -0.23771,0.25632 -0.27957,0.25425 -0.31834,0.24959 -0.35398,0.24236 -0.38706,0.23255 -0.41547,0.21911 -0.80771,0.36587 -1.23145,0.52038 -2.89801,1.15703 -1.95905,0.77153 -1.08469,0.46096 -0.21136,0.11937 -0.0264,0.84439 -0.0377,0.70694 -0.0315,0.11988 -0.0501,0.0357 -0.0729,-0.008 -0.0455,-0.0444 -0.0398,-0.86248 -0.0139,-0.79272 -0.21187,-0.11885 -0.96532,-0.416 -1.86603,-0.73949 -2.62,-1.03043 -1.08469,-0.45113 -1.15806,-0.50798 -0.907438,-0.47387 -0.372071,-0.231 -0.324011,-0.23099 -0.280604,-0.2341 -0.241845,-0.23926 -0.29559,-0.36173 -0.205671,-0.35347 -0.124539,-0.36432 -0.05168,-0.39325 0.01035,-0.4129 0.04444,-0.16071 0.08216,-0.19637 0.208256,-0.35399 0.293524,-0.3731 0.317293,-0.38706 0.361734,-0.48576 0.29714,-0.43253 0.122989,-0.22634 -0.100769,-0.0579 -0.283187,-0.0796 -1.000971,-0.20361 -1.389579,-0.2284 -1.550294,-0.21188 -0.646472,-0.0791 -0.435116,0.21445 -0.644405,0.3452 -0.635104,0.38137 -0.503327,0.34055 -0.246497,0.22066 -0.262516,0.37 -0.3452,0.35657 -0.398425,0.3173 -0.42323,0.25114 -0.390673,0.1726 -0.358117,0.10749 -0.387575,0.0553 -0.478006,0.0165 -0.628902,-0.0233 -0.22996,-0.046 -0.268718,-0.0811 -0.448551,-0.18035 -0.413412,-0.23358 -0.374136,-0.28164 -0.330729,-0.32608 -0.283705,-0.36535 -0.232027,-0.40101 -0.177249,-0.4315 -0.11834,-0.45785 -0.05581,-0.30127 -0.39429,-0.0661 -0.480591,-0.11214 -0.463021,-0.16485 -0.401524,-0.19895 -0.296106,-0.21446 -0.08527,-0.11988 -0.02997,-0.14005 0.02532,-0.14779 0.08061,-0.14315 0.109554,-0.13952 h -2.218468 -2.217954 l -0.286287,-0.20464 -0.322461,-0.21291 -0.287319,-0.14314 -0.306443,-0.0935 -0.380339,-0.0672 -0.557588,-0.0977 -0.306959,-0.0972 -0.05323,-0.045 0.01707,-0.0408 0.08992,-0.0357 0.164849,-0.0289 0.795816,-0.0486 1.48363,-0.0522 3.967716,-0.0837 2.633432,-0.0351 0.255799,-0.48576 0.300239,-0.51573 0.342098,-0.48782 0.382923,-0.45889 0.422196,-0.4284 0.460436,-0.39687 0.497644,-0.36432 0.534334,-0.33073 0.568441,-0.29611 0.533303,-0.23306 0.51263,-0.18035 0.500226,-0.13126 0.496094,-0.0837 0.48731,-0.0594 0.106968,-0.293 2.296501,-6.93033 0.171567,-0.43822 0.08578,-0.1142 0.115239,-0.0961 0.173114,-0.11317 z m 41.177849,19.56935 h 7.50032 v 5.00021 h -7.50032 z" />
  </g>
  <g
     id="g4769"
     inkscape:groupmode="layer"
     inkscape:label="F.Mask"
     style="display:inline">
    <path
       inkscape:connector-curvature="0"
       id="path4753"
       d="m 126.89682,143.67658 -0.52703,0.0237 -0.41676,0.0819 -0.52603,0.21986 -0.46833,0.28182 -0.40687,0.33866 -0.34161,0.39041 -0.27256,0.43702 -0.19972,0.47855 -0.12307,0.51493 -0.0427,0.54625 0.0428,0.52774 0.12654,0.5058 0.20454,0.47609 0.27678,0.43861 0.34325,0.3934 0.40394,0.34043 0.45885,0.27969 0.50799,0.2112 v 3.5e-4 l 0.41842,0.0829 0.51793,0.0269 0.52545,-0.0288 0.44105,-0.0844 0.54835,-0.21972 0.49598,-0.30587 0.43242,-0.38366 0.1889,-0.21841 0.16883,-0.23475 0.20174,-0.35364 0.15668,-0.37101 0.11107,-0.38359 0.0649,-0.39136 0.0184,-0.39433 -0.0287,-0.39251 -0.0764,-0.3859 -0.12454,-0.37448 -0.15774,-0.3311 -0.19626,-0.31374 -0.23067,-0.2926 -0.26098,-0.26767 -0.28722,-0.23897 -0.30936,-0.20649 -0.3274,-0.17024 -0.34136,-0.13014 -0.45108,-0.0896 -0.53853,-0.0333 v -1e-5 m 0.0107,0.72634 0.32175,0.008 0.27215,0.0348 0.26248,0.0721 0.26449,0.10573 0.26064,0.1352 0.2509,0.16052 0.23525,0.18172 0.21373,0.19878 0.18632,0.21165 0.15302,0.22041 0.1848,0.34082 0.1236,0.32 0.0745,0.33973 0.0376,0.40004 6.8e-4,0.52382 -0.0376,0.206 -0.072,0.25049 -0.13293,0.35931 -0.16471,0.31432 -0.20913,0.28964 -0.26611,0.28527 -0.31164,0.24897 -0.37945,0.22083 -0.40637,0.17225 -0.39242,0.1032 -0.2926,0.036 -0.2843,0.009 -0.27673,-0.0183 -0.26991,-0.0456 -0.2638,-0.0732 -0.25844,-0.1008 -0.25381,-0.12867 -0.24992,-0.15671 -0.241,-0.17346 -0.17386,-0.15151 -0.149,-0.17201 -0.16648,-0.23502 -0.1982,-0.34337 -0.14857,-0.36485 -0.0985,-0.37974 -0.0481,-0.38804 0.003,-0.38975 0.0539,-0.38488 0.10534,-0.37343 0.15733,-0.35537 0.13187,-0.21908 0.15628,-0.21011 0.37504,-0.38401 0.44032,-0.32016 0.48399,-0.23768 0.44221,-0.10094 0.5547,-0.0415 v 0"
       style="display:inline;fill:#f30000;fill-opacity:1;stroke:none;stroke-width:0.0529285;stroke-opacity:1" />
    <path
       inkscape:connector-curvature="0"
       id="path4755"
       d="m 87.800305,143.6653 -0.193869,0.007 -0.600622,0.0861 -0.276816,0.0781 -0.26325,0.10253 -0.251253,0.12747 -0.240826,0.15327 -0.231969,0.17973 -0.224688,0.20691 -0.398334,0.45089 -0.291504,0.46199 -0.199298,0.50176 -0.121707,0.57022 -0.0278,0.45156 0.04455,0.45948 0.11684,0.46705 0.18909,0.4743 0.191228,0.34022 0.239635,0.31838 0.281062,0.29142 0.315514,0.25936 0.342984,0.22222 0.363478,0.17993 0.376995,0.13254 0.383532,0.0801 0.348876,0.0303 0.341902,-0.004 0.333249,-0.0367 0.32291,-0.0681 0.310889,-0.0984 0.297186,-0.12734 0.281802,-0.15497 0.264731,-0.18136 0.245983,-0.20648 0.225549,-0.23034 0.203433,-0.25289 0.179635,-0.27417 0.154155,-0.29419 0.126987,-0.31292 0.09815,-0.33038 0.06761,-0.34656 0.02721,-0.33637 -0.01367,-0.345 -0.05268,-0.34776 -0.08985,-0.34467 -0.125161,-0.33568 -0.158619,-0.32084 -0.19022,-0.30012 -0.219972,-0.27354 -0.259398,-0.25918 -0.277318,-0.22587 -0.29392,-0.19203 -0.309199,-0.15764 -0.323163,-0.12266 -0.335805,-0.0872 -0.347127,-0.0513 -0.35713,-0.0148 v 0 m 0.191215,0.73266 0.290886,0.0245 0.274462,0.0539 0.359944,0.12413 0.34612,0.17768 0.325082,0.22402 0.296827,0.26314 0.261358,0.2951 0.218671,0.3198 0.16877,0.3373 0.111653,0.34762 0.04473,0.33972 0.0093,0.41665 -0.02451,0.40994 -0.05679,0.31958 -0.148123,0.39455 -0.201125,0.36464 -0.248736,0.33004 -0.290964,0.29078 -0.327798,0.24682 -0.359247,0.19822 -0.385309,0.14491 -0.405983,0.0869 v 3.3e-4 l -0.476377,0.0499 -0.643768,-0.10773 -0.281504,-0.0823 -0.259203,-0.10333 -0.240362,-0.12601 -0.224986,-0.15024 -0.213071,-0.17605 -0.204619,-0.20347 -0.210811,-0.25554 -0.175878,-0.27132 -0.141331,-0.28431 -0.107173,-0.29443 -0.0734,-0.30175 -0.04001,-0.30624 -0.0071,-0.30789 0.0256,-0.30673 0.05783,-0.30276 0.08967,-0.29594 0.121121,-0.28629 0.152191,-0.27384 0.182875,-0.25855 0.213168,-0.24044 0.243077,-0.21949 0.272599,-0.19574 0.365041,-0.18508 0.418498,-0.1324 0.44725,-0.0761 0.451305,-0.0161 v -1e-5"
       style="display:inline;fill:#ff0000;fill-opacity:1;stroke:none;stroke-width:0.0529285" />
    <g
       id="g6035"
       style="display:inline"
       transform="matrix(0.64240247,0,0,0.64240247,39.328937,50.662712)">
      <path
         style="display:inline;fill:#ff0000;fill-opacity:1;stroke-width:0.0823914"
         d="m 107.75794,151.73842 -1.33682,-1.33887 0.53496,-0.55076 c 0.29423,-0.30291 0.60607,-0.57332 0.69298,-0.60091 0.0869,-0.0276 0.29072,-0.1402 0.45289,-0.25025 l 0.29486,-0.2001 0.18513,0.27929 c 0.10181,0.15361 0.45392,0.65074 0.78245,1.10475 0.54309,0.75049 0.59734,0.86123 0.59734,1.2193 0,0.63113 -0.4784,1.67641 -0.76725,1.67641 -0.0549,0 -0.7013,-0.60249 -1.43654,-1.33886 z"
         id="path4757"
         inkscape:connector-curvature="0" />
      <path
         style="display:inline;fill:#ff0000;fill-opacity:1;stroke-width:0.0823914"
         d="m 102.10996,152.8095 c -0.29673,-0.4018 -0.46996,-0.92065 -0.4682,-1.40232 0.002,-0.40836 0.0364,-0.47826 0.66766,-1.33719 0.36636,-0.49847 0.71509,-0.97548 0.77498,-1.06001 0.1047,-0.14781 0.12766,-0.14432 0.59871,0.0911 0.30289,0.15135 0.68108,0.44584 0.99097,0.77164 l 0.50113,0.52686 -1.33402,1.33887 c -0.73371,0.73637 -1.3789,1.33886 -1.43375,1.33886 -0.0548,0 -0.18872,-0.1205 -0.29748,-0.26778 z"
         id="path4759"
         inkscape:connector-curvature="0" />
      <path
         style="display:inline;fill:#ff0000;fill-opacity:1;stroke-width:0.0823914"
         d="m 106.22665,153.26953 c -0.0921,-0.0921 -0.0642,-1.75769 0.0295,-1.75769 0.0827,0 1.81061,1.69062 1.81061,1.77151 0,0.0625 -1.77713,0.0491 -1.84008,-0.0138 z"
         id="path4761"
         inkscape:connector-curvature="0" />
      <path
         style="display:inline;fill:#ff0000;fill-opacity:1;stroke-width:0.0823914"
         d="m 103.5352,153.29126 c 0,-0.0711 1.7378,-1.77943 1.8101,-1.77943 0.0392,0 0.0651,0.39857 0.0575,0.88571 l -0.0138,0.88571 -0.9269,0.0233 c -0.5098,0.0128 -0.9269,0.006 -0.9269,-0.0153 z"
         id="path4763"
         inkscape:connector-curvature="0" />
    </g>
  </g>
</svg>
