G04 #@! TF.GenerationSoftware,KiCad,Pcbnew,(6.99.0-1934-gfe17dca71f)*
G04 #@! TF.CreationDate,2022-05-23T00:26:23-05:00*
G04 #@! TF.ProjectId,gold_star_v2_SAO,676f6c64-5f73-4746-9172-5f76325f5341,rev?*
G04 #@! TF.SameCoordinates,Original*
G04 #@! TF.FileFunction,Soldermask,Top*
G04 #@! TF.FilePolarity,Negative*
%FSLAX46Y46*%
G04 Gerber Fmt 4.6, Leading zero omitted, Abs format (unit mm)*
G04 Created by KiCad (PCBNEW (6.99.0-1934-gfe17dca71f)) date 2022-05-23 00:26:23*
%MOMM*%
%LPD*%
G01*
G04 APERTURE LIST*
%ADD10C,0.150000*%
%ADD11C,0.300000*%
%ADD12C,0.700000*%
%ADD13R,1.700000X1.700000*%
%ADD14O,1.700000X1.700000*%
G04 APERTURE END LIST*
D10*
G36*
X120400000Y-70200000D02*
G01*
X118000000Y-70200000D01*
X118000000Y-68100000D01*
X120400000Y-68100000D01*
X120400000Y-70200000D01*
G37*
X120400000Y-70200000D02*
X118000000Y-70200000D01*
X118000000Y-68100000D01*
X120400000Y-68100000D01*
X120400000Y-70200000D01*
G36*
X129600000Y-69500000D02*
G01*
X124400000Y-69500000D01*
X124400000Y-68800000D01*
X129600000Y-68800000D01*
X129600000Y-69500000D01*
G37*
X129600000Y-69500000D02*
X124400000Y-69500000D01*
X124400000Y-68800000D01*
X129600000Y-68800000D01*
X129600000Y-69500000D01*
G36*
X124500000Y-69500000D02*
G01*
X123900000Y-69500000D01*
X123900000Y-63300000D01*
X124500000Y-63300000D01*
X124500000Y-69500000D01*
G37*
X124500000Y-69500000D02*
X123900000Y-69500000D01*
X123900000Y-63300000D01*
X124500000Y-63300000D01*
X124500000Y-69500000D01*
G36*
X130100000Y-69500000D02*
G01*
X129400000Y-69500000D01*
X129400000Y-63200000D01*
X130100000Y-63200000D01*
X130100000Y-69500000D01*
G37*
X130100000Y-69500000D02*
X129400000Y-69500000D01*
X129400000Y-63200000D01*
X130100000Y-63200000D01*
X130100000Y-69500000D01*
G36*
X130800000Y-63400000D02*
G01*
X123800000Y-63400000D01*
X123800000Y-61800000D01*
X130800000Y-61800000D01*
X130800000Y-63400000D01*
G37*
X130800000Y-63400000D02*
X123800000Y-63400000D01*
X123800000Y-61800000D01*
X130800000Y-61800000D01*
X130800000Y-63400000D01*
G36*
X141000000Y-91000000D02*
G01*
X134000000Y-91000000D01*
X134000000Y-79000000D01*
X141000000Y-79000000D01*
X141000000Y-91000000D01*
G37*
X141000000Y-91000000D02*
X134000000Y-91000000D01*
X134000000Y-79000000D01*
X141000000Y-79000000D01*
X141000000Y-91000000D01*
G36*
X120000000Y-90000000D02*
G01*
X112000000Y-90000000D01*
X112000000Y-79000000D01*
X120000000Y-79000000D01*
X120000000Y-90000000D01*
G37*
X120000000Y-90000000D02*
X112000000Y-90000000D01*
X112000000Y-79000000D01*
X120000000Y-79000000D01*
X120000000Y-90000000D01*
G36*
X124000000Y-96000000D02*
G01*
X113000000Y-96000000D01*
X113000000Y-90000000D01*
X124000000Y-90000000D01*
X124000000Y-96000000D01*
G37*
X124000000Y-96000000D02*
X113000000Y-96000000D01*
X113000000Y-90000000D01*
X124000000Y-90000000D01*
X124000000Y-96000000D01*
G36*
X140000000Y-96000000D02*
G01*
X129000000Y-96000000D01*
X129000000Y-90000000D01*
X140000000Y-90000000D01*
X140000000Y-96000000D01*
G37*
X140000000Y-96000000D02*
X129000000Y-96000000D01*
X129000000Y-90000000D01*
X140000000Y-90000000D01*
X140000000Y-96000000D01*
G36*
X142000000Y-80000000D02*
G01*
X112000000Y-80000000D01*
X112000000Y-76000000D01*
X142000000Y-76000000D01*
X142000000Y-80000000D01*
G37*
X142000000Y-80000000D02*
X112000000Y-80000000D01*
X112000000Y-76000000D01*
X142000000Y-76000000D01*
X142000000Y-80000000D01*
G36*
X135000000Y-70000000D02*
G01*
X130000000Y-70000000D01*
X130000000Y-61000000D01*
X135000000Y-61000000D01*
X135000000Y-70000000D01*
G37*
X135000000Y-70000000D02*
X130000000Y-70000000D01*
X130000000Y-61000000D01*
X135000000Y-61000000D01*
X135000000Y-70000000D01*
G36*
X124000000Y-70000000D02*
G01*
X120000000Y-70000000D01*
X120000000Y-61000000D01*
X124000000Y-61000000D01*
X124000000Y-70000000D01*
G37*
X124000000Y-70000000D02*
X120000000Y-70000000D01*
X120000000Y-61000000D01*
X124000000Y-61000000D01*
X124000000Y-70000000D01*
G36*
X113000000Y-78000000D02*
G01*
X107000000Y-73000000D01*
X107000000Y-71000000D01*
X113000000Y-69000000D01*
X113000000Y-78000000D01*
G37*
X113000000Y-78000000D02*
X107000000Y-73000000D01*
X107000000Y-71000000D01*
X113000000Y-69000000D01*
X113000000Y-78000000D01*
G36*
X131000000Y-62000000D02*
G01*
X123000000Y-62000000D01*
X127000000Y-56000000D01*
X131000000Y-62000000D01*
G37*
X131000000Y-62000000D02*
X123000000Y-62000000D01*
X127000000Y-56000000D01*
X131000000Y-62000000D01*
G36*
X148000000Y-71000000D02*
G01*
X141000000Y-78000000D01*
X141000000Y-69000000D01*
X148000000Y-71000000D01*
G37*
X148000000Y-71000000D02*
X141000000Y-78000000D01*
X141000000Y-69000000D01*
X148000000Y-71000000D01*
X149860000Y-66040000D02*
X149860000Y-66040000D01*
X149860000Y-66040000D02*
X149860000Y-66040000D01*
X149860000Y-66040000D02*
X149860000Y-66040000D01*
X149860000Y-66040000D02*
X149860000Y-66040000D01*
X149860000Y-66040000D02*
X149860000Y-66040000D01*
X149860000Y-66040000D02*
X149860000Y-66040000D01*
X149860000Y-66040000D02*
X149860000Y-66040000D01*
X149860000Y-66040000D02*
X149860000Y-66040000D01*
D11*
G36*
X142084524Y-76675000D02*
G01*
X111915477Y-76675000D01*
X111915477Y-74508117D01*
X113419934Y-74508117D01*
X113464849Y-74583894D01*
X113543603Y-74623360D01*
X113631189Y-74613983D01*
X113699804Y-74558741D01*
X114060495Y-73476666D01*
X115749030Y-73476666D01*
X116102614Y-74537418D01*
X116140056Y-74591294D01*
X116221455Y-74624967D01*
X116308137Y-74609288D01*
X116372580Y-74549234D01*
X116394326Y-74463872D01*
X116010666Y-73312893D01*
X116011885Y-73304417D01*
X115996912Y-73271632D01*
X115064759Y-70475173D01*
X116843770Y-70475173D01*
X118182450Y-74491214D01*
X118181838Y-74508117D01*
X118196110Y-74532196D01*
X118197851Y-74537418D01*
X118207059Y-74550668D01*
X118226753Y-74583894D01*
X118231965Y-74586506D01*
X118235293Y-74591295D01*
X118270980Y-74606058D01*
X118305507Y-74623360D01*
X118311306Y-74622739D01*
X118316692Y-74624967D01*
X118354683Y-74618095D01*
X118393093Y-74613983D01*
X118397635Y-74610326D01*
X118403374Y-74609288D01*
X118431630Y-74582957D01*
X118461708Y-74558741D01*
X118463552Y-74553210D01*
X118467817Y-74549235D01*
X118477349Y-74511818D01*
X118938008Y-73129841D01*
X120653319Y-73129841D01*
X120660271Y-73157650D01*
X120661435Y-73186289D01*
X120670750Y-73199565D01*
X120850309Y-73917799D01*
X120850760Y-73944653D01*
X120872797Y-73977709D01*
X120892909Y-74011989D01*
X120897050Y-74014087D01*
X121248785Y-74541688D01*
X121261100Y-74569899D01*
X121290923Y-74589781D01*
X121318408Y-74612800D01*
X121327103Y-74613901D01*
X121854873Y-74965748D01*
X121873271Y-74985315D01*
X121911814Y-74994951D01*
X121949753Y-75006787D01*
X121954228Y-75005554D01*
X122671978Y-75184991D01*
X122707936Y-75197156D01*
X122735745Y-75190204D01*
X122764385Y-75189040D01*
X122777662Y-75179725D01*
X123495894Y-75000166D01*
X123522748Y-74999715D01*
X123555804Y-74977677D01*
X123590084Y-74957566D01*
X123592182Y-74953426D01*
X124148769Y-74582367D01*
X124190896Y-74532068D01*
X124196000Y-74491772D01*
X125988114Y-74491772D01*
X126001955Y-74522078D01*
X126011340Y-74554043D01*
X126019966Y-74561517D01*
X126024707Y-74571899D01*
X126052735Y-74589911D01*
X126077913Y-74611728D01*
X126089210Y-74613352D01*
X126098812Y-74619523D01*
X126132125Y-74619523D01*
X126165105Y-74624265D01*
X126175488Y-74619523D01*
X127076432Y-74619523D01*
X127100887Y-74625753D01*
X127140073Y-74612691D01*
X127179757Y-74601039D01*
X127181677Y-74598823D01*
X127706435Y-74423904D01*
X127741588Y-74416257D01*
X127763262Y-74394583D01*
X127788438Y-74377087D01*
X127793856Y-74363989D01*
X128140386Y-74017459D01*
X128162085Y-74004571D01*
X128180563Y-73967615D01*
X128200378Y-73931327D01*
X128200169Y-73928404D01*
X128360312Y-73608119D01*
X128372934Y-73596251D01*
X128379622Y-73569499D01*
X128381905Y-73564933D01*
X128384838Y-73548636D01*
X128568104Y-72815568D01*
X128578571Y-72799282D01*
X128578571Y-72773702D01*
X128579323Y-72770694D01*
X128578571Y-72752189D01*
X128578571Y-72748889D01*
X129796176Y-72748889D01*
X129802380Y-72773705D01*
X129802380Y-72776806D01*
X129807599Y-72794579D01*
X129990855Y-73527603D01*
X129988995Y-73544830D01*
X130001328Y-73569497D01*
X130002566Y-73574447D01*
X130010942Y-73588723D01*
X130190758Y-73948355D01*
X130196123Y-73973017D01*
X130225335Y-74002229D01*
X130253500Y-74032508D01*
X130256340Y-74033234D01*
X130602508Y-74379402D01*
X130625067Y-74407422D01*
X130654148Y-74417116D01*
X130681053Y-74431807D01*
X130695189Y-74430796D01*
X131220439Y-74605879D01*
X131241670Y-74619523D01*
X131282983Y-74619523D01*
X131324308Y-74621018D01*
X131326830Y-74619523D01*
X131647861Y-74619523D01*
X131672316Y-74625753D01*
X131711502Y-74612691D01*
X131751186Y-74601039D01*
X131753106Y-74598823D01*
X132277864Y-74423904D01*
X132313017Y-74416257D01*
X132334691Y-74394583D01*
X132359867Y-74377087D01*
X132365285Y-74363989D01*
X132549888Y-74179386D01*
X132581332Y-74121802D01*
X132578157Y-74077418D01*
X133605969Y-74077418D01*
X133624694Y-74163493D01*
X133833016Y-74371815D01*
X133845904Y-74393514D01*
X133882855Y-74411990D01*
X133919149Y-74431808D01*
X133922074Y-74431599D01*
X134259031Y-74600077D01*
X134289289Y-74619523D01*
X134319940Y-74619523D01*
X134350114Y-74624953D01*
X134363206Y-74619523D01*
X135468114Y-74619523D01*
X135503878Y-74623384D01*
X135531293Y-74609676D01*
X135560710Y-74601039D01*
X135569992Y-74590327D01*
X135907403Y-74421622D01*
X135932064Y-74416257D01*
X135961281Y-74387040D01*
X135991554Y-74358880D01*
X135992280Y-74356041D01*
X136140386Y-74207935D01*
X136162085Y-74195047D01*
X136180562Y-74158093D01*
X136200379Y-74121802D01*
X136200170Y-74118878D01*
X136368649Y-73781922D01*
X136388095Y-73751663D01*
X136388095Y-73721012D01*
X136393525Y-73690838D01*
X136388095Y-73677746D01*
X136388095Y-72939365D01*
X137605700Y-72939365D01*
X137611904Y-72964181D01*
X137611904Y-72967282D01*
X137617122Y-72985055D01*
X137800379Y-73718080D01*
X137798519Y-73735307D01*
X137810852Y-73759974D01*
X137812090Y-73764924D01*
X137820466Y-73779201D01*
X138000282Y-74138831D01*
X138005647Y-74163493D01*
X138034859Y-74192705D01*
X138063024Y-74222984D01*
X138065864Y-74223710D01*
X138213969Y-74371815D01*
X138226857Y-74393514D01*
X138263807Y-74411989D01*
X138300102Y-74431808D01*
X138303027Y-74431599D01*
X138639976Y-74600073D01*
X138670241Y-74619523D01*
X138700894Y-74619523D01*
X138731066Y-74624953D01*
X138744158Y-74619523D01*
X139087162Y-74619523D01*
X139122926Y-74623384D01*
X139150341Y-74609676D01*
X139179758Y-74601039D01*
X139189040Y-74590327D01*
X139526451Y-74421622D01*
X139551112Y-74416257D01*
X139580329Y-74387040D01*
X139610602Y-74358880D01*
X139611328Y-74356041D01*
X139759434Y-74207935D01*
X139781133Y-74195047D01*
X139799608Y-74158097D01*
X139819427Y-74121802D01*
X139819218Y-74118877D01*
X139979357Y-73798598D01*
X139991981Y-73786728D01*
X139998670Y-73759972D01*
X140000951Y-73755410D01*
X140003882Y-73739125D01*
X140187152Y-73006045D01*
X140197619Y-72989758D01*
X140197619Y-72964178D01*
X140198371Y-72961170D01*
X140197619Y-72942665D01*
X140197619Y-72018021D01*
X140203823Y-71999682D01*
X140197619Y-71974866D01*
X140197619Y-71971765D01*
X140192400Y-71953991D01*
X140009143Y-71220967D01*
X140011003Y-71203740D01*
X139998669Y-71179073D01*
X139997432Y-71174123D01*
X139989057Y-71159848D01*
X139809241Y-70800215D01*
X139803876Y-70775554D01*
X139774664Y-70746342D01*
X139746499Y-70716063D01*
X139743659Y-70715337D01*
X139595556Y-70567234D01*
X139582667Y-70545533D01*
X139545704Y-70527052D01*
X139509421Y-70507239D01*
X139506497Y-70507448D01*
X139169547Y-70338973D01*
X139139282Y-70319523D01*
X139108629Y-70319523D01*
X139078457Y-70314093D01*
X139065365Y-70319523D01*
X138722361Y-70319523D01*
X138686597Y-70315662D01*
X138659182Y-70329370D01*
X138629765Y-70338007D01*
X138620483Y-70348719D01*
X138283074Y-70517425D01*
X138258411Y-70522790D01*
X138229190Y-70552011D01*
X138198920Y-70580167D01*
X138198194Y-70583007D01*
X138050091Y-70731110D01*
X138028390Y-70743999D01*
X138009909Y-70780962D01*
X137990096Y-70817245D01*
X137990305Y-70820169D01*
X137830166Y-71140447D01*
X137817541Y-71152318D01*
X137810852Y-71179076D01*
X137808571Y-71183637D01*
X137805641Y-71199920D01*
X137622371Y-71933003D01*
X137611904Y-71949289D01*
X137611904Y-71974869D01*
X137611152Y-71977877D01*
X137611904Y-71996382D01*
X137611904Y-72921026D01*
X137605700Y-72939365D01*
X136388095Y-72939365D01*
X136388095Y-72763314D01*
X136391956Y-72727550D01*
X136378248Y-72700135D01*
X136369611Y-72670718D01*
X136358899Y-72661436D01*
X136190193Y-72324027D01*
X136184828Y-72299363D01*
X136155607Y-72270142D01*
X136127451Y-72239872D01*
X136124611Y-72239146D01*
X135976506Y-72091041D01*
X135963618Y-72069342D01*
X135926666Y-72050866D01*
X135890373Y-72031048D01*
X135887449Y-72031257D01*
X135550492Y-71862779D01*
X135520234Y-71843333D01*
X135489583Y-71843333D01*
X135459409Y-71837903D01*
X135446317Y-71843333D01*
X135235326Y-71843333D01*
X136322236Y-70601150D01*
X136322615Y-70601039D01*
X136351286Y-70567950D01*
X136365184Y-70552067D01*
X136365339Y-70551732D01*
X136380300Y-70534466D01*
X136383446Y-70512584D01*
X136392727Y-70492519D01*
X136389585Y-70469891D01*
X136392837Y-70447274D01*
X136383652Y-70427162D01*
X136380612Y-70405268D01*
X136365736Y-70387931D01*
X136356244Y-70367147D01*
X136337645Y-70355194D01*
X136323249Y-70338417D01*
X136301358Y-70331874D01*
X136282139Y-70319523D01*
X136260033Y-70319523D01*
X136238851Y-70313192D01*
X136216898Y-70319523D01*
X133740336Y-70319523D01*
X133677384Y-70338007D01*
X133619699Y-70404580D01*
X133607162Y-70491772D01*
X133643755Y-70571899D01*
X133717860Y-70619523D01*
X135907529Y-70619523D01*
X134820620Y-71861706D01*
X134820241Y-71861817D01*
X134791571Y-71894905D01*
X134777672Y-71910789D01*
X134777517Y-71911124D01*
X134762556Y-71928390D01*
X134759410Y-71950270D01*
X134750128Y-71970337D01*
X134753271Y-71992968D01*
X134750019Y-72015582D01*
X134759204Y-72035693D01*
X134762244Y-72057588D01*
X134777120Y-72074925D01*
X134786612Y-72095709D01*
X134805211Y-72107662D01*
X134819607Y-72124439D01*
X134841498Y-72130982D01*
X134860717Y-72143333D01*
X134882823Y-72143333D01*
X134904005Y-72149664D01*
X134925958Y-72143333D01*
X135440780Y-72143333D01*
X135768287Y-72307086D01*
X135924340Y-72463139D01*
X136088095Y-72790648D01*
X136088095Y-73672208D01*
X135924341Y-73999716D01*
X135768288Y-74155769D01*
X135440779Y-74319523D01*
X134368743Y-74319523D01*
X134041233Y-74155768D01*
X133852719Y-73967254D01*
X133795135Y-73935810D01*
X133707272Y-73942095D01*
X133636752Y-73994884D01*
X133605969Y-74077418D01*
X132578157Y-74077418D01*
X132575047Y-74033938D01*
X132522258Y-73963419D01*
X132439724Y-73932636D01*
X132353649Y-73951361D01*
X132157067Y-74147943D01*
X131642325Y-74319523D01*
X131310057Y-74319523D01*
X130795312Y-74147942D01*
X130456611Y-73809241D01*
X130284385Y-73464790D01*
X130102380Y-72736774D01*
X130102380Y-72202274D01*
X130284383Y-71474261D01*
X130456612Y-71129805D01*
X130795313Y-70791104D01*
X131310055Y-70619523D01*
X131642326Y-70619523D01*
X132157068Y-70791105D01*
X132337756Y-70971793D01*
X132395340Y-71003237D01*
X132483204Y-70996952D01*
X132553723Y-70944163D01*
X132584506Y-70861629D01*
X132565781Y-70775554D01*
X132349872Y-70559645D01*
X132327313Y-70531625D01*
X132298233Y-70521932D01*
X132271326Y-70507239D01*
X132257189Y-70508250D01*
X131731941Y-70333167D01*
X131710710Y-70319523D01*
X131669397Y-70319523D01*
X131628072Y-70318028D01*
X131625550Y-70319523D01*
X131304518Y-70319523D01*
X131280063Y-70313293D01*
X131240871Y-70326357D01*
X131201194Y-70338007D01*
X131199274Y-70340223D01*
X130674505Y-70515146D01*
X130639362Y-70522791D01*
X130617689Y-70544464D01*
X130592513Y-70561961D01*
X130587095Y-70575058D01*
X130240567Y-70921586D01*
X130218866Y-70934475D01*
X130200385Y-70971438D01*
X130180572Y-71007721D01*
X130180781Y-71010645D01*
X130020642Y-71330923D01*
X130008017Y-71342794D01*
X130001328Y-71369552D01*
X129999047Y-71374113D01*
X129996117Y-71390396D01*
X129812847Y-72123479D01*
X129802380Y-72139765D01*
X129802380Y-72165345D01*
X129801628Y-72168353D01*
X129802380Y-72186858D01*
X129802380Y-72730550D01*
X129796176Y-72748889D01*
X128578571Y-72748889D01*
X128578571Y-72208497D01*
X128584775Y-72190158D01*
X128578571Y-72165342D01*
X128578571Y-72162241D01*
X128573352Y-72144468D01*
X128390096Y-71411444D01*
X128391956Y-71394216D01*
X128379622Y-71369548D01*
X128378385Y-71364600D01*
X128370011Y-71350327D01*
X128190192Y-70990690D01*
X128184827Y-70966029D01*
X128155607Y-70936809D01*
X128127451Y-70906539D01*
X128124611Y-70905813D01*
X127778443Y-70559645D01*
X127755884Y-70531625D01*
X127726804Y-70521932D01*
X127699897Y-70507239D01*
X127685760Y-70508250D01*
X127160512Y-70333167D01*
X127139281Y-70319523D01*
X127097968Y-70319523D01*
X127056643Y-70318028D01*
X127054121Y-70319523D01*
X126153587Y-70319523D01*
X126120607Y-70314781D01*
X126090301Y-70328622D01*
X126058336Y-70338007D01*
X126050862Y-70346633D01*
X126040480Y-70351374D01*
X126022468Y-70379402D01*
X126000651Y-70404580D01*
X125999027Y-70415877D01*
X125992856Y-70425479D01*
X125992856Y-70458792D01*
X125988114Y-70491772D01*
X125992856Y-70502155D01*
X125992856Y-74458792D01*
X125988114Y-74491772D01*
X124196000Y-74491772D01*
X124201964Y-74444678D01*
X124164030Y-74365175D01*
X124089137Y-74318804D01*
X124001060Y-74320284D01*
X123414603Y-74711256D01*
X122714286Y-74886336D01*
X122013967Y-74711257D01*
X121489119Y-74361356D01*
X121139219Y-73836508D01*
X120964139Y-73136190D01*
X121139218Y-72435872D01*
X121489118Y-71911024D01*
X122013965Y-71561125D01*
X122714285Y-71386044D01*
X123414603Y-71561123D01*
X123939452Y-71911023D01*
X124278571Y-72419702D01*
X124278571Y-73291256D01*
X124126291Y-73595816D01*
X123821731Y-73748095D01*
X123728798Y-73748095D01*
X123626190Y-73645487D01*
X123626190Y-72591827D01*
X123632125Y-72575914D01*
X123626190Y-72548632D01*
X123626190Y-72162241D01*
X123607706Y-72099289D01*
X123541133Y-72041604D01*
X123453941Y-72029067D01*
X123373814Y-72065660D01*
X123326190Y-72139765D01*
X123326190Y-72225480D01*
X123318945Y-72221524D01*
X123316020Y-72221733D01*
X122979063Y-72053255D01*
X122948805Y-72033809D01*
X122918154Y-72033809D01*
X122887980Y-72028379D01*
X122874888Y-72033809D01*
X122531884Y-72033809D01*
X122496121Y-72029948D01*
X122468706Y-72043656D01*
X122439289Y-72052293D01*
X122430007Y-72063005D01*
X122092595Y-72231711D01*
X122067935Y-72237075D01*
X122038721Y-72266288D01*
X122008444Y-72294452D01*
X122007718Y-72297292D01*
X121859612Y-72445397D01*
X121837913Y-72458285D01*
X121819436Y-72495240D01*
X121799620Y-72531529D01*
X121799829Y-72534453D01*
X121631350Y-72871412D01*
X121611904Y-72901670D01*
X121611904Y-72932321D01*
X121606474Y-72962495D01*
X121611904Y-72975587D01*
X121611904Y-73318590D01*
X121608043Y-73354354D01*
X121621751Y-73381770D01*
X121630388Y-73411186D01*
X121641100Y-73420468D01*
X121809805Y-73757880D01*
X121815170Y-73782542D01*
X121844397Y-73811768D01*
X121872547Y-73842031D01*
X121875385Y-73842757D01*
X122023493Y-73990863D01*
X122036381Y-74012562D01*
X122073339Y-74031041D01*
X122109626Y-74050855D01*
X122112549Y-74050646D01*
X122449500Y-74219121D01*
X122479765Y-74238571D01*
X122510418Y-74238571D01*
X122540590Y-74244001D01*
X122553682Y-74238571D01*
X122896685Y-74238571D01*
X122932449Y-74242432D01*
X122959865Y-74228724D01*
X122989281Y-74220087D01*
X122998563Y-74209375D01*
X123335975Y-74040670D01*
X123360636Y-74035305D01*
X123389853Y-74006088D01*
X123420126Y-73977928D01*
X123420852Y-73975089D01*
X123476190Y-73919751D01*
X123541462Y-73985023D01*
X123548517Y-74000471D01*
X123572004Y-74015565D01*
X123575851Y-74019412D01*
X123590081Y-74027182D01*
X123622622Y-74048095D01*
X123628379Y-74048095D01*
X123633435Y-74050856D01*
X123672034Y-74048095D01*
X123849066Y-74048095D01*
X123884830Y-74051956D01*
X123912246Y-74038248D01*
X123941662Y-74029611D01*
X123950944Y-74018899D01*
X124270997Y-73858873D01*
X124276825Y-73859079D01*
X124310029Y-73839357D01*
X124324468Y-73832138D01*
X124328502Y-73828385D01*
X124352562Y-73814095D01*
X124360124Y-73798970D01*
X124372507Y-73787452D01*
X124379440Y-73760338D01*
X124559125Y-73400968D01*
X124578571Y-73370710D01*
X124578571Y-73340059D01*
X124584001Y-73309885D01*
X124578571Y-73296793D01*
X124578571Y-72416964D01*
X124579290Y-72415803D01*
X124578571Y-72373015D01*
X124578571Y-72352717D01*
X124578209Y-72351485D01*
X124577810Y-72327727D01*
X124566057Y-72310098D01*
X124560087Y-72289765D01*
X124542128Y-72274203D01*
X124179784Y-71730688D01*
X124167471Y-71702481D01*
X124137653Y-71682602D01*
X124110164Y-71659580D01*
X124101467Y-71658478D01*
X123573700Y-71306633D01*
X123555300Y-71287065D01*
X123516753Y-71277428D01*
X123478817Y-71265593D01*
X123474342Y-71266826D01*
X122756592Y-71087389D01*
X122720634Y-71075224D01*
X122692825Y-71082176D01*
X122664186Y-71083340D01*
X122650910Y-71092655D01*
X121932678Y-71272213D01*
X121905822Y-71272665D01*
X121872761Y-71294705D01*
X121838486Y-71314814D01*
X121836388Y-71318954D01*
X121308782Y-71670692D01*
X121280576Y-71683005D01*
X121260695Y-71712826D01*
X121237675Y-71740313D01*
X121236574Y-71749008D01*
X120884727Y-72276777D01*
X120865160Y-72295175D01*
X120855524Y-72333719D01*
X120843688Y-72371658D01*
X120844921Y-72376133D01*
X120665484Y-73093883D01*
X120653319Y-73129841D01*
X118938008Y-73129841D01*
X119815790Y-70496496D01*
X119818161Y-70430930D01*
X119773246Y-70355153D01*
X119694493Y-70315687D01*
X119606906Y-70325063D01*
X119538292Y-70380305D01*
X118333333Y-73995182D01*
X117135482Y-70401628D01*
X117098039Y-70347751D01*
X117016641Y-70314079D01*
X116929959Y-70329758D01*
X116865516Y-70389811D01*
X116843770Y-70475173D01*
X115064759Y-70475173D01*
X115055645Y-70447832D01*
X115056257Y-70430929D01*
X115041985Y-70406851D01*
X115040244Y-70401628D01*
X115031034Y-70388375D01*
X115011341Y-70355152D01*
X115006129Y-70352540D01*
X115002801Y-70347751D01*
X114967115Y-70332989D01*
X114932588Y-70315686D01*
X114926789Y-70316307D01*
X114921403Y-70314079D01*
X114883412Y-70320951D01*
X114845002Y-70325063D01*
X114840460Y-70328720D01*
X114834721Y-70329758D01*
X114806465Y-70356089D01*
X114776387Y-70380305D01*
X114774543Y-70385836D01*
X114770278Y-70389811D01*
X114760746Y-70427228D01*
X113819503Y-73250959D01*
X113810176Y-73261723D01*
X113805823Y-73291999D01*
X113422306Y-74442550D01*
X113419934Y-74508117D01*
X111915477Y-74508117D01*
X111915477Y-69325000D01*
X142084524Y-69325000D01*
X142084524Y-76675000D01*
G37*
G36*
X123196861Y-72497564D02*
G01*
X123326190Y-72626893D01*
X123326190Y-73645487D01*
X123196860Y-73774817D01*
X122869350Y-73938571D01*
X122559219Y-73938571D01*
X122231710Y-73774816D01*
X122075658Y-73618765D01*
X121911904Y-73291255D01*
X121911904Y-72981124D01*
X122075659Y-72653614D01*
X122231711Y-72497563D01*
X122559220Y-72333809D01*
X122869351Y-72333809D01*
X123196861Y-72497564D01*
G37*
G36*
X127585639Y-70791105D02*
G01*
X127924340Y-71129806D01*
X128096567Y-71474257D01*
X128278571Y-72202274D01*
X128278571Y-72736772D01*
X128096569Y-73464784D01*
X127924339Y-73809242D01*
X127585638Y-74147943D01*
X127070896Y-74319523D01*
X126292856Y-74319523D01*
X126292856Y-70619523D01*
X127070897Y-70619523D01*
X127585639Y-70791105D01*
G37*
G36*
X115649030Y-73176666D02*
G01*
X114160495Y-73176666D01*
X114904762Y-70943864D01*
X115649030Y-73176666D01*
G37*
G36*
X139387337Y-70783279D02*
G01*
X139543388Y-70939330D01*
X139715614Y-71283782D01*
X139897619Y-72011798D01*
X139897619Y-72927248D01*
X139715615Y-73655263D01*
X139543387Y-73999718D01*
X139387336Y-74155769D01*
X139059827Y-74319523D01*
X138749695Y-74319523D01*
X138422186Y-74155768D01*
X138266135Y-73999717D01*
X138093909Y-73655267D01*
X137911904Y-72927250D01*
X137911904Y-72011798D01*
X138093907Y-71283785D01*
X138266136Y-70939329D01*
X138422187Y-70783278D01*
X138749695Y-70619523D01*
X139059828Y-70619523D01*
X139387337Y-70783279D01*
G37*
D12*
G36*
X134810714Y-91255000D02*
G01*
X119189286Y-91255000D01*
X119189286Y-86142728D01*
X121851617Y-86142728D01*
X121864285Y-86173272D01*
X121864285Y-86370451D01*
X121855276Y-86453890D01*
X121887264Y-86517866D01*
X121907416Y-86586498D01*
X121932407Y-86608153D01*
X122024469Y-86792277D01*
X122036986Y-86849819D01*
X122105182Y-86918015D01*
X122170866Y-86988629D01*
X122177490Y-86990323D01*
X122221484Y-87034317D01*
X122251555Y-87084947D01*
X122337812Y-87128075D01*
X122422460Y-87174297D01*
X122429280Y-87173809D01*
X122573431Y-87245884D01*
X122601126Y-87275339D01*
X122663556Y-87290946D01*
X122674199Y-87296268D01*
X122712185Y-87303104D01*
X123234982Y-87433803D01*
X123435530Y-87534076D01*
X123498065Y-87596611D01*
X123578571Y-87757623D01*
X123578571Y-87878090D01*
X123498065Y-88039102D01*
X123435532Y-88101636D01*
X123274519Y-88182142D01*
X122699653Y-88182142D01*
X122277225Y-88041333D01*
X122124233Y-88035799D01*
X121947419Y-88140600D01*
X121855334Y-88324356D01*
X121877213Y-88528727D01*
X122006110Y-88688826D01*
X122490548Y-88850305D01*
X122540088Y-88882142D01*
X122636536Y-88882142D01*
X122732909Y-88885628D01*
X122738790Y-88882142D01*
X123338308Y-88882142D01*
X123421747Y-88891151D01*
X123485723Y-88859163D01*
X123554355Y-88839011D01*
X123576010Y-88814020D01*
X123760134Y-88721958D01*
X123817676Y-88709441D01*
X123885872Y-88641245D01*
X123956486Y-88575561D01*
X123958180Y-88568937D01*
X124002174Y-88524943D01*
X124052804Y-88494872D01*
X124095933Y-88408613D01*
X124142154Y-88323967D01*
X124141666Y-88317147D01*
X124233195Y-88134089D01*
X124278571Y-88063483D01*
X124278571Y-87991953D01*
X124291239Y-87921557D01*
X124278571Y-87891013D01*
X124278571Y-87693834D01*
X124287580Y-87610395D01*
X124255592Y-87546419D01*
X124235440Y-87477787D01*
X124210449Y-87456132D01*
X124118387Y-87272008D01*
X124105870Y-87214466D01*
X124037673Y-87146269D01*
X123971990Y-87075657D01*
X123965367Y-87073963D01*
X123921373Y-87029970D01*
X123891301Y-86979338D01*
X123805037Y-86936206D01*
X123720396Y-86889988D01*
X123713576Y-86890476D01*
X123569427Y-86818402D01*
X123541731Y-86788946D01*
X123479299Y-86773338D01*
X123468657Y-86768017D01*
X123430674Y-86761182D01*
X122907873Y-86630482D01*
X122707325Y-86530208D01*
X122644791Y-86467675D01*
X122564285Y-86306662D01*
X122564285Y-86186195D01*
X122644790Y-86025184D01*
X122707325Y-85962649D01*
X122868338Y-85882142D01*
X123443203Y-85882142D01*
X123865631Y-86022952D01*
X124018623Y-86028486D01*
X124195436Y-85923685D01*
X124287522Y-85739930D01*
X124270835Y-85584055D01*
X124424651Y-85584055D01*
X124510035Y-85771019D01*
X124682945Y-85882142D01*
X125292857Y-85882142D01*
X125292857Y-88582464D01*
X125335988Y-88729355D01*
X125491324Y-88863954D01*
X125694770Y-88893205D01*
X125881734Y-88807821D01*
X125992857Y-88634911D01*
X125992857Y-88622194D01*
X126717942Y-88622194D01*
X126822743Y-88799008D01*
X127006499Y-88891093D01*
X127210869Y-88869214D01*
X127370969Y-88740317D01*
X127609408Y-88025000D01*
X128533448Y-88025000D01*
X128755302Y-88690562D01*
X128842671Y-88816275D01*
X129032599Y-88894846D01*
X129234855Y-88858260D01*
X129385224Y-88718135D01*
X129435966Y-88518958D01*
X129143934Y-87642862D01*
X129146777Y-87623087D01*
X129111847Y-87546601D01*
X128981475Y-87155484D01*
X129710365Y-87155484D01*
X129721428Y-87179708D01*
X129721428Y-88582464D01*
X129764559Y-88729355D01*
X129919895Y-88863954D01*
X130123341Y-88893205D01*
X130310305Y-88807821D01*
X130421428Y-88634911D01*
X130421428Y-87453571D01*
X130603485Y-87453571D01*
X131527840Y-88774079D01*
X131647411Y-88869683D01*
X131851855Y-88890871D01*
X132035299Y-88798166D01*
X132139501Y-88621000D01*
X132131379Y-88415622D01*
X131420488Y-87400064D01*
X131433153Y-87385449D01*
X131617277Y-87293387D01*
X131674819Y-87280870D01*
X131743015Y-87212674D01*
X131813629Y-87146990D01*
X131815323Y-87140366D01*
X131859317Y-87096372D01*
X131909947Y-87066301D01*
X131953075Y-86980044D01*
X131999297Y-86895396D01*
X131998809Y-86888576D01*
X132090338Y-86705517D01*
X132135714Y-86634911D01*
X132135714Y-86563381D01*
X132148382Y-86492985D01*
X132135714Y-86462441D01*
X132135714Y-86122405D01*
X132144723Y-86038966D01*
X132112735Y-85974990D01*
X132092583Y-85906358D01*
X132067592Y-85884703D01*
X131975530Y-85700580D01*
X131963013Y-85643038D01*
X131894821Y-85574846D01*
X131829133Y-85504228D01*
X131822508Y-85502534D01*
X131778516Y-85458541D01*
X131748444Y-85407910D01*
X131662173Y-85364774D01*
X131577539Y-85318560D01*
X131570720Y-85319048D01*
X131387658Y-85227516D01*
X131317054Y-85182142D01*
X131245525Y-85182142D01*
X131175129Y-85169474D01*
X131144585Y-85182142D01*
X130096460Y-85182142D01*
X130019515Y-85171079D01*
X129948804Y-85203372D01*
X129874215Y-85225273D01*
X129856775Y-85245400D01*
X129832551Y-85256463D01*
X129790524Y-85321857D01*
X129739616Y-85380609D01*
X129735826Y-85406969D01*
X129721428Y-85429373D01*
X129721428Y-85507110D01*
X129710365Y-85584055D01*
X129721428Y-85608279D01*
X129721428Y-87078539D01*
X129710365Y-87155484D01*
X128981475Y-87155484D01*
X128423488Y-85481524D01*
X128424914Y-85442089D01*
X128391617Y-85385913D01*
X128387554Y-85373723D01*
X128366064Y-85342801D01*
X128320113Y-85265276D01*
X128307949Y-85259180D01*
X128300185Y-85248009D01*
X128216925Y-85213566D01*
X128136357Y-85173191D01*
X128122828Y-85174639D01*
X128110257Y-85169439D01*
X128021590Y-85185477D01*
X127931987Y-85195070D01*
X127921389Y-85203602D01*
X127908001Y-85206024D01*
X127842077Y-85267456D01*
X127771887Y-85323967D01*
X127767584Y-85336875D01*
X127757632Y-85346149D01*
X127735387Y-85433467D01*
X127047093Y-87498352D01*
X127025330Y-87523467D01*
X127015173Y-87594110D01*
X126723476Y-88469202D01*
X126717942Y-88622194D01*
X125992857Y-88622194D01*
X125992857Y-85882142D01*
X126550322Y-85882142D01*
X126697213Y-85839011D01*
X126831812Y-85683675D01*
X126861063Y-85480229D01*
X126775679Y-85293265D01*
X126602769Y-85182142D01*
X125667889Y-85182142D01*
X125590944Y-85171079D01*
X125566720Y-85182142D01*
X124735392Y-85182142D01*
X124588501Y-85225273D01*
X124453902Y-85380609D01*
X124424651Y-85584055D01*
X124270835Y-85584055D01*
X124265643Y-85535559D01*
X124136747Y-85375460D01*
X123652308Y-85213979D01*
X123602768Y-85182142D01*
X123506321Y-85182142D01*
X123409947Y-85178656D01*
X123404066Y-85182142D01*
X122804551Y-85182142D01*
X122721108Y-85173133D01*
X122657131Y-85205121D01*
X122588501Y-85225273D01*
X122566846Y-85250264D01*
X122382720Y-85342327D01*
X122325180Y-85354844D01*
X122256991Y-85423033D01*
X122186370Y-85488725D01*
X122184676Y-85495348D01*
X122140684Y-85539341D01*
X122090052Y-85569413D01*
X122046919Y-85655679D01*
X122000702Y-85740318D01*
X122001190Y-85747138D01*
X121909661Y-85930196D01*
X121864285Y-86000802D01*
X121864285Y-86072332D01*
X121851617Y-86142728D01*
X119189286Y-86142728D01*
X119189286Y-82371615D01*
X121421239Y-82371615D01*
X121435714Y-82429515D01*
X121435714Y-82436750D01*
X121447888Y-82478210D01*
X121573902Y-82982267D01*
X121569562Y-83022462D01*
X121598340Y-83080017D01*
X121601226Y-83091563D01*
X121620761Y-83124860D01*
X121738755Y-83360848D01*
X121751272Y-83418390D01*
X121819465Y-83486583D01*
X121885152Y-83557200D01*
X121891776Y-83558894D01*
X122096337Y-83763454D01*
X122148968Y-83828826D01*
X122216826Y-83851445D01*
X122279605Y-83885725D01*
X122312588Y-83883366D01*
X122633406Y-83990305D01*
X122682945Y-84022142D01*
X122779392Y-84022142D01*
X122875766Y-84025628D01*
X122881647Y-84022142D01*
X123027546Y-84022142D01*
X123084612Y-84036680D01*
X123176114Y-84006179D01*
X123268641Y-83979011D01*
X123273117Y-83973845D01*
X123592809Y-83867281D01*
X123674819Y-83849441D01*
X123725397Y-83798863D01*
X123784133Y-83758043D01*
X123796774Y-83727486D01*
X123845694Y-83678566D01*
X123881734Y-83662107D01*
X123916950Y-83607310D01*
X123925927Y-83598333D01*
X123944056Y-83565133D01*
X123992857Y-83489197D01*
X123992857Y-83475761D01*
X123999297Y-83463967D01*
X123992857Y-83373930D01*
X123992857Y-82657329D01*
X124421239Y-82657329D01*
X124435714Y-82715229D01*
X124435714Y-82722464D01*
X124447888Y-82763924D01*
X124587715Y-83323233D01*
X124608415Y-83418390D01*
X124649380Y-83459355D01*
X124678695Y-83509322D01*
X124720563Y-83530538D01*
X124935771Y-83745745D01*
X124965842Y-83796375D01*
X125052099Y-83839503D01*
X125136748Y-83885725D01*
X125143567Y-83885237D01*
X125326625Y-83976766D01*
X125397231Y-84022142D01*
X125468761Y-84022142D01*
X125539157Y-84034810D01*
X125569701Y-84022142D01*
X126052594Y-84022142D01*
X126136033Y-84031151D01*
X126200009Y-83999163D01*
X126268641Y-83979011D01*
X126290296Y-83954020D01*
X126474420Y-83861958D01*
X126531962Y-83849441D01*
X126600158Y-83781245D01*
X126661640Y-83724055D01*
X127710365Y-83724055D01*
X127742658Y-83794766D01*
X127764559Y-83869355D01*
X127784686Y-83886795D01*
X127795749Y-83911019D01*
X127861143Y-83953046D01*
X127919895Y-84003954D01*
X127946255Y-84007744D01*
X127968659Y-84022142D01*
X128046396Y-84022142D01*
X128123341Y-84033205D01*
X128147565Y-84022142D01*
X129550322Y-84022142D01*
X129697213Y-83979011D01*
X129831812Y-83823675D01*
X129846135Y-83724055D01*
X130138936Y-83724055D01*
X130171229Y-83794766D01*
X130193130Y-83869355D01*
X130213257Y-83886795D01*
X130224320Y-83911019D01*
X130289714Y-83953046D01*
X130348466Y-84003954D01*
X130374826Y-84007744D01*
X130397230Y-84022142D01*
X130474967Y-84022142D01*
X130551912Y-84033205D01*
X130576136Y-84022142D01*
X131170403Y-84022142D01*
X131227469Y-84036680D01*
X131318970Y-84006180D01*
X131411498Y-83979011D01*
X131415975Y-83973845D01*
X131735667Y-83867280D01*
X131817674Y-83849441D01*
X131868252Y-83798863D01*
X131926989Y-83758042D01*
X131939629Y-83727486D01*
X132145030Y-83522087D01*
X132195661Y-83492015D01*
X132238794Y-83405748D01*
X132285010Y-83321110D01*
X132284522Y-83314292D01*
X132356598Y-83170140D01*
X132386053Y-83142445D01*
X132401660Y-83080015D01*
X132406982Y-83069372D01*
X132413818Y-83031386D01*
X132539865Y-82527194D01*
X132564285Y-82489197D01*
X132564285Y-82429516D01*
X132566040Y-82422496D01*
X132564285Y-82379315D01*
X132564285Y-82015456D01*
X132578760Y-81972670D01*
X132564285Y-81914770D01*
X132564285Y-81907535D01*
X132552111Y-81866075D01*
X132426097Y-81362018D01*
X132430437Y-81321823D01*
X132401660Y-81264269D01*
X132398773Y-81252721D01*
X132379236Y-81219420D01*
X132261243Y-80983435D01*
X132248726Y-80925894D01*
X132180534Y-80857702D01*
X132114847Y-80787085D01*
X132108223Y-80785391D01*
X131903661Y-80580830D01*
X131851032Y-80515460D01*
X131783175Y-80492841D01*
X131720394Y-80458560D01*
X131687411Y-80460919D01*
X131366594Y-80353980D01*
X131317054Y-80322142D01*
X131220607Y-80322142D01*
X131124234Y-80318656D01*
X131118353Y-80322142D01*
X130525031Y-80322142D01*
X130448086Y-80311079D01*
X130377375Y-80343372D01*
X130302786Y-80365273D01*
X130285346Y-80385400D01*
X130261122Y-80396463D01*
X130219095Y-80461857D01*
X130168187Y-80520609D01*
X130164397Y-80546969D01*
X130149999Y-80569373D01*
X130149999Y-80647110D01*
X130138936Y-80724055D01*
X130149999Y-80748279D01*
X130149999Y-83647110D01*
X130138936Y-83724055D01*
X129846135Y-83724055D01*
X129861063Y-83620229D01*
X129775679Y-83433265D01*
X129602769Y-83322142D01*
X128421428Y-83322142D01*
X128421428Y-80621820D01*
X128378297Y-80474929D01*
X128222961Y-80340330D01*
X128019515Y-80311079D01*
X127832551Y-80396463D01*
X127721428Y-80569373D01*
X127721428Y-83647110D01*
X127710365Y-83724055D01*
X126661640Y-83724055D01*
X126670772Y-83715561D01*
X126672466Y-83708937D01*
X126886545Y-83494858D01*
X126957482Y-83428159D01*
X126971533Y-83371956D01*
X126999297Y-83321109D01*
X126995949Y-83274292D01*
X127111294Y-82812908D01*
X127135714Y-82774911D01*
X127135714Y-82715230D01*
X127137469Y-82708210D01*
X127135714Y-82665029D01*
X127135714Y-81729742D01*
X127150189Y-81686956D01*
X127135714Y-81629056D01*
X127135714Y-81621820D01*
X127123539Y-81580355D01*
X126983710Y-81021038D01*
X126963013Y-80925896D01*
X126922048Y-80884931D01*
X126892732Y-80834963D01*
X126850864Y-80813747D01*
X126635659Y-80598542D01*
X126605587Y-80547910D01*
X126519316Y-80504774D01*
X126434682Y-80458560D01*
X126427863Y-80459048D01*
X126244801Y-80367516D01*
X126174197Y-80322142D01*
X126102668Y-80322142D01*
X126032272Y-80309474D01*
X126001728Y-80322142D01*
X125518836Y-80322142D01*
X125435393Y-80313133D01*
X125371416Y-80345122D01*
X125302787Y-80365273D01*
X125281132Y-80390264D01*
X125097008Y-80482327D01*
X125039468Y-80494844D01*
X124971275Y-80563037D01*
X124900657Y-80628725D01*
X124898963Y-80635348D01*
X124684904Y-80849407D01*
X124613946Y-80916125D01*
X124599895Y-80972330D01*
X124572131Y-81023175D01*
X124575479Y-81069992D01*
X124460134Y-81531376D01*
X124435714Y-81569373D01*
X124435714Y-81629054D01*
X124433959Y-81636074D01*
X124435714Y-81679255D01*
X124435714Y-82614542D01*
X124421239Y-82657329D01*
X123992857Y-82657329D01*
X123992857Y-82411460D01*
X124003920Y-82334515D01*
X123971627Y-82263804D01*
X123949726Y-82189215D01*
X123929599Y-82171775D01*
X123918536Y-82147551D01*
X123853142Y-82105524D01*
X123794390Y-82054616D01*
X123768030Y-82050826D01*
X123745626Y-82036428D01*
X123667889Y-82036428D01*
X123590944Y-82025365D01*
X123566720Y-82036428D01*
X123021106Y-82036428D01*
X122874215Y-82079559D01*
X122739616Y-82234895D01*
X122710365Y-82438341D01*
X122795749Y-82625305D01*
X122968659Y-82736428D01*
X123292857Y-82736428D01*
X123292857Y-83229400D01*
X123014631Y-83322142D01*
X122842511Y-83322142D01*
X122546207Y-83223374D01*
X122359076Y-83036244D01*
X122258803Y-82835697D01*
X122135714Y-82343341D01*
X122135714Y-82000945D01*
X122258803Y-81508587D01*
X122359077Y-81308040D01*
X122546206Y-81120912D01*
X122842513Y-81022142D01*
X123131661Y-81022142D01*
X123388483Y-81150554D01*
X123539155Y-81177668D01*
X123729013Y-81098927D01*
X123846160Y-80930041D01*
X123853404Y-80724630D01*
X123748445Y-80547911D01*
X123387660Y-80367517D01*
X123317055Y-80322142D01*
X123245526Y-80322142D01*
X123175130Y-80309474D01*
X123144585Y-80322142D01*
X122829595Y-80322142D01*
X122772529Y-80307604D01*
X122681025Y-80338106D01*
X122588501Y-80365273D01*
X122584024Y-80370439D01*
X122264329Y-80477005D01*
X122182325Y-80494844D01*
X122131749Y-80545420D01*
X122073009Y-80586243D01*
X122060368Y-80616800D01*
X121854969Y-80822198D01*
X121804338Y-80852270D01*
X121761209Y-80938529D01*
X121714988Y-81023175D01*
X121715476Y-81029995D01*
X121643400Y-81174146D01*
X121613946Y-81201841D01*
X121598339Y-81264269D01*
X121593017Y-81274913D01*
X121586181Y-81312902D01*
X121460134Y-81817090D01*
X121435714Y-81855088D01*
X121435714Y-81914769D01*
X121433959Y-81921789D01*
X121435714Y-81964970D01*
X121435714Y-82328828D01*
X121421239Y-82371615D01*
X119189286Y-82371615D01*
X119189286Y-78745000D01*
X134810714Y-78745000D01*
X134810714Y-91255000D01*
G37*
G36*
X128300115Y-87325000D02*
G01*
X127842741Y-87325000D01*
X128071428Y-86638939D01*
X128300115Y-87325000D01*
G37*
G36*
X131292674Y-85962649D02*
G01*
X131355209Y-86025184D01*
X131435714Y-86186195D01*
X131435714Y-86449519D01*
X131355208Y-86610531D01*
X131292675Y-86673065D01*
X131131662Y-86753571D01*
X130803800Y-86753571D01*
X130719573Y-86744842D01*
X130702300Y-86753571D01*
X130421428Y-86753571D01*
X130421428Y-85882142D01*
X131131661Y-85882142D01*
X131292674Y-85962649D01*
G37*
G36*
X131453792Y-81120911D02*
G01*
X131640923Y-81308041D01*
X131741196Y-81508589D01*
X131864285Y-82000943D01*
X131864285Y-82343341D01*
X131741196Y-82835698D01*
X131640922Y-83036245D01*
X131453792Y-83223374D01*
X131157488Y-83322142D01*
X130849999Y-83322142D01*
X130849999Y-81022142D01*
X131157488Y-81022142D01*
X131453792Y-81120911D01*
G37*
G36*
X126149817Y-81102649D02*
G01*
X126326820Y-81279652D01*
X126435714Y-81715229D01*
X126435714Y-82629055D01*
X126326819Y-83064635D01*
X126149819Y-83241635D01*
X125988805Y-83322142D01*
X125582624Y-83322142D01*
X125421612Y-83241636D01*
X125244608Y-83064633D01*
X125135714Y-82629055D01*
X125135714Y-81715230D01*
X125244608Y-81279651D01*
X125421612Y-81102648D01*
X125582624Y-81022142D01*
X125988804Y-81022142D01*
X126149817Y-81102649D01*
G37*
G36*
X129702128Y-63067660D02*
G01*
X129702128Y-69012340D01*
X124297873Y-69012340D01*
X124297873Y-68412964D01*
X124901334Y-68412964D01*
X124924179Y-68534281D01*
X124982525Y-68615366D01*
X125076348Y-68655993D01*
X125136400Y-68661064D01*
X125236779Y-68650133D01*
X125334922Y-68623515D01*
X125342417Y-68620508D01*
X125454558Y-68561094D01*
X125592182Y-68468092D01*
X125745499Y-68348855D01*
X125904716Y-68210736D01*
X125973192Y-68146763D01*
X126052668Y-68070141D01*
X126102013Y-68020149D01*
X126118978Y-67997605D01*
X126101310Y-68003326D01*
X126046757Y-68038129D01*
X125953070Y-68102832D01*
X125817995Y-68198251D01*
X125804017Y-68208171D01*
X125608591Y-68339004D01*
X125438951Y-68436366D01*
X125297607Y-68499365D01*
X125187068Y-68527107D01*
X125109846Y-68518698D01*
X125068451Y-68473245D01*
X125067481Y-68470346D01*
X125062492Y-68380705D01*
X125090975Y-68248667D01*
X125152931Y-68074225D01*
X125248364Y-67857371D01*
X125284093Y-67782872D01*
X125363649Y-67619054D01*
X125423717Y-67499006D01*
X125469992Y-67418679D01*
X125508168Y-67374029D01*
X125543943Y-67361007D01*
X125583010Y-67375568D01*
X125631066Y-67413665D01*
X125693806Y-67471250D01*
X125706448Y-67482783D01*
X125898432Y-67629420D01*
X126125527Y-67757748D01*
X126369621Y-67858840D01*
X126593659Y-67920121D01*
X126894750Y-67953206D01*
X127197103Y-67934888D01*
X127493059Y-67867062D01*
X127774958Y-67751628D01*
X128035142Y-67590480D01*
X128087434Y-67550104D01*
X128314515Y-67340028D01*
X128497545Y-67106848D01*
X128642680Y-66841783D01*
X128719700Y-66647979D01*
X128750469Y-66555079D01*
X128771553Y-66474612D01*
X128784752Y-66392389D01*
X128791864Y-66294222D01*
X128794688Y-66165919D01*
X128795078Y-66053511D01*
X128794150Y-65896429D01*
X128790164Y-65779185D01*
X128781323Y-65687591D01*
X128765826Y-65607457D01*
X128741876Y-65524594D01*
X128719700Y-65459042D01*
X128628092Y-65231173D01*
X128519667Y-65034184D01*
X128381474Y-64845054D01*
X128359048Y-64817933D01*
X128281865Y-64734147D01*
X128185875Y-64641889D01*
X128083572Y-64551932D01*
X127987452Y-64475048D01*
X127910010Y-64422008D01*
X127884331Y-64408682D01*
X127886034Y-64385345D01*
X127923526Y-64335422D01*
X127989828Y-64265365D01*
X128077962Y-64181624D01*
X128180948Y-64090651D01*
X128291807Y-63998896D01*
X128403559Y-63912810D01*
X128478672Y-63859316D01*
X128592247Y-63784741D01*
X128676723Y-63738151D01*
X128745078Y-63713618D01*
X128810291Y-63705214D01*
X128816438Y-63705047D01*
X128932021Y-63702660D01*
X128930649Y-63864787D01*
X128921098Y-63986711D01*
X128898200Y-64120059D01*
X128880798Y-64188510D01*
X128832319Y-64350106D01*
X128652613Y-64154012D01*
X128638037Y-64279612D01*
X128629196Y-64366395D01*
X128618703Y-64484970D01*
X128608488Y-64613208D01*
X128606087Y-64645789D01*
X128588714Y-64886366D01*
X128653599Y-64834938D01*
X128779481Y-64733559D01*
X128896356Y-64636480D01*
X128997209Y-64549825D01*
X129075025Y-64479715D01*
X129122792Y-64432271D01*
X129134681Y-64415088D01*
X129110489Y-64401276D01*
X129049133Y-64392881D01*
X129010194Y-64391702D01*
X128931353Y-64387077D01*
X128899774Y-64371952D01*
X128900582Y-64357925D01*
X128991426Y-64135265D01*
X129049558Y-63952440D01*
X129075188Y-63806427D01*
X129068524Y-63694204D01*
X129029775Y-63612748D01*
X128959152Y-63559035D01*
X128955945Y-63557548D01*
X128849429Y-63532219D01*
X128722257Y-63545178D01*
X128572357Y-63597421D01*
X128397660Y-63689944D01*
X128196092Y-63823743D01*
X127965585Y-63999814D01*
X127864730Y-64082373D01*
X127760230Y-64168312D01*
X127687392Y-64224031D01*
X127636923Y-64254570D01*
X127599532Y-64264969D01*
X127565927Y-64260270D01*
X127548230Y-64254061D01*
X127447708Y-64223812D01*
X127313715Y-64194648D01*
X127166770Y-64170069D01*
X127027389Y-64153570D01*
X126928931Y-64148511D01*
X126671611Y-64171551D01*
X126400983Y-64238470D01*
X126130089Y-64345962D01*
X126108367Y-64356424D01*
X125850526Y-64511655D01*
X125619334Y-64709633D01*
X125420533Y-64943273D01*
X125259863Y-65205488D01*
X125143064Y-65489192D01*
X125116600Y-65580638D01*
X125088157Y-65738253D01*
X125073123Y-65928248D01*
X125071500Y-66130651D01*
X125083290Y-66325488D01*
X125108496Y-66492788D01*
X125116480Y-66526383D01*
X125151878Y-66637670D01*
X125203351Y-66770048D01*
X125260636Y-66897420D01*
X125269019Y-66914329D01*
X125375873Y-67126636D01*
X125258413Y-67346669D01*
X125191247Y-67480370D01*
X125119538Y-67635577D01*
X125056780Y-67782853D01*
X125046050Y-67809894D01*
X124962246Y-68050544D01*
X124914015Y-68251643D01*
X124901334Y-68412964D01*
X124297873Y-68412964D01*
X124297873Y-63067660D01*
X129702128Y-63067660D01*
G37*
G36*
X126044105Y-66603590D02*
G01*
X126071913Y-66663126D01*
X126092344Y-66716036D01*
X126144130Y-66834775D01*
X126222054Y-66981597D01*
X126317989Y-67142795D01*
X126423806Y-67304660D01*
X126523866Y-67443661D01*
X126583059Y-67523762D01*
X126625483Y-67585562D01*
X126643833Y-67618279D01*
X126643783Y-67620669D01*
X126615607Y-67617591D01*
X126551513Y-67601315D01*
X126486596Y-67581933D01*
X126251978Y-67489212D01*
X126045778Y-67364203D01*
X125874331Y-67220135D01*
X125695413Y-67050627D01*
X125851869Y-66815526D01*
X125918044Y-66718465D01*
X125973936Y-66640901D01*
X126012566Y-66592260D01*
X126025952Y-66580425D01*
X126044105Y-66603590D01*
G37*
G36*
X128500361Y-66274567D02*
G01*
X128433625Y-66550288D01*
X128321679Y-66807641D01*
X128169614Y-67040772D01*
X127982524Y-67243828D01*
X127765504Y-67410956D01*
X127523646Y-67536301D01*
X127352814Y-67593318D01*
X127212811Y-67630250D01*
X127288799Y-67531605D01*
X127508059Y-67221839D01*
X127682257Y-66921092D01*
X127809688Y-66632744D01*
X127888650Y-66360175D01*
X127894781Y-66328723D01*
X127928065Y-66148085D01*
X128519328Y-66148085D01*
X128500361Y-66274567D01*
G37*
G36*
X126837873Y-66823617D02*
G01*
X126837364Y-67008269D01*
X126835932Y-67173677D01*
X126833720Y-67312605D01*
X126830871Y-67417818D01*
X126827527Y-67482082D01*
X126824555Y-67499149D01*
X126803744Y-67478865D01*
X126759223Y-67424557D01*
X126698885Y-67346042D01*
X126667067Y-67303245D01*
X126478453Y-67025936D01*
X126333288Y-66764441D01*
X126260933Y-66601490D01*
X126217409Y-66486658D01*
X126196350Y-66406374D01*
X126197650Y-66346081D01*
X126221203Y-66291224D01*
X126258290Y-66238455D01*
X126327219Y-66148085D01*
X126837873Y-66148085D01*
X126837873Y-66823617D01*
G37*
G36*
X127712952Y-66235904D02*
G01*
X127641567Y-66517878D01*
X127524336Y-66795836D01*
X127502709Y-66837681D01*
X127447320Y-66935886D01*
X127378724Y-67047792D01*
X127303239Y-67164227D01*
X127227185Y-67276024D01*
X127156882Y-67374013D01*
X127098648Y-67449026D01*
X127058804Y-67491894D01*
X127047287Y-67498447D01*
X127041748Y-67472830D01*
X127036787Y-67400396D01*
X127032619Y-67288371D01*
X127029463Y-67143980D01*
X127027534Y-66974448D01*
X127027021Y-66823617D01*
X127027021Y-66148085D01*
X127728224Y-66148085D01*
X127712952Y-66235904D01*
G37*
G36*
X125870995Y-66153198D02*
G01*
X125920088Y-66160038D01*
X125942077Y-66173090D01*
X125946170Y-66188229D01*
X125931778Y-66225402D01*
X125892403Y-66297318D01*
X125833752Y-66394235D01*
X125761529Y-66506411D01*
X125747256Y-66527879D01*
X125548341Y-66825558D01*
X125493079Y-66696236D01*
X125416109Y-66478008D01*
X125375449Y-66273167D01*
X125373759Y-66256170D01*
X125365213Y-66161596D01*
X125655692Y-66153926D01*
X125785846Y-66151513D01*
X125870995Y-66153198D01*
G37*
G36*
X126648724Y-64485951D02*
G01*
X126633578Y-64510621D01*
X126593028Y-64568037D01*
X126534400Y-64647942D01*
X126502401Y-64690728D01*
X126305146Y-64982076D01*
X126146655Y-65278098D01*
X126030719Y-65570638D01*
X125961126Y-65851543D01*
X125960132Y-65857606D01*
X125943722Y-65958936D01*
X125661223Y-65958936D01*
X125544666Y-65957128D01*
X125450951Y-65952240D01*
X125391406Y-65945077D01*
X125375986Y-65938670D01*
X125377364Y-65837038D01*
X125400445Y-65703900D01*
X125440992Y-65555161D01*
X125494769Y-65406727D01*
X125548354Y-65291473D01*
X125674401Y-65098810D01*
X125839473Y-64914646D01*
X126028864Y-64753295D01*
X126227872Y-64629069D01*
X126229894Y-64628046D01*
X126307363Y-64592716D01*
X126399285Y-64556178D01*
X126492508Y-64522894D01*
X126573879Y-64497327D01*
X126630245Y-64483940D01*
X126648724Y-64485951D01*
G37*
G36*
X126832267Y-65551484D02*
G01*
X126835927Y-65617622D01*
X126837768Y-65712222D01*
X126837873Y-65742766D01*
X126837873Y-65958936D01*
X126660639Y-65958936D01*
X126563378Y-65956407D01*
X126512581Y-65947759D01*
X126500857Y-65931403D01*
X126503609Y-65925160D01*
X126531289Y-65885846D01*
X126580449Y-65821849D01*
X126641923Y-65744454D01*
X126706540Y-65664947D01*
X126765131Y-65594616D01*
X126808528Y-65544745D01*
X126827406Y-65526596D01*
X126832267Y-65551484D01*
G37*
G36*
X127384378Y-65055463D02*
G01*
X127550042Y-65359323D01*
X127664755Y-65664340D01*
X127712952Y-65871117D01*
X127728224Y-65958936D01*
X127027021Y-65958936D01*
X127027119Y-65269894D01*
X127171551Y-65108506D01*
X127315982Y-64947118D01*
X127384378Y-65055463D01*
G37*
G36*
X127832558Y-64743076D02*
G01*
X128056920Y-64932576D01*
X128239206Y-65155327D01*
X128377251Y-65408193D01*
X128459740Y-65650500D01*
X128493583Y-65782446D01*
X128510199Y-65870273D01*
X128502662Y-65922913D01*
X128464047Y-65949299D01*
X128387431Y-65958362D01*
X128265888Y-65959035D01*
X128220628Y-65958936D01*
X127928065Y-65958936D01*
X127895282Y-65781016D01*
X127816285Y-65485320D01*
X127687289Y-65188346D01*
X127590709Y-65016697D01*
X127453252Y-64790521D01*
X127545429Y-64698344D01*
X127637607Y-64606167D01*
X127832558Y-64743076D01*
G37*
G36*
X126832111Y-64842750D02*
G01*
X126839859Y-65091138D01*
X126588919Y-65398581D01*
X126491397Y-65518086D01*
X126398401Y-65632086D01*
X126318974Y-65729493D01*
X126262162Y-65799216D01*
X126251582Y-65812214D01*
X126200796Y-65871212D01*
X126174192Y-65890450D01*
X126164482Y-65874105D01*
X126163763Y-65862511D01*
X126177333Y-65757779D01*
X126219332Y-65619805D01*
X126285214Y-65458163D01*
X126370430Y-65282423D01*
X126470434Y-65102160D01*
X126580677Y-64926946D01*
X126664519Y-64808383D01*
X126824362Y-64594362D01*
X126832111Y-64842750D01*
G37*
G36*
X127072229Y-64624554D02*
G01*
X127117004Y-64677419D01*
X127118200Y-64679056D01*
X127149427Y-64726726D01*
X127149813Y-64759869D01*
X127116081Y-64801187D01*
X127097934Y-64819455D01*
X127027021Y-64890367D01*
X127027021Y-64749120D01*
X127030843Y-64657634D01*
X127044710Y-64617036D01*
X127072229Y-64624554D01*
G37*
G36*
X127287251Y-64493848D02*
G01*
X127333605Y-64513044D01*
X127343962Y-64535241D01*
X127314356Y-64570008D01*
X127273727Y-64557260D01*
X127252133Y-64531084D01*
X127235645Y-64495741D01*
X127257945Y-64489117D01*
X127287251Y-64493848D01*
G37*
D13*
X124459999Y-76799999D03*
D14*
X124459999Y-79339999D03*
X126999999Y-76799999D03*
X126999999Y-79339999D03*
X129539999Y-76799999D03*
X129539999Y-79339999D03*
M02*
