G04 #@! TF.GenerationSoftware,KiCad,Pcbnew,(6.99.0-1934-gfe17dca71f)*
G04 #@! TF.CreationDate,2022-05-23T00:26:23-05:00*
G04 #@! TF.ProjectId,gold_star_v2_SAO,676f6c64-5f73-4746-9172-5f76325f5341,rev?*
G04 #@! TF.SameCoordinates,Original*
G04 #@! TF.FileFunction,Legend,Bot*
G04 #@! TF.FilePolarity,Positive*
%FSLAX46Y46*%
G04 Gerber Fmt 4.6, Leading zero omitted, Abs format (unit mm)*
G04 Created by KiCad (PCBNEW (6.99.0-1934-gfe17dca71f)) date 2022-05-23 00:26:23*
%MOMM*%
%LPD*%
G01*
G04 APERTURE LIST*
%ADD10C,0.150000*%
%ADD11C,0.120000*%
%ADD12R,1.700000X1.700000*%
%ADD13O,1.700000X1.700000*%
G04 APERTURE END LIST*
D10*
X130476190Y-65740714D02*
X130476190Y-66597857D01*
X130476190Y-66597857D02*
X130523809Y-66693095D01*
X130523809Y-66693095D02*
X130619047Y-66740714D01*
X130619047Y-66740714D02*
X130666666Y-66740714D01*
X130476190Y-65407380D02*
X130523809Y-65455000D01*
X130523809Y-65455000D02*
X130476190Y-65502619D01*
X130476190Y-65502619D02*
X130428571Y-65455000D01*
X130428571Y-65455000D02*
X130476190Y-65407380D01*
X130476190Y-65407380D02*
X130476190Y-65502619D01*
X129857143Y-66407380D02*
X129952381Y-66359761D01*
X129952381Y-66359761D02*
X130000000Y-66264523D01*
X130000000Y-66264523D02*
X130000000Y-65407380D01*
X129047619Y-66359761D02*
X129142857Y-66407380D01*
X129142857Y-66407380D02*
X129333333Y-66407380D01*
X129333333Y-66407380D02*
X129428571Y-66359761D01*
X129428571Y-66359761D02*
X129476190Y-66312142D01*
X129476190Y-66312142D02*
X129523809Y-66216904D01*
X129523809Y-66216904D02*
X129523809Y-65931190D01*
X129523809Y-65931190D02*
X129476190Y-65835952D01*
X129476190Y-65835952D02*
X129428571Y-65788333D01*
X129428571Y-65788333D02*
X129333333Y-65740714D01*
X129333333Y-65740714D02*
X129142857Y-65740714D01*
X129142857Y-65740714D02*
X129047619Y-65788333D01*
X128619047Y-65740714D02*
X128619047Y-66597857D01*
X128619047Y-66597857D02*
X128666666Y-66693095D01*
X128666666Y-66693095D02*
X128761904Y-66740714D01*
X128761904Y-66740714D02*
X128809523Y-66740714D01*
X128619047Y-65407380D02*
X128666666Y-65455000D01*
X128666666Y-65455000D02*
X128619047Y-65502619D01*
X128619047Y-65502619D02*
X128571428Y-65455000D01*
X128571428Y-65455000D02*
X128619047Y-65407380D01*
X128619047Y-65407380D02*
X128619047Y-65502619D01*
X128000000Y-66407380D02*
X128095238Y-66359761D01*
X128095238Y-66359761D02*
X128142857Y-66264523D01*
X128142857Y-66264523D02*
X128142857Y-65407380D01*
X127190476Y-66359761D02*
X127285714Y-66407380D01*
X127285714Y-66407380D02*
X127476190Y-66407380D01*
X127476190Y-66407380D02*
X127571428Y-66359761D01*
X127571428Y-66359761D02*
X127619047Y-66312142D01*
X127619047Y-66312142D02*
X127666666Y-66216904D01*
X127666666Y-66216904D02*
X127666666Y-65931190D01*
X127666666Y-65931190D02*
X127619047Y-65835952D01*
X127619047Y-65835952D02*
X127571428Y-65788333D01*
X127571428Y-65788333D02*
X127476190Y-65740714D01*
X127476190Y-65740714D02*
X127285714Y-65740714D01*
X127285714Y-65740714D02*
X127190476Y-65788333D01*
X126761904Y-65740714D02*
X126761904Y-66597857D01*
X126761904Y-66597857D02*
X126809523Y-66693095D01*
X126809523Y-66693095D02*
X126904761Y-66740714D01*
X126904761Y-66740714D02*
X126952380Y-66740714D01*
X126761904Y-65407380D02*
X126809523Y-65455000D01*
X126809523Y-65455000D02*
X126761904Y-65502619D01*
X126761904Y-65502619D02*
X126714285Y-65455000D01*
X126714285Y-65455000D02*
X126761904Y-65407380D01*
X126761904Y-65407380D02*
X126761904Y-65502619D01*
X126142857Y-66407380D02*
X126238095Y-66359761D01*
X126238095Y-66359761D02*
X126285714Y-66264523D01*
X126285714Y-66264523D02*
X126285714Y-65407380D01*
X125333333Y-66359761D02*
X125428571Y-66407380D01*
X125428571Y-66407380D02*
X125619047Y-66407380D01*
X125619047Y-66407380D02*
X125714285Y-66359761D01*
X125714285Y-66359761D02*
X125761904Y-66312142D01*
X125761904Y-66312142D02*
X125809523Y-66216904D01*
X125809523Y-66216904D02*
X125809523Y-65931190D01*
X125809523Y-65931190D02*
X125761904Y-65835952D01*
X125761904Y-65835952D02*
X125714285Y-65788333D01*
X125714285Y-65788333D02*
X125619047Y-65740714D01*
X125619047Y-65740714D02*
X125428571Y-65740714D01*
X125428571Y-65740714D02*
X125333333Y-65788333D01*
X124904761Y-65740714D02*
X124904761Y-66597857D01*
X124904761Y-66597857D02*
X124952380Y-66693095D01*
X124952380Y-66693095D02*
X125047618Y-66740714D01*
X125047618Y-66740714D02*
X125095237Y-66740714D01*
X124904761Y-65407380D02*
X124952380Y-65455000D01*
X124952380Y-65455000D02*
X124904761Y-65502619D01*
X124904761Y-65502619D02*
X124857142Y-65455000D01*
X124857142Y-65455000D02*
X124904761Y-65407380D01*
X124904761Y-65407380D02*
X124904761Y-65502619D01*
X124285714Y-66407380D02*
X124380952Y-66359761D01*
X124380952Y-66359761D02*
X124428571Y-66264523D01*
X124428571Y-66264523D02*
X124428571Y-65407380D01*
X123476190Y-66359761D02*
X123571428Y-66407380D01*
X123571428Y-66407380D02*
X123761904Y-66407380D01*
X123761904Y-66407380D02*
X123857142Y-66359761D01*
X123857142Y-66359761D02*
X123904761Y-66312142D01*
X123904761Y-66312142D02*
X123952380Y-66216904D01*
X123952380Y-66216904D02*
X123952380Y-65931190D01*
X123952380Y-65931190D02*
X123904761Y-65835952D01*
X123904761Y-65835952D02*
X123857142Y-65788333D01*
X123857142Y-65788333D02*
X123761904Y-65740714D01*
X123761904Y-65740714D02*
X123571428Y-65740714D01*
X123571428Y-65740714D02*
X123476190Y-65788333D01*
X129761905Y-68471190D02*
X129809524Y-68423571D01*
X129809524Y-68423571D02*
X129904762Y-68375952D01*
X129904762Y-68375952D02*
X130000000Y-68375952D01*
X130000000Y-68375952D02*
X130095238Y-68423571D01*
X130095238Y-68423571D02*
X130142857Y-68471190D01*
X130142857Y-68471190D02*
X130190476Y-68566428D01*
X130190476Y-68566428D02*
X130190476Y-68661666D01*
X130190476Y-68661666D02*
X130142857Y-68756904D01*
X130142857Y-68756904D02*
X130095238Y-68804523D01*
X130095238Y-68804523D02*
X130000000Y-68852142D01*
X130000000Y-68852142D02*
X129904762Y-68852142D01*
X129904762Y-68852142D02*
X129809524Y-68804523D01*
X129809524Y-68804523D02*
X129761905Y-68756904D01*
X129761905Y-68375952D02*
X129761905Y-68756904D01*
X129761905Y-68756904D02*
X129714286Y-68804523D01*
X129714286Y-68804523D02*
X129666667Y-68804523D01*
X129666667Y-68804523D02*
X129571428Y-68756904D01*
X129571428Y-68756904D02*
X129523809Y-68661666D01*
X129523809Y-68661666D02*
X129523809Y-68423571D01*
X129523809Y-68423571D02*
X129619048Y-68280714D01*
X129619048Y-68280714D02*
X129761905Y-68185476D01*
X129761905Y-68185476D02*
X129952381Y-68137857D01*
X129952381Y-68137857D02*
X130142857Y-68185476D01*
X130142857Y-68185476D02*
X130285714Y-68280714D01*
X130285714Y-68280714D02*
X130380952Y-68423571D01*
X130380952Y-68423571D02*
X130428571Y-68614047D01*
X130428571Y-68614047D02*
X130380952Y-68804523D01*
X130380952Y-68804523D02*
X130285714Y-68947380D01*
X130285714Y-68947380D02*
X130142857Y-69042619D01*
X130142857Y-69042619D02*
X129952381Y-69090238D01*
X129952381Y-69090238D02*
X129761905Y-69042619D01*
X129761905Y-69042619D02*
X129619048Y-68947380D01*
X128666667Y-68947380D02*
X128666667Y-68423571D01*
X128666667Y-68423571D02*
X128714286Y-68328333D01*
X128714286Y-68328333D02*
X128809524Y-68280714D01*
X128809524Y-68280714D02*
X129000000Y-68280714D01*
X129000000Y-68280714D02*
X129095238Y-68328333D01*
X128666667Y-68899761D02*
X128761905Y-68947380D01*
X128761905Y-68947380D02*
X129000000Y-68947380D01*
X129000000Y-68947380D02*
X129095238Y-68899761D01*
X129095238Y-68899761D02*
X129142857Y-68804523D01*
X129142857Y-68804523D02*
X129142857Y-68709285D01*
X129142857Y-68709285D02*
X129095238Y-68614047D01*
X129095238Y-68614047D02*
X129000000Y-68566428D01*
X129000000Y-68566428D02*
X128761905Y-68566428D01*
X128761905Y-68566428D02*
X128666667Y-68518809D01*
X128285714Y-68280714D02*
X128047619Y-68947380D01*
X128047619Y-68947380D02*
X127809524Y-68280714D01*
X127666667Y-69042619D02*
X126904762Y-69042619D01*
X126666666Y-68280714D02*
X126666666Y-69280714D01*
X126666666Y-68328333D02*
X126571428Y-68280714D01*
X126571428Y-68280714D02*
X126380952Y-68280714D01*
X126380952Y-68280714D02*
X126285714Y-68328333D01*
X126285714Y-68328333D02*
X126238095Y-68375952D01*
X126238095Y-68375952D02*
X126190476Y-68471190D01*
X126190476Y-68471190D02*
X126190476Y-68756904D01*
X126190476Y-68756904D02*
X126238095Y-68852142D01*
X126238095Y-68852142D02*
X126285714Y-68899761D01*
X126285714Y-68899761D02*
X126380952Y-68947380D01*
X126380952Y-68947380D02*
X126571428Y-68947380D01*
X126571428Y-68947380D02*
X126666666Y-68899761D01*
X125333333Y-68280714D02*
X125333333Y-68947380D01*
X125761904Y-68280714D02*
X125761904Y-68804523D01*
X125761904Y-68804523D02*
X125714285Y-68899761D01*
X125714285Y-68899761D02*
X125619047Y-68947380D01*
X125619047Y-68947380D02*
X125476190Y-68947380D01*
X125476190Y-68947380D02*
X125380952Y-68899761D01*
X125380952Y-68899761D02*
X125333333Y-68852142D01*
X124857142Y-68947380D02*
X124857142Y-67947380D01*
X124857142Y-68328333D02*
X124761904Y-68280714D01*
X124761904Y-68280714D02*
X124571428Y-68280714D01*
X124571428Y-68280714D02*
X124476190Y-68328333D01*
X124476190Y-68328333D02*
X124428571Y-68375952D01*
X124428571Y-68375952D02*
X124380952Y-68471190D01*
X124380952Y-68471190D02*
X124380952Y-68756904D01*
X124380952Y-68756904D02*
X124428571Y-68852142D01*
X124428571Y-68852142D02*
X124476190Y-68899761D01*
X124476190Y-68899761D02*
X124571428Y-68947380D01*
X124571428Y-68947380D02*
X124761904Y-68947380D01*
X124761904Y-68947380D02*
X124857142Y-68899761D01*
X123999999Y-68899761D02*
X123904761Y-68947380D01*
X123904761Y-68947380D02*
X123714285Y-68947380D01*
X123714285Y-68947380D02*
X123619047Y-68899761D01*
X123619047Y-68899761D02*
X123571428Y-68804523D01*
X123571428Y-68804523D02*
X123571428Y-68756904D01*
X123571428Y-68756904D02*
X123619047Y-68661666D01*
X123619047Y-68661666D02*
X123714285Y-68614047D01*
X123714285Y-68614047D02*
X123857142Y-68614047D01*
X123857142Y-68614047D02*
X123952380Y-68566428D01*
X123952380Y-68566428D02*
X123999999Y-68471190D01*
X123999999Y-68471190D02*
X123999999Y-68423571D01*
X123999999Y-68423571D02*
X123952380Y-68328333D01*
X123952380Y-68328333D02*
X123857142Y-68280714D01*
X123857142Y-68280714D02*
X123714285Y-68280714D01*
X123714285Y-68280714D02*
X123619047Y-68328333D01*
X121497380Y-77736666D02*
X122211666Y-77736666D01*
X122211666Y-77736666D02*
X122354523Y-77689047D01*
X122354523Y-77689047D02*
X122449761Y-77593809D01*
X122449761Y-77593809D02*
X122497380Y-77450952D01*
X122497380Y-77450952D02*
X122497380Y-77355714D01*
X122497380Y-78736666D02*
X122497380Y-78165238D01*
X122497380Y-78450952D02*
X121497380Y-78450952D01*
X121497380Y-78450952D02*
X121640238Y-78355714D01*
X121640238Y-78355714D02*
X121735476Y-78260476D01*
X121735476Y-78260476D02*
X121783095Y-78165238D01*
D11*
X125730000Y-75470000D02*
X130870000Y-75470000D01*
X125730000Y-75470000D02*
X125730000Y-78070000D01*
X125730000Y-78070000D02*
X123130000Y-78070000D01*
X124460000Y-75470000D02*
X123130000Y-75470000D01*
X123130000Y-75470000D02*
X123130000Y-76800000D01*
X123130000Y-78070000D02*
X123130000Y-80670000D01*
X130870000Y-75470000D02*
X130870000Y-80670000D01*
X123130000Y-80670000D02*
X130870000Y-80670000D01*
%LPC*%
D12*
X124459999Y-76799999D03*
D13*
X124459999Y-79339999D03*
X126999999Y-76799999D03*
X126999999Y-79339999D03*
X129539999Y-76799999D03*
X129539999Y-79339999D03*
M02*
