%FSLAX45Y45*%
G04 Gerber Fmt 4.5, Leading zero omitted, Abs format (unit mm)*
G04 Created by KiCad (PCBNEW (6.99.0-1934-gfe17dca71f)) date 2022-05-23 00:26:30*
%MOMM*%
%LPD*%
G01*
G04 APERTURE LIST*
%TA.AperFunction,Profile*%
%ADD10C,0.200000*%
%TD*%
%ADD11C,0.200000*%
G04 APERTURE END LIST*
D10*
X12713854Y-5729777D02*
X12719262Y-5730387D01*
X12724575Y-5731381D01*
X12729776Y-5732749D01*
X12734848Y-5734479D01*
X12739776Y-5736562D01*
X12744543Y-5738986D01*
X12749133Y-5741740D01*
X12753528Y-5744815D01*
X12757713Y-5748199D01*
X12761670Y-5751882D01*
X12765384Y-5755853D01*
X12768837Y-5760101D01*
X12772014Y-5764615D01*
X12774898Y-5769385D01*
X12777472Y-5774400D01*
X13251706Y-6783138D01*
X13260220Y-6799916D01*
X13269647Y-6816011D01*
X13279948Y-6831392D01*
X13291082Y-6846029D01*
X13303010Y-6859892D01*
X13315692Y-6872951D01*
X13329088Y-6885174D01*
X13343158Y-6896533D01*
X13357862Y-6906997D01*
X13373160Y-6916535D01*
X13389012Y-6925117D01*
X13405379Y-6932713D01*
X13422220Y-6939293D01*
X13439496Y-6944826D01*
X13457167Y-6949283D01*
X13475192Y-6952632D01*
X14547586Y-7116876D01*
X14552983Y-7117906D01*
X14558247Y-7119316D01*
X14563364Y-7121091D01*
X14568318Y-7123220D01*
X14573096Y-7125689D01*
X14577681Y-7128485D01*
X14582059Y-7131595D01*
X14586216Y-7135007D01*
X14590137Y-7138706D01*
X14593806Y-7142680D01*
X14597209Y-7146916D01*
X14600331Y-7151400D01*
X14603157Y-7156121D01*
X14605673Y-7161064D01*
X14607863Y-7166216D01*
X14609713Y-7171565D01*
X14611193Y-7177038D01*
X14612286Y-7182556D01*
X14612997Y-7188101D01*
X14613331Y-7193652D01*
X14613293Y-7199190D01*
X14612887Y-7204696D01*
X14612119Y-7210150D01*
X14610993Y-7215532D01*
X14609513Y-7220823D01*
X14607686Y-7226002D01*
X14605514Y-7231052D01*
X14603004Y-7235951D01*
X14600160Y-7240680D01*
X14596986Y-7245220D01*
X14593488Y-7249551D01*
X14589671Y-7253654D01*
X13808519Y-8035977D01*
X13795718Y-8049606D01*
X13783823Y-8063921D01*
X13772850Y-8078875D01*
X13762815Y-8094416D01*
X13753734Y-8110499D01*
X13745621Y-8127072D01*
X13738494Y-8144088D01*
X13732366Y-8161498D01*
X13727254Y-8179253D01*
X13723173Y-8197304D01*
X13720140Y-8215603D01*
X13718168Y-8234101D01*
X13717275Y-8252749D01*
X13717476Y-8271498D01*
X13718786Y-8290299D01*
X13721220Y-8309105D01*
X13898225Y-9416956D01*
X13898929Y-9422595D01*
X13899244Y-9428221D01*
X13899178Y-9433817D01*
X13898738Y-9439363D01*
X13897932Y-9444841D01*
X13896766Y-9450232D01*
X13895249Y-9455518D01*
X13893388Y-9460679D01*
X13891190Y-9465697D01*
X13888663Y-9470553D01*
X13885815Y-9475229D01*
X13882652Y-9479706D01*
X13879182Y-9483965D01*
X13875413Y-9487987D01*
X13871352Y-9491754D01*
X13867006Y-9495248D01*
X13862435Y-9498415D01*
X13857702Y-9501216D01*
X13852829Y-9503649D01*
X13847835Y-9505712D01*
X13842738Y-9507404D01*
X13837560Y-9508725D01*
X13832318Y-9509671D01*
X13827032Y-9510243D01*
X13821723Y-9510438D01*
X13816408Y-9510255D01*
X13811109Y-9509693D01*
X13805844Y-9508750D01*
X13800632Y-9507425D01*
X13795494Y-9505716D01*
X13790449Y-9503623D01*
X13785515Y-9501143D01*
X13785515Y-9501143D01*
X13785515Y-9501143D01*
X13785515Y-9501143D01*
X13785515Y-9501143D01*
X13785515Y-9501143D01*
X13785515Y-9501143D01*
X13785516Y-9501143D01*
X12828503Y-8975908D01*
X12812077Y-8967553D01*
X12795299Y-8960305D01*
X12778217Y-8954166D01*
X12760880Y-8949134D01*
X12743340Y-8945210D01*
X12725644Y-8942395D01*
X12707843Y-8940687D01*
X12689987Y-8940089D01*
X12672123Y-8940598D01*
X12654303Y-8942217D01*
X12636576Y-8944944D01*
X12618991Y-8948780D01*
X12601598Y-8953725D01*
X12584446Y-8959779D01*
X12567585Y-8966943D01*
X12551064Y-8975215D01*
X11588064Y-9495661D01*
X11583103Y-9498116D01*
X11578033Y-9500185D01*
X11572876Y-9501867D01*
X11567649Y-9503166D01*
X11562373Y-9504083D01*
X11557068Y-9504618D01*
X11551752Y-9504775D01*
X11546444Y-9504553D01*
X11541166Y-9503955D01*
X11535935Y-9502983D01*
X11530771Y-9501637D01*
X11525694Y-9499919D01*
X11520724Y-9497831D01*
X11515879Y-9495374D01*
X11511179Y-9492550D01*
X11506643Y-9489360D01*
X11504455Y-9487637D01*
X11502338Y-9485845D01*
X11500293Y-9483984D01*
X11498320Y-9482057D01*
X11494597Y-9478016D01*
X11491176Y-9473740D01*
X11488065Y-9469248D01*
X11485269Y-9464558D01*
X11482798Y-9459689D01*
X11480658Y-9454660D01*
X11478856Y-9449490D01*
X11477400Y-9444197D01*
X11476296Y-9438801D01*
X11475552Y-9433319D01*
X11475175Y-9427770D01*
X11475173Y-9422174D01*
X11475553Y-9416550D01*
X11475888Y-9413732D01*
X11476322Y-9410914D01*
X11666007Y-8303978D01*
X11668657Y-8285185D01*
X11670182Y-8266390D01*
X11670597Y-8247643D01*
X11669917Y-8228991D01*
X11668158Y-8210484D01*
X11665334Y-8192171D01*
X11661460Y-8174100D01*
X11656552Y-8156320D01*
X11650624Y-8138880D01*
X11643691Y-8121828D01*
X11635769Y-8105215D01*
X11626872Y-8089088D01*
X11617015Y-8073497D01*
X11606214Y-8058489D01*
X11594483Y-8044115D01*
X11581838Y-8030422D01*
X10809667Y-7244224D01*
X10805897Y-7240103D01*
X10802449Y-7235754D01*
X10799327Y-7231198D01*
X10796537Y-7226455D01*
X10794083Y-7221543D01*
X10791969Y-7216483D01*
X10790201Y-7211295D01*
X10788782Y-7205997D01*
X10787717Y-7200609D01*
X10787011Y-7195152D01*
X10786669Y-7189644D01*
X10786694Y-7184106D01*
X10787092Y-7178556D01*
X10787867Y-7173015D01*
X10789023Y-7167503D01*
X10790565Y-7162038D01*
X10792476Y-7156698D01*
X10794725Y-7151556D01*
X10797298Y-7146626D01*
X10800178Y-7141920D01*
X10803351Y-7137451D01*
X10806802Y-7133232D01*
X10810517Y-7129277D01*
X10814480Y-7125597D01*
X10818676Y-7122207D01*
X10823090Y-7119119D01*
X10827707Y-7116346D01*
X10832512Y-7113900D01*
X10837491Y-7111796D01*
X10842628Y-7110046D01*
X10847908Y-7108663D01*
X10850597Y-7108114D01*
X10853317Y-7107660D01*
X11927561Y-6948771D01*
X11945624Y-6945512D01*
X11963345Y-6941144D01*
X11980684Y-6935697D01*
X11997600Y-6929201D01*
X12014053Y-6921687D01*
X12030004Y-6913184D01*
X12045410Y-6903722D01*
X12060234Y-6893333D01*
X12074433Y-6882044D01*
X12087968Y-6869888D01*
X12100799Y-6856893D01*
X12112886Y-6843090D01*
X12124187Y-6828509D01*
X12134664Y-6813180D01*
X12144275Y-6797132D01*
X12152981Y-6780397D01*
X12638752Y-5774054D01*
X12640029Y-5771523D01*
X12641384Y-5769052D01*
X12642816Y-5766643D01*
X12644322Y-5764296D01*
X12645901Y-5762014D01*
X12647551Y-5759798D01*
X12649268Y-5757649D01*
X12651053Y-5755568D01*
X12652901Y-5753556D01*
X12654812Y-5751616D01*
X12656782Y-5749747D01*
X12658811Y-5747953D01*
X12660896Y-5746233D01*
X12663034Y-5744590D01*
X12665225Y-5743024D01*
X12667465Y-5741537D01*
X12669752Y-5740130D01*
X12672085Y-5738805D01*
X12674462Y-5737563D01*
X12676880Y-5736405D01*
X12679337Y-5735332D01*
X12681832Y-5734347D01*
X12684361Y-5733449D01*
X12686924Y-5732642D01*
X12689518Y-5731925D01*
X12692141Y-5731300D01*
X12694790Y-5730769D01*
X12697464Y-5730333D01*
X12700161Y-5729992D01*
X12702879Y-5729750D01*
X12705615Y-5729606D01*
X12708368Y-5729562D01*
X12713854Y-5729777D01*
D11*
X11024288Y-9813914D02*
X11024288Y-9613914D01*
X11024288Y-9613914D02*
X11071907Y-9613914D01*
X11071907Y-9613914D02*
X11100478Y-9623438D01*
X11100478Y-9623438D02*
X11119526Y-9642485D01*
X11119526Y-9642485D02*
X11129050Y-9661533D01*
X11129050Y-9661533D02*
X11138574Y-9699628D01*
X11138574Y-9699628D02*
X11138574Y-9728200D01*
X11138574Y-9728200D02*
X11129050Y-9766295D01*
X11129050Y-9766295D02*
X11119526Y-9785342D01*
X11119526Y-9785342D02*
X11100478Y-9804390D01*
X11100478Y-9804390D02*
X11071907Y-9813914D01*
X11071907Y-9813914D02*
X11024288Y-9813914D01*
X11224288Y-9813914D02*
X11224288Y-9680581D01*
X11224288Y-9718676D02*
X11233812Y-9699628D01*
X11233812Y-9699628D02*
X11243335Y-9690104D01*
X11243335Y-9690104D02*
X11262383Y-9680581D01*
X11262383Y-9680581D02*
X11281431Y-9680581D01*
X11348097Y-9813914D02*
X11348097Y-9680581D01*
X11348097Y-9613914D02*
X11338573Y-9623438D01*
X11338573Y-9623438D02*
X11348097Y-9632962D01*
X11348097Y-9632962D02*
X11357621Y-9623438D01*
X11357621Y-9623438D02*
X11348097Y-9613914D01*
X11348097Y-9613914D02*
X11348097Y-9632962D01*
X11471907Y-9813914D02*
X11452859Y-9804390D01*
X11452859Y-9804390D02*
X11443335Y-9785342D01*
X11443335Y-9785342D02*
X11443335Y-9613914D01*
X11576669Y-9813914D02*
X11557621Y-9804390D01*
X11557621Y-9804390D02*
X11548097Y-9785342D01*
X11548097Y-9785342D02*
X11548097Y-9613914D01*
X11772859Y-9813914D02*
X11772859Y-9613914D01*
X11772859Y-9613914D02*
X11839526Y-9756771D01*
X11839526Y-9756771D02*
X11906192Y-9613914D01*
X11906192Y-9613914D02*
X11906192Y-9813914D01*
X12087145Y-9813914D02*
X12087145Y-9709152D01*
X12087145Y-9709152D02*
X12077621Y-9690104D01*
X12077621Y-9690104D02*
X12058573Y-9680581D01*
X12058573Y-9680581D02*
X12020478Y-9680581D01*
X12020478Y-9680581D02*
X12001431Y-9690104D01*
X12087145Y-9804390D02*
X12068097Y-9813914D01*
X12068097Y-9813914D02*
X12020478Y-9813914D01*
X12020478Y-9813914D02*
X12001431Y-9804390D01*
X12001431Y-9804390D02*
X11991907Y-9785342D01*
X11991907Y-9785342D02*
X11991907Y-9766295D01*
X11991907Y-9766295D02*
X12001431Y-9747247D01*
X12001431Y-9747247D02*
X12020478Y-9737723D01*
X12020478Y-9737723D02*
X12068097Y-9737723D01*
X12068097Y-9737723D02*
X12087145Y-9728200D01*
X12182383Y-9680581D02*
X12182383Y-9880581D01*
X12182383Y-9690104D02*
X12201431Y-9680581D01*
X12201431Y-9680581D02*
X12239526Y-9680581D01*
X12239526Y-9680581D02*
X12258573Y-9690104D01*
X12258573Y-9690104D02*
X12268097Y-9699628D01*
X12268097Y-9699628D02*
X12277621Y-9718676D01*
X12277621Y-9718676D02*
X12277621Y-9775819D01*
X12277621Y-9775819D02*
X12268097Y-9794866D01*
X12268097Y-9794866D02*
X12258573Y-9804390D01*
X12258573Y-9804390D02*
X12239526Y-9813914D01*
X12239526Y-9813914D02*
X12201431Y-9813914D01*
X12201431Y-9813914D02*
X12182383Y-9804390D01*
X12363335Y-9794866D02*
X12372859Y-9804390D01*
X12372859Y-9804390D02*
X12363335Y-9813914D01*
X12363335Y-9813914D02*
X12353812Y-9804390D01*
X12353812Y-9804390D02*
X12363335Y-9794866D01*
X12363335Y-9794866D02*
X12363335Y-9813914D01*
X12363335Y-9690104D02*
X12372859Y-9699628D01*
X12372859Y-9699628D02*
X12363335Y-9709152D01*
X12363335Y-9709152D02*
X12353812Y-9699628D01*
X12353812Y-9699628D02*
X12363335Y-9690104D01*
X12363335Y-9690104D02*
X12363335Y-9709152D01*
M02*
