G04 #@! TF.GenerationSoftware,KiCad,Pcbnew,(6.99.0-1934-gfe17dca71f)*
G04 #@! TF.CreationDate,2022-05-23T00:26:24-05:00*
G04 #@! TF.ProjectId,gold_star_v2_SAO,676f6c64-5f73-4746-9172-5f76325f5341,rev?*
G04 #@! TF.SameCoordinates,Original*
G04 #@! TF.FileFunction,Profile,NP*
%FSLAX46Y46*%
G04 Gerber Fmt 4.6, Leading zero omitted, Abs format (unit mm)*
G04 Created by KiCad (PCBNEW (6.99.0-1934-gfe17dca71f)) date 2022-05-23 00:26:24*
%MOMM*%
%LPD*%
G01*
G04 APERTURE LIST*
G04 #@! TA.AperFunction,Profile*
%ADD10C,0.200000*%
G04 #@! TD*
G04 APERTURE END LIST*
D10*
X127138543Y-57297772D02*
X127192620Y-57303870D01*
X127245746Y-57313810D01*
X127297756Y-57327486D01*
X127348484Y-57344791D01*
X127397765Y-57365617D01*
X127445435Y-57389857D01*
X127491329Y-57417405D01*
X127535280Y-57448153D01*
X127577126Y-57481995D01*
X127616699Y-57518822D01*
X127653836Y-57558528D01*
X127688372Y-57601007D01*
X127720141Y-57646150D01*
X127748978Y-57693852D01*
X127774719Y-57744004D01*
X132517064Y-67831379D01*
X132602203Y-67999162D01*
X132696475Y-68160111D01*
X132799482Y-68313922D01*
X132910825Y-68460294D01*
X133030105Y-68598923D01*
X133156923Y-68729508D01*
X133290880Y-68851745D01*
X133431578Y-68965332D01*
X133578616Y-69069967D01*
X133731597Y-69165347D01*
X133890120Y-69251168D01*
X134053788Y-69327130D01*
X134222202Y-69392929D01*
X134394961Y-69448262D01*
X134571668Y-69492827D01*
X134751924Y-69526322D01*
X145475862Y-71168763D01*
X145529830Y-71179063D01*
X145582472Y-71193156D01*
X145633639Y-71210912D01*
X145683183Y-71232201D01*
X145730956Y-71256891D01*
X145776809Y-71284852D01*
X145820594Y-71315954D01*
X145862163Y-71350066D01*
X145901367Y-71387058D01*
X145938058Y-71426798D01*
X145972088Y-71469156D01*
X146003309Y-71514003D01*
X146031571Y-71561206D01*
X146056727Y-71610636D01*
X146078629Y-71662161D01*
X146097127Y-71715652D01*
X146111926Y-71770377D01*
X146122858Y-71825560D01*
X146129971Y-71881007D01*
X146133313Y-71936520D01*
X146132932Y-71991903D01*
X146128875Y-72046962D01*
X146121192Y-72101499D01*
X146109929Y-72155319D01*
X146095134Y-72208226D01*
X146076856Y-72260024D01*
X146055142Y-72310516D01*
X146030039Y-72359508D01*
X146001597Y-72406802D01*
X145969862Y-72452202D01*
X145934883Y-72495514D01*
X145896707Y-72536540D01*
X138085193Y-80359772D01*
X137957177Y-80496062D01*
X137838228Y-80639215D01*
X137728501Y-80788746D01*
X137628153Y-80944165D01*
X137537339Y-81104986D01*
X137456214Y-81270720D01*
X137384936Y-81440880D01*
X137323659Y-81614979D01*
X137272540Y-81792529D01*
X137231734Y-81973042D01*
X137201397Y-82156031D01*
X137181685Y-82341008D01*
X137172754Y-82527486D01*
X137174760Y-82714977D01*
X137187859Y-82902993D01*
X137212205Y-83091047D01*
X138982253Y-94169558D01*
X138989293Y-94225946D01*
X138992445Y-94282213D01*
X138991783Y-94338171D01*
X138987383Y-94393633D01*
X138979317Y-94448413D01*
X138967662Y-94502323D01*
X138952492Y-94555177D01*
X138933881Y-94606787D01*
X138911903Y-94656967D01*
X138886634Y-94705530D01*
X138858147Y-94752289D01*
X138826518Y-94797057D01*
X138791820Y-94839646D01*
X138754129Y-94879871D01*
X138713519Y-94917544D01*
X138670064Y-94952478D01*
X138624346Y-94984152D01*
X138577024Y-95012159D01*
X138528293Y-95036486D01*
X138478349Y-95057119D01*
X138427385Y-95074044D01*
X138375596Y-95087246D01*
X138323177Y-95096712D01*
X138270322Y-95102426D01*
X138217226Y-95104377D01*
X138164084Y-95102548D01*
X138111090Y-95096926D01*
X138058438Y-95087498D01*
X138006324Y-95074248D01*
X137954942Y-95057163D01*
X137904486Y-95036228D01*
X137855152Y-95011431D01*
X137855152Y-95011430D01*
X137855153Y-95011430D01*
X137855153Y-95011429D01*
X137855154Y-95011429D01*
X137855154Y-95011428D01*
X137855155Y-95011427D01*
X137855157Y-95011427D01*
X128285030Y-89759077D01*
X128120774Y-89675526D01*
X127952988Y-89603052D01*
X127782166Y-89541655D01*
X127608805Y-89491338D01*
X127433399Y-89452101D01*
X127256444Y-89423946D01*
X127078434Y-89406873D01*
X126899866Y-89400885D01*
X126721235Y-89405982D01*
X126543035Y-89422165D01*
X126365762Y-89449437D01*
X126189911Y-89487797D01*
X126015979Y-89537248D01*
X125844459Y-89597790D01*
X125675847Y-89669425D01*
X125510639Y-89752153D01*
X115880645Y-94956613D01*
X115831028Y-94981164D01*
X115780334Y-95001845D01*
X115728757Y-95018672D01*
X115676493Y-95031661D01*
X115623735Y-95040827D01*
X115570678Y-95046184D01*
X115517517Y-95047747D01*
X115464445Y-95045532D01*
X115411658Y-95039553D01*
X115359349Y-95029826D01*
X115307713Y-95016366D01*
X115256945Y-94999188D01*
X115207238Y-94978307D01*
X115158787Y-94953737D01*
X115111787Y-94925495D01*
X115066432Y-94893595D01*
X115044551Y-94876372D01*
X115023379Y-94858446D01*
X115002926Y-94839838D01*
X114983201Y-94820572D01*
X114945971Y-94780161D01*
X114911762Y-94737400D01*
X114880646Y-94692476D01*
X114852695Y-94645576D01*
X114827983Y-94596889D01*
X114806580Y-94546601D01*
X114788560Y-94494899D01*
X114773996Y-94441971D01*
X114762958Y-94388005D01*
X114755521Y-94333186D01*
X114751755Y-94277704D01*
X114751734Y-94221744D01*
X114755531Y-94165495D01*
X114758883Y-94137321D01*
X114763216Y-94109144D01*
X116660067Y-83039776D01*
X116686566Y-82851849D01*
X116701817Y-82663904D01*
X116705970Y-82476429D01*
X116699175Y-82289912D01*
X116681582Y-82104842D01*
X116653342Y-81921707D01*
X116614604Y-81740996D01*
X116565519Y-81563196D01*
X116506238Y-81388796D01*
X116436910Y-81218285D01*
X116357687Y-81052151D01*
X116268717Y-80890882D01*
X116170151Y-80734966D01*
X116062140Y-80584893D01*
X115944834Y-80441149D01*
X115818383Y-80304224D01*
X108096673Y-72442242D01*
X108058967Y-72401026D01*
X108024485Y-72357541D01*
X107993270Y-72311984D01*
X107965370Y-72264549D01*
X107940829Y-72215434D01*
X107919693Y-72164835D01*
X107902008Y-72112947D01*
X107887820Y-72059968D01*
X107877173Y-72006093D01*
X107870114Y-71951519D01*
X107866688Y-71896442D01*
X107866941Y-71841057D01*
X107870918Y-71785563D01*
X107878666Y-71730153D01*
X107890229Y-71675026D01*
X107905653Y-71620377D01*
X107924763Y-71566979D01*
X107947254Y-71515565D01*
X107972975Y-71466262D01*
X108001777Y-71419201D01*
X108033510Y-71374512D01*
X108068024Y-71332325D01*
X108105169Y-71292769D01*
X108144796Y-71255974D01*
X108186755Y-71222070D01*
X108230895Y-71191188D01*
X108277067Y-71163456D01*
X108325122Y-71139005D01*
X108374909Y-71117964D01*
X108426278Y-71100464D01*
X108479080Y-71086634D01*
X108505971Y-71081136D01*
X108533165Y-71076604D01*
X119275607Y-69487714D01*
X119456241Y-69455119D01*
X119633453Y-69411437D01*
X119806841Y-69356967D01*
X119976002Y-69292010D01*
X120140535Y-69216867D01*
X120300037Y-69131839D01*
X120454105Y-69037225D01*
X120602337Y-68933327D01*
X120744331Y-68820445D01*
X120879684Y-68698880D01*
X121007994Y-68568932D01*
X121128858Y-68430902D01*
X121241873Y-68285090D01*
X121346638Y-68131797D01*
X121442751Y-67971323D01*
X121529807Y-67803970D01*
X126387525Y-57740543D01*
X126400288Y-57715230D01*
X126413839Y-57690521D01*
X126428157Y-57666428D01*
X126443222Y-57642965D01*
X126459012Y-57620145D01*
X126475507Y-57597981D01*
X126492685Y-57576487D01*
X126510527Y-57555676D01*
X126529012Y-57535561D01*
X126548118Y-57516156D01*
X126567825Y-57497474D01*
X126588112Y-57479527D01*
X126608958Y-57462330D01*
X126630343Y-57445896D01*
X126652246Y-57430237D01*
X126674646Y-57415368D01*
X126697521Y-57401301D01*
X126720853Y-57388050D01*
X126744619Y-57375628D01*
X126768799Y-57364048D01*
X126793372Y-57353324D01*
X126818317Y-57343468D01*
X126843614Y-57334495D01*
X126869242Y-57326417D01*
X126895180Y-57319248D01*
X126921407Y-57313001D01*
X126947902Y-57307689D01*
X126974645Y-57303326D01*
X127001615Y-57299924D01*
X127028791Y-57297498D01*
X127056153Y-57296060D01*
X127083679Y-57295623D01*
X127138543Y-57297772D01*
M02*
