G04 #@! TF.GenerationSoftware,KiCad,Pcbnew,(6.0.4-0)*
G04 #@! TF.CreationDate,2022-05-22T22:30:28-05:00*
G04 #@! TF.ProjectId,gold_star,676f6c64-5f73-4746-9172-2e6b69636164,rev?*
G04 #@! TF.SameCoordinates,Original*
G04 #@! TF.FileFunction,Legend,Bot*
G04 #@! TF.FilePolarity,Positive*
%FSLAX46Y46*%
G04 Gerber Fmt 4.6, Leading zero omitted, Abs format (unit mm)*
G04 Created by KiCad (PCBNEW (6.0.4-0)) date 2022-05-22 22:30:28*
%MOMM*%
%LPD*%
G01*
G04 APERTURE LIST*
%ADD10C,0.150000*%
%ADD11C,0.120000*%
%ADD12R,1.700000X1.700000*%
%ADD13O,1.700000X1.700000*%
G04 APERTURE END LIST*
D10*
X130476190Y-65825714D02*
X130476190Y-66682857D01*
X130523809Y-66778095D01*
X130619047Y-66825714D01*
X130666666Y-66825714D01*
X130476190Y-65492380D02*
X130523809Y-65540000D01*
X130476190Y-65587619D01*
X130428571Y-65540000D01*
X130476190Y-65492380D01*
X130476190Y-65587619D01*
X129857142Y-66492380D02*
X129952380Y-66444761D01*
X130000000Y-66349523D01*
X130000000Y-65492380D01*
X129047619Y-66444761D02*
X129142857Y-66492380D01*
X129333333Y-66492380D01*
X129428571Y-66444761D01*
X129476190Y-66397142D01*
X129523809Y-66301904D01*
X129523809Y-66016190D01*
X129476190Y-65920952D01*
X129428571Y-65873333D01*
X129333333Y-65825714D01*
X129142857Y-65825714D01*
X129047619Y-65873333D01*
X128619047Y-65825714D02*
X128619047Y-66682857D01*
X128666666Y-66778095D01*
X128761904Y-66825714D01*
X128809523Y-66825714D01*
X128619047Y-65492380D02*
X128666666Y-65540000D01*
X128619047Y-65587619D01*
X128571428Y-65540000D01*
X128619047Y-65492380D01*
X128619047Y-65587619D01*
X128000000Y-66492380D02*
X128095238Y-66444761D01*
X128142857Y-66349523D01*
X128142857Y-65492380D01*
X127190476Y-66444761D02*
X127285714Y-66492380D01*
X127476190Y-66492380D01*
X127571428Y-66444761D01*
X127619047Y-66397142D01*
X127666666Y-66301904D01*
X127666666Y-66016190D01*
X127619047Y-65920952D01*
X127571428Y-65873333D01*
X127476190Y-65825714D01*
X127285714Y-65825714D01*
X127190476Y-65873333D01*
X126761904Y-65825714D02*
X126761904Y-66682857D01*
X126809523Y-66778095D01*
X126904761Y-66825714D01*
X126952380Y-66825714D01*
X126761904Y-65492380D02*
X126809523Y-65540000D01*
X126761904Y-65587619D01*
X126714285Y-65540000D01*
X126761904Y-65492380D01*
X126761904Y-65587619D01*
X126142857Y-66492380D02*
X126238095Y-66444761D01*
X126285714Y-66349523D01*
X126285714Y-65492380D01*
X125333333Y-66444761D02*
X125428571Y-66492380D01*
X125619047Y-66492380D01*
X125714285Y-66444761D01*
X125761904Y-66397142D01*
X125809523Y-66301904D01*
X125809523Y-66016190D01*
X125761904Y-65920952D01*
X125714285Y-65873333D01*
X125619047Y-65825714D01*
X125428571Y-65825714D01*
X125333333Y-65873333D01*
X124904761Y-65825714D02*
X124904761Y-66682857D01*
X124952380Y-66778095D01*
X125047619Y-66825714D01*
X125095238Y-66825714D01*
X124904761Y-65492380D02*
X124952380Y-65540000D01*
X124904761Y-65587619D01*
X124857142Y-65540000D01*
X124904761Y-65492380D01*
X124904761Y-65587619D01*
X124285714Y-66492380D02*
X124380952Y-66444761D01*
X124428571Y-66349523D01*
X124428571Y-65492380D01*
X123476190Y-66444761D02*
X123571428Y-66492380D01*
X123761904Y-66492380D01*
X123857142Y-66444761D01*
X123904761Y-66397142D01*
X123952380Y-66301904D01*
X123952380Y-66016190D01*
X123904761Y-65920952D01*
X123857142Y-65873333D01*
X123761904Y-65825714D01*
X123571428Y-65825714D01*
X123476190Y-65873333D01*
X129761904Y-68556190D02*
X129809523Y-68508571D01*
X129904761Y-68460952D01*
X130000000Y-68460952D01*
X130095238Y-68508571D01*
X130142857Y-68556190D01*
X130190476Y-68651428D01*
X130190476Y-68746666D01*
X130142857Y-68841904D01*
X130095238Y-68889523D01*
X130000000Y-68937142D01*
X129904761Y-68937142D01*
X129809523Y-68889523D01*
X129761904Y-68841904D01*
X129761904Y-68460952D02*
X129761904Y-68841904D01*
X129714285Y-68889523D01*
X129666666Y-68889523D01*
X129571428Y-68841904D01*
X129523809Y-68746666D01*
X129523809Y-68508571D01*
X129619047Y-68365714D01*
X129761904Y-68270476D01*
X129952380Y-68222857D01*
X130142857Y-68270476D01*
X130285714Y-68365714D01*
X130380952Y-68508571D01*
X130428571Y-68699047D01*
X130380952Y-68889523D01*
X130285714Y-69032380D01*
X130142857Y-69127619D01*
X129952380Y-69175238D01*
X129761904Y-69127619D01*
X129619047Y-69032380D01*
X128666666Y-69032380D02*
X128666666Y-68508571D01*
X128714285Y-68413333D01*
X128809523Y-68365714D01*
X129000000Y-68365714D01*
X129095238Y-68413333D01*
X128666666Y-68984761D02*
X128761904Y-69032380D01*
X129000000Y-69032380D01*
X129095238Y-68984761D01*
X129142857Y-68889523D01*
X129142857Y-68794285D01*
X129095238Y-68699047D01*
X129000000Y-68651428D01*
X128761904Y-68651428D01*
X128666666Y-68603809D01*
X128285714Y-68365714D02*
X128047619Y-69032380D01*
X127809523Y-68365714D01*
X127666666Y-69127619D02*
X126904761Y-69127619D01*
X126666666Y-68365714D02*
X126666666Y-69365714D01*
X126666666Y-68413333D02*
X126571428Y-68365714D01*
X126380952Y-68365714D01*
X126285714Y-68413333D01*
X126238095Y-68460952D01*
X126190476Y-68556190D01*
X126190476Y-68841904D01*
X126238095Y-68937142D01*
X126285714Y-68984761D01*
X126380952Y-69032380D01*
X126571428Y-69032380D01*
X126666666Y-68984761D01*
X125333333Y-68365714D02*
X125333333Y-69032380D01*
X125761904Y-68365714D02*
X125761904Y-68889523D01*
X125714285Y-68984761D01*
X125619047Y-69032380D01*
X125476190Y-69032380D01*
X125380952Y-68984761D01*
X125333333Y-68937142D01*
X124857142Y-69032380D02*
X124857142Y-68032380D01*
X124857142Y-68413333D02*
X124761904Y-68365714D01*
X124571428Y-68365714D01*
X124476190Y-68413333D01*
X124428571Y-68460952D01*
X124380952Y-68556190D01*
X124380952Y-68841904D01*
X124428571Y-68937142D01*
X124476190Y-68984761D01*
X124571428Y-69032380D01*
X124761904Y-69032380D01*
X124857142Y-68984761D01*
X124000000Y-68984761D02*
X123904761Y-69032380D01*
X123714285Y-69032380D01*
X123619047Y-68984761D01*
X123571428Y-68889523D01*
X123571428Y-68841904D01*
X123619047Y-68746666D01*
X123714285Y-68699047D01*
X123857142Y-68699047D01*
X123952380Y-68651428D01*
X124000000Y-68556190D01*
X124000000Y-68508571D01*
X123952380Y-68413333D01*
X123857142Y-68365714D01*
X123714285Y-68365714D01*
X123619047Y-68413333D01*
X121582380Y-77736666D02*
X122296666Y-77736666D01*
X122439523Y-77689047D01*
X122534761Y-77593809D01*
X122582380Y-77450952D01*
X122582380Y-77355714D01*
X122582380Y-78736666D02*
X122582380Y-78165238D01*
X122582380Y-78450952D02*
X121582380Y-78450952D01*
X121725238Y-78355714D01*
X121820476Y-78260476D01*
X121868095Y-78165238D01*
D11*
X125730000Y-75470000D02*
X130870000Y-75470000D01*
X125730000Y-75470000D02*
X125730000Y-78070000D01*
X125730000Y-78070000D02*
X123130000Y-78070000D01*
X124460000Y-75470000D02*
X123130000Y-75470000D01*
X123130000Y-75470000D02*
X123130000Y-76800000D01*
X123130000Y-78070000D02*
X123130000Y-80670000D01*
X130870000Y-75470000D02*
X130870000Y-80670000D01*
X123130000Y-80670000D02*
X130870000Y-80670000D01*
%LPC*%
D12*
X124460000Y-76800000D03*
D13*
X124460000Y-79340000D03*
X127000000Y-76800000D03*
X127000000Y-79340000D03*
X129540000Y-76800000D03*
X129540000Y-79340000D03*
M02*
