G04 #@! TF.GenerationSoftware,KiCad,Pcbnew,(6.0.4-0)*
G04 #@! TF.CreationDate,2022-05-22T22:30:28-05:00*
G04 #@! TF.ProjectId,gold_star,676f6c64-5f73-4746-9172-2e6b69636164,rev?*
G04 #@! TF.SameCoordinates,Original*
G04 #@! TF.FileFunction,Legend,Top*
G04 #@! TF.FilePolarity,Positive*
%FSLAX46Y46*%
G04 Gerber Fmt 4.6, Leading zero omitted, Abs format (unit mm)*
G04 Created by KiCad (PCBNEW (6.0.4-0)) date 2022-05-22 22:30:28*
%MOMM*%
%LPD*%
G01*
G04 APERTURE LIST*
%ADD10C,0.300000*%
%ADD11C,0.700000*%
%ADD12R,1.700000X1.700000*%
%ADD13O,1.700000X1.700000*%
G04 APERTURE END LIST*
D10*
X113952380Y-73666666D02*
X115857142Y-73666666D01*
X113571428Y-74809523D02*
X114904761Y-70809523D01*
X116238095Y-74809523D01*
X117000000Y-70809523D02*
X118333333Y-74809523D01*
X119666666Y-70809523D01*
X123476190Y-72904761D02*
X123285714Y-72714285D01*
X122904761Y-72523809D01*
X122523809Y-72523809D01*
X122142857Y-72714285D01*
X121952380Y-72904761D01*
X121761904Y-73285714D01*
X121761904Y-73666666D01*
X121952380Y-74047619D01*
X122142857Y-74238095D01*
X122523809Y-74428571D01*
X122904761Y-74428571D01*
X123285714Y-74238095D01*
X123476190Y-74047619D01*
X123476190Y-72523809D02*
X123476190Y-74047619D01*
X123666666Y-74238095D01*
X123857142Y-74238095D01*
X124238095Y-74047619D01*
X124428571Y-73666666D01*
X124428571Y-72714285D01*
X124047619Y-72142857D01*
X123476190Y-71761904D01*
X122714285Y-71571428D01*
X121952380Y-71761904D01*
X121380952Y-72142857D01*
X121000000Y-72714285D01*
X120809523Y-73476190D01*
X121000000Y-74238095D01*
X121380952Y-74809523D01*
X121952380Y-75190476D01*
X122714285Y-75380952D01*
X123476190Y-75190476D01*
X124047619Y-74809523D01*
X126142857Y-74809523D02*
X126142857Y-70809523D01*
X127095238Y-70809523D01*
X127666666Y-71000000D01*
X128047619Y-71380952D01*
X128238095Y-71761904D01*
X128428571Y-72523809D01*
X128428571Y-73095238D01*
X128238095Y-73857142D01*
X128047619Y-74238095D01*
X127666666Y-74619047D01*
X127095238Y-74809523D01*
X126142857Y-74809523D01*
X132428571Y-74428571D02*
X132238095Y-74619047D01*
X131666666Y-74809523D01*
X131285714Y-74809523D01*
X130714285Y-74619047D01*
X130333333Y-74238095D01*
X130142857Y-73857142D01*
X129952380Y-73095238D01*
X129952380Y-72523809D01*
X130142857Y-71761904D01*
X130333333Y-71380952D01*
X130714285Y-71000000D01*
X131285714Y-70809523D01*
X131666666Y-70809523D01*
X132238095Y-71000000D01*
X132428571Y-71190476D01*
X133761904Y-70809523D02*
X136238095Y-70809523D01*
X134904761Y-72333333D01*
X135476190Y-72333333D01*
X135857142Y-72523809D01*
X136047619Y-72714285D01*
X136238095Y-73095238D01*
X136238095Y-74047619D01*
X136047619Y-74428571D01*
X135857142Y-74619047D01*
X135476190Y-74809523D01*
X134333333Y-74809523D01*
X133952380Y-74619047D01*
X133761904Y-74428571D01*
X138714285Y-70809523D02*
X139095238Y-70809523D01*
X139476190Y-71000000D01*
X139666666Y-71190476D01*
X139857142Y-71571428D01*
X140047619Y-72333333D01*
X140047619Y-73285714D01*
X139857142Y-74047619D01*
X139666666Y-74428571D01*
X139476190Y-74619047D01*
X139095238Y-74809523D01*
X138714285Y-74809523D01*
X138333333Y-74619047D01*
X138142857Y-74428571D01*
X137952380Y-74047619D01*
X137761904Y-73285714D01*
X137761904Y-72333333D01*
X137952380Y-71571428D01*
X138142857Y-71190476D01*
X138333333Y-71000000D01*
X138714285Y-70809523D01*
G36*
X129502378Y-65494655D02*
G01*
X129503618Y-65506943D01*
X129502378Y-65508461D01*
X129496223Y-65507039D01*
X129495475Y-65501558D01*
X129499264Y-65493035D01*
X129502378Y-65494655D01*
G37*
G36*
X125208643Y-66759650D02*
G01*
X125203466Y-66764827D01*
X125198288Y-66759650D01*
X125203466Y-66754473D01*
X125208643Y-66759650D01*
G37*
G36*
X124738228Y-65517360D02*
G01*
X124768096Y-65396620D01*
X124810274Y-65266732D01*
X124862435Y-65133200D01*
X124922253Y-65001527D01*
X124987400Y-64877215D01*
X125055549Y-64765767D01*
X125056998Y-64763601D01*
X125182995Y-64593504D01*
X125323020Y-64437668D01*
X125475903Y-64296884D01*
X125640473Y-64171946D01*
X125815560Y-64063643D01*
X125999992Y-63972770D01*
X126192599Y-63900116D01*
X126392210Y-63846476D01*
X126421823Y-63840292D01*
X126627911Y-63808467D01*
X126831708Y-63796711D01*
X127035741Y-63804952D01*
X127158309Y-63819317D01*
X127205883Y-63826932D01*
X127257795Y-63836400D01*
X127310104Y-63846855D01*
X127358868Y-63857433D01*
X127400148Y-63867268D01*
X127430001Y-63875497D01*
X127444486Y-63881253D01*
X127445251Y-63882292D01*
X127438162Y-63890454D01*
X127418088Y-63911318D01*
X127386825Y-63943078D01*
X127346165Y-63983927D01*
X127297902Y-64032058D01*
X127243829Y-64085666D01*
X127220484Y-64108722D01*
X127153375Y-64174555D01*
X127099394Y-64226609D01*
X127057278Y-64266001D01*
X127025764Y-64293846D01*
X127003593Y-64311260D01*
X126989501Y-64319360D01*
X126982326Y-64319348D01*
X126972612Y-64315614D01*
X126969102Y-64328718D01*
X126968936Y-64336437D01*
X126965420Y-64351424D01*
X126953747Y-64371928D01*
X126932232Y-64400157D01*
X126899192Y-64438319D01*
X126852941Y-64488623D01*
X126852446Y-64489152D01*
X126735956Y-64613665D01*
X126730779Y-64459629D01*
X126725602Y-64305594D01*
X126624474Y-64436925D01*
X126480283Y-64631543D01*
X126354565Y-64816904D01*
X126247290Y-64993056D01*
X126158431Y-65160046D01*
X126087958Y-65317923D01*
X126072977Y-65356592D01*
X126035581Y-65434341D01*
X125979085Y-65519185D01*
X125972851Y-65527444D01*
X125947493Y-65561035D01*
X125912357Y-65608028D01*
X125869897Y-65665114D01*
X125822569Y-65728986D01*
X125772829Y-65796336D01*
X125724950Y-65861382D01*
X125548060Y-66102128D01*
X125295514Y-66102128D01*
X125216611Y-66102222D01*
X125156025Y-66102618D01*
X125111363Y-66103488D01*
X125080232Y-66105004D01*
X125060241Y-66107338D01*
X125048996Y-66110661D01*
X125044105Y-66115144D01*
X125043158Y-66120249D01*
X125046881Y-66173414D01*
X125056436Y-66241268D01*
X125070789Y-66318958D01*
X125088906Y-66401636D01*
X125109755Y-66484450D01*
X125132301Y-66562550D01*
X125146910Y-66607148D01*
X125159228Y-66644575D01*
X125167184Y-66672567D01*
X125169689Y-66687064D01*
X125168663Y-66688056D01*
X125161134Y-66694952D01*
X125144903Y-66717088D01*
X125121723Y-66751826D01*
X125093350Y-66796530D01*
X125061536Y-66848565D01*
X125058632Y-66853405D01*
X125026567Y-66906312D01*
X124997870Y-66952522D01*
X124974294Y-66989303D01*
X124957594Y-67013920D01*
X124949523Y-67023641D01*
X124949310Y-67023694D01*
X124942571Y-67014791D01*
X124929458Y-66990494D01*
X124911809Y-66954423D01*
X124891460Y-66910197D01*
X124889645Y-66906133D01*
X124809431Y-66701889D01*
X124749770Y-66495270D01*
X124710648Y-66286139D01*
X124692050Y-66074361D01*
X124693961Y-65859800D01*
X124695261Y-65847179D01*
X125042968Y-65847179D01*
X125044578Y-65851816D01*
X125050778Y-65855520D01*
X125063623Y-65858394D01*
X125085169Y-65860542D01*
X125117471Y-65862065D01*
X125162585Y-65863066D01*
X125222566Y-65863649D01*
X125299470Y-65863916D01*
X125378860Y-65863971D01*
X125714753Y-65863971D01*
X125721100Y-65814786D01*
X125746440Y-65652643D01*
X125780041Y-65499339D01*
X125823185Y-65351599D01*
X125877150Y-65206145D01*
X125943217Y-65059701D01*
X126022668Y-64908989D01*
X126116781Y-64750732D01*
X126168508Y-64669638D01*
X126195953Y-64628579D01*
X126230024Y-64579353D01*
X126268785Y-64524583D01*
X126310298Y-64466894D01*
X126352628Y-64408910D01*
X126393837Y-64353254D01*
X126431987Y-64302552D01*
X126465144Y-64259426D01*
X126491368Y-64226502D01*
X126508724Y-64206403D01*
X126513902Y-64201694D01*
X126525398Y-64191183D01*
X126518813Y-64186024D01*
X126496138Y-64186472D01*
X126459365Y-64192781D01*
X126453792Y-64194014D01*
X126272814Y-64245350D01*
X126099601Y-64315169D01*
X125935318Y-64402325D01*
X125781131Y-64505671D01*
X125638203Y-64624062D01*
X125507699Y-64756351D01*
X125390784Y-64901393D01*
X125288624Y-65058040D01*
X125202382Y-65225147D01*
X125133223Y-65401567D01*
X125095406Y-65530758D01*
X125086632Y-65569463D01*
X125076851Y-65618992D01*
X125066925Y-65674153D01*
X125057714Y-65729754D01*
X125050077Y-65780605D01*
X125044875Y-65821514D01*
X125042968Y-65847179D01*
X124695261Y-65847179D01*
X124716366Y-65642318D01*
X124738228Y-65517360D01*
G37*
G36*
X125198288Y-66738941D02*
G01*
X125193111Y-66744118D01*
X125187934Y-66738941D01*
X125193111Y-66733763D01*
X125198288Y-66738941D01*
G37*
G36*
X129130089Y-63089482D02*
G01*
X129177118Y-63111162D01*
X129223688Y-63147102D01*
X129263966Y-63191562D01*
X129292118Y-63238804D01*
X129297925Y-63254595D01*
X129308532Y-63311719D01*
X129311321Y-63382314D01*
X129306537Y-63460774D01*
X129294426Y-63541495D01*
X129283235Y-63590637D01*
X129260991Y-63666463D01*
X129231955Y-63751950D01*
X129198959Y-63839564D01*
X129164836Y-63921774D01*
X129133402Y-63989102D01*
X129118082Y-64022061D01*
X129108662Y-64047583D01*
X129107050Y-64060445D01*
X129107261Y-64060718D01*
X129119454Y-64063820D01*
X129148422Y-64067750D01*
X129190270Y-64072073D01*
X129241102Y-64076355D01*
X129260670Y-64077791D01*
X129313075Y-64081891D01*
X129357214Y-64086115D01*
X129389416Y-64090049D01*
X129406011Y-64093284D01*
X129407461Y-64094241D01*
X129399883Y-64101946D01*
X129378487Y-64121153D01*
X129345282Y-64150165D01*
X129302277Y-64187284D01*
X129251479Y-64230812D01*
X129194898Y-64279053D01*
X129134540Y-64330307D01*
X129072416Y-64382879D01*
X129010533Y-64435070D01*
X128950899Y-64485184D01*
X128895524Y-64531521D01*
X128846414Y-64572386D01*
X128805580Y-64606080D01*
X128775028Y-64630905D01*
X128756768Y-64645165D01*
X128752365Y-64647944D01*
X128752506Y-64637452D01*
X128754036Y-64608937D01*
X128756765Y-64565023D01*
X128760503Y-64508337D01*
X128765060Y-64441504D01*
X128770245Y-64367150D01*
X128775869Y-64287900D01*
X128781742Y-64206379D01*
X128787673Y-64125214D01*
X128793472Y-64047029D01*
X128798949Y-63974451D01*
X128803914Y-63910104D01*
X128808177Y-63856614D01*
X128811548Y-63816607D01*
X128813836Y-63792708D01*
X128814710Y-63786946D01*
X128821844Y-63793545D01*
X128839796Y-63813407D01*
X128866200Y-63843826D01*
X128898688Y-63882097D01*
X128915379Y-63902019D01*
X128958669Y-63952468D01*
X128991042Y-63987024D01*
X129012151Y-64005342D01*
X129021523Y-64007288D01*
X129033929Y-63981641D01*
X129049453Y-63939601D01*
X129067029Y-63885055D01*
X129085590Y-63821894D01*
X129104067Y-63754004D01*
X129121394Y-63685275D01*
X129136503Y-63619595D01*
X129148327Y-63560853D01*
X129154543Y-63522647D01*
X129162149Y-63438135D01*
X129159101Y-63370484D01*
X129145261Y-63318718D01*
X129121151Y-63282510D01*
X129101265Y-63264668D01*
X129082979Y-63256490D01*
X129057896Y-63255543D01*
X129035015Y-63257542D01*
X128965368Y-63272455D01*
X128884307Y-63303681D01*
X128792461Y-63350688D01*
X128690459Y-63412941D01*
X128578930Y-63489908D01*
X128458504Y-63581054D01*
X128329808Y-63685846D01*
X128193472Y-63803751D01*
X128050126Y-63934234D01*
X127900398Y-64076762D01*
X127744917Y-64230802D01*
X127584312Y-64395819D01*
X127419213Y-64571281D01*
X127250247Y-64756653D01*
X127195155Y-64818327D01*
X126994699Y-65047916D01*
X126793471Y-65286332D01*
X126593169Y-65531310D01*
X126395485Y-65780586D01*
X126202118Y-66031895D01*
X126014760Y-66282971D01*
X125835108Y-66531552D01*
X125664858Y-66775372D01*
X125505703Y-67012166D01*
X125359341Y-67239671D01*
X125253482Y-67411994D01*
X125140065Y-67605027D01*
X125040262Y-67783646D01*
X124953683Y-67948694D01*
X124879939Y-68101017D01*
X124818641Y-68241457D01*
X124769399Y-68370859D01*
X124731825Y-68490066D01*
X124705528Y-68599923D01*
X124705382Y-68600667D01*
X124694509Y-68679778D01*
X124696245Y-68742557D01*
X124710643Y-68789147D01*
X124737761Y-68819688D01*
X124777656Y-68834323D01*
X124798628Y-68835761D01*
X124864517Y-68828259D01*
X124943667Y-68806078D01*
X125035238Y-68769702D01*
X125138388Y-68719618D01*
X125252277Y-68656311D01*
X125376063Y-68580265D01*
X125508905Y-68491968D01*
X125649961Y-68391904D01*
X125798391Y-68280560D01*
X125904881Y-68197238D01*
X125947849Y-68163461D01*
X125985207Y-68134830D01*
X126013936Y-68113603D01*
X126031015Y-68102037D01*
X126034189Y-68100579D01*
X126029525Y-68107542D01*
X126012160Y-68127043D01*
X125984060Y-68157000D01*
X125947191Y-68195332D01*
X125903520Y-68239957D01*
X125881571Y-68262143D01*
X125728129Y-68412135D01*
X125582128Y-68545522D01*
X125443836Y-68662144D01*
X125313520Y-68761840D01*
X125191448Y-68844450D01*
X125077886Y-68909814D01*
X124973103Y-68957772D01*
X124877366Y-68988163D01*
X124790942Y-69000827D01*
X124714098Y-68995605D01*
X124675492Y-68984859D01*
X124627787Y-68958431D01*
X124582406Y-68917293D01*
X124545178Y-68867146D01*
X124534365Y-68846878D01*
X124520095Y-68802913D01*
X124510460Y-68743872D01*
X124505769Y-68674931D01*
X124506332Y-68601269D01*
X124512458Y-68528061D01*
X124514449Y-68513442D01*
X124538936Y-68388408D01*
X124577496Y-68249832D01*
X124629506Y-68098759D01*
X124694341Y-67936237D01*
X124771376Y-67763311D01*
X124859986Y-67581028D01*
X124959548Y-67390433D01*
X125069436Y-67192574D01*
X125189025Y-66988496D01*
X125317692Y-66779247D01*
X125454811Y-66565871D01*
X125599759Y-66349415D01*
X125751909Y-66130926D01*
X125910639Y-65911450D01*
X126075322Y-65692032D01*
X126245335Y-65473720D01*
X126420053Y-65257560D01*
X126553595Y-65097726D01*
X126697767Y-64930683D01*
X126847838Y-64762531D01*
X127001661Y-64595456D01*
X127157089Y-64431645D01*
X127311973Y-64273284D01*
X127464166Y-64122561D01*
X127611521Y-63981661D01*
X127751888Y-63852773D01*
X127883122Y-63738082D01*
X127916740Y-63709808D01*
X128085356Y-63573448D01*
X128244298Y-63453417D01*
X128393364Y-63349819D01*
X128532351Y-63262758D01*
X128661055Y-63192339D01*
X128779272Y-63138665D01*
X128886799Y-63101840D01*
X128983432Y-63081969D01*
X129068969Y-63079155D01*
X129130089Y-63089482D01*
G37*
G36*
X125187934Y-66718231D02*
G01*
X125182756Y-66723409D01*
X125177579Y-66718231D01*
X125182756Y-66713054D01*
X125187934Y-66718231D01*
G37*
G36*
X125498574Y-67204901D02*
G01*
X125493396Y-67210078D01*
X125488219Y-67204901D01*
X125493396Y-67199723D01*
X125498574Y-67204901D01*
G37*
G36*
X125421407Y-67627032D02*
G01*
X125390508Y-67596330D01*
X125377019Y-67573888D01*
X125376711Y-67564458D01*
X125383694Y-67549460D01*
X125399708Y-67520487D01*
X125422716Y-67481067D01*
X125450679Y-67434729D01*
X125466652Y-67408825D01*
X125551692Y-67271938D01*
X125646800Y-67355632D01*
X125801229Y-67478334D01*
X125965850Y-67583968D01*
X126138738Y-67671376D01*
X126236525Y-67711212D01*
X126279348Y-67726238D01*
X126328037Y-67741786D01*
X126378524Y-67756749D01*
X126426740Y-67770020D01*
X126468616Y-67780492D01*
X126500084Y-67787058D01*
X126517074Y-67788611D01*
X126518684Y-67787996D01*
X126513951Y-67779075D01*
X126498746Y-67756921D01*
X126475301Y-67724657D01*
X126445846Y-67685407D01*
X126438699Y-67676038D01*
X126350515Y-67558372D01*
X126266084Y-67441078D01*
X126188735Y-67328890D01*
X126121797Y-67226542D01*
X126114690Y-67215255D01*
X126085728Y-67167329D01*
X126054053Y-67112019D01*
X126021280Y-67052473D01*
X125989025Y-66991835D01*
X125958905Y-66933251D01*
X125932533Y-66879866D01*
X125911526Y-66834825D01*
X125897499Y-66801275D01*
X125892068Y-66782361D01*
X125892051Y-66781779D01*
X125897817Y-66766368D01*
X125913567Y-66738151D01*
X125936977Y-66700980D01*
X125965726Y-66658706D01*
X125969458Y-66653426D01*
X126001985Y-66608403D01*
X126024950Y-66578869D01*
X126040103Y-66562967D01*
X126049195Y-66558837D01*
X126053767Y-66563994D01*
X126107232Y-66698612D01*
X126175979Y-66843007D01*
X126258552Y-66994763D01*
X126353493Y-67151464D01*
X126459347Y-67310695D01*
X126574656Y-67470038D01*
X126685900Y-67612271D01*
X126730779Y-67667582D01*
X126730779Y-66102618D01*
X126700161Y-66102128D01*
X126968936Y-66102128D01*
X126969167Y-66886495D01*
X126969397Y-67670861D01*
X126990164Y-67644974D01*
X127002925Y-67628578D01*
X127025732Y-67598789D01*
X127056182Y-67558763D01*
X127091873Y-67511659D01*
X127128041Y-67463767D01*
X127264355Y-67275360D01*
X127382741Y-67095268D01*
X127483736Y-66922430D01*
X127567876Y-66755783D01*
X127635698Y-66594267D01*
X127687739Y-66436819D01*
X127724063Y-66284831D01*
X127732999Y-66235267D01*
X127740116Y-66189593D01*
X127744529Y-66153858D01*
X127745537Y-66137844D01*
X127745537Y-66102128D01*
X126968936Y-66102128D01*
X126700161Y-66102128D01*
X126553696Y-66099784D01*
X126376613Y-66096951D01*
X126557409Y-65863971D01*
X126730779Y-65863971D01*
X126730779Y-65644923D01*
X126839815Y-65511531D01*
X126876786Y-65466652D01*
X126909626Y-65427445D01*
X126935935Y-65396724D01*
X126953312Y-65377305D01*
X126958894Y-65371932D01*
X126962279Y-65379833D01*
X126965016Y-65407450D01*
X126967063Y-65453797D01*
X126968379Y-65517889D01*
X126968923Y-65598741D01*
X126968936Y-65614848D01*
X126968936Y-65863971D01*
X127745537Y-65863971D01*
X127745537Y-65828874D01*
X127742758Y-65791569D01*
X127735089Y-65739590D01*
X127723529Y-65678118D01*
X127709078Y-65612333D01*
X127692737Y-65547415D01*
X127687681Y-65529118D01*
X127653122Y-65421880D01*
X127608191Y-65305434D01*
X127555836Y-65186433D01*
X127498999Y-65071530D01*
X127440627Y-64967379D01*
X127434747Y-64957693D01*
X127414581Y-64924144D01*
X127399096Y-64897247D01*
X127391161Y-64882017D01*
X127390756Y-64880899D01*
X127396296Y-64870131D01*
X127412800Y-64848378D01*
X127436813Y-64819516D01*
X127464879Y-64787424D01*
X127493540Y-64755978D01*
X127519340Y-64729056D01*
X127538824Y-64710535D01*
X127548225Y-64704248D01*
X127557060Y-64712903D01*
X127574007Y-64736997D01*
X127597377Y-64773730D01*
X127625481Y-64820297D01*
X127656628Y-64873897D01*
X127689131Y-64931727D01*
X127721298Y-64990984D01*
X127722997Y-64994179D01*
X127787294Y-65126262D01*
X127845227Y-65267174D01*
X127895193Y-65411902D01*
X127935587Y-65555432D01*
X127964805Y-65692749D01*
X127978985Y-65794077D01*
X127986106Y-65863971D01*
X128659423Y-65863971D01*
X128652297Y-65788900D01*
X128626251Y-65616711D01*
X128581481Y-65443603D01*
X128519476Y-65273171D01*
X128441721Y-65109010D01*
X128349706Y-64954714D01*
X128252722Y-64823327D01*
X128197040Y-64759892D01*
X128130176Y-64690867D01*
X128057578Y-64621403D01*
X127984690Y-64556652D01*
X127916959Y-64501764D01*
X127897498Y-64487295D01*
X127806126Y-64421139D01*
X127930639Y-64296626D01*
X127977146Y-64249733D01*
X128011836Y-64215996D01*
X128038420Y-64194869D01*
X128060611Y-64185806D01*
X128082118Y-64188263D01*
X128106655Y-64201694D01*
X128137933Y-64225553D01*
X128179663Y-64259294D01*
X128180433Y-64259908D01*
X128340736Y-64400833D01*
X128485193Y-64554581D01*
X128613262Y-64720024D01*
X128724399Y-64896031D01*
X128818061Y-65081473D01*
X128893704Y-65275220D01*
X128950787Y-65476143D01*
X128988765Y-65683111D01*
X129007096Y-65894995D01*
X129008806Y-65983050D01*
X128999459Y-66196643D01*
X128971175Y-66402676D01*
X128923586Y-66602751D01*
X128856328Y-66798471D01*
X128786459Y-66956389D01*
X128685117Y-67141329D01*
X128567922Y-67313672D01*
X128435977Y-67472641D01*
X128290386Y-67617463D01*
X128132249Y-67747361D01*
X127962672Y-67861561D01*
X127782755Y-67959289D01*
X127593602Y-68039769D01*
X127396316Y-68102227D01*
X127191999Y-68145887D01*
X127070303Y-68162335D01*
X127024925Y-68165957D01*
X126967746Y-68168724D01*
X126903804Y-68170584D01*
X126838135Y-68171484D01*
X126775778Y-68171372D01*
X126721770Y-68170195D01*
X126681149Y-68167902D01*
X126668651Y-68166502D01*
X126646842Y-68163553D01*
X126610903Y-68158896D01*
X126567258Y-68153361D01*
X126549572Y-68151148D01*
X126367289Y-68118561D01*
X126184325Y-68066754D01*
X126003312Y-67996947D01*
X125826878Y-67910362D01*
X125657653Y-67808222D01*
X125631820Y-67789344D01*
X127184067Y-67789344D01*
X127184248Y-67789867D01*
X127197083Y-67787558D01*
X127224772Y-67781484D01*
X127262055Y-67772811D01*
X127274399Y-67769859D01*
X127450471Y-67717022D01*
X127621302Y-67645142D01*
X127784908Y-67555625D01*
X127939306Y-67449879D01*
X128082513Y-67329311D01*
X128212545Y-67195329D01*
X128327420Y-67049341D01*
X128362291Y-66997807D01*
X128445205Y-66855241D01*
X128516964Y-66701279D01*
X128575852Y-66540769D01*
X128620153Y-66378561D01*
X128648153Y-66219502D01*
X128652760Y-66177032D01*
X128659721Y-66102128D01*
X128324296Y-66102134D01*
X127988871Y-66102139D01*
X127971129Y-66228979D01*
X127942561Y-66387450D01*
X127900861Y-66545984D01*
X127845356Y-66705988D01*
X127775371Y-66868870D01*
X127690233Y-67036036D01*
X127589266Y-67208894D01*
X127471798Y-67388850D01*
X127337154Y-67577313D01*
X127303938Y-67621676D01*
X127266087Y-67672271D01*
X127233442Y-67716770D01*
X127207735Y-67752737D01*
X127190700Y-67777740D01*
X127184067Y-67789344D01*
X125631820Y-67789344D01*
X125498269Y-67691747D01*
X125421407Y-67627032D01*
G37*
G36*
X129502378Y-67016791D02*
G01*
X129503618Y-67029079D01*
X129502378Y-67030597D01*
X129496223Y-67029176D01*
X129495475Y-67023694D01*
X129499264Y-67015171D01*
X129502378Y-67016791D01*
G37*
%LPC*%
D11*
X123500000Y-81085000D02*
X123214285Y-80942142D01*
X122785714Y-80942142D01*
X122357142Y-81085000D01*
X122071428Y-81370714D01*
X121928571Y-81656428D01*
X121785714Y-82227857D01*
X121785714Y-82656428D01*
X121928571Y-83227857D01*
X122071428Y-83513571D01*
X122357142Y-83799285D01*
X122785714Y-83942142D01*
X123071428Y-83942142D01*
X123500000Y-83799285D01*
X123642857Y-83656428D01*
X123642857Y-82656428D01*
X123071428Y-82656428D01*
X125500000Y-80942142D02*
X126071428Y-80942142D01*
X126357142Y-81085000D01*
X126642857Y-81370714D01*
X126785714Y-81942142D01*
X126785714Y-82942142D01*
X126642857Y-83513571D01*
X126357142Y-83799285D01*
X126071428Y-83942142D01*
X125500000Y-83942142D01*
X125214285Y-83799285D01*
X124928571Y-83513571D01*
X124785714Y-82942142D01*
X124785714Y-81942142D01*
X124928571Y-81370714D01*
X125214285Y-81085000D01*
X125500000Y-80942142D01*
X129500000Y-83942142D02*
X128071428Y-83942142D01*
X128071428Y-80942142D01*
X130500000Y-83942142D02*
X130500000Y-80942142D01*
X131214285Y-80942142D01*
X131642857Y-81085000D01*
X131928571Y-81370714D01*
X132071428Y-81656428D01*
X132214285Y-82227857D01*
X132214285Y-82656428D01*
X132071428Y-83227857D01*
X131928571Y-83513571D01*
X131642857Y-83799285D01*
X131214285Y-83942142D01*
X130500000Y-83942142D01*
X122214285Y-88629285D02*
X122642857Y-88772142D01*
X123357142Y-88772142D01*
X123642857Y-88629285D01*
X123785714Y-88486428D01*
X123928571Y-88200714D01*
X123928571Y-87915000D01*
X123785714Y-87629285D01*
X123642857Y-87486428D01*
X123357142Y-87343571D01*
X122785714Y-87200714D01*
X122500000Y-87057857D01*
X122357142Y-86915000D01*
X122214285Y-86629285D01*
X122214285Y-86343571D01*
X122357142Y-86057857D01*
X122500000Y-85915000D01*
X122785714Y-85772142D01*
X123500000Y-85772142D01*
X123928571Y-85915000D01*
X124785714Y-85772142D02*
X126500000Y-85772142D01*
X125642857Y-88772142D02*
X125642857Y-85772142D01*
X127357142Y-87915000D02*
X128785714Y-87915000D01*
X127071428Y-88772142D02*
X128071428Y-85772142D01*
X129071428Y-88772142D01*
X131785714Y-88772142D02*
X130785714Y-87343571D01*
X130071428Y-88772142D02*
X130071428Y-85772142D01*
X131214285Y-85772142D01*
X131500000Y-85915000D01*
X131642857Y-86057857D01*
X131785714Y-86343571D01*
X131785714Y-86772142D01*
X131642857Y-87057857D01*
X131500000Y-87200714D01*
X131214285Y-87343571D01*
X130071428Y-87343571D01*
D12*
X124460000Y-76800000D03*
D13*
X124460000Y-79340000D03*
X127000000Y-76800000D03*
X127000000Y-79340000D03*
X129540000Y-76800000D03*
X129540000Y-79340000D03*
M02*
